<?xml version="1.0" encoding="UTF-8" standalone="no"?>
<!DOCTYPE svg PUBLIC "-//W3C//DTD SVG 1.1//EN"
"http://www.w3.org/Graphics/SVG/1.1/DTD/svg11.dtd">
<svg viewBox="0 0 909 1285" version="1.1" xmlns="http://www.w3.org/2000/svg" xmlns:xlink="http://www.w3.org/1999/xlink">
<defs>
<style type="text/css"><![CDATA[
.g0_104{
fill: #FFFFFF;
}
.g1_104{
fill: none;
stroke: #000000;
stroke-width: 0.381;
stroke-linecap: butt;
stroke-linejoin: round;
}
]]></style>
</defs>
<path fill-rule="evenodd" d="M610.8,131.1h81.8V110H610.8v21.1Z" class="g0_104"/>
<path fill-rule="evenodd" d="M194.5,166.7H433.3V151.6H194.5v15.1Z" class="g0_104"/>
<path fill-rule="evenodd" d="M194.5,181.7H433.3v-15H194.5v15Z" class="g0_104"/>
<path fill-rule="evenodd" d="M194.5,196.9H433.3V181.7H194.5v15.2Z" class="g0_104"/>
<path fill-rule="evenodd" d="M194.5,212H433.3V196.9H194.5V212Z" class="g0_104"/>
<path fill-rule="evenodd" d="M194.5,227H433.3V212H194.5v15Z" class="g0_104"/>
<path fill-rule="evenodd" d="M194.5,242H433.3V227H194.5v15Z" class="g0_104"/>
<path fill-rule="evenodd" d="M194.5,257.1H433.3V242H194.5v15.1Z" class="g0_104"/>
<path fill-rule="evenodd" d="M194.5,272.1H433.3v-15H194.5v15Z" class="g0_104"/>
<path fill-rule="evenodd" d="M194.5,287.1H433.3v-15H194.5v15Z" class="g0_104"/>
<path fill-rule="evenodd" d="M194.5,302.2H433.3V287.1H194.5v15.1Z" class="g0_104"/>
<path fill-rule="evenodd" d="M194.2,317.2H432.9v-15H194.2v15Z" class="g0_104"/>
<path fill-rule="evenodd" d="M194.2,332.2H432.9v-15H194.2v15Z" class="g0_104"/>
<path fill-rule="evenodd" d="M194.2,347.3H432.9V332.2H194.2v15.1Z" class="g0_104"/>
<path fill-rule="evenodd" d="M194.2,362.5H432.9V347.3H194.2v15.2Z" class="g0_104"/>
<path fill-rule="evenodd" d="M194.2,377.6H432.9V362.5H194.2v15.1Z" class="g0_104"/>
<path fill-rule="evenodd" d="M212.5,392.6H433.3v-15H212.5v15Z" class="g0_104"/>
<path fill-rule="evenodd" d="M194.5,407.6H432.9v-15H194.5v15Z" class="g0_104"/>
<path fill-rule="evenodd" d="M194.5,422.7H432.9V407.6H194.5v15.1Z" class="g0_104"/>
<path fill-rule="evenodd" d="M193.8,437.7H432.5v-15H193.8v15Z" class="g0_104"/>
<path fill-rule="evenodd" d="M193.8,452.7H432.5v-15H193.8v15Z" class="g0_104"/>
<path fill-rule="evenodd" d="M193.8,467.8H432.5V452.7H193.8v15.1Z" class="g0_104"/>
<path fill-rule="evenodd" d="M194.2,482.8h238v-15h-238v15Z" class="g0_104"/>
<path fill-rule="evenodd" d="M194.2,497.8h238v-15h-238v15Z" class="g0_104"/>
<path fill-rule="evenodd" d="M193.4,512.9H432.2V497.8H193.4v15.1Z" class="g0_104"/>
<path fill-rule="evenodd" d="M193.4,527.9H432.2v-15H193.4v15Z" class="g0_104"/>
<path fill-rule="evenodd" d="M193.1,543.1H432.5V527.9H193.1v15.2Z" class="g0_104"/>
<path fill-rule="evenodd" d="M193.1,558.1H432.5v-15H193.1v15Z" class="g0_104"/>
<path fill-rule="evenodd" d="M193.1,573.2H432.5V558.1H193.1v15.1Z" class="g0_104"/>
<path fill-rule="evenodd" d="M193.1,588.2H432.5v-15H193.1v15Z" class="g0_104"/>
<path fill-rule="evenodd" d="M193.1,603.3H432.5V588.2H193.1v15.1Z" class="g0_104"/>
<path fill-rule="evenodd" d="M211.8,618.3H433.3v-15H211.8v15Z" class="g0_104"/>
<path fill-rule="evenodd" d="M193.4,633.3H431.8v-15H193.4v15Z" class="g0_104"/>
<path fill-rule="evenodd" d="M193.4,648.4H431.8V633.3H193.4v15.1Z" class="g0_104"/>
<path fill-rule="evenodd" d="M193.4,663.4H431.8v-15H193.4v15Z" class="g0_104"/>
<path fill-rule="evenodd" d="M193.4,678.4H431.8v-15H193.4v15Z" class="g0_104"/>
<path fill-rule="evenodd" d="M193.1,693.5h238V678.4h-238v15.1Z" class="g0_104"/>
<path fill-rule="evenodd" d="M193.1,708.5h238v-15h-238v15Z" class="g0_104"/>
<path fill-rule="evenodd" d="M193.1,723.7H431.4V708.5H193.1v15.2Z" class="g0_104"/>
<path fill-rule="evenodd" d="M193.1,738.8H431.4V723.7H193.1v15.1Z" class="g0_104"/>
<path fill-rule="evenodd" d="M193.1,753.8H431.4v-15H193.1v15Z" class="g0_104"/>
<path fill-rule="evenodd" d="M193.1,768.8H431.4v-15H193.1v15Z" class="g0_104"/>
<path fill-rule="evenodd" d="M193.1,783.9H431.4V768.8H193.1v15.1Z" class="g0_104"/>
<path fill-rule="evenodd" d="M193.1,798.9H431.4v-15H193.1v15Z" class="g0_104"/>
<path fill-rule="evenodd" d="M193.4,813.9h238v-15h-238v15Z" class="g0_104"/>
<path fill-rule="evenodd" d="M193.4,829h238V813.9h-238V829Z" class="g0_104"/>
<path fill-rule="evenodd" d="M193.1,844H431.8V829H193.1v15Z" class="g0_104"/>
<path fill-rule="evenodd" d="M193.1,859.1H431.8V844H193.1v15.1Z" class="g0_104"/>
<path fill-rule="evenodd" d="M193.4,874.1h238v-15h-238v15Z" class="g0_104"/>
<path fill-rule="evenodd" d="M193.4,889.1h238v-15h-238v15Z" class="g0_104"/>
<path fill-rule="evenodd" d="M193.4,904.4h238V889.1h-238v15.3Z" class="g0_104"/>
<path fill-rule="evenodd" d="M195.3,919.4H432.9v-15H195.3v15Z" class="g0_104"/>
<path fill-rule="evenodd" d="M453.9,166.7H692.2V151.6H453.9v15.1Z" class="g0_104"/>
<path fill-rule="evenodd" d="M453.9,181.7H692.2v-15H453.9v15Z" class="g0_104"/>
<path fill-rule="evenodd" d="M453.5,196.9H692.6V181.7H453.5v15.2Z" class="g0_104"/>
<path fill-rule="evenodd" d="M453.5,212H692.6V196.9H453.5V212Z" class="g0_104"/>
<path fill-rule="evenodd" d="M453.5,227H692.6V212H453.5v15Z" class="g0_104"/>
<path fill-rule="evenodd" d="M453.5,242H692.6V227H453.5v15Z" class="g0_104"/>
<path fill-rule="evenodd" d="M453.5,257.1H692.6V242H453.5v15.1Z" class="g0_104"/>
<path fill-rule="evenodd" d="M453.5,272.1H692.6v-15H453.5v15Z" class="g0_104"/>
<path fill-rule="evenodd" d="M453.5,287.1H692.6v-15H453.5v15Z" class="g0_104"/>
<path fill-rule="evenodd" d="M453.5,302.2H692.6V287.1H453.5v15.1Z" class="g0_104"/>
<path fill-rule="evenodd" d="M453.5,317.2H692.6v-15H453.5v15Z" class="g0_104"/>
<path fill-rule="evenodd" d="M453.1,332.6H691.9v-15H453.1v15Z" class="g0_104"/>
<path fill-rule="evenodd" d="M453.1,347.8H691.9V332.6H453.1v15.2Z" class="g0_104"/>
<path fill-rule="evenodd" d="M453.1,362.9H691.9V347.8H453.1v15.1Z" class="g0_104"/>
<path fill-rule="evenodd" d="M453.1,377.9H691.9v-15H453.1v15Z" class="g0_104"/>
<path fill-rule="evenodd" d="M453.5,393H692.2V377.9H453.5V393Z" class="g0_104"/>
<path fill-rule="evenodd" d="M453.5,408H692.2V393H453.5v15Z" class="g0_104"/>
<path fill-rule="evenodd" d="M453.5,423H692.2V408H453.5v15Z" class="g0_104"/>
<path fill-rule="evenodd" d="M453.1,438.4H691.5v-15H453.1v15Z" class="g0_104"/>
<path fill-rule="evenodd" d="M453.1,453.5H691.5V438.4H453.1v15.1Z" class="g0_104"/>
<path fill-rule="evenodd" d="M452.8,468.5H691.5v-15H452.8v15Z" class="g0_104"/>
<path fill-rule="evenodd" d="M452.8,483.5H691.5v-15H452.8v15Z" class="g0_104"/>
<path fill-rule="evenodd" d="M452.8,498.6H691.5V483.5H452.8v15.1Z" class="g0_104"/>
<path fill-rule="evenodd" d="M452.8,513.8H691.5V498.6H452.8v15.2Z" class="g0_104"/>
<path fill-rule="evenodd" d="M452.8,528.8H691.5v-15H452.8v15Z" class="g0_104"/>
<path fill-rule="evenodd" d="M452.8,543.8H691.1v-15H452.8v15Z" class="g0_104"/>
<path fill-rule="evenodd" d="M452.8,558.9H691.1V543.8H452.8v15.1Z" class="g0_104"/>
<path fill-rule="evenodd" d="M452.8,573.9H691.5v-15H452.8v15Z" class="g0_104"/>
<path fill-rule="evenodd" d="M452.8,588.9H691.5v-15H452.8v15Z" class="g0_104"/>
<path fill-rule="evenodd" d="M452.8,604H691.1V588.9H452.8V604Z" class="g0_104"/>
<path fill-rule="evenodd" d="M452.8,619H691.1V604H452.8v15Z" class="g0_104"/>
<path fill-rule="evenodd" d="M452,634.4H691.1v-15H452v15Z" class="g0_104"/>
<path fill-rule="evenodd" d="M452,649.5H691.1V634.4H452v15.1Z" class="g0_104"/>
<path fill-rule="evenodd" d="M452,664.5H691.1v-15H452v15Z" class="g0_104"/>
<path fill-rule="evenodd" d="M452,679.7H691.1V664.5H452v15.2Z" class="g0_104"/>
<path fill-rule="evenodd" d="M452,694.8H691.1V679.7H452v15.1Z" class="g0_104"/>
<path fill-rule="evenodd" d="M452,709.8H691.1v-15H452v15Z" class="g0_104"/>
<path fill-rule="evenodd" d="M452,724.8H691.1v-15H452v15Z" class="g0_104"/>
<path fill-rule="evenodd" d="M452,739.9H691.5V724.8H452v15.1Z" class="g0_104"/>
<path fill-rule="evenodd" d="M452,754.9H691.5v-15H452v15Z" class="g0_104"/>
<path fill-rule="evenodd" d="M451.7,769.9H690.8v-15H451.7v15Z" class="g0_104"/>
<path fill-rule="evenodd" d="M451.7,785H690.8V769.9H451.7V785Z" class="g0_104"/>
<path fill-rule="evenodd" d="M452,800H691.1V785H452v15Z" class="g0_104"/>
<path fill-rule="evenodd" d="M452,815H691.1V800H452v15Z" class="g0_104"/>
<path fill-rule="evenodd" d="M452,830.1H691.1V815H452v15.1Z" class="g0_104"/>
<path fill-rule="evenodd" d="M452,845.1H691.1v-15H452v15Z" class="g0_104"/>
<path fill-rule="evenodd" d="M452,860.4H690.8V845.1H452v15.3Z" class="g0_104"/>
<path fill-rule="evenodd" d="M452,875.4H690.8v-15H452v15Z" class="g0_104"/>
<path fill-rule="evenodd" d="M452,890.4H690.8v-15H452v15Z" class="g0_104"/>
<path fill-rule="evenodd" d="M429.6,937.5h263V918.3h-263v19.2Z" class="g0_104"/>
<path d="M440.9,151.3V919.9" class="g1_104"/>
</svg>