<?xml version="1.0" encoding="UTF-8" standalone="no"?>
<!DOCTYPE svg PUBLIC "-//W3C//DTD SVG 1.1//EN"
"http://www.w3.org/Graphics/SVG/1.1/DTD/svg11.dtd">
<svg viewBox="0 0 909 1285" version="1.1" xmlns="http://www.w3.org/2000/svg" xmlns:xlink="http://www.w3.org/1999/xlink">
<defs>
<style type="text/css"><![CDATA[
.g0_115{
fill: #FFFFFF;
}
.g1_115{
fill: none;
stroke: #000000;
stroke-width: 0.381;
stroke-linecap: butt;
stroke-linejoin: round;
}
]]></style>
</defs>
<path fill-rule="evenodd" d="M267.9,125.8H765.6V110H267.9v15.8Z" class="g0_115"/>
<path fill-rule="evenodd" d="M266.8,161.7H506.7V147.1H266.8v14.6Z" class="g0_115"/>
<path fill-rule="evenodd" d="M266.8,176.4H506.7V161.7H266.8v14.7Z" class="g0_115"/>
<path fill-rule="evenodd" d="M266.8,191.1H506.7V176.4H266.8v14.7Z" class="g0_115"/>
<path fill-rule="evenodd" d="M266.8,205.7H506.7V191.1H266.8v14.6Z" class="g0_115"/>
<path fill-rule="evenodd" d="M266.8,220.4H506.7V205.7H266.8v14.7Z" class="g0_115"/>
<path fill-rule="evenodd" d="M266.8,235.1H506.7V220.4H266.8v14.7Z" class="g0_115"/>
<path fill-rule="evenodd" d="M266.8,249.7H506.7V235.1H266.8v14.6Z" class="g0_115"/>
<path fill-rule="evenodd" d="M266.8,264.4H506.7V249.7H266.8v14.7Z" class="g0_115"/>
<path fill-rule="evenodd" d="M266.8,279.1H506.7V264.4H266.8v14.7Z" class="g0_115"/>
<path fill-rule="evenodd" d="M266.8,293.7H506.7V279.1H266.8v14.6Z" class="g0_115"/>
<path fill-rule="evenodd" d="M266.8,308.4H506.7V293.7H266.8v14.7Z" class="g0_115"/>
<path fill-rule="evenodd" d="M266.8,323.1H506.7V308.4H266.8v14.7Z" class="g0_115"/>
<path fill-rule="evenodd" d="M266.8,337.7H506.3V323.1H266.8v14.6Z" class="g0_115"/>
<path fill-rule="evenodd" d="M266.8,352.4H506.3V337.7H266.8v14.7Z" class="g0_115"/>
<path fill-rule="evenodd" d="M285.5,367.1H506.7V352.4H285.5v14.7Z" class="g0_115"/>
<path fill-rule="evenodd" d="M266.4,382.1H505.9V367.5H266.4v14.6Z" class="g0_115"/>
<path fill-rule="evenodd" d="M266.4,396.8H505.9V382.1H266.4v14.7Z" class="g0_115"/>
<path fill-rule="evenodd" d="M266.4,411.5H505.9V396.8H266.4v14.7Z" class="g0_115"/>
<path fill-rule="evenodd" d="M266.4,426.1H505.9V411.5H266.4v14.6Z" class="g0_115"/>
<path fill-rule="evenodd" d="M266.4,441.2H505.6V426.5H266.4v14.7Z" class="g0_115"/>
<path fill-rule="evenodd" d="M266.4,455.8H505.6V441.2H266.4v14.6Z" class="g0_115"/>
<path fill-rule="evenodd" d="M266.4,470.5H505.6V455.8H266.4v14.7Z" class="g0_115"/>
<path fill-rule="evenodd" d="M266,485.5H505.6V470.9H266v14.6Z" class="g0_115"/>
<path fill-rule="evenodd" d="M266,500.2H505.6V485.5H266v14.7Z" class="g0_115"/>
<path fill-rule="evenodd" d="M266,514.9H505.6V500.2H266v14.7Z" class="g0_115"/>
<path fill-rule="evenodd" d="M266,529.5H505.6V514.9H266v14.6Z" class="g0_115"/>
<path fill-rule="evenodd" d="M266,544.2H505.6V529.5H266v14.7Z" class="g0_115"/>
<path fill-rule="evenodd" d="M266,558.9H505.6V544.2H266v14.7Z" class="g0_115"/>
<path fill-rule="evenodd" d="M266,573.5H505.6V558.9H266v14.6Z" class="g0_115"/>
<path fill-rule="evenodd" d="M284.4,588.6H506.7V573.9H284.4v14.7Z" class="g0_115"/>
<path fill-rule="evenodd" d="M284.4,603.8H506.7V588.6H284.4v15.2Z" class="g0_115"/>
<path fill-rule="evenodd" d="M265.3,618.9H505.2V604.2H265.3v14.7Z" class="g0_115"/>
<path fill-rule="evenodd" d="M265.3,633.5H505.2V618.9H265.3v14.6Z" class="g0_115"/>
<path fill-rule="evenodd" d="M265.3,648.2H505.2V633.5H265.3v14.7Z" class="g0_115"/>
<path fill-rule="evenodd" d="M265.3,662.9H505.2V648.2H265.3v14.7Z" class="g0_115"/>
<path fill-rule="evenodd" d="M265.3,677.5H505.2V662.9H265.3v14.6Z" class="g0_115"/>
<path fill-rule="evenodd" d="M265.3,692.2H505.2V677.5H265.3v14.7Z" class="g0_115"/>
<path fill-rule="evenodd" d="M265.3,706.9H505.2V692.2H265.3v14.7Z" class="g0_115"/>
<path fill-rule="evenodd" d="M265.7,721.9H504.1V707.2H265.7v14.7Z" class="g0_115"/>
<path fill-rule="evenodd" d="M265.7,736.6H504.1V721.9H265.7v14.7Z" class="g0_115"/>
<path fill-rule="evenodd" d="M265.7,751.2H504.1V736.6H265.7v14.6Z" class="g0_115"/>
<path fill-rule="evenodd" d="M283.7,766.3h223V751.6h-223v14.7Z" class="g0_115"/>
<path fill-rule="evenodd" d="M265.3,780.9H506.7V766.3H265.3v14.6Z" class="g0_115"/>
<path fill-rule="evenodd" d="M265.3,795.6H506.7V780.9H265.3v14.7Z" class="g0_115"/>
<path fill-rule="evenodd" d="M265.3,810.6H506.7V796H265.3v14.6Z" class="g0_115"/>
<path fill-rule="evenodd" d="M264.6,825.7H503.7V811H264.6v14.7Z" class="g0_115"/>
<path fill-rule="evenodd" d="M264.6,840.4H503.7V825.7H264.6v14.7Z" class="g0_115"/>
<path fill-rule="evenodd" d="M264.6,855H503.7V840.4H264.6V855Z" class="g0_115"/>
<path fill-rule="evenodd" d="M264.6,869.7H503.7V855H264.6v14.7Z" class="g0_115"/>
<path fill-rule="evenodd" d="M264.9,885.1H503.7V870.4H264.9v14.7Z" class="g0_115"/>
<path fill-rule="evenodd" d="M264.9,899.8H503.7V885.1H264.9v14.7Z" class="g0_115"/>
<path fill-rule="evenodd" d="M267.1,914.4H506.7V899.8H267.1v14.6Z" class="g0_115"/>
<path fill-rule="evenodd" d="M526.6,161.7H765.4V147.1H526.6v14.6Z" class="g0_115"/>
<path fill-rule="evenodd" d="M526.6,176.4H765.4V161.7H526.6v14.7Z" class="g0_115"/>
<path fill-rule="evenodd" d="M545,191.1H765.4V176.4H545v14.7Z" class="g0_115"/>
<path fill-rule="evenodd" d="M526.3,206.1H765.4V191.4H526.3v14.7Z" class="g0_115"/>
<path fill-rule="evenodd" d="M526.3,220.8H765.4V206.1H526.3v14.7Z" class="g0_115"/>
<path fill-rule="evenodd" d="M525.9,235.8H765.4V221.1H525.9v14.7Z" class="g0_115"/>
<path fill-rule="evenodd" d="M525.9,250.5H765.4V235.8H525.9v14.7Z" class="g0_115"/>
<path fill-rule="evenodd" d="M525.9,265.1H765.4V250.5H525.9v14.6Z" class="g0_115"/>
<path fill-rule="evenodd" d="M525.9,279.8H765.4V265.1H525.9v14.7Z" class="g0_115"/>
<path fill-rule="evenodd" d="M525.9,294.5H765.4V279.8H525.9v14.7Z" class="g0_115"/>
<path fill-rule="evenodd" d="M525.9,309.1H765.4V294.5H525.9v14.6Z" class="g0_115"/>
<path fill-rule="evenodd" d="M525.9,323.8H765.4V309.1H525.9v14.7Z" class="g0_115"/>
<path fill-rule="evenodd" d="M544.6,338.5H765.4V323.8H544.6v14.7Z" class="g0_115"/>
<path fill-rule="evenodd" d="M525.9,353.2H764.6V338.5H525.9v14.7Z" class="g0_115"/>
<path fill-rule="evenodd" d="M525.9,367.8H764.6V353.2H525.9v14.6Z" class="g0_115"/>
<path fill-rule="evenodd" d="M525.9,382.9H764.6V367.8H525.9v15.1Z" class="g0_115"/>
<path fill-rule="evenodd" d="M525.9,397.5H764.6V382.9H525.9v14.6Z" class="g0_115"/>
<path fill-rule="evenodd" d="M524.8,412.6H764.6V397.9H524.8v14.7Z" class="g0_115"/>
<path fill-rule="evenodd" d="M524.8,427.2H764.6V412.6H524.8v14.6Z" class="g0_115"/>
<path fill-rule="evenodd" d="M524.8,441.9H764.6V427.2H524.8v14.7Z" class="g0_115"/>
<path fill-rule="evenodd" d="M524.8,456.6H764.6V441.9H524.8v14.7Z" class="g0_115"/>
<path fill-rule="evenodd" d="M524.8,471.2H764.6V456.6H524.8v14.6Z" class="g0_115"/>
<path fill-rule="evenodd" d="M524.8,485.9H764.6V471.2H524.8v14.7Z" class="g0_115"/>
<path fill-rule="evenodd" d="M524.8,500.6H764.6V485.9H524.8v14.7Z" class="g0_115"/>
<path fill-rule="evenodd" d="M525.2,515.8H764.3V500.9H525.2v14.9Z" class="g0_115"/>
<path fill-rule="evenodd" d="M525.2,530.5H764.3V515.8H525.2v14.7Z" class="g0_115"/>
<path fill-rule="evenodd" d="M524.8,545.5H764.3V530.8H524.8v14.7Z" class="g0_115"/>
<path fill-rule="evenodd" d="M524.8,560.2H764.3V545.5H524.8v14.7Z" class="g0_115"/>
<path fill-rule="evenodd" d="M524.8,574.8H764.3V560.2H524.8v14.6Z" class="g0_115"/>
<path fill-rule="evenodd" d="M524.8,589.5H764.3V574.8H524.8v14.7Z" class="g0_115"/>
<path fill-rule="evenodd" d="M524.8,604.2H764.3V589.5H524.8v14.7Z" class="g0_115"/>
<path fill-rule="evenodd" d="M524.8,619.6H763.5V604.9H524.8v14.7Z" class="g0_115"/>
<path fill-rule="evenodd" d="M524.8,634.3H763.5V619.6H524.8v14.7Z" class="g0_115"/>
<path fill-rule="evenodd" d="M524.8,649.3H763.9V634.6H524.8v14.7Z" class="g0_115"/>
<path fill-rule="evenodd" d="M524.8,664H763.9V649.3H524.8V664Z" class="g0_115"/>
<path fill-rule="evenodd" d="M524.8,678.6H763.9V664H524.8v14.6Z" class="g0_115"/>
<path fill-rule="evenodd" d="M524.8,693.3H763.9V678.6H524.8v14.7Z" class="g0_115"/>
<path fill-rule="evenodd" d="M524.8,708.3H764.3V693.7H524.8v14.6Z" class="g0_115"/>
<path fill-rule="evenodd" d="M524.8,723H764.3V708.3H524.8V723Z" class="g0_115"/>
<path fill-rule="evenodd" d="M524.8,737.7H764.3V723H524.8v14.7Z" class="g0_115"/>
<path fill-rule="evenodd" d="M524.4,752.7H763.2V738H524.4v14.7Z" class="g0_115"/>
<path fill-rule="evenodd" d="M524.4,767.4H763.2V752.7H524.4v14.7Z" class="g0_115"/>
<path fill-rule="evenodd" d="M524.4,782H763.2V767.4H524.4V782Z" class="g0_115"/>
<path fill-rule="evenodd" d="M524.4,797.1H763.2V782H524.4v15.1Z" class="g0_115"/>
<path fill-rule="evenodd" d="M524.4,811.7H763.2V797.1H524.4v14.6Z" class="g0_115"/>
<path fill-rule="evenodd" d="M524.1,826.8H763.5V812.1H524.1v14.7Z" class="g0_115"/>
<path fill-rule="evenodd" d="M524.1,841.5H763.5V826.8H524.1v14.7Z" class="g0_115"/>
<path fill-rule="evenodd" d="M524.1,856.1H763.5V841.5H524.1v14.6Z" class="g0_115"/>
<path fill-rule="evenodd" d="M524.1,870.8H763.5V856.1H524.1v14.7Z" class="g0_115"/>
<path fill-rule="evenodd" d="M524.1,885.5H763.5V870.8H524.1v14.7Z" class="g0_115"/>
<path fill-rule="evenodd" d="M524.1,900.1H763.5V885.5H524.1v14.6Z" class="g0_115"/>
<path fill-rule="evenodd" d="M501.9,932.8H765.6V915.2H501.9v17.6Z" class="g0_115"/>
<path d="M195.2,99.4V242M207.6,98.6V500.5M201.1,255.6V627.4m1,198.7v132M210.2,502V910M194.1,330.8v9.5M513.8,147.8V916.7" class="g1_115"/>
</svg>