<?xml version="1.0" encoding="UTF-8" standalone="no"?>
<!DOCTYPE svg PUBLIC "-//W3C//DTD SVG 1.1//EN"
"http://www.w3.org/Graphics/SVG/1.1/DTD/svg11.dtd">
<svg viewBox="0 0 909 1285" version="1.1" xmlns="http://www.w3.org/2000/svg" xmlns:xlink="http://www.w3.org/1999/xlink">
<defs>
<style type="text/css"><![CDATA[
.g0_182{
fill: #FFFFFF;
}
.g1_182{
fill: none;
stroke: #000000;
stroke-width: 0.381;
stroke-linecap: butt;
stroke-linejoin: round;
}
]]></style>
</defs>
<path fill-rule="evenodd" d="M561.8,131.1H672.2V110H561.8v21.1Z" class="g0_182"/>
<path fill-rule="evenodd" d="M174.9,167H411.8V152H174.9v15Z" class="g0_182"/>
<path fill-rule="evenodd" d="M174.9,182.3H411.8V167H174.9v15.3Z" class="g0_182"/>
<path fill-rule="evenodd" d="M174.6,197.3H412.2v-15H174.6v15Z" class="g0_182"/>
<path fill-rule="evenodd" d="M174.6,212.3H412.2v-15H174.6v15Z" class="g0_182"/>
<path fill-rule="evenodd" d="M192.9,227.4H412.6V212.3H192.9v15.1Z" class="g0_182"/>
<path fill-rule="evenodd" d="M174.2,242.4H412.6v-15H174.2v15Z" class="g0_182"/>
<path fill-rule="evenodd" d="M174.2,257.4H412.6v-15H174.2v15Z" class="g0_182"/>
<path fill-rule="evenodd" d="M174.2,272.5H412.6V257.4H174.2v15.1Z" class="g0_182"/>
<path fill-rule="evenodd" d="M174.6,287.5H412.2v-15H174.6v15Z" class="g0_182"/>
<path fill-rule="evenodd" d="M174.6,302.5H412.2v-15H174.6v15Z" class="g0_182"/>
<path fill-rule="evenodd" d="M174.6,317.6H411.8V302.5H174.6v15.1Z" class="g0_182"/>
<path fill-rule="evenodd" d="M174.6,332.6H411.8v-15H174.6v15Z" class="g0_182"/>
<path fill-rule="evenodd" d="M174.2,347.8h238V332.6h-238v15.2Z" class="g0_182"/>
<path fill-rule="evenodd" d="M174.2,362.9h238V347.8h-238v15.1Z" class="g0_182"/>
<path fill-rule="evenodd" d="M174.2,378.3h238V362.9h-238v15.4Z" class="g0_182"/>
<path fill-rule="evenodd" d="M174.2,393.3h238v-15h-238v15Z" class="g0_182"/>
<path fill-rule="evenodd" d="M174.2,408.4h238V393.3h-238v15.1Z" class="g0_182"/>
<path fill-rule="evenodd" d="M174.2,423.4h238v-15h-238v15Z" class="g0_182"/>
<path fill-rule="evenodd" d="M173.8,438.4h238v-15h-238v15Z" class="g0_182"/>
<path fill-rule="evenodd" d="M173.8,453.5h238V438.4h-238v15.1Z" class="g0_182"/>
<path fill-rule="evenodd" d="M173.5,468.5H411.8v-15H173.5v15Z" class="g0_182"/>
<path fill-rule="evenodd" d="M173.5,483.5H411.8v-15H173.5v15Z" class="g0_182"/>
<path fill-rule="evenodd" d="M173.5,498.6H411.8V483.5H173.5v15.1Z" class="g0_182"/>
<path fill-rule="evenodd" d="M173.5,513.8H411.8V498.6H173.5v15.2Z" class="g0_182"/>
<path fill-rule="evenodd" d="M173.5,528.8H411.8v-15H173.5v15Z" class="g0_182"/>
<path fill-rule="evenodd" d="M173.5,543.8h238v-15h-238v15Z" class="g0_182"/>
<path fill-rule="evenodd" d="M173.5,558.9h238V543.8h-238v15.1Z" class="g0_182"/>
<path fill-rule="evenodd" d="M173.5,573.9h238v-15h-238v15Z" class="g0_182"/>
<path fill-rule="evenodd" d="M173.1,588.9H411.8v-15H173.1v15Z" class="g0_182"/>
<path fill-rule="evenodd" d="M173.1,604H411.8V588.9H173.1V604Z" class="g0_182"/>
<path fill-rule="evenodd" d="M173.1,619H411.8V604H173.1v15Z" class="g0_182"/>
<path fill-rule="evenodd" d="M173.1,634.1H411.8V619H173.1v15.1Z" class="g0_182"/>
<path fill-rule="evenodd" d="M173.1,649.1H411.8v-15H173.1v15Z" class="g0_182"/>
<path fill-rule="evenodd" d="M172.7,664.1H411.5v-15H172.7v15Z" class="g0_182"/>
<path fill-rule="evenodd" d="M172.7,679.2H411.5V664.1H172.7v15.1Z" class="g0_182"/>
<path fill-rule="evenodd" d="M172.7,694.4H411.5V679.2H172.7v15.2Z" class="g0_182"/>
<path fill-rule="evenodd" d="M172.7,709.4H411.5v-15H172.7v15Z" class="g0_182"/>
<path fill-rule="evenodd" d="M173.1,724.5h238V709.4h-238v15.1Z" class="g0_182"/>
<path fill-rule="evenodd" d="M173.1,739.5h238v-15h-238v15Z" class="g0_182"/>
<path fill-rule="evenodd" d="M173.1,754.5h238v-15h-238v15Z" class="g0_182"/>
<path fill-rule="evenodd" d="M173.1,769.6h238V754.5h-238v15.1Z" class="g0_182"/>
<path fill-rule="evenodd" d="M173.1,784.6h238v-15h-238v15Z" class="g0_182"/>
<path fill-rule="evenodd" d="M173.1,799.6h238v-15h-238v15Z" class="g0_182"/>
<path fill-rule="evenodd" d="M172.4,814.7H411.5V799.6H172.4v15.1Z" class="g0_182"/>
<path fill-rule="evenodd" d="M172.4,829.7H411.5v-15H172.4v15Z" class="g0_182"/>
<path fill-rule="evenodd" d="M172.4,844.8H411.5V829.7H172.4v15.1Z" class="g0_182"/>
<path fill-rule="evenodd" d="M172.4,859.8H411.5v-15H172.4v15Z" class="g0_182"/>
<path fill-rule="evenodd" d="M172.4,875H411.5V859.8H172.4V875Z" class="g0_182"/>
<path fill-rule="evenodd" d="M172.4,890.1H411.5V875H172.4v15.1Z" class="g0_182"/>
<path fill-rule="evenodd" d="M172.4,905.1H411.5v-15H172.4v15Z" class="g0_182"/>
<path fill-rule="evenodd" d="M173.8,920.1H412.2v-15H173.8v15Z" class="g0_182"/>
<path fill-rule="evenodd" d="M432.7,167H671.9V152H432.7v15Z" class="g0_182"/>
<path fill-rule="evenodd" d="M432.7,182.3H671.9V167H432.7v15.3Z" class="g0_182"/>
<path fill-rule="evenodd" d="M432.7,197.3H671.9v-15H432.7v15Z" class="g0_182"/>
<path fill-rule="evenodd" d="M432.7,212.3H671.9v-15H432.7v15Z" class="g0_182"/>
<path fill-rule="evenodd" d="M432.7,227.4H672.3V212.3H432.7v15.1Z" class="g0_182"/>
<path fill-rule="evenodd" d="M432.7,242.4H672.3v-15H432.7v15Z" class="g0_182"/>
<path fill-rule="evenodd" d="M432.7,257.4H672.3v-15H432.7v15Z" class="g0_182"/>
<path fill-rule="evenodd" d="M432.7,272.5H672.3V257.4H432.7v15.1Z" class="g0_182"/>
<path fill-rule="evenodd" d="M432.7,287.5H672.3v-15H432.7v15Z" class="g0_182"/>
<path fill-rule="evenodd" d="M432.7,302.5H672.3v-15H432.7v15Z" class="g0_182"/>
<path fill-rule="evenodd" d="M432.7,317.6H672.3V302.5H432.7v15.1Z" class="g0_182"/>
<path fill-rule="evenodd" d="M432.7,332.6H672.3v-15H432.7v15Z" class="g0_182"/>
<path fill-rule="evenodd" d="M432.4,347.8H671.5V332.6H432.4v15.2Z" class="g0_182"/>
<path fill-rule="evenodd" d="M432.4,362.9H671.5V347.8H432.4v15.1Z" class="g0_182"/>
<path fill-rule="evenodd" d="M432.4,377.9H671.5v-15H432.4v15Z" class="g0_182"/>
<path fill-rule="evenodd" d="M432.4,393H671.5V377.9H432.4V393Z" class="g0_182"/>
<path fill-rule="evenodd" d="M432,408H671.9V393H432v15Z" class="g0_182"/>
<path fill-rule="evenodd" d="M432,423H671.9V408H432v15Z" class="g0_182"/>
<path fill-rule="evenodd" d="M432,438.1H671.9V423H432v15.1Z" class="g0_182"/>
<path fill-rule="evenodd" d="M432,453.1H671.9v-15H432v15Z" class="g0_182"/>
<path fill-rule="evenodd" d="M432,468.1H671.9v-15H432v15Z" class="g0_182"/>
<path fill-rule="evenodd" d="M432,483.2H671.9V468.1H432v15.1Z" class="g0_182"/>
<path fill-rule="evenodd" d="M432.4,498.2h238v-15h-238v15Z" class="g0_182"/>
<path fill-rule="evenodd" d="M432.4,513.2h238v-15h-238v15Z" class="g0_182"/>
<path fill-rule="evenodd" d="M431.6,528.4H670.8V513.2H431.6v15.2Z" class="g0_182"/>
<path fill-rule="evenodd" d="M431.6,543.5H670.8V528.4H431.6v15.1Z" class="g0_182"/>
<path fill-rule="evenodd" d="M431.6,558.5H670.8v-15H431.6v15Z" class="g0_182"/>
<path fill-rule="evenodd" d="M431.6,573.5H670.8v-15H431.6v15Z" class="g0_182"/>
<path fill-rule="evenodd" d="M431.6,588.6H670.8V573.5H431.6v15.1Z" class="g0_182"/>
<path fill-rule="evenodd" d="M431.6,603.6H670.8v-15H431.6v15Z" class="g0_182"/>
<path fill-rule="evenodd" d="M431.6,618.7H670.8V603.6H431.6v15.1Z" class="g0_182"/>
<path fill-rule="evenodd" d="M431.6,633.7H670.8v-15H431.6v15Z" class="g0_182"/>
<path fill-rule="evenodd" d="M431.6,648.7H670.8v-15H431.6v15Z" class="g0_182"/>
<path fill-rule="evenodd" d="M431.6,663.8H670.4V648.7H431.6v15.1Z" class="g0_182"/>
<path fill-rule="evenodd" d="M431.6,678.8H670.4v-15H431.6v15Z" class="g0_182"/>
<path fill-rule="evenodd" d="M431.3,693.8H670.4v-15H431.3v15Z" class="g0_182"/>
<path fill-rule="evenodd" d="M431.3,709.1H670.4V693.8H431.3v15.3Z" class="g0_182"/>
<path fill-rule="evenodd" d="M431.3,724.1H670.4v-15H431.3v15Z" class="g0_182"/>
<path fill-rule="evenodd" d="M431.3,739.1H670.4v-15H431.3v15Z" class="g0_182"/>
<path fill-rule="evenodd" d="M431.3,754.2H670.4V739.1H431.3v15.1Z" class="g0_182"/>
<path fill-rule="evenodd" d="M431.3,769.2H670.4v-15H431.3v15Z" class="g0_182"/>
<path fill-rule="evenodd" d="M431.3,784.2H670.4v-15H431.3v15Z" class="g0_182"/>
<path fill-rule="evenodd" d="M431.6,799.3H670.4V784.2H431.6v15.1Z" class="g0_182"/>
<path fill-rule="evenodd" d="M431.6,814.3H670.4v-15H431.6v15Z" class="g0_182"/>
<path fill-rule="evenodd" d="M431.6,829.3H670.8v-15H431.6v15Z" class="g0_182"/>
<path fill-rule="evenodd" d="M431.6,844.4H670.8V829.3H431.6v15.1Z" class="g0_182"/>
<path fill-rule="evenodd" d="M431.6,859.4H670.8v-15H431.6v15Z" class="g0_182"/>
<path fill-rule="evenodd" d="M431.6,874.5H670.8V859.4H431.6v15.1Z" class="g0_182"/>
<path fill-rule="evenodd" d="M431.6,889.7H670.8V874.5H431.6v15.2Z" class="g0_182"/>
<path fill-rule="evenodd" d="M431.6,904.7H670.8v-15H431.6v15Z" class="g0_182"/>
<path fill-rule="evenodd" d="M172.7,932.4h59.4V918.3H172.7v14.1Z" class="g0_182"/>
<path fill-rule="evenodd" d="M172.7,950h59.4V932.4H172.7V950Z" class="g0_182"/>
<path fill-rule="evenodd" d="M409.3,937.4h59.4V919.8H409.3v17.6Z" class="g0_182"/>
<path d="M420.6,151.3V919.5" class="g1_182"/>
</svg>