<?xml version="1.0" encoding="UTF-8" standalone="no"?>
<!DOCTYPE svg PUBLIC "-//W3C//DTD SVG 1.1//EN"
"http://www.w3.org/Graphics/SVG/1.1/DTD/svg11.dtd">
<svg viewBox="0 0 909 1285" version="1.1" xmlns="http://www.w3.org/2000/svg" xmlns:xlink="http://www.w3.org/1999/xlink">
<defs>
<style type="text/css"><![CDATA[
.g0_215{
fill: #FFFFFF;
}
.g1_215{
fill: none;
stroke: #000000;
stroke-width: 0.381;
stroke-linecap: butt;
stroke-linejoin: round;
}
]]></style>
</defs>
<path fill-rule="evenodd" d="M653.6,125.8H713V110H653.6v15.8Z" class="g0_215"/>
<path fill-rule="evenodd" d="M182.3,162.3H421V147.1H182.3v15.2Z" class="g0_215"/>
<path fill-rule="evenodd" d="M182.3,177.3H421v-15H182.3v15Z" class="g0_215"/>
<path fill-rule="evenodd" d="M182.3,192.3H421v-15H182.3v15Z" class="g0_215"/>
<path fill-rule="evenodd" d="M182.3,207.4H421V192.3H182.3v15.1Z" class="g0_215"/>
<path fill-rule="evenodd" d="M182.3,222.4H421v-15H182.3v15Z" class="g0_215"/>
<path fill-rule="evenodd" d="M182.3,237.4H421v-15H182.3v15Z" class="g0_215"/>
<path fill-rule="evenodd" d="M182.3,252.5H421V237.4H182.3v15.1Z" class="g0_215"/>
<path fill-rule="evenodd" d="M182.3,267.5H421v-15H182.3v15Z" class="g0_215"/>
<path fill-rule="evenodd" d="M182.3,282.5H421v-15H182.3v15Z" class="g0_215"/>
<path fill-rule="evenodd" d="M182.3,297.6H421V282.5H182.3v15.1Z" class="g0_215"/>
<path fill-rule="evenodd" d="M182.3,312.6H421v-15H182.3v15Z" class="g0_215"/>
<path fill-rule="evenodd" d="M182.3,327.8H421V312.6H182.3v15.2Z" class="g0_215"/>
<path fill-rule="evenodd" d="M181.9,342.9H421V327.8H181.9v15.1Z" class="g0_215"/>
<path fill-rule="evenodd" d="M181.9,357.9H421v-15H181.9v15Z" class="g0_215"/>
<path fill-rule="evenodd" d="M181.9,373H421V357.9H181.9V373Z" class="g0_215"/>
<path fill-rule="evenodd" d="M182.3,388h238V373h-238v15Z" class="g0_215"/>
<path fill-rule="evenodd" d="M182.3,403h238V388h-238v15Z" class="g0_215"/>
<path fill-rule="evenodd" d="M182.3,418.1h238V403h-238v15.1Z" class="g0_215"/>
<path fill-rule="evenodd" d="M182.3,433.1h238v-15h-238v15Z" class="g0_215"/>
<path fill-rule="evenodd" d="M182.3,448.1H420.6v-15H182.3v15Z" class="g0_215"/>
<path fill-rule="evenodd" d="M182.3,463.2H420.6V448.1H182.3v15.1Z" class="g0_215"/>
<path fill-rule="evenodd" d="M181.5,478.2H420.6v-15H181.5v15Z" class="g0_215"/>
<path fill-rule="evenodd" d="M181.5,493.2H420.6v-15H181.5v15Z" class="g0_215"/>
<path fill-rule="evenodd" d="M181.5,508.5H420.6V493.2H181.5v15.3Z" class="g0_215"/>
<path fill-rule="evenodd" d="M181.5,523.5H420.6v-15H181.5v15Z" class="g0_215"/>
<path fill-rule="evenodd" d="M181.9,538.5h238v-15h-238v15Z" class="g0_215"/>
<path fill-rule="evenodd" d="M181.9,553.6h238V538.5h-238v15.1Z" class="g0_215"/>
<path fill-rule="evenodd" d="M181.5,568.6H420.3v-15H181.5v15Z" class="g0_215"/>
<path fill-rule="evenodd" d="M181.5,583.6H420.3v-15H181.5v15Z" class="g0_215"/>
<path fill-rule="evenodd" d="M181.2,598.7H420.3V583.6H181.2v15.1Z" class="g0_215"/>
<path fill-rule="evenodd" d="M181.2,613.7H420.3v-15H181.2v15Z" class="g0_215"/>
<path fill-rule="evenodd" d="M181.2,628.8H420.3V613.7H181.2v15.1Z" class="g0_215"/>
<path fill-rule="evenodd" d="M181.2,643.8H420.3v-15H181.2v15Z" class="g0_215"/>
<path fill-rule="evenodd" d="M180.8,658.8H420.3v-15H180.8v15Z" class="g0_215"/>
<path fill-rule="evenodd" d="M180.8,673.9H420.3V658.8H180.8v15.1Z" class="g0_215"/>
<path fill-rule="evenodd" d="M180.8,689.1H420.3V673.9H180.8v15.2Z" class="g0_215"/>
<path fill-rule="evenodd" d="M180.8,704.1H420.3v-15H180.8v15Z" class="g0_215"/>
<path fill-rule="evenodd" d="M180.8,719.1H420.3v-15H180.8v15Z" class="g0_215"/>
<path fill-rule="evenodd" d="M199.9,734.2H421V719.1H199.9v15.1Z" class="g0_215"/>
<path fill-rule="evenodd" d="M181.5,749.6h238V734.5h-238v15.1Z" class="g0_215"/>
<path fill-rule="evenodd" d="M181.5,764.6h238v-15h-238v15Z" class="g0_215"/>
<path fill-rule="evenodd" d="M180.8,779.6H419.9v-15H180.8v15Z" class="g0_215"/>
<path fill-rule="evenodd" d="M180.8,794.7H419.9V779.6H180.8v15.1Z" class="g0_215"/>
<path fill-rule="evenodd" d="M180.8,809.7H419.9v-15H180.8v15Z" class="g0_215"/>
<path fill-rule="evenodd" d="M180.8,824.7H419.9v-15H180.8v15Z" class="g0_215"/>
<path fill-rule="evenodd" d="M180.8,839.8H419.9V824.7H180.8v15.1Z" class="g0_215"/>
<path fill-rule="evenodd" d="M180.8,855H419.9V839.8H180.8V855Z" class="g0_215"/>
<path fill-rule="evenodd" d="M181.2,870.1H419.5V855H181.2v15.1Z" class="g0_215"/>
<path fill-rule="evenodd" d="M181.2,885.1H419.5v-15H181.2v15Z" class="g0_215"/>
<path fill-rule="evenodd" d="M200.6,900.1H421v-15H200.6v15Z" class="g0_215"/>
<path fill-rule="evenodd" d="M459.2,161.7H680.7v-15H459.2v15Z" class="g0_215"/>
<path fill-rule="evenodd" d="M441.9,176.9H680.7V161.7H441.9v15.2Z" class="g0_215"/>
<path fill-rule="evenodd" d="M441.9,192H680.7V176.9H441.9V192Z" class="g0_215"/>
<path fill-rule="evenodd" d="M459.5,207H680.7V192H459.5v15Z" class="g0_215"/>
<path fill-rule="evenodd" d="M459.5,222H680.7V207H459.5v15Z" class="g0_215"/>
<path fill-rule="evenodd" d="M441.2,237.1H680V222H441.2v15.1Z" class="g0_215"/>
<path fill-rule="evenodd" d="M441.2,252.1H680v-15H441.2v15Z" class="g0_215"/>
<path fill-rule="evenodd" d="M441.2,267.1H679.6v-15H441.2v15Z" class="g0_215"/>
<path fill-rule="evenodd" d="M441.2,282.2H679.6V267.1H441.2v15.1Z" class="g0_215"/>
<path fill-rule="evenodd" d="M441.2,297.2H679.6v-15H441.2v15Z" class="g0_215"/>
<path fill-rule="evenodd" d="M440.8,312.2H680.3v-15H440.8v15Z" class="g0_215"/>
<path fill-rule="evenodd" d="M440.8,327.3H680.3V312.2H440.8v15.1Z" class="g0_215"/>
<path fill-rule="evenodd" d="M440.8,342.5H680.3V327.3H440.8v15.2Z" class="g0_215"/>
<path fill-rule="evenodd" d="M440.8,357.6H680.3V342.5H440.8v15.1Z" class="g0_215"/>
<path fill-rule="evenodd" d="M440.8,372.6H680.3v-15H440.8v15Z" class="g0_215"/>
<path fill-rule="evenodd" d="M459.2,387.6H680.7v-15H459.2v15Z" class="g0_215"/>
<path fill-rule="evenodd" d="M441.2,402.7H680V387.6H441.2v15.1Z" class="g0_215"/>
<path fill-rule="evenodd" d="M441.2,417.7H680v-15H441.2v15Z" class="g0_215"/>
<path fill-rule="evenodd" d="M459.2,432.7H680.7v-15H459.2v15Z" class="g0_215"/>
<path fill-rule="evenodd" d="M440.4,447.8H679.6V432.7H440.4v15.1Z" class="g0_215"/>
<path fill-rule="evenodd" d="M440.4,462.8H679.6v-15H440.4v15Z" class="g0_215"/>
<path fill-rule="evenodd" d="M440.4,477.8H679.6v-15H440.4v15Z" class="g0_215"/>
<path fill-rule="evenodd" d="M440.4,492.9H679.2V477.8H440.4v15.1Z" class="g0_215"/>
<path fill-rule="evenodd" d="M440.4,507.9H679.2v-15H440.4v15Z" class="g0_215"/>
<path fill-rule="evenodd" d="M440.4,523.1H678.9V507.9H440.4v15.2Z" class="g0_215"/>
<path fill-rule="evenodd" d="M440.4,538.2H678.9V523.1H440.4v15.1Z" class="g0_215"/>
<path fill-rule="evenodd" d="M440.8,553.2H678.9v-15H440.8v15Z" class="g0_215"/>
<path fill-rule="evenodd" d="M440.8,568.2H678.9v-15H440.8v15Z" class="g0_215"/>
<path fill-rule="evenodd" d="M440.8,583.3H679.2V568.2H440.8v15.1Z" class="g0_215"/>
<path fill-rule="evenodd" d="M440.8,598.3H679.2v-15H440.8v15Z" class="g0_215"/>
<path fill-rule="evenodd" d="M440.4,613.4H678.9V598.3H440.4v15.1Z" class="g0_215"/>
<path fill-rule="evenodd" d="M440.4,628.4H678.9v-15H440.4v15Z" class="g0_215"/>
<path fill-rule="evenodd" d="M440.4,643.4H678.9v-15H440.4v15Z" class="g0_215"/>
<path fill-rule="evenodd" d="M458.4,658.5H680.7V643.4H458.4v15.1Z" class="g0_215"/>
<path fill-rule="evenodd" d="M440.8,673.5H678.9v-15H440.8v15Z" class="g0_215"/>
<path fill-rule="evenodd" d="M440.8,688.5H678.9v-15H440.8v15Z" class="g0_215"/>
<path fill-rule="evenodd" d="M440.4,703.7H679.2V688.5H440.4v15.2Z" class="g0_215"/>
<path fill-rule="evenodd" d="M440.4,718.8H679.2V703.7H440.4v15.1Z" class="g0_215"/>
<path fill-rule="evenodd" d="M440.4,733.8H679.2v-15H440.4v15Z" class="g0_215"/>
<path fill-rule="evenodd" d="M440.1,748.8H679.2v-15H440.1v15Z" class="g0_215"/>
<path fill-rule="evenodd" d="M440.1,763.9H679.2V748.8H440.1v15.1Z" class="g0_215"/>
<path fill-rule="evenodd" d="M440.4,778.9H679.6v-15H440.4v15Z" class="g0_215"/>
<path fill-rule="evenodd" d="M440.4,793.9H679.6v-15H440.4v15Z" class="g0_215"/>
<path fill-rule="evenodd" d="M439.3,809H679.6V793.9H439.3V809Z" class="g0_215"/>
<path fill-rule="evenodd" d="M439.3,824H679.6V809H439.3v15Z" class="g0_215"/>
<path fill-rule="evenodd" d="M439.3,839.1H679.6V824H439.3v15.1Z" class="g0_215"/>
<path fill-rule="evenodd" d="M439.3,854.1H679.6v-15H439.3v15Z" class="g0_215"/>
<path fill-rule="evenodd" d="M439.3,869.2H679.6V854.1H439.3v15.1Z" class="g0_215"/>
<path fill-rule="evenodd" d="M439.3,884.4H679.6V869.2H439.3v15.2Z" class="g0_215"/>
<path fill-rule="evenodd" d="M417,917.6H713V898.3H417v19.3Z" class="g0_215"/>
<path d="M429.4,146V915.6" class="g1_215"/>
</svg>