<?xml version="1.0" encoding="UTF-8" standalone="no"?>
<!DOCTYPE svg PUBLIC "-//W3C//DTD SVG 1.1//EN"
"http://www.w3.org/Graphics/SVG/1.1/DTD/svg11.dtd">
<svg viewBox="0 0 909 1285" version="1.1" xmlns="http://www.w3.org/2000/svg" xmlns:xlink="http://www.w3.org/1999/xlink">
<defs>
<style type="text/css"><![CDATA[
.g0_180{
fill: #FFFFFF;
}
.g1_180{
fill: none;
stroke: #000000;
stroke-width: 0.381;
stroke-linecap: butt;
stroke-linejoin: round;
}
]]></style>
</defs>
<path fill-rule="evenodd" d="M617,125.8h59.5V110H617v15.8Z" class="g0_180"/>
<path fill-rule="evenodd" d="M191.2,161.7H412.4v-15H191.2v15Z" class="g0_180"/>
<path fill-rule="evenodd" d="M173.3,176.9H412.4V161.7H173.3v15.2Z" class="g0_180"/>
<path fill-rule="evenodd" d="M173.3,192H412.4V176.9H173.3V192Z" class="g0_180"/>
<path fill-rule="evenodd" d="M172.9,207H412V192H172.9v15Z" class="g0_180"/>
<path fill-rule="evenodd" d="M172.9,222H412V207H172.9v15Z" class="g0_180"/>
<path fill-rule="evenodd" d="M172.9,237.1H412V222H172.9v15.1Z" class="g0_180"/>
<path fill-rule="evenodd" d="M172.9,252.1H412.4v-15H172.9v15Z" class="g0_180"/>
<path fill-rule="evenodd" d="M172.9,267.1H412.4v-15H172.9v15Z" class="g0_180"/>
<path fill-rule="evenodd" d="M172.5,282.2H412.4V267.1H172.5v15.1Z" class="g0_180"/>
<path fill-rule="evenodd" d="M172.5,297.2H412.4v-15H172.5v15Z" class="g0_180"/>
<path fill-rule="evenodd" d="M172.5,312.2H412.4v-15H172.5v15Z" class="g0_180"/>
<path fill-rule="evenodd" d="M172.5,327.3H412.4V312.2H172.5v15.1Z" class="g0_180"/>
<path fill-rule="evenodd" d="M172.5,342.5H412.4V327.3H172.5v15.2Z" class="g0_180"/>
<path fill-rule="evenodd" d="M172.5,357.6H412.4V342.5H172.5v15.1Z" class="g0_180"/>
<path fill-rule="evenodd" d="M172.5,372.6H412.4v-15H172.5v15Z" class="g0_180"/>
<path fill-rule="evenodd" d="M172.9,387.6H412.4v-15H172.9v15Z" class="g0_180"/>
<path fill-rule="evenodd" d="M172.9,402.7H412.4V387.6H172.9v15.1Z" class="g0_180"/>
<path fill-rule="evenodd" d="M172.5,417.7H411.6v-15H172.5v15Z" class="g0_180"/>
<path fill-rule="evenodd" d="M172.5,432.7H411.6v-15H172.5v15Z" class="g0_180"/>
<path fill-rule="evenodd" d="M172.2,448.1H412v-15H172.2v15Z" class="g0_180"/>
<path fill-rule="evenodd" d="M172.2,463.2H412V448.1H172.2v15.1Z" class="g0_180"/>
<path fill-rule="evenodd" d="M172.2,478.2H412v-15H172.2v15Z" class="g0_180"/>
<path fill-rule="evenodd" d="M190.5,493.2H412.4v-15H190.5v15Z" class="g0_180"/>
<path fill-rule="evenodd" d="M171.8,508.5H411.3V493.2H171.8v15.3Z" class="g0_180"/>
<path fill-rule="evenodd" d="M171.8,523.5H411.3v-15H171.8v15Z" class="g0_180"/>
<path fill-rule="evenodd" d="M171.8,538.5H411.3v-15H171.8v15Z" class="g0_180"/>
<path fill-rule="evenodd" d="M171.8,553.6H411.3V538.5H171.8v15.1Z" class="g0_180"/>
<path fill-rule="evenodd" d="M171.1,568.6H411.3v-15H171.1v15Z" class="g0_180"/>
<path fill-rule="evenodd" d="M171.1,583.6H411.3v-15H171.1v15Z" class="g0_180"/>
<path fill-rule="evenodd" d="M171.1,598.7H411.3V583.6H171.1v15.1Z" class="g0_180"/>
<path fill-rule="evenodd" d="M171.1,613.7H411.3v-15H171.1v15Z" class="g0_180"/>
<path fill-rule="evenodd" d="M171.1,628.8H411.3V613.7H171.1v15.1Z" class="g0_180"/>
<path fill-rule="evenodd" d="M171.1,643.8H410.9v-15H171.1v15Z" class="g0_180"/>
<path fill-rule="evenodd" d="M171.1,658.8H410.9v-15H171.1v15Z" class="g0_180"/>
<path fill-rule="evenodd" d="M171.1,673.9H410.9V658.8H171.1v15.1Z" class="g0_180"/>
<path fill-rule="evenodd" d="M171.1,689.4H411.3V674.2H171.1v15.2Z" class="g0_180"/>
<path fill-rule="evenodd" d="M171.1,704.5H411.3V689.4H171.1v15.1Z" class="g0_180"/>
<path fill-rule="evenodd" d="M171.1,719.5H411.3v-15H171.1v15Z" class="g0_180"/>
<path fill-rule="evenodd" d="M171.1,734.5H411.3v-15H171.1v15Z" class="g0_180"/>
<path fill-rule="evenodd" d="M171.1,749.6H411.3V734.5H171.1v15.1Z" class="g0_180"/>
<path fill-rule="evenodd" d="M171.1,764.6H411.3v-15H171.1v15Z" class="g0_180"/>
<path fill-rule="evenodd" d="M171.1,779.6H411.3v-15H171.1v15Z" class="g0_180"/>
<path fill-rule="evenodd" d="M171.1,794.7H411.3V779.6H171.1v15.1Z" class="g0_180"/>
<path fill-rule="evenodd" d="M171.1,809.7H411.3v-15H171.1v15Z" class="g0_180"/>
<path fill-rule="evenodd" d="M171.1,824.7H411.3v-15H171.1v15Z" class="g0_180"/>
<path fill-rule="evenodd" d="M171.1,839.8H411.3V824.7H171.1v15.1Z" class="g0_180"/>
<path fill-rule="evenodd" d="M189,855H412.4V839.8H189V855Z" class="g0_180"/>
<path fill-rule="evenodd" d="M171.4,870.1H410.2V855H171.4v15.1Z" class="g0_180"/>
<path fill-rule="evenodd" d="M171.4,885.1H410.2v-15H171.4v15Z" class="g0_180"/>
<path fill-rule="evenodd" d="M173.3,900.1H412.4v-15H173.3v15Z" class="g0_180"/>
<path fill-rule="evenodd" d="M432.6,161.4H673.5V146.3H432.6v15.1Z" class="g0_180"/>
<path fill-rule="evenodd" d="M432.9,176.4H673.2v-15H432.9v15Z" class="g0_180"/>
<path fill-rule="evenodd" d="M432.9,191.6H673.2V176.4H432.9v15.2Z" class="g0_180"/>
<path fill-rule="evenodd" d="M432.9,206.6H673.2v-15H432.9v15Z" class="g0_180"/>
<path fill-rule="evenodd" d="M432.9,221.7H673.2V206.6H432.9v15.1Z" class="g0_180"/>
<path fill-rule="evenodd" d="M432.9,236.7H673.2v-15H432.9v15Z" class="g0_180"/>
<path fill-rule="evenodd" d="M432.9,251.7H673.2v-15H432.9v15Z" class="g0_180"/>
<path fill-rule="evenodd" d="M432.9,266.8H673.2V251.7H432.9v15.1Z" class="g0_180"/>
<path fill-rule="evenodd" d="M432.9,281.8H673.2v-15H432.9v15Z" class="g0_180"/>
<path fill-rule="evenodd" d="M432.9,296.8H673.2v-15H432.9v15Z" class="g0_180"/>
<path fill-rule="evenodd" d="M432.9,311.9H673.2V296.8H432.9v15.1Z" class="g0_180"/>
<path fill-rule="evenodd" d="M432.9,326.9H673.2v-15H432.9v15Z" class="g0_180"/>
<path fill-rule="evenodd" d="M451.7,341.9H673.5v-15H451.7v15Z" class="g0_180"/>
<path fill-rule="evenodd" d="M432.6,357.2H673.5V342H432.6v15.2Z" class="g0_180"/>
<path fill-rule="evenodd" d="M432.6,372.2H673.5v-15H432.6v15Z" class="g0_180"/>
<path fill-rule="evenodd" d="M432.6,387.3H673.5V372.2H432.6v15.1Z" class="g0_180"/>
<path fill-rule="evenodd" d="M432.6,402.3H673.5v-15H432.6v15Z" class="g0_180"/>
<path fill-rule="evenodd" d="M432.6,417.3H673.5v-15H432.6v15Z" class="g0_180"/>
<path fill-rule="evenodd" d="M431.8,432.7H673.5v-15H431.8v15Z" class="g0_180"/>
<path fill-rule="evenodd" d="M431.8,447.8H673.5V432.7H431.8v15.1Z" class="g0_180"/>
<path fill-rule="evenodd" d="M431.8,462.8H673.5v-15H431.8v15Z" class="g0_180"/>
<path fill-rule="evenodd" d="M431.8,477.8H673.5v-15H431.8v15Z" class="g0_180"/>
<path fill-rule="evenodd" d="M431.8,492.9H673.5V477.8H431.8v15.1Z" class="g0_180"/>
<path fill-rule="evenodd" d="M431.8,507.9H673.5v-15H431.8v15Z" class="g0_180"/>
<path fill-rule="evenodd" d="M431.1,523.1h241V507.9h-241v15.2Z" class="g0_180"/>
<path fill-rule="evenodd" d="M431.1,538.2h241V523.1h-241v15.1Z" class="g0_180"/>
<path fill-rule="evenodd" d="M431.1,553.2h241v-15h-241v15Z" class="g0_180"/>
<path fill-rule="evenodd" d="M431.1,568.2h241v-15h-241v15Z" class="g0_180"/>
<path fill-rule="evenodd" d="M431.1,583.3h241V568.2h-241v15.1Z" class="g0_180"/>
<path fill-rule="evenodd" d="M431.1,598.3h241v-15h-241v15Z" class="g0_180"/>
<path fill-rule="evenodd" d="M431.1,613.4h241V598.3h-241v15.1Z" class="g0_180"/>
<path fill-rule="evenodd" d="M431.1,628.4h241v-15h-241v15Z" class="g0_180"/>
<path fill-rule="evenodd" d="M431.1,643.4h241v-15h-241v15Z" class="g0_180"/>
<path fill-rule="evenodd" d="M431.1,658.5h241V643.4h-241v15.1Z" class="g0_180"/>
<path fill-rule="evenodd" d="M431.1,673.5H671.7v-15H431.1v15Z" class="g0_180"/>
<path fill-rule="evenodd" d="M431.1,688.5H671.7v-15H431.1v15Z" class="g0_180"/>
<path fill-rule="evenodd" d="M431.1,703.7H671.7V688.5H431.1v15.2Z" class="g0_180"/>
<path fill-rule="evenodd" d="M431.1,718.8H671.7V703.7H431.1v15.1Z" class="g0_180"/>
<path fill-rule="evenodd" d="M431.1,733.8H671.7v-15H431.1v15Z" class="g0_180"/>
<path fill-rule="evenodd" d="M430.4,748.8H671.3v-15H430.4v15Z" class="g0_180"/>
<path fill-rule="evenodd" d="M430.4,763.9H671.3V748.8H430.4v15.1Z" class="g0_180"/>
<path fill-rule="evenodd" d="M430.4,778.9H671.3v-15H430.4v15Z" class="g0_180"/>
<path fill-rule="evenodd" d="M430.4,793.9H671.3v-15H430.4v15Z" class="g0_180"/>
<path fill-rule="evenodd" d="M430.4,809H671.3V793.9H430.4V809Z" class="g0_180"/>
<path fill-rule="evenodd" d="M430.4,824H671.3V809H430.4v15Z" class="g0_180"/>
<path fill-rule="evenodd" d="M430.4,839.1H671.3V824H430.4v15.1Z" class="g0_180"/>
<path fill-rule="evenodd" d="M430.4,854.1H671.3v-15H430.4v15Z" class="g0_180"/>
<path fill-rule="evenodd" d="M430.4,869.2H671.3V854.1H430.4v15.1Z" class="g0_180"/>
<path fill-rule="evenodd" d="M170.7,912.8H320v-16H170.7v16Z" class="g0_180"/>
<path fill-rule="evenodd" d="M170.7,930.2H320V912.8H170.7v17.4Z" class="g0_180"/>
<path fill-rule="evenodd" d="M408.4,917.4h59.4V899.8H408.4v17.6Z" class="g0_180"/>
<path d="M420,146V914.5" class="g1_180"/>
</svg>