<?xml version="1.0" encoding="UTF-8" standalone="no"?>
<!DOCTYPE svg PUBLIC "-//W3C//DTD SVG 1.1//EN"
"http://www.w3.org/Graphics/SVG/1.1/DTD/svg11.dtd">
<svg viewBox="0 0 909 1285" version="1.1" xmlns="http://www.w3.org/2000/svg" xmlns:xlink="http://www.w3.org/1999/xlink">
<defs>
<style type="text/css"><![CDATA[
.g0_94{
fill: #FFFFFF;
}
.g1_94{
}
]]></style>
</defs>
<path fill-rule="evenodd" d="M627.3,125.8h59.4V110H627.3v15.8Z" class="g0_94"/>
<path fill-rule="evenodd" d="M166.7,161.4H407.6V146.3H166.7v15.1Z" class="g0_94"/>
<path fill-rule="evenodd" d="M166.7,176.4H407.6v-15H166.7v15Z" class="g0_94"/>
<path fill-rule="evenodd" d="M166.7,191.6H407.6V176.4H166.7v15.2Z" class="g0_94"/>
<path fill-rule="evenodd" d="M166.7,206.6H407.6v-15H166.7v15Z" class="g0_94"/>
<path fill-rule="evenodd" d="M166.7,221.7H407.6V206.6H166.7v15.1Z" class="g0_94"/>
<path fill-rule="evenodd" d="M167.4,236.7H407.6v-15H167.4v15Z" class="g0_94"/>
<path fill-rule="evenodd" d="M167.4,251.7H407.6v-15H167.4v15Z" class="g0_94"/>
<path fill-rule="evenodd" d="M167.4,266.8H407.6V251.7H167.4v15.1Z" class="g0_94"/>
<path fill-rule="evenodd" d="M166.7,281.8H407.2v-15H166.7v15Z" class="g0_94"/>
<path fill-rule="evenodd" d="M166.7,296.8H407.2v-15H166.7v15Z" class="g0_94"/>
<path fill-rule="evenodd" d="M166.7,311.9H407.2V296.8H166.7v15.1Z" class="g0_94"/>
<path fill-rule="evenodd" d="M166.7,326.9H407.2v-15H166.7v15Z" class="g0_94"/>
<path fill-rule="evenodd" d="M166.7,341.9H407.2v-15H166.7v15Z" class="g0_94"/>
<path fill-rule="evenodd" d="M166.7,357.2H407.2V342H166.7v15.2Z" class="g0_94"/>
<path fill-rule="evenodd" d="M166.7,372.2H407.2v-15H166.7v15Z" class="g0_94"/>
<path fill-rule="evenodd" d="M166.7,387.3H407.2V372.2H166.7v15.1Z" class="g0_94"/>
<path fill-rule="evenodd" d="M166.7,402.3H407.2v-15H166.7v15Z" class="g0_94"/>
<path fill-rule="evenodd" d="M166.7,417.3H407.2v-15H166.7v15Z" class="g0_94"/>
<path fill-rule="evenodd" d="M166.7,432.4H407.2V417.3H166.7v15.1Z" class="g0_94"/>
<path fill-rule="evenodd" d="M166.7,447.4H407.2v-15H166.7v15Z" class="g0_94"/>
<path fill-rule="evenodd" d="M166.7,462.4H407.2v-15H166.7v15Z" class="g0_94"/>
<path fill-rule="evenodd" d="M165.9,477.5H406.1V462.4H165.9v15.1Z" class="g0_94"/>
<path fill-rule="evenodd" d="M165.9,492.5H406.1v-15H165.9v15Z" class="g0_94"/>
<path fill-rule="evenodd" d="M165.9,507.5H406.1v-15H165.9v15Z" class="g0_94"/>
<path fill-rule="evenodd" d="M165.9,522.6H406.1V507.5H165.9v15.1Z" class="g0_94"/>
<path fill-rule="evenodd" d="M165.9,537.8H406.1V522.6H165.9v15.2Z" class="g0_94"/>
<path fill-rule="evenodd" d="M165.9,552.8H406.1v-15H165.9v15Z" class="g0_94"/>
<path fill-rule="evenodd" d="M165.9,567.9H406.1V552.8H165.9v15.1Z" class="g0_94"/>
<path fill-rule="evenodd" d="M165.9,582.9H405.4v-15H165.9v15Z" class="g0_94"/>
<path fill-rule="evenodd" d="M165.9,598H405.4V582.9H165.9V598Z" class="g0_94"/>
<path fill-rule="evenodd" d="M165.9,613H405.8V598H165.9v15Z" class="g0_94"/>
<path fill-rule="evenodd" d="M165.9,628H405.8V613H165.9v15Z" class="g0_94"/>
<path fill-rule="evenodd" d="M165.2,643.4H405.4v-15H165.2v15Z" class="g0_94"/>
<path fill-rule="evenodd" d="M165.2,658.5H405.4V643.4H165.2v15.1Z" class="g0_94"/>
<path fill-rule="evenodd" d="M165.2,673.5H405.4v-15H165.2v15Z" class="g0_94"/>
<path fill-rule="evenodd" d="M165.2,688.5H405.4v-15H165.2v15Z" class="g0_94"/>
<path fill-rule="evenodd" d="M165.2,703.7H405.4V688.5H165.2v15.2Z" class="g0_94"/>
<path fill-rule="evenodd" d="M165.2,718.8H405.4V703.7H165.2v15.1Z" class="g0_94"/>
<path fill-rule="evenodd" d="M165.2,733.8H405.4v-15H165.2v15Z" class="g0_94"/>
<path fill-rule="evenodd" d="M165.2,748.8H405.4v-15H165.2v15Z" class="g0_94"/>
<path fill-rule="evenodd" d="M165.2,763.9H405.4V748.8H165.2v15.1Z" class="g0_94"/>
<path fill-rule="evenodd" d="M165.2,778.9H405.4v-15H165.2v15Z" class="g0_94"/>
<path fill-rule="evenodd" d="M164.8,793.9H405v-15H164.8v15Z" class="g0_94"/>
<path fill-rule="evenodd" d="M164.8,809H405V793.9H164.8V809Z" class="g0_94"/>
<path fill-rule="evenodd" d="M164.8,824H405V809H164.8v15Z" class="g0_94"/>
<path fill-rule="evenodd" d="M164.8,839.1H405V824H164.8v15.1Z" class="g0_94"/>
<path fill-rule="evenodd" d="M164.8,854.1H405v-15H164.8v15Z" class="g0_94"/>
<path fill-rule="evenodd" d="M164.8,869.2H405V854.1H164.8v15.1Z" class="g0_94"/>
<path fill-rule="evenodd" d="M164.8,884.4H405V869.2H164.8v15.2Z" class="g0_94"/>
<path fill-rule="evenodd" d="M183.5,899.4H407.6v-15H183.5v15Z" class="g0_94"/>
<path fill-rule="evenodd" d="M164.5,930.9H407.6V915.2H164.5v15.7Z" class="g0_94"/>
<path fill-rule="evenodd" d="M164.5,948.5H407.6V930.9H164.5v17.6Z" class="g0_94"/>
<path fill-rule="evenodd" d="M415,941h59.4V923.4H415V941Z" class="g0_94"/>
<path fill-rule="evenodd" d="M417.9,956.1H474V941H417.9v15.1Z" class="g0_94"/>
<path fill-rule="evenodd" d="M472.9,161.4H713.1V146.3H472.9v15.1Z" class="g0_94"/>
<path fill-rule="evenodd" d="M472.9,176.4H713.1v-15H472.9v15Z" class="g0_94"/>
<path fill-rule="evenodd" d="M472.9,191.6H713.1V176.4H472.9v15.2Z" class="g0_94"/>
<path fill-rule="evenodd" d="M472.6,206.6H713.5v-15H472.6v15Z" class="g0_94"/>
<path fill-rule="evenodd" d="M472.6,221.7H713.5V206.6H472.6v15.1Z" class="g0_94"/>
<path fill-rule="evenodd" d="M472.6,236.7H713.5v-15H472.6v15Z" class="g0_94"/>
<path fill-rule="evenodd" d="M472.6,251.7H713.5v-15H472.6v15Z" class="g0_94"/>
<path fill-rule="evenodd" d="M472.6,266.8H712.4V251.7H472.6v15.1Z" class="g0_94"/>
<path fill-rule="evenodd" d="M472.6,281.8H712.4v-15H472.6v15Z" class="g0_94"/>
<path fill-rule="evenodd" d="M490.9,296.8H713.5v-15H490.9v15Z" class="g0_94"/>
<path fill-rule="evenodd" d="M472.6,311.9H712.4V296.8H472.6v15.1Z" class="g0_94"/>
<path fill-rule="evenodd" d="M472.6,326.9H712.4v-15H472.6v15Z" class="g0_94"/>
<path fill-rule="evenodd" d="M472.6,341.9H712.4v-15H472.6v15Z" class="g0_94"/>
<path fill-rule="evenodd" d="M472.6,357.2H712.4V342H472.6v15.2Z" class="g0_94"/>
<path fill-rule="evenodd" d="M490.5,372.2h223v-15h-223v15Z" class="g0_94"/>
<path fill-rule="evenodd" d="M471.5,387.6H712v-15H471.5v15Z" class="g0_94"/>
<path fill-rule="evenodd" d="M471.5,402.7H712V387.6H471.5v15.1Z" class="g0_94"/>
<path fill-rule="evenodd" d="M471.5,417.7H712v-15H471.5v15Z" class="g0_94"/>
<path fill-rule="evenodd" d="M471.5,432.7H712v-15H471.5v15Z" class="g0_94"/>
<path fill-rule="evenodd" d="M471.5,447.8H712V432.7H471.5v15.1Z" class="g0_94"/>
<path fill-rule="evenodd" d="M471.5,462.8H712v-15H471.5v15Z" class="g0_94"/>
<path fill-rule="evenodd" d="M471.5,477.8H712v-15H471.5v15Z" class="g0_94"/>
<path fill-rule="evenodd" d="M471.5,492.9H712V477.8H471.5v15.1Z" class="g0_94"/>
<path fill-rule="evenodd" d="M471.5,507.9H711.3v-15H471.5v15Z" class="g0_94"/>
<path fill-rule="evenodd" d="M471.5,523.1H711.3V507.9H471.5v15.2Z" class="g0_94"/>
<path fill-rule="evenodd" d="M471.5,538.2H711.3V523.1H471.5v15.1Z" class="g0_94"/>
<path fill-rule="evenodd" d="M471.1,553.2H711.3v-15H471.1v15Z" class="g0_94"/>
<path fill-rule="evenodd" d="M471.1,568.2H711.3v-15H471.1v15Z" class="g0_94"/>
<path fill-rule="evenodd" d="M471.1,583.3H711.3V568.2H471.1v15.1Z" class="g0_94"/>
<path fill-rule="evenodd" d="M471.1,598.3H711.7v-15H471.1v15Z" class="g0_94"/>
<path fill-rule="evenodd" d="M471.1,613.4H711.7V598.3H471.1v15.1Z" class="g0_94"/>
<path fill-rule="evenodd" d="M471.1,628.4H711.7v-15H471.1v15Z" class="g0_94"/>
<path fill-rule="evenodd" d="M471.1,643.4H711.7v-15H471.1v15Z" class="g0_94"/>
<path fill-rule="evenodd" d="M489.1,658.5H713.5V643.4H489.1v15.1Z" class="g0_94"/>
<path fill-rule="evenodd" d="M489.1,673.5H713.5v-15H489.1v15Z" class="g0_94"/>
<path fill-rule="evenodd" d="M471.1,688.5H710.9v-15H471.1v15Z" class="g0_94"/>
<path fill-rule="evenodd" d="M471.1,703.7H710.9V688.5H471.1v15.2Z" class="g0_94"/>
<path fill-rule="evenodd" d="M471.1,718.8H710.9V703.7H471.1v15.1Z" class="g0_94"/>
<path fill-rule="evenodd" d="M470.4,733.8H710.9v-15H470.4v15Z" class="g0_94"/>
<path fill-rule="evenodd" d="M470.4,748.8H710.9v-15H470.4v15Z" class="g0_94"/>
<path fill-rule="evenodd" d="M470.4,763.9H710.9V748.8H470.4v15.1Z" class="g0_94"/>
<path fill-rule="evenodd" d="M470.4,778.9H710.9v-15H470.4v15Z" class="g0_94"/>
<path fill-rule="evenodd" d="M470.4,793.9H710.9v-15H470.4v15Z" class="g0_94"/>
<path fill-rule="evenodd" d="M470.7,809.3H710.2v-15H470.7v15Z" class="g0_94"/>
<path fill-rule="evenodd" d="M470.7,824.4H710.2V809.3H470.7v15.1Z" class="g0_94"/>
<path fill-rule="evenodd" d="M470,839.5H710.6V824.4H470v15.1Z" class="g0_94"/>
<path fill-rule="evenodd" d="M470,854.5H710.6v-15H470v15Z" class="g0_94"/>
<path fill-rule="evenodd" d="M470,869.7H710.6V854.5H470v15.2Z" class="g0_94"/>
<path fill-rule="evenodd" d="M470.4,884.7H710.2v-15H470.4v15Z" class="g0_94"/>
<path fill-rule="evenodd" d="M470.4,899.8H710.2V884.7H470.4v15.1Z" class="g0_94"/>
<path fill-rule="evenodd" d="M410.6,941h1.2V146.3h-1.2V941Z" class="g1_94"/>
<path fill-rule="evenodd" d="M471.5,941h1.2V146.3h-1.2V941Z" class="g1_94"/>
</svg>