<?xml version="1.0" encoding="UTF-8" standalone="no"?>
<!DOCTYPE svg PUBLIC "-//W3C//DTD SVG 1.1//EN"
"http://www.w3.org/Graphics/SVG/1.1/DTD/svg11.dtd">
<svg viewBox="0 0 909 1285" version="1.1" xmlns="http://www.w3.org/2000/svg" xmlns:xlink="http://www.w3.org/1999/xlink">
<defs>
<style type="text/css"><![CDATA[
.g0_84{
fill: #FFFFFF;
}
.g1_84{
fill: none;
stroke: #000000;
stroke-width: 0.381;
stroke-linecap: butt;
stroke-linejoin: round;
}
]]></style>
</defs>
<path fill-rule="evenodd" d="M629.3,125.8h59.4V110H629.3v15.8Z" class="g0_84"/>
<path fill-rule="evenodd" d="M178.6,161.7H418.4v-15H178.6v15Z" class="g0_84"/>
<path fill-rule="evenodd" d="M178.6,176.9H418.4V161.7H178.6v15.2Z" class="g0_84"/>
<path fill-rule="evenodd" d="M178.6,192h157V176.9h-157V192Z" class="g0_84"/>
<path fill-rule="evenodd" d="M178.6,207h157V192h-157v15Z" class="g0_84"/>
<path fill-rule="evenodd" d="M177.9,222H419.2V207H177.9v15Z" class="g0_84"/>
<path fill-rule="evenodd" d="M177.9,237.1H419.2V222H177.9v15.1Z" class="g0_84"/>
<path fill-rule="evenodd" d="M177.9,252.1H419.2v-15H177.9v15Z" class="g0_84"/>
<path fill-rule="evenodd" d="M177.9,267.1H419.2v-15H177.9v15Z" class="g0_84"/>
<path fill-rule="evenodd" d="M177.9,282.2H419.2V267.1H177.9v15.1Z" class="g0_84"/>
<path fill-rule="evenodd" d="M177.9,297.2H419.2v-15H177.9v15Z" class="g0_84"/>
<path fill-rule="evenodd" d="M177.9,312.2H419.2v-15H177.9v15Z" class="g0_84"/>
<path fill-rule="evenodd" d="M177.9,327.3H418.1V312.2H177.9v15.1Z" class="g0_84"/>
<path fill-rule="evenodd" d="M177.9,342.5H418.1V327.3H177.9v15.2Z" class="g0_84"/>
<path fill-rule="evenodd" d="M177.9,357.6H418.4V342.5H177.9v15.1Z" class="g0_84"/>
<path fill-rule="evenodd" d="M177.9,372.6H418.4v-15H177.9v15Z" class="g0_84"/>
<path fill-rule="evenodd" d="M177.9,387.6H418.4v-15H177.9v15Z" class="g0_84"/>
<path fill-rule="evenodd" d="M177.5,402.7H418.8V387.6H177.5v15.1Z" class="g0_84"/>
<path fill-rule="evenodd" d="M177.5,417.7H418.8v-15H177.5v15Z" class="g0_84"/>
<path fill-rule="evenodd" d="M177.5,432.7H418.8v-15H177.5v15Z" class="g0_84"/>
<path fill-rule="evenodd" d="M177.5,447.8H418.8V432.7H177.5v15.1Z" class="g0_84"/>
<path fill-rule="evenodd" d="M177.5,462.8H418.8v-15H177.5v15Z" class="g0_84"/>
<path fill-rule="evenodd" d="M177.5,477.8H418.8v-15H177.5v15Z" class="g0_84"/>
<path fill-rule="evenodd" d="M177.5,492.9H418.8V477.8H177.5v15.1Z" class="g0_84"/>
<path fill-rule="evenodd" d="M196.6,507.9H419.2v-15H196.6v15Z" class="g0_84"/>
<path fill-rule="evenodd" d="M177.5,523.1H418.8V507.9H177.5v15.2Z" class="g0_84"/>
<path fill-rule="evenodd" d="M177.5,538.2H418.8V523.1H177.5v15.1Z" class="g0_84"/>
<path fill-rule="evenodd" d="M177.5,553.2H418.8v-15H177.5v15Z" class="g0_84"/>
<path fill-rule="evenodd" d="M177.5,568.2H418.8v-15H177.5v15Z" class="g0_84"/>
<path fill-rule="evenodd" d="M177.5,583.3H418.8V568.2H177.5v15.1Z" class="g0_84"/>
<path fill-rule="evenodd" d="M177.5,598.3H418.8v-15H177.5v15Z" class="g0_84"/>
<path fill-rule="evenodd" d="M177.5,613.4H418.8V598.3H177.5v15.1Z" class="g0_84"/>
<path fill-rule="evenodd" d="M177.5,628.4H418.8v-15H177.5v15Z" class="g0_84"/>
<path fill-rule="evenodd" d="M177.5,643.4H418.8v-15H177.5v15Z" class="g0_84"/>
<path fill-rule="evenodd" d="M177.5,658.5H418.8V643.4H177.5v15.1Z" class="g0_84"/>
<path fill-rule="evenodd" d="M177.5,673.5H418.8v-15H177.5v15Z" class="g0_84"/>
<path fill-rule="evenodd" d="M177.9,688.5H417.7v-15H177.9v15Z" class="g0_84"/>
<path fill-rule="evenodd" d="M177.9,703.7H417.7V688.5H177.9v15.2Z" class="g0_84"/>
<path fill-rule="evenodd" d="M177.9,718.8H418.4V703.7H177.9v15.1Z" class="g0_84"/>
<path fill-rule="evenodd" d="M177.9,733.8H418.4v-15H177.9v15Z" class="g0_84"/>
<path fill-rule="evenodd" d="M177.9,748.8H418.4v-15H177.9v15Z" class="g0_84"/>
<path fill-rule="evenodd" d="M196.6,763.9H419.2V748.8H196.6v15.1Z" class="g0_84"/>
<path fill-rule="evenodd" d="M196.6,778.9H419.2v-15H196.6v15Z" class="g0_84"/>
<path fill-rule="evenodd" d="M178.2,794.3H418.4v-15H178.2v15Z" class="g0_84"/>
<path fill-rule="evenodd" d="M178.2,809.3H418.4v-15H178.2v15Z" class="g0_84"/>
<path fill-rule="evenodd" d="M178.2,824.4H418.4V809.3H178.2v15.1Z" class="g0_84"/>
<path fill-rule="evenodd" d="M178.2,839.5H418.4V824.4H178.2v15.1Z" class="g0_84"/>
<path fill-rule="evenodd" d="M178.2,854.5H418.4v-15H178.2v15Z" class="g0_84"/>
<path fill-rule="evenodd" d="M178.2,870.1H417.7V854.9H178.2v15.2Z" class="g0_84"/>
<path fill-rule="evenodd" d="M178.2,885.1H417.7v-15H178.2v15Z" class="g0_84"/>
<path fill-rule="evenodd" d="M178.6,900.1H418.4v-15H178.6v15Z" class="g0_84"/>
<path fill-rule="evenodd" d="M438.6,161.7H678.1v-15H438.6v15Z" class="g0_84"/>
<path fill-rule="evenodd" d="M438.6,176.9H678.1V161.7H438.6v15.2Z" class="g0_84"/>
<path fill-rule="evenodd" d="M438.6,192H678.1V176.9H438.6V192Z" class="g0_84"/>
<path fill-rule="evenodd" d="M438.6,207.4H678.1V192H438.6v15.4Z" class="g0_84"/>
<path fill-rule="evenodd" d="M438.6,222.4H678.1v-15H438.6v15Z" class="g0_84"/>
<path fill-rule="evenodd" d="M439,237.4H678.9v-15H439v15Z" class="g0_84"/>
<path fill-rule="evenodd" d="M439,252.5H678.9V237.4H439v15.1Z" class="g0_84"/>
<path fill-rule="evenodd" d="M439,267.5H678.9v-15H439v15Z" class="g0_84"/>
<path fill-rule="evenodd" d="M439,282.5H678.9v-15H439v15Z" class="g0_84"/>
<path fill-rule="evenodd" d="M439,297.6H678.9V282.5H439v15.1Z" class="g0_84"/>
<path fill-rule="evenodd" d="M437.5,312.6H678.9v-15H437.5v15Z" class="g0_84"/>
<path fill-rule="evenodd" d="M437.5,327.8H678.9V312.6H437.5v15.2Z" class="g0_84"/>
<path fill-rule="evenodd" d="M437.5,342.9H678.9V327.8H437.5v15.1Z" class="g0_84"/>
<path fill-rule="evenodd" d="M437.5,357.9H678.9v-15H437.5v15Z" class="g0_84"/>
<path fill-rule="evenodd" d="M437.5,373H678.9V357.9H437.5V373Z" class="g0_84"/>
<path fill-rule="evenodd" d="M437.5,388H678.9V373H437.5v15Z" class="g0_84"/>
<path fill-rule="evenodd" d="M437.5,403H678.9V388H437.5v15Z" class="g0_84"/>
<path fill-rule="evenodd" d="M437.5,418.1H678.9V403H437.5v15.1Z" class="g0_84"/>
<path fill-rule="evenodd" d="M438.6,433.1H678.1v-15H438.6v15Z" class="g0_84"/>
<path fill-rule="evenodd" d="M438.6,448.1H678.1v-15H438.6v15Z" class="g0_84"/>
<path fill-rule="evenodd" d="M438.6,463.2H678.1V448.1H438.6v15.1Z" class="g0_84"/>
<path fill-rule="evenodd" d="M438.2,478.2H678.5v-15H438.2v15Z" class="g0_84"/>
<path fill-rule="evenodd" d="M438.2,493.2H678.5v-15H438.2v15Z" class="g0_84"/>
<path fill-rule="evenodd" d="M438.2,508.5H678.5V493.2H438.2v15.3Z" class="g0_84"/>
<path fill-rule="evenodd" d="M457,523.5H678.8v-15H457v15Z" class="g0_84"/>
<path fill-rule="evenodd" d="M438.6,538.5H678.1v-15H438.6v15Z" class="g0_84"/>
<path fill-rule="evenodd" d="M438.6,553.6H678.1V538.5H438.6v15.1Z" class="g0_84"/>
<path fill-rule="evenodd" d="M438.6,568.6H678.1v-15H438.6v15Z" class="g0_84"/>
<path fill-rule="evenodd" d="M438.6,583.6H678.1v-15H438.6v15Z" class="g0_84"/>
<path fill-rule="evenodd" d="M438.6,598.7H678.1V583.6H438.6v15.1Z" class="g0_84"/>
<path fill-rule="evenodd" d="M438.6,613.7H678.1v-15H438.6v15Z" class="g0_84"/>
<path fill-rule="evenodd" d="M438.6,628.8H678.1V613.7H438.6v15.1Z" class="g0_84"/>
<path fill-rule="evenodd" d="M438.6,644.2H678.1V628.8H438.6v15.4Z" class="g0_84"/>
<path fill-rule="evenodd" d="M438.6,659.2H678.1v-15H438.6v15Z" class="g0_84"/>
<path fill-rule="evenodd" d="M438.6,674.4H678.1V659.2H438.6v15.2Z" class="g0_84"/>
<path fill-rule="evenodd" d="M438.6,689.8H678.1V674.4H438.6v15.4Z" class="g0_84"/>
<path fill-rule="evenodd" d="M438.6,704.8H678.1v-15H438.6v15Z" class="g0_84"/>
<path fill-rule="evenodd" d="M438.6,719.9H678.1V704.8H438.6v15.1Z" class="g0_84"/>
<path fill-rule="evenodd" d="M457,734.9H678.8v-15H457v15Z" class="g0_84"/>
<path fill-rule="evenodd" d="M457,749.9H678.8v-15H457v15Z" class="g0_84"/>
<path fill-rule="evenodd" d="M438.6,765H678.5V749.9H438.6V765Z" class="g0_84"/>
<path fill-rule="evenodd" d="M438.6,780H678.5V765H438.6v15Z" class="g0_84"/>
<path fill-rule="evenodd" d="M456.6,795H678.8V780H456.6v15Z" class="g0_84"/>
<path fill-rule="evenodd" d="M438.2,810.1H678.1V795H438.2v15.1Z" class="g0_84"/>
<path fill-rule="evenodd" d="M438.2,825.1H678.1v-15H438.2v15Z" class="g0_84"/>
<path fill-rule="evenodd" d="M438.6,840.4H678.9V825.1H438.6v15.3Z" class="g0_84"/>
<path fill-rule="evenodd" d="M438.6,855.4H678.9v-15H438.6v15Z" class="g0_84"/>
<path fill-rule="evenodd" d="M438.6,870.4H678.9v-15H438.6v15Z" class="g0_84"/>
<path fill-rule="evenodd" d="M438.6,885.5H678.9V870.4H438.6v15.1Z" class="g0_84"/>
<path fill-rule="evenodd" d="M438.6,900.5H678.9v-15H438.6v15Z" class="g0_84"/>
<path d="M427.9,146V911.5" class="g1_84"/>
</svg>