<?xml version="1.0" encoding="UTF-8" standalone="no"?>
<!DOCTYPE svg PUBLIC "-//W3C//DTD SVG 1.1//EN"
"http://www.w3.org/Graphics/SVG/1.1/DTD/svg11.dtd">
<svg viewBox="0 0 909 1285" version="1.1" xmlns="http://www.w3.org/2000/svg" xmlns:xlink="http://www.w3.org/1999/xlink">
<defs>
<style type="text/css"><![CDATA[
.g0_57{
fill: #FFFFFF;
}
.g1_57{
fill: none;
stroke: #000000;
stroke-width: 0.381;
stroke-linecap: butt;
stroke-linejoin: round;
}
]]></style>
</defs>
<path fill-rule="evenodd" d="M259.3,125.8H760.6V110H259.3v15.8Z" class="g0_57"/>
<path fill-rule="evenodd" d="M278,161.7H500.2v-15H278v15Z" class="g0_57"/>
<path fill-rule="evenodd" d="M278,176.9H500.2V161.7H278v15.2Z" class="g0_57"/>
<path fill-rule="evenodd" d="M278,192H500.2V176.9H278V192Z" class="g0_57"/>
<path fill-rule="evenodd" d="M258.9,207H500.2V192H258.9v15Z" class="g0_57"/>
<path fill-rule="evenodd" d="M258.9,222H500.2V207H258.9v15Z" class="g0_57"/>
<path fill-rule="evenodd" d="M258.9,237.1H500.2V222H258.9v15.1Z" class="g0_57"/>
<path fill-rule="evenodd" d="M258.9,252.1H500.2v-15H258.9v15Z" class="g0_57"/>
<path fill-rule="evenodd" d="M258.9,267.1H500.2v-15H258.9v15Z" class="g0_57"/>
<path fill-rule="evenodd" d="M258.9,282.2H500.2V267.1H258.9v15.1Z" class="g0_57"/>
<path fill-rule="evenodd" d="M259.3,297.2H416.6v-15H259.3v15Z" class="g0_57"/>
<path fill-rule="evenodd" d="M259.3,312.2H416.6v-15H259.3v15Z" class="g0_57"/>
<path fill-rule="evenodd" d="M258.2,327.3h242V312.2h-242v15.1Z" class="g0_57"/>
<path fill-rule="evenodd" d="M258.2,342.5h242V327.3h-242v15.2Z" class="g0_57"/>
<path fill-rule="evenodd" d="M258.2,357.6h242V342.5h-242v15.1Z" class="g0_57"/>
<path fill-rule="evenodd" d="M258.2,372.6h242v-15h-242v15Z" class="g0_57"/>
<path fill-rule="evenodd" d="M258.2,387.6h242v-15h-242v15Z" class="g0_57"/>
<path fill-rule="evenodd" d="M258.2,402.7h242V387.6h-242v15.1Z" class="g0_57"/>
<path fill-rule="evenodd" d="M258.2,417.7h242v-15h-242v15Z" class="g0_57"/>
<path fill-rule="evenodd" d="M258.2,432.7h242v-15h-242v15Z" class="g0_57"/>
<path fill-rule="evenodd" d="M258.2,447.8h242V432.7h-242v15.1Z" class="g0_57"/>
<path fill-rule="evenodd" d="M258.2,462.8h242v-15h-242v15Z" class="g0_57"/>
<path fill-rule="evenodd" d="M258.2,477.8h242v-15h-242v15Z" class="g0_57"/>
<path fill-rule="evenodd" d="M258.2,492.9h242V477.8h-242v15.1Z" class="g0_57"/>
<path fill-rule="evenodd" d="M258.9,507.9H499.5v-15H258.9v15Z" class="g0_57"/>
<path fill-rule="evenodd" d="M258.9,523.1H499.5V507.9H258.9v15.2Z" class="g0_57"/>
<path fill-rule="evenodd" d="M277.6,538.5H500.2v-15H277.6v15Z" class="g0_57"/>
<path fill-rule="evenodd" d="M258.2,553.6H499.9V538.5H258.2v15.1Z" class="g0_57"/>
<path fill-rule="evenodd" d="M258.2,568.6H499.9v-15H258.2v15Z" class="g0_57"/>
<path fill-rule="evenodd" d="M258.2,583.6H499.9v-15H258.2v15Z" class="g0_57"/>
<path fill-rule="evenodd" d="M258.2,598.7H499.9V583.6H258.2v15.1Z" class="g0_57"/>
<path fill-rule="evenodd" d="M258.2,613.7H499.9v-15H258.2v15Z" class="g0_57"/>
<path fill-rule="evenodd" d="M258.2,628.8H499.9V613.7H258.2v15.1Z" class="g0_57"/>
<path fill-rule="evenodd" d="M258.2,643.8H499.9v-15H258.2v15Z" class="g0_57"/>
<path fill-rule="evenodd" d="M258.2,658.8H499.9v-15H258.2v15Z" class="g0_57"/>
<path fill-rule="evenodd" d="M258.2,673.9H499.9V658.8H258.2v15.1Z" class="g0_57"/>
<path fill-rule="evenodd" d="M258.2,689.1H499.9V673.9H258.2v15.2Z" class="g0_57"/>
<path fill-rule="evenodd" d="M258.2,704.1H499.9v-15H258.2v15Z" class="g0_57"/>
<path fill-rule="evenodd" d="M258.2,719.1H499.9v-15H258.2v15Z" class="g0_57"/>
<path fill-rule="evenodd" d="M258.2,734.2H499.9V719.1H258.2v15.1Z" class="g0_57"/>
<path fill-rule="evenodd" d="M258.5,749.2H499.9v-15H258.5v15Z" class="g0_57"/>
<path fill-rule="evenodd" d="M258.5,764.2H499.9v-15H258.5v15Z" class="g0_57"/>
<path fill-rule="evenodd" d="M258.5,779.3H499.9V764.2H258.5v15.1Z" class="g0_57"/>
<path fill-rule="evenodd" d="M258.5,794.3H499.1v-15H258.5v15Z" class="g0_57"/>
<path fill-rule="evenodd" d="M258.5,809.3H499.1v-15H258.5v15Z" class="g0_57"/>
<path fill-rule="evenodd" d="M258.5,824.4H499.1V809.3H258.5v15.1Z" class="g0_57"/>
<path fill-rule="evenodd" d="M258.5,839.5h186V824.4h-186v15.1Z" class="g0_57"/>
<path fill-rule="evenodd" d="M258.5,854.5h186v-15h-186v15Z" class="g0_57"/>
<path fill-rule="evenodd" d="M258.9,869.7H499.5V854.5H258.9v15.2Z" class="g0_57"/>
<path fill-rule="evenodd" d="M258.9,884.7H499.5v-15H258.9v15Z" class="g0_57"/>
<path fill-rule="evenodd" d="M259.3,899.8H500.2V884.7H259.3v15.1Z" class="g0_57"/>
<path fill-rule="evenodd" d="M520.2,162.3H760.4V147.1H520.2v15.2Z" class="g0_57"/>
<path fill-rule="evenodd" d="M520.2,177.3H760.4v-15H520.2v15Z" class="g0_57"/>
<path fill-rule="evenodd" d="M538.6,192.3H760.4v-15H538.6v15Z" class="g0_57"/>
<path fill-rule="evenodd" d="M519.9,207.4H760.1V192.3H519.9v15.1Z" class="g0_57"/>
<path fill-rule="evenodd" d="M519.9,222.4H760.1v-15H519.9v15Z" class="g0_57"/>
<path fill-rule="evenodd" d="M519.9,237.4H760.1v-15H519.9v15Z" class="g0_57"/>
<path fill-rule="evenodd" d="M519.9,252.5H760.1V237.4H519.9v15.1Z" class="g0_57"/>
<path fill-rule="evenodd" d="M519.9,267.5H759.7v-15H519.9v15Z" class="g0_57"/>
<path fill-rule="evenodd" d="M519.9,282.5H759.7v-15H519.9v15Z" class="g0_57"/>
<path fill-rule="evenodd" d="M519.9,297.6H759.7V282.5H519.9v15.1Z" class="g0_57"/>
<path fill-rule="evenodd" d="M519.9,312.6H759.3v-15H519.9v15Z" class="g0_57"/>
<path fill-rule="evenodd" d="M519.9,327.8H759.3V312.6H519.9v15.2Z" class="g0_57"/>
<path fill-rule="evenodd" d="M519.9,342.9H760.1V327.8H519.9v15.1Z" class="g0_57"/>
<path fill-rule="evenodd" d="M519.9,357.9H760.1v-15H519.9v15Z" class="g0_57"/>
<path fill-rule="evenodd" d="M519.9,373H760.1V357.9H519.9V373Z" class="g0_57"/>
<path fill-rule="evenodd" d="M519.5,388H760.1V373H519.5v15Z" class="g0_57"/>
<path fill-rule="evenodd" d="M519.5,403H760.1V388H519.5v15Z" class="g0_57"/>
<path fill-rule="evenodd" d="M519.5,418.1H760.1V403H519.5v15.1Z" class="g0_57"/>
<path fill-rule="evenodd" d="M519.5,433.1H760.1v-15H519.5v15Z" class="g0_57"/>
<path fill-rule="evenodd" d="M519.5,448.1H760.1v-15H519.5v15Z" class="g0_57"/>
<path fill-rule="evenodd" d="M519.5,463.2H760.1V448.1H519.5v15.1Z" class="g0_57"/>
<path fill-rule="evenodd" d="M519.1,478.2H759.3v-15H519.1v15Z" class="g0_57"/>
<path fill-rule="evenodd" d="M519.1,493.2H759.3v-15H519.1v15Z" class="g0_57"/>
<path fill-rule="evenodd" d="M519.1,508.5H759.3V493.2H519.1v15.3Z" class="g0_57"/>
<path fill-rule="evenodd" d="M519.1,523.5H759.3v-15H519.1v15Z" class="g0_57"/>
<path fill-rule="evenodd" d="M519.9,538.5H759.3v-15H519.9v15Z" class="g0_57"/>
<path fill-rule="evenodd" d="M519.9,553.6H759.3V538.5H519.9v15.1Z" class="g0_57"/>
<path fill-rule="evenodd" d="M519.5,568.6H759.3v-15H519.5v15Z" class="g0_57"/>
<path fill-rule="evenodd" d="M519.5,583.6H759.3v-15H519.5v15Z" class="g0_57"/>
<path fill-rule="evenodd" d="M519.1,598.7H759.7V583.6H519.1v15.1Z" class="g0_57"/>
<path fill-rule="evenodd" d="M519.1,613.7H759.7v-15H519.1v15Z" class="g0_57"/>
<path fill-rule="evenodd" d="M519.1,628.8H759.7V613.7H519.1v15.1Z" class="g0_57"/>
<path fill-rule="evenodd" d="M519.1,643.8H759.7v-15H519.1v15Z" class="g0_57"/>
<path fill-rule="evenodd" d="M519.1,658.8H759.7v-15H519.1v15Z" class="g0_57"/>
<path fill-rule="evenodd" d="M519.5,674.4H759.3V659.2H519.5v15.2Z" class="g0_57"/>
<path fill-rule="evenodd" d="M519.5,689.4H759.3v-15H519.5v15Z" class="g0_57"/>
<path fill-rule="evenodd" d="M519.5,704.5H759.3V689.4H519.5v15.1Z" class="g0_57"/>
<path fill-rule="evenodd" d="M519.5,719.5H759.7v-15H519.5v15Z" class="g0_57"/>
<path fill-rule="evenodd" d="M519.5,734.5H759.7v-15H519.5v15Z" class="g0_57"/>
<path fill-rule="evenodd" d="M519.5,749.6H759.7V734.5H519.5v15.1Z" class="g0_57"/>
<path fill-rule="evenodd" d="M519.5,764.6H759.7v-15H519.5v15Z" class="g0_57"/>
<path fill-rule="evenodd" d="M519.5,779.6H759.7v-15H519.5v15Z" class="g0_57"/>
<path fill-rule="evenodd" d="M519.5,794.7H759.7V779.6H519.5v15.1Z" class="g0_57"/>
<path fill-rule="evenodd" d="M519.5,809.7H760.1v-15H519.5v15Z" class="g0_57"/>
<path fill-rule="evenodd" d="M519.5,824.7H760.1v-15H519.5v15Z" class="g0_57"/>
<path fill-rule="evenodd" d="M519.5,839.8H760.1V824.7H519.5v15.1Z" class="g0_57"/>
<path fill-rule="evenodd" d="M519.5,855H760.1V839.8H519.5V855Z" class="g0_57"/>
<path fill-rule="evenodd" d="M519.9,870.1H760.1V855H519.9v15.1Z" class="g0_57"/>
<path fill-rule="evenodd" d="M519.9,885.1H760.1v-15H519.9v15Z" class="g0_57"/>
<path fill-rule="evenodd" d="M500.2,917.7H760.6V900.1H500.2v17.6Z" class="g0_57"/>
<path d="M185.5,509.4V747.7m12,-210.8v55.7M199,551.9v51.7M509.2,148.2V916.7" class="g1_57"/>
</svg>