<?xml version="1.0" encoding="UTF-8" standalone="no"?>
<!DOCTYPE svg PUBLIC "-//W3C//DTD SVG 1.1//EN"
"http://www.w3.org/Graphics/SVG/1.1/DTD/svg11.dtd">
<svg viewBox="0 0 909 1285" version="1.1" xmlns="http://www.w3.org/2000/svg" xmlns:xlink="http://www.w3.org/1999/xlink">
<defs>
<style type="text/css"><![CDATA[
.g0_118{
fill: #FFFFFF;
}
.g1_118{
fill: none;
stroke: #000000;
stroke-width: 0.381;
stroke-linecap: butt;
stroke-linejoin: round;
}
]]></style>
</defs>
<path fill-rule="evenodd" d="M563.9,125.8H687.8V110H563.9v15.8Z" class="g0_118"/>
<path fill-rule="evenodd" d="M186.5,161.7H426.7V147.1H186.5v14.6Z" class="g0_118"/>
<path fill-rule="evenodd" d="M186.5,176.4H426.7V161.7H186.5v14.7Z" class="g0_118"/>
<path fill-rule="evenodd" d="M186.5,191.1H426.7V176.4H186.5v14.7Z" class="g0_118"/>
<path fill-rule="evenodd" d="M186.1,205.7H426.7V191.1H186.1v14.6Z" class="g0_118"/>
<path fill-rule="evenodd" d="M186.1,220.4H426.7V205.7H186.1v14.7Z" class="g0_118"/>
<path fill-rule="evenodd" d="M186.1,235.1H426.7V220.4H186.1v14.7Z" class="g0_118"/>
<path fill-rule="evenodd" d="M186.1,249.7H426.3V235.1H186.1v14.6Z" class="g0_118"/>
<path fill-rule="evenodd" d="M186.1,264.4H426.3V249.7H186.1v14.7Z" class="g0_118"/>
<path fill-rule="evenodd" d="M186.1,279.1H426.3V264.4H186.1v14.7Z" class="g0_118"/>
<path fill-rule="evenodd" d="M186.1,293.9H426.3V279.1H186.1v14.8Z" class="g0_118"/>
<path fill-rule="evenodd" d="M186.1,308.6H426.3V293.9H186.1v14.7Z" class="g0_118"/>
<path fill-rule="evenodd" d="M186.1,323.2H426.3V308.6H186.1v14.6Z" class="g0_118"/>
<path fill-rule="evenodd" d="M186.1,337.9H426.3V323.2H186.1v14.7Z" class="g0_118"/>
<path fill-rule="evenodd" d="M186.5,353H426.7V338.3H186.5V353Z" class="g0_118"/>
<path fill-rule="evenodd" d="M186.5,367.7H426.7V353H186.5v14.7Z" class="g0_118"/>
<path fill-rule="evenodd" d="M185.4,382.3H425.9V367.7H185.4v14.6Z" class="g0_118"/>
<path fill-rule="evenodd" d="M185.4,397H425.9V382.3H185.4V397Z" class="g0_118"/>
<path fill-rule="evenodd" d="M185.4,411.7H425.9V397H185.4v14.7Z" class="g0_118"/>
<path fill-rule="evenodd" d="M185.4,426.3H425.9V411.7H185.4v14.6Z" class="g0_118"/>
<path fill-rule="evenodd" d="M185.4,441H425.9V426.3H185.4V441Z" class="g0_118"/>
<path fill-rule="evenodd" d="M185.4,455.7H425.9V441H185.4v14.7Z" class="g0_118"/>
<path fill-rule="evenodd" d="M185.7,470.7h241V456h-241v14.7Z" class="g0_118"/>
<path fill-rule="evenodd" d="M185.7,485.4h241V470.7h-241v14.7Z" class="g0_118"/>
<path fill-rule="evenodd" d="M185.4,500.4H425.2V485.7H185.4v14.7Z" class="g0_118"/>
<path fill-rule="evenodd" d="M185.4,515.1H425.2V500.4H185.4v14.7Z" class="g0_118"/>
<path fill-rule="evenodd" d="M185.4,529.7H425.2V515.1H185.4v14.6Z" class="g0_118"/>
<path fill-rule="evenodd" d="M185.4,544.4H425.2V529.7H185.4v14.7Z" class="g0_118"/>
<path fill-rule="evenodd" d="M185.4,559.1H425.2V544.4H185.4v14.7Z" class="g0_118"/>
<path fill-rule="evenodd" d="M185.4,573.7H425.2V559.1H185.4v14.6Z" class="g0_118"/>
<path fill-rule="evenodd" d="M185.4,588.4H425.2V573.7H185.4v14.7Z" class="g0_118"/>
<path fill-rule="evenodd" d="M185.4,603.5H426.7V588.8H185.4v14.7Z" class="g0_118"/>
<path fill-rule="evenodd" d="M185.4,618.1H426.7V603.5H185.4v14.6Z" class="g0_118"/>
<path fill-rule="evenodd" d="M203.7,633.2h223V618.5h-223v14.7Z" class="g0_118"/>
<path fill-rule="evenodd" d="M185.4,647.8H424.8V633.2H185.4v14.6Z" class="g0_118"/>
<path fill-rule="evenodd" d="M185.4,662.5H424.8V647.8H185.4v14.7Z" class="g0_118"/>
<path fill-rule="evenodd" d="M185,677.2H424.8V662.5H185v14.7Z" class="g0_118"/>
<path fill-rule="evenodd" d="M185,691.8H424.8V677.2H185v14.6Z" class="g0_118"/>
<path fill-rule="evenodd" d="M185.4,706.9H424.8V692.2H185.4v14.7Z" class="g0_118"/>
<path fill-rule="evenodd" d="M185.4,721.5H424.8V706.9H185.4v14.6Z" class="g0_118"/>
<path fill-rule="evenodd" d="M185,736.9H425.2V722.3H185v14.6Z" class="g0_118"/>
<path fill-rule="evenodd" d="M185,751.6H425.2V736.9H185v14.7Z" class="g0_118"/>
<path fill-rule="evenodd" d="M185,766.3H425.2V751.6H185v14.7Z" class="g0_118"/>
<path fill-rule="evenodd" d="M185,780.9H425.2V766.3H185v14.6Z" class="g0_118"/>
<path fill-rule="evenodd" d="M185,795.6H425.2V780.9H185v14.7Z" class="g0_118"/>
<path fill-rule="evenodd" d="M185,810.6H424.1V796H185v14.6Z" class="g0_118"/>
<path fill-rule="evenodd" d="M185,825.3H424.1V810.6H185v14.7Z" class="g0_118"/>
<path fill-rule="evenodd" d="M185.4,840.4H424.1V825.7H185.4v14.7Z" class="g0_118"/>
<path fill-rule="evenodd" d="M185.4,855H424.1V840.4H185.4V855Z" class="g0_118"/>
<path fill-rule="evenodd" d="M205.9,870.1H426.7V855H205.9v15.1Z" class="g0_118"/>
<path fill-rule="evenodd" d="M466,161.7H687.5v-15H466v15Z" class="g0_118"/>
<path fill-rule="evenodd" d="M447.2,176.9H687.5V161.7H447.2v15.2Z" class="g0_118"/>
<path fill-rule="evenodd" d="M446.1,192H687.5V176.9H446.1V192Z" class="g0_118"/>
<path fill-rule="evenodd" d="M446.1,207H687.5V192H446.1v15Z" class="g0_118"/>
<path fill-rule="evenodd" d="M465.6,222H687.5V207H465.6v15Z" class="g0_118"/>
<path fill-rule="evenodd" d="M446.9,237.1H687.5V222H446.9v15.1Z" class="g0_118"/>
<path fill-rule="evenodd" d="M446.9,252.1H687.5v-15H446.9v15Z" class="g0_118"/>
<path fill-rule="evenodd" d="M446.9,267.1H687.5v-15H446.9v15Z" class="g0_118"/>
<path fill-rule="evenodd" d="M446.5,282.2h241V267.1h-241v15.1Z" class="g0_118"/>
<path fill-rule="evenodd" d="M446.5,297.2h241v-15h-241v15Z" class="g0_118"/>
<path fill-rule="evenodd" d="M446.5,312.2h241v-15h-241v15Z" class="g0_118"/>
<path fill-rule="evenodd" d="M446.5,327.3h241V312.2h-241v15.1Z" class="g0_118"/>
<path fill-rule="evenodd" d="M446.5,342.5h241V327.3h-241v15.2Z" class="g0_118"/>
<path fill-rule="evenodd" d="M446.5,357.6h241V342.5h-241v15.1Z" class="g0_118"/>
<path fill-rule="evenodd" d="M446.5,372.6h241v-15h-241v15Z" class="g0_118"/>
<path fill-rule="evenodd" d="M446.5,387.6h241v-15h-241v15Z" class="g0_118"/>
<path fill-rule="evenodd" d="M464.9,402.7H687.5V387.6H464.9v15.1Z" class="g0_118"/>
<path fill-rule="evenodd" d="M445.8,417.7H686.4v-15H445.8v15Z" class="g0_118"/>
<path fill-rule="evenodd" d="M445.8,432.7H686.4v-15H445.8v15Z" class="g0_118"/>
<path fill-rule="evenodd" d="M445.8,447.8H686.4V432.7H445.8v15.1Z" class="g0_118"/>
<path fill-rule="evenodd" d="M445.8,462.8H686.4v-15H445.8v15Z" class="g0_118"/>
<path fill-rule="evenodd" d="M445.8,477.8H686.4v-15H445.8v15Z" class="g0_118"/>
<path fill-rule="evenodd" d="M445.8,492.9H686.4V477.8H445.8v15.1Z" class="g0_118"/>
<path fill-rule="evenodd" d="M445.8,507.9H686.4v-15H445.8v15Z" class="g0_118"/>
<path fill-rule="evenodd" d="M445.8,523.1H686.4V507.9H445.8v15.2Z" class="g0_118"/>
<path fill-rule="evenodd" d="M445.8,538.2H686.4V523.1H445.8v15.1Z" class="g0_118"/>
<path fill-rule="evenodd" d="M445.8,553.2H686.4v-15H445.8v15Z" class="g0_118"/>
<path fill-rule="evenodd" d="M445.8,568.2H686.4v-15H445.8v15Z" class="g0_118"/>
<path fill-rule="evenodd" d="M445.8,583.3H686.4V568.2H445.8v15.1Z" class="g0_118"/>
<path fill-rule="evenodd" d="M445.8,598.3H686.4v-15H445.8v15Z" class="g0_118"/>
<path fill-rule="evenodd" d="M445.8,613.4H686.4V598.3H445.8v15.1Z" class="g0_118"/>
<path fill-rule="evenodd" d="M464.1,628.4H687.5v-15H464.1v15Z" class="g0_118"/>
<path fill-rule="evenodd" d="M446.1,643.4H687.5v-15H446.1v15Z" class="g0_118"/>
<path fill-rule="evenodd" d="M445.4,658.5H686V643.4H445.4v15.1Z" class="g0_118"/>
<path fill-rule="evenodd" d="M445.4,673.5H686v-15H445.4v15Z" class="g0_118"/>
<path fill-rule="evenodd" d="M445.4,688.5H686v-15H445.4v15Z" class="g0_118"/>
<path fill-rule="evenodd" d="M445,703.7H685.6V688.5H445v15.2Z" class="g0_118"/>
<path fill-rule="evenodd" d="M445,718.8H685.6V703.7H445v15.1Z" class="g0_118"/>
<path fill-rule="evenodd" d="M445,733.8H685.6v-15H445v15Z" class="g0_118"/>
<path fill-rule="evenodd" d="M445,748.8H685.6v-15H445v15Z" class="g0_118"/>
<path fill-rule="evenodd" d="M445.8,763.9H685.6V748.8H445.8v15.1Z" class="g0_118"/>
<path fill-rule="evenodd" d="M445.8,778.9H685.6v-15H445.8v15Z" class="g0_118"/>
<path fill-rule="evenodd" d="M464.1,793.9H687.5v-15H464.1v15Z" class="g0_118"/>
<path fill-rule="evenodd" d="M445,809H687.5V793.9H445V809Z" class="g0_118"/>
<path fill-rule="evenodd" d="M445,824H687.5V809H445v15Z" class="g0_118"/>
<path fill-rule="evenodd" d="M445,839.1H687.5V824H445v15.1Z" class="g0_118"/>
<path fill-rule="evenodd" d="M445,854.1H687.5v-15H445v15Z" class="g0_118"/>
<path fill-rule="evenodd" d="M445,869.2H687.5V854.1H445v15.1Z" class="g0_118"/>
<path fill-rule="evenodd" d="M445,884.4H687.5V869.2H445v15.2Z" class="g0_118"/>
<path fill-rule="evenodd" d="M422.7,916.8H687.8V899.4H422.7v17.4Z" class="g0_118"/>
<path d="M434.3,146.4V915.3" class="g1_118"/>
</svg>