<?xml version="1.0" encoding="UTF-8" standalone="no"?>
<!DOCTYPE svg PUBLIC "-//W3C//DTD SVG 1.1//EN"
"http://www.w3.org/Graphics/SVG/1.1/DTD/svg11.dtd">
<svg viewBox="0 0 909 1285" version="1.1" xmlns="http://www.w3.org/2000/svg" xmlns:xlink="http://www.w3.org/1999/xlink">
<defs>
<style type="text/css"><![CDATA[
.g0_338{
fill: #FFFFFF;
}
.g1_338{
fill: none;
stroke: #000000;
stroke-width: 0.381;
stroke-linecap: butt;
stroke-linejoin: round;
}
]]></style>
</defs>
<path fill-rule="evenodd" d="M647,125.8h59.4V110H647v15.8Z" class="g0_338"/>
<path fill-rule="evenodd" d="M201,162.1H439.3V147.4H201v14.7Z" class="g0_338"/>
<path fill-rule="evenodd" d="M201,176.8H439.3V162.1H201v14.7Z" class="g0_338"/>
<path fill-rule="evenodd" d="M200.2,191.4H439.3V176.8H200.2v14.6Z" class="g0_338"/>
<path fill-rule="evenodd" d="M200.2,206.1H439.3V191.4H200.2v14.7Z" class="g0_338"/>
<path fill-rule="evenodd" d="M200.2,220.8H439.3V206.1H200.2v14.7Z" class="g0_338"/>
<path fill-rule="evenodd" d="M200.2,235.4H439.3V220.8H200.2v14.6Z" class="g0_338"/>
<path fill-rule="evenodd" d="M200.2,250.1H439.3V235.4H200.2v14.7Z" class="g0_338"/>
<path fill-rule="evenodd" d="M200.2,264.8H439.3V250.1H200.2v14.7Z" class="g0_338"/>
<path fill-rule="evenodd" d="M200.2,279.4H439.3V264.8H200.2v14.6Z" class="g0_338"/>
<path fill-rule="evenodd" d="M199.9,294.1H439.3V279.4H199.9v14.7Z" class="g0_338"/>
<path fill-rule="evenodd" d="M199.9,308.8H439.3V294.1H199.9v14.7Z" class="g0_338"/>
<path fill-rule="evenodd" d="M199.9,323.4H439.3V308.8H199.9v14.6Z" class="g0_338"/>
<path fill-rule="evenodd" d="M199.9,338.1H439.3V323.4H199.9v14.7Z" class="g0_338"/>
<path fill-rule="evenodd" d="M218.2,353.2H439.7V338.5H218.2v14.7Z" class="g0_338"/>
<path fill-rule="evenodd" d="M217.8,367.8H439.7V353.2H217.8v14.6Z" class="g0_338"/>
<path fill-rule="evenodd" d="M199.9,383.2H439.7V368.6H199.9v14.6Z" class="g0_338"/>
<path fill-rule="evenodd" d="M199.9,397.9H439.7V383.2H199.9v14.7Z" class="g0_338"/>
<path fill-rule="evenodd" d="M217.8,413.1H439.7V398.3H217.8v14.8Z" class="g0_338"/>
<path fill-rule="evenodd" d="M218.2,428.2H439.7V413.5H218.2v14.7Z" class="g0_338"/>
<path fill-rule="evenodd" d="M217.5,443.2H439.7V428.5H217.5v14.7Z" class="g0_338"/>
<path fill-rule="evenodd" d="M199.1,458.2H439.3V443.6H199.1v14.6Z" class="g0_338"/>
<path fill-rule="evenodd" d="M199.1,472.9H439.3V458.2H199.1v14.7Z" class="g0_338"/>
<path fill-rule="evenodd" d="M199.5,487.6H439.3V472.9H199.5v14.7Z" class="g0_338"/>
<path fill-rule="evenodd" d="M199.5,502.2H439.3V487.6H199.5v14.6Z" class="g0_338"/>
<path fill-rule="evenodd" d="M199.5,516.9H439.3V502.2H199.5v14.7Z" class="g0_338"/>
<path fill-rule="evenodd" d="M198.8,531.9H438.2V517.3H198.8v14.6Z" class="g0_338"/>
<path fill-rule="evenodd" d="M198.8,546.6H438.2V531.9H198.8v14.7Z" class="g0_338"/>
<path fill-rule="evenodd" d="M198.8,561.3H438.2V546.6H198.8v14.7Z" class="g0_338"/>
<path fill-rule="evenodd" d="M198.8,576.3H438.6V561.6H198.8v14.7Z" class="g0_338"/>
<path fill-rule="evenodd" d="M198.8,591H438.6V576.3H198.8V591Z" class="g0_338"/>
<path fill-rule="evenodd" d="M198.8,605.7H438.6V591H198.8v14.7Z" class="g0_338"/>
<path fill-rule="evenodd" d="M198.8,620.3H438.6V605.7H198.8v14.6Z" class="g0_338"/>
<path fill-rule="evenodd" d="M198.8,635H438.6V620.3H198.8V635Z" class="g0_338"/>
<path fill-rule="evenodd" d="M198.8,649.7H438.6V635H198.8v14.7Z" class="g0_338"/>
<path fill-rule="evenodd" d="M198.8,664.3H438.6V649.7H198.8v14.6Z" class="g0_338"/>
<path fill-rule="evenodd" d="M198.4,679H438.6V664.3H198.4V679Z" class="g0_338"/>
<path fill-rule="evenodd" d="M198.4,693.7H438.6V679H198.4v14.7Z" class="g0_338"/>
<path fill-rule="evenodd" d="M198.4,708.3H438.6V693.7H198.4v14.6Z" class="g0_338"/>
<path fill-rule="evenodd" d="M198.4,723H438.6V708.3H198.4V723Z" class="g0_338"/>
<path fill-rule="evenodd" d="M216.7,737.7h223V723h-223v14.7Z" class="g0_338"/>
<path fill-rule="evenodd" d="M217.1,752.3H439.7V737.7H217.1v14.6Z" class="g0_338"/>
<path fill-rule="evenodd" d="M198,767.4H438.6V752.7H198v14.7Z" class="g0_338"/>
<path fill-rule="evenodd" d="M198,782H438.6V767.4H198V782Z" class="g0_338"/>
<path fill-rule="evenodd" d="M198,796.7H438.6V782H198v14.7Z" class="g0_338"/>
<path fill-rule="evenodd" d="M198,811.4H438.6V796.7H198v14.7Z" class="g0_338"/>
<path fill-rule="evenodd" d="M198,826H438.6V811.4H198V826Z" class="g0_338"/>
<path fill-rule="evenodd" d="M198.4,841.1H437.9V826.4H198.4v14.7Z" class="g0_338"/>
<path fill-rule="evenodd" d="M198.4,855.8H437.9V841.1H198.4v14.7Z" class="g0_338"/>
<path fill-rule="evenodd" d="M198.8,870.8H437.9V856.1H198.8v14.7Z" class="g0_338"/>
<path fill-rule="evenodd" d="M198.8,885.5H437.9V870.8H198.8v14.7Z" class="g0_338"/>
<path fill-rule="evenodd" d="M199.9,900.1H439.7V885.5H199.9v14.6Z" class="g0_338"/>
<path fill-rule="evenodd" d="M460.1,161.7H700.7V147.1H460.1v14.6Z" class="g0_338"/>
<path fill-rule="evenodd" d="M460.1,176.4H700.7V161.7H460.1v14.7Z" class="g0_338"/>
<path fill-rule="evenodd" d="M460.1,191.1H700.7V176.4H460.1v14.7Z" class="g0_338"/>
<path fill-rule="evenodd" d="M459.7,205.7H699.9V191.1H459.7v14.6Z" class="g0_338"/>
<path fill-rule="evenodd" d="M459.7,220.4H699.9V205.7H459.7v14.7Z" class="g0_338"/>
<path fill-rule="evenodd" d="M459.7,235.1H699.9V220.4H459.7v14.7Z" class="g0_338"/>
<path fill-rule="evenodd" d="M459.7,249.7H699.6V235.1H459.7v14.6Z" class="g0_338"/>
<path fill-rule="evenodd" d="M459.7,264.4H699.6V249.7H459.7v14.7Z" class="g0_338"/>
<path fill-rule="evenodd" d="M459.7,279.1H699.6V264.4H459.7v14.7Z" class="g0_338"/>
<path fill-rule="evenodd" d="M459.7,294.1H699.9V279.4H459.7v14.7Z" class="g0_338"/>
<path fill-rule="evenodd" d="M459.7,308.8H699.9V294.1H459.7v14.7Z" class="g0_338"/>
<path fill-rule="evenodd" d="M459.7,323.4H699.9V308.8H459.7v14.6Z" class="g0_338"/>
<path fill-rule="evenodd" d="M459.7,338.1H699.9V323.4H459.7v14.7Z" class="g0_338"/>
<path fill-rule="evenodd" d="M459.4,352.8H699.9V338.1H459.4v14.7Z" class="g0_338"/>
<path fill-rule="evenodd" d="M459.4,367.5H699.9V352.8H459.4v14.7Z" class="g0_338"/>
<path fill-rule="evenodd" d="M459.4,382.1H699.9V367.5H459.4v14.6Z" class="g0_338"/>
<path fill-rule="evenodd" d="M459.4,396.8H699.9V382.1H459.4v14.7Z" class="g0_338"/>
<path fill-rule="evenodd" d="M459.4,411.5H699.9V396.8H459.4v14.7Z" class="g0_338"/>
<path fill-rule="evenodd" d="M477.7,426.5h223V411.8h-223v14.7Z" class="g0_338"/>
<path fill-rule="evenodd" d="M459.4,441.2H699.2V426.5H459.4v14.7Z" class="g0_338"/>
<path fill-rule="evenodd" d="M459.4,455.8H699.2V441.2H459.4v14.6Z" class="g0_338"/>
<path fill-rule="evenodd" d="M459.4,470.5H699.2V455.8H459.4v14.7Z" class="g0_338"/>
<path fill-rule="evenodd" d="M459,485.2H699.6V470.5H459v14.7Z" class="g0_338"/>
<path fill-rule="evenodd" d="M459,499.8H699.6V485.2H459v14.6Z" class="g0_338"/>
<path fill-rule="evenodd" d="M459,514.5H699.6V499.8H459v14.7Z" class="g0_338"/>
<path fill-rule="evenodd" d="M458.6,529.5H699.2V514.9H458.6v14.6Z" class="g0_338"/>
<path fill-rule="evenodd" d="M458.6,544.2H699.2V529.5H458.6v14.7Z" class="g0_338"/>
<path fill-rule="evenodd" d="M458.6,558.9H699.2V544.2H458.6v14.7Z" class="g0_338"/>
<path fill-rule="evenodd" d="M477.3,573.5H700.7V558.9H477.3v14.6Z" class="g0_338"/>
<path fill-rule="evenodd" d="M459,588.6H699.6V573.9H459v14.7Z" class="g0_338"/>
<path fill-rule="evenodd" d="M459,603.3H699.6V588.6H459v14.7Z" class="g0_338"/>
<path fill-rule="evenodd" d="M459,617.9H699.6V603.3H459v14.6Z" class="g0_338"/>
<path fill-rule="evenodd" d="M458.6,633.2H698.8V618.3H458.6v14.9Z" class="g0_338"/>
<path fill-rule="evenodd" d="M458.6,647.8H698.8V633.2H458.6v14.6Z" class="g0_338"/>
<path fill-rule="evenodd" d="M458.6,662.5H698.8V647.8H458.6v14.7Z" class="g0_338"/>
<path fill-rule="evenodd" d="M458.3,677.5H699.2V662.9H458.3v14.6Z" class="g0_338"/>
<path fill-rule="evenodd" d="M458.3,692.2H699.2V677.5H458.3v14.7Z" class="g0_338"/>
<path fill-rule="evenodd" d="M458.3,706.9H699.2V692.2H458.3v14.7Z" class="g0_338"/>
<path fill-rule="evenodd" d="M458.3,721.5H698.8V706.9H458.3v14.6Z" class="g0_338"/>
<path fill-rule="evenodd" d="M458.3,736.2H698.8V721.5H458.3v14.7Z" class="g0_338"/>
<path fill-rule="evenodd" d="M458.3,750.9H698.8V736.2H458.3v14.7Z" class="g0_338"/>
<path fill-rule="evenodd" d="M458.3,765.5H698.8V750.9H458.3v14.6Z" class="g0_338"/>
<path fill-rule="evenodd" d="M458.3,780.2H698.8V765.5H458.3v14.7Z" class="g0_338"/>
<path fill-rule="evenodd" d="M458.3,794.9H698.8V780.2H458.3v14.7Z" class="g0_338"/>
<path fill-rule="evenodd" d="M458.3,809.5H698.8V794.9H458.3v14.6Z" class="g0_338"/>
<path fill-rule="evenodd" d="M458.3,824.2H698.8V809.5H458.3v14.7Z" class="g0_338"/>
<path fill-rule="evenodd" d="M458.3,838.9H698.8V824.2H458.3v14.7Z" class="g0_338"/>
<path fill-rule="evenodd" d="M458.3,853.6H698.8V838.9H458.3v14.7Z" class="g0_338"/>
<path fill-rule="evenodd" d="M458.3,868.2H698.8V853.6H458.3v14.6Z" class="g0_338"/>
<path fill-rule="evenodd" d="M458.3,882.9H698.8V868.2H458.3v14.7Z" class="g0_338"/>
<path fill-rule="evenodd" d="M458.3,897.6H698.8V882.9H458.3v14.7Z" class="g0_338"/>
<path fill-rule="evenodd" d="M434.9,930.2H706.4V912.6H434.9v17.6Z" class="g0_338"/>
<path d="M447.6,146.7V915.2" class="g1_338"/>
</svg>