<?xml version="1.0" encoding="UTF-8" standalone="no"?>
<!DOCTYPE svg PUBLIC "-//W3C//DTD SVG 1.1//EN"
"http://www.w3.org/Graphics/SVG/1.1/DTD/svg11.dtd">
<svg viewBox="0 0 909 1285" version="1.1" xmlns="http://www.w3.org/2000/svg" xmlns:xlink="http://www.w3.org/1999/xlink">
<defs>
<style type="text/css"><![CDATA[
.g0_127{
fill: #FFFFFF;
}
.g1_127{
fill: none;
stroke: #000000;
stroke-width: 0.381;
stroke-linecap: butt;
stroke-linejoin: round;
}
]]></style>
</defs>
<path fill-rule="evenodd" d="M274.2,134.6H774V110H274.2v24.6Z" class="g0_127"/>
<path fill-rule="evenodd" d="M274.2,166.9H512.9V152.2H274.2v14.7Z" class="g0_127"/>
<path fill-rule="evenodd" d="M274.2,181.5H512.9V166.9H274.2v14.6Z" class="g0_127"/>
<path fill-rule="evenodd" d="M273.4,196.6H513.3V181.9H273.4v14.7Z" class="g0_127"/>
<path fill-rule="evenodd" d="M273.4,211.2H513.3V196.6H273.4v14.6Z" class="g0_127"/>
<path fill-rule="evenodd" d="M273.4,225.9H513.3V211.2H273.4v14.7Z" class="g0_127"/>
<path fill-rule="evenodd" d="M273.4,240.6H513.3V225.9H273.4v14.7Z" class="g0_127"/>
<path fill-rule="evenodd" d="M273.8,255.2H513.6V240.6H273.8v14.6Z" class="g0_127"/>
<path fill-rule="evenodd" d="M273.8,269.9H513.6V255.2H273.8v14.7Z" class="g0_127"/>
<path fill-rule="evenodd" d="M273.8,284.9H514V270.3H273.8v14.6Z" class="g0_127"/>
<path fill-rule="evenodd" d="M273.8,299.6H514V284.9H273.8v14.7Z" class="g0_127"/>
<path fill-rule="evenodd" d="M273.8,314.3H514V299.6H273.8v14.7Z" class="g0_127"/>
<path fill-rule="evenodd" d="M273.8,328.9H514V314.3H273.8v14.6Z" class="g0_127"/>
<path fill-rule="evenodd" d="M273.8,343.6H514V328.9H273.8v14.7Z" class="g0_127"/>
<path fill-rule="evenodd" d="M273.8,358.3H513.3V343.6H273.8v14.7Z" class="g0_127"/>
<path fill-rule="evenodd" d="M273.8,373H513.3V358.3H273.8V373Z" class="g0_127"/>
<path fill-rule="evenodd" d="M273.8,387.6H513.3V373H273.8v14.6Z" class="g0_127"/>
<path fill-rule="evenodd" d="M273.8,402.3H513.3V387.6H273.8v14.7Z" class="g0_127"/>
<path fill-rule="evenodd" d="M273.8,417H513.3V402.3H273.8V417Z" class="g0_127"/>
<path fill-rule="evenodd" d="M273.8,431.6H513.3V417H273.8v14.6Z" class="g0_127"/>
<path fill-rule="evenodd" d="M273.8,446.7H513.3V431.6H273.8v15.1Z" class="g0_127"/>
<path fill-rule="evenodd" d="M273.8,461.3H513.3V446.7H273.8v14.6Z" class="g0_127"/>
<path fill-rule="evenodd" d="M273.4,476.4H513.3V461.7H273.4v14.7Z" class="g0_127"/>
<path fill-rule="evenodd" d="M273.4,491H513.3V476.4H273.4V491Z" class="g0_127"/>
<path fill-rule="evenodd" d="M273.4,505.7H513.3V491H273.4v14.7Z" class="g0_127"/>
<path fill-rule="evenodd" d="M273.4,520.4H513.3V505.7H273.4v14.7Z" class="g0_127"/>
<path fill-rule="evenodd" d="M273.4,535H513.3V520.4H273.4V535Z" class="g0_127"/>
<path fill-rule="evenodd" d="M273.4,549.7H513.3V535H273.4v14.7Z" class="g0_127"/>
<path fill-rule="evenodd" d="M273.4,564.4H513.3V549.7H273.4v14.7Z" class="g0_127"/>
<path fill-rule="evenodd" d="M273.4,579H513.3V564.4H273.4V579Z" class="g0_127"/>
<path fill-rule="evenodd" d="M273.4,594.1H513.6V579.4H273.4v14.7Z" class="g0_127"/>
<path fill-rule="evenodd" d="M273.4,608.8H513.6V594.1H273.4v14.7Z" class="g0_127"/>
<path fill-rule="evenodd" d="M273.4,623.4H513.6V608.8H273.4v14.6Z" class="g0_127"/>
<path fill-rule="evenodd" d="M273.4,638.1H513.6V623.4H273.4v14.7Z" class="g0_127"/>
<path fill-rule="evenodd" d="M273.4,652.8H513.6V638.1H273.4v14.7Z" class="g0_127"/>
<path fill-rule="evenodd" d="M273.4,667.4H513.6V652.8H273.4v14.6Z" class="g0_127"/>
<path fill-rule="evenodd" d="M273.4,682.1H513.6V667.4H273.4v14.7Z" class="g0_127"/>
<path fill-rule="evenodd" d="M273.8,697.7H486.1V682.8H273.8v14.9Z" class="g0_127"/>
<path fill-rule="evenodd" d="M273.8,712.4H486.1V697.7H273.8v14.7Z" class="g0_127"/>
<path fill-rule="evenodd" d="M273.8,727H513.6V712.4H273.8V727Z" class="g0_127"/>
<path fill-rule="evenodd" d="M273.8,741.7H513.6V727H273.8v14.7Z" class="g0_127"/>
<path fill-rule="evenodd" d="M273.8,756.4H513.6V741.7H273.8v14.7Z" class="g0_127"/>
<path fill-rule="evenodd" d="M273.8,771H513.6V756.4H273.8V771Z" class="g0_127"/>
<path fill-rule="evenodd" d="M273.8,785.7H513.6V771H273.8v14.7Z" class="g0_127"/>
<path fill-rule="evenodd" d="M273.8,800.4H513.6V785.7H273.8v14.7Z" class="g0_127"/>
<path fill-rule="evenodd" d="M273.8,815H513.6V800.4H273.8V815Z" class="g0_127"/>
<path fill-rule="evenodd" d="M273.8,829.7H513.6V815H273.8v14.7Z" class="g0_127"/>
<path fill-rule="evenodd" d="M273.8,844.4H513.6V829.7H273.8v14.7Z" class="g0_127"/>
<path fill-rule="evenodd" d="M273.8,859.1H513.3V844.4H273.8v14.7Z" class="g0_127"/>
<path fill-rule="evenodd" d="M273.8,873.7H513.3V859.1H273.8v14.6Z" class="g0_127"/>
<path fill-rule="evenodd" d="M273.8,888.4H513.3V873.7H273.8v14.7Z" class="g0_127"/>
<path fill-rule="evenodd" d="M273.4,903.1H513.3V888.4H273.4v14.7Z" class="g0_127"/>
<path fill-rule="evenodd" d="M533.4,167.2H773.3V152.6H533.4v14.6Z" class="g0_127"/>
<path fill-rule="evenodd" d="M533.4,181.9H773.3V167.2H533.4v14.7Z" class="g0_127"/>
<path fill-rule="evenodd" d="M533.4,196.6H773.3V181.9H533.4v14.7Z" class="g0_127"/>
<path fill-rule="evenodd" d="M533.4,211.2H773.3V196.6H533.4v14.6Z" class="g0_127"/>
<path fill-rule="evenodd" d="M533.4,225.9H773.3V211.2H533.4v14.7Z" class="g0_127"/>
<path fill-rule="evenodd" d="M533.4,240.6H773.3V225.9H533.4v14.7Z" class="g0_127"/>
<path fill-rule="evenodd" d="M533.4,255.2H773.3V240.6H533.4v14.6Z" class="g0_127"/>
<path fill-rule="evenodd" d="M533.4,269.9H773.3V255.2H533.4v14.7Z" class="g0_127"/>
<path fill-rule="evenodd" d="M533.4,284.6H773.3V269.9H533.4v14.7Z" class="g0_127"/>
<path fill-rule="evenodd" d="M533.4,299.2H773.3V284.6H533.4v14.6Z" class="g0_127"/>
<path fill-rule="evenodd" d="M533.4,313.9H773.3V299.2H533.4v14.7Z" class="g0_127"/>
<path fill-rule="evenodd" d="M533.4,328.6H773.3V313.9H533.4v14.7Z" class="g0_127"/>
<path fill-rule="evenodd" d="M534.2,343.2H773.3V328.6H534.2v14.6Z" class="g0_127"/>
<path fill-rule="evenodd" d="M534.2,357.9H773.3V343.2H534.2v14.7Z" class="g0_127"/>
<path fill-rule="evenodd" d="M534.2,372.6H773.3V357.9H534.2v14.7Z" class="g0_127"/>
<path fill-rule="evenodd" d="M534.2,387.3H773.3V372.6H534.2v14.7Z" class="g0_127"/>
<path fill-rule="evenodd" d="M534.2,401.9H772.5V387.3H534.2v14.6Z" class="g0_127"/>
<path fill-rule="evenodd" d="M534.2,416.6H772.5V401.9H534.2v14.7Z" class="g0_127"/>
<path fill-rule="evenodd" d="M533.4,431.3H774V416.6H533.4v14.7Z" class="g0_127"/>
<path fill-rule="evenodd" d="M533.4,445.9H774V431.3H533.4v14.6Z" class="g0_127"/>
<path fill-rule="evenodd" d="M533.4,460.6H774V445.9H533.4v14.7Z" class="g0_127"/>
<path fill-rule="evenodd" d="M533.4,475.3H774V460.6H533.4v14.7Z" class="g0_127"/>
<path fill-rule="evenodd" d="M533.4,489.9H774V475.3H533.4v14.6Z" class="g0_127"/>
<path fill-rule="evenodd" d="M533.8,504.6H773.6V489.9H533.8v14.7Z" class="g0_127"/>
<path fill-rule="evenodd" d="M533.8,519.3H773.6V504.6H533.8v14.7Z" class="g0_127"/>
<path fill-rule="evenodd" d="M533.8,533.9H773.6V519.3H533.8v14.6Z" class="g0_127"/>
<path fill-rule="evenodd" d="M533.8,548.6H773.6V533.9H533.8v14.7Z" class="g0_127"/>
<path fill-rule="evenodd" d="M533.8,563.3H773.6V548.6H533.8v14.7Z" class="g0_127"/>
<path fill-rule="evenodd" d="M533.8,577.9H773.6V563.3H533.8v14.6Z" class="g0_127"/>
<path fill-rule="evenodd" d="M533.8,592.6H773.6V577.9H533.8v14.7Z" class="g0_127"/>
<path fill-rule="evenodd" d="M533.8,607.3H773.6V592.6H533.8v14.7Z" class="g0_127"/>
<path fill-rule="evenodd" d="M533.8,622H773.6V607.3H533.8V622Z" class="g0_127"/>
<path fill-rule="evenodd" d="M533.8,636.6H773.6V622H533.8v14.6Z" class="g0_127"/>
<path fill-rule="evenodd" d="M533.8,651.3H773.6V636.6H533.8v14.7Z" class="g0_127"/>
<path fill-rule="evenodd" d="M533.8,666H773.6V651.3H533.8V666Z" class="g0_127"/>
<path fill-rule="evenodd" d="M533.8,681H774V666.3H533.8V681Z" class="g0_127"/>
<path fill-rule="evenodd" d="M533.8,695.7H774V681H533.8v14.7Z" class="g0_127"/>
<path fill-rule="evenodd" d="M533.8,710.3H774V695.7H533.8v14.6Z" class="g0_127"/>
<path fill-rule="evenodd" d="M533.8,725H774V710.3H533.8V725Z" class="g0_127"/>
<path fill-rule="evenodd" d="M533.8,739.7H774V725H533.8v14.7Z" class="g0_127"/>
<path fill-rule="evenodd" d="M533.8,754.3H774V739.7H533.8v14.6Z" class="g0_127"/>
<path fill-rule="evenodd" d="M533.8,769H774V754.3H533.8V769Z" class="g0_127"/>
<path fill-rule="evenodd" d="M533.8,783.7H774V769H533.8v14.7Z" class="g0_127"/>
<path fill-rule="evenodd" d="M533.8,798.3H774V783.7H533.8v14.6Z" class="g0_127"/>
<path fill-rule="evenodd" d="M533.8,813H774V798.3H533.8V813Z" class="g0_127"/>
<path fill-rule="evenodd" d="M533.8,827.7H774V813H533.8v14.7Z" class="g0_127"/>
<path fill-rule="evenodd" d="M533.8,842.4H774V827.7H533.8v14.7Z" class="g0_127"/>
<path fill-rule="evenodd" d="M534.2,857.4H774V842.8H534.2v14.6Z" class="g0_127"/>
<path fill-rule="evenodd" d="M534.2,872.1H774V857.4H534.2v14.7Z" class="g0_127"/>
<path fill-rule="evenodd" d="M534.2,886.8H774V872.1H534.2v14.7Z" class="g0_127"/>
<path fill-rule="evenodd" d="M534.2,901.4H774V886.8H534.2v14.6Z" class="g0_127"/>
<path fill-rule="evenodd" d="M511.8,934.1H774V914.6H511.8v19.5Z" class="g0_127"/>
<path d="M212.8,97.2V820.3M200,280.5v198m2.2,-105.3v175m7.7,-181.9V997m2.2,-177.1v94.9M523.4,152.5v769" class="g1_127"/>
</svg>