<?xml version="1.0" encoding="UTF-8" standalone="no"?>
<!DOCTYPE svg PUBLIC "-//W3C//DTD SVG 1.1//EN"
"http://www.w3.org/Graphics/SVG/1.1/DTD/svg11.dtd">
<svg viewBox="0 0 909 1285" version="1.1" xmlns="http://www.w3.org/2000/svg" xmlns:xlink="http://www.w3.org/1999/xlink">
<defs>
<style type="text/css"><![CDATA[
.g0_158{
fill: #FFFFFF;
}
.g1_158{
fill: none;
stroke: #000000;
stroke-width: 0.381;
stroke-linecap: butt;
stroke-linejoin: round;
}
]]></style>
</defs>
<path fill-rule="evenodd" d="M627.3,125.8H701V110H627.3v15.8Z" class="g0_158"/>
<path fill-rule="evenodd" d="M204.4,162.3H442.1V147.4H204.4v14.9Z" class="g0_158"/>
<path fill-rule="evenodd" d="M204.4,176.9H442.1V162.3H204.4v14.6Z" class="g0_158"/>
<path fill-rule="evenodd" d="M203.7,191.6H442.1V176.9H203.7v14.7Z" class="g0_158"/>
<path fill-rule="evenodd" d="M203.7,206.3H442.1V191.6H203.7v14.7Z" class="g0_158"/>
<path fill-rule="evenodd" d="M203.7,220.9H442.1V206.3H203.7v14.6Z" class="g0_158"/>
<path fill-rule="evenodd" d="M203.7,235.6h238V220.9h-238v14.7Z" class="g0_158"/>
<path fill-rule="evenodd" d="M203.7,250.3h238V235.6h-238v14.7Z" class="g0_158"/>
<path fill-rule="evenodd" d="M203.7,264.9h238V250.3h-238v14.6Z" class="g0_158"/>
<path fill-rule="evenodd" d="M203.7,279.6h238V264.9h-238v14.7Z" class="g0_158"/>
<path fill-rule="evenodd" d="M204.4,294.3H441.7V279.6H204.4v14.7Z" class="g0_158"/>
<path fill-rule="evenodd" d="M204.4,308.9H441.7V294.3H204.4v14.6Z" class="g0_158"/>
<path fill-rule="evenodd" d="M204.1,323.6H441.7V308.9H204.1v14.7Z" class="g0_158"/>
<path fill-rule="evenodd" d="M204.1,338.3H441.7V323.6H204.1v14.7Z" class="g0_158"/>
<path fill-rule="evenodd" d="M203.3,353.7H441.7V339H203.3v14.7Z" class="g0_158"/>
<path fill-rule="evenodd" d="M203.3,368.4H441.7V353.7H203.3v14.7Z" class="g0_158"/>
<path fill-rule="evenodd" d="M203.3,383.1H441.7V368.4H203.3v14.7Z" class="g0_158"/>
<path fill-rule="evenodd" d="M222,398.1H442.1V383.4H222v14.7Z" class="g0_158"/>
<path fill-rule="evenodd" d="M203.3,413.1H441.7V398.5H203.3v14.6Z" class="g0_158"/>
<path fill-rule="evenodd" d="M203.3,427.8H441.7V413.1H203.3v14.7Z" class="g0_158"/>
<path fill-rule="evenodd" d="M203.3,442.5H441.7V427.8H203.3v14.7Z" class="g0_158"/>
<path fill-rule="evenodd" d="M203.3,457.1H441.7V442.5H203.3v14.6Z" class="g0_158"/>
<path fill-rule="evenodd" d="M222,472.2H442.1V457.5H222v14.7Z" class="g0_158"/>
<path fill-rule="evenodd" d="M203.7,486.8H441V472.2H203.7v14.6Z" class="g0_158"/>
<path fill-rule="evenodd" d="M203.7,501.5H441V486.8H203.7v14.7Z" class="g0_158"/>
<path fill-rule="evenodd" d="M203.3,516.2h238V501.5h-238v14.7Z" class="g0_158"/>
<path fill-rule="evenodd" d="M203.3,530.8h238V516.2h-238v14.6Z" class="g0_158"/>
<path fill-rule="evenodd" d="M221.3,545.9H442.1V531.2H221.3v14.7Z" class="g0_158"/>
<path fill-rule="evenodd" d="M203,560.5H441.3V545.9H203v14.6Z" class="g0_158"/>
<path fill-rule="evenodd" d="M203,575.2H441.3V560.5H203v14.7Z" class="g0_158"/>
<path fill-rule="evenodd" d="M203,589.9H441.3V575.2H203v14.7Z" class="g0_158"/>
<path fill-rule="evenodd" d="M203,604.6H441.3V589.9H203v14.7Z" class="g0_158"/>
<path fill-rule="evenodd" d="M203,619.2H441.3V604.6H203v14.6Z" class="g0_158"/>
<path fill-rule="evenodd" d="M203,633.9H441.3V619.2H203v14.7Z" class="g0_158"/>
<path fill-rule="evenodd" d="M221.3,648.9H442.1V634.3H221.3v14.6Z" class="g0_158"/>
<path fill-rule="evenodd" d="M203,664H441.3V649.3H203V664Z" class="g0_158"/>
<path fill-rule="evenodd" d="M203,678.6H441.3V664H203v14.6Z" class="g0_158"/>
<path fill-rule="evenodd" d="M203,693.3H441.3V678.6H203v14.7Z" class="g0_158"/>
<path fill-rule="evenodd" d="M203,708H441.3V693.3H203V708Z" class="g0_158"/>
<path fill-rule="evenodd" d="M202.6,722.6H441V708H202.6v14.6Z" class="g0_158"/>
<path fill-rule="evenodd" d="M202.6,737.3H441V722.6H202.6v14.7Z" class="g0_158"/>
<path fill-rule="evenodd" d="M202.6,752H441V737.3H202.6V752Z" class="g0_158"/>
<path fill-rule="evenodd" d="M202.6,766.6H441V752H202.6v14.6Z" class="g0_158"/>
<path fill-rule="evenodd" d="M203,781.7H440.6V767H203v14.7Z" class="g0_158"/>
<path fill-rule="evenodd" d="M203,796.3H440.6V781.7H203v14.6Z" class="g0_158"/>
<path fill-rule="evenodd" d="M203,811H441V796.3H203V811Z" class="g0_158"/>
<path fill-rule="evenodd" d="M203,825.7H441V811H203v14.7Z" class="g0_158"/>
<path fill-rule="evenodd" d="M203,840.4H441.3V825.7H203v14.7Z" class="g0_158"/>
<path fill-rule="evenodd" d="M203,855H441.3V840.4H203V855Z" class="g0_158"/>
<path fill-rule="evenodd" d="M203,869.7H441.3V855H203v14.7Z" class="g0_158"/>
<path fill-rule="evenodd" d="M203,884.7H441.3v-15H203v15Z" class="g0_158"/>
<path fill-rule="evenodd" d="M203,899.4H441.3V884.7H203v14.7Z" class="g0_158"/>
<path fill-rule="evenodd" d="M204.1,914.6H441.7V899.4H204.1v15.2Z" class="g0_158"/>
<path fill-rule="evenodd" d="M463,161.7H700.7v-15H463v15Z" class="g0_158"/>
<path fill-rule="evenodd" d="M463,176.9H700.7V161.7H463v15.2Z" class="g0_158"/>
<path fill-rule="evenodd" d="M462.3,192H701V176.9H462.3V192Z" class="g0_158"/>
<path fill-rule="evenodd" d="M462.3,207H701V192H462.3v15Z" class="g0_158"/>
<path fill-rule="evenodd" d="M462.3,222H701V207H462.3v15Z" class="g0_158"/>
<path fill-rule="evenodd" d="M462.3,237.1H701V222H462.3v15.1Z" class="g0_158"/>
<path fill-rule="evenodd" d="M462.3,252.1H701v-15H462.3v15Z" class="g0_158"/>
<path fill-rule="evenodd" d="M462.3,267.1H701v-15H462.3v15Z" class="g0_158"/>
<path fill-rule="evenodd" d="M462.7,282.2h238V267.1h-238v15.1Z" class="g0_158"/>
<path fill-rule="evenodd" d="M462.7,297.2h238v-15h-238v15Z" class="g0_158"/>
<path fill-rule="evenodd" d="M462.7,312.2h238v-15h-238v15Z" class="g0_158"/>
<path fill-rule="evenodd" d="M480.6,327.3H701V312.2H480.6v15.1Z" class="g0_158"/>
<path fill-rule="evenodd" d="M462.7,342.5h238V327.3h-238v15.2Z" class="g0_158"/>
<path fill-rule="evenodd" d="M462.7,357.6h238V342.5h-238v15.1Z" class="g0_158"/>
<path fill-rule="evenodd" d="M462.3,372.6H700.7v-15H462.3v15Z" class="g0_158"/>
<path fill-rule="evenodd" d="M462.3,387.6H700.7v-15H462.3v15Z" class="g0_158"/>
<path fill-rule="evenodd" d="M462.3,402.7H700.7V387.6H462.3v15.1Z" class="g0_158"/>
<path fill-rule="evenodd" d="M480.6,417.7H701v-15H480.6v15Z" class="g0_158"/>
<path fill-rule="evenodd" d="M461.9,432.7H700.7v-15H461.9v15Z" class="g0_158"/>
<path fill-rule="evenodd" d="M461.9,447.8H700.7V432.7H461.9v15.1Z" class="g0_158"/>
<path fill-rule="evenodd" d="M461.9,462.8H700.7v-15H461.9v15Z" class="g0_158"/>
<path fill-rule="evenodd" d="M461.9,477.8H700.7v-15H461.9v15Z" class="g0_158"/>
<path fill-rule="evenodd" d="M461.9,492.9H700.7V477.8H461.9v15.1Z" class="g0_158"/>
<path fill-rule="evenodd" d="M461.9,507.9H700.7v-15H461.9v15Z" class="g0_158"/>
<path fill-rule="evenodd" d="M461.9,523.1H700.7V507.9H461.9v15.2Z" class="g0_158"/>
<path fill-rule="evenodd" d="M461.9,538.2H700.7V523.1H461.9v15.1Z" class="g0_158"/>
<path fill-rule="evenodd" d="M480.3,553.2H701v-15H480.3v15Z" class="g0_158"/>
<path fill-rule="evenodd" d="M480.3,568.2H701v-15H480.3v15Z" class="g0_158"/>
<path fill-rule="evenodd" d="M480.3,583.3H701V568.2H480.3v15.1Z" class="g0_158"/>
<path fill-rule="evenodd" d="M461.9,598.3H700.3v-15H461.9v15Z" class="g0_158"/>
<path fill-rule="evenodd" d="M461.9,613.4H700.3V598.3H461.9v15.1Z" class="g0_158"/>
<path fill-rule="evenodd" d="M461.9,628.4H700.3v-15H461.9v15Z" class="g0_158"/>
<path fill-rule="evenodd" d="M462.3,643.8h238v-15h-238v15Z" class="g0_158"/>
<path fill-rule="evenodd" d="M462.3,658.8h238v-15h-238v15Z" class="g0_158"/>
<path fill-rule="evenodd" d="M461.9,673.9H701V658.8H461.9v15.1Z" class="g0_158"/>
<path fill-rule="evenodd" d="M461.9,689.1H701V673.9H461.9v15.2Z" class="g0_158"/>
<path fill-rule="evenodd" d="M461.9,704.1H701v-15H461.9v15Z" class="g0_158"/>
<path fill-rule="evenodd" d="M461.9,719.1H701v-15H461.9v15Z" class="g0_158"/>
<path fill-rule="evenodd" d="M461.9,734.2H701V719.1H461.9v15.1Z" class="g0_158"/>
<path fill-rule="evenodd" d="M461.6,749.2H699.9v-15H461.6v15Z" class="g0_158"/>
<path fill-rule="evenodd" d="M461.6,764.2H699.9v-15H461.6v15Z" class="g0_158"/>
<path fill-rule="evenodd" d="M461.9,779.3H700.3V764.2H461.9v15.1Z" class="g0_158"/>
<path fill-rule="evenodd" d="M461.9,794.3H700.3v-15H461.9v15Z" class="g0_158"/>
<path fill-rule="evenodd" d="M461.9,809.3H700.3v-15H461.9v15Z" class="g0_158"/>
<path fill-rule="evenodd" d="M461.9,824.4H700.3V809.3H461.9v15.1Z" class="g0_158"/>
<path fill-rule="evenodd" d="M461.9,839.5H700.3V824.4H461.9v15.1Z" class="g0_158"/>
<path fill-rule="evenodd" d="M461.9,854.5H700.3v-15H461.9v15Z" class="g0_158"/>
<path fill-rule="evenodd" d="M480.3,869.7H701V854.5H480.3v15.2Z" class="g0_158"/>
<path fill-rule="evenodd" d="M462.3,884.7H700.7v-15H462.3v15Z" class="g0_158"/>
<path fill-rule="evenodd" d="M462.3,899.8H700.7V884.7H462.3v15.1Z" class="g0_158"/>
<path d="M450.8,146.4V915.6" class="g1_158"/>
</svg>