<?xml version="1.0" encoding="UTF-8" standalone="no"?>
<!DOCTYPE svg PUBLIC "-//W3C//DTD SVG 1.1//EN"
"http://www.w3.org/Graphics/SVG/1.1/DTD/svg11.dtd">
<svg viewBox="0 0 909 1285" version="1.1" xmlns="http://www.w3.org/2000/svg" xmlns:xlink="http://www.w3.org/1999/xlink">
<defs>
<style type="text/css"><![CDATA[
.g0_293{
fill: #FFFFFF;
}
.g1_293{
fill: none;
stroke: #000000;
stroke-width: 2.902;
stroke-linecap: butt;
stroke-linejoin: round;
}
.g2_293{
fill: none;
stroke: #000000;
stroke-width: 0.381;
stroke-linecap: butt;
stroke-linejoin: round;
}
.g3_293{
fill: none;
stroke: #000000;
stroke-width: 0.763;
stroke-linecap: butt;
stroke-linejoin: round;
}
]]></style>
</defs>
<path fill-rule="evenodd" d="M261.6,131.1H763.4V110H261.6v21.1Z" class="g0_293"/>
<path fill-rule="evenodd" d="M262,165.6H502.3V150.5H262v15.1Z" class="g0_293"/>
<path fill-rule="evenodd" d="M262,180.6H502.3v-15H262v15Z" class="g0_293"/>
<path fill-rule="evenodd" d="M262,195.6H502.3v-15H262v15Z" class="g0_293"/>
<path fill-rule="evenodd" d="M262,210.7H502.3V195.6H262v15.1Z" class="g0_293"/>
<path fill-rule="evenodd" d="M262,225.7H502.6v-15H262v15Z" class="g0_293"/>
<path fill-rule="evenodd" d="M262,240.7H502.6v-15H262v15Z" class="g0_293"/>
<path fill-rule="evenodd" d="M261.6,255.8h241V240.7h-241v15.1Z" class="g0_293"/>
<path fill-rule="evenodd" d="M261.6,270.8h241v-15h-241v15Z" class="g0_293"/>
<path fill-rule="evenodd" d="M261.6,286h241V270.8h-241V286Z" class="g0_293"/>
<path fill-rule="evenodd" d="M261.6,301.1h241V286h-241v15.1Z" class="g0_293"/>
<path fill-rule="evenodd" d="M261.6,316.1h241v-15h-241v15Z" class="g0_293"/>
<path fill-rule="evenodd" d="M261.6,331.1H502.3v-15H261.6v15Z" class="g0_293"/>
<path fill-rule="evenodd" d="M261.6,346.2H502.3V331.1H261.6v15.1Z" class="g0_293"/>
<path fill-rule="evenodd" d="M261.6,361.2H502.3v-15H261.6v15Z" class="g0_293"/>
<path fill-rule="evenodd" d="M261.6,376.3H502.3V361.2H261.6v15.1Z" class="g0_293"/>
<path fill-rule="evenodd" d="M261.6,391.3H501.9v-15H261.6v15Z" class="g0_293"/>
<path fill-rule="evenodd" d="M261.6,406.3H501.9v-15H261.6v15Z" class="g0_293"/>
<path fill-rule="evenodd" d="M261.6,421.4H501.9V406.3H261.6v15.1Z" class="g0_293"/>
<path fill-rule="evenodd" d="M261.6,436.4H501.9v-15H261.6v15Z" class="g0_293"/>
<path fill-rule="evenodd" d="M261.6,451.6H501.9V436.4H261.6v15.2Z" class="g0_293"/>
<path fill-rule="evenodd" d="M261.6,467h241V452h-241v15Z" class="g0_293"/>
<path fill-rule="evenodd" d="M261.6,482.1h241V467h-241v15.1Z" class="g0_293"/>
<path fill-rule="evenodd" d="M260.2,497.1H502.3v-15H260.2v15Z" class="g0_293"/>
<path fill-rule="evenodd" d="M260.2,512.1H502.3v-15H260.2v15Z" class="g0_293"/>
<path fill-rule="evenodd" d="M260.2,527.2H502.3V512.1H260.2v15.1Z" class="g0_293"/>
<path fill-rule="evenodd" d="M260.2,542.2H502.3v-15H260.2v15Z" class="g0_293"/>
<path fill-rule="evenodd" d="M279.7,557.2H502.6v-15H279.7v15Z" class="g0_293"/>
<path fill-rule="evenodd" d="M261.6,572.3H502.3V557.2H261.6v15.1Z" class="g0_293"/>
<path fill-rule="evenodd" d="M261.6,587.3H502.3v-15H261.6v15Z" class="g0_293"/>
<path fill-rule="evenodd" d="M261.6,602.4H502.3V587.3H261.6v15.1Z" class="g0_293"/>
<path fill-rule="evenodd" d="M280,617.6H502.6V602.4H280v15.2Z" class="g0_293"/>
<path fill-rule="evenodd" d="M261.6,632.6H501.9v-15H261.6v15Z" class="g0_293"/>
<path fill-rule="evenodd" d="M261.6,647.6H501.9v-15H261.6v15Z" class="g0_293"/>
<path fill-rule="evenodd" d="M261.3,662.7h241V647.6h-241v15.1Z" class="g0_293"/>
<path fill-rule="evenodd" d="M261.3,677.7h241v-15h-241v15Z" class="g0_293"/>
<path fill-rule="evenodd" d="M261.3,692.7h241v-15h-241v15Z" class="g0_293"/>
<path fill-rule="evenodd" d="M261.3,707.8h241V692.7h-241v15.1Z" class="g0_293"/>
<path fill-rule="evenodd" d="M261.3,722.8h241v-15h-241v15Z" class="g0_293"/>
<path fill-rule="evenodd" d="M261.3,737.8h241v-15h-241v15Z" class="g0_293"/>
<path fill-rule="evenodd" d="M261.3,752.9h241V737.8h-241v15.1Z" class="g0_293"/>
<path fill-rule="evenodd" d="M261.3,767.9h241v-15h-241v15Z" class="g0_293"/>
<path fill-rule="evenodd" d="M262,783.5H501.5V768.3H262v15.2Z" class="g0_293"/>
<path fill-rule="evenodd" d="M262,798.5H501.5v-15H262v15Z" class="g0_293"/>
<path fill-rule="evenodd" d="M261.3,813.6h241V798.5h-241v15.1Z" class="g0_293"/>
<path fill-rule="evenodd" d="M261.3,828.6h241v-15h-241v15Z" class="g0_293"/>
<path fill-rule="evenodd" d="M261.3,843.7h241V828.6h-241v15.1Z" class="g0_293"/>
<path fill-rule="evenodd" d="M261.3,858.7h241v-15h-241v15Z" class="g0_293"/>
<path fill-rule="evenodd" d="M261.3,873.7h241v-15h-241v15Z" class="g0_293"/>
<path fill-rule="evenodd" d="M261.3,888.8h241V873.7h-241v15.1Z" class="g0_293"/>
<path fill-rule="evenodd" d="M279.3,903.8H502.6v-15H279.3v15Z" class="g0_293"/>
<path fill-rule="evenodd" d="M540.8,165.9H763.4v-15H540.8v15Z" class="g0_293"/>
<path fill-rule="evenodd" d="M522.4,181H762.3V165.9H522.4V181Z" class="g0_293"/>
<path fill-rule="evenodd" d="M522.4,196H762.3V181H522.4v15Z" class="g0_293"/>
<path fill-rule="evenodd" d="M522.4,211H762.3V196H522.4v15Z" class="g0_293"/>
<path fill-rule="evenodd" d="M522.4,226.1H762.3V211H522.4v15.1Z" class="g0_293"/>
<path fill-rule="evenodd" d="M541.1,241.1H763.4v-15H541.1v15Z" class="g0_293"/>
<path fill-rule="evenodd" d="M522.8,256.1H762.3v-15H522.8v15Z" class="g0_293"/>
<path fill-rule="evenodd" d="M522.8,271.4H762.3V256.1H522.8v15.3Z" class="g0_293"/>
<path fill-rule="evenodd" d="M540.8,286.4H763.4v-15H540.8v15Z" class="g0_293"/>
<path fill-rule="evenodd" d="M522.8,301.4H762.6v-15H522.8v15Z" class="g0_293"/>
<path fill-rule="evenodd" d="M522.8,316.5H762.6V301.4H522.8v15.1Z" class="g0_293"/>
<path fill-rule="evenodd" d="M522.8,331.5H762.6v-15H522.8v15Z" class="g0_293"/>
<path fill-rule="evenodd" d="M541.1,346.5H763.4v-15H541.1v15Z" class="g0_293"/>
<path fill-rule="evenodd" d="M522.8,361.6H762.3V346.5H522.8v15.1Z" class="g0_293"/>
<path fill-rule="evenodd" d="M522.8,376.6H762.3v-15H522.8v15Z" class="g0_293"/>
<path fill-rule="evenodd" d="M522.8,391.7H762.3V376.6H522.8v15.1Z" class="g0_293"/>
<path fill-rule="evenodd" d="M522.8,406.7H762.3v-15H522.8v15Z" class="g0_293"/>
<path fill-rule="evenodd" d="M540.8,421.7H763.4v-15H540.8v15Z" class="g0_293"/>
<path fill-rule="evenodd" d="M540.8,437H763.4V421.7H540.8V437Z" class="g0_293"/>
<path fill-rule="evenodd" d="M522.4,452H762.6V437H522.4v15Z" class="g0_293"/>
<path fill-rule="evenodd" d="M522.4,467H762.6V452H522.4v15Z" class="g0_293"/>
<path fill-rule="evenodd" d="M522.4,482.1H762.6V467H522.4v15.1Z" class="g0_293"/>
<path fill-rule="evenodd" d="M521.7,497.1H762.6v-15H521.7v15Z" class="g0_293"/>
<path fill-rule="evenodd" d="M521.7,512.1H762.6v-15H521.7v15Z" class="g0_293"/>
<path fill-rule="evenodd" d="M521.7,527.2H762.6V512.1H521.7v15.1Z" class="g0_293"/>
<path fill-rule="evenodd" d="M521.7,542.2H762.6v-15H521.7v15Z" class="g0_293"/>
<path fill-rule="evenodd" d="M521.7,557.2H762.6v-15H521.7v15Z" class="g0_293"/>
<path fill-rule="evenodd" d="M521.7,572.3H762.6V557.2H521.7v15.1Z" class="g0_293"/>
<path fill-rule="evenodd" d="M522.4,587.3H762.3v-15H522.4v15Z" class="g0_293"/>
<path fill-rule="evenodd" d="M522.4,602.4H762.3V587.3H522.4v15.1Z" class="g0_293"/>
<path fill-rule="evenodd" d="M522.4,617.6H762.3V602.4H522.4v15.2Z" class="g0_293"/>
<path fill-rule="evenodd" d="M522.4,632.6H762.3v-15H522.4v15Z" class="g0_293"/>
<path fill-rule="evenodd" d="M522.4,647.6H762.3v-15H522.4v15Z" class="g0_293"/>
<path fill-rule="evenodd" d="M522.4,662.7H763V647.6H522.4v15.1Z" class="g0_293"/>
<path fill-rule="evenodd" d="M522.4,677.7H763v-15H522.4v15Z" class="g0_293"/>
<path fill-rule="evenodd" d="M522.4,692.7H763v-15H522.4v15Z" class="g0_293"/>
<path fill-rule="evenodd" d="M522.4,707.8H763V692.7H522.4v15.1Z" class="g0_293"/>
<path fill-rule="evenodd" d="M540.8,722.8H763.4v-15H540.8v15Z" class="g0_293"/>
<path fill-rule="evenodd" d="M522.4,737.8H762.3v-15H522.4v15Z" class="g0_293"/>
<path fill-rule="evenodd" d="M522.4,752.9H762.3V737.8H522.4v15.1Z" class="g0_293"/>
<path fill-rule="evenodd" d="M522.4,767.9h241v-15h-241v15Z" class="g0_293"/>
<path fill-rule="evenodd" d="M522.4,782.9h241v-15h-241v15Z" class="g0_293"/>
<path fill-rule="evenodd" d="M522.4,798.2h241V782.9h-241v15.3Z" class="g0_293"/>
<path fill-rule="evenodd" d="M522.4,813.2h241v-15h-241v15Z" class="g0_293"/>
<path fill-rule="evenodd" d="M522.4,828.2h241v-15h-241v15Z" class="g0_293"/>
<path fill-rule="evenodd" d="M522.4,843.3h241V828.2h-241v15.1Z" class="g0_293"/>
<path fill-rule="evenodd" d="M522.4,858.3H762.6v-15H522.4v15Z" class="g0_293"/>
<path fill-rule="evenodd" d="M522.4,873.4H762.6V858.3H522.4v15.1Z" class="g0_293"/>
<path fill-rule="evenodd" d="M522.4,888.4H762.6v-15H522.4v15Z" class="g0_293"/>
<path fill-rule="evenodd" d="M522.4,903.4H762.6v-15H522.4v15Z" class="g0_293"/>
<path fill-rule="evenodd" d="M499.3,935.7H763.4V916.3H499.3v19.4Z" class="g0_293"/>
<path d="M179.4,587.6V846.8" class="g1_293"/>
<path d="M188.6,795.1v59.7" class="g2_293"/>
<path d="M203.7,695V869.9" class="g3_293"/>
<path d="M512,151.6V916.8" class="g2_293"/>
</svg>