<?xml version="1.0" encoding="UTF-8" standalone="no"?>
<!DOCTYPE svg PUBLIC "-//W3C//DTD SVG 1.1//EN"
"http://www.w3.org/Graphics/SVG/1.1/DTD/svg11.dtd">
<svg viewBox="0 0 909 1285" version="1.1" xmlns="http://www.w3.org/2000/svg" xmlns:xlink="http://www.w3.org/1999/xlink">
<defs>
<style type="text/css"><![CDATA[
.g0_125{
fill: #FFFFFF;
}
.g1_125{
fill: none;
stroke: #000000;
stroke-width: 0.381;
stroke-linecap: butt;
stroke-linejoin: round;
}
]]></style>
</defs>
<path fill-rule="evenodd" d="M278.4,125.8H776V110H278.4v15.8Z" class="g0_125"/>
<path fill-rule="evenodd" d="M278,161.4H516.7V146.7H278v14.7Z" class="g0_125"/>
<path fill-rule="evenodd" d="M278,176H516.7V161.4H278V176Z" class="g0_125"/>
<path fill-rule="evenodd" d="M277.6,191.1H516.4V176.4H277.6v14.7Z" class="g0_125"/>
<path fill-rule="evenodd" d="M277.6,205.7H516.4V191.1H277.6v14.6Z" class="g0_125"/>
<path fill-rule="evenodd" d="M277.3,220.4H516.7V205.7H277.3v14.7Z" class="g0_125"/>
<path fill-rule="evenodd" d="M277.3,235.1H516.7V220.4H277.3v14.7Z" class="g0_125"/>
<path fill-rule="evenodd" d="M277.3,249.7H516.7V235.1H277.3v14.6Z" class="g0_125"/>
<path fill-rule="evenodd" d="M277.3,264.4H516.7V249.7H277.3v14.7Z" class="g0_125"/>
<path fill-rule="evenodd" d="M277.3,279.1H516V264.4H277.3v14.7Z" class="g0_125"/>
<path fill-rule="evenodd" d="M277.3,293.9H516V279.1H277.3v14.8Z" class="g0_125"/>
<path fill-rule="evenodd" d="M277.3,308.6H516V293.9H277.3v14.7Z" class="g0_125"/>
<path fill-rule="evenodd" d="M277.6,323.6h238V308.9h-238v14.7Z" class="g0_125"/>
<path fill-rule="evenodd" d="M277.6,338.3h238V323.6h-238v14.7Z" class="g0_125"/>
<path fill-rule="evenodd" d="M277.3,353H516V338.3H277.3V353Z" class="g0_125"/>
<path fill-rule="evenodd" d="M277.3,367.7H516V353H277.3v14.7Z" class="g0_125"/>
<path fill-rule="evenodd" d="M277.3,382.3H516V367.7H277.3v14.6Z" class="g0_125"/>
<path fill-rule="evenodd" d="M277.6,397H516V382.3H277.6V397Z" class="g0_125"/>
<path fill-rule="evenodd" d="M277.6,411.7H516V397H277.6v14.7Z" class="g0_125"/>
<path fill-rule="evenodd" d="M276.5,426.3H516V411.7H276.5v14.6Z" class="g0_125"/>
<path fill-rule="evenodd" d="M276.5,441H516V426.3H276.5V441Z" class="g0_125"/>
<path fill-rule="evenodd" d="M276.5,455.7H514.9V441H276.5v14.7Z" class="g0_125"/>
<path fill-rule="evenodd" d="M276.5,470.3H514.9V455.7H276.5v14.6Z" class="g0_125"/>
<path fill-rule="evenodd" d="M276.2,485H515.3V470.3H276.2V485Z" class="g0_125"/>
<path fill-rule="evenodd" d="M276.2,499.7H515.3V485H276.2v14.7Z" class="g0_125"/>
<path fill-rule="evenodd" d="M276.2,514.3H515.3V499.7H276.2v14.6Z" class="g0_125"/>
<path fill-rule="evenodd" d="M276.2,529H515.3V514.3H276.2V529Z" class="g0_125"/>
<path fill-rule="evenodd" d="M276.2,543.7H463.9V529H276.2v14.7Z" class="g0_125"/>
<path fill-rule="evenodd" d="M276.2,558.3H463.9V543.7H276.2v14.6Z" class="g0_125"/>
<path fill-rule="evenodd" d="M276.2,573.4H516.7V558.7H276.2v14.7Z" class="g0_125"/>
<path fill-rule="evenodd" d="M276.2,588H516.7V573.4H276.2V588Z" class="g0_125"/>
<path fill-rule="evenodd" d="M276.2,602.7H516.7V588H276.2v14.7Z" class="g0_125"/>
<path fill-rule="evenodd" d="M276.2,617.4H516.7V602.7H276.2v14.7Z" class="g0_125"/>
<path fill-rule="evenodd" d="M275.4,632.1H516.7V617.4H275.4v14.7Z" class="g0_125"/>
<path fill-rule="evenodd" d="M275.4,646.7H516.7V632.1H275.4v14.6Z" class="g0_125"/>
<path fill-rule="evenodd" d="M275.4,661.4H516.7V646.7H275.4v14.7Z" class="g0_125"/>
<path fill-rule="evenodd" d="M275.4,676.1H516.7V661.4H275.4v14.7Z" class="g0_125"/>
<path fill-rule="evenodd" d="M275.4,690.7H516.7V676.1H275.4v14.6Z" class="g0_125"/>
<path fill-rule="evenodd" d="M275.4,705.8H514.5V691.1H275.4v14.7Z" class="g0_125"/>
<path fill-rule="evenodd" d="M275.4,720.4H514.5V705.8H275.4v14.6Z" class="g0_125"/>
<path fill-rule="evenodd" d="M275.4,735.1H514.5V720.4H275.4v14.7Z" class="g0_125"/>
<path fill-rule="evenodd" d="M275.4,749.8H514.5V735.1H275.4v14.7Z" class="g0_125"/>
<path fill-rule="evenodd" d="M275.4,764.4H514.5V749.8H275.4v14.6Z" class="g0_125"/>
<path fill-rule="evenodd" d="M275.4,779.1H514.5V764.4H275.4v14.7Z" class="g0_125"/>
<path fill-rule="evenodd" d="M275.4,793.8H514.5V779.1H275.4v14.7Z" class="g0_125"/>
<path fill-rule="evenodd" d="M275.4,808.4H513.8V793.8H275.4v14.6Z" class="g0_125"/>
<path fill-rule="evenodd" d="M275.4,823.1H513.8V808.4H275.4v14.7Z" class="g0_125"/>
<path fill-rule="evenodd" d="M275.1,837.8H514.5V823.1H275.1v14.7Z" class="g0_125"/>
<path fill-rule="evenodd" d="M275.1,852.5H514.5V837.8H275.1v14.7Z" class="g0_125"/>
<path fill-rule="evenodd" d="M275.1,867.1H514.5V852.5H275.1v14.6Z" class="g0_125"/>
<path fill-rule="evenodd" d="M275.1,881.8H514.5V867.1H275.1v14.7Z" class="g0_125"/>
<path fill-rule="evenodd" d="M275.1,896.5H514.5V881.8H275.1v14.7Z" class="g0_125"/>
<path fill-rule="evenodd" d="M278.4,911.1H463.9V896.5H278.4v14.6Z" class="g0_125"/>
<path fill-rule="evenodd" d="M537.6,161.7H723.2V147.1H537.6v14.6Z" class="g0_125"/>
<path fill-rule="evenodd" d="M537.6,176.4H723.2V161.7H537.6v14.7Z" class="g0_125"/>
<path fill-rule="evenodd" d="M536.9,191.1H775.6V176.4H536.9v14.7Z" class="g0_125"/>
<path fill-rule="evenodd" d="M536.9,205.7H775.6V191.1H536.9v14.6Z" class="g0_125"/>
<path fill-rule="evenodd" d="M537.3,220.4h238V205.7h-238v14.7Z" class="g0_125"/>
<path fill-rule="evenodd" d="M537.3,235.1h238V220.4h-238v14.7Z" class="g0_125"/>
<path fill-rule="evenodd" d="M535.8,249.7H776V235.1H535.8v14.6Z" class="g0_125"/>
<path fill-rule="evenodd" d="M535.8,264.4H776V249.7H535.8v14.7Z" class="g0_125"/>
<path fill-rule="evenodd" d="M535.8,279.1H776V264.4H535.8v14.7Z" class="g0_125"/>
<path fill-rule="evenodd" d="M535.8,293.9H776V279.1H535.8v14.8Z" class="g0_125"/>
<path fill-rule="evenodd" d="M555.2,308.9H776V294.3H555.2v14.6Z" class="g0_125"/>
<path fill-rule="evenodd" d="M537.3,324H775.6V309.3H537.3V324Z" class="g0_125"/>
<path fill-rule="evenodd" d="M537.3,338.6H775.6V324H537.3v14.6Z" class="g0_125"/>
<path fill-rule="evenodd" d="M536.2,353.4H775.3V338.7H536.2v14.7Z" class="g0_125"/>
<path fill-rule="evenodd" d="M536.2,368H775.3V353.4H536.2V368Z" class="g0_125"/>
<path fill-rule="evenodd" d="M536.2,382.7H775.3V368H536.2v14.7Z" class="g0_125"/>
<path fill-rule="evenodd" d="M554.9,397.7H776V383.1H554.9v14.6Z" class="g0_125"/>
<path fill-rule="evenodd" d="M536.2,412.4H775.3V397.7H536.2v14.7Z" class="g0_125"/>
<path fill-rule="evenodd" d="M536.2,427.1H775.3V412.4H536.2v14.7Z" class="g0_125"/>
<path fill-rule="evenodd" d="M536.2,441.7H775.3V427.1H536.2v14.6Z" class="g0_125"/>
<path fill-rule="evenodd" d="M535.4,456.8H774.9V442.1H535.4v14.7Z" class="g0_125"/>
<path fill-rule="evenodd" d="M535.4,471.4H774.9V456.8H535.4v14.6Z" class="g0_125"/>
<path fill-rule="evenodd" d="M535.4,486.1H774.9V471.4H535.4v14.7Z" class="g0_125"/>
<path fill-rule="evenodd" d="M535.4,500.8H774.9V486.1H535.4v14.7Z" class="g0_125"/>
<path fill-rule="evenodd" d="M535.4,515.4H774.9V500.8H535.4v14.6Z" class="g0_125"/>
<path fill-rule="evenodd" d="M535.4,530.1H774.9V515.4H535.4v14.7Z" class="g0_125"/>
<path fill-rule="evenodd" d="M535.4,544.8H774.9V530.1H535.4v14.7Z" class="g0_125"/>
<path fill-rule="evenodd" d="M535.4,559.4H774.5V544.8H535.4v14.6Z" class="g0_125"/>
<path fill-rule="evenodd" d="M535.4,574.1H774.5V559.4H535.4v14.7Z" class="g0_125"/>
<path fill-rule="evenodd" d="M535.4,588.8H774.5V574.1H535.4v14.7Z" class="g0_125"/>
<path fill-rule="evenodd" d="M535.4,603.5H774.5V588.8H535.4v14.7Z" class="g0_125"/>
<path fill-rule="evenodd" d="M535.4,618.1H774.5V603.5H535.4v14.6Z" class="g0_125"/>
<path fill-rule="evenodd" d="M535.4,632.8H774.5V618.1H535.4v14.7Z" class="g0_125"/>
<path fill-rule="evenodd" d="M535.4,647.5H774.5V632.8H535.4v14.7Z" class="g0_125"/>
<path fill-rule="evenodd" d="M535.1,662.5H773.4V647.8H535.1v14.7Z" class="g0_125"/>
<path fill-rule="evenodd" d="M535.1,677.2H773.4V662.5H535.1v14.7Z" class="g0_125"/>
<path fill-rule="evenodd" d="M534.3,692.2H774.2V677.5H534.3v14.7Z" class="g0_125"/>
<path fill-rule="evenodd" d="M534.3,706.9H774.2V692.2H534.3v14.7Z" class="g0_125"/>
<path fill-rule="evenodd" d="M534.3,721.5H774.2V706.9H534.3v14.6Z" class="g0_125"/>
<path fill-rule="evenodd" d="M534.3,736.2H774.2V721.5H534.3v14.7Z" class="g0_125"/>
<path fill-rule="evenodd" d="M534.3,750.9H774.2V736.2H534.3v14.7Z" class="g0_125"/>
<path fill-rule="evenodd" d="M534.3,765.5H774.2V750.9H534.3v14.6Z" class="g0_125"/>
<path fill-rule="evenodd" d="M534.3,780.2H774.2V765.5H534.3v14.7Z" class="g0_125"/>
<path fill-rule="evenodd" d="M534.3,794.9H774.2V780.2H534.3v14.7Z" class="g0_125"/>
<path fill-rule="evenodd" d="M534.3,809.5H774.2V794.9H534.3v14.6Z" class="g0_125"/>
<path fill-rule="evenodd" d="M534.3,824.2H774.2V809.5H534.3v14.7Z" class="g0_125"/>
<path fill-rule="evenodd" d="M534.3,838.9H774.2V824.2H534.3v14.7Z" class="g0_125"/>
<path fill-rule="evenodd" d="M534.3,853.6H774.2V838.9H534.3v14.7Z" class="g0_125"/>
<path fill-rule="evenodd" d="M534.7,868.2H773.8V853.6H534.7v14.6Z" class="g0_125"/>
<path fill-rule="evenodd" d="M534.7,882.9H773.8V868.2H534.7v14.7Z" class="g0_125"/>
<path fill-rule="evenodd" d="M512,928.7H776V911.1H512v17.6Z" class="g0_125"/>
<path d="M197.3,275.1V850.4m1.8,-444.8v67.9m0,-27.5V645M217.8,79.7V989M524.3,147.8V915.6" class="g1_125"/>
</svg>