<?xml version="1.0" encoding="UTF-8" standalone="no"?>
<!DOCTYPE svg PUBLIC "-//W3C//DTD SVG 1.1//EN"
"http://www.w3.org/Graphics/SVG/1.1/DTD/svg11.dtd">
<svg viewBox="0 0 909 1285" version="1.1" xmlns="http://www.w3.org/2000/svg" xmlns:xlink="http://www.w3.org/1999/xlink">
<defs>
<style type="text/css"><![CDATA[
.g0_69{
fill: #FFFFFF;
}
.g1_69{
fill: none;
stroke: #000000;
stroke-width: 0.381;
stroke-linecap: butt;
stroke-linejoin: round;
}
]]></style>
</defs>
<path fill-rule="evenodd" d="M267.9,125.8H768.1V110H267.9v15.8Z" class="g0_69"/>
<path fill-rule="evenodd" d="M267.6,161.4H507.8V146.3H267.6v15.1Z" class="g0_69"/>
<path fill-rule="evenodd" d="M267.6,176.4H507.8v-15H267.6v15Z" class="g0_69"/>
<path fill-rule="evenodd" d="M267.6,191.6H507.8V176.4H267.6v15.2Z" class="g0_69"/>
<path fill-rule="evenodd" d="M267.6,206.6H507.8v-15H267.6v15Z" class="g0_69"/>
<path fill-rule="evenodd" d="M267.6,221.7H507.8V206.6H267.6v15.1Z" class="g0_69"/>
<path fill-rule="evenodd" d="M267.6,236.7H507.8v-15H267.6v15Z" class="g0_69"/>
<path fill-rule="evenodd" d="M267.6,251.7H507.8v-15H267.6v15Z" class="g0_69"/>
<path fill-rule="evenodd" d="M267.6,266.8H507.4V251.7H267.6v15.1Z" class="g0_69"/>
<path fill-rule="evenodd" d="M267.6,281.8H507.4v-15H267.6v15Z" class="g0_69"/>
<path fill-rule="evenodd" d="M267.6,296.8H507.4v-15H267.6v15Z" class="g0_69"/>
<path fill-rule="evenodd" d="M267.6,311.9H507.4V296.8H267.6v15.1Z" class="g0_69"/>
<path fill-rule="evenodd" d="M267.6,326.9H507.4v-15H267.6v15Z" class="g0_69"/>
<path fill-rule="evenodd" d="M267.6,341.9H507.4v-15H267.6v15Z" class="g0_69"/>
<path fill-rule="evenodd" d="M267.9,357.2H507V342H267.9v15.2Z" class="g0_69"/>
<path fill-rule="evenodd" d="M267.9,372.2H507v-15H267.9v15Z" class="g0_69"/>
<path fill-rule="evenodd" d="M267.6,387.3H507.4V372.2H267.6v15.1Z" class="g0_69"/>
<path fill-rule="evenodd" d="M267.6,402.3H507.4v-15H267.6v15Z" class="g0_69"/>
<path fill-rule="evenodd" d="M267.1,417.3H507v-15H267.1v15Z" class="g0_69"/>
<path fill-rule="evenodd" d="M267.1,432.4H507V417.3H267.1v15.1Z" class="g0_69"/>
<path fill-rule="evenodd" d="M267.1,447.4H507v-15H267.1v15Z" class="g0_69"/>
<path fill-rule="evenodd" d="M267.1,462.4H507v-15H267.1v15Z" class="g0_69"/>
<path fill-rule="evenodd" d="M267.1,477.5H506.3V462.4H267.1v15.1Z" class="g0_69"/>
<path fill-rule="evenodd" d="M267.1,492.5H506.3v-15H267.1v15Z" class="g0_69"/>
<path fill-rule="evenodd" d="M267.1,507.5H507v-15H267.1v15Z" class="g0_69"/>
<path fill-rule="evenodd" d="M267.1,522.6H507V507.5H267.1v15.1Z" class="g0_69"/>
<path fill-rule="evenodd" d="M267.1,537.8H505.9V522.6H267.1v15.2Z" class="g0_69"/>
<path fill-rule="evenodd" d="M267.1,552.8H505.9v-15H267.1v15Z" class="g0_69"/>
<path fill-rule="evenodd" d="M266.8,567.9H506.3V552.8H266.8v15.1Z" class="g0_69"/>
<path fill-rule="evenodd" d="M266.8,582.9H506.3v-15H266.8v15Z" class="g0_69"/>
<path fill-rule="evenodd" d="M285.2,598H507.8V582.9H285.2V598Z" class="g0_69"/>
<path fill-rule="evenodd" d="M285.2,613H507.8V598H285.2v15Z" class="g0_69"/>
<path fill-rule="evenodd" d="M266.8,628H506.3V613H266.8v15Z" class="g0_69"/>
<path fill-rule="evenodd" d="M266.4,643.1H505.9V628H266.4v15.1Z" class="g0_69"/>
<path fill-rule="evenodd" d="M266.4,658.1H505.9v-15H266.4v15Z" class="g0_69"/>
<path fill-rule="evenodd" d="M266.4,673.1H505.9v-15H266.4v15Z" class="g0_69"/>
<path fill-rule="evenodd" d="M266.8,688.2H506.7V673.1H266.8v15.1Z" class="g0_69"/>
<path fill-rule="evenodd" d="M266.8,703.2H506.7v-15H266.8v15Z" class="g0_69"/>
<path fill-rule="evenodd" d="M266.8,718.4H506.7V703.2H266.8v15.2Z" class="g0_69"/>
<path fill-rule="evenodd" d="M266.8,733.4H506.7v-15H266.8v15Z" class="g0_69"/>
<path fill-rule="evenodd" d="M266.8,748.5H506.3V733.4H266.8v15.1Z" class="g0_69"/>
<path fill-rule="evenodd" d="M266.8,763.5H506.3v-15H266.8v15Z" class="g0_69"/>
<path fill-rule="evenodd" d="M266.8,778.5H506.3v-15H266.8v15Z" class="g0_69"/>
<path fill-rule="evenodd" d="M285.2,793.6H507.8V778.5H285.2v15.1Z" class="g0_69"/>
<path fill-rule="evenodd" d="M266.8,808.6H506.3v-15H266.8v15Z" class="g0_69"/>
<path fill-rule="evenodd" d="M266.8,823.6H506.3v-15H266.8v15Z" class="g0_69"/>
<path fill-rule="evenodd" d="M266.4,838.7H505.6V823.6H266.4v15.1Z" class="g0_69"/>
<path fill-rule="evenodd" d="M266.4,853.8H505.6V838.7H266.4v15.1Z" class="g0_69"/>
<path fill-rule="evenodd" d="M266.4,868.8H505.9v-15H266.4v15Z" class="g0_69"/>
<path fill-rule="evenodd" d="M266.4,883.8H505.9v-15H266.4v15Z" class="g0_69"/>
<path fill-rule="evenodd" d="M267.6,898.5H507.8V883.8H267.6v14.7Z" class="g0_69"/>
<path fill-rule="evenodd" d="M527.9,161.4H768.1V146.7H527.9v14.7Z" class="g0_69"/>
<path fill-rule="evenodd" d="M527.9,176H768.1V161.4H527.9V176Z" class="g0_69"/>
<path fill-rule="evenodd" d="M527.9,190.7H768.1V176H527.9v14.7Z" class="g0_69"/>
<path fill-rule="evenodd" d="M546.6,205.4H768.1V190.7H546.6v14.7Z" class="g0_69"/>
<path fill-rule="evenodd" d="M546.6,220H768.1V205.4H546.6V220Z" class="g0_69"/>
<path fill-rule="evenodd" d="M527.9,234.7H768.1V220H527.9v14.7Z" class="g0_69"/>
<path fill-rule="evenodd" d="M527.9,249.4H768.1V234.7H527.9v14.7Z" class="g0_69"/>
<path fill-rule="evenodd" d="M527.9,264H768.1V249.4H527.9V264Z" class="g0_69"/>
<path fill-rule="evenodd" d="M527.9,278.7H768.1V264H527.9v14.7Z" class="g0_69"/>
<path fill-rule="evenodd" d="M527.9,293.4H767.8V278.7H527.9v14.7Z" class="g0_69"/>
<path fill-rule="evenodd" d="M527.9,308H767.8V293.4H527.9V308Z" class="g0_69"/>
<path fill-rule="evenodd" d="M527.9,322.7H767.8V308H527.9v14.7Z" class="g0_69"/>
<path fill-rule="evenodd" d="M527.9,337.4H767.8V322.7H527.9v14.7Z" class="g0_69"/>
<path fill-rule="evenodd" d="M528.3,352H768.1V337.4H528.3V352Z" class="g0_69"/>
<path fill-rule="evenodd" d="M528.3,366.7H768.1V352H528.3v14.7Z" class="g0_69"/>
<path fill-rule="evenodd" d="M527.9,381.4H767.8V366.7H527.9v14.7Z" class="g0_69"/>
<path fill-rule="evenodd" d="M527.9,396.1H767.8V381.4H527.9v14.7Z" class="g0_69"/>
<path fill-rule="evenodd" d="M527.9,410.7H767.8V396.1H527.9v14.6Z" class="g0_69"/>
<path fill-rule="evenodd" d="M527.9,425.4H767.8V410.7H527.9v14.7Z" class="g0_69"/>
<path fill-rule="evenodd" d="M527.9,440.1H768.1V425.4H527.9v14.7Z" class="g0_69"/>
<path fill-rule="evenodd" d="M527.6,455.3H767V440.4H527.6v14.9Z" class="g0_69"/>
<path fill-rule="evenodd" d="M527.6,470H767V455.3H527.6V470Z" class="g0_69"/>
<path fill-rule="evenodd" d="M527.2,484.6H767V470H527.2v14.6Z" class="g0_69"/>
<path fill-rule="evenodd" d="M527.2,499.3H767V484.6H527.2v14.7Z" class="g0_69"/>
<path fill-rule="evenodd" d="M527.2,514H766.7V499.3H527.2V514Z" class="g0_69"/>
<path fill-rule="evenodd" d="M527.2,528.6H766.7V514H527.2v14.6Z" class="g0_69"/>
<path fill-rule="evenodd" d="M527.2,543.3H766.7V528.6H527.2v14.7Z" class="g0_69"/>
<path fill-rule="evenodd" d="M545.2,558.3H768.1V543.7H545.2v14.6Z" class="g0_69"/>
<path fill-rule="evenodd" d="M527.2,573H767V558.3H527.2V573Z" class="g0_69"/>
<path fill-rule="evenodd" d="M527.2,587.7H767V573H527.2v14.7Z" class="g0_69"/>
<path fill-rule="evenodd" d="M527.2,602.4H767V587.7H527.2v14.7Z" class="g0_69"/>
<path fill-rule="evenodd" d="M527.2,617H766.7V602.4H527.2V617Z" class="g0_69"/>
<path fill-rule="evenodd" d="M527.2,631.7H766.7V617H527.2v14.7Z" class="g0_69"/>
<path fill-rule="evenodd" d="M526.8,646.7H766.7V632.1H526.8v14.6Z" class="g0_69"/>
<path fill-rule="evenodd" d="M526.8,661.4H766.7V646.7H526.8v14.7Z" class="g0_69"/>
<path fill-rule="evenodd" d="M526.8,676.1H766.7V661.4H526.8v14.7Z" class="g0_69"/>
<path fill-rule="evenodd" d="M527.2,690.7H766.7V676.1H527.2v14.6Z" class="g0_69"/>
<path fill-rule="evenodd" d="M527.2,705.4H766.7V690.7H527.2v14.7Z" class="g0_69"/>
<path fill-rule="evenodd" d="M527.2,720.1H766.3V705.4H527.2v14.7Z" class="g0_69"/>
<path fill-rule="evenodd" d="M527.2,734.7H766.3V720.1H527.2v14.6Z" class="g0_69"/>
<path fill-rule="evenodd" d="M545.5,749.4H768.1V734.7H545.5v14.7Z" class="g0_69"/>
<path fill-rule="evenodd" d="M527.2,764.1H766.3V749.4H527.2v14.7Z" class="g0_69"/>
<path fill-rule="evenodd" d="M527.2,778.7H766.3V764.1H527.2v14.6Z" class="g0_69"/>
<path fill-rule="evenodd" d="M527.2,793.4H766.7V778.7H527.2v14.7Z" class="g0_69"/>
<path fill-rule="evenodd" d="M527.2,808.1H766.7V793.4H527.2v14.7Z" class="g0_69"/>
<path fill-rule="evenodd" d="M527.2,822.7H766.7V808.1H527.2v14.6Z" class="g0_69"/>
<path fill-rule="evenodd" d="M545.2,837.4H768.1V822.7H545.2v14.7Z" class="g0_69"/>
<path fill-rule="evenodd" d="M526.8,852.1H767V837.4H526.8v14.7Z" class="g0_69"/>
<path fill-rule="evenodd" d="M526.8,866.8H767V852.1H526.8v14.7Z" class="g0_69"/>
<path fill-rule="evenodd" d="M526.8,881.4H767V866.8H526.8v14.6Z" class="g0_69"/>
<path fill-rule="evenodd" d="M526.8,896.1H767V881.4H526.8v14.7Z" class="g0_69"/>
<path d="M206.3,87.2v293m3.2,-293v879m3,-879V960.7M196.3,142.3v92.1m11.8,151.1V965.2M516.5,147.4V915.6" class="g1_69"/>
</svg>