<?xml version="1.0" encoding="UTF-8" standalone="no"?>
<!DOCTYPE svg PUBLIC "-//W3C//DTD SVG 1.1//EN"
"http://www.w3.org/Graphics/SVG/1.1/DTD/svg11.dtd">
<svg viewBox="0 0 909 1285" version="1.1" xmlns="http://www.w3.org/2000/svg" xmlns:xlink="http://www.w3.org/1999/xlink">
<defs>
<style type="text/css"><![CDATA[
.g0_325{
fill: #FFFFFF;
}
.g1_325{
fill: none;
stroke: #000000;
stroke-width: 0.763;
stroke-linecap: butt;
stroke-linejoin: round;
}
.g2_325{
fill: none;
stroke: #000000;
stroke-width: 0.381;
stroke-linecap: butt;
stroke-linejoin: round;
}
]]></style>
</defs>
<path fill-rule="evenodd" d="M270.9,131.1H771.4V110H270.9v21.1Z" class="g0_325"/>
<path fill-rule="evenodd" d="M270.9,166.3H511.1V149.8H270.9v16.5Z" class="g0_325"/>
<path fill-rule="evenodd" d="M270.9,182.8H511.1V166.3H270.9v16.5Z" class="g0_325"/>
<path fill-rule="evenodd" d="M270.9,197.5H511.8V182.8H270.9v14.7Z" class="g0_325"/>
<path fill-rule="evenodd" d="M270.9,212.1H511.8V197.5H270.9v14.6Z" class="g0_325"/>
<path fill-rule="evenodd" d="M270.9,226.8H511.8V212.1H270.9v14.7Z" class="g0_325"/>
<path fill-rule="evenodd" d="M270.5,241.5H511.1V226.8H270.5v14.7Z" class="g0_325"/>
<path fill-rule="evenodd" d="M270.5,256.1H511.1V241.5H270.5v14.6Z" class="g0_325"/>
<path fill-rule="evenodd" d="M270.5,270.8H511.4V256.1H270.5v14.7Z" class="g0_325"/>
<path fill-rule="evenodd" d="M270.5,285.5H511.4V270.8H270.5v14.7Z" class="g0_325"/>
<path fill-rule="evenodd" d="M270.5,300.1H511.4V285.5H270.5v14.6Z" class="g0_325"/>
<path fill-rule="evenodd" d="M270.5,314.8H511.4V300.1H270.5v14.7Z" class="g0_325"/>
<path fill-rule="evenodd" d="M270.5,329.5H511.4V314.8H270.5v14.7Z" class="g0_325"/>
<path fill-rule="evenodd" d="M270.5,344.1H511.4V329.5H270.5v14.6Z" class="g0_325"/>
<path fill-rule="evenodd" d="M270.5,358.9H511.4V344.2H270.5v14.7Z" class="g0_325"/>
<path fill-rule="evenodd" d="M270.5,374.3H511.4V358.9H270.5v15.4Z" class="g0_325"/>
<path fill-rule="evenodd" d="M270.5,388.9H511.4V374.3H270.5v14.6Z" class="g0_325"/>
<path fill-rule="evenodd" d="M270.5,403.6H511.4V388.9H270.5v14.7Z" class="g0_325"/>
<path fill-rule="evenodd" d="M270.5,418.3H511.4V403.6H270.5v14.7Z" class="g0_325"/>
<path fill-rule="evenodd" d="M270.5,432.9H511.4V418.3H270.5v14.6Z" class="g0_325"/>
<path fill-rule="evenodd" d="M270.9,448H510.7V433.3H270.9V448Z" class="g0_325"/>
<path fill-rule="evenodd" d="M270.9,462.6H510.7V448H270.9v14.6Z" class="g0_325"/>
<path fill-rule="evenodd" d="M288.8,477.7h223V463h-223v14.7Z" class="g0_325"/>
<path fill-rule="evenodd" d="M270.1,492.3h241V477.7h-241v14.6Z" class="g0_325"/>
<path fill-rule="evenodd" d="M270.1,507h241V492.3h-241V507Z" class="g0_325"/>
<path fill-rule="evenodd" d="M270.1,521.7h241V507h-241v14.7Z" class="g0_325"/>
<path fill-rule="evenodd" d="M270.1,536.3h241V521.7h-241v14.6Z" class="g0_325"/>
<path fill-rule="evenodd" d="M270.5,551.5H510.7V536.7H270.5v14.8Z" class="g0_325"/>
<path fill-rule="evenodd" d="M270.5,566.2H510.7V551.5H270.5v14.7Z" class="g0_325"/>
<path fill-rule="evenodd" d="M270.5,580.9H510.7V566.2H270.5v14.7Z" class="g0_325"/>
<path fill-rule="evenodd" d="M270.1,595.6H510.3V580.9H270.1v14.7Z" class="g0_325"/>
<path fill-rule="evenodd" d="M270.1,610.2H510.3V595.6H270.1v14.6Z" class="g0_325"/>
<path fill-rule="evenodd" d="M270.1,624.9H510.3V610.2H270.1v14.7Z" class="g0_325"/>
<path fill-rule="evenodd" d="M270.1,639.6H510.3V624.9H270.1v14.7Z" class="g0_325"/>
<path fill-rule="evenodd" d="M270.1,654.6H510.3v-15H270.1v15Z" class="g0_325"/>
<path fill-rule="evenodd" d="M270.1,669.3H510.3V654.6H270.1v14.7Z" class="g0_325"/>
<path fill-rule="evenodd" d="M270.1,683.9H510.3V669.3H270.1v14.6Z" class="g0_325"/>
<path fill-rule="evenodd" d="M270.1,698.6H510.3V683.9H270.1v14.7Z" class="g0_325"/>
<path fill-rule="evenodd" d="M270.9,713.3H510V698.6H270.9v14.7Z" class="g0_325"/>
<path fill-rule="evenodd" d="M270.9,727.9H510V713.3H270.9v14.6Z" class="g0_325"/>
<path fill-rule="evenodd" d="M270.1,742.6H510.3V727.9H270.1v14.7Z" class="g0_325"/>
<path fill-rule="evenodd" d="M270.1,757.3H510.3V742.6H270.1v14.7Z" class="g0_325"/>
<path fill-rule="evenodd" d="M270.1,771.9H510.3V757.3H270.1v14.6Z" class="g0_325"/>
<path fill-rule="evenodd" d="M270.1,786.6H510.3V771.9H270.1v14.7Z" class="g0_325"/>
<path fill-rule="evenodd" d="M270.1,801.3H510.3V786.6H270.1v14.7Z" class="g0_325"/>
<path fill-rule="evenodd" d="M270.1,816.3H510.3v-15H270.1v15Z" class="g0_325"/>
<path fill-rule="evenodd" d="M270.1,831H510.3V816.3H270.1V831Z" class="g0_325"/>
<path fill-rule="evenodd" d="M270.1,845.7H510.3V831H270.1v14.7Z" class="g0_325"/>
<path fill-rule="evenodd" d="M270.1,860.4H510.3V845.7H270.1v14.7Z" class="g0_325"/>
<path fill-rule="evenodd" d="M270.1,875H510.3V860.4H270.1V875Z" class="g0_325"/>
<path fill-rule="evenodd" d="M270.1,889.7H510V875H270.1v14.7Z" class="g0_325"/>
<path fill-rule="evenodd" d="M270.1,904.4H510V889.7H270.1v14.7Z" class="g0_325"/>
<path fill-rule="evenodd" d="M271.6,919H511.4V904.4H271.6V919Z" class="g0_325"/>
<path fill-rule="evenodd" d="M532,165.9H771.1V151.3H532v14.6Z" class="g0_325"/>
<path fill-rule="evenodd" d="M532,180.6H771.1V165.9H532v14.7Z" class="g0_325"/>
<path fill-rule="evenodd" d="M532,195.3H771.1V180.6H532v14.7Z" class="g0_325"/>
<path fill-rule="evenodd" d="M531.2,210.3H770.7V195.6H531.2v14.7Z" class="g0_325"/>
<path fill-rule="evenodd" d="M531.2,225H770.7V210.3H531.2V225Z" class="g0_325"/>
<path fill-rule="evenodd" d="M531.2,239.6H770.7V225H531.2v14.6Z" class="g0_325"/>
<path fill-rule="evenodd" d="M531.2,254.3H770.7V239.6H531.2v14.7Z" class="g0_325"/>
<path fill-rule="evenodd" d="M531.2,269H770.7V254.3H531.2V269Z" class="g0_325"/>
<path fill-rule="evenodd" d="M531.2,283.6H770.7V269H531.2v14.6Z" class="g0_325"/>
<path fill-rule="evenodd" d="M532,298.3H771.1V283.6H532v14.7Z" class="g0_325"/>
<path fill-rule="evenodd" d="M532,313H771.1V298.3H532V313Z" class="g0_325"/>
<path fill-rule="evenodd" d="M532,327.6H771.1V313H532v14.6Z" class="g0_325"/>
<path fill-rule="evenodd" d="M532,342.3H771.1V327.6H532v14.7Z" class="g0_325"/>
<path fill-rule="evenodd" d="M531.6,357H771.1V342.3H531.6V357Z" class="g0_325"/>
<path fill-rule="evenodd" d="M531.6,371.7H771.1V357H531.6v14.7Z" class="g0_325"/>
<path fill-rule="evenodd" d="M531.6,386.4H771.1V371.7H531.6v14.7Z" class="g0_325"/>
<path fill-rule="evenodd" d="M532,401.4H770.7V386.7H532v14.7Z" class="g0_325"/>
<path fill-rule="evenodd" d="M532,416.1H770.7V401.4H532v14.7Z" class="g0_325"/>
<path fill-rule="evenodd" d="M531.6,431.1H771.1V416.4H531.6v14.7Z" class="g0_325"/>
<path fill-rule="evenodd" d="M531.6,445.8H771.1V431.1H531.6v14.7Z" class="g0_325"/>
<path fill-rule="evenodd" d="M531.6,460.4H771.1V445.8H531.6v14.6Z" class="g0_325"/>
<path fill-rule="evenodd" d="M531.2,475.5H771.1V460.8H531.2v14.7Z" class="g0_325"/>
<path fill-rule="evenodd" d="M531.2,490.1H771.1V475.5H531.2v14.6Z" class="g0_325"/>
<path fill-rule="evenodd" d="M530.9,505.2H771.1V490.5H530.9v14.7Z" class="g0_325"/>
<path fill-rule="evenodd" d="M530.9,519.8H771.1V505.2H530.9v14.6Z" class="g0_325"/>
<path fill-rule="evenodd" d="M530.9,534.5H771.1V519.8H530.9v14.7Z" class="g0_325"/>
<path fill-rule="evenodd" d="M530.9,549.2H771.1V534.5H530.9v14.7Z" class="g0_325"/>
<path fill-rule="evenodd" d="M530.9,563.8H771.1V549.2H530.9v14.6Z" class="g0_325"/>
<path fill-rule="evenodd" d="M530.9,578.5H770.7V563.8H530.9v14.7Z" class="g0_325"/>
<path fill-rule="evenodd" d="M530.9,593.2H770.7V578.5H530.9v14.7Z" class="g0_325"/>
<path fill-rule="evenodd" d="M530.9,607.9H770.7V593.2H530.9v14.7Z" class="g0_325"/>
<path fill-rule="evenodd" d="M531.2,622.5H770.3V607.9H531.2v14.6Z" class="g0_325"/>
<path fill-rule="evenodd" d="M531.2,637.2H770.3V622.5H531.2v14.7Z" class="g0_325"/>
<path fill-rule="evenodd" d="M530.9,652.8H770.3V637.9H530.9v14.9Z" class="g0_325"/>
<path fill-rule="evenodd" d="M530.9,667.4H770.3V652.8H530.9v14.6Z" class="g0_325"/>
<path fill-rule="evenodd" d="M530.9,682.1H770.3V667.4H530.9v14.7Z" class="g0_325"/>
<path fill-rule="evenodd" d="M530.5,696.8H770.3V682.1H530.5v14.7Z" class="g0_325"/>
<path fill-rule="evenodd" d="M530.5,711.4H770.3V696.8H530.5v14.6Z" class="g0_325"/>
<path fill-rule="evenodd" d="M531.2,726.1H771.4V711.4H531.2v14.7Z" class="g0_325"/>
<path fill-rule="evenodd" d="M531.2,740.8H771.4V726.1H531.2v14.7Z" class="g0_325"/>
<path fill-rule="evenodd" d="M531.2,755.4H771.4V740.8H531.2v14.6Z" class="g0_325"/>
<path fill-rule="evenodd" d="M549.6,770.1H771.4V755.4H549.6v14.7Z" class="g0_325"/>
<path fill-rule="evenodd" d="M530.9,784.8H771.1V770.1H530.9v14.7Z" class="g0_325"/>
<path fill-rule="evenodd" d="M530.9,799.4H771.1V784.8H530.9v14.6Z" class="g0_325"/>
<path fill-rule="evenodd" d="M530.9,814.1H771.1V799.4H530.9v14.7Z" class="g0_325"/>
<path fill-rule="evenodd" d="M531.2,829.1H770.3V814.5H531.2v14.6Z" class="g0_325"/>
<path fill-rule="evenodd" d="M531.2,843.9H770.3V829.1H531.2v14.8Z" class="g0_325"/>
<path fill-rule="evenodd" d="M530.9,858.5H770.7V843.9H530.9v14.6Z" class="g0_325"/>
<path fill-rule="evenodd" d="M530.9,873.2H770.7V858.5H530.9v14.7Z" class="g0_325"/>
<path fill-rule="evenodd" d="M507.4,935.7h264V916.5h-264v19.2Z" class="g0_325"/>
<path d="M198.5,101.2V370" class="g1_325"/>
<path d="M204.4,108.9V296.7m2.2,148.6V832.2M520.5,151.6V921.3" class="g2_325"/>
</svg>