<?xml version="1.0" encoding="UTF-8" standalone="no"?>
<!DOCTYPE svg PUBLIC "-//W3C//DTD SVG 1.1//EN"
"http://www.w3.org/Graphics/SVG/1.1/DTD/svg11.dtd">
<svg viewBox="0 0 909 1285" version="1.1" xmlns="http://www.w3.org/2000/svg" xmlns:xlink="http://www.w3.org/1999/xlink">
<defs>
<style type="text/css"><![CDATA[
.g0_210{
fill: #FFFFFF;
}
.g1_210{
fill: none;
stroke: #000000;
stroke-width: 2.902;
stroke-linecap: butt;
stroke-linejoin: round;
}
.g2_210{
fill: none;
stroke: #000000;
stroke-width: 0.381;
stroke-linecap: butt;
stroke-linejoin: round;
}
]]></style>
</defs>
<path fill-rule="evenodd" d="M152.6,127.6H414.4V110H152.6v17.6Z" class="g0_210"/>
<path fill-rule="evenodd" d="M174.6,142.3H414V127.6H174.6v14.7Z" class="g0_210"/>
<path fill-rule="evenodd" d="M174.6,157H414V142.3H174.6V157Z" class="g0_210"/>
<path fill-rule="evenodd" d="M174.6,171.6H414V157H174.6v14.6Z" class="g0_210"/>
<path fill-rule="evenodd" d="M173.5,186.7H414.4V172H173.5v14.7Z" class="g0_210"/>
<path fill-rule="evenodd" d="M173.5,201.3H414.4V186.7H173.5v14.6Z" class="g0_210"/>
<path fill-rule="evenodd" d="M173.5,216H414.4V201.3H173.5V216Z" class="g0_210"/>
<path fill-rule="evenodd" d="M173.5,230.7H414.4V216H173.5v14.7Z" class="g0_210"/>
<path fill-rule="evenodd" d="M173.5,245.3H414.4V230.7H173.5v14.6Z" class="g0_210"/>
<path fill-rule="evenodd" d="M173.5,260H414.4V245.3H173.5V260Z" class="g0_210"/>
<path fill-rule="evenodd" d="M173.5,274.7H414.4V260H173.5v14.7Z" class="g0_210"/>
<path fill-rule="evenodd" d="M174.2,289.3H414V274.7H174.2v14.6Z" class="g0_210"/>
<path fill-rule="evenodd" d="M174.2,304H414V289.3H174.2V304Z" class="g0_210"/>
<path fill-rule="evenodd" d="M174.2,318.7H414V304H174.2v14.7Z" class="g0_210"/>
<path fill-rule="evenodd" d="M174.6,333.3H413.3V318.7H174.6v14.6Z" class="g0_210"/>
<path fill-rule="evenodd" d="M174.6,348H413.3V333.3H174.6V348Z" class="g0_210"/>
<path fill-rule="evenodd" d="M174.6,362.7H413.3V348H174.6v14.7Z" class="g0_210"/>
<path fill-rule="evenodd" d="M174.6,377.4H413.3V362.7H174.6v14.7Z" class="g0_210"/>
<path fill-rule="evenodd" d="M174.2,392H413.7V377.4H174.2V392Z" class="g0_210"/>
<path fill-rule="evenodd" d="M174.2,406.7H413.7V392H174.2v14.7Z" class="g0_210"/>
<path fill-rule="evenodd" d="M174.2,421.4H413.7V406.7H174.2v14.7Z" class="g0_210"/>
<path fill-rule="evenodd" d="M174.2,436H413.7V421.4H174.2V436Z" class="g0_210"/>
<path fill-rule="evenodd" d="M174.2,450.7H413.7V436H174.2v14.7Z" class="g0_210"/>
<path fill-rule="evenodd" d="M173.5,465.4H412.9V450.7H173.5v14.7Z" class="g0_210"/>
<path fill-rule="evenodd" d="M173.5,480H412.9V465.4H173.5V480Z" class="g0_210"/>
<path fill-rule="evenodd" d="M174.2,494.7H412.6V480H174.2v14.7Z" class="g0_210"/>
<path fill-rule="evenodd" d="M174.2,509.4H412.6V494.7H174.2v14.7Z" class="g0_210"/>
<path fill-rule="evenodd" d="M173.5,524H412.9V509.4H173.5V524Z" class="g0_210"/>
<path fill-rule="evenodd" d="M173.5,538.7H412.9V524H173.5v14.7Z" class="g0_210"/>
<path fill-rule="evenodd" d="M173.1,553.7H412.9V539.1H173.1v14.6Z" class="g0_210"/>
<path fill-rule="evenodd" d="M173.1,568.4H412.9V553.7H173.1v14.7Z" class="g0_210"/>
<path fill-rule="evenodd" d="M173.1,583.1H412.9V568.4H173.1v14.7Z" class="g0_210"/>
<path fill-rule="evenodd" d="M172.7,597.8H412.6V583.1H172.7v14.7Z" class="g0_210"/>
<path fill-rule="evenodd" d="M172.7,612.4H412.6V597.8H172.7v14.6Z" class="g0_210"/>
<path fill-rule="evenodd" d="M172.7,627.1H412.6V612.4H172.7v14.7Z" class="g0_210"/>
<path fill-rule="evenodd" d="M172.7,641.8H412.6V627.1H172.7v14.7Z" class="g0_210"/>
<path fill-rule="evenodd" d="M172.7,656.4H412.6V641.8H172.7v14.6Z" class="g0_210"/>
<path fill-rule="evenodd" d="M172.7,671.5H412.6V656.4H172.7v15.1Z" class="g0_210"/>
<path fill-rule="evenodd" d="M172.7,686.1H412.6V671.5H172.7v14.6Z" class="g0_210"/>
<path fill-rule="evenodd" d="M172.7,700.8H412.6V686.1H172.7v14.7Z" class="g0_210"/>
<path fill-rule="evenodd" d="M172.7,715.5H412.6V700.8H172.7v14.7Z" class="g0_210"/>
<path fill-rule="evenodd" d="M172.7,730.1H412.6V715.5H172.7v14.6Z" class="g0_210"/>
<path fill-rule="evenodd" d="M172.7,744.8H412.2V730.1H172.7v14.7Z" class="g0_210"/>
<path fill-rule="evenodd" d="M172.7,759.5H412.2V744.8H172.7v14.7Z" class="g0_210"/>
<path fill-rule="evenodd" d="M172.7,774.1H412.2V759.5H172.7v14.6Z" class="g0_210"/>
<path fill-rule="evenodd" d="M191.1,788.8H414.4V774.1H191.1v14.7Z" class="g0_210"/>
<path fill-rule="evenodd" d="M172.7,803.5H411.8V788.8H172.7v14.7Z" class="g0_210"/>
<path fill-rule="evenodd" d="M172.7,818.1H411.8V803.5H172.7v14.6Z" class="g0_210"/>
<path fill-rule="evenodd" d="M172.7,833.6H411.8V818.1H172.7v15.5Z" class="g0_210"/>
<path fill-rule="evenodd" d="M172.7,848.3H411.8V833.6H172.7v14.7Z" class="g0_210"/>
<path fill-rule="evenodd" d="M190.7,863.3H414.4V848.6H190.7v14.7Z" class="g0_210"/>
<path fill-rule="evenodd" d="M152.6,880.9H414.4V863.3H152.6v17.6Z" class="g0_210"/>
<path fill-rule="evenodd" d="M432.7,153.1H674.8V132H432.7v21.1Z" class="g0_210"/>
<path fill-rule="evenodd" d="M452.6,187.6H674.8V172.9H452.6v14.7Z" class="g0_210"/>
<path fill-rule="evenodd" d="M434.2,202.6H674.5V187.9H434.2v14.7Z" class="g0_210"/>
<path fill-rule="evenodd" d="M434.2,217.3H674.5V202.6H434.2v14.7Z" class="g0_210"/>
<path fill-rule="evenodd" d="M434.2,231.9H674.5V217.3H434.2v14.6Z" class="g0_210"/>
<path fill-rule="evenodd" d="M434.2,246.6H674.5V231.9H434.2v14.7Z" class="g0_210"/>
<path fill-rule="evenodd" d="M434.2,261.3H674.5V246.6H434.2v14.7Z" class="g0_210"/>
<path fill-rule="evenodd" d="M434.6,275.9H674.1V261.3H434.6v14.6Z" class="g0_210"/>
<path fill-rule="evenodd" d="M434.6,290.6H674.1V275.9H434.6v14.7Z" class="g0_210"/>
<path fill-rule="evenodd" d="M434.6,305.3H674.1V290.6H434.6v14.7Z" class="g0_210"/>
<path fill-rule="evenodd" d="M452.9,319.9H674.8V305.3H452.9v14.6Z" class="g0_210"/>
<path fill-rule="evenodd" d="M434.6,334.6H674.8V319.9H434.6v14.7Z" class="g0_210"/>
<path fill-rule="evenodd" d="M434.6,349.3H674.8V334.6H434.6v14.7Z" class="g0_210"/>
<path fill-rule="evenodd" d="M452.6,364H674.8V349.3H452.6V364Z" class="g0_210"/>
<path fill-rule="evenodd" d="M433.8,379.4H674.5V364.7H433.8v14.7Z" class="g0_210"/>
<path fill-rule="evenodd" d="M433.8,394.1H674.5V379.4H433.8v14.7Z" class="g0_210"/>
<path fill-rule="evenodd" d="M433.8,408.7H674.5V394.1H433.8v14.6Z" class="g0_210"/>
<path fill-rule="evenodd" d="M433.8,423.4H674.5V408.7H433.8v14.7Z" class="g0_210"/>
<path fill-rule="evenodd" d="M434.2,438.4H674.1V423.8H434.2v14.6Z" class="g0_210"/>
<path fill-rule="evenodd" d="M434.2,453.1H674.1V438.4H434.2v14.7Z" class="g0_210"/>
<path fill-rule="evenodd" d="M432.7,467.8H674.8V453.1H432.7v14.7Z" class="g0_210"/>
<path fill-rule="evenodd" d="M432.7,482.4H674.8V467.8H432.7v14.6Z" class="g0_210"/>
<path fill-rule="evenodd" d="M432.7,497.1H674.8V482.4H432.7v14.7Z" class="g0_210"/>
<path fill-rule="evenodd" d="M432.7,511.8H674.8V497.1H432.7v14.7Z" class="g0_210"/>
<path fill-rule="evenodd" d="M432.7,526.4H674.8V511.8H432.7v14.6Z" class="g0_210"/>
<path fill-rule="evenodd" d="M432.7,541.1H674.8V526.4H432.7v14.7Z" class="g0_210"/>
<path fill-rule="evenodd" d="M432.7,555.8H674.8V541.1H432.7v14.7Z" class="g0_210"/>
<path fill-rule="evenodd" d="M432.7,570.4H674.8V555.8H432.7v14.6Z" class="g0_210"/>
<path fill-rule="evenodd" d="M432.7,585.1H674.8V570.4H432.7v14.7Z" class="g0_210"/>
<path fill-rule="evenodd" d="M432.7,599.8H674.8V585.1H432.7v14.7Z" class="g0_210"/>
<path fill-rule="evenodd" d="M432.7,614.5H674.8V599.8H432.7v14.7Z" class="g0_210"/>
<path fill-rule="evenodd" d="M432.7,629.1H674.8V614.5H432.7v14.6Z" class="g0_210"/>
<path fill-rule="evenodd" d="M432.7,643.8H674.8V629.1H432.7v14.7Z" class="g0_210"/>
<path fill-rule="evenodd" d="M432.7,658.5H674.8V643.8H432.7v14.7Z" class="g0_210"/>
<path fill-rule="evenodd" d="M432.7,673.1H674.8V658.5H432.7v14.6Z" class="g0_210"/>
<path fill-rule="evenodd" d="M432.7,687.8H674.8V673.1H432.7v14.7Z" class="g0_210"/>
<path fill-rule="evenodd" d="M432.7,702.5H674.8V687.8H432.7v14.7Z" class="g0_210"/>
<path fill-rule="evenodd" d="M432.7,717.1H674.8V702.5H432.7v14.6Z" class="g0_210"/>
<path fill-rule="evenodd" d="M432.7,731.8H674.8V717.1H432.7v14.7Z" class="g0_210"/>
<path fill-rule="evenodd" d="M432.7,746.5H674.8V731.8H432.7v14.7Z" class="g0_210"/>
<path fill-rule="evenodd" d="M432.7,761.1H674.8V746.5H432.7v14.6Z" class="g0_210"/>
<path fill-rule="evenodd" d="M432.7,775.8H674.8V761.1H432.7v14.7Z" class="g0_210"/>
<path fill-rule="evenodd" d="M432.7,790.5H674.8V775.8H432.7v14.7Z" class="g0_210"/>
<path fill-rule="evenodd" d="M432.7,805.5H673V790.8H432.7v14.7Z" class="g0_210"/>
<path fill-rule="evenodd" d="M432.7,820.2H673V805.5H432.7v14.7Z" class="g0_210"/>
<path fill-rule="evenodd" d="M432.7,834.9H673V820.2H432.7v14.7Z" class="g0_210"/>
<path fill-rule="evenodd" d="M432.7,849.9H673.4V835.2H432.7v14.7Z" class="g0_210"/>
<path fill-rule="evenodd" d="M432.7,864.6H673.4V849.9H432.7v14.7Z" class="g0_210"/>
<path fill-rule="evenodd" d="M432.7,879.2H673.4V864.6H432.7v14.6Z" class="g0_210"/>
<path fill-rule="evenodd" d="M432.7,893.9H673.4V879.2H432.7v14.7Z" class="g0_210"/>
<path fill-rule="evenodd" d="M179.3,922h142V906.2h-142V922Z" class="g0_210"/>
<path fill-rule="evenodd" d="M179.3,939.6h142V922h-142v17.6Z" class="g0_210"/>
<path fill-rule="evenodd" d="M408.5,926.5H468V909.1H408.5v17.4Z" class="g0_210"/>
<path d="M152.5,542.7V837.5" class="g1_210"/>
<path d="M421.7,173.8V940.9" class="g2_210"/>
</svg>