<?xml version="1.0" encoding="UTF-8" standalone="no"?>
<!DOCTYPE svg PUBLIC "-//W3C//DTD SVG 1.1//EN"
"http://www.w3.org/Graphics/SVG/1.1/DTD/svg11.dtd">
<svg viewBox="0 0 909 1285" version="1.1" xmlns="http://www.w3.org/2000/svg" xmlns:xlink="http://www.w3.org/1999/xlink">
<defs>
<style type="text/css"><![CDATA[
.g0_105{
fill: #FFFFFF;
}
.g1_105{
fill: none;
stroke: #000000;
stroke-width: 0.381;
stroke-linecap: butt;
stroke-linejoin: round;
}
]]></style>
</defs>
<path fill-rule="evenodd" d="M262.4,125.8H762.3V110H262.4v15.8Z" class="g0_105"/>
<path fill-rule="evenodd" d="M262,161.4H501.5V146.7H262v14.7Z" class="g0_105"/>
<path fill-rule="evenodd" d="M262,176H501.5V161.4H262V176Z" class="g0_105"/>
<path fill-rule="evenodd" d="M262,190.7H501.5V176H262v14.7Z" class="g0_105"/>
<path fill-rule="evenodd" d="M262,205.7H501.2V191.1H262v14.6Z" class="g0_105"/>
<path fill-rule="evenodd" d="M262,220.4H501.2V205.7H262v14.7Z" class="g0_105"/>
<path fill-rule="evenodd" d="M262,235.1H501.2V220.4H262v14.7Z" class="g0_105"/>
<path fill-rule="evenodd" d="M262,249.7H501.2V235.1H262v14.6Z" class="g0_105"/>
<path fill-rule="evenodd" d="M262,264.4H501.2V249.7H262v14.7Z" class="g0_105"/>
<path fill-rule="evenodd" d="M262,279.1H501.2V264.4H262v14.7Z" class="g0_105"/>
<path fill-rule="evenodd" d="M262,293.9H501.2V279.1H262v14.8Z" class="g0_105"/>
<path fill-rule="evenodd" d="M262,308.6H501.2V293.9H262v14.7Z" class="g0_105"/>
<path fill-rule="evenodd" d="M262,323.2H501.2V308.6H262v14.6Z" class="g0_105"/>
<path fill-rule="evenodd" d="M262,337.9H501.2V323.2H262v14.7Z" class="g0_105"/>
<path fill-rule="evenodd" d="M261.6,352.6H501.2V337.9H261.6v14.7Z" class="g0_105"/>
<path fill-rule="evenodd" d="M261.6,367.3H501.2V352.6H261.6v14.7Z" class="g0_105"/>
<path fill-rule="evenodd" d="M261.6,382H501.2V367.3H261.6V382Z" class="g0_105"/>
<path fill-rule="evenodd" d="M260.9,396.6H501.2V382H260.9v14.6Z" class="g0_105"/>
<path fill-rule="evenodd" d="M260.9,411.3H501.2V396.6H260.9v14.7Z" class="g0_105"/>
<path fill-rule="evenodd" d="M260.9,426H501.2V411.3H260.9V426Z" class="g0_105"/>
<path fill-rule="evenodd" d="M260.9,440.6H501.2V426H260.9v14.6Z" class="g0_105"/>
<path fill-rule="evenodd" d="M260.9,455.3H501.2V440.6H260.9v14.7Z" class="g0_105"/>
<path fill-rule="evenodd" d="M260.9,470H501.2V455.3H260.9V470Z" class="g0_105"/>
<path fill-rule="evenodd" d="M260.9,484.6H501.2V470H260.9v14.6Z" class="g0_105"/>
<path fill-rule="evenodd" d="M260.9,500H500.8V485.4H260.9V500Z" class="g0_105"/>
<path fill-rule="evenodd" d="M260.9,514.7H500.8V500H260.9v14.7Z" class="g0_105"/>
<path fill-rule="evenodd" d="M260.9,529.4H500.8V514.7H260.9v14.7Z" class="g0_105"/>
<path fill-rule="evenodd" d="M261.6,544.4H501.5V529.7H261.6v14.7Z" class="g0_105"/>
<path fill-rule="evenodd" d="M261.3,559.1H501.5V544.4H261.3v14.7Z" class="g0_105"/>
<path fill-rule="evenodd" d="M261.3,573.7H501.5V559.1H261.3v14.6Z" class="g0_105"/>
<path fill-rule="evenodd" d="M261.3,588.8H500.8V574.1H261.3v14.7Z" class="g0_105"/>
<path fill-rule="evenodd" d="M261.3,603.5H500.8V588.8H261.3v14.7Z" class="g0_105"/>
<path fill-rule="evenodd" d="M261.3,618.1H500.8V603.5H261.3v14.6Z" class="g0_105"/>
<path fill-rule="evenodd" d="M260.9,632.8H500.8V618.1H260.9v14.7Z" class="g0_105"/>
<path fill-rule="evenodd" d="M260.9,647.5H500.8V632.8H260.9v14.7Z" class="g0_105"/>
<path fill-rule="evenodd" d="M260.9,662.1H500.8V647.5H260.9v14.6Z" class="g0_105"/>
<path fill-rule="evenodd" d="M260.9,676.8H500.8V662.1H260.9v14.7Z" class="g0_105"/>
<path fill-rule="evenodd" d="M261.3,691.5H501.2V676.8H261.3v14.7Z" class="g0_105"/>
<path fill-rule="evenodd" d="M261.3,706.1H501.2V691.5H261.3v14.6Z" class="g0_105"/>
<path fill-rule="evenodd" d="M261.3,720.8H501.2V706.1H261.3v14.7Z" class="g0_105"/>
<path fill-rule="evenodd" d="M261.3,735.5H501.2V720.8H261.3v14.7Z" class="g0_105"/>
<path fill-rule="evenodd" d="M260.9,750.1H501.2V735.5H260.9v14.6Z" class="g0_105"/>
<path fill-rule="evenodd" d="M260.9,764.8H501.2V750.1H260.9v14.7Z" class="g0_105"/>
<path fill-rule="evenodd" d="M260.9,779.5H501.2V764.8H260.9v14.7Z" class="g0_105"/>
<path fill-rule="evenodd" d="M260.9,794.1H500.8V779.5H260.9v14.6Z" class="g0_105"/>
<path fill-rule="evenodd" d="M260.9,808.8H500.8V794.1H260.9v14.7Z" class="g0_105"/>
<path fill-rule="evenodd" d="M279.7,823.5H501.5V808.8H279.7v14.7Z" class="g0_105"/>
<path fill-rule="evenodd" d="M279.7,838.2H501.5V823.5H279.7v14.7Z" class="g0_105"/>
<path fill-rule="evenodd" d="M261.3,853.2H501.2V838.5H261.3v14.7Z" class="g0_105"/>
<path fill-rule="evenodd" d="M261.3,867.9H501.2V853.2H261.3v14.7Z" class="g0_105"/>
<path fill-rule="evenodd" d="M261.3,882.5H501.2V867.9H261.3v14.6Z" class="g0_105"/>
<path fill-rule="evenodd" d="M261.6,897.2H500.8V882.5H261.6v14.7Z" class="g0_105"/>
<path fill-rule="evenodd" d="M521.7,161.4H761.5V146.7H521.7v14.7Z" class="g0_105"/>
<path fill-rule="evenodd" d="M521.7,176H761.5V161.4H521.7V176Z" class="g0_105"/>
<path fill-rule="evenodd" d="M521.7,190.7H761.2V176H521.7v14.7Z" class="g0_105"/>
<path fill-rule="evenodd" d="M521.7,205.4H761.2V190.7H521.7v14.7Z" class="g0_105"/>
<path fill-rule="evenodd" d="M521.3,220H761.9V205.4H521.3V220Z" class="g0_105"/>
<path fill-rule="evenodd" d="M521.3,234.7H761.9V220H521.3v14.7Z" class="g0_105"/>
<path fill-rule="evenodd" d="M521.3,249.4H761.9V234.7H521.3v14.7Z" class="g0_105"/>
<path fill-rule="evenodd" d="M521.3,264H761.9V249.4H521.3V264Z" class="g0_105"/>
<path fill-rule="evenodd" d="M521.3,278.7H761.9V264H521.3v14.7Z" class="g0_105"/>
<path fill-rule="evenodd" d="M522.1,293.4H761.2V278.7H522.1v14.7Z" class="g0_105"/>
<path fill-rule="evenodd" d="M522.1,308H761.2V293.4H522.1V308Z" class="g0_105"/>
<path fill-rule="evenodd" d="M521.3,322.7H761.5V308H521.3v14.7Z" class="g0_105"/>
<path fill-rule="evenodd" d="M521.3,337.4H761.5V322.7H521.3v14.7Z" class="g0_105"/>
<path fill-rule="evenodd" d="M521.3,352H761.5V337.4H521.3V352Z" class="g0_105"/>
<path fill-rule="evenodd" d="M521.3,366.7H761.5V352H521.3v14.7Z" class="g0_105"/>
<path fill-rule="evenodd" d="M521.3,381.4H761.5V366.7H521.3v14.7Z" class="g0_105"/>
<path fill-rule="evenodd" d="M521.7,396.1H761.5V381.4H521.7v14.7Z" class="g0_105"/>
<path fill-rule="evenodd" d="M521.7,410.7H761.5V396.1H521.7v14.6Z" class="g0_105"/>
<path fill-rule="evenodd" d="M521.3,425.4H761.2V410.7H521.3v14.7Z" class="g0_105"/>
<path fill-rule="evenodd" d="M521.3,440.1H761.2V425.4H521.3v14.7Z" class="g0_105"/>
<path fill-rule="evenodd" d="M521.3,454.7H761.2V440.1H521.3v14.6Z" class="g0_105"/>
<path fill-rule="evenodd" d="M521.3,469.4H761.2V454.7H521.3v14.7Z" class="g0_105"/>
<path fill-rule="evenodd" d="M521.3,484.1H761.2V469.4H521.3v14.7Z" class="g0_105"/>
<path fill-rule="evenodd" d="M521.3,498.7H761.2V484.1H521.3v14.6Z" class="g0_105"/>
<path fill-rule="evenodd" d="M521.3,513.4H761.2V498.7H521.3v14.7Z" class="g0_105"/>
<path fill-rule="evenodd" d="M521.3,528.6H761.2V513.4H521.3v15.2Z" class="g0_105"/>
<path fill-rule="evenodd" d="M521.3,543.3H761.2V528.6H521.3v14.7Z" class="g0_105"/>
<path fill-rule="evenodd" d="M521.3,558H761.2V543.3H521.3V558Z" class="g0_105"/>
<path fill-rule="evenodd" d="M521,572.6H761.2V558H521v14.6Z" class="g0_105"/>
<path fill-rule="evenodd" d="M521,587.3H761.2V572.6H521v14.7Z" class="g0_105"/>
<path fill-rule="evenodd" d="M521,602H761.2V587.3H521V602Z" class="g0_105"/>
<path fill-rule="evenodd" d="M521,616.7H761.2V602H521v14.7Z" class="g0_105"/>
<path fill-rule="evenodd" d="M521,631.3H760.8V616.7H521v14.6Z" class="g0_105"/>
<path fill-rule="evenodd" d="M521,646H760.8V631.3H521V646Z" class="g0_105"/>
<path fill-rule="evenodd" d="M521,660.7H760.8V646H521v14.7Z" class="g0_105"/>
<path fill-rule="evenodd" d="M521.3,675.7H761.2V661H521.3v14.7Z" class="g0_105"/>
<path fill-rule="evenodd" d="M521.3,690.4H761.2V675.7H521.3v14.7Z" class="g0_105"/>
<path fill-rule="evenodd" d="M521.3,705H761.5V690.4H521.3V705Z" class="g0_105"/>
<path fill-rule="evenodd" d="M521.3,719.7H761.5V705H521.3v14.7Z" class="g0_105"/>
<path fill-rule="evenodd" d="M521.3,734.4H761.5V719.7H521.3v14.7Z" class="g0_105"/>
<path fill-rule="evenodd" d="M521.3,749H761.9V734.4H521.3V749Z" class="g0_105"/>
<path fill-rule="evenodd" d="M521.3,763.7H761.9V749H521.3v14.7Z" class="g0_105"/>
<path fill-rule="evenodd" d="M521.3,778.4H761.9V763.7H521.3v14.7Z" class="g0_105"/>
<path fill-rule="evenodd" d="M521.3,793H761.9V778.4H521.3V793Z" class="g0_105"/>
<path fill-rule="evenodd" d="M521.3,807.7H761.9V793H521.3v14.7Z" class="g0_105"/>
<path fill-rule="evenodd" d="M521.3,822.4h241V807.7h-241v14.7Z" class="g0_105"/>
<path fill-rule="evenodd" d="M521.3,837.1h241V822.4h-241v14.7Z" class="g0_105"/>
<path fill-rule="evenodd" d="M521.3,851.7h241V837.1h-241v14.6Z" class="g0_105"/>
<path fill-rule="evenodd" d="M521.3,866.4h241V851.7h-241v14.7Z" class="g0_105"/>
<path fill-rule="evenodd" d="M521.3,881.4H761.9V866.8H521.3v14.6Z" class="g0_105"/>
<path fill-rule="evenodd" d="M521.3,896.1H761.9V881.4H521.3v14.7Z" class="g0_105"/>
<path fill-rule="evenodd" d="M499,928.4H762.3V910.8H499v17.6Z" class="g0_105"/>
<path d="M203.3,94.3V419.8M204.4,94.3V321.6m-5.5,-158v77m3.3,494.3v202m.4,-547.1v93.1m1.1,-44.3V544.2M205.2,326V527.7M510.6,147.5V916.1" class="g1_105"/>
</svg>