<?xml version="1.0" encoding="UTF-8" standalone="no"?>
<!DOCTYPE svg PUBLIC "-//W3C//DTD SVG 1.1//EN"
"http://www.w3.org/Graphics/SVG/1.1/DTD/svg11.dtd">
<svg viewBox="0 0 909 1285" version="1.1" xmlns="http://www.w3.org/2000/svg" xmlns:xlink="http://www.w3.org/1999/xlink">
<defs>
<style type="text/css"><![CDATA[
.g0_294{
fill: #FFFFFF;
}
.g1_294{
fill: none;
stroke: #000000;
stroke-width: 0.381;
stroke-linecap: butt;
stroke-linejoin: round;
}
]]></style>
</defs>
<path fill-rule="evenodd" d="M628.4,125.8h67.1V110H628.4v15.8Z" class="g0_294"/>
<path fill-rule="evenodd" d="M194.5,161.7H433.6V147.1H194.5v14.6Z" class="g0_294"/>
<path fill-rule="evenodd" d="M194.5,176.4H433.6V161.7H194.5v14.7Z" class="g0_294"/>
<path fill-rule="evenodd" d="M212.5,191.1H434V176.4H212.5v14.7Z" class="g0_294"/>
<path fill-rule="evenodd" d="M194.2,205.7H434V191.1H194.2v14.6Z" class="g0_294"/>
<path fill-rule="evenodd" d="M194.2,220.4H434V205.7H194.2v14.7Z" class="g0_294"/>
<path fill-rule="evenodd" d="M212.5,235.1H434V220.4H212.5v14.7Z" class="g0_294"/>
<path fill-rule="evenodd" d="M193.8,249.7H434V235.1H193.8v14.6Z" class="g0_294"/>
<path fill-rule="evenodd" d="M193.8,264.4H434V249.7H193.8v14.7Z" class="g0_294"/>
<path fill-rule="evenodd" d="M212.1,279.1H434V264.4H212.1v14.7Z" class="g0_294"/>
<path fill-rule="evenodd" d="M194.2,294.3H433.6V279.4H194.2v14.9Z" class="g0_294"/>
<path fill-rule="evenodd" d="M194.2,308.9H433.6V294.3H194.2v14.6Z" class="g0_294"/>
<path fill-rule="evenodd" d="M194.2,323.6H433.6V308.9H194.2v14.7Z" class="g0_294"/>
<path fill-rule="evenodd" d="M212.5,338.6H434V324H212.5v14.6Z" class="g0_294"/>
<path fill-rule="evenodd" d="M194.5,353.4H432.9V338.7H194.5v14.7Z" class="g0_294"/>
<path fill-rule="evenodd" d="M194.5,368H432.9V353.4H194.5V368Z" class="g0_294"/>
<path fill-rule="evenodd" d="M212.1,383.1H434V368.4H212.1v14.7Z" class="g0_294"/>
<path fill-rule="evenodd" d="M212.1,397.7H434V383.1H212.1v14.6Z" class="g0_294"/>
<path fill-rule="evenodd" d="M193.4,412.8H433.6V398.1H193.4v14.7Z" class="g0_294"/>
<path fill-rule="evenodd" d="M193.4,427.4H433.6V412.8H193.4v14.6Z" class="g0_294"/>
<path fill-rule="evenodd" d="M193.4,442.1H433.6V427.4H193.4v14.7Z" class="g0_294"/>
<path fill-rule="evenodd" d="M193.4,456.8H433.6V442.1H193.4v14.7Z" class="g0_294"/>
<path fill-rule="evenodd" d="M193.4,471.4H433.6V456.8H193.4v14.6Z" class="g0_294"/>
<path fill-rule="evenodd" d="M193.4,486.1H433.6V471.4H193.4v14.7Z" class="g0_294"/>
<path fill-rule="evenodd" d="M193.4,500.8H433.6V486.1H193.4v14.7Z" class="g0_294"/>
<path fill-rule="evenodd" d="M194.2,515.4H433.3V500.8H194.2v14.6Z" class="g0_294"/>
<path fill-rule="evenodd" d="M194.2,530.1H433.3V515.4H194.2v14.7Z" class="g0_294"/>
<path fill-rule="evenodd" d="M193.8,545.1H433.3V530.5H193.8v14.6Z" class="g0_294"/>
<path fill-rule="evenodd" d="M193.8,559.8H433.3V545.1H193.8v14.7Z" class="g0_294"/>
<path fill-rule="evenodd" d="M193.8,574.5H433.3V559.8H193.8v14.7Z" class="g0_294"/>
<path fill-rule="evenodd" d="M193.8,589.1H433.3V574.5H193.8v14.6Z" class="g0_294"/>
<path fill-rule="evenodd" d="M193.1,603.8H432.9V589.1H193.1v14.7Z" class="g0_294"/>
<path fill-rule="evenodd" d="M193.1,618.5H432.9V603.8H193.1v14.7Z" class="g0_294"/>
<path fill-rule="evenodd" d="M193.1,633.2H432.9V618.5H193.1v14.7Z" class="g0_294"/>
<path fill-rule="evenodd" d="M193.1,647.8H432.9V633.2H193.1v14.6Z" class="g0_294"/>
<path fill-rule="evenodd" d="M193.1,662.5H432.9V647.8H193.1v14.7Z" class="g0_294"/>
<path fill-rule="evenodd" d="M192.7,677.2H432.5V662.5H192.7v14.7Z" class="g0_294"/>
<path fill-rule="evenodd" d="M192.7,691.8H432.5V677.2H192.7v14.6Z" class="g0_294"/>
<path fill-rule="evenodd" d="M192.7,706.5H432.5V691.8H192.7v14.7Z" class="g0_294"/>
<path fill-rule="evenodd" d="M192.7,721.2H432.5V706.5H192.7v14.7Z" class="g0_294"/>
<path fill-rule="evenodd" d="M192.7,735.8H432.5V721.2H192.7v14.6Z" class="g0_294"/>
<path fill-rule="evenodd" d="M192.7,750.5H432.5V735.8H192.7v14.7Z" class="g0_294"/>
<path fill-rule="evenodd" d="M192.7,765.2H432.5V750.5H192.7v14.7Z" class="g0_294"/>
<path fill-rule="evenodd" d="M192.7,779.8H432.5V765.2H192.7v14.6Z" class="g0_294"/>
<path fill-rule="evenodd" d="M192.3,794.5H432.5V779.8H192.3v14.7Z" class="g0_294"/>
<path fill-rule="evenodd" d="M192.3,809.2H432.5V794.5H192.3v14.7Z" class="g0_294"/>
<path fill-rule="evenodd" d="M192.3,823.8H432.5V809.2H192.3v14.6Z" class="g0_294"/>
<path fill-rule="evenodd" d="M192.3,838.5H432.5V823.8H192.3v14.7Z" class="g0_294"/>
<path fill-rule="evenodd" d="M192.3,853.2H432.5V838.5H192.3v14.7Z" class="g0_294"/>
<path fill-rule="evenodd" d="M192.7,868.6H432.2V853.9H192.7v14.7Z" class="g0_294"/>
<path fill-rule="evenodd" d="M192.7,883.3H432.2V868.6H192.7v14.7Z" class="g0_294"/>
<path fill-rule="evenodd" d="M194.5,897.9H434V883.3H194.5v14.6Z" class="g0_294"/>
<path fill-rule="evenodd" d="M454.6,161.4H695.5V146.7H454.6v14.7Z" class="g0_294"/>
<path fill-rule="evenodd" d="M454.6,176H695.5V161.4H454.6V176Z" class="g0_294"/>
<path fill-rule="evenodd" d="M454.6,190.7H695.5V176H454.6v14.7Z" class="g0_294"/>
<path fill-rule="evenodd" d="M454.6,205.4H695.5V190.7H454.6v14.7Z" class="g0_294"/>
<path fill-rule="evenodd" d="M454.6,220H695.5V205.4H454.6V220Z" class="g0_294"/>
<path fill-rule="evenodd" d="M472.6,234.7H695.5V220H472.6v14.7Z" class="g0_294"/>
<path fill-rule="evenodd" d="M472.6,249.7H695.5v-15H472.6v15Z" class="g0_294"/>
<path fill-rule="evenodd" d="M454.2,264.9H694.4V250.1H454.2v14.8Z" class="g0_294"/>
<path fill-rule="evenodd" d="M454.2,279.6H694.4V264.9H454.2v14.7Z" class="g0_294"/>
<path fill-rule="evenodd" d="M454.2,294.6H694.6V280H454.2v14.6Z" class="g0_294"/>
<path fill-rule="evenodd" d="M454.2,309.3H694.6V294.6H454.2v14.7Z" class="g0_294"/>
<path fill-rule="evenodd" d="M454.2,324H694.6V309.3H454.2V324Z" class="g0_294"/>
<path fill-rule="evenodd" d="M454.2,338.6H694.6V324H454.2v14.6Z" class="g0_294"/>
<path fill-rule="evenodd" d="M454.2,353.4H694.6V338.7H454.2v14.7Z" class="g0_294"/>
<path fill-rule="evenodd" d="M454.2,368H694.6V353.4H454.2V368Z" class="g0_294"/>
<path fill-rule="evenodd" d="M454.6,383.1H694.1V368.4H454.6v14.7Z" class="g0_294"/>
<path fill-rule="evenodd" d="M454.6,397.7H694.1V383.1H454.6v14.6Z" class="g0_294"/>
<path fill-rule="evenodd" d="M453.9,412.4H694.4V397.7H453.9v14.7Z" class="g0_294"/>
<path fill-rule="evenodd" d="M453.9,427.1H694.4V412.4H453.9v14.7Z" class="g0_294"/>
<path fill-rule="evenodd" d="M453.9,441.7H694.4V427.1H453.9v14.6Z" class="g0_294"/>
<path fill-rule="evenodd" d="M453.9,456.4H694.4V441.7H453.9v14.7Z" class="g0_294"/>
<path fill-rule="evenodd" d="M454.2,471.1H694.1V456.4H454.2v14.7Z" class="g0_294"/>
<path fill-rule="evenodd" d="M454.2,485.7H694.1V471.1H454.2v14.6Z" class="g0_294"/>
<path fill-rule="evenodd" d="M454.2,500.4H694.1V485.7H454.2v14.7Z" class="g0_294"/>
<path fill-rule="evenodd" d="M453.9,515.4H693.3V500.8H453.9v14.6Z" class="g0_294"/>
<path fill-rule="evenodd" d="M453.9,530.1H693.3V515.4H453.9v14.7Z" class="g0_294"/>
<path fill-rule="evenodd" d="M454.2,544.8H693.3V530.1H454.2v14.7Z" class="g0_294"/>
<path fill-rule="evenodd" d="M454.2,559.4H693.3V544.8H454.2v14.6Z" class="g0_294"/>
<path fill-rule="evenodd" d="M453.9,574.1H693.3V559.4H453.9v14.7Z" class="g0_294"/>
<path fill-rule="evenodd" d="M453.9,588.8H693.3V574.1H453.9v14.7Z" class="g0_294"/>
<path fill-rule="evenodd" d="M453.9,603.5H693.3V588.8H453.9v14.7Z" class="g0_294"/>
<path fill-rule="evenodd" d="M453.9,618.1H693.3V603.5H453.9v14.6Z" class="g0_294"/>
<path fill-rule="evenodd" d="M453.5,632.8H693.3V618.1H453.5v14.7Z" class="g0_294"/>
<path fill-rule="evenodd" d="M453.5,647.5H693.3V632.8H453.5v14.7Z" class="g0_294"/>
<path fill-rule="evenodd" d="M453.5,662.1H693.3V647.5H453.5v14.6Z" class="g0_294"/>
<path fill-rule="evenodd" d="M453.1,677.2H693.3V662.5H453.1v14.7Z" class="g0_294"/>
<path fill-rule="evenodd" d="M453.1,691.8H693.3V677.2H453.1v14.6Z" class="g0_294"/>
<path fill-rule="evenodd" d="M471.5,706.5h224V691.8h-224v14.7Z" class="g0_294"/>
<path fill-rule="evenodd" d="M453.5,721.2H693.3V706.5H453.5v14.7Z" class="g0_294"/>
<path fill-rule="evenodd" d="M453.5,735.8H693.3V721.2H453.5v14.6Z" class="g0_294"/>
<path fill-rule="evenodd" d="M453.5,750.5H693.3V735.8H453.5v14.7Z" class="g0_294"/>
<path fill-rule="evenodd" d="M453.5,765.2H693.3V750.5H453.5v14.7Z" class="g0_294"/>
<path fill-rule="evenodd" d="M453.9,780.2H693.7V765.5H453.9v14.7Z" class="g0_294"/>
<path fill-rule="evenodd" d="M453.9,794.9H693.7V780.2H453.9v14.7Z" class="g0_294"/>
<path fill-rule="evenodd" d="M453.9,809.5H693V794.9H453.9v14.6Z" class="g0_294"/>
<path fill-rule="evenodd" d="M453.9,824.2H693V809.5H453.9v14.7Z" class="g0_294"/>
<path fill-rule="evenodd" d="M452.4,838.9H693V824.2H452.4v14.7Z" class="g0_294"/>
<path fill-rule="evenodd" d="M452.4,853.6H693V838.9H452.4v14.7Z" class="g0_294"/>
<path fill-rule="evenodd" d="M453.1,868.6H693.3V853.9H453.1v14.7Z" class="g0_294"/>
<path fill-rule="evenodd" d="M453.1,883.3H693.3V868.6H453.1v14.7Z" class="g0_294"/>
<path fill-rule="evenodd" d="M429.3,915.5H695.5V897.9H429.3v17.6Z" class="g0_294"/>
<path d="M442,146.4V914.9" class="g1_294"/>
</svg>