<?xml version="1.0" encoding="UTF-8" standalone="no"?>
<!DOCTYPE svg PUBLIC "-//W3C//DTD SVG 1.1//EN"
"http://www.w3.org/Graphics/SVG/1.1/DTD/svg11.dtd">
<svg viewBox="0 0 909 1285" version="1.1" xmlns="http://www.w3.org/2000/svg" xmlns:xlink="http://www.w3.org/1999/xlink">
<defs>
<style type="text/css"><![CDATA[
.g0_333{
fill: #FFFFFF;
}
.g1_333{
fill: none;
stroke: #000000;
stroke-width: 4.736;
stroke-linecap: butt;
stroke-linejoin: round;
}
.g2_333{
fill: none;
stroke: #000000;
stroke-width: 0.381;
stroke-linecap: butt;
stroke-linejoin: round;
}
.g3_333{
fill: none;
stroke: #000000;
stroke-width: 0.763;
stroke-linecap: butt;
stroke-linejoin: round;
}
]]></style>
</defs>
<path fill-rule="evenodd" d="M259.6,125.8H760.2V110H259.6v15.8Z" class="g0_333"/>
<path fill-rule="evenodd" d="M259.3,161.7H499.9v-15H259.3v15Z" class="g0_333"/>
<path fill-rule="evenodd" d="M259.3,176.9H499.9V161.7H259.3v15.2Z" class="g0_333"/>
<path fill-rule="evenodd" d="M259.3,192H499.9V176.9H259.3V192Z" class="g0_333"/>
<path fill-rule="evenodd" d="M258.9,207H499.5V192H258.9v15Z" class="g0_333"/>
<path fill-rule="evenodd" d="M258.9,222H499.5V207H258.9v15Z" class="g0_333"/>
<path fill-rule="evenodd" d="M258.9,237.1H499.5V222H258.9v15.1Z" class="g0_333"/>
<path fill-rule="evenodd" d="M259.3,252.1H499.9v-15H259.3v15Z" class="g0_333"/>
<path fill-rule="evenodd" d="M259.3,267.1H499.9v-15H259.3v15Z" class="g0_333"/>
<path fill-rule="evenodd" d="M259.3,282.2H499.9V267.1H259.3v15.1Z" class="g0_333"/>
<path fill-rule="evenodd" d="M259.3,297.2H499.9v-15H259.3v15Z" class="g0_333"/>
<path fill-rule="evenodd" d="M259.3,312.2H499.5v-15H259.3v15Z" class="g0_333"/>
<path fill-rule="evenodd" d="M259.3,327.3H499.5V312.2H259.3v15.1Z" class="g0_333"/>
<path fill-rule="evenodd" d="M258.9,342.9H499.5V327.6H258.9v15.3Z" class="g0_333"/>
<path fill-rule="evenodd" d="M258.9,357.9H499.5v-15H258.9v15Z" class="g0_333"/>
<path fill-rule="evenodd" d="M258.9,373H499.5V357.9H258.9V373Z" class="g0_333"/>
<path fill-rule="evenodd" d="M258.9,388H499.5V373H258.9v15Z" class="g0_333"/>
<path fill-rule="evenodd" d="M258.2,403H499.1V388H258.2v15Z" class="g0_333"/>
<path fill-rule="evenodd" d="M258.2,418.1H499.1V403H258.2v15.1Z" class="g0_333"/>
<path fill-rule="evenodd" d="M258.2,433.1H499.1v-15H258.2v15Z" class="g0_333"/>
<path fill-rule="evenodd" d="M258.5,448.1h241v-15h-241v15Z" class="g0_333"/>
<path fill-rule="evenodd" d="M258.5,463.2h241V448.1h-241v15.1Z" class="g0_333"/>
<path fill-rule="evenodd" d="M258.5,478.2h241v-15h-241v15Z" class="g0_333"/>
<path fill-rule="evenodd" d="M258.2,493.2H499.1v-15H258.2v15Z" class="g0_333"/>
<path fill-rule="evenodd" d="M258.2,508.5H499.1V493.2H258.2v15.3Z" class="g0_333"/>
<path fill-rule="evenodd" d="M258.9,523.5H498.8v-15H258.9v15Z" class="g0_333"/>
<path fill-rule="evenodd" d="M258.9,538.5H498.8v-15H258.9v15Z" class="g0_333"/>
<path fill-rule="evenodd" d="M258.5,553.6H499.1V538.5H258.5v15.1Z" class="g0_333"/>
<path fill-rule="evenodd" d="M258.5,568.6H499.1v-15H258.5v15Z" class="g0_333"/>
<path fill-rule="evenodd" d="M258.2,583.6H498.4v-15H258.2v15Z" class="g0_333"/>
<path fill-rule="evenodd" d="M258.2,598.7H498.4V583.6H258.2v15.1Z" class="g0_333"/>
<path fill-rule="evenodd" d="M258.5,613.7H498.4v-15H258.5v15Z" class="g0_333"/>
<path fill-rule="evenodd" d="M258.5,628.8H498.4V613.7H258.5v15.1Z" class="g0_333"/>
<path fill-rule="evenodd" d="M258.5,643.8H499.1v-15H258.5v15Z" class="g0_333"/>
<path fill-rule="evenodd" d="M258.5,658.8H499.1v-15H258.5v15Z" class="g0_333"/>
<path fill-rule="evenodd" d="M258.5,673.9H499.1V658.8H258.5v15.1Z" class="g0_333"/>
<path fill-rule="evenodd" d="M258.5,689.1H499.1V673.9H258.5v15.2Z" class="g0_333"/>
<path fill-rule="evenodd" d="M258.5,704.1H498.8v-15H258.5v15Z" class="g0_333"/>
<path fill-rule="evenodd" d="M258.5,719.1H498.8v-15H258.5v15Z" class="g0_333"/>
<path fill-rule="evenodd" d="M258.5,734.2H498.8V719.1H258.5v15.1Z" class="g0_333"/>
<path fill-rule="evenodd" d="M258.5,749.2H498.8v-15H258.5v15Z" class="g0_333"/>
<path fill-rule="evenodd" d="M258.2,764.2H498.4v-15H258.2v15Z" class="g0_333"/>
<path fill-rule="evenodd" d="M258.2,779.3H498.4V764.2H258.2v15.1Z" class="g0_333"/>
<path fill-rule="evenodd" d="M258.2,794.3H498.4v-15H258.2v15Z" class="g0_333"/>
<path fill-rule="evenodd" d="M258.2,809.3H498.4v-15H258.2v15Z" class="g0_333"/>
<path fill-rule="evenodd" d="M258.2,824.4H498.4V809.3H258.2v15.1Z" class="g0_333"/>
<path fill-rule="evenodd" d="M258.2,839.5H498.4V824.4H258.2v15.1Z" class="g0_333"/>
<path fill-rule="evenodd" d="M258.2,854.5H498.4v-15H258.2v15Z" class="g0_333"/>
<path fill-rule="evenodd" d="M258.2,869.7H498.4V854.5H258.2v15.2Z" class="g0_333"/>
<path fill-rule="evenodd" d="M258.5,884.7H498.8v-15H258.5v15Z" class="g0_333"/>
<path fill-rule="evenodd" d="M258.5,899.8H498.8V884.7H258.5v15.1Z" class="g0_333"/>
<path fill-rule="evenodd" d="M259.6,914.8H499.9v-15H259.6v15Z" class="g0_333"/>
<path fill-rule="evenodd" d="M520,161.4H760.2V146.3H520v15.1Z" class="g0_333"/>
<path fill-rule="evenodd" d="M520,176.4H760.2v-15H520v15Z" class="g0_333"/>
<path fill-rule="evenodd" d="M520,191.6H760.2V176.4H520v15.2Z" class="g0_333"/>
<path fill-rule="evenodd" d="M520,206.6H760.2v-15H520v15Z" class="g0_333"/>
<path fill-rule="evenodd" d="M520,221.7H760.2V206.6H520v15.1Z" class="g0_333"/>
<path fill-rule="evenodd" d="M519.3,236.7H759.9v-15H519.3v15Z" class="g0_333"/>
<path fill-rule="evenodd" d="M519.3,251.7H759.9v-15H519.3v15Z" class="g0_333"/>
<path fill-rule="evenodd" d="M519.3,266.8H759.9V251.7H519.3v15.1Z" class="g0_333"/>
<path fill-rule="evenodd" d="M520,281.8H759.9v-15H520v15Z" class="g0_333"/>
<path fill-rule="evenodd" d="M520,296.8H759.9v-15H520v15Z" class="g0_333"/>
<path fill-rule="evenodd" d="M520,311.9H759.9V296.8H520v15.1Z" class="g0_333"/>
<path fill-rule="evenodd" d="M520,326.9H759.9v-15H520v15Z" class="g0_333"/>
<path fill-rule="evenodd" d="M520,341.9H759.9v-15H520v15Z" class="g0_333"/>
<path fill-rule="evenodd" d="M520,357.2H759.9V342H520v15.2Z" class="g0_333"/>
<path fill-rule="evenodd" d="M520,372.6H760.2v-15H520v15Z" class="g0_333"/>
<path fill-rule="evenodd" d="M520,387.6H760.2v-15H520v15Z" class="g0_333"/>
<path fill-rule="evenodd" d="M520,402.7H760.2V387.6H520v15.1Z" class="g0_333"/>
<path fill-rule="evenodd" d="M538.4,417.7H760.2v-15H538.4v15Z" class="g0_333"/>
<path fill-rule="evenodd" d="M519.7,432.7H760.2v-15H519.7v15Z" class="g0_333"/>
<path fill-rule="evenodd" d="M519.7,447.8H760.2V432.7H519.7v15.1Z" class="g0_333"/>
<path fill-rule="evenodd" d="M519.7,462.8H759.5v-15H519.7v15Z" class="g0_333"/>
<path fill-rule="evenodd" d="M519.7,477.8H759.5v-15H519.7v15Z" class="g0_333"/>
<path fill-rule="evenodd" d="M519.7,492.9H759.5V477.8H519.7v15.1Z" class="g0_333"/>
<path fill-rule="evenodd" d="M519.7,507.9H759.9v-15H519.7v15Z" class="g0_333"/>
<path fill-rule="evenodd" d="M519.7,523.1H759.9V507.9H519.7v15.2Z" class="g0_333"/>
<path fill-rule="evenodd" d="M518.6,538.2H759.9V523.1H518.6v15.1Z" class="g0_333"/>
<path fill-rule="evenodd" d="M518.6,553.2H759.9v-15H518.6v15Z" class="g0_333"/>
<path fill-rule="evenodd" d="M518.6,568.2H759.9v-15H518.6v15Z" class="g0_333"/>
<path fill-rule="evenodd" d="M519.3,583.3H760.2V568.2H519.3v15.1Z" class="g0_333"/>
<path fill-rule="evenodd" d="M519.3,598.3H760.2v-15H519.3v15Z" class="g0_333"/>
<path fill-rule="evenodd" d="M519.3,613.4H760.2V598.3H519.3v15.1Z" class="g0_333"/>
<path fill-rule="evenodd" d="M519.3,628.4H760.2v-15H519.3v15Z" class="g0_333"/>
<path fill-rule="evenodd" d="M519.3,643.4H760.2v-15H519.3v15Z" class="g0_333"/>
<path fill-rule="evenodd" d="M519.3,658.5H760.2V643.4H519.3v15.1Z" class="g0_333"/>
<path fill-rule="evenodd" d="M518.9,673.5H760.2v-15H518.9v15Z" class="g0_333"/>
<path fill-rule="evenodd" d="M518.9,688.5H760.2v-15H518.9v15Z" class="g0_333"/>
<path fill-rule="evenodd" d="M518.9,703.7H760.2V688.5H518.9v15.2Z" class="g0_333"/>
<path fill-rule="evenodd" d="M518.9,718.8H760.2V703.7H518.9v15.1Z" class="g0_333"/>
<path fill-rule="evenodd" d="M518.9,733.8H760.2v-15H518.9v15Z" class="g0_333"/>
<path fill-rule="evenodd" d="M518.9,748.8H759.1v-15H518.9v15Z" class="g0_333"/>
<path fill-rule="evenodd" d="M518.9,763.9H759.1V748.8H518.9v15.1Z" class="g0_333"/>
<path fill-rule="evenodd" d="M518.9,778.9H759.1v-15H518.9v15Z" class="g0_333"/>
<path fill-rule="evenodd" d="M518.9,793.9H759.1v-15H518.9v15Z" class="g0_333"/>
<path fill-rule="evenodd" d="M518.9,809H759.1V793.9H518.9V809Z" class="g0_333"/>
<path fill-rule="evenodd" d="M518.9,824H759.1V809H518.9v15Z" class="g0_333"/>
<path fill-rule="evenodd" d="M518.9,839.1H759.1V824H518.9v15.1Z" class="g0_333"/>
<path fill-rule="evenodd" d="M518.9,854.1H759.1v-15H518.9v15Z" class="g0_333"/>
<path fill-rule="evenodd" d="M518.9,869.2H759.1V854.1H518.9v15.1Z" class="g0_333"/>
<path fill-rule="evenodd" d="M518.9,884.4H759.1V869.2H518.9v15.2Z" class="g0_333"/>
<path fill-rule="evenodd" d="M495.1,932H760.2V914.4H495.1V932Z" class="g0_333"/>
<path d="M179.7,386.1v539" class="g1_333"/>
<path d="M199.1,883.7v51.4m.4,-558.5V887" class="g2_333"/>
<path d="M202.7,857.3V999.9M508.2,147.4v769" class="g3_333"/>
</svg>