<?xml version="1.0" encoding="UTF-8" standalone="no"?>
<!DOCTYPE svg PUBLIC "-//W3C//DTD SVG 1.1//EN"
"http://www.w3.org/Graphics/SVG/1.1/DTD/svg11.dtd">
<svg viewBox="0 0 909 1285" version="1.1" xmlns="http://www.w3.org/2000/svg" xmlns:xlink="http://www.w3.org/1999/xlink">
<defs>
<style type="text/css"><![CDATA[
.g0_317{
fill: #FFFFFF;
}
.g1_317{
fill: none;
stroke: #000000;
stroke-width: 0.381;
stroke-linecap: butt;
stroke-linejoin: round;
}
.g2_317{
fill: none;
stroke: #000000;
stroke-width: 2.902;
stroke-linecap: butt;
stroke-linejoin: round;
}
.g3_317{
fill: none;
stroke: #000000;
stroke-width: 0.763;
stroke-linecap: butt;
stroke-linejoin: round;
}
.g4_317{
fill: none;
stroke: #000000;
stroke-width: 2.597;
stroke-linecap: butt;
stroke-linejoin: round;
}
.g5_317{
fill: none;
stroke: #000000;
stroke-width: 1.069;
stroke-linecap: butt;
stroke-linejoin: round;
}
]]></style>
</defs>
<path fill-rule="evenodd" d="M261.3,125.8h501V110h-501v15.8Z" class="g0_317"/>
<path fill-rule="evenodd" d="M260.9,161.7H501.2V147.1H260.9v14.6Z" class="g0_317"/>
<path fill-rule="evenodd" d="M260.9,176.4H501.2V161.7H260.9v14.7Z" class="g0_317"/>
<path fill-rule="evenodd" d="M260.9,191.1H501.2V176.4H260.9v14.7Z" class="g0_317"/>
<path fill-rule="evenodd" d="M280,206.1H501.2V191.4H280v14.7Z" class="g0_317"/>
<path fill-rule="evenodd" d="M260.9,220.8H501.2V206.1H260.9v14.7Z" class="g0_317"/>
<path fill-rule="evenodd" d="M260.9,235.4H501.2V220.8H260.9v14.6Z" class="g0_317"/>
<path fill-rule="evenodd" d="M260.9,250.1H501.2V235.4H260.9v14.7Z" class="g0_317"/>
<path fill-rule="evenodd" d="M260.9,264.8H501.2V250.1H260.9v14.7Z" class="g0_317"/>
<path fill-rule="evenodd" d="M279.7,279.8H501.2V265.1H279.7v14.7Z" class="g0_317"/>
<path fill-rule="evenodd" d="M260.9,294.8H500.8V280.2H260.9v14.6Z" class="g0_317"/>
<path fill-rule="evenodd" d="M260.9,309.5H500.8V294.8H260.9v14.7Z" class="g0_317"/>
<path fill-rule="evenodd" d="M260.5,324.5H500.8V309.9H260.5v14.6Z" class="g0_317"/>
<path fill-rule="evenodd" d="M260.5,339.2H500.8V324.5H260.5v14.7Z" class="g0_317"/>
<path fill-rule="evenodd" d="M260.5,353.9H500.8V339.2H260.5v14.7Z" class="g0_317"/>
<path fill-rule="evenodd" d="M260.5,368.6H500.8V353.9H260.5v14.7Z" class="g0_317"/>
<path fill-rule="evenodd" d="M260.5,383.8H501.2V368.9H260.5v14.9Z" class="g0_317"/>
<path fill-rule="evenodd" d="M260.5,398.5H501.2V383.8H260.5v14.7Z" class="g0_317"/>
<path fill-rule="evenodd" d="M260.5,413.1H501.2V398.5H260.5v14.6Z" class="g0_317"/>
<path fill-rule="evenodd" d="M260.5,427.8H501.2V413.1H260.5v14.7Z" class="g0_317"/>
<path fill-rule="evenodd" d="M260.5,442.5H501.2V427.8H260.5v14.7Z" class="g0_317"/>
<path fill-rule="evenodd" d="M260.5,457.1H500.8V442.5H260.5v14.6Z" class="g0_317"/>
<path fill-rule="evenodd" d="M260.5,471.8H500.8V457.1H260.5v14.7Z" class="g0_317"/>
<path fill-rule="evenodd" d="M260.5,486.8H500.4V472.2H260.5v14.6Z" class="g0_317"/>
<path fill-rule="evenodd" d="M260.5,501.5H500.4V486.8H260.5v14.7Z" class="g0_317"/>
<path fill-rule="evenodd" d="M259.8,516.2H500.4V501.5H259.8v14.7Z" class="g0_317"/>
<path fill-rule="evenodd" d="M259.8,530.8H500.4V516.2H259.8v14.6Z" class="g0_317"/>
<path fill-rule="evenodd" d="M259.8,545.5H500.4V530.8H259.8v14.7Z" class="g0_317"/>
<path fill-rule="evenodd" d="M259.8,560.2H500.4V545.5H259.8v14.7Z" class="g0_317"/>
<path fill-rule="evenodd" d="M259.8,574.8H500.4V560.2H259.8v14.6Z" class="g0_317"/>
<path fill-rule="evenodd" d="M259.8,589.5H500.4V574.8H259.8v14.7Z" class="g0_317"/>
<path fill-rule="evenodd" d="M260.2,604.2H500.4V589.5H260.2v14.7Z" class="g0_317"/>
<path fill-rule="evenodd" d="M260.2,618.9H500.4V604.2H260.2v14.7Z" class="g0_317"/>
<path fill-rule="evenodd" d="M260.2,633.5H500.4V618.9H260.2v14.6Z" class="g0_317"/>
<path fill-rule="evenodd" d="M259.4,648.6H499.7V633.9H259.4v14.7Z" class="g0_317"/>
<path fill-rule="evenodd" d="M259.4,663.2H499.7V648.6H259.4v14.6Z" class="g0_317"/>
<path fill-rule="evenodd" d="M259.4,677.9H499.7V663.2H259.4v14.7Z" class="g0_317"/>
<path fill-rule="evenodd" d="M259.4,692.6H499.7V677.9H259.4v14.7Z" class="g0_317"/>
<path fill-rule="evenodd" d="M259.4,707.2H499.7V692.6H259.4v14.6Z" class="g0_317"/>
<path fill-rule="evenodd" d="M259.4,721.9H499.7V707.2H259.4v14.7Z" class="g0_317"/>
<path fill-rule="evenodd" d="M259.8,736.9H499.3V722.3H259.8v14.6Z" class="g0_317"/>
<path fill-rule="evenodd" d="M259.8,751.6H499.3V736.9H259.8v14.7Z" class="g0_317"/>
<path fill-rule="evenodd" d="M259.1,767H499.3V752.3H259.1V767Z" class="g0_317"/>
<path fill-rule="evenodd" d="M259.1,781.7H499.3V767H259.1v14.7Z" class="g0_317"/>
<path fill-rule="evenodd" d="M259.1,796.3H499.3V781.7H259.1v14.6Z" class="g0_317"/>
<path fill-rule="evenodd" d="M259.1,811.4H499.7V796.7H259.1v14.7Z" class="g0_317"/>
<path fill-rule="evenodd" d="M259.1,826H499.7V811.4H259.1V826Z" class="g0_317"/>
<path fill-rule="evenodd" d="M259.1,840.7H499.7V826H259.1v14.7Z" class="g0_317"/>
<path fill-rule="evenodd" d="M259.1,855.4H499.7V840.7H259.1v14.7Z" class="g0_317"/>
<path fill-rule="evenodd" d="M259.1,870.1H499.7V855.4H259.1v14.7Z" class="g0_317"/>
<path fill-rule="evenodd" d="M259.4,885.1H498.6V870.4H259.4v14.7Z" class="g0_317"/>
<path fill-rule="evenodd" d="M259.4,899.8H498.6V885.1H259.4v14.7Z" class="g0_317"/>
<path fill-rule="evenodd" d="M261.3,914.4H501.2V899.8H261.3v14.6Z" class="g0_317"/>
<path fill-rule="evenodd" d="M521.3,161.7h241V147.1h-241v14.6Z" class="g0_317"/>
<path fill-rule="evenodd" d="M521.3,176.4h241V161.7h-241v14.7Z" class="g0_317"/>
<path fill-rule="evenodd" d="M521.3,191.1h241V176.4h-241v14.7Z" class="g0_317"/>
<path fill-rule="evenodd" d="M521.3,205.7h241V191.1h-241v14.6Z" class="g0_317"/>
<path fill-rule="evenodd" d="M521.3,220.4h241V205.7h-241v14.7Z" class="g0_317"/>
<path fill-rule="evenodd" d="M521.3,235.1H761.9V220.4H521.3v14.7Z" class="g0_317"/>
<path fill-rule="evenodd" d="M521.3,249.7H761.9V235.1H521.3v14.6Z" class="g0_317"/>
<path fill-rule="evenodd" d="M521.3,264.4H761.9V249.7H521.3v14.7Z" class="g0_317"/>
<path fill-rule="evenodd" d="M521.3,279.1H761.9V264.4H521.3v14.7Z" class="g0_317"/>
<path fill-rule="evenodd" d="M521.3,293.7H761.9V279.1H521.3v14.6Z" class="g0_317"/>
<path fill-rule="evenodd" d="M521.3,308.8h240V294.1h-240v14.7Z" class="g0_317"/>
<path fill-rule="evenodd" d="M521.3,323.4h240V308.8h-240v14.6Z" class="g0_317"/>
<path fill-rule="evenodd" d="M521.3,338.1h240V323.4h-240v14.7Z" class="g0_317"/>
<path fill-rule="evenodd" d="M520.6,353.2H762.3V338.5H520.6v14.7Z" class="g0_317"/>
<path fill-rule="evenodd" d="M520.6,367.8H762.3V353.2H520.6v14.6Z" class="g0_317"/>
<path fill-rule="evenodd" d="M520.6,382.5H762.3V367.8H520.6v14.7Z" class="g0_317"/>
<path fill-rule="evenodd" d="M520.6,397.2H762.3V382.5H520.6v14.7Z" class="g0_317"/>
<path fill-rule="evenodd" d="M539.7,412.2H762.3V397.5H539.7v14.7Z" class="g0_317"/>
<path fill-rule="evenodd" d="M520.2,427.2H760.8V412.6H520.2v14.6Z" class="g0_317"/>
<path fill-rule="evenodd" d="M520.2,441.9H760.8V427.2H520.2v14.7Z" class="g0_317"/>
<path fill-rule="evenodd" d="M520.2,456.6H760.8V441.9H520.2v14.7Z" class="g0_317"/>
<path fill-rule="evenodd" d="M520.6,471.2H760.8V456.6H520.6v14.6Z" class="g0_317"/>
<path fill-rule="evenodd" d="M520.6,485.9H760.8V471.2H520.6v14.7Z" class="g0_317"/>
<path fill-rule="evenodd" d="M519.5,501.1H760.8V486.3H519.5v14.8Z" class="g0_317"/>
<path fill-rule="evenodd" d="M519.5,515.8H760.8V501.1H519.5v14.7Z" class="g0_317"/>
<path fill-rule="evenodd" d="M519.5,530.5H760.8V515.8H519.5v14.7Z" class="g0_317"/>
<path fill-rule="evenodd" d="M519.5,545.1H760.8V530.5H519.5v14.6Z" class="g0_317"/>
<path fill-rule="evenodd" d="M519.5,559.8H760.8V545.1H519.5v14.7Z" class="g0_317"/>
<path fill-rule="evenodd" d="M519.5,574.5H760.8V559.8H519.5v14.7Z" class="g0_317"/>
<path fill-rule="evenodd" d="M519.5,589.1H760.8V574.5H519.5v14.6Z" class="g0_317"/>
<path fill-rule="evenodd" d="M519.5,603.8H760.8V589.1H519.5v14.7Z" class="g0_317"/>
<path fill-rule="evenodd" d="M519.5,618.5H760.8V603.8H519.5v14.7Z" class="g0_317"/>
<path fill-rule="evenodd" d="M519.5,633.2H760.8V618.5H519.5v14.7Z" class="g0_317"/>
<path fill-rule="evenodd" d="M519.9,647.8H760.1V633.2H519.9v14.6Z" class="g0_317"/>
<path fill-rule="evenodd" d="M519.9,662.5H760.1V647.8H519.9v14.7Z" class="g0_317"/>
<path fill-rule="evenodd" d="M519.9,677.2H760.1V662.5H519.9v14.7Z" class="g0_317"/>
<path fill-rule="evenodd" d="M519.9,691.8H759.7V677.2H519.9v14.6Z" class="g0_317"/>
<path fill-rule="evenodd" d="M519.9,706.5H759.7V691.8H519.9v14.7Z" class="g0_317"/>
<path fill-rule="evenodd" d="M519.9,721.2H759.7V706.5H519.9v14.7Z" class="g0_317"/>
<path fill-rule="evenodd" d="M519.5,735.8H759.7V721.2H519.5v14.6Z" class="g0_317"/>
<path fill-rule="evenodd" d="M519.5,750.5H759.7V735.8H519.5v14.7Z" class="g0_317"/>
<path fill-rule="evenodd" d="M519.5,765.2H759.7V750.5H519.5v14.7Z" class="g0_317"/>
<path fill-rule="evenodd" d="M519.5,780.2H760.1V765.5H519.5v14.7Z" class="g0_317"/>
<path fill-rule="evenodd" d="M519.5,794.9H760.1V780.2H519.5v14.7Z" class="g0_317"/>
<path fill-rule="evenodd" d="M519.5,809.5H760.1V794.9H519.5v14.6Z" class="g0_317"/>
<path fill-rule="evenodd" d="M519.1,824.2H759V809.5H519.1v14.7Z" class="g0_317"/>
<path fill-rule="evenodd" d="M519.1,838.9H759V824.2H519.1v14.7Z" class="g0_317"/>
<path fill-rule="evenodd" d="M519.1,853.6H759V838.9H519.1v14.7Z" class="g0_317"/>
<path fill-rule="evenodd" d="M495.7,932.4H762.3V914.8H495.7v17.6Z" class="g0_317"/>
<path d="M207.7,103.4V474.8" class="g1_317"/>
<path d="M178,584.1V687.2" class="g2_317"/>
<path d="M180.6,469.3V771.5" class="g3_317"/>
<path d="M189.7,286V926.2" class="g4_317"/>
<path d="M194.5,390.9v27.5" class="g1_317"/>
<path d="M200,475.6v535.3m1.5,-366.6V992.2" class="g5_317"/>
<path d="M508.8,186.6V916.7m2.5,-768.9V183" class="g1_317"/>
</svg>