<?xml version="1.0" encoding="UTF-8" standalone="no"?>
<!DOCTYPE svg PUBLIC "-//W3C//DTD SVG 1.1//EN"
"http://www.w3.org/Graphics/SVG/1.1/DTD/svg11.dtd">
<svg viewBox="0 0 909 1285" version="1.1" xmlns="http://www.w3.org/2000/svg" xmlns:xlink="http://www.w3.org/1999/xlink">
<defs>
<style type="text/css"><![CDATA[
.g0_318{
fill: #FFFFFF;
}
.g1_318{
fill: none;
stroke: #000000;
stroke-width: 4.736;
stroke-linecap: butt;
stroke-linejoin: round;
}
.g2_318{
fill: none;
stroke: #000000;
stroke-width: 0.381;
stroke-linecap: butt;
stroke-linejoin: round;
}
]]></style>
</defs>
<path fill-rule="evenodd" d="M154.6,127.6H214V110H154.6v17.6Z" class="g0_318"/>
<path fill-rule="evenodd" d="M154.6,145.2H214V127.6H154.6v17.6Z" class="g0_318"/>
<path fill-rule="evenodd" d="M622.9,160.1h60.5V139H622.9v21.1Z" class="g0_318"/>
<path fill-rule="evenodd" d="M410.9,187.6H683.4v-25H410.9v25Z" class="g0_318"/>
<path fill-rule="evenodd" d="M183.9,222.4H422.6v-15H183.9v15Z" class="g0_318"/>
<path fill-rule="evenodd" d="M183.9,237.4H422.6v-15H183.9v15Z" class="g0_318"/>
<path fill-rule="evenodd" d="M183.9,252.5H422.6V237.4H183.9v15.1Z" class="g0_318"/>
<path fill-rule="evenodd" d="M182.4,267.5H422.6v-15H182.4v15Z" class="g0_318"/>
<path fill-rule="evenodd" d="M182.4,282.5H422.6v-15H182.4v15Z" class="g0_318"/>
<path fill-rule="evenodd" d="M182.4,297.8H422.6V282.5H182.4v15.3Z" class="g0_318"/>
<path fill-rule="evenodd" d="M182.4,312.8H422.6v-15H182.4v15Z" class="g0_318"/>
<path fill-rule="evenodd" d="M182.4,327.8H422.6v-15H182.4v15Z" class="g0_318"/>
<path fill-rule="evenodd" d="M182.4,342.9H422.6V327.8H182.4v15.1Z" class="g0_318"/>
<path fill-rule="evenodd" d="M182.4,357.9H422.6v-15H182.4v15Z" class="g0_318"/>
<path fill-rule="evenodd" d="M182.4,373H422.6V357.9H182.4V373Z" class="g0_318"/>
<path fill-rule="evenodd" d="M182.4,388H422.6V373H182.4v15Z" class="g0_318"/>
<path fill-rule="evenodd" d="M182.4,403H422.6V388H182.4v15Z" class="g0_318"/>
<path fill-rule="evenodd" d="M182.4,418.1H422.6V403H182.4v15.1Z" class="g0_318"/>
<path fill-rule="evenodd" d="M182.4,433.1H422.6v-15H182.4v15Z" class="g0_318"/>
<path fill-rule="evenodd" d="M182.1,448.1H421.2v-15H182.1v15Z" class="g0_318"/>
<path fill-rule="evenodd" d="M182.1,463.4H421.2V448.1H182.1v15.3Z" class="g0_318"/>
<path fill-rule="evenodd" d="M182.1,478.4H421.2v-15H182.1v15Z" class="g0_318"/>
<path fill-rule="evenodd" d="M182.1,493.4H421.2v-15H182.1v15Z" class="g0_318"/>
<path fill-rule="evenodd" d="M182.1,508.5H421.2V493.4H182.1v15.1Z" class="g0_318"/>
<path fill-rule="evenodd" d="M182.1,523.5H421.2v-15H182.1v15Z" class="g0_318"/>
<path fill-rule="evenodd" d="M182.1,538.5H421.2v-15H182.1v15Z" class="g0_318"/>
<path fill-rule="evenodd" d="M182.1,553.6H421.2V538.5H182.1v15.1Z" class="g0_318"/>
<path fill-rule="evenodd" d="M181,568.6H421.2v-15H181v15Z" class="g0_318"/>
<path fill-rule="evenodd" d="M181,583.6H421.2v-15H181v15Z" class="g0_318"/>
<path fill-rule="evenodd" d="M181,598.7H421.2V583.6H181v15.1Z" class="g0_318"/>
<path fill-rule="evenodd" d="M181,613.7H421.2v-15H181v15Z" class="g0_318"/>
<path fill-rule="evenodd" d="M181,628.8H421.2V613.7H181v15.1Z" class="g0_318"/>
<path fill-rule="evenodd" d="M181,644H421.2V628.8H181V644Z" class="g0_318"/>
<path fill-rule="evenodd" d="M181,659H421.2V644H181v15Z" class="g0_318"/>
<path fill-rule="evenodd" d="M181,674H421.2V659H181v15Z" class="g0_318"/>
<path fill-rule="evenodd" d="M181,689.1H421.2V674H181v15.1Z" class="g0_318"/>
<path fill-rule="evenodd" d="M181,704.1H421.2v-15H181v15Z" class="g0_318"/>
<path fill-rule="evenodd" d="M181,719.1H421.2v-15H181v15Z" class="g0_318"/>
<path fill-rule="evenodd" d="M181,734.2H421.2V719.1H181v15.1Z" class="g0_318"/>
<path fill-rule="evenodd" d="M181,749.2H421.2v-15H181v15Z" class="g0_318"/>
<path fill-rule="evenodd" d="M181.3,764.2H420.4v-15H181.3v15Z" class="g0_318"/>
<path fill-rule="evenodd" d="M181.3,779.3H420.4V764.2H181.3v15.1Z" class="g0_318"/>
<path fill-rule="evenodd" d="M181,794.3H420.4v-15H181v15Z" class="g0_318"/>
<path fill-rule="evenodd" d="M181,809.3H420.4v-15H181v15Z" class="g0_318"/>
<path fill-rule="evenodd" d="M181,824.6H420.8V809.3H181v15.3Z" class="g0_318"/>
<path fill-rule="evenodd" d="M181,839.6H420.8v-15H181v15Z" class="g0_318"/>
<path fill-rule="evenodd" d="M181,854.7H420.8V839.6H181v15.1Z" class="g0_318"/>
<path fill-rule="evenodd" d="M181,869.7H420.8v-15H181v15Z" class="g0_318"/>
<path fill-rule="evenodd" d="M183.2,884.7H422.6v-15H183.2v15Z" class="g0_318"/>
<path fill-rule="evenodd" d="M443.2,222.8H683.4V207.7H443.2v15.1Z" class="g0_318"/>
<path fill-rule="evenodd" d="M443.2,237.8H683.4v-15H443.2v15Z" class="g0_318"/>
<path fill-rule="evenodd" d="M443.2,252.8H683.4v-15H443.2v15Z" class="g0_318"/>
<path fill-rule="evenodd" d="M443.2,267.9H683.4V252.8H443.2v15.1Z" class="g0_318"/>
<path fill-rule="evenodd" d="M443.2,283.1H683.4V267.9H443.2v15.2Z" class="g0_318"/>
<path fill-rule="evenodd" d="M443.2,298.1H683.4v-15H443.2v15Z" class="g0_318"/>
<path fill-rule="evenodd" d="M442.1,313.2h241V298.1h-241v15.1Z" class="g0_318"/>
<path fill-rule="evenodd" d="M442.1,328.2h241v-15h-241v15Z" class="g0_318"/>
<path fill-rule="evenodd" d="M442.1,343.2h241v-15h-241v15Z" class="g0_318"/>
<path fill-rule="evenodd" d="M442.1,358.3h241V343.2h-241v15.1Z" class="g0_318"/>
<path fill-rule="evenodd" d="M442.1,373.3h241v-15h-241v15Z" class="g0_318"/>
<path fill-rule="evenodd" d="M442.1,388.4h241V373.3h-241v15.1Z" class="g0_318"/>
<path fill-rule="evenodd" d="M442.1,403.4h241v-15h-241v15Z" class="g0_318"/>
<path fill-rule="evenodd" d="M442.1,418.4h241v-15h-241v15Z" class="g0_318"/>
<path fill-rule="evenodd" d="M442.1,433.5h241V418.4h-241v15.1Z" class="g0_318"/>
<path fill-rule="evenodd" d="M442.1,448.7h241V433.5h-241v15.2Z" class="g0_318"/>
<path fill-rule="evenodd" d="M442.8,463.7H682.3v-15H442.8v15Z" class="g0_318"/>
<path fill-rule="evenodd" d="M460.5,478.8H683.4V463.7H460.5v15.1Z" class="g0_318"/>
<path fill-rule="evenodd" d="M441.7,493.8H682.3v-15H441.7v15Z" class="g0_318"/>
<path fill-rule="evenodd" d="M441.7,508.8H682.3v-15H441.7v15Z" class="g0_318"/>
<path fill-rule="evenodd" d="M441.7,523.9H682.3V508.8H441.7v15.1Z" class="g0_318"/>
<path fill-rule="evenodd" d="M441.4,538.9H682.3v-15H441.4v15Z" class="g0_318"/>
<path fill-rule="evenodd" d="M441.4,553.9H682.3v-15H441.4v15Z" class="g0_318"/>
<path fill-rule="evenodd" d="M441.4,569H682.3V553.9H441.4V569Z" class="g0_318"/>
<path fill-rule="evenodd" d="M441.4,584H682.3V569H441.4v15Z" class="g0_318"/>
<path fill-rule="evenodd" d="M441.4,599.1H682.3V584H441.4v15.1Z" class="g0_318"/>
<path fill-rule="evenodd" d="M441.4,614.1H682.3v-15H441.4v15Z" class="g0_318"/>
<path fill-rule="evenodd" d="M441.4,629.3H682.3V614.1H441.4v15.2Z" class="g0_318"/>
<path fill-rule="evenodd" d="M441.4,644.3H682.3v-15H441.4v15Z" class="g0_318"/>
<path fill-rule="evenodd" d="M441.4,659.4H682.3V644.3H441.4v15.1Z" class="g0_318"/>
<path fill-rule="evenodd" d="M441.4,674.4H682.3v-15H441.4v15Z" class="g0_318"/>
<path fill-rule="evenodd" d="M441.4,689.4H681.6v-15H441.4v15Z" class="g0_318"/>
<path fill-rule="evenodd" d="M441.4,704.5H681.6V689.4H441.4v15.1Z" class="g0_318"/>
<path fill-rule="evenodd" d="M441.4,719.5H681.6v-15H441.4v15Z" class="g0_318"/>
<path fill-rule="evenodd" d="M441.4,734.5H681.6v-15H441.4v15Z" class="g0_318"/>
<path fill-rule="evenodd" d="M441.4,749.6H681.6V734.5H441.4v15.1Z" class="g0_318"/>
<path fill-rule="evenodd" d="M441.4,764.6H681.6v-15H441.4v15Z" class="g0_318"/>
<path fill-rule="evenodd" d="M441.4,779.6H682v-15H441.4v15Z" class="g0_318"/>
<path fill-rule="evenodd" d="M441.4,794.7H682V779.6H441.4v15.1Z" class="g0_318"/>
<path fill-rule="evenodd" d="M441.4,809.9H682V794.7H441.4v15.2Z" class="g0_318"/>
<path fill-rule="evenodd" d="M441,824.9H682v-15H441v15Z" class="g0_318"/>
<path fill-rule="evenodd" d="M441,840H682V824.9H441V840Z" class="g0_318"/>
<path fill-rule="evenodd" d="M441,855H682V840H441v15Z" class="g0_318"/>
<path fill-rule="evenodd" d="M441,870.1H682V855H441v15.1Z" class="g0_318"/>
<path fill-rule="evenodd" d="M417.9,903.8H683.4V886.2H417.9v17.6Z" class="g0_318"/>
<path d="M159.3,152.4V284" class="g1_318"/>
<path d="M430.3,207.4V924.6" class="g2_318"/>
</svg>