<?xml version="1.0" encoding="UTF-8" standalone="no"?>
<!DOCTYPE svg PUBLIC "-//W3C//DTD SVG 1.1//EN"
"http://www.w3.org/Graphics/SVG/1.1/DTD/svg11.dtd">
<svg viewBox="0 0 909 1285" version="1.1" xmlns="http://www.w3.org/2000/svg" xmlns:xlink="http://www.w3.org/1999/xlink">
<defs>
<style type="text/css"><![CDATA[
.g0_284{
fill: #FFFFFF;
}
.g1_284{
fill: none;
stroke: #000000;
stroke-width: 1.451;
stroke-linecap: butt;
stroke-linejoin: round;
}
.g2_284{
fill: none;
stroke: #000000;
stroke-width: 0.381;
stroke-linecap: butt;
stroke-linejoin: round;
}
]]></style>
</defs>
<path fill-rule="evenodd" d="M626.7,125.8h59.5V110H626.7v15.8Z" class="g0_284"/>
<path fill-rule="evenodd" d="M186.3,161.4H423.9V146.7H186.3v14.7Z" class="g0_284"/>
<path fill-rule="evenodd" d="M186.3,176H423.9V161.4H186.3V176Z" class="g0_284"/>
<path fill-rule="evenodd" d="M204.3,190.7h220V176h-220v14.7Z" class="g0_284"/>
<path fill-rule="evenodd" d="M185.9,205.7H424.3V191.1H185.9v14.6Z" class="g0_284"/>
<path fill-rule="evenodd" d="M185.9,220.4H424.3V205.7H185.9v14.7Z" class="g0_284"/>
<path fill-rule="evenodd" d="M185.9,235.1h238V220.4h-238v14.7Z" class="g0_284"/>
<path fill-rule="evenodd" d="M185.9,249.7h238V235.1h-238v14.6Z" class="g0_284"/>
<path fill-rule="evenodd" d="M185.9,264.4h238V249.7h-238v14.7Z" class="g0_284"/>
<path fill-rule="evenodd" d="M185.9,279.1h238V264.4h-238v14.7Z" class="g0_284"/>
<path fill-rule="evenodd" d="M204.3,294.3h220V279.4h-220v14.9Z" class="g0_284"/>
<path fill-rule="evenodd" d="M204.3,309.3h220v-15h-220v15Z" class="g0_284"/>
<path fill-rule="evenodd" d="M185.9,324H423.6V309.3H185.9V324Z" class="g0_284"/>
<path fill-rule="evenodd" d="M185.9,338.6H423.6V324H185.9v14.6Z" class="g0_284"/>
<path fill-rule="evenodd" d="M185.6,353.7H423.9V339H185.6v14.7Z" class="g0_284"/>
<path fill-rule="evenodd" d="M185.6,368.4H423.9V353.7H185.6v14.7Z" class="g0_284"/>
<path fill-rule="evenodd" d="M185.6,383.1H423.9V368.4H185.6v14.7Z" class="g0_284"/>
<path fill-rule="evenodd" d="M185.2,397.7H423.9V383.1H185.2v14.6Z" class="g0_284"/>
<path fill-rule="evenodd" d="M185.2,412.4H423.9V397.7H185.2v14.7Z" class="g0_284"/>
<path fill-rule="evenodd" d="M185.2,427.1H423.9V412.4H185.2v14.7Z" class="g0_284"/>
<path fill-rule="evenodd" d="M185.2,441.7H423.9V427.1H185.2v14.6Z" class="g0_284"/>
<path fill-rule="evenodd" d="M185.2,456.4H423.9V441.7H185.2v14.7Z" class="g0_284"/>
<path fill-rule="evenodd" d="M185.2,471.1H423.9V456.4H185.2v14.7Z" class="g0_284"/>
<path fill-rule="evenodd" d="M185.2,485.7H423.9V471.1H185.2v14.6Z" class="g0_284"/>
<path fill-rule="evenodd" d="M185.2,500.8h238V486.1h-238v14.7Z" class="g0_284"/>
<path fill-rule="evenodd" d="M185.2,515.4h238V500.8h-238v14.6Z" class="g0_284"/>
<path fill-rule="evenodd" d="M184.8,530.5H423.2V515.8H184.8v14.7Z" class="g0_284"/>
<path fill-rule="evenodd" d="M184.8,545.1H423.2V530.5H184.8v14.6Z" class="g0_284"/>
<path fill-rule="evenodd" d="M184.8,559.8H423.2V545.1H184.8v14.7Z" class="g0_284"/>
<path fill-rule="evenodd" d="M184.5,574.5H423.2V559.8H184.5v14.7Z" class="g0_284"/>
<path fill-rule="evenodd" d="M184.5,589.1H423.2V574.5H184.5v14.6Z" class="g0_284"/>
<path fill-rule="evenodd" d="M184.5,603.8H423.2V589.1H184.5v14.7Z" class="g0_284"/>
<path fill-rule="evenodd" d="M184.5,618.5H423.2V603.8H184.5v14.7Z" class="g0_284"/>
<path fill-rule="evenodd" d="M184.8,633.2h238V618.5h-238v14.7Z" class="g0_284"/>
<path fill-rule="evenodd" d="M184.8,647.8h238V633.2h-238v14.6Z" class="g0_284"/>
<path fill-rule="evenodd" d="M184.8,662.5h238V647.8h-238v14.7Z" class="g0_284"/>
<path fill-rule="evenodd" d="M184.8,677.2h238V662.5h-238v14.7Z" class="g0_284"/>
<path fill-rule="evenodd" d="M184.1,692.2H422.8V677.5H184.1v14.7Z" class="g0_284"/>
<path fill-rule="evenodd" d="M184.1,706.9H422.8V692.2H184.1v14.7Z" class="g0_284"/>
<path fill-rule="evenodd" d="M184.1,721.5H422.8V706.9H184.1v14.6Z" class="g0_284"/>
<path fill-rule="evenodd" d="M184.1,736.2H422.8V721.5H184.1v14.7Z" class="g0_284"/>
<path fill-rule="evenodd" d="M184.1,750.9H422.8V736.2H184.1v14.7Z" class="g0_284"/>
<path fill-rule="evenodd" d="M184.8,765.9H423.2V751.2H184.8v14.7Z" class="g0_284"/>
<path fill-rule="evenodd" d="M184.8,780.6H423.2V765.9H184.8v14.7Z" class="g0_284"/>
<path fill-rule="evenodd" d="M184.1,795.2H423.2V780.6H184.1v14.6Z" class="g0_284"/>
<path fill-rule="evenodd" d="M184.1,809.9H423.2V795.2H184.1v14.7Z" class="g0_284"/>
<path fill-rule="evenodd" d="M184.1,824.6H423.2V809.9H184.1v14.7Z" class="g0_284"/>
<path fill-rule="evenodd" d="M184.1,839.3H423.6V824.6H184.1v14.7Z" class="g0_284"/>
<path fill-rule="evenodd" d="M184.1,853.9H423.6V839.3H184.1v14.6Z" class="g0_284"/>
<path fill-rule="evenodd" d="M184.1,868.6H423.6V853.9H184.1v14.7Z" class="g0_284"/>
<path fill-rule="evenodd" d="M184.1,883.3H423.6V868.6H184.1v14.7Z" class="g0_284"/>
<path fill-rule="evenodd" d="M184.1,897.9H423.6V883.3H184.1v14.6Z" class="g0_284"/>
<path fill-rule="evenodd" d="M203.9,912.6H424.3V897.9H203.9v14.7Z" class="g0_284"/>
<path fill-rule="evenodd" d="M462.7,161.4H683.8V146.7H462.7v14.7Z" class="g0_284"/>
<path fill-rule="evenodd" d="M444.3,176.4H683.8V161.7H444.3v14.7Z" class="g0_284"/>
<path fill-rule="evenodd" d="M444.3,191.1H683.8V176.4H444.3v14.7Z" class="g0_284"/>
<path fill-rule="evenodd" d="M444.3,205.7H683.8V191.1H444.3v14.6Z" class="g0_284"/>
<path fill-rule="evenodd" d="M444.3,220.4H683.8V205.7H444.3v14.7Z" class="g0_284"/>
<path fill-rule="evenodd" d="M444.3,235.1H683.8V220.4H444.3v14.7Z" class="g0_284"/>
<path fill-rule="evenodd" d="M444.3,249.7H683.8V235.1H444.3v14.6Z" class="g0_284"/>
<path fill-rule="evenodd" d="M444.3,264.9H683.1V250.1H444.3v14.8Z" class="g0_284"/>
<path fill-rule="evenodd" d="M444.3,279.6H683.1V264.9H444.3v14.7Z" class="g0_284"/>
<path fill-rule="evenodd" d="M444.3,294.3H683.1V279.6H444.3v14.7Z" class="g0_284"/>
<path fill-rule="evenodd" d="M444.3,308.9H683.1V294.3H444.3v14.6Z" class="g0_284"/>
<path fill-rule="evenodd" d="M443.9,323.6H683.4V308.9H443.9v14.7Z" class="g0_284"/>
<path fill-rule="evenodd" d="M443.9,338.3H683.4V323.6H443.9v14.7Z" class="g0_284"/>
<path fill-rule="evenodd" d="M443.9,353H683.4V338.3H443.9V353Z" class="g0_284"/>
<path fill-rule="evenodd" d="M443.9,367.7H683.4V353H443.9v14.7Z" class="g0_284"/>
<path fill-rule="evenodd" d="M443.9,382.3H683.4V367.7H443.9v14.6Z" class="g0_284"/>
<path fill-rule="evenodd" d="M444.3,397H683.4V382.3H444.3V397Z" class="g0_284"/>
<path fill-rule="evenodd" d="M444.3,411.7H683.4V397H444.3v14.7Z" class="g0_284"/>
<path fill-rule="evenodd" d="M444.3,426.3H683.4V411.7H444.3v14.6Z" class="g0_284"/>
<path fill-rule="evenodd" d="M444.3,441H683.4V426.3H444.3V441Z" class="g0_284"/>
<path fill-rule="evenodd" d="M444.3,456h238V441.4h-238V456Z" class="g0_284"/>
<path fill-rule="evenodd" d="M444.3,470.7h238V456h-238v14.7Z" class="g0_284"/>
<path fill-rule="evenodd" d="M444.3,485.4h238V470.7h-238v14.7Z" class="g0_284"/>
<path fill-rule="evenodd" d="M444.3,500h238V485.4h-238V500Z" class="g0_284"/>
<path fill-rule="evenodd" d="M443.9,514.7H682.3V500H443.9v14.7Z" class="g0_284"/>
<path fill-rule="evenodd" d="M443.9,529.4H682.3V514.7H443.9v14.7Z" class="g0_284"/>
<path fill-rule="evenodd" d="M443.9,544H682.7V529.4H443.9V544Z" class="g0_284"/>
<path fill-rule="evenodd" d="M443.9,558.7H682.7V544H443.9v14.7Z" class="g0_284"/>
<path fill-rule="evenodd" d="M443.9,573.4H682V558.7H443.9v14.7Z" class="g0_284"/>
<path fill-rule="evenodd" d="M443.9,588H682V573.4H443.9V588Z" class="g0_284"/>
<path fill-rule="evenodd" d="M461.9,603.1H683.8V588.4H461.9v14.7Z" class="g0_284"/>
<path fill-rule="evenodd" d="M461.9,617.8H683.8V603.1H461.9v14.7Z" class="g0_284"/>
<path fill-rule="evenodd" d="M443.2,632.8H682.7V618.1H443.2v14.7Z" class="g0_284"/>
<path fill-rule="evenodd" d="M443.2,647.5H682.7V632.8H443.2v14.7Z" class="g0_284"/>
<path fill-rule="evenodd" d="M443.2,662.1H682.7V647.5H443.2v14.6Z" class="g0_284"/>
<path fill-rule="evenodd" d="M442.8,677.2H682.3V662.5H442.8v14.7Z" class="g0_284"/>
<path fill-rule="evenodd" d="M442.8,691.8H682.3V677.2H442.8v14.6Z" class="g0_284"/>
<path fill-rule="evenodd" d="M442.8,706.5H682.3V691.8H442.8v14.7Z" class="g0_284"/>
<path fill-rule="evenodd" d="M443.2,721.5H682V706.9H443.2v14.6Z" class="g0_284"/>
<path fill-rule="evenodd" d="M443.2,736.2H682V721.5H443.2v14.7Z" class="g0_284"/>
<path fill-rule="evenodd" d="M443.2,751.6H682.3V736.9H443.2v14.7Z" class="g0_284"/>
<path fill-rule="evenodd" d="M443.2,766.3H682.3V751.6H443.2v14.7Z" class="g0_284"/>
<path fill-rule="evenodd" d="M442.8,780.9H681.6V766.3H442.8v14.6Z" class="g0_284"/>
<path fill-rule="evenodd" d="M442.8,795.6H681.6V780.9H442.8v14.7Z" class="g0_284"/>
<path fill-rule="evenodd" d="M442.8,810.3H681.6V795.6H442.8v14.7Z" class="g0_284"/>
<path fill-rule="evenodd" d="M443.2,824.9H681.6V810.3H443.2v14.6Z" class="g0_284"/>
<path fill-rule="evenodd" d="M443.2,839.6H681.6V824.9H443.2v14.7Z" class="g0_284"/>
<path fill-rule="evenodd" d="M442.8,854.3H682V839.6H442.8v14.7Z" class="g0_284"/>
<path fill-rule="evenodd" d="M442.8,869H682V854.3H442.8V869Z" class="g0_284"/>
<path fill-rule="evenodd" d="M420.3,929.5H686.2V913.7H420.3v15.8Z" class="g0_284"/>
<path d="M164.6,406.3V491" class="g1_284"/>
<path d="M432.3,146.4V914.5" class="g2_284"/>
</svg>