<?xml version="1.0" encoding="UTF-8" standalone="no"?>
<!DOCTYPE svg PUBLIC "-//W3C//DTD SVG 1.1//EN"
"http://www.w3.org/Graphics/SVG/1.1/DTD/svg11.dtd">
<svg viewBox="0 0 909 1285" version="1.1" xmlns="http://www.w3.org/2000/svg" xmlns:xlink="http://www.w3.org/1999/xlink">
<defs>
<style type="text/css"><![CDATA[
.g0_265{
fill: #FFFFFF;
}
.g1_265{
fill: none;
stroke: #000000;
stroke-width: 0.763;
stroke-linecap: butt;
stroke-linejoin: round;
}
.g2_265{
fill: none;
stroke: #000000;
stroke-width: 0.381;
stroke-linecap: butt;
stroke-linejoin: round;
}
]]></style>
</defs>
<path fill-rule="evenodd" d="M260.5,134.6h501V110h-501v24.6Z" class="g0_265"/>
<path fill-rule="evenodd" d="M260.5,168.7H500.8v-15H260.5v15Z" class="g0_265"/>
<path fill-rule="evenodd" d="M260.5,183.7H500.8v-15H260.5v15Z" class="g0_265"/>
<path fill-rule="evenodd" d="M278.9,198.9H501.2V183.7H278.9v15.2Z" class="g0_265"/>
<path fill-rule="evenodd" d="M260.2,214h241V198.9h-241V214Z" class="g0_265"/>
<path fill-rule="evenodd" d="M260.2,229h241V214h-241v15Z" class="g0_265"/>
<path fill-rule="evenodd" d="M260.2,244h241V229h-241v15Z" class="g0_265"/>
<path fill-rule="evenodd" d="M260.2,259.1h241V244h-241v15.1Z" class="g0_265"/>
<path fill-rule="evenodd" d="M260.2,274.1h241v-15h-241v15Z" class="g0_265"/>
<path fill-rule="evenodd" d="M260.5,289.1H501.2v-15H260.5v15Z" class="g0_265"/>
<path fill-rule="evenodd" d="M260.5,304.2H501.2V289.1H260.5v15.1Z" class="g0_265"/>
<path fill-rule="evenodd" d="M260.5,319.2H501.2v-15H260.5v15Z" class="g0_265"/>
<path fill-rule="evenodd" d="M260.2,334.2H500.8v-15H260.2v15Z" class="g0_265"/>
<path fill-rule="evenodd" d="M260.2,349.3H500.8V334.2H260.2v15.1Z" class="g0_265"/>
<path fill-rule="evenodd" d="M259.8,364.5H500.4V349.3H259.8v15.2Z" class="g0_265"/>
<path fill-rule="evenodd" d="M259.8,379.6H500.4V364.5H259.8v15.1Z" class="g0_265"/>
<path fill-rule="evenodd" d="M259.8,394.6H500.4v-15H259.8v15Z" class="g0_265"/>
<path fill-rule="evenodd" d="M259.8,409.6H500.4v-15H259.8v15Z" class="g0_265"/>
<path fill-rule="evenodd" d="M260.2,425H500.1V410H260.2v15Z" class="g0_265"/>
<path fill-rule="evenodd" d="M260.2,440.1H500.1V425H260.2v15.1Z" class="g0_265"/>
<path fill-rule="evenodd" d="M259.4,455.1h241v-15h-241v15Z" class="g0_265"/>
<path fill-rule="evenodd" d="M259.4,470.1h241v-15h-241v15Z" class="g0_265"/>
<path fill-rule="evenodd" d="M259.4,485.2h241V470.1h-241v15.1Z" class="g0_265"/>
<path fill-rule="evenodd" d="M259.4,500.2h241v-15h-241v15Z" class="g0_265"/>
<path fill-rule="evenodd" d="M259.4,515.2h241v-15h-241v15Z" class="g0_265"/>
<path fill-rule="evenodd" d="M259.4,530.5h241V515.2h-241v15.3Z" class="g0_265"/>
<path fill-rule="evenodd" d="M278.2,545.9h223V530.8h-223v15.1Z" class="g0_265"/>
<path fill-rule="evenodd" d="M278.2,560.9h223v-15h-223v15Z" class="g0_265"/>
<path fill-rule="evenodd" d="M259.4,575.9H500.1v-15H259.4v15Z" class="g0_265"/>
<path fill-rule="evenodd" d="M259.4,591H500.1V575.9H259.4V591Z" class="g0_265"/>
<path fill-rule="evenodd" d="M259.4,606H500.1V591H259.4v15Z" class="g0_265"/>
<path fill-rule="evenodd" d="M259.8,621.1H500.4V606H259.8v15.1Z" class="g0_265"/>
<path fill-rule="evenodd" d="M259.8,636.1H500.4v-15H259.8v15Z" class="g0_265"/>
<path fill-rule="evenodd" d="M259.8,651.1H500.4v-15H259.8v15Z" class="g0_265"/>
<path fill-rule="evenodd" d="M259.8,666.2H500.4V651.1H259.8v15.1Z" class="g0_265"/>
<path fill-rule="evenodd" d="M259.4,681.2H499.7v-15H259.4v15Z" class="g0_265"/>
<path fill-rule="evenodd" d="M259.4,696.4H499.7V681.2H259.4v15.2Z" class="g0_265"/>
<path fill-rule="evenodd" d="M259.4,711.4H499.7v-15H259.4v15Z" class="g0_265"/>
<path fill-rule="evenodd" d="M259.4,726.5H499.7V711.4H259.4v15.1Z" class="g0_265"/>
<path fill-rule="evenodd" d="M259.4,741.9H499.7V726.5H259.4v15.4Z" class="g0_265"/>
<path fill-rule="evenodd" d="M259.4,756.9H499.7v-15H259.4v15Z" class="g0_265"/>
<path fill-rule="evenodd" d="M259.1,772.3h241v-15h-241v15Z" class="g0_265"/>
<path fill-rule="evenodd" d="M259.1,787.3h241v-15h-241v15Z" class="g0_265"/>
<path fill-rule="evenodd" d="M259.1,802.4h241V787.3h-241v15.1Z" class="g0_265"/>
<path fill-rule="evenodd" d="M259.4,817.4H500.1v-15H259.4v15Z" class="g0_265"/>
<path fill-rule="evenodd" d="M259.4,832.5H500.1V817.4H259.4v15.1Z" class="g0_265"/>
<path fill-rule="evenodd" d="M259.4,847.7H500.1V832.5H259.4v15.2Z" class="g0_265"/>
<path fill-rule="evenodd" d="M259.4,862.7H500.1v-15H259.4v15Z" class="g0_265"/>
<path fill-rule="evenodd" d="M259.1,877.8h241V862.7h-241v15.1Z" class="g0_265"/>
<path fill-rule="evenodd" d="M259.1,892.8h241v-15h-241v15Z" class="g0_265"/>
<path fill-rule="evenodd" d="M261.3,907.8H500.4v-15H261.3v15Z" class="g0_265"/>
<path fill-rule="evenodd" d="M521.7,169.1H760.8V154H521.7v15.1Z" class="g0_265"/>
<path fill-rule="evenodd" d="M521.7,184.3H760.8V169.1H521.7v15.2Z" class="g0_265"/>
<path fill-rule="evenodd" d="M539.7,199.3H761.5v-15H539.7v15Z" class="g0_265"/>
<path fill-rule="evenodd" d="M539.3,214.3H761.5v-15H539.3v15Z" class="g0_265"/>
<path fill-rule="evenodd" d="M539.7,229.4H761.5V214.3H539.7v15.1Z" class="g0_265"/>
<path fill-rule="evenodd" d="M521,244.4H761.5v-15H521v15Z" class="g0_265"/>
<path fill-rule="evenodd" d="M521,259.4H761.5v-15H521v15Z" class="g0_265"/>
<path fill-rule="evenodd" d="M521,274.5H761.5V259.4H521v15.1Z" class="g0_265"/>
<path fill-rule="evenodd" d="M521,289.5H761.5v-15H521v15Z" class="g0_265"/>
<path fill-rule="evenodd" d="M521,304.5H761.5v-15H521v15Z" class="g0_265"/>
<path fill-rule="evenodd" d="M521,319.6H761.5V304.5H521v15.1Z" class="g0_265"/>
<path fill-rule="evenodd" d="M521,334.6H761.5v-15H521v15Z" class="g0_265"/>
<path fill-rule="evenodd" d="M539.3,349.6H761.5v-15H539.3v15Z" class="g0_265"/>
<path fill-rule="evenodd" d="M539.3,364.9H761.5V349.7H539.3v15.2Z" class="g0_265"/>
<path fill-rule="evenodd" d="M519.9,379.9H760.4v-15H519.9v15Z" class="g0_265"/>
<path fill-rule="evenodd" d="M519.9,395H760.4V379.9H519.9V395Z" class="g0_265"/>
<path fill-rule="evenodd" d="M520.6,410H629.5V395H520.6v15Z" class="g0_265"/>
<path fill-rule="evenodd" d="M520.6,425H629.5V410H520.6v15Z" class="g0_265"/>
<path fill-rule="evenodd" d="M538.9,440.1H761.5V425H538.9v15.1Z" class="g0_265"/>
<path fill-rule="evenodd" d="M538.9,455.1H761.5v-15H538.9v15Z" class="g0_265"/>
<path fill-rule="evenodd" d="M538.9,470.1H761.5v-15H538.9v15Z" class="g0_265"/>
<path fill-rule="evenodd" d="M519.5,485.5H760.4v-15H519.5v15Z" class="g0_265"/>
<path fill-rule="evenodd" d="M519.5,500.6H760.4V485.5H519.5v15.1Z" class="g0_265"/>
<path fill-rule="evenodd" d="M519.5,515.8H760.4V500.6H519.5v15.2Z" class="g0_265"/>
<path fill-rule="evenodd" d="M538.6,530.8H761.5v-15H538.6v15Z" class="g0_265"/>
<path fill-rule="evenodd" d="M538.6,545.9H761.5V530.8H538.6v15.1Z" class="g0_265"/>
<path fill-rule="evenodd" d="M538.6,560.9H761.5v-15H538.6v15Z" class="g0_265"/>
<path fill-rule="evenodd" d="M519.9,575.9H760.8v-15H519.9v15Z" class="g0_265"/>
<path fill-rule="evenodd" d="M519.9,591H760.8V575.9H519.9V591Z" class="g0_265"/>
<path fill-rule="evenodd" d="M519.9,606H760.8V591H519.9v15Z" class="g0_265"/>
<path fill-rule="evenodd" d="M520.2,621.1H760.4V606H520.2v15.1Z" class="g0_265"/>
<path fill-rule="evenodd" d="M520.2,636.1H760.4v-15H520.2v15Z" class="g0_265"/>
<path fill-rule="evenodd" d="M520.2,651.1H760.4v-15H520.2v15Z" class="g0_265"/>
<path fill-rule="evenodd" d="M520.2,666.2H760.4V651.1H520.2v15.1Z" class="g0_265"/>
<path fill-rule="evenodd" d="M519.9,681.7H760.4V666.5H519.9v15.2Z" class="g0_265"/>
<path fill-rule="evenodd" d="M519.9,696.8H760.4V681.7H519.9v15.1Z" class="g0_265"/>
<path fill-rule="evenodd" d="M519.9,711.8H760.4v-15H519.9v15Z" class="g0_265"/>
<path fill-rule="evenodd" d="M519.9,726.8H760.4v-15H519.9v15Z" class="g0_265"/>
<path fill-rule="evenodd" d="M519.9,741.9H760.4V726.8H519.9v15.1Z" class="g0_265"/>
<path fill-rule="evenodd" d="M519.9,756.9H760.4v-15H519.9v15Z" class="g0_265"/>
<path fill-rule="evenodd" d="M519.9,771.9H760.4v-15H519.9v15Z" class="g0_265"/>
<path fill-rule="evenodd" d="M519.9,787H760.4V771.9H519.9V787Z" class="g0_265"/>
<path fill-rule="evenodd" d="M520.2,802H760.1V787H520.2v15Z" class="g0_265"/>
<path fill-rule="evenodd" d="M520.2,817H760.1V802H520.2v15Z" class="g0_265"/>
<path fill-rule="evenodd" d="M520.2,832.1H760.4V817H520.2v15.1Z" class="g0_265"/>
<path fill-rule="evenodd" d="M520.2,847.2H760.4V832.1H520.2v15.1Z" class="g0_265"/>
<path fill-rule="evenodd" d="M520.2,862.4H760.4V847.2H520.2v15.2Z" class="g0_265"/>
<path fill-rule="evenodd" d="M538.6,877.4H761.5v-15H538.6v15Z" class="g0_265"/>
<path fill-rule="evenodd" d="M496.8,924.7H761.5V907.1H496.8v17.6Z" class="g0_265"/>
<path d="M203.3,865v136.1" class="g1_265"/>
<path d="M509.8,154.8V922.5" class="g2_265"/>
</svg>