<?xml version="1.0" encoding="UTF-8" standalone="no"?>
<!DOCTYPE svg PUBLIC "-//W3C//DTD SVG 1.1//EN"
"http://www.w3.org/Graphics/SVG/1.1/DTD/svg11.dtd">
<svg viewBox="0 0 909 1285" version="1.1" xmlns="http://www.w3.org/2000/svg" xmlns:xlink="http://www.w3.org/1999/xlink">
<defs>
<style type="text/css"><![CDATA[
.g0_285{
fill: #FFFFFF;
}
.g1_285{
fill: none;
stroke: #000000;
stroke-width: 0.381;
stroke-linecap: butt;
stroke-linejoin: round;
}
.g2_285{
fill: none;
stroke: #000000;
stroke-width: 1.451;
stroke-linecap: butt;
stroke-linejoin: round;
}
]]></style>
</defs>
<path fill-rule="evenodd" d="M257.1,125.8H757.7V110H257.1v15.8Z" class="g0_285"/>
<path fill-rule="evenodd" d="M257.1,161.7H496.9v-15H257.1v15Z" class="g0_285"/>
<path fill-rule="evenodd" d="M257.1,176.8H496.9V161.7H257.1v15.1Z" class="g0_285"/>
<path fill-rule="evenodd" d="M257.1,191.8H496.9v-15H257.1v15Z" class="g0_285"/>
<path fill-rule="evenodd" d="M257.1,206.8H496.9v-15H257.1v15Z" class="g0_285"/>
<path fill-rule="evenodd" d="M257.1,221.9H496.9V206.8H257.1v15.1Z" class="g0_285"/>
<path fill-rule="evenodd" d="M257.1,236.9H496.9v-15H257.1v15Z" class="g0_285"/>
<path fill-rule="evenodd" d="M257.1,252.1H496.9V236.9H257.1v15.2Z" class="g0_285"/>
<path fill-rule="evenodd" d="M257.1,267.1H496.6v-15H257.1v15Z" class="g0_285"/>
<path fill-rule="evenodd" d="M517.5,160.3H757.3V145.2H517.5v15.1Z" class="g0_285"/>
<path fill-rule="evenodd" d="M517.5,175.3H757.3v-15H517.5v15Z" class="g0_285"/>
<path fill-rule="evenodd" d="M517.5,190.3H757.3v-15H517.5v15Z" class="g0_285"/>
<path fill-rule="evenodd" d="M517.8,205.4H757.7V190.3H517.8v15.1Z" class="g0_285"/>
<path fill-rule="evenodd" d="M517.8,220.4H757.7v-15H517.8v15Z" class="g0_285"/>
<path fill-rule="evenodd" d="M517.5,235.6H757.7V220.4H517.5v15.2Z" class="g0_285"/>
<path fill-rule="evenodd" d="M517.5,251.4H757.7V235.6H517.5v15.8Z" class="g0_285"/>
<path fill-rule="evenodd" d="M517.5,266.4H757.7v-15H517.5v15Z" class="g0_285"/>
<path fill-rule="evenodd" d="M492.2,333.9H757.7V309.7H492.2v24.2Z" class="g0_285"/>
<path fill-rule="evenodd" d="M275.8,368.8H496.9V354.1H275.8v14.7Z" class="g0_285"/>
<path fill-rule="evenodd" d="M256.7,383.4H496.9V368.8H256.7v14.6Z" class="g0_285"/>
<path fill-rule="evenodd" d="M256.7,398.1H496.9V383.4H256.7v14.7Z" class="g0_285"/>
<path fill-rule="evenodd" d="M256.7,412.8H496.9V398.1H256.7v14.7Z" class="g0_285"/>
<path fill-rule="evenodd" d="M275.1,427.4H496.9V412.8H275.1v14.6Z" class="g0_285"/>
<path fill-rule="evenodd" d="M256.7,442.8H496.6V428.2H256.7v14.6Z" class="g0_285"/>
<path fill-rule="evenodd" d="M256.7,457.5H496.6V442.8H256.7v14.7Z" class="g0_285"/>
<path fill-rule="evenodd" d="M256,472.5H496.6V457.9H256v14.6Z" class="g0_285"/>
<path fill-rule="evenodd" d="M256,487.2H496.6V472.5H256v14.7Z" class="g0_285"/>
<path fill-rule="evenodd" d="M256,501.9H496.6V487.2H256v14.7Z" class="g0_285"/>
<path fill-rule="evenodd" d="M256,516.5H496.6V501.9H256v14.6Z" class="g0_285"/>
<path fill-rule="evenodd" d="M256,531.2H496.6V516.5H256v14.7Z" class="g0_285"/>
<path fill-rule="evenodd" d="M256,545.9H496.6V531.2H256v14.7Z" class="g0_285"/>
<path fill-rule="evenodd" d="M256,560.5H496.6V545.9H256v14.6Z" class="g0_285"/>
<path fill-rule="evenodd" d="M256,575.2H496.6V560.5H256v14.7Z" class="g0_285"/>
<path fill-rule="evenodd" d="M256,589.9H496.6V575.2H256v14.7Z" class="g0_285"/>
<path fill-rule="evenodd" d="M256,604.6H496.2V589.9H256v14.7Z" class="g0_285"/>
<path fill-rule="evenodd" d="M256,619.2H496.2V604.6H256v14.6Z" class="g0_285"/>
<path fill-rule="evenodd" d="M256,633.9H496.2V619.2H256v14.7Z" class="g0_285"/>
<path fill-rule="evenodd" d="M256,648.6H496.2V633.9H256v14.7Z" class="g0_285"/>
<path fill-rule="evenodd" d="M256,663.2H496.2V648.6H256v14.6Z" class="g0_285"/>
<path fill-rule="evenodd" d="M256,677.9H496.2V663.2H256v14.7Z" class="g0_285"/>
<path fill-rule="evenodd" d="M256,692.6H496.2V677.9H256v14.7Z" class="g0_285"/>
<path fill-rule="evenodd" d="M255.6,707.2H496.2V692.6H255.6v14.6Z" class="g0_285"/>
<path fill-rule="evenodd" d="M255.6,721.9H496.2V707.2H255.6v14.7Z" class="g0_285"/>
<path fill-rule="evenodd" d="M255.6,736.6H496.2V721.9H255.6v14.7Z" class="g0_285"/>
<path fill-rule="evenodd" d="M255.6,751.2H496.2V736.6H255.6v14.6Z" class="g0_285"/>
<path fill-rule="evenodd" d="M255.6,765.9H496.2V751.2H255.6v14.7Z" class="g0_285"/>
<path fill-rule="evenodd" d="M255.6,780.6H496.2V765.9H255.6v14.7Z" class="g0_285"/>
<path fill-rule="evenodd" d="M256,795.2H495.8V780.6H256v14.6Z" class="g0_285"/>
<path fill-rule="evenodd" d="M256,809.9H495.8V795.2H256v14.7Z" class="g0_285"/>
<path fill-rule="evenodd" d="M256,824.6H495.8V809.9H256v14.7Z" class="g0_285"/>
<path fill-rule="evenodd" d="M256,839.3H495.8V824.6H256v14.7Z" class="g0_285"/>
<path fill-rule="evenodd" d="M256,853.9H495.8V839.3H256v14.6Z" class="g0_285"/>
<path fill-rule="evenodd" d="M255.6,869H495.5V854.3H255.6V869Z" class="g0_285"/>
<path fill-rule="evenodd" d="M255.6,883.6H495.5V869H255.6v14.6Z" class="g0_285"/>
<path fill-rule="evenodd" d="M257.1,898.3H496.6V883.6H257.1v14.7Z" class="g0_285"/>
<path fill-rule="evenodd" d="M517.1,368.8H756.9V354.1H517.1v14.7Z" class="g0_285"/>
<path fill-rule="evenodd" d="M517.1,383.4H756.9V368.8H517.1v14.6Z" class="g0_285"/>
<path fill-rule="evenodd" d="M517.1,398.1H756.9V383.4H517.1v14.7Z" class="g0_285"/>
<path fill-rule="evenodd" d="M517.1,412.8H756.9V398.1H517.1v14.7Z" class="g0_285"/>
<path fill-rule="evenodd" d="M517.1,427.8H757.3V413.1H517.1v14.7Z" class="g0_285"/>
<path fill-rule="evenodd" d="M517.1,442.5H757.3V427.8H517.1v14.7Z" class="g0_285"/>
<path fill-rule="evenodd" d="M517.1,457.1H757.3V442.5H517.1v14.6Z" class="g0_285"/>
<path fill-rule="evenodd" d="M517.1,471.8H757.3V457.1H517.1v14.7Z" class="g0_285"/>
<path fill-rule="evenodd" d="M517.1,486.5H757.3V471.8H517.1v14.7Z" class="g0_285"/>
<path fill-rule="evenodd" d="M517.5,501.1H756.6V486.5H517.5v14.6Z" class="g0_285"/>
<path fill-rule="evenodd" d="M517.5,515.8H756.6V501.1H517.5v14.7Z" class="g0_285"/>
<path fill-rule="evenodd" d="M516.7,530.5H756.9V515.8H516.7v14.7Z" class="g0_285"/>
<path fill-rule="evenodd" d="M516.7,545.1H756.9V530.5H516.7v14.6Z" class="g0_285"/>
<path fill-rule="evenodd" d="M516.7,559.8H756.9V545.1H516.7v14.7Z" class="g0_285"/>
<path fill-rule="evenodd" d="M516.7,574.8H756.6V560.2H516.7v14.6Z" class="g0_285"/>
<path fill-rule="evenodd" d="M516.7,589.5H756.6V574.8H516.7v14.7Z" class="g0_285"/>
<path fill-rule="evenodd" d="M516.7,604.2H756.6V589.5H516.7v14.7Z" class="g0_285"/>
<path fill-rule="evenodd" d="M516.7,619.6H756.6V604.2H516.7v15.4Z" class="g0_285"/>
<path fill-rule="evenodd" d="M516.7,634.3H756.6V619.6H516.7v14.7Z" class="g0_285"/>
<path fill-rule="evenodd" d="M516.4,649.7H756.9V635H516.4v14.7Z" class="g0_285"/>
<path fill-rule="evenodd" d="M516.4,664.3H756.9V649.7H516.4v14.6Z" class="g0_285"/>
<path fill-rule="evenodd" d="M516.4,679H756.9V664.3H516.4V679Z" class="g0_285"/>
<path fill-rule="evenodd" d="M516.4,693.7H756.9V679H516.4v14.7Z" class="g0_285"/>
<path fill-rule="evenodd" d="M516,709.2H756.6V694.4H516v14.8Z" class="g0_285"/>
<path fill-rule="evenodd" d="M516,723.9H756.6V709.2H516v14.7Z" class="g0_285"/>
<path fill-rule="evenodd" d="M516,738.6H756.6V723.9H516v14.7Z" class="g0_285"/>
<path fill-rule="evenodd" d="M516,753.2H756.6V738.6H516v14.6Z" class="g0_285"/>
<path fill-rule="evenodd" d="M516.4,768.6H756.6V754H516.4v14.6Z" class="g0_285"/>
<path fill-rule="evenodd" d="M516.4,783.3H756.6V768.6H516.4v14.7Z" class="g0_285"/>
<path fill-rule="evenodd" d="M516,798.3H756.2V783.7H516v14.6Z" class="g0_285"/>
<path fill-rule="evenodd" d="M516,813H756.2V798.3H516V813Z" class="g0_285"/>
<path fill-rule="evenodd" d="M516,827.7H756.2V813H516v14.7Z" class="g0_285"/>
<path fill-rule="evenodd" d="M515.6,842.8H756.9V828H515.6v14.8Z" class="g0_285"/>
<path fill-rule="evenodd" d="M515.6,857.4H756.9V842.8H515.6v14.6Z" class="g0_285"/>
<path fill-rule="evenodd" d="M516.4,872.1H755.8V857.4H516.4v14.7Z" class="g0_285"/>
<path fill-rule="evenodd" d="M516.4,886.8H755.8V872.1H516.4v14.7Z" class="g0_285"/>
<path fill-rule="evenodd" d="M492.9,917.6H757.7V900H492.9v17.6Z" class="g0_285"/>
<path d="M200.6,96.1V226.3M507.1,146.7V267.3" class="g1_285"/>
<path d="M176.8,844.6v159.8" class="g2_285"/>
<path d="M506.4,355.4V910.9" class="g1_285"/>
</svg>