<?xml version="1.0" encoding="UTF-8" standalone="no"?>
<!DOCTYPE svg PUBLIC "-//W3C//DTD SVG 1.1//EN"
"http://www.w3.org/Graphics/SVG/1.1/DTD/svg11.dtd">
<svg viewBox="0 0 909 1285" version="1.1" xmlns="http://www.w3.org/2000/svg" xmlns:xlink="http://www.w3.org/1999/xlink">
<defs>
<style type="text/css"><![CDATA[
.g0_46{
fill: #FFFFFF;
}
.g1_46{
fill: none;
stroke: #000000;
stroke-width: 0.381;
stroke-linecap: butt;
stroke-linejoin: round;
}
]]></style>
</defs>
<path fill-rule="evenodd" d="M522.1,125.8H689.3V110H522.1v15.8Z" class="g0_46"/>
<path fill-rule="evenodd" d="M189.4,161.7H427.8v-15H189.4v15Z" class="g0_46"/>
<path fill-rule="evenodd" d="M189.4,176.9H427.8V161.7H189.4v15.2Z" class="g0_46"/>
<path fill-rule="evenodd" d="M188.3,192H428.1V176.9H188.3V192Z" class="g0_46"/>
<path fill-rule="evenodd" d="M188.3,207H428.1V192H188.3v15Z" class="g0_46"/>
<path fill-rule="evenodd" d="M188.3,222H428.1V207H188.3v15Z" class="g0_46"/>
<path fill-rule="evenodd" d="M188.3,237.1H428.1V222H188.3v15.1Z" class="g0_46"/>
<path fill-rule="evenodd" d="M188.3,252.1H427.8v-15H188.3v15Z" class="g0_46"/>
<path fill-rule="evenodd" d="M188.3,267.1H427.8v-15H188.3v15Z" class="g0_46"/>
<path fill-rule="evenodd" d="M188.3,282.2H427.8V267.1H188.3v15.1Z" class="g0_46"/>
<path fill-rule="evenodd" d="M206.6,297.2H428.1v-15H206.6v15Z" class="g0_46"/>
<path fill-rule="evenodd" d="M206.3,312.2H428.1v-15H206.3v15Z" class="g0_46"/>
<path fill-rule="evenodd" d="M206.6,327.3H428.1V312.2H206.6v15.1Z" class="g0_46"/>
<path fill-rule="evenodd" d="M188.3,342.5H428.1V327.3H188.3v15.2Z" class="g0_46"/>
<path fill-rule="evenodd" d="M188.3,357.6H428.1V342.5H188.3v15.1Z" class="g0_46"/>
<path fill-rule="evenodd" d="M187.2,373H427.8V357.9H187.2V373Z" class="g0_46"/>
<path fill-rule="evenodd" d="M187.2,388H427.8V373H187.2v15Z" class="g0_46"/>
<path fill-rule="evenodd" d="M187.2,403H427.8V388H187.2v15Z" class="g0_46"/>
<path fill-rule="evenodd" d="M187.2,418.1H427.8V403H187.2v15.1Z" class="g0_46"/>
<path fill-rule="evenodd" d="M187.2,433.1H427.8v-15H187.2v15Z" class="g0_46"/>
<path fill-rule="evenodd" d="M187.2,448.1H427.8v-15H187.2v15Z" class="g0_46"/>
<path fill-rule="evenodd" d="M187.2,463.2H427.8V448.1H187.2v15.1Z" class="g0_46"/>
<path fill-rule="evenodd" d="M187.2,478.2H427.8v-15H187.2v15Z" class="g0_46"/>
<path fill-rule="evenodd" d="M186.1,493.2H427v-15H186.1v15Z" class="g0_46"/>
<path fill-rule="evenodd" d="M186.1,508.5H427V493.2H186.1v15.3Z" class="g0_46"/>
<path fill-rule="evenodd" d="M186.1,523.5H427v-15H186.1v15Z" class="g0_46"/>
<path fill-rule="evenodd" d="M186.1,538.5H427v-15H186.1v15Z" class="g0_46"/>
<path fill-rule="evenodd" d="M186.1,553.6H427V538.5H186.1v15.1Z" class="g0_46"/>
<path fill-rule="evenodd" d="M186.1,568.6H427v-15H186.1v15Z" class="g0_46"/>
<path fill-rule="evenodd" d="M186.1,583.6H427v-15H186.1v15Z" class="g0_46"/>
<path fill-rule="evenodd" d="M186.1,598.7H427V583.6H186.1v15.1Z" class="g0_46"/>
<path fill-rule="evenodd" d="M186.1,613.7H427v-15H186.1v15Z" class="g0_46"/>
<path fill-rule="evenodd" d="M186.1,628.8H427V613.7H186.1v15.1Z" class="g0_46"/>
<path fill-rule="evenodd" d="M186.1,643.8H427v-15H186.1v15Z" class="g0_46"/>
<path fill-rule="evenodd" d="M186.1,658.8H427v-15H186.1v15Z" class="g0_46"/>
<path fill-rule="evenodd" d="M186.1,673.9H427V658.8H186.1v15.1Z" class="g0_46"/>
<path fill-rule="evenodd" d="M186.1,689.1H427V673.9H186.1v15.2Z" class="g0_46"/>
<path fill-rule="evenodd" d="M186.1,704.1H427v-15H186.1v15Z" class="g0_46"/>
<path fill-rule="evenodd" d="M186.1,719.1H427v-15H186.1v15Z" class="g0_46"/>
<path fill-rule="evenodd" d="M186.1,734.2H427V719.1H186.1v15.1Z" class="g0_46"/>
<path fill-rule="evenodd" d="M185.7,749.2H426.3v-15H185.7v15Z" class="g0_46"/>
<path fill-rule="evenodd" d="M185.7,764.2H426.3v-15H185.7v15Z" class="g0_46"/>
<path fill-rule="evenodd" d="M185.7,779.3H426.3V764.2H185.7v15.1Z" class="g0_46"/>
<path fill-rule="evenodd" d="M185.7,794.3H426.3v-15H185.7v15Z" class="g0_46"/>
<path fill-rule="evenodd" d="M185.7,809.3H426.3v-15H185.7v15Z" class="g0_46"/>
<path fill-rule="evenodd" d="M185.7,824.4H426.3V809.3H185.7v15.1Z" class="g0_46"/>
<path fill-rule="evenodd" d="M185.7,839.5H426.3V824.4H185.7v15.1Z" class="g0_46"/>
<path fill-rule="evenodd" d="M185.7,854.5H426.3v-15H185.7v15Z" class="g0_46"/>
<path fill-rule="evenodd" d="M185.7,869.7H426.3V854.5H185.7v15.2Z" class="g0_46"/>
<path fill-rule="evenodd" d="M185.7,884.7H426.3v-15H185.7v15Z" class="g0_46"/>
<path fill-rule="evenodd" d="M185.7,899.8H426.3V884.7H185.7v15.1Z" class="g0_46"/>
<path fill-rule="evenodd" d="M187.9,914.8H428.1v-15H187.9v15Z" class="g0_46"/>
<path fill-rule="evenodd" d="M448,161.7H689.3v-15H448v15Z" class="g0_46"/>
<path fill-rule="evenodd" d="M448,176.9H689.3V161.7H448v15.2Z" class="g0_46"/>
<path fill-rule="evenodd" d="M448,192H689.3V176.9H448V192Z" class="g0_46"/>
<path fill-rule="evenodd" d="M448,207H689.3V192H448v15Z" class="g0_46"/>
<path fill-rule="evenodd" d="M448,222H689.3V207H448v15Z" class="g0_46"/>
<path fill-rule="evenodd" d="M448,237.1H689.3V222H448v15.1Z" class="g0_46"/>
<path fill-rule="evenodd" d="M448,252.1H689.3v-15H448v15Z" class="g0_46"/>
<path fill-rule="evenodd" d="M448,267.1H689.3v-15H448v15Z" class="g0_46"/>
<path fill-rule="evenodd" d="M448,282.2H689.3V267.1H448v15.1Z" class="g0_46"/>
<path fill-rule="evenodd" d="M448,297.2H689.3v-15H448v15Z" class="g0_46"/>
<path fill-rule="evenodd" d="M448,312.2H689.3v-15H448v15Z" class="g0_46"/>
<path fill-rule="evenodd" d="M448,327.3H689.3V312.2H448v15.1Z" class="g0_46"/>
<path fill-rule="evenodd" d="M448,342.5H689.3V327.3H448v15.2Z" class="g0_46"/>
<path fill-rule="evenodd" d="M448,357.6H689.3V342.5H448v15.1Z" class="g0_46"/>
<path fill-rule="evenodd" d="M448,372.6H689.3v-15H448v15Z" class="g0_46"/>
<path fill-rule="evenodd" d="M448,387.6H689.3v-15H448v15Z" class="g0_46"/>
<path fill-rule="evenodd" d="M448,402.7H689.3V387.6H448v15.1Z" class="g0_46"/>
<path fill-rule="evenodd" d="M448,417.7H689.3v-15H448v15Z" class="g0_46"/>
<path fill-rule="evenodd" d="M447.2,432.7h241v-15h-241v15Z" class="g0_46"/>
<path fill-rule="evenodd" d="M447.2,447.8h241V432.7h-241v15.1Z" class="g0_46"/>
<path fill-rule="evenodd" d="M447.2,462.8h241v-15h-241v15Z" class="g0_46"/>
<path fill-rule="evenodd" d="M447.2,477.8h241v-15h-241v15Z" class="g0_46"/>
<path fill-rule="evenodd" d="M447.2,492.9h241V477.8h-241v15.1Z" class="g0_46"/>
<path fill-rule="evenodd" d="M447.2,507.9h241v-15h-241v15Z" class="g0_46"/>
<path fill-rule="evenodd" d="M447.2,523.1h241V507.9h-241v15.2Z" class="g0_46"/>
<path fill-rule="evenodd" d="M447.2,538.2h241V523.1h-241v15.1Z" class="g0_46"/>
<path fill-rule="evenodd" d="M447.2,553.2h241v-15h-241v15Z" class="g0_46"/>
<path fill-rule="evenodd" d="M447.2,568.2h241v-15h-241v15Z" class="g0_46"/>
<path fill-rule="evenodd" d="M446.9,583.3H687.5V568.2H446.9v15.1Z" class="g0_46"/>
<path fill-rule="evenodd" d="M446.9,598.3H687.5v-15H446.9v15Z" class="g0_46"/>
<path fill-rule="evenodd" d="M446.9,613.4H687.5V598.3H446.9v15.1Z" class="g0_46"/>
<path fill-rule="evenodd" d="M446.9,628.4H687.5v-15H446.9v15Z" class="g0_46"/>
<path fill-rule="evenodd" d="M446.9,643.4H687.5v-15H446.9v15Z" class="g0_46"/>
<path fill-rule="evenodd" d="M446.9,658.5H687.5V643.4H446.9v15.1Z" class="g0_46"/>
<path fill-rule="evenodd" d="M446.9,673.5H687.5v-15H446.9v15Z" class="g0_46"/>
<path fill-rule="evenodd" d="M446.9,688.5H687.5v-15H446.9v15Z" class="g0_46"/>
<path fill-rule="evenodd" d="M446.5,703.7H689.3V688.5H446.5v15.2Z" class="g0_46"/>
<path fill-rule="evenodd" d="M446.5,718.8H689.3V703.7H446.5v15.1Z" class="g0_46"/>
<path fill-rule="evenodd" d="M446.5,733.8H689.3v-15H446.5v15Z" class="g0_46"/>
<path fill-rule="evenodd" d="M446.5,748.8H689.3v-15H446.5v15Z" class="g0_46"/>
<path fill-rule="evenodd" d="M446.5,763.9H689.3V748.8H446.5v15.1Z" class="g0_46"/>
<path fill-rule="evenodd" d="M445.8,778.9H686.7v-15H445.8v15Z" class="g0_46"/>
<path fill-rule="evenodd" d="M445.8,793.9H686.7v-15H445.8v15Z" class="g0_46"/>
<path fill-rule="evenodd" d="M445.8,809H686.7V793.9H445.8V809Z" class="g0_46"/>
<path fill-rule="evenodd" d="M445.8,824H686.7V809H445.8v15Z" class="g0_46"/>
<path fill-rule="evenodd" d="M445.8,839.1H686.7V824H445.8v15.1Z" class="g0_46"/>
<path fill-rule="evenodd" d="M445.8,854.1H686.7v-15H445.8v15Z" class="g0_46"/>
<path fill-rule="evenodd" d="M445.8,869.2H686.7V854.1H445.8v15.1Z" class="g0_46"/>
<path fill-rule="evenodd" d="M445.8,884.4H686.7V869.2H445.8v15.2Z" class="g0_46"/>
<path fill-rule="evenodd" d="M486.5,992.9H689.3V963.2H486.5v29.7Z" class="g0_46"/>
<path d="M435,146.4V914.9" class="g1_46"/>
</svg>