<?xml version="1.0" encoding="UTF-8" standalone="no"?>
<!DOCTYPE svg PUBLIC "-//W3C//DTD SVG 1.1//EN"
"http://www.w3.org/Graphics/SVG/1.1/DTD/svg11.dtd">
<svg viewBox="0 0 909 1285" version="1.1" xmlns="http://www.w3.org/2000/svg" xmlns:xlink="http://www.w3.org/1999/xlink">
<defs>
<style type="text/css"><![CDATA[
.g0_89{
fill: #FFFFFF;
}
.g1_89{
fill: none;
stroke: #000000;
stroke-width: 0.381;
stroke-linecap: butt;
stroke-linejoin: round;
}
]]></style>
</defs>
<path fill-rule="evenodd" d="M265.7,125.8h501V110h-501v15.8Z" class="g0_89"/>
<path fill-rule="evenodd" d="M265.3,161.7H507V147.1H265.3v14.6Z" class="g0_89"/>
<path fill-rule="evenodd" d="M265.3,176.4H507V161.7H265.3v14.7Z" class="g0_89"/>
<path fill-rule="evenodd" d="M265.3,191.1H507V176.4H265.3v14.7Z" class="g0_89"/>
<path fill-rule="evenodd" d="M265.3,205.7H507V191.1H265.3v14.6Z" class="g0_89"/>
<path fill-rule="evenodd" d="M265.3,220.4H507V205.7H265.3v14.7Z" class="g0_89"/>
<path fill-rule="evenodd" d="M265.3,235.1H507V220.4H265.3v14.7Z" class="g0_89"/>
<path fill-rule="evenodd" d="M265.3,249.7H507V235.1H265.3v14.6Z" class="g0_89"/>
<path fill-rule="evenodd" d="M265.3,264.4H507V249.7H265.3v14.7Z" class="g0_89"/>
<path fill-rule="evenodd" d="M264.9,279.4H505.6V264.8H264.9v14.6Z" class="g0_89"/>
<path fill-rule="evenodd" d="M264.9,294.1H505.6V279.4H264.9v14.7Z" class="g0_89"/>
<path fill-rule="evenodd" d="M265.3,308.8H505.9V294.1H265.3v14.7Z" class="g0_89"/>
<path fill-rule="evenodd" d="M265.3,323.4H505.9V308.8H265.3v14.6Z" class="g0_89"/>
<path fill-rule="evenodd" d="M265.7,338.1h241V323.4h-241v14.7Z" class="g0_89"/>
<path fill-rule="evenodd" d="M265.7,352.8h241V338.1h-241v14.7Z" class="g0_89"/>
<path fill-rule="evenodd" d="M265.7,367.5h241V352.8h-241v14.7Z" class="g0_89"/>
<path fill-rule="evenodd" d="M265.3,382.1h241V367.5h-241v14.6Z" class="g0_89"/>
<path fill-rule="evenodd" d="M265.3,396.8h241V382.1h-241v14.7Z" class="g0_89"/>
<path fill-rule="evenodd" d="M265.3,411.5h241V396.8h-241v14.7Z" class="g0_89"/>
<path fill-rule="evenodd" d="M265.3,426.1h241V411.5h-241v14.6Z" class="g0_89"/>
<path fill-rule="evenodd" d="M265.3,440.8h241V426.1h-241v14.7Z" class="g0_89"/>
<path fill-rule="evenodd" d="M265.3,455.5H505.9V440.8H265.3v14.7Z" class="g0_89"/>
<path fill-rule="evenodd" d="M265.3,470.1H505.9V455.5H265.3v14.6Z" class="g0_89"/>
<path fill-rule="evenodd" d="M265.3,484.8H505.9V470.1H265.3v14.7Z" class="g0_89"/>
<path fill-rule="evenodd" d="M264.6,499.8H505.9V485.2H264.6v14.6Z" class="g0_89"/>
<path fill-rule="evenodd" d="M264.6,514.5H505.9V499.8H264.6v14.7Z" class="g0_89"/>
<path fill-rule="evenodd" d="M264.6,529.2H505.9V514.5H264.6v14.7Z" class="g0_89"/>
<path fill-rule="evenodd" d="M264.6,543.8H505.9V529.2H264.6v14.6Z" class="g0_89"/>
<path fill-rule="evenodd" d="M264.6,558.5H505.9V543.8H264.6v14.7Z" class="g0_89"/>
<path fill-rule="evenodd" d="M264.6,573.2H505.9V558.5H264.6v14.7Z" class="g0_89"/>
<path fill-rule="evenodd" d="M264.6,587.8H505.9V573.2H264.6v14.6Z" class="g0_89"/>
<path fill-rule="evenodd" d="M265.3,602.9H505.9V588.2H265.3v14.7Z" class="g0_89"/>
<path fill-rule="evenodd" d="M265.3,617.6H505.9V602.9H265.3v14.7Z" class="g0_89"/>
<path fill-rule="evenodd" d="M265.7,632.2H505.6V617.6H265.7v14.6Z" class="g0_89"/>
<path fill-rule="evenodd" d="M265.7,646.9H505.6V632.2H265.7v14.7Z" class="g0_89"/>
<path fill-rule="evenodd" d="M265.7,661.9H505.9V647.3H265.7v14.6Z" class="g0_89"/>
<path fill-rule="evenodd" d="M265.7,676.6H505.9V661.9H265.7v14.7Z" class="g0_89"/>
<path fill-rule="evenodd" d="M265.3,691.3H505.6V676.6H265.3v14.7Z" class="g0_89"/>
<path fill-rule="evenodd" d="M265.3,705.9H505.6V691.3H265.3v14.6Z" class="g0_89"/>
<path fill-rule="evenodd" d="M264.9,720.6H505.6V705.9H264.9v14.7Z" class="g0_89"/>
<path fill-rule="evenodd" d="M264.9,735.3H505.6V720.6H264.9v14.7Z" class="g0_89"/>
<path fill-rule="evenodd" d="M265.3,749.9H505.6V735.3H265.3v14.6Z" class="g0_89"/>
<path fill-rule="evenodd" d="M265.3,764.6H505.6V749.9H265.3v14.7Z" class="g0_89"/>
<path fill-rule="evenodd" d="M264.6,779.3H505.9V764.6H264.6v14.7Z" class="g0_89"/>
<path fill-rule="evenodd" d="M264.6,793.9H505.9V779.3H264.6v14.6Z" class="g0_89"/>
<path fill-rule="evenodd" d="M265.3,808.6h241V793.9h-241v14.7Z" class="g0_89"/>
<path fill-rule="evenodd" d="M265.3,823.3h241V808.6h-241v14.7Z" class="g0_89"/>
<path fill-rule="evenodd" d="M265.3,838h241V823.3h-241V838Z" class="g0_89"/>
<path fill-rule="evenodd" d="M265.3,852.7h241V838h-241v14.7Z" class="g0_89"/>
<path fill-rule="evenodd" d="M265.3,867.3h241V852.7h-241v14.6Z" class="g0_89"/>
<path fill-rule="evenodd" d="M264.9,882.5H505.6V867.7H264.9v14.8Z" class="g0_89"/>
<path fill-rule="evenodd" d="M264.9,897.2H505.6V882.5H264.9v14.7Z" class="g0_89"/>
<path fill-rule="evenodd" d="M266.8,911.9H505.6V897.2H266.8v14.7Z" class="g0_89"/>
<path fill-rule="evenodd" d="M527.6,161.7H765.2V147.1H527.6v14.6Z" class="g0_89"/>
<path fill-rule="evenodd" d="M527.6,176.4H765.2V161.7H527.6v14.7Z" class="g0_89"/>
<path fill-rule="evenodd" d="M526.8,191.4H765.6V176.8H526.8v14.6Z" class="g0_89"/>
<path fill-rule="evenodd" d="M526.8,206.1H765.6V191.4H526.8v14.7Z" class="g0_89"/>
<path fill-rule="evenodd" d="M526.8,220.8H765.6V206.1H526.8v14.7Z" class="g0_89"/>
<path fill-rule="evenodd" d="M526.8,235.4H765.6V220.8H526.8v14.6Z" class="g0_89"/>
<path fill-rule="evenodd" d="M526.8,250.1H765.9V235.4H526.8v14.7Z" class="g0_89"/>
<path fill-rule="evenodd" d="M526.8,264.8H765.9V250.1H526.8v14.7Z" class="g0_89"/>
<path fill-rule="evenodd" d="M526.8,279.4H765.9V264.8H526.8v14.6Z" class="g0_89"/>
<path fill-rule="evenodd" d="M527.2,294.5H765.9V279.8H527.2v14.7Z" class="g0_89"/>
<path fill-rule="evenodd" d="M527.2,309.1H765.9V294.5H527.2v14.6Z" class="g0_89"/>
<path fill-rule="evenodd" d="M526.8,323.8H765.2V309.1H526.8v14.7Z" class="g0_89"/>
<path fill-rule="evenodd" d="M526.8,338.5H765.2V323.8H526.8v14.7Z" class="g0_89"/>
<path fill-rule="evenodd" d="M526.8,353.2H765.6V338.5H526.8v14.7Z" class="g0_89"/>
<path fill-rule="evenodd" d="M526.8,367.8H765.6V353.2H526.8v14.6Z" class="g0_89"/>
<path fill-rule="evenodd" d="M526.5,382.5H765.9V367.8H526.5v14.7Z" class="g0_89"/>
<path fill-rule="evenodd" d="M526.5,397.2H765.9V382.5H526.5v14.7Z" class="g0_89"/>
<path fill-rule="evenodd" d="M526.5,411.8H765.9V397.2H526.5v14.6Z" class="g0_89"/>
<path fill-rule="evenodd" d="M526.5,426.5H765.9V411.8H526.5v14.7Z" class="g0_89"/>
<path fill-rule="evenodd" d="M526.5,441.2H765.9V426.5H526.5v14.7Z" class="g0_89"/>
<path fill-rule="evenodd" d="M544.4,455.8H766.7V441.2H544.4v14.6Z" class="g0_89"/>
<path fill-rule="evenodd" d="M545.2,470.5H766.7V455.8H545.2v14.7Z" class="g0_89"/>
<path fill-rule="evenodd" d="M526.8,485.2H765.2V470.5H526.8v14.7Z" class="g0_89"/>
<path fill-rule="evenodd" d="M526.8,499.8H765.2V485.2H526.8v14.6Z" class="g0_89"/>
<path fill-rule="evenodd" d="M526.1,514.5H765.6V499.8H526.1v14.7Z" class="g0_89"/>
<path fill-rule="evenodd" d="M526.1,529.2H765.6V514.5H526.1v14.7Z" class="g0_89"/>
<path fill-rule="evenodd" d="M526.1,543.8H765.6V529.2H526.1v14.6Z" class="g0_89"/>
<path fill-rule="evenodd" d="M526.5,558.5H765.2V543.8H526.5v14.7Z" class="g0_89"/>
<path fill-rule="evenodd" d="M526.5,573.2H765.2V558.5H526.5v14.7Z" class="g0_89"/>
<path fill-rule="evenodd" d="M526.1,587.8H765.6V573.2H526.1v14.6Z" class="g0_89"/>
<path fill-rule="evenodd" d="M526.1,602.5H765.6V587.8H526.1v14.7Z" class="g0_89"/>
<path fill-rule="evenodd" d="M526.1,617.2H765.6V602.5H526.1v14.7Z" class="g0_89"/>
<path fill-rule="evenodd" d="M526.1,631.9H765.6V617.2H526.1v14.7Z" class="g0_89"/>
<path fill-rule="evenodd" d="M545.2,646.5H766.7V631.9H545.2v14.6Z" class="g0_89"/>
<path fill-rule="evenodd" d="M526.5,661.6H766.3V646.9H526.5v14.7Z" class="g0_89"/>
<path fill-rule="evenodd" d="M526.5,676.2H766.3V661.6H526.5v14.6Z" class="g0_89"/>
<path fill-rule="evenodd" d="M526.5,690.9H766.3V676.2H526.5v14.7Z" class="g0_89"/>
<path fill-rule="evenodd" d="M526.1,705.6H765.9V690.9H526.1v14.7Z" class="g0_89"/>
<path fill-rule="evenodd" d="M526.1,720.2H765.9V705.6H526.1v14.6Z" class="g0_89"/>
<path fill-rule="evenodd" d="M526.1,734.9H766.3V720.2H526.1v14.7Z" class="g0_89"/>
<path fill-rule="evenodd" d="M526.1,749.6H766.3V734.9H526.1v14.7Z" class="g0_89"/>
<path fill-rule="evenodd" d="M526.1,764.2H766.3V749.6H526.1v14.6Z" class="g0_89"/>
<path fill-rule="evenodd" d="M526.1,779.3H765.9V764.6H526.1v14.7Z" class="g0_89"/>
<path fill-rule="evenodd" d="M526.1,793.9H765.9V779.3H526.1v14.6Z" class="g0_89"/>
<path fill-rule="evenodd" d="M525.4,809.2H766.7V794.3H525.4v14.9Z" class="g0_89"/>
<path fill-rule="evenodd" d="M525.4,823.8H766.7V809.2H525.4v14.6Z" class="g0_89"/>
<path fill-rule="evenodd" d="M525.4,838.5H766.7V823.8H525.4v14.7Z" class="g0_89"/>
<path fill-rule="evenodd" d="M525.4,853.2H766.7V838.5H525.4v14.7Z" class="g0_89"/>
<path fill-rule="evenodd" d="M525.4,867.9H766.7V853.2H525.4v14.7Z" class="g0_89"/>
<path fill-rule="evenodd" d="M525.4,882.5H766.7V867.9H525.4v14.6Z" class="g0_89"/>
<path fill-rule="evenodd" d="M525.4,897.2H766.7V882.5H525.4v14.7Z" class="g0_89"/>
<path d="M198.5,148.1v63.1M515.7,147.4V916" class="g1_89"/>
</svg>