<?xml version="1.0" encoding="UTF-8" standalone="no"?>
<!DOCTYPE svg PUBLIC "-//W3C//DTD SVG 1.1//EN"
"http://www.w3.org/Graphics/SVG/1.1/DTD/svg11.dtd">
<svg viewBox="0 0 909 1285" version="1.1" xmlns="http://www.w3.org/2000/svg" xmlns:xlink="http://www.w3.org/1999/xlink">
<defs>
<clipPath id="c0_108"><path d="M0,1285.9V0H909.7V1285.9Z"/></clipPath>
<style type="text/css"><![CDATA[
.g0_108{
fill: #FFFFFF;
}
.g1_108{
fill: none;
stroke: #000000;
stroke-width: 0.381;
stroke-linecap: butt;
stroke-linejoin: round;
}
]]></style>
</defs>
<path fill-rule="evenodd" d="M547.4,133.5H695.2V110H547.4v23.5Z" class="g0_108"/>
<path fill-rule="evenodd" d="M197.5,168.9h238V153.7h-238v15.2Z" class="g0_108"/>
<path fill-rule="evenodd" d="M197.5,183.9h238v-15h-238v15Z" class="g0_108"/>
<path fill-rule="evenodd" d="M197.5,198.9h238v-15h-238v15Z" class="g0_108"/>
<path fill-rule="evenodd" d="M197.1,214H435.8V198.9H197.1V214Z" class="g0_108"/>
<path fill-rule="evenodd" d="M197.1,229H435.8V214H197.1v15Z" class="g0_108"/>
<path fill-rule="evenodd" d="M197.1,244H435.8V229H197.1v15Z" class="g0_108"/>
<path fill-rule="evenodd" d="M197.1,259.1H435.8V244H197.1v15.1Z" class="g0_108"/>
<path fill-rule="evenodd" d="M197.1,274.1H435.8v-15H197.1v15Z" class="g0_108"/>
<path fill-rule="evenodd" d="M196.7,289.1H435.8v-15H196.7v15Z" class="g0_108"/>
<path fill-rule="evenodd" d="M196.7,304.2H435.8V289.1H196.7v15.1Z" class="g0_108"/>
<path fill-rule="evenodd" d="M196.7,319.2H435.8v-15H196.7v15Z" class="g0_108"/>
<path fill-rule="evenodd" d="M196.7,334.2H435.8v-15H196.7v15Z" class="g0_108"/>
<path fill-rule="evenodd" d="M196.7,349.5H435.8V334.2H196.7v15.3Z" class="g0_108"/>
<path fill-rule="evenodd" d="M196.7,364.5H435.8v-15H196.7v15Z" class="g0_108"/>
<path fill-rule="evenodd" d="M196.7,379.6H435.5V364.5H196.7v15.1Z" class="g0_108"/>
<path fill-rule="evenodd" d="M196.7,394.6H435.5v-15H196.7v15Z" class="g0_108"/>
<path fill-rule="evenodd" d="M196.7,409.6H435.5v-15H196.7v15Z" class="g0_108"/>
<path fill-rule="evenodd" d="M196.7,424.7H435.5V409.6H196.7v15.1Z" class="g0_108"/>
<path fill-rule="evenodd" d="M196.7,439.7H435.5v-15H196.7v15Z" class="g0_108"/>
<path fill-rule="evenodd" d="M196.7,454.7H435.5v-15H196.7v15Z" class="g0_108"/>
<path fill-rule="evenodd" d="M196.7,469.8H435.5V454.7H196.7v15.1Z" class="g0_108"/>
<path fill-rule="evenodd" d="M196.4,484.8H435.1v-15H196.4v15Z" class="g0_108"/>
<path fill-rule="evenodd" d="M196.4,499.8H435.1v-15H196.4v15Z" class="g0_108"/>
<path fill-rule="evenodd" d="M196.4,514.9H435.1V499.8H196.4v15.1Z" class="g0_108"/>
<path fill-rule="evenodd" d="M196.4,530.1H435.1V514.9H196.4v15.2Z" class="g0_108"/>
<path fill-rule="evenodd" d="M196.4,545.1H383v-15H196.4v15Z" class="g0_108"/>
<path fill-rule="evenodd" d="M196.4,560.2H383V545.1H196.4v15.1Z" class="g0_108"/>
<path fill-rule="evenodd" d="M196,575.2H434.7v-15H196v15Z" class="g0_108"/>
<path fill-rule="evenodd" d="M196,590.2H434.7v-15H196v15Z" class="g0_108"/>
<path fill-rule="evenodd" d="M196,605.3H434.7V590.2H196v15.1Z" class="g0_108"/>
<path fill-rule="evenodd" d="M196,620.3H434.4v-15H196v15Z" class="g0_108"/>
<path fill-rule="evenodd" d="M196,635.4H434.4V620.3H196v15.1Z" class="g0_108"/>
<path fill-rule="evenodd" d="M196,650.4H434.4v-15H196v15Z" class="g0_108"/>
<path fill-rule="evenodd" d="M196,665.4H434.4v-15H196v15Z" class="g0_108"/>
<path fill-rule="evenodd" d="M196,680.5H434.4V665.4H196v15.1Z" class="g0_108"/>
<path fill-rule="evenodd" d="M195.6,696h161V680.8h-161V696Z" class="g0_108"/>
<path fill-rule="evenodd" d="M195.6,711.1h161V696h-161v15.1Z" class="g0_108"/>
<path fill-rule="evenodd" d="M195.6,726.1H434v-15H195.6v15Z" class="g0_108"/>
<path fill-rule="evenodd" d="M195.6,741.1H434v-15H195.6v15Z" class="g0_108"/>
<path fill-rule="evenodd" d="M195.6,756.2h238V741.1h-238v15.1Z" class="g0_108"/>
<path fill-rule="evenodd" d="M195.6,771.2h238v-15h-238v15Z" class="g0_108"/>
<path fill-rule="evenodd" d="M195.3,786.2H434.4v-15H195.3v15Z" class="g0_108"/>
<path fill-rule="evenodd" d="M195.3,801.3H434.4V786.2H195.3v15.1Z" class="g0_108"/>
<path fill-rule="evenodd" d="M195.3,816.3H434.4v-15H195.3v15Z" class="g0_108"/>
<path fill-rule="evenodd" d="M195.3,831.3H434.4v-15H195.3v15Z" class="g0_108"/>
<path fill-rule="evenodd" d="M195.3,846.4H434.4V831.3H195.3v15.1Z" class="g0_108"/>
<path fill-rule="evenodd" d="M195.3,861.6H434.4V846.4H195.3v15.2Z" class="g0_108"/>
<path fill-rule="evenodd" d="M195.3,876.7H434.4V861.6H195.3v15.1Z" class="g0_108"/>
<path fill-rule="evenodd" d="M195.3,892.1H409.4V877H195.3v15.1Z" class="g0_108"/>
<path fill-rule="evenodd" d="M195.3,907.1H409.4v-15H195.3v15Z" class="g0_108"/>
<path fill-rule="evenodd" d="M197.5,922.1h238v-15h-238v15Z" class="g0_108"/>
<path fill-rule="evenodd" d="M456.4,168.7H694.8v-15H456.4v15Z" class="g0_108"/>
<path fill-rule="evenodd" d="M456.4,183.7H694.8v-15H456.4v15Z" class="g0_108"/>
<path fill-rule="evenodd" d="M455.7,198.8H694.8V183.7H455.7v15.1Z" class="g0_108"/>
<path fill-rule="evenodd" d="M455.7,213.8H694.8v-15H455.7v15Z" class="g0_108"/>
<path fill-rule="evenodd" d="M455.7,228.8H694.8v-15H455.7v15Z" class="g0_108"/>
<path fill-rule="evenodd" d="M455.7,244H667.3V228.8H455.7V244Z" class="g0_108"/>
<path fill-rule="evenodd" d="M455.7,259.1H667.3V244H455.7v15.1Z" class="g0_108"/>
<path fill-rule="evenodd" d="M455.7,274.1H695.2v-15H455.7v15Z" class="g0_108"/>
<path fill-rule="evenodd" d="M455.7,289.1H695.2v-15H455.7v15Z" class="g0_108"/>
<path fill-rule="evenodd" d="M455.7,304.2H695.2V289.1H455.7v15.1Z" class="g0_108"/>
<path fill-rule="evenodd" d="M455.7,319.2H695.2v-15H455.7v15Z" class="g0_108"/>
<path fill-rule="evenodd" d="M455.7,334.2H695.2v-15H455.7v15Z" class="g0_108"/>
<path fill-rule="evenodd" d="M455.7,349.3H695.2V334.2H455.7v15.1Z" class="g0_108"/>
<path fill-rule="evenodd" d="M455.7,364.4H695.2V349.3H455.7v15.1Z" class="g0_108"/>
<path fill-rule="evenodd" d="M455.7,379.4H695.2v-15H455.7v15Z" class="g0_108"/>
<path fill-rule="evenodd" d="M455.7,394.4H695.2v-15H455.7v15Z" class="g0_108"/>
<path fill-rule="evenodd" d="M455.7,409.5H695.2V394.4H455.7v15.1Z" class="g0_108"/>
<path fill-rule="evenodd" d="M455.7,424.7H695.2V409.5H455.7v15.2Z" class="g0_108"/>
<path fill-rule="evenodd" d="M455.7,439.7H695.2v-15H455.7v15Z" class="g0_108"/>
<path fill-rule="evenodd" d="M455.7,454.7H694.1v-15H455.7v15Z" class="g0_108"/>
<path fill-rule="evenodd" d="M455.7,469.8H694.1V454.7H455.7v15.1Z" class="g0_108"/>
<path fill-rule="evenodd" d="M455.7,484.8H694.1v-15H455.7v15Z" class="g0_108"/>
<path fill-rule="evenodd" d="M455.3,499.8h212v-15h-212v15Z" class="g0_108"/>
<path fill-rule="evenodd" d="M455.3,514.9h212V499.8h-212v15.1Z" class="g0_108"/>
<path fill-rule="evenodd" d="M454.2,529.9H694.4v-15H454.2v15Z" class="g0_108"/>
<path fill-rule="evenodd" d="M454.2,544.9H694.4v-15H454.2v15Z" class="g0_108"/>
<path fill-rule="evenodd" d="M454.2,560H694.4V544.9H454.2V560Z" class="g0_108"/>
<path fill-rule="evenodd" d="M454.2,575H694.4V560H454.2v15Z" class="g0_108"/>
<path fill-rule="evenodd" d="M454.2,590H694.4V575H454.2v15Z" class="g0_108"/>
<path fill-rule="evenodd" d="M454.2,605.3H694.4V590H454.2v15.3Z" class="g0_108"/>
<path fill-rule="evenodd" d="M454.2,620.3H694.4v-15H454.2v15Z" class="g0_108"/>
<path fill-rule="evenodd" d="M454.2,635.4H694.4V620.3H454.2v15.1Z" class="g0_108"/>
<path fill-rule="evenodd" d="M454.2,650.4H694.4v-15H454.2v15Z" class="g0_108"/>
<path fill-rule="evenodd" d="M454.2,665.4H694.4v-15H454.2v15Z" class="g0_108"/>
<path fill-rule="evenodd" d="M454.2,680.5H694.4V665.4H454.2v15.1Z" class="g0_108"/>
<path fill-rule="evenodd" d="M454.2,695.5H694.4v-15H454.2v15Z" class="g0_108"/>
<path fill-rule="evenodd" d="M454.2,710.5H694.4v-15H454.2v15Z" class="g0_108"/>
<path fill-rule="evenodd" d="M454.2,725.6H694.4V710.5H454.2v15.1Z" class="g0_108"/>
<path fill-rule="evenodd" d="M454.2,740.6H694.4v-15H454.2v15Z" class="g0_108"/>
<path fill-rule="evenodd" d="M454.2,755.6H694.4v-15H454.2v15Z" class="g0_108"/>
<path fill-rule="evenodd" d="M454.6,770.8H639.4V755.6H454.6v15.2Z" class="g0_108"/>
<path fill-rule="evenodd" d="M454.6,785.9H639.4V770.8H454.6v15.1Z" class="g0_108"/>
<path fill-rule="evenodd" d="M454.2,800.9h241v-15h-241v15Z" class="g0_108"/>
<path fill-rule="evenodd" d="M454.2,815.9h241v-15h-241v15Z" class="g0_108"/>
<path fill-rule="evenodd" d="M454.2,831h241V815.9h-241V831Z" class="g0_108"/>
<path fill-rule="evenodd" d="M454.2,846.1h241V831h-241v15.1Z" class="g0_108"/>
<path fill-rule="evenodd" d="M454.2,861.1h241v-15h-241v15Z" class="g0_108"/>
<path fill-rule="evenodd" d="M454.2,876.1H693.3v-15H454.2v15Z" class="g0_108"/>
<path fill-rule="evenodd" d="M454.2,891.2H693.3V876.1H454.2v15.1Z" class="g0_108"/>
<path fill-rule="evenodd" d="M454.2,906.2H693.3v-15H454.2v15Z" class="g0_108"/>
<path fill-rule="evenodd" d="M432.2,939.7h263V922.1h-263v17.6Z" class="g0_108"/>
<image clip-path="url(#c0_108)" preserveAspectRatio="none" x="153" y="822" width="38" height="92" xlink:href="img/1.jpg"/>
<path d="M443.4,152.5V922.2" class="g1_108"/>
</svg>