<?xml version="1.0" encoding="UTF-8" standalone="no"?>
<!DOCTYPE svg PUBLIC "-//W3C//DTD SVG 1.1//EN"
"http://www.w3.org/Graphics/SVG/1.1/DTD/svg11.dtd">
<svg viewBox="0 0 909 1285" version="1.1" xmlns="http://www.w3.org/2000/svg" xmlns:xlink="http://www.w3.org/1999/xlink">
<defs>
<style type="text/css"><![CDATA[
.g0_216{
fill: #FFFFFF;
}
.g1_216{
fill: none;
stroke: #000000;
stroke-width: 0.381;
stroke-linecap: butt;
stroke-linejoin: round;
}
]]></style>
</defs>
<path fill-rule="evenodd" d="M262.2,132.9H762.1V110H262.2v22.9Z" class="g0_216"/>
<path fill-rule="evenodd" d="M261.5,167H501.3V152H261.5v15Z" class="g0_216"/>
<path fill-rule="evenodd" d="M261.5,182.1H501.3V167H261.5v15.1Z" class="g0_216"/>
<path fill-rule="evenodd" d="M279.8,197.1H502.1v-15H279.8v15Z" class="g0_216"/>
<path fill-rule="evenodd" d="M279.8,212.1H502.1v-15H279.8v15Z" class="g0_216"/>
<path fill-rule="evenodd" d="M261.5,227.2H502.1V212.1H261.5v15.1Z" class="g0_216"/>
<path fill-rule="evenodd" d="M261.5,242.2H502.1v-15H261.5v15Z" class="g0_216"/>
<path fill-rule="evenodd" d="M261.5,257.2H502.1v-15H261.5v15Z" class="g0_216"/>
<path fill-rule="evenodd" d="M279.8,272.3H502.1V257.2H279.8v15.1Z" class="g0_216"/>
<path fill-rule="evenodd" d="M279.8,287.3H502.1v-15H279.8v15Z" class="g0_216"/>
<path fill-rule="evenodd" d="M261.5,302.5H502.1V287.3H261.5v15.2Z" class="g0_216"/>
<path fill-rule="evenodd" d="M261.5,317.6H502.1V302.5H261.5v15.1Z" class="g0_216"/>
<path fill-rule="evenodd" d="M261.5,332.6H502.1v-15H261.5v15Z" class="g0_216"/>
<path fill-rule="evenodd" d="M261.5,347.6H502.1v-15H261.5v15Z" class="g0_216"/>
<path fill-rule="evenodd" d="M261.5,362.7H502.1V347.6H261.5v15.1Z" class="g0_216"/>
<path fill-rule="evenodd" d="M279.8,377.7H502.1v-15H279.8v15Z" class="g0_216"/>
<path fill-rule="evenodd" d="M279.8,392.8H502.1V377.7H279.8v15.1Z" class="g0_216"/>
<path fill-rule="evenodd" d="M261.1,407.8H501.7v-15H261.1v15Z" class="g0_216"/>
<path fill-rule="evenodd" d="M261.1,422.8H501.7v-15H261.1v15Z" class="g0_216"/>
<path fill-rule="evenodd" d="M261.1,437.9H501.7V422.8H261.1v15.1Z" class="g0_216"/>
<path fill-rule="evenodd" d="M261.5,452.9H501.3v-15H261.5v15Z" class="g0_216"/>
<path fill-rule="evenodd" d="M261.5,468.1H501.3V452.9H261.5v15.2Z" class="g0_216"/>
<path fill-rule="evenodd" d="M260.4,483.2H501V468.1H260.4v15.1Z" class="g0_216"/>
<path fill-rule="evenodd" d="M260.4,498.2H501v-15H260.4v15Z" class="g0_216"/>
<path fill-rule="evenodd" d="M260.4,513.2H501v-15H260.4v15Z" class="g0_216"/>
<path fill-rule="evenodd" d="M261.1,528.3H500.6V513.2H261.1v15.1Z" class="g0_216"/>
<path fill-rule="evenodd" d="M261.1,543.3H500.6v-15H261.1v15Z" class="g0_216"/>
<path fill-rule="evenodd" d="M261.1,558.3H500.6v-15H261.1v15Z" class="g0_216"/>
<path fill-rule="evenodd" d="M261.1,573.4H500.6V558.3H261.1v15.1Z" class="g0_216"/>
<path fill-rule="evenodd" d="M279.5,588.4H502.1v-15H279.5v15Z" class="g0_216"/>
<path fill-rule="evenodd" d="M261.1,603.5H500.6V588.4H261.1v15.1Z" class="g0_216"/>
<path fill-rule="evenodd" d="M261.1,618.5H500.6v-15H261.1v15Z" class="g0_216"/>
<path fill-rule="evenodd" d="M261.1,633.5H500.6v-15H261.1v15Z" class="g0_216"/>
<path fill-rule="evenodd" d="M260.7,648.7H500.6V633.5H260.7v15.2Z" class="g0_216"/>
<path fill-rule="evenodd" d="M260.7,663.8H500.6V648.7H260.7v15.1Z" class="g0_216"/>
<path fill-rule="evenodd" d="M260.7,678.8H500.6v-15H260.7v15Z" class="g0_216"/>
<path fill-rule="evenodd" d="M261.1,693.8H500.2v-15H261.1v15Z" class="g0_216"/>
<path fill-rule="evenodd" d="M261.1,708.9H500.2V693.8H261.1v15.1Z" class="g0_216"/>
<path fill-rule="evenodd" d="M279.5,723.9H502.1v-15H279.5v15Z" class="g0_216"/>
<path fill-rule="evenodd" d="M260.7,738.9H500.6v-15H260.7v15Z" class="g0_216"/>
<path fill-rule="evenodd" d="M260.7,754H500.6V738.9H260.7V754Z" class="g0_216"/>
<path fill-rule="evenodd" d="M260.7,769H500.6V754H260.7v15Z" class="g0_216"/>
<path fill-rule="evenodd" d="M260.7,784H500.6V769H260.7v15Z" class="g0_216"/>
<path fill-rule="evenodd" d="M260.7,799.1H500.6V784H260.7v15.1Z" class="g0_216"/>
<path fill-rule="evenodd" d="M279.1,814.1h223v-15h-223v15Z" class="g0_216"/>
<path fill-rule="evenodd" d="M260.7,829.3H500.6V814.1H260.7v15.2Z" class="g0_216"/>
<path fill-rule="evenodd" d="M260.7,844.4H500.6V829.3H260.7v15.1Z" class="g0_216"/>
<path fill-rule="evenodd" d="M260.7,859.4H500.6v-15H260.7v15Z" class="g0_216"/>
<path fill-rule="evenodd" d="M261.1,874.5H500.2V859.4H261.1v15.1Z" class="g0_216"/>
<path fill-rule="evenodd" d="M261.1,889.5H500.2v-15H261.1v15Z" class="g0_216"/>
<path fill-rule="evenodd" d="M261.1,904.5H500.2v-15H261.1v15Z" class="g0_216"/>
<path fill-rule="evenodd" d="M262.2,919.6H502.1V904.5H262.2v15.1Z" class="g0_216"/>
<path fill-rule="evenodd" d="M522.6,166.7H762.1V151.6H522.6v15.1Z" class="g0_216"/>
<path fill-rule="evenodd" d="M522.6,181.7H762.1v-15H522.6v15Z" class="g0_216"/>
<path fill-rule="evenodd" d="M522.6,196.7H762.1v-15H522.6v15Z" class="g0_216"/>
<path fill-rule="evenodd" d="M522.2,211.8H762.1V196.7H522.2v15.1Z" class="g0_216"/>
<path fill-rule="evenodd" d="M522.2,226.8H762.1v-15H522.2v15Z" class="g0_216"/>
<path fill-rule="evenodd" d="M523,241.8H761.7v-15H523v15Z" class="g0_216"/>
<path fill-rule="evenodd" d="M523,256.9H761.7V241.8H523v15.1Z" class="g0_216"/>
<path fill-rule="evenodd" d="M522.6,271.9H761.7v-15H522.6v15Z" class="g0_216"/>
<path fill-rule="evenodd" d="M522.6,286.9H761.7v-15H522.6v15Z" class="g0_216"/>
<path fill-rule="evenodd" d="M522.6,302H761.7V286.9H522.6V302Z" class="g0_216"/>
<path fill-rule="evenodd" d="M522.6,317.2H761.7V302H522.6v15.2Z" class="g0_216"/>
<path fill-rule="evenodd" d="M522.2,332.2H761.7v-15H522.2v15Z" class="g0_216"/>
<path fill-rule="evenodd" d="M522.2,347.3H761.7V332.2H522.2v15.1Z" class="g0_216"/>
<path fill-rule="evenodd" d="M521.5,362.3H762.1v-15H521.5v15Z" class="g0_216"/>
<path fill-rule="evenodd" d="M521.5,377.4H762.1V362.3H521.5v15.1Z" class="g0_216"/>
<path fill-rule="evenodd" d="M521.5,392.4H762.1v-15H521.5v15Z" class="g0_216"/>
<path fill-rule="evenodd" d="M521.5,407.4H762.1v-15H521.5v15Z" class="g0_216"/>
<path fill-rule="evenodd" d="M521.5,422.5H762.1V407.4H521.5v15.1Z" class="g0_216"/>
<path fill-rule="evenodd" d="M521.5,437.5H762.1v-15H521.5v15Z" class="g0_216"/>
<path fill-rule="evenodd" d="M521.1,452.5H761.7v-15H521.1v15Z" class="g0_216"/>
<path fill-rule="evenodd" d="M521.1,467.6H761.7V452.5H521.1v15.1Z" class="g0_216"/>
<path fill-rule="evenodd" d="M521.1,482.8H761.7V467.6H521.1v15.2Z" class="g0_216"/>
<path fill-rule="evenodd" d="M521.1,497.8H761.7v-15H521.1v15Z" class="g0_216"/>
<path fill-rule="evenodd" d="M520.8,512.9H761V497.8H520.8v15.1Z" class="g0_216"/>
<path fill-rule="evenodd" d="M520.8,527.9H761v-15H520.8v15Z" class="g0_216"/>
<path fill-rule="evenodd" d="M520.8,542.9H761v-15H520.8v15Z" class="g0_216"/>
<path fill-rule="evenodd" d="M520.8,558H761V542.9H520.8V558Z" class="g0_216"/>
<path fill-rule="evenodd" d="M539.5,573H762.1V558H539.5v15Z" class="g0_216"/>
<path fill-rule="evenodd" d="M521.1,588H761.3V573H521.1v15Z" class="g0_216"/>
<path fill-rule="evenodd" d="M521.1,603.1H761.3V588H521.1v15.1Z" class="g0_216"/>
<path fill-rule="evenodd" d="M521.1,618.1H761.3v-15H521.1v15Z" class="g0_216"/>
<path fill-rule="evenodd" d="M539.1,633.2h223V618.1h-223v15.1Z" class="g0_216"/>
<path fill-rule="evenodd" d="M520.8,648.2H761.3v-15H520.8v15Z" class="g0_216"/>
<path fill-rule="evenodd" d="M520.8,663.4H761.3V648.2H520.8v15.2Z" class="g0_216"/>
<path fill-rule="evenodd" d="M520.8,678.4H761.3v-15H520.8v15Z" class="g0_216"/>
<path fill-rule="evenodd" d="M520.8,693.5H761.3V678.4H520.8v15.1Z" class="g0_216"/>
<path fill-rule="evenodd" d="M520.8,708.5H761.3v-15H520.8v15Z" class="g0_216"/>
<path fill-rule="evenodd" d="M520.8,723.5H761.3v-15H520.8v15Z" class="g0_216"/>
<path fill-rule="evenodd" d="M521.1,738.6H761V723.5H521.1v15.1Z" class="g0_216"/>
<path fill-rule="evenodd" d="M521.1,753.6H761v-15H521.1v15Z" class="g0_216"/>
<path fill-rule="evenodd" d="M521.1,768.6H761v-15H521.1v15Z" class="g0_216"/>
<path fill-rule="evenodd" d="M520.8,783.7H761.3V768.6H520.8v15.1Z" class="g0_216"/>
<path fill-rule="evenodd" d="M520.8,798.7H761.3v-15H520.8v15Z" class="g0_216"/>
<path fill-rule="evenodd" d="M520.8,813.7H761.3v-15H520.8v15Z" class="g0_216"/>
<path fill-rule="evenodd" d="M520.8,828.8H761.3V813.7H520.8v15.1Z" class="g0_216"/>
<path fill-rule="evenodd" d="M520.8,844H761.3V828.8H520.8V844Z" class="g0_216"/>
<path fill-rule="evenodd" d="M539.1,859.1h223V844h-223v15.1Z" class="g0_216"/>
<path fill-rule="evenodd" d="M520.8,874.1H760.6v-15H520.8v15Z" class="g0_216"/>
<path fill-rule="evenodd" d="M520.8,889.1H760.6v-15H520.8v15Z" class="g0_216"/>
<path fill-rule="evenodd" d="M520.8,904.2H760.6V889.1H520.8v15.1Z" class="g0_216"/>
<path fill-rule="evenodd" d="M496.9,936.1H762.1V918.5H496.9v17.6Z" class="g0_216"/>
<path d="M206.1,105.6V437.4m-7,-301.6v879.3m3.3,-236.2V883.1m308,-730.8V921.9" class="g1_216"/>
</svg>