<?xml version="1.0" encoding="UTF-8" standalone="no"?>
<!DOCTYPE svg PUBLIC "-//W3C//DTD SVG 1.1//EN"
"http://www.w3.org/Graphics/SVG/1.1/DTD/svg11.dtd">
<svg viewBox="0 0 909 1285" version="1.1" xmlns="http://www.w3.org/2000/svg" xmlns:xlink="http://www.w3.org/1999/xlink">
<defs>
<style type="text/css"><![CDATA[
.g0_302{
fill: #FFFFFF;
}
.g1_302{
fill: none;
stroke: #000000;
stroke-width: 0.381;
stroke-linecap: butt;
stroke-linejoin: round;
}
]]></style>
</defs>
<path fill-rule="evenodd" d="M528.5,125.8H688.4V110H528.5v15.8Z" class="g0_302"/>
<path fill-rule="evenodd" d="M187,161.7H427.6V147.1H187v14.6Z" class="g0_302"/>
<path fill-rule="evenodd" d="M187,176.4H427.6V161.7H187v14.7Z" class="g0_302"/>
<path fill-rule="evenodd" d="M187,191.1H427.6V176.4H187v14.7Z" class="g0_302"/>
<path fill-rule="evenodd" d="M187,205.7H427.6V191.1H187v14.6Z" class="g0_302"/>
<path fill-rule="evenodd" d="M187,220.4H427.6V205.7H187v14.7Z" class="g0_302"/>
<path fill-rule="evenodd" d="M187,235.1H427.6V220.4H187v14.7Z" class="g0_302"/>
<path fill-rule="evenodd" d="M187.4,249.7H427.6V235.1H187.4v14.6Z" class="g0_302"/>
<path fill-rule="evenodd" d="M187.4,264.4H427.6V249.7H187.4v14.7Z" class="g0_302"/>
<path fill-rule="evenodd" d="M187.4,279.1H427.6V264.4H187.4v14.7Z" class="g0_302"/>
<path fill-rule="evenodd" d="M187.4,293.7H427.6V279.1H187.4v14.6Z" class="g0_302"/>
<path fill-rule="evenodd" d="M187.4,308.4H427.6V293.7H187.4v14.7Z" class="g0_302"/>
<path fill-rule="evenodd" d="M187.4,323.1H427.6V308.4H187.4v14.7Z" class="g0_302"/>
<path fill-rule="evenodd" d="M187.4,337.7H427.6V323.1H187.4v14.6Z" class="g0_302"/>
<path fill-rule="evenodd" d="M187.4,352.4H427.6V337.7H187.4v14.7Z" class="g0_302"/>
<path fill-rule="evenodd" d="M187,367.1H427.6V352.4H187v14.7Z" class="g0_302"/>
<path fill-rule="evenodd" d="M187,381.8H427.6V367.1H187v14.7Z" class="g0_302"/>
<path fill-rule="evenodd" d="M187,396.4H427.6V381.8H187v14.6Z" class="g0_302"/>
<path fill-rule="evenodd" d="M187,411.1H427.6V396.4H187v14.7Z" class="g0_302"/>
<path fill-rule="evenodd" d="M187,425.8H427.6V411.1H187v14.7Z" class="g0_302"/>
<path fill-rule="evenodd" d="M187,440.4H427.2V425.8H187v14.6Z" class="g0_302"/>
<path fill-rule="evenodd" d="M187,455.1H427.2V440.4H187v14.7Z" class="g0_302"/>
<path fill-rule="evenodd" d="M187,469.8H427.2V455.1H187v14.7Z" class="g0_302"/>
<path fill-rule="evenodd" d="M187,484.4H427.2V469.8H187v14.6Z" class="g0_302"/>
<path fill-rule="evenodd" d="M187.4,499.5H374.8V484.8H187.4v14.7Z" class="g0_302"/>
<path fill-rule="evenodd" d="M187.4,514.1H374.8V499.5H187.4v14.6Z" class="g0_302"/>
<path fill-rule="evenodd" d="M186.3,528.8H427.6V514.1H186.3v14.7Z" class="g0_302"/>
<path fill-rule="evenodd" d="M186.3,543.5H427.6V528.8H186.3v14.7Z" class="g0_302"/>
<path fill-rule="evenodd" d="M186.3,558.1H427.6V543.5H186.3v14.6Z" class="g0_302"/>
<path fill-rule="evenodd" d="M186.3,572.8H427.6V558.1H186.3v14.7Z" class="g0_302"/>
<path fill-rule="evenodd" d="M186.3,587.5H427.6V572.8H186.3v14.7Z" class="g0_302"/>
<path fill-rule="evenodd" d="M186.7,602.2H426.9V587.5H186.7v14.7Z" class="g0_302"/>
<path fill-rule="evenodd" d="M186.7,616.8H426.9V602.2H186.7v14.6Z" class="g0_302"/>
<path fill-rule="evenodd" d="M186.7,631.5H426.9V616.8H186.7v14.7Z" class="g0_302"/>
<path fill-rule="evenodd" d="M186.7,646.2H426.9V631.5H186.7v14.7Z" class="g0_302"/>
<path fill-rule="evenodd" d="M186.7,660.8H426.9V646.2H186.7v14.6Z" class="g0_302"/>
<path fill-rule="evenodd" d="M186.7,675.9H348.4V661.2H186.7v14.7Z" class="g0_302"/>
<path fill-rule="evenodd" d="M186.7,690.5H348.4V675.9H186.7v14.6Z" class="g0_302"/>
<path fill-rule="evenodd" d="M185.9,705.2H427.6V690.5H185.9v14.7Z" class="g0_302"/>
<path fill-rule="evenodd" d="M185.9,719.9H427.6V705.2H185.9v14.7Z" class="g0_302"/>
<path fill-rule="evenodd" d="M185.9,734.5H427.6V719.9H185.9v14.6Z" class="g0_302"/>
<path fill-rule="evenodd" d="M185.9,749.2H427.6V734.5H185.9v14.7Z" class="g0_302"/>
<path fill-rule="evenodd" d="M185.9,763.9H427.6V749.2H185.9v14.7Z" class="g0_302"/>
<path fill-rule="evenodd" d="M185.9,778.5H427.6V763.9H185.9v14.6Z" class="g0_302"/>
<path fill-rule="evenodd" d="M185.9,793.2H427.6V778.5H185.9v14.7Z" class="g0_302"/>
<path fill-rule="evenodd" d="M185.9,807.9H427.6V793.2H185.9v14.7Z" class="g0_302"/>
<path fill-rule="evenodd" d="M185.9,822.5H427.6V807.9H185.9v14.6Z" class="g0_302"/>
<path fill-rule="evenodd" d="M185.9,837.3H427.6V822.5H185.9v14.8Z" class="g0_302"/>
<path fill-rule="evenodd" d="M185.9,851.9H427.6V837.3H185.9v14.6Z" class="g0_302"/>
<path fill-rule="evenodd" d="M186.7,866.6H425.8V851.9H186.7v14.7Z" class="g0_302"/>
<path fill-rule="evenodd" d="M186.7,881.3H425.8V866.6H186.7v14.7Z" class="g0_302"/>
<path fill-rule="evenodd" d="M187.4,895.9H427.6V881.3H187.4v14.6Z" class="g0_302"/>
<path fill-rule="evenodd" d="M447.4,161.7h241V147.1h-241v14.6Z" class="g0_302"/>
<path fill-rule="evenodd" d="M447.4,176.4h241V161.7h-241v14.7Z" class="g0_302"/>
<path fill-rule="evenodd" d="M447.4,191.1h241V176.4h-241v14.7Z" class="g0_302"/>
<path fill-rule="evenodd" d="M447.4,205.7h241V191.1h-241v14.6Z" class="g0_302"/>
<path fill-rule="evenodd" d="M447.4,220.4h241V205.7h-241v14.7Z" class="g0_302"/>
<path fill-rule="evenodd" d="M447.4,235.1h241V220.4h-241v14.7Z" class="g0_302"/>
<path fill-rule="evenodd" d="M447.4,249.7h241V235.1h-241v14.6Z" class="g0_302"/>
<path fill-rule="evenodd" d="M447.4,264.4h241V249.7h-241v14.7Z" class="g0_302"/>
<path fill-rule="evenodd" d="M447.4,279.1h241V264.4h-241v14.7Z" class="g0_302"/>
<path fill-rule="evenodd" d="M447.4,293.7h241V279.1h-241v14.6Z" class="g0_302"/>
<path fill-rule="evenodd" d="M447.4,308.4h241V293.7h-241v14.7Z" class="g0_302"/>
<path fill-rule="evenodd" d="M447.4,323.1h241V308.4h-241v14.7Z" class="g0_302"/>
<path fill-rule="evenodd" d="M447.4,337.7h241V323.1h-241v14.6Z" class="g0_302"/>
<path fill-rule="evenodd" d="M447.4,352.4h241V337.7h-241v14.7Z" class="g0_302"/>
<path fill-rule="evenodd" d="M447.4,367.1h241V352.4h-241v14.7Z" class="g0_302"/>
<path fill-rule="evenodd" d="M447.4,381.8h241V367.1h-241v14.7Z" class="g0_302"/>
<path fill-rule="evenodd" d="M447,396.8H688.4V382.1H447v14.7Z" class="g0_302"/>
<path fill-rule="evenodd" d="M447,411.5H688.4V396.8H447v14.7Z" class="g0_302"/>
<path fill-rule="evenodd" d="M447,426.1H688.4V411.5H447v14.6Z" class="g0_302"/>
<path fill-rule="evenodd" d="M447,440.8H688.4V426.1H447v14.7Z" class="g0_302"/>
<path fill-rule="evenodd" d="M447,455.5H688.4V440.8H447v14.7Z" class="g0_302"/>
<path fill-rule="evenodd" d="M447.4,470.1h241V455.5h-241v14.6Z" class="g0_302"/>
<path fill-rule="evenodd" d="M447.4,484.8h241V470.1h-241v14.7Z" class="g0_302"/>
<path fill-rule="evenodd" d="M447.4,499.5h241V484.8h-241v14.7Z" class="g0_302"/>
<path fill-rule="evenodd" d="M447.4,514.1h241V499.5h-241v14.6Z" class="g0_302"/>
<path fill-rule="evenodd" d="M447,529.2H688.4V514.5H447v14.7Z" class="g0_302"/>
<path fill-rule="evenodd" d="M447,543.8H688.4V529.2H447v14.6Z" class="g0_302"/>
<path fill-rule="evenodd" d="M447,558.5H688.4V543.8H447v14.7Z" class="g0_302"/>
<path fill-rule="evenodd" d="M447,573.2H688.4V558.5H447v14.7Z" class="g0_302"/>
<path fill-rule="evenodd" d="M447,587.8H688.4V573.2H447v14.6Z" class="g0_302"/>
<path fill-rule="evenodd" d="M447,602.5H688.4V587.8H447v14.7Z" class="g0_302"/>
<path fill-rule="evenodd" d="M446.3,617.6H686.9V602.9H446.3v14.7Z" class="g0_302"/>
<path fill-rule="evenodd" d="M446.3,632.2H686.9V617.6H446.3v14.6Z" class="g0_302"/>
<path fill-rule="evenodd" d="M446.3,646.9H686.9V632.2H446.3v14.7Z" class="g0_302"/>
<path fill-rule="evenodd" d="M446.3,661.6H686.9V646.9H446.3v14.7Z" class="g0_302"/>
<path fill-rule="evenodd" d="M446.3,676.2H686.9V661.6H446.3v14.6Z" class="g0_302"/>
<path fill-rule="evenodd" d="M446.3,690.9H686.9V676.2H446.3v14.7Z" class="g0_302"/>
<path fill-rule="evenodd" d="M446.3,705.6H686.9V690.9H446.3v14.7Z" class="g0_302"/>
<path fill-rule="evenodd" d="M446.7,720.2H688.4V705.6H446.7v14.6Z" class="g0_302"/>
<path fill-rule="evenodd" d="M446.7,734.9H688.4V720.2H446.7v14.7Z" class="g0_302"/>
<path fill-rule="evenodd" d="M446.7,749.6H688.4V734.9H446.7v14.7Z" class="g0_302"/>
<path fill-rule="evenodd" d="M446.7,764.2H688.4V749.6H446.7v14.6Z" class="g0_302"/>
<path fill-rule="evenodd" d="M446.7,778.9H688.4V764.2H446.7v14.7Z" class="g0_302"/>
<path fill-rule="evenodd" d="M446.7,793.6H688.4V778.9H446.7v14.7Z" class="g0_302"/>
<path fill-rule="evenodd" d="M445.9,808.6H686.6V793.9H445.9v14.7Z" class="g0_302"/>
<path fill-rule="evenodd" d="M445.9,823.3H686.6V808.6H445.9v14.7Z" class="g0_302"/>
<path fill-rule="evenodd" d="M445.9,838H686.6V823.3H445.9V838Z" class="g0_302"/>
<path fill-rule="evenodd" d="M445.9,852.7H686.6V838H445.9v14.7Z" class="g0_302"/>
<path fill-rule="evenodd" d="M445.9,867.3H686.6V852.7H445.9v14.6Z" class="g0_302"/>
<path fill-rule="evenodd" d="M445.9,882H686.6V867.3H445.9V882Z" class="g0_302"/>
<path d="M435.6,146.7V915.2" class="g1_302"/>
</svg>