<?xml version="1.0" encoding="UTF-8" standalone="no"?>
<!DOCTYPE svg PUBLIC "-//W3C//DTD SVG 1.1//EN"
"http://www.w3.org/Graphics/SVG/1.1/DTD/svg11.dtd">
<svg viewBox="0 0 909 1285" version="1.1" xmlns="http://www.w3.org/2000/svg" xmlns:xlink="http://www.w3.org/1999/xlink">
<defs>
<style type="text/css"><![CDATA[
.g0_204{
fill: #FFFFFF;
}
.g1_204{
fill: none;
stroke: #000000;
stroke-width: 0.381;
stroke-linecap: butt;
stroke-linejoin: round;
}
]]></style>
</defs>
<path fill-rule="evenodd" d="M638.2,125.8h59.4V110H638.2v15.8Z" class="g0_204"/>
<path fill-rule="evenodd" d="M184.5,161.4H422.8V146.3H184.5v15.1Z" class="g0_204"/>
<path fill-rule="evenodd" d="M184.5,176.4H422.8v-15H184.5v15Z" class="g0_204"/>
<path fill-rule="evenodd" d="M184.5,191.6H422.8V176.4H184.5v15.2Z" class="g0_204"/>
<path fill-rule="evenodd" d="M184.5,206.6H422.8v-15H184.5v15Z" class="g0_204"/>
<path fill-rule="evenodd" d="M185.2,221.7H422.8V206.6H185.2v15.1Z" class="g0_204"/>
<path fill-rule="evenodd" d="M185.2,236.7H422.8v-15H185.2v15Z" class="g0_204"/>
<path fill-rule="evenodd" d="M185.2,251.7H422.8v-15H185.2v15Z" class="g0_204"/>
<path fill-rule="evenodd" d="M185.2,266.8H422.8V251.7H185.2v15.1Z" class="g0_204"/>
<path fill-rule="evenodd" d="M184.1,281.8H422.8v-15H184.1v15Z" class="g0_204"/>
<path fill-rule="evenodd" d="M184.1,296.8H422.8v-15H184.1v15Z" class="g0_204"/>
<path fill-rule="evenodd" d="M184.1,311.9H422.8V296.8H184.1v15.1Z" class="g0_204"/>
<path fill-rule="evenodd" d="M184.1,326.9H422.8v-15H184.1v15Z" class="g0_204"/>
<path fill-rule="evenodd" d="M184.1,341.9H422.8v-15H184.1v15Z" class="g0_204"/>
<path fill-rule="evenodd" d="M183.4,357.2H422.8V342H183.4v15.2Z" class="g0_204"/>
<path fill-rule="evenodd" d="M183.4,372.2H422.8v-15H183.4v15Z" class="g0_204"/>
<path fill-rule="evenodd" d="M183.4,387.3H422.8V372.2H183.4v15.1Z" class="g0_204"/>
<path fill-rule="evenodd" d="M183.4,402.3H422.8v-15H183.4v15Z" class="g0_204"/>
<path fill-rule="evenodd" d="M183.4,417.3H422.8v-15H183.4v15Z" class="g0_204"/>
<path fill-rule="evenodd" d="M183.4,432.4H422.8V417.3H183.4v15.1Z" class="g0_204"/>
<path fill-rule="evenodd" d="M183.4,447.4H422.8v-15H183.4v15Z" class="g0_204"/>
<path fill-rule="evenodd" d="M183.4,462.4H422.8v-15H183.4v15Z" class="g0_204"/>
<path fill-rule="evenodd" d="M183.4,477.5H422.8V462.4H183.4v15.1Z" class="g0_204"/>
<path fill-rule="evenodd" d="M183.4,492.5H422.8v-15H183.4v15Z" class="g0_204"/>
<path fill-rule="evenodd" d="M183.4,507.5H422.8v-15H183.4v15Z" class="g0_204"/>
<path fill-rule="evenodd" d="M183,522.6H422.5V507.5H183v15.1Z" class="g0_204"/>
<path fill-rule="evenodd" d="M183,537.8H422.5V522.6H183v15.2Z" class="g0_204"/>
<path fill-rule="evenodd" d="M183,552.8H422.5v-15H183v15Z" class="g0_204"/>
<path fill-rule="evenodd" d="M183,567.9H422.5V552.8H183v15.1Z" class="g0_204"/>
<path fill-rule="evenodd" d="M183,582.9H422.5v-15H183v15Z" class="g0_204"/>
<path fill-rule="evenodd" d="M183,598H422.5V582.9H183V598Z" class="g0_204"/>
<path fill-rule="evenodd" d="M183,613H422.5V598H183v15Z" class="g0_204"/>
<path fill-rule="evenodd" d="M182.6,628H422.8V613H182.6v15Z" class="g0_204"/>
<path fill-rule="evenodd" d="M182.6,643.1H422.8V628H182.6v15.1Z" class="g0_204"/>
<path fill-rule="evenodd" d="M182.6,658.1H422.8v-15H182.6v15Z" class="g0_204"/>
<path fill-rule="evenodd" d="M182.6,673.1H422.8v-15H182.6v15Z" class="g0_204"/>
<path fill-rule="evenodd" d="M182.6,688.2H422.8V673.1H182.6v15.1Z" class="g0_204"/>
<path fill-rule="evenodd" d="M182.6,703.2H422.8v-15H182.6v15Z" class="g0_204"/>
<path fill-rule="evenodd" d="M182.6,718.4H422.8V703.2H182.6v15.2Z" class="g0_204"/>
<path fill-rule="evenodd" d="M182.6,733.4H422.8v-15H182.6v15Z" class="g0_204"/>
<path fill-rule="evenodd" d="M182.6,748.5H422.8V733.4H182.6v15.1Z" class="g0_204"/>
<path fill-rule="evenodd" d="M182.6,763.5H421.4v-15H182.6v15Z" class="g0_204"/>
<path fill-rule="evenodd" d="M182.6,778.5H421.4v-15H182.6v15Z" class="g0_204"/>
<path fill-rule="evenodd" d="M182.6,793.6H421.4V778.5H182.6v15.1Z" class="g0_204"/>
<path fill-rule="evenodd" d="M182.6,808.6H421.4v-15H182.6v15Z" class="g0_204"/>
<path fill-rule="evenodd" d="M182.6,823.6H421.4v-15H182.6v15Z" class="g0_204"/>
<path fill-rule="evenodd" d="M182.6,838.7H421.4V823.6H182.6v15.1Z" class="g0_204"/>
<path fill-rule="evenodd" d="M182.6,853.8H421.4V838.7H182.6v15.1Z" class="g0_204"/>
<path fill-rule="evenodd" d="M182.6,868.8H421.4v-15H182.6v15Z" class="g0_204"/>
<path fill-rule="evenodd" d="M184.5,883.8H422.8v-15H184.5v15Z" class="g0_204"/>
<path fill-rule="evenodd" d="M443,161.4H682.9V146.3H443v15.1Z" class="g0_204"/>
<path fill-rule="evenodd" d="M443,176.4H682.9v-15H443v15Z" class="g0_204"/>
<path fill-rule="evenodd" d="M443,191.6H682.9V176.4H443v15.2Z" class="g0_204"/>
<path fill-rule="evenodd" d="M443,206.6H682.9v-15H443v15Z" class="g0_204"/>
<path fill-rule="evenodd" d="M443,221.7H682.9V206.6H443v15.1Z" class="g0_204"/>
<path fill-rule="evenodd" d="M443,236.7H682.2v-15H443v15Z" class="g0_204"/>
<path fill-rule="evenodd" d="M443,251.7H682.2v-15H443v15Z" class="g0_204"/>
<path fill-rule="evenodd" d="M461.4,266.8H682.9V251.7H461.4v15.1Z" class="g0_204"/>
<path fill-rule="evenodd" d="M443,281.8H682.2v-15H443v15Z" class="g0_204"/>
<path fill-rule="evenodd" d="M443,296.8H682.2v-15H443v15Z" class="g0_204"/>
<path fill-rule="evenodd" d="M443,311.9H682.2V296.8H443v15.1Z" class="g0_204"/>
<path fill-rule="evenodd" d="M461,326.9H682.9v-15H461v15Z" class="g0_204"/>
<path fill-rule="evenodd" d="M461,341.9H682.9v-15H461v15Z" class="g0_204"/>
<path fill-rule="evenodd" d="M460.6,357.2H682.9V342H460.6v15.2Z" class="g0_204"/>
<path fill-rule="evenodd" d="M442.6,372.2H681.8v-15H442.6v15Z" class="g0_204"/>
<path fill-rule="evenodd" d="M442.6,387.3H681.8V372.2H442.6v15.1Z" class="g0_204"/>
<path fill-rule="evenodd" d="M442.6,402.3H682.2v-15H442.6v15Z" class="g0_204"/>
<path fill-rule="evenodd" d="M442.6,417.3H682.2v-15H442.6v15Z" class="g0_204"/>
<path fill-rule="evenodd" d="M442.3,432.7H682.2v-15H442.3v15Z" class="g0_204"/>
<path fill-rule="evenodd" d="M442.3,447.8H682.2V432.7H442.3v15.1Z" class="g0_204"/>
<path fill-rule="evenodd" d="M442.3,462.8H682.2v-15H442.3v15Z" class="g0_204"/>
<path fill-rule="evenodd" d="M442.3,477.8H682.2v-15H442.3v15Z" class="g0_204"/>
<path fill-rule="evenodd" d="M461,492.9H682.9V477.8H461v15.1Z" class="g0_204"/>
<path fill-rule="evenodd" d="M442.3,507.9H682.2v-15H442.3v15Z" class="g0_204"/>
<path fill-rule="evenodd" d="M442.3,523.1H682.2V507.9H442.3v15.2Z" class="g0_204"/>
<path fill-rule="evenodd" d="M442.3,538.2H682.2V523.1H442.3v15.1Z" class="g0_204"/>
<path fill-rule="evenodd" d="M442.3,553.2H682.2v-15H442.3v15Z" class="g0_204"/>
<path fill-rule="evenodd" d="M442.3,568.2H682.2v-15H442.3v15Z" class="g0_204"/>
<path fill-rule="evenodd" d="M442.3,583.3H682.2V568.2H442.3v15.1Z" class="g0_204"/>
<path fill-rule="evenodd" d="M442.3,598.3H682.2v-15H442.3v15Z" class="g0_204"/>
<path fill-rule="evenodd" d="M441.9,613.4H681.4V598.3H441.9v15.1Z" class="g0_204"/>
<path fill-rule="evenodd" d="M441.9,628.4H681.4v-15H441.9v15Z" class="g0_204"/>
<path fill-rule="evenodd" d="M441.9,643.4H681.4v-15H441.9v15Z" class="g0_204"/>
<path fill-rule="evenodd" d="M441.9,658.5H681.4V643.4H441.9v15.1Z" class="g0_204"/>
<path fill-rule="evenodd" d="M441.9,673.5H681.8v-15H441.9v15Z" class="g0_204"/>
<path fill-rule="evenodd" d="M441.9,688.5H681.8v-15H441.9v15Z" class="g0_204"/>
<path fill-rule="evenodd" d="M441.5,703.7H681.4V688.5H441.5v15.2Z" class="g0_204"/>
<path fill-rule="evenodd" d="M441.5,718.8H681.4V703.7H441.5v15.1Z" class="g0_204"/>
<path fill-rule="evenodd" d="M441.5,733.8H681.4v-15H441.5v15Z" class="g0_204"/>
<path fill-rule="evenodd" d="M441.5,748.8H681.4v-15H441.5v15Z" class="g0_204"/>
<path fill-rule="evenodd" d="M441.5,763.9H681.4V748.8H441.5v15.1Z" class="g0_204"/>
<path fill-rule="evenodd" d="M441.5,778.9H681.4v-15H441.5v15Z" class="g0_204"/>
<path fill-rule="evenodd" d="M441.5,793.9H681.4v-15H441.5v15Z" class="g0_204"/>
<path fill-rule="evenodd" d="M441.5,809H681.4V793.9H441.5V809Z" class="g0_204"/>
<path fill-rule="evenodd" d="M441.5,824H681.4V809H441.5v15Z" class="g0_204"/>
<path fill-rule="evenodd" d="M441.2,839.1H681.4V824H441.2v15.1Z" class="g0_204"/>
<path fill-rule="evenodd" d="M441.2,854.1H681.4v-15H441.2v15Z" class="g0_204"/>
<path fill-rule="evenodd" d="M441.2,869.2H681.4V854.1H441.2v15.1Z" class="g0_204"/>
<path fill-rule="evenodd" d="M441.2,884.4H681.4V869.2H441.2v15.2Z" class="g0_204"/>
<path fill-rule="evenodd" d="M441.2,899.4H681.4v-15H441.2v15Z" class="g0_204"/>
<path fill-rule="evenodd" d="M418.4,932.2H697.6V913H418.4v19.2Z" class="g0_204"/>
<path d="M430.8,146V914.5" class="g1_204"/>
</svg>