<?xml version="1.0" encoding="UTF-8" standalone="no"?>
<!DOCTYPE svg PUBLIC "-//W3C//DTD SVG 1.1//EN"
"http://www.w3.org/Graphics/SVG/1.1/DTD/svg11.dtd">
<svg viewBox="0 0 909 1285" version="1.1" xmlns="http://www.w3.org/2000/svg" xmlns:xlink="http://www.w3.org/1999/xlink">
<defs>
<style type="text/css"><![CDATA[
.g0_172{
fill: #FFFFFF;
}
.g1_172{
fill: none;
stroke: #000000;
stroke-width: 0.381;
stroke-linecap: butt;
stroke-linejoin: round;
}
]]></style>
</defs>
<path fill-rule="evenodd" d="M638.2,134.6h59.5V110H638.2v24.6Z" class="g0_172"/>
<path fill-rule="evenodd" d="M191.1,168.7h238V154h-238v14.7Z" class="g0_172"/>
<path fill-rule="evenodd" d="M191.1,183.4h238V168.7h-238v14.7Z" class="g0_172"/>
<path fill-rule="evenodd" d="M191.1,198h238V183.4h-238V198Z" class="g0_172"/>
<path fill-rule="evenodd" d="M190.7,212.7h238V198h-238v14.7Z" class="g0_172"/>
<path fill-rule="evenodd" d="M190.7,227.4h238V212.7h-238v14.7Z" class="g0_172"/>
<path fill-rule="evenodd" d="M190.7,242h238V227.4h-238V242Z" class="g0_172"/>
<path fill-rule="evenodd" d="M191.1,256.7H428.3V242H191.1v14.7Z" class="g0_172"/>
<path fill-rule="evenodd" d="M191.1,271.4H428.3V256.7H191.1v14.7Z" class="g0_172"/>
<path fill-rule="evenodd" d="M208.3,286H429.1V271.4H208.3V286Z" class="g0_172"/>
<path fill-rule="evenodd" d="M190.3,301.1h238V286.4h-238v14.7Z" class="g0_172"/>
<path fill-rule="evenodd" d="M190.3,315.7h238V301.1h-238v14.6Z" class="g0_172"/>
<path fill-rule="evenodd" d="M190.3,330.4h238V315.7h-238v14.7Z" class="g0_172"/>
<path fill-rule="evenodd" d="M190.3,345.4H427.6V330.8H190.3v14.6Z" class="g0_172"/>
<path fill-rule="evenodd" d="M190.3,360.1H427.6V345.4H190.3v14.7Z" class="g0_172"/>
<path fill-rule="evenodd" d="M190.3,374.8h238V360.1h-238v14.7Z" class="g0_172"/>
<path fill-rule="evenodd" d="M190.3,389.5h238V374.8h-238v14.7Z" class="g0_172"/>
<path fill-rule="evenodd" d="M190.3,404.1h238V389.5h-238v14.6Z" class="g0_172"/>
<path fill-rule="evenodd" d="M190.3,418.8h238V404.1h-238v14.7Z" class="g0_172"/>
<path fill-rule="evenodd" d="M189.6,433.8H428.3V419.2H189.6v14.6Z" class="g0_172"/>
<path fill-rule="evenodd" d="M189.6,448.5H428.3V433.8H189.6v14.7Z" class="g0_172"/>
<path fill-rule="evenodd" d="M189.6,463.2H428.3V448.5H189.6v14.7Z" class="g0_172"/>
<path fill-rule="evenodd" d="M189.6,477.8H428.3V463.2H189.6v14.6Z" class="g0_172"/>
<path fill-rule="evenodd" d="M189.6,492.5H428.3V477.8H189.6v14.7Z" class="g0_172"/>
<path fill-rule="evenodd" d="M189.6,507.2H428.3V492.5H189.6v14.7Z" class="g0_172"/>
<path fill-rule="evenodd" d="M189.6,522.2H428V507.5H189.6v14.7Z" class="g0_172"/>
<path fill-rule="evenodd" d="M189.6,536.9H428V522.2H189.6v14.7Z" class="g0_172"/>
<path fill-rule="evenodd" d="M189.2,551.5H428V536.9H189.2v14.6Z" class="g0_172"/>
<path fill-rule="evenodd" d="M189.2,566.2H428V551.5H189.2v14.7Z" class="g0_172"/>
<path fill-rule="evenodd" d="M189.2,580.9H428V566.2H189.2v14.7Z" class="g0_172"/>
<path fill-rule="evenodd" d="M189.2,595.6H427.6V580.9H189.2v14.7Z" class="g0_172"/>
<path fill-rule="evenodd" d="M189.2,610.2H427.6V595.6H189.2v14.6Z" class="g0_172"/>
<path fill-rule="evenodd" d="M189.2,624.9H427.6V610.2H189.2v14.7Z" class="g0_172"/>
<path fill-rule="evenodd" d="M188.9,639.9H427.2V625.3H188.9v14.6Z" class="g0_172"/>
<path fill-rule="evenodd" d="M188.9,654.6H427.2V639.9H188.9v14.7Z" class="g0_172"/>
<path fill-rule="evenodd" d="M188.9,669.3H427.2V654.6H188.9v14.7Z" class="g0_172"/>
<path fill-rule="evenodd" d="M188.9,683.9H427.2V669.3H188.9v14.6Z" class="g0_172"/>
<path fill-rule="evenodd" d="M188.9,699.2h238V684.3h-238v14.9Z" class="g0_172"/>
<path fill-rule="evenodd" d="M188.9,713.8h238V699.2h-238v14.6Z" class="g0_172"/>
<path fill-rule="evenodd" d="M188.9,728.9h238V713.8h-238v15.1Z" class="g0_172"/>
<path fill-rule="evenodd" d="M188.9,743.5h238V728.9h-238v14.6Z" class="g0_172"/>
<path fill-rule="evenodd" d="M188.5,758.2H426.9V743.5H188.5v14.7Z" class="g0_172"/>
<path fill-rule="evenodd" d="M188.5,772.9H426.9V758.2H188.5v14.7Z" class="g0_172"/>
<path fill-rule="evenodd" d="M188.5,787.5H426.9V772.9H188.5v14.6Z" class="g0_172"/>
<path fill-rule="evenodd" d="M188.9,802.2H426.5V787.5H188.9v14.7Z" class="g0_172"/>
<path fill-rule="evenodd" d="M188.9,816.9H426.5V802.2H188.9v14.7Z" class="g0_172"/>
<path fill-rule="evenodd" d="M188.5,831.5H427.2V816.9H188.5v14.6Z" class="g0_172"/>
<path fill-rule="evenodd" d="M188.5,846.2H427.2V831.5H188.5v14.7Z" class="g0_172"/>
<path fill-rule="evenodd" d="M190.3,860.9H428.7V846.2H190.3v14.7Z" class="g0_172"/>
<path fill-rule="evenodd" d="M449.3,168.7H688.7V154H449.3v14.7Z" class="g0_172"/>
<path fill-rule="evenodd" d="M449.3,183.4H688.7V168.7H449.3v14.7Z" class="g0_172"/>
<path fill-rule="evenodd" d="M449.3,198H688.7V183.4H449.3V198Z" class="g0_172"/>
<path fill-rule="evenodd" d="M449.3,212.7H688.7V198H449.3v14.7Z" class="g0_172"/>
<path fill-rule="evenodd" d="M449.3,227.4H688.7V212.7H449.3v14.7Z" class="g0_172"/>
<path fill-rule="evenodd" d="M448.9,242H689.1V227.4H448.9V242Z" class="g0_172"/>
<path fill-rule="evenodd" d="M448.9,256.7H689.1V242H448.9v14.7Z" class="g0_172"/>
<path fill-rule="evenodd" d="M448.9,271.4H689.1V256.7H448.9v14.7Z" class="g0_172"/>
<path fill-rule="evenodd" d="M448.9,286H689.1V271.4H448.9V286Z" class="g0_172"/>
<path fill-rule="evenodd" d="M448.9,300.7H689.1V286H448.9v14.7Z" class="g0_172"/>
<path fill-rule="evenodd" d="M448.5,315.7H688.8V301.1H448.5v14.6Z" class="g0_172"/>
<path fill-rule="evenodd" d="M448.5,330.4H688.8V315.7H448.5v14.7Z" class="g0_172"/>
<path fill-rule="evenodd" d="M448.5,345.1H688.8V330.4H448.5v14.7Z" class="g0_172"/>
<path fill-rule="evenodd" d="M448.5,359.8H688.8V345.1H448.5v14.7Z" class="g0_172"/>
<path fill-rule="evenodd" d="M448.9,374.8H689.1V360.1H448.9v14.7Z" class="g0_172"/>
<path fill-rule="evenodd" d="M448.9,389.5H689.1V374.8H448.9v14.7Z" class="g0_172"/>
<path fill-rule="evenodd" d="M467.2,404.5H689.1V389.8H467.2v14.7Z" class="g0_172"/>
<path fill-rule="evenodd" d="M448.9,419.2H688V404.5H448.9v14.7Z" class="g0_172"/>
<path fill-rule="evenodd" d="M448.9,433.8H688V419.2H448.9v14.6Z" class="g0_172"/>
<path fill-rule="evenodd" d="M448.9,448.9H688.4V434.2H448.9v14.7Z" class="g0_172"/>
<path fill-rule="evenodd" d="M448.9,463.5H688.4V448.9H448.9v14.6Z" class="g0_172"/>
<path fill-rule="evenodd" d="M448.5,478.2H688V463.5H448.5v14.7Z" class="g0_172"/>
<path fill-rule="evenodd" d="M448.5,492.9H688V478.2H448.5v14.7Z" class="g0_172"/>
<path fill-rule="evenodd" d="M448.5,507.9H688.4V493.2H448.5v14.7Z" class="g0_172"/>
<path fill-rule="evenodd" d="M448.5,522.6H688.4V507.9H448.5v14.7Z" class="g0_172"/>
<path fill-rule="evenodd" d="M448.5,537.2H688.4V522.6H448.5v14.6Z" class="g0_172"/>
<path fill-rule="evenodd" d="M448.1,552.5H687.7V537.6H448.1v14.9Z" class="g0_172"/>
<path fill-rule="evenodd" d="M448.1,567.1H687.7V552.5H448.1v14.6Z" class="g0_172"/>
<path fill-rule="evenodd" d="M448.1,581.8H687.7V567.1H448.1v14.7Z" class="g0_172"/>
<path fill-rule="evenodd" d="M448.1,596.5H687.3V581.8H448.1v14.7Z" class="g0_172"/>
<path fill-rule="evenodd" d="M448.1,611.2H687.3V596.5H448.1v14.7Z" class="g0_172"/>
<path fill-rule="evenodd" d="M447.8,625.8H687.7V611.2H447.8v14.6Z" class="g0_172"/>
<path fill-rule="evenodd" d="M447.8,640.5H687.7V625.8H447.8v14.7Z" class="g0_172"/>
<path fill-rule="evenodd" d="M447.8,655.2H687.7V640.5H447.8v14.7Z" class="g0_172"/>
<path fill-rule="evenodd" d="M448.1,670.2H687.3V655.5H448.1v14.7Z" class="g0_172"/>
<path fill-rule="evenodd" d="M448.1,684.9H687.3V670.2H448.1v14.7Z" class="g0_172"/>
<path fill-rule="evenodd" d="M447.8,700.3H686.9V685.6H447.8v14.7Z" class="g0_172"/>
<path fill-rule="evenodd" d="M447.8,714.9H686.9V700.3H447.8v14.6Z" class="g0_172"/>
<path fill-rule="evenodd" d="M447.4,729.6H687.3V714.9H447.4v14.7Z" class="g0_172"/>
<path fill-rule="evenodd" d="M447.4,744.3H687.3V729.6H447.4v14.7Z" class="g0_172"/>
<path fill-rule="evenodd" d="M447.4,759.3H689.1V744.6H447.4v14.7Z" class="g0_172"/>
<path fill-rule="evenodd" d="M447.4,774H689.1V759.3H447.4V774Z" class="g0_172"/>
<path fill-rule="evenodd" d="M447.4,788.6H689.1V774H447.4v14.6Z" class="g0_172"/>
<path fill-rule="evenodd" d="M447.4,803.3H689.1V788.6H447.4v14.7Z" class="g0_172"/>
<path fill-rule="evenodd" d="M466.1,818.3h223V803.7h-223v14.6Z" class="g0_172"/>
<path fill-rule="evenodd" d="M465.8,833.4H689.1V818.7H465.8v14.7Z" class="g0_172"/>
<path fill-rule="evenodd" d="M425.4,937.9H697.7V920.3H425.4v17.6Z" class="g0_172"/>
<path d="M436.6,153.2V870.1" class="g1_172"/>
</svg>