<?xml version="1.0" encoding="UTF-8" standalone="no"?>
<!DOCTYPE svg PUBLIC "-//W3C//DTD SVG 1.1//EN"
"http://www.w3.org/Graphics/SVG/1.1/DTD/svg11.dtd">
<svg viewBox="0 0 909 1285" version="1.1" xmlns="http://www.w3.org/2000/svg" xmlns:xlink="http://www.w3.org/1999/xlink">
<defs>
<style type="text/css"><![CDATA[
.g0_309{
fill: #FFFFFF;
}
.g1_309{
fill: none;
stroke: #000000;
stroke-width: 2.902;
stroke-linecap: butt;
stroke-linejoin: round;
}
.g2_309{
fill: none;
stroke: #000000;
stroke-width: 3.666;
stroke-linecap: butt;
stroke-linejoin: round;
}
.g3_309{
fill: none;
stroke: #000000;
stroke-width: 0.381;
stroke-linecap: butt;
stroke-linejoin: round;
}
]]></style>
</defs>
<path fill-rule="evenodd" d="M253.9,125.8H754.6V110H253.9v15.8Z" class="g0_309"/>
<path fill-rule="evenodd" d="M251.7,177.1H530.1V152.2H251.7v24.9Z" class="g0_309"/>
<path fill-rule="evenodd" d="M253.6,213.1H493.8V198.4H253.6v14.7Z" class="g0_309"/>
<path fill-rule="evenodd" d="M253.6,227.7H493.8V213.1H253.6v14.6Z" class="g0_309"/>
<path fill-rule="evenodd" d="M253.6,242.4H493.8V227.7H253.6v14.7Z" class="g0_309"/>
<path fill-rule="evenodd" d="M253.2,257.1H493.1V242.4H253.2v14.7Z" class="g0_309"/>
<path fill-rule="evenodd" d="M253.2,271.7H493.1V257.1H253.2v14.6Z" class="g0_309"/>
<path fill-rule="evenodd" d="M253.2,286.4H493.1V271.7H253.2v14.7Z" class="g0_309"/>
<path fill-rule="evenodd" d="M253.2,301.1H493.1V286.4H253.2v14.7Z" class="g0_309"/>
<path fill-rule="evenodd" d="M253.2,315.7H493.1V301.1H253.2v14.6Z" class="g0_309"/>
<path fill-rule="evenodd" d="M253.2,330.4H493.1V315.7H253.2v14.7Z" class="g0_309"/>
<path fill-rule="evenodd" d="M253.2,345.1H493.1V330.4H253.2v14.7Z" class="g0_309"/>
<path fill-rule="evenodd" d="M252.5,359.8H492.7V345.1H252.5v14.7Z" class="g0_309"/>
<path fill-rule="evenodd" d="M252.5,374.4H492.7V359.8H252.5v14.6Z" class="g0_309"/>
<path fill-rule="evenodd" d="M252.5,389.1H492.7V374.4H252.5v14.7Z" class="g0_309"/>
<path fill-rule="evenodd" d="M252.8,403.8H493.5V389.1H252.8v14.7Z" class="g0_309"/>
<path fill-rule="evenodd" d="M252.8,418.4H493.5V403.8H252.8v14.6Z" class="g0_309"/>
<path fill-rule="evenodd" d="M252.8,433.1H493.5V418.4H252.8v14.7Z" class="g0_309"/>
<path fill-rule="evenodd" d="M253.2,447.8H492.7V433.1H253.2v14.7Z" class="g0_309"/>
<path fill-rule="evenodd" d="M253.2,462.4H492.7V447.8H253.2v14.6Z" class="g0_309"/>
<path fill-rule="evenodd" d="M252.5,477.5H492.4V462.8H252.5v14.7Z" class="g0_309"/>
<path fill-rule="evenodd" d="M252.5,492.1H492.4V477.5H252.5v14.6Z" class="g0_309"/>
<path fill-rule="evenodd" d="M252.5,506.8H492.4V492.1H252.5v14.7Z" class="g0_309"/>
<path fill-rule="evenodd" d="M252.1,521.8H492.4V507.2H252.1v14.6Z" class="g0_309"/>
<path fill-rule="evenodd" d="M252.1,536.5H492.4V521.8H252.1v14.7Z" class="g0_309"/>
<path fill-rule="evenodd" d="M252.1,551.2H492.4V536.5H252.1v14.7Z" class="g0_309"/>
<path fill-rule="evenodd" d="M252.5,565.8H492.7V551.2H252.5v14.6Z" class="g0_309"/>
<path fill-rule="evenodd" d="M252.5,580.5H492.7V565.8H252.5v14.7Z" class="g0_309"/>
<path fill-rule="evenodd" d="M252.5,595.2H492.7V580.5H252.5v14.7Z" class="g0_309"/>
<path fill-rule="evenodd" d="M252.5,609.9H492.7V595.2H252.5v14.7Z" class="g0_309"/>
<path fill-rule="evenodd" d="M252.5,624.5H492.7V609.9H252.5v14.6Z" class="g0_309"/>
<path fill-rule="evenodd" d="M252.1,639.2H492.4V624.5H252.1v14.7Z" class="g0_309"/>
<path fill-rule="evenodd" d="M252.1,653.9H492.4V639.2H252.1v14.7Z" class="g0_309"/>
<path fill-rule="evenodd" d="M252.1,668.5H492.4V653.9H252.1v14.6Z" class="g0_309"/>
<path fill-rule="evenodd" d="M252.1,683.2H492.4V668.5H252.1v14.7Z" class="g0_309"/>
<path fill-rule="evenodd" d="M270.5,697.9H493.8V683.2H270.5v14.7Z" class="g0_309"/>
<path fill-rule="evenodd" d="M252.1,712.9H491.6V698.2H252.1v14.7Z" class="g0_309"/>
<path fill-rule="evenodd" d="M252.1,727.6H491.6V712.9H252.1v14.7Z" class="g0_309"/>
<path fill-rule="evenodd" d="M252.1,742.2H491.6V727.6H252.1v14.6Z" class="g0_309"/>
<path fill-rule="evenodd" d="M252.1,756.9H491.6V742.2H252.1v14.7Z" class="g0_309"/>
<path fill-rule="evenodd" d="M252.1,771.6H491.6V756.9H252.1v14.7Z" class="g0_309"/>
<path fill-rule="evenodd" d="M252.1,786.2H491.6V771.6H252.1v14.6Z" class="g0_309"/>
<path fill-rule="evenodd" d="M253.2,800.9H491.3V786.2H253.2v14.7Z" class="g0_309"/>
<path fill-rule="evenodd" d="M253.2,815.6H491.3V800.9H253.2v14.7Z" class="g0_309"/>
<path fill-rule="evenodd" d="M251.7,830.2H491.6V815.6H251.7v14.6Z" class="g0_309"/>
<path fill-rule="evenodd" d="M251.7,845H491.6V830.2H251.7V845Z" class="g0_309"/>
<path fill-rule="evenodd" d="M251.7,859.6H491.6V845H251.7v14.6Z" class="g0_309"/>
<path fill-rule="evenodd" d="M251.7,874.3H491.6V859.6H251.7v14.7Z" class="g0_309"/>
<path fill-rule="evenodd" d="M251.7,889H491.6V874.3H251.7V889Z" class="g0_309"/>
<path fill-rule="evenodd" d="M251.7,903.6H491.6V889H251.7v14.6Z" class="g0_309"/>
<path fill-rule="evenodd" d="M253.9,918.3H493.8V903.6H253.9v14.7Z" class="g0_309"/>
<path fill-rule="evenodd" d="M514,213.1H754.6V198.4H514v14.7Z" class="g0_309"/>
<path fill-rule="evenodd" d="M514,227.7H754.6V213.1H514v14.6Z" class="g0_309"/>
<path fill-rule="evenodd" d="M514,242.4H754.6V227.7H514v14.7Z" class="g0_309"/>
<path fill-rule="evenodd" d="M514,257.1H754.6V242.4H514v14.7Z" class="g0_309"/>
<path fill-rule="evenodd" d="M532,271.7H754.6V257.1H532v14.6Z" class="g0_309"/>
<path fill-rule="evenodd" d="M532.3,286.8H754.6V272.1H532.3v14.7Z" class="g0_309"/>
<path fill-rule="evenodd" d="M514,301.4H753.1V286.8H514v14.6Z" class="g0_309"/>
<path fill-rule="evenodd" d="M514,316.1H753.1V301.4H514v14.7Z" class="g0_309"/>
<path fill-rule="evenodd" d="M513.6,330.8H753.5V316.1H513.6v14.7Z" class="g0_309"/>
<path fill-rule="evenodd" d="M513.6,345.4H753.5V330.8H513.6v14.6Z" class="g0_309"/>
<path fill-rule="evenodd" d="M513.3,360.1H753.8V345.4H513.3v14.7Z" class="g0_309"/>
<path fill-rule="evenodd" d="M513.3,374.8H753.8V360.1H513.3v14.7Z" class="g0_309"/>
<path fill-rule="evenodd" d="M513.3,389.5H753.8V374.8H513.3v14.7Z" class="g0_309"/>
<path fill-rule="evenodd" d="M513.3,404.1H753.8V389.5H513.3v14.6Z" class="g0_309"/>
<path fill-rule="evenodd" d="M511.8,418.8h242V404.1h-242v14.7Z" class="g0_309"/>
<path fill-rule="evenodd" d="M511.8,433.5h242V418.8h-242v14.7Z" class="g0_309"/>
<path fill-rule="evenodd" d="M511.8,448.1h242V433.5h-242v14.6Z" class="g0_309"/>
<path fill-rule="evenodd" d="M511.8,462.8h242V448.1h-242v14.7Z" class="g0_309"/>
<path fill-rule="evenodd" d="M511.8,477.5h242V462.8h-242v14.7Z" class="g0_309"/>
<path fill-rule="evenodd" d="M511.8,492.1h242V477.5h-242v14.6Z" class="g0_309"/>
<path fill-rule="evenodd" d="M511.8,506.8h242V492.1h-242v14.7Z" class="g0_309"/>
<path fill-rule="evenodd" d="M511.8,521.5h242V506.8h-242v14.7Z" class="g0_309"/>
<path fill-rule="evenodd" d="M511.8,536.1h242V521.5h-242v14.6Z" class="g0_309"/>
<path fill-rule="evenodd" d="M511.8,550.8h242V536.1h-242v14.7Z" class="g0_309"/>
<path fill-rule="evenodd" d="M511.8,565.5h242V550.8h-242v14.7Z" class="g0_309"/>
<path fill-rule="evenodd" d="M511.8,580.1h242V565.5h-242v14.6Z" class="g0_309"/>
<path fill-rule="evenodd" d="M511.8,594.8h242V580.1h-242v14.7Z" class="g0_309"/>
<path fill-rule="evenodd" d="M511.8,609.5h242V594.8h-242v14.7Z" class="g0_309"/>
<path fill-rule="evenodd" d="M511.8,624.2h242V609.5h-242v14.7Z" class="g0_309"/>
<path fill-rule="evenodd" d="M511.8,638.8h242V624.2h-242v14.6Z" class="g0_309"/>
<path fill-rule="evenodd" d="M511.8,653.5h242V638.8h-242v14.7Z" class="g0_309"/>
<path fill-rule="evenodd" d="M511.8,668.2h242V653.5h-242v14.7Z" class="g0_309"/>
<path fill-rule="evenodd" d="M511.8,682.8h242V668.2h-242v14.6Z" class="g0_309"/>
<path fill-rule="evenodd" d="M511.8,697.5h242V682.8h-242v14.7Z" class="g0_309"/>
<path fill-rule="evenodd" d="M511.8,712.2h242V697.5h-242v14.7Z" class="g0_309"/>
<path fill-rule="evenodd" d="M511.8,726.8h242V712.2h-242v14.6Z" class="g0_309"/>
<path fill-rule="evenodd" d="M511.8,741.5h242V726.8h-242v14.7Z" class="g0_309"/>
<path fill-rule="evenodd" d="M511.8,756.2h242V741.5h-242v14.7Z" class="g0_309"/>
<path fill-rule="evenodd" d="M511.8,770.8h242V756.2h-242v14.6Z" class="g0_309"/>
<path fill-rule="evenodd" d="M511.8,785.5h242V770.8h-242v14.7Z" class="g0_309"/>
<path fill-rule="evenodd" d="M511.8,800.2h242V785.5h-242v14.7Z" class="g0_309"/>
<path fill-rule="evenodd" d="M511.8,814.8h242V800.2h-242v14.6Z" class="g0_309"/>
<path fill-rule="evenodd" d="M511.8,829.5h242V814.8h-242v14.7Z" class="g0_309"/>
<path fill-rule="evenodd" d="M511.8,844.2h242V829.5h-242v14.7Z" class="g0_309"/>
<path fill-rule="evenodd" d="M511.8,858.9h242V844.2h-242v14.7Z" class="g0_309"/>
<path fill-rule="evenodd" d="M512.2,873.6H752V858.9H512.2v14.7Z" class="g0_309"/>
<path fill-rule="evenodd" d="M512.2,888.2H752V873.6H512.2v14.6Z" class="g0_309"/>
<path fill-rule="evenodd" d="M512.2,902.9H752V888.2H512.2v14.7Z" class="g0_309"/>
<path fill-rule="evenodd" d="M488.7,935.9H754.6V918.3H488.7v17.6Z" class="g0_309"/>
<path d="M169.2,300.7V927.3" class="g1_309"/>
<path d="M181.7,737V981.2" class="g2_309"/>
<path d="M202.6,821.7V995.5M207.3,88.4V380.3M501.8,196.9V916.4" class="g3_309"/>
</svg>