<?xml version="1.0" encoding="UTF-8" standalone="no"?>
<!DOCTYPE svg PUBLIC "-//W3C//DTD SVG 1.1//EN"
"http://www.w3.org/Graphics/SVG/1.1/DTD/svg11.dtd">
<svg viewBox="0 0 909 1285" version="1.1" xmlns="http://www.w3.org/2000/svg" xmlns:xlink="http://www.w3.org/1999/xlink">
<defs>
<style type="text/css"><![CDATA[
.g0_275{
fill: #FFFFFF;
}
.g1_275{
fill: none;
stroke: #000000;
stroke-width: 0.381;
stroke-linecap: butt;
stroke-linejoin: round;
}
]]></style>
</defs>
<path fill-rule="evenodd" d="M634.3,125.8h59.4V110H634.3v15.8Z" class="g0_275"/>
<path fill-rule="evenodd" d="M185.7,161.4H424.8V146.3H185.7v15.1Z" class="g0_275"/>
<path fill-rule="evenodd" d="M186.1,176.4H424.8v-15H186.1v15Z" class="g0_275"/>
<path fill-rule="evenodd" d="M186.1,192H424.8V176.4H186.1V192Z" class="g0_275"/>
<path fill-rule="evenodd" d="M186.1,207H424.8V192H186.1v15Z" class="g0_275"/>
<path fill-rule="evenodd" d="M186.5,222.4H424.8v-15H186.5v15Z" class="g0_275"/>
<path fill-rule="evenodd" d="M185.7,237.4H424.8v-15H185.7v15Z" class="g0_275"/>
<path fill-rule="evenodd" d="M186.1,252.5H424.8V237.4H186.1v15.1Z" class="g0_275"/>
<path fill-rule="evenodd" d="M185.7,267.5H424.8v-15H185.7v15Z" class="g0_275"/>
<path fill-rule="evenodd" d="M185.7,282.5H424.8v-15H185.7v15Z" class="g0_275"/>
<path fill-rule="evenodd" d="M185.7,297.6H424.8V282.5H185.7v15.1Z" class="g0_275"/>
<path fill-rule="evenodd" d="M185.7,312.6H424.8v-15H185.7v15Z" class="g0_275"/>
<path fill-rule="evenodd" d="M185.7,327.8H424.8V312.6H185.7v15.2Z" class="g0_275"/>
<path fill-rule="evenodd" d="M185.7,342.9H424.8V327.8H185.7v15.1Z" class="g0_275"/>
<path fill-rule="evenodd" d="M185,357.9H424.8v-15H185v15Z" class="g0_275"/>
<path fill-rule="evenodd" d="M185,373H424.8V357.9H185V373Z" class="g0_275"/>
<path fill-rule="evenodd" d="M185,388H424.8V373H185v15Z" class="g0_275"/>
<path fill-rule="evenodd" d="M185,403H424.8V388H185v15Z" class="g0_275"/>
<path fill-rule="evenodd" d="M185,418.1H424.8V403H185v15.1Z" class="g0_275"/>
<path fill-rule="evenodd" d="M185,433.1H424.8v-15H185v15Z" class="g0_275"/>
<path fill-rule="evenodd" d="M185,448.1H424.8v-15H185v15Z" class="g0_275"/>
<path fill-rule="evenodd" d="M185,463.2H424.8V448.1H185v15.1Z" class="g0_275"/>
<path fill-rule="evenodd" d="M203.3,478.2H424.8v-15H203.3v15Z" class="g0_275"/>
<path fill-rule="evenodd" d="M185,493.2H375v-15H185v15Z" class="g0_275"/>
<path fill-rule="evenodd" d="M185,508.5H375V493.2H185v15.3Z" class="g0_275"/>
<path fill-rule="evenodd" d="M185,523.5H375v-15H185v15Z" class="g0_275"/>
<path fill-rule="evenodd" d="M184.6,538.5H424.1v-15H184.6v15Z" class="g0_275"/>
<path fill-rule="evenodd" d="M184.6,553.6H424.1V538.5H184.6v15.1Z" class="g0_275"/>
<path fill-rule="evenodd" d="M184.6,568.6H424.1v-15H184.6v15Z" class="g0_275"/>
<path fill-rule="evenodd" d="M184.6,583.6H424.1v-15H184.6v15Z" class="g0_275"/>
<path fill-rule="evenodd" d="M184.6,598.7H424.1V583.6H184.6v15.1Z" class="g0_275"/>
<path fill-rule="evenodd" d="M184.6,613.7H350v-15H184.6v15Z" class="g0_275"/>
<path fill-rule="evenodd" d="M184.6,628.8H350V613.7H184.6v15.1Z" class="g0_275"/>
<path fill-rule="evenodd" d="M184.3,643.8H423.4v-15H184.3v15Z" class="g0_275"/>
<path fill-rule="evenodd" d="M184.3,658.8H423.4v-15H184.3v15Z" class="g0_275"/>
<path fill-rule="evenodd" d="M184.3,673.9H423.4V658.8H184.3v15.1Z" class="g0_275"/>
<path fill-rule="evenodd" d="M184.3,689.1H423.4V673.9H184.3v15.2Z" class="g0_275"/>
<path fill-rule="evenodd" d="M184.3,704.1H375v-15H184.3v15Z" class="g0_275"/>
<path fill-rule="evenodd" d="M184.3,719.1H375v-15H184.3v15Z" class="g0_275"/>
<path fill-rule="evenodd" d="M183.2,734.2H423.4V719.1H183.2v15.1Z" class="g0_275"/>
<path fill-rule="evenodd" d="M183.2,749.2H423.4v-15H183.2v15Z" class="g0_275"/>
<path fill-rule="evenodd" d="M183.2,764.2H423.4v-15H183.2v15Z" class="g0_275"/>
<path fill-rule="evenodd" d="M183.2,779.3H423.4V764.2H183.2v15.1Z" class="g0_275"/>
<path fill-rule="evenodd" d="M183.2,794.3H423.4v-15H183.2v15Z" class="g0_275"/>
<path fill-rule="evenodd" d="M183.2,809.3H423.4v-15H183.2v15Z" class="g0_275"/>
<path fill-rule="evenodd" d="M183.2,824.4H423.4V809.3H183.2v15.1Z" class="g0_275"/>
<path fill-rule="evenodd" d="M183.2,839.5H423.4V824.4H183.2v15.1Z" class="g0_275"/>
<path fill-rule="evenodd" d="M183.2,854.5H423.4v-15H183.2v15Z" class="g0_275"/>
<path fill-rule="evenodd" d="M183.2,869.7H423.4V854.5H183.2v15.2Z" class="g0_275"/>
<path fill-rule="evenodd" d="M183.5,884.7H422.6v-15H183.5v15Z" class="g0_275"/>
<path fill-rule="evenodd" d="M183.5,899.8H422.6V884.7H183.5v15.1Z" class="g0_275"/>
<path fill-rule="evenodd" d="M186.1,914.8H424.5v-15H186.1v15Z" class="g0_275"/>
<path fill-rule="evenodd" d="M445.8,161.4H685.3V146.3H445.8v15.1Z" class="g0_275"/>
<path fill-rule="evenodd" d="M445.8,176.4H685.3v-15H445.8v15Z" class="g0_275"/>
<path fill-rule="evenodd" d="M445.8,191.6H685.3V176.4H445.8v15.2Z" class="g0_275"/>
<path fill-rule="evenodd" d="M445.4,206.6H685.6v-15H445.4v15Z" class="g0_275"/>
<path fill-rule="evenodd" d="M445.4,221.7H685.6V206.6H445.4v15.1Z" class="g0_275"/>
<path fill-rule="evenodd" d="M445.4,236.7H685.6v-15H445.4v15Z" class="g0_275"/>
<path fill-rule="evenodd" d="M445.8,251.7H685.6v-15H445.8v15Z" class="g0_275"/>
<path fill-rule="evenodd" d="M445,266.8H685.6V251.7H445v15.1Z" class="g0_275"/>
<path fill-rule="evenodd" d="M445,281.8H685.6v-15H445v15Z" class="g0_275"/>
<path fill-rule="evenodd" d="M445,296.8H685.6v-15H445v15Z" class="g0_275"/>
<path fill-rule="evenodd" d="M445,311.9H685.6V296.8H445v15.1Z" class="g0_275"/>
<path fill-rule="evenodd" d="M445,326.9H685.6v-15H445v15Z" class="g0_275"/>
<path fill-rule="evenodd" d="M445,341.9H685.6v-15H445v15Z" class="g0_275"/>
<path fill-rule="evenodd" d="M445,357.2H685.6V342H445v15.2Z" class="g0_275"/>
<path fill-rule="evenodd" d="M445,372.2H685.6v-15H445v15Z" class="g0_275"/>
<path fill-rule="evenodd" d="M445,387.3H685.6V372.2H445v15.1Z" class="g0_275"/>
<path fill-rule="evenodd" d="M444.7,402.3H685.6v-15H444.7v15Z" class="g0_275"/>
<path fill-rule="evenodd" d="M444.7,417.3H685.6v-15H444.7v15Z" class="g0_275"/>
<path fill-rule="evenodd" d="M444.7,432.4H685.6V417.3H444.7v15.1Z" class="g0_275"/>
<path fill-rule="evenodd" d="M444.7,447.4H685.6v-15H444.7v15Z" class="g0_275"/>
<path fill-rule="evenodd" d="M444.7,462.4H685.6v-15H444.7v15Z" class="g0_275"/>
<path fill-rule="evenodd" d="M444.3,477.5H684.5V462.4H444.3v15.1Z" class="g0_275"/>
<path fill-rule="evenodd" d="M444.3,492.5H684.5v-15H444.3v15Z" class="g0_275"/>
<path fill-rule="evenodd" d="M444.3,507.5H684.5v-15H444.3v15Z" class="g0_275"/>
<path fill-rule="evenodd" d="M444.3,522.6H684.5V507.5H444.3v15.1Z" class="g0_275"/>
<path fill-rule="evenodd" d="M444.3,537.8H684.5V522.6H444.3v15.2Z" class="g0_275"/>
<path fill-rule="evenodd" d="M443.9,552.8H685.6v-15H443.9v15Z" class="g0_275"/>
<path fill-rule="evenodd" d="M443.9,567.9H685.6V552.8H443.9v15.1Z" class="g0_275"/>
<path fill-rule="evenodd" d="M443.9,582.9H685.6v-15H443.9v15Z" class="g0_275"/>
<path fill-rule="evenodd" d="M443.9,598H685.6V582.9H443.9V598Z" class="g0_275"/>
<path fill-rule="evenodd" d="M443.9,613H685.6V598H443.9v15Z" class="g0_275"/>
<path fill-rule="evenodd" d="M444.3,628H683.4V613H444.3v15Z" class="g0_275"/>
<path fill-rule="evenodd" d="M444.3,643.1H683.4V628H444.3v15.1Z" class="g0_275"/>
<path fill-rule="evenodd" d="M443.9,658.1H632.8v-15H443.9v15Z" class="g0_275"/>
<path fill-rule="evenodd" d="M443.9,673.1H632.8v-15H443.9v15Z" class="g0_275"/>
<path fill-rule="evenodd" d="M442.8,688.2H683.4V673.1H442.8v15.1Z" class="g0_275"/>
<path fill-rule="evenodd" d="M442.8,703.2H683.4v-15H442.8v15Z" class="g0_275"/>
<path fill-rule="evenodd" d="M442.8,718.4H683.4V703.2H442.8v15.2Z" class="g0_275"/>
<path fill-rule="evenodd" d="M442.8,733.4H683.4v-15H442.8v15Z" class="g0_275"/>
<path fill-rule="evenodd" d="M443.6,748.5H683.1V733.4H443.6v15.1Z" class="g0_275"/>
<path fill-rule="evenodd" d="M443.6,763.5H683.1v-15H443.6v15Z" class="g0_275"/>
<path fill-rule="evenodd" d="M443.6,778.5H683.1v-15H443.6v15Z" class="g0_275"/>
<path fill-rule="evenodd" d="M443.6,793.6H683.1V778.5H443.6v15.1Z" class="g0_275"/>
<path fill-rule="evenodd" d="M443.6,808.6H659.2v-15H443.6v15Z" class="g0_275"/>
<path fill-rule="evenodd" d="M443.6,823.6H659.2v-15H443.6v15Z" class="g0_275"/>
<path fill-rule="evenodd" d="M443.2,838.7H682.7V823.6H443.2v15.1Z" class="g0_275"/>
<path fill-rule="evenodd" d="M443.2,853.8H682.7V838.7H443.2v15.1Z" class="g0_275"/>
<path d="M432.1,146V914.9" class="g1_275"/>
</svg>