<?xml version="1.0" encoding="UTF-8" standalone="no"?>
<!DOCTYPE svg PUBLIC "-//W3C//DTD SVG 1.1//EN"
"http://www.w3.org/Graphics/SVG/1.1/DTD/svg11.dtd">
<svg viewBox="0 0 909 1285" version="1.1" xmlns="http://www.w3.org/2000/svg" xmlns:xlink="http://www.w3.org/1999/xlink">
<defs>
<style type="text/css"><![CDATA[
.g0_231{
fill: #FFFFFF;
}
.g1_231{
fill: none;
stroke: #000000;
stroke-width: 1.069;
stroke-linecap: butt;
stroke-linejoin: round;
}
.g2_231{
fill: none;
stroke: #000000;
stroke-width: 0.381;
stroke-linecap: butt;
stroke-linejoin: round;
}
]]></style>
</defs>
<path fill-rule="evenodd" d="M261.3,125.8H761.5V110H261.3v15.8Z" class="g0_231"/>
<path fill-rule="evenodd" d="M261.3,161.7H501v-15H261.3v15Z" class="g0_231"/>
<path fill-rule="evenodd" d="M261.3,176.9H501V161.7H261.3v15.2Z" class="g0_231"/>
<path fill-rule="evenodd" d="M261.3,192H501V176.9H261.3V192Z" class="g0_231"/>
<path fill-rule="evenodd" d="M260.9,207h241V192h-241v15Z" class="g0_231"/>
<path fill-rule="evenodd" d="M260.9,222h241V207h-241v15Z" class="g0_231"/>
<path fill-rule="evenodd" d="M261.3,237.1H501.5V222H261.3v15.1Z" class="g0_231"/>
<path fill-rule="evenodd" d="M261.3,252.1H501.5v-15H261.3v15Z" class="g0_231"/>
<path fill-rule="evenodd" d="M260.9,267.1h241v-15h-241v15Z" class="g0_231"/>
<path fill-rule="evenodd" d="M260.9,282.2h241V267.1h-241v15.1Z" class="g0_231"/>
<path fill-rule="evenodd" d="M260.9,297.2h241v-15h-241v15Z" class="g0_231"/>
<path fill-rule="evenodd" d="M260.9,312.2H501v-15H260.9v15Z" class="g0_231"/>
<path fill-rule="evenodd" d="M260.9,327.3H501V312.2H260.9v15.1Z" class="g0_231"/>
<path fill-rule="evenodd" d="M260.5,342.5h241V327.3h-241v15.2Z" class="g0_231"/>
<path fill-rule="evenodd" d="M260.5,357.6h241V342.5h-241v15.1Z" class="g0_231"/>
<path fill-rule="evenodd" d="M260.5,372.6h241v-15h-241v15Z" class="g0_231"/>
<path fill-rule="evenodd" d="M260.5,387.6h241v-15h-241v15Z" class="g0_231"/>
<path fill-rule="evenodd" d="M260.5,402.7H501V387.6H260.5v15.1Z" class="g0_231"/>
<path fill-rule="evenodd" d="M260.5,417.7H501v-15H260.5v15Z" class="g0_231"/>
<path fill-rule="evenodd" d="M260.5,432.7H501v-15H260.5v15Z" class="g0_231"/>
<path fill-rule="evenodd" d="M278.9,447.8h223V432.7h-223v15.1Z" class="g0_231"/>
<path fill-rule="evenodd" d="M260.2,462.8H500.8v-15H260.2v15Z" class="g0_231"/>
<path fill-rule="evenodd" d="M260.2,477.8H500.8v-15H260.2v15Z" class="g0_231"/>
<path fill-rule="evenodd" d="M259.8,492.9H501.5V477.8H259.8v15.1Z" class="g0_231"/>
<path fill-rule="evenodd" d="M259.8,507.9H501.5v-15H259.8v15Z" class="g0_231"/>
<path fill-rule="evenodd" d="M259.8,523.1H501.5V507.9H259.8v15.2Z" class="g0_231"/>
<path fill-rule="evenodd" d="M259.8,538.2H501.5V523.1H259.8v15.1Z" class="g0_231"/>
<path fill-rule="evenodd" d="M259.8,553.2H501.5v-15H259.8v15Z" class="g0_231"/>
<path fill-rule="evenodd" d="M259.8,568.2H501.5v-15H259.8v15Z" class="g0_231"/>
<path fill-rule="evenodd" d="M259.8,583.3h241V568.2h-241v15.1Z" class="g0_231"/>
<path fill-rule="evenodd" d="M259.8,598.3h241v-15h-241v15Z" class="g0_231"/>
<path fill-rule="evenodd" d="M259.8,613.4h241V598.3h-241v15.1Z" class="g0_231"/>
<path fill-rule="evenodd" d="M260.2,628.4H500.4v-15H260.2v15Z" class="g0_231"/>
<path fill-rule="evenodd" d="M260.2,643.4H500.4v-15H260.2v15Z" class="g0_231"/>
<path fill-rule="evenodd" d="M260.2,658.5H500.4V643.4H260.2v15.1Z" class="g0_231"/>
<path fill-rule="evenodd" d="M259.8,673.5H499.7v-15H259.8v15Z" class="g0_231"/>
<path fill-rule="evenodd" d="M259.8,688.5H499.7v-15H259.8v15Z" class="g0_231"/>
<path fill-rule="evenodd" d="M259.4,703.7H500.1V688.5H259.4v15.2Z" class="g0_231"/>
<path fill-rule="evenodd" d="M259.4,718.8H500.1V703.7H259.4v15.1Z" class="g0_231"/>
<path fill-rule="evenodd" d="M259.4,733.8H500.1v-15H259.4v15Z" class="g0_231"/>
<path fill-rule="evenodd" d="M259.4,748.8H500.1v-15H259.4v15Z" class="g0_231"/>
<path fill-rule="evenodd" d="M259.4,763.9H500.1V748.8H259.4v15.1Z" class="g0_231"/>
<path fill-rule="evenodd" d="M258.7,778.9H500.1v-15H258.7v15Z" class="g0_231"/>
<path fill-rule="evenodd" d="M258.7,793.9H500.1v-15H258.7v15Z" class="g0_231"/>
<path fill-rule="evenodd" d="M258.7,809H500.1V793.9H258.7V809Z" class="g0_231"/>
<path fill-rule="evenodd" d="M258.7,824H500.1V809H258.7v15Z" class="g0_231"/>
<path fill-rule="evenodd" d="M258.7,839.1H500.1V824H258.7v15.1Z" class="g0_231"/>
<path fill-rule="evenodd" d="M258.7,854.1H500.1v-15H258.7v15Z" class="g0_231"/>
<path fill-rule="evenodd" d="M258.7,869.2H500.1V854.1H258.7v15.1Z" class="g0_231"/>
<path fill-rule="evenodd" d="M258.7,884.4H500.1V869.2H258.7v15.2Z" class="g0_231"/>
<path fill-rule="evenodd" d="M258.7,899.4H500.1v-15H258.7v15Z" class="g0_231"/>
<path fill-rule="evenodd" d="M260.9,914.4H501.5v-15H260.9v15Z" class="g0_231"/>
<path fill-rule="evenodd" d="M522.1,161.7H761.2v-15H522.1v15Z" class="g0_231"/>
<path fill-rule="evenodd" d="M522.1,176.9H761.2V161.7H522.1v15.2Z" class="g0_231"/>
<path fill-rule="evenodd" d="M540.4,192.3H761.5v-15H540.4v15Z" class="g0_231"/>
<path fill-rule="evenodd" d="M522.1,207.4H761.2V192.3H522.1v15.1Z" class="g0_231"/>
<path fill-rule="evenodd" d="M522.1,222.4H761.2v-15H522.1v15Z" class="g0_231"/>
<path fill-rule="evenodd" d="M522.4,237.4H760.8v-15H522.4v15Z" class="g0_231"/>
<path fill-rule="evenodd" d="M522.4,252.5H760.8V237.4H522.4v15.1Z" class="g0_231"/>
<path fill-rule="evenodd" d="M522.1,267.5H761.5v-15H522.1v15Z" class="g0_231"/>
<path fill-rule="evenodd" d="M522.1,282.5H761.5v-15H522.1v15Z" class="g0_231"/>
<path fill-rule="evenodd" d="M521.3,297.6H761.5V282.5H521.3v15.1Z" class="g0_231"/>
<path fill-rule="evenodd" d="M521.3,312.6H761.5v-15H521.3v15Z" class="g0_231"/>
<path fill-rule="evenodd" d="M521.3,327.8H761.5V312.6H521.3v15.2Z" class="g0_231"/>
<path fill-rule="evenodd" d="M521.3,342.9H761.2V327.8H521.3v15.1Z" class="g0_231"/>
<path fill-rule="evenodd" d="M521.3,357.9H761.2v-15H521.3v15Z" class="g0_231"/>
<path fill-rule="evenodd" d="M521.3,373H761.2V357.9H521.3V373Z" class="g0_231"/>
<path fill-rule="evenodd" d="M521.3,388H761.2V373H521.3v15Z" class="g0_231"/>
<path fill-rule="evenodd" d="M521,403H761.5V388H521v15Z" class="g0_231"/>
<path fill-rule="evenodd" d="M521,418.1H761.5V403H521v15.1Z" class="g0_231"/>
<path fill-rule="evenodd" d="M520.6,433.1H761.2v-15H520.6v15Z" class="g0_231"/>
<path fill-rule="evenodd" d="M520.6,448.1H761.2v-15H520.6v15Z" class="g0_231"/>
<path fill-rule="evenodd" d="M520.6,463.2H761.2V448.1H520.6v15.1Z" class="g0_231"/>
<path fill-rule="evenodd" d="M520.6,478.2H761.2v-15H520.6v15Z" class="g0_231"/>
<path fill-rule="evenodd" d="M520.6,493.2H761.2v-15H520.6v15Z" class="g0_231"/>
<path fill-rule="evenodd" d="M520.6,508.5H761.2V493.2H520.6v15.3Z" class="g0_231"/>
<path fill-rule="evenodd" d="M520.6,523.5H761.2v-15H520.6v15Z" class="g0_231"/>
<path fill-rule="evenodd" d="M520.6,538.5H761.2v-15H520.6v15Z" class="g0_231"/>
<path fill-rule="evenodd" d="M520.6,553.9H760.8v-15H520.6v15Z" class="g0_231"/>
<path fill-rule="evenodd" d="M520.6,569H760.8V553.9H520.6V569Z" class="g0_231"/>
<path fill-rule="evenodd" d="M520.6,584H760.8V569H520.6v15Z" class="g0_231"/>
<path fill-rule="evenodd" d="M520.6,599.1H760.8V584H520.6v15.1Z" class="g0_231"/>
<path fill-rule="evenodd" d="M520.2,614.1H760.1v-15H520.2v15Z" class="g0_231"/>
<path fill-rule="evenodd" d="M520.2,629.1H760.1v-15H520.2v15Z" class="g0_231"/>
<path fill-rule="evenodd" d="M520.2,644.2H760.1V629.1H520.2v15.1Z" class="g0_231"/>
<path fill-rule="evenodd" d="M520.2,659.2H760.1v-15H520.2v15Z" class="g0_231"/>
<path fill-rule="evenodd" d="M520.2,674.4H760.1V659.2H520.2v15.2Z" class="g0_231"/>
<path fill-rule="evenodd" d="M519.9,689.4H760.8v-15H519.9v15Z" class="g0_231"/>
<path fill-rule="evenodd" d="M519.9,704.5H760.8V689.4H519.9v15.1Z" class="g0_231"/>
<path fill-rule="evenodd" d="M519.9,719.5H760.8v-15H519.9v15Z" class="g0_231"/>
<path fill-rule="evenodd" d="M519.9,734.5H760.8v-15H519.9v15Z" class="g0_231"/>
<path fill-rule="evenodd" d="M520.2,749.6H760.4V734.5H520.2v15.1Z" class="g0_231"/>
<path fill-rule="evenodd" d="M520.2,764.6H760.4v-15H520.2v15Z" class="g0_231"/>
<path fill-rule="evenodd" d="M520.2,779.6H760.4v-15H520.2v15Z" class="g0_231"/>
<path fill-rule="evenodd" d="M519.9,794.7H760.4V779.6H519.9v15.1Z" class="g0_231"/>
<path fill-rule="evenodd" d="M519.9,809.7H760.4v-15H519.9v15Z" class="g0_231"/>
<path fill-rule="evenodd" d="M519.9,824.7H760.4v-15H519.9v15Z" class="g0_231"/>
<path fill-rule="evenodd" d="M519.9,839.8H760.4V824.7H519.9v15.1Z" class="g0_231"/>
<path fill-rule="evenodd" d="M519.9,855H760.1V839.8H519.9V855Z" class="g0_231"/>
<path fill-rule="evenodd" d="M519.9,870.1H760.1V855H519.9v15.1Z" class="g0_231"/>
<path fill-rule="evenodd" d="M519.9,885.1H760.1v-15H519.9v15Z" class="g0_231"/>
<path d="M187.2,95.7v51m11,273.2V953.4m.7,-339.9V982" class="g1_231"/>
<path d="M203.3,421.4V866.5M509.8,147.8V916.7" class="g2_231"/>
</svg>