<?xml version="1.0" encoding="UTF-8" standalone="no"?>
<!DOCTYPE svg PUBLIC "-//W3C//DTD SVG 1.1//EN"
"http://www.w3.org/Graphics/SVG/1.1/DTD/svg11.dtd">
<svg viewBox="0 0 909 1285" version="1.1" xmlns="http://www.w3.org/2000/svg" xmlns:xlink="http://www.w3.org/1999/xlink">
<defs>
<style type="text/css"><![CDATA[
.g0_138{
fill: #FFFFFF;
}
.g1_138{
fill: none;
stroke: #000000;
stroke-width: 0.763;
stroke-linecap: butt;
stroke-linejoin: round;
}
.g2_138{
fill: none;
stroke: #000000;
stroke-width: 0.381;
stroke-linecap: butt;
stroke-linejoin: round;
}
.g3_138{
fill: none;
stroke: #000000;
stroke-width: 1.069;
stroke-linecap: butt;
stroke-linejoin: round;
}
]]></style>
</defs>
<path fill-rule="evenodd" d="M262.9,125.8H762.4V110H262.9v15.8Z" class="g0_138"/>
<path fill-rule="evenodd" d="M262.9,161.7H502.1V147.1H262.9v14.6Z" class="g0_138"/>
<path fill-rule="evenodd" d="M262.9,176.4H502.1V161.7H262.9v14.7Z" class="g0_138"/>
<path fill-rule="evenodd" d="M262.2,191.1H502.1V176.4H262.2v14.7Z" class="g0_138"/>
<path fill-rule="evenodd" d="M262.2,205.7H502.1V191.1H262.2v14.6Z" class="g0_138"/>
<path fill-rule="evenodd" d="M262.2,220.4H502.1V205.7H262.2v14.7Z" class="g0_138"/>
<path fill-rule="evenodd" d="M262.2,235.1H502.1V220.4H262.2v14.7Z" class="g0_138"/>
<path fill-rule="evenodd" d="M262.2,249.7H502.1V235.1H262.2v14.6Z" class="g0_138"/>
<path fill-rule="evenodd" d="M261.8,264.9H501.3V250.1H261.8v14.8Z" class="g0_138"/>
<path fill-rule="evenodd" d="M261.8,279.6H501.3V264.9H261.8v14.7Z" class="g0_138"/>
<path fill-rule="evenodd" d="M261.8,294.3H501.3V279.6H261.8v14.7Z" class="g0_138"/>
<path fill-rule="evenodd" d="M261.8,309.3H501.3v-15H261.8v15Z" class="g0_138"/>
<path fill-rule="evenodd" d="M261.8,324H501.3V309.3H261.8V324Z" class="g0_138"/>
<path fill-rule="evenodd" d="M261.8,338.6H501.3V324H261.8v14.6Z" class="g0_138"/>
<path fill-rule="evenodd" d="M261.8,353.4H501.3V338.7H261.8v14.7Z" class="g0_138"/>
<path fill-rule="evenodd" d="M262.2,368H500.6V353.4H262.2V368Z" class="g0_138"/>
<path fill-rule="evenodd" d="M262.2,382.7H500.6V368H262.2v14.7Z" class="g0_138"/>
<path fill-rule="evenodd" d="M261.5,397.7H501V383.1H261.5v14.6Z" class="g0_138"/>
<path fill-rule="evenodd" d="M261.5,412.4H501V397.7H261.5v14.7Z" class="g0_138"/>
<path fill-rule="evenodd" d="M261.1,427.1H500.2V412.4H261.1v14.7Z" class="g0_138"/>
<path fill-rule="evenodd" d="M261.1,441.7H500.2V427.1H261.1v14.6Z" class="g0_138"/>
<path fill-rule="evenodd" d="M261.1,456.4H500.2V441.7H261.1v14.7Z" class="g0_138"/>
<path fill-rule="evenodd" d="M261.1,471.1H500.2V456.4H261.1v14.7Z" class="g0_138"/>
<path fill-rule="evenodd" d="M261.1,485.7H499.5V471.1H261.1v14.6Z" class="g0_138"/>
<path fill-rule="evenodd" d="M261.1,500.4H499.5V485.7H261.1v14.7Z" class="g0_138"/>
<path fill-rule="evenodd" d="M260.7,515.4H499.5V500.8H260.7v14.6Z" class="g0_138"/>
<path fill-rule="evenodd" d="M260.7,530.1H499.5V515.4H260.7v14.7Z" class="g0_138"/>
<path fill-rule="evenodd" d="M260.7,544.8H499.5V530.1H260.7v14.7Z" class="g0_138"/>
<path fill-rule="evenodd" d="M260.7,559.4H499.5V544.8H260.7v14.6Z" class="g0_138"/>
<path fill-rule="evenodd" d="M260.7,574.1H499.5V559.4H260.7v14.7Z" class="g0_138"/>
<path fill-rule="evenodd" d="M260.7,588.8H499.5V574.1H260.7v14.7Z" class="g0_138"/>
<path fill-rule="evenodd" d="M260.7,603.5H499.5V588.8H260.7v14.7Z" class="g0_138"/>
<path fill-rule="evenodd" d="M260.4,618.5H422.8V603.8H260.4v14.7Z" class="g0_138"/>
<path fill-rule="evenodd" d="M260.4,633.2H422.8V618.5H260.4v14.7Z" class="g0_138"/>
<path fill-rule="evenodd" d="M261.1,648.2H498.4V633.5H261.1v14.7Z" class="g0_138"/>
<path fill-rule="evenodd" d="M261.1,662.9H498.4V648.2H261.1v14.7Z" class="g0_138"/>
<path fill-rule="evenodd" d="M278,677.5H502.1V662.9H278v14.6Z" class="g0_138"/>
<path fill-rule="evenodd" d="M259.6,692.6H498.4V677.9H259.6v14.7Z" class="g0_138"/>
<path fill-rule="evenodd" d="M259.6,707.2H498.4V692.6H259.6v14.6Z" class="g0_138"/>
<path fill-rule="evenodd" d="M278,721.9H502.1V707.2H278v14.7Z" class="g0_138"/>
<path fill-rule="evenodd" d="M259.3,736.6H498.8V721.9H259.3v14.7Z" class="g0_138"/>
<path fill-rule="evenodd" d="M259.3,751.2H498.8V736.6H259.3v14.6Z" class="g0_138"/>
<path fill-rule="evenodd" d="M259.3,765.9H498.8V751.2H259.3v14.7Z" class="g0_138"/>
<path fill-rule="evenodd" d="M259.3,780.6H498.8V765.9H259.3v14.7Z" class="g0_138"/>
<path fill-rule="evenodd" d="M260,796H497.7V781.3H260V796Z" class="g0_138"/>
<path fill-rule="evenodd" d="M260,810.6H497.7V796H260v14.6Z" class="g0_138"/>
<path fill-rule="evenodd" d="M259.3,826H498V811.4H259.3V826Z" class="g0_138"/>
<path fill-rule="evenodd" d="M259.3,840.7H498V826H259.3v14.7Z" class="g0_138"/>
<path fill-rule="evenodd" d="M258.5,856H497.7V841.1H258.5V856Z" class="g0_138"/>
<path fill-rule="evenodd" d="M258.5,870.6H497.7V856H258.5v14.6Z" class="g0_138"/>
<path fill-rule="evenodd" d="M259.3,885.7H498V871H259.3v14.7Z" class="g0_138"/>
<path fill-rule="evenodd" d="M259.3,900.3H498V885.7H259.3v14.6Z" class="g0_138"/>
<path fill-rule="evenodd" d="M281.3,915H502.1V900.3H281.3V915Z" class="g0_138"/>
<path fill-rule="evenodd" d="M540.2,161.4H762.4V146.7H540.2v14.7Z" class="g0_138"/>
<path fill-rule="evenodd" d="M521.9,176H762.4V161.4H521.9V176Z" class="g0_138"/>
<path fill-rule="evenodd" d="M521.9,190.7H762.4V176H521.9v14.7Z" class="g0_138"/>
<path fill-rule="evenodd" d="M521.5,205.4H762.1V190.7H521.5v14.7Z" class="g0_138"/>
<path fill-rule="evenodd" d="M521.5,220H762.1V205.4H521.5V220Z" class="g0_138"/>
<path fill-rule="evenodd" d="M521.5,234.7H762.1V220H521.5v14.7Z" class="g0_138"/>
<path fill-rule="evenodd" d="M539.5,249.7H762.4V235.1H539.5v14.6Z" class="g0_138"/>
<path fill-rule="evenodd" d="M539.5,264.4H762.4V249.7H539.5v14.7Z" class="g0_138"/>
<path fill-rule="evenodd" d="M519.7,279.6H762.1V264.8H519.7v14.8Z" class="g0_138"/>
<path fill-rule="evenodd" d="M519.7,294.3H762.1V279.6H519.7v14.7Z" class="g0_138"/>
<path fill-rule="evenodd" d="M519.7,308.9H762.1V294.3H519.7v14.6Z" class="g0_138"/>
<path fill-rule="evenodd" d="M519.7,323.6H762.1V308.9H519.7v14.7Z" class="g0_138"/>
<path fill-rule="evenodd" d="M519.7,338.3H762.1V323.6H519.7v14.7Z" class="g0_138"/>
<path fill-rule="evenodd" d="M520.8,353H761.3V338.3H520.8V353Z" class="g0_138"/>
<path fill-rule="evenodd" d="M520.8,367.7H761.3V353H520.8v14.7Z" class="g0_138"/>
<path fill-rule="evenodd" d="M520.8,382.3H761.3V367.7H520.8v14.6Z" class="g0_138"/>
<path fill-rule="evenodd" d="M520,397H761V382.3H520V397Z" class="g0_138"/>
<path fill-rule="evenodd" d="M520,411.7H761V397H520v14.7Z" class="g0_138"/>
<path fill-rule="evenodd" d="M520,426.3H761V411.7H520v14.6Z" class="g0_138"/>
<path fill-rule="evenodd" d="M520,441H760.6V426.3H520V441Z" class="g0_138"/>
<path fill-rule="evenodd" d="M520,455.7H760.6V441H520v14.7Z" class="g0_138"/>
<path fill-rule="evenodd" d="M520,470.3H760.6V455.7H520v14.6Z" class="g0_138"/>
<path fill-rule="evenodd" d="M520,485.7H760.6V470.3H520v15.4Z" class="g0_138"/>
<path fill-rule="evenodd" d="M520,500.4H760.6V485.7H520v14.7Z" class="g0_138"/>
<path fill-rule="evenodd" d="M519.7,515.1h240V500.4h-240v14.7Z" class="g0_138"/>
<path fill-rule="evenodd" d="M519.7,529.7h240V515.1h-240v14.6Z" class="g0_138"/>
<path fill-rule="evenodd" d="M519.3,544.8H759.5V530.1H519.3v14.7Z" class="g0_138"/>
<path fill-rule="evenodd" d="M519.3,559.4H759.5V544.8H519.3v14.6Z" class="g0_138"/>
<path fill-rule="evenodd" d="M518.6,574.5H760.2V559.8H518.6v14.7Z" class="g0_138"/>
<path fill-rule="evenodd" d="M518.6,589.1H760.2V574.5H518.6v14.6Z" class="g0_138"/>
<path fill-rule="evenodd" d="M518.6,603.8H760.2V589.1H518.6v14.7Z" class="g0_138"/>
<path fill-rule="evenodd" d="M518.6,618.5H760.2V603.8H518.6v14.7Z" class="g0_138"/>
<path fill-rule="evenodd" d="M518.6,633.2H760.2V618.5H518.6v14.7Z" class="g0_138"/>
<path fill-rule="evenodd" d="M518.6,647.8H760.2V633.2H518.6v14.6Z" class="g0_138"/>
<path fill-rule="evenodd" d="M518.6,662.5H760.2V647.8H518.6v14.7Z" class="g0_138"/>
<path fill-rule="evenodd" d="M518.6,677.2H760.2V662.5H518.6v14.7Z" class="g0_138"/>
<path fill-rule="evenodd" d="M518.9,692.2H758.8V677.5H518.9v14.7Z" class="g0_138"/>
<path fill-rule="evenodd" d="M518.9,706.9H758.8V692.2H518.9v14.7Z" class="g0_138"/>
<path fill-rule="evenodd" d="M518.9,721.5H758.8V706.9H518.9v14.6Z" class="g0_138"/>
<path fill-rule="evenodd" d="M518.6,736.6H759.1V721.9H518.6v14.7Z" class="g0_138"/>
<path fill-rule="evenodd" d="M518.6,751.2H759.1V736.6H518.6v14.6Z" class="g0_138"/>
<path fill-rule="evenodd" d="M518.6,765.9H759.1V751.2H518.6v14.7Z" class="g0_138"/>
<path fill-rule="evenodd" d="M518.6,780.9H758.4V766.3H518.6v14.6Z" class="g0_138"/>
<path fill-rule="evenodd" d="M518.6,795.6H758.4V780.9H518.6v14.7Z" class="g0_138"/>
<path fill-rule="evenodd" d="M518.2,811H758.4V796.3H518.2V811Z" class="g0_138"/>
<path fill-rule="evenodd" d="M518.2,825.7H758.4V811H518.2v14.7Z" class="g0_138"/>
<path fill-rule="evenodd" d="M518.2,840.4H758.4V825.7H518.2v14.7Z" class="g0_138"/>
<path fill-rule="evenodd" d="M517.5,855.4H758V840.7H517.5v14.7Z" class="g0_138"/>
<path fill-rule="evenodd" d="M517.5,870.1H758V855.4H517.5v14.7Z" class="g0_138"/>
<path fill-rule="evenodd" d="M517.5,884.7H758V870.1H517.5v14.6Z" class="g0_138"/>
<path fill-rule="evenodd" d="M495.5,932H762.4V914.6H495.5V932Z" class="g0_138"/>
<path d="M203.9,115.1V297.7" class="g1_138"/>
<path d="M177.5,565.5v47.3m6.2,-409.2V313.2m2.6,-70.4V423.6m2.9,134.2v68.9m5.1,-76.6v70.7" class="g2_138"/>
<path d="M196.9,826.9v53.9" class="g1_138"/>
<path d="M206.5,297.5V954.9M507.8,147.8V916.7" class="g2_138"/>
<path d="M782.8,320.9v61.3" class="g3_138"/>
</svg>