<?xml version="1.0" encoding="UTF-8" standalone="no"?>
<!DOCTYPE svg PUBLIC "-//W3C//DTD SVG 1.1//EN"
"http://www.w3.org/Graphics/SVG/1.1/DTD/svg11.dtd">
<svg viewBox="0 0 909 1285" version="1.1" xmlns="http://www.w3.org/2000/svg" xmlns:xlink="http://www.w3.org/1999/xlink">
<defs>
<style type="text/css"><![CDATA[
.g0_209{
fill: #FFFFFF;
}
.g1_209{
fill: none;
stroke: #000000;
stroke-width: 1.833;
stroke-linecap: butt;
stroke-linejoin: round;
}
.g2_209{
fill: none;
stroke: #000000;
stroke-width: 0.763;
stroke-linecap: butt;
stroke-linejoin: round;
}
.g3_209{
fill: none;
stroke: #000000;
stroke-width: 1.069;
stroke-linecap: butt;
stroke-linejoin: round;
}
.g4_209{
fill: none;
stroke: #000000;
stroke-width: 0.381;
stroke-linecap: butt;
stroke-linejoin: round;
}
]]></style>
</defs>
<path fill-rule="evenodd" d="M256.7,125.8H756.6V110H256.7v15.8Z" class="g0_209"/>
<path fill-rule="evenodd" d="M256.7,161.7H496.9v-15H256.7v15Z" class="g0_209"/>
<path fill-rule="evenodd" d="M256.7,176.9H496.9V161.7H256.7v15.2Z" class="g0_209"/>
<path fill-rule="evenodd" d="M256.7,192H496.9V176.9H256.7V192Z" class="g0_209"/>
<path fill-rule="evenodd" d="M256.3,207h241V192h-241v15Z" class="g0_209"/>
<path fill-rule="evenodd" d="M256.3,222h241V207h-241v15Z" class="g0_209"/>
<path fill-rule="evenodd" d="M256.3,237.1h241V222h-241v15.1Z" class="g0_209"/>
<path fill-rule="evenodd" d="M256.3,252.1h241v-15h-241v15Z" class="g0_209"/>
<path fill-rule="evenodd" d="M256.3,267.1h241v-15h-241v15Z" class="g0_209"/>
<path fill-rule="evenodd" d="M256.3,282.2h241V267.1h-241v15.1Z" class="g0_209"/>
<path fill-rule="evenodd" d="M256.3,297.2h241v-15h-241v15Z" class="g0_209"/>
<path fill-rule="evenodd" d="M256.3,312.2H496.2v-15H256.3v15Z" class="g0_209"/>
<path fill-rule="evenodd" d="M256.3,327.3H496.2V312.2H256.3v15.1Z" class="g0_209"/>
<path fill-rule="evenodd" d="M256.3,342.5H496.2V327.3H256.3v15.2Z" class="g0_209"/>
<path fill-rule="evenodd" d="M256.3,357.6H496.2V342.5H256.3v15.1Z" class="g0_209"/>
<path fill-rule="evenodd" d="M256.3,372.6H496.2v-15H256.3v15Z" class="g0_209"/>
<path fill-rule="evenodd" d="M274.7,387.6H497.3v-15H274.7v15Z" class="g0_209"/>
<path fill-rule="evenodd" d="M256,402.7H495.8V387.6H256v15.1Z" class="g0_209"/>
<path fill-rule="evenodd" d="M256,417.7H495.8v-15H256v15Z" class="g0_209"/>
<path fill-rule="evenodd" d="M256,432.7H495.8v-15H256v15Z" class="g0_209"/>
<path fill-rule="evenodd" d="M255.6,447.8H495.5V432.7H255.6v15.1Z" class="g0_209"/>
<path fill-rule="evenodd" d="M255.6,462.8H495.5v-15H255.6v15Z" class="g0_209"/>
<path fill-rule="evenodd" d="M255.6,477.8H495.5v-15H255.6v15Z" class="g0_209"/>
<path fill-rule="evenodd" d="M255.6,492.9H495.5V477.8H255.6v15.1Z" class="g0_209"/>
<path fill-rule="evenodd" d="M255.6,507.9H495.1v-15H255.6v15Z" class="g0_209"/>
<path fill-rule="evenodd" d="M255.6,523.1H495.1V507.9H255.6v15.2Z" class="g0_209"/>
<path fill-rule="evenodd" d="M273.6,538.2H497.3V523.1H273.6v15.1Z" class="g0_209"/>
<path fill-rule="evenodd" d="M256,553.6H495.1V538.5H256v15.1Z" class="g0_209"/>
<path fill-rule="evenodd" d="M256,568.6H495.1v-15H256v15Z" class="g0_209"/>
<path fill-rule="evenodd" d="M255.6,583.6H495.5v-15H255.6v15Z" class="g0_209"/>
<path fill-rule="evenodd" d="M255.6,598.7H495.5V583.6H255.6v15.1Z" class="g0_209"/>
<path fill-rule="evenodd" d="M255.2,613.7H495.5v-15H255.2v15Z" class="g0_209"/>
<path fill-rule="evenodd" d="M255.2,628.8H495.5V613.7H255.2v15.1Z" class="g0_209"/>
<path fill-rule="evenodd" d="M255.2,643.8H495.5v-15H255.2v15Z" class="g0_209"/>
<path fill-rule="evenodd" d="M255.2,658.8H495.5v-15H255.2v15Z" class="g0_209"/>
<path fill-rule="evenodd" d="M274,673.9H497.3V658.8H274v15.1Z" class="g0_209"/>
<path fill-rule="evenodd" d="M273.6,689.1H497.3V673.9H273.6v15.2Z" class="g0_209"/>
<path fill-rule="evenodd" d="M273.6,704.1H497.3v-15H273.6v15Z" class="g0_209"/>
<path fill-rule="evenodd" d="M254.9,719.1H495.1v-15H254.9v15Z" class="g0_209"/>
<path fill-rule="evenodd" d="M254.9,734.2H495.1V719.1H254.9v15.1Z" class="g0_209"/>
<path fill-rule="evenodd" d="M254.9,749.2H495.1v-15H254.9v15Z" class="g0_209"/>
<path fill-rule="evenodd" d="M273.6,764.2H497.3v-15H273.6v15Z" class="g0_209"/>
<path fill-rule="evenodd" d="M255.2,779.3H494.7V764.2H255.2v15.1Z" class="g0_209"/>
<path fill-rule="evenodd" d="M255.2,794.3H494.7v-15H255.2v15Z" class="g0_209"/>
<path fill-rule="evenodd" d="M273.6,809.3H497.3v-15H273.6v15Z" class="g0_209"/>
<path fill-rule="evenodd" d="M254.9,824.4H495.5V809.3H254.9v15.1Z" class="g0_209"/>
<path fill-rule="evenodd" d="M254.9,839.5H495.5V824.4H254.9v15.1Z" class="g0_209"/>
<path fill-rule="evenodd" d="M254.9,854.5H495.5v-15H254.9v15Z" class="g0_209"/>
<path fill-rule="evenodd" d="M254.9,869.7H495.5V854.5H254.9v15.2Z" class="g0_209"/>
<path fill-rule="evenodd" d="M254.9,884.7H495.5v-15H254.9v15Z" class="g0_209"/>
<path fill-rule="evenodd" d="M256.7,899.8H497.3V884.7H256.7v15.1Z" class="g0_209"/>
<path fill-rule="evenodd" d="M517.1,161.7H756.6v-15H517.1v15Z" class="g0_209"/>
<path fill-rule="evenodd" d="M517.1,176.9H756.6V161.7H517.1v15.2Z" class="g0_209"/>
<path fill-rule="evenodd" d="M517.1,192.3H756.6V176.9H517.1v15.4Z" class="g0_209"/>
<path fill-rule="evenodd" d="M517.1,207.4H756.6V192.3H517.1v15.1Z" class="g0_209"/>
<path fill-rule="evenodd" d="M517.1,222.4H756.6v-15H517.1v15Z" class="g0_209"/>
<path fill-rule="evenodd" d="M517.1,237.4H756.6v-15H517.1v15Z" class="g0_209"/>
<path fill-rule="evenodd" d="M517.1,252.5H756.6V237.4H517.1v15.1Z" class="g0_209"/>
<path fill-rule="evenodd" d="M517.1,267.5H756.6v-15H517.1v15Z" class="g0_209"/>
<path fill-rule="evenodd" d="M517.1,282.5H756.6v-15H517.1v15Z" class="g0_209"/>
<path fill-rule="evenodd" d="M516.7,297.6H756.6V282.5H516.7v15.1Z" class="g0_209"/>
<path fill-rule="evenodd" d="M516.7,312.6H756.6v-15H516.7v15Z" class="g0_209"/>
<path fill-rule="evenodd" d="M516.7,327.8H756.6V312.6H516.7v15.2Z" class="g0_209"/>
<path fill-rule="evenodd" d="M516.4,342.9H756.2V327.8H516.4v15.1Z" class="g0_209"/>
<path fill-rule="evenodd" d="M516.4,357.9H756.2v-15H516.4v15Z" class="g0_209"/>
<path fill-rule="evenodd" d="M516.4,373H756.2V357.9H516.4V373Z" class="g0_209"/>
<path fill-rule="evenodd" d="M534.7,388H756.6V373H534.7v15Z" class="g0_209"/>
<path fill-rule="evenodd" d="M534.7,403H756.6V388H534.7v15Z" class="g0_209"/>
<path fill-rule="evenodd" d="M516.7,418.1H756.6V403H516.7v15.1Z" class="g0_209"/>
<path fill-rule="evenodd" d="M515.3,433.1H756.6v-15H515.3v15Z" class="g0_209"/>
<path fill-rule="evenodd" d="M515.3,448.1H756.6v-15H515.3v15Z" class="g0_209"/>
<path fill-rule="evenodd" d="M515.3,463.2H756.6V448.1H515.3v15.1Z" class="g0_209"/>
<path fill-rule="evenodd" d="M515.3,478.2H756.6v-15H515.3v15Z" class="g0_209"/>
<path fill-rule="evenodd" d="M515.3,493.2H756.6v-15H515.3v15Z" class="g0_209"/>
<path fill-rule="evenodd" d="M515.3,508.5H756.6V493.2H515.3v15.3Z" class="g0_209"/>
<path fill-rule="evenodd" d="M515.3,523.5H756.6v-15H515.3v15Z" class="g0_209"/>
<path fill-rule="evenodd" d="M515.3,538.5H756.6v-15H515.3v15Z" class="g0_209"/>
<path fill-rule="evenodd" d="M515.6,553.6H756.2V538.5H515.6v15.1Z" class="g0_209"/>
<path fill-rule="evenodd" d="M515.6,568.6H756.2v-15H515.6v15Z" class="g0_209"/>
<path fill-rule="evenodd" d="M515.6,583.6H756.2v-15H515.6v15Z" class="g0_209"/>
<path fill-rule="evenodd" d="M515.6,599.1H756.2V583.6H515.6v15.5Z" class="g0_209"/>
<path fill-rule="evenodd" d="M515.6,614.1H756.2v-15H515.6v15Z" class="g0_209"/>
<path fill-rule="evenodd" d="M515.6,629.1H756.2v-15H515.6v15Z" class="g0_209"/>
<path fill-rule="evenodd" d="M515.6,644.2H756.2V629.1H515.6v15.1Z" class="g0_209"/>
<path fill-rule="evenodd" d="M515.6,659.2H755.8v-15H515.6v15Z" class="g0_209"/>
<path fill-rule="evenodd" d="M515.6,674.4H755.8V659.2H515.6v15.2Z" class="g0_209"/>
<path fill-rule="evenodd" d="M515.6,689.4H755.8v-15H515.6v15Z" class="g0_209"/>
<path fill-rule="evenodd" d="M515.6,704.5H755.8V689.4H515.6v15.1Z" class="g0_209"/>
<path fill-rule="evenodd" d="M515.6,719.5H755.8v-15H515.6v15Z" class="g0_209"/>
<path fill-rule="evenodd" d="M515.6,734.5H756.2v-15H515.6v15Z" class="g0_209"/>
<path fill-rule="evenodd" d="M515.6,749.6H756.2V734.5H515.6v15.1Z" class="g0_209"/>
<path fill-rule="evenodd" d="M515.6,764.6H756.2v-15H515.6v15Z" class="g0_209"/>
<path fill-rule="evenodd" d="M515.6,779.6H756.2v-15H515.6v15Z" class="g0_209"/>
<path fill-rule="evenodd" d="M515.6,794.7H756.2V779.6H515.6v15.1Z" class="g0_209"/>
<path fill-rule="evenodd" d="M515.3,809.7H755.8v-15H515.3v15Z" class="g0_209"/>
<path fill-rule="evenodd" d="M515.3,824.7H755.8v-15H515.3v15Z" class="g0_209"/>
<path fill-rule="evenodd" d="M515.3,839.8H755.8V824.7H515.3v15.1Z" class="g0_209"/>
<path fill-rule="evenodd" d="M515.3,855H756.2V839.8H515.3V855Z" class="g0_209"/>
<path fill-rule="evenodd" d="M515.3,870.1H756.2V855H515.3v15.1Z" class="g0_209"/>
<path fill-rule="evenodd" d="M515.3,885.1H756.2v-15H515.3v15Z" class="g0_209"/>
<path fill-rule="evenodd" d="M491.8,917.4H756.6V899.8H491.8v17.6Z" class="g0_209"/>
<path d="M188.1,105.6V569.1" class="g1_209"/>
<path d="M188.4,104.2V231.5" class="g2_209"/>
<path d="M190.6,857v143.4" class="g3_209"/>
<path d="M192,107.2V226.7m8.5,215.6v558.4M198.7,103.8V231.4M505.2,147.8V917" class="g4_209"/>
</svg>