<?xml version="1.0" encoding="UTF-8" standalone="no"?>
<!DOCTYPE svg PUBLIC "-//W3C//DTD SVG 1.1//EN"
"http://www.w3.org/Graphics/SVG/1.1/DTD/svg11.dtd">
<svg viewBox="0 0 909 1285" version="1.1" xmlns="http://www.w3.org/2000/svg" xmlns:xlink="http://www.w3.org/1999/xlink">
<defs>
<style type="text/css"><![CDATA[
.g0_140{
fill: #FFFFFF;
}
.g1_140{
fill: none;
stroke: #000000;
stroke-width: 0.381;
stroke-linecap: butt;
stroke-linejoin: round;
}
.g2_140{
fill: none;
stroke: #000000;
stroke-width: 2.902;
stroke-linecap: butt;
stroke-linejoin: round;
}
]]></style>
</defs>
<path fill-rule="evenodd" d="M266.6,127.6H767.2V110H266.6v17.6Z" class="g0_140"/>
<path fill-rule="evenodd" d="M267,162.8H506.8v-15H267v15Z" class="g0_140"/>
<path fill-rule="evenodd" d="M267,177.9H506.8V162.8H267v15.1Z" class="g0_140"/>
<path fill-rule="evenodd" d="M267,192.9H506.8v-15H267v15Z" class="g0_140"/>
<path fill-rule="evenodd" d="M266.6,207.9H506.5v-15H266.6v15Z" class="g0_140"/>
<path fill-rule="evenodd" d="M266.6,223H506.5V207.9H266.6V223Z" class="g0_140"/>
<path fill-rule="evenodd" d="M266.6,238H506.5V223H266.6v15Z" class="g0_140"/>
<path fill-rule="evenodd" d="M266.6,253H506.8V238H266.6v15Z" class="g0_140"/>
<path fill-rule="evenodd" d="M266.6,268.1H506.8V253H266.6v15.1Z" class="g0_140"/>
<path fill-rule="evenodd" d="M266.6,283.3H506.8V268.1H266.6v15.2Z" class="g0_140"/>
<path fill-rule="evenodd" d="M266.6,298.3H506.8v-15H266.6v15Z" class="g0_140"/>
<path fill-rule="evenodd" d="M265.9,313.3H506.5v-15H265.9v15Z" class="g0_140"/>
<path fill-rule="evenodd" d="M265.9,328.4H506.5V313.3H265.9v15.1Z" class="g0_140"/>
<path fill-rule="evenodd" d="M266.6,343.4H506.1v-15H266.6v15Z" class="g0_140"/>
<path fill-rule="evenodd" d="M266.6,358.5H506.1V343.4H266.6v15.1Z" class="g0_140"/>
<path fill-rule="evenodd" d="M267,373.5H505.7v-15H267v15Z" class="g0_140"/>
<path fill-rule="evenodd" d="M267,388.6H505.7V373.5H267v15.1Z" class="g0_140"/>
<path fill-rule="evenodd" d="M266.2,403.6H506.8v-15H266.2v15Z" class="g0_140"/>
<path fill-rule="evenodd" d="M266.2,418.6H506.8v-15H266.2v15Z" class="g0_140"/>
<path fill-rule="evenodd" d="M266.2,433.7H506.8V418.6H266.2v15.1Z" class="g0_140"/>
<path fill-rule="evenodd" d="M266.2,448.9H506.8V433.7H266.2v15.2Z" class="g0_140"/>
<path fill-rule="evenodd" d="M284.6,463.9H506.8v-15H284.6v15Z" class="g0_140"/>
<path fill-rule="evenodd" d="M284.6,478.9H506.8v-15H284.6v15Z" class="g0_140"/>
<path fill-rule="evenodd" d="M265.9,494H505.7V478.9H265.9V494Z" class="g0_140"/>
<path fill-rule="evenodd" d="M265.9,509H505.7V494H265.9v15Z" class="g0_140"/>
<path fill-rule="evenodd" d="M265.9,524H505.7V509H265.9v15Z" class="g0_140"/>
<path fill-rule="evenodd" d="M265.9,539.1H505.7V524H265.9v15.1Z" class="g0_140"/>
<path fill-rule="evenodd" d="M266.2,554.1H505.7v-15H266.2v15Z" class="g0_140"/>
<path fill-rule="evenodd" d="M266.2,569.1H505.7v-15H266.2v15Z" class="g0_140"/>
<path fill-rule="evenodd" d="M266.6,584.2H505.7V569.1H266.6v15.1Z" class="g0_140"/>
<path fill-rule="evenodd" d="M266.6,599.2H505.7v-15H266.6v15Z" class="g0_140"/>
<path fill-rule="evenodd" d="M265.9,614.3H505.7V599.2H265.9v15.1Z" class="g0_140"/>
<path fill-rule="evenodd" d="M265.9,629.5H505.7V614.3H265.9v15.2Z" class="g0_140"/>
<path fill-rule="evenodd" d="M265.9,644.5H505.7v-15H265.9v15Z" class="g0_140"/>
<path fill-rule="evenodd" d="M265.1,659.6H505.7V644.5H265.1v15.1Z" class="g0_140"/>
<path fill-rule="evenodd" d="M265.1,674.6H505.7v-15H265.1v15Z" class="g0_140"/>
<path fill-rule="evenodd" d="M265.1,689.6H505.7v-15H265.1v15Z" class="g0_140"/>
<path fill-rule="evenodd" d="M265.9,704.7H505.7V689.6H265.9v15.1Z" class="g0_140"/>
<path fill-rule="evenodd" d="M265.9,719.7H505.7v-15H265.9v15Z" class="g0_140"/>
<path fill-rule="evenodd" d="M283.9,734.7H506.8v-15H283.9v15Z" class="g0_140"/>
<path fill-rule="evenodd" d="M265.1,749.8H505.7V734.7H265.1v15.1Z" class="g0_140"/>
<path fill-rule="evenodd" d="M265.1,764.8H505.7v-15H265.1v15Z" class="g0_140"/>
<path fill-rule="evenodd" d="M265.1,779.8H505.7v-15H265.1v15Z" class="g0_140"/>
<path fill-rule="evenodd" d="M265.1,794.9H505.7V779.8H265.1v15.1Z" class="g0_140"/>
<path fill-rule="evenodd" d="M265.1,810.1H505.7V794.9H265.1v15.2Z" class="g0_140"/>
<path fill-rule="evenodd" d="M265.1,825.1H505.7v-15H265.1v15Z" class="g0_140"/>
<path fill-rule="evenodd" d="M265.1,840.2H505.7V825.1H265.1v15.1Z" class="g0_140"/>
<path fill-rule="evenodd" d="M265.1,855.2H505.7v-15H265.1v15Z" class="g0_140"/>
<path fill-rule="evenodd" d="M265.1,870.3H505V855.2H265.1v15.1Z" class="g0_140"/>
<path fill-rule="evenodd" d="M265.1,885.3H505v-15H265.1v15Z" class="g0_140"/>
<path fill-rule="evenodd" d="M267.4,900H506.8V885.3H267.4V900Z" class="g0_140"/>
<path fill-rule="evenodd" d="M527.4,162.8H767.2V148.2H527.4v14.6Z" class="g0_140"/>
<path fill-rule="evenodd" d="M527.4,177.5H767.2V162.8H527.4v14.7Z" class="g0_140"/>
<path fill-rule="evenodd" d="M527.4,192.2H767.2V177.5H527.4v14.7Z" class="g0_140"/>
<path fill-rule="evenodd" d="M526.6,207.2H766.5V192.5H526.6v14.7Z" class="g0_140"/>
<path fill-rule="evenodd" d="M526.6,221.9H766.5V207.2H526.6v14.7Z" class="g0_140"/>
<path fill-rule="evenodd" d="M527,236.5H766.5V221.9H527v14.6Z" class="g0_140"/>
<path fill-rule="evenodd" d="M527,251.2H766.5V236.5H527v14.7Z" class="g0_140"/>
<path fill-rule="evenodd" d="M545.3,266.6H767.2V251.9H545.3v14.7Z" class="g0_140"/>
<path fill-rule="evenodd" d="M526.6,281.6H766.8V267H526.6v14.6Z" class="g0_140"/>
<path fill-rule="evenodd" d="M526.6,296.3H766.8V281.6H526.6v14.7Z" class="g0_140"/>
<path fill-rule="evenodd" d="M526.6,311H766.8V296.3H526.6V311Z" class="g0_140"/>
<path fill-rule="evenodd" d="M526.6,325.6H767.2V311H526.6v14.6Z" class="g0_140"/>
<path fill-rule="evenodd" d="M526.6,340.3H767.2V325.6H526.6v14.7Z" class="g0_140"/>
<path fill-rule="evenodd" d="M526.6,355H767.2V340.3H526.6V355Z" class="g0_140"/>
<path fill-rule="evenodd" d="M544.6,369.7H767.2V355H544.6v14.7Z" class="g0_140"/>
<path fill-rule="evenodd" d="M526.3,384.3H766.5V369.7H526.3v14.6Z" class="g0_140"/>
<path fill-rule="evenodd" d="M526.3,399H766.5V384.3H526.3V399Z" class="g0_140"/>
<path fill-rule="evenodd" d="M526.3,414H767.2V399.4H526.3V414Z" class="g0_140"/>
<path fill-rule="evenodd" d="M526.3,428.7H767.2V414H526.3v14.7Z" class="g0_140"/>
<path fill-rule="evenodd" d="M526.3,443.4H767.2V428.7H526.3v14.7Z" class="g0_140"/>
<path fill-rule="evenodd" d="M526.3,458H767.2V443.4H526.3V458Z" class="g0_140"/>
<path fill-rule="evenodd" d="M526.3,472.7H767.2V458H526.3v14.7Z" class="g0_140"/>
<path fill-rule="evenodd" d="M526.3,487.4H767.2V472.7H526.3v14.7Z" class="g0_140"/>
<path fill-rule="evenodd" d="M526.3,502H767.2V487.4H526.3V502Z" class="g0_140"/>
<path fill-rule="evenodd" d="M526.3,516.7H767.2V502H526.3v14.7Z" class="g0_140"/>
<path fill-rule="evenodd" d="M526.3,531.4H767.2V516.7H526.3v14.7Z" class="g0_140"/>
<path fill-rule="evenodd" d="M526.3,546H767.2V531.4H526.3V546Z" class="g0_140"/>
<path fill-rule="evenodd" d="M526.3,560.7H767.2V546H526.3v14.7Z" class="g0_140"/>
<path fill-rule="evenodd" d="M526.3,575.4H767.2V560.7H526.3v14.7Z" class="g0_140"/>
<path fill-rule="evenodd" d="M526.3,590H767.2V575.4H526.3V590Z" class="g0_140"/>
<path fill-rule="evenodd" d="M526.3,604.7H767.2V590H526.3v14.7Z" class="g0_140"/>
<path fill-rule="evenodd" d="M526.3,619.8H683.6V605.1H526.3v14.7Z" class="g0_140"/>
<path fill-rule="evenodd" d="M526.3,634.4H683.6V619.8H526.3v14.6Z" class="g0_140"/>
<path fill-rule="evenodd" d="M525.5,649.1H766.1V634.4H525.5v14.7Z" class="g0_140"/>
<path fill-rule="evenodd" d="M525.5,663.8H766.1V649.1H525.5v14.7Z" class="g0_140"/>
<path fill-rule="evenodd" d="M525.9,678.4H766.8V663.8H525.9v14.6Z" class="g0_140"/>
<path fill-rule="evenodd" d="M525.9,693.1H766.8V678.4H525.9v14.7Z" class="g0_140"/>
<path fill-rule="evenodd" d="M525.9,707.8H766.8V693.1H525.9v14.7Z" class="g0_140"/>
<path fill-rule="evenodd" d="M525.9,722.4H766.8V707.8H525.9v14.6Z" class="g0_140"/>
<path fill-rule="evenodd" d="M525.9,737.1H766.8V722.4H525.9v14.7Z" class="g0_140"/>
<path fill-rule="evenodd" d="M525.9,751.8H766.8V737.1H525.9v14.7Z" class="g0_140"/>
<path fill-rule="evenodd" d="M525.9,766.4H766.8V751.8H525.9v14.6Z" class="g0_140"/>
<path fill-rule="evenodd" d="M525.9,781.1H766.8V766.4H525.9v14.7Z" class="g0_140"/>
<path fill-rule="evenodd" d="M525.5,795.8h241V781.1h-241v14.7Z" class="g0_140"/>
<path fill-rule="evenodd" d="M525.5,810.4h241V795.8h-241v14.6Z" class="g0_140"/>
<path fill-rule="evenodd" d="M525.2,825.1H766.5V810.4H525.2v14.7Z" class="g0_140"/>
<path fill-rule="evenodd" d="M525.2,839.8H766.5V825.1H525.2v14.7Z" class="g0_140"/>
<path fill-rule="evenodd" d="M525.2,854.5H766.5V839.8H525.2v14.7Z" class="g0_140"/>
<path fill-rule="evenodd" d="M525.2,869.2H766.5V854.5H525.2v14.7Z" class="g0_140"/>
<path fill-rule="evenodd" d="M525.2,883.8H766.5V869.2H525.2v14.6Z" class="g0_140"/>
<path fill-rule="evenodd" d="M525.2,898.5H766.5V883.8H525.2v14.7Z" class="g0_140"/>
<path d="M206,111.8V280.9" class="g1_140"/>
<path d="M189.9,801.2V901.6" class="g2_140"/>
<path d="M199.1,321.1v38.2m4,-59.4V478.5M204.6,437v65.3M515.5,148.8V917.7" class="g1_140"/>
</svg>