<?xml version="1.0" encoding="UTF-8" standalone="no"?>
<!DOCTYPE svg PUBLIC "-//W3C//DTD SVG 1.1//EN"
"http://www.w3.org/Graphics/SVG/1.1/DTD/svg11.dtd">
<svg viewBox="0 0 909 1285" version="1.1" xmlns="http://www.w3.org/2000/svg" xmlns:xlink="http://www.w3.org/1999/xlink">
<defs>
<style type="text/css"><![CDATA[
.g0_324{
fill: #FFFFFF;
}
.g1_324{
fill: none;
stroke: #000000;
stroke-width: 0.381;
stroke-linecap: butt;
stroke-linejoin: round;
}
]]></style>
</defs>
<path fill-rule="evenodd" d="M574.9,125.8H675.7V110H574.9v15.8Z" class="g0_324"/>
<path fill-rule="evenodd" d="M177.3,162.1h238V147.4h-238v14.7Z" class="g0_324"/>
<path fill-rule="evenodd" d="M177.3,176.8h238V162.1h-238v14.7Z" class="g0_324"/>
<path fill-rule="evenodd" d="M177.3,191.4h238V176.8h-238v14.6Z" class="g0_324"/>
<path fill-rule="evenodd" d="M177.3,206.1h238V191.4h-238v14.7Z" class="g0_324"/>
<path fill-rule="evenodd" d="M177.3,220.8h238V206.1h-238v14.7Z" class="g0_324"/>
<path fill-rule="evenodd" d="M177.3,235.4H414.9V220.8H177.3v14.6Z" class="g0_324"/>
<path fill-rule="evenodd" d="M177.3,250.1H414.9V235.4H177.3v14.7Z" class="g0_324"/>
<path fill-rule="evenodd" d="M177.3,264.8H414.9V250.1H177.3v14.7Z" class="g0_324"/>
<path fill-rule="evenodd" d="M177.3,279.4H414.9V264.8H177.3v14.6Z" class="g0_324"/>
<path fill-rule="evenodd" d="M176.9,294.1H415.3V279.4H176.9v14.7Z" class="g0_324"/>
<path fill-rule="evenodd" d="M176.9,308.8H415.3V294.1H176.9v14.7Z" class="g0_324"/>
<path fill-rule="evenodd" d="M176.9,323.4H415.3V308.8H176.9v14.6Z" class="g0_324"/>
<path fill-rule="evenodd" d="M176.9,338.1H415.3V323.4H176.9v14.7Z" class="g0_324"/>
<path fill-rule="evenodd" d="M176.9,352.8H415.3V338.1H176.9v14.7Z" class="g0_324"/>
<path fill-rule="evenodd" d="M176.9,367.5H415.3V352.8H176.9v14.7Z" class="g0_324"/>
<path fill-rule="evenodd" d="M176.2,382.1H414.9V367.5H176.2v14.6Z" class="g0_324"/>
<path fill-rule="evenodd" d="M176.2,396.8H414.9V382.1H176.2v14.7Z" class="g0_324"/>
<path fill-rule="evenodd" d="M176.2,411.5H414.9V396.8H176.2v14.7Z" class="g0_324"/>
<path fill-rule="evenodd" d="M176.6,426.1h238V411.5h-238v14.6Z" class="g0_324"/>
<path fill-rule="evenodd" d="M176.6,440.8h238V426.1h-238v14.7Z" class="g0_324"/>
<path fill-rule="evenodd" d="M176.6,455.8h238v-15h-238v15Z" class="g0_324"/>
<path fill-rule="evenodd" d="M176.6,470.5h238V455.8h-238v14.7Z" class="g0_324"/>
<path fill-rule="evenodd" d="M176.2,485.2H414.6V470.5H176.2v14.7Z" class="g0_324"/>
<path fill-rule="evenodd" d="M176.2,499.8H414.6V485.2H176.2v14.6Z" class="g0_324"/>
<path fill-rule="evenodd" d="M175.1,514.9H414.2V500.2H175.1v14.7Z" class="g0_324"/>
<path fill-rule="evenodd" d="M175.1,529.5H414.2V514.9H175.1v14.6Z" class="g0_324"/>
<path fill-rule="evenodd" d="M175.1,544.2H414.2V529.5H175.1v14.7Z" class="g0_324"/>
<path fill-rule="evenodd" d="M176.2,558.9H414.6V544.2H176.2v14.7Z" class="g0_324"/>
<path fill-rule="evenodd" d="M176.2,573.5H414.6V558.9H176.2v14.6Z" class="g0_324"/>
<path fill-rule="evenodd" d="M176.2,588.2H414.6V573.5H176.2v14.7Z" class="g0_324"/>
<path fill-rule="evenodd" d="M176.2,602.9H414.6V588.2H176.2v14.7Z" class="g0_324"/>
<path fill-rule="evenodd" d="M175.8,617.6H414.6V602.9H175.8v14.7Z" class="g0_324"/>
<path fill-rule="evenodd" d="M175.8,632.2H414.6V617.6H175.8v14.6Z" class="g0_324"/>
<path fill-rule="evenodd" d="M175.5,646.9h238V632.2h-238v14.7Z" class="g0_324"/>
<path fill-rule="evenodd" d="M175.5,661.6h238V646.9h-238v14.7Z" class="g0_324"/>
<path fill-rule="evenodd" d="M175.5,676.2H414.2V661.6H175.5v14.6Z" class="g0_324"/>
<path fill-rule="evenodd" d="M175.5,690.9H414.2V676.2H175.5v14.7Z" class="g0_324"/>
<path fill-rule="evenodd" d="M175.5,705.6H414.2V690.9H175.5v14.7Z" class="g0_324"/>
<path fill-rule="evenodd" d="M175.5,720.2H414.2V705.6H175.5v14.6Z" class="g0_324"/>
<path fill-rule="evenodd" d="M175.5,734.9H414.2V720.2H175.5v14.7Z" class="g0_324"/>
<path fill-rule="evenodd" d="M175.1,749.9H413.8V735.3H175.1v14.6Z" class="g0_324"/>
<path fill-rule="evenodd" d="M175.1,764.6H413.8V749.9H175.1v14.7Z" class="g0_324"/>
<path fill-rule="evenodd" d="M175.1,779.3H413.8V764.6H175.1v14.7Z" class="g0_324"/>
<path fill-rule="evenodd" d="M175.1,793.9H413.8V779.3H175.1v14.6Z" class="g0_324"/>
<path fill-rule="evenodd" d="M175.1,808.6H413.8V793.9H175.1v14.7Z" class="g0_324"/>
<path fill-rule="evenodd" d="M175.1,823.3H413.8V808.6H175.1v14.7Z" class="g0_324"/>
<path fill-rule="evenodd" d="M174.7,838.5H413.8V823.6H174.7v14.9Z" class="g0_324"/>
<path fill-rule="evenodd" d="M174.7,853.2H413.8V838.5H174.7v14.7Z" class="g0_324"/>
<path fill-rule="evenodd" d="M174.7,867.9H413.8V853.2H174.7v14.7Z" class="g0_324"/>
<path fill-rule="evenodd" d="M174.7,882.5H413.8V867.9H174.7v14.6Z" class="g0_324"/>
<path fill-rule="evenodd" d="M174.7,897.2H413.8V882.5H174.7v14.7Z" class="g0_324"/>
<path fill-rule="evenodd" d="M176.6,911.9H414.9V897.2H176.6v14.7Z" class="g0_324"/>
<path fill-rule="evenodd" d="M435.9,161.7H675V147.1H435.9v14.6Z" class="g0_324"/>
<path fill-rule="evenodd" d="M435.9,176.4H675V161.7H435.9v14.7Z" class="g0_324"/>
<path fill-rule="evenodd" d="M435.9,191.1H675V176.4H435.9v14.7Z" class="g0_324"/>
<path fill-rule="evenodd" d="M435.9,205.7H675V191.1H435.9v14.6Z" class="g0_324"/>
<path fill-rule="evenodd" d="M435.9,220.4H675V205.7H435.9v14.7Z" class="g0_324"/>
<path fill-rule="evenodd" d="M435.9,235.1H675.4V220.4H435.9v14.7Z" class="g0_324"/>
<path fill-rule="evenodd" d="M435.9,249.7H675.4V235.1H435.9v14.6Z" class="g0_324"/>
<path fill-rule="evenodd" d="M435.9,264.4H675.4V249.7H435.9v14.7Z" class="g0_324"/>
<path fill-rule="evenodd" d="M454.2,279.4H675.4V264.8H454.2v14.6Z" class="g0_324"/>
<path fill-rule="evenodd" d="M435.1,294.5H674.6V279.8H435.1v14.7Z" class="g0_324"/>
<path fill-rule="evenodd" d="M435.1,309.1H674.6V294.5H435.1v14.6Z" class="g0_324"/>
<path fill-rule="evenodd" d="M435.1,323.8H674.6V309.1H435.1v14.7Z" class="g0_324"/>
<path fill-rule="evenodd" d="M435.9,338.5H674.6V323.8H435.9v14.7Z" class="g0_324"/>
<path fill-rule="evenodd" d="M435.9,353.2H674.6V338.5H435.9v14.7Z" class="g0_324"/>
<path fill-rule="evenodd" d="M435.9,368.2H674.3V353.5H435.9v14.7Z" class="g0_324"/>
<path fill-rule="evenodd" d="M435.9,382.9H674.3V368.2H435.9v14.7Z" class="g0_324"/>
<path fill-rule="evenodd" d="M435.1,397.5H675V382.9H435.1v14.6Z" class="g0_324"/>
<path fill-rule="evenodd" d="M435.1,412.2H675V397.5H435.1v14.7Z" class="g0_324"/>
<path fill-rule="evenodd" d="M435.1,426.9H675V412.2H435.1v14.7Z" class="g0_324"/>
<path fill-rule="evenodd" d="M435.5,441.5H674.6V426.9H435.5v14.6Z" class="g0_324"/>
<path fill-rule="evenodd" d="M435.5,456.2H674.6V441.5H435.5v14.7Z" class="g0_324"/>
<path fill-rule="evenodd" d="M435.1,470.9H674.6V456.2H435.1v14.7Z" class="g0_324"/>
<path fill-rule="evenodd" d="M435.1,485.5H674.6V470.9H435.1v14.6Z" class="g0_324"/>
<path fill-rule="evenodd" d="M453.9,500.6H675.4V485.9H453.9v14.7Z" class="g0_324"/>
<path fill-rule="evenodd" d="M434.8,515.2H673.9V500.6H434.8v14.6Z" class="g0_324"/>
<path fill-rule="evenodd" d="M434.8,529.9H673.9V515.2H434.8v14.7Z" class="g0_324"/>
<path fill-rule="evenodd" d="M434.8,544.6H673.9V529.9H434.8v14.7Z" class="g0_324"/>
<path fill-rule="evenodd" d="M434.8,559.2H673.5V544.6H434.8v14.6Z" class="g0_324"/>
<path fill-rule="evenodd" d="M434.8,573.9H673.5V559.2H434.8v14.7Z" class="g0_324"/>
<path fill-rule="evenodd" d="M435.1,588.6H674.3V573.9H435.1v14.7Z" class="g0_324"/>
<path fill-rule="evenodd" d="M435.1,603.3H674.3V588.6H435.1v14.7Z" class="g0_324"/>
<path fill-rule="evenodd" d="M434.4,617.9H674.3V603.3H434.4v14.6Z" class="g0_324"/>
<path fill-rule="evenodd" d="M434.4,632.6H674.3V617.9H434.4v14.7Z" class="g0_324"/>
<path fill-rule="evenodd" d="M434.4,647.3H674.3V632.6H434.4v14.7Z" class="g0_324"/>
<path fill-rule="evenodd" d="M434.4,661.9H674.3V647.3H434.4v14.6Z" class="g0_324"/>
<path fill-rule="evenodd" d="M434.4,676.6H674.3V661.9H434.4v14.7Z" class="g0_324"/>
<path fill-rule="evenodd" d="M434.4,691.3H674.3V676.6H434.4v14.7Z" class="g0_324"/>
<path fill-rule="evenodd" d="M434.8,706.5H673.9V691.6H434.8v14.9Z" class="g0_324"/>
<path fill-rule="evenodd" d="M434.8,721.2H673.9V706.5H434.8v14.7Z" class="g0_324"/>
<path fill-rule="evenodd" d="M434,735.8H673.9V721.2H434v14.6Z" class="g0_324"/>
<path fill-rule="evenodd" d="M434,750.5H673.9V735.8H434v14.7Z" class="g0_324"/>
<path fill-rule="evenodd" d="M434,765.2H673.9V750.5H434v14.7Z" class="g0_324"/>
<path fill-rule="evenodd" d="M434,779.8H673.5V765.2H434v14.6Z" class="g0_324"/>
<path fill-rule="evenodd" d="M434,794.5H673.5V779.8H434v14.7Z" class="g0_324"/>
<path fill-rule="evenodd" d="M434,809.2H673.5V794.5H434v14.7Z" class="g0_324"/>
<path fill-rule="evenodd" d="M434,823.8H673.5V809.2H434v14.6Z" class="g0_324"/>
<path fill-rule="evenodd" d="M434,838.5H673.5V823.8H434v14.7Z" class="g0_324"/>
<path fill-rule="evenodd" d="M434.4,853.2H673.5V838.5H434.4v14.7Z" class="g0_324"/>
<path fill-rule="evenodd" d="M434.4,867.9H673.5V853.2H434.4v14.7Z" class="g0_324"/>
<path fill-rule="evenodd" d="M434.4,882.5H673.5V867.9H434.4v14.6Z" class="g0_324"/>
<path fill-rule="evenodd" d="M434.4,897.2H673.5V882.5H434.4v14.7Z" class="g0_324"/>
<path fill-rule="evenodd" d="M410.9,928.6H675.7V911.1H410.9v17.5Z" class="g0_324"/>
<path d="M423.3,146.3V915.2" class="g1_324"/>
</svg>