<?xml version="1.0" encoding="UTF-8" standalone="no"?>
<!DOCTYPE svg PUBLIC "-//W3C//DTD SVG 1.1//EN"
"http://www.w3.org/Graphics/SVG/1.1/DTD/svg11.dtd">
<svg viewBox="0 0 909 1285" version="1.1" xmlns="http://www.w3.org/2000/svg" xmlns:xlink="http://www.w3.org/1999/xlink">
<defs>
<style type="text/css"><![CDATA[
.g0_283{
fill: #FFFFFF;
}
.g1_283{
fill: none;
stroke: #000000;
stroke-width: 0.381;
stroke-linecap: butt;
stroke-linejoin: round;
}
.g2_283{
fill: none;
stroke: #000000;
stroke-width: 1.833;
stroke-linecap: butt;
stroke-linejoin: round;
}
]]></style>
</defs>
<path fill-rule="evenodd" d="M266.2,125.8H763.5V110H266.2v15.8Z" class="g0_283"/>
<path fill-rule="evenodd" d="M265.9,161.4H478.2V146.7H265.9v14.7Z" class="g0_283"/>
<path fill-rule="evenodd" d="M265.9,176H478.2V161.4H265.9V176Z" class="g0_283"/>
<path fill-rule="evenodd" d="M265.9,190.7H504.3V176H265.9v14.7Z" class="g0_283"/>
<path fill-rule="evenodd" d="M265.9,205.4H504.3V190.7H265.9v14.7Z" class="g0_283"/>
<path fill-rule="evenodd" d="M265.9,220H504.3V205.4H265.9V220Z" class="g0_283"/>
<path fill-rule="evenodd" d="M265.9,234.7H504.3V220H265.9v14.7Z" class="g0_283"/>
<path fill-rule="evenodd" d="M265.9,249.4H504.3V234.7H265.9v14.7Z" class="g0_283"/>
<path fill-rule="evenodd" d="M266.2,264.4H504.3V249.7H266.2v14.7Z" class="g0_283"/>
<path fill-rule="evenodd" d="M266.2,279.1H504.3V264.4H266.2v14.7Z" class="g0_283"/>
<path fill-rule="evenodd" d="M265.9,293.9H504.3V279.1H265.9v14.8Z" class="g0_283"/>
<path fill-rule="evenodd" d="M265.9,308.6H504.3V293.9H265.9v14.7Z" class="g0_283"/>
<path fill-rule="evenodd" d="M265.9,323.2H504.3V308.6H265.9v14.6Z" class="g0_283"/>
<path fill-rule="evenodd" d="M265.5,337.9H504.3V323.2H265.5v14.7Z" class="g0_283"/>
<path fill-rule="evenodd" d="M265.5,352.6H504.3V337.9H265.5v14.7Z" class="g0_283"/>
<path fill-rule="evenodd" d="M265.9,367.3h238V352.6h-238v14.7Z" class="g0_283"/>
<path fill-rule="evenodd" d="M265.9,382h238V367.3h-238V382Z" class="g0_283"/>
<path fill-rule="evenodd" d="M265.5,396.6H504.6V382H265.5v14.6Z" class="g0_283"/>
<path fill-rule="evenodd" d="M265.5,411.3H504.6V396.6H265.5v14.7Z" class="g0_283"/>
<path fill-rule="evenodd" d="M265.1,426H503.5V411.3H265.1V426Z" class="g0_283"/>
<path fill-rule="evenodd" d="M265.1,440.6H503.5V426H265.1v14.6Z" class="g0_283"/>
<path fill-rule="evenodd" d="M265.1,455.7H503.9V441H265.1v14.7Z" class="g0_283"/>
<path fill-rule="evenodd" d="M265.1,470.3H503.9V455.7H265.1v14.6Z" class="g0_283"/>
<path fill-rule="evenodd" d="M265.1,485H503.9V470.3H265.1V485Z" class="g0_283"/>
<path fill-rule="evenodd" d="M265.1,499.7H503.9V485H265.1v14.7Z" class="g0_283"/>
<path fill-rule="evenodd" d="M265.1,514.3H503.9V499.7H265.1v14.6Z" class="g0_283"/>
<path fill-rule="evenodd" d="M264.8,529.4H503.9V514.7H264.8v14.7Z" class="g0_283"/>
<path fill-rule="evenodd" d="M264.8,544H503.9V529.4H264.8V544Z" class="g0_283"/>
<path fill-rule="evenodd" d="M264.8,558.7H503.9V544H264.8v14.7Z" class="g0_283"/>
<path fill-rule="evenodd" d="M264.8,573.4H503.9V558.7H264.8v14.7Z" class="g0_283"/>
<path fill-rule="evenodd" d="M264.8,588H503.9V573.4H264.8V588Z" class="g0_283"/>
<path fill-rule="evenodd" d="M264.8,602.7H503.9V588H264.8v14.7Z" class="g0_283"/>
<path fill-rule="evenodd" d="M264.8,617.4H503.9V602.7H264.8v14.7Z" class="g0_283"/>
<path fill-rule="evenodd" d="M264.8,632.1H503.9V617.4H264.8v14.7Z" class="g0_283"/>
<path fill-rule="evenodd" d="M264.8,646.7H503.9V632.1H264.8v14.6Z" class="g0_283"/>
<path fill-rule="evenodd" d="M264.8,661.4H503.5V646.7H264.8v14.7Z" class="g0_283"/>
<path fill-rule="evenodd" d="M264.8,676.1H503.5V661.4H264.8v14.7Z" class="g0_283"/>
<path fill-rule="evenodd" d="M264.8,690.7H503.5V676.1H264.8v14.6Z" class="g0_283"/>
<path fill-rule="evenodd" d="M264.4,706.1H503.5V691.5H264.4v14.6Z" class="g0_283"/>
<path fill-rule="evenodd" d="M264.4,720.8H503.5V706.1H264.4v14.7Z" class="g0_283"/>
<path fill-rule="evenodd" d="M264.4,735.8H503.5v-15H264.4v15Z" class="g0_283"/>
<path fill-rule="evenodd" d="M264.4,750.5H503.5V735.8H264.4v14.7Z" class="g0_283"/>
<path fill-rule="evenodd" d="M264.4,765.2H503.5V750.5H264.4v14.7Z" class="g0_283"/>
<path fill-rule="evenodd" d="M264.4,779.8H503.5V765.2H264.4v14.6Z" class="g0_283"/>
<path fill-rule="evenodd" d="M264,794.9H503.5V780.2H264v14.7Z" class="g0_283"/>
<path fill-rule="evenodd" d="M264,809.5H503.5V794.9H264v14.6Z" class="g0_283"/>
<path fill-rule="evenodd" d="M264,824.2H503.5V809.5H264v14.7Z" class="g0_283"/>
<path fill-rule="evenodd" d="M264,838.9H503.5V824.2H264v14.7Z" class="g0_283"/>
<path fill-rule="evenodd" d="M264,853.6H503.5V838.9H264v14.7Z" class="g0_283"/>
<path fill-rule="evenodd" d="M264,868.2H503.5V853.6H264v14.6Z" class="g0_283"/>
<path fill-rule="evenodd" d="M264,882.9H503.5V868.2H264v14.7Z" class="g0_283"/>
<path fill-rule="evenodd" d="M264,897.6H503.5V882.9H264v14.7Z" class="g0_283"/>
<path fill-rule="evenodd" d="M265.5,912.2H504.6V897.6H265.5v14.6Z" class="g0_283"/>
<path fill-rule="evenodd" d="M524.8,161H763.5V146.3H524.8V161Z" class="g0_283"/>
<path fill-rule="evenodd" d="M524.8,175.7H763.5V161H524.8v14.7Z" class="g0_283"/>
<path fill-rule="evenodd" d="M524.8,190.3H763.5V175.7H524.8v14.6Z" class="g0_283"/>
<path fill-rule="evenodd" d="M524.8,205H763.5V190.3H524.8V205Z" class="g0_283"/>
<path fill-rule="evenodd" d="M524.8,219.7H763.2V205H524.8v14.7Z" class="g0_283"/>
<path fill-rule="evenodd" d="M524.8,234.3H763.2V219.7H524.8v14.6Z" class="g0_283"/>
<path fill-rule="evenodd" d="M525.2,249H763.5V234.3H525.2V249Z" class="g0_283"/>
<path fill-rule="evenodd" d="M525.2,263.7H763.5V249H525.2v14.7Z" class="g0_283"/>
<path fill-rule="evenodd" d="M525.2,278.3h238V263.7h-238v14.6Z" class="g0_283"/>
<path fill-rule="evenodd" d="M525.2,293h238V278.3h-238V293Z" class="g0_283"/>
<path fill-rule="evenodd" d="M524.8,308H763.5V293.4H524.8V308Z" class="g0_283"/>
<path fill-rule="evenodd" d="M524.8,322.7H763.5V308H524.8v14.7Z" class="g0_283"/>
<path fill-rule="evenodd" d="M524.8,337.4H763.5V322.7H524.8v14.7Z" class="g0_283"/>
<path fill-rule="evenodd" d="M524.8,352h238V337.4h-238V352Z" class="g0_283"/>
<path fill-rule="evenodd" d="M524.8,366.7h238V352h-238v14.7Z" class="g0_283"/>
<path fill-rule="evenodd" d="M524.4,382H763.2V367.1H524.4V382Z" class="g0_283"/>
<path fill-rule="evenodd" d="M524.4,396.6H763.2V382H524.4v14.6Z" class="g0_283"/>
<path fill-rule="evenodd" d="M524.4,411.3H763.2V396.6H524.4v14.7Z" class="g0_283"/>
<path fill-rule="evenodd" d="M524.4,426H763.2V411.3H524.4V426Z" class="g0_283"/>
<path fill-rule="evenodd" d="M524.4,440.6H763.2V426H524.4v14.6Z" class="g0_283"/>
<path fill-rule="evenodd" d="M523.7,455.3H763.2V440.6H523.7v14.7Z" class="g0_283"/>
<path fill-rule="evenodd" d="M523.7,470H763.2V455.3H523.7V470Z" class="g0_283"/>
<path fill-rule="evenodd" d="M523.7,484.6H763.2V470H523.7v14.6Z" class="g0_283"/>
<path fill-rule="evenodd" d="M523.7,499.3H763.2V484.6H523.7v14.7Z" class="g0_283"/>
<path fill-rule="evenodd" d="M523.7,514H763.2V499.3H523.7V514Z" class="g0_283"/>
<path fill-rule="evenodd" d="M523.7,528.6H763.2V514H523.7v14.6Z" class="g0_283"/>
<path fill-rule="evenodd" d="M523.7,543.3H763.2V528.6H523.7v14.7Z" class="g0_283"/>
<path fill-rule="evenodd" d="M523.7,558H763.2V543.3H523.7V558Z" class="g0_283"/>
<path fill-rule="evenodd" d="M523.7,572.6H763.2V558H523.7v14.6Z" class="g0_283"/>
<path fill-rule="evenodd" d="M523.7,587.3H763.2V572.6H523.7v14.7Z" class="g0_283"/>
<path fill-rule="evenodd" d="M524.1,602.4H762.8V587.7H524.1v14.7Z" class="g0_283"/>
<path fill-rule="evenodd" d="M524.1,617H762.8V602.4H524.1V617Z" class="g0_283"/>
<path fill-rule="evenodd" d="M524.1,631.7H762.8V617H524.1v14.7Z" class="g0_283"/>
<path fill-rule="evenodd" d="M524.1,646.4H762.8V631.7H524.1v14.7Z" class="g0_283"/>
<path fill-rule="evenodd" d="M524.1,661.4H763.5V646.7H524.1v14.7Z" class="g0_283"/>
<path fill-rule="evenodd" d="M524.1,676.1H763.5V661.4H524.1v14.7Z" class="g0_283"/>
<path fill-rule="evenodd" d="M542,690.7H763.5V676.1H542v14.6Z" class="g0_283"/>
<path fill-rule="evenodd" d="M523.3,705.4H763.2V690.7H523.3v14.7Z" class="g0_283"/>
<path fill-rule="evenodd" d="M523.3,720.1H763.2V705.4H523.3v14.7Z" class="g0_283"/>
<path fill-rule="evenodd" d="M523.3,734.7H763.2V720.1H523.3v14.6Z" class="g0_283"/>
<path fill-rule="evenodd" d="M523.3,749.4H763.2V734.7H523.3v14.7Z" class="g0_283"/>
<path fill-rule="evenodd" d="M523.3,764.1H763.2V749.4H523.3v14.7Z" class="g0_283"/>
<path fill-rule="evenodd" d="M523.3,778.7H763.2V764.1H523.3v14.6Z" class="g0_283"/>
<path fill-rule="evenodd" d="M523.3,793.4H763.2V778.7H523.3v14.7Z" class="g0_283"/>
<path fill-rule="evenodd" d="M523.3,808.1H763.2V793.4H523.3v14.7Z" class="g0_283"/>
<path fill-rule="evenodd" d="M523.3,822.7H763.2V808.1H523.3v14.6Z" class="g0_283"/>
<path fill-rule="evenodd" d="M523.3,837.4H763.2V822.7H523.3v14.7Z" class="g0_283"/>
<path fill-rule="evenodd" d="M523.3,852.1H763.2V837.4H523.3v14.7Z" class="g0_283"/>
<path fill-rule="evenodd" d="M523.3,866.8H763.2V852.1H523.3v14.7Z" class="g0_283"/>
<path fill-rule="evenodd" d="M523.3,881.8H763.5V867.1H523.3v14.7Z" class="g0_283"/>
<path fill-rule="evenodd" d="M523.3,896.5H763.5V881.8H523.3v14.7Z" class="g0_283"/>
<path fill-rule="evenodd" d="M500.2,929.5H763.5V911.9H500.2v17.6Z" class="g0_283"/>
<path d="M196.5,96.5V242.4" class="g1_283"/>
<path d="M197.3,96.1V161" class="g2_283"/>
<path d="M210.5,96.1V959.6M513,147.4V915.6" class="g1_283"/>
</svg>