<?xml version="1.0" encoding="UTF-8" standalone="no"?>
<!DOCTYPE svg PUBLIC "-//W3C//DTD SVG 1.1//EN"
"http://www.w3.org/Graphics/SVG/1.1/DTD/svg11.dtd">
<svg viewBox="0 0 909 1285" version="1.1" xmlns="http://www.w3.org/2000/svg" xmlns:xlink="http://www.w3.org/1999/xlink">
<defs>
<style type="text/css"><![CDATA[
.g0_110{
fill: #FFFFFF;
}
.g1_110{
fill: none;
stroke: #000000;
stroke-width: 0.381;
stroke-linecap: butt;
stroke-linejoin: round;
}
]]></style>
</defs>
<path fill-rule="evenodd" d="M479,131.1H686.9V110H479v21.1Z" class="g0_110"/>
<path fill-rule="evenodd" d="M185.6,167H425.4V152H185.6v15Z" class="g0_110"/>
<path fill-rule="evenodd" d="M185.6,182.3H425.4V167H185.6v15.3Z" class="g0_110"/>
<path fill-rule="evenodd" d="M185.6,197.3H425.4v-15H185.6v15Z" class="g0_110"/>
<path fill-rule="evenodd" d="M185.9,212.3H425v-15H185.9v15Z" class="g0_110"/>
<path fill-rule="evenodd" d="M185.9,227.4H425V212.3H185.9v15.1Z" class="g0_110"/>
<path fill-rule="evenodd" d="M185.6,242.4H425v-15H185.6v15Z" class="g0_110"/>
<path fill-rule="evenodd" d="M185.6,257.4H425v-15H185.6v15Z" class="g0_110"/>
<path fill-rule="evenodd" d="M185.6,272.5H425V257.4H185.6v15.1Z" class="g0_110"/>
<path fill-rule="evenodd" d="M185.6,287.5H425v-15H185.6v15Z" class="g0_110"/>
<path fill-rule="evenodd" d="M185.6,302.5H425v-15H185.6v15Z" class="g0_110"/>
<path fill-rule="evenodd" d="M185.2,317.6H425.4V302.5H185.2v15.1Z" class="g0_110"/>
<path fill-rule="evenodd" d="M185.2,332.6H425.4v-15H185.2v15Z" class="g0_110"/>
<path fill-rule="evenodd" d="M185.2,347.8H425.4V332.6H185.2v15.2Z" class="g0_110"/>
<path fill-rule="evenodd" d="M185.2,362.9H425.4V347.8H185.2v15.1Z" class="g0_110"/>
<path fill-rule="evenodd" d="M185.2,377.9H425.4v-15H185.2v15Z" class="g0_110"/>
<path fill-rule="evenodd" d="M185.2,393H425.4V377.9H185.2V393Z" class="g0_110"/>
<path fill-rule="evenodd" d="M185.2,408H425.4V393H185.2v15Z" class="g0_110"/>
<path fill-rule="evenodd" d="M185.2,423H425.4V408H185.2v15Z" class="g0_110"/>
<path fill-rule="evenodd" d="M185.2,438.1H425.4V423H185.2v15.1Z" class="g0_110"/>
<path fill-rule="evenodd" d="M185.2,453.1H425.4v-15H185.2v15Z" class="g0_110"/>
<path fill-rule="evenodd" d="M185.2,468.1H425.4v-15H185.2v15Z" class="g0_110"/>
<path fill-rule="evenodd" d="M184.8,483.2H424.3V468.1H184.8v15.1Z" class="g0_110"/>
<path fill-rule="evenodd" d="M184.8,498.2H424.3v-15H184.8v15Z" class="g0_110"/>
<path fill-rule="evenodd" d="M184.8,513.2H424.3v-15H184.8v15Z" class="g0_110"/>
<path fill-rule="evenodd" d="M184.8,528.4H424.3V513.2H184.8v15.2Z" class="g0_110"/>
<path fill-rule="evenodd" d="M184.8,543.5H424.3V528.4H184.8v15.1Z" class="g0_110"/>
<path fill-rule="evenodd" d="M184.8,558.5H424.3v-15H184.8v15Z" class="g0_110"/>
<path fill-rule="evenodd" d="M184.8,573.5H424.3v-15H184.8v15Z" class="g0_110"/>
<path fill-rule="evenodd" d="M184.8,588.6H424.3V573.5H184.8v15.1Z" class="g0_110"/>
<path fill-rule="evenodd" d="M184.1,603.6H424.3v-15H184.1v15Z" class="g0_110"/>
<path fill-rule="evenodd" d="M184.1,618.7H424.3V603.6H184.1v15.1Z" class="g0_110"/>
<path fill-rule="evenodd" d="M184.1,633.7H424.3v-15H184.1v15Z" class="g0_110"/>
<path fill-rule="evenodd" d="M184.1,648.7H424.3v-15H184.1v15Z" class="g0_110"/>
<path fill-rule="evenodd" d="M184.1,663.8H424.3V648.7H184.1v15.1Z" class="g0_110"/>
<path fill-rule="evenodd" d="M184.1,678.8H424.3v-15H184.1v15Z" class="g0_110"/>
<path fill-rule="evenodd" d="M184.1,693.8H424.3v-15H184.1v15Z" class="g0_110"/>
<path fill-rule="evenodd" d="M184.1,709.1H424.3V693.8H184.1v15.3Z" class="g0_110"/>
<path fill-rule="evenodd" d="M184.1,724.1H424.3v-15H184.1v15Z" class="g0_110"/>
<path fill-rule="evenodd" d="M184.1,739.1H424.3v-15H184.1v15Z" class="g0_110"/>
<path fill-rule="evenodd" d="M184.1,754.2H424.3V739.1H184.1v15.1Z" class="g0_110"/>
<path fill-rule="evenodd" d="M184.1,769.2H424.3v-15H184.1v15Z" class="g0_110"/>
<path fill-rule="evenodd" d="M184.1,784.2H424.3v-15H184.1v15Z" class="g0_110"/>
<path fill-rule="evenodd" d="M184.1,799.3H423.6V784.2H184.1v15.1Z" class="g0_110"/>
<path fill-rule="evenodd" d="M184.1,814.3H423.6v-15H184.1v15Z" class="g0_110"/>
<path fill-rule="evenodd" d="M184.1,829.3H423.6v-15H184.1v15Z" class="g0_110"/>
<path fill-rule="evenodd" d="M184.1,844.4H423.6V829.3H184.1v15.1Z" class="g0_110"/>
<path fill-rule="evenodd" d="M184.1,859.4H423.6v-15H184.1v15Z" class="g0_110"/>
<path fill-rule="evenodd" d="M184.1,874.5H423.6V859.4H184.1v15.1Z" class="g0_110"/>
<path fill-rule="evenodd" d="M184.1,889.7H423.6V874.5H184.1v15.2Z" class="g0_110"/>
<path fill-rule="evenodd" d="M184.1,904.7H423.6v-15H184.1v15Z" class="g0_110"/>
<path fill-rule="evenodd" d="M186.3,919.8H425.4V904.7H186.3v15.1Z" class="g0_110"/>
<path fill-rule="evenodd" d="M445.9,166.7H686.6V151.6H445.9v15.1Z" class="g0_110"/>
<path fill-rule="evenodd" d="M445.9,181.7H686.6v-15H445.9v15Z" class="g0_110"/>
<path fill-rule="evenodd" d="M446.3,196.9H686.6V181.7H446.3v15.2Z" class="g0_110"/>
<path fill-rule="evenodd" d="M446.3,212H686.6V196.9H446.3V212Z" class="g0_110"/>
<path fill-rule="evenodd" d="M446.3,227H686.6V212H446.3v15Z" class="g0_110"/>
<path fill-rule="evenodd" d="M445.2,242h241V227h-241v15Z" class="g0_110"/>
<path fill-rule="evenodd" d="M445.2,257.1h241V242h-241v15.1Z" class="g0_110"/>
<path fill-rule="evenodd" d="M445.2,272.1h241v-15h-241v15Z" class="g0_110"/>
<path fill-rule="evenodd" d="M445.2,287.1h241v-15h-241v15Z" class="g0_110"/>
<path fill-rule="evenodd" d="M445.2,302.2h241V287.1h-241v15.1Z" class="g0_110"/>
<path fill-rule="evenodd" d="M445.2,317.2h241v-15h-241v15Z" class="g0_110"/>
<path fill-rule="evenodd" d="M445.2,332.2h241v-15h-241v15Z" class="g0_110"/>
<path fill-rule="evenodd" d="M445.2,347.3h241V332.2h-241v15.1Z" class="g0_110"/>
<path fill-rule="evenodd" d="M445.6,362.5h241V347.3h-241v15.2Z" class="g0_110"/>
<path fill-rule="evenodd" d="M445.6,377.6h241V362.5h-241v15.1Z" class="g0_110"/>
<path fill-rule="evenodd" d="M445.6,392.6h241v-15h-241v15Z" class="g0_110"/>
<path fill-rule="evenodd" d="M445.2,408H685.8V393H445.2v15Z" class="g0_110"/>
<path fill-rule="evenodd" d="M445.2,423H685.8V408H445.2v15Z" class="g0_110"/>
<path fill-rule="evenodd" d="M445.2,438.1H685.8V423H445.2v15.1Z" class="g0_110"/>
<path fill-rule="evenodd" d="M445.2,453.5H685.1V438.4H445.2v15.1Z" class="g0_110"/>
<path fill-rule="evenodd" d="M445.2,468.5H685.1v-15H445.2v15Z" class="g0_110"/>
<path fill-rule="evenodd" d="M444.8,483.5H685.5v-15H444.8v15Z" class="g0_110"/>
<path fill-rule="evenodd" d="M444.8,498.6H685.5V483.5H444.8v15.1Z" class="g0_110"/>
<path fill-rule="evenodd" d="M444.8,513.8H685.5V498.6H444.8v15.2Z" class="g0_110"/>
<path fill-rule="evenodd" d="M444.8,528.8H685.1v-15H444.8v15Z" class="g0_110"/>
<path fill-rule="evenodd" d="M444.8,543.8H685.1v-15H444.8v15Z" class="g0_110"/>
<path fill-rule="evenodd" d="M444.8,558.9H685.1V543.8H444.8v15.1Z" class="g0_110"/>
<path fill-rule="evenodd" d="M444.8,573.9H685.1v-15H444.8v15Z" class="g0_110"/>
<path fill-rule="evenodd" d="M444.8,588.9H685.1v-15H444.8v15Z" class="g0_110"/>
<path fill-rule="evenodd" d="M444.8,604H685.1V588.9H444.8V604Z" class="g0_110"/>
<path fill-rule="evenodd" d="M445.2,619H684.4V604H445.2v15Z" class="g0_110"/>
<path fill-rule="evenodd" d="M445.2,634.1H684.4V619H445.2v15.1Z" class="g0_110"/>
<path fill-rule="evenodd" d="M444.8,649.1H686.6v-15H444.8v15Z" class="g0_110"/>
<path fill-rule="evenodd" d="M444.8,664.1H686.6v-15H444.8v15Z" class="g0_110"/>
<path fill-rule="evenodd" d="M444.8,679.2H686.6V664.1H444.8v15.1Z" class="g0_110"/>
<path fill-rule="evenodd" d="M444.8,694.4H686.6V679.2H444.8v15.2Z" class="g0_110"/>
<path fill-rule="evenodd" d="M443.7,709.4H685.1v-15H443.7v15Z" class="g0_110"/>
<path fill-rule="evenodd" d="M443.7,724.5H685.1V709.4H443.7v15.1Z" class="g0_110"/>
<path fill-rule="evenodd" d="M443.7,739.5H685.1v-15H443.7v15Z" class="g0_110"/>
<path fill-rule="evenodd" d="M443.7,754.5H685.1v-15H443.7v15Z" class="g0_110"/>
<path fill-rule="evenodd" d="M443.7,769.6H685.1V754.5H443.7v15.1Z" class="g0_110"/>
<path fill-rule="evenodd" d="M443.7,784.6H685.1v-15H443.7v15Z" class="g0_110"/>
<path fill-rule="evenodd" d="M443.7,799.6H685.1v-15H443.7v15Z" class="g0_110"/>
<path fill-rule="evenodd" d="M444.5,814.7H686.6V799.6H444.5v15.1Z" class="g0_110"/>
<path fill-rule="evenodd" d="M444.5,829.7H686.6v-15H444.5v15Z" class="g0_110"/>
<path fill-rule="evenodd" d="M444.1,844.8H684.7V829.7H444.1v15.1Z" class="g0_110"/>
<path fill-rule="evenodd" d="M444.1,859.8H684.7v-15H444.1v15Z" class="g0_110"/>
<path fill-rule="evenodd" d="M444.1,875H684.7V859.8H444.1V875Z" class="g0_110"/>
<path fill-rule="evenodd" d="M421.7,936.8H686.9V919.4H421.7v17.4Z" class="g0_110"/>
<path d="M433.4,152.1V920.3" class="g1_110"/>
</svg>