<?xml version="1.0" encoding="UTF-8" standalone="no"?>
<!DOCTYPE svg PUBLIC "-//W3C//DTD SVG 1.1//EN"
"http://www.w3.org/Graphics/SVG/1.1/DTD/svg11.dtd">
<svg viewBox="0 0 909 1285" version="1.1" xmlns="http://www.w3.org/2000/svg" xmlns:xlink="http://www.w3.org/1999/xlink">
<defs>
<style type="text/css"><![CDATA[
.g0_192{
fill: #FFFFFF;
}
.g1_192{
fill: none;
stroke: #000000;
stroke-width: 0.381;
stroke-linecap: butt;
stroke-linejoin: round;
}
]]></style>
</defs>
<path fill-rule="evenodd" d="M608.2,125.8h80.4V110H608.2v15.8Z" class="g0_192"/>
<path fill-rule="evenodd" d="M189,161.4H427.4V146.3H189v15.1Z" class="g0_192"/>
<path fill-rule="evenodd" d="M189,176.4H427.4v-15H189v15Z" class="g0_192"/>
<path fill-rule="evenodd" d="M189,191.6H427.8V176.4H189v15.2Z" class="g0_192"/>
<path fill-rule="evenodd" d="M189,206.6H427.8v-15H189v15Z" class="g0_192"/>
<path fill-rule="evenodd" d="M189,221.7H427.4V206.6H189v15.1Z" class="g0_192"/>
<path fill-rule="evenodd" d="M189,236.7H427.4v-15H189v15Z" class="g0_192"/>
<path fill-rule="evenodd" d="M187.9,251.7H427.8v-15H187.9v15Z" class="g0_192"/>
<path fill-rule="evenodd" d="M187.9,266.8H427.8V251.7H187.9v15.1Z" class="g0_192"/>
<path fill-rule="evenodd" d="M188.3,281.8H427.8v-15H188.3v15Z" class="g0_192"/>
<path fill-rule="evenodd" d="M188.3,296.8H427.8v-15H188.3v15Z" class="g0_192"/>
<path fill-rule="evenodd" d="M188.3,311.9H427.4V296.8H188.3v15.1Z" class="g0_192"/>
<path fill-rule="evenodd" d="M188.3,326.9H427.4v-15H188.3v15Z" class="g0_192"/>
<path fill-rule="evenodd" d="M188.3,341.9H427v-15H188.3v15Z" class="g0_192"/>
<path fill-rule="evenodd" d="M188.3,357.2H427V342H188.3v15.2Z" class="g0_192"/>
<path fill-rule="evenodd" d="M187.9,372.2H427v-15H187.9v15Z" class="g0_192"/>
<path fill-rule="evenodd" d="M187.9,387.3H427V372.2H187.9v15.1Z" class="g0_192"/>
<path fill-rule="evenodd" d="M187.9,402.3H427v-15H187.9v15Z" class="g0_192"/>
<path fill-rule="evenodd" d="M188.3,417.3H427.4v-15H188.3v15Z" class="g0_192"/>
<path fill-rule="evenodd" d="M448.3,161.7H688.2v-15H448.3v15Z" class="g0_192"/>
<path fill-rule="evenodd" d="M448.3,176.9H688.2V161.7H448.3v15.2Z" class="g0_192"/>
<path fill-rule="evenodd" d="M448,192.3H688.6v-15H448v15Z" class="g0_192"/>
<path fill-rule="evenodd" d="M448,207.4H688.6V192.3H448v15.1Z" class="g0_192"/>
<path fill-rule="evenodd" d="M448.3,222.4H688.6v-15H448.3v15Z" class="g0_192"/>
<path fill-rule="evenodd" d="M448.3,237.4H688.6v-15H448.3v15Z" class="g0_192"/>
<path fill-rule="evenodd" d="M448.3,252.5H688.6V237.4H448.3v15.1Z" class="g0_192"/>
<path fill-rule="evenodd" d="M448.3,267.5H688.2v-15H448.3v15Z" class="g0_192"/>
<path fill-rule="evenodd" d="M448.3,282.5H688.2v-15H448.3v15Z" class="g0_192"/>
<path fill-rule="evenodd" d="M448.3,297.6H688.2V282.5H448.3v15.1Z" class="g0_192"/>
<path fill-rule="evenodd" d="M448,312.6H688.6v-15H448v15Z" class="g0_192"/>
<path fill-rule="evenodd" d="M448,327.8H688.6V312.6H448v15.2Z" class="g0_192"/>
<path fill-rule="evenodd" d="M448,342.9H688.6V327.8H448v15.1Z" class="g0_192"/>
<path fill-rule="evenodd" d="M448,357.9H687.8v-15H448v15Z" class="g0_192"/>
<path fill-rule="evenodd" d="M448,373H687.8V357.9H448V373Z" class="g0_192"/>
<path fill-rule="evenodd" d="M448,388H687.8V373H448v15Z" class="g0_192"/>
<path fill-rule="evenodd" d="M466.3,403H688.6V388H466.3v15Z" class="g0_192"/>
<path fill-rule="evenodd" d="M410.2,477.8H688.6V453.6H410.2v24.2Z" class="g0_192"/>
<path fill-rule="evenodd" d="M186.8,514.9H426.3V500.6H186.8v14.3Z" class="g0_192"/>
<path fill-rule="evenodd" d="M186.8,529.2H426.3V514.9H186.8v14.3Z" class="g0_192"/>
<path fill-rule="evenodd" d="M186.8,543.5H426.3V529.2H186.8v14.3Z" class="g0_192"/>
<path fill-rule="evenodd" d="M186.8,557.8H426.3V543.5H186.8v14.3Z" class="g0_192"/>
<path fill-rule="evenodd" d="M186.8,572.1H426.3V557.8H186.8v14.3Z" class="g0_192"/>
<path fill-rule="evenodd" d="M187.2,586.4H425.9V572.1H187.2v14.3Z" class="g0_192"/>
<path fill-rule="evenodd" d="M187.2,600.5H425.9V586.4H187.2v14.1Z" class="g0_192"/>
<path fill-rule="evenodd" d="M186.5,615.2H426.3V600.9H186.5v14.3Z" class="g0_192"/>
<path fill-rule="evenodd" d="M186.5,629.5H426.3V615.2H186.5v14.3Z" class="g0_192"/>
<path fill-rule="evenodd" d="M186.5,643.8H426.3V629.5H186.5v14.3Z" class="g0_192"/>
<path fill-rule="evenodd" d="M186.5,658.1H426.3V643.8H186.5v14.3Z" class="g0_192"/>
<path fill-rule="evenodd" d="M186.1,672.4H425.6V658.1H186.1v14.3Z" class="g0_192"/>
<path fill-rule="evenodd" d="M186.1,686.7H425.6V672.4H186.1v14.3Z" class="g0_192"/>
<path fill-rule="evenodd" d="M186.1,701H426.3V686.7H186.1V701Z" class="g0_192"/>
<path fill-rule="evenodd" d="M186.1,715.3H426.3V701H186.1v14.3Z" class="g0_192"/>
<path fill-rule="evenodd" d="M186.1,729.6H426.3V715.3H186.1v14.3Z" class="g0_192"/>
<path fill-rule="evenodd" d="M186.1,743.9H425.6V729.6H186.1v14.3Z" class="g0_192"/>
<path fill-rule="evenodd" d="M186.1,758.2H425.6V743.9H186.1v14.3Z" class="g0_192"/>
<path fill-rule="evenodd" d="M186.1,772.5H425.6V758.2H186.1v14.3Z" class="g0_192"/>
<path fill-rule="evenodd" d="M186.1,786.6H426.3V772.5H186.1v14.1Z" class="g0_192"/>
<path fill-rule="evenodd" d="M186.1,800.9H426.3V786.6H186.1v14.3Z" class="g0_192"/>
<path fill-rule="evenodd" d="M186.1,815.2H426.3V800.9H186.1v14.3Z" class="g0_192"/>
<path fill-rule="evenodd" d="M186.1,829.5H426.3V815.2H186.1v14.3Z" class="g0_192"/>
<path fill-rule="evenodd" d="M186.1,844.2H424.8V829.9H186.1v14.3Z" class="g0_192"/>
<path fill-rule="evenodd" d="M186.1,858.5H424.8V844.2H186.1v14.3Z" class="g0_192"/>
<path fill-rule="evenodd" d="M186.1,872.8H424.8V858.5H186.1v14.3Z" class="g0_192"/>
<path fill-rule="evenodd" d="M187.6,887.9H426.3V872.8H187.6v15.1Z" class="g0_192"/>
<path fill-rule="evenodd" d="M447.6,514.9H687.1V499.8H447.6v15.1Z" class="g0_192"/>
<path fill-rule="evenodd" d="M447.6,529.9H687.1v-15H447.6v15Z" class="g0_192"/>
<path fill-rule="evenodd" d="M447.6,544.9H687.1v-15H447.6v15Z" class="g0_192"/>
<path fill-rule="evenodd" d="M447.6,560H687.1V544.9H447.6V560Z" class="g0_192"/>
<path fill-rule="evenodd" d="M447.2,575H686.7V560H447.2v15Z" class="g0_192"/>
<path fill-rule="evenodd" d="M447.2,590H686.7V575H447.2v15Z" class="g0_192"/>
<path fill-rule="evenodd" d="M447.2,605.1H686.7V590H447.2v15.1Z" class="g0_192"/>
<path fill-rule="evenodd" d="M447.2,620.3H686.7V605.1H447.2v15.2Z" class="g0_192"/>
<path fill-rule="evenodd" d="M447.2,635.4H686.7V620.3H447.2v15.1Z" class="g0_192"/>
<path fill-rule="evenodd" d="M447.2,650.4H686.7v-15H447.2v15Z" class="g0_192"/>
<path fill-rule="evenodd" d="M446.9,665.4H686.7v-15H446.9v15Z" class="g0_192"/>
<path fill-rule="evenodd" d="M446.9,680.5H686.7V665.4H446.9v15.1Z" class="g0_192"/>
<path fill-rule="evenodd" d="M446.9,695.5H686.7v-15H446.9v15Z" class="g0_192"/>
<path fill-rule="evenodd" d="M446.9,710.5H686.7v-15H446.9v15Z" class="g0_192"/>
<path fill-rule="evenodd" d="M446.9,725.6H686.7V710.5H446.9v15.1Z" class="g0_192"/>
<path fill-rule="evenodd" d="M446.9,740.6H686.7v-15H446.9v15Z" class="g0_192"/>
<path fill-rule="evenodd" d="M446.9,755.6H686v-15H446.9v15Z" class="g0_192"/>
<path fill-rule="evenodd" d="M446.9,770.7H686V755.6H446.9v15.1Z" class="g0_192"/>
<path fill-rule="evenodd" d="M446.9,785.7H686v-15H446.9v15Z" class="g0_192"/>
<path fill-rule="evenodd" d="M446.5,800.9H686V785.7H446.5v15.2Z" class="g0_192"/>
<path fill-rule="evenodd" d="M446.5,815.9H686v-15H446.5v15Z" class="g0_192"/>
<path fill-rule="evenodd" d="M446.5,831H686V815.9H446.5V831Z" class="g0_192"/>
<path fill-rule="evenodd" d="M465.2,846.1H687.1V831H465.2v15.1Z" class="g0_192"/>
<path fill-rule="evenodd" d="M446.1,861.1H686v-15H446.1v15Z" class="g0_192"/>
<path fill-rule="evenodd" d="M446.1,876.1H686v-15H446.1v15Z" class="g0_192"/>
<path fill-rule="evenodd" d="M446.1,891.2H686V876.1H446.1v15.1Z" class="g0_192"/>
<path fill-rule="evenodd" d="M422.3,920.9H688.6V903.3H422.3v17.6Z" class="g0_192"/>
<path d="M436.9,146V404.1M435,499.4V913.3" class="g1_192"/>
</svg>