<?xml version="1.0" encoding="UTF-8" standalone="no"?>
<!DOCTYPE svg PUBLIC "-//W3C//DTD SVG 1.1//EN"
"http://www.w3.org/Graphics/SVG/1.1/DTD/svg11.dtd">
<svg viewBox="0 0 909 1285" version="1.1" xmlns="http://www.w3.org/2000/svg" xmlns:xlink="http://www.w3.org/1999/xlink">
<defs>
<style type="text/css"><![CDATA[
.g0_292{
fill: #FFFFFF;
}
.g1_292{
fill: none;
stroke: #000000;
stroke-width: 2.902;
stroke-linecap: butt;
stroke-linejoin: round;
}
.g2_292{
fill: none;
stroke: #000000;
stroke-width: 0.381;
stroke-linecap: butt;
stroke-linejoin: round;
}
]]></style>
</defs>
<path fill-rule="evenodd" d="M619.6,125.8H679V110H619.6v15.8Z" class="g0_292"/>
<path fill-rule="evenodd" d="M177.3,162.3h238V147.4h-238v14.9Z" class="g0_292"/>
<path fill-rule="evenodd" d="M177.3,176.9h238V162.3h-238v14.6Z" class="g0_292"/>
<path fill-rule="evenodd" d="M195.6,191.6H415.7V176.9H195.6v14.7Z" class="g0_292"/>
<path fill-rule="evenodd" d="M176.9,206.6H415.7V192H176.9v14.6Z" class="g0_292"/>
<path fill-rule="evenodd" d="M176.9,221.3H415.7V206.6H176.9v14.7Z" class="g0_292"/>
<path fill-rule="evenodd" d="M176.9,236H415.7V221.3H176.9V236Z" class="g0_292"/>
<path fill-rule="evenodd" d="M176.9,250.6H415.7V236H176.9v14.6Z" class="g0_292"/>
<path fill-rule="evenodd" d="M176.9,265.3H415.7V250.6H176.9v14.7Z" class="g0_292"/>
<path fill-rule="evenodd" d="M176.9,280H415.7V265.3H176.9V280Z" class="g0_292"/>
<path fill-rule="evenodd" d="M176.9,294.6H415.7V280H176.9v14.6Z" class="g0_292"/>
<path fill-rule="evenodd" d="M176.9,309.3H415.7V294.6H176.9v14.7Z" class="g0_292"/>
<path fill-rule="evenodd" d="M176.9,324H415.7V309.3H176.9V324Z" class="g0_292"/>
<path fill-rule="evenodd" d="M176.9,338.6H415.7V324H176.9v14.6Z" class="g0_292"/>
<path fill-rule="evenodd" d="M177.3,353.4h238V338.7h-238v14.7Z" class="g0_292"/>
<path fill-rule="evenodd" d="M177.3,368h238V353.4h-238V368Z" class="g0_292"/>
<path fill-rule="evenodd" d="M176.9,382.7H415.7V368H176.9v14.7Z" class="g0_292"/>
<path fill-rule="evenodd" d="M176.9,397.4H415.7V382.7H176.9v14.7Z" class="g0_292"/>
<path fill-rule="evenodd" d="M176.9,412.4H415.7v-15H176.9v15Z" class="g0_292"/>
<path fill-rule="evenodd" d="M176.9,427.1H415.7V412.4H176.9v14.7Z" class="g0_292"/>
<path fill-rule="evenodd" d="M176.9,441.7H415.7V427.1H176.9v14.6Z" class="g0_292"/>
<path fill-rule="evenodd" d="M176.9,456.4H415.7V441.7H176.9v14.7Z" class="g0_292"/>
<path fill-rule="evenodd" d="M176.9,471.1H415.3V456.4H176.9v14.7Z" class="g0_292"/>
<path fill-rule="evenodd" d="M176.9,485.7H415.3V471.1H176.9v14.6Z" class="g0_292"/>
<path fill-rule="evenodd" d="M176.9,500.8h238V486.1h-238v14.7Z" class="g0_292"/>
<path fill-rule="evenodd" d="M176.9,515.4h238V500.8h-238v14.6Z" class="g0_292"/>
<path fill-rule="evenodd" d="M176.2,530.1H414.9V515.4H176.2v14.7Z" class="g0_292"/>
<path fill-rule="evenodd" d="M176.2,544.8H414.9V530.1H176.2v14.7Z" class="g0_292"/>
<path fill-rule="evenodd" d="M176.2,559.4H414.9V544.8H176.2v14.6Z" class="g0_292"/>
<path fill-rule="evenodd" d="M176.2,574.1H414.9V559.4H176.2v14.7Z" class="g0_292"/>
<path fill-rule="evenodd" d="M176.2,589.1H414.9v-15H176.2v15Z" class="g0_292"/>
<path fill-rule="evenodd" d="M176.2,603.8H414.9V589.1H176.2v14.7Z" class="g0_292"/>
<path fill-rule="evenodd" d="M176.2,618.5H414.9V603.8H176.2v14.7Z" class="g0_292"/>
<path fill-rule="evenodd" d="M176.2,633.2H414.9V618.5H176.2v14.7Z" class="g0_292"/>
<path fill-rule="evenodd" d="M176.2,647.8H414.9V633.2H176.2v14.6Z" class="g0_292"/>
<path fill-rule="evenodd" d="M176.2,662.5H414.9V647.8H176.2v14.7Z" class="g0_292"/>
<path fill-rule="evenodd" d="M176.2,677.2H414.9V662.5H176.2v14.7Z" class="g0_292"/>
<path fill-rule="evenodd" d="M176.2,691.8H414.9V677.2H176.2v14.6Z" class="g0_292"/>
<path fill-rule="evenodd" d="M176.6,706.9H414.2V692.2H176.6v14.7Z" class="g0_292"/>
<path fill-rule="evenodd" d="M176.6,721.5H414.2V706.9H176.6v14.6Z" class="g0_292"/>
<path fill-rule="evenodd" d="M176.2,736.6h238V721.9h-238v14.7Z" class="g0_292"/>
<path fill-rule="evenodd" d="M176.2,751.2h238V736.6h-238v14.6Z" class="g0_292"/>
<path fill-rule="evenodd" d="M175.8,765.9H414.2V751.2H175.8v14.7Z" class="g0_292"/>
<path fill-rule="evenodd" d="M175.8,780.6H414.2V765.9H175.8v14.7Z" class="g0_292"/>
<path fill-rule="evenodd" d="M175.8,795.2H414.2V780.6H175.8v14.6Z" class="g0_292"/>
<path fill-rule="evenodd" d="M176.2,809.9H414.9V795.2H176.2v14.7Z" class="g0_292"/>
<path fill-rule="evenodd" d="M176.2,824.6H414.9V809.9H176.2v14.7Z" class="g0_292"/>
<path fill-rule="evenodd" d="M176.2,839.3H414.9V824.6H176.2v14.7Z" class="g0_292"/>
<path fill-rule="evenodd" d="M176.2,853.9H414.9V839.3H176.2v14.6Z" class="g0_292"/>
<path fill-rule="evenodd" d="M175.8,868.6H414.2V853.9H175.8v14.7Z" class="g0_292"/>
<path fill-rule="evenodd" d="M175.8,883.3H414.2V868.6H175.8v14.7Z" class="g0_292"/>
<path fill-rule="evenodd" d="M175.8,897.9H414.2V883.3H175.8v14.6Z" class="g0_292"/>
<path fill-rule="evenodd" d="M176.9,912.6H415.3V897.9H176.9v14.7Z" class="g0_292"/>
<path fill-rule="evenodd" d="M435.9,161.4H675.4V146.7H435.9v14.7Z" class="g0_292"/>
<path fill-rule="evenodd" d="M435.9,176H675.4V161.4H435.9V176Z" class="g0_292"/>
<path fill-rule="evenodd" d="M435.9,190.7H675.4V176H435.9v14.7Z" class="g0_292"/>
<path fill-rule="evenodd" d="M435.9,205.4H675.4V190.7H435.9v14.7Z" class="g0_292"/>
<path fill-rule="evenodd" d="M435.9,220H675.4V205.4H435.9V220Z" class="g0_292"/>
<path fill-rule="evenodd" d="M435.9,234.7H675.7V220H435.9v14.7Z" class="g0_292"/>
<path fill-rule="evenodd" d="M435.9,249.4H675.7V234.7H435.9v14.7Z" class="g0_292"/>
<path fill-rule="evenodd" d="M435.9,264H675.7V249.4H435.9V264Z" class="g0_292"/>
<path fill-rule="evenodd" d="M435.9,279.1H675V264.4H435.9v14.7Z" class="g0_292"/>
<path fill-rule="evenodd" d="M435.9,293.9H675V279.1H435.9v14.8Z" class="g0_292"/>
<path fill-rule="evenodd" d="M435.1,308.6H674.6V293.9H435.1v14.7Z" class="g0_292"/>
<path fill-rule="evenodd" d="M435.1,323.2H674.6V308.6H435.1v14.6Z" class="g0_292"/>
<path fill-rule="evenodd" d="M435.9,337.9H674.6V323.2H435.9v14.7Z" class="g0_292"/>
<path fill-rule="evenodd" d="M435.9,352.6H674.6V337.9H435.9v14.7Z" class="g0_292"/>
<path fill-rule="evenodd" d="M435.5,367.3H675V352.6H435.5v14.7Z" class="g0_292"/>
<path fill-rule="evenodd" d="M435.5,382H675V367.3H435.5V382Z" class="g0_292"/>
<path fill-rule="evenodd" d="M435.5,396.6H675V382H435.5v14.6Z" class="g0_292"/>
<path fill-rule="evenodd" d="M454.2,411.3H675.7V396.6H454.2v14.7Z" class="g0_292"/>
<path fill-rule="evenodd" d="M435.9,426H674.6V411.3H435.9V426Z" class="g0_292"/>
<path fill-rule="evenodd" d="M435.9,440.6H674.6V426H435.9v14.6Z" class="g0_292"/>
<path fill-rule="evenodd" d="M435.9,455.3H674.6V440.6H435.9v14.7Z" class="g0_292"/>
<path fill-rule="evenodd" d="M435.5,470H675V455.3H435.5V470Z" class="g0_292"/>
<path fill-rule="evenodd" d="M435.5,484.6H675V470H435.5v14.6Z" class="g0_292"/>
<path fill-rule="evenodd" d="M435.1,499.3H674.6V484.6H435.1v14.7Z" class="g0_292"/>
<path fill-rule="evenodd" d="M435.1,514H674.6V499.3H435.1V514Z" class="g0_292"/>
<path fill-rule="evenodd" d="M435.1,528.6H674.6V514H435.1v14.6Z" class="g0_292"/>
<path fill-rule="evenodd" d="M435.1,543.3H674.3V528.6H435.1v14.7Z" class="g0_292"/>
<path fill-rule="evenodd" d="M435.1,558H674.3V543.3H435.1V558Z" class="g0_292"/>
<path fill-rule="evenodd" d="M435.1,572.6H674.3V558H435.1v14.6Z" class="g0_292"/>
<path fill-rule="evenodd" d="M435.1,587.3H674.3V572.6H435.1v14.7Z" class="g0_292"/>
<path fill-rule="evenodd" d="M435.1,602H674.3V587.3H435.1V602Z" class="g0_292"/>
<path fill-rule="evenodd" d="M453.1,616.7H675.7V602H453.1v14.7Z" class="g0_292"/>
<path fill-rule="evenodd" d="M434.8,631.3H674.6V616.7H434.8v14.6Z" class="g0_292"/>
<path fill-rule="evenodd" d="M434.8,646H674.6V631.3H434.8V646Z" class="g0_292"/>
<path fill-rule="evenodd" d="M434.8,660.7H674.6V646H434.8v14.7Z" class="g0_292"/>
<path fill-rule="evenodd" d="M434.8,675.3H674.6V660.7H434.8v14.6Z" class="g0_292"/>
<path fill-rule="evenodd" d="M453.1,690H675.7V675.3H453.1V690Z" class="g0_292"/>
<path fill-rule="evenodd" d="M434.8,704.7H674.3V690H434.8v14.7Z" class="g0_292"/>
<path fill-rule="evenodd" d="M434.8,719.3H674.3V704.7H434.8v14.6Z" class="g0_292"/>
<path fill-rule="evenodd" d="M434.8,734H674.3V719.3H434.8V734Z" class="g0_292"/>
<path fill-rule="evenodd" d="M434.8,748.7H674.3V734H434.8v14.7Z" class="g0_292"/>
<path fill-rule="evenodd" d="M434.8,763.3H674.3V748.7H434.8v14.6Z" class="g0_292"/>
<path fill-rule="evenodd" d="M434.8,778H674.6V763.3H434.8V778Z" class="g0_292"/>
<path fill-rule="evenodd" d="M434.8,792.7H674.6V778H434.8v14.7Z" class="g0_292"/>
<path fill-rule="evenodd" d="M434.8,807.3H674.6V792.7H434.8v14.6Z" class="g0_292"/>
<path fill-rule="evenodd" d="M434.8,822H674.6V807.3H434.8V822Z" class="g0_292"/>
<path fill-rule="evenodd" d="M434.8,836.7H674.6V822H434.8v14.7Z" class="g0_292"/>
<path fill-rule="evenodd" d="M434.8,851.4H674.3V836.7H434.8v14.7Z" class="g0_292"/>
<path fill-rule="evenodd" d="M434.8,866H674.3V851.4H434.8V866Z" class="g0_292"/>
<path fill-rule="evenodd" d="M435.1,880.7H674.6V866H435.1v14.7Z" class="g0_292"/>
<path fill-rule="evenodd" d="M435.1,895.4H674.6V880.7H435.1v14.7Z" class="g0_292"/>
<path fill-rule="evenodd" d="M411.7,930.2H679V910.8H411.7v19.4Z" class="g0_292"/>
<path d="M157.9,85.5V300.7" class="g1_292"/>
<path d="M424.1,146.4V914.9" class="g2_292"/>
</svg>