<?xml version="1.0" encoding="UTF-8" standalone="no"?>
<!DOCTYPE svg PUBLIC "-//W3C//DTD SVG 1.1//EN"
"http://www.w3.org/Graphics/SVG/1.1/DTD/svg11.dtd">
<svg viewBox="0 0 909 1285" version="1.1" xmlns="http://www.w3.org/2000/svg" xmlns:xlink="http://www.w3.org/1999/xlink">
<defs>
<style type="text/css"><![CDATA[
.g0_123{
fill: #FFFFFF;
}
.g1_123{
fill: none;
stroke: #000000;
stroke-width: 1.069;
stroke-linecap: butt;
stroke-linejoin: round;
}
.g2_123{
fill: none;
stroke: #000000;
stroke-width: 0.381;
stroke-linecap: butt;
stroke-linejoin: round;
}
]]></style>
</defs>
<path fill-rule="evenodd" d="M254.9,125.8H755.5V110H254.9v15.8Z" class="g0_123"/>
<path fill-rule="evenodd" d="M254.5,161.7H494.4v-15H254.5v15Z" class="g0_123"/>
<path fill-rule="evenodd" d="M254.5,176.9H494.4V161.7H254.5v15.2Z" class="g0_123"/>
<path fill-rule="evenodd" d="M254.5,192H494.4V176.9H254.5V192Z" class="g0_123"/>
<path fill-rule="evenodd" d="M254.5,207H494.4V192H254.5v15Z" class="g0_123"/>
<path fill-rule="evenodd" d="M254.5,222H494.4V207H254.5v15Z" class="g0_123"/>
<path fill-rule="evenodd" d="M254.5,237.1H494.4V222H254.5v15.1Z" class="g0_123"/>
<path fill-rule="evenodd" d="M254.5,252.1H494.4v-15H254.5v15Z" class="g0_123"/>
<path fill-rule="evenodd" d="M254.1,267.5H494v-15H254.1v15Z" class="g0_123"/>
<path fill-rule="evenodd" d="M254.1,282.5H494v-15H254.1v15Z" class="g0_123"/>
<path fill-rule="evenodd" d="M254.1,297.6H494.4V282.5H254.1v15.1Z" class="g0_123"/>
<path fill-rule="evenodd" d="M254.1,312.6H494.4v-15H254.1v15Z" class="g0_123"/>
<path fill-rule="evenodd" d="M253.8,327.8H493.6V312.6H253.8v15.2Z" class="g0_123"/>
<path fill-rule="evenodd" d="M253.8,342.9H493.6V327.8H253.8v15.1Z" class="g0_123"/>
<path fill-rule="evenodd" d="M253.8,357.9H494v-15H253.8v15Z" class="g0_123"/>
<path fill-rule="evenodd" d="M253.8,373H494V357.9H253.8V373Z" class="g0_123"/>
<path fill-rule="evenodd" d="M253.8,388H494V373H253.8v15Z" class="g0_123"/>
<path fill-rule="evenodd" d="M253.8,403H494V388H253.8v15Z" class="g0_123"/>
<path fill-rule="evenodd" d="M253,418.1H493.6V403H253v15.1Z" class="g0_123"/>
<path fill-rule="evenodd" d="M253,433.1H493.6v-15H253v15Z" class="g0_123"/>
<path fill-rule="evenodd" d="M253,448.1H493.6v-15H253v15Z" class="g0_123"/>
<path fill-rule="evenodd" d="M253,463.2H493.6V448.1H253v15.1Z" class="g0_123"/>
<path fill-rule="evenodd" d="M253,478.2H493.6v-15H253v15Z" class="g0_123"/>
<path fill-rule="evenodd" d="M253,493.2H493.6v-15H253v15Z" class="g0_123"/>
<path fill-rule="evenodd" d="M253,508.5H493.6V493.2H253v15.3Z" class="g0_123"/>
<path fill-rule="evenodd" d="M253,523.5H493.6v-15H253v15Z" class="g0_123"/>
<path fill-rule="evenodd" d="M253,538.5H493.6v-15H253v15Z" class="g0_123"/>
<path fill-rule="evenodd" d="M253,553.6H493.6V538.5H253v15.1Z" class="g0_123"/>
<path fill-rule="evenodd" d="M271.8,568.6H494.4v-15H271.8v15Z" class="g0_123"/>
<path fill-rule="evenodd" d="M253.4,583.6H493.3v-15H253.4v15Z" class="g0_123"/>
<path fill-rule="evenodd" d="M253.4,598.7H493.3V583.6H253.4v15.1Z" class="g0_123"/>
<path fill-rule="evenodd" d="M251.9,613.7H492.5v-15H251.9v15Z" class="g0_123"/>
<path fill-rule="evenodd" d="M251.9,628.8H492.5V613.7H251.9v15.1Z" class="g0_123"/>
<path fill-rule="evenodd" d="M251.9,643.8H492.5v-15H251.9v15Z" class="g0_123"/>
<path fill-rule="evenodd" d="M252.3,658.8H492.9v-15H252.3v15Z" class="g0_123"/>
<path fill-rule="evenodd" d="M252.3,673.9H492.9V658.8H252.3v15.1Z" class="g0_123"/>
<path fill-rule="evenodd" d="M271.4,689.1h223V673.9h-223v15.2Z" class="g0_123"/>
<path fill-rule="evenodd" d="M252.7,704.5H492.9V689.4H252.7v15.1Z" class="g0_123"/>
<path fill-rule="evenodd" d="M252.7,719.5H492.9v-15H252.7v15Z" class="g0_123"/>
<path fill-rule="evenodd" d="M252.7,734.5H492.9v-15H252.7v15Z" class="g0_123"/>
<path fill-rule="evenodd" d="M271,749.6H494.4V734.5H271v15.1Z" class="g0_123"/>
<path fill-rule="evenodd" d="M251.9,764.6H492.5v-15H251.9v15Z" class="g0_123"/>
<path fill-rule="evenodd" d="M251.9,779.6H492.5v-15H251.9v15Z" class="g0_123"/>
<path fill-rule="evenodd" d="M251.9,794.7H492.5V779.6H251.9v15.1Z" class="g0_123"/>
<path fill-rule="evenodd" d="M251.9,809.7H492.5v-15H251.9v15Z" class="g0_123"/>
<path fill-rule="evenodd" d="M251.9,824.7H492.5v-15H251.9v15Z" class="g0_123"/>
<path fill-rule="evenodd" d="M251.9,839.8H492.5V824.7H251.9v15.1Z" class="g0_123"/>
<path fill-rule="evenodd" d="M251.9,855H492.5V839.8H251.9V855Z" class="g0_123"/>
<path fill-rule="evenodd" d="M251.9,870.1H492.5V855H251.9v15.1Z" class="g0_123"/>
<path fill-rule="evenodd" d="M254.5,885.1H494.4v-15H254.5v15Z" class="g0_123"/>
<path fill-rule="evenodd" d="M515.3,162.3H755.5V147.1H515.3v15.2Z" class="g0_123"/>
<path fill-rule="evenodd" d="M515.3,177.3H755.5v-15H515.3v15Z" class="g0_123"/>
<path fill-rule="evenodd" d="M515.3,192.3H754.4v-15H515.3v15Z" class="g0_123"/>
<path fill-rule="evenodd" d="M515.3,207.4H754.4V192.3H515.3v15.1Z" class="g0_123"/>
<path fill-rule="evenodd" d="M513.8,222.4H755.5v-15H513.8v15Z" class="g0_123"/>
<path fill-rule="evenodd" d="M513.8,237.4H755.5v-15H513.8v15Z" class="g0_123"/>
<path fill-rule="evenodd" d="M513.8,252.5H755.5V237.4H513.8v15.1Z" class="g0_123"/>
<path fill-rule="evenodd" d="M513.8,267.5H755.5v-15H513.8v15Z" class="g0_123"/>
<path fill-rule="evenodd" d="M514.5,282.9H755.1v-15H514.5v15Z" class="g0_123"/>
<path fill-rule="evenodd" d="M514.5,297.9H755.1v-15H514.5v15Z" class="g0_123"/>
<path fill-rule="evenodd" d="M514.5,313.2H755.1V297.9H514.5v15.3Z" class="g0_123"/>
<path fill-rule="evenodd" d="M514.5,328.2H755.1v-15H514.5v15Z" class="g0_123"/>
<path fill-rule="evenodd" d="M514.5,343.2H755.1v-15H514.5v15Z" class="g0_123"/>
<path fill-rule="evenodd" d="M514.2,358.3H754.4V343.2H514.2v15.1Z" class="g0_123"/>
<path fill-rule="evenodd" d="M514.2,373.3H754.4v-15H514.2v15Z" class="g0_123"/>
<path fill-rule="evenodd" d="M514.2,388.4H754.4V373.3H514.2v15.1Z" class="g0_123"/>
<path fill-rule="evenodd" d="M514.2,403.4H754.4v-15H514.2v15Z" class="g0_123"/>
<path fill-rule="evenodd" d="M514.2,418.4H754.4v-15H514.2v15Z" class="g0_123"/>
<path fill-rule="evenodd" d="M514.2,433.5H754.4V418.4H514.2v15.1Z" class="g0_123"/>
<path fill-rule="evenodd" d="M514.2,448.5H754.4v-15H514.2v15Z" class="g0_123"/>
<path fill-rule="evenodd" d="M513.8,463.5H754v-15H513.8v15Z" class="g0_123"/>
<path fill-rule="evenodd" d="M513.8,478.6H754V463.5H513.8v15.1Z" class="g0_123"/>
<path fill-rule="evenodd" d="M514.2,493.8H753.3V478.6H514.2v15.2Z" class="g0_123"/>
<path fill-rule="evenodd" d="M514.2,508.8H753.3v-15H514.2v15Z" class="g0_123"/>
<path fill-rule="evenodd" d="M513.4,523.9H753.6V508.8H513.4v15.1Z" class="g0_123"/>
<path fill-rule="evenodd" d="M513.4,538.9H753.6v-15H513.4v15Z" class="g0_123"/>
<path fill-rule="evenodd" d="M513.4,553.9H753.6v-15H513.4v15Z" class="g0_123"/>
<path fill-rule="evenodd" d="M513.4,569H753.3V553.9H513.4V569Z" class="g0_123"/>
<path fill-rule="evenodd" d="M513.4,584H753.3V569H513.4v15Z" class="g0_123"/>
<path fill-rule="evenodd" d="M531.8,599.4H755.5v-15H531.8v15Z" class="g0_123"/>
<path fill-rule="evenodd" d="M513.1,614.5H753.6V599.4H513.1v15.1Z" class="g0_123"/>
<path fill-rule="evenodd" d="M513.1,629.5H753.6v-15H513.1v15Z" class="g0_123"/>
<path fill-rule="evenodd" d="M513.1,644.5H753.6v-15H513.1v15Z" class="g0_123"/>
<path fill-rule="evenodd" d="M513.1,659.7H753.6V644.5H513.1v15.2Z" class="g0_123"/>
<path fill-rule="evenodd" d="M513.1,674.8H753.6V659.7H513.1v15.1Z" class="g0_123"/>
<path fill-rule="evenodd" d="M513.1,689.8H753.6v-15H513.1v15Z" class="g0_123"/>
<path fill-rule="evenodd" d="M513.1,704.8H753.6v-15H513.1v15Z" class="g0_123"/>
<path fill-rule="evenodd" d="M512.7,720.2H755.5v-15H512.7v15Z" class="g0_123"/>
<path fill-rule="evenodd" d="M512.7,735.3H755.5V720.2H512.7v15.1Z" class="g0_123"/>
<path fill-rule="evenodd" d="M512.7,750.3H755.5v-15H512.7v15Z" class="g0_123"/>
<path fill-rule="evenodd" d="M512.7,765.3H755.5v-15H512.7v15Z" class="g0_123"/>
<path fill-rule="evenodd" d="M512.7,780.4H755.5V765.3H512.7v15.1Z" class="g0_123"/>
<path fill-rule="evenodd" d="M512.7,795.4H754v-15H512.7v15Z" class="g0_123"/>
<path fill-rule="evenodd" d="M512.7,810.4H754v-15H512.7v15Z" class="g0_123"/>
<path fill-rule="evenodd" d="M512.7,825.7H754V810.4H512.7v15.3Z" class="g0_123"/>
<path fill-rule="evenodd" d="M531.4,840.7H755.5v-15H531.4v15Z" class="g0_123"/>
<path fill-rule="evenodd" d="M513.1,855.8H752.9V840.7H513.1v15.1Z" class="g0_123"/>
<path fill-rule="evenodd" d="M513.1,870.8H752.9v-15H513.1v15Z" class="g0_123"/>
<path fill-rule="evenodd" d="M512.7,885.8H753.3v-15H512.7v15Z" class="g0_123"/>
<path fill-rule="evenodd" d="M512.7,900.9H753.3V885.8H512.7v15.1Z" class="g0_123"/>
<path d="M184.4,99.4V271.7" class="g1_123"/>
<path d="M188.1,722.4V922.6m7.3,-630.3V542.7m1.5,-253.3V864m.3,-155.2V774M502.6,148.2V916" class="g2_123"/>
</svg>