<?xml version="1.0" encoding="UTF-8" standalone="no"?>
<!DOCTYPE svg PUBLIC "-//W3C//DTD SVG 1.1//EN"
"http://www.w3.org/Graphics/SVG/1.1/DTD/svg11.dtd">
<svg viewBox="0 0 909 1285" version="1.1" xmlns="http://www.w3.org/2000/svg" xmlns:xlink="http://www.w3.org/1999/xlink">
<defs>
<style type="text/css"><![CDATA[
.g0_332{
fill: #FFFFFF;
}
.g1_332{
fill: none;
stroke: #000000;
stroke-width: 0.763;
stroke-linecap: butt;
stroke-linejoin: round;
}
]]></style>
</defs>
<path fill-rule="evenodd" d="M596.3,125.8H688V110H596.3v15.8Z" class="g0_332"/>
<path fill-rule="evenodd" d="M188.9,161.7H428.7V147.1H188.9v14.6Z" class="g0_332"/>
<path fill-rule="evenodd" d="M188.9,176.4H428.7V161.7H188.9v14.7Z" class="g0_332"/>
<path fill-rule="evenodd" d="M188.9,191.1H428.7V176.4H188.9v14.7Z" class="g0_332"/>
<path fill-rule="evenodd" d="M188.9,205.7H428.7V191.1H188.9v14.6Z" class="g0_332"/>
<path fill-rule="evenodd" d="M190,220.4H428.3V205.7H190v14.7Z" class="g0_332"/>
<path fill-rule="evenodd" d="M190,235.1H428.3V220.4H190v14.7Z" class="g0_332"/>
<path fill-rule="evenodd" d="M190,249.7H428.3V235.1H190v14.6Z" class="g0_332"/>
<path fill-rule="evenodd" d="M189.6,264.4H428.3V249.7H189.6v14.7Z" class="g0_332"/>
<path fill-rule="evenodd" d="M189.6,279.1H428.3V264.4H189.6v14.7Z" class="g0_332"/>
<path fill-rule="evenodd" d="M189.6,293.9H428.3V279.1H189.6v14.8Z" class="g0_332"/>
<path fill-rule="evenodd" d="M189.6,308.6H428.3V293.9H189.6v14.7Z" class="g0_332"/>
<path fill-rule="evenodd" d="M189.2,323.2H427.6V308.6H189.2v14.6Z" class="g0_332"/>
<path fill-rule="evenodd" d="M189.2,337.9H427.6V323.2H189.2v14.7Z" class="g0_332"/>
<path fill-rule="evenodd" d="M189.2,352.6H427.6V337.9H189.2v14.7Z" class="g0_332"/>
<path fill-rule="evenodd" d="M188.9,367.3H427.6V352.6H188.9v14.7Z" class="g0_332"/>
<path fill-rule="evenodd" d="M188.9,382H427.6V367.3H188.9V382Z" class="g0_332"/>
<path fill-rule="evenodd" d="M188.9,396.6H427.6V382H188.9v14.6Z" class="g0_332"/>
<path fill-rule="evenodd" d="M189.2,411.7H427.6V397H189.2v14.7Z" class="g0_332"/>
<path fill-rule="evenodd" d="M189.2,426.3H427.6V411.7H189.2v14.6Z" class="g0_332"/>
<path fill-rule="evenodd" d="M188.9,441.4H428V426.7H188.9v14.7Z" class="g0_332"/>
<path fill-rule="evenodd" d="M188.9,456H428V441.4H188.9V456Z" class="g0_332"/>
<path fill-rule="evenodd" d="M188.9,470.7H428V456H188.9v14.7Z" class="g0_332"/>
<path fill-rule="evenodd" d="M188.9,485.4H428V470.7H188.9v14.7Z" class="g0_332"/>
<path fill-rule="evenodd" d="M188.9,500.4h238V485.7h-238v14.7Z" class="g0_332"/>
<path fill-rule="evenodd" d="M188.9,515.1h238V500.4h-238v14.7Z" class="g0_332"/>
<path fill-rule="evenodd" d="M188.9,529.7h238V515.1h-238v14.6Z" class="g0_332"/>
<path fill-rule="evenodd" d="M188.5,544.4H427.2V529.7H188.5v14.7Z" class="g0_332"/>
<path fill-rule="evenodd" d="M188.5,559.1H427.2V544.4H188.5v14.7Z" class="g0_332"/>
<path fill-rule="evenodd" d="M188.5,573.7H427.2V559.1H188.5v14.6Z" class="g0_332"/>
<path fill-rule="evenodd" d="M188.5,588.4H427.2V573.7H188.5v14.7Z" class="g0_332"/>
<path fill-rule="evenodd" d="M188.5,603.1H427.2V588.4H188.5v14.7Z" class="g0_332"/>
<path fill-rule="evenodd" d="M188.5,617.8H427.2V603.1H188.5v14.7Z" class="g0_332"/>
<path fill-rule="evenodd" d="M188.1,632.8H426.9V618.1H188.1v14.7Z" class="g0_332"/>
<path fill-rule="evenodd" d="M188.1,647.5H426.9V632.8H188.1v14.7Z" class="g0_332"/>
<path fill-rule="evenodd" d="M188.1,662.1H426.9V647.5H188.1v14.6Z" class="g0_332"/>
<path fill-rule="evenodd" d="M187.8,677.2H427.2V662.5H187.8v14.7Z" class="g0_332"/>
<path fill-rule="evenodd" d="M187.8,691.8H427.2V677.2H187.8v14.6Z" class="g0_332"/>
<path fill-rule="evenodd" d="M187.8,706.5H427.2V691.8H187.8v14.7Z" class="g0_332"/>
<path fill-rule="evenodd" d="M187.8,721.2H427.2V706.5H187.8v14.7Z" class="g0_332"/>
<path fill-rule="evenodd" d="M188.1,735.8H426.5V721.2H188.1v14.6Z" class="g0_332"/>
<path fill-rule="evenodd" d="M188.1,750.5H426.5V735.8H188.1v14.7Z" class="g0_332"/>
<path fill-rule="evenodd" d="M188.1,765.2H426.5V750.5H188.1v14.7Z" class="g0_332"/>
<path fill-rule="evenodd" d="M187.4,779.8H426.9V765.2H187.4v14.6Z" class="g0_332"/>
<path fill-rule="evenodd" d="M187.4,794.5H426.9V779.8H187.4v14.7Z" class="g0_332"/>
<path fill-rule="evenodd" d="M187.4,809.2H426.9V794.5H187.4v14.7Z" class="g0_332"/>
<path fill-rule="evenodd" d="M187,823.8H426.9V809.2H187v14.6Z" class="g0_332"/>
<path fill-rule="evenodd" d="M187,838.5H426.9V823.8H187v14.7Z" class="g0_332"/>
<path fill-rule="evenodd" d="M187,853.2H426.9V838.5H187v14.7Z" class="g0_332"/>
<path fill-rule="evenodd" d="M187,867.9H426.9V853.2H187v14.7Z" class="g0_332"/>
<path fill-rule="evenodd" d="M187,882.5H426.9V867.9H187v14.6Z" class="g0_332"/>
<path fill-rule="evenodd" d="M188.9,897.2H428.7V882.5H188.9v14.7Z" class="g0_332"/>
<path fill-rule="evenodd" d="M448.3,161.4H687.8V146.7H448.3v14.7Z" class="g0_332"/>
<path fill-rule="evenodd" d="M448.3,176H687.8V161.4H448.3V176Z" class="g0_332"/>
<path fill-rule="evenodd" d="M448.3,190.7H687.8V176H448.3v14.7Z" class="g0_332"/>
<path fill-rule="evenodd" d="M448.3,205.7H687.5V191.1H448.3v14.6Z" class="g0_332"/>
<path fill-rule="evenodd" d="M448.3,220.4H687.5V205.7H448.3v14.7Z" class="g0_332"/>
<path fill-rule="evenodd" d="M448.3,235.1H687.5V220.4H448.3v14.7Z" class="g0_332"/>
<path fill-rule="evenodd" d="M448,249.7H687.5V235.1H448v14.6Z" class="g0_332"/>
<path fill-rule="evenodd" d="M448,264.4H687.5V249.7H448v14.7Z" class="g0_332"/>
<path fill-rule="evenodd" d="M448,279.1H687.5V264.4H448v14.7Z" class="g0_332"/>
<path fill-rule="evenodd" d="M448,293.9H687.5V279.1H448v14.8Z" class="g0_332"/>
<path fill-rule="evenodd" d="M447.6,308.6H687.1V293.9H447.6v14.7Z" class="g0_332"/>
<path fill-rule="evenodd" d="M447.6,323.2H687.1V308.6H447.6v14.6Z" class="g0_332"/>
<path fill-rule="evenodd" d="M447.6,337.9H687.1V323.2H447.6v14.7Z" class="g0_332"/>
<path fill-rule="evenodd" d="M447.6,352.6H687.1V337.9H447.6v14.7Z" class="g0_332"/>
<path fill-rule="evenodd" d="M447.6,367.3H687.1V352.6H447.6v14.7Z" class="g0_332"/>
<path fill-rule="evenodd" d="M447.6,382H687.1V367.3H447.6V382Z" class="g0_332"/>
<path fill-rule="evenodd" d="M447.6,396.6H687.1V382H447.6v14.6Z" class="g0_332"/>
<path fill-rule="evenodd" d="M447.2,411.7H687.8V397H447.2v14.7Z" class="g0_332"/>
<path fill-rule="evenodd" d="M447.2,426.3H687.8V411.7H447.2v14.6Z" class="g0_332"/>
<path fill-rule="evenodd" d="M447.2,441H687.8V426.3H447.2V441Z" class="g0_332"/>
<path fill-rule="evenodd" d="M447.2,455.7H687.8V441H447.2v14.7Z" class="g0_332"/>
<path fill-rule="evenodd" d="M447.2,470.3H687.8V455.7H447.2v14.6Z" class="g0_332"/>
<path fill-rule="evenodd" d="M447.2,485H687.8V470.3H447.2V485Z" class="g0_332"/>
<path fill-rule="evenodd" d="M447.6,500H687.1V485.4H447.6V500Z" class="g0_332"/>
<path fill-rule="evenodd" d="M447.6,514.7H687.1V500H447.6v14.7Z" class="g0_332"/>
<path fill-rule="evenodd" d="M447.6,529.4H687.1V514.7H447.6v14.7Z" class="g0_332"/>
<path fill-rule="evenodd" d="M447.6,544H687.1V529.4H447.6V544Z" class="g0_332"/>
<path fill-rule="evenodd" d="M447.6,558.7h161V544h-161v14.7Z" class="g0_332"/>
<path fill-rule="evenodd" d="M447.6,573.4h161V558.7h-161v14.7Z" class="g0_332"/>
<path fill-rule="evenodd" d="M447.2,588.4H687.8V573.7H447.2v14.7Z" class="g0_332"/>
<path fill-rule="evenodd" d="M447.2,603.1H687.8V588.4H447.2v14.7Z" class="g0_332"/>
<path fill-rule="evenodd" d="M447.2,617.8H687.8V603.1H447.2v14.7Z" class="g0_332"/>
<path fill-rule="evenodd" d="M447.2,632.4H687.8V617.8H447.2v14.6Z" class="g0_332"/>
<path fill-rule="evenodd" d="M447.2,647.1H687.8V632.4H447.2v14.7Z" class="g0_332"/>
<path fill-rule="evenodd" d="M447.2,661.8H687.8V647.1H447.2v14.7Z" class="g0_332"/>
<path fill-rule="evenodd" d="M447.2,676.8H686V662.1H447.2v14.7Z" class="g0_332"/>
<path fill-rule="evenodd" d="M447.2,691.5H686V676.8H447.2v14.7Z" class="g0_332"/>
<path fill-rule="evenodd" d="M447.2,706.1H635V691.5H447.2v14.6Z" class="g0_332"/>
<path fill-rule="evenodd" d="M447.2,720.8H635V706.1H447.2v14.7Z" class="g0_332"/>
<path fill-rule="evenodd" d="M446.9,735.5H686.4V720.8H446.9v14.7Z" class="g0_332"/>
<path fill-rule="evenodd" d="M446.9,750.1H686.4V735.5H446.9v14.6Z" class="g0_332"/>
<path fill-rule="evenodd" d="M446.9,764.8H686.4V750.1H446.9v14.7Z" class="g0_332"/>
<path fill-rule="evenodd" d="M446.9,779.5H686.4V764.8H446.9v14.7Z" class="g0_332"/>
<path fill-rule="evenodd" d="M446.9,794.1H608.6V779.5H446.9v14.6Z" class="g0_332"/>
<path fill-rule="evenodd" d="M446.9,808.8H608.6V794.1H446.9v14.7Z" class="g0_332"/>
<path fill-rule="evenodd" d="M446.5,823.5H686.4V808.8H446.5v14.7Z" class="g0_332"/>
<path fill-rule="evenodd" d="M446.5,838.2H686.4V823.5H446.5v14.7Z" class="g0_332"/>
<path fill-rule="evenodd" d="M446.5,852.8H686.4V838.2H446.5v14.6Z" class="g0_332"/>
<path fill-rule="evenodd" d="M446.5,867.9H686.4V852.8H446.5v15.1Z" class="g0_332"/>
<path fill-rule="evenodd" d="M446.5,882.5H686.4V867.9H446.5v14.6Z" class="g0_332"/>
<path fill-rule="evenodd" d="M188.9,910.2h59.4V894.5H188.9v15.7Z" class="g0_332"/>
<path fill-rule="evenodd" d="M188.9,927.8h59.4V910.2H188.9v17.6Z" class="g0_332"/>
<path fill-rule="evenodd" d="M423.2,914.8h59.4V897.4H423.2v17.4Z" class="g0_332"/>
<path d="M435.6,146.4V914.5" class="g1_332"/>
</svg>