<?xml version="1.0" encoding="UTF-8" standalone="no"?>
<!DOCTYPE svg PUBLIC "-//W3C//DTD SVG 1.1//EN"
"http://www.w3.org/Graphics/SVG/1.1/DTD/svg11.dtd">
<svg viewBox="0 0 909 1285" version="1.1" xmlns="http://www.w3.org/2000/svg" xmlns:xlink="http://www.w3.org/1999/xlink">
<defs>
<style type="text/css"><![CDATA[
.g0_114{
fill: #FFFFFF;
}
.g1_114{
fill: none;
stroke: #000000;
stroke-width: 0.381;
stroke-linecap: butt;
stroke-linejoin: round;
}
]]></style>
</defs>
<path fill-rule="evenodd" d="M169.6,127.6H688.2V110H169.6v17.6Z" class="g0_114"/>
<path fill-rule="evenodd" d="M169.6,143.4H688.2V127.6H169.6v15.8Z" class="g0_114"/>
<path fill-rule="evenodd" d="M187.9,179.7H427V165H187.9v14.7Z" class="g0_114"/>
<path fill-rule="evenodd" d="M187.9,194.4H427V179.7H187.9v14.7Z" class="g0_114"/>
<path fill-rule="evenodd" d="M187.9,209H426.7V194.4H187.9V209Z" class="g0_114"/>
<path fill-rule="evenodd" d="M187.9,223.7H426.7V209H187.9v14.7Z" class="g0_114"/>
<path fill-rule="evenodd" d="M187.9,238.4H426.7V223.7H187.9v14.7Z" class="g0_114"/>
<path fill-rule="evenodd" d="M187.6,253.4H427.4V238.7H187.6v14.7Z" class="g0_114"/>
<path fill-rule="evenodd" d="M187.6,268.1H427.4V253.4H187.6v14.7Z" class="g0_114"/>
<path fill-rule="evenodd" d="M187.6,282.7H427.4V268.1H187.6v14.6Z" class="g0_114"/>
<path fill-rule="evenodd" d="M187.6,297.4H427.4V282.7H187.6v14.7Z" class="g0_114"/>
<path fill-rule="evenodd" d="M187.6,312.1H427.4V297.4H187.6v14.7Z" class="g0_114"/>
<path fill-rule="evenodd" d="M205.9,326.7H427.4V312.1H205.9v14.6Z" class="g0_114"/>
<path fill-rule="evenodd" d="M187.2,341.8H427V327.1H187.2v14.7Z" class="g0_114"/>
<path fill-rule="evenodd" d="M187.2,356.5H427V341.8H187.2v14.7Z" class="g0_114"/>
<path fill-rule="evenodd" d="M187.6,371.5H426.7V356.8H187.6v14.7Z" class="g0_114"/>
<path fill-rule="evenodd" d="M187.6,386.2H426.7V371.5H187.6v14.7Z" class="g0_114"/>
<path fill-rule="evenodd" d="M187.6,400.8H426.7V386.2H187.6v14.6Z" class="g0_114"/>
<path fill-rule="evenodd" d="M187.6,415.5H426.7V400.8H187.6v14.7Z" class="g0_114"/>
<path fill-rule="evenodd" d="M187.6,430.2H426.7V415.5H187.6v14.7Z" class="g0_114"/>
<path fill-rule="evenodd" d="M187.2,445.2H426.7V430.5H187.2v14.7Z" class="g0_114"/>
<path fill-rule="evenodd" d="M187.2,459.9H426.7V445.2H187.2v14.7Z" class="g0_114"/>
<path fill-rule="evenodd" d="M186.8,474.9H426.7V460.2H186.8v14.7Z" class="g0_114"/>
<path fill-rule="evenodd" d="M186.8,489.6H426.7V474.9H186.8v14.7Z" class="g0_114"/>
<path fill-rule="evenodd" d="M186.8,504.2H426.7V489.6H186.8v14.6Z" class="g0_114"/>
<path fill-rule="evenodd" d="M186.8,518.9H426.7V504.2H186.8v14.7Z" class="g0_114"/>
<path fill-rule="evenodd" d="M187.2,533.6H426.3V518.9H187.2v14.7Z" class="g0_114"/>
<path fill-rule="evenodd" d="M187.2,548.2H426.3V533.6H187.2v14.6Z" class="g0_114"/>
<path fill-rule="evenodd" d="M186.8,562.9H426.3V548.2H186.8v14.7Z" class="g0_114"/>
<path fill-rule="evenodd" d="M186.8,577.6H426.3V562.9H186.8v14.7Z" class="g0_114"/>
<path fill-rule="evenodd" d="M186.8,592.2H426.3V577.6H186.8v14.6Z" class="g0_114"/>
<path fill-rule="evenodd" d="M186.8,606.9H426.3V592.2H186.8v14.7Z" class="g0_114"/>
<path fill-rule="evenodd" d="M186.8,621.6H426.3V606.9H186.8v14.7Z" class="g0_114"/>
<path fill-rule="evenodd" d="M186.8,636.3H426.3V621.6H186.8v14.7Z" class="g0_114"/>
<path fill-rule="evenodd" d="M186.8,650.9H426.3V636.3H186.8v14.6Z" class="g0_114"/>
<path fill-rule="evenodd" d="M205.2,665.6H427.4V650.9H205.2v14.7Z" class="g0_114"/>
<path fill-rule="evenodd" d="M186.8,680.3H426.7V665.6H186.8v14.7Z" class="g0_114"/>
<path fill-rule="evenodd" d="M186.8,694.9H426.7V680.3H186.8v14.6Z" class="g0_114"/>
<path fill-rule="evenodd" d="M186.8,709.6H426.7V694.9H186.8v14.7Z" class="g0_114"/>
<path fill-rule="evenodd" d="M186.8,724.3H426.7V709.6H186.8v14.7Z" class="g0_114"/>
<path fill-rule="evenodd" d="M186.8,738.9H426.7V724.3H186.8v14.6Z" class="g0_114"/>
<path fill-rule="evenodd" d="M186.8,753.6H426.7V738.9H186.8v14.7Z" class="g0_114"/>
<path fill-rule="evenodd" d="M186.8,768.3H426.7V753.6H186.8v14.7Z" class="g0_114"/>
<path fill-rule="evenodd" d="M186.8,783.5H426.7V768.3H186.8v15.2Z" class="g0_114"/>
<path fill-rule="evenodd" d="M186.8,798.2H426.7V783.5H186.8v14.7Z" class="g0_114"/>
<path fill-rule="evenodd" d="M186.8,812.8H426.7V798.2H186.8v14.6Z" class="g0_114"/>
<path fill-rule="evenodd" d="M186.8,827.5H426.7V812.8H186.8v14.7Z" class="g0_114"/>
<path fill-rule="evenodd" d="M186.8,842.2H426.7V827.5H186.8v14.7Z" class="g0_114"/>
<path fill-rule="evenodd" d="M186.8,856.9H426.7V842.2H186.8v14.7Z" class="g0_114"/>
<path fill-rule="evenodd" d="M187.2,871.5H425.9V856.9H187.2v14.6Z" class="g0_114"/>
<path fill-rule="evenodd" d="M187.2,886.2H425.9V871.5H187.2v14.7Z" class="g0_114"/>
<path fill-rule="evenodd" d="M187.2,900.9H425.9V886.2H187.2v14.7Z" class="g0_114"/>
<path fill-rule="evenodd" d="M187.9,915.5H427.4V900.9H187.9v14.6Z" class="g0_114"/>
<path fill-rule="evenodd" d="M447.6,179.3H688.2V164.7H447.6v14.6Z" class="g0_114"/>
<path fill-rule="evenodd" d="M447.6,194H688.2V179.3H447.6V194Z" class="g0_114"/>
<path fill-rule="evenodd" d="M447.6,208.7H688.2V194H447.6v14.7Z" class="g0_114"/>
<path fill-rule="evenodd" d="M447.6,223.3H688.2V208.7H447.6v14.6Z" class="g0_114"/>
<path fill-rule="evenodd" d="M447.6,238H688.2V223.3H447.6V238Z" class="g0_114"/>
<path fill-rule="evenodd" d="M447.6,252.7H688.2V238H447.6v14.7Z" class="g0_114"/>
<path fill-rule="evenodd" d="M447.6,267.3H688.2V252.7H447.6v14.6Z" class="g0_114"/>
<path fill-rule="evenodd" d="M447.6,282H688.2V267.3H447.6V282Z" class="g0_114"/>
<path fill-rule="evenodd" d="M447.6,296.7H688.2V282H447.6v14.7Z" class="g0_114"/>
<path fill-rule="evenodd" d="M447.6,311.3H688.2V296.7H447.6v14.6Z" class="g0_114"/>
<path fill-rule="evenodd" d="M447.6,326H688.2V311.3H447.6V326Z" class="g0_114"/>
<path fill-rule="evenodd" d="M447.6,340.7H688.2V326H447.6v14.7Z" class="g0_114"/>
<path fill-rule="evenodd" d="M447.6,355.7H687.5V341H447.6v14.7Z" class="g0_114"/>
<path fill-rule="evenodd" d="M447.6,370.4H687.5V355.7H447.6v14.7Z" class="g0_114"/>
<path fill-rule="evenodd" d="M466,385.1H688.2V370.4H466v14.7Z" class="g0_114"/>
<path fill-rule="evenodd" d="M447.2,400.1H687.5V385.4H447.2v14.7Z" class="g0_114"/>
<path fill-rule="evenodd" d="M447.2,414.8H687.5V400.1H447.2v14.7Z" class="g0_114"/>
<path fill-rule="evenodd" d="M447.2,429.4H687.5V414.8H447.2v14.6Z" class="g0_114"/>
<path fill-rule="evenodd" d="M447.2,444.1H687.5V429.4H447.2v14.7Z" class="g0_114"/>
<path fill-rule="evenodd" d="M447.2,458.8H687.5V444.1H447.2v14.7Z" class="g0_114"/>
<path fill-rule="evenodd" d="M447.2,473.4H687.5V458.8H447.2v14.6Z" class="g0_114"/>
<path fill-rule="evenodd" d="M447.2,488.1H687.5V473.4H447.2v14.7Z" class="g0_114"/>
<path fill-rule="evenodd" d="M446.9,502.8H688.2V488.1H446.9v14.7Z" class="g0_114"/>
<path fill-rule="evenodd" d="M446.9,517.4H688.2V502.8H446.9v14.6Z" class="g0_114"/>
<path fill-rule="evenodd" d="M446.9,532.1H688.2V517.4H446.9v14.7Z" class="g0_114"/>
<path fill-rule="evenodd" d="M446.9,546.8H688.2V532.1H446.9v14.7Z" class="g0_114"/>
<path fill-rule="evenodd" d="M446.9,561.4H688.2V546.8H446.9v14.6Z" class="g0_114"/>
<path fill-rule="evenodd" d="M446.9,576.1H688.2V561.4H446.9v14.7Z" class="g0_114"/>
<path fill-rule="evenodd" d="M446.9,590.8H687.1V576.1H446.9v14.7Z" class="g0_114"/>
<path fill-rule="evenodd" d="M446.9,605.5H687.1V590.8H446.9v14.7Z" class="g0_114"/>
<path fill-rule="evenodd" d="M446.9,620.1H687.1V605.5H446.9v14.6Z" class="g0_114"/>
<path fill-rule="evenodd" d="M446.9,634.8H687.1V620.1H446.9v14.7Z" class="g0_114"/>
<path fill-rule="evenodd" d="M446.9,649.8H687.1v-15H446.9v15Z" class="g0_114"/>
<path fill-rule="evenodd" d="M446.9,664.5H687.1V649.8H446.9v14.7Z" class="g0_114"/>
<path fill-rule="evenodd" d="M446.9,679.2H687.1V664.5H446.9v14.7Z" class="g0_114"/>
<path fill-rule="evenodd" d="M446.9,693.8H687.1V679.2H446.9v14.6Z" class="g0_114"/>
<path fill-rule="evenodd" d="M446.9,708.5H687.1V693.8H446.9v14.7Z" class="g0_114"/>
<path fill-rule="evenodd" d="M446.9,723.2H687.1V708.5H446.9v14.7Z" class="g0_114"/>
<path fill-rule="evenodd" d="M446.9,737.8H687.1V723.2H446.9v14.6Z" class="g0_114"/>
<path fill-rule="evenodd" d="M446.9,752.5H687.1V737.8H446.9v14.7Z" class="g0_114"/>
<path fill-rule="evenodd" d="M446.5,767.2h241V752.5h-241v14.7Z" class="g0_114"/>
<path fill-rule="evenodd" d="M446.5,781.8h241V767.2h-241v14.6Z" class="g0_114"/>
<path fill-rule="evenodd" d="M446.5,796.5h241V781.8h-241v14.7Z" class="g0_114"/>
<path fill-rule="evenodd" d="M446.5,811.2h241V796.5h-241v14.7Z" class="g0_114"/>
<path fill-rule="evenodd" d="M446.5,825.8h241V811.2h-241v14.6Z" class="g0_114"/>
<path fill-rule="evenodd" d="M446.5,840.6h241V825.8h-241v14.8Z" class="g0_114"/>
<path fill-rule="evenodd" d="M446.5,855.2h241V840.6h-241v14.6Z" class="g0_114"/>
<path fill-rule="evenodd" d="M446.5,869.9h241V855.2h-241v14.7Z" class="g0_114"/>
<path fill-rule="evenodd" d="M446.5,884.6h241V869.9h-241v14.7Z" class="g0_114"/>
<path d="M435.7,164.2V932.4" class="g1_114"/>
</svg>