<?xml version="1.0" encoding="UTF-8" standalone="no"?>
<!DOCTYPE svg PUBLIC "-//W3C//DTD SVG 1.1//EN"
"http://www.w3.org/Graphics/SVG/1.1/DTD/svg11.dtd">
<svg viewBox="0 0 909 1285" version="1.1" xmlns="http://www.w3.org/2000/svg" xmlns:xlink="http://www.w3.org/1999/xlink">
<defs>
<style type="text/css"><![CDATA[
.g0_91{
fill: #FFFFFF;
}
.g1_91{
fill: none;
stroke: #000000;
stroke-width: 0.381;
stroke-linecap: butt;
stroke-linejoin: round;
}
]]></style>
</defs>
<path fill-rule="evenodd" d="M272.1,125.8h497V110h-497v15.8Z" class="g0_91"/>
<path fill-rule="evenodd" d="M269.2,178.2h264V153.3h-264v24.9Z" class="g0_91"/>
<path fill-rule="evenodd" d="M271.4,215.3H510.9V200.2H271.4v15.1Z" class="g0_91"/>
<path fill-rule="evenodd" d="M271.4,230.3H510.9v-15H271.4v15Z" class="g0_91"/>
<path fill-rule="evenodd" d="M271.4,245.3H510.9v-15H271.4v15Z" class="g0_91"/>
<path fill-rule="evenodd" d="M271.4,260.4H510.9V245.3H271.4v15.1Z" class="g0_91"/>
<path fill-rule="evenodd" d="M290.1,275.4H510.9v-15H290.1v15Z" class="g0_91"/>
<path fill-rule="evenodd" d="M271.8,290.6H510.1V275.4H271.8v15.2Z" class="g0_91"/>
<path fill-rule="evenodd" d="M271.8,305.6H510.1v-15H271.8v15Z" class="g0_91"/>
<path fill-rule="evenodd" d="M270.7,320.7H510.5V305.6H270.7v15.1Z" class="g0_91"/>
<path fill-rule="evenodd" d="M270.7,335.7H510.5v-15H270.7v15Z" class="g0_91"/>
<path fill-rule="evenodd" d="M270.7,350.7H510.5v-15H270.7v15Z" class="g0_91"/>
<path fill-rule="evenodd" d="M270.7,365.8H510.5v-15H270.7v15Z" class="g0_91"/>
<path fill-rule="evenodd" d="M270.7,380.9H510.5V365.8H270.7v15.1Z" class="g0_91"/>
<path fill-rule="evenodd" d="M270.7,395.9H510.5v-15H270.7v15Z" class="g0_91"/>
<path fill-rule="evenodd" d="M270.7,410.9H510.5v-15H270.7v15Z" class="g0_91"/>
<path fill-rule="evenodd" d="M270.7,426H510.5V410.9H270.7V426Z" class="g0_91"/>
<path fill-rule="evenodd" d="M270.7,441H509.8V426H270.7v15Z" class="g0_91"/>
<path fill-rule="evenodd" d="M270.7,456.2H509.8V441H270.7v15.2Z" class="g0_91"/>
<path fill-rule="evenodd" d="M270.7,471.2H509.8v-15H270.7v15Z" class="g0_91"/>
<path fill-rule="evenodd" d="M289.4,486.3H510.9V471.2H289.4v15.1Z" class="g0_91"/>
<path fill-rule="evenodd" d="M270.7,501.3H509v-15H270.7v15Z" class="g0_91"/>
<path fill-rule="evenodd" d="M270.7,516.3H509v-15H270.7v15Z" class="g0_91"/>
<path fill-rule="evenodd" d="M270.7,531.4H509V516.3H270.7v15.1Z" class="g0_91"/>
<path fill-rule="evenodd" d="M270.7,546.4H509v-15H270.7v15Z" class="g0_91"/>
<path fill-rule="evenodd" d="M270.7,561.4H509v-15H270.7v15Z" class="g0_91"/>
<path fill-rule="evenodd" d="M270.7,576.5H509V561.4H270.7v15.1Z" class="g0_91"/>
<path fill-rule="evenodd" d="M270.7,591.5H509v-15H270.7v15Z" class="g0_91"/>
<path fill-rule="evenodd" d="M270.7,606.6H509V591.5H270.7v15.1Z" class="g0_91"/>
<path fill-rule="evenodd" d="M269.9,621.6H509.4v-15H269.9v15Z" class="g0_91"/>
<path fill-rule="evenodd" d="M269.9,636.8H509.4V621.6H269.9v15.2Z" class="g0_91"/>
<path fill-rule="evenodd" d="M269.9,651.9H509.4V636.8H269.9v15.1Z" class="g0_91"/>
<path fill-rule="evenodd" d="M269.9,666.9H509.4v-15H269.9v15Z" class="g0_91"/>
<path fill-rule="evenodd" d="M269.9,681.9H509.4v-15H269.9v15Z" class="g0_91"/>
<path fill-rule="evenodd" d="M269.9,697H509.4V681.9H269.9V697Z" class="g0_91"/>
<path fill-rule="evenodd" d="M288.3,712H510.9V697H288.3v15Z" class="g0_91"/>
<path fill-rule="evenodd" d="M269.9,727H509V712H269.9v15Z" class="g0_91"/>
<path fill-rule="evenodd" d="M269.9,742.1H509V727H269.9v15.1Z" class="g0_91"/>
<path fill-rule="evenodd" d="M269.9,757.1H509v-15H269.9v15Z" class="g0_91"/>
<path fill-rule="evenodd" d="M269.2,772.1H508.7v-15H269.2v15Z" class="g0_91"/>
<path fill-rule="evenodd" d="M269.2,787.2H508.7V772.1H269.2v15.1Z" class="g0_91"/>
<path fill-rule="evenodd" d="M269.2,802.2H508.7v-15H269.2v15Z" class="g0_91"/>
<path fill-rule="evenodd" d="M269.2,817.4H508.7V802.2H269.2v15.2Z" class="g0_91"/>
<path fill-rule="evenodd" d="M269.2,832.5H508.7V817.4H269.2v15.1Z" class="g0_91"/>
<path fill-rule="evenodd" d="M269.2,847.5H508.7v-15H269.2v15Z" class="g0_91"/>
<path fill-rule="evenodd" d="M269.2,862.6H508.7V847.5H269.2v15.1Z" class="g0_91"/>
<path fill-rule="evenodd" d="M269.6,877.6H508.7v-15H269.6v15Z" class="g0_91"/>
<path fill-rule="evenodd" d="M269.6,892.6H508.7v-15H269.6v15Z" class="g0_91"/>
<path fill-rule="evenodd" d="M269.6,907.7H508.7V892.6H269.6v15.1Z" class="g0_91"/>
<path fill-rule="evenodd" d="M271.4,922.3H510.9V907.7H271.4v14.6Z" class="g0_91"/>
<path fill-rule="evenodd" d="M531,215.6H769V201H531v14.6Z" class="g0_91"/>
<path fill-rule="evenodd" d="M531,230.3H769V215.6H531v14.7Z" class="g0_91"/>
<path fill-rule="evenodd" d="M531,245H769V230.3H531V245Z" class="g0_91"/>
<path fill-rule="evenodd" d="M549,260H769V245.3H549V260Z" class="g0_91"/>
<path fill-rule="evenodd" d="M529.6,274.7H769V260H529.6v14.7Z" class="g0_91"/>
<path fill-rule="evenodd" d="M529.6,289.3H769V274.7H529.6v14.6Z" class="g0_91"/>
<path fill-rule="evenodd" d="M530.7,304H768.3V289.3H530.7V304Z" class="g0_91"/>
<path fill-rule="evenodd" d="M530.7,318.7H768.3V304H530.7v14.7Z" class="g0_91"/>
<path fill-rule="evenodd" d="M530.7,333.3H768.3V318.7H530.7v14.6Z" class="g0_91"/>
<path fill-rule="evenodd" d="M530.7,348h238V333.3h-238V348Z" class="g0_91"/>
<path fill-rule="evenodd" d="M530.7,362.7h238V348h-238v14.7Z" class="g0_91"/>
<path fill-rule="evenodd" d="M530.7,377.4h238V362.7h-238v14.7Z" class="g0_91"/>
<path fill-rule="evenodd" d="M549,392H769V377.4H549V392Z" class="g0_91"/>
<path fill-rule="evenodd" d="M530.3,406.7H768.7V392H530.3v14.7Z" class="g0_91"/>
<path fill-rule="evenodd" d="M530.3,421.4H768.7V406.7H530.3v14.7Z" class="g0_91"/>
<path fill-rule="evenodd" d="M529.9,436H768.3V421.4H529.9V436Z" class="g0_91"/>
<path fill-rule="evenodd" d="M529.9,450.7H768.3V436H529.9v14.7Z" class="g0_91"/>
<path fill-rule="evenodd" d="M529.9,465.4H768.3V450.7H529.9v14.7Z" class="g0_91"/>
<path fill-rule="evenodd" d="M529.9,480H768.3V465.4H529.9V480Z" class="g0_91"/>
<path fill-rule="evenodd" d="M529.9,494.7H768.3V480H529.9v14.7Z" class="g0_91"/>
<path fill-rule="evenodd" d="M529.9,509.4H768.3V494.7H529.9v14.7Z" class="g0_91"/>
<path fill-rule="evenodd" d="M529.9,524H768.3V509.4H529.9V524Z" class="g0_91"/>
<path fill-rule="evenodd" d="M529.9,538.7H768.3V524H529.9v14.7Z" class="g0_91"/>
<path fill-rule="evenodd" d="M529.9,553.4H768.3V538.7H529.9v14.7Z" class="g0_91"/>
<path fill-rule="evenodd" d="M529.9,568H768.3V553.4H529.9V568Z" class="g0_91"/>
<path fill-rule="evenodd" d="M529.6,582.7H768.3V568H529.6v14.7Z" class="g0_91"/>
<path fill-rule="evenodd" d="M529.6,597.4H768.3V582.7H529.6v14.7Z" class="g0_91"/>
<path fill-rule="evenodd" d="M529.6,612.1H768.3V597.4H529.6v14.7Z" class="g0_91"/>
<path fill-rule="evenodd" d="M529.6,626.7H768.3V612.1H529.6v14.6Z" class="g0_91"/>
<path fill-rule="evenodd" d="M529.2,641.8H767.9V627.1H529.2v14.7Z" class="g0_91"/>
<path fill-rule="evenodd" d="M529.2,656.4H767.9V641.8H529.2v14.6Z" class="g0_91"/>
<path fill-rule="evenodd" d="M529.2,671.1H767.9V656.4H529.2v14.7Z" class="g0_91"/>
<path fill-rule="evenodd" d="M529.2,685.8H767.9V671.1H529.2v14.7Z" class="g0_91"/>
<path fill-rule="evenodd" d="M547.9,700.4H769V685.8H547.9v14.6Z" class="g0_91"/>
<path fill-rule="evenodd" d="M529.6,715.1H767.9V700.4H529.6v14.7Z" class="g0_91"/>
<path fill-rule="evenodd" d="M529.6,729.8H767.9V715.1H529.6v14.7Z" class="g0_91"/>
<path fill-rule="evenodd" d="M529.6,744.4H767.9V729.8H529.6v14.6Z" class="g0_91"/>
<path fill-rule="evenodd" d="M528.8,759.1H768.3V744.4H528.8v14.7Z" class="g0_91"/>
<path fill-rule="evenodd" d="M528.8,773.8H768.3V759.1H528.8v14.7Z" class="g0_91"/>
<path fill-rule="evenodd" d="M528.8,788.4H768.3V773.8H528.8v14.6Z" class="g0_91"/>
<path fill-rule="evenodd" d="M528.8,803.1H768.3V788.4H528.8v14.7Z" class="g0_91"/>
<path fill-rule="evenodd" d="M529.2,818.7H767.6V803.8H529.2v14.9Z" class="g0_91"/>
<path fill-rule="evenodd" d="M529.2,833.4H767.6V818.7H529.2v14.7Z" class="g0_91"/>
<path fill-rule="evenodd" d="M547.5,848.1H769V833.4H547.5v14.7Z" class="g0_91"/>
<path fill-rule="evenodd" d="M528.8,862.7H767.6V848.1H528.8v14.6Z" class="g0_91"/>
<path fill-rule="evenodd" d="M528.8,877.4H767.6V862.7H528.8v14.7Z" class="g0_91"/>
<path fill-rule="evenodd" d="M528.8,892.1H767.6V877.4H528.8v14.7Z" class="g0_91"/>
<path fill-rule="evenodd" d="M528.8,906.7H767.6V892.1H528.8v14.6Z" class="g0_91"/>
<path fill-rule="evenodd" d="M509,938.1H769V920.5H509v17.6Z" class="g0_91"/>
<path d="M196.9,185.2V381m3.3,-203.9v142M203.5,645V779.2m1.1,-228.1v219M518.8,199.8V915.6" class="g1_91"/>
</svg>