<?xml version="1.0" encoding="UTF-8" standalone="no"?>
<!DOCTYPE svg PUBLIC "-//W3C//DTD SVG 1.1//EN"
"http://www.w3.org/Graphics/SVG/1.1/DTD/svg11.dtd">
<svg viewBox="0 0 909 1285" version="1.1" xmlns="http://www.w3.org/2000/svg" xmlns:xlink="http://www.w3.org/1999/xlink">
<defs>
<style type="text/css"><![CDATA[
.g0_81{
fill: #FFFFFF;
}
.g1_81{
fill: none;
stroke: #000000;
stroke-width: 0.381;
stroke-linecap: butt;
stroke-linejoin: round;
}
]]></style>
</defs>
<path fill-rule="evenodd" d="M264.9,125.8H766.3V110H264.9v15.8Z" class="g0_81"/>
<path fill-rule="evenodd" d="M264.2,161.4H505.6V146.3H264.2v15.1Z" class="g0_81"/>
<path fill-rule="evenodd" d="M264.2,176.4H505.6v-15H264.2v15Z" class="g0_81"/>
<path fill-rule="evenodd" d="M264.2,191.6H505.6V176.4H264.2v15.2Z" class="g0_81"/>
<path fill-rule="evenodd" d="M264.2,206.6H505.6v-15H264.2v15Z" class="g0_81"/>
<path fill-rule="evenodd" d="M264.2,221.7H505.6V206.6H264.2v15.1Z" class="g0_81"/>
<path fill-rule="evenodd" d="M264.2,236.7H505.6v-15H264.2v15Z" class="g0_81"/>
<path fill-rule="evenodd" d="M264.2,251.7H505.6v-15H264.2v15Z" class="g0_81"/>
<path fill-rule="evenodd" d="M264.2,266.8H505.6V251.7H264.2v15.1Z" class="g0_81"/>
<path fill-rule="evenodd" d="M264.2,281.8H505.6v-15H264.2v15Z" class="g0_81"/>
<path fill-rule="evenodd" d="M264.2,296.8H505.6v-15H264.2v15Z" class="g0_81"/>
<path fill-rule="evenodd" d="M264.2,311.9H505.6V296.8H264.2v15.1Z" class="g0_81"/>
<path fill-rule="evenodd" d="M264.2,326.9H505.6v-15H264.2v15Z" class="g0_81"/>
<path fill-rule="evenodd" d="M264.2,341.9H505.6v-15H264.2v15Z" class="g0_81"/>
<path fill-rule="evenodd" d="M263.8,357.2H505.2V342H263.8v15.2Z" class="g0_81"/>
<path fill-rule="evenodd" d="M263.8,372.2H505.2v-15H263.8v15Z" class="g0_81"/>
<path fill-rule="evenodd" d="M263.8,387.3H505.2V372.2H263.8v15.1Z" class="g0_81"/>
<path fill-rule="evenodd" d="M263.8,402.3H505.2v-15H263.8v15Z" class="g0_81"/>
<path fill-rule="evenodd" d="M263.8,417.3H505.2v-15H263.8v15Z" class="g0_81"/>
<path fill-rule="evenodd" d="M263.8,432.4H505.2V417.3H263.8v15.1Z" class="g0_81"/>
<path fill-rule="evenodd" d="M263.8,447.4H505.2v-15H263.8v15Z" class="g0_81"/>
<path fill-rule="evenodd" d="M263.8,462.4H505.2v-15H263.8v15Z" class="g0_81"/>
<path fill-rule="evenodd" d="M264.2,477.5H504.5V462.4H264.2v15.1Z" class="g0_81"/>
<path fill-rule="evenodd" d="M264.2,492.5H504.5v-15H264.2v15Z" class="g0_81"/>
<path fill-rule="evenodd" d="M264.2,507.5H504.5v-15H264.2v15Z" class="g0_81"/>
<path fill-rule="evenodd" d="M263.8,522.6H504.5V507.5H263.8v15.1Z" class="g0_81"/>
<path fill-rule="evenodd" d="M263.8,537.8H504.5V522.6H263.8v15.2Z" class="g0_81"/>
<path fill-rule="evenodd" d="M263.8,552.8H504.5v-15H263.8v15Z" class="g0_81"/>
<path fill-rule="evenodd" d="M263.8,567.9H504.5V552.8H263.8v15.1Z" class="g0_81"/>
<path fill-rule="evenodd" d="M263.8,582.9H504.5v-15H263.8v15Z" class="g0_81"/>
<path fill-rule="evenodd" d="M263.8,598H504.5V582.9H263.8V598Z" class="g0_81"/>
<path fill-rule="evenodd" d="M263.5,613H504.1V598H263.5v15Z" class="g0_81"/>
<path fill-rule="evenodd" d="M263.5,628H504.1V613H263.5v15Z" class="g0_81"/>
<path fill-rule="evenodd" d="M263.5,643.1H504.1V628H263.5v15.1Z" class="g0_81"/>
<path fill-rule="evenodd" d="M263.5,658.1H504.1v-15H263.5v15Z" class="g0_81"/>
<path fill-rule="evenodd" d="M263.8,673.1H504.5v-15H263.8v15Z" class="g0_81"/>
<path fill-rule="evenodd" d="M263.8,688.2H504.5V673.1H263.8v15.1Z" class="g0_81"/>
<path fill-rule="evenodd" d="M263.8,703.2H504.5v-15H263.8v15Z" class="g0_81"/>
<path fill-rule="evenodd" d="M263.8,718.4H504.5V703.2H263.8v15.2Z" class="g0_81"/>
<path fill-rule="evenodd" d="M263.8,733.4H503.7v-15H263.8v15Z" class="g0_81"/>
<path fill-rule="evenodd" d="M263.8,748.5H503.7V733.4H263.8v15.1Z" class="g0_81"/>
<path fill-rule="evenodd" d="M263.8,763.5H503.7v-15H263.8v15Z" class="g0_81"/>
<path fill-rule="evenodd" d="M263.5,778.5H504.1v-15H263.5v15Z" class="g0_81"/>
<path fill-rule="evenodd" d="M263.5,793.6H504.1V778.5H263.5v15.1Z" class="g0_81"/>
<path fill-rule="evenodd" d="M263.5,808.6H504.1v-15H263.5v15Z" class="g0_81"/>
<path fill-rule="evenodd" d="M263.5,823.6H504.1v-15H263.5v15Z" class="g0_81"/>
<path fill-rule="evenodd" d="M263.5,838.7H503.7V823.6H263.5v15.1Z" class="g0_81"/>
<path fill-rule="evenodd" d="M263.5,853.8H503.7V838.7H263.5v15.1Z" class="g0_81"/>
<path fill-rule="evenodd" d="M264.2,868.8H504.8v-15H264.2v15Z" class="g0_81"/>
<path fill-rule="evenodd" d="M525.4,161.4H765.6V146.3H525.4v15.1Z" class="g0_81"/>
<path fill-rule="evenodd" d="M525.4,176.4H765.6v-15H525.4v15Z" class="g0_81"/>
<path fill-rule="evenodd" d="M525.4,191.6H765.6V176.4H525.4v15.2Z" class="g0_81"/>
<path fill-rule="evenodd" d="M525.7,206.6H766.3v-15H525.7v15Z" class="g0_81"/>
<path fill-rule="evenodd" d="M525.7,221.7H766.3V206.6H525.7v15.1Z" class="g0_81"/>
<path fill-rule="evenodd" d="M525.7,236.7H766.3v-15H525.7v15Z" class="g0_81"/>
<path fill-rule="evenodd" d="M525.7,251.7H766.3v-15H525.7v15Z" class="g0_81"/>
<path fill-rule="evenodd" d="M544.4,266.8H766.3V251.7H544.4v15.1Z" class="g0_81"/>
<path fill-rule="evenodd" d="M526.1,281.8H765.9v-15H526.1v15Z" class="g0_81"/>
<path fill-rule="evenodd" d="M526.1,296.8H765.9v-15H526.1v15Z" class="g0_81"/>
<path fill-rule="evenodd" d="M544.1,311.9H766.3V296.8H544.1v15.1Z" class="g0_81"/>
<path fill-rule="evenodd" d="M525.4,326.9H765.6v-15H525.4v15Z" class="g0_81"/>
<path fill-rule="evenodd" d="M525.4,341.9H765.6v-15H525.4v15Z" class="g0_81"/>
<path fill-rule="evenodd" d="M525.4,357.2H765.6V342H525.4v15.2Z" class="g0_81"/>
<path fill-rule="evenodd" d="M524.6,372.2H765.2v-15H524.6v15Z" class="g0_81"/>
<path fill-rule="evenodd" d="M524.6,387.3H765.2V372.2H524.6v15.1Z" class="g0_81"/>
<path fill-rule="evenodd" d="M524.6,402.3H765.2v-15H524.6v15Z" class="g0_81"/>
<path fill-rule="evenodd" d="M524.6,417.3H765.2v-15H524.6v15Z" class="g0_81"/>
<path fill-rule="evenodd" d="M525.4,432.4H765.6V417.3H525.4v15.1Z" class="g0_81"/>
<path fill-rule="evenodd" d="M525.4,447.4H765.6v-15H525.4v15Z" class="g0_81"/>
<path fill-rule="evenodd" d="M525.4,462.4H765.6v-15H525.4v15Z" class="g0_81"/>
<path fill-rule="evenodd" d="M525.4,477.5H765.6V462.4H525.4v15.1Z" class="g0_81"/>
<path fill-rule="evenodd" d="M525.4,492.5H765.6v-15H525.4v15Z" class="g0_81"/>
<path fill-rule="evenodd" d="M525.4,507.5H765.6v-15H525.4v15Z" class="g0_81"/>
<path fill-rule="evenodd" d="M524.6,522.6H765.2V507.5H524.6v15.1Z" class="g0_81"/>
<path fill-rule="evenodd" d="M524.6,537.8H765.2V522.6H524.6v15.2Z" class="g0_81"/>
<path fill-rule="evenodd" d="M524.6,552.8H765.2v-15H524.6v15Z" class="g0_81"/>
<path fill-rule="evenodd" d="M524.6,567.9H765.2V552.8H524.6v15.1Z" class="g0_81"/>
<path fill-rule="evenodd" d="M524.6,582.9H765.2v-15H524.6v15Z" class="g0_81"/>
<path fill-rule="evenodd" d="M524.6,598H765.2V582.9H524.6V598Z" class="g0_81"/>
<path fill-rule="evenodd" d="M524.6,613H765.2V598H524.6v15Z" class="g0_81"/>
<path fill-rule="evenodd" d="M525,628H764.8V613H525v15Z" class="g0_81"/>
<path fill-rule="evenodd" d="M525,643.1H764.8V628H525v15.1Z" class="g0_81"/>
<path fill-rule="evenodd" d="M524.6,658.1H765.2v-15H524.6v15Z" class="g0_81"/>
<path fill-rule="evenodd" d="M524.6,673.1H765.2v-15H524.6v15Z" class="g0_81"/>
<path fill-rule="evenodd" d="M524.6,688.2H765.2V673.1H524.6v15.1Z" class="g0_81"/>
<path fill-rule="evenodd" d="M524.6,703.2H765.2v-15H524.6v15Z" class="g0_81"/>
<path fill-rule="evenodd" d="M524.6,718.4H765.2V703.2H524.6v15.2Z" class="g0_81"/>
<path fill-rule="evenodd" d="M524.6,733.4H764.8v-15H524.6v15Z" class="g0_81"/>
<path fill-rule="evenodd" d="M524.6,748.5H764.8V733.4H524.6v15.1Z" class="g0_81"/>
<path fill-rule="evenodd" d="M524.6,763.5H764.8v-15H524.6v15Z" class="g0_81"/>
<path fill-rule="evenodd" d="M524.6,778.5H764.8v-15H524.6v15Z" class="g0_81"/>
<path fill-rule="evenodd" d="M524.6,793.6H764.8V778.5H524.6v15.1Z" class="g0_81"/>
<path fill-rule="evenodd" d="M524.6,808.6H764.8v-15H524.6v15Z" class="g0_81"/>
<path fill-rule="evenodd" d="M524.6,823.6H764.8v-15H524.6v15Z" class="g0_81"/>
<path fill-rule="evenodd" d="M524.6,838.7H764.8V823.6H524.6v15.1Z" class="g0_81"/>
<path fill-rule="evenodd" d="M524.6,853.8H764.8V838.7H524.6v15.1Z" class="g0_81"/>
<path fill-rule="evenodd" d="M524.6,868.8H764.5v-15H524.6v15Z" class="g0_81"/>
<path fill-rule="evenodd" d="M524.6,883.8H764.5v-15H524.6v15Z" class="g0_81"/>
<path d="M513.9,147.4V915.6" class="g1_81"/>
</svg>