<?xml version="1.0" encoding="UTF-8" standalone="no"?>
<!DOCTYPE svg PUBLIC "-//W3C//DTD SVG 1.1//EN"
"http://www.w3.org/Graphics/SVG/1.1/DTD/svg11.dtd">
<svg viewBox="0 0 909 1285" version="1.1" xmlns="http://www.w3.org/2000/svg" xmlns:xlink="http://www.w3.org/1999/xlink">
<defs>
<style type="text/css"><![CDATA[
.g0_238{
fill: #FFFFFF;
}
.g1_238{
fill: none;
stroke: #000000;
stroke-width: 0.381;
stroke-linecap: butt;
stroke-linejoin: round;
}
]]></style>
</defs>
<path fill-rule="evenodd" d="M608,132.9h78.9V110H608v22.9Z" class="g0_238"/>
<path fill-rule="evenodd" d="M189.2,167H426.9V152H189.2v15Z" class="g0_238"/>
<path fill-rule="evenodd" d="M189.2,182.1H426.9V167H189.2v15.1Z" class="g0_238"/>
<path fill-rule="evenodd" d="M189.2,197.1H426.9v-15H189.2v15Z" class="g0_238"/>
<path fill-rule="evenodd" d="M189.2,212.1h238v-15h-238v15Z" class="g0_238"/>
<path fill-rule="evenodd" d="M189.2,227.2h238V212.1h-238v15.1Z" class="g0_238"/>
<path fill-rule="evenodd" d="M206.8,242.2H427.2v-15H206.8v15Z" class="g0_238"/>
<path fill-rule="evenodd" d="M189.2,257.2h238v-15h-238v15Z" class="g0_238"/>
<path fill-rule="evenodd" d="M189.2,272.3h238V257.2h-238v15.1Z" class="g0_238"/>
<path fill-rule="evenodd" d="M189.2,287.3h238v-15h-238v15Z" class="g0_238"/>
<path fill-rule="evenodd" d="M188.9,302.5h238V287.3h-238v15.2Z" class="g0_238"/>
<path fill-rule="evenodd" d="M188.9,317.6h238V302.5h-238v15.1Z" class="g0_238"/>
<path fill-rule="evenodd" d="M188.9,332.6h238v-15h-238v15Z" class="g0_238"/>
<path fill-rule="evenodd" d="M188.5,347.6H426.9v-15H188.5v15Z" class="g0_238"/>
<path fill-rule="evenodd" d="M188.5,362.7H426.9V347.6H188.5v15.1Z" class="g0_238"/>
<path fill-rule="evenodd" d="M188.5,377.7H426.9v-15H188.5v15Z" class="g0_238"/>
<path fill-rule="evenodd" d="M188.5,392.8H426.9V377.7H188.5v15.1Z" class="g0_238"/>
<path fill-rule="evenodd" d="M206.8,407.8H427.2v-15H206.8v15Z" class="g0_238"/>
<path fill-rule="evenodd" d="M188.5,422.8H426.9v-15H188.5v15Z" class="g0_238"/>
<path fill-rule="evenodd" d="M188.5,437.9H426.9V422.8H188.5v15.1Z" class="g0_238"/>
<path fill-rule="evenodd" d="M188.1,452.9H426.5v-15H188.1v15Z" class="g0_238"/>
<path fill-rule="evenodd" d="M188.1,468.1H426.5V452.9H188.1v15.2Z" class="g0_238"/>
<path fill-rule="evenodd" d="M188.1,483.2H426.5V468.1H188.1v15.1Z" class="g0_238"/>
<path fill-rule="evenodd" d="M188.5,498.2H426.1v-15H188.5v15Z" class="g0_238"/>
<path fill-rule="evenodd" d="M188.5,513.2H426.1v-15H188.5v15Z" class="g0_238"/>
<path fill-rule="evenodd" d="M188.1,528.3h238V513.2h-238v15.1Z" class="g0_238"/>
<path fill-rule="evenodd" d="M188.1,543.3h238v-15h-238v15Z" class="g0_238"/>
<path fill-rule="evenodd" d="M206.5,558.3H427.2v-15H206.5v15Z" class="g0_238"/>
<path fill-rule="evenodd" d="M188.1,573.4H425.8V558.3H188.1v15.1Z" class="g0_238"/>
<path fill-rule="evenodd" d="M188.1,588.4H425.8v-15H188.1v15Z" class="g0_238"/>
<path fill-rule="evenodd" d="M187.8,603.5H426.1V588.4H187.8v15.1Z" class="g0_238"/>
<path fill-rule="evenodd" d="M187.8,618.5H426.1v-15H187.8v15Z" class="g0_238"/>
<path fill-rule="evenodd" d="M187.4,633.5H426.1v-15H187.4v15Z" class="g0_238"/>
<path fill-rule="evenodd" d="M187.4,648.7H426.1V633.5H187.4v15.2Z" class="g0_238"/>
<path fill-rule="evenodd" d="M188.5,663.8H427.2V648.7H188.5v15.1Z" class="g0_238"/>
<path fill-rule="evenodd" d="M447.6,168.1H686.7v-15H447.6v15Z" class="g0_238"/>
<path fill-rule="evenodd" d="M447.6,183.2H686.7V168.1H447.6v15.1Z" class="g0_238"/>
<path fill-rule="evenodd" d="M447.6,198.2H686.7v-15H447.6v15Z" class="g0_238"/>
<path fill-rule="evenodd" d="M447.6,213.2H686.7v-15H447.6v15Z" class="g0_238"/>
<path fill-rule="evenodd" d="M447.6,228.3H686.4V213.2H447.6v15.1Z" class="g0_238"/>
<path fill-rule="evenodd" d="M447.6,243.3H686.4v-15H447.6v15Z" class="g0_238"/>
<path fill-rule="evenodd" d="M447.6,258.3H686.4v-15H447.6v15Z" class="g0_238"/>
<path fill-rule="evenodd" d="M447.6,273.4H686.4V258.3H447.6v15.1Z" class="g0_238"/>
<path fill-rule="evenodd" d="M447.6,288.4H686.4v-15H447.6v15Z" class="g0_238"/>
<path fill-rule="evenodd" d="M446.5,303.4H686.7v-15H446.5v15Z" class="g0_238"/>
<path fill-rule="evenodd" d="M446.5,318.5H686.7V303.4H446.5v15.1Z" class="g0_238"/>
<path fill-rule="evenodd" d="M446.5,333.7H686.7V318.5H446.5v15.2Z" class="g0_238"/>
<path fill-rule="evenodd" d="M446.5,348.7H686.7v-15H446.5v15Z" class="g0_238"/>
<path fill-rule="evenodd" d="M446.5,363.8H686.7V348.7H446.5v15.1Z" class="g0_238"/>
<path fill-rule="evenodd" d="M446.5,378.8H686.7v-15H446.5v15Z" class="g0_238"/>
<path fill-rule="evenodd" d="M446.5,393.9H686.7V378.8H446.5v15.1Z" class="g0_238"/>
<path fill-rule="evenodd" d="M446.5,408.9H686.7v-15H446.5v15Z" class="g0_238"/>
<path fill-rule="evenodd" d="M446.5,423.9H686.7v-15H446.5v15Z" class="g0_238"/>
<path fill-rule="evenodd" d="M465.6,439H686.7V423.9H465.6V439Z" class="g0_238"/>
<path fill-rule="evenodd" d="M447.2,454H686V439H447.2v15Z" class="g0_238"/>
<path fill-rule="evenodd" d="M447.2,469H686V454H447.2v15Z" class="g0_238"/>
<path fill-rule="evenodd" d="M465.2,484.1H686.7V469H465.2v15.1Z" class="g0_238"/>
<path fill-rule="evenodd" d="M446.5,499.3H685.6V484.1H446.5v15.2Z" class="g0_238"/>
<path fill-rule="evenodd" d="M446.5,514.3H685.6v-15H446.5v15Z" class="g0_238"/>
<path fill-rule="evenodd" d="M446.9,529.4H685.6V514.3H446.9v15.1Z" class="g0_238"/>
<path fill-rule="evenodd" d="M446.9,544.4H685.6v-15H446.9v15Z" class="g0_238"/>
<path fill-rule="evenodd" d="M446.9,559.4H685.6v-15H446.9v15Z" class="g0_238"/>
<path fill-rule="evenodd" d="M446.9,574.5H685.3V559.4H446.9v15.1Z" class="g0_238"/>
<path fill-rule="evenodd" d="M446.9,589.5H685.3v-15H446.9v15Z" class="g0_238"/>
<path fill-rule="evenodd" d="M447.2,604.6H685.6V589.5H447.2v15.1Z" class="g0_238"/>
<path fill-rule="evenodd" d="M447.2,619.6H685.6v-15H447.2v15Z" class="g0_238"/>
<path fill-rule="evenodd" d="M447.2,634.6H685.6v-15H447.2v15Z" class="g0_238"/>
<path fill-rule="evenodd" d="M414.4,715.7H686.9V692H414.4v23.7Z" class="g0_238"/>
<path fill-rule="evenodd" d="M187.4,754.5H425.8v-15H187.4v15Z" class="g0_238"/>
<path fill-rule="evenodd" d="M187.4,769.7H425.8V754.5H187.4v15.2Z" class="g0_238"/>
<path fill-rule="evenodd" d="M187.4,784.8H425.8V769.7H187.4v15.1Z" class="g0_238"/>
<path fill-rule="evenodd" d="M187.4,799.8H425.8v-15H187.4v15Z" class="g0_238"/>
<path fill-rule="evenodd" d="M187.4,814.8H425.8v-15H187.4v15Z" class="g0_238"/>
<path fill-rule="evenodd" d="M186.7,829.9H425.4V814.8H186.7v15.1Z" class="g0_238"/>
<path fill-rule="evenodd" d="M186.7,845H425.4V829.9H186.7V845Z" class="g0_238"/>
<path fill-rule="evenodd" d="M187,860H425.8V845H187v15Z" class="g0_238"/>
<path fill-rule="evenodd" d="M187,875H425.8V860H187v15Z" class="g0_238"/>
<path fill-rule="evenodd" d="M186.7,890.1H425V875H186.7v15.1Z" class="g0_238"/>
<path fill-rule="evenodd" d="M186.7,905.1H425v-15H186.7v15Z" class="g0_238"/>
<path fill-rule="evenodd" d="M205.4,920.1H425.8v-15H205.4v15Z" class="g0_238"/>
<path fill-rule="evenodd" d="M187,935.2H425.8V920.1H187v15.1Z" class="g0_238"/>
<path fill-rule="evenodd" d="M446.3,753.8H685.1v-15H446.3v15Z" class="g0_238"/>
<path fill-rule="evenodd" d="M446.3,768.8H685.1v-15H446.3v15Z" class="g0_238"/>
<path fill-rule="evenodd" d="M446.7,783.9H685.1V768.8H446.7v15.1Z" class="g0_238"/>
<path fill-rule="evenodd" d="M446.7,799.1H685.1V783.9H446.7v15.2Z" class="g0_238"/>
<path fill-rule="evenodd" d="M446.3,814.1H685.1v-15H446.3v15Z" class="g0_238"/>
<path fill-rule="evenodd" d="M446.3,829.1H685.1v-15H446.3v15Z" class="g0_238"/>
<path fill-rule="evenodd" d="M446.3,844.2H685.1V829.1H446.3v15.1Z" class="g0_238"/>
<path fill-rule="evenodd" d="M445.9,859.3H685.1V844.2H445.9v15.1Z" class="g0_238"/>
<path fill-rule="evenodd" d="M445.9,874.3H685.1v-15H445.9v15Z" class="g0_238"/>
<path fill-rule="evenodd" d="M445.9,889.3H685.1v-15H445.9v15Z" class="g0_238"/>
<path fill-rule="evenodd" d="M446.7,904.4h238V889.3h-238v15.1Z" class="g0_238"/>
<path fill-rule="evenodd" d="M446.7,919.4h238v-15h-238v15Z" class="g0_238"/>
<path fill-rule="evenodd" d="M422.5,943.2H686.9V925.6H422.5v17.6Z" class="g0_238"/>
<path d="M436,151.6v499m0,85.2V916.9" class="g1_238"/>
</svg>