<?xml version="1.0" encoding="UTF-8" standalone="no"?>
<!DOCTYPE svg PUBLIC "-//W3C//DTD SVG 1.1//EN"
"http://www.w3.org/Graphics/SVG/1.1/DTD/svg11.dtd">
<svg viewBox="0 0 909 1285" version="1.1" xmlns="http://www.w3.org/2000/svg" xmlns:xlink="http://www.w3.org/1999/xlink">
<defs>
<style type="text/css"><![CDATA[
.g0_251{
fill: #FFFFFF;
}
.g1_251{
fill: none;
stroke: #000000;
stroke-width: 0.381;
stroke-linecap: butt;
stroke-linejoin: round;
}
]]></style>
</defs>
<path fill-rule="evenodd" d="M644.9,131.1h59.4V110H644.9v21.1Z" class="g0_251"/>
<path fill-rule="evenodd" d="M192.7,167.4H431.8V152.7H192.7v14.7Z" class="g0_251"/>
<path fill-rule="evenodd" d="M192.7,182.1H431.8V167.4H192.7v14.7Z" class="g0_251"/>
<path fill-rule="evenodd" d="M192.7,196.7H431.8V182.1H192.7v14.6Z" class="g0_251"/>
<path fill-rule="evenodd" d="M192.7,211.4H431.8V196.7H192.7v14.7Z" class="g0_251"/>
<path fill-rule="evenodd" d="M192.7,226.1H431.8V211.4H192.7v14.7Z" class="g0_251"/>
<path fill-rule="evenodd" d="M192.7,240.7H431.4V226.1H192.7v14.6Z" class="g0_251"/>
<path fill-rule="evenodd" d="M192.7,255.4H431.4V240.7H192.7v14.7Z" class="g0_251"/>
<path fill-rule="evenodd" d="M191.6,270.4H432.2V255.8H191.6v14.6Z" class="g0_251"/>
<path fill-rule="evenodd" d="M191.6,285.1H432.2V270.4H191.6v14.7Z" class="g0_251"/>
<path fill-rule="evenodd" d="M191.6,299.8H432.2V285.1H191.6v14.7Z" class="g0_251"/>
<path fill-rule="evenodd" d="M191.6,314.4H432.2V299.8H191.6v14.6Z" class="g0_251"/>
<path fill-rule="evenodd" d="M192.3,329.1H431.8V314.4H192.3v14.7Z" class="g0_251"/>
<path fill-rule="evenodd" d="M192.3,343.8H431.8V329.1H192.3v14.7Z" class="g0_251"/>
<path fill-rule="evenodd" d="M192.3,358.9H431.8V343.8H192.3v15.1Z" class="g0_251"/>
<path fill-rule="evenodd" d="M192.3,373.5H431.8V358.9H192.3v14.6Z" class="g0_251"/>
<path fill-rule="evenodd" d="M192.3,388.2H431.8V373.5H192.3v14.7Z" class="g0_251"/>
<path fill-rule="evenodd" d="M192.3,402.9H431.8V388.2H192.3v14.7Z" class="g0_251"/>
<path fill-rule="evenodd" d="M192.3,417.9H431.4V403.2H192.3v14.7Z" class="g0_251"/>
<path fill-rule="evenodd" d="M192.3,432.6H431.4V417.9H192.3v14.7Z" class="g0_251"/>
<path fill-rule="evenodd" d="M192,447.2H431.8V432.6H192v14.6Z" class="g0_251"/>
<path fill-rule="evenodd" d="M192,461.9H431.8V447.2H192v14.7Z" class="g0_251"/>
<path fill-rule="evenodd" d="M192,476.6H431.8V461.9H192v14.7Z" class="g0_251"/>
<path fill-rule="evenodd" d="M192,491.2H431.8V476.6H192v14.6Z" class="g0_251"/>
<path fill-rule="evenodd" d="M192,506.4H431.1V491.6H192v14.8Z" class="g0_251"/>
<path fill-rule="evenodd" d="M192,521.1H431.1V506.4H192v14.7Z" class="g0_251"/>
<path fill-rule="evenodd" d="M192,535.8H431.4V521.1H192v14.7Z" class="g0_251"/>
<path fill-rule="evenodd" d="M192,550.4H431.4V535.8H192v14.6Z" class="g0_251"/>
<path fill-rule="evenodd" d="M192,565.5H430.7V550.8H192v14.7Z" class="g0_251"/>
<path fill-rule="evenodd" d="M192,580.1H430.7V565.5H192v14.6Z" class="g0_251"/>
<path fill-rule="evenodd" d="M210.3,595.2H432.2V580.5H210.3v14.7Z" class="g0_251"/>
<path fill-rule="evenodd" d="M191.2,609.9H431.4V595.2H191.2v14.7Z" class="g0_251"/>
<path fill-rule="evenodd" d="M191.2,624.5H431.4V609.9H191.2v14.6Z" class="g0_251"/>
<path fill-rule="evenodd" d="M191.2,639.2H431.4V624.5H191.2v14.7Z" class="g0_251"/>
<path fill-rule="evenodd" d="M191.2,653.9H431.4V639.2H191.2v14.7Z" class="g0_251"/>
<path fill-rule="evenodd" d="M191.6,668.9H431.1V654.2H191.6v14.7Z" class="g0_251"/>
<path fill-rule="evenodd" d="M191.6,683.6H430.7V668.9H191.6v14.7Z" class="g0_251"/>
<path fill-rule="evenodd" d="M191.6,698.2H430.7V683.6H191.6v14.6Z" class="g0_251"/>
<path fill-rule="evenodd" d="M191.6,712.9H430.7V698.2H191.6v14.7Z" class="g0_251"/>
<path fill-rule="evenodd" d="M191.6,727.6H430.7V712.9H191.6v14.7Z" class="g0_251"/>
<path fill-rule="evenodd" d="M191.2,742.6H431.4V727.9H191.2v14.7Z" class="g0_251"/>
<path fill-rule="evenodd" d="M191.2,757.3H431.4V742.6H191.2v14.7Z" class="g0_251"/>
<path fill-rule="evenodd" d="M191.2,771.9H431.4V757.3H191.2v14.6Z" class="g0_251"/>
<path fill-rule="evenodd" d="M191.2,787H431.4V771.9H191.2V787Z" class="g0_251"/>
<path fill-rule="evenodd" d="M191.2,801.6H431.4V787H191.2v14.6Z" class="g0_251"/>
<path fill-rule="evenodd" d="M191.2,816.3H431.4V801.6H191.2v14.7Z" class="g0_251"/>
<path fill-rule="evenodd" d="M191.2,831H431.4V816.3H191.2V831Z" class="g0_251"/>
<path fill-rule="evenodd" d="M191.2,845.7H431.4V831H191.2v14.7Z" class="g0_251"/>
<path fill-rule="evenodd" d="M209.6,860.4H432.2V845.7H209.6v14.7Z" class="g0_251"/>
<path fill-rule="evenodd" d="M191.6,875.8H430.3V861.1H191.6v14.7Z" class="g0_251"/>
<path fill-rule="evenodd" d="M191.6,890.4H430.3V875.8H191.6v14.6Z" class="g0_251"/>
<path fill-rule="evenodd" d="M192.3,905.1H432.2V890.4H192.3v14.7Z" class="g0_251"/>
<path fill-rule="evenodd" d="M452.2,167.4H693.1V152.7H452.2v14.7Z" class="g0_251"/>
<path fill-rule="evenodd" d="M452.2,182.1H693.1V167.4H452.2v14.7Z" class="g0_251"/>
<path fill-rule="evenodd" d="M452.2,196.7H693.1V182.1H452.2v14.6Z" class="g0_251"/>
<path fill-rule="evenodd" d="M452.6,211.8H692.8V197.1H452.6v14.7Z" class="g0_251"/>
<path fill-rule="evenodd" d="M452.6,226.4H692.8V211.8H452.6v14.6Z" class="g0_251"/>
<path fill-rule="evenodd" d="M452.6,241.1H692.8V226.4H452.6v14.7Z" class="g0_251"/>
<path fill-rule="evenodd" d="M452.6,255.8H692.4V241.1H452.6v14.7Z" class="g0_251"/>
<path fill-rule="evenodd" d="M452.6,270.4H692.4V255.8H452.6v14.6Z" class="g0_251"/>
<path fill-rule="evenodd" d="M452.6,285.1H692.4V270.4H452.6v14.7Z" class="g0_251"/>
<path fill-rule="evenodd" d="M471.3,299.8H693.1V285.1H471.3v14.7Z" class="g0_251"/>
<path fill-rule="evenodd" d="M452.6,314.8H692.8V300.1H452.6v14.7Z" class="g0_251"/>
<path fill-rule="evenodd" d="M452.6,329.5H692.8V314.8H452.6v14.7Z" class="g0_251"/>
<path fill-rule="evenodd" d="M452.6,344.1H692.8V329.5H452.6v14.6Z" class="g0_251"/>
<path fill-rule="evenodd" d="M470.9,359.2H693.1V344.5H470.9v14.7Z" class="g0_251"/>
<path fill-rule="evenodd" d="M452.2,374.4H692.4V359.6H452.2v14.8Z" class="g0_251"/>
<path fill-rule="evenodd" d="M452.2,389.1H692.4V374.4H452.2v14.7Z" class="g0_251"/>
<path fill-rule="evenodd" d="M452.6,403.8H692V389.1H452.6v14.7Z" class="g0_251"/>
<path fill-rule="evenodd" d="M452.2,418.4H691.7V403.8H452.2v14.6Z" class="g0_251"/>
<path fill-rule="evenodd" d="M452.2,433.1H691.7V418.4H452.2v14.7Z" class="g0_251"/>
<path fill-rule="evenodd" d="M452.2,448.1H692V433.5H452.2v14.6Z" class="g0_251"/>
<path fill-rule="evenodd" d="M452.2,462.8H692V448.1H452.2v14.7Z" class="g0_251"/>
<path fill-rule="evenodd" d="M452.2,477.5H692V462.8H452.2v14.7Z" class="g0_251"/>
<path fill-rule="evenodd" d="M451.8,492.1H691.7V477.5H451.8v14.6Z" class="g0_251"/>
<path fill-rule="evenodd" d="M451.8,506.8H691.7V492.1H451.8v14.7Z" class="g0_251"/>
<path fill-rule="evenodd" d="M451.8,521.8H691.7v-15H451.8v15Z" class="g0_251"/>
<path fill-rule="evenodd" d="M451.8,536.5H691.7V521.8H451.8v14.7Z" class="g0_251"/>
<path fill-rule="evenodd" d="M451.5,551.5H691.7V536.9H451.5v14.6Z" class="g0_251"/>
<path fill-rule="evenodd" d="M451.5,566.2H691.7V551.5H451.5v14.7Z" class="g0_251"/>
<path fill-rule="evenodd" d="M451.5,580.9H691.7V566.2H451.5v14.7Z" class="g0_251"/>
<path fill-rule="evenodd" d="M451.5,595.6H691.7V580.9H451.5v14.7Z" class="g0_251"/>
<path fill-rule="evenodd" d="M451.5,610.2H691.7V595.6H451.5v14.6Z" class="g0_251"/>
<path fill-rule="evenodd" d="M451.8,625.3H691.7V610.6H451.8v14.7Z" class="g0_251"/>
<path fill-rule="evenodd" d="M451.8,639.9H691.7V625.3H451.8v14.6Z" class="g0_251"/>
<path fill-rule="evenodd" d="M451.5,654.6H691.3V639.9H451.5v14.7Z" class="g0_251"/>
<path fill-rule="evenodd" d="M451.5,669.3H691.3V654.6H451.5v14.7Z" class="g0_251"/>
<path fill-rule="evenodd" d="M451.5,683.9H691.3V669.3H451.5v14.6Z" class="g0_251"/>
<path fill-rule="evenodd" d="M451.5,698.6H691.3V683.9H451.5v14.7Z" class="g0_251"/>
<path fill-rule="evenodd" d="M451.5,713.3H690.9V698.6H451.5v14.7Z" class="g0_251"/>
<path fill-rule="evenodd" d="M451.5,727.9H690.9V713.3H451.5v14.6Z" class="g0_251"/>
<path fill-rule="evenodd" d="M451.1,743H691.3V728.3H451.1V743Z" class="g0_251"/>
<path fill-rule="evenodd" d="M451.1,757.6H691.3V743H451.1v14.6Z" class="g0_251"/>
<path fill-rule="evenodd" d="M451.5,772.3H691.7V757.6H451.5v14.7Z" class="g0_251"/>
<path fill-rule="evenodd" d="M451.5,787H691.7V772.3H451.5V787Z" class="g0_251"/>
<path fill-rule="evenodd" d="M451.5,801.6H691.7V787H451.5v14.6Z" class="g0_251"/>
<path fill-rule="evenodd" d="M470.2,816.7H693.1V802H470.2v14.7Z" class="g0_251"/>
<path fill-rule="evenodd" d="M451.1,831.3H691.7V816.7H451.1v14.6Z" class="g0_251"/>
<path fill-rule="evenodd" d="M451.1,846.1H691.7V831.3H451.1v14.8Z" class="g0_251"/>
<path fill-rule="evenodd" d="M451.1,860.7H691.7V846.1H451.1v14.6Z" class="g0_251"/>
<path fill-rule="evenodd" d="M451.1,875.4H691.7V860.7H451.1v14.7Z" class="g0_251"/>
<path fill-rule="evenodd" d="M451.1,890.1H691.7V875.4H451.1v14.7Z" class="g0_251"/>
<path fill-rule="evenodd" d="M427.8,923.1H704.3V905.5H427.8v17.6Z" class="g0_251"/>
<path d="M440.5,151.7V920.9" class="g1_251"/>
</svg>