<?xml version="1.0" encoding="UTF-8" standalone="no"?>
<!DOCTYPE svg PUBLIC "-//W3C//DTD SVG 1.1//EN"
"http://www.w3.org/Graphics/SVG/1.1/DTD/svg11.dtd">
<svg viewBox="0 0 909 1285" version="1.1" xmlns="http://www.w3.org/2000/svg" xmlns:xlink="http://www.w3.org/1999/xlink">
<defs>
<style type="text/css"><![CDATA[
.g0_297{
fill: #FFFFFF;
}
.g1_297{
fill: none;
stroke: #000000;
stroke-width: 0.381;
stroke-linecap: butt;
stroke-linejoin: round;
}
]]></style>
</defs>
<path fill-rule="evenodd" d="M255.8,131.1H756V110H255.8v21.1Z" class="g0_297"/>
<path fill-rule="evenodd" d="M255.4,167H495.3V152.4H255.4V167Z" class="g0_297"/>
<path fill-rule="evenodd" d="M255.4,181.7H495.3V167H255.4v14.7Z" class="g0_297"/>
<path fill-rule="evenodd" d="M255.4,196.7H496V182.1H255.4v14.6Z" class="g0_297"/>
<path fill-rule="evenodd" d="M255.4,211.4H496V196.7H255.4v14.7Z" class="g0_297"/>
<path fill-rule="evenodd" d="M255.4,226.1H496V211.4H255.4v14.7Z" class="g0_297"/>
<path fill-rule="evenodd" d="M255.4,240.7H496V226.1H255.4v14.6Z" class="g0_297"/>
<path fill-rule="evenodd" d="M273.8,255.8H496V241.1H273.8v14.7Z" class="g0_297"/>
<path fill-rule="evenodd" d="M254.3,270.8h241V256.1h-241v14.7Z" class="g0_297"/>
<path fill-rule="evenodd" d="M254.3,285.5h241V270.8h-241v14.7Z" class="g0_297"/>
<path fill-rule="evenodd" d="M254.3,300.1h241V285.5h-241v14.6Z" class="g0_297"/>
<path fill-rule="evenodd" d="M255.4,315.2H494.6V300.5H255.4v14.7Z" class="g0_297"/>
<path fill-rule="evenodd" d="M255.4,329.8H494.6V315.2H255.4v14.6Z" class="g0_297"/>
<path fill-rule="evenodd" d="M273.4,345.1H496V330.2H273.4v14.9Z" class="g0_297"/>
<path fill-rule="evenodd" d="M273.4,359.8H496V345.1H273.4v14.7Z" class="g0_297"/>
<path fill-rule="evenodd" d="M254.7,374.8H494.9V360.1H254.7v14.7Z" class="g0_297"/>
<path fill-rule="evenodd" d="M254.7,389.5H494.9V374.8H254.7v14.7Z" class="g0_297"/>
<path fill-rule="evenodd" d="M273.4,404.1H496V389.5H273.4v14.6Z" class="g0_297"/>
<path fill-rule="evenodd" d="M254.7,418.8H494.2V404.1H254.7v14.7Z" class="g0_297"/>
<path fill-rule="evenodd" d="M254.7,433.5H494.2V418.8H254.7v14.7Z" class="g0_297"/>
<path fill-rule="evenodd" d="M254.3,448.5H494.2V433.8H254.3v14.7Z" class="g0_297"/>
<path fill-rule="evenodd" d="M254.3,463.2H494.2V448.5H254.3v14.7Z" class="g0_297"/>
<path fill-rule="evenodd" d="M254.3,477.8H494.2V463.2H254.3v14.6Z" class="g0_297"/>
<path fill-rule="evenodd" d="M254.3,492.5H494.2V477.8H254.3v14.7Z" class="g0_297"/>
<path fill-rule="evenodd" d="M254.7,507.2H493.8V492.5H254.7v14.7Z" class="g0_297"/>
<path fill-rule="evenodd" d="M254.7,521.8H493.8V507.2H254.7v14.6Z" class="g0_297"/>
<path fill-rule="evenodd" d="M254.3,536.5H494.2V521.8H254.3v14.7Z" class="g0_297"/>
<path fill-rule="evenodd" d="M254.3,551.2H494.2V536.5H254.3v14.7Z" class="g0_297"/>
<path fill-rule="evenodd" d="M254.3,565.8H494.2V551.2H254.3v14.6Z" class="g0_297"/>
<path fill-rule="evenodd" d="M253.9,580.9H493.1V566.2H253.9v14.7Z" class="g0_297"/>
<path fill-rule="evenodd" d="M253.9,595.6H493.1V580.9H253.9v14.7Z" class="g0_297"/>
<path fill-rule="evenodd" d="M253.9,610.6H493.8V595.9H253.9v14.7Z" class="g0_297"/>
<path fill-rule="evenodd" d="M253.9,625.3H493.8V610.6H253.9v14.7Z" class="g0_297"/>
<path fill-rule="evenodd" d="M253.6,639.9H493.5V625.3H253.6v14.6Z" class="g0_297"/>
<path fill-rule="evenodd" d="M253.6,654.6H493.5V639.9H253.6v14.7Z" class="g0_297"/>
<path fill-rule="evenodd" d="M271.6,669.3H496V654.6H271.6v14.7Z" class="g0_297"/>
<path fill-rule="evenodd" d="M272,683.9H496V669.3H272v14.6Z" class="g0_297"/>
<path fill-rule="evenodd" d="M253.6,698.6H493.8V683.9H253.6v14.7Z" class="g0_297"/>
<path fill-rule="evenodd" d="M253.6,713.3H493.8V698.6H253.6v14.7Z" class="g0_297"/>
<path fill-rule="evenodd" d="M253.6,727.9H493.8V713.3H253.6v14.6Z" class="g0_297"/>
<path fill-rule="evenodd" d="M253.6,742.6H493.8V727.9H253.6v14.7Z" class="g0_297"/>
<path fill-rule="evenodd" d="M253.6,757.3H493.8V742.6H253.6v14.7Z" class="g0_297"/>
<path fill-rule="evenodd" d="M253.6,771.9H493.8V757.3H253.6v14.6Z" class="g0_297"/>
<path fill-rule="evenodd" d="M271.6,787H496V772.3H271.6V787Z" class="g0_297"/>
<path fill-rule="evenodd" d="M271.6,802H496V787H271.6v15Z" class="g0_297"/>
<path fill-rule="evenodd" d="M253.9,816.7H493.1V802H253.9v14.7Z" class="g0_297"/>
<path fill-rule="evenodd" d="M253.9,831.3H493.1V816.7H253.9v14.6Z" class="g0_297"/>
<path fill-rule="evenodd" d="M271.6,846.4H496V831.7H271.6v14.7Z" class="g0_297"/>
<path fill-rule="evenodd" d="M253.2,861.5H493.1V846.8H253.2v14.7Z" class="g0_297"/>
<path fill-rule="evenodd" d="M253.2,876.1H493.1V861.5H253.2v14.6Z" class="g0_297"/>
<path fill-rule="evenodd" d="M255.8,890.8H496V876.1H255.8v14.7Z" class="g0_297"/>
<path fill-rule="evenodd" d="M516.2,167H756V152.4H516.2V167Z" class="g0_297"/>
<path fill-rule="evenodd" d="M516.2,181.7H756V167H516.2v14.7Z" class="g0_297"/>
<path fill-rule="evenodd" d="M516.2,196.4H756V181.7H516.2v14.7Z" class="g0_297"/>
<path fill-rule="evenodd" d="M516.2,211H756V196.4H516.2V211Z" class="g0_297"/>
<path fill-rule="evenodd" d="M516.2,225.7H756V211H516.2v14.7Z" class="g0_297"/>
<path fill-rule="evenodd" d="M515.8,241.1H755.3V226.4H515.8v14.7Z" class="g0_297"/>
<path fill-rule="evenodd" d="M515.8,255.8H755.3V241.1H515.8v14.7Z" class="g0_297"/>
<path fill-rule="evenodd" d="M515.5,271.2H756V256.5H515.5v14.7Z" class="g0_297"/>
<path fill-rule="evenodd" d="M515.5,285.8H756V271.2H515.5v14.6Z" class="g0_297"/>
<path fill-rule="evenodd" d="M515.5,300.5H756V285.8H515.5v14.7Z" class="g0_297"/>
<path fill-rule="evenodd" d="M515.5,315.2H756V300.5H515.5v14.7Z" class="g0_297"/>
<path fill-rule="evenodd" d="M515.5,329.8H755.3V315.2H515.5v14.6Z" class="g0_297"/>
<path fill-rule="evenodd" d="M515.5,344.5H755.3V329.8H515.5v14.7Z" class="g0_297"/>
<path fill-rule="evenodd" d="M515.5,359.2H755.3V344.5H515.5v14.7Z" class="g0_297"/>
<path fill-rule="evenodd" d="M515.5,373.9H755.3V359.2H515.5v14.7Z" class="g0_297"/>
<path fill-rule="evenodd" d="M515.5,388.6H755.3V373.9H515.5v14.7Z" class="g0_297"/>
<path fill-rule="evenodd" d="M515.1,403.2H755.7V388.6H515.1v14.6Z" class="g0_297"/>
<path fill-rule="evenodd" d="M515.1,417.9H755.7V403.2H515.1v14.7Z" class="g0_297"/>
<path fill-rule="evenodd" d="M515.1,432.6H755.7V417.9H515.1v14.7Z" class="g0_297"/>
<path fill-rule="evenodd" d="M515.1,447.2H755.7V432.6H515.1v14.6Z" class="g0_297"/>
<path fill-rule="evenodd" d="M515.1,461.9H755.7V447.2H515.1v14.7Z" class="g0_297"/>
<path fill-rule="evenodd" d="M514.4,476.6H755.3V461.9H514.4v14.7Z" class="g0_297"/>
<path fill-rule="evenodd" d="M514.4,491.2H755.3V476.6H514.4v14.6Z" class="g0_297"/>
<path fill-rule="evenodd" d="M514.4,505.9H754.2V491.2H514.4v14.7Z" class="g0_297"/>
<path fill-rule="evenodd" d="M514.4,520.6H754.2V505.9H514.4v14.7Z" class="g0_297"/>
<path fill-rule="evenodd" d="M514.4,535.2H754.2V520.6H514.4v14.6Z" class="g0_297"/>
<path fill-rule="evenodd" d="M532.3,549.9H756V535.2H532.3v14.7Z" class="g0_297"/>
<path fill-rule="evenodd" d="M514,565.1H754.6V550.3H514v14.8Z" class="g0_297"/>
<path fill-rule="evenodd" d="M514,579.8H754.6V565.1H514v14.7Z" class="g0_297"/>
<path fill-rule="evenodd" d="M514,594.5H754.6V579.8H514v14.7Z" class="g0_297"/>
<path fill-rule="evenodd" d="M514,609.1H754.6V594.5H514v14.6Z" class="g0_297"/>
<path fill-rule="evenodd" d="M514,623.8H754.6V609.1H514v14.7Z" class="g0_297"/>
<path fill-rule="evenodd" d="M514,638.5H754.6V623.8H514v14.7Z" class="g0_297"/>
<path fill-rule="evenodd" d="M514,653.9H754.2V639.2H514v14.7Z" class="g0_297"/>
<path fill-rule="evenodd" d="M514,668.5H754.2V653.9H514v14.6Z" class="g0_297"/>
<path fill-rule="evenodd" d="M514,683.2H754.2V668.5H514v14.7Z" class="g0_297"/>
<path fill-rule="evenodd" d="M514,697.9H754.2V683.2H514v14.7Z" class="g0_297"/>
<path fill-rule="evenodd" d="M514,712.9H754.2v-15H514v15Z" class="g0_297"/>
<path fill-rule="evenodd" d="M514,727.6H754.2V712.9H514v14.7Z" class="g0_297"/>
<path fill-rule="evenodd" d="M514,742.2H754.6V727.6H514v14.6Z" class="g0_297"/>
<path fill-rule="evenodd" d="M514,756.9H754.6V742.2H514v14.7Z" class="g0_297"/>
<path fill-rule="evenodd" d="M514,771.6H754.6V756.9H514v14.7Z" class="g0_297"/>
<path fill-rule="evenodd" d="M514,786.2H754.6V771.6H514v14.6Z" class="g0_297"/>
<path fill-rule="evenodd" d="M514,800.9H754.6V786.2H514v14.7Z" class="g0_297"/>
<path fill-rule="evenodd" d="M514,815.6H754.6V800.9H514v14.7Z" class="g0_297"/>
<path fill-rule="evenodd" d="M514,830.2H754.6V815.6H514v14.6Z" class="g0_297"/>
<path fill-rule="evenodd" d="M513.6,845H754.2V830.2H513.6V845Z" class="g0_297"/>
<path fill-rule="evenodd" d="M513.6,859.6H754.2V845H513.6v14.6Z" class="g0_297"/>
<path fill-rule="evenodd" d="M513.6,874.3H754.2V859.6H513.6v14.7Z" class="g0_297"/>
<path fill-rule="evenodd" d="M490.5,908.8H756V891.2H490.5v17.6Z" class="g0_297"/>
<path d="M503.6,152.8V921.7" class="g1_297"/>
</svg>