<?xml version="1.0" encoding="UTF-8" standalone="no"?>
<!DOCTYPE svg PUBLIC "-//W3C//DTD SVG 1.1//EN"
"http://www.w3.org/Graphics/SVG/1.1/DTD/svg11.dtd">
<svg viewBox="0 0 909 1285" version="1.1" xmlns="http://www.w3.org/2000/svg" xmlns:xlink="http://www.w3.org/1999/xlink">
<defs>
<style type="text/css"><![CDATA[
.g0_99{
fill: #FFFFFF;
}
.g1_99{
fill: none;
stroke: #000000;
stroke-width: 0.381;
stroke-linecap: butt;
stroke-linejoin: round;
}
]]></style>
</defs>
<path fill-rule="evenodd" d="M272.7,134.6h498V110h-498v24.6Z" class="g0_99"/>
<path fill-rule="evenodd" d="M272,168.7H511.4V154H272v14.7Z" class="g0_99"/>
<path fill-rule="evenodd" d="M272,183.4H511.4V168.7H272v14.7Z" class="g0_99"/>
<path fill-rule="evenodd" d="M272,198H511.4V183.4H272V198Z" class="g0_99"/>
<path fill-rule="evenodd" d="M272.3,212.7H510.7V198H272.3v14.7Z" class="g0_99"/>
<path fill-rule="evenodd" d="M272.3,227.4H510.7V212.7H272.3v14.7Z" class="g0_99"/>
<path fill-rule="evenodd" d="M271.6,242.4H511.4V227.7H271.6v14.7Z" class="g0_99"/>
<path fill-rule="evenodd" d="M271.6,257.1H511.4V242.4H271.6v14.7Z" class="g0_99"/>
<path fill-rule="evenodd" d="M271.6,271.7H511.4V257.1H271.6v14.6Z" class="g0_99"/>
<path fill-rule="evenodd" d="M271.6,286.4H511.4V271.7H271.6v14.7Z" class="g0_99"/>
<path fill-rule="evenodd" d="M271.6,301.1H511.4V286.4H271.6v14.7Z" class="g0_99"/>
<path fill-rule="evenodd" d="M271.6,315.7H511.1V301.1H271.6v14.6Z" class="g0_99"/>
<path fill-rule="evenodd" d="M271.6,330.4H511.1V315.7H271.6v14.7Z" class="g0_99"/>
<path fill-rule="evenodd" d="M271.6,345.1H511.1V330.4H271.6v14.7Z" class="g0_99"/>
<path fill-rule="evenodd" d="M271.6,359.8H511.1V345.1H271.6v14.7Z" class="g0_99"/>
<path fill-rule="evenodd" d="M271.6,374.4H511.1V359.8H271.6v14.6Z" class="g0_99"/>
<path fill-rule="evenodd" d="M271.6,389.1H511.1V374.4H271.6v14.7Z" class="g0_99"/>
<path fill-rule="evenodd" d="M271.6,403.8H511.1V389.1H271.6v14.7Z" class="g0_99"/>
<path fill-rule="evenodd" d="M271.6,418.4H511.1V403.8H271.6v14.6Z" class="g0_99"/>
<path fill-rule="evenodd" d="M271.2,433.5H510V418.8H271.2v14.7Z" class="g0_99"/>
<path fill-rule="evenodd" d="M271.2,448.1H510V433.5H271.2v14.6Z" class="g0_99"/>
<path fill-rule="evenodd" d="M271.2,463.2H510.3V448.5H271.2v14.7Z" class="g0_99"/>
<path fill-rule="evenodd" d="M271.2,477.8H510.3V463.2H271.2v14.6Z" class="g0_99"/>
<path fill-rule="evenodd" d="M271.2,492.5H510V477.8H271.2v14.7Z" class="g0_99"/>
<path fill-rule="evenodd" d="M271.2,507.2H510V492.5H271.2v14.7Z" class="g0_99"/>
<path fill-rule="evenodd" d="M271.2,521.8H510V507.2H271.2v14.6Z" class="g0_99"/>
<path fill-rule="evenodd" d="M289.6,536.9H511.4V522.2H289.6v14.7Z" class="g0_99"/>
<path fill-rule="evenodd" d="M271.6,551.5H509.2V536.9H271.6v14.6Z" class="g0_99"/>
<path fill-rule="evenodd" d="M271.6,566.2H509.2V551.5H271.6v14.7Z" class="g0_99"/>
<path fill-rule="evenodd" d="M289.6,580.9H511.4V566.2H289.6v14.7Z" class="g0_99"/>
<path fill-rule="evenodd" d="M289.2,595.6H511.4V580.9H289.2v14.7Z" class="g0_99"/>
<path fill-rule="evenodd" d="M289.6,610.6H511.4V595.9H289.6v14.7Z" class="g0_99"/>
<path fill-rule="evenodd" d="M289.2,625.8H511.4V611H289.2v14.8Z" class="g0_99"/>
<path fill-rule="evenodd" d="M270.5,640.5h238V625.8h-238v14.7Z" class="g0_99"/>
<path fill-rule="evenodd" d="M270.5,655.2h238V640.5h-238v14.7Z" class="g0_99"/>
<path fill-rule="evenodd" d="M270.1,669.8H509.6V655.2H270.1v14.6Z" class="g0_99"/>
<path fill-rule="evenodd" d="M270.1,684.5H509.6V669.8H270.1v14.7Z" class="g0_99"/>
<path fill-rule="evenodd" d="M270.1,699.2H509.6V684.5H270.1v14.7Z" class="g0_99"/>
<path fill-rule="evenodd" d="M270.1,713.8H509.6V699.2H270.1v14.6Z" class="g0_99"/>
<path fill-rule="evenodd" d="M269.8,728.9H509.2V714.2H269.8v14.7Z" class="g0_99"/>
<path fill-rule="evenodd" d="M269.8,743.5H509.2V728.9H269.8v14.6Z" class="g0_99"/>
<path fill-rule="evenodd" d="M269.8,758.2H509.2V743.5H269.8v14.7Z" class="g0_99"/>
<path fill-rule="evenodd" d="M269.8,772.9H509.2V758.2H269.8v14.7Z" class="g0_99"/>
<path fill-rule="evenodd" d="M270.1,787.5H508.5V772.9H270.1v14.6Z" class="g0_99"/>
<path fill-rule="evenodd" d="M270.1,802.2H508.5V787.5H270.1v14.7Z" class="g0_99"/>
<path fill-rule="evenodd" d="M269.8,817.2H508.5V802.6H269.8v14.6Z" class="g0_99"/>
<path fill-rule="evenodd" d="M269.8,831.9H508.5V817.2H269.8v14.7Z" class="g0_99"/>
<path fill-rule="evenodd" d="M269.8,846.6H508.5V831.9H269.8v14.7Z" class="g0_99"/>
<path fill-rule="evenodd" d="M269.8,862H508.1V847.3H269.8V862Z" class="g0_99"/>
<path fill-rule="evenodd" d="M269.8,876.7H508.1V862H269.8v14.7Z" class="g0_99"/>
<path fill-rule="evenodd" d="M269.8,891.7H508.9V877H269.8v14.7Z" class="g0_99"/>
<path fill-rule="evenodd" d="M269.8,906.4H508.9V891.7H269.8v14.7Z" class="g0_99"/>
<path fill-rule="evenodd" d="M272.3,921H511.4V906.4H272.3V921Z" class="g0_99"/>
<path fill-rule="evenodd" d="M531.6,168.7H770.7V154H531.6v14.7Z" class="g0_99"/>
<path fill-rule="evenodd" d="M531.6,183.4H770.7V168.7H531.6v14.7Z" class="g0_99"/>
<path fill-rule="evenodd" d="M531.6,198H770.7V183.4H531.6V198Z" class="g0_99"/>
<path fill-rule="evenodd" d="M531.6,212.7H770.7V198H531.6v14.7Z" class="g0_99"/>
<path fill-rule="evenodd" d="M531.6,227.4H770.7V212.7H531.6v14.7Z" class="g0_99"/>
<path fill-rule="evenodd" d="M531.6,242H770.7V227.4H531.6V242Z" class="g0_99"/>
<path fill-rule="evenodd" d="M531.2,256.7H770V242H531.2v14.7Z" class="g0_99"/>
<path fill-rule="evenodd" d="M531.2,271.4H770V256.7H531.2v14.7Z" class="g0_99"/>
<path fill-rule="evenodd" d="M531.2,286H770V271.4H531.2V286Z" class="g0_99"/>
<path fill-rule="evenodd" d="M531.2,301.4H770V286H531.2v15.4Z" class="g0_99"/>
<path fill-rule="evenodd" d="M531.2,316.1H770V301.4H531.2v14.7Z" class="g0_99"/>
<path fill-rule="evenodd" d="M531.2,330.8H770V316.1H531.2v14.7Z" class="g0_99"/>
<path fill-rule="evenodd" d="M530.9,345.8H770V331.1H530.9v14.7Z" class="g0_99"/>
<path fill-rule="evenodd" d="M530.9,360.5H770V345.8H530.9v14.7Z" class="g0_99"/>
<path fill-rule="evenodd" d="M530.9,375.2H770V360.5H530.9v14.7Z" class="g0_99"/>
<path fill-rule="evenodd" d="M531.2,390.2h238V375.5h-238v14.7Z" class="g0_99"/>
<path fill-rule="evenodd" d="M531.2,404.9h238V390.2h-238v14.7Z" class="g0_99"/>
<path fill-rule="evenodd" d="M530.9,420.5H769.6V405.6H530.9v14.9Z" class="g0_99"/>
<path fill-rule="evenodd" d="M530.9,435.1H769.6V420.5H530.9v14.6Z" class="g0_99"/>
<path fill-rule="evenodd" d="M530.1,450.2H769.2V435.5H530.1v14.7Z" class="g0_99"/>
<path fill-rule="evenodd" d="M530.1,464.8H769.2V450.2H530.1v14.6Z" class="g0_99"/>
<path fill-rule="evenodd" d="M530.1,479.5H769.2V464.8H530.1v14.7Z" class="g0_99"/>
<path fill-rule="evenodd" d="M530.1,494.2H769.2V479.5H530.1v14.7Z" class="g0_99"/>
<path fill-rule="evenodd" d="M530.1,508.8H769.2V494.2H530.1v14.6Z" class="g0_99"/>
<path fill-rule="evenodd" d="M530.1,523.5H769.2V508.8H530.1v14.7Z" class="g0_99"/>
<path fill-rule="evenodd" d="M530.1,538.2H769.2V523.5H530.1v14.7Z" class="g0_99"/>
<path fill-rule="evenodd" d="M530.1,552.8H769.2V538.2H530.1v14.6Z" class="g0_99"/>
<path fill-rule="evenodd" d="M530.1,567.5H769.2V552.8H530.1v14.7Z" class="g0_99"/>
<path fill-rule="evenodd" d="M530.1,582.2H769.2V567.5H530.1v14.7Z" class="g0_99"/>
<path fill-rule="evenodd" d="M530.1,596.9H769.2V582.2H530.1v14.7Z" class="g0_99"/>
<path fill-rule="evenodd" d="M530.1,611.9H768.9V597.2H530.1v14.7Z" class="g0_99"/>
<path fill-rule="evenodd" d="M530.1,626.6H768.9V611.9H530.1v14.7Z" class="g0_99"/>
<path fill-rule="evenodd" d="M529.4,641.6H768.9V626.9H529.4v14.7Z" class="g0_99"/>
<path fill-rule="evenodd" d="M529.4,656.3H768.9V641.6H529.4v14.7Z" class="g0_99"/>
<path fill-rule="evenodd" d="M529.4,670.9H768.9V656.3H529.4v14.6Z" class="g0_99"/>
<path fill-rule="evenodd" d="M529.4,685.6H768.9V670.9H529.4v14.7Z" class="g0_99"/>
<path fill-rule="evenodd" d="M529.4,700.3H768.9V685.6H529.4v14.7Z" class="g0_99"/>
<path fill-rule="evenodd" d="M529.4,714.9H768.9V700.3H529.4v14.6Z" class="g0_99"/>
<path fill-rule="evenodd" d="M529.4,729.6H768.9V714.9H529.4v14.7Z" class="g0_99"/>
<path fill-rule="evenodd" d="M529.4,744.3H768.9V729.6H529.4v14.7Z" class="g0_99"/>
<path fill-rule="evenodd" d="M547.4,759.3H770.7V744.6H547.4v14.7Z" class="g0_99"/>
<path fill-rule="evenodd" d="M529.8,774H768.5V759.3H529.8V774Z" class="g0_99"/>
<path fill-rule="evenodd" d="M529.8,788.6H768.5V774H529.8v14.6Z" class="g0_99"/>
<path fill-rule="evenodd" d="M529.4,803.3H767.8V788.6H529.4v14.7Z" class="g0_99"/>
<path fill-rule="evenodd" d="M529.4,818H767.8V803.3H529.4V818Z" class="g0_99"/>
<path fill-rule="evenodd" d="M547.7,833h223V818.3h-223V833Z" class="g0_99"/>
<path fill-rule="evenodd" d="M529.4,848.1H767.8V833.4H529.4v14.7Z" class="g0_99"/>
<path fill-rule="evenodd" d="M529.4,862.7H767.8V848.1H529.4v14.6Z" class="g0_99"/>
<path fill-rule="evenodd" d="M529,877.4H768.1V862.7H529v14.7Z" class="g0_99"/>
<path fill-rule="evenodd" d="M529,892.1H768.1V877.4H529v14.7Z" class="g0_99"/>
<path d="M206.9,140.4V260.3m.4,186.3V979.3m1.2,-873V516.2m1,-113.2v48.7M518.6,154.8V922.5" class="g1_99"/>
</svg>