<?xml version="1.0" encoding="UTF-8" standalone="no"?>
<!DOCTYPE svg PUBLIC "-//W3C//DTD SVG 1.1//EN"
"http://www.w3.org/Graphics/SVG/1.1/DTD/svg11.dtd">
<svg viewBox="0 0 909 1285" version="1.1" xmlns="http://www.w3.org/2000/svg" xmlns:xlink="http://www.w3.org/1999/xlink">
<defs>
<style type="text/css"><![CDATA[
.g0_106{
fill: #FFFFFF;
}
.g1_106{
fill: none;
stroke: #000000;
stroke-width: 0.381;
stroke-linecap: butt;
stroke-linejoin: round;
}
]]></style>
</defs>
<path fill-rule="evenodd" d="M593.4,125.8h88.4V110H593.4v15.8Z" class="g0_106"/>
<path fill-rule="evenodd" d="M181.2,161.7H421V147.1H181.2v14.6Z" class="g0_106"/>
<path fill-rule="evenodd" d="M181.2,176.4H421V161.7H181.2v14.7Z" class="g0_106"/>
<path fill-rule="evenodd" d="M181.2,191.1H421V176.4H181.2v14.7Z" class="g0_106"/>
<path fill-rule="evenodd" d="M181.2,205.7H421V191.1H181.2v14.6Z" class="g0_106"/>
<path fill-rule="evenodd" d="M181.2,220.4H421V205.7H181.2v14.7Z" class="g0_106"/>
<path fill-rule="evenodd" d="M181.2,235.1H421V220.4H181.2v14.7Z" class="g0_106"/>
<path fill-rule="evenodd" d="M181.2,249.7H421V235.1H181.2v14.6Z" class="g0_106"/>
<path fill-rule="evenodd" d="M181.2,264.4H421V249.7H181.2v14.7Z" class="g0_106"/>
<path fill-rule="evenodd" d="M181.5,279.1H420.6V264.4H181.5v14.7Z" class="g0_106"/>
<path fill-rule="evenodd" d="M181.5,293.7H420.6V279.1H181.5v14.6Z" class="g0_106"/>
<path fill-rule="evenodd" d="M181.5,308.4H420.6V293.7H181.5v14.7Z" class="g0_106"/>
<path fill-rule="evenodd" d="M180.8,323.4H420.6V308.8H180.8v14.6Z" class="g0_106"/>
<path fill-rule="evenodd" d="M180.8,338.1H420.6V323.4H180.8v14.7Z" class="g0_106"/>
<path fill-rule="evenodd" d="M180.8,352.8H420.6V338.1H180.8v14.7Z" class="g0_106"/>
<path fill-rule="evenodd" d="M180.8,367.5H420.6V352.8H180.8v14.7Z" class="g0_106"/>
<path fill-rule="evenodd" d="M180.8,382.1H420.6V367.5H180.8v14.6Z" class="g0_106"/>
<path fill-rule="evenodd" d="M180.8,396.8H420.3V382.1H180.8v14.7Z" class="g0_106"/>
<path fill-rule="evenodd" d="M180.8,411.5H420.3V396.8H180.8v14.7Z" class="g0_106"/>
<path fill-rule="evenodd" d="M180.8,426.1H420.3V411.5H180.8v14.6Z" class="g0_106"/>
<path fill-rule="evenodd" d="M180.4,441.2H420.3V426.5H180.4v14.7Z" class="g0_106"/>
<path fill-rule="evenodd" d="M180.4,455.8H420.3V441.2H180.4v14.6Z" class="g0_106"/>
<path fill-rule="evenodd" d="M180.4,470.5H420.3V455.8H180.4v14.7Z" class="g0_106"/>
<path fill-rule="evenodd" d="M180.4,485.2H420.3V470.5H180.4v14.7Z" class="g0_106"/>
<path fill-rule="evenodd" d="M180.1,499.8H420.3V485.2H180.1v14.6Z" class="g0_106"/>
<path fill-rule="evenodd" d="M180.1,514.5H420.3V499.8H180.1v14.7Z" class="g0_106"/>
<path fill-rule="evenodd" d="M180.1,529.2H420.3V514.5H180.1v14.7Z" class="g0_106"/>
<path fill-rule="evenodd" d="M180.1,543.8H420.3V529.2H180.1v14.6Z" class="g0_106"/>
<path fill-rule="evenodd" d="M180.1,558.5H420.3V543.8H180.1v14.7Z" class="g0_106"/>
<path fill-rule="evenodd" d="M180.1,573.2H420.3V558.5H180.1v14.7Z" class="g0_106"/>
<path fill-rule="evenodd" d="M180.4,587.8H419.2V573.2H180.4v14.6Z" class="g0_106"/>
<path fill-rule="evenodd" d="M180.4,602.5H419.2V587.8H180.4v14.7Z" class="g0_106"/>
<path fill-rule="evenodd" d="M198.8,617.6H421V602.9H198.8v14.7Z" class="g0_106"/>
<path fill-rule="evenodd" d="M180.4,632.2H421V617.6H180.4v14.6Z" class="g0_106"/>
<path fill-rule="evenodd" d="M179.7,646.9H419.2V632.2H179.7v14.7Z" class="g0_106"/>
<path fill-rule="evenodd" d="M179.7,661.6H419.2V646.9H179.7v14.7Z" class="g0_106"/>
<path fill-rule="evenodd" d="M180.1,677.2H419.2V662.3H180.1v14.9Z" class="g0_106"/>
<path fill-rule="evenodd" d="M180.1,691.8H419.2V677.2H180.1v14.6Z" class="g0_106"/>
<path fill-rule="evenodd" d="M180.1,706.5H419.2V691.8H180.1v14.7Z" class="g0_106"/>
<path fill-rule="evenodd" d="M180.1,721.2H419.2V706.5H180.1v14.7Z" class="g0_106"/>
<path fill-rule="evenodd" d="M180.1,735.8H419.2V721.2H180.1v14.6Z" class="g0_106"/>
<path fill-rule="evenodd" d="M198,750.5H421V735.8H198v14.7Z" class="g0_106"/>
<path fill-rule="evenodd" d="M198,765.9H421V750.5H198v15.4Z" class="g0_106"/>
<path fill-rule="evenodd" d="M180.1,780.6H418.8V765.9H180.1v14.7Z" class="g0_106"/>
<path fill-rule="evenodd" d="M180.1,795.2H418.8V780.6H180.1v14.6Z" class="g0_106"/>
<path fill-rule="evenodd" d="M179.7,810.6H419.2V796H179.7v14.6Z" class="g0_106"/>
<path fill-rule="evenodd" d="M179.7,825.3H419.2V810.6H179.7v14.7Z" class="g0_106"/>
<path fill-rule="evenodd" d="M179.7,840H419.2V825.3H179.7V840Z" class="g0_106"/>
<path fill-rule="evenodd" d="M179.7,854.7H419.2V840H179.7v14.7Z" class="g0_106"/>
<path fill-rule="evenodd" d="M179.7,869.3H419.2V854.7H179.7v14.6Z" class="g0_106"/>
<path fill-rule="evenodd" d="M179.7,884.4H418.8V869.7H179.7v14.7Z" class="g0_106"/>
<path fill-rule="evenodd" d="M179.7,899H418.8V884.4H179.7V899Z" class="g0_106"/>
<path fill-rule="evenodd" d="M201,913.7H421V899H201v14.7Z" class="g0_106"/>
<path fill-rule="evenodd" d="M460.1,161.7H681.6V147.1H460.1v14.6Z" class="g0_106"/>
<path fill-rule="evenodd" d="M441.4,176.8H680.9V162.1H441.4v14.7Z" class="g0_106"/>
<path fill-rule="evenodd" d="M441.4,191.4H680.9V176.8H441.4v14.6Z" class="g0_106"/>
<path fill-rule="evenodd" d="M441.4,206.5H680.9V191.4H441.4v15.1Z" class="g0_106"/>
<path fill-rule="evenodd" d="M441.4,221.1H680.9V206.5H441.4v14.6Z" class="g0_106"/>
<path fill-rule="evenodd" d="M441,235.8H681.6V221.1H441v14.7Z" class="g0_106"/>
<path fill-rule="evenodd" d="M441,250.5H681.6V235.8H441v14.7Z" class="g0_106"/>
<path fill-rule="evenodd" d="M441,265.1H681.6V250.5H441v14.6Z" class="g0_106"/>
<path fill-rule="evenodd" d="M441,279.8H681.6V265.1H441v14.7Z" class="g0_106"/>
<path fill-rule="evenodd" d="M441,294.5H681.6V279.8H441v14.7Z" class="g0_106"/>
<path fill-rule="evenodd" d="M441,309.1H680.9V294.5H441v14.6Z" class="g0_106"/>
<path fill-rule="evenodd" d="M441,323.8H680.9V309.1H441v14.7Z" class="g0_106"/>
<path fill-rule="evenodd" d="M440.3,338.8H681.2V324.2H440.3v14.6Z" class="g0_106"/>
<path fill-rule="evenodd" d="M440.3,353.5H681.2V338.8H440.3v14.7Z" class="g0_106"/>
<path fill-rule="evenodd" d="M440.3,368.2H681.2V353.5H440.3v14.7Z" class="g0_106"/>
<path fill-rule="evenodd" d="M440.3,382.9H681.2V368.2H440.3v14.7Z" class="g0_106"/>
<path fill-rule="evenodd" d="M440.3,397.5H681.2V382.9H440.3v14.6Z" class="g0_106"/>
<path fill-rule="evenodd" d="M440.3,412.2H681.2V397.5H440.3v14.7Z" class="g0_106"/>
<path fill-rule="evenodd" d="M440.3,426.9H681.2V412.2H440.3v14.7Z" class="g0_106"/>
<path fill-rule="evenodd" d="M440.3,441.9H680.9V427.2H440.3v14.7Z" class="g0_106"/>
<path fill-rule="evenodd" d="M440.3,456.6H680.9V441.9H440.3v14.7Z" class="g0_106"/>
<path fill-rule="evenodd" d="M440.3,471.2H680.9V456.6H440.3v14.6Z" class="g0_106"/>
<path fill-rule="evenodd" d="M440.6,486.5H680.1V471.6H440.6v14.9Z" class="g0_106"/>
<path fill-rule="evenodd" d="M440.6,501.1H680.1V486.5H440.6v14.6Z" class="g0_106"/>
<path fill-rule="evenodd" d="M459,515.8H681.6V501.1H459v14.7Z" class="g0_106"/>
<path fill-rule="evenodd" d="M439.9,531.2H680.5V516.5H439.9v14.7Z" class="g0_106"/>
<path fill-rule="evenodd" d="M439.9,545.9H680.5V531.2H439.9v14.7Z" class="g0_106"/>
<path fill-rule="evenodd" d="M439.9,560.5H680.5V545.9H439.9v14.6Z" class="g0_106"/>
<path fill-rule="evenodd" d="M439.9,575.2H680.5V560.5H439.9v14.7Z" class="g0_106"/>
<path fill-rule="evenodd" d="M439.9,589.9H680.5V575.2H439.9v14.7Z" class="g0_106"/>
<path fill-rule="evenodd" d="M439.9,604.6H679.8V589.9H439.9v14.7Z" class="g0_106"/>
<path fill-rule="evenodd" d="M439.9,619.2H679.8V604.6H439.9v14.6Z" class="g0_106"/>
<path fill-rule="evenodd" d="M439.9,633.9H679.8V619.2H439.9v14.7Z" class="g0_106"/>
<path fill-rule="evenodd" d="M439.9,648.6H679.8V633.9H439.9v14.7Z" class="g0_106"/>
<path fill-rule="evenodd" d="M439.2,663.2H679.8V648.6H439.2v14.6Z" class="g0_106"/>
<path fill-rule="evenodd" d="M439.2,677.9H679.8V663.2H439.2v14.7Z" class="g0_106"/>
<path fill-rule="evenodd" d="M458.3,692.9H681.6V678.3H458.3v14.6Z" class="g0_106"/>
<path fill-rule="evenodd" d="M439.5,708H679.8V693.3H439.5V708Z" class="g0_106"/>
<path fill-rule="evenodd" d="M439.5,722.6H679.8V708H439.5v14.6Z" class="g0_106"/>
<path fill-rule="evenodd" d="M439.5,737.3H679.8V722.6H439.5v14.7Z" class="g0_106"/>
<path fill-rule="evenodd" d="M439.5,752H680.1V737.3H439.5V752Z" class="g0_106"/>
<path fill-rule="evenodd" d="M439.5,766.6H680.1V752H439.5v14.6Z" class="g0_106"/>
<path fill-rule="evenodd" d="M439.5,781.7H679V767H439.5v14.7Z" class="g0_106"/>
<path fill-rule="evenodd" d="M439.5,796.3H679V781.7H439.5v14.6Z" class="g0_106"/>
<path fill-rule="evenodd" d="M439.2,811.4H679.4V796.7H439.2v14.7Z" class="g0_106"/>
<path fill-rule="evenodd" d="M439.2,826H679.4V811.4H439.2V826Z" class="g0_106"/>
<path fill-rule="evenodd" d="M439.2,840.7H679.4V826H439.2v14.7Z" class="g0_106"/>
<path fill-rule="evenodd" d="M439.2,855.4H679.4V840.7H439.2v14.7Z" class="g0_106"/>
<path fill-rule="evenodd" d="M457.9,870.4H681.6V855.8H457.9v14.6Z" class="g0_106"/>
<path fill-rule="evenodd" d="M438.8,885.1H679V870.4H438.8v14.7Z" class="g0_106"/>
<path fill-rule="evenodd" d="M438.8,899.8H679V885.1H438.8v14.7Z" class="g0_106"/>
<path fill-rule="evenodd" d="M417,932.4H681.8V914.8H417v17.6Z" class="g0_106"/>
<path d="M428.2,146.3V914.5" class="g1_106"/>
</svg>