<?xml version="1.0" encoding="UTF-8" standalone="no"?>
<!DOCTYPE svg PUBLIC "-//W3C//DTD SVG 1.1//EN"
"http://www.w3.org/Graphics/SVG/1.1/DTD/svg11.dtd">
<svg viewBox="0 0 909 1285" version="1.1" xmlns="http://www.w3.org/2000/svg" xmlns:xlink="http://www.w3.org/1999/xlink">
<defs>
<style type="text/css"><![CDATA[
.g0_175{
fill: #FFFFFF;
}
.g1_175{
fill: none;
stroke: #000000;
stroke-width: 0.381;
stroke-linecap: butt;
stroke-linejoin: round;
}
]]></style>
</defs>
<path fill-rule="evenodd" d="M632.5,125.8h59.4V110H632.5v15.8Z" class="g0_175"/>
<path fill-rule="evenodd" d="M192.3,161.4h238V146.3h-238v15.1Z" class="g0_175"/>
<path fill-rule="evenodd" d="M192.3,176.4h238v-15h-238v15Z" class="g0_175"/>
<path fill-rule="evenodd" d="M192,191.6H430.3V176.4H192v15.2Z" class="g0_175"/>
<path fill-rule="evenodd" d="M192,206.6H430.3v-15H192v15Z" class="g0_175"/>
<path fill-rule="evenodd" d="M192,221.7H429.6V206.6H192v15.1Z" class="g0_175"/>
<path fill-rule="evenodd" d="M192,236.7H429.6v-15H192v15Z" class="g0_175"/>
<path fill-rule="evenodd" d="M209.9,251.4H430.3V236.7H209.9v14.7Z" class="g0_175"/>
<path fill-rule="evenodd" d="M468.5,163.2H690.8V148.5H468.5v14.7Z" class="g0_175"/>
<path fill-rule="evenodd" d="M450.6,177.9H689.7V163.2H450.6v14.7Z" class="g0_175"/>
<path fill-rule="evenodd" d="M450.6,192.5H689.7V177.9H450.6v14.6Z" class="g0_175"/>
<path fill-rule="evenodd" d="M468.9,207.2H690.8V192.5H468.9v14.7Z" class="g0_175"/>
<path fill-rule="evenodd" d="M468.5,222.2H690.8V207.6H468.5v14.6Z" class="g0_175"/>
<path fill-rule="evenodd" d="M450.9,236.9H689.7V222.2H450.9v14.7Z" class="g0_175"/>
<path fill-rule="evenodd" d="M450.9,251.6H689.7V236.9H450.9v14.7Z" class="g0_175"/>
<path fill-rule="evenodd" d="M424.5,325.3H691.9v-25H424.5v25Z" class="g0_175"/>
<path fill-rule="evenodd" d="M190.9,364.9h238V349.8h-238v15.1Z" class="g0_175"/>
<path fill-rule="evenodd" d="M190.9,379.9h238v-15h-238v15Z" class="g0_175"/>
<path fill-rule="evenodd" d="M190.9,395.2h238V379.9h-238v15.3Z" class="g0_175"/>
<path fill-rule="evenodd" d="M190.9,410.2h238v-15h-238v15Z" class="g0_175"/>
<path fill-rule="evenodd" d="M190.9,425.2h238v-15h-238v15Z" class="g0_175"/>
<path fill-rule="evenodd" d="M190.9,440.3h238V425.2h-238v15.1Z" class="g0_175"/>
<path fill-rule="evenodd" d="M190.9,455.3h238v-15h-238v15Z" class="g0_175"/>
<path fill-rule="evenodd" d="M190.9,470.3H428.5v-15H190.9v15Z" class="g0_175"/>
<path fill-rule="evenodd" d="M190.9,485.4H428.5V470.3H190.9v15.1Z" class="g0_175"/>
<path fill-rule="evenodd" d="M190.9,500.4H428.5v-15H190.9v15Z" class="g0_175"/>
<path fill-rule="evenodd" d="M189.4,515.4H428.5v-15H189.4v15Z" class="g0_175"/>
<path fill-rule="evenodd" d="M189.4,530.5H428.5V515.4H189.4v15.1Z" class="g0_175"/>
<path fill-rule="evenodd" d="M189.4,545.5H428.5v-15H189.4v15Z" class="g0_175"/>
<path fill-rule="evenodd" d="M190.9,560.7H428.1V545.5H190.9v15.2Z" class="g0_175"/>
<path fill-rule="evenodd" d="M190.9,575.7H428.1v-15H190.9v15Z" class="g0_175"/>
<path fill-rule="evenodd" d="M189.8,590.8h238V575.7h-238v15.1Z" class="g0_175"/>
<path fill-rule="evenodd" d="M189.8,605.8h238v-15h-238v15Z" class="g0_175"/>
<path fill-rule="evenodd" d="M189.8,620.9h238V605.8h-238v15.1Z" class="g0_175"/>
<path fill-rule="evenodd" d="M189.8,635.9H428.5v-15H189.8v15Z" class="g0_175"/>
<path fill-rule="evenodd" d="M189.8,650.9H428.5v-15H189.8v15Z" class="g0_175"/>
<path fill-rule="evenodd" d="M189.8,666H428.5V650.9H189.8V666Z" class="g0_175"/>
<path fill-rule="evenodd" d="M189.8,681H428.5V666H189.8v15Z" class="g0_175"/>
<path fill-rule="evenodd" d="M189.4,696H427.8V681H189.4v15Z" class="g0_175"/>
<path fill-rule="evenodd" d="M189.4,711.1H427.8V696H189.4v15.1Z" class="g0_175"/>
<path fill-rule="evenodd" d="M189.4,726.1H427.8v-15H189.4v15Z" class="g0_175"/>
<path fill-rule="evenodd" d="M189.4,741.3H427.8V726.1H189.4v15.2Z" class="g0_175"/>
<path fill-rule="evenodd" d="M189.4,756.4H427.8V741.3H189.4v15.1Z" class="g0_175"/>
<path fill-rule="evenodd" d="M189.4,771.4H427.8v-15H189.4v15Z" class="g0_175"/>
<path fill-rule="evenodd" d="M188.7,786.4H427.4v-15H188.7v15Z" class="g0_175"/>
<path fill-rule="evenodd" d="M188.7,801.5H427.4V786.4H188.7v15.1Z" class="g0_175"/>
<path fill-rule="evenodd" d="M188.7,816.5H427.4v-15H188.7v15Z" class="g0_175"/>
<path fill-rule="evenodd" d="M188.7,831.5H427.4v-15H188.7v15Z" class="g0_175"/>
<path fill-rule="evenodd" d="M188.7,846.6H427.4V831.5H188.7v15.1Z" class="g0_175"/>
<path fill-rule="evenodd" d="M189,861.6H427.4v-15H189v15Z" class="g0_175"/>
<path fill-rule="evenodd" d="M189,876.7H427.4V861.6H189v15.1Z" class="g0_175"/>
<path fill-rule="evenodd" d="M189,891.7H427.4v-15H189v15Z" class="g0_175"/>
<path fill-rule="evenodd" d="M189,906.7H427.4v-15H189v15Z" class="g0_175"/>
<path fill-rule="evenodd" d="M190.5,922H428.9V906.7H190.5V922Z" class="g0_175"/>
<path fill-rule="evenodd" d="M450.2,364.5H691.9v-15H450.2v15Z" class="g0_175"/>
<path fill-rule="evenodd" d="M450.2,379.6H691.9V364.5H450.2v15.1Z" class="g0_175"/>
<path fill-rule="evenodd" d="M450.2,394.8H691.9V379.6H450.2v15.2Z" class="g0_175"/>
<path fill-rule="evenodd" d="M450.2,409.8H691.9v-15H450.2v15Z" class="g0_175"/>
<path fill-rule="evenodd" d="M450.2,424.9H691.9V409.8H450.2v15.1Z" class="g0_175"/>
<path fill-rule="evenodd" d="M450.2,439.9H691.9v-15H450.2v15Z" class="g0_175"/>
<path fill-rule="evenodd" d="M450.2,454.9H691.9v-15H450.2v15Z" class="g0_175"/>
<path fill-rule="evenodd" d="M450.2,470H691.5V454.9H450.2V470Z" class="g0_175"/>
<path fill-rule="evenodd" d="M450.2,485H691.5V470H450.2v15Z" class="g0_175"/>
<path fill-rule="evenodd" d="M450.2,500H691.5V485H450.2v15Z" class="g0_175"/>
<path fill-rule="evenodd" d="M449.8,515.1H691.1V500H449.8v15.1Z" class="g0_175"/>
<path fill-rule="evenodd" d="M449.8,530.1H691.1v-15H449.8v15Z" class="g0_175"/>
<path fill-rule="evenodd" d="M449.8,545.1H691.1v-15H449.8v15Z" class="g0_175"/>
<path fill-rule="evenodd" d="M449.1,560.2H690.8V545.1H449.1v15.1Z" class="g0_175"/>
<path fill-rule="evenodd" d="M449.1,575.4H690.8V560.2H449.1v15.2Z" class="g0_175"/>
<path fill-rule="evenodd" d="M449.1,590.4H690.8v-15H449.1v15Z" class="g0_175"/>
<path fill-rule="evenodd" d="M449.1,605.5H690.8V590.4H449.1v15.1Z" class="g0_175"/>
<path fill-rule="evenodd" d="M449.1,620.5H690.8v-15H449.1v15Z" class="g0_175"/>
<path fill-rule="evenodd" d="M449.1,635.5H690.8v-15H449.1v15Z" class="g0_175"/>
<path fill-rule="evenodd" d="M449.1,650.6H690.8V635.5H449.1v15.1Z" class="g0_175"/>
<path fill-rule="evenodd" d="M449.1,665.6H690.8v-15H449.1v15Z" class="g0_175"/>
<path fill-rule="evenodd" d="M449.1,680.6H690.8v-15H449.1v15Z" class="g0_175"/>
<path fill-rule="evenodd" d="M449.1,695.7H690.8V680.6H449.1v15.1Z" class="g0_175"/>
<path fill-rule="evenodd" d="M449.1,710.7H690.8v-15H449.1v15Z" class="g0_175"/>
<path fill-rule="evenodd" d="M449.1,725.7H690v-15H449.1v15Z" class="g0_175"/>
<path fill-rule="evenodd" d="M449.1,740.8H690V725.7H449.1v15.1Z" class="g0_175"/>
<path fill-rule="evenodd" d="M449.1,756H689.7V740.8H449.1V756Z" class="g0_175"/>
<path fill-rule="evenodd" d="M449.1,771H689.7V756H449.1v15Z" class="g0_175"/>
<path fill-rule="evenodd" d="M449.1,786.1H689.7V771H449.1v15.1Z" class="g0_175"/>
<path fill-rule="evenodd" d="M448.7,801.1H690v-15H448.7v15Z" class="g0_175"/>
<path fill-rule="evenodd" d="M448.7,816.1H690v-15H448.7v15Z" class="g0_175"/>
<path fill-rule="evenodd" d="M467.1,831.2H691.9V816.1H467.1v15.1Z" class="g0_175"/>
<path fill-rule="evenodd" d="M448.3,846.2H690.4v-15H448.3v15Z" class="g0_175"/>
<path fill-rule="evenodd" d="M448.3,861.3H690.4V846.2H448.3v15.1Z" class="g0_175"/>
<path fill-rule="evenodd" d="M448.3,876.3H690.4v-15H448.3v15Z" class="g0_175"/>
<path fill-rule="evenodd" d="M448.3,891.3H690.4v-15H448.3v15Z" class="g0_175"/>
<path fill-rule="evenodd" d="M448.3,906.4H690.4V891.3H448.3v15.1Z" class="g0_175"/>
<path fill-rule="evenodd" d="M426,938.1H691.9v-16H426v16Z" class="g0_175"/>
<path d="M439.5,146V277.2m-2.2,71.2V913.1" class="g1_175"/>
</svg>