<?xml version="1.0" encoding="UTF-8" standalone="no"?>
<!DOCTYPE svg PUBLIC "-//W3C//DTD SVG 1.1//EN"
"http://www.w3.org/Graphics/SVG/1.1/DTD/svg11.dtd">
<svg viewBox="0 0 909 1285" version="1.1" xmlns="http://www.w3.org/2000/svg" xmlns:xlink="http://www.w3.org/1999/xlink">
<defs>
<style type="text/css"><![CDATA[
.g0_120{
fill: #FFFFFF;
}
.g1_120{
fill: none;
stroke: #000000;
stroke-width: 0.381;
stroke-linecap: butt;
stroke-linejoin: round;
}
]]></style>
</defs>
<path fill-rule="evenodd" d="M267,127.6H768.3V110H267v17.6Z" class="g0_120"/>
<path fill-rule="evenodd" d="M267,163.2H507.2v-15H267v15Z" class="g0_120"/>
<path fill-rule="evenodd" d="M267,178.2H507.2v-15H267v15Z" class="g0_120"/>
<path fill-rule="evenodd" d="M267,193.3H507.2V178.2H267v15.1Z" class="g0_120"/>
<path fill-rule="evenodd" d="M267,208.3H507.2v-15H267v15Z" class="g0_120"/>
<path fill-rule="evenodd" d="M285.3,223.3H507.6v-15H285.3v15Z" class="g0_120"/>
<path fill-rule="evenodd" d="M266.6,238.4H507.2V223.3H266.6v15.1Z" class="g0_120"/>
<path fill-rule="evenodd" d="M266.6,253.4H507.2v-15H266.6v15Z" class="g0_120"/>
<path fill-rule="evenodd" d="M266.6,268.6H507.2V253.4H266.6v15.2Z" class="g0_120"/>
<path fill-rule="evenodd" d="M266.2,283.6h241v-15h-241v15Z" class="g0_120"/>
<path fill-rule="evenodd" d="M266.2,298.7h241V283.6h-241v15.1Z" class="g0_120"/>
<path fill-rule="evenodd" d="M266.2,313.7h241v-15h-241v15Z" class="g0_120"/>
<path fill-rule="evenodd" d="M266.2,328.7h241v-15h-241v15Z" class="g0_120"/>
<path fill-rule="evenodd" d="M266.2,343.8h241V328.7h-241v15.1Z" class="g0_120"/>
<path fill-rule="evenodd" d="M266.2,358.9h241V343.8h-241v15.1Z" class="g0_120"/>
<path fill-rule="evenodd" d="M266.2,373.9h241v-15h-241v15Z" class="g0_120"/>
<path fill-rule="evenodd" d="M266.2,388.9H507.6v-15H266.2v15Z" class="g0_120"/>
<path fill-rule="evenodd" d="M266.2,404H507.6V388.9H266.2V404Z" class="g0_120"/>
<path fill-rule="evenodd" d="M266.2,419H507.6V404H266.2v15Z" class="g0_120"/>
<path fill-rule="evenodd" d="M266.2,434.2H507.6V419H266.2v15.2Z" class="g0_120"/>
<path fill-rule="evenodd" d="M266.2,449.2H507.6v-15H266.2v15Z" class="g0_120"/>
<path fill-rule="evenodd" d="M266.2,464.3H507.6V449.2H266.2v15.1Z" class="g0_120"/>
<path fill-rule="evenodd" d="M266.2,479.3H479.7v-15H266.2v15Z" class="g0_120"/>
<path fill-rule="evenodd" d="M266.2,494.3H479.7v-15H266.2v15Z" class="g0_120"/>
<path fill-rule="evenodd" d="M266.2,509.4H506.5V494.3H266.2v15.1Z" class="g0_120"/>
<path fill-rule="evenodd" d="M266.2,524.4H506.5v-15H266.2v15Z" class="g0_120"/>
<path fill-rule="evenodd" d="M265.9,539.4H506.8v-15H265.9v15Z" class="g0_120"/>
<path fill-rule="evenodd" d="M265.9,554.5H506.8V539.4H265.9v15.1Z" class="g0_120"/>
<path fill-rule="evenodd" d="M266.6,569.5H506.8v-15H266.6v15Z" class="g0_120"/>
<path fill-rule="evenodd" d="M527.6,163.2H767v-15H527.6v15Z" class="g0_120"/>
<path fill-rule="evenodd" d="M527.6,178.2H767v-15H527.6v15Z" class="g0_120"/>
<path fill-rule="evenodd" d="M527.6,193.3H767V178.2H527.6v15.1Z" class="g0_120"/>
<path fill-rule="evenodd" d="M527.2,208.3H767.8v-15H527.2v15Z" class="g0_120"/>
<path fill-rule="evenodd" d="M527.2,223.3H767.8v-15H527.2v15Z" class="g0_120"/>
<path fill-rule="evenodd" d="M527.2,238.4H767.8V223.3H527.2v15.1Z" class="g0_120"/>
<path fill-rule="evenodd" d="M527.2,253.4H767.8v-15H527.2v15Z" class="g0_120"/>
<path fill-rule="evenodd" d="M527.6,268.6H767V253.4H527.6v15.2Z" class="g0_120"/>
<path fill-rule="evenodd" d="M527.6,283.6H767v-15H527.6v15Z" class="g0_120"/>
<path fill-rule="evenodd" d="M527.6,298.7H767V283.6H527.6v15.1Z" class="g0_120"/>
<path fill-rule="evenodd" d="M526.8,313.7h241v-15h-241v15Z" class="g0_120"/>
<path fill-rule="evenodd" d="M526.8,328.7h241v-15h-241v15Z" class="g0_120"/>
<path fill-rule="evenodd" d="M526.8,343.8h241V328.7h-241v15.1Z" class="g0_120"/>
<path fill-rule="evenodd" d="M526.8,358.9h241V343.8h-241v15.1Z" class="g0_120"/>
<path fill-rule="evenodd" d="M526.8,373.9h241v-15h-241v15Z" class="g0_120"/>
<path fill-rule="evenodd" d="M526.8,388.9h241v-15h-241v15Z" class="g0_120"/>
<path fill-rule="evenodd" d="M526.8,404h241V388.9h-241V404Z" class="g0_120"/>
<path fill-rule="evenodd" d="M526.8,419h241V404h-241v15Z" class="g0_120"/>
<path fill-rule="evenodd" d="M527.6,434.2H767V419H527.6v15.2Z" class="g0_120"/>
<path fill-rule="evenodd" d="M527.6,449.2H767v-15H527.6v15Z" class="g0_120"/>
<path fill-rule="evenodd" d="M526.8,464.3H767.4V449.2H526.8v15.1Z" class="g0_120"/>
<path fill-rule="evenodd" d="M526.8,479.3H767.4v-15H526.8v15Z" class="g0_120"/>
<path fill-rule="evenodd" d="M526.8,494.3H767.4v-15H526.8v15Z" class="g0_120"/>
<path fill-rule="evenodd" d="M526.8,509.4H767.4V494.3H526.8v15.1Z" class="g0_120"/>
<path fill-rule="evenodd" d="M545.2,524.4H739.9v-15H545.2v15Z" class="g0_120"/>
<path fill-rule="evenodd" d="M545.2,539.4H739.9v-15H545.2v15Z" class="g0_120"/>
<path fill-rule="evenodd" d="M492.2,627.3H768.3V602.5H492.2v24.8Z" class="g0_120"/>
<path fill-rule="evenodd" d="M265.9,664.7H507.2v-15H265.9v15Z" class="g0_120"/>
<path fill-rule="evenodd" d="M265.9,679.7H507.2v-15H265.9v15Z" class="g0_120"/>
<path fill-rule="evenodd" d="M265.9,694.8H507.2V679.7H265.9v15.1Z" class="g0_120"/>
<path fill-rule="evenodd" d="M265.9,709.8H507.2v-15H265.9v15Z" class="g0_120"/>
<path fill-rule="evenodd" d="M265.9,724.8H507.6v-15H265.9v15Z" class="g0_120"/>
<path fill-rule="evenodd" d="M265.9,739.9H507.6V724.8H265.9v15.1Z" class="g0_120"/>
<path fill-rule="evenodd" d="M265.9,754.9H507.6v-15H265.9v15Z" class="g0_120"/>
<path fill-rule="evenodd" d="M265.9,769.9H507.6v-15H265.9v15Z" class="g0_120"/>
<path fill-rule="evenodd" d="M266.2,785H507.9V769.9H266.2V785Z" class="g0_120"/>
<path fill-rule="evenodd" d="M266.2,800H507.9V785H266.2v15Z" class="g0_120"/>
<path fill-rule="evenodd" d="M266.2,815H507.9V800H266.2v15Z" class="g0_120"/>
<path fill-rule="evenodd" d="M266.2,830.2H507.9V815H266.2v15.2Z" class="g0_120"/>
<path fill-rule="evenodd" d="M266.2,845.3H507.9V830.2H266.2v15.1Z" class="g0_120"/>
<path fill-rule="evenodd" d="M266.2,860.4H507.9V845.3H266.2v15.1Z" class="g0_120"/>
<path fill-rule="evenodd" d="M266.2,875.4H507.9v-15H266.2v15Z" class="g0_120"/>
<path fill-rule="evenodd" d="M266.2,890.4H507.9v-15H266.2v15Z" class="g0_120"/>
<path fill-rule="evenodd" d="M266.2,905.5H507.9V890.4H266.2v15.1Z" class="g0_120"/>
<path fill-rule="evenodd" d="M266.2,920.5H507.9v-15H266.2v15Z" class="g0_120"/>
<path fill-rule="evenodd" d="M526.8,664.7H768.1v-15H526.8v15Z" class="g0_120"/>
<path fill-rule="evenodd" d="M526.5,679.7H767.8v-15H526.5v15Z" class="g0_120"/>
<path fill-rule="evenodd" d="M526.5,694.8H767.8V679.7H526.5v15.1Z" class="g0_120"/>
<path fill-rule="evenodd" d="M526.5,709.8H767.8v-15H526.5v15Z" class="g0_120"/>
<path fill-rule="evenodd" d="M526.5,724.8H767.8v-15H526.5v15Z" class="g0_120"/>
<path fill-rule="evenodd" d="M526.5,739.9H767.8V724.8H526.5v15.1Z" class="g0_120"/>
<path fill-rule="evenodd" d="M526.8,754.9H740.3v-15H526.8v15Z" class="g0_120"/>
<path fill-rule="evenodd" d="M526.8,769.9H740.3v-15H526.8v15Z" class="g0_120"/>
<path fill-rule="evenodd" d="M526.5,785H768.1V769.9H526.5V785Z" class="g0_120"/>
<path fill-rule="evenodd" d="M526.5,800H768.1V785H526.5v15Z" class="g0_120"/>
<path fill-rule="evenodd" d="M526.5,815H768.1V800H526.5v15Z" class="g0_120"/>
<path fill-rule="evenodd" d="M526.5,830.2H768.1V815H526.5v15.2Z" class="g0_120"/>
<path fill-rule="evenodd" d="M526.8,845.3H740.3V830.2H526.8v15.1Z" class="g0_120"/>
<path fill-rule="evenodd" d="M526.8,860.4H740.3V845.3H526.8v15.1Z" class="g0_120"/>
<path fill-rule="evenodd" d="M526.8,875.4h241v-15h-241v15Z" class="g0_120"/>
<path fill-rule="evenodd" d="M526.8,890.4h241v-15h-241v15Z" class="g0_120"/>
<path fill-rule="evenodd" d="M526.8,905.5h241V890.4h-241v15.1Z" class="g0_120"/>
<path fill-rule="evenodd" d="M505.4,939.9H768.3V922.3H505.4v17.6Z" class="g0_120"/>
<path d="M194.6,99.4V224.8M200.1,97.2V429.8M202,99.4V574.6m.7,-195.5V500.9M516.9,149.2V588.1M196.1,715.5V869.8M516.9,648.7V915.3" class="g1_120"/>
</svg>