<?xml version="1.0" encoding="UTF-8" standalone="no"?>
<!DOCTYPE svg PUBLIC "-//W3C//DTD SVG 1.1//EN"
"http://www.w3.org/Graphics/SVG/1.1/DTD/svg11.dtd">
<svg viewBox="0 0 909 1285" version="1.1" xmlns="http://www.w3.org/2000/svg" xmlns:xlink="http://www.w3.org/1999/xlink">
<defs>
<style type="text/css"><![CDATA[
.g0_217{
fill: #FFFFFF;
}
.g1_217{
fill: none;
stroke: #000000;
stroke-width: 0.381;
stroke-linecap: butt;
stroke-linejoin: round;
}
]]></style>
</defs>
<path fill-rule="evenodd" d="M598.5,125.8H692V110H598.5v15.8Z" class="g0_217"/>
<path fill-rule="evenodd" d="M191.4,162.1H430.5V147.4H191.4v14.7Z" class="g0_217"/>
<path fill-rule="evenodd" d="M191.4,176.8H430.5V162.1H191.4v14.7Z" class="g0_217"/>
<path fill-rule="evenodd" d="M191.8,191.4H430.5V176.8H191.8v14.6Z" class="g0_217"/>
<path fill-rule="evenodd" d="M191.8,206.1H430.5V191.4H191.8v14.7Z" class="g0_217"/>
<path fill-rule="evenodd" d="M209.8,220.8H430.9V206.1H209.8v14.7Z" class="g0_217"/>
<path fill-rule="evenodd" d="M191.8,235.4H430.5V220.8H191.8v14.6Z" class="g0_217"/>
<path fill-rule="evenodd" d="M191.8,250.1H430.5V235.4H191.8v14.7Z" class="g0_217"/>
<path fill-rule="evenodd" d="M191.1,265.1H430.9V250.5H191.1v14.6Z" class="g0_217"/>
<path fill-rule="evenodd" d="M191.1,279.8H430.9V265.1H191.1v14.7Z" class="g0_217"/>
<path fill-rule="evenodd" d="M190.7,294.5H430.5V279.8H190.7v14.7Z" class="g0_217"/>
<path fill-rule="evenodd" d="M190.7,309.1H430.5V294.5H190.7v14.6Z" class="g0_217"/>
<path fill-rule="evenodd" d="M190.7,323.8H430.5V309.1H190.7v14.7Z" class="g0_217"/>
<path fill-rule="evenodd" d="M191.4,338.5H430.5V323.8H191.4v14.7Z" class="g0_217"/>
<path fill-rule="evenodd" d="M191.4,353.2H430.5V338.5H191.4v14.7Z" class="g0_217"/>
<path fill-rule="evenodd" d="M191.4,367.8H430.5V353.2H191.4v14.6Z" class="g0_217"/>
<path fill-rule="evenodd" d="M191.1,382.9H430.2V368.2H191.1v14.7Z" class="g0_217"/>
<path fill-rule="evenodd" d="M191.1,397.5H430.2V382.9H191.1v14.6Z" class="g0_217"/>
<path fill-rule="evenodd" d="M191.1,412.6H429.8V397.9H191.1v14.7Z" class="g0_217"/>
<path fill-rule="evenodd" d="M191.1,427.2H429.8V412.6H191.1v14.6Z" class="g0_217"/>
<path fill-rule="evenodd" d="M191.1,442.5H430.2V427.6H191.1v14.9Z" class="g0_217"/>
<path fill-rule="evenodd" d="M191.1,457.1H430.2V442.5H191.1v14.6Z" class="g0_217"/>
<path fill-rule="evenodd" d="M190.7,471.8H430.5V457.1H190.7v14.7Z" class="g0_217"/>
<path fill-rule="evenodd" d="M190.7,486.5H430.5V471.8H190.7v14.7Z" class="g0_217"/>
<path fill-rule="evenodd" d="M190.7,501.1H430.5V486.5H190.7v14.6Z" class="g0_217"/>
<path fill-rule="evenodd" d="M190.7,515.8H430.5V501.1H190.7v14.7Z" class="g0_217"/>
<path fill-rule="evenodd" d="M190.7,530.5H430.5V515.8H190.7v14.7Z" class="g0_217"/>
<path fill-rule="evenodd" d="M190.7,545.1H430.5V530.5H190.7v14.6Z" class="g0_217"/>
<path fill-rule="evenodd" d="M190.3,560.2H430.2V545.5H190.3v14.7Z" class="g0_217"/>
<path fill-rule="evenodd" d="M190.3,574.8H430.2V560.2H190.3v14.6Z" class="g0_217"/>
<path fill-rule="evenodd" d="M190.3,589.5H430.2V574.8H190.3v14.7Z" class="g0_217"/>
<path fill-rule="evenodd" d="M190.3,604.2H430.2V589.5H190.3v14.7Z" class="g0_217"/>
<path fill-rule="evenodd" d="M190.3,618.9H430.2V604.2H190.3v14.7Z" class="g0_217"/>
<path fill-rule="evenodd" d="M190.3,633.9H430.2v-15H190.3v15Z" class="g0_217"/>
<path fill-rule="evenodd" d="M190.3,648.6H430.2V633.9H190.3v14.7Z" class="g0_217"/>
<path fill-rule="evenodd" d="M190.3,663.2H430.2V648.6H190.3v14.6Z" class="g0_217"/>
<path fill-rule="evenodd" d="M190.3,677.9H430.2V663.2H190.3v14.7Z" class="g0_217"/>
<path fill-rule="evenodd" d="M190.3,692.6H430.2V677.9H190.3v14.7Z" class="g0_217"/>
<path fill-rule="evenodd" d="M190.3,708H429.8V693.3H190.3V708Z" class="g0_217"/>
<path fill-rule="evenodd" d="M190.3,722.6H429.8V708H190.3v14.6Z" class="g0_217"/>
<path fill-rule="evenodd" d="M190.3,737.3H429.8V722.6H190.3v14.7Z" class="g0_217"/>
<path fill-rule="evenodd" d="M190.3,752H429.8V737.3H190.3V752Z" class="g0_217"/>
<path fill-rule="evenodd" d="M190.3,766.6H429.8V752H190.3v14.6Z" class="g0_217"/>
<path fill-rule="evenodd" d="M208.3,781.3H430.9V766.6H208.3v14.7Z" class="g0_217"/>
<path fill-rule="evenodd" d="M208.7,796.3H430.9V781.7H208.7v14.6Z" class="g0_217"/>
<path fill-rule="evenodd" d="M190.7,811H429.4V796.3H190.7V811Z" class="g0_217"/>
<path fill-rule="evenodd" d="M190.7,825.7H429.4V811H190.7v14.7Z" class="g0_217"/>
<path fill-rule="evenodd" d="M190.3,840.4H429.4V825.7H190.3v14.7Z" class="g0_217"/>
<path fill-rule="evenodd" d="M190.3,855H429.4V840.4H190.3V855Z" class="g0_217"/>
<path fill-rule="evenodd" d="M190.3,869.7H429.4V855H190.3v14.7Z" class="g0_217"/>
<path fill-rule="evenodd" d="M190.3,884.7H429.4v-15H190.3v15Z" class="g0_217"/>
<path fill-rule="evenodd" d="M190.3,899.4H429.4V884.7H190.3v14.7Z" class="g0_217"/>
<path fill-rule="evenodd" d="M192.2,914.1H430.5V899.4H192.2v14.7Z" class="g0_217"/>
<path fill-rule="evenodd" d="M451.1,161.7H691.3V147.1H451.1v14.6Z" class="g0_217"/>
<path fill-rule="evenodd" d="M451.1,176.4H691.3V161.7H451.1v14.7Z" class="g0_217"/>
<path fill-rule="evenodd" d="M451.1,191.1H691.3V176.4H451.1v14.7Z" class="g0_217"/>
<path fill-rule="evenodd" d="M451.1,205.7H691.3V191.1H451.1v14.6Z" class="g0_217"/>
<path fill-rule="evenodd" d="M451.1,220.4H690.9V205.7H451.1v14.7Z" class="g0_217"/>
<path fill-rule="evenodd" d="M451.1,235.1H690.9V220.4H451.1v14.7Z" class="g0_217"/>
<path fill-rule="evenodd" d="M451.1,249.7H691.3V235.1H451.1v14.6Z" class="g0_217"/>
<path fill-rule="evenodd" d="M451.1,264.4H691.3V249.7H451.1v14.7Z" class="g0_217"/>
<path fill-rule="evenodd" d="M451.5,279.4H691.3V264.8H451.5v14.6Z" class="g0_217"/>
<path fill-rule="evenodd" d="M451.5,294.1H691.3V279.4H451.5v14.7Z" class="g0_217"/>
<path fill-rule="evenodd" d="M451.1,309.1H690.9V294.5H451.1v14.6Z" class="g0_217"/>
<path fill-rule="evenodd" d="M451.1,323.8H690.9V309.1H451.1v14.7Z" class="g0_217"/>
<path fill-rule="evenodd" d="M451.1,338.5H691.7V323.8H451.1v14.7Z" class="g0_217"/>
<path fill-rule="evenodd" d="M451.1,353.2H691.7V338.5H451.1v14.7Z" class="g0_217"/>
<path fill-rule="evenodd" d="M451.1,367.8H690.9V353.2H451.1v14.6Z" class="g0_217"/>
<path fill-rule="evenodd" d="M451.1,382.5H690.9V367.8H451.1v14.7Z" class="g0_217"/>
<path fill-rule="evenodd" d="M451.1,397.2H690.9V382.5H451.1v14.7Z" class="g0_217"/>
<path fill-rule="evenodd" d="M469.4,411.8H691.7V397.2H469.4v14.6Z" class="g0_217"/>
<path fill-rule="evenodd" d="M450.7,426.5H690.6V411.8H450.7v14.7Z" class="g0_217"/>
<path fill-rule="evenodd" d="M450.7,441.2H690.6V426.5H450.7v14.7Z" class="g0_217"/>
<path fill-rule="evenodd" d="M451.1,456.2H690.9V441.5H451.1v14.7Z" class="g0_217"/>
<path fill-rule="evenodd" d="M451.1,470.9H690.9V456.2H451.1v14.7Z" class="g0_217"/>
<path fill-rule="evenodd" d="M450.7,485.5H690.6V470.9H450.7v14.6Z" class="g0_217"/>
<path fill-rule="evenodd" d="M450.7,500.2H690.6V485.5H450.7v14.7Z" class="g0_217"/>
<path fill-rule="evenodd" d="M450.7,514.9H690.6V500.2H450.7v14.7Z" class="g0_217"/>
<path fill-rule="evenodd" d="M449.3,529.5H690.2V514.9H449.3v14.6Z" class="g0_217"/>
<path fill-rule="evenodd" d="M449.3,544.2H690.2V529.5H449.3v14.7Z" class="g0_217"/>
<path fill-rule="evenodd" d="M449.3,558.9H690.2V544.2H449.3v14.7Z" class="g0_217"/>
<path fill-rule="evenodd" d="M450.7,573.5H690.6V558.9H450.7v14.6Z" class="g0_217"/>
<path fill-rule="evenodd" d="M450.7,588.2H690.6V573.5H450.7v14.7Z" class="g0_217"/>
<path fill-rule="evenodd" d="M450.7,602.9H690.6V588.2H450.7v14.7Z" class="g0_217"/>
<path fill-rule="evenodd" d="M450.7,617.6H690.6V602.9H450.7v14.7Z" class="g0_217"/>
<path fill-rule="evenodd" d="M449.6,632.2H689.8V617.6H449.6v14.6Z" class="g0_217"/>
<path fill-rule="evenodd" d="M449.6,646.9H689.8V632.2H449.6v14.7Z" class="g0_217"/>
<path fill-rule="evenodd" d="M449.6,661.6H689.8V646.9H449.6v14.7Z" class="g0_217"/>
<path fill-rule="evenodd" d="M449.6,676.2H689.8V661.6H449.6v14.6Z" class="g0_217"/>
<path fill-rule="evenodd" d="M449.6,690.9H689.8V676.2H449.6v14.7Z" class="g0_217"/>
<path fill-rule="evenodd" d="M449.6,705.6H689.8V690.9H449.6v14.7Z" class="g0_217"/>
<path fill-rule="evenodd" d="M449.6,720.2H689.8V705.6H449.6v14.6Z" class="g0_217"/>
<path fill-rule="evenodd" d="M449.6,734.9H689.8V720.2H449.6v14.7Z" class="g0_217"/>
<path fill-rule="evenodd" d="M449.3,749.9H690.2V735.3H449.3v14.6Z" class="g0_217"/>
<path fill-rule="evenodd" d="M449.3,764.6H690.2V749.9H449.3v14.7Z" class="g0_217"/>
<path fill-rule="evenodd" d="M449.3,779.3H690.2V764.6H449.3v14.7Z" class="g0_217"/>
<path fill-rule="evenodd" d="M449.3,793.9H690.2V779.3H449.3v14.6Z" class="g0_217"/>
<path fill-rule="evenodd" d="M449.3,808.6H690.2V793.9H449.3v14.7Z" class="g0_217"/>
<path fill-rule="evenodd" d="M449.3,823.3H690.2V808.6H449.3v14.7Z" class="g0_217"/>
<path fill-rule="evenodd" d="M449.3,838H690.2V823.3H449.3V838Z" class="g0_217"/>
<path fill-rule="evenodd" d="M450,853.2H689.8V838.4H450v14.8Z" class="g0_217"/>
<path fill-rule="evenodd" d="M450,867.9H689.8V853.2H450v14.7Z" class="g0_217"/>
<path fill-rule="evenodd" d="M450,882.5H689.8V867.9H450v14.6Z" class="g0_217"/>
<path fill-rule="evenodd" d="M426.5,931.7H692.1V914.1H426.5v17.6Z" class="g0_217"/>
<path d="M438.9,146.7V915.6" class="g1_217"/>
</svg>