<?xml version="1.0" encoding="UTF-8" standalone="no"?>
<!DOCTYPE svg PUBLIC "-//W3C//DTD SVG 1.1//EN"
"http://www.w3.org/Graphics/SVG/1.1/DTD/svg11.dtd">
<svg viewBox="0 0 909 1285" version="1.1" xmlns="http://www.w3.org/2000/svg" xmlns:xlink="http://www.w3.org/1999/xlink">
<defs>
<style type="text/css"><![CDATA[
.g0_269{
fill: #FFFFFF;
}
.g1_269{
fill: none;
stroke: #000000;
stroke-width: 0.381;
stroke-linecap: butt;
stroke-linejoin: round;
}
]]></style>
</defs>
<path fill-rule="evenodd" d="M621.6,131.1H681V110H621.6v21.1Z" class="g0_269"/>
<path fill-rule="evenodd" d="M177.9,167.6H391.5V152.4H177.9v15.2Z" class="g0_269"/>
<path fill-rule="evenodd" d="M177.9,182.6H391.5v-15H177.9v15Z" class="g0_269"/>
<path fill-rule="evenodd" d="M177.5,197.7H418.1V182.6H177.5v15.1Z" class="g0_269"/>
<path fill-rule="evenodd" d="M177.5,212.7H418.1v-15H177.5v15Z" class="g0_269"/>
<path fill-rule="evenodd" d="M177.5,227.7H418.1v-15H177.5v15Z" class="g0_269"/>
<path fill-rule="evenodd" d="M177.5,242.8H418.1V227.7H177.5v15.1Z" class="g0_269"/>
<path fill-rule="evenodd" d="M177.9,257.8H417.3v-15H177.9v15Z" class="g0_269"/>
<path fill-rule="evenodd" d="M177.9,272.8H417.3v-15H177.9v15Z" class="g0_269"/>
<path fill-rule="evenodd" d="M177.9,287.9H417.3V272.8H177.9v15.1Z" class="g0_269"/>
<path fill-rule="evenodd" d="M177.9,302.9H417.3v-15H177.9v15Z" class="g0_269"/>
<path fill-rule="evenodd" d="M177.9,317.9H417.3v-15H177.9v15Z" class="g0_269"/>
<path fill-rule="evenodd" d="M177.9,333.1H417.3V317.9H177.9v15.2Z" class="g0_269"/>
<path fill-rule="evenodd" d="M195.5,348.2H418.1V333.1H195.5v15.1Z" class="g0_269"/>
<path fill-rule="evenodd" d="M177.5,363.3H416.6V348.2H177.5v15.1Z" class="g0_269"/>
<path fill-rule="evenodd" d="M177.5,378.3H416.6v-15H177.5v15Z" class="g0_269"/>
<path fill-rule="evenodd" d="M177.5,393.3H416.6v-15H177.5v15Z" class="g0_269"/>
<path fill-rule="evenodd" d="M195.5,408.4H418.1V393.3H195.5v15.1Z" class="g0_269"/>
<path fill-rule="evenodd" d="M195.5,423.4H418.1v-15H195.5v15Z" class="g0_269"/>
<path fill-rule="evenodd" d="M177.1,438.4H417v-15H177.1v15Z" class="g0_269"/>
<path fill-rule="evenodd" d="M177.1,453.5H417V438.4H177.1v15.1Z" class="g0_269"/>
<path fill-rule="evenodd" d="M177.1,468.5H417v-15H177.1v15Z" class="g0_269"/>
<path fill-rule="evenodd" d="M177.1,483.5H417v-15H177.1v15Z" class="g0_269"/>
<path fill-rule="evenodd" d="M177.1,498.6H417V483.5H177.1v15.1Z" class="g0_269"/>
<path fill-rule="evenodd" d="M177.1,513.8H417V498.6H177.1v15.2Z" class="g0_269"/>
<path fill-rule="evenodd" d="M176.8,528.8H416.6v-15H176.8v15Z" class="g0_269"/>
<path fill-rule="evenodd" d="M176.8,543.8H416.6v-15H176.8v15Z" class="g0_269"/>
<path fill-rule="evenodd" d="M176.8,558.9H416.6V543.8H176.8v15.1Z" class="g0_269"/>
<path fill-rule="evenodd" d="M176.8,573.9H416.6v-15H176.8v15Z" class="g0_269"/>
<path fill-rule="evenodd" d="M176.8,588.9H416.6v-15H176.8v15Z" class="g0_269"/>
<path fill-rule="evenodd" d="M176.8,604H416.6V588.9H176.8V604Z" class="g0_269"/>
<path fill-rule="evenodd" d="M176.8,619H415.9V604H176.8v15Z" class="g0_269"/>
<path fill-rule="evenodd" d="M176.8,634.1H415.9V619H176.8v15.1Z" class="g0_269"/>
<path fill-rule="evenodd" d="M176.8,649.1H415.9v-15H176.8v15Z" class="g0_269"/>
<path fill-rule="evenodd" d="M176.8,664.1H415.9v-15H176.8v15Z" class="g0_269"/>
<path fill-rule="evenodd" d="M177.1,679.2H415.9V664.1H177.1v15.1Z" class="g0_269"/>
<path fill-rule="evenodd" d="M177.1,694.4H415.9V679.2H177.1v15.2Z" class="g0_269"/>
<path fill-rule="evenodd" d="M195.1,709.4h223v-15h-223v15Z" class="g0_269"/>
<path fill-rule="evenodd" d="M177.9,724.5H417.7V709.4H177.9v15.1Z" class="g0_269"/>
<path fill-rule="evenodd" d="M437.5,167H678.1V152H437.5v15Z" class="g0_269"/>
<path fill-rule="evenodd" d="M437.5,182.3H678.1V167H437.5v15.3Z" class="g0_269"/>
<path fill-rule="evenodd" d="M437.5,197.3H678.1v-15H437.5v15Z" class="g0_269"/>
<path fill-rule="evenodd" d="M437.9,212.3H677.8v-15H437.9v15Z" class="g0_269"/>
<path fill-rule="evenodd" d="M437.9,227.4H677.8V212.3H437.9v15.1Z" class="g0_269"/>
<path fill-rule="evenodd" d="M437.9,242.4H677.8v-15H437.9v15Z" class="g0_269"/>
<path fill-rule="evenodd" d="M437.5,257.4h241v-15h-241v15Z" class="g0_269"/>
<path fill-rule="evenodd" d="M437.5,272.5h241V257.4h-241v15.1Z" class="g0_269"/>
<path fill-rule="evenodd" d="M437.5,287.5h241v-15h-241v15Z" class="g0_269"/>
<path fill-rule="evenodd" d="M437.5,302.5h241v-15h-241v15Z" class="g0_269"/>
<path fill-rule="evenodd" d="M437.5,317.6H678.1V302.5H437.5v15.1Z" class="g0_269"/>
<path fill-rule="evenodd" d="M437.5,332.6H678.1v-15H437.5v15Z" class="g0_269"/>
<path fill-rule="evenodd" d="M437.5,347.8H678.1V332.6H437.5v15.2Z" class="g0_269"/>
<path fill-rule="evenodd" d="M437.5,362.9H678.1V347.8H437.5v15.1Z" class="g0_269"/>
<path fill-rule="evenodd" d="M437.1,377.9H677v-15H437.1v15Z" class="g0_269"/>
<path fill-rule="evenodd" d="M437.1,393H677V377.9H437.1V393Z" class="g0_269"/>
<path fill-rule="evenodd" d="M437.1,408H677.4V393H437.1v15Z" class="g0_269"/>
<path fill-rule="evenodd" d="M437.1,423H677.4V408H437.1v15Z" class="g0_269"/>
<path fill-rule="evenodd" d="M437.1,438.1H677.4V423H437.1v15.1Z" class="g0_269"/>
<path fill-rule="evenodd" d="M437.1,453.1H677.4v-15H437.1v15Z" class="g0_269"/>
<path fill-rule="evenodd" d="M437.1,468.1H677v-15H437.1v15Z" class="g0_269"/>
<path fill-rule="evenodd" d="M437.1,483.2H677V468.1H437.1v15.1Z" class="g0_269"/>
<path fill-rule="evenodd" d="M437.1,498.2H677v-15H437.1v15Z" class="g0_269"/>
<path fill-rule="evenodd" d="M437.1,513.2H677v-15H437.1v15Z" class="g0_269"/>
<path fill-rule="evenodd" d="M437.1,528.4H677V513.2H437.1v15.2Z" class="g0_269"/>
<path fill-rule="evenodd" d="M436.8,543.5H676.7V528.4H436.8v15.1Z" class="g0_269"/>
<path fill-rule="evenodd" d="M436.8,558.5H676.7v-15H436.8v15Z" class="g0_269"/>
<path fill-rule="evenodd" d="M436.4,573.5H676.7v-15H436.4v15Z" class="g0_269"/>
<path fill-rule="evenodd" d="M436.4,588.6H676.7V573.5H436.4v15.1Z" class="g0_269"/>
<path fill-rule="evenodd" d="M436.4,603.6H676.7v-15H436.4v15Z" class="g0_269"/>
<path fill-rule="evenodd" d="M436.4,618.7H676.7V603.6H436.4v15.1Z" class="g0_269"/>
<path fill-rule="evenodd" d="M436.8,633.7H677v-15H436.8v15Z" class="g0_269"/>
<path fill-rule="evenodd" d="M436.8,648.7H677v-15H436.8v15Z" class="g0_269"/>
<path fill-rule="evenodd" d="M436.8,663.8H677V648.7H436.8v15.1Z" class="g0_269"/>
<path fill-rule="evenodd" d="M454.4,678.8H678.5v-15H454.4v15Z" class="g0_269"/>
<path fill-rule="evenodd" d="M436.8,693.8H678.5v-15H436.8v15Z" class="g0_269"/>
<path fill-rule="evenodd" d="M436.8,709.1H678.5V693.8H436.8v15.3Z" class="g0_269"/>
<path fill-rule="evenodd" d="M436.8,724.1H678.5v-15H436.8v15Z" class="g0_269"/>
<path fill-rule="evenodd" d="M436.8,739.1H676.3v-15H436.8v15Z" class="g0_269"/>
<path fill-rule="evenodd" d="M436.8,754.2H676.3V739.1H436.8v15.1Z" class="g0_269"/>
<path fill-rule="evenodd" d="M177.9,925.1H331.2V909.3H177.9v15.8Z" class="g0_269"/>
<path fill-rule="evenodd" d="M177.9,942.7H331.2V925.1H177.9v17.6Z" class="g0_269"/>
<path fill-rule="evenodd" d="M412,928.7h59.5V913H412v15.7Z" class="g0_269"/>
<path d="M425.6,151.7V776.5" class="g1_269"/>
</svg>