<?xml version="1.0" encoding="UTF-8" standalone="no"?>
<!DOCTYPE svg PUBLIC "-//W3C//DTD SVG 1.1//EN"
"http://www.w3.org/Graphics/SVG/1.1/DTD/svg11.dtd">
<svg viewBox="0 0 909 1285" version="1.1" xmlns="http://www.w3.org/2000/svg" xmlns:xlink="http://www.w3.org/1999/xlink">
<defs>
<style type="text/css"><![CDATA[
.g0_233{
fill: #FFFFFF;
}
.g1_233{
fill: none;
stroke: #000000;
stroke-width: 1.833;
stroke-linecap: butt;
stroke-linejoin: round;
}
.g2_233{
fill: none;
stroke: #000000;
stroke-width: 2.215;
stroke-linecap: butt;
stroke-linejoin: round;
}
.g3_233{
fill: none;
stroke: #000000;
stroke-width: 1.069;
stroke-linecap: butt;
stroke-linejoin: round;
}
.g4_233{
fill: none;
stroke: #000000;
stroke-width: 0.381;
stroke-linecap: butt;
stroke-linejoin: round;
}
]]></style>
</defs>
<path fill-rule="evenodd" d="M262.4,125.8H760.1V110H262.4v15.8Z" class="g0_233"/>
<path fill-rule="evenodd" d="M259.8,177.9H527.9v-25H259.8v25Z" class="g0_233"/>
<path fill-rule="evenodd" d="M261.3,212H500.4V196.9H261.3V212Z" class="g0_233"/>
<path fill-rule="evenodd" d="M261.3,227H500.4V212H261.3v15Z" class="g0_233"/>
<path fill-rule="evenodd" d="M262,242H500.8V227H262v15Z" class="g0_233"/>
<path fill-rule="evenodd" d="M262,257.1H500.8V242H262v15.1Z" class="g0_233"/>
<path fill-rule="evenodd" d="M262,272.3H500.8V257.1H262v15.2Z" class="g0_233"/>
<path fill-rule="evenodd" d="M261.6,287.3H500.8v-15H261.6v15Z" class="g0_233"/>
<path fill-rule="evenodd" d="M261.6,302.3H500.8v-15H261.6v15Z" class="g0_233"/>
<path fill-rule="evenodd" d="M261.6,317.4H500.8V302.3H261.6v15.1Z" class="g0_233"/>
<path fill-rule="evenodd" d="M261.3,332.4H500.4v-15H261.3v15Z" class="g0_233"/>
<path fill-rule="evenodd" d="M261.3,347.4H500.4v-15H261.3v15Z" class="g0_233"/>
<path fill-rule="evenodd" d="M261.3,362.5H500.4v-15H261.3v15Z" class="g0_233"/>
<path fill-rule="evenodd" d="M261.3,377.6H500.4V362.5H261.3v15.1Z" class="g0_233"/>
<path fill-rule="evenodd" d="M261.3,392.6H500.4v-15H261.3v15Z" class="g0_233"/>
<path fill-rule="evenodd" d="M261.3,407.6H500.4v-15H261.3v15Z" class="g0_233"/>
<path fill-rule="evenodd" d="M261.3,422.7H500.4V407.6H261.3v15.1Z" class="g0_233"/>
<path fill-rule="evenodd" d="M260.9,437.9H500.4V422.7H260.9v15.2Z" class="g0_233"/>
<path fill-rule="evenodd" d="M260.9,452.9H500.4v-15H260.9v15Z" class="g0_233"/>
<path fill-rule="evenodd" d="M260.9,467.9H500.4v-15H260.9v15Z" class="g0_233"/>
<path fill-rule="evenodd" d="M260.9,483H500.4V467.9H260.9V483Z" class="g0_233"/>
<path fill-rule="evenodd" d="M260.9,498H499.3V483H260.9v15Z" class="g0_233"/>
<path fill-rule="evenodd" d="M260.9,513H499.3V498H260.9v15Z" class="g0_233"/>
<path fill-rule="evenodd" d="M260.5,528.1H499.3V513H260.5v15.1Z" class="g0_233"/>
<path fill-rule="evenodd" d="M260.5,543.1H499.3v-15H260.5v15Z" class="g0_233"/>
<path fill-rule="evenodd" d="M260.2,558.1H499.7v-15H260.2v15Z" class="g0_233"/>
<path fill-rule="evenodd" d="M260.2,573.2H499.7V558.1H260.2v15.1Z" class="g0_233"/>
<path fill-rule="evenodd" d="M260.2,588.2H499.7v-15H260.2v15Z" class="g0_233"/>
<path fill-rule="evenodd" d="M260.2,603.3H499.7V588.2H260.2v15.1Z" class="g0_233"/>
<path fill-rule="evenodd" d="M260.2,618.5H499.7V603.3H260.2v15.2Z" class="g0_233"/>
<path fill-rule="evenodd" d="M260.2,633.5H499.7v-15H260.2v15Z" class="g0_233"/>
<path fill-rule="evenodd" d="M260.2,648.6H499.7V633.5H260.2v15.1Z" class="g0_233"/>
<path fill-rule="evenodd" d="M260.2,663.6H499.7v-15H260.2v15Z" class="g0_233"/>
<path fill-rule="evenodd" d="M260.2,678.6H499.7v-15H260.2v15Z" class="g0_233"/>
<path fill-rule="evenodd" d="M260.2,693.7H499.7V678.6H260.2v15.1Z" class="g0_233"/>
<path fill-rule="evenodd" d="M260.2,708.7H499.7v-15H260.2v15Z" class="g0_233"/>
<path fill-rule="evenodd" d="M260.2,723.7H499v-15H260.2v15Z" class="g0_233"/>
<path fill-rule="evenodd" d="M260.2,738.8H499V723.7H260.2v15.1Z" class="g0_233"/>
<path fill-rule="evenodd" d="M260.2,753.8H499v-15H260.2v15Z" class="g0_233"/>
<path fill-rule="evenodd" d="M259.8,768.8H499.7v-15H259.8v15Z" class="g0_233"/>
<path fill-rule="evenodd" d="M259.8,783.9H499.7V768.8H259.8v15.1Z" class="g0_233"/>
<path fill-rule="evenodd" d="M259.8,799.1H499.7V783.9H259.8v15.2Z" class="g0_233"/>
<path fill-rule="evenodd" d="M259.8,814.1H499.7v-15H259.8v15Z" class="g0_233"/>
<path fill-rule="evenodd" d="M259.8,829.1H499.7v-15H259.8v15Z" class="g0_233"/>
<path fill-rule="evenodd" d="M259.8,844.2H499.7V829.1H259.8v15.1Z" class="g0_233"/>
<path fill-rule="evenodd" d="M259.8,859.3H499.7V844.2H259.8v15.1Z" class="g0_233"/>
<path fill-rule="evenodd" d="M259.8,874.3H499.7v-15H259.8v15Z" class="g0_233"/>
<path fill-rule="evenodd" d="M259.8,889.3H499.7v-15H259.8v15Z" class="g0_233"/>
<path fill-rule="evenodd" d="M262.4,904.4H500.8V889.3H262.4v15.1Z" class="g0_233"/>
<path fill-rule="evenodd" d="M521.3,212H760.1V196.9H521.3V212Z" class="g0_233"/>
<path fill-rule="evenodd" d="M519.9,227H759.3V212H519.9v15Z" class="g0_233"/>
<path fill-rule="evenodd" d="M519.9,242H759.3V227H519.9v15Z" class="g0_233"/>
<path fill-rule="evenodd" d="M519.9,257.1H759.3V242H519.9v15.1Z" class="g0_233"/>
<path fill-rule="evenodd" d="M519.9,272.3H759.3V257.1H519.9v15.2Z" class="g0_233"/>
<path fill-rule="evenodd" d="M521,287.3H759.3v-15H521v15Z" class="g0_233"/>
<path fill-rule="evenodd" d="M521,302.3H759.3v-15H521v15Z" class="g0_233"/>
<path fill-rule="evenodd" d="M520.6,317.4H760.1V302.3H520.6v15.1Z" class="g0_233"/>
<path fill-rule="evenodd" d="M520.6,332.4H760.1v-15H520.6v15Z" class="g0_233"/>
<path fill-rule="evenodd" d="M520.6,347.4H760.1v-15H520.6v15Z" class="g0_233"/>
<path fill-rule="evenodd" d="M520.6,362.5H760.1v-15H520.6v15Z" class="g0_233"/>
<path fill-rule="evenodd" d="M520.6,377.6H760.1V362.5H520.6v15.1Z" class="g0_233"/>
<path fill-rule="evenodd" d="M520.6,392.6H760.1v-15H520.6v15Z" class="g0_233"/>
<path fill-rule="evenodd" d="M521,407.6H759v-15H521v15Z" class="g0_233"/>
<path fill-rule="evenodd" d="M521,422.7H759V407.6H521v15.1Z" class="g0_233"/>
<path fill-rule="evenodd" d="M538.9,438.2H760.1V423H538.9v15.2Z" class="g0_233"/>
<path fill-rule="evenodd" d="M519.9,453.3H759.3V438.2H519.9v15.1Z" class="g0_233"/>
<path fill-rule="evenodd" d="M519.9,468.3H759.3v-15H519.9v15Z" class="g0_233"/>
<path fill-rule="evenodd" d="M519.9,483.3H759.3v-15H519.9v15Z" class="g0_233"/>
<path fill-rule="evenodd" d="M519.9,498.4H759.3V483.3H519.9v15.1Z" class="g0_233"/>
<path fill-rule="evenodd" d="M519.9,513.4H759.3v-15H519.9v15Z" class="g0_233"/>
<path fill-rule="evenodd" d="M519.9,528.4H759.3v-15H519.9v15Z" class="g0_233"/>
<path fill-rule="evenodd" d="M519.9,543.5H758.2V528.4H519.9v15.1Z" class="g0_233"/>
<path fill-rule="evenodd" d="M519.9,558.5H758.2v-15H519.9v15Z" class="g0_233"/>
<path fill-rule="evenodd" d="M519.9,573.5H758.6v-15H519.9v15Z" class="g0_233"/>
<path fill-rule="evenodd" d="M519.9,588.6H758.6V573.5H519.9v15.1Z" class="g0_233"/>
<path fill-rule="evenodd" d="M519.9,603.8H758.6V588.6H519.9v15.2Z" class="g0_233"/>
<path fill-rule="evenodd" d="M519.9,618.9H758.6V603.8H519.9v15.1Z" class="g0_233"/>
<path fill-rule="evenodd" d="M519.5,633.9H758.2v-15H519.5v15Z" class="g0_233"/>
<path fill-rule="evenodd" d="M519.5,648.9H758.2v-15H519.5v15Z" class="g0_233"/>
<path fill-rule="evenodd" d="M519.5,664H758.2V648.9H519.5V664Z" class="g0_233"/>
<path fill-rule="evenodd" d="M519.1,679H758.6V664H519.1v15Z" class="g0_233"/>
<path fill-rule="evenodd" d="M519.1,694H758.6V679H519.1v15Z" class="g0_233"/>
<path fill-rule="evenodd" d="M519.1,709.1H758.6V694H519.1v15.1Z" class="g0_233"/>
<path fill-rule="evenodd" d="M537.5,724.1H760.1v-15H537.5v15Z" class="g0_233"/>
<path fill-rule="evenodd" d="M519.5,739.1H757.9v-15H519.5v15Z" class="g0_233"/>
<path fill-rule="evenodd" d="M519.5,754.2H757.9V739.1H519.5v15.1Z" class="g0_233"/>
<path fill-rule="evenodd" d="M518.8,769.2H757.9v-15H518.8v15Z" class="g0_233"/>
<path fill-rule="evenodd" d="M518.8,784.4H757.9V769.2H518.8v15.2Z" class="g0_233"/>
<path fill-rule="evenodd" d="M518.8,799.4H757.9v-15H518.8v15Z" class="g0_233"/>
<path fill-rule="evenodd" d="M518.8,814.5H757.9V799.4H518.8v15.1Z" class="g0_233"/>
<path fill-rule="evenodd" d="M518.8,829.5H757.9v-15H518.8v15Z" class="g0_233"/>
<path fill-rule="evenodd" d="M518.8,844.6H757.9V829.5H518.8v15.1Z" class="g0_233"/>
<path fill-rule="evenodd" d="M518.8,859.6H757.9v-15H518.8v15Z" class="g0_233"/>
<path fill-rule="evenodd" d="M518.8,874.7H757.9V859.6H518.8v15.1Z" class="g0_233"/>
<path fill-rule="evenodd" d="M537.5,889.7H760.1v-15H537.5v15Z" class="g0_233"/>
<path fill-rule="evenodd" d="M495.3,920.5H760.1V902.9H495.3v17.6Z" class="g0_233"/>
<path d="M177.7,481.9V851.1" class="g1_233"/>
<path d="M192,899.1v98.6" class="g2_233"/>
<path d="M198.2,900.2V979" class="g3_233"/>
<path d="M204.8,210.8V996.6m304,-800.4V915.9" class="g4_233"/>
</svg>