<?xml version="1.0" encoding="UTF-8" standalone="no"?>
<!DOCTYPE svg PUBLIC "-//W3C//DTD SVG 1.1//EN"
"http://www.w3.org/Graphics/SVG/1.1/DTD/svg11.dtd">
<svg viewBox="0 0 909 1285" version="1.1" xmlns="http://www.w3.org/2000/svg" xmlns:xlink="http://www.w3.org/1999/xlink">
<defs>
<style type="text/css"><![CDATA[
.g0_261{
fill: #FFFFFF;
}
.g1_261{
fill: none;
stroke: #000000;
stroke-width: 0.381;
stroke-linecap: butt;
stroke-linejoin: round;
}
.g2_261{
fill: none;
stroke: #000000;
stroke-width: 4.048;
stroke-linecap: butt;
stroke-linejoin: round;
}
.g3_261{
fill: none;
stroke: #000000;
stroke-width: 0.763;
stroke-linecap: butt;
stroke-linejoin: round;
}
]]></style>
</defs>
<path fill-rule="evenodd" d="M262,125.8H762.6V110H262v15.8Z" class="g0_261"/>
<path fill-rule="evenodd" d="M262.4,161.7H502.6V147.1H262.4v14.6Z" class="g0_261"/>
<path fill-rule="evenodd" d="M262.4,176.4H502.6V161.7H262.4v14.7Z" class="g0_261"/>
<path fill-rule="evenodd" d="M261.6,191.4H502.3V176.8H261.6v14.6Z" class="g0_261"/>
<path fill-rule="evenodd" d="M261.6,206.1H502.3V191.4H261.6v14.7Z" class="g0_261"/>
<path fill-rule="evenodd" d="M262,221.1H502.3V206.5H262v14.6Z" class="g0_261"/>
<path fill-rule="evenodd" d="M262,235.8H502.3V221.1H262v14.7Z" class="g0_261"/>
<path fill-rule="evenodd" d="M261.3,250.5H502.6V235.8H261.3v14.7Z" class="g0_261"/>
<path fill-rule="evenodd" d="M261.3,265.1H502.6V250.5H261.3v14.6Z" class="g0_261"/>
<path fill-rule="evenodd" d="M261.3,279.8H502.6V265.1H261.3v14.7Z" class="g0_261"/>
<path fill-rule="evenodd" d="M261.3,294.5H502.6V279.8H261.3v14.7Z" class="g0_261"/>
<path fill-rule="evenodd" d="M261.3,309.1H502.6V294.5H261.3v14.6Z" class="g0_261"/>
<path fill-rule="evenodd" d="M261.3,323.8H502.6V309.1H261.3v14.7Z" class="g0_261"/>
<path fill-rule="evenodd" d="M280,338.5H502.6V323.8H280v14.7Z" class="g0_261"/>
<path fill-rule="evenodd" d="M260.9,353.5h241V338.8h-241v14.7Z" class="g0_261"/>
<path fill-rule="evenodd" d="M260.9,368.2h241V353.5h-241v14.7Z" class="g0_261"/>
<path fill-rule="evenodd" d="M260.9,382.9h241V368.2h-241v14.7Z" class="g0_261"/>
<path fill-rule="evenodd" d="M260.9,397.5h241V382.9h-241v14.6Z" class="g0_261"/>
<path fill-rule="evenodd" d="M260.9,412.2h241V397.5h-241v14.7Z" class="g0_261"/>
<path fill-rule="evenodd" d="M260.9,426.9h241V412.2h-241v14.7Z" class="g0_261"/>
<path fill-rule="evenodd" d="M260.9,441.5h241V426.9h-241v14.6Z" class="g0_261"/>
<path fill-rule="evenodd" d="M260.9,456.2h241V441.5h-241v14.7Z" class="g0_261"/>
<path fill-rule="evenodd" d="M260.5,471.8h241V456.9h-241v14.9Z" class="g0_261"/>
<path fill-rule="evenodd" d="M260.5,486.5h241V471.8h-241v14.7Z" class="g0_261"/>
<path fill-rule="evenodd" d="M260.5,501.1h241V486.5h-241v14.6Z" class="g0_261"/>
<path fill-rule="evenodd" d="M260.9,515.8H501.2V501.1H260.9v14.7Z" class="g0_261"/>
<path fill-rule="evenodd" d="M260.9,530.5H501.2V515.8H260.9v14.7Z" class="g0_261"/>
<path fill-rule="evenodd" d="M260.9,545.1H501.2V530.5H260.9v14.6Z" class="g0_261"/>
<path fill-rule="evenodd" d="M279.3,560.5H502.6V545.9H279.3v14.6Z" class="g0_261"/>
<path fill-rule="evenodd" d="M279.3,575.2H502.6V560.5H279.3v14.7Z" class="g0_261"/>
<path fill-rule="evenodd" d="M260.9,590.2H500.8V575.6H260.9v14.6Z" class="g0_261"/>
<path fill-rule="evenodd" d="M260.9,604.9H500.8V590.2H260.9v14.7Z" class="g0_261"/>
<path fill-rule="evenodd" d="M260.9,619.6H500.8V604.9H260.9v14.7Z" class="g0_261"/>
<path fill-rule="evenodd" d="M260.9,634.3H500.8V619.6H260.9v14.7Z" class="g0_261"/>
<path fill-rule="evenodd" d="M260.9,649.7H500.8V634.3H260.9v15.4Z" class="g0_261"/>
<path fill-rule="evenodd" d="M260.9,664.3H500.8V649.7H260.9v14.6Z" class="g0_261"/>
<path fill-rule="evenodd" d="M260.5,679.7H500.8V665.1H260.5v14.6Z" class="g0_261"/>
<path fill-rule="evenodd" d="M260.5,694.4H500.8V679.7H260.5v14.7Z" class="g0_261"/>
<path fill-rule="evenodd" d="M260.5,709.1H500.8V694.4H260.5v14.7Z" class="g0_261"/>
<path fill-rule="evenodd" d="M259.8,724.1H501.2V709.4H259.8v14.7Z" class="g0_261"/>
<path fill-rule="evenodd" d="M259.8,738.8H501.2V724.1H259.8v14.7Z" class="g0_261"/>
<path fill-rule="evenodd" d="M259.8,753.4H501.2V738.8H259.8v14.6Z" class="g0_261"/>
<path fill-rule="evenodd" d="M260.2,768.5H500.8V753.8H260.2v14.7Z" class="g0_261"/>
<path fill-rule="evenodd" d="M260.2,783.1H500.8V768.5H260.2v14.6Z" class="g0_261"/>
<path fill-rule="evenodd" d="M260.2,797.8H500.8V783.1H260.2v14.7Z" class="g0_261"/>
<path fill-rule="evenodd" d="M260.5,812.8H500.4V798.2H260.5v14.6Z" class="g0_261"/>
<path fill-rule="evenodd" d="M260.5,827.5H500.4V812.8H260.5v14.7Z" class="g0_261"/>
<path fill-rule="evenodd" d="M260.2,842.6H500.4V827.9H260.2v14.7Z" class="g0_261"/>
<path fill-rule="evenodd" d="M260.2,857.2H500.4V842.6H260.2v14.6Z" class="g0_261"/>
<path fill-rule="evenodd" d="M259.8,872.5h241V857.6h-241v14.9Z" class="g0_261"/>
<path fill-rule="evenodd" d="M259.8,887.1h241V872.5h-241v14.6Z" class="g0_261"/>
<path fill-rule="evenodd" d="M261.6,901.8H501.9V887.1H261.6v14.7Z" class="g0_261"/>
<path fill-rule="evenodd" d="M522.4,161.7H761.9V147.1H522.4v14.6Z" class="g0_261"/>
<path fill-rule="evenodd" d="M522.1,176.4H762.6V161.7H522.1v14.7Z" class="g0_261"/>
<path fill-rule="evenodd" d="M522.1,191.1H762.6V176.4H522.1v14.7Z" class="g0_261"/>
<path fill-rule="evenodd" d="M522.1,205.7H762.6V191.1H522.1v14.6Z" class="g0_261"/>
<path fill-rule="evenodd" d="M522.1,220.4H762.6V205.7H522.1v14.7Z" class="g0_261"/>
<path fill-rule="evenodd" d="M522.1,235.1H762.6V220.4H522.1v14.7Z" class="g0_261"/>
<path fill-rule="evenodd" d="M522.4,249.7H762.6V235.1H522.4v14.6Z" class="g0_261"/>
<path fill-rule="evenodd" d="M522.4,264.4H762.6V249.7H522.4v14.7Z" class="g0_261"/>
<path fill-rule="evenodd" d="M522.1,279.1H762.3V264.4H522.1v14.7Z" class="g0_261"/>
<path fill-rule="evenodd" d="M522.1,293.7H762.3V279.1H522.1v14.6Z" class="g0_261"/>
<path fill-rule="evenodd" d="M522.1,308.4H762.3V293.7H522.1v14.7Z" class="g0_261"/>
<path fill-rule="evenodd" d="M522.1,323.1H762.3V308.4H522.1v14.7Z" class="g0_261"/>
<path fill-rule="evenodd" d="M522.1,337.7H762.3V323.1H522.1v14.6Z" class="g0_261"/>
<path fill-rule="evenodd" d="M522.1,352.4H762.3V337.7H522.1v14.7Z" class="g0_261"/>
<path fill-rule="evenodd" d="M522.1,367.1H762.3V352.4H522.1v14.7Z" class="g0_261"/>
<path fill-rule="evenodd" d="M521.7,381.8H761.9V367.1H521.7v14.7Z" class="g0_261"/>
<path fill-rule="evenodd" d="M521.7,396.4H761.9V381.8H521.7v14.6Z" class="g0_261"/>
<path fill-rule="evenodd" d="M521.7,411.1H761.9V396.4H521.7v14.7Z" class="g0_261"/>
<path fill-rule="evenodd" d="M521.7,425.8H761.9V411.1H521.7v14.7Z" class="g0_261"/>
<path fill-rule="evenodd" d="M521.7,440.4H761.9V425.8H521.7v14.6Z" class="g0_261"/>
<path fill-rule="evenodd" d="M521.7,455.5H761.5V440.8H521.7v14.7Z" class="g0_261"/>
<path fill-rule="evenodd" d="M521.7,470.1H761.5V455.5H521.7v14.6Z" class="g0_261"/>
<path fill-rule="evenodd" d="M521.7,484.8H761.5V470.1H521.7v14.7Z" class="g0_261"/>
<path fill-rule="evenodd" d="M521.3,499.5H761.5V484.8H521.3v14.7Z" class="g0_261"/>
<path fill-rule="evenodd" d="M521.3,514.1H761.5V499.5H521.3v14.6Z" class="g0_261"/>
<path fill-rule="evenodd" d="M521.3,528.8H761.5V514.1H521.3v14.7Z" class="g0_261"/>
<path fill-rule="evenodd" d="M521.3,543.5H761.5V528.8H521.3v14.7Z" class="g0_261"/>
<path fill-rule="evenodd" d="M521.3,558.1H761.5V543.5H521.3v14.6Z" class="g0_261"/>
<path fill-rule="evenodd" d="M521,572.8H761.5V558.1H521v14.7Z" class="g0_261"/>
<path fill-rule="evenodd" d="M521,587.5H761.5V572.8H521v14.7Z" class="g0_261"/>
<path fill-rule="evenodd" d="M521,602.2H761.5V587.5H521v14.7Z" class="g0_261"/>
<path fill-rule="evenodd" d="M521,617.2H761.5v-15H521v15Z" class="g0_261"/>
<path fill-rule="evenodd" d="M521,631.9H761.5V617.2H521v14.7Z" class="g0_261"/>
<path fill-rule="evenodd" d="M521,646.5H761.5V631.9H521v14.6Z" class="g0_261"/>
<path fill-rule="evenodd" d="M521,661.2H761.5V646.5H521v14.7Z" class="g0_261"/>
<path fill-rule="evenodd" d="M539.3,676.2H762.6V661.6H539.3v14.6Z" class="g0_261"/>
<path fill-rule="evenodd" d="M539.3,690.9H762.6V676.2H539.3v14.7Z" class="g0_261"/>
<path fill-rule="evenodd" d="M521,705.9H760.8V691.3H521v14.6Z" class="g0_261"/>
<path fill-rule="evenodd" d="M520.6,721.2H761.2V706.3H520.6v14.9Z" class="g0_261"/>
<path fill-rule="evenodd" d="M520.6,735.8H761.2V721.2H520.6v14.6Z" class="g0_261"/>
<path fill-rule="evenodd" d="M520.6,750.5H761.2V735.8H520.6v14.7Z" class="g0_261"/>
<path fill-rule="evenodd" d="M520.6,765.2H761.2V750.5H520.6v14.7Z" class="g0_261"/>
<path fill-rule="evenodd" d="M520.6,779.8H761.2V765.2H520.6v14.6Z" class="g0_261"/>
<path fill-rule="evenodd" d="M520.6,794.5H761.2V779.8H520.6v14.7Z" class="g0_261"/>
<path fill-rule="evenodd" d="M520.6,809.2H761.2V794.5H520.6v14.7Z" class="g0_261"/>
<path fill-rule="evenodd" d="M520.6,823.8H761.2V809.2H520.6v14.6Z" class="g0_261"/>
<path fill-rule="evenodd" d="M520.6,838.9H760.8V824.2H520.6v14.7Z" class="g0_261"/>
<path fill-rule="evenodd" d="M520.6,853.6H760.8V838.9H520.6v14.7Z" class="g0_261"/>
<path fill-rule="evenodd" d="M497.1,918.8H762.6V901.4H497.1v17.4Z" class="g0_261"/>
<path d="M199.6,123.6V375.1M207.3,91.3V644.2" class="g1_261"/>
<path d="M185.7,759.8V931.3" class="g2_261"/>
<path d="M510.5,147.4V916" class="g3_261"/>
</svg>