<?xml version="1.0" encoding="UTF-8" standalone="no"?>
<!DOCTYPE svg PUBLIC "-//W3C//DTD SVG 1.1//EN"
"http://www.w3.org/Graphics/SVG/1.1/DTD/svg11.dtd">
<svg viewBox="0 0 909 1285" version="1.1" xmlns="http://www.w3.org/2000/svg" xmlns:xlink="http://www.w3.org/1999/xlink">
<defs>
<style type="text/css"><![CDATA[
.g0_263{
fill: #FFFFFF;
}
.g1_263{
fill: none;
stroke: #000000;
stroke-width: 1.833;
stroke-linecap: butt;
stroke-linejoin: round;
}
.g2_263{
fill: none;
stroke: #000000;
stroke-width: 0.381;
stroke-linecap: butt;
stroke-linejoin: round;
}
.g3_263{
fill: none;
stroke: #000000;
stroke-width: 0.763;
stroke-linecap: butt;
stroke-linejoin: round;
}
]]></style>
</defs>
<path fill-rule="evenodd" d="M261.6,125.8H759V110H261.6v15.8Z" class="g0_263"/>
<path fill-rule="evenodd" d="M260.9,161.7H500.1v-15H260.9v15Z" class="g0_263"/>
<path fill-rule="evenodd" d="M260.9,176.9H500.1V161.7H260.9v15.2Z" class="g0_263"/>
<path fill-rule="evenodd" d="M260.9,192H500.1V176.9H260.9V192Z" class="g0_263"/>
<path fill-rule="evenodd" d="M279.3,207H500.1V192H279.3v15Z" class="g0_263"/>
<path fill-rule="evenodd" d="M261.3,222H500.1V207H261.3v15Z" class="g0_263"/>
<path fill-rule="evenodd" d="M261.3,237.1H500.1V222H261.3v15.1Z" class="g0_263"/>
<path fill-rule="evenodd" d="M261.3,252.1H500.1v-15H261.3v15Z" class="g0_263"/>
<path fill-rule="evenodd" d="M260.5,267.1H499.3v-15H260.5v15Z" class="g0_263"/>
<path fill-rule="evenodd" d="M260.5,282.2H499.3V267.1H260.5v15.1Z" class="g0_263"/>
<path fill-rule="evenodd" d="M260.5,297.2H499.3v-15H260.5v15Z" class="g0_263"/>
<path fill-rule="evenodd" d="M260.5,312.2H499.3v-15H260.5v15Z" class="g0_263"/>
<path fill-rule="evenodd" d="M260.9,327.3H499.7V312.2H260.9v15.1Z" class="g0_263"/>
<path fill-rule="evenodd" d="M260.9,342.5H499.7V327.3H260.9v15.2Z" class="g0_263"/>
<path fill-rule="evenodd" d="M260.9,357.6H499.7V342.5H260.9v15.1Z" class="g0_263"/>
<path fill-rule="evenodd" d="M260.2,372.6H499.3v-15H260.2v15Z" class="g0_263"/>
<path fill-rule="evenodd" d="M260.2,387.6H499.3v-15H260.2v15Z" class="g0_263"/>
<path fill-rule="evenodd" d="M260.2,402.7H499.3V387.6H260.2v15.1Z" class="g0_263"/>
<path fill-rule="evenodd" d="M260.2,417.7H499.3v-15H260.2v15Z" class="g0_263"/>
<path fill-rule="evenodd" d="M260.2,432.7H499v-15H260.2v15Z" class="g0_263"/>
<path fill-rule="evenodd" d="M260.2,447.8H499V432.7H260.2v15.1Z" class="g0_263"/>
<path fill-rule="evenodd" d="M260.2,462.8H499v-15H260.2v15Z" class="g0_263"/>
<path fill-rule="evenodd" d="M260.5,477.8H498.6v-15H260.5v15Z" class="g0_263"/>
<path fill-rule="evenodd" d="M260.5,492.9H498.6V477.8H260.5v15.1Z" class="g0_263"/>
<path fill-rule="evenodd" d="M260.5,507.9H498.6v-15H260.5v15Z" class="g0_263"/>
<path fill-rule="evenodd" d="M260.5,523.1H498.6V507.9H260.5v15.2Z" class="g0_263"/>
<path fill-rule="evenodd" d="M260.2,538.5H499v-15H260.2v15Z" class="g0_263"/>
<path fill-rule="evenodd" d="M260.2,553.6H499V538.5H260.2v15.1Z" class="g0_263"/>
<path fill-rule="evenodd" d="M260.5,568.6H499v-15H260.5v15Z" class="g0_263"/>
<path fill-rule="evenodd" d="M260.5,583.6H499v-15H260.5v15Z" class="g0_263"/>
<path fill-rule="evenodd" d="M260.5,598.7H499V583.6H260.5v15.1Z" class="g0_263"/>
<path fill-rule="evenodd" d="M260.2,613.7H498.6v-15H260.2v15Z" class="g0_263"/>
<path fill-rule="evenodd" d="M260.2,628.8H498.6V613.7H260.2v15.1Z" class="g0_263"/>
<path fill-rule="evenodd" d="M259.4,643.8H498.6v-15H259.4v15Z" class="g0_263"/>
<path fill-rule="evenodd" d="M259.4,658.8H498.6v-15H259.4v15Z" class="g0_263"/>
<path fill-rule="evenodd" d="M259.4,673.9H498.6V658.8H259.4v15.1Z" class="g0_263"/>
<path fill-rule="evenodd" d="M259.8,689.1H498.2V673.9H259.8v15.2Z" class="g0_263"/>
<path fill-rule="evenodd" d="M259.8,704.1H498.2v-15H259.8v15Z" class="g0_263"/>
<path fill-rule="evenodd" d="M259.8,719.1H498.2v-15H259.8v15Z" class="g0_263"/>
<path fill-rule="evenodd" d="M259.4,734.2H498.2V719.1H259.4v15.1Z" class="g0_263"/>
<path fill-rule="evenodd" d="M259.4,749.2H498.2v-15H259.4v15Z" class="g0_263"/>
<path fill-rule="evenodd" d="M259.4,764.2H498.2v-15H259.4v15Z" class="g0_263"/>
<path fill-rule="evenodd" d="M259.4,779.3H498.2V764.2H259.4v15.1Z" class="g0_263"/>
<path fill-rule="evenodd" d="M259.4,794.3H498.2v-15H259.4v15Z" class="g0_263"/>
<path fill-rule="evenodd" d="M259.4,809.3H498.2v-15H259.4v15Z" class="g0_263"/>
<path fill-rule="evenodd" d="M259.4,824.4H498.2V809.3H259.4v15.1Z" class="g0_263"/>
<path fill-rule="evenodd" d="M259.4,839.5H497.9V824.4H259.4v15.1Z" class="g0_263"/>
<path fill-rule="evenodd" d="M259.4,854.5H497.9v-15H259.4v15Z" class="g0_263"/>
<path fill-rule="evenodd" d="M259.1,869.7H498.2V854.5H259.1v15.2Z" class="g0_263"/>
<path fill-rule="evenodd" d="M259.1,884.7H498.2v-15H259.1v15Z" class="g0_263"/>
<path fill-rule="evenodd" d="M259.1,899.8H498.2V884.7H259.1v15.1Z" class="g0_263"/>
<path fill-rule="evenodd" d="M280,914.8H500.1v-15H280v15Z" class="g0_263"/>
<path fill-rule="evenodd" d="M538.9,161.4H759V146.3H538.9v15.1Z" class="g0_263"/>
<path fill-rule="evenodd" d="M520.2,176.4H759v-15H520.2v15Z" class="g0_263"/>
<path fill-rule="evenodd" d="M520.2,191.6H759V176.4H520.2v15.2Z" class="g0_263"/>
<path fill-rule="evenodd" d="M520.2,206.6H759v-15H520.2v15Z" class="g0_263"/>
<path fill-rule="evenodd" d="M520.2,221.7H758.6V206.6H520.2v15.1Z" class="g0_263"/>
<path fill-rule="evenodd" d="M520.2,236.7H758.6v-15H520.2v15Z" class="g0_263"/>
<path fill-rule="evenodd" d="M519.5,251.7H759v-15H519.5v15Z" class="g0_263"/>
<path fill-rule="evenodd" d="M519.5,266.8H759V251.7H519.5v15.1Z" class="g0_263"/>
<path fill-rule="evenodd" d="M519.5,281.8H759v-15H519.5v15Z" class="g0_263"/>
<path fill-rule="evenodd" d="M519.5,296.8H759v-15H519.5v15Z" class="g0_263"/>
<path fill-rule="evenodd" d="M519.5,311.9H759V296.8H519.5v15.1Z" class="g0_263"/>
<path fill-rule="evenodd" d="M519.5,326.9H759v-15H519.5v15Z" class="g0_263"/>
<path fill-rule="evenodd" d="M519.5,341.9H759v-15H519.5v15Z" class="g0_263"/>
<path fill-rule="evenodd" d="M519.5,357.2H759V342H519.5v15.2Z" class="g0_263"/>
<path fill-rule="evenodd" d="M519.5,372.2H759v-15H519.5v15Z" class="g0_263"/>
<path fill-rule="evenodd" d="M519.5,387.3H759V372.2H519.5v15.1Z" class="g0_263"/>
<path fill-rule="evenodd" d="M519.5,402.3H759v-15H519.5v15Z" class="g0_263"/>
<path fill-rule="evenodd" d="M519.5,417.3H759v-15H519.5v15Z" class="g0_263"/>
<path fill-rule="evenodd" d="M519.5,432.4H759V417.3H519.5v15.1Z" class="g0_263"/>
<path fill-rule="evenodd" d="M519.5,447.4H759v-15H519.5v15Z" class="g0_263"/>
<path fill-rule="evenodd" d="M519.5,462.4H757.9v-15H519.5v15Z" class="g0_263"/>
<path fill-rule="evenodd" d="M519.5,477.5H757.9V462.4H519.5v15.1Z" class="g0_263"/>
<path fill-rule="evenodd" d="M519.5,492.5H757.9v-15H519.5v15Z" class="g0_263"/>
<path fill-rule="evenodd" d="M519.5,507.5H757.9v-15H519.5v15Z" class="g0_263"/>
<path fill-rule="evenodd" d="M519.5,522.6H757.9V507.5H519.5v15.1Z" class="g0_263"/>
<path fill-rule="evenodd" d="M519.5,537.8h238V522.6h-238v15.2Z" class="g0_263"/>
<path fill-rule="evenodd" d="M519.5,552.8h238v-15h-238v15Z" class="g0_263"/>
<path fill-rule="evenodd" d="M537.5,567.9H759V552.8H537.5v15.1Z" class="g0_263"/>
<path fill-rule="evenodd" d="M537.1,582.9H759v-15H537.1v15Z" class="g0_263"/>
<path fill-rule="evenodd" d="M537.1,598H759V582.9H537.1V598Z" class="g0_263"/>
<path fill-rule="evenodd" d="M519.1,613H757.5V598H519.1v15Z" class="g0_263"/>
<path fill-rule="evenodd" d="M519.1,628H757.5V613H519.1v15Z" class="g0_263"/>
<path fill-rule="evenodd" d="M519.1,643.1H757.5V628H519.1v15.1Z" class="g0_263"/>
<path fill-rule="evenodd" d="M519.1,658.1H757.5v-15H519.1v15Z" class="g0_263"/>
<path fill-rule="evenodd" d="M519.1,673.1H757.5v-15H519.1v15Z" class="g0_263"/>
<path fill-rule="evenodd" d="M519.1,688.2H756.8V673.1H519.1v15.1Z" class="g0_263"/>
<path fill-rule="evenodd" d="M519.1,703.2H756.8v-15H519.1v15Z" class="g0_263"/>
<path fill-rule="evenodd" d="M537.1,718.4H759V703.2H537.1v15.2Z" class="g0_263"/>
<path fill-rule="evenodd" d="M536.7,733.4H759v-15H536.7v15Z" class="g0_263"/>
<path fill-rule="evenodd" d="M518.8,748.5H757.9V733.4H518.8v15.1Z" class="g0_263"/>
<path fill-rule="evenodd" d="M518.8,763.5H757.9v-15H518.8v15Z" class="g0_263"/>
<path fill-rule="evenodd" d="M518.8,778.5H757.9v-15H518.8v15Z" class="g0_263"/>
<path fill-rule="evenodd" d="M518.8,793.6H757.1V778.5H518.8v15.1Z" class="g0_263"/>
<path fill-rule="evenodd" d="M518.8,808.6H757.1v-15H518.8v15Z" class="g0_263"/>
<path fill-rule="evenodd" d="M518.8,823.6H757.1v-15H518.8v15Z" class="g0_263"/>
<path fill-rule="evenodd" d="M536.7,838.7H759V823.6H536.7v15.1Z" class="g0_263"/>
<path fill-rule="evenodd" d="M518,853.8H757.1V838.7H518v15.1Z" class="g0_263"/>
<path fill-rule="evenodd" d="M518,868.8H757.1v-15H518v15Z" class="g0_263"/>
<path fill-rule="evenodd" d="M518,883.8H757.1v-15H518v15Z" class="g0_263"/>
<path d="M198.5,95.3V411.4" class="g1_263"/>
<path d="M204,95.3V246.7" class="g2_263"/>
<path d="M201.5,411.1V898" class="g3_263"/>
<path d="M201.8,131.3V671.1m2.6,-417.6V452.9M508,147.4V915.6" class="g2_263"/>
</svg>