<?xml version="1.0" encoding="UTF-8" standalone="no"?>
<!DOCTYPE svg PUBLIC "-//W3C//DTD SVG 1.1//EN"
"http://www.w3.org/Graphics/SVG/1.1/DTD/svg11.dtd">
<svg viewBox="0 0 909 1285" version="1.1" xmlns="http://www.w3.org/2000/svg" xmlns:xlink="http://www.w3.org/1999/xlink">
<defs>
<style type="text/css"><![CDATA[
.g0_326{
fill: #FFFFFF;
}
.g1_326{
fill: none;
stroke: #000000;
stroke-width: 0.381;
stroke-linecap: butt;
stroke-linejoin: round;
}
]]></style>
</defs>
<path fill-rule="evenodd" d="M651.2,134.6h59.4V110H651.2v24.6Z" class="g0_326"/>
<path fill-rule="evenodd" d="M189.4,169.1H428.9V154H189.4v15.1Z" class="g0_326"/>
<path fill-rule="evenodd" d="M189.4,184.3H428.9V169.1H189.4v15.2Z" class="g0_326"/>
<path fill-rule="evenodd" d="M189.4,199.3H428.9v-15H189.4v15Z" class="g0_326"/>
<path fill-rule="evenodd" d="M207.7,214.3H428.9v-15H207.7v15Z" class="g0_326"/>
<path fill-rule="evenodd" d="M187.9,229.4H428.5V214.3H187.9v15.1Z" class="g0_326"/>
<path fill-rule="evenodd" d="M187.9,244.4H428.5v-15H187.9v15Z" class="g0_326"/>
<path fill-rule="evenodd" d="M187.9,259.4H428.5v-15H187.9v15Z" class="g0_326"/>
<path fill-rule="evenodd" d="M189.8,274.5H428.1V259.4H189.8v15.1Z" class="g0_326"/>
<path fill-rule="evenodd" d="M189.8,289.5H428.1v-15H189.8v15Z" class="g0_326"/>
<path fill-rule="evenodd" d="M189.4,304.5H428.9v-15H189.4v15Z" class="g0_326"/>
<path fill-rule="evenodd" d="M189.4,319.6H428.9V304.5H189.4v15.1Z" class="g0_326"/>
<path fill-rule="evenodd" d="M189.4,334.6H428.9v-15H189.4v15Z" class="g0_326"/>
<path fill-rule="evenodd" d="M189.4,349.6H428.9v-15H189.4v15Z" class="g0_326"/>
<path fill-rule="evenodd" d="M189.4,364.9H428.5V349.7H189.4v15.2Z" class="g0_326"/>
<path fill-rule="evenodd" d="M189.4,379.9H428.5v-15H189.4v15Z" class="g0_326"/>
<path fill-rule="evenodd" d="M189,395H428.1V379.9H189V395Z" class="g0_326"/>
<path fill-rule="evenodd" d="M189,410H428.1V395H189v15Z" class="g0_326"/>
<path fill-rule="evenodd" d="M189,425H428.1V410H189v15Z" class="g0_326"/>
<path fill-rule="evenodd" d="M189,440.1H428.5V425H189v15.1Z" class="g0_326"/>
<path fill-rule="evenodd" d="M189,455.1H428.5v-15H189v15Z" class="g0_326"/>
<path fill-rule="evenodd" d="M189,470.1H428.5v-15H189v15Z" class="g0_326"/>
<path fill-rule="evenodd" d="M189,485.2H428.5V470.1H189v15.1Z" class="g0_326"/>
<path fill-rule="evenodd" d="M207.4,500.2H428.9v-15H207.4v15Z" class="g0_326"/>
<path fill-rule="evenodd" d="M188.7,515.2H428.9v-15H188.7v15Z" class="g0_326"/>
<path fill-rule="evenodd" d="M188.7,530.5H428.9V515.2H188.7v15.3Z" class="g0_326"/>
<path fill-rule="evenodd" d="M188.7,545.5H428.9v-15H188.7v15Z" class="g0_326"/>
<path fill-rule="evenodd" d="M188.7,560.5H428.9v-15H188.7v15Z" class="g0_326"/>
<path fill-rule="evenodd" d="M187.6,575.6H428.1V560.5H187.6v15.1Z" class="g0_326"/>
<path fill-rule="evenodd" d="M187.6,590.6H428.1v-15H187.6v15Z" class="g0_326"/>
<path fill-rule="evenodd" d="M187.6,605.7H428.1V590.6H187.6v15.1Z" class="g0_326"/>
<path fill-rule="evenodd" d="M187.6,620.7H428.1v-15H187.6v15Z" class="g0_326"/>
<path fill-rule="evenodd" d="M187.6,635.7H428.1v-15H187.6v15Z" class="g0_326"/>
<path fill-rule="evenodd" d="M207,650.8H428.9V635.7H207v15.1Z" class="g0_326"/>
<path fill-rule="evenodd" d="M188.3,665.8H428.5v-15H188.3v15Z" class="g0_326"/>
<path fill-rule="evenodd" d="M188.3,680.8H428.5v-15H188.3v15Z" class="g0_326"/>
<path fill-rule="evenodd" d="M188.3,695.9H428.5V680.8H188.3v15.1Z" class="g0_326"/>
<path fill-rule="evenodd" d="M188.3,711.1H428.5V695.9H188.3v15.2Z" class="g0_326"/>
<path fill-rule="evenodd" d="M188.7,726.1H428.1v-15H188.7v15Z" class="g0_326"/>
<path fill-rule="evenodd" d="M188.7,741.1H428.1v-15H188.7v15Z" class="g0_326"/>
<path fill-rule="evenodd" d="M188.7,756.2H428.1V741.1H188.7v15.1Z" class="g0_326"/>
<path fill-rule="evenodd" d="M188.7,771.2H427.8v-15H188.7v15Z" class="g0_326"/>
<path fill-rule="evenodd" d="M188.7,786.2H427.8v-15H188.7v15Z" class="g0_326"/>
<path fill-rule="evenodd" d="M206.6,801.3H428.9V786.2H206.6v15.1Z" class="g0_326"/>
<path fill-rule="evenodd" d="M187.9,816.3H427.8v-15H187.9v15Z" class="g0_326"/>
<path fill-rule="evenodd" d="M187.9,831.3H427.8v-15H187.9v15Z" class="g0_326"/>
<path fill-rule="evenodd" d="M189,846.4H427.4V831.3H189v15.1Z" class="g0_326"/>
<path fill-rule="evenodd" d="M189,861.5H427.4V846.4H189v15.1Z" class="g0_326"/>
<path fill-rule="evenodd" d="M188.3,876.5H428.5v-15H188.3v15Z" class="g0_326"/>
<path fill-rule="evenodd" d="M188.3,891.7H428.5V876.5H188.3v15.2Z" class="g0_326"/>
<path fill-rule="evenodd" d="M188.3,906.7H428.5v-15H188.3v15Z" class="g0_326"/>
<path fill-rule="evenodd" d="M188.3,921.8H428.1V906.7H188.3v15.1Z" class="g0_326"/>
<path fill-rule="evenodd" d="M449.1,168.3H689.3v-15H449.1v15Z" class="g0_326"/>
<path fill-rule="evenodd" d="M449.1,183.4H689.3V168.3H449.1v15.1Z" class="g0_326"/>
<path fill-rule="evenodd" d="M449.8,198.4H689.7v-15H449.8v15Z" class="g0_326"/>
<path fill-rule="evenodd" d="M449.8,213.6H689.7V198.4H449.8v15.2Z" class="g0_326"/>
<path fill-rule="evenodd" d="M449.8,228.6H689.7v-15H449.8v15Z" class="g0_326"/>
<path fill-rule="evenodd" d="M449.8,243.7H689.7V228.6H449.8v15.1Z" class="g0_326"/>
<path fill-rule="evenodd" d="M449.8,258.7H690v-15H449.8v15Z" class="g0_326"/>
<path fill-rule="evenodd" d="M449.8,273.7H690v-15H449.8v15Z" class="g0_326"/>
<path fill-rule="evenodd" d="M449.8,288.8H689.3V273.7H449.8v15.1Z" class="g0_326"/>
<path fill-rule="evenodd" d="M449.8,303.8H689.3v-15H449.8v15Z" class="g0_326"/>
<path fill-rule="evenodd" d="M449.8,318.8H689.7v-15H449.8v15Z" class="g0_326"/>
<path fill-rule="evenodd" d="M449.8,333.9H689.7V318.8H449.8v15.1Z" class="g0_326"/>
<path fill-rule="evenodd" d="M449.1,348.9H689.7v-15H449.1v15Z" class="g0_326"/>
<path fill-rule="evenodd" d="M449.1,364H689.7V348.9H449.1V364Z" class="g0_326"/>
<path fill-rule="evenodd" d="M449.1,379.2H689.7V364H449.1v15.2Z" class="g0_326"/>
<path fill-rule="evenodd" d="M449.5,394.2H689.7v-15H449.5v15Z" class="g0_326"/>
<path fill-rule="evenodd" d="M449.5,409.3H689.7V394.2H449.5v15.1Z" class="g0_326"/>
<path fill-rule="evenodd" d="M449.5,424.3H689.7v-15H449.5v15Z" class="g0_326"/>
<path fill-rule="evenodd" d="M448.7,439.3h241v-15h-241v15Z" class="g0_326"/>
<path fill-rule="evenodd" d="M448.7,454.4h241V439.3h-241v15.1Z" class="g0_326"/>
<path fill-rule="evenodd" d="M448.7,469.4h241v-15h-241v15Z" class="g0_326"/>
<path fill-rule="evenodd" d="M448.7,484.4h241v-15h-241v15Z" class="g0_326"/>
<path fill-rule="evenodd" d="M448.7,499.5h241V484.4h-241v15.1Z" class="g0_326"/>
<path fill-rule="evenodd" d="M448.7,514.5h241v-15h-241v15Z" class="g0_326"/>
<path fill-rule="evenodd" d="M448.7,529.5h241v-15h-241v15Z" class="g0_326"/>
<path fill-rule="evenodd" d="M448.7,544.6h241V529.5h-241v15.1Z" class="g0_326"/>
<path fill-rule="evenodd" d="M449.1,559.8H689.3V544.6H449.1v15.2Z" class="g0_326"/>
<path fill-rule="evenodd" d="M449.1,574.8H689.3v-15H449.1v15Z" class="g0_326"/>
<path fill-rule="evenodd" d="M448.3,589.9h241V574.8h-241v15.1Z" class="g0_326"/>
<path fill-rule="evenodd" d="M448.3,604.9h241v-15h-241v15Z" class="g0_326"/>
<path fill-rule="evenodd" d="M448.7,620H689.3V604.9H448.7V620Z" class="g0_326"/>
<path fill-rule="evenodd" d="M448.7,635H689.3V620H448.7v15Z" class="g0_326"/>
<path fill-rule="evenodd" d="M448.7,650H689.3V635H448.7v15Z" class="g0_326"/>
<path fill-rule="evenodd" d="M448.7,665.1H689.3V650H448.7v15.1Z" class="g0_326"/>
<path fill-rule="evenodd" d="M448.7,680.1H689.3v-15H448.7v15Z" class="g0_326"/>
<path fill-rule="evenodd" d="M448.7,695.1H689.3v-15H448.7v15Z" class="g0_326"/>
<path fill-rule="evenodd" d="M448.7,710.2H689.3V695.1H448.7v15.1Z" class="g0_326"/>
<path fill-rule="evenodd" d="M448.3,725.2h241v-15h-241v15Z" class="g0_326"/>
<path fill-rule="evenodd" d="M448.3,740.4h241V725.2h-241v15.2Z" class="g0_326"/>
<path fill-rule="evenodd" d="M448.3,755.4h241v-15h-241v15Z" class="g0_326"/>
<path fill-rule="evenodd" d="M448.7,770.5h241V755.4h-241v15.1Z" class="g0_326"/>
<path fill-rule="evenodd" d="M448.7,785.5h241v-15h-241v15Z" class="g0_326"/>
<path fill-rule="evenodd" d="M448.7,800.5h241v-15h-241v15Z" class="g0_326"/>
<path fill-rule="evenodd" d="M448.7,815.6h241V800.5h-241v15.1Z" class="g0_326"/>
<path fill-rule="evenodd" d="M448.7,830.6h241v-15h-241v15Z" class="g0_326"/>
<path fill-rule="evenodd" d="M467.4,845.7H690V830.6H467.4v15.1Z" class="g0_326"/>
<path fill-rule="evenodd" d="M467.1,860.7H690v-15H467.1v15Z" class="g0_326"/>
<path fill-rule="evenodd" d="M448.7,875.8H689.3V860.7H448.7v15.1Z" class="g0_326"/>
<path fill-rule="evenodd" d="M448.7,890.8H689.3v-15H448.7v15Z" class="g0_326"/>
<path d="M438,153.7V922.2" class="g1_326"/>
</svg>