<?xml version="1.0" encoding="UTF-8" standalone="no"?>
<!DOCTYPE svg PUBLIC "-//W3C//DTD SVG 1.1//EN"
"http://www.w3.org/Graphics/SVG/1.1/DTD/svg11.dtd">
<svg viewBox="0 0 909 1285" version="1.1" xmlns="http://www.w3.org/2000/svg" xmlns:xlink="http://www.w3.org/1999/xlink">
<defs>
<style type="text/css"><![CDATA[
.g0_76{
fill: #FFFFFF;
}
.g1_76{
fill: none;
stroke: #000000;
stroke-width: 0.381;
stroke-linecap: butt;
stroke-linejoin: round;
}
]]></style>
</defs>
<path fill-rule="evenodd" d="M587.5,125.8H688.7V110H587.5v15.8Z" class="g0_76"/>
<path fill-rule="evenodd" d="M190.7,161.4h238V146.7h-238v14.7Z" class="g0_76"/>
<path fill-rule="evenodd" d="M190.7,176h238V161.4h-238V176Z" class="g0_76"/>
<path fill-rule="evenodd" d="M190.7,190.7h238V176h-238v14.7Z" class="g0_76"/>
<path fill-rule="evenodd" d="M190.7,205.4h238V190.7h-238v14.7Z" class="g0_76"/>
<path fill-rule="evenodd" d="M190.7,220H429.1V205.4H190.7V220Z" class="g0_76"/>
<path fill-rule="evenodd" d="M190.7,234.7H429.1V220H190.7v14.7Z" class="g0_76"/>
<path fill-rule="evenodd" d="M190.7,249.4H429.1V234.7H190.7v14.7Z" class="g0_76"/>
<path fill-rule="evenodd" d="M208.7,264H429.1V249.4H208.7V264Z" class="g0_76"/>
<path fill-rule="evenodd" d="M190.7,279.6H428.3V264.8H190.7v14.8Z" class="g0_76"/>
<path fill-rule="evenodd" d="M190.7,294.3H428.3V279.6H190.7v14.7Z" class="g0_76"/>
<path fill-rule="evenodd" d="M190.7,308.9H428.3V294.3H190.7v14.6Z" class="g0_76"/>
<path fill-rule="evenodd" d="M190,324H428.7V309.3H190V324Z" class="g0_76"/>
<path fill-rule="evenodd" d="M190,338.6H428.7V324H190v14.6Z" class="g0_76"/>
<path fill-rule="evenodd" d="M190,353.4H428.7V338.7H190v14.7Z" class="g0_76"/>
<path fill-rule="evenodd" d="M190,368H428.7V353.4H190V368Z" class="g0_76"/>
<path fill-rule="evenodd" d="M190,382.7H429.1V368H190v14.7Z" class="g0_76"/>
<path fill-rule="evenodd" d="M190,397.4H429.1V382.7H190v14.7Z" class="g0_76"/>
<path fill-rule="evenodd" d="M190,412H429.1V397.4H190V412Z" class="g0_76"/>
<path fill-rule="evenodd" d="M190.3,427.4h238V412.8h-238v14.6Z" class="g0_76"/>
<path fill-rule="evenodd" d="M190.3,442.1h238V427.4h-238v14.7Z" class="g0_76"/>
<path fill-rule="evenodd" d="M189.6,456.8H428.3V442.1H189.6v14.7Z" class="g0_76"/>
<path fill-rule="evenodd" d="M189.6,471.4H428.3V456.8H189.6v14.6Z" class="g0_76"/>
<path fill-rule="evenodd" d="M189.6,486.1H428.3V471.4H189.6v14.7Z" class="g0_76"/>
<path fill-rule="evenodd" d="M189.6,500.8H428.3V486.1H189.6v14.7Z" class="g0_76"/>
<path fill-rule="evenodd" d="M189.2,515.8H428V501.1H189.2v14.7Z" class="g0_76"/>
<path fill-rule="evenodd" d="M189.2,530.5H428V515.8H189.2v14.7Z" class="g0_76"/>
<path fill-rule="evenodd" d="M189.2,545.1H428V530.5H189.2v14.6Z" class="g0_76"/>
<path fill-rule="evenodd" d="M188.9,559.8H428V545.1H188.9v14.7Z" class="g0_76"/>
<path fill-rule="evenodd" d="M188.9,574.5H428V559.8H188.9v14.7Z" class="g0_76"/>
<path fill-rule="evenodd" d="M188.9,589.1H428V574.5H188.9v14.6Z" class="g0_76"/>
<path fill-rule="evenodd" d="M188.9,603.8H428V589.1H188.9v14.7Z" class="g0_76"/>
<path fill-rule="evenodd" d="M188.9,618.5H428V603.8H188.9v14.7Z" class="g0_76"/>
<path fill-rule="evenodd" d="M188.9,633.2H428V618.5H188.9v14.7Z" class="g0_76"/>
<path fill-rule="evenodd" d="M188.9,647.8H428V633.2H188.9v14.6Z" class="g0_76"/>
<path fill-rule="evenodd" d="M188.9,662.5H428V647.8H188.9v14.7Z" class="g0_76"/>
<path fill-rule="evenodd" d="M189.2,677.2h238V662.5h-238v14.7Z" class="g0_76"/>
<path fill-rule="evenodd" d="M189.2,691.8h238V677.2h-238v14.6Z" class="g0_76"/>
<path fill-rule="evenodd" d="M207.2,706.5H429.1V691.8H207.2v14.7Z" class="g0_76"/>
<path fill-rule="evenodd" d="M206.8,721.2H429.1V706.5H206.8v14.7Z" class="g0_76"/>
<path fill-rule="evenodd" d="M207.2,736.2H429.1V721.5H207.2v14.7Z" class="g0_76"/>
<path fill-rule="evenodd" d="M188.5,750.9H426.9V736.2H188.5v14.7Z" class="g0_76"/>
<path fill-rule="evenodd" d="M188.5,765.5H426.9V750.9H188.5v14.6Z" class="g0_76"/>
<path fill-rule="evenodd" d="M188.9,780.6H426.5V765.9H188.9v14.7Z" class="g0_76"/>
<path fill-rule="evenodd" d="M188.9,795.2H426.5V780.6H188.9v14.6Z" class="g0_76"/>
<path fill-rule="evenodd" d="M188.5,809.9H426.9V795.2H188.5v14.7Z" class="g0_76"/>
<path fill-rule="evenodd" d="M188.5,824.6H426.9V809.9H188.5v14.7Z" class="g0_76"/>
<path fill-rule="evenodd" d="M188.1,839.6H426.9V824.9H188.1v14.7Z" class="g0_76"/>
<path fill-rule="evenodd" d="M188.1,854.3H426.9V839.6H188.1v14.7Z" class="g0_76"/>
<path fill-rule="evenodd" d="M188.1,869H426.9V854.3H188.1V869Z" class="g0_76"/>
<path fill-rule="evenodd" d="M190.7,883.6H429.1V869H190.7v14.6Z" class="g0_76"/>
<path fill-rule="evenodd" d="M449.6,161.4H688.4V146.7H449.6v14.7Z" class="g0_76"/>
<path fill-rule="evenodd" d="M449.6,176H688.4V161.4H449.6V176Z" class="g0_76"/>
<path fill-rule="evenodd" d="M449.6,190.7H688.4V176H449.6v14.7Z" class="g0_76"/>
<path fill-rule="evenodd" d="M449.6,205.4H688.4V190.7H449.6v14.7Z" class="g0_76"/>
<path fill-rule="evenodd" d="M449.6,220H688.4V205.4H449.6V220Z" class="g0_76"/>
<path fill-rule="evenodd" d="M449.3,234.7H688.4V220H449.3v14.7Z" class="g0_76"/>
<path fill-rule="evenodd" d="M449.3,249.4H688.4V234.7H449.3v14.7Z" class="g0_76"/>
<path fill-rule="evenodd" d="M449.3,264H688.4V249.4H449.3V264Z" class="g0_76"/>
<path fill-rule="evenodd" d="M449.3,278.7H688.4V264H449.3v14.7Z" class="g0_76"/>
<path fill-rule="evenodd" d="M448.9,294.3H688.4V279.4H448.9v14.9Z" class="g0_76"/>
<path fill-rule="evenodd" d="M448.9,308.9H688.4V294.3H448.9v14.6Z" class="g0_76"/>
<path fill-rule="evenodd" d="M448.9,323.6H688.4V308.9H448.9v14.7Z" class="g0_76"/>
<path fill-rule="evenodd" d="M448.9,338.3H688.4V323.6H448.9v14.7Z" class="g0_76"/>
<path fill-rule="evenodd" d="M448.9,353H688.4V338.3H448.9V353Z" class="g0_76"/>
<path fill-rule="evenodd" d="M448.9,367.7H688.4V353H448.9v14.7Z" class="g0_76"/>
<path fill-rule="evenodd" d="M448.9,382.3H688.4V367.7H448.9v14.6Z" class="g0_76"/>
<path fill-rule="evenodd" d="M448.9,397H688.4V382.3H448.9V397Z" class="g0_76"/>
<path fill-rule="evenodd" d="M448.9,411.7H688.4V397H448.9v14.7Z" class="g0_76"/>
<path fill-rule="evenodd" d="M448.9,426.3H688.4V411.7H448.9v14.6Z" class="g0_76"/>
<path fill-rule="evenodd" d="M448.9,441H688.4V426.3H448.9V441Z" class="g0_76"/>
<path fill-rule="evenodd" d="M448.5,456H687.7V441.4H448.5V456Z" class="g0_76"/>
<path fill-rule="evenodd" d="M448.5,470.7H687.7V456H448.5v14.7Z" class="g0_76"/>
<path fill-rule="evenodd" d="M448.5,485.4H687.7V470.7H448.5v14.7Z" class="g0_76"/>
<path fill-rule="evenodd" d="M448.5,500H687.7V485.4H448.5V500Z" class="g0_76"/>
<path fill-rule="evenodd" d="M448.5,514.7H687.7V500H448.5v14.7Z" class="g0_76"/>
<path fill-rule="evenodd" d="M448.5,529.4H687.7V514.7H448.5v14.7Z" class="g0_76"/>
<path fill-rule="evenodd" d="M448.5,544H687.7V529.4H448.5V544Z" class="g0_76"/>
<path fill-rule="evenodd" d="M448.5,558.7H687.7V544H448.5v14.7Z" class="g0_76"/>
<path fill-rule="evenodd" d="M448.9,574.1H687.3V559.4H448.9v14.7Z" class="g0_76"/>
<path fill-rule="evenodd" d="M448.9,588.8H687.3V574.1H448.9v14.7Z" class="g0_76"/>
<path fill-rule="evenodd" d="M466.5,603.8H688.4V589.1H466.5v14.7Z" class="g0_76"/>
<path fill-rule="evenodd" d="M447.8,618.9H686.9V604.2H447.8v14.7Z" class="g0_76"/>
<path fill-rule="evenodd" d="M447.8,633.5H686.9V618.9H447.8v14.6Z" class="g0_76"/>
<path fill-rule="evenodd" d="M447.8,648.2H686.9V633.5H447.8v14.7Z" class="g0_76"/>
<path fill-rule="evenodd" d="M447.8,662.9H686.9V648.2H447.8v14.7Z" class="g0_76"/>
<path fill-rule="evenodd" d="M447.8,677.5H686.9V662.9H447.8v14.6Z" class="g0_76"/>
<path fill-rule="evenodd" d="M448.1,692.9H686.2V678.3H448.1v14.6Z" class="g0_76"/>
<path fill-rule="evenodd" d="M448.1,707.6H686.2V692.9H448.1v14.7Z" class="g0_76"/>
<path fill-rule="evenodd" d="M466.1,722.3H688.4V707.6H466.1v14.7Z" class="g0_76"/>
<path fill-rule="evenodd" d="M465.8,736.9H688.4V722.3H465.8v14.6Z" class="g0_76"/>
<path fill-rule="evenodd" d="M465.8,752H688.4V736.9H465.8V752Z" class="g0_76"/>
<path fill-rule="evenodd" d="M447.4,766.6H686.6V752H447.4v14.6Z" class="g0_76"/>
<path fill-rule="evenodd" d="M447.4,781.3H686.6V766.6H447.4v14.7Z" class="g0_76"/>
<path fill-rule="evenodd" d="M447.4,796H686.6V781.3H447.4V796Z" class="g0_76"/>
<path fill-rule="evenodd" d="M447.4,810.6H686.6V796H447.4v14.6Z" class="g0_76"/>
<path fill-rule="evenodd" d="M447.4,825.3H686.6V810.6H447.4v14.7Z" class="g0_76"/>
<path fill-rule="evenodd" d="M447.4,840H686.6V825.3H447.4V840Z" class="g0_76"/>
<path fill-rule="evenodd" d="M447,854.7H686.2V840H447v14.7Z" class="g0_76"/>
<path fill-rule="evenodd" d="M447,869.3H686.2V854.7H447v14.6Z" class="g0_76"/>
<path fill-rule="evenodd" d="M447,884H686.2V869.3H447V884Z" class="g0_76"/>
<path d="M436.3,146V914.5" class="g1_76"/>
</svg>