<?xml version="1.0" encoding="UTF-8" standalone="no"?>
<!DOCTYPE svg PUBLIC "-//W3C//DTD SVG 1.1//EN"
"http://www.w3.org/Graphics/SVG/1.1/DTD/svg11.dtd">
<svg viewBox="0 0 909 1285" version="1.1" xmlns="http://www.w3.org/2000/svg" xmlns:xlink="http://www.w3.org/1999/xlink">
<defs>
<style type="text/css"><![CDATA[
.g0_88{
fill: #FFFFFF;
}
.g1_88{
fill: none;
stroke: #000000;
stroke-width: 0.381;
stroke-linecap: butt;
stroke-linejoin: round;
}
]]></style>
</defs>
<path fill-rule="evenodd" d="M641.1,125.8h59.4V110H641.1v15.8Z" class="g0_88"/>
<path fill-rule="evenodd" d="M176.4,161.4H416.2V146.3H176.4v15.1Z" class="g0_88"/>
<path fill-rule="evenodd" d="M176.4,176.4H416.2v-15H176.4v15Z" class="g0_88"/>
<path fill-rule="evenodd" d="M176.4,191.6H416.2V176.4H176.4v15.2Z" class="g0_88"/>
<path fill-rule="evenodd" d="M176.4,206.6H416.2v-15H176.4v15Z" class="g0_88"/>
<path fill-rule="evenodd" d="M176.4,221.7H416.2V206.6H176.4v15.1Z" class="g0_88"/>
<path fill-rule="evenodd" d="M176.4,236.7H416.2v-15H176.4v15Z" class="g0_88"/>
<path fill-rule="evenodd" d="M176.4,251.7H416.2v-15H176.4v15Z" class="g0_88"/>
<path fill-rule="evenodd" d="M176.4,266.8H416.2V251.7H176.4v15.1Z" class="g0_88"/>
<path fill-rule="evenodd" d="M177.1,281.8h238v-15h-238v15Z" class="g0_88"/>
<path fill-rule="evenodd" d="M177.1,296.8h238v-15h-238v15Z" class="g0_88"/>
<path fill-rule="evenodd" d="M176.8,311.9H415.5V296.8H176.8v15.1Z" class="g0_88"/>
<path fill-rule="evenodd" d="M176.8,326.9H415.5v-15H176.8v15Z" class="g0_88"/>
<path fill-rule="evenodd" d="M176.8,341.9H415.1v-15H176.8v15Z" class="g0_88"/>
<path fill-rule="evenodd" d="M176.8,357.2H415.1V342H176.8v15.2Z" class="g0_88"/>
<path fill-rule="evenodd" d="M176.4,372.2H415.5v-15H176.4v15Z" class="g0_88"/>
<path fill-rule="evenodd" d="M176.4,387.3H415.5V372.2H176.4v15.1Z" class="g0_88"/>
<path fill-rule="evenodd" d="M176.4,402.3H415.5v-15H176.4v15Z" class="g0_88"/>
<path fill-rule="evenodd" d="M176.4,417.3H415.5v-15H176.4v15Z" class="g0_88"/>
<path fill-rule="evenodd" d="M176.4,432.4H415.1V417.3H176.4v15.1Z" class="g0_88"/>
<path fill-rule="evenodd" d="M176.4,447.4H415.1v-15H176.4v15Z" class="g0_88"/>
<path fill-rule="evenodd" d="M195.1,462.4H416.2v-15H195.1v15Z" class="g0_88"/>
<path fill-rule="evenodd" d="M176,477.5H414.8V462.4H176v15.1Z" class="g0_88"/>
<path fill-rule="evenodd" d="M176,492.5H414.8v-15H176v15Z" class="g0_88"/>
<path fill-rule="evenodd" d="M176,507.5H414.8v-15H176v15Z" class="g0_88"/>
<path fill-rule="evenodd" d="M176,522.6H414.8V507.5H176v15.1Z" class="g0_88"/>
<path fill-rule="evenodd" d="M176,537.8H415.1V522.6H176v15.2Z" class="g0_88"/>
<path fill-rule="evenodd" d="M176,552.8H415.1v-15H176v15Z" class="g0_88"/>
<path fill-rule="evenodd" d="M176,567.9H415.1V552.8H176v15.1Z" class="g0_88"/>
<path fill-rule="evenodd" d="M194.7,582.9H416.2v-15H194.7v15Z" class="g0_88"/>
<path fill-rule="evenodd" d="M176.4,598h238V582.9h-238V598Z" class="g0_88"/>
<path fill-rule="evenodd" d="M176.4,613h238V598h-238v15Z" class="g0_88"/>
<path fill-rule="evenodd" d="M174.9,628H415.1V613H174.9v15Z" class="g0_88"/>
<path fill-rule="evenodd" d="M174.9,643.1H415.1V628H174.9v15.1Z" class="g0_88"/>
<path fill-rule="evenodd" d="M174.9,658.1H415.1v-15H174.9v15Z" class="g0_88"/>
<path fill-rule="evenodd" d="M194.4,673.1H416.2v-15H194.4v15Z" class="g0_88"/>
<path fill-rule="evenodd" d="M176,688.2H414.8V673.1H176v15.1Z" class="g0_88"/>
<path fill-rule="evenodd" d="M176,703.2H414.8v-15H176v15Z" class="g0_88"/>
<path fill-rule="evenodd" d="M176,718.4H414.4V703.2H176v15.2Z" class="g0_88"/>
<path fill-rule="evenodd" d="M176,733.4H414.4v-15H176v15Z" class="g0_88"/>
<path fill-rule="evenodd" d="M176,748.5H414.4V733.4H176v15.1Z" class="g0_88"/>
<path fill-rule="evenodd" d="M194.4,763.5H416.2v-15H194.4v15Z" class="g0_88"/>
<path fill-rule="evenodd" d="M175.7,778.5H414.8v-15H175.7v15Z" class="g0_88"/>
<path fill-rule="evenodd" d="M175.7,793.6H414.8V778.5H175.7v15.1Z" class="g0_88"/>
<path fill-rule="evenodd" d="M175.7,808.6H414.8v-15H175.7v15Z" class="g0_88"/>
<path fill-rule="evenodd" d="M175.3,823.6H414.4v-15H175.3v15Z" class="g0_88"/>
<path fill-rule="evenodd" d="M175.3,838.7H414.4V823.6H175.3v15.1Z" class="g0_88"/>
<path fill-rule="evenodd" d="M175.3,853.8H414.4V838.7H175.3v15.1Z" class="g0_88"/>
<path fill-rule="evenodd" d="M194,868.8H416.2v-15H194v15Z" class="g0_88"/>
<path fill-rule="evenodd" d="M175.3,883.8H414.4v-15H175.3v15Z" class="g0_88"/>
<path fill-rule="evenodd" d="M175.3,899H414.4V883.8H175.3V899Z" class="g0_88"/>
<path fill-rule="evenodd" d="M176.4,913.7H415.9V899H176.4v14.7Z" class="g0_88"/>
<path fill-rule="evenodd" d="M436,161.4H675.9V146.7H436v14.7Z" class="g0_88"/>
<path fill-rule="evenodd" d="M436,176H675.9V161.4H436V176Z" class="g0_88"/>
<path fill-rule="evenodd" d="M436,190.7H675.9V176H436v14.7Z" class="g0_88"/>
<path fill-rule="evenodd" d="M436,205.4H676.3V190.7H436v14.7Z" class="g0_88"/>
<path fill-rule="evenodd" d="M436,220H676.3V205.4H436V220Z" class="g0_88"/>
<path fill-rule="evenodd" d="M436,234.7H676.3V220H436v14.7Z" class="g0_88"/>
<path fill-rule="evenodd" d="M435.7,249.4H675.9V234.7H435.7v14.7Z" class="g0_88"/>
<path fill-rule="evenodd" d="M435.7,264H675.9V249.4H435.7V264Z" class="g0_88"/>
<path fill-rule="evenodd" d="M435.7,278.7H675.9V264H435.7v14.7Z" class="g0_88"/>
<path fill-rule="evenodd" d="M435.7,293.4H675.9V278.7H435.7v14.7Z" class="g0_88"/>
<path fill-rule="evenodd" d="M435.7,308H675.9V293.4H435.7V308Z" class="g0_88"/>
<path fill-rule="evenodd" d="M435.7,322.7H675.9V308H435.7v14.7Z" class="g0_88"/>
<path fill-rule="evenodd" d="M435.7,337.4H675.9V322.7H435.7v14.7Z" class="g0_88"/>
<path fill-rule="evenodd" d="M435.7,352H675.9V337.4H435.7V352Z" class="g0_88"/>
<path fill-rule="evenodd" d="M435.7,366.7H675.9V352H435.7v14.7Z" class="g0_88"/>
<path fill-rule="evenodd" d="M436,381.4H675.2V366.7H436v14.7Z" class="g0_88"/>
<path fill-rule="evenodd" d="M436,396.1H675.2V381.4H436v14.7Z" class="g0_88"/>
<path fill-rule="evenodd" d="M435.7,410.7H675.2V396.1H435.7v14.6Z" class="g0_88"/>
<path fill-rule="evenodd" d="M435.7,425.4H675.2V410.7H435.7v14.7Z" class="g0_88"/>
<path fill-rule="evenodd" d="M454,440.1H676.3V425.4H454v14.7Z" class="g0_88"/>
<path fill-rule="evenodd" d="M453.7,454.7H676.3V440.1H453.7v14.6Z" class="g0_88"/>
<path fill-rule="evenodd" d="M435.7,469.4H674.5V454.7H435.7v14.7Z" class="g0_88"/>
<path fill-rule="evenodd" d="M435.7,484.1H674.5V469.4H435.7v14.7Z" class="g0_88"/>
<path fill-rule="evenodd" d="M453.7,498.7H676.3V484.1H453.7v14.6Z" class="g0_88"/>
<path fill-rule="evenodd" d="M434.9,513.4H674.5V498.7H434.9v14.7Z" class="g0_88"/>
<path fill-rule="evenodd" d="M434.9,528.1H674.5V513.4H434.9v14.7Z" class="g0_88"/>
<path fill-rule="evenodd" d="M435.3,542.7H674.5V528.1H435.3v14.6Z" class="g0_88"/>
<path fill-rule="evenodd" d="M435.3,557.4H674.5V542.7H435.3v14.7Z" class="g0_88"/>
<path fill-rule="evenodd" d="M435.3,572.1H674.5V557.4H435.3v14.7Z" class="g0_88"/>
<path fill-rule="evenodd" d="M435.3,586.7H620.5V572.1H435.3v14.6Z" class="g0_88"/>
<path fill-rule="evenodd" d="M435.3,601.4H620.5V586.7H435.3v14.7Z" class="g0_88"/>
<path fill-rule="evenodd" d="M434.6,616.1H674.1V601.4H434.6v14.7Z" class="g0_88"/>
<path fill-rule="evenodd" d="M434.6,630.8H674.1V616.1H434.6v14.7Z" class="g0_88"/>
<path fill-rule="evenodd" d="M434.9,645.4H674.8V630.8H434.9v14.6Z" class="g0_88"/>
<path fill-rule="evenodd" d="M434.9,660.1H674.8V645.4H434.9v14.7Z" class="g0_88"/>
<path fill-rule="evenodd" d="M434.9,674.8H674.8V660.1H434.9v14.7Z" class="g0_88"/>
<path fill-rule="evenodd" d="M434.6,689.4H674.8V674.8H434.6v14.6Z" class="g0_88"/>
<path fill-rule="evenodd" d="M434.6,704.1H674.8V689.4H434.6v14.7Z" class="g0_88"/>
<path fill-rule="evenodd" d="M434.6,718.8H674.8V704.1H434.6v14.7Z" class="g0_88"/>
<path fill-rule="evenodd" d="M434.6,733.4H674.8V718.8H434.6v14.6Z" class="g0_88"/>
<path fill-rule="evenodd" d="M434.9,748.1H674.5V733.4H434.9v14.7Z" class="g0_88"/>
<path fill-rule="evenodd" d="M434.9,762.8H674.5V748.1H434.9v14.7Z" class="g0_88"/>
<path fill-rule="evenodd" d="M434.9,777.4H674.5V762.8H434.9v14.6Z" class="g0_88"/>
<path fill-rule="evenodd" d="M434.9,792.1H674.5V777.4H434.9v14.7Z" class="g0_88"/>
<path fill-rule="evenodd" d="M434.9,806.8H674.8V792.1H434.9v14.7Z" class="g0_88"/>
<path fill-rule="evenodd" d="M434.9,821.4H674.8V806.8H434.9v14.6Z" class="g0_88"/>
<path fill-rule="evenodd" d="M434.9,836.2H674.8V821.4H434.9v14.8Z" class="g0_88"/>
<path fill-rule="evenodd" d="M453.3,850.8h223V836.2h-223v14.6Z" class="g0_88"/>
<path fill-rule="evenodd" d="M434.6,865.5H674.1V850.8H434.6v14.7Z" class="g0_88"/>
<path fill-rule="evenodd" d="M434.6,880.2H674.1V865.5H434.6v14.7Z" class="g0_88"/>
<path fill-rule="evenodd" d="M434.6,894.8H674.1V880.2H434.6v14.6Z" class="g0_88"/>
<path d="M423.8,146V902.4" class="g1_88"/>
</svg>