<?xml version="1.0" encoding="UTF-8" standalone="no"?>
<!DOCTYPE svg PUBLIC "-//W3C//DTD SVG 1.1//EN"
"http://www.w3.org/Graphics/SVG/1.1/DTD/svg11.dtd">
<svg viewBox="0 0 909 1285" version="1.1" xmlns="http://www.w3.org/2000/svg" xmlns:xlink="http://www.w3.org/1999/xlink">
<defs>
<style type="text/css"><![CDATA[
.g0_336{
fill: #FFFFFF;
}
.g1_336{
fill: none;
stroke: #000000;
stroke-width: 0.763;
stroke-linecap: butt;
stroke-linejoin: round;
}
]]></style>
</defs>
<path fill-rule="evenodd" d="M658.5,127.6h59.4V110H658.5v17.6Z" class="g0_336"/>
<path fill-rule="evenodd" d="M205.5,163.2H444.3V148.5H205.5v14.7Z" class="g0_336"/>
<path fill-rule="evenodd" d="M205.5,177.9H444.3V163.2H205.5v14.7Z" class="g0_336"/>
<path fill-rule="evenodd" d="M205.5,192.5H444.3V177.9H205.5v14.6Z" class="g0_336"/>
<path fill-rule="evenodd" d="M205.2,207.2H443.9V192.5H205.2v14.7Z" class="g0_336"/>
<path fill-rule="evenodd" d="M205.2,221.9H443.9V207.2H205.2v14.7Z" class="g0_336"/>
<path fill-rule="evenodd" d="M205.2,236.5H443.9V221.9H205.2v14.6Z" class="g0_336"/>
<path fill-rule="evenodd" d="M205.2,251.2H443.9V236.5H205.2v14.7Z" class="g0_336"/>
<path fill-rule="evenodd" d="M205.2,265.9H443.9V251.2H205.2v14.7Z" class="g0_336"/>
<path fill-rule="evenodd" d="M205.2,280.5H443.9V265.9H205.2v14.6Z" class="g0_336"/>
<path fill-rule="evenodd" d="M205.2,295.2H443.9V280.5H205.2v14.7Z" class="g0_336"/>
<path fill-rule="evenodd" d="M205.2,309.9H443.9V295.2H205.2v14.7Z" class="g0_336"/>
<path fill-rule="evenodd" d="M205.2,324.5H443.9V309.9H205.2v14.6Z" class="g0_336"/>
<path fill-rule="evenodd" d="M205.2,339.2H443.9V324.5H205.2v14.7Z" class="g0_336"/>
<path fill-rule="evenodd" d="M204.8,353.9H443.9V339.2H204.8v14.7Z" class="g0_336"/>
<path fill-rule="evenodd" d="M204.8,368.6H443.9V353.9H204.8v14.7Z" class="g0_336"/>
<path fill-rule="evenodd" d="M204.8,383.2H443.9V368.6H204.8v14.6Z" class="g0_336"/>
<path fill-rule="evenodd" d="M204.8,397.9H443.9V383.2H204.8v14.7Z" class="g0_336"/>
<path fill-rule="evenodd" d="M222.8,412.6H444.3V397.9H222.8v14.7Z" class="g0_336"/>
<path fill-rule="evenodd" d="M204.8,427.2H443.9V412.6H204.8v14.6Z" class="g0_336"/>
<path fill-rule="evenodd" d="M204.8,441.9H443.9V427.2H204.8v14.7Z" class="g0_336"/>
<path fill-rule="evenodd" d="M204.8,456.6H443.9V441.9H204.8v14.7Z" class="g0_336"/>
<path fill-rule="evenodd" d="M204.8,471.6H443.2V456.9H204.8v14.7Z" class="g0_336"/>
<path fill-rule="evenodd" d="M204.8,486.3H443.2V471.6H204.8v14.7Z" class="g0_336"/>
<path fill-rule="evenodd" d="M204.8,500.9H443.2V486.3H204.8v14.6Z" class="g0_336"/>
<path fill-rule="evenodd" d="M204.8,515.6H443.2V500.9H204.8v14.7Z" class="g0_336"/>
<path fill-rule="evenodd" d="M204.4,530.3H443.2V515.6H204.4v14.7Z" class="g0_336"/>
<path fill-rule="evenodd" d="M204.4,544.9H443.2V530.3H204.4v14.6Z" class="g0_336"/>
<path fill-rule="evenodd" d="M204.4,560H443.5V545.3H204.4V560Z" class="g0_336"/>
<path fill-rule="evenodd" d="M204.4,574.6H443.5V560H204.4v14.6Z" class="g0_336"/>
<path fill-rule="evenodd" d="M204.4,589.7H443.5V574.6H204.4v15.1Z" class="g0_336"/>
<path fill-rule="evenodd" d="M204.4,604.4H443.5V589.7H204.4v14.7Z" class="g0_336"/>
<path fill-rule="evenodd" d="M204.4,619H443.5V604.4H204.4V619Z" class="g0_336"/>
<path fill-rule="evenodd" d="M204.1,633.7H442.8V619H204.1v14.7Z" class="g0_336"/>
<path fill-rule="evenodd" d="M204.1,648.4H442.8V633.7H204.1v14.7Z" class="g0_336"/>
<path fill-rule="evenodd" d="M204.1,663H443.2V648.4H204.1V663Z" class="g0_336"/>
<path fill-rule="evenodd" d="M204.1,677.7H443.2V663H204.1v14.7Z" class="g0_336"/>
<path fill-rule="evenodd" d="M204.1,692.4H443.2V677.7H204.1v14.7Z" class="g0_336"/>
<path fill-rule="evenodd" d="M203.7,707H442.8V692.4H203.7V707Z" class="g0_336"/>
<path fill-rule="evenodd" d="M203.7,721.7H442.8V707H203.7v14.7Z" class="g0_336"/>
<path fill-rule="evenodd" d="M203.7,736.4H442.8V721.7H203.7v14.7Z" class="g0_336"/>
<path fill-rule="evenodd" d="M203.7,751H442.8V736.4H203.7V751Z" class="g0_336"/>
<path fill-rule="evenodd" d="M204.1,765.7H442.8V751H204.1v14.7Z" class="g0_336"/>
<path fill-rule="evenodd" d="M204.1,780.4H442.8V765.7H204.1v14.7Z" class="g0_336"/>
<path fill-rule="evenodd" d="M204.1,795H442.8V780.4H204.1V795Z" class="g0_336"/>
<path fill-rule="evenodd" d="M204.1,809.7H442.8V795H204.1v14.7Z" class="g0_336"/>
<path fill-rule="evenodd" d="M204.1,824.4H442.8V809.7H204.1v14.7Z" class="g0_336"/>
<path fill-rule="evenodd" d="M203.3,839.1H442.8V824.4H203.3v14.7Z" class="g0_336"/>
<path fill-rule="evenodd" d="M203.3,853.8H442.8V839.1H203.3v14.7Z" class="g0_336"/>
<path fill-rule="evenodd" d="M203.3,868.4H442.8V853.8H203.3v14.6Z" class="g0_336"/>
<path fill-rule="evenodd" d="M203.3,883.1H442.8V868.4H203.3v14.7Z" class="g0_336"/>
<path fill-rule="evenodd" d="M203.3,897.8H442.8V883.1H203.3v14.7Z" class="g0_336"/>
<path fill-rule="evenodd" d="M204.8,912.4H444.3V897.8H204.8v14.6Z" class="g0_336"/>
<path fill-rule="evenodd" d="M464.1,163.6H703.6V148.9H464.1v14.7Z" class="g0_336"/>
<path fill-rule="evenodd" d="M464.1,178.2H703.6V163.6H464.1v14.6Z" class="g0_336"/>
<path fill-rule="evenodd" d="M464.1,192.9H703.6V178.2H464.1v14.7Z" class="g0_336"/>
<path fill-rule="evenodd" d="M464.1,207.6H703.6V192.9H464.1v14.7Z" class="g0_336"/>
<path fill-rule="evenodd" d="M482.5,222.2H703.6V207.6H482.5v14.6Z" class="g0_336"/>
<path fill-rule="evenodd" d="M464.1,237.6H703.2V223H464.1v14.6Z" class="g0_336"/>
<path fill-rule="evenodd" d="M464.1,252.3H703.2V237.6H464.1v14.7Z" class="g0_336"/>
<path fill-rule="evenodd" d="M464.1,267H703.2V252.3H464.1V267Z" class="g0_336"/>
<path fill-rule="evenodd" d="M464.1,281.6H703.6V267H464.1v14.6Z" class="g0_336"/>
<path fill-rule="evenodd" d="M464.1,296.3H703.6V281.6H464.1v14.7Z" class="g0_336"/>
<path fill-rule="evenodd" d="M464.1,311H703.6V296.3H464.1V311Z" class="g0_336"/>
<path fill-rule="evenodd" d="M464.1,325.6H702.9V311H464.1v14.6Z" class="g0_336"/>
<path fill-rule="evenodd" d="M464.1,340.3H702.9V325.6H464.1v14.7Z" class="g0_336"/>
<path fill-rule="evenodd" d="M464.1,355.4H702.5V340.7H464.1v14.7Z" class="g0_336"/>
<path fill-rule="evenodd" d="M464.1,370H702.5V355.4H464.1V370Z" class="g0_336"/>
<path fill-rule="evenodd" d="M464.1,384.7H702.5V370H464.1v14.7Z" class="g0_336"/>
<path fill-rule="evenodd" d="M463.8,399.4H702.9V384.7H463.8v14.7Z" class="g0_336"/>
<path fill-rule="evenodd" d="M463.8,414H702.9V399.4H463.8V414Z" class="g0_336"/>
<path fill-rule="evenodd" d="M463.8,428.7H702.9V414H463.8v14.7Z" class="g0_336"/>
<path fill-rule="evenodd" d="M463.8,443.4H702.9V428.7H463.8v14.7Z" class="g0_336"/>
<path fill-rule="evenodd" d="M463.8,458H702.9V443.4H463.8V458Z" class="g0_336"/>
<path fill-rule="evenodd" d="M463.8,472.7H702.9V458H463.8v14.7Z" class="g0_336"/>
<path fill-rule="evenodd" d="M463.4,487.4H702.9V472.7H463.4v14.7Z" class="g0_336"/>
<path fill-rule="evenodd" d="M463.4,502H702.9V487.4H463.4V502Z" class="g0_336"/>
<path fill-rule="evenodd" d="M463.4,516.7H702.9V502H463.4v14.7Z" class="g0_336"/>
<path fill-rule="evenodd" d="M463.4,531.4H702.9V516.7H463.4v14.7Z" class="g0_336"/>
<path fill-rule="evenodd" d="M463.4,546H702.9V531.4H463.4V546Z" class="g0_336"/>
<path fill-rule="evenodd" d="M463.4,560.7H702.9V546H463.4v14.7Z" class="g0_336"/>
<path fill-rule="evenodd" d="M463.4,575.4H702.9V560.7H463.4v14.7Z" class="g0_336"/>
<path fill-rule="evenodd" d="M481.4,590.4H703.6V575.7H481.4v14.7Z" class="g0_336"/>
<path fill-rule="evenodd" d="M463.8,605.7H703.2V590.8H463.8v14.9Z" class="g0_336"/>
<path fill-rule="evenodd" d="M463.8,620.3H703.2V605.7H463.8v14.6Z" class="g0_336"/>
<path fill-rule="evenodd" d="M463.8,635H703.2V620.3H463.8V635Z" class="g0_336"/>
<path fill-rule="evenodd" d="M463.8,649.7H703.2V635H463.8v14.7Z" class="g0_336"/>
<path fill-rule="evenodd" d="M481,664.3H703.6V649.7H481v14.6Z" class="g0_336"/>
<path fill-rule="evenodd" d="M481,679H703.6V664.3H481V679Z" class="g0_336"/>
<path fill-rule="evenodd" d="M463,694H702.1V679.4H463V694Z" class="g0_336"/>
<path fill-rule="evenodd" d="M463,708.7H702.1V694H463v14.7Z" class="g0_336"/>
<path fill-rule="evenodd" d="M463,723.4H702.1V708.7H463v14.7Z" class="g0_336"/>
<path fill-rule="evenodd" d="M463,738H702.1V723.4H463V738Z" class="g0_336"/>
<path fill-rule="evenodd" d="M463,752.7H702.1V738H463v14.7Z" class="g0_336"/>
<path fill-rule="evenodd" d="M463.4,767.4H701.8V752.7H463.4v14.7Z" class="g0_336"/>
<path fill-rule="evenodd" d="M463.4,782H701.8V767.4H463.4V782Z" class="g0_336"/>
<path fill-rule="evenodd" d="M463,797.1H702.9V782.4H463v14.7Z" class="g0_336"/>
<path fill-rule="evenodd" d="M463,811.7H702.9V797.1H463v14.6Z" class="g0_336"/>
<path fill-rule="evenodd" d="M481,826.8H703.6V812.1H481v14.7Z" class="g0_336"/>
<path fill-rule="evenodd" d="M481,841.5H703.6V826.8H481v14.7Z" class="g0_336"/>
<path fill-rule="evenodd" d="M463.4,856.1H702.5V841.5H463.4v14.6Z" class="g0_336"/>
<path fill-rule="evenodd" d="M463.4,870.8H702.5V856.1H463.4v14.7Z" class="g0_336"/>
<path fill-rule="evenodd" d="M462.7,885.8H701V871.2H462.7v14.6Z" class="g0_336"/>
<path fill-rule="evenodd" d="M462.7,900.5H701V885.8H462.7v14.7Z" class="g0_336"/>
<path fill-rule="evenodd" d="M439.2,933H717.9V913.7H439.2V933Z" class="g0_336"/>
<path d="M451.9,148.1V915.9" class="g1_336"/>
</svg>