<?xml version="1.0" encoding="UTF-8" standalone="no"?>
<!DOCTYPE svg PUBLIC "-//W3C//DTD SVG 1.1//EN"
"http://www.w3.org/Graphics/SVG/1.1/DTD/svg11.dtd">
<svg viewBox="0 0 909 1285" version="1.1" xmlns="http://www.w3.org/2000/svg" xmlns:xlink="http://www.w3.org/1999/xlink">
<defs>
<style type="text/css"><![CDATA[
.g0_61{
fill: #FFFFFF;
}
.g1_61{
fill: none;
stroke: #000000;
stroke-width: 0.381;
stroke-linecap: butt;
stroke-linejoin: round;
}
]]></style>
</defs>
<path fill-rule="evenodd" d="M255.2,125.8h501V110h-501v15.8Z" class="g0_61"/>
<path fill-rule="evenodd" d="M254.9,162.1H495.1v-15H254.9v15Z" class="g0_61"/>
<path fill-rule="evenodd" d="M254.9,177.1H495.1v-15H254.9v15Z" class="g0_61"/>
<path fill-rule="evenodd" d="M254.9,192.2H495.1V177.1H254.9v15.1Z" class="g0_61"/>
<path fill-rule="evenodd" d="M254.9,207.2H495.1v-15H254.9v15Z" class="g0_61"/>
<path fill-rule="evenodd" d="M254.9,222.2H495.1v-15H254.9v15Z" class="g0_61"/>
<path fill-rule="evenodd" d="M255.2,237.4H495.5V222.2H255.2v15.2Z" class="g0_61"/>
<path fill-rule="evenodd" d="M255.2,252.5H495.5V237.4H255.2v15.1Z" class="g0_61"/>
<path fill-rule="evenodd" d="M254.9,267.5H495.1v-15H254.9v15Z" class="g0_61"/>
<path fill-rule="evenodd" d="M254.9,282.5H495.1v-15H254.9v15Z" class="g0_61"/>
<path fill-rule="evenodd" d="M272.9,297.6H495.5V282.5H272.9v15.1Z" class="g0_61"/>
<path fill-rule="evenodd" d="M254.9,312.6H495.1v-15H254.9v15Z" class="g0_61"/>
<path fill-rule="evenodd" d="M254.9,327.6H495.1v-15H254.9v15Z" class="g0_61"/>
<path fill-rule="evenodd" d="M254.9,342.7H495.1V327.6H254.9v15.1Z" class="g0_61"/>
<path fill-rule="evenodd" d="M253.8,357.8H494.7V342.7H253.8v15.1Z" class="g0_61"/>
<path fill-rule="evenodd" d="M253.8,372.8H494.7v-15H253.8v15Z" class="g0_61"/>
<path fill-rule="evenodd" d="M253.8,387.8H494.7v-15H253.8v15Z" class="g0_61"/>
<path fill-rule="evenodd" d="M253.8,403H494.7V387.8H253.8V403Z" class="g0_61"/>
<path fill-rule="evenodd" d="M253.8,418.1H494.7V403H253.8v15.1Z" class="g0_61"/>
<path fill-rule="evenodd" d="M253.8,433.1H494.7v-15H253.8v15Z" class="g0_61"/>
<path fill-rule="evenodd" d="M253.8,448.1H494.7v-15H253.8v15Z" class="g0_61"/>
<path fill-rule="evenodd" d="M253.8,463.2H494.7V448.1H253.8v15.1Z" class="g0_61"/>
<path fill-rule="evenodd" d="M254.1,478.2H494v-15H254.1v15Z" class="g0_61"/>
<path fill-rule="evenodd" d="M254.1,493.2H494v-15H254.1v15Z" class="g0_61"/>
<path fill-rule="evenodd" d="M254.1,508.3H494V493.2H254.1v15.1Z" class="g0_61"/>
<path fill-rule="evenodd" d="M254.1,523.3H494v-15H254.1v15Z" class="g0_61"/>
<path fill-rule="evenodd" d="M254.1,538.3H494v-15H254.1v15Z" class="g0_61"/>
<path fill-rule="evenodd" d="M254.1,553.4H494.4V538.3H254.1v15.1Z" class="g0_61"/>
<path fill-rule="evenodd" d="M254.1,568.4H494.4v-15H254.1v15Z" class="g0_61"/>
<path fill-rule="evenodd" d="M254.1,583.6H494.4V568.4H254.1v15.2Z" class="g0_61"/>
<path fill-rule="evenodd" d="M253.8,598.7H493.6V583.6H253.8v15.1Z" class="g0_61"/>
<path fill-rule="evenodd" d="M253.8,613.7H493.6v-15H253.8v15Z" class="g0_61"/>
<path fill-rule="evenodd" d="M272.1,628.8H495.5V613.7H272.1v15.1Z" class="g0_61"/>
<path fill-rule="evenodd" d="M253.8,643.8H493.6v-15H253.8v15Z" class="g0_61"/>
<path fill-rule="evenodd" d="M253.8,658.8H493.6v-15H253.8v15Z" class="g0_61"/>
<path fill-rule="evenodd" d="M253.8,673.9H493.6V658.8H253.8v15.1Z" class="g0_61"/>
<path fill-rule="evenodd" d="M253.8,688.9H493.6v-15H253.8v15Z" class="g0_61"/>
<path fill-rule="evenodd" d="M253.4,703.9H493.3v-15H253.4v15Z" class="g0_61"/>
<path fill-rule="evenodd" d="M253.4,719H493.3V703.9H253.4V719Z" class="g0_61"/>
<path fill-rule="evenodd" d="M253.4,734H493.6V719H253.4v15Z" class="g0_61"/>
<path fill-rule="evenodd" d="M253.4,749H493.6V734H253.4v15Z" class="g0_61"/>
<path fill-rule="evenodd" d="M253.4,764.2H493.6V749H253.4v15.2Z" class="g0_61"/>
<path fill-rule="evenodd" d="M253.4,779.3H493.6V764.2H253.4v15.1Z" class="g0_61"/>
<path fill-rule="evenodd" d="M253.4,794.3H493.6v-15H253.4v15Z" class="g0_61"/>
<path fill-rule="evenodd" d="M272.1,809.3H495.5v-15H272.1v15Z" class="g0_61"/>
<path fill-rule="evenodd" d="M253,824.4H493.3V809.3H253v15.1Z" class="g0_61"/>
<path fill-rule="evenodd" d="M253,839.5H493.3V824.4H253v15.1Z" class="g0_61"/>
<path fill-rule="evenodd" d="M253,854.5H493.3v-15H253v15Z" class="g0_61"/>
<path fill-rule="evenodd" d="M253,869.5H493.3v-15H253v15Z" class="g0_61"/>
<path fill-rule="evenodd" d="M253,884.6H492.9V869.5H253v15.1Z" class="g0_61"/>
<path fill-rule="evenodd" d="M253,899.6H492.9v-15H253v15Z" class="g0_61"/>
<path fill-rule="evenodd" d="M255.2,914.6H494.4v-15H255.2v15Z" class="g0_61"/>
<path fill-rule="evenodd" d="M516,162.1H755.1v-15H516v15Z" class="g0_61"/>
<path fill-rule="evenodd" d="M516,177.1H755.1v-15H516v15Z" class="g0_61"/>
<path fill-rule="evenodd" d="M515.6,192.2H755.8V177.1H515.6v15.1Z" class="g0_61"/>
<path fill-rule="evenodd" d="M515.6,207.2H755.8v-15H515.6v15Z" class="g0_61"/>
<path fill-rule="evenodd" d="M515.6,222.2H755.8v-15H515.6v15Z" class="g0_61"/>
<path fill-rule="evenodd" d="M515.3,237.4H756.2V222.2H515.3v15.2Z" class="g0_61"/>
<path fill-rule="evenodd" d="M515.3,252.5H756.2V237.4H515.3v15.1Z" class="g0_61"/>
<path fill-rule="evenodd" d="M515.3,267.5H756.2v-15H515.3v15Z" class="g0_61"/>
<path fill-rule="evenodd" d="M515.3,282.5H756.2v-15H515.3v15Z" class="g0_61"/>
<path fill-rule="evenodd" d="M515.3,297.6H756.2V282.5H515.3v15.1Z" class="g0_61"/>
<path fill-rule="evenodd" d="M515.3,312.6H756.2v-15H515.3v15Z" class="g0_61"/>
<path fill-rule="evenodd" d="M515.6,327.6H703.4v-15H515.6v15Z" class="g0_61"/>
<path fill-rule="evenodd" d="M515.6,342.7H703.4V327.6H515.6v15.1Z" class="g0_61"/>
<path fill-rule="evenodd" d="M514.9,357.8H756.2V342.7H514.9v15.1Z" class="g0_61"/>
<path fill-rule="evenodd" d="M514.9,372.8H756.2v-15H514.9v15Z" class="g0_61"/>
<path fill-rule="evenodd" d="M514.9,387.8H756.2v-15H514.9v15Z" class="g0_61"/>
<path fill-rule="evenodd" d="M514.9,403H756.2V387.8H514.9V403Z" class="g0_61"/>
<path fill-rule="evenodd" d="M514.9,418.1H756.2V403H514.9v15.1Z" class="g0_61"/>
<path fill-rule="evenodd" d="M514.5,433.1H755.1v-15H514.5v15Z" class="g0_61"/>
<path fill-rule="evenodd" d="M514.5,448.1H755.1v-15H514.5v15Z" class="g0_61"/>
<path fill-rule="evenodd" d="M514.5,463.2H755.1V448.1H514.5v15.1Z" class="g0_61"/>
<path fill-rule="evenodd" d="M514.5,478.2H755.1v-15H514.5v15Z" class="g0_61"/>
<path fill-rule="evenodd" d="M514.5,493.2H755.1v-15H514.5v15Z" class="g0_61"/>
<path fill-rule="evenodd" d="M514.5,508.3H755.1V493.2H514.5v15.1Z" class="g0_61"/>
<path fill-rule="evenodd" d="M514.5,523.3H755.1v-15H514.5v15Z" class="g0_61"/>
<path fill-rule="evenodd" d="M514.2,538.3H754.4v-15H514.2v15Z" class="g0_61"/>
<path fill-rule="evenodd" d="M514.2,553.4H754.4V538.3H514.2v15.1Z" class="g0_61"/>
<path fill-rule="evenodd" d="M514.2,568.4H754.4v-15H514.2v15Z" class="g0_61"/>
<path fill-rule="evenodd" d="M514.2,583.6H754.4V568.4H514.2v15.2Z" class="g0_61"/>
<path fill-rule="evenodd" d="M514.2,598.7H754.4V583.6H514.2v15.1Z" class="g0_61"/>
<path fill-rule="evenodd" d="M514.2,613.7H754.4v-15H514.2v15Z" class="g0_61"/>
<path fill-rule="evenodd" d="M532.1,628.8H756.2V613.7H532.1v15.1Z" class="g0_61"/>
<path fill-rule="evenodd" d="M532.5,643.8H756.2v-15H532.5v15Z" class="g0_61"/>
<path fill-rule="evenodd" d="M532.1,658.8H756.2v-15H532.1v15Z" class="g0_61"/>
<path fill-rule="evenodd" d="M514.2,673.9H754.7V658.8H514.2v15.1Z" class="g0_61"/>
<path fill-rule="evenodd" d="M514.2,688.9H754.7v-15H514.2v15Z" class="g0_61"/>
<path fill-rule="evenodd" d="M514.2,703.9H754.7v-15H514.2v15Z" class="g0_61"/>
<path fill-rule="evenodd" d="M514.2,719H754.7V703.9H514.2V719Z" class="g0_61"/>
<path fill-rule="evenodd" d="M514.5,734H754V719H514.5v15Z" class="g0_61"/>
<path fill-rule="evenodd" d="M514.5,749H754V734H514.5v15Z" class="g0_61"/>
<path fill-rule="evenodd" d="M514.2,764.2H754V749H514.2v15.2Z" class="g0_61"/>
<path fill-rule="evenodd" d="M514.2,779.3H754V764.2H514.2v15.1Z" class="g0_61"/>
<path fill-rule="evenodd" d="M532.1,794.7H756.2V779.6H532.1v15.1Z" class="g0_61"/>
<path fill-rule="evenodd" d="M513.8,809.7H754v-15H513.8v15Z" class="g0_61"/>
<path fill-rule="evenodd" d="M513.8,824.7H754v-15H513.8v15Z" class="g0_61"/>
<path fill-rule="evenodd" d="M513.8,839.8H754V824.7H513.8v15.1Z" class="g0_61"/>
<path fill-rule="evenodd" d="M513.8,854.9H754V839.8H513.8v15.1Z" class="g0_61"/>
<path fill-rule="evenodd" d="M513.8,869.9H754v-15H513.8v15Z" class="g0_61"/>
<path d="M503.5,148.1V916.7" class="g1_61"/>
</svg>