<?xml version="1.0" encoding="UTF-8" standalone="no"?>
<!DOCTYPE svg PUBLIC "-//W3C//DTD SVG 1.1//EN"
"http://www.w3.org/Graphics/SVG/1.1/DTD/svg11.dtd">
<svg viewBox="0 0 909 1285" version="1.1" xmlns="http://www.w3.org/2000/svg" xmlns:xlink="http://www.w3.org/1999/xlink">
<defs>
<style type="text/css"><![CDATA[
.g0_139{
fill: #FFFFFF;
}
.g1_139{
fill: none;
stroke: #000000;
stroke-width: 0.381;
stroke-linecap: butt;
stroke-linejoin: round;
}
]]></style>
</defs>
<path fill-rule="evenodd" d="M590.4,127.6h95.8V110H590.4v17.6Z" class="g0_139"/>
<path fill-rule="evenodd" d="M187.4,162.5H426.5V147.8H187.4v14.7Z" class="g0_139"/>
<path fill-rule="evenodd" d="M187.4,177.1H426.5V162.5H187.4v14.6Z" class="g0_139"/>
<path fill-rule="evenodd" d="M187.4,191.8H426.1V177.1H187.4v14.7Z" class="g0_139"/>
<path fill-rule="evenodd" d="M187.4,206.5H426.1V191.8H187.4v14.7Z" class="g0_139"/>
<path fill-rule="evenodd" d="M187.4,221.1H426.1V206.5H187.4v14.6Z" class="g0_139"/>
<path fill-rule="evenodd" d="M188.5,235.8H425.8V221.1H188.5v14.7Z" class="g0_139"/>
<path fill-rule="evenodd" d="M188.5,250.5H425.8V235.8H188.5v14.7Z" class="g0_139"/>
<path fill-rule="evenodd" d="M187.4,265.5H426.9V250.8H187.4v14.7Z" class="g0_139"/>
<path fill-rule="evenodd" d="M187.4,280.2H426.9V265.5H187.4v14.7Z" class="g0_139"/>
<path fill-rule="evenodd" d="M187.4,294.8H426.9V280.2H187.4v14.6Z" class="g0_139"/>
<path fill-rule="evenodd" d="M187.4,309.5H426.9V294.8H187.4v14.7Z" class="g0_139"/>
<path fill-rule="evenodd" d="M187.4,324.2H426.9V309.5H187.4v14.7Z" class="g0_139"/>
<path fill-rule="evenodd" d="M187.4,338.8H426.9V324.2H187.4v14.6Z" class="g0_139"/>
<path fill-rule="evenodd" d="M187.4,353.5H426.9V338.8H187.4v14.7Z" class="g0_139"/>
<path fill-rule="evenodd" d="M187.4,368.2H426.9V353.5H187.4v14.7Z" class="g0_139"/>
<path fill-rule="evenodd" d="M187.4,382.9H426.9V368.2H187.4v14.7Z" class="g0_139"/>
<path fill-rule="evenodd" d="M187.8,397.5H426.1V382.9H187.8v14.6Z" class="g0_139"/>
<path fill-rule="evenodd" d="M187.8,412.2H426.1V397.5H187.8v14.7Z" class="g0_139"/>
<path fill-rule="evenodd" d="M187,427.2H425.8V412.6H187v14.6Z" class="g0_139"/>
<path fill-rule="evenodd" d="M187,441.9H425.8V427.2H187v14.7Z" class="g0_139"/>
<path fill-rule="evenodd" d="M187,456.6H425.8V441.9H187v14.7Z" class="g0_139"/>
<path fill-rule="evenodd" d="M187.4,471.2H425.8V456.6H187.4v14.6Z" class="g0_139"/>
<path fill-rule="evenodd" d="M187.4,485.9H425.8V471.2H187.4v14.7Z" class="g0_139"/>
<path fill-rule="evenodd" d="M186.3,500.6H425.8V485.9H186.3v14.7Z" class="g0_139"/>
<path fill-rule="evenodd" d="M186.3,515.2H425.8V500.6H186.3v14.6Z" class="g0_139"/>
<path fill-rule="evenodd" d="M186.3,529.9H425.8V515.2H186.3v14.7Z" class="g0_139"/>
<path fill-rule="evenodd" d="M186.3,544.6H425.8V529.9H186.3v14.7Z" class="g0_139"/>
<path fill-rule="evenodd" d="M186.3,559.2H425.8V544.6H186.3v14.6Z" class="g0_139"/>
<path fill-rule="evenodd" d="M186.3,573.9H425.8V559.2H186.3v14.7Z" class="g0_139"/>
<path fill-rule="evenodd" d="M186.3,588.6H425.8V573.9H186.3v14.7Z" class="g0_139"/>
<path fill-rule="evenodd" d="M186.3,603.3H425.8V588.6H186.3v14.7Z" class="g0_139"/>
<path fill-rule="evenodd" d="M186.3,617.9H425.8V603.3H186.3v14.6Z" class="g0_139"/>
<path fill-rule="evenodd" d="M186.3,632.6H425.8V617.9H186.3v14.7Z" class="g0_139"/>
<path fill-rule="evenodd" d="M186.3,647.3H425.8V632.6H186.3v14.7Z" class="g0_139"/>
<path fill-rule="evenodd" d="M186.3,661.9H425.8V647.3H186.3v14.6Z" class="g0_139"/>
<path fill-rule="evenodd" d="M186.3,676.6H425V661.9H186.3v14.7Z" class="g0_139"/>
<path fill-rule="evenodd" d="M186.3,691.3H425V676.6H186.3v14.7Z" class="g0_139"/>
<path fill-rule="evenodd" d="M186.3,705.9H425V691.3H186.3v14.6Z" class="g0_139"/>
<path fill-rule="evenodd" d="M186.3,720.6H425V705.9H186.3v14.7Z" class="g0_139"/>
<path fill-rule="evenodd" d="M186.3,735.3H425V720.6H186.3v14.7Z" class="g0_139"/>
<path fill-rule="evenodd" d="M204.6,749.9H426.9V735.3H204.6v14.6Z" class="g0_139"/>
<path fill-rule="evenodd" d="M186.7,764.6h238V749.9h-238v14.7Z" class="g0_139"/>
<path fill-rule="evenodd" d="M186.7,779.3h238V764.6h-238v14.7Z" class="g0_139"/>
<path fill-rule="evenodd" d="M186.3,793.9H424.7V779.3H186.3v14.6Z" class="g0_139"/>
<path fill-rule="evenodd" d="M186.3,808.6H424.7V793.9H186.3v14.7Z" class="g0_139"/>
<path fill-rule="evenodd" d="M185.9,823.3H424.7V808.6H185.9v14.7Z" class="g0_139"/>
<path fill-rule="evenodd" d="M185.9,838H424.7V823.3H185.9V838Z" class="g0_139"/>
<path fill-rule="evenodd" d="M185.9,852.7H425V838H185.9v14.7Z" class="g0_139"/>
<path fill-rule="evenodd" d="M185.9,867.3H425V852.7H185.9v14.6Z" class="g0_139"/>
<path fill-rule="evenodd" d="M185.9,882H425V867.3H185.9V882Z" class="g0_139"/>
<path fill-rule="evenodd" d="M187.8,896.7H426.9V882H187.8v14.7Z" class="g0_139"/>
<path fill-rule="evenodd" d="M447,162.8H685.8V148.2H447v14.6Z" class="g0_139"/>
<path fill-rule="evenodd" d="M447,177.5H685.8V162.8H447v14.7Z" class="g0_139"/>
<path fill-rule="evenodd" d="M446.3,192.5H685.8V177.9H446.3v14.6Z" class="g0_139"/>
<path fill-rule="evenodd" d="M446.3,207.2H685.8V192.5H446.3v14.7Z" class="g0_139"/>
<path fill-rule="evenodd" d="M446.3,221.9H685.8V207.2H446.3v14.7Z" class="g0_139"/>
<path fill-rule="evenodd" d="M446.3,236.5H685.8V221.9H446.3v14.6Z" class="g0_139"/>
<path fill-rule="evenodd" d="M446.3,251.2H685.8V236.5H446.3v14.7Z" class="g0_139"/>
<path fill-rule="evenodd" d="M446.3,265.9H685.8V251.2H446.3v14.7Z" class="g0_139"/>
<path fill-rule="evenodd" d="M446.3,280.5H685.8V265.9H446.3v14.6Z" class="g0_139"/>
<path fill-rule="evenodd" d="M446.3,295.2H685.8V280.5H446.3v14.7Z" class="g0_139"/>
<path fill-rule="evenodd" d="M446.3,309.9H685.8V295.2H446.3v14.7Z" class="g0_139"/>
<path fill-rule="evenodd" d="M446.3,324.5H685.8V309.9H446.3v14.6Z" class="g0_139"/>
<path fill-rule="evenodd" d="M446.3,339.2H685.8V324.5H446.3v14.7Z" class="g0_139"/>
<path fill-rule="evenodd" d="M446.3,353.9H685.8V339.2H446.3v14.7Z" class="g0_139"/>
<path fill-rule="evenodd" d="M447,368.6H685.5V353.9H447v14.7Z" class="g0_139"/>
<path fill-rule="evenodd" d="M447,383.2H685.5V368.6H447v14.6Z" class="g0_139"/>
<path fill-rule="evenodd" d="M447,397.9H685.1V383.2H447v14.7Z" class="g0_139"/>
<path fill-rule="evenodd" d="M447,412.6H685.1V397.9H447v14.7Z" class="g0_139"/>
<path fill-rule="evenodd" d="M447,427.2H685.5V412.6H447v14.6Z" class="g0_139"/>
<path fill-rule="evenodd" d="M447,441.9H685.5V427.2H447v14.7Z" class="g0_139"/>
<path fill-rule="evenodd" d="M446.3,456.6H685.8V441.9H446.3v14.7Z" class="g0_139"/>
<path fill-rule="evenodd" d="M446.3,471.2H685.8V456.6H446.3v14.6Z" class="g0_139"/>
<path fill-rule="evenodd" d="M446.3,485.9H685.8V471.2H446.3v14.7Z" class="g0_139"/>
<path fill-rule="evenodd" d="M446.3,500.6H685.8V485.9H446.3v14.7Z" class="g0_139"/>
<path fill-rule="evenodd" d="M446.3,515.2H685.8V500.6H446.3v14.6Z" class="g0_139"/>
<path fill-rule="evenodd" d="M445.6,530.3H684.7V515.6H445.6v14.7Z" class="g0_139"/>
<path fill-rule="evenodd" d="M445.6,544.9H684.7V530.3H445.6v14.6Z" class="g0_139"/>
<path fill-rule="evenodd" d="M445.6,559.6H684.7V544.9H445.6v14.7Z" class="g0_139"/>
<path fill-rule="evenodd" d="M445.6,574.3H684.7V559.6H445.6v14.7Z" class="g0_139"/>
<path fill-rule="evenodd" d="M445.6,588.9H684.7V574.3H445.6v14.6Z" class="g0_139"/>
<path fill-rule="evenodd" d="M445.6,603.6H684.7V588.9H445.6v14.7Z" class="g0_139"/>
<path fill-rule="evenodd" d="M445.6,618.3H684.7V603.6H445.6v14.7Z" class="g0_139"/>
<path fill-rule="evenodd" d="M445.6,633H684.7V618.3H445.6V633Z" class="g0_139"/>
<path fill-rule="evenodd" d="M445.6,647.6H684.7V633H445.6v14.6Z" class="g0_139"/>
<path fill-rule="evenodd" d="M445.6,662.3H684.7V647.6H445.6v14.7Z" class="g0_139"/>
<path fill-rule="evenodd" d="M445.6,677H684.7V662.3H445.6V677Z" class="g0_139"/>
<path fill-rule="evenodd" d="M445.6,692H684.4V677.3H445.6V692Z" class="g0_139"/>
<path fill-rule="evenodd" d="M445.6,706.7H684.4V692H445.6v14.7Z" class="g0_139"/>
<path fill-rule="evenodd" d="M445.6,721.3H684.4V706.7H445.6v14.6Z" class="g0_139"/>
<path fill-rule="evenodd" d="M445.6,736H684.4V721.3H445.6V736Z" class="g0_139"/>
<path fill-rule="evenodd" d="M445.6,750.7H684.4V736H445.6v14.7Z" class="g0_139"/>
<path fill-rule="evenodd" d="M445.6,765.7H684.4v-15H445.6v15Z" class="g0_139"/>
<path fill-rule="evenodd" d="M445.6,780.4H684.4V765.7H445.6v14.7Z" class="g0_139"/>
<path fill-rule="evenodd" d="M445.6,795H684.4V780.4H445.6V795Z" class="g0_139"/>
<path fill-rule="evenodd" d="M445.6,809.7H684.4V795H445.6v14.7Z" class="g0_139"/>
<path fill-rule="evenodd" d="M445.6,824.4H684.4V809.7H445.6v14.7Z" class="g0_139"/>
<path fill-rule="evenodd" d="M445.6,839.1H684.4V824.4H445.6v14.7Z" class="g0_139"/>
<path fill-rule="evenodd" d="M445.6,853.8H684.4V839.1H445.6v14.7Z" class="g0_139"/>
<path fill-rule="evenodd" d="M445.2,868.4H684.4V853.8H445.2v14.6Z" class="g0_139"/>
<path fill-rule="evenodd" d="M445.2,883.1H684.4V868.4H445.2v14.7Z" class="g0_139"/>
<path fill-rule="evenodd" d="M445.2,897.8H684.4V883.1H445.2v14.7Z" class="g0_139"/>
<path fill-rule="evenodd" d="M423.2,930.4h263V912.8h-263v17.6Z" class="g0_139"/>
<path d="M434.5,147V914.4" class="g1_139"/>
</svg>