<?xml version="1.0" encoding="UTF-8" standalone="no"?>
<!DOCTYPE svg PUBLIC "-//W3C//DTD SVG 1.1//EN"
"http://www.w3.org/Graphics/SVG/1.1/DTD/svg11.dtd">
<svg viewBox="0 0 909 1285" version="1.1" xmlns="http://www.w3.org/2000/svg" xmlns:xlink="http://www.w3.org/1999/xlink">
<defs>
<style type="text/css"><![CDATA[
.g0_266{
fill: #FFFFFF;
}
.g1_266{
fill: none;
stroke: #000000;
stroke-width: 1.451;
stroke-linecap: butt;
stroke-linejoin: round;
}
.g2_266{
fill: none;
stroke: #000000;
stroke-width: 0.381;
stroke-linecap: butt;
stroke-linejoin: round;
}
]]></style>
</defs>
<path fill-rule="evenodd" d="M264,125.8H762.1V110H264v15.8Z" class="g0_266"/>
<path fill-rule="evenodd" d="M282,161.4H503.2V146.3H282v15.1Z" class="g0_266"/>
<path fill-rule="evenodd" d="M263.7,176.4H502.8v-15H263.7v15Z" class="g0_266"/>
<path fill-rule="evenodd" d="M263.7,191.6H502.8V176.4H263.7v15.2Z" class="g0_266"/>
<path fill-rule="evenodd" d="M263.7,206.6H502.8v-15H263.7v15Z" class="g0_266"/>
<path fill-rule="evenodd" d="M263.7,221.7H502.8V206.6H263.7v15.1Z" class="g0_266"/>
<path fill-rule="evenodd" d="M262.9,236.7H503.2v-15H262.9v15Z" class="g0_266"/>
<path fill-rule="evenodd" d="M262.9,251.7H503.2v-15H262.9v15Z" class="g0_266"/>
<path fill-rule="evenodd" d="M262.9,266.8H502.1V251.7H262.9v15.1Z" class="g0_266"/>
<path fill-rule="evenodd" d="M262.9,281.8H502.1v-15H262.9v15Z" class="g0_266"/>
<path fill-rule="evenodd" d="M262.9,296.8H502.1v-15H262.9v15Z" class="g0_266"/>
<path fill-rule="evenodd" d="M263.7,311.9H502.1V296.8H263.7v15.1Z" class="g0_266"/>
<path fill-rule="evenodd" d="M263.7,326.9H502.1v-15H263.7v15Z" class="g0_266"/>
<path fill-rule="evenodd" d="M263.7,341.9H502.1v-15H263.7v15Z" class="g0_266"/>
<path fill-rule="evenodd" d="M262.9,357.2H502.4V342H262.9v15.2Z" class="g0_266"/>
<path fill-rule="evenodd" d="M262.9,372.2H502.4v-15H262.9v15Z" class="g0_266"/>
<path fill-rule="evenodd" d="M262.9,387.3H502.4V372.2H262.9v15.1Z" class="g0_266"/>
<path fill-rule="evenodd" d="M281.7,402.3H503.2v-15H281.7v15Z" class="g0_266"/>
<path fill-rule="evenodd" d="M263.7,417.3h238v-15h-238v15Z" class="g0_266"/>
<path fill-rule="evenodd" d="M263.7,432.4h238V417.3h-238v15.1Z" class="g0_266"/>
<path fill-rule="evenodd" d="M263.7,447.4h238v-15h-238v15Z" class="g0_266"/>
<path fill-rule="evenodd" d="M263.7,462.4h238v-15h-238v15Z" class="g0_266"/>
<path fill-rule="evenodd" d="M263.3,477.5H501.7V462.4H263.3v15.1Z" class="g0_266"/>
<path fill-rule="evenodd" d="M263.3,492.5H501.7v-15H263.3v15Z" class="g0_266"/>
<path fill-rule="evenodd" d="M262.9,507.5H501.7v-15H262.9v15Z" class="g0_266"/>
<path fill-rule="evenodd" d="M262.9,522.6H501.7V507.5H262.9v15.1Z" class="g0_266"/>
<path fill-rule="evenodd" d="M262.9,537.8H501.7V522.6H262.9v15.2Z" class="g0_266"/>
<path fill-rule="evenodd" d="M262.9,552.8H501.7v-15H262.9v15Z" class="g0_266"/>
<path fill-rule="evenodd" d="M262.9,567.9H501.7V552.8H262.9v15.1Z" class="g0_266"/>
<path fill-rule="evenodd" d="M262.9,582.9H501.7v-15H262.9v15Z" class="g0_266"/>
<path fill-rule="evenodd" d="M262.9,598H502.1V582.9H262.9V598Z" class="g0_266"/>
<path fill-rule="evenodd" d="M262.9,613H502.1V598H262.9v15Z" class="g0_266"/>
<path fill-rule="evenodd" d="M262.6,628H501.3V613H262.6v15Z" class="g0_266"/>
<path fill-rule="evenodd" d="M262.6,643.1H501.3V628H262.6v15.1Z" class="g0_266"/>
<path fill-rule="evenodd" d="M262.6,658.1H501.3v-15H262.6v15Z" class="g0_266"/>
<path fill-rule="evenodd" d="M262.6,673.1H501.3v-15H262.6v15Z" class="g0_266"/>
<path fill-rule="evenodd" d="M262.6,688.2H501.3V673.1H262.6v15.1Z" class="g0_266"/>
<path fill-rule="evenodd" d="M262.6,703.2H501.3v-15H262.6v15Z" class="g0_266"/>
<path fill-rule="evenodd" d="M262.6,718.4H501.3V703.2H262.6v15.2Z" class="g0_266"/>
<path fill-rule="evenodd" d="M262.6,733.4H501.3v-15H262.6v15Z" class="g0_266"/>
<path fill-rule="evenodd" d="M262.6,748.5H501.3V733.4H262.6v15.1Z" class="g0_266"/>
<path fill-rule="evenodd" d="M262.6,763.5H501.3v-15H262.6v15Z" class="g0_266"/>
<path fill-rule="evenodd" d="M262.2,778.5H501v-15H262.2v15Z" class="g0_266"/>
<path fill-rule="evenodd" d="M262.2,793.6H501V778.5H262.2v15.1Z" class="g0_266"/>
<path fill-rule="evenodd" d="M262.2,808.6H501v-15H262.2v15Z" class="g0_266"/>
<path fill-rule="evenodd" d="M262.2,823.6H501v-15H262.2v15Z" class="g0_266"/>
<path fill-rule="evenodd" d="M261.8,838.7H501V823.6H261.8v15.1Z" class="g0_266"/>
<path fill-rule="evenodd" d="M261.8,853.8H501V838.7H261.8v15.1Z" class="g0_266"/>
<path fill-rule="evenodd" d="M261.8,868.8H501v-15H261.8v15Z" class="g0_266"/>
<path fill-rule="evenodd" d="M261.8,883.8H501v-15H261.8v15Z" class="g0_266"/>
<path fill-rule="evenodd" d="M261.8,899H501V883.8H261.8V899Z" class="g0_266"/>
<path fill-rule="evenodd" d="M264,914.1H503.2V899H264v15.1Z" class="g0_266"/>
<path fill-rule="evenodd" d="M523.7,161.4H762.1V146.3H523.7v15.1Z" class="g0_266"/>
<path fill-rule="evenodd" d="M523.7,176.4H762.1v-15H523.7v15Z" class="g0_266"/>
<path fill-rule="evenodd" d="M523.3,191.6H761.7V176.4H523.3v15.2Z" class="g0_266"/>
<path fill-rule="evenodd" d="M523.3,206.6H761.7v-15H523.3v15Z" class="g0_266"/>
<path fill-rule="evenodd" d="M523.3,221.7H761.7V206.6H523.3v15.1Z" class="g0_266"/>
<path fill-rule="evenodd" d="M523,236.7H761.3v-15H523v15Z" class="g0_266"/>
<path fill-rule="evenodd" d="M523,251.7H761.3v-15H523v15Z" class="g0_266"/>
<path fill-rule="evenodd" d="M523,266.8H761.3V251.7H523v15.1Z" class="g0_266"/>
<path fill-rule="evenodd" d="M541.3,281.8H762.1v-15H541.3v15Z" class="g0_266"/>
<path fill-rule="evenodd" d="M540.9,296.8H762.1v-15H540.9v15Z" class="g0_266"/>
<path fill-rule="evenodd" d="M540.9,311.9H762.1V296.8H540.9v15.1Z" class="g0_266"/>
<path fill-rule="evenodd" d="M523,326.9H761.3v-15H523v15Z" class="g0_266"/>
<path fill-rule="evenodd" d="M523,341.9H761.3v-15H523v15Z" class="g0_266"/>
<path fill-rule="evenodd" d="M540.6,357.2H762.1V342H540.6v15.2Z" class="g0_266"/>
<path fill-rule="evenodd" d="M540.9,372.2H762.1v-15H540.9v15Z" class="g0_266"/>
<path fill-rule="evenodd" d="M540.9,387.3H762.1V372.2H540.9v15.1Z" class="g0_266"/>
<path fill-rule="evenodd" d="M540.9,402.3H762.1v-15H540.9v15Z" class="g0_266"/>
<path fill-rule="evenodd" d="M522.6,417.3H761v-15H522.6v15Z" class="g0_266"/>
<path fill-rule="evenodd" d="M522.6,432.4H761V417.3H522.6v15.1Z" class="g0_266"/>
<path fill-rule="evenodd" d="M522.6,447.4H761v-15H522.6v15Z" class="g0_266"/>
<path fill-rule="evenodd" d="M521.9,462.4H761v-15H521.9v15Z" class="g0_266"/>
<path fill-rule="evenodd" d="M521.9,477.5H761V462.4H521.9v15.1Z" class="g0_266"/>
<path fill-rule="evenodd" d="M521.9,492.5H761v-15H521.9v15Z" class="g0_266"/>
<path fill-rule="evenodd" d="M521.9,507.5H761v-15H521.9v15Z" class="g0_266"/>
<path fill-rule="evenodd" d="M521.9,522.6H761V507.5H521.9v15.1Z" class="g0_266"/>
<path fill-rule="evenodd" d="M521.9,537.8H761V522.6H521.9v15.2Z" class="g0_266"/>
<path fill-rule="evenodd" d="M521.9,552.8H761v-15H521.9v15Z" class="g0_266"/>
<path fill-rule="evenodd" d="M521.9,567.9H761V552.8H521.9v15.1Z" class="g0_266"/>
<path fill-rule="evenodd" d="M521.9,582.9H761v-15H521.9v15Z" class="g0_266"/>
<path fill-rule="evenodd" d="M521.9,598H761V582.9H521.9V598Z" class="g0_266"/>
<path fill-rule="evenodd" d="M521.9,613H761V598H521.9v15Z" class="g0_266"/>
<path fill-rule="evenodd" d="M521.9,628H761V613H521.9v15Z" class="g0_266"/>
<path fill-rule="evenodd" d="M521.9,643.4H760.6v-15H521.9v15Z" class="g0_266"/>
<path fill-rule="evenodd" d="M521.9,658.5H760.6V643.4H521.9v15.1Z" class="g0_266"/>
<path fill-rule="evenodd" d="M521.9,673.5H760.6v-15H521.9v15Z" class="g0_266"/>
<path fill-rule="evenodd" d="M521.9,688.5H760.6v-15H521.9v15Z" class="g0_266"/>
<path fill-rule="evenodd" d="M521.9,703.7H760.6V688.5H521.9v15.2Z" class="g0_266"/>
<path fill-rule="evenodd" d="M521.9,718.8H760.6V703.7H521.9v15.1Z" class="g0_266"/>
<path fill-rule="evenodd" d="M521.9,733.8H760.2v-15H521.9v15Z" class="g0_266"/>
<path fill-rule="evenodd" d="M521.9,748.8H760.2v-15H521.9v15Z" class="g0_266"/>
<path fill-rule="evenodd" d="M521.9,763.9H760.2V748.8H521.9v15.1Z" class="g0_266"/>
<path fill-rule="evenodd" d="M521.5,778.9H760.2v-15H521.5v15Z" class="g0_266"/>
<path fill-rule="evenodd" d="M521.5,793.9H760.2v-15H521.5v15Z" class="g0_266"/>
<path fill-rule="evenodd" d="M539.8,809.3H762.1v-15H539.8v15Z" class="g0_266"/>
<path fill-rule="evenodd" d="M521.5,824.4H760.6V809.3H521.5v15.1Z" class="g0_266"/>
<path fill-rule="evenodd" d="M521.5,839.5H760.6V824.4H521.5v15.1Z" class="g0_266"/>
<path fill-rule="evenodd" d="M521.5,854.5H760.6v-15H521.5v15Z" class="g0_266"/>
<path fill-rule="evenodd" d="M521.5,869.7H760.6V854.5H521.5v15.2Z" class="g0_266"/>
<path fill-rule="evenodd" d="M521.5,884.7H760.6v-15H521.5v15Z" class="g0_266"/>
<path fill-rule="evenodd" d="M497.7,930.2H762.1V914.4H497.7v15.8Z" class="g0_266"/>
<path d="M198.8,831.6v170.5" class="g1_266"/>
<path d="M202,619.4v57.9M511.1,147.4V916" class="g2_266"/>
</svg>