<?xml version="1.0" encoding="UTF-8" standalone="no"?>
<!DOCTYPE svg PUBLIC "-//W3C//DTD SVG 1.1//EN"
"http://www.w3.org/Graphics/SVG/1.1/DTD/svg11.dtd">
<svg viewBox="0 0 909 1285" version="1.1" xmlns="http://www.w3.org/2000/svg" xmlns:xlink="http://www.w3.org/1999/xlink">
<defs>
<style type="text/css"><![CDATA[
.g0_239{
fill: #FFFFFF;
}
.g1_239{
fill: none;
stroke: #000000;
stroke-width: 1.069;
stroke-linecap: butt;
stroke-linejoin: round;
}
.g2_239{
fill: none;
stroke: #000000;
stroke-width: 0.381;
stroke-linecap: butt;
stroke-linejoin: round;
}
.g3_239{
fill: none;
stroke: #000000;
stroke-width: 1.833;
stroke-linecap: butt;
stroke-linejoin: round;
}
]]></style>
</defs>
<path fill-rule="evenodd" d="M263.1,125.8H763.4V110H263.1v15.8Z" class="g0_239"/>
<path fill-rule="evenodd" d="M263.1,161.4H503V146.3H263.1v15.1Z" class="g0_239"/>
<path fill-rule="evenodd" d="M263.1,176.4H503v-15H263.1v15Z" class="g0_239"/>
<path fill-rule="evenodd" d="M262.7,191.6H503V176.4H262.7v15.2Z" class="g0_239"/>
<path fill-rule="evenodd" d="M262.7,206.6H503v-15H262.7v15Z" class="g0_239"/>
<path fill-rule="evenodd" d="M262.7,221.7H503V206.6H262.7v15.1Z" class="g0_239"/>
<path fill-rule="evenodd" d="M262.7,236.7H503v-15H262.7v15Z" class="g0_239"/>
<path fill-rule="evenodd" d="M262.7,251.7H503v-15H262.7v15Z" class="g0_239"/>
<path fill-rule="evenodd" d="M263.1,266.8H503.4V251.7H263.1v15.1Z" class="g0_239"/>
<path fill-rule="evenodd" d="M263.1,281.8H503.4v-15H263.1v15Z" class="g0_239"/>
<path fill-rule="evenodd" d="M262.7,296.8H502.6v-15H262.7v15Z" class="g0_239"/>
<path fill-rule="evenodd" d="M262.7,311.9H502.6V296.8H262.7v15.1Z" class="g0_239"/>
<path fill-rule="evenodd" d="M262.7,326.9H502.6v-15H262.7v15Z" class="g0_239"/>
<path fill-rule="evenodd" d="M262.7,341.9H502.6v-15H262.7v15Z" class="g0_239"/>
<path fill-rule="evenodd" d="M262.7,357.2H502.6V342H262.7v15.2Z" class="g0_239"/>
<path fill-rule="evenodd" d="M262.7,372.2H502.6v-15H262.7v15Z" class="g0_239"/>
<path fill-rule="evenodd" d="M262.7,387.3H502.6V372.2H262.7v15.1Z" class="g0_239"/>
<path fill-rule="evenodd" d="M281.5,402.3H503.4v-15H281.5v15Z" class="g0_239"/>
<path fill-rule="evenodd" d="M281.1,417.3H503.4v-15H281.1v15Z" class="g0_239"/>
<path fill-rule="evenodd" d="M262.7,432.4H502.6V417.3H262.7v15.1Z" class="g0_239"/>
<path fill-rule="evenodd" d="M262.7,447.4H502.6v-15H262.7v15Z" class="g0_239"/>
<path fill-rule="evenodd" d="M262.7,462.4H502.6v-15H262.7v15Z" class="g0_239"/>
<path fill-rule="evenodd" d="M281.1,477.8H503.4v-15H281.1v15Z" class="g0_239"/>
<path fill-rule="evenodd" d="M262.4,492.9H502.3V477.8H262.4v15.1Z" class="g0_239"/>
<path fill-rule="evenodd" d="M262.4,507.9H502.3v-15H262.4v15Z" class="g0_239"/>
<path fill-rule="evenodd" d="M262.4,523.1H501.9V507.9H262.4v15.2Z" class="g0_239"/>
<path fill-rule="evenodd" d="M262.4,538.2H501.9V523.1H262.4v15.1Z" class="g0_239"/>
<path fill-rule="evenodd" d="M262.4,553.2H501.9v-15H262.4v15Z" class="g0_239"/>
<path fill-rule="evenodd" d="M262.4,568.2H501.9v-15H262.4v15Z" class="g0_239"/>
<path fill-rule="evenodd" d="M281.1,583.3H503.4V568.2H281.1v15.1Z" class="g0_239"/>
<path fill-rule="evenodd" d="M262,598.3H501.9v-15H262v15Z" class="g0_239"/>
<path fill-rule="evenodd" d="M262,613.4H501.9V598.3H262v15.1Z" class="g0_239"/>
<path fill-rule="evenodd" d="M262,628.4H501.9v-15H262v15Z" class="g0_239"/>
<path fill-rule="evenodd" d="M262.4,643.4H501.5v-15H262.4v15Z" class="g0_239"/>
<path fill-rule="evenodd" d="M262.4,658.5H501.5V643.4H262.4v15.1Z" class="g0_239"/>
<path fill-rule="evenodd" d="M261.6,673.5H501.9v-15H261.6v15Z" class="g0_239"/>
<path fill-rule="evenodd" d="M261.6,688.5H501.9v-15H261.6v15Z" class="g0_239"/>
<path fill-rule="evenodd" d="M261.6,703.7H501.9V688.5H261.6v15.2Z" class="g0_239"/>
<path fill-rule="evenodd" d="M280.4,718.8h223V703.7h-223v15.1Z" class="g0_239"/>
<path fill-rule="evenodd" d="M280.4,733.8h223v-15h-223v15Z" class="g0_239"/>
<path fill-rule="evenodd" d="M262,748.8H501.5v-15H262v15Z" class="g0_239"/>
<path fill-rule="evenodd" d="M262,763.9H501.5V748.8H262v15.1Z" class="g0_239"/>
<path fill-rule="evenodd" d="M280.4,778.9h223v-15h-223v15Z" class="g0_239"/>
<path fill-rule="evenodd" d="M261.6,794.3H501.5v-15H261.6v15Z" class="g0_239"/>
<path fill-rule="evenodd" d="M261.6,809.3H501.5v-15H261.6v15Z" class="g0_239"/>
<path fill-rule="evenodd" d="M261.6,824.4H501.5V809.3H261.6v15.1Z" class="g0_239"/>
<path fill-rule="evenodd" d="M280.4,839.5h223V824.4h-223v15.1Z" class="g0_239"/>
<path fill-rule="evenodd" d="M261.6,854.5H501.5v-15H261.6v15Z" class="g0_239"/>
<path fill-rule="evenodd" d="M261.6,869.7H501.5V854.5H261.6v15.2Z" class="g0_239"/>
<path fill-rule="evenodd" d="M263.8,884.7H503.4v-15H263.8v15Z" class="g0_239"/>
<path fill-rule="evenodd" d="M523.9,161.4H763.4V146.3H523.9v15.1Z" class="g0_239"/>
<path fill-rule="evenodd" d="M523.9,176.4H763.4v-15H523.9v15Z" class="g0_239"/>
<path fill-rule="evenodd" d="M523.9,191.6H763.4V176.4H523.9v15.2Z" class="g0_239"/>
<path fill-rule="evenodd" d="M523.9,206.6H762.6v-15H523.9v15Z" class="g0_239"/>
<path fill-rule="evenodd" d="M523.9,221.7H762.6V206.6H523.9v15.1Z" class="g0_239"/>
<path fill-rule="evenodd" d="M523.9,236.7H762.6v-15H523.9v15Z" class="g0_239"/>
<path fill-rule="evenodd" d="M523.9,251.7H762.6v-15H523.9v15Z" class="g0_239"/>
<path fill-rule="evenodd" d="M541.9,266.8H763.4V251.7H541.9v15.1Z" class="g0_239"/>
<path fill-rule="evenodd" d="M523.5,281.8H762.6v-15H523.5v15Z" class="g0_239"/>
<path fill-rule="evenodd" d="M523.5,296.8H762.6v-15H523.5v15Z" class="g0_239"/>
<path fill-rule="evenodd" d="M541.9,311.9H763.4V296.8H541.9v15.1Z" class="g0_239"/>
<path fill-rule="evenodd" d="M524.6,326.9h238v-15h-238v15Z" class="g0_239"/>
<path fill-rule="evenodd" d="M524.6,341.9h238v-15h-238v15Z" class="g0_239"/>
<path fill-rule="evenodd" d="M541.9,357.2H763.4V342H541.9v15.2Z" class="g0_239"/>
<path fill-rule="evenodd" d="M522.8,372.6H763.4v-15H522.8v15Z" class="g0_239"/>
<path fill-rule="evenodd" d="M522.8,387.6H763.4v-15H522.8v15Z" class="g0_239"/>
<path fill-rule="evenodd" d="M522.8,402.7H763.4V387.6H522.8v15.1Z" class="g0_239"/>
<path fill-rule="evenodd" d="M522.8,417.7H763.4v-15H522.8v15Z" class="g0_239"/>
<path fill-rule="evenodd" d="M541.5,432.7H763.4v-15H541.5v15Z" class="g0_239"/>
<path fill-rule="evenodd" d="M541.5,447.8H763.4V432.7H541.5v15.1Z" class="g0_239"/>
<path fill-rule="evenodd" d="M522.4,463.2H762.6V448.1H522.4v15.1Z" class="g0_239"/>
<path fill-rule="evenodd" d="M522.4,478.2H762.6v-15H522.4v15Z" class="g0_239"/>
<path fill-rule="evenodd" d="M522.4,493.2H762.6v-15H522.4v15Z" class="g0_239"/>
<path fill-rule="evenodd" d="M522.4,508.5H762.6V493.2H522.4v15.3Z" class="g0_239"/>
<path fill-rule="evenodd" d="M522.4,523.5H762.6v-15H522.4v15Z" class="g0_239"/>
<path fill-rule="evenodd" d="M522.4,538.5H762.6v-15H522.4v15Z" class="g0_239"/>
<path fill-rule="evenodd" d="M522.4,553.6H762.6V538.5H522.4v15.1Z" class="g0_239"/>
<path fill-rule="evenodd" d="M522.4,568.6H762.6v-15H522.4v15Z" class="g0_239"/>
<path fill-rule="evenodd" d="M541.1,583.6H763.4v-15H541.1v15Z" class="g0_239"/>
<path fill-rule="evenodd" d="M541.1,598.7H763.4V583.6H541.1v15.1Z" class="g0_239"/>
<path fill-rule="evenodd" d="M541.1,613.7H763.4v-15H541.1v15Z" class="g0_239"/>
<path fill-rule="evenodd" d="M522.4,628.8H762.3V613.7H522.4v15.1Z" class="g0_239"/>
<path fill-rule="evenodd" d="M522.4,643.8H762.3v-15H522.4v15Z" class="g0_239"/>
<path fill-rule="evenodd" d="M522.1,658.8H762.3v-15H522.1v15Z" class="g0_239"/>
<path fill-rule="evenodd" d="M522.1,673.9H762.3V658.8H522.1v15.1Z" class="g0_239"/>
<path fill-rule="evenodd" d="M522.4,689.1H762.3V673.9H522.4v15.2Z" class="g0_239"/>
<path fill-rule="evenodd" d="M522.4,704.1H762.3v-15H522.4v15Z" class="g0_239"/>
<path fill-rule="evenodd" d="M522.4,719.1H762.3v-15H522.4v15Z" class="g0_239"/>
<path fill-rule="evenodd" d="M522.4,734.2H762.3V719.1H522.4v15.1Z" class="g0_239"/>
<path fill-rule="evenodd" d="M522.4,749.2H762.3v-15H522.4v15Z" class="g0_239"/>
<path fill-rule="evenodd" d="M522.4,764.6H762.3V749.2H522.4v15.4Z" class="g0_239"/>
<path fill-rule="evenodd" d="M522.4,779.6H762.3v-15H522.4v15Z" class="g0_239"/>
<path fill-rule="evenodd" d="M522.1,794.7H762.6V779.6H522.1v15.1Z" class="g0_239"/>
<path fill-rule="evenodd" d="M522.1,809.7H762.6v-15H522.1v15Z" class="g0_239"/>
<path fill-rule="evenodd" d="M522.1,824.7H762.6v-15H522.1v15Z" class="g0_239"/>
<path fill-rule="evenodd" d="M522.1,839.8H762.6V824.7H522.1v15.1Z" class="g0_239"/>
<path fill-rule="evenodd" d="M521.7,855H762.6V839.8H521.7V855Z" class="g0_239"/>
<path fill-rule="evenodd" d="M521.7,870.1H762.6V855H521.7v15.1Z" class="g0_239"/>
<path fill-rule="evenodd" d="M521.7,885.1H762.6v-15H521.7v15Z" class="g0_239"/>
<path fill-rule="evenodd" d="M521.7,900.1H762.6v-15H521.7v15Z" class="g0_239"/>
<path d="M199.6,99.8V334" class="g1_239"/>
<path d="M206.9,99.8v52.7m2.6,-52.7V340.7" class="g2_239"/>
<path d="M184.2,732V941" class="g3_239"/>
<path d="M207.7,451.8V553.7" class="g2_239"/>
<path d="M208,803.1V887" class="g1_239"/>
<path d="M208,529.1V975M512,147.8V916.7" class="g2_239"/>
</svg>