<?xml version="1.0" encoding="UTF-8" standalone="no"?>
<!DOCTYPE svg PUBLIC "-//W3C//DTD SVG 1.1//EN"
"http://www.w3.org/Graphics/SVG/1.1/DTD/svg11.dtd">
<svg viewBox="0 0 909 1285" version="1.1" xmlns="http://www.w3.org/2000/svg" xmlns:xlink="http://www.w3.org/1999/xlink">
<defs>
<style type="text/css"><![CDATA[
.g0_295{
fill: #FFFFFF;
}
.g1_295{
fill: none;
stroke: #000000;
stroke-width: 0.381;
stroke-linecap: butt;
stroke-linejoin: round;
}
]]></style>
</defs>
<path fill-rule="evenodd" d="M274,125.8H772V110H274v15.8Z" class="g0_295"/>
<path fill-rule="evenodd" d="M274,161.4H512.7V146.3H274v15.1Z" class="g0_295"/>
<path fill-rule="evenodd" d="M274,176.4H512.7v-15H274v15Z" class="g0_295"/>
<path fill-rule="evenodd" d="M273.6,191.6H512.7V176.4H273.6v15.2Z" class="g0_295"/>
<path fill-rule="evenodd" d="M273.6,206.6H512.7v-15H273.6v15Z" class="g0_295"/>
<path fill-rule="evenodd" d="M274,221.7H513.1V206.6H274v15.1Z" class="g0_295"/>
<path fill-rule="evenodd" d="M274,236.7H513.1v-15H274v15Z" class="g0_295"/>
<path fill-rule="evenodd" d="M274,251.7H513.1v-15H274v15Z" class="g0_295"/>
<path fill-rule="evenodd" d="M274,266.8H513.1V251.7H274v15.1Z" class="g0_295"/>
<path fill-rule="evenodd" d="M292.3,282.2H513.1V267.1H292.3v15.1Z" class="g0_295"/>
<path fill-rule="evenodd" d="M292.3,297.2H513.1v-15H292.3v15Z" class="g0_295"/>
<path fill-rule="evenodd" d="M273.6,312.2H512.7v-15H273.6v15Z" class="g0_295"/>
<path fill-rule="evenodd" d="M273.6,327.3H512.7V312.2H273.6v15.1Z" class="g0_295"/>
<path fill-rule="evenodd" d="M273.6,342.5H512.7V327.3H273.6v15.2Z" class="g0_295"/>
<path fill-rule="evenodd" d="M273.6,357.6H512.7V342.5H273.6v15.1Z" class="g0_295"/>
<path fill-rule="evenodd" d="M273.2,372.6H512.3v-15H273.2v15Z" class="g0_295"/>
<path fill-rule="evenodd" d="M273.2,387.6H512.3v-15H273.2v15Z" class="g0_295"/>
<path fill-rule="evenodd" d="M273.2,402.7H512.3V387.6H273.2v15.1Z" class="g0_295"/>
<path fill-rule="evenodd" d="M273.2,417.7H512.3v-15H273.2v15Z" class="g0_295"/>
<path fill-rule="evenodd" d="M273.2,432.7H512.3v-15H273.2v15Z" class="g0_295"/>
<path fill-rule="evenodd" d="M273.2,447.8H512.3V432.7H273.2v15.1Z" class="g0_295"/>
<path fill-rule="evenodd" d="M291.6,463.2H513.1V448.1H291.6v15.1Z" class="g0_295"/>
<path fill-rule="evenodd" d="M273.2,478.2H512.3v-15H273.2v15Z" class="g0_295"/>
<path fill-rule="evenodd" d="M273.2,493.2H512.3v-15H273.2v15Z" class="g0_295"/>
<path fill-rule="evenodd" d="M273.2,508.5H512.3V493.2H273.2v15.3Z" class="g0_295"/>
<path fill-rule="evenodd" d="M291.6,523.5H513.1v-15H291.6v15Z" class="g0_295"/>
<path fill-rule="evenodd" d="M291.6,538.5H513.1v-15H291.6v15Z" class="g0_295"/>
<path fill-rule="evenodd" d="M291.6,553.6H513.1V538.5H291.6v15.1Z" class="g0_295"/>
<path fill-rule="evenodd" d="M273.6,568.6H512.3v-15H273.6v15Z" class="g0_295"/>
<path fill-rule="evenodd" d="M273.6,583.6H512.3v-15H273.6v15Z" class="g0_295"/>
<path fill-rule="evenodd" d="M273.6,598.7H512V583.6H273.6v15.1Z" class="g0_295"/>
<path fill-rule="evenodd" d="M273.6,613.7H512v-15H273.6v15Z" class="g0_295"/>
<path fill-rule="evenodd" d="M274,628.8H512V613.7H274v15.1Z" class="g0_295"/>
<path fill-rule="evenodd" d="M274,643.8H512v-15H274v15Z" class="g0_295"/>
<path fill-rule="evenodd" d="M291.2,658.8H513.1v-15H291.2v15Z" class="g0_295"/>
<path fill-rule="evenodd" d="M272.5,673.9H511.6V658.8H272.5v15.1Z" class="g0_295"/>
<path fill-rule="evenodd" d="M272.5,689.1H511.6V673.9H272.5v15.2Z" class="g0_295"/>
<path fill-rule="evenodd" d="M272.5,704.1H511.6v-15H272.5v15Z" class="g0_295"/>
<path fill-rule="evenodd" d="M272.5,719.1H511.6v-15H272.5v15Z" class="g0_295"/>
<path fill-rule="evenodd" d="M272.5,734.2H511.6V719.1H272.5v15.1Z" class="g0_295"/>
<path fill-rule="evenodd" d="M272.5,749.2H511.6v-15H272.5v15Z" class="g0_295"/>
<path fill-rule="evenodd" d="M273.2,764.2H512v-15H273.2v15Z" class="g0_295"/>
<path fill-rule="evenodd" d="M273.2,779.3H512V764.2H273.2v15.1Z" class="g0_295"/>
<path fill-rule="evenodd" d="M272.5,794.3H512v-15H272.5v15Z" class="g0_295"/>
<path fill-rule="evenodd" d="M272.5,809.3H512v-15H272.5v15Z" class="g0_295"/>
<path fill-rule="evenodd" d="M272.5,824.4H512V809.3H272.5v15.1Z" class="g0_295"/>
<path fill-rule="evenodd" d="M272.5,839.5H512V824.4H272.5v15.1Z" class="g0_295"/>
<path fill-rule="evenodd" d="M272.9,854.5H511.2v-15H272.9v15Z" class="g0_295"/>
<path fill-rule="evenodd" d="M272.9,869.7H511.2V854.5H272.9v15.2Z" class="g0_295"/>
<path fill-rule="evenodd" d="M272.5,884.7H510.9v-15H272.5v15Z" class="g0_295"/>
<path fill-rule="evenodd" d="M272.5,899.8H510.9V884.7H272.5v15.1Z" class="g0_295"/>
<path fill-rule="evenodd" d="M274,914.8H512.3v-15H274v15Z" class="g0_295"/>
<path fill-rule="evenodd" d="M533.6,161.4H771.2V146.3H533.6v15.1Z" class="g0_295"/>
<path fill-rule="evenodd" d="M533.6,176.4H771.2v-15H533.6v15Z" class="g0_295"/>
<path fill-rule="evenodd" d="M534,191.6H770.9V176.4H534v15.2Z" class="g0_295"/>
<path fill-rule="evenodd" d="M534,206.6H770.9v-15H534v15Z" class="g0_295"/>
<path fill-rule="evenodd" d="M551.2,221.7H772V206.6H551.2v15.1Z" class="g0_295"/>
<path fill-rule="evenodd" d="M533.2,236.7H772v-15H533.2v15Z" class="g0_295"/>
<path fill-rule="evenodd" d="M533.2,251.7H772v-15H533.2v15Z" class="g0_295"/>
<path fill-rule="evenodd" d="M533.2,266.8H772V251.7H533.2v15.1Z" class="g0_295"/>
<path fill-rule="evenodd" d="M532.9,281.8h238v-15h-238v15Z" class="g0_295"/>
<path fill-rule="evenodd" d="M532.9,296.8h238v-15h-238v15Z" class="g0_295"/>
<path fill-rule="evenodd" d="M550.8,311.9H772V296.8H550.8v15.1Z" class="g0_295"/>
<path fill-rule="evenodd" d="M550.8,326.9H772v-15H550.8v15Z" class="g0_295"/>
<path fill-rule="evenodd" d="M550.8,341.9H772v-15H550.8v15Z" class="g0_295"/>
<path fill-rule="evenodd" d="M550.8,357.2H772V342H550.8v15.2Z" class="g0_295"/>
<path fill-rule="evenodd" d="M532.9,372.2H771.2v-15H532.9v15Z" class="g0_295"/>
<path fill-rule="evenodd" d="M532.9,387.3H771.2V372.2H532.9v15.1Z" class="g0_295"/>
<path fill-rule="evenodd" d="M532.9,402.3H771.2v-15H532.9v15Z" class="g0_295"/>
<path fill-rule="evenodd" d="M532.9,417.3H771.2v-15H532.9v15Z" class="g0_295"/>
<path fill-rule="evenodd" d="M532.9,432.4H771.2V417.3H532.9v15.1Z" class="g0_295"/>
<path fill-rule="evenodd" d="M532.9,447.4h238v-15h-238v15Z" class="g0_295"/>
<path fill-rule="evenodd" d="M532.9,462.4h238v-15h-238v15Z" class="g0_295"/>
<path fill-rule="evenodd" d="M532.5,477.5H771.2V462.4H532.5v15.1Z" class="g0_295"/>
<path fill-rule="evenodd" d="M532.5,492.5H771.2v-15H532.5v15Z" class="g0_295"/>
<path fill-rule="evenodd" d="M532.5,507.5H771.2v-15H532.5v15Z" class="g0_295"/>
<path fill-rule="evenodd" d="M532.5,522.6H771.2V507.5H532.5v15.1Z" class="g0_295"/>
<path fill-rule="evenodd" d="M532.5,537.8H771.2V522.6H532.5v15.2Z" class="g0_295"/>
<path fill-rule="evenodd" d="M532.5,552.8H771.2v-15H532.5v15Z" class="g0_295"/>
<path fill-rule="evenodd" d="M532.5,567.9H771.2V552.8H532.5v15.1Z" class="g0_295"/>
<path fill-rule="evenodd" d="M532.5,582.9H771.2v-15H532.5v15Z" class="g0_295"/>
<path fill-rule="evenodd" d="M532.5,598H771.2V582.9H532.5V598Z" class="g0_295"/>
<path fill-rule="evenodd" d="M532.5,613H771.2V598H532.5v15Z" class="g0_295"/>
<path fill-rule="evenodd" d="M532.5,628H771.2V613H532.5v15Z" class="g0_295"/>
<path fill-rule="evenodd" d="M532.5,643.1H770.9V628H532.5v15.1Z" class="g0_295"/>
<path fill-rule="evenodd" d="M532.5,658.1H770.9v-15H532.5v15Z" class="g0_295"/>
<path fill-rule="evenodd" d="M532.5,673.1h238v-15h-238v15Z" class="g0_295"/>
<path fill-rule="evenodd" d="M532.5,688.2h238V673.1h-238v15.1Z" class="g0_295"/>
<path fill-rule="evenodd" d="M532.5,703.2h238v-15h-238v15Z" class="g0_295"/>
<path fill-rule="evenodd" d="M550.1,718.4H772V703.2H550.1v15.2Z" class="g0_295"/>
<path fill-rule="evenodd" d="M550.1,733.4H772v-15H550.1v15Z" class="g0_295"/>
<path fill-rule="evenodd" d="M550.1,748.5H772V733.4H550.1v15.1Z" class="g0_295"/>
<path fill-rule="evenodd" d="M532.5,763.5H770.9v-15H532.5v15Z" class="g0_295"/>
<path fill-rule="evenodd" d="M532.5,778.5H770.9v-15H532.5v15Z" class="g0_295"/>
<path fill-rule="evenodd" d="M532.1,793.6H770.5V778.5H532.1v15.1Z" class="g0_295"/>
<path fill-rule="evenodd" d="M532.1,808.6H770.5v-15H532.1v15Z" class="g0_295"/>
<path fill-rule="evenodd" d="M532.1,823.6H770.5v-15H532.1v15Z" class="g0_295"/>
<path fill-rule="evenodd" d="M532.1,838.7H770.5V823.6H532.1v15.1Z" class="g0_295"/>
<path fill-rule="evenodd" d="M532.1,853.8H770.5V838.7H532.1v15.1Z" class="g0_295"/>
<path fill-rule="evenodd" d="M532.1,868.8H770.5v-15H532.1v15Z" class="g0_295"/>
<path fill-rule="evenodd" d="M532.1,883.8H770.5v-15H532.1v15Z" class="g0_295"/>
<path fill-rule="evenodd" d="M508.7,932H772V914.4H508.7V932Z" class="g0_295"/>
<path d="M199.5,652.7V884.1m4,-654.5v33m3.7,-26v66.7m6.2,475.6v223.6m2.9,-481.1V980.8m305.1,-833V916" class="g1_295"/>
</svg>