<?xml version="1.0" encoding="UTF-8" standalone="no"?>
<!DOCTYPE svg PUBLIC "-//W3C//DTD SVG 1.1//EN"
"http://www.w3.org/Graphics/SVG/1.1/DTD/svg11.dtd">
<svg viewBox="0 0 909 1285" version="1.1" xmlns="http://www.w3.org/2000/svg" xmlns:xlink="http://www.w3.org/1999/xlink">
<defs>
<style type="text/css"><![CDATA[
.g0_77{
fill: #FFFFFF;
}
.g1_77{
fill: none;
stroke: #000000;
stroke-width: 0.763;
stroke-linecap: butt;
stroke-linejoin: round;
}
.g2_77{
fill: none;
stroke: #000000;
stroke-width: 1.069;
stroke-linecap: butt;
stroke-linejoin: round;
}
.g3_77{
fill: none;
stroke: #000000;
stroke-width: 0.381;
stroke-linecap: butt;
stroke-linejoin: round;
}
]]></style>
</defs>
<path fill-rule="evenodd" d="M261.1,125.8H761.7V110H261.1v15.8Z" class="g0_77"/>
<path fill-rule="evenodd" d="M260.7,161.7H500.2V147.1H260.7v14.6Z" class="g0_77"/>
<path fill-rule="evenodd" d="M260.7,176.4H500.2V161.7H260.7v14.7Z" class="g0_77"/>
<path fill-rule="evenodd" d="M260.7,191.1H500.6V176.4H260.7v14.7Z" class="g0_77"/>
<path fill-rule="evenodd" d="M260.7,205.7H500.6V191.1H260.7v14.6Z" class="g0_77"/>
<path fill-rule="evenodd" d="M279.5,220.4H500.6V205.7H279.5v14.7Z" class="g0_77"/>
<path fill-rule="evenodd" d="M279.1,235.1H500.6V220.4H279.1v14.7Z" class="g0_77"/>
<path fill-rule="evenodd" d="M260.4,250.3H500.2V235.4H260.4v14.9Z" class="g0_77"/>
<path fill-rule="evenodd" d="M260.4,264.9H500.2V250.3H260.4v14.6Z" class="g0_77"/>
<path fill-rule="evenodd" d="M279.1,279.6H500.6V264.9H279.1v14.7Z" class="g0_77"/>
<path fill-rule="evenodd" d="M279.1,294.6H500.6v-15H279.1v15Z" class="g0_77"/>
<path fill-rule="evenodd" d="M260.4,309.3H500.6V294.6H260.4v14.7Z" class="g0_77"/>
<path fill-rule="evenodd" d="M260.4,324H500.6V309.3H260.4V324Z" class="g0_77"/>
<path fill-rule="evenodd" d="M260.4,338.6H500.6V324H260.4v14.6Z" class="g0_77"/>
<path fill-rule="evenodd" d="M260.4,353.4H500.6V338.7H260.4v14.7Z" class="g0_77"/>
<path fill-rule="evenodd" d="M260.4,368H500.2V353.4H260.4V368Z" class="g0_77"/>
<path fill-rule="evenodd" d="M260.4,382.7H500.2V368H260.4v14.7Z" class="g0_77"/>
<path fill-rule="evenodd" d="M260.4,397.4H500.2V382.7H260.4v14.7Z" class="g0_77"/>
<path fill-rule="evenodd" d="M278.7,412.4H500.6V397.7H278.7v14.7Z" class="g0_77"/>
<path fill-rule="evenodd" d="M260,427.1H500.2V412.4H260v14.7Z" class="g0_77"/>
<path fill-rule="evenodd" d="M260.4,441.7H500.6V427.1H260.4v14.6Z" class="g0_77"/>
<path fill-rule="evenodd" d="M260.4,456.4H500.6V441.7H260.4v14.7Z" class="g0_77"/>
<path fill-rule="evenodd" d="M260.4,471.1H500.6V456.4H260.4v14.7Z" class="g0_77"/>
<path fill-rule="evenodd" d="M260.4,485.7H500.6V471.1H260.4v14.6Z" class="g0_77"/>
<path fill-rule="evenodd" d="M278.4,500.8H500.6V486.1H278.4v14.7Z" class="g0_77"/>
<path fill-rule="evenodd" d="M260,515.4H500.2V500.8H260v14.6Z" class="g0_77"/>
<path fill-rule="evenodd" d="M260,530.1H500.2V515.4H260v14.7Z" class="g0_77"/>
<path fill-rule="evenodd" d="M260,544.8H500.2V530.1H260v14.7Z" class="g0_77"/>
<path fill-rule="evenodd" d="M260,559.4H500.2V544.8H260v14.6Z" class="g0_77"/>
<path fill-rule="evenodd" d="M260,574.1H500.2V559.4H260v14.7Z" class="g0_77"/>
<path fill-rule="evenodd" d="M260,588.8H499.5V574.1H260v14.7Z" class="g0_77"/>
<path fill-rule="evenodd" d="M260,603.5H499.5V588.8H260v14.7Z" class="g0_77"/>
<path fill-rule="evenodd" d="M260,618.1H499.9V603.5H260v14.6Z" class="g0_77"/>
<path fill-rule="evenodd" d="M260,632.8H499.9V618.1H260v14.7Z" class="g0_77"/>
<path fill-rule="evenodd" d="M260,647.8H499.5V633.2H260v14.6Z" class="g0_77"/>
<path fill-rule="evenodd" d="M260,662.5H499.5V647.8H260v14.7Z" class="g0_77"/>
<path fill-rule="evenodd" d="M259.6,677.2H499.1V662.5H259.6v14.7Z" class="g0_77"/>
<path fill-rule="evenodd" d="M259.6,691.8H499.1V677.2H259.6v14.6Z" class="g0_77"/>
<path fill-rule="evenodd" d="M259.3,706.9H499.5V692.2H259.3v14.7Z" class="g0_77"/>
<path fill-rule="evenodd" d="M259.3,721.5H499.5V706.9H259.3v14.6Z" class="g0_77"/>
<path fill-rule="evenodd" d="M258.9,736.2h241V721.5h-241v14.7Z" class="g0_77"/>
<path fill-rule="evenodd" d="M258.9,750.9h241V736.2h-241v14.7Z" class="g0_77"/>
<path fill-rule="evenodd" d="M258.9,765.5h241V750.9h-241v14.6Z" class="g0_77"/>
<path fill-rule="evenodd" d="M259.3,780.2H499.9V765.5H259.3v14.7Z" class="g0_77"/>
<path fill-rule="evenodd" d="M259.3,794.9H499.9V780.2H259.3v14.7Z" class="g0_77"/>
<path fill-rule="evenodd" d="M259.3,809.5H499.9V794.9H259.3v14.6Z" class="g0_77"/>
<path fill-rule="evenodd" d="M259.3,824.2H499.9V809.5H259.3v14.7Z" class="g0_77"/>
<path fill-rule="evenodd" d="M259.3,838.9H499.9V824.2H259.3v14.7Z" class="g0_77"/>
<path fill-rule="evenodd" d="M259.3,853.6H499.9V838.9H259.3v14.7Z" class="g0_77"/>
<path fill-rule="evenodd" d="M260,868.6H499.1V853.9H260v14.7Z" class="g0_77"/>
<path fill-rule="evenodd" d="M260,883.3H499.1V868.6H260v14.7Z" class="g0_77"/>
<path fill-rule="evenodd" d="M279.8,897.9H500.6V883.3H279.8v14.6Z" class="g0_77"/>
<path fill-rule="evenodd" d="M539.8,161.4H761.7V146.7H539.8v14.7Z" class="g0_77"/>
<path fill-rule="evenodd" d="M521.1,176.4H761.7V161.7H521.1v14.7Z" class="g0_77"/>
<path fill-rule="evenodd" d="M521.1,191.1H761.7V176.4H521.1v14.7Z" class="g0_77"/>
<path fill-rule="evenodd" d="M521.1,205.7H761.7V191.1H521.1v14.6Z" class="g0_77"/>
<path fill-rule="evenodd" d="M521.1,220.4H761.7V205.7H521.1v14.7Z" class="g0_77"/>
<path fill-rule="evenodd" d="M521.5,235.1H761V220.4H521.5v14.7Z" class="g0_77"/>
<path fill-rule="evenodd" d="M521.5,249.7H761V235.1H521.5v14.6Z" class="g0_77"/>
<path fill-rule="evenodd" d="M521.1,264.9H761V250.1H521.1v14.8Z" class="g0_77"/>
<path fill-rule="evenodd" d="M521.1,279.6H761V264.9H521.1v14.7Z" class="g0_77"/>
<path fill-rule="evenodd" d="M521.1,294.3H761V279.6H521.1v14.7Z" class="g0_77"/>
<path fill-rule="evenodd" d="M521.1,308.9H761V294.3H521.1v14.6Z" class="g0_77"/>
<path fill-rule="evenodd" d="M521.1,324H761V308.9H521.1V324Z" class="g0_77"/>
<path fill-rule="evenodd" d="M521.1,338.6H761V324H521.1v14.6Z" class="g0_77"/>
<path fill-rule="evenodd" d="M521.1,353.4H761V338.7H521.1v14.7Z" class="g0_77"/>
<path fill-rule="evenodd" d="M521.1,368H761V353.4H521.1V368Z" class="g0_77"/>
<path fill-rule="evenodd" d="M520,382.7H761V368H520v14.7Z" class="g0_77"/>
<path fill-rule="evenodd" d="M520,397.4H761V382.7H520v14.7Z" class="g0_77"/>
<path fill-rule="evenodd" d="M520,412H761V397.4H520V412Z" class="g0_77"/>
<path fill-rule="evenodd" d="M520,426.7H761V412H520v14.7Z" class="g0_77"/>
<path fill-rule="evenodd" d="M520,441.4H761V426.7H520v14.7Z" class="g0_77"/>
<path fill-rule="evenodd" d="M520,456H761V441.4H520V456Z" class="g0_77"/>
<path fill-rule="evenodd" d="M520.8,471.1H760.2V456.4H520.8v14.7Z" class="g0_77"/>
<path fill-rule="evenodd" d="M520.8,485.7H760.2V471.1H520.8v14.6Z" class="g0_77"/>
<path fill-rule="evenodd" d="M520,500.4H760.2V485.7H520v14.7Z" class="g0_77"/>
<path fill-rule="evenodd" d="M520,515.1H760.2V500.4H520v14.7Z" class="g0_77"/>
<path fill-rule="evenodd" d="M520,529.7H760.2V515.1H520v14.6Z" class="g0_77"/>
<path fill-rule="evenodd" d="M520,544.8H760.2V529.7H520v15.1Z" class="g0_77"/>
<path fill-rule="evenodd" d="M520,559.4H760.2V544.8H520v14.6Z" class="g0_77"/>
<path fill-rule="evenodd" d="M520,574.1H760.2V559.4H520v14.7Z" class="g0_77"/>
<path fill-rule="evenodd" d="M520,588.8H760.2V574.1H520v14.7Z" class="g0_77"/>
<path fill-rule="evenodd" d="M520,603.5H760.2V588.8H520v14.7Z" class="g0_77"/>
<path fill-rule="evenodd" d="M520,618.1H760.2V603.5H520v14.6Z" class="g0_77"/>
<path fill-rule="evenodd" d="M520,632.8H760.2V618.1H520v14.7Z" class="g0_77"/>
<path fill-rule="evenodd" d="M518.9,647.8H760.2V633.2H518.9v14.6Z" class="g0_77"/>
<path fill-rule="evenodd" d="M518.9,662.5H760.2V647.8H518.9v14.7Z" class="g0_77"/>
<path fill-rule="evenodd" d="M518.9,677.2H760.2V662.5H518.9v14.7Z" class="g0_77"/>
<path fill-rule="evenodd" d="M518.9,691.8H760.2V677.2H518.9v14.6Z" class="g0_77"/>
<path fill-rule="evenodd" d="M518.9,706.5H760.2V691.8H518.9v14.7Z" class="g0_77"/>
<path fill-rule="evenodd" d="M520.8,721.5H759.9V706.9H520.8v14.6Z" class="g0_77"/>
<path fill-rule="evenodd" d="M520.8,736.2H759.9V721.5H520.8v14.7Z" class="g0_77"/>
<path fill-rule="evenodd" d="M520.4,750.9H759.9V736.2H520.4v14.7Z" class="g0_77"/>
<path fill-rule="evenodd" d="M520.4,765.5H759.9V750.9H520.4v14.6Z" class="g0_77"/>
<path fill-rule="evenodd" d="M520.4,780.2H759.9V765.5H520.4v14.7Z" class="g0_77"/>
<path fill-rule="evenodd" d="M520,794.9H760.2V780.2H520v14.7Z" class="g0_77"/>
<path fill-rule="evenodd" d="M520,809.5H760.2V794.9H520v14.6Z" class="g0_77"/>
<path fill-rule="evenodd" d="M520,824.2H760.2V809.5H520v14.7Z" class="g0_77"/>
<path fill-rule="evenodd" d="M520,838.9H760.2V824.2H520v14.7Z" class="g0_77"/>
<path fill-rule="evenodd" d="M520,853.6H760.2V838.9H520v14.7Z" class="g0_77"/>
<path fill-rule="evenodd" d="M520,868.6H759.9V853.9H520v14.7Z" class="g0_77"/>
<path fill-rule="evenodd" d="M520,883.3H759.9V868.6H520v14.7Z" class="g0_77"/>
<path fill-rule="evenodd" d="M520,897.9H759.9V883.3H520v14.6Z" class="g0_77"/>
<path d="M200.1,92.7V250.8" class="g1_77"/>
<path d="M185.9,152.2V323.5" class="g2_77"/>
<path d="M199.8,419.9V909m3.3,-223.6V924.1M204.6,315V726.5m.7,124.2v47.7m3.3,-38.5v83.6m301,-796V915.7" class="g3_77"/>
</svg>