<?xml version="1.0" encoding="UTF-8" standalone="no"?>
<!DOCTYPE svg PUBLIC "-//W3C//DTD SVG 1.1//EN"
"http://www.w3.org/Graphics/SVG/1.1/DTD/svg11.dtd">
<svg viewBox="0 0 909 1285" version="1.1" xmlns="http://www.w3.org/2000/svg" xmlns:xlink="http://www.w3.org/1999/xlink">
<defs>
<style type="text/css"><![CDATA[
.g0_226{
fill: #FFFFFF;
}
.g1_226{
fill: none;
stroke: #000000;
stroke-width: 0.381;
stroke-linecap: butt;
stroke-linejoin: round;
}
]]></style>
</defs>
<path fill-rule="evenodd" d="M585.1,125.8h98.7V110H585.1v15.8Z" class="g0_226"/>
<path fill-rule="evenodd" d="M185.7,161.7H424.5v-15H185.7v15Z" class="g0_226"/>
<path fill-rule="evenodd" d="M185.7,176.9H424.5V161.7H185.7v15.2Z" class="g0_226"/>
<path fill-rule="evenodd" d="M185.7,192H424.5V176.9H185.7V192Z" class="g0_226"/>
<path fill-rule="evenodd" d="M204.1,207H424.5V192H204.1v15Z" class="g0_226"/>
<path fill-rule="evenodd" d="M185.7,222.4H424.5v-15H185.7v15Z" class="g0_226"/>
<path fill-rule="evenodd" d="M185.7,237.4H424.1v-15H185.7v15Z" class="g0_226"/>
<path fill-rule="evenodd" d="M185.7,252.5H424.1V237.4H185.7v15.1Z" class="g0_226"/>
<path fill-rule="evenodd" d="M185.4,267.5H423.7v-15H185.4v15Z" class="g0_226"/>
<path fill-rule="evenodd" d="M185.4,282.5H423.7v-15H185.4v15Z" class="g0_226"/>
<path fill-rule="evenodd" d="M185.7,297.6H424.1V282.5H185.7v15.1Z" class="g0_226"/>
<path fill-rule="evenodd" d="M185.7,312.6H424.1v-15H185.7v15Z" class="g0_226"/>
<path fill-rule="evenodd" d="M185.7,327.8h238V312.6h-238v15.2Z" class="g0_226"/>
<path fill-rule="evenodd" d="M185.7,342.9h238V327.8h-238v15.1Z" class="g0_226"/>
<path fill-rule="evenodd" d="M185.7,357.9h238v-15h-238v15Z" class="g0_226"/>
<path fill-rule="evenodd" d="M185.4,373H423.7V357.9H185.4V373Z" class="g0_226"/>
<path fill-rule="evenodd" d="M185.4,388H423.7V373H185.4v15Z" class="g0_226"/>
<path fill-rule="evenodd" d="M185.4,403H423.7V388H185.4v15Z" class="g0_226"/>
<path fill-rule="evenodd" d="M185,418.1H423.7V403H185v15.1Z" class="g0_226"/>
<path fill-rule="evenodd" d="M185,433.1H423.7v-15H185v15Z" class="g0_226"/>
<path fill-rule="evenodd" d="M185,448.5H423.7V433.1H185v15.4Z" class="g0_226"/>
<path fill-rule="evenodd" d="M185,463.5H423.7v-15H185v15Z" class="g0_226"/>
<path fill-rule="evenodd" d="M185,478.6H423.7V463.5H185v15.1Z" class="g0_226"/>
<path fill-rule="evenodd" d="M185,493.8H423.7V478.6H185v15.2Z" class="g0_226"/>
<path fill-rule="evenodd" d="M185,508.8H423.7v-15H185v15Z" class="g0_226"/>
<path fill-rule="evenodd" d="M184.6,523.9H423.4V508.8H184.6v15.1Z" class="g0_226"/>
<path fill-rule="evenodd" d="M184.6,538.9H423.4v-15H184.6v15Z" class="g0_226"/>
<path fill-rule="evenodd" d="M185.4,553.9h238v-15h-238v15Z" class="g0_226"/>
<path fill-rule="evenodd" d="M185.4,569h238V553.9h-238V569Z" class="g0_226"/>
<path fill-rule="evenodd" d="M185,584H423V569H185v15Z" class="g0_226"/>
<path fill-rule="evenodd" d="M185,599.1H423V584H185v15.1Z" class="g0_226"/>
<path fill-rule="evenodd" d="M185,614.1H423v-15H185v15Z" class="g0_226"/>
<path fill-rule="evenodd" d="M185,629.1H423v-15H185v15Z" class="g0_226"/>
<path fill-rule="evenodd" d="M184.6,644.2h238V629.1h-238v15.1Z" class="g0_226"/>
<path fill-rule="evenodd" d="M184.6,659.2h238v-15h-238v15Z" class="g0_226"/>
<path fill-rule="evenodd" d="M184.6,674.4H423V659.2H184.6v15.2Z" class="g0_226"/>
<path fill-rule="evenodd" d="M184.6,689.4H423v-15H184.6v15Z" class="g0_226"/>
<path fill-rule="evenodd" d="M183.9,704.5H423V689.4H183.9v15.1Z" class="g0_226"/>
<path fill-rule="evenodd" d="M183.9,719.5H423v-15H183.9v15Z" class="g0_226"/>
<path fill-rule="evenodd" d="M183.9,734.5H423v-15H183.9v15Z" class="g0_226"/>
<path fill-rule="evenodd" d="M183.9,749.6H423V734.5H183.9v15.1Z" class="g0_226"/>
<path fill-rule="evenodd" d="M183.9,764.6H423v-15H183.9v15Z" class="g0_226"/>
<path fill-rule="evenodd" d="M184.3,779.6H423v-15H184.3v15Z" class="g0_226"/>
<path fill-rule="evenodd" d="M184.3,794.7H423V779.6H184.3v15.1Z" class="g0_226"/>
<path fill-rule="evenodd" d="M184.3,809.7H423v-15H184.3v15Z" class="g0_226"/>
<path fill-rule="evenodd" d="M183.9,824.7H423v-15H183.9v15Z" class="g0_226"/>
<path fill-rule="evenodd" d="M183.9,839.8H423V824.7H183.9v15.1Z" class="g0_226"/>
<path fill-rule="evenodd" d="M183.9,855H423V839.8H183.9V855Z" class="g0_226"/>
<path fill-rule="evenodd" d="M202.6,870.1H424.5V855H202.6v15.1Z" class="g0_226"/>
<path fill-rule="evenodd" d="M202.2,885.1H424.5v-15H202.2v15Z" class="g0_226"/>
<path fill-rule="evenodd" d="M185.7,900.1H424.1v-15H185.7v15Z" class="g0_226"/>
<path fill-rule="evenodd" d="M445,161.4H683.4V146.3H445v15.1Z" class="g0_226"/>
<path fill-rule="evenodd" d="M445,176.4H683.4v-15H445v15Z" class="g0_226"/>
<path fill-rule="evenodd" d="M444.3,191.6H683.8V176.4H444.3v15.2Z" class="g0_226"/>
<path fill-rule="evenodd" d="M444.3,206.6H683.8v-15H444.3v15Z" class="g0_226"/>
<path fill-rule="evenodd" d="M444.3,221.7H683.8V206.6H444.3v15.1Z" class="g0_226"/>
<path fill-rule="evenodd" d="M444.7,236.7H683.4v-15H444.7v15Z" class="g0_226"/>
<path fill-rule="evenodd" d="M444.7,251.7H683.4v-15H444.7v15Z" class="g0_226"/>
<path fill-rule="evenodd" d="M444.7,266.8H683.8V251.7H444.7v15.1Z" class="g0_226"/>
<path fill-rule="evenodd" d="M444.7,281.8H683.8v-15H444.7v15Z" class="g0_226"/>
<path fill-rule="evenodd" d="M444.7,296.8H683.8v-15H444.7v15Z" class="g0_226"/>
<path fill-rule="evenodd" d="M444.7,311.9H683.8V296.8H444.7v15.1Z" class="g0_226"/>
<path fill-rule="evenodd" d="M444.7,326.9H683.8v-15H444.7v15Z" class="g0_226"/>
<path fill-rule="evenodd" d="M443.9,341.9H683.1v-15H443.9v15Z" class="g0_226"/>
<path fill-rule="evenodd" d="M443.9,357.2H683.1V342H443.9v15.2Z" class="g0_226"/>
<path fill-rule="evenodd" d="M443.9,372.2H683.1v-15H443.9v15Z" class="g0_226"/>
<path fill-rule="evenodd" d="M443.9,387.3H683.1V372.2H443.9v15.1Z" class="g0_226"/>
<path fill-rule="evenodd" d="M443.9,402.3H683.1v-15H443.9v15Z" class="g0_226"/>
<path fill-rule="evenodd" d="M443.9,417.3H683.1v-15H443.9v15Z" class="g0_226"/>
<path fill-rule="evenodd" d="M443.9,432.4H683.1V417.3H443.9v15.1Z" class="g0_226"/>
<path fill-rule="evenodd" d="M443.9,447.4H683.1v-15H443.9v15Z" class="g0_226"/>
<path fill-rule="evenodd" d="M443.9,462.4H683.1v-15H443.9v15Z" class="g0_226"/>
<path fill-rule="evenodd" d="M443.9,477.5H682.7V462.4H443.9v15.1Z" class="g0_226"/>
<path fill-rule="evenodd" d="M443.9,492.5H682.7v-15H443.9v15Z" class="g0_226"/>
<path fill-rule="evenodd" d="M443.9,507.5H682.7v-15H443.9v15Z" class="g0_226"/>
<path fill-rule="evenodd" d="M443.9,522.6H682.7V507.5H443.9v15.1Z" class="g0_226"/>
<path fill-rule="evenodd" d="M443.9,537.8H682.7V522.6H443.9v15.2Z" class="g0_226"/>
<path fill-rule="evenodd" d="M443.9,552.8H682.7v-15H443.9v15Z" class="g0_226"/>
<path fill-rule="evenodd" d="M443.9,567.9H682.7V552.8H443.9v15.1Z" class="g0_226"/>
<path fill-rule="evenodd" d="M443.9,582.9H682.7v-15H443.9v15Z" class="g0_226"/>
<path fill-rule="evenodd" d="M443.2,598H682.7V582.9H443.2V598Z" class="g0_226"/>
<path fill-rule="evenodd" d="M443.2,613H682.7V598H443.2v15Z" class="g0_226"/>
<path fill-rule="evenodd" d="M443.2,628H682.7V613H443.2v15Z" class="g0_226"/>
<path fill-rule="evenodd" d="M443.2,643.1H682.7V628H443.2v15.1Z" class="g0_226"/>
<path fill-rule="evenodd" d="M443.2,658.1H682.7v-15H443.2v15Z" class="g0_226"/>
<path fill-rule="evenodd" d="M443.2,673.1H682.7v-15H443.2v15Z" class="g0_226"/>
<path fill-rule="evenodd" d="M443.2,688.2H682V673.1H443.2v15.1Z" class="g0_226"/>
<path fill-rule="evenodd" d="M443.2,703.2H682v-15H443.2v15Z" class="g0_226"/>
<path fill-rule="evenodd" d="M443.2,718.4H682V703.2H443.2v15.2Z" class="g0_226"/>
<path fill-rule="evenodd" d="M443.2,733.4H682v-15H443.2v15Z" class="g0_226"/>
<path fill-rule="evenodd" d="M443.2,748.5H682V733.4H443.2v15.1Z" class="g0_226"/>
<path fill-rule="evenodd" d="M443.2,763.5H682.3v-15H443.2v15Z" class="g0_226"/>
<path fill-rule="evenodd" d="M443.2,778.5H682.3v-15H443.2v15Z" class="g0_226"/>
<path fill-rule="evenodd" d="M443.2,793.6H682.3V778.5H443.2v15.1Z" class="g0_226"/>
<path fill-rule="evenodd" d="M443.2,808.6H682.3v-15H443.2v15Z" class="g0_226"/>
<path fill-rule="evenodd" d="M443.2,823.6H682v-15H443.2v15Z" class="g0_226"/>
<path fill-rule="evenodd" d="M443.2,838.7H682V823.6H443.2v15.1Z" class="g0_226"/>
<path fill-rule="evenodd" d="M443.2,853.8H682V838.7H443.2v15.1Z" class="g0_226"/>
<path fill-rule="evenodd" d="M443.2,868.8H682v-15H443.2v15Z" class="g0_226"/>
<path d="M432.5,146.4V915.3" class="g1_226"/>
</svg>