<?xml version="1.0" encoding="UTF-8" standalone="no"?>
<!DOCTYPE svg PUBLIC "-//W3C//DTD SVG 1.1//EN"
"http://www.w3.org/Graphics/SVG/1.1/DTD/svg11.dtd">
<svg viewBox="0 0 909 1285" version="1.1" xmlns="http://www.w3.org/2000/svg" xmlns:xlink="http://www.w3.org/1999/xlink">
<defs>
<style type="text/css"><![CDATA[
.g0_102{
fill: #FFFFFF;
}
.g1_102{
fill: none;
stroke: #000000;
stroke-width: 0.381;
stroke-linecap: butt;
stroke-linejoin: round;
}
]]></style>
</defs>
<path fill-rule="evenodd" d="M620.5,125.8h63.8V110H620.5v15.8Z" class="g0_102"/>
<path fill-rule="evenodd" d="M183.7,161.7H422.5v-15H183.7v15Z" class="g0_102"/>
<path fill-rule="evenodd" d="M183.7,176.9H422.5V161.7H183.7v15.2Z" class="g0_102"/>
<path fill-rule="evenodd" d="M182.3,192H422.8V176.9H182.3V192Z" class="g0_102"/>
<path fill-rule="evenodd" d="M182.3,207H422.8V192H182.3v15Z" class="g0_102"/>
<path fill-rule="evenodd" d="M182.3,222H422.8V207H182.3v15Z" class="g0_102"/>
<path fill-rule="evenodd" d="M182.3,237.1H422.8V222H182.3v15.1Z" class="g0_102"/>
<path fill-rule="evenodd" d="M182.3,252.1H422.8v-15H182.3v15Z" class="g0_102"/>
<path fill-rule="evenodd" d="M182.3,267.1H422.8v-15H182.3v15Z" class="g0_102"/>
<path fill-rule="evenodd" d="M182.3,282.2H422.8V267.1H182.3v15.1Z" class="g0_102"/>
<path fill-rule="evenodd" d="M182.3,297.2H422.8v-15H182.3v15Z" class="g0_102"/>
<path fill-rule="evenodd" d="M182.3,312.2H422.8v-15H182.3v15Z" class="g0_102"/>
<path fill-rule="evenodd" d="M182.3,327.3H422.8V312.2H182.3v15.1Z" class="g0_102"/>
<path fill-rule="evenodd" d="M182.3,342.5H422.8V327.3H182.3v15.2Z" class="g0_102"/>
<path fill-rule="evenodd" d="M182.3,357.6H422.8V342.5H182.3v15.1Z" class="g0_102"/>
<path fill-rule="evenodd" d="M182.3,372.6H422.8v-15H182.3v15Z" class="g0_102"/>
<path fill-rule="evenodd" d="M182.3,387.6H422.8v-15H182.3v15Z" class="g0_102"/>
<path fill-rule="evenodd" d="M182.3,402.7H422.8V387.6H182.3v15.1Z" class="g0_102"/>
<path fill-rule="evenodd" d="M182.3,417.7H422.8v-15H182.3v15Z" class="g0_102"/>
<path fill-rule="evenodd" d="M182.3,432.7H422.8v-15H182.3v15Z" class="g0_102"/>
<path fill-rule="evenodd" d="M182.3,447.8H422.8V432.7H182.3v15.1Z" class="g0_102"/>
<path fill-rule="evenodd" d="M182.3,462.8H422.8v-15H182.3v15Z" class="g0_102"/>
<path fill-rule="evenodd" d="M182.3,477.8H422.8v-15H182.3v15Z" class="g0_102"/>
<path fill-rule="evenodd" d="M182.3,492.9H422.8V477.8H182.3v15.1Z" class="g0_102"/>
<path fill-rule="evenodd" d="M182.3,507.9H422.8v-15H182.3v15Z" class="g0_102"/>
<path fill-rule="evenodd" d="M182.3,523.1H422.1V507.9H182.3v15.2Z" class="g0_102"/>
<path fill-rule="evenodd" d="M182.3,538.2H422.1V523.1H182.3v15.1Z" class="g0_102"/>
<path fill-rule="evenodd" d="M182.3,553.2H422.1v-15H182.3v15Z" class="g0_102"/>
<path fill-rule="evenodd" d="M200.6,568.2H422.8v-15H200.6v15Z" class="g0_102"/>
<path fill-rule="evenodd" d="M181.5,583.3H421.7V568.2H181.5v15.1Z" class="g0_102"/>
<path fill-rule="evenodd" d="M181.5,598.3H421.7v-15H181.5v15Z" class="g0_102"/>
<path fill-rule="evenodd" d="M181.5,613.4H421.7V598.3H181.5v15.1Z" class="g0_102"/>
<path fill-rule="evenodd" d="M181.5,628.4H421.7v-15H181.5v15Z" class="g0_102"/>
<path fill-rule="evenodd" d="M181.5,643.4H421.7v-15H181.5v15Z" class="g0_102"/>
<path fill-rule="evenodd" d="M181.5,658.5H421.7V643.4H181.5v15.1Z" class="g0_102"/>
<path fill-rule="evenodd" d="M181.9,673.5H420.6v-15H181.9v15Z" class="g0_102"/>
<path fill-rule="evenodd" d="M181.9,688.5H420.6v-15H181.9v15Z" class="g0_102"/>
<path fill-rule="evenodd" d="M181.9,703.7H421.4V688.5H181.9v15.2Z" class="g0_102"/>
<path fill-rule="evenodd" d="M181.9,718.8H421.4V703.7H181.9v15.1Z" class="g0_102"/>
<path fill-rule="evenodd" d="M181.9,733.8H421.4v-15H181.9v15Z" class="g0_102"/>
<path fill-rule="evenodd" d="M181.9,748.8H421.4v-15H181.9v15Z" class="g0_102"/>
<path fill-rule="evenodd" d="M181.9,763.9H421.4V748.8H181.9v15.1Z" class="g0_102"/>
<path fill-rule="evenodd" d="M181.2,778.9H421.4v-15H181.2v15Z" class="g0_102"/>
<path fill-rule="evenodd" d="M181.2,793.9H421.4v-15H181.2v15Z" class="g0_102"/>
<path fill-rule="evenodd" d="M181.2,809H421.4V793.9H181.2V809Z" class="g0_102"/>
<path fill-rule="evenodd" d="M181.2,824H421.4V809H181.2v15Z" class="g0_102"/>
<path fill-rule="evenodd" d="M181.2,839.1H421.4V824H181.2v15.1Z" class="g0_102"/>
<path fill-rule="evenodd" d="M181.2,854.1H421.4v-15H181.2v15Z" class="g0_102"/>
<path fill-rule="evenodd" d="M181.5,869.2H420.6V854.1H181.5v15.1Z" class="g0_102"/>
<path fill-rule="evenodd" d="M181.5,884.4H420.6V869.2H181.5v15.2Z" class="g0_102"/>
<path fill-rule="evenodd" d="M181.5,899.4H420.6v-15H181.5v15Z" class="g0_102"/>
<path fill-rule="evenodd" d="M183,914.1H422.5V899.4H183v14.7Z" class="g0_102"/>
<path fill-rule="evenodd" d="M443,161.4H683.3V146.7H443v14.7Z" class="g0_102"/>
<path fill-rule="evenodd" d="M443,176H683.3V161.4H443V176Z" class="g0_102"/>
<path fill-rule="evenodd" d="M443,190.7H683.3V176H443v14.7Z" class="g0_102"/>
<path fill-rule="evenodd" d="M443,205.4H683.3V190.7H443v14.7Z" class="g0_102"/>
<path fill-rule="evenodd" d="M443,220H683.3V205.4H443V220Z" class="g0_102"/>
<path fill-rule="evenodd" d="M443,234.7H683.6V220H443v14.7Z" class="g0_102"/>
<path fill-rule="evenodd" d="M443,249.4H683.6V234.7H443v14.7Z" class="g0_102"/>
<path fill-rule="evenodd" d="M443,264H683.6V249.4H443V264Z" class="g0_102"/>
<path fill-rule="evenodd" d="M443.4,279.1H683.3V264.4H443.4v14.7Z" class="g0_102"/>
<path fill-rule="evenodd" d="M443.4,293.9H683.3V279.1H443.4v14.8Z" class="g0_102"/>
<path fill-rule="evenodd" d="M443,308.9H682.9V294.3H443v14.6Z" class="g0_102"/>
<path fill-rule="evenodd" d="M443,323.6H682.9V308.9H443v14.7Z" class="g0_102"/>
<path fill-rule="evenodd" d="M443,338.6H682.9v-15H443v15Z" class="g0_102"/>
<path fill-rule="evenodd" d="M443,353.4H682.9V338.7H443v14.7Z" class="g0_102"/>
<path fill-rule="evenodd" d="M442.6,368.4H682.5V353.7H442.6v14.7Z" class="g0_102"/>
<path fill-rule="evenodd" d="M442.6,383.1H682.5V368.4H442.6v14.7Z" class="g0_102"/>
<path fill-rule="evenodd" d="M442.6,397.7H682.5V383.1H442.6v14.6Z" class="g0_102"/>
<path fill-rule="evenodd" d="M442.6,412.4H682.5V397.7H442.6v14.7Z" class="g0_102"/>
<path fill-rule="evenodd" d="M442.6,427.1H682.2V412.4H442.6v14.7Z" class="g0_102"/>
<path fill-rule="evenodd" d="M442.6,441.7H682.2V427.1H442.6v14.6Z" class="g0_102"/>
<path fill-rule="evenodd" d="M442.6,456.4H682.2V441.7H442.6v14.7Z" class="g0_102"/>
<path fill-rule="evenodd" d="M442.3,471.4H682.5V456.8H442.3v14.6Z" class="g0_102"/>
<path fill-rule="evenodd" d="M442.3,486.1H682.5V471.4H442.3v14.7Z" class="g0_102"/>
<path fill-rule="evenodd" d="M442.3,500.8H682.5V486.1H442.3v14.7Z" class="g0_102"/>
<path fill-rule="evenodd" d="M442.3,515.4H682.2V500.8H442.3v14.6Z" class="g0_102"/>
<path fill-rule="evenodd" d="M442.3,530.1H682.2V515.4H442.3v14.7Z" class="g0_102"/>
<path fill-rule="evenodd" d="M442.3,544.8H682.2V530.1H442.3v14.7Z" class="g0_102"/>
<path fill-rule="evenodd" d="M442.3,559.4H682.2V544.8H442.3v14.6Z" class="g0_102"/>
<path fill-rule="evenodd" d="M441.5,574.1h241V559.4h-241v14.7Z" class="g0_102"/>
<path fill-rule="evenodd" d="M441.5,588.8h241V574.1h-241v14.7Z" class="g0_102"/>
<path fill-rule="evenodd" d="M441.5,603.5h241V588.8h-241v14.7Z" class="g0_102"/>
<path fill-rule="evenodd" d="M441.5,618.1h241V603.5h-241v14.6Z" class="g0_102"/>
<path fill-rule="evenodd" d="M441.5,632.8h241V618.1h-241v14.7Z" class="g0_102"/>
<path fill-rule="evenodd" d="M441.5,647.5h241V632.8h-241v14.7Z" class="g0_102"/>
<path fill-rule="evenodd" d="M441.5,662.1h241V647.5h-241v14.6Z" class="g0_102"/>
<path fill-rule="evenodd" d="M441.5,676.8h241V662.1h-241v14.7Z" class="g0_102"/>
<path fill-rule="evenodd" d="M441.5,691.8H681.4V677.2H441.5v14.6Z" class="g0_102"/>
<path fill-rule="evenodd" d="M441.5,706.5H681.4V691.8H441.5v14.7Z" class="g0_102"/>
<path fill-rule="evenodd" d="M441.2,721.2H681.8V706.5H441.2v14.7Z" class="g0_102"/>
<path fill-rule="evenodd" d="M441.2,735.8H681.8V721.2H441.2v14.6Z" class="g0_102"/>
<path fill-rule="evenodd" d="M441.2,750.5H681.8V735.8H441.2v14.7Z" class="g0_102"/>
<path fill-rule="evenodd" d="M441.2,765.2H681.8V750.5H441.2v14.7Z" class="g0_102"/>
<path fill-rule="evenodd" d="M441.2,779.8H681.8V765.2H441.2v14.6Z" class="g0_102"/>
<path fill-rule="evenodd" d="M441.2,794.5H681.8V779.8H441.2v14.7Z" class="g0_102"/>
<path fill-rule="evenodd" d="M441.2,809.2H681.8V794.5H441.2v14.7Z" class="g0_102"/>
<path fill-rule="evenodd" d="M441.2,823.8H681.8V809.2H441.2v14.6Z" class="g0_102"/>
<path fill-rule="evenodd" d="M441.2,838.5H681.8V823.8H441.2v14.7Z" class="g0_102"/>
<path fill-rule="evenodd" d="M441.2,853.2H681.8V838.5H441.2v14.7Z" class="g0_102"/>
<path fill-rule="evenodd" d="M441.5,868.2H681.1V853.6H441.5v14.6Z" class="g0_102"/>
<path fill-rule="evenodd" d="M441.5,882.9H681.1V868.2H441.5v14.7Z" class="g0_102"/>
<path fill-rule="evenodd" d="M441.5,897.6H681.1V882.9H441.5v14.7Z" class="g0_102"/>
<path fill-rule="evenodd" d="M418.8,931.5H684.4V914.1H418.8v17.4Z" class="g0_102"/>
<path d="M430.5,146.4V914.9" class="g1_102"/>
</svg>