<?xml version="1.0" encoding="UTF-8" standalone="no"?>
<!DOCTYPE svg PUBLIC "-//W3C//DTD SVG 1.1//EN"
"http://www.w3.org/Graphics/SVG/1.1/DTD/svg11.dtd">
<svg viewBox="0 0 909 1285" version="1.1" xmlns="http://www.w3.org/2000/svg" xmlns:xlink="http://www.w3.org/1999/xlink">
<defs>
<style type="text/css"><![CDATA[
.g0_87{
fill: #FFFFFF;
}
.g1_87{
fill: none;
stroke: #000000;
stroke-width: 0.381;
stroke-linecap: butt;
stroke-linejoin: round;
}
.g2_87{
fill: none;
stroke: #000000;
stroke-width: 0.763;
stroke-linecap: butt;
stroke-linejoin: round;
}
]]></style>
</defs>
<path fill-rule="evenodd" d="M268.7,125.8H767V110H268.7v15.8Z" class="g0_87"/>
<path fill-rule="evenodd" d="M268.3,161.4H507.8V146.3H268.3v15.1Z" class="g0_87"/>
<path fill-rule="evenodd" d="M268.3,176.4H507.8v-15H268.3v15Z" class="g0_87"/>
<path fill-rule="evenodd" d="M268.3,191.6H507.8V176.4H268.3v15.2Z" class="g0_87"/>
<path fill-rule="evenodd" d="M267.9,206.6H507.4v-15H267.9v15Z" class="g0_87"/>
<path fill-rule="evenodd" d="M267.9,221.7H507.4V206.6H267.9v15.1Z" class="g0_87"/>
<path fill-rule="evenodd" d="M267.9,236.7H507.4v-15H267.9v15Z" class="g0_87"/>
<path fill-rule="evenodd" d="M287,251.7H524.6v-15H287v15Z" class="g0_87"/>
<path fill-rule="evenodd" d="M267.9,266.8H507.4V251.7H267.9v15.1Z" class="g0_87"/>
<path fill-rule="evenodd" d="M267.9,281.8H507.4v-15H267.9v15Z" class="g0_87"/>
<path fill-rule="evenodd" d="M267.9,296.8H507.4v-15H267.9v15Z" class="g0_87"/>
<path fill-rule="evenodd" d="M267.6,311.9H506.7V296.8H267.6v15.1Z" class="g0_87"/>
<path fill-rule="evenodd" d="M267.6,326.9H506.7v-15H267.6v15Z" class="g0_87"/>
<path fill-rule="evenodd" d="M268.3,341.9H507.4v-15H268.3v15Z" class="g0_87"/>
<path fill-rule="evenodd" d="M268.3,357.2H507.4V342H268.3v15.2Z" class="g0_87"/>
<path fill-rule="evenodd" d="M267.9,372.2H506.7v-15H267.9v15Z" class="g0_87"/>
<path fill-rule="evenodd" d="M267.9,387.3H506.7V372.2H267.9v15.1Z" class="g0_87"/>
<path fill-rule="evenodd" d="M286.6,402.3h238v-15h-238v15Z" class="g0_87"/>
<path fill-rule="evenodd" d="M267.9,417.3H507v-15H267.9v15Z" class="g0_87"/>
<path fill-rule="evenodd" d="M267.9,432.4H507V417.3H267.9v15.1Z" class="g0_87"/>
<path fill-rule="evenodd" d="M267.9,447.4H507v-15H267.9v15Z" class="g0_87"/>
<path fill-rule="evenodd" d="M285.5,462.4H524.6v-15H285.5v15Z" class="g0_87"/>
<path fill-rule="evenodd" d="M267.6,477.5H507V462.4H267.6v15.1Z" class="g0_87"/>
<path fill-rule="evenodd" d="M267.6,492.5H507v-15H267.6v15Z" class="g0_87"/>
<path fill-rule="evenodd" d="M267.6,507.5H506.3v-15H267.6v15Z" class="g0_87"/>
<path fill-rule="evenodd" d="M267.6,522.6H506.3V507.5H267.6v15.1Z" class="g0_87"/>
<path fill-rule="evenodd" d="M268.3,537.8h238V522.6h-238v15.2Z" class="g0_87"/>
<path fill-rule="evenodd" d="M268.3,552.8h238v-15h-238v15Z" class="g0_87"/>
<path fill-rule="evenodd" d="M285.9,567.9H524.6V552.8H285.9v15.1Z" class="g0_87"/>
<path fill-rule="evenodd" d="M267.1,583.3H505.9V568.2H267.1v15.1Z" class="g0_87"/>
<path fill-rule="evenodd" d="M267.1,598.3H505.9v-15H267.1v15Z" class="g0_87"/>
<path fill-rule="evenodd" d="M285.5,613.4H524.6V598.3H285.5v15.1Z" class="g0_87"/>
<path fill-rule="evenodd" d="M285.9,628.4H524.6v-15H285.9v15Z" class="g0_87"/>
<path fill-rule="evenodd" d="M285.2,643.4H524.6v-15H285.2v15Z" class="g0_87"/>
<path fill-rule="evenodd" d="M266.8,658.5H505.9V643.4H266.8v15.1Z" class="g0_87"/>
<path fill-rule="evenodd" d="M266.8,673.5H505.9v-15H266.8v15Z" class="g0_87"/>
<path fill-rule="evenodd" d="M266.8,688.5H505.9v-15H266.8v15Z" class="g0_87"/>
<path fill-rule="evenodd" d="M267.1,703.7H505.6V688.5H267.1v15.2Z" class="g0_87"/>
<path fill-rule="evenodd" d="M267.1,718.8H505.6V703.7H267.1v15.1Z" class="g0_87"/>
<path fill-rule="evenodd" d="M266.4,733.8H505.6v-15H266.4v15Z" class="g0_87"/>
<path fill-rule="evenodd" d="M266.4,748.8H505.6v-15H266.4v15Z" class="g0_87"/>
<path fill-rule="evenodd" d="M266.4,763.9H505.6V748.8H266.4v15.1Z" class="g0_87"/>
<path fill-rule="evenodd" d="M267.1,778.9H504.8v-15H267.1v15Z" class="g0_87"/>
<path fill-rule="evenodd" d="M267.1,793.9H504.8v-15H267.1v15Z" class="g0_87"/>
<path fill-rule="evenodd" d="M266,809H505.6V793.9H266V809Z" class="g0_87"/>
<path fill-rule="evenodd" d="M266,824H505.6V809H266v15Z" class="g0_87"/>
<path fill-rule="evenodd" d="M266.8,839.1h238V824h-238v15.1Z" class="g0_87"/>
<path fill-rule="evenodd" d="M266.8,854.1h238v-15h-238v15Z" class="g0_87"/>
<path fill-rule="evenodd" d="M266.4,869.2H505.6V854.1H266.4v15.1Z" class="g0_87"/>
<path fill-rule="evenodd" d="M266.4,884.4H505.6V869.2H266.4v15.2Z" class="g0_87"/>
<path fill-rule="evenodd" d="M266.4,899.4H505.6v-15H266.4v15Z" class="g0_87"/>
<path fill-rule="evenodd" d="M266,927.5H524.6V910H266v17.5Z" class="g0_87"/>
<path fill-rule="evenodd" d="M268.3,942.5H524.6v-15H268.3v15Z" class="g0_87"/>
<path fill-rule="evenodd" d="M527.9,161.4H767V146.3H527.9v15.1Z" class="g0_87"/>
<path fill-rule="evenodd" d="M527.9,176.4H767v-15H527.9v15Z" class="g0_87"/>
<path fill-rule="evenodd" d="M527.9,191.6H767V176.4H527.9v15.2Z" class="g0_87"/>
<path fill-rule="evenodd" d="M546.3,206.6H767v-15H546.3v15Z" class="g0_87"/>
<path fill-rule="evenodd" d="M527.9,221.7H767V206.6H527.9v15.1Z" class="g0_87"/>
<path fill-rule="evenodd" d="M527.9,236.7H767v-15H527.9v15Z" class="g0_87"/>
<path fill-rule="evenodd" d="M527.9,251.7H767v-15H527.9v15Z" class="g0_87"/>
<path fill-rule="evenodd" d="M527.2,266.8H767V251.7H527.2v15.1Z" class="g0_87"/>
<path fill-rule="evenodd" d="M527.2,281.8H767v-15H527.2v15Z" class="g0_87"/>
<path fill-rule="evenodd" d="M527.9,296.8H766.7v-15H527.9v15Z" class="g0_87"/>
<path fill-rule="evenodd" d="M527.9,311.9H766.7V296.8H527.9v15.1Z" class="g0_87"/>
<path fill-rule="evenodd" d="M545.9,326.9H767v-15H545.9v15Z" class="g0_87"/>
<path fill-rule="evenodd" d="M527.9,341.9H766.7v-15H527.9v15Z" class="g0_87"/>
<path fill-rule="evenodd" d="M527.9,357.2H766.7V342H527.9v15.2Z" class="g0_87"/>
<path fill-rule="evenodd" d="M527.6,372.2h238v-15h-238v15Z" class="g0_87"/>
<path fill-rule="evenodd" d="M527.6,387.3h238V372.2h-238v15.1Z" class="g0_87"/>
<path fill-rule="evenodd" d="M527.6,402.3H766.3v-15H527.6v15Z" class="g0_87"/>
<path fill-rule="evenodd" d="M527.6,417.3H766.3v-15H527.6v15Z" class="g0_87"/>
<path fill-rule="evenodd" d="M526.8,432.4H766.3V417.3H526.8v15.1Z" class="g0_87"/>
<path fill-rule="evenodd" d="M526.8,447.4H766.3v-15H526.8v15Z" class="g0_87"/>
<path fill-rule="evenodd" d="M526.8,462.4H766.3v-15H526.8v15Z" class="g0_87"/>
<path fill-rule="evenodd" d="M526.8,477.5H765.9V462.4H526.8v15.1Z" class="g0_87"/>
<path fill-rule="evenodd" d="M526.8,492.5H765.9v-15H526.8v15Z" class="g0_87"/>
<path fill-rule="evenodd" d="M526.8,507.5H765.9v-15H526.8v15Z" class="g0_87"/>
<path fill-rule="evenodd" d="M526.8,522.6H765.9V507.5H526.8v15.1Z" class="g0_87"/>
<path fill-rule="evenodd" d="M526.8,537.8H765.9V522.6H526.8v15.2Z" class="g0_87"/>
<path fill-rule="evenodd" d="M526.8,552.8H765.9v-15H526.8v15Z" class="g0_87"/>
<path fill-rule="evenodd" d="M526.8,567.9H765.9V552.8H526.8v15.1Z" class="g0_87"/>
<path fill-rule="evenodd" d="M526.8,582.9H765.9v-15H526.8v15Z" class="g0_87"/>
<path fill-rule="evenodd" d="M527.2,598.3H765.6v-15H527.2v15Z" class="g0_87"/>
<path fill-rule="evenodd" d="M527.2,613.4H765.6V598.3H527.2v15.1Z" class="g0_87"/>
<path fill-rule="evenodd" d="M527.2,628.4H765.6v-15H527.2v15Z" class="g0_87"/>
<path fill-rule="evenodd" d="M526.5,643.8H764.8v-15H526.5v15Z" class="g0_87"/>
<path fill-rule="evenodd" d="M526.5,658.8H764.8v-15H526.5v15Z" class="g0_87"/>
<path fill-rule="evenodd" d="M526.5,673.9H764.8V658.8H526.5v15.1Z" class="g0_87"/>
<path fill-rule="evenodd" d="M526.5,689.1h238V673.9h-238v15.2Z" class="g0_87"/>
<path fill-rule="evenodd" d="M526.5,704.1h238v-15h-238v15Z" class="g0_87"/>
<path fill-rule="evenodd" d="M526.1,719.5H765.2v-15H526.1v15Z" class="g0_87"/>
<path fill-rule="evenodd" d="M526.1,734.5H765.2v-15H526.1v15Z" class="g0_87"/>
<path fill-rule="evenodd" d="M526.1,749.6H765.2V734.5H526.1v15.1Z" class="g0_87"/>
<path fill-rule="evenodd" d="M544.4,764.6H767v-15H544.4v15Z" class="g0_87"/>
<path fill-rule="evenodd" d="M544.1,779.6H767v-15H544.1v15Z" class="g0_87"/>
<path fill-rule="evenodd" d="M526.5,794.7H764.8V779.6H526.5v15.1Z" class="g0_87"/>
<path fill-rule="evenodd" d="M526.5,809.7H764.8v-15H526.5v15Z" class="g0_87"/>
<path fill-rule="evenodd" d="M544.1,824.7H767v-15H544.1v15Z" class="g0_87"/>
<path fill-rule="evenodd" d="M526.1,839.8H764.5V824.7H526.1v15.1Z" class="g0_87"/>
<path fill-rule="evenodd" d="M526.1,855H764.5V839.8H526.1V855Z" class="g0_87"/>
<path fill-rule="evenodd" d="M544.1,870.1H767V855H544.1v15.1Z" class="g0_87"/>
<path fill-rule="evenodd" d="M525.7,885.1H764.8v-15H525.7v15Z" class="g0_87"/>
<path fill-rule="evenodd" d="M525.7,900.1H764.8v-15H525.7v15Z" class="g0_87"/>
<path d="M192.7,73V189.2" class="g1_87"/>
<path d="M195.9,164.7V215" class="g2_87"/>
<path d="M196.3,624.5V838.6M202.2,501V679.6M204,351.3V587.8" class="g1_87"/>
</svg>