<?xml version="1.0" encoding="UTF-8" standalone="no"?>
<!DOCTYPE svg PUBLIC "-//W3C//DTD SVG 1.1//EN"
"http://www.w3.org/Graphics/SVG/1.1/DTD/svg11.dtd">
<svg viewBox="0 0 909 1285" version="1.1" xmlns="http://www.w3.org/2000/svg" xmlns:xlink="http://www.w3.org/1999/xlink">
<defs>
<style type="text/css"><![CDATA[
.g0_229{
fill: #FFFFFF;
}
.g1_229{
fill: none;
stroke: #000000;
stroke-width: 2.902;
stroke-linecap: butt;
stroke-linejoin: round;
}
.g2_229{
fill: none;
stroke: #000000;
stroke-width: 0.381;
stroke-linecap: butt;
stroke-linejoin: round;
}
]]></style>
</defs>
<path fill-rule="evenodd" d="M266.4,125.8h497V110h-497v15.8Z" class="g0_229"/>
<path fill-rule="evenodd" d="M266,161.4H504.8V146.3H266v15.1Z" class="g0_229"/>
<path fill-rule="evenodd" d="M266,176.4H504.8v-15H266v15Z" class="g0_229"/>
<path fill-rule="evenodd" d="M266,191.6H504.8V176.4H266v15.2Z" class="g0_229"/>
<path fill-rule="evenodd" d="M266,206.6H504.5v-15H266v15Z" class="g0_229"/>
<path fill-rule="evenodd" d="M266,221.7H504.5V206.6H266v15.1Z" class="g0_229"/>
<path fill-rule="evenodd" d="M266,236.7H504.5v-15H266v15Z" class="g0_229"/>
<path fill-rule="evenodd" d="M266,251.7H504.5v-15H266v15Z" class="g0_229"/>
<path fill-rule="evenodd" d="M266,266.8H504.1V251.7H266v15.1Z" class="g0_229"/>
<path fill-rule="evenodd" d="M266,281.8H504.1v-15H266v15Z" class="g0_229"/>
<path fill-rule="evenodd" d="M265.7,296.8H504.5v-15H265.7v15Z" class="g0_229"/>
<path fill-rule="evenodd" d="M265.7,311.9H504.5V296.8H265.7v15.1Z" class="g0_229"/>
<path fill-rule="evenodd" d="M265.7,326.9H504.5v-15H265.7v15Z" class="g0_229"/>
<path fill-rule="evenodd" d="M265.7,341.9H504.5v-15H265.7v15Z" class="g0_229"/>
<path fill-rule="evenodd" d="M265.7,357.2H504.5V342H265.7v15.2Z" class="g0_229"/>
<path fill-rule="evenodd" d="M264.9,372.2H504.1v-15H264.9v15Z" class="g0_229"/>
<path fill-rule="evenodd" d="M264.9,387.3H504.1V372.2H264.9v15.1Z" class="g0_229"/>
<path fill-rule="evenodd" d="M264.9,402.3H504.1v-15H264.9v15Z" class="g0_229"/>
<path fill-rule="evenodd" d="M264.9,417.3H504.1v-15H264.9v15Z" class="g0_229"/>
<path fill-rule="evenodd" d="M264.9,432.4H504.1V417.3H264.9v15.1Z" class="g0_229"/>
<path fill-rule="evenodd" d="M264.9,447.4H504.1v-15H264.9v15Z" class="g0_229"/>
<path fill-rule="evenodd" d="M264.9,462.4H504.1v-15H264.9v15Z" class="g0_229"/>
<path fill-rule="evenodd" d="M264.9,477.5H504.1V462.4H264.9v15.1Z" class="g0_229"/>
<path fill-rule="evenodd" d="M264.9,492.5H504.1v-15H264.9v15Z" class="g0_229"/>
<path fill-rule="evenodd" d="M283.7,507.5H504.8v-15H283.7v15Z" class="g0_229"/>
<path fill-rule="evenodd" d="M264.6,522.6H503.4V507.5H264.6v15.1Z" class="g0_229"/>
<path fill-rule="evenodd" d="M264.6,537.8H503.4V522.6H264.6v15.2Z" class="g0_229"/>
<path fill-rule="evenodd" d="M264.6,552.8H503.4v-15H264.6v15Z" class="g0_229"/>
<path fill-rule="evenodd" d="M264.9,567.9H503.7V552.8H264.9v15.1Z" class="g0_229"/>
<path fill-rule="evenodd" d="M264.9,582.9H503.7v-15H264.9v15Z" class="g0_229"/>
<path fill-rule="evenodd" d="M264.9,598H503.7V582.9H264.9V598Z" class="g0_229"/>
<path fill-rule="evenodd" d="M264.9,613H503.7V598H264.9v15Z" class="g0_229"/>
<path fill-rule="evenodd" d="M264.9,628H503.7V613H264.9v15Z" class="g0_229"/>
<path fill-rule="evenodd" d="M264.9,643.1H503.7V628H264.9v15.1Z" class="g0_229"/>
<path fill-rule="evenodd" d="M264.2,658.1H503.4v-15H264.2v15Z" class="g0_229"/>
<path fill-rule="evenodd" d="M264.2,673.1H503.4v-15H264.2v15Z" class="g0_229"/>
<path fill-rule="evenodd" d="M264.2,688.2H503.4V673.1H264.2v15.1Z" class="g0_229"/>
<path fill-rule="evenodd" d="M264.2,703.2H503.4v-15H264.2v15Z" class="g0_229"/>
<path fill-rule="evenodd" d="M264.2,718.4H503.4V703.2H264.2v15.2Z" class="g0_229"/>
<path fill-rule="evenodd" d="M264.2,733.4H503.4v-15H264.2v15Z" class="g0_229"/>
<path fill-rule="evenodd" d="M264.2,748.5H503.4V733.4H264.2v15.1Z" class="g0_229"/>
<path fill-rule="evenodd" d="M263.8,763.5H503.4v-15H263.8v15Z" class="g0_229"/>
<path fill-rule="evenodd" d="M263.8,778.5H503.4v-15H263.8v15Z" class="g0_229"/>
<path fill-rule="evenodd" d="M263.8,793.6H503.4V778.5H263.8v15.1Z" class="g0_229"/>
<path fill-rule="evenodd" d="M263.8,808.6H503.4v-15H263.8v15Z" class="g0_229"/>
<path fill-rule="evenodd" d="M263.8,823.6H503.4v-15H263.8v15Z" class="g0_229"/>
<path fill-rule="evenodd" d="M263.8,838.7H503.4V823.6H263.8v15.1Z" class="g0_229"/>
<path fill-rule="evenodd" d="M264.9,853.8H502.6V838.7H264.9v15.1Z" class="g0_229"/>
<path fill-rule="evenodd" d="M264.9,868.8H502.6v-15H264.9v15Z" class="g0_229"/>
<path fill-rule="evenodd" d="M264.2,883.8H502.6v-15H264.2v15Z" class="g0_229"/>
<path fill-rule="evenodd" d="M264.2,899H502.6V883.8H264.2V899Z" class="g0_229"/>
<path fill-rule="evenodd" d="M265.7,914.1H504.8V899H265.7v15.1Z" class="g0_229"/>
<path fill-rule="evenodd" d="M524.6,161.4H763.4V146.3H524.6v15.1Z" class="g0_229"/>
<path fill-rule="evenodd" d="M524.6,176.4H763.4v-15H524.6v15Z" class="g0_229"/>
<path fill-rule="evenodd" d="M524.6,191.6H763.4V176.4H524.6v15.2Z" class="g0_229"/>
<path fill-rule="evenodd" d="M524.6,206.6H763.4v-15H524.6v15Z" class="g0_229"/>
<path fill-rule="evenodd" d="M524.6,221.7H763.4V206.6H524.6v15.1Z" class="g0_229"/>
<path fill-rule="evenodd" d="M524.6,236.7H763.4v-15H524.6v15Z" class="g0_229"/>
<path fill-rule="evenodd" d="M524.6,251.7H763.4v-15H524.6v15Z" class="g0_229"/>
<path fill-rule="evenodd" d="M524.6,266.8H763.4V251.7H524.6v15.1Z" class="g0_229"/>
<path fill-rule="evenodd" d="M524.6,281.8H763.4v-15H524.6v15Z" class="g0_229"/>
<path fill-rule="evenodd" d="M525,296.8H762.6v-15H525v15Z" class="g0_229"/>
<path fill-rule="evenodd" d="M525,311.9H762.6V296.8H525v15.1Z" class="g0_229"/>
<path fill-rule="evenodd" d="M524.6,326.9H763v-15H524.6v15Z" class="g0_229"/>
<path fill-rule="evenodd" d="M524.6,341.9H763v-15H524.6v15Z" class="g0_229"/>
<path fill-rule="evenodd" d="M525,357.2H763.4V342H525v15.2Z" class="g0_229"/>
<path fill-rule="evenodd" d="M525,372.2H763.4v-15H525v15Z" class="g0_229"/>
<path fill-rule="evenodd" d="M524.3,387.3H763V372.2H524.3v15.1Z" class="g0_229"/>
<path fill-rule="evenodd" d="M524.3,402.3H763v-15H524.3v15Z" class="g0_229"/>
<path fill-rule="evenodd" d="M542.6,417.3H763.4v-15H542.6v15Z" class="g0_229"/>
<path fill-rule="evenodd" d="M523.9,432.4H763V417.3H523.9v15.1Z" class="g0_229"/>
<path fill-rule="evenodd" d="M523.9,447.4H763v-15H523.9v15Z" class="g0_229"/>
<path fill-rule="evenodd" d="M523.9,462.4H763v-15H523.9v15Z" class="g0_229"/>
<path fill-rule="evenodd" d="M523.9,477.5H763V462.4H523.9v15.1Z" class="g0_229"/>
<path fill-rule="evenodd" d="M523.5,492.5H763v-15H523.5v15Z" class="g0_229"/>
<path fill-rule="evenodd" d="M523.5,507.5H763v-15H523.5v15Z" class="g0_229"/>
<path fill-rule="evenodd" d="M523.5,522.6H763V507.5H523.5v15.1Z" class="g0_229"/>
<path fill-rule="evenodd" d="M523.5,537.8H763V522.6H523.5v15.2Z" class="g0_229"/>
<path fill-rule="evenodd" d="M523.5,552.8H763v-15H523.5v15Z" class="g0_229"/>
<path fill-rule="evenodd" d="M523.5,567.9H763V552.8H523.5v15.1Z" class="g0_229"/>
<path fill-rule="evenodd" d="M523.5,582.9H763v-15H523.5v15Z" class="g0_229"/>
<path fill-rule="evenodd" d="M523.5,598H763V582.9H523.5V598Z" class="g0_229"/>
<path fill-rule="evenodd" d="M523.5,613H763V598H523.5v15Z" class="g0_229"/>
<path fill-rule="evenodd" d="M523.5,628H763V613H523.5v15Z" class="g0_229"/>
<path fill-rule="evenodd" d="M523.5,643.1H763V628H523.5v15.1Z" class="g0_229"/>
<path fill-rule="evenodd" d="M522.8,658.1H762.3v-15H522.8v15Z" class="g0_229"/>
<path fill-rule="evenodd" d="M522.8,673.1H762.3v-15H522.8v15Z" class="g0_229"/>
<path fill-rule="evenodd" d="M522.8,688.2H762.3V673.1H522.8v15.1Z" class="g0_229"/>
<path fill-rule="evenodd" d="M522.8,703.2H762.3v-15H522.8v15Z" class="g0_229"/>
<path fill-rule="evenodd" d="M522.8,718.4H762.3V703.2H522.8v15.2Z" class="g0_229"/>
<path fill-rule="evenodd" d="M522.8,733.4H762.3v-15H522.8v15Z" class="g0_229"/>
<path fill-rule="evenodd" d="M522.8,748.5H762.3V733.4H522.8v15.1Z" class="g0_229"/>
<path fill-rule="evenodd" d="M522.8,763.5H762.3v-15H522.8v15Z" class="g0_229"/>
<path fill-rule="evenodd" d="M523.2,778.5H761.5v-15H523.2v15Z" class="g0_229"/>
<path fill-rule="evenodd" d="M523.2,793.6H761.5V778.5H523.2v15.1Z" class="g0_229"/>
<path fill-rule="evenodd" d="M541.5,808.6H763.4v-15H541.5v15Z" class="g0_229"/>
<path fill-rule="evenodd" d="M522.8,823.6H761.9v-15H522.8v15Z" class="g0_229"/>
<path fill-rule="evenodd" d="M522.8,838.7H761.9V823.6H522.8v15.1Z" class="g0_229"/>
<path fill-rule="evenodd" d="M522.8,853.8H761.9V838.7H522.8v15.1Z" class="g0_229"/>
<path fill-rule="evenodd" d="M522.8,868.8H761.9v-15H522.8v15Z" class="g0_229"/>
<path fill-rule="evenodd" d="M499,930.6H763.4V914.8H499v15.8Z" class="g0_229"/>
<path d="M193.1,898v84.7" class="g1_229"/>
<path d="M512.8,147.4V916" class="g2_229"/>
</svg>