<?xml version="1.0" encoding="UTF-8" standalone="no"?>
<!DOCTYPE svg PUBLIC "-//W3C//DTD SVG 1.1//EN"
"http://www.w3.org/Graphics/SVG/1.1/DTD/svg11.dtd">
<svg viewBox="0 0 909 1285" version="1.1" xmlns="http://www.w3.org/2000/svg" xmlns:xlink="http://www.w3.org/1999/xlink">
<defs>
<style type="text/css"><![CDATA[
.g0_97{
fill: #FFFFFF;
}
.g1_97{
fill: none;
stroke: #000000;
stroke-width: 0.381;
stroke-linecap: butt;
stroke-linejoin: round;
}
]]></style>
</defs>
<path fill-rule="evenodd" d="M270.3,127.6h501V110h-501v17.6Z" class="g0_97"/>
<path fill-rule="evenodd" d="M270.3,162.8H509.8v-15H270.3v15Z" class="g0_97"/>
<path fill-rule="evenodd" d="M270.3,177.9H509.8V162.8H270.3v15.1Z" class="g0_97"/>
<path fill-rule="evenodd" d="M270.3,192.9H510.1v-15H270.3v15Z" class="g0_97"/>
<path fill-rule="evenodd" d="M270.3,207.9H510.1v-15H270.3v15Z" class="g0_97"/>
<path fill-rule="evenodd" d="M269.9,223H510.1V207.9H269.9V223Z" class="g0_97"/>
<path fill-rule="evenodd" d="M269.9,238H510.1V223H269.9v15Z" class="g0_97"/>
<path fill-rule="evenodd" d="M289,253H510.5V238H289v15Z" class="g0_97"/>
<path fill-rule="evenodd" d="M269.9,268.1H510.1V253H269.9v15.1Z" class="g0_97"/>
<path fill-rule="evenodd" d="M269.9,283.3H510.1V268.1H269.9v15.2Z" class="g0_97"/>
<path fill-rule="evenodd" d="M269.9,298.3H510.1v-15H269.9v15Z" class="g0_97"/>
<path fill-rule="evenodd" d="M269.9,313.3H510.1v-15H269.9v15Z" class="g0_97"/>
<path fill-rule="evenodd" d="M270.7,328.4H509.4V313.3H270.7v15.1Z" class="g0_97"/>
<path fill-rule="evenodd" d="M270.7,343.4H509.4v-15H270.7v15Z" class="g0_97"/>
<path fill-rule="evenodd" d="M269.9,358.5H509.8V343.4H269.9v15.1Z" class="g0_97"/>
<path fill-rule="evenodd" d="M269.9,373.5H509.8v-15H269.9v15Z" class="g0_97"/>
<path fill-rule="evenodd" d="M270.3,388.6H510.1V373.5H270.3v15.1Z" class="g0_97"/>
<path fill-rule="evenodd" d="M270.3,403.6H510.1v-15H270.3v15Z" class="g0_97"/>
<path fill-rule="evenodd" d="M270.3,418.6H510.1v-15H270.3v15Z" class="g0_97"/>
<path fill-rule="evenodd" d="M269.9,433.7H510.5V418.6H269.9v15.1Z" class="g0_97"/>
<path fill-rule="evenodd" d="M269.9,448.9H510.5V433.7H269.9v15.2Z" class="g0_97"/>
<path fill-rule="evenodd" d="M269.9,463.9H510.5v-15H269.9v15Z" class="g0_97"/>
<path fill-rule="evenodd" d="M269.9,478.9H510.5v-15H269.9v15Z" class="g0_97"/>
<path fill-rule="evenodd" d="M269.9,494H509.8V478.9H269.9V494Z" class="g0_97"/>
<path fill-rule="evenodd" d="M269.9,509H509.8V494H269.9v15Z" class="g0_97"/>
<path fill-rule="evenodd" d="M269.9,524H509.8V509H269.9v15Z" class="g0_97"/>
<path fill-rule="evenodd" d="M269.9,539.1H509.8V524H269.9v15.1Z" class="g0_97"/>
<path fill-rule="evenodd" d="M269.9,554.1H509.4v-15H269.9v15Z" class="g0_97"/>
<path fill-rule="evenodd" d="M269.9,569.1H509.4v-15H269.9v15Z" class="g0_97"/>
<path fill-rule="evenodd" d="M269.9,584.2H509.4V569.1H269.9v15.1Z" class="g0_97"/>
<path fill-rule="evenodd" d="M288.3,599.2H510.5v-15H288.3v15Z" class="g0_97"/>
<path fill-rule="evenodd" d="M288.3,614.3H510.5V599.2H288.3v15.1Z" class="g0_97"/>
<path fill-rule="evenodd" d="M288.6,629.5H510.5V614.3H288.6v15.2Z" class="g0_97"/>
<path fill-rule="evenodd" d="M270.3,644.5H509.8v-15H270.3v15Z" class="g0_97"/>
<path fill-rule="evenodd" d="M270.3,659.6H509.8V644.5H270.3v15.1Z" class="g0_97"/>
<path fill-rule="evenodd" d="M269.9,674.6H510.1v-15H269.9v15Z" class="g0_97"/>
<path fill-rule="evenodd" d="M269.9,689.6H510.1v-15H269.9v15Z" class="g0_97"/>
<path fill-rule="evenodd" d="M269.9,704.7H510.1V689.6H269.9v15.1Z" class="g0_97"/>
<path fill-rule="evenodd" d="M269.6,719.7H510.1v-15H269.6v15Z" class="g0_97"/>
<path fill-rule="evenodd" d="M269.6,734.7H510.1v-15H269.6v15Z" class="g0_97"/>
<path fill-rule="evenodd" d="M269.6,749.8H510.1V734.7H269.6v15.1Z" class="g0_97"/>
<path fill-rule="evenodd" d="M269.6,764.8H510.1v-15H269.6v15Z" class="g0_97"/>
<path fill-rule="evenodd" d="M269.6,779.8H510.1v-15H269.6v15Z" class="g0_97"/>
<path fill-rule="evenodd" d="M269.6,794.9H510.1V779.8H269.6v15.1Z" class="g0_97"/>
<path fill-rule="evenodd" d="M269.6,810.1H510.1V794.9H269.6v15.2Z" class="g0_97"/>
<path fill-rule="evenodd" d="M269.6,825.1H510.1v-15H269.6v15Z" class="g0_97"/>
<path fill-rule="evenodd" d="M269.6,840.2H510.1V825.1H269.6v15.1Z" class="g0_97"/>
<path fill-rule="evenodd" d="M269.6,855.2H510.1v-15H269.6v15Z" class="g0_97"/>
<path fill-rule="evenodd" d="M269.2,870.3H509.8V855.2H269.2v15.1Z" class="g0_97"/>
<path fill-rule="evenodd" d="M269.2,885.3H509.8v-15H269.2v15Z" class="g0_97"/>
<path fill-rule="evenodd" d="M269.2,900.3H509.8v-15H269.2v15Z" class="g0_97"/>
<path fill-rule="evenodd" d="M270.3,915.4H509V900.3H270.3v15.1Z" class="g0_97"/>
<path fill-rule="evenodd" d="M531,162.5H769.8V147.4H531v15.1Z" class="g0_97"/>
<path fill-rule="evenodd" d="M531,177.5H769.8v-15H531v15Z" class="g0_97"/>
<path fill-rule="evenodd" d="M530.7,192.5H770.5v-15H530.7v15Z" class="g0_97"/>
<path fill-rule="evenodd" d="M530.7,207.6H770.5V192.5H530.7v15.1Z" class="g0_97"/>
<path fill-rule="evenodd" d="M530.7,222.6H770.9v-15H530.7v15Z" class="g0_97"/>
<path fill-rule="evenodd" d="M530.7,237.6H770.9v-15H530.7v15Z" class="g0_97"/>
<path fill-rule="evenodd" d="M530.7,252.7H770.9V237.6H530.7v15.1Z" class="g0_97"/>
<path fill-rule="evenodd" d="M529.9,267.7H771.2v-15H529.9v15Z" class="g0_97"/>
<path fill-rule="evenodd" d="M529.9,282.7H771.2v-15H529.9v15Z" class="g0_97"/>
<path fill-rule="evenodd" d="M529.9,297.9H771.2V282.7H529.9v15.2Z" class="g0_97"/>
<path fill-rule="evenodd" d="M529.9,313H771.2V297.9H529.9V313Z" class="g0_97"/>
<path fill-rule="evenodd" d="M529.9,328H771.2V313H529.9v15Z" class="g0_97"/>
<path fill-rule="evenodd" d="M529.9,343H771.2V328H529.9v15Z" class="g0_97"/>
<path fill-rule="evenodd" d="M529.9,358.1H771.2v-15H529.9v15Z" class="g0_97"/>
<path fill-rule="evenodd" d="M529.9,373.2H771.2V358.1H529.9v15.1Z" class="g0_97"/>
<path fill-rule="evenodd" d="M529.9,388.2H771.2v-15H529.9v15Z" class="g0_97"/>
<path fill-rule="evenodd" d="M529.9,403.2H771.2v-15H529.9v15Z" class="g0_97"/>
<path fill-rule="evenodd" d="M530.7,418.3H770.5V403.2H530.7v15.1Z" class="g0_97"/>
<path fill-rule="evenodd" d="M530.7,433.3H770.5v-15H530.7v15Z" class="g0_97"/>
<path fill-rule="evenodd" d="M530.7,448.3H770.5v-15H530.7v15Z" class="g0_97"/>
<path fill-rule="evenodd" d="M530.7,463.5H770.5V448.3H530.7v15.2Z" class="g0_97"/>
<path fill-rule="evenodd" d="M530.7,478.6H770.1V463.5H530.7v15.1Z" class="g0_97"/>
<path fill-rule="evenodd" d="M530.7,493.6H770.1v-15H530.7v15Z" class="g0_97"/>
<path fill-rule="evenodd" d="M530.7,508.6H770.1v-15H530.7v15Z" class="g0_97"/>
<path fill-rule="evenodd" d="M530.3,523.7H770.1V508.6H530.3v15.1Z" class="g0_97"/>
<path fill-rule="evenodd" d="M530.3,538.7H770.1v-15H530.3v15Z" class="g0_97"/>
<path fill-rule="evenodd" d="M530.3,553.7H770.1v-15H530.3v15Z" class="g0_97"/>
<path fill-rule="evenodd" d="M530.3,568.8H770.1V553.7H530.3v15.1Z" class="g0_97"/>
<path fill-rule="evenodd" d="M530.3,583.8H770.1v-15H530.3v15Z" class="g0_97"/>
<path fill-rule="evenodd" d="M530.3,598.9H770.5V583.8H530.3v15.1Z" class="g0_97"/>
<path fill-rule="evenodd" d="M530.3,613.9H770.5v-15H530.3v15Z" class="g0_97"/>
<path fill-rule="evenodd" d="M530.3,628.9H770.5v-15H530.3v15Z" class="g0_97"/>
<path fill-rule="evenodd" d="M530.3,644.2H770.5V628.9H530.3v15.3Z" class="g0_97"/>
<path fill-rule="evenodd" d="M530.3,659.2H770.5v-15H530.3v15Z" class="g0_97"/>
<path fill-rule="evenodd" d="M530.3,674.2H770.5v-15H530.3v15Z" class="g0_97"/>
<path fill-rule="evenodd" d="M530.3,689.3H770.5V674.2H530.3v15.1Z" class="g0_97"/>
<path fill-rule="evenodd" d="M529.9,704.3h241v-15h-241v15Z" class="g0_97"/>
<path fill-rule="evenodd" d="M529.9,719.3h241v-15h-241v15Z" class="g0_97"/>
<path fill-rule="evenodd" d="M529.9,734.4h241V719.3h-241v15.1Z" class="g0_97"/>
<path fill-rule="evenodd" d="M530.3,749.4H770.5v-15H530.3v15Z" class="g0_97"/>
<path fill-rule="evenodd" d="M530.3,764.4H770.5v-15H530.3v15Z" class="g0_97"/>
<path fill-rule="evenodd" d="M530.3,779.5H770.5V764.4H530.3v15.1Z" class="g0_97"/>
<path fill-rule="evenodd" d="M530.7,794.5H770.1v-15H530.7v15Z" class="g0_97"/>
<path fill-rule="evenodd" d="M530.7,809.5H770.1v-15H530.7v15Z" class="g0_97"/>
<path fill-rule="evenodd" d="M529.9,824.7H770.1V809.5H529.9v15.2Z" class="g0_97"/>
<path fill-rule="evenodd" d="M529.9,839.8H770.1V824.7H529.9v15.1Z" class="g0_97"/>
<path fill-rule="evenodd" d="M529.9,854.9H770.1V839.8H529.9v15.1Z" class="g0_97"/>
<path fill-rule="evenodd" d="M530.7,869.9H770.5v-15H530.7v15Z" class="g0_97"/>
<path fill-rule="evenodd" d="M530.7,884.9H770.5v-15H530.7v15Z" class="g0_97"/>
<path fill-rule="evenodd" d="M530.7,900H770.5V884.9H530.7V900Z" class="g0_97"/>
<path d="M192.9,86.9v92.5m1.4,-92.9v80.3M205,86.5V993.7M206.4,86.5V994.8M195.1,197.2v82.5m1.1,-89.8v47.7m0,163.5v58.7m1.4,-60.9V500.5m322,-352.4V916.7" class="g1_97"/>
</svg>