<?xml version="1.0" encoding="UTF-8" standalone="no"?>
<!DOCTYPE svg PUBLIC "-//W3C//DTD SVG 1.1//EN"
"http://www.w3.org/Graphics/SVG/1.1/DTD/svg11.dtd">
<svg viewBox="0 0 909 1285" version="1.1" xmlns="http://www.w3.org/2000/svg" xmlns:xlink="http://www.w3.org/1999/xlink">
<defs>
<style type="text/css"><![CDATA[
.g0_109{
fill: #FFFFFF;
}
.g1_109{
fill: none;
stroke: #000000;
stroke-width: 0.381;
stroke-linecap: butt;
stroke-linejoin: round;
}
]]></style>
</defs>
<path fill-rule="evenodd" d="M270.3,127.6H770.5V110H270.3v17.6Z" class="g0_109"/>
<path fill-rule="evenodd" d="M270.3,162.5H510.1V147.8H270.3v14.7Z" class="g0_109"/>
<path fill-rule="evenodd" d="M270.3,177.1H510.1V162.5H270.3v14.6Z" class="g0_109"/>
<path fill-rule="evenodd" d="M269.6,192.2H510.1V177.5H269.6v14.7Z" class="g0_109"/>
<path fill-rule="evenodd" d="M269.6,206.8H510.1V192.2H269.6v14.6Z" class="g0_109"/>
<path fill-rule="evenodd" d="M269.6,221.5H510.1V206.8H269.6v14.7Z" class="g0_109"/>
<path fill-rule="evenodd" d="M269.6,236.2H510.1V221.5H269.6v14.7Z" class="g0_109"/>
<path fill-rule="evenodd" d="M269.9,250.8H510.1V236.2H269.9v14.6Z" class="g0_109"/>
<path fill-rule="evenodd" d="M269.9,265.5H510.1V250.8H269.9v14.7Z" class="g0_109"/>
<path fill-rule="evenodd" d="M269.9,280.2H510.1V265.5H269.9v14.7Z" class="g0_109"/>
<path fill-rule="evenodd" d="M288.6,294.8H510.1V280.2H288.6v14.6Z" class="g0_109"/>
<path fill-rule="evenodd" d="M269.6,309.5H509.4V294.8H269.6v14.7Z" class="g0_109"/>
<path fill-rule="evenodd" d="M269.6,324.2H509.4V309.5H269.6v14.7Z" class="g0_109"/>
<path fill-rule="evenodd" d="M269.6,338.8H509.4V324.2H269.6v14.6Z" class="g0_109"/>
<path fill-rule="evenodd" d="M269.2,353.5H509.4V338.8H269.2v14.7Z" class="g0_109"/>
<path fill-rule="evenodd" d="M269.2,368.2H509.4V353.5H269.2v14.7Z" class="g0_109"/>
<path fill-rule="evenodd" d="M269.2,382.9H509.4V368.2H269.2v14.7Z" class="g0_109"/>
<path fill-rule="evenodd" d="M269.2,397.5H509.8V382.9H269.2v14.6Z" class="g0_109"/>
<path fill-rule="evenodd" d="M269.2,412.2H509.8V397.5H269.2v14.7Z" class="g0_109"/>
<path fill-rule="evenodd" d="M269.2,426.9H509.8V412.2H269.2v14.7Z" class="g0_109"/>
<path fill-rule="evenodd" d="M269.2,441.5H509.8V426.9H269.2v14.6Z" class="g0_109"/>
<path fill-rule="evenodd" d="M269.2,456.2H509.8V441.5H269.2v14.7Z" class="g0_109"/>
<path fill-rule="evenodd" d="M269.6,470.9H509V456.2H269.6v14.7Z" class="g0_109"/>
<path fill-rule="evenodd" d="M269.6,485.5H509V470.9H269.6v14.6Z" class="g0_109"/>
<path fill-rule="evenodd" d="M269.2,500.6H509.4V485.9H269.2v14.7Z" class="g0_109"/>
<path fill-rule="evenodd" d="M269.2,515.2H509.4V500.6H269.2v14.6Z" class="g0_109"/>
<path fill-rule="evenodd" d="M269.2,529.9H509.4V515.2H269.2v14.7Z" class="g0_109"/>
<path fill-rule="evenodd" d="M268.8,544.9H509V530.3H268.8v14.6Z" class="g0_109"/>
<path fill-rule="evenodd" d="M268.8,559.6H509V544.9H268.8v14.7Z" class="g0_109"/>
<path fill-rule="evenodd" d="M268.8,574.3H509V559.6H268.8v14.7Z" class="g0_109"/>
<path fill-rule="evenodd" d="M268.5,588.9H509V574.3H268.5v14.6Z" class="g0_109"/>
<path fill-rule="evenodd" d="M268.5,603.6H509V588.9H268.5v14.7Z" class="g0_109"/>
<path fill-rule="evenodd" d="M268.5,618.3H509V603.6H268.5v14.7Z" class="g0_109"/>
<path fill-rule="evenodd" d="M268.5,633H509V618.3H268.5V633Z" class="g0_109"/>
<path fill-rule="evenodd" d="M267.4,648H508.7V633.3H267.4V648Z" class="g0_109"/>
<path fill-rule="evenodd" d="M267.4,662.7H508.7V648H267.4v14.7Z" class="g0_109"/>
<path fill-rule="evenodd" d="M267.4,677.3H508.7V662.7H267.4v14.6Z" class="g0_109"/>
<path fill-rule="evenodd" d="M267.4,692H508.7V677.3H267.4V692Z" class="g0_109"/>
<path fill-rule="evenodd" d="M267.4,706.7H508.7V692H267.4v14.7Z" class="g0_109"/>
<path fill-rule="evenodd" d="M267.4,721.3H508.7V706.7H267.4v14.6Z" class="g0_109"/>
<path fill-rule="evenodd" d="M268.5,736H508.7V721.3H268.5V736Z" class="g0_109"/>
<path fill-rule="evenodd" d="M268.5,750.7H508.7V736H268.5v14.7Z" class="g0_109"/>
<path fill-rule="evenodd" d="M268.5,765.3H508.7V750.7H268.5v14.6Z" class="g0_109"/>
<path fill-rule="evenodd" d="M268.5,780H508.7V765.3H268.5V780Z" class="g0_109"/>
<path fill-rule="evenodd" d="M268.5,794.7H508.7V780H268.5v14.7Z" class="g0_109"/>
<path fill-rule="evenodd" d="M268.5,809.3H508.7V794.7H268.5v14.6Z" class="g0_109"/>
<path fill-rule="evenodd" d="M268.5,824H508.7V809.3H268.5V824Z" class="g0_109"/>
<path fill-rule="evenodd" d="M268.8,839.1H507.9V824.4H268.8v14.7Z" class="g0_109"/>
<path fill-rule="evenodd" d="M268.8,853.8H507.9V839.1H268.8v14.7Z" class="g0_109"/>
<path fill-rule="evenodd" d="M268.1,868.4H508.3V853.8H268.1v14.6Z" class="g0_109"/>
<path fill-rule="evenodd" d="M268.1,883.1H508.3V868.4H268.1v14.7Z" class="g0_109"/>
<path fill-rule="evenodd" d="M268.1,897.8H508.3V883.1H268.1v14.7Z" class="g0_109"/>
<path fill-rule="evenodd" d="M269.2,912.8H510.1v-15H269.2v15Z" class="g0_109"/>
<path fill-rule="evenodd" d="M530.3,161.4H770.5V146.3H530.3v15.1Z" class="g0_109"/>
<path fill-rule="evenodd" d="M530.3,176.4H770.5v-15H530.3v15Z" class="g0_109"/>
<path fill-rule="evenodd" d="M530.3,191.4H770.5v-15H530.3v15Z" class="g0_109"/>
<path fill-rule="evenodd" d="M530.3,206.5H770.5V191.4H530.3v15.1Z" class="g0_109"/>
<path fill-rule="evenodd" d="M530.3,221.5H770.5v-15H530.3v15Z" class="g0_109"/>
<path fill-rule="evenodd" d="M529.9,236.5H770.1v-15H529.9v15Z" class="g0_109"/>
<path fill-rule="evenodd" d="M529.9,251.6H770.1V236.5H529.9v15.1Z" class="g0_109"/>
<path fill-rule="evenodd" d="M529.9,266.8H770.1V251.6H529.9v15.2Z" class="g0_109"/>
<path fill-rule="evenodd" d="M529.9,281.8H770.1v-15H529.9v15Z" class="g0_109"/>
<path fill-rule="evenodd" d="M530.3,296.8H769.8v-15H530.3v15Z" class="g0_109"/>
<path fill-rule="evenodd" d="M530.3,311.9H769.8V296.8H530.3v15.1Z" class="g0_109"/>
<path fill-rule="evenodd" d="M529.9,326.9H769.4v-15H529.9v15Z" class="g0_109"/>
<path fill-rule="evenodd" d="M529.9,341.9H769.4v-15H529.9v15Z" class="g0_109"/>
<path fill-rule="evenodd" d="M529.2,357H769.8V342H529.2v15Z" class="g0_109"/>
<path fill-rule="evenodd" d="M529.2,372.1H769.8V357H529.2v15.1Z" class="g0_109"/>
<path fill-rule="evenodd" d="M529.2,387.1H769.8v-15H529.2v15Z" class="g0_109"/>
<path fill-rule="evenodd" d="M529.2,402.1H769.8v-15H529.2v15Z" class="g0_109"/>
<path fill-rule="evenodd" d="M529.2,417.2H769.8V402.1H529.2v15.1Z" class="g0_109"/>
<path fill-rule="evenodd" d="M529.2,432.4H769.8V417.2H529.2v15.2Z" class="g0_109"/>
<path fill-rule="evenodd" d="M529.2,447.4H769.8v-15H529.2v15Z" class="g0_109"/>
<path fill-rule="evenodd" d="M529.2,462.4H769.8v-15H529.2v15Z" class="g0_109"/>
<path fill-rule="evenodd" d="M529.2,477.5H769.8V462.4H529.2v15.1Z" class="g0_109"/>
<path fill-rule="evenodd" d="M529.2,492.5H769.8v-15H529.2v15Z" class="g0_109"/>
<path fill-rule="evenodd" d="M529.6,507.5H769v-15H529.6v15Z" class="g0_109"/>
<path fill-rule="evenodd" d="M529.6,522.6H769V507.5H529.6v15.1Z" class="g0_109"/>
<path fill-rule="evenodd" d="M529.6,537.6H769v-15H529.6v15Z" class="g0_109"/>
<path fill-rule="evenodd" d="M529.2,553H768.7V538H529.2v15Z" class="g0_109"/>
<path fill-rule="evenodd" d="M529.2,568H768.7V553H529.2v15Z" class="g0_109"/>
<path fill-rule="evenodd" d="M529.2,583.1H768.7V568H529.2v15.1Z" class="g0_109"/>
<path fill-rule="evenodd" d="M529.6,598.3H768.7V583.1H529.6v15.2Z" class="g0_109"/>
<path fill-rule="evenodd" d="M529.6,613.4H768.7V598.3H529.6v15.1Z" class="g0_109"/>
<path fill-rule="evenodd" d="M528.8,628.4H768.7v-15H528.8v15Z" class="g0_109"/>
<path fill-rule="evenodd" d="M528.8,643.4H768.7v-15H528.8v15Z" class="g0_109"/>
<path fill-rule="evenodd" d="M528.8,658.5H768.7V643.4H528.8v15.1Z" class="g0_109"/>
<path fill-rule="evenodd" d="M528.8,673.5H769v-15H528.8v15Z" class="g0_109"/>
<path fill-rule="evenodd" d="M528.8,688.5H769v-15H528.8v15Z" class="g0_109"/>
<path fill-rule="evenodd" d="M528.8,703.6H769V688.5H528.8v15.1Z" class="g0_109"/>
<path fill-rule="evenodd" d="M528.8,718.6H768.7v-15H528.8v15Z" class="g0_109"/>
<path fill-rule="evenodd" d="M528.8,733.6H768.7v-15H528.8v15Z" class="g0_109"/>
<path fill-rule="evenodd" d="M528.8,748.7H768.7V733.6H528.8v15.1Z" class="g0_109"/>
<path fill-rule="evenodd" d="M528.8,763.7H768.7v-15H528.8v15Z" class="g0_109"/>
<path fill-rule="evenodd" d="M528.8,778.9H768.7V763.7H528.8v15.2Z" class="g0_109"/>
<path fill-rule="evenodd" d="M528.8,793.9H768.7v-15H528.8v15Z" class="g0_109"/>
<path fill-rule="evenodd" d="M547.5,809h223V793.9h-223V809Z" class="g0_109"/>
<path fill-rule="evenodd" d="M529.2,824H768.7V809H529.2v15Z" class="g0_109"/>
<path fill-rule="evenodd" d="M529.2,839.1H768.7V824H529.2v15.1Z" class="g0_109"/>
<path fill-rule="evenodd" d="M528.5,854.1H769v-15H528.5v15Z" class="g0_109"/>
<path fill-rule="evenodd" d="M528.5,869.2H769V854.1H528.5v15.1Z" class="g0_109"/>
<path fill-rule="evenodd" d="M528.5,884.2H769v-15H528.5v15Z" class="g0_109"/>
<path fill-rule="evenodd" d="M528.5,899.2H769v-15H528.5v15Z" class="g0_109"/>
<path fill-rule="evenodd" d="M506.5,930.8h264V913.2h-264v17.6Z" class="g0_109"/>
<path d="M518.5,147.4V916.3" class="g1_109"/>
</svg>