<?xml version="1.0" encoding="UTF-8" standalone="no"?>
<!DOCTYPE svg PUBLIC "-//W3C//DTD SVG 1.1//EN"
"http://www.w3.org/Graphics/SVG/1.1/DTD/svg11.dtd">
<svg viewBox="0 0 909 1285" version="1.1" xmlns="http://www.w3.org/2000/svg" xmlns:xlink="http://www.w3.org/1999/xlink">
<defs>
<style type="text/css"><![CDATA[
.g0_248{
fill: #FFFFFF;
}
.g1_248{
fill: none;
stroke: #000000;
stroke-width: 5.881;
stroke-linecap: butt;
stroke-linejoin: round;
}
.g2_248{
fill: none;
stroke: #000000;
stroke-width: 0.763;
stroke-linecap: butt;
stroke-linejoin: round;
}
.g3_248{
fill: none;
stroke: #000000;
stroke-width: 0.381;
stroke-linecap: butt;
stroke-linejoin: round;
}
]]></style>
</defs>
<path fill-rule="evenodd" d="M264.9,125.8H762.3V110H264.9v15.8Z" class="g0_248"/>
<path fill-rule="evenodd" d="M264.6,161.7H503v-15H264.6v15Z" class="g0_248"/>
<path fill-rule="evenodd" d="M264.6,176.9H503V161.7H264.6v15.2Z" class="g0_248"/>
<path fill-rule="evenodd" d="M263.8,192H503V176.9H263.8V192Z" class="g0_248"/>
<path fill-rule="evenodd" d="M263.8,207H503V192H263.8v15Z" class="g0_248"/>
<path fill-rule="evenodd" d="M263.8,222H503V207H263.8v15Z" class="g0_248"/>
<path fill-rule="evenodd" d="M263.8,237.1H503V222H263.8v15.1Z" class="g0_248"/>
<path fill-rule="evenodd" d="M263.8,252.1H503v-15H263.8v15Z" class="g0_248"/>
<path fill-rule="evenodd" d="M263.8,267.1H503v-15H263.8v15Z" class="g0_248"/>
<path fill-rule="evenodd" d="M263.8,282.2H503V267.1H263.8v15.1Z" class="g0_248"/>
<path fill-rule="evenodd" d="M263.8,297.2H503v-15H263.8v15Z" class="g0_248"/>
<path fill-rule="evenodd" d="M264.2,312.2H502.6v-15H264.2v15Z" class="g0_248"/>
<path fill-rule="evenodd" d="M264.2,327.3H502.6V312.2H264.2v15.1Z" class="g0_248"/>
<path fill-rule="evenodd" d="M264.2,342.5H503V327.3H264.2v15.2Z" class="g0_248"/>
<path fill-rule="evenodd" d="M264.2,357.6H503V342.5H264.2v15.1Z" class="g0_248"/>
<path fill-rule="evenodd" d="M263.5,372.6H502.6v-15H263.5v15Z" class="g0_248"/>
<path fill-rule="evenodd" d="M263.5,387.6H502.6v-15H263.5v15Z" class="g0_248"/>
<path fill-rule="evenodd" d="M263.5,402.7H502.6V387.6H263.5v15.1Z" class="g0_248"/>
<path fill-rule="evenodd" d="M263.8,417.7H502.3v-15H263.8v15Z" class="g0_248"/>
<path fill-rule="evenodd" d="M263.8,432.7H502.3v-15H263.8v15Z" class="g0_248"/>
<path fill-rule="evenodd" d="M263.8,447.8H502.3V432.7H263.8v15.1Z" class="g0_248"/>
<path fill-rule="evenodd" d="M263.8,462.8H502.3v-15H263.8v15Z" class="g0_248"/>
<path fill-rule="evenodd" d="M263.8,477.8H502.3v-15H263.8v15Z" class="g0_248"/>
<path fill-rule="evenodd" d="M263.8,492.9H502.3V477.8H263.8v15.1Z" class="g0_248"/>
<path fill-rule="evenodd" d="M263.8,507.9H502.3v-15H263.8v15Z" class="g0_248"/>
<path fill-rule="evenodd" d="M263.1,523.1H502.3V507.9H263.1v15.2Z" class="g0_248"/>
<path fill-rule="evenodd" d="M263.1,538.2H502.3V523.1H263.1v15.1Z" class="g0_248"/>
<path fill-rule="evenodd" d="M263.1,553.2H502.3v-15H263.1v15Z" class="g0_248"/>
<path fill-rule="evenodd" d="M263.1,568.2H502.3v-15H263.1v15Z" class="g0_248"/>
<path fill-rule="evenodd" d="M263.1,583.3H502.3V568.2H263.1v15.1Z" class="g0_248"/>
<path fill-rule="evenodd" d="M263.1,598.3H502.3v-15H263.1v15Z" class="g0_248"/>
<path fill-rule="evenodd" d="M263.1,613.4H502.3V598.3H263.1v15.1Z" class="g0_248"/>
<path fill-rule="evenodd" d="M263.1,628.4H501.5v-15H263.1v15Z" class="g0_248"/>
<path fill-rule="evenodd" d="M263.1,643.4H501.5v-15H263.1v15Z" class="g0_248"/>
<path fill-rule="evenodd" d="M263.1,658.5H501.5V643.4H263.1v15.1Z" class="g0_248"/>
<path fill-rule="evenodd" d="M263.1,673.9H501.5V658.5H263.1v15.4Z" class="g0_248"/>
<path fill-rule="evenodd" d="M263.1,689.1H501.5V673.9H263.1v15.2Z" class="g0_248"/>
<path fill-rule="evenodd" d="M263.1,704.1H501.2v-15H263.1v15Z" class="g0_248"/>
<path fill-rule="evenodd" d="M263.1,719.1H501.2v-15H263.1v15Z" class="g0_248"/>
<path fill-rule="evenodd" d="M263.1,734.2H501.2V719.1H263.1v15.1Z" class="g0_248"/>
<path fill-rule="evenodd" d="M262.4,749.2H501.2v-15H262.4v15Z" class="g0_248"/>
<path fill-rule="evenodd" d="M262.4,764.2H501.2v-15H262.4v15Z" class="g0_248"/>
<path fill-rule="evenodd" d="M262.4,779.3H501.2V764.2H262.4v15.1Z" class="g0_248"/>
<path fill-rule="evenodd" d="M262.4,794.3H501.2v-15H262.4v15Z" class="g0_248"/>
<path fill-rule="evenodd" d="M262.7,809.3H500.8v-15H262.7v15Z" class="g0_248"/>
<path fill-rule="evenodd" d="M262.7,824.4H500.8V809.3H262.7v15.1Z" class="g0_248"/>
<path fill-rule="evenodd" d="M262,839.5H501.2V824.4H262v15.1Z" class="g0_248"/>
<path fill-rule="evenodd" d="M262,854.5H501.2v-15H262v15Z" class="g0_248"/>
<path fill-rule="evenodd" d="M262,869.7H501.2V854.5H262v15.2Z" class="g0_248"/>
<path fill-rule="evenodd" d="M262,884.7H501.2v-15H262v15Z" class="g0_248"/>
<path fill-rule="evenodd" d="M262,899.8H501.2V884.7H262v15.1Z" class="g0_248"/>
<path fill-rule="evenodd" d="M264.6,914.8H503v-15H264.6v15Z" class="g0_248"/>
<path fill-rule="evenodd" d="M523.5,161.7H762.3v-15H523.5v15Z" class="g0_248"/>
<path fill-rule="evenodd" d="M523.5,176.9H762.3V161.7H523.5v15.2Z" class="g0_248"/>
<path fill-rule="evenodd" d="M523.5,192H762.3V176.9H523.5V192Z" class="g0_248"/>
<path fill-rule="evenodd" d="M522.8,207.4H761.9V192.3H522.8v15.1Z" class="g0_248"/>
<path fill-rule="evenodd" d="M522.8,222.4H761.9v-15H522.8v15Z" class="g0_248"/>
<path fill-rule="evenodd" d="M522.8,237.4H761.9v-15H522.8v15Z" class="g0_248"/>
<path fill-rule="evenodd" d="M522.8,252.5H761.9V237.4H522.8v15.1Z" class="g0_248"/>
<path fill-rule="evenodd" d="M522.8,267.5H761.9v-15H522.8v15Z" class="g0_248"/>
<path fill-rule="evenodd" d="M522.8,282.5H761.9v-15H522.8v15Z" class="g0_248"/>
<path fill-rule="evenodd" d="M522.8,297.6H761.9V282.5H522.8v15.1Z" class="g0_248"/>
<path fill-rule="evenodd" d="M522.8,312.6H761.9v-15H522.8v15Z" class="g0_248"/>
<path fill-rule="evenodd" d="M522.8,327.8H761.9V312.6H522.8v15.2Z" class="g0_248"/>
<path fill-rule="evenodd" d="M522.8,342.9H761.9V327.8H522.8v15.1Z" class="g0_248"/>
<path fill-rule="evenodd" d="M522.8,357.9H761.9v-15H522.8v15Z" class="g0_248"/>
<path fill-rule="evenodd" d="M522.8,373H761.9V357.9H522.8V373Z" class="g0_248"/>
<path fill-rule="evenodd" d="M522.8,388H761.9V373H522.8v15Z" class="g0_248"/>
<path fill-rule="evenodd" d="M522.8,403H761.9V388H522.8v15Z" class="g0_248"/>
<path fill-rule="evenodd" d="M522.4,418.1H761.2V403H522.4v15.1Z" class="g0_248"/>
<path fill-rule="evenodd" d="M522.4,433.1H761.2v-15H522.4v15Z" class="g0_248"/>
<path fill-rule="evenodd" d="M522.4,448.1H761.2v-15H522.4v15Z" class="g0_248"/>
<path fill-rule="evenodd" d="M522.4,463.2H761.2V448.1H522.4v15.1Z" class="g0_248"/>
<path fill-rule="evenodd" d="M522.4,478.2H760.8v-15H522.4v15Z" class="g0_248"/>
<path fill-rule="evenodd" d="M522.4,493.2H760.8v-15H522.4v15Z" class="g0_248"/>
<path fill-rule="evenodd" d="M522.4,508.5H760.8V493.2H522.4v15.3Z" class="g0_248"/>
<path fill-rule="evenodd" d="M521.3,523.9H760.8V508.8H521.3v15.1Z" class="g0_248"/>
<path fill-rule="evenodd" d="M521.3,538.9H760.8v-15H521.3v15Z" class="g0_248"/>
<path fill-rule="evenodd" d="M521,554.3H761.2v-15H521v15Z" class="g0_248"/>
<path fill-rule="evenodd" d="M521,569.3H761.2v-15H521v15Z" class="g0_248"/>
<path fill-rule="evenodd" d="M521,584.4H761.2V569.3H521v15.1Z" class="g0_248"/>
<path fill-rule="evenodd" d="M521,599.4H761.2v-15H521v15Z" class="g0_248"/>
<path fill-rule="evenodd" d="M521,614.5H761.2V599.4H521v15.1Z" class="g0_248"/>
<path fill-rule="evenodd" d="M521,629.5H761.2v-15H521v15Z" class="g0_248"/>
<path fill-rule="evenodd" d="M521,644.5H761.2v-15H521v15Z" class="g0_248"/>
<path fill-rule="evenodd" d="M521,659.7H761.2V644.5H521v15.2Z" class="g0_248"/>
<path fill-rule="evenodd" d="M521,674.8H761.2V659.7H521v15.1Z" class="g0_248"/>
<path fill-rule="evenodd" d="M521,689.8H761.2v-15H521v15Z" class="g0_248"/>
<path fill-rule="evenodd" d="M521,704.8H761.2v-15H521v15Z" class="g0_248"/>
<path fill-rule="evenodd" d="M521,719.9H761.2V704.8H521v15.1Z" class="g0_248"/>
<path fill-rule="evenodd" d="M521,734.9H761.2v-15H521v15Z" class="g0_248"/>
<path fill-rule="evenodd" d="M521,749.9H761.2v-15H521v15Z" class="g0_248"/>
<path fill-rule="evenodd" d="M521,765H761.2V749.9H521V765Z" class="g0_248"/>
<path fill-rule="evenodd" d="M521,780H761.2V765H521v15Z" class="g0_248"/>
<path fill-rule="evenodd" d="M521,795H761.2V780H521v15Z" class="g0_248"/>
<path fill-rule="evenodd" d="M521,810.1H761.2V795H521v15.1Z" class="g0_248"/>
<path fill-rule="evenodd" d="M521,825.1H761.2v-15H521v15Z" class="g0_248"/>
<path fill-rule="evenodd" d="M521,840.4H761.2V825.1H521v15.3Z" class="g0_248"/>
<path fill-rule="evenodd" d="M521,855.4H761.2v-15H521v15Z" class="g0_248"/>
<path fill-rule="evenodd" d="M521,870.4H761.2v-15H521v15Z" class="g0_248"/>
<path fill-rule="evenodd" d="M521,885.5H761.2V870.4H521v15.1Z" class="g0_248"/>
<path fill-rule="evenodd" d="M521,900.5H761.2v-15H521v15Z" class="g0_248"/>
<path fill-rule="evenodd" d="M497.1,932.4H762.3V914.8H497.1v17.6Z" class="g0_248"/>
<path d="M184.3,818.8V973.2" class="g1_248"/>
<path d="M203.3,743.6v258.2m1.9,-247.2V990.8" class="g2_248"/>
<path d="M511,147.5V916.1" class="g3_248"/>
</svg>