<?xml version="1.0" encoding="UTF-8" standalone="no"?>
<!DOCTYPE svg PUBLIC "-//W3C//DTD SVG 1.1//EN"
"http://www.w3.org/Graphics/SVG/1.1/DTD/svg11.dtd">
<svg viewBox="0 0 909 1285" version="1.1" xmlns="http://www.w3.org/2000/svg" xmlns:xlink="http://www.w3.org/1999/xlink">
<defs>
<style type="text/css"><![CDATA[
.g0_225{
fill: #FFFFFF;
}
.g1_225{
fill: none;
stroke: #000000;
stroke-width: 1.069;
stroke-linecap: butt;
stroke-linejoin: round;
}
.g2_225{
fill: none;
stroke: #000000;
stroke-width: 0.381;
stroke-linecap: butt;
stroke-linejoin: round;
}
]]></style>
</defs>
<path fill-rule="evenodd" d="M270.5,125.8H768.1V110H270.5v15.8Z" class="g0_225"/>
<path fill-rule="evenodd" d="M270.1,161.4H509.6V146.3H270.1v15.1Z" class="g0_225"/>
<path fill-rule="evenodd" d="M270.1,176.4H509.6v-15H270.1v15Z" class="g0_225"/>
<path fill-rule="evenodd" d="M270.1,191.6H509.6V176.4H270.1v15.2Z" class="g0_225"/>
<path fill-rule="evenodd" d="M270.1,206.6H509.6v-15H270.1v15Z" class="g0_225"/>
<path fill-rule="evenodd" d="M270.1,221.7H509.2V206.6H270.1v15.1Z" class="g0_225"/>
<path fill-rule="evenodd" d="M270.1,236.7H509.2v-15H270.1v15Z" class="g0_225"/>
<path fill-rule="evenodd" d="M270.1,251.7H509.2v-15H270.1v15Z" class="g0_225"/>
<path fill-rule="evenodd" d="M288.5,266.8H509.6V251.7H288.5v15.1Z" class="g0_225"/>
<path fill-rule="evenodd" d="M288.5,282.2H509.6V266.8H288.5v15.4Z" class="g0_225"/>
<path fill-rule="evenodd" d="M270.1,297.2H508.5v-15H270.1v15Z" class="g0_225"/>
<path fill-rule="evenodd" d="M270.1,312.2H508.5v-15H270.1v15Z" class="g0_225"/>
<path fill-rule="evenodd" d="M269.8,327.3H508.5V312.2H269.8v15.1Z" class="g0_225"/>
<path fill-rule="evenodd" d="M269.8,342.5H508.5V327.3H269.8v15.2Z" class="g0_225"/>
<path fill-rule="evenodd" d="M269.8,357.6H508.5V342.5H269.8v15.1Z" class="g0_225"/>
<path fill-rule="evenodd" d="M288.1,372.6H509.6v-15H288.1v15Z" class="g0_225"/>
<path fill-rule="evenodd" d="M288.5,387.6H509.6v-15H288.5v15Z" class="g0_225"/>
<path fill-rule="evenodd" d="M269.8,402.7H508.1V387.6H269.8v15.1Z" class="g0_225"/>
<path fill-rule="evenodd" d="M269.8,417.7H508.1v-15H269.8v15Z" class="g0_225"/>
<path fill-rule="evenodd" d="M269.8,432.7H508.1v-15H269.8v15Z" class="g0_225"/>
<path fill-rule="evenodd" d="M269,447.8H508.1V432.7H269v15.1Z" class="g0_225"/>
<path fill-rule="evenodd" d="M269,462.8H508.1v-15H269v15Z" class="g0_225"/>
<path fill-rule="evenodd" d="M269,477.8H508.1v-15H269v15Z" class="g0_225"/>
<path fill-rule="evenodd" d="M269.4,492.9H508.1V477.8H269.4v15.1Z" class="g0_225"/>
<path fill-rule="evenodd" d="M269.4,507.9H508.1v-15H269.4v15Z" class="g0_225"/>
<path fill-rule="evenodd" d="M269.4,523.1H508.1V507.9H269.4v15.2Z" class="g0_225"/>
<path fill-rule="evenodd" d="M269,538.2H507.4V523.1H269v15.1Z" class="g0_225"/>
<path fill-rule="evenodd" d="M269,553.2H507.4v-15H269v15Z" class="g0_225"/>
<path fill-rule="evenodd" d="M269,568.2H507.4v-15H269v15Z" class="g0_225"/>
<path fill-rule="evenodd" d="M269,583.3H507.4V568.2H269v15.1Z" class="g0_225"/>
<path fill-rule="evenodd" d="M268.7,598.3H507.4v-15H268.7v15Z" class="g0_225"/>
<path fill-rule="evenodd" d="M268.7,613.4H507.4V598.3H268.7v15.1Z" class="g0_225"/>
<path fill-rule="evenodd" d="M268.7,628.4H507.4v-15H268.7v15Z" class="g0_225"/>
<path fill-rule="evenodd" d="M269,643.4H507v-15H269v15Z" class="g0_225"/>
<path fill-rule="evenodd" d="M269,658.5H507V643.4H269v15.1Z" class="g0_225"/>
<path fill-rule="evenodd" d="M268.7,673.5H507.4v-15H268.7v15Z" class="g0_225"/>
<path fill-rule="evenodd" d="M268.7,688.5H507.4v-15H268.7v15Z" class="g0_225"/>
<path fill-rule="evenodd" d="M268.7,703.7H507.4V688.5H268.7v15.2Z" class="g0_225"/>
<path fill-rule="evenodd" d="M268.7,718.8H507.4V703.7H268.7v15.1Z" class="g0_225"/>
<path fill-rule="evenodd" d="M268.7,733.8H507v-15H268.7v15Z" class="g0_225"/>
<path fill-rule="evenodd" d="M268.7,748.8H507v-15H268.7v15Z" class="g0_225"/>
<path fill-rule="evenodd" d="M269,763.9H506.7V748.8H269v15.1Z" class="g0_225"/>
<path fill-rule="evenodd" d="M269,778.9H506.7v-15H269v15Z" class="g0_225"/>
<path fill-rule="evenodd" d="M269,793.9H506.7v-15H269v15Z" class="g0_225"/>
<path fill-rule="evenodd" d="M268.3,809.3H506.7v-15H268.3v15Z" class="g0_225"/>
<path fill-rule="evenodd" d="M268.3,824.4H506.7V809.3H268.3v15.1Z" class="g0_225"/>
<path fill-rule="evenodd" d="M268.3,839.5H506.7V824.4H268.3v15.1Z" class="g0_225"/>
<path fill-rule="evenodd" d="M268.3,854.5H506.7v-15H268.3v15Z" class="g0_225"/>
<path fill-rule="evenodd" d="M267.9,869.7h238V854.5h-238v15.2Z" class="g0_225"/>
<path fill-rule="evenodd" d="M267.9,884.7h238v-15h-238v15Z" class="g0_225"/>
<path fill-rule="evenodd" d="M270.5,899.8H509.6V884.7H270.5v15.1Z" class="g0_225"/>
<path fill-rule="evenodd" d="M529.4,161.7H768.1v-15H529.4v15Z" class="g0_225"/>
<path fill-rule="evenodd" d="M529.4,176.9H768.1V161.7H529.4v15.2Z" class="g0_225"/>
<path fill-rule="evenodd" d="M529.4,192H768.1V176.9H529.4V192Z" class="g0_225"/>
<path fill-rule="evenodd" d="M529.4,207H767.8V192H529.4v15Z" class="g0_225"/>
<path fill-rule="evenodd" d="M529.4,222H767.8V207H529.4v15Z" class="g0_225"/>
<path fill-rule="evenodd" d="M529.4,237.1h238V222h-238v15.1Z" class="g0_225"/>
<path fill-rule="evenodd" d="M529.4,252.1h238v-15h-238v15Z" class="g0_225"/>
<path fill-rule="evenodd" d="M529,267.5H767.8v-15H529v15Z" class="g0_225"/>
<path fill-rule="evenodd" d="M529,282.5H767.8v-15H529v15Z" class="g0_225"/>
<path fill-rule="evenodd" d="M529,297.6H767.8V282.5H529v15.1Z" class="g0_225"/>
<path fill-rule="evenodd" d="M529,312.6H768.1v-15H529v15Z" class="g0_225"/>
<path fill-rule="evenodd" d="M529,327.8H768.1V312.6H529v15.2Z" class="g0_225"/>
<path fill-rule="evenodd" d="M529,342.9H768.1V327.8H529v15.1Z" class="g0_225"/>
<path fill-rule="evenodd" d="M529,357.9H768.1v-15H529v15Z" class="g0_225"/>
<path fill-rule="evenodd" d="M529,373H768.1V357.9H529V373Z" class="g0_225"/>
<path fill-rule="evenodd" d="M529,388H768.1V373H529v15Z" class="g0_225"/>
<path fill-rule="evenodd" d="M528.3,403H768.1V388H528.3v15Z" class="g0_225"/>
<path fill-rule="evenodd" d="M528.3,418.1H768.1V403H528.3v15.1Z" class="g0_225"/>
<path fill-rule="evenodd" d="M528.3,433.1H768.1v-15H528.3v15Z" class="g0_225"/>
<path fill-rule="evenodd" d="M528.3,448.1H768.1v-15H528.3v15Z" class="g0_225"/>
<path fill-rule="evenodd" d="M528.7,463.2H767V448.1H528.7v15.1Z" class="g0_225"/>
<path fill-rule="evenodd" d="M528.7,478.2H767v-15H528.7v15Z" class="g0_225"/>
<path fill-rule="evenodd" d="M528.7,493.2H767v-15H528.7v15Z" class="g0_225"/>
<path fill-rule="evenodd" d="M546.6,508.5H768.1V493.2H546.6v15.3Z" class="g0_225"/>
<path fill-rule="evenodd" d="M528.3,523.5H767.4v-15H528.3v15Z" class="g0_225"/>
<path fill-rule="evenodd" d="M528.3,538.5H767.4v-15H528.3v15Z" class="g0_225"/>
<path fill-rule="evenodd" d="M528.3,553.6H766.7V538.5H528.3v15.1Z" class="g0_225"/>
<path fill-rule="evenodd" d="M528.3,568.6H766.7v-15H528.3v15Z" class="g0_225"/>
<path fill-rule="evenodd" d="M527.6,583.6H766.3v-15H527.6v15Z" class="g0_225"/>
<path fill-rule="evenodd" d="M527.6,598.7H766.3V583.6H527.6v15.1Z" class="g0_225"/>
<path fill-rule="evenodd" d="M527.2,613.7H767v-15H527.2v15Z" class="g0_225"/>
<path fill-rule="evenodd" d="M527.2,628.8H767V613.7H527.2v15.1Z" class="g0_225"/>
<path fill-rule="evenodd" d="M527.2,643.8H767v-15H527.2v15Z" class="g0_225"/>
<path fill-rule="evenodd" d="M527.2,658.8H767v-15H527.2v15Z" class="g0_225"/>
<path fill-rule="evenodd" d="M527.2,673.9H767V658.8H527.2v15.1Z" class="g0_225"/>
<path fill-rule="evenodd" d="M527.6,689.4H766.3V674.2H527.6v15.2Z" class="g0_225"/>
<path fill-rule="evenodd" d="M527.6,704.5H766.3V689.4H527.6v15.1Z" class="g0_225"/>
<path fill-rule="evenodd" d="M527.2,719.9H765.9V704.8H527.2v15.1Z" class="g0_225"/>
<path fill-rule="evenodd" d="M527.2,734.9H765.9v-15H527.2v15Z" class="g0_225"/>
<path fill-rule="evenodd" d="M527.2,749.9H765.9v-15H527.2v15Z" class="g0_225"/>
<path fill-rule="evenodd" d="M526.8,765.3H766.3v-15H526.8v15Z" class="g0_225"/>
<path fill-rule="evenodd" d="M526.8,780.4H766.3V765.3H526.8v15.1Z" class="g0_225"/>
<path fill-rule="evenodd" d="M526.8,795.4H766.3v-15H526.8v15Z" class="g0_225"/>
<path fill-rule="evenodd" d="M527.2,810.4H766.3v-15H527.2v15Z" class="g0_225"/>
<path fill-rule="evenodd" d="M527.2,825.7H766.3V810.4H527.2v15.3Z" class="g0_225"/>
<path fill-rule="evenodd" d="M527.2,840.7H766.3v-15H527.2v15Z" class="g0_225"/>
<path fill-rule="evenodd" d="M526.8,855.8H765.9V840.7H526.8v15.1Z" class="g0_225"/>
<path fill-rule="evenodd" d="M526.8,870.8H765.9v-15H526.8v15Z" class="g0_225"/>
<path fill-rule="evenodd" d="M527.2,885.8H765.6v-15H527.2v15Z" class="g0_225"/>
<path fill-rule="evenodd" d="M527.2,900.9H765.6V885.8H527.2v15.1Z" class="g0_225"/>
<path fill-rule="evenodd" d="M503.4,933.1H768.1V915.5H503.4v17.6Z" class="g0_225"/>
<path d="M201.8,101.6V445.2" class="g1_225"/>
<path d="M211.8,101.2V998.5M204.8,194V969.1M516.5,147.8V917" class="g2_225"/>
</svg>