<?xml version="1.0" encoding="UTF-8" standalone="no"?>
<!DOCTYPE svg PUBLIC "-//W3C//DTD SVG 1.1//EN"
"http://www.w3.org/Graphics/SVG/1.1/DTD/svg11.dtd">
<svg viewBox="0 0 909 1285" version="1.1" xmlns="http://www.w3.org/2000/svg" xmlns:xlink="http://www.w3.org/1999/xlink">
<defs>
<style type="text/css"><![CDATA[
.g0_230{
fill: #FFFFFF;
}
.g1_230{
fill: none;
stroke: #000000;
stroke-width: 0.381;
stroke-linecap: butt;
stroke-linejoin: round;
}
]]></style>
</defs>
<path fill-rule="evenodd" d="M560.7,125.8H678.1V110H560.7v15.8Z" class="g0_230"/>
<path fill-rule="evenodd" d="M178.6,162.6H417V147.4H178.6v15.2Z" class="g0_230"/>
<path fill-rule="evenodd" d="M178.6,177.7H417V162.6H178.6v15.1Z" class="g0_230"/>
<path fill-rule="evenodd" d="M178.6,192.7H417.3v-15H178.6v15Z" class="g0_230"/>
<path fill-rule="evenodd" d="M178.6,207.7H417.3v-15H178.6v15Z" class="g0_230"/>
<path fill-rule="evenodd" d="M178.6,222.8H417.3V207.7H178.6v15.1Z" class="g0_230"/>
<path fill-rule="evenodd" d="M178.6,237.8H417.3v-15H178.6v15Z" class="g0_230"/>
<path fill-rule="evenodd" d="M179,252.8H416.6v-15H179v15Z" class="g0_230"/>
<path fill-rule="evenodd" d="M179,267.9H416.6V252.8H179v15.1Z" class="g0_230"/>
<path fill-rule="evenodd" d="M179,282.9H416.6v-15H179v15Z" class="g0_230"/>
<path fill-rule="evenodd" d="M178.6,297.9H417.3v-15H178.6v15Z" class="g0_230"/>
<path fill-rule="evenodd" d="M436.8,161.7H676.7v-15H436.8v15Z" class="g0_230"/>
<path fill-rule="evenodd" d="M436.8,176.9H676.7V161.7H436.8v15.2Z" class="g0_230"/>
<path fill-rule="evenodd" d="M436.8,192H676.7V176.9H436.8V192Z" class="g0_230"/>
<path fill-rule="evenodd" d="M436.8,207H676.7V192H436.8v15Z" class="g0_230"/>
<path fill-rule="evenodd" d="M437.5,222H676.7V207H437.5v15Z" class="g0_230"/>
<path fill-rule="evenodd" d="M437.5,237.1H676.7V222H437.5v15.1Z" class="g0_230"/>
<path fill-rule="evenodd" d="M437.5,252.1H676.7v-15H437.5v15Z" class="g0_230"/>
<path fill-rule="evenodd" d="M455.9,267.1H676.6v-15H455.9v15Z" class="g0_230"/>
<path fill-rule="evenodd" d="M455.9,282.2H676.6V267.1H455.9v15.1Z" class="g0_230"/>
<path fill-rule="evenodd" d="M412.2,349.6H678.1V324H412.2v25.6Z" class="g0_230"/>
<path fill-rule="evenodd" d="M178.6,385.1H417.3V370.2H178.6v14.9Z" class="g0_230"/>
<path fill-rule="evenodd" d="M178.6,399.7H417.3V385.1H178.6v14.6Z" class="g0_230"/>
<path fill-rule="evenodd" d="M178.6,414.4H417.3V399.7H178.6v14.7Z" class="g0_230"/>
<path fill-rule="evenodd" d="M178.6,429.4H417V414.8H178.6v14.6Z" class="g0_230"/>
<path fill-rule="evenodd" d="M178.6,444.1H417V429.4H178.6v14.7Z" class="g0_230"/>
<path fill-rule="evenodd" d="M178.2,458.8H417.3V444.1H178.2v14.7Z" class="g0_230"/>
<path fill-rule="evenodd" d="M178.2,473.4H417.3V458.8H178.2v14.6Z" class="g0_230"/>
<path fill-rule="evenodd" d="M178.6,488.1H417V473.4H178.6v14.7Z" class="g0_230"/>
<path fill-rule="evenodd" d="M178.6,502.8H417V488.1H178.6v14.7Z" class="g0_230"/>
<path fill-rule="evenodd" d="M178.6,517.4H417.3V502.8H178.6v14.6Z" class="g0_230"/>
<path fill-rule="evenodd" d="M178.6,532.1H417.3V517.4H178.6v14.7Z" class="g0_230"/>
<path fill-rule="evenodd" d="M178.6,546.8H417.3V532.1H178.6v14.7Z" class="g0_230"/>
<path fill-rule="evenodd" d="M179.3,561.4h238V546.8h-238v14.6Z" class="g0_230"/>
<path fill-rule="evenodd" d="M179.3,576.1h238V561.4h-238v14.7Z" class="g0_230"/>
<path fill-rule="evenodd" d="M178.6,590.8H417.3V576.1H178.6v14.7Z" class="g0_230"/>
<path fill-rule="evenodd" d="M178.6,605.5H417.3V590.8H178.6v14.7Z" class="g0_230"/>
<path fill-rule="evenodd" d="M178.6,620.1H417.3V605.5H178.6v14.6Z" class="g0_230"/>
<path fill-rule="evenodd" d="M179,634.8H417.3V620.1H179v14.7Z" class="g0_230"/>
<path fill-rule="evenodd" d="M179,649.5H417.3V634.8H179v14.7Z" class="g0_230"/>
<path fill-rule="evenodd" d="M179,664.1H417.3V649.5H179v14.6Z" class="g0_230"/>
<path fill-rule="evenodd" d="M179,679.2H417.3V664.1H179v15.1Z" class="g0_230"/>
<path fill-rule="evenodd" d="M179,693.8H417.3V679.2H179v14.6Z" class="g0_230"/>
<path fill-rule="evenodd" d="M179,708.5H417.3V693.8H179v14.7Z" class="g0_230"/>
<path fill-rule="evenodd" d="M178.6,723.2H417.3V708.5H178.6v14.7Z" class="g0_230"/>
<path fill-rule="evenodd" d="M178.6,737.8H417.3V723.2H178.6v14.6Z" class="g0_230"/>
<path fill-rule="evenodd" d="M178.6,752.5H417.3V737.8H178.6v14.7Z" class="g0_230"/>
<path fill-rule="evenodd" d="M178.6,767.2H417.3V752.5H178.6v14.7Z" class="g0_230"/>
<path fill-rule="evenodd" d="M178.6,781.8H417.3V767.2H178.6v14.6Z" class="g0_230"/>
<path fill-rule="evenodd" d="M178.6,796.5H417.3V781.8H178.6v14.7Z" class="g0_230"/>
<path fill-rule="evenodd" d="M178.6,811.2H417.3V796.5H178.6v14.7Z" class="g0_230"/>
<path fill-rule="evenodd" d="M178.6,825.8H417.3V811.2H178.6v14.6Z" class="g0_230"/>
<path fill-rule="evenodd" d="M178.6,840.6H417.3V825.8H178.6v14.8Z" class="g0_230"/>
<path fill-rule="evenodd" d="M178.6,855.2H417.3V840.6H178.6v14.6Z" class="g0_230"/>
<path fill-rule="evenodd" d="M178.6,869.9H417.3V855.2H178.6v14.7Z" class="g0_230"/>
<path fill-rule="evenodd" d="M178.6,884.6H417.3V869.9H178.6v14.7Z" class="g0_230"/>
<path fill-rule="evenodd" d="M197.7,899.2H417.3V884.6H197.7v14.6Z" class="g0_230"/>
<path fill-rule="evenodd" d="M456.6,384.2H678.1V369.5H456.6v14.7Z" class="g0_230"/>
<path fill-rule="evenodd" d="M456.2,398.8H678.1V384.2H456.2v14.6Z" class="g0_230"/>
<path fill-rule="evenodd" d="M437.9,414H678.1V399.2H437.9V414Z" class="g0_230"/>
<path fill-rule="evenodd" d="M437.9,428.7H678.1V414H437.9v14.7Z" class="g0_230"/>
<path fill-rule="evenodd" d="M437.1,443.7H677.4V429.1H437.1v14.6Z" class="g0_230"/>
<path fill-rule="evenodd" d="M437.1,458.4H677.4V443.7H437.1v14.7Z" class="g0_230"/>
<path fill-rule="evenodd" d="M437.1,473.1H677.4V458.4H437.1v14.7Z" class="g0_230"/>
<path fill-rule="evenodd" d="M437.1,487.7H677.4V473.1H437.1v14.6Z" class="g0_230"/>
<path fill-rule="evenodd" d="M437.1,502.4H677.4V487.7H437.1v14.7Z" class="g0_230"/>
<path fill-rule="evenodd" d="M437.1,517.1H677.4V502.4H437.1v14.7Z" class="g0_230"/>
<path fill-rule="evenodd" d="M456.2,531.7H678.1V517.1H456.2v14.6Z" class="g0_230"/>
<path fill-rule="evenodd" d="M456.2,546.8H678.1V531.7H456.2v15.1Z" class="g0_230"/>
<path fill-rule="evenodd" d="M438.2,561.8H677V547.1H438.2v14.7Z" class="g0_230"/>
<path fill-rule="evenodd" d="M438.2,576.5H677V561.8H438.2v14.7Z" class="g0_230"/>
<path fill-rule="evenodd" d="M456.2,591.1H678.1V576.5H456.2v14.6Z" class="g0_230"/>
<path fill-rule="evenodd" d="M437.9,606.2H676.7V591.5H437.9v14.7Z" class="g0_230"/>
<path fill-rule="evenodd" d="M437.9,620.9H676.7V606.2H437.9v14.7Z" class="g0_230"/>
<path fill-rule="evenodd" d="M437.9,635.5H677V620.9H437.9v14.6Z" class="g0_230"/>
<path fill-rule="evenodd" d="M437.9,650.2H677V635.5H437.9v14.7Z" class="g0_230"/>
<path fill-rule="evenodd" d="M437.9,664.9H677.4V650.2H437.9v14.7Z" class="g0_230"/>
<path fill-rule="evenodd" d="M437.9,679.5H677.4V664.9H437.9v14.6Z" class="g0_230"/>
<path fill-rule="evenodd" d="M456.6,694.6H678.1V679.9H456.6v14.7Z" class="g0_230"/>
<path fill-rule="evenodd" d="M456.2,709.2H678.1V694.6H456.2v14.6Z" class="g0_230"/>
<path fill-rule="evenodd" d="M456.2,724.6H678.1V709.2H456.2v15.4Z" class="g0_230"/>
<path fill-rule="evenodd" d="M456.2,739.7H678.1V724.6H456.2v15.1Z" class="g0_230"/>
<path fill-rule="evenodd" d="M456.2,754.3H678.1V739.7H456.2v14.6Z" class="g0_230"/>
<path fill-rule="evenodd" d="M437.9,769H677V754.3H437.9V769Z" class="g0_230"/>
<path fill-rule="evenodd" d="M437.9,783.7H677V769H437.9v14.7Z" class="g0_230"/>
<path fill-rule="evenodd" d="M437.9,798.3H677.4V783.7H437.9v14.6Z" class="g0_230"/>
<path fill-rule="evenodd" d="M437.9,813H677.4V798.3H437.9V813Z" class="g0_230"/>
<path fill-rule="evenodd" d="M437.9,827.7H677.4V813H437.9v14.7Z" class="g0_230"/>
<path fill-rule="evenodd" d="M456.6,842.4H678.1V827.7H456.6v14.7Z" class="g0_230"/>
<path fill-rule="evenodd" d="M456.6,857.4H678.1v-15H456.6v15Z" class="g0_230"/>
<path fill-rule="evenodd" d="M456.6,872.5H678.1V857.4H456.6v15.1Z" class="g0_230"/>
<path fill-rule="evenodd" d="M438.6,887.1H677.8V872.5H438.6v14.6Z" class="g0_230"/>
<path fill-rule="evenodd" d="M438.6,901.8H677.8V887.1H438.6v14.7Z" class="g0_230"/>
<path fill-rule="evenodd" d="M414.8,933.7H678.1V916.1H414.8v17.6Z" class="g0_230"/>
<path d="M426.4,146.4V280.2m1.1,88.2V913.3" class="g1_230"/>
</svg>