<?xml version="1.0" encoding="UTF-8" standalone="no"?>
<!DOCTYPE svg PUBLIC "-//W3C//DTD SVG 1.1//EN"
"http://www.w3.org/Graphics/SVG/1.1/DTD/svg11.dtd">
<svg viewBox="0 0 909 1285" version="1.1" xmlns="http://www.w3.org/2000/svg" xmlns:xlink="http://www.w3.org/1999/xlink">
<defs>
<style type="text/css"><![CDATA[
.g0_129{
fill: #FFFFFF;
}
.g1_129{
fill: none;
stroke: #000000;
stroke-width: 0.381;
stroke-linecap: butt;
stroke-linejoin: round;
}
]]></style>
</defs>
<path fill-rule="evenodd" d="M284.4,131.1H782.8V110H284.4v21.1Z" class="g0_129"/>
<path fill-rule="evenodd" d="M284.1,165.9h231v-15h-231v15Z" class="g0_129"/>
<path fill-rule="evenodd" d="M284.1,181h231V165.9h-231V181Z" class="g0_129"/>
<path fill-rule="evenodd" d="M284.4,196H523.5V181H284.4v15Z" class="g0_129"/>
<path fill-rule="evenodd" d="M284.4,211H523.5V196H284.4v15Z" class="g0_129"/>
<path fill-rule="evenodd" d="M284.4,226.1H523.5V211H284.4v15.1Z" class="g0_129"/>
<path fill-rule="evenodd" d="M284.4,241.1H523.5v-15H284.4v15Z" class="g0_129"/>
<path fill-rule="evenodd" d="M284.4,256.1H523.5v-15H284.4v15Z" class="g0_129"/>
<path fill-rule="evenodd" d="M284.1,271.4H523.5V256.1H284.1v15.3Z" class="g0_129"/>
<path fill-rule="evenodd" d="M284.1,286.4H523.5v-15H284.1v15Z" class="g0_129"/>
<path fill-rule="evenodd" d="M284.1,301.4H523.5v-15H284.1v15Z" class="g0_129"/>
<path fill-rule="evenodd" d="M284.1,316.5H523.5V301.4H284.1v15.1Z" class="g0_129"/>
<path fill-rule="evenodd" d="M284.1,331.5H523.5v-15H284.1v15Z" class="g0_129"/>
<path fill-rule="evenodd" d="M283.3,346.5H523.5v-15H283.3v15Z" class="g0_129"/>
<path fill-rule="evenodd" d="M283.3,361.6H523.5V346.5H283.3v15.1Z" class="g0_129"/>
<path fill-rule="evenodd" d="M283.3,376.6H523.5v-15H283.3v15Z" class="g0_129"/>
<path fill-rule="evenodd" d="M283.3,391.7H523.5V376.6H283.3v15.1Z" class="g0_129"/>
<path fill-rule="evenodd" d="M283.3,406.7H523.5v-15H283.3v15Z" class="g0_129"/>
<path fill-rule="evenodd" d="M283,421.7H523.5v-15H283v15Z" class="g0_129"/>
<path fill-rule="evenodd" d="M283,437H523.5V421.7H283V437Z" class="g0_129"/>
<path fill-rule="evenodd" d="M283,452H523.5V437H283v15Z" class="g0_129"/>
<path fill-rule="evenodd" d="M283,467H523.5V452H283v15Z" class="g0_129"/>
<path fill-rule="evenodd" d="M283.3,482.1H522.8V467H283.3v15.1Z" class="g0_129"/>
<path fill-rule="evenodd" d="M283.3,497.1H522.8v-15H283.3v15Z" class="g0_129"/>
<path fill-rule="evenodd" d="M283.3,512.1H522.8v-15H283.3v15Z" class="g0_129"/>
<path fill-rule="evenodd" d="M283.3,527.2H522.8V512.1H283.3v15.1Z" class="g0_129"/>
<path fill-rule="evenodd" d="M283,542.2H521.7v-15H283v15Z" class="g0_129"/>
<path fill-rule="evenodd" d="M283,557.2H521.7v-15H283v15Z" class="g0_129"/>
<path fill-rule="evenodd" d="M283,572.3H521.7V557.2H283v15.1Z" class="g0_129"/>
<path fill-rule="evenodd" d="M301.3,587.3H523.5v-15H301.3v15Z" class="g0_129"/>
<path fill-rule="evenodd" d="M283.3,602.4h238V587.3h-238v15.1Z" class="g0_129"/>
<path fill-rule="evenodd" d="M283.3,617.6h238V602.4h-238v15.2Z" class="g0_129"/>
<path fill-rule="evenodd" d="M283.3,632.6H521v-15H283.3v15Z" class="g0_129"/>
<path fill-rule="evenodd" d="M283.3,647.6H521v-15H283.3v15Z" class="g0_129"/>
<path fill-rule="evenodd" d="M282.2,662.7H521.7V647.6H282.2v15.1Z" class="g0_129"/>
<path fill-rule="evenodd" d="M282.2,677.7H521.7v-15H282.2v15Z" class="g0_129"/>
<path fill-rule="evenodd" d="M282.2,692.7H521.7v-15H282.2v15Z" class="g0_129"/>
<path fill-rule="evenodd" d="M282.2,707.8H521.7V692.7H282.2v15.1Z" class="g0_129"/>
<path fill-rule="evenodd" d="M282.2,722.8H521.7v-15H282.2v15Z" class="g0_129"/>
<path fill-rule="evenodd" d="M282.2,737.8H521.7v-15H282.2v15Z" class="g0_129"/>
<path fill-rule="evenodd" d="M282.2,752.9H521.7V737.8H282.2v15.1Z" class="g0_129"/>
<path fill-rule="evenodd" d="M282.2,767.9H521v-15H282.2v15Z" class="g0_129"/>
<path fill-rule="evenodd" d="M282.2,782.9H521v-15H282.2v15Z" class="g0_129"/>
<path fill-rule="evenodd" d="M282.2,798.2H521V782.9H282.2v15.3Z" class="g0_129"/>
<path fill-rule="evenodd" d="M282.2,813.2H521v-15H282.2v15Z" class="g0_129"/>
<path fill-rule="evenodd" d="M281.9,828.2H521.3v-15H281.9v15Z" class="g0_129"/>
<path fill-rule="evenodd" d="M281.9,843.3H521.3V828.2H281.9v15.1Z" class="g0_129"/>
<path fill-rule="evenodd" d="M281.9,858.3H521.3v-15H281.9v15Z" class="g0_129"/>
<path fill-rule="evenodd" d="M281.9,873.4H521.3V858.3H281.9v15.1Z" class="g0_129"/>
<path fill-rule="evenodd" d="M284.1,888.4H523.5v-15H284.1v15Z" class="g0_129"/>
<path fill-rule="evenodd" d="M543.3,166.3H782.8v-15H543.3v15Z" class="g0_129"/>
<path fill-rule="evenodd" d="M543.3,181.3H782.8v-15H543.3v15Z" class="g0_129"/>
<path fill-rule="evenodd" d="M543.3,196.4H782.8V181.3H543.3v15.1Z" class="g0_129"/>
<path fill-rule="evenodd" d="M543.3,211.4H782.8v-15H543.3v15Z" class="g0_129"/>
<path fill-rule="evenodd" d="M543.3,226.4H782.8v-15H543.3v15Z" class="g0_129"/>
<path fill-rule="evenodd" d="M543.3,241.5H782.8V226.4H543.3v15.1Z" class="g0_129"/>
<path fill-rule="evenodd" d="M543.3,256.7H782.4V241.5H543.3v15.2Z" class="g0_129"/>
<path fill-rule="evenodd" d="M543.3,271.7H782.4v-15H543.3v15Z" class="g0_129"/>
<path fill-rule="evenodd" d="M543.3,286.8H782.4V271.7H543.3v15.1Z" class="g0_129"/>
<path fill-rule="evenodd" d="M543.3,301.8H782.4v-15H543.3v15Z" class="g0_129"/>
<path fill-rule="evenodd" d="M543,316.8H782.1v-15H543v15Z" class="g0_129"/>
<path fill-rule="evenodd" d="M543,331.9H782.1V316.8H543v15.1Z" class="g0_129"/>
<path fill-rule="evenodd" d="M543,346.9H782.1v-15H543v15Z" class="g0_129"/>
<path fill-rule="evenodd" d="M543,362H782.1V346.9H543V362Z" class="g0_129"/>
<path fill-rule="evenodd" d="M543.3,377.4h238V362.3h-238v15.1Z" class="g0_129"/>
<path fill-rule="evenodd" d="M543.3,392.4h238v-15h-238v15Z" class="g0_129"/>
<path fill-rule="evenodd" d="M542.6,407.6H782.1V392.4H542.6v15.2Z" class="g0_129"/>
<path fill-rule="evenodd" d="M542.6,422.7H782.1V407.6H542.6v15.1Z" class="g0_129"/>
<path fill-rule="evenodd" d="M542.6,437.7H782.1v-15H542.6v15Z" class="g0_129"/>
<path fill-rule="evenodd" d="M542.6,452.7H782.1v-15H542.6v15Z" class="g0_129"/>
<path fill-rule="evenodd" d="M542.6,467.8H782.1V452.7H542.6v15.1Z" class="g0_129"/>
<path fill-rule="evenodd" d="M541.9,483.2H781.3V468.1H541.9v15.1Z" class="g0_129"/>
<path fill-rule="evenodd" d="M541.9,498.2H781.3v-15H541.9v15Z" class="g0_129"/>
<path fill-rule="evenodd" d="M541.9,513.2H781.3v-15H541.9v15Z" class="g0_129"/>
<path fill-rule="evenodd" d="M541.9,528.3H781.3V513.2H541.9v15.1Z" class="g0_129"/>
<path fill-rule="evenodd" d="M542.2,543.3H781.3v-15H542.2v15Z" class="g0_129"/>
<path fill-rule="evenodd" d="M542.2,558.3H781.3v-15H542.2v15Z" class="g0_129"/>
<path fill-rule="evenodd" d="M542.2,573.5H781V558.3H542.2v15.2Z" class="g0_129"/>
<path fill-rule="evenodd" d="M542.2,588.6H781V573.5H542.2v15.1Z" class="g0_129"/>
<path fill-rule="evenodd" d="M542.2,603.6H781v-15H542.2v15Z" class="g0_129"/>
<path fill-rule="evenodd" d="M541.9,618.7H781.3V603.6H541.9v15.1Z" class="g0_129"/>
<path fill-rule="evenodd" d="M541.9,633.7H781.3v-15H541.9v15Z" class="g0_129"/>
<path fill-rule="evenodd" d="M541.9,648.7H781.3v-15H541.9v15Z" class="g0_129"/>
<path fill-rule="evenodd" d="M541.9,663.8H781.3V648.7H541.9v15.1Z" class="g0_129"/>
<path fill-rule="evenodd" d="M541.5,678.8H781.3v-15H541.5v15Z" class="g0_129"/>
<path fill-rule="evenodd" d="M541.5,693.8H781.3v-15H541.5v15Z" class="g0_129"/>
<path fill-rule="evenodd" d="M541.5,708.9H781.3V693.8H541.5v15.1Z" class="g0_129"/>
<path fill-rule="evenodd" d="M541.9,723.9H781v-15H541.9v15Z" class="g0_129"/>
<path fill-rule="evenodd" d="M541.9,738.9H781v-15H541.9v15Z" class="g0_129"/>
<path fill-rule="evenodd" d="M541.9,754.2H781V738.9H541.9v15.3Z" class="g0_129"/>
<path fill-rule="evenodd" d="M541.1,769.2H781v-15H541.1v15Z" class="g0_129"/>
<path fill-rule="evenodd" d="M541.1,784.2H781v-15H541.1v15Z" class="g0_129"/>
<path fill-rule="evenodd" d="M541.1,799.3H781V784.2H541.1v15.1Z" class="g0_129"/>
<path fill-rule="evenodd" d="M541.1,814.3H781v-15H541.1v15Z" class="g0_129"/>
<path fill-rule="evenodd" d="M541.1,829.3H781v-15H541.1v15Z" class="g0_129"/>
<path fill-rule="evenodd" d="M541.1,844.4H781V829.3H541.1v15.1Z" class="g0_129"/>
<path fill-rule="evenodd" d="M541.1,859.4H781v-15H541.1v15Z" class="g0_129"/>
<path fill-rule="evenodd" d="M541.1,874.5H781V859.4H541.1v15.1Z" class="g0_129"/>
<path fill-rule="evenodd" d="M541.1,889.5H781v-15H541.1v15Z" class="g0_129"/>
<path fill-rule="evenodd" d="M541.1,904.5H781v-15H541.1v15Z" class="g0_129"/>
<path fill-rule="evenodd" d="M518.8,936.8h264V919.2h-264v17.6Z" class="g0_129"/>
<path d="M224.6,123.6V348M212.1,662.7v32.7m7,-62.7v371.7m.7,-828.2V738.6M531.1,153.5V920.6" class="g1_129"/>
</svg>