<?xml version="1.0" encoding="UTF-8" standalone="no"?>
<!DOCTYPE svg PUBLIC "-//W3C//DTD SVG 1.1//EN"
"http://www.w3.org/Graphics/SVG/1.1/DTD/svg11.dtd">
<svg viewBox="0 0 909 1285" version="1.1" xmlns="http://www.w3.org/2000/svg" xmlns:xlink="http://www.w3.org/1999/xlink">
<defs>
<style type="text/css"><![CDATA[
.g0_56{
fill: #FFFFFF;
}
.g1_56{
fill: none;
stroke: #000000;
stroke-width: 1.451;
stroke-linecap: butt;
stroke-linejoin: round;
}
.g2_56{
fill: none;
stroke: #000000;
stroke-width: 4.048;
stroke-linecap: butt;
stroke-linejoin: round;
}
.g3_56{
fill: none;
stroke: #000000;
stroke-width: 0.381;
stroke-linecap: butt;
stroke-linejoin: round;
}
]]></style>
</defs>
<path fill-rule="evenodd" d="M603.1,125.8h86.6V110H603.1v15.8Z" class="g0_56"/>
<path fill-rule="evenodd" d="M190.9,161.7h238v-15h-238v15Z" class="g0_56"/>
<path fill-rule="evenodd" d="M190.9,176.9h238V161.7h-238v15.2Z" class="g0_56"/>
<path fill-rule="evenodd" d="M190.5,192H428.9V176.9H190.5V192Z" class="g0_56"/>
<path fill-rule="evenodd" d="M190.5,207H428.9V192H190.5v15Z" class="g0_56"/>
<path fill-rule="evenodd" d="M190.5,222H428.9V207H190.5v15Z" class="g0_56"/>
<path fill-rule="evenodd" d="M190.5,237.1H429.6V222H190.5v15.1Z" class="g0_56"/>
<path fill-rule="evenodd" d="M190.5,252.1H429.6v-15H190.5v15Z" class="g0_56"/>
<path fill-rule="evenodd" d="M190.5,267.1H429.6v-15H190.5v15Z" class="g0_56"/>
<path fill-rule="evenodd" d="M190.5,282.2H429.6V267.1H190.5v15.1Z" class="g0_56"/>
<path fill-rule="evenodd" d="M190.5,297.2H429.6v-15H190.5v15Z" class="g0_56"/>
<path fill-rule="evenodd" d="M190.5,312.2H429.6v-15H190.5v15Z" class="g0_56"/>
<path fill-rule="evenodd" d="M190.5,327.3H429.6V312.2H190.5v15.1Z" class="g0_56"/>
<path fill-rule="evenodd" d="M190.5,342.5H429.6V327.3H190.5v15.2Z" class="g0_56"/>
<path fill-rule="evenodd" d="M190.5,357.6H429.6V342.5H190.5v15.1Z" class="g0_56"/>
<path fill-rule="evenodd" d="M190.5,372.6H428.9v-15H190.5v15Z" class="g0_56"/>
<path fill-rule="evenodd" d="M190.5,387.6H428.9v-15H190.5v15Z" class="g0_56"/>
<path fill-rule="evenodd" d="M192,402.7H429.2V387.6H192v15.1Z" class="g0_56"/>
<path fill-rule="evenodd" d="M192,417.7H429.2v-15H192v15Z" class="g0_56"/>
<path fill-rule="evenodd" d="M194.5,432.7H429.2v-15H194.5v15Z" class="g0_56"/>
<path fill-rule="evenodd" d="M194.5,447.8H429.2V432.7H194.5v15.1Z" class="g0_56"/>
<path fill-rule="evenodd" d="M189.8,463.2H429.6V448.1H189.8v15.1Z" class="g0_56"/>
<path fill-rule="evenodd" d="M189.8,478.2H429.6v-15H189.8v15Z" class="g0_56"/>
<path fill-rule="evenodd" d="M189.8,493.2H429.6v-15H189.8v15Z" class="g0_56"/>
<path fill-rule="evenodd" d="M189.8,508.5H429.6V493.2H189.8v15.3Z" class="g0_56"/>
<path fill-rule="evenodd" d="M189.4,523.5H428.5v-15H189.4v15Z" class="g0_56"/>
<path fill-rule="evenodd" d="M189.4,538.5H428.5v-15H189.4v15Z" class="g0_56"/>
<path fill-rule="evenodd" d="M189.4,553.6H428.5V538.5H189.4v15.1Z" class="g0_56"/>
<path fill-rule="evenodd" d="M189.8,568.6H428.1v-15H189.8v15Z" class="g0_56"/>
<path fill-rule="evenodd" d="M189.8,583.6H428.1v-15H189.8v15Z" class="g0_56"/>
<path fill-rule="evenodd" d="M208.5,598.7H429.6V583.6H208.5v15.1Z" class="g0_56"/>
<path fill-rule="evenodd" d="M189.8,613.7h238v-15h-238v15Z" class="g0_56"/>
<path fill-rule="evenodd" d="M189.8,628.8h238V613.7h-238v15.1Z" class="g0_56"/>
<path fill-rule="evenodd" d="M189.8,643.8H428.1v-15H189.8v15Z" class="g0_56"/>
<path fill-rule="evenodd" d="M189.8,658.8H428.1v-15H189.8v15Z" class="g0_56"/>
<path fill-rule="evenodd" d="M189.8,673.9H428.1V658.8H189.8v15.1Z" class="g0_56"/>
<path fill-rule="evenodd" d="M189.4,689.1H428.1V673.9H189.4v15.2Z" class="g0_56"/>
<path fill-rule="evenodd" d="M189.4,704.1H428.1v-15H189.4v15Z" class="g0_56"/>
<path fill-rule="evenodd" d="M189.4,719.1H428.1v-15H189.4v15Z" class="g0_56"/>
<path fill-rule="evenodd" d="M189.4,734.2H428.1V719.1H189.4v15.1Z" class="g0_56"/>
<path fill-rule="evenodd" d="M189.4,749.2H428.1v-15H189.4v15Z" class="g0_56"/>
<path fill-rule="evenodd" d="M189.4,764.2H427.8v-15H189.4v15Z" class="g0_56"/>
<path fill-rule="evenodd" d="M189.4,779.3H427.8V764.2H189.4v15.1Z" class="g0_56"/>
<path fill-rule="evenodd" d="M189,794.3H428.1v-15H189v15Z" class="g0_56"/>
<path fill-rule="evenodd" d="M189,809.3H428.1v-15H189v15Z" class="g0_56"/>
<path fill-rule="evenodd" d="M189,824.4H428.1V809.3H189v15.1Z" class="g0_56"/>
<path fill-rule="evenodd" d="M189,839.5H428.1V824.4H189v15.1Z" class="g0_56"/>
<path fill-rule="evenodd" d="M189,854.5H428.1v-15H189v15Z" class="g0_56"/>
<path fill-rule="evenodd" d="M189,869.7H427.4V854.5H189v15.2Z" class="g0_56"/>
<path fill-rule="evenodd" d="M189,884.7H427.4v-15H189v15Z" class="g0_56"/>
<path fill-rule="evenodd" d="M189,899.8H427.4V884.7H189v15.1Z" class="g0_56"/>
<path fill-rule="evenodd" d="M190.5,914.8H429.6v-15H190.5v15Z" class="g0_56"/>
<path fill-rule="evenodd" d="M449.8,161.7H689.7v-15H449.8v15Z" class="g0_56"/>
<path fill-rule="evenodd" d="M449.8,176.9H689.7V161.7H449.8v15.2Z" class="g0_56"/>
<path fill-rule="evenodd" d="M449.8,192H689.7V176.9H449.8V192Z" class="g0_56"/>
<path fill-rule="evenodd" d="M449.5,207H689.7V192H449.5v15Z" class="g0_56"/>
<path fill-rule="evenodd" d="M449.5,222H689.7V207H449.5v15Z" class="g0_56"/>
<path fill-rule="evenodd" d="M449.5,237.1H689.7V222H449.5v15.1Z" class="g0_56"/>
<path fill-rule="evenodd" d="M449.5,252.1H689.7v-15H449.5v15Z" class="g0_56"/>
<path fill-rule="evenodd" d="M449.5,267.1H689.7v-15H449.5v15Z" class="g0_56"/>
<path fill-rule="evenodd" d="M449.5,282.2H688.9V267.1H449.5v15.1Z" class="g0_56"/>
<path fill-rule="evenodd" d="M449.5,297.2H688.9v-15H449.5v15Z" class="g0_56"/>
<path fill-rule="evenodd" d="M449.5,312.2H688.9v-15H449.5v15Z" class="g0_56"/>
<path fill-rule="evenodd" d="M467.8,327.3H689.7V312.2H467.8v15.1Z" class="g0_56"/>
<path fill-rule="evenodd" d="M450.2,342.5H688.9V327.3H450.2v15.2Z" class="g0_56"/>
<path fill-rule="evenodd" d="M450.2,357.6H688.9V342.5H450.2v15.1Z" class="g0_56"/>
<path fill-rule="evenodd" d="M467.8,373H689.7V357.9H467.8V373Z" class="g0_56"/>
<path fill-rule="evenodd" d="M449.5,388H688.9V373H449.5v15Z" class="g0_56"/>
<path fill-rule="evenodd" d="M449.5,403H688.9V388H449.5v15Z" class="g0_56"/>
<path fill-rule="evenodd" d="M449.5,418.1H688.9V403H449.5v15.1Z" class="g0_56"/>
<path fill-rule="evenodd" d="M449.5,433.1H688.9v-15H449.5v15Z" class="g0_56"/>
<path fill-rule="evenodd" d="M449.1,448.1H688.6v-15H449.1v15Z" class="g0_56"/>
<path fill-rule="evenodd" d="M449.1,463.2H688.6V448.1H449.1v15.1Z" class="g0_56"/>
<path fill-rule="evenodd" d="M449.1,478.2H688.6v-15H449.1v15Z" class="g0_56"/>
<path fill-rule="evenodd" d="M448.3,493.2H688.9v-15H448.3v15Z" class="g0_56"/>
<path fill-rule="evenodd" d="M448.3,508.5H688.9V493.2H448.3v15.3Z" class="g0_56"/>
<path fill-rule="evenodd" d="M448.3,523.5H688.9v-15H448.3v15Z" class="g0_56"/>
<path fill-rule="evenodd" d="M448.3,538.5H688.9v-15H448.3v15Z" class="g0_56"/>
<path fill-rule="evenodd" d="M448.3,553.6H688.9V538.5H448.3v15.1Z" class="g0_56"/>
<path fill-rule="evenodd" d="M448.3,568.6H688.9v-15H448.3v15Z" class="g0_56"/>
<path fill-rule="evenodd" d="M448.3,583.6H688.9v-15H448.3v15Z" class="g0_56"/>
<path fill-rule="evenodd" d="M448.3,598.7H688.9V583.6H448.3v15.1Z" class="g0_56"/>
<path fill-rule="evenodd" d="M448.3,613.7H688.9v-15H448.3v15Z" class="g0_56"/>
<path fill-rule="evenodd" d="M448.3,628.8H688.9V613.7H448.3v15.1Z" class="g0_56"/>
<path fill-rule="evenodd" d="M448.3,643.8H688.9v-15H448.3v15Z" class="g0_56"/>
<path fill-rule="evenodd" d="M448.3,658.8H688.9v-15H448.3v15Z" class="g0_56"/>
<path fill-rule="evenodd" d="M448.3,673.9H688.9V658.8H448.3v15.1Z" class="g0_56"/>
<path fill-rule="evenodd" d="M448.3,689.1H687.8V673.9H448.3v15.2Z" class="g0_56"/>
<path fill-rule="evenodd" d="M448.3,704.1H687.8v-15H448.3v15Z" class="g0_56"/>
<path fill-rule="evenodd" d="M448.3,719.1H687.8v-15H448.3v15Z" class="g0_56"/>
<path fill-rule="evenodd" d="M448.3,734.2H687.8V719.1H448.3v15.1Z" class="g0_56"/>
<path fill-rule="evenodd" d="M448.3,749.2H687.8v-15H448.3v15Z" class="g0_56"/>
<path fill-rule="evenodd" d="M448.3,764.2H687.8v-15H448.3v15Z" class="g0_56"/>
<path fill-rule="evenodd" d="M448.3,779.3H687.8V764.2H448.3v15.1Z" class="g0_56"/>
<path fill-rule="evenodd" d="M448.3,794.3H687.8v-15H448.3v15Z" class="g0_56"/>
<path fill-rule="evenodd" d="M448.3,809.3H687.8v-15H448.3v15Z" class="g0_56"/>
<path fill-rule="evenodd" d="M448.3,824.4H687.8V809.3H448.3v15.1Z" class="g0_56"/>
<path fill-rule="evenodd" d="M448.3,839.5H687.8V824.4H448.3v15.1Z" class="g0_56"/>
<path fill-rule="evenodd" d="M448.3,854.5H687.8v-15H448.3v15Z" class="g0_56"/>
<path fill-rule="evenodd" d="M448.3,869.7H687.8V854.5H448.3v15.2Z" class="g0_56"/>
<path fill-rule="evenodd" d="M448.3,884.7H687.8v-15H448.3v15Z" class="g0_56"/>
<path fill-rule="evenodd" d="M448.3,899.8H687.8V884.7H448.3v15.1Z" class="g0_56"/>
<path fill-rule="evenodd" d="M428.5,931.5H689.7V914.1H428.5v17.4Z" class="g0_56"/>
<path d="M168.1,120.2v48.1" class="g1_56"/>
<path d="M162.9,168V347.6" class="g2_56"/>
<path d="M437.6,146.4V915.6" class="g3_56"/>
</svg>