<?xml version="1.0" encoding="UTF-8" standalone="no"?>
<!DOCTYPE svg PUBLIC "-//W3C//DTD SVG 1.1//EN"
"http://www.w3.org/Graphics/SVG/1.1/DTD/svg11.dtd">
<svg viewBox="0 0 909 1285" version="1.1" xmlns="http://www.w3.org/2000/svg" xmlns:xlink="http://www.w3.org/1999/xlink">
<defs>
<style type="text/css"><![CDATA[
.g0_80{
fill: #FFFFFF;
}
]]></style>
</defs>
<path fill-rule="evenodd" d="M578,125.8H684.7V110H578v15.8Z" class="g0_80"/>
<path fill-rule="evenodd" d="M186.3,162.3H424.7V147.1H186.3v15.2Z" class="g0_80"/>
<path fill-rule="evenodd" d="M186.3,177.3H424.7v-15H186.3v15Z" class="g0_80"/>
<path fill-rule="evenodd" d="M186.3,192.3H424.7v-15H186.3v15Z" class="g0_80"/>
<path fill-rule="evenodd" d="M186.3,207.4H424.7V192.3H186.3v15.1Z" class="g0_80"/>
<path fill-rule="evenodd" d="M186.3,222.4H424.7v-15H186.3v15Z" class="g0_80"/>
<path fill-rule="evenodd" d="M186.3,237.4H424.7v-15H186.3v15Z" class="g0_80"/>
<path fill-rule="evenodd" d="M204.3,252.5H424.7V237.4H204.3v15.1Z" class="g0_80"/>
<path fill-rule="evenodd" d="M186.3,267.5h238v-15h-238v15Z" class="g0_80"/>
<path fill-rule="evenodd" d="M186.3,282.5h238v-15h-238v15Z" class="g0_80"/>
<path fill-rule="evenodd" d="M185.9,297.6H424.7V282.5H185.9v15.1Z" class="g0_80"/>
<path fill-rule="evenodd" d="M185.9,312.6H424.7v-15H185.9v15Z" class="g0_80"/>
<path fill-rule="evenodd" d="M185.9,327.8H424.7V312.6H185.9v15.2Z" class="g0_80"/>
<path fill-rule="evenodd" d="M185.9,342.9H424.7V327.8H185.9v15.1Z" class="g0_80"/>
<path fill-rule="evenodd" d="M185.6,357.9H424.7v-15H185.6v15Z" class="g0_80"/>
<path fill-rule="evenodd" d="M185.6,373H424.7V357.9H185.6V373Z" class="g0_80"/>
<path fill-rule="evenodd" d="M204.3,388H424.7V373H204.3v15Z" class="g0_80"/>
<path fill-rule="evenodd" d="M185.9,403H424.3V388H185.9v15Z" class="g0_80"/>
<path fill-rule="evenodd" d="M185.9,418.1H424.3V403H185.9v15.1Z" class="g0_80"/>
<path fill-rule="evenodd" d="M204.3,433.1H424.7v-15H204.3v15Z" class="g0_80"/>
<path fill-rule="evenodd" d="M185.6,448.1H424.7v-15H185.6v15Z" class="g0_80"/>
<path fill-rule="evenodd" d="M185.6,463.2H424.7V448.1H185.6v15.1Z" class="g0_80"/>
<path fill-rule="evenodd" d="M185.6,478.2H424.7v-15H185.6v15Z" class="g0_80"/>
<path fill-rule="evenodd" d="M185.6,493.2H424.7v-15H185.6v15Z" class="g0_80"/>
<path fill-rule="evenodd" d="M185.6,508.5H424.7V493.2H185.6v15.3Z" class="g0_80"/>
<path fill-rule="evenodd" d="M185.6,523.5H424.7v-15H185.6v15Z" class="g0_80"/>
<path fill-rule="evenodd" d="M185.6,538.5H424.7v-15H185.6v15Z" class="g0_80"/>
<path fill-rule="evenodd" d="M185.6,553.6H424.3V538.5H185.6v15.1Z" class="g0_80"/>
<path fill-rule="evenodd" d="M185.6,568.6H424.3v-15H185.6v15Z" class="g0_80"/>
<path fill-rule="evenodd" d="M185.6,583.6H424.7v-15H185.6v15Z" class="g0_80"/>
<path fill-rule="evenodd" d="M185.6,598.7H424.7V583.6H185.6v15.1Z" class="g0_80"/>
<path fill-rule="evenodd" d="M185.6,613.7H424.7v-15H185.6v15Z" class="g0_80"/>
<path fill-rule="evenodd" d="M184.8,628.8H424.7V613.7H184.8v15.1Z" class="g0_80"/>
<path fill-rule="evenodd" d="M184.8,643.8H424.7v-15H184.8v15Z" class="g0_80"/>
<path fill-rule="evenodd" d="M184.8,658.8H424.7v-15H184.8v15Z" class="g0_80"/>
<path fill-rule="evenodd" d="M184.8,673.9H424.7V658.8H184.8v15.1Z" class="g0_80"/>
<path fill-rule="evenodd" d="M184.8,689.1H424.7V673.9H184.8v15.2Z" class="g0_80"/>
<path fill-rule="evenodd" d="M184.8,704.1H424.7v-15H184.8v15Z" class="g0_80"/>
<path fill-rule="evenodd" d="M184.8,719.1H423.6v-15H184.8v15Z" class="g0_80"/>
<path fill-rule="evenodd" d="M184.8,734.2H423.6V719.1H184.8v15.1Z" class="g0_80"/>
<path fill-rule="evenodd" d="M184.8,749.2H423.6v-15H184.8v15Z" class="g0_80"/>
<path fill-rule="evenodd" d="M185.2,764.2H423.9v-15H185.2v15Z" class="g0_80"/>
<path fill-rule="evenodd" d="M185.2,779.3H423.9V764.2H185.2v15.1Z" class="g0_80"/>
<path fill-rule="evenodd" d="M185.2,794.3H423.6v-15H185.2v15Z" class="g0_80"/>
<path fill-rule="evenodd" d="M185.2,809.3H423.6v-15H185.2v15Z" class="g0_80"/>
<path fill-rule="evenodd" d="M184.8,824.4H423.6V809.3H184.8v15.1Z" class="g0_80"/>
<path fill-rule="evenodd" d="M184.8,839.5H423.6V824.4H184.8v15.1Z" class="g0_80"/>
<path fill-rule="evenodd" d="M203.5,854.5H424.7v-15H203.5v15Z" class="g0_80"/>
<path fill-rule="evenodd" d="M185.2,869.7H423.9V854.5H185.2v15.2Z" class="g0_80"/>
<path fill-rule="evenodd" d="M185.2,884.7H423.9v-15H185.2v15Z" class="g0_80"/>
<path fill-rule="evenodd" d="M204.3,899.8h220V884.7h-220v15.1Z" class="g0_80"/>
<path fill-rule="evenodd" d="M444.8,161.7H684.4v-15H444.8v15Z" class="g0_80"/>
<path fill-rule="evenodd" d="M444.8,176.9H684.4V161.7H444.8v15.2Z" class="g0_80"/>
<path fill-rule="evenodd" d="M444.8,192H684.4V176.9H444.8V192Z" class="g0_80"/>
<path fill-rule="evenodd" d="M444.8,207H684.7V192H444.8v15Z" class="g0_80"/>
<path fill-rule="evenodd" d="M444.8,222H684.7V207H444.8v15Z" class="g0_80"/>
<path fill-rule="evenodd" d="M444.8,237.1H684.7V222H444.8v15.1Z" class="g0_80"/>
<path fill-rule="evenodd" d="M444.8,252.1H684.7v-15H444.8v15Z" class="g0_80"/>
<path fill-rule="evenodd" d="M444.8,267.1H684.7v-15H444.8v15Z" class="g0_80"/>
<path fill-rule="evenodd" d="M444.8,282.2H684.7V267.1H444.8v15.1Z" class="g0_80"/>
<path fill-rule="evenodd" d="M444.8,297.2H684.7v-15H444.8v15Z" class="g0_80"/>
<path fill-rule="evenodd" d="M444.8,312.2H684.7v-15H444.8v15Z" class="g0_80"/>
<path fill-rule="evenodd" d="M444.8,327.3H684.7V312.2H444.8v15.1Z" class="g0_80"/>
<path fill-rule="evenodd" d="M445.2,342.5H684.4V327.3H445.2v15.2Z" class="g0_80"/>
<path fill-rule="evenodd" d="M445.2,357.6H684.4V342.5H445.2v15.1Z" class="g0_80"/>
<path fill-rule="evenodd" d="M445.2,372.6H684.4v-15H445.2v15Z" class="g0_80"/>
<path fill-rule="evenodd" d="M445.2,387.6H684.4v-15H445.2v15Z" class="g0_80"/>
<path fill-rule="evenodd" d="M445.2,402.7H684.4V387.6H445.2v15.1Z" class="g0_80"/>
<path fill-rule="evenodd" d="M445.2,417.7H684.4v-15H445.2v15Z" class="g0_80"/>
<path fill-rule="evenodd" d="M445.2,432.7H684v-15H445.2v15Z" class="g0_80"/>
<path fill-rule="evenodd" d="M445.2,447.8H684V432.7H445.2v15.1Z" class="g0_80"/>
<path fill-rule="evenodd" d="M444.5,462.8H684v-15H444.5v15Z" class="g0_80"/>
<path fill-rule="evenodd" d="M444.5,477.8H684v-15H444.5v15Z" class="g0_80"/>
<path fill-rule="evenodd" d="M444.5,492.9H684V477.8H444.5v15.1Z" class="g0_80"/>
<path fill-rule="evenodd" d="M444.5,507.9H684v-15H444.5v15Z" class="g0_80"/>
<path fill-rule="evenodd" d="M444.5,523.1H684V507.9H444.5v15.2Z" class="g0_80"/>
<path fill-rule="evenodd" d="M444.5,538.2H684V523.1H444.5v15.1Z" class="g0_80"/>
<path fill-rule="evenodd" d="M444.5,553.2H684v-15H444.5v15Z" class="g0_80"/>
<path fill-rule="evenodd" d="M444.5,568.2H684v-15H444.5v15Z" class="g0_80"/>
<path fill-rule="evenodd" d="M444.5,583.3H684V568.2H444.5v15.1Z" class="g0_80"/>
<path fill-rule="evenodd" d="M444.5,598.3H684v-15H444.5v15Z" class="g0_80"/>
<path fill-rule="evenodd" d="M444.5,613.4H684V598.3H444.5v15.1Z" class="g0_80"/>
<path fill-rule="evenodd" d="M444.5,628.4H684v-15H444.5v15Z" class="g0_80"/>
<path fill-rule="evenodd" d="M444.5,643.4H684v-15H444.5v15Z" class="g0_80"/>
<path fill-rule="evenodd" d="M444.5,658.5H684V643.4H444.5v15.1Z" class="g0_80"/>
<path fill-rule="evenodd" d="M444.5,673.5H684v-15H444.5v15Z" class="g0_80"/>
<path fill-rule="evenodd" d="M444.5,688.5H683.6v-15H444.5v15Z" class="g0_80"/>
<path fill-rule="evenodd" d="M444.5,703.7H683.6V688.5H444.5v15.2Z" class="g0_80"/>
<path fill-rule="evenodd" d="M444.5,718.8H683.6V703.7H444.5v15.1Z" class="g0_80"/>
<path fill-rule="evenodd" d="M444.5,733.8H683.3v-15H444.5v15Z" class="g0_80"/>
<path fill-rule="evenodd" d="M444.5,748.8H683.3v-15H444.5v15Z" class="g0_80"/>
<path fill-rule="evenodd" d="M444.5,763.9H683.3V748.8H444.5v15.1Z" class="g0_80"/>
<path fill-rule="evenodd" d="M444.8,778.9H684v-15H444.8v15Z" class="g0_80"/>
<path fill-rule="evenodd" d="M444.8,793.9H684v-15H444.8v15Z" class="g0_80"/>
<path fill-rule="evenodd" d="M444.8,809H684V793.9H444.8V809Z" class="g0_80"/>
<path fill-rule="evenodd" d="M443.7,824H683.6V809H443.7v15Z" class="g0_80"/>
<path fill-rule="evenodd" d="M443.7,839.1H683.6V824H443.7v15.1Z" class="g0_80"/>
<path fill-rule="evenodd" d="M462.8,854.1H684.7v-15H462.8v15Z" class="g0_80"/>
<path fill-rule="evenodd" d="M462.8,869.2H684.7V854.1H462.8v15.1Z" class="g0_80"/>
<path fill-rule="evenodd" d="M425.4,902H684.7V886H425.4v16Z" class="g0_80"/>
</svg>