<?xml version="1.0" encoding="UTF-8" standalone="no"?>
<!DOCTYPE svg PUBLIC "-//W3C//DTD SVG 1.1//EN"
"http://www.w3.org/Graphics/SVG/1.1/DTD/svg11.dtd">
<svg viewBox="0 0 909 1285" version="1.1" xmlns="http://www.w3.org/2000/svg" xmlns:xlink="http://www.w3.org/1999/xlink">
<defs>
<style type="text/css"><![CDATA[
.g0_153{
fill: #FFFFFF;
}
.g1_153{
fill: none;
stroke: #000000;
stroke-width: 0.381;
stroke-linecap: butt;
stroke-linejoin: round;
}
.g2_153{
fill: none;
stroke: #000000;
stroke-width: 0.763;
stroke-linecap: butt;
stroke-linejoin: round;
}
]]></style>
</defs>
<path fill-rule="evenodd" d="M293.2,125.8h498V110h-498v15.8Z" class="g0_153"/>
<path fill-rule="evenodd" d="M311.6,161.7H533.1v-15H311.6v15Z" class="g0_153"/>
<path fill-rule="evenodd" d="M292.5,176.9H533.1V161.7H292.5v15.2Z" class="g0_153"/>
<path fill-rule="evenodd" d="M292.5,192H533.1V176.9H292.5V192Z" class="g0_153"/>
<path fill-rule="evenodd" d="M292.5,207H533.1V192H292.5v15Z" class="g0_153"/>
<path fill-rule="evenodd" d="M292.5,222H533.1V207H292.5v15Z" class="g0_153"/>
<path fill-rule="evenodd" d="M292.5,237.1H533.1V222H292.5v15.1Z" class="g0_153"/>
<path fill-rule="evenodd" d="M292.5,252.1H533.1v-15H292.5v15Z" class="g0_153"/>
<path fill-rule="evenodd" d="M292.5,267.1H533.1v-15H292.5v15Z" class="g0_153"/>
<path fill-rule="evenodd" d="M292.5,282.2H531.6V267.1H292.5v15.1Z" class="g0_153"/>
<path fill-rule="evenodd" d="M292.5,297.2H531.6v-15H292.5v15Z" class="g0_153"/>
<path fill-rule="evenodd" d="M292.5,312.2H532.1v-15H292.5v15Z" class="g0_153"/>
<path fill-rule="evenodd" d="M292.5,327.3H532.1V312.2H292.5v15.1Z" class="g0_153"/>
<path fill-rule="evenodd" d="M292.5,342.5H532.1V327.3H292.5v15.2Z" class="g0_153"/>
<path fill-rule="evenodd" d="M291.8,357.6H531.6V342.5H291.8v15.1Z" class="g0_153"/>
<path fill-rule="evenodd" d="M291.8,372.6H531.6v-15H291.8v15Z" class="g0_153"/>
<path fill-rule="evenodd" d="M291.8,387.6H531.6v-15H291.8v15Z" class="g0_153"/>
<path fill-rule="evenodd" d="M291.8,402.7H531.6V387.6H291.8v15.1Z" class="g0_153"/>
<path fill-rule="evenodd" d="M291.8,417.7H531.6v-15H291.8v15Z" class="g0_153"/>
<path fill-rule="evenodd" d="M291.8,432.7H531.6v-15H291.8v15Z" class="g0_153"/>
<path fill-rule="evenodd" d="M291.8,447.8H531.6V432.7H291.8v15.1Z" class="g0_153"/>
<path fill-rule="evenodd" d="M291.8,462.8H531.6v-15H291.8v15Z" class="g0_153"/>
<path fill-rule="evenodd" d="M291.8,477.8H531.6v-15H291.8v15Z" class="g0_153"/>
<path fill-rule="evenodd" d="M291.8,492.9H531.6V477.8H291.8v15.1Z" class="g0_153"/>
<path fill-rule="evenodd" d="M291,507.9H530.9v-15H291v15Z" class="g0_153"/>
<path fill-rule="evenodd" d="M291,523.1H530.9V507.9H291v15.2Z" class="g0_153"/>
<path fill-rule="evenodd" d="M291.4,538.2H530.5V523.1H291.4v15.1Z" class="g0_153"/>
<path fill-rule="evenodd" d="M291.4,553.2H530.5v-15H291.4v15Z" class="g0_153"/>
<path fill-rule="evenodd" d="M291.4,568.2H530.5v-15H291.4v15Z" class="g0_153"/>
<path fill-rule="evenodd" d="M309,583.6H533.1v-15H309v15Z" class="g0_153"/>
<path fill-rule="evenodd" d="M291.4,598.7H533.1V583.6H291.4v15.1Z" class="g0_153"/>
<path fill-rule="evenodd" d="M309,613.7H533.1v-15H309v15Z" class="g0_153"/>
<path fill-rule="evenodd" d="M290.7,628.8H529.8V613.7H290.7v15.1Z" class="g0_153"/>
<path fill-rule="evenodd" d="M290.7,643.8H529.8v-15H290.7v15Z" class="g0_153"/>
<path fill-rule="evenodd" d="M290.3,658.8H533.1v-15H290.3v15Z" class="g0_153"/>
<path fill-rule="evenodd" d="M290.3,673.9H533.1V658.8H290.3v15.1Z" class="g0_153"/>
<path fill-rule="evenodd" d="M290.3,689.1H533.1V673.9H290.3v15.2Z" class="g0_153"/>
<path fill-rule="evenodd" d="M290.3,704.1H533.1v-15H290.3v15Z" class="g0_153"/>
<path fill-rule="evenodd" d="M290.3,719.1H533.1v-15H290.3v15Z" class="g0_153"/>
<path fill-rule="evenodd" d="M289.9,734.2H529.4V719.1H289.9v15.1Z" class="g0_153"/>
<path fill-rule="evenodd" d="M289.9,749.2H529.4v-15H289.9v15Z" class="g0_153"/>
<path fill-rule="evenodd" d="M289.9,764.2H529.4v-15H289.9v15Z" class="g0_153"/>
<path fill-rule="evenodd" d="M289.9,779.3H529.4V764.2H289.9v15.1Z" class="g0_153"/>
<path fill-rule="evenodd" d="M289.9,794.3H529.4v-15H289.9v15Z" class="g0_153"/>
<path fill-rule="evenodd" d="M289.9,809.3H529.4v-15H289.9v15Z" class="g0_153"/>
<path fill-rule="evenodd" d="M289.9,824.4H529.4V809.3H289.9v15.1Z" class="g0_153"/>
<path fill-rule="evenodd" d="M289.9,839.5H529V824.4H289.9v15.1Z" class="g0_153"/>
<path fill-rule="evenodd" d="M289.9,854.5H529v-15H289.9v15Z" class="g0_153"/>
<path fill-rule="evenodd" d="M289.9,869.7H529V854.5H289.9v15.2Z" class="g0_153"/>
<path fill-rule="evenodd" d="M289.9,884.7H529v-15H289.9v15Z" class="g0_153"/>
<path fill-rule="evenodd" d="M294,899.8H533.1V884.7H294v15.1Z" class="g0_153"/>
<path fill-rule="evenodd" d="M553.2,161.7h238v-15h-238v15Z" class="g0_153"/>
<path fill-rule="evenodd" d="M553.2,176.9h238V161.7h-238v15.2Z" class="g0_153"/>
<path fill-rule="evenodd" d="M552.9,192.3h238v-15h-238v15Z" class="g0_153"/>
<path fill-rule="evenodd" d="M552.9,207.4h238V192.3h-238v15.1Z" class="g0_153"/>
<path fill-rule="evenodd" d="M552.1,222.4H790.9v-15H552.1v15Z" class="g0_153"/>
<path fill-rule="evenodd" d="M552.1,237.4H790.9v-15H552.1v15Z" class="g0_153"/>
<path fill-rule="evenodd" d="M552.1,252.5H790.9V237.4H552.1v15.1Z" class="g0_153"/>
<path fill-rule="evenodd" d="M552.1,267.5h238v-15h-238v15Z" class="g0_153"/>
<path fill-rule="evenodd" d="M552.1,282.5h238v-15h-238v15Z" class="g0_153"/>
<path fill-rule="evenodd" d="M552.1,297.6H790.9V282.5H552.1v15.1Z" class="g0_153"/>
<path fill-rule="evenodd" d="M552.1,312.6H790.9v-15H552.1v15Z" class="g0_153"/>
<path fill-rule="evenodd" d="M552.1,327.8H790.9V312.6H552.1v15.2Z" class="g0_153"/>
<path fill-rule="evenodd" d="M552.1,342.9H790.9V327.8H552.1v15.1Z" class="g0_153"/>
<path fill-rule="evenodd" d="M552.1,357.9H790.9v-15H552.1v15Z" class="g0_153"/>
<path fill-rule="evenodd" d="M551.8,373H790.9V357.9H551.8V373Z" class="g0_153"/>
<path fill-rule="evenodd" d="M551.8,388H790.9V373H551.8v15Z" class="g0_153"/>
<path fill-rule="evenodd" d="M551.8,403H790.9V388H551.8v15Z" class="g0_153"/>
<path fill-rule="evenodd" d="M551.8,418.1H790.9V403H551.8v15.1Z" class="g0_153"/>
<path fill-rule="evenodd" d="M551,433.1H790.1v-15H551v15Z" class="g0_153"/>
<path fill-rule="evenodd" d="M551,448.1H790.1v-15H551v15Z" class="g0_153"/>
<path fill-rule="evenodd" d="M551,463.2H790.1V448.1H551v15.1Z" class="g0_153"/>
<path fill-rule="evenodd" d="M549.9,478.2H790.1v-15H549.9v15Z" class="g0_153"/>
<path fill-rule="evenodd" d="M549.9,493.2H790.1v-15H549.9v15Z" class="g0_153"/>
<path fill-rule="evenodd" d="M549.9,508.5H790.1V493.2H549.9v15.3Z" class="g0_153"/>
<path fill-rule="evenodd" d="M549.9,523.5H790.1v-15H549.9v15Z" class="g0_153"/>
<path fill-rule="evenodd" d="M549.9,538.5H790.1v-15H549.9v15Z" class="g0_153"/>
<path fill-rule="evenodd" d="M549.9,553.6H790.1V538.5H549.9v15.1Z" class="g0_153"/>
<path fill-rule="evenodd" d="M549.9,568.6H790.1v-15H549.9v15Z" class="g0_153"/>
<path fill-rule="evenodd" d="M549.9,583.6H790.1v-15H549.9v15Z" class="g0_153"/>
<path fill-rule="evenodd" d="M549.9,598.7H790.1V583.6H549.9v15.1Z" class="g0_153"/>
<path fill-rule="evenodd" d="M549.9,613.7H790.1v-15H549.9v15Z" class="g0_153"/>
<path fill-rule="evenodd" d="M549.6,628.8H789.4V613.7H549.6v15.1Z" class="g0_153"/>
<path fill-rule="evenodd" d="M549.6,643.8H789.4v-15H549.6v15Z" class="g0_153"/>
<path fill-rule="evenodd" d="M549.6,658.8H789.4v-15H549.6v15Z" class="g0_153"/>
<path fill-rule="evenodd" d="M549.9,673.9H788.7V658.8H549.9v15.1Z" class="g0_153"/>
<path fill-rule="evenodd" d="M549.9,689.1H788.7V673.9H549.9v15.2Z" class="g0_153"/>
<path fill-rule="evenodd" d="M549.9,704.1H789v-15H549.9v15Z" class="g0_153"/>
<path fill-rule="evenodd" d="M549.9,719.1H789v-15H549.9v15Z" class="g0_153"/>
<path fill-rule="evenodd" d="M549.2,734.2H789V719.1H549.2v15.1Z" class="g0_153"/>
<path fill-rule="evenodd" d="M549.2,749.2H789v-15H549.2v15Z" class="g0_153"/>
<path fill-rule="evenodd" d="M549.2,764.2H789v-15H549.2v15Z" class="g0_153"/>
<path fill-rule="evenodd" d="M549.2,779.3H789V764.2H549.2v15.1Z" class="g0_153"/>
<path fill-rule="evenodd" d="M549.2,794.3H789v-15H549.2v15Z" class="g0_153"/>
<path fill-rule="evenodd" d="M549.2,809.3H789v-15H549.2v15Z" class="g0_153"/>
<path fill-rule="evenodd" d="M549.2,824.4H789V809.3H549.2v15.1Z" class="g0_153"/>
<path fill-rule="evenodd" d="M549.6,839.5H788.7V824.4H549.6v15.1Z" class="g0_153"/>
<path fill-rule="evenodd" d="M549.6,854.5H788.7v-15H549.6v15Z" class="g0_153"/>
<path fill-rule="evenodd" d="M549.6,869.7H788.7V854.5H549.6v15.2Z" class="g0_153"/>
<path fill-rule="evenodd" d="M549.6,884.7H788.7v-15H549.6v15Z" class="g0_153"/>
<path fill-rule="evenodd" d="M527.2,917.4h264V899.8h-264v17.6Z" class="g0_153"/>
<path d="M201.1,840.1V986.8" class="g1_153"/>
<path d="M201.8,545.6v139" class="g2_153"/>
<path d="M203.3,89.1V656.7M204,521.1V857.4M230.8,88.8V973.6M539.2,147.8V916" class="g1_153"/>
</svg>