<?xml version="1.0" encoding="UTF-8" standalone="no"?>
<!DOCTYPE svg PUBLIC "-//W3C//DTD SVG 1.1//EN"
"http://www.w3.org/Graphics/SVG/1.1/DTD/svg11.dtd">
<svg viewBox="0 0 909 1285" version="1.1" xmlns="http://www.w3.org/2000/svg" xmlns:xlink="http://www.w3.org/1999/xlink">
<defs>
<style type="text/css"><![CDATA[
.g0_290{
fill: #FFFFFF;
}
.g1_290{
fill: none;
stroke: #000000;
stroke-width: 0.381;
stroke-linecap: butt;
stroke-linejoin: round;
}
]]></style>
</defs>
<path fill-rule="evenodd" d="M643.5,125.8h59.4V110H643.5v15.8Z" class="g0_290"/>
<path fill-rule="evenodd" d="M177.7,161.7H416.8V147.1H177.7v14.6Z" class="g0_290"/>
<path fill-rule="evenodd" d="M177.7,176.4H416.8V161.7H177.7v14.7Z" class="g0_290"/>
<path fill-rule="evenodd" d="M177.7,191.1H416.4V176.4H177.7v14.7Z" class="g0_290"/>
<path fill-rule="evenodd" d="M177.7,205.7H416.4V191.1H177.7v14.6Z" class="g0_290"/>
<path fill-rule="evenodd" d="M195.3,220.4H416.8V205.7H195.3v14.7Z" class="g0_290"/>
<path fill-rule="evenodd" d="M176.9,235.6H416.4V220.8H176.9v14.8Z" class="g0_290"/>
<path fill-rule="evenodd" d="M176.9,250.3H416.4V235.6H176.9v14.7Z" class="g0_290"/>
<path fill-rule="evenodd" d="M176.9,264.9H416.4V250.3H176.9v14.6Z" class="g0_290"/>
<path fill-rule="evenodd" d="M176.9,279.6h239V264.9h-239v14.7Z" class="g0_290"/>
<path fill-rule="evenodd" d="M176.9,294.3h239V279.6h-239v14.7Z" class="g0_290"/>
<path fill-rule="evenodd" d="M176.9,308.9h239V294.3h-239v14.6Z" class="g0_290"/>
<path fill-rule="evenodd" d="M176.9,323.6h239V308.9h-239v14.7Z" class="g0_290"/>
<path fill-rule="evenodd" d="M176.9,338.6h239v-15h-239v15Z" class="g0_290"/>
<path fill-rule="evenodd" d="M176.9,353.4h239V338.7h-239v14.7Z" class="g0_290"/>
<path fill-rule="evenodd" d="M176.2,368.4H415.7V353.7H176.2v14.7Z" class="g0_290"/>
<path fill-rule="evenodd" d="M176.2,383.1H415.7V368.4H176.2v14.7Z" class="g0_290"/>
<path fill-rule="evenodd" d="M176.2,397.7H415.7V383.1H176.2v14.6Z" class="g0_290"/>
<path fill-rule="evenodd" d="M176.2,412.4H415.7V397.7H176.2v14.7Z" class="g0_290"/>
<path fill-rule="evenodd" d="M176.2,427.8H415.3V413.1H176.2v14.7Z" class="g0_290"/>
<path fill-rule="evenodd" d="M176.2,442.5H415.3V427.8H176.2v14.7Z" class="g0_290"/>
<path fill-rule="evenodd" d="M175.8,457.5H415.3V442.8H175.8v14.7Z" class="g0_290"/>
<path fill-rule="evenodd" d="M175.8,472.2H415.3V457.5H175.8v14.7Z" class="g0_290"/>
<path fill-rule="evenodd" d="M175.8,486.8H415.3V472.2H175.8v14.6Z" class="g0_290"/>
<path fill-rule="evenodd" d="M175.8,501.5H414.9V486.8H175.8v14.7Z" class="g0_290"/>
<path fill-rule="evenodd" d="M175.8,516.2H414.9V501.5H175.8v14.7Z" class="g0_290"/>
<path fill-rule="evenodd" d="M174.4,531.2H414.9V516.5H174.4v14.7Z" class="g0_290"/>
<path fill-rule="evenodd" d="M174.4,545.9H414.9V531.2H174.4v14.7Z" class="g0_290"/>
<path fill-rule="evenodd" d="M174.4,560.5H414.9V545.9H174.4v14.6Z" class="g0_290"/>
<path fill-rule="evenodd" d="M174.4,575.2H414.9V560.5H174.4v14.7Z" class="g0_290"/>
<path fill-rule="evenodd" d="M175.8,589.9H414.9V575.2H175.8v14.7Z" class="g0_290"/>
<path fill-rule="evenodd" d="M175.8,604.6H414.9V589.9H175.8v14.7Z" class="g0_290"/>
<path fill-rule="evenodd" d="M173.6,619.6H414.9V604.9H173.6v14.7Z" class="g0_290"/>
<path fill-rule="evenodd" d="M173.6,634.3H414.9V619.6H173.6v14.7Z" class="g0_290"/>
<path fill-rule="evenodd" d="M173.6,648.9H414.9V634.3H173.6v14.6Z" class="g0_290"/>
<path fill-rule="evenodd" d="M173.6,663.6H414.9V648.9H173.6v14.7Z" class="g0_290"/>
<path fill-rule="evenodd" d="M173.6,678.3H414.9V663.6H173.6v14.7Z" class="g0_290"/>
<path fill-rule="evenodd" d="M173.6,692.9H414.9V678.3H173.6v14.6Z" class="g0_290"/>
<path fill-rule="evenodd" d="M173.6,707.6H414.9V692.9H173.6v14.7Z" class="g0_290"/>
<path fill-rule="evenodd" d="M173.6,722.3H414.9V707.6H173.6v14.7Z" class="g0_290"/>
<path fill-rule="evenodd" d="M173.6,736.9H414.9V722.3H173.6v14.6Z" class="g0_290"/>
<path fill-rule="evenodd" d="M173.6,751.6H414.9V736.9H173.6v14.7Z" class="g0_290"/>
<path fill-rule="evenodd" d="M173.6,766.3H414.9V751.6H173.6v14.7Z" class="g0_290"/>
<path fill-rule="evenodd" d="M174.4,780.9H414.2V766.3H174.4v14.6Z" class="g0_290"/>
<path fill-rule="evenodd" d="M174.4,795.6H414.2V780.9H174.4v14.7Z" class="g0_290"/>
<path fill-rule="evenodd" d="M174.4,810.3H414.2V795.6H174.4v14.7Z" class="g0_290"/>
<path fill-rule="evenodd" d="M174.4,824.9H414.2V810.3H174.4v14.6Z" class="g0_290"/>
<path fill-rule="evenodd" d="M174.4,839.6H414.2V824.9H174.4v14.7Z" class="g0_290"/>
<path fill-rule="evenodd" d="M174.7,854.7H413.5V840H174.7v14.7Z" class="g0_290"/>
<path fill-rule="evenodd" d="M174.7,869.3H413.5V854.7H174.7v14.6Z" class="g0_290"/>
<path fill-rule="evenodd" d="M176.6,884H416.8V869.3H176.6V884Z" class="g0_290"/>
<path fill-rule="evenodd" d="M437.1,161.4H677V146.7H437.1v14.7Z" class="g0_290"/>
<path fill-rule="evenodd" d="M437.1,176H677V161.4H437.1V176Z" class="g0_290"/>
<path fill-rule="evenodd" d="M437.1,190.7H677V176H437.1v14.7Z" class="g0_290"/>
<path fill-rule="evenodd" d="M437.1,205.4H677V190.7H437.1v14.7Z" class="g0_290"/>
<path fill-rule="evenodd" d="M437.1,220H677V205.4H437.1V220Z" class="g0_290"/>
<path fill-rule="evenodd" d="M437.1,234.7H677V220H437.1v14.7Z" class="g0_290"/>
<path fill-rule="evenodd" d="M455.1,249.7H677V235.1H455.1v14.6Z" class="g0_290"/>
<path fill-rule="evenodd" d="M436.8,264.4H676.7V249.7H436.8v14.7Z" class="g0_290"/>
<path fill-rule="evenodd" d="M436.8,279.1H676.7V264.4H436.8v14.7Z" class="g0_290"/>
<path fill-rule="evenodd" d="M455.1,294.3H677V279.4H455.1v14.9Z" class="g0_290"/>
<path fill-rule="evenodd" d="M437.1,308.9H677V294.3H437.1v14.6Z" class="g0_290"/>
<path fill-rule="evenodd" d="M437.1,323.6H677V308.9H437.1v14.7Z" class="g0_290"/>
<path fill-rule="evenodd" d="M434.6,338.3H677V323.6H434.6v14.7Z" class="g0_290"/>
<path fill-rule="evenodd" d="M436,353.4H677V338.7H436v14.7Z" class="g0_290"/>
<path fill-rule="evenodd" d="M436,368H677V353.4H436V368Z" class="g0_290"/>
<path fill-rule="evenodd" d="M436,382.7H677V368H436v14.7Z" class="g0_290"/>
<path fill-rule="evenodd" d="M454.4,397.7H677V383.1H454.4v14.6Z" class="g0_290"/>
<path fill-rule="evenodd" d="M436,412.8H676.3V398.1H436v14.7Z" class="g0_290"/>
<path fill-rule="evenodd" d="M436,427.4H676.3V412.8H436v14.6Z" class="g0_290"/>
<path fill-rule="evenodd" d="M436,442.5H676.3V427.4H436v15.1Z" class="g0_290"/>
<path fill-rule="evenodd" d="M436,457.1H676.3V442.5H436v14.6Z" class="g0_290"/>
<path fill-rule="evenodd" d="M435.3,472.2H675.9V457.5H435.3v14.7Z" class="g0_290"/>
<path fill-rule="evenodd" d="M435.3,486.8H675.9V472.2H435.3v14.6Z" class="g0_290"/>
<path fill-rule="evenodd" d="M454,501.5H677V486.8H454v14.7Z" class="g0_290"/>
<path fill-rule="evenodd" d="M435.7,516.2H675.9V501.5H435.7v14.7Z" class="g0_290"/>
<path fill-rule="evenodd" d="M435.7,530.8H675.9V516.2H435.7v14.6Z" class="g0_290"/>
<path fill-rule="evenodd" d="M435.7,545.5H675.9V530.8H435.7v14.7Z" class="g0_290"/>
<path fill-rule="evenodd" d="M435.7,560.2H675.9V545.5H435.7v14.7Z" class="g0_290"/>
<path fill-rule="evenodd" d="M434.9,575.2H675.6V560.5H434.9v14.7Z" class="g0_290"/>
<path fill-rule="evenodd" d="M434.9,589.9H675.6V575.2H434.9v14.7Z" class="g0_290"/>
<path fill-rule="evenodd" d="M434.9,604.6H675.6V589.9H434.9v14.7Z" class="g0_290"/>
<path fill-rule="evenodd" d="M434.9,619.2H675.6V604.6H434.9v14.6Z" class="g0_290"/>
<path fill-rule="evenodd" d="M434.9,633.9H675.6V619.2H434.9v14.7Z" class="g0_290"/>
<path fill-rule="evenodd" d="M434.9,648.6H675.6V633.9H434.9v14.7Z" class="g0_290"/>
<path fill-rule="evenodd" d="M435.3,664H674.5V649.3H435.3V664Z" class="g0_290"/>
<path fill-rule="evenodd" d="M435.3,678.6H674.5V664H435.3v14.6Z" class="g0_290"/>
<path fill-rule="evenodd" d="M434.9,693.7H674.8V679H434.9v14.7Z" class="g0_290"/>
<path fill-rule="evenodd" d="M434.9,708.3H674.8V693.7H434.9v14.6Z" class="g0_290"/>
<path fill-rule="evenodd" d="M434.9,723.4H674.8V708.3H434.9v15.1Z" class="g0_290"/>
<path fill-rule="evenodd" d="M434.9,738H674.8V723.4H434.9V738Z" class="g0_290"/>
<path fill-rule="evenodd" d="M434.6,753.2H674.8V738.4H434.6v14.8Z" class="g0_290"/>
<path fill-rule="evenodd" d="M434.6,767.9H674.8V753.2H434.6v14.7Z" class="g0_290"/>
<path fill-rule="evenodd" d="M434.6,782.6H674.8V767.9H434.6v14.7Z" class="g0_290"/>
<path fill-rule="evenodd" d="M434.6,797.2H674.8V782.6H434.6v14.6Z" class="g0_290"/>
<path fill-rule="evenodd" d="M434.6,811.9H674.8V797.2H434.6v14.7Z" class="g0_290"/>
<path fill-rule="evenodd" d="M434.6,826.6H674.5V811.9H434.6v14.7Z" class="g0_290"/>
<path fill-rule="evenodd" d="M434.6,841.3H674.5V826.6H434.6v14.7Z" class="g0_290"/>
<path fill-rule="evenodd" d="M434.6,856H674.5V841.3H434.6V856Z" class="g0_290"/>
<path fill-rule="evenodd" d="M434.2,871.4H674.5V856.7H434.2v14.7Z" class="g0_290"/>
<path fill-rule="evenodd" d="M434.2,886H674.5V871.4H434.2V886Z" class="g0_290"/>
<path d="M423.7,146.4V912.3" class="g1_290"/>
</svg>