<?xml version="1.0" encoding="UTF-8" standalone="no"?>
<!DOCTYPE svg PUBLIC "-//W3C//DTD SVG 1.1//EN"
"http://www.w3.org/Graphics/SVG/1.1/DTD/svg11.dtd">
<svg viewBox="0 0 909 1285" version="1.1" xmlns="http://www.w3.org/2000/svg" xmlns:xlink="http://www.w3.org/1999/xlink">
<defs>
<style type="text/css"><![CDATA[
.g0_130{
fill: #FFFFFF;
}
.g1_130{
fill: none;
stroke: #000000;
stroke-width: 0.381;
stroke-linecap: butt;
stroke-linejoin: round;
}
.g2_130{
fill: none;
stroke: #000000;
stroke-width: 1.833;
stroke-linecap: butt;
stroke-linejoin: round;
}
]]></style>
</defs>
<path fill-rule="evenodd" d="M274.3,127.6H772.7V110H274.3v17.6Z" class="g0_130"/>
<path fill-rule="evenodd" d="M274,162.8H512.7v-15H274v15Z" class="g0_130"/>
<path fill-rule="evenodd" d="M274,177.9H512.7V162.8H274v15.1Z" class="g0_130"/>
<path fill-rule="evenodd" d="M274,192.9H512.3v-15H274v15Z" class="g0_130"/>
<path fill-rule="evenodd" d="M274,207.9H512.3v-15H274v15Z" class="g0_130"/>
<path fill-rule="evenodd" d="M274,223H512.3V207.9H274V223Z" class="g0_130"/>
<path fill-rule="evenodd" d="M273.6,238H512.7V223H273.6v15Z" class="g0_130"/>
<path fill-rule="evenodd" d="M273.6,253H512.7V238H273.6v15Z" class="g0_130"/>
<path fill-rule="evenodd" d="M273.6,268.1H512.7V253H273.6v15.1Z" class="g0_130"/>
<path fill-rule="evenodd" d="M273.6,283.3H512.7V268.1H273.6v15.2Z" class="g0_130"/>
<path fill-rule="evenodd" d="M273.6,298.3H512.7v-15H273.6v15Z" class="g0_130"/>
<path fill-rule="evenodd" d="M273.6,313.3H512.7v-15H273.6v15Z" class="g0_130"/>
<path fill-rule="evenodd" d="M273.6,328.4H512.7V313.3H273.6v15.1Z" class="g0_130"/>
<path fill-rule="evenodd" d="M273.6,343.4h238v-15h-238v15Z" class="g0_130"/>
<path fill-rule="evenodd" d="M273.6,358.5h238V343.4h-238v15.1Z" class="g0_130"/>
<path fill-rule="evenodd" d="M273.2,373.5H512v-15H273.2v15Z" class="g0_130"/>
<path fill-rule="evenodd" d="M273.2,388.6H512V373.5H273.2v15.1Z" class="g0_130"/>
<path fill-rule="evenodd" d="M273.2,403.6H512v-15H273.2v15Z" class="g0_130"/>
<path fill-rule="evenodd" d="M273.6,418.6h238v-15h-238v15Z" class="g0_130"/>
<path fill-rule="evenodd" d="M273.6,433.7h238V418.6h-238v15.1Z" class="g0_130"/>
<path fill-rule="evenodd" d="M272.5,448.9H511.6V433.7H272.5v15.2Z" class="g0_130"/>
<path fill-rule="evenodd" d="M272.5,463.9H511.6v-15H272.5v15Z" class="g0_130"/>
<path fill-rule="evenodd" d="M272.5,478.9H511.6v-15H272.5v15Z" class="g0_130"/>
<path fill-rule="evenodd" d="M272.5,494H511.6V478.9H272.5V494Z" class="g0_130"/>
<path fill-rule="evenodd" d="M272.5,509H511.6V494H272.5v15Z" class="g0_130"/>
<path fill-rule="evenodd" d="M272.5,524H511.6V509H272.5v15Z" class="g0_130"/>
<path fill-rule="evenodd" d="M272.5,539.1H511.6V524H272.5v15.1Z" class="g0_130"/>
<path fill-rule="evenodd" d="M272.5,554.1H511.6v-15H272.5v15Z" class="g0_130"/>
<path fill-rule="evenodd" d="M272.5,569.1H511.6v-15H272.5v15Z" class="g0_130"/>
<path fill-rule="evenodd" d="M272.5,584.2H511.6V569.1H272.5v15.1Z" class="g0_130"/>
<path fill-rule="evenodd" d="M271.8,599.6H512V584.5H271.8v15.1Z" class="g0_130"/>
<path fill-rule="evenodd" d="M271.8,614.8H512V599.6H271.8v15.2Z" class="g0_130"/>
<path fill-rule="evenodd" d="M271.8,629.9H512V614.8H271.8v15.1Z" class="g0_130"/>
<path fill-rule="evenodd" d="M271.8,644.9H512v-15H271.8v15Z" class="g0_130"/>
<path fill-rule="evenodd" d="M271.8,659.9H512v-15H271.8v15Z" class="g0_130"/>
<path fill-rule="evenodd" d="M271.8,675H512V659.9H271.8V675Z" class="g0_130"/>
<path fill-rule="evenodd" d="M271.8,690H512V675H271.8v15Z" class="g0_130"/>
<path fill-rule="evenodd" d="M271.8,705H512V690H271.8v15Z" class="g0_130"/>
<path fill-rule="evenodd" d="M271.8,720.1H512V705H271.8v15.1Z" class="g0_130"/>
<path fill-rule="evenodd" d="M271.8,735.1H512v-15H271.8v15Z" class="g0_130"/>
<path fill-rule="evenodd" d="M272.1,750.1H511.2v-15H272.1v15Z" class="g0_130"/>
<path fill-rule="evenodd" d="M272.1,765.2H511.2V750.1H272.1v15.1Z" class="g0_130"/>
<path fill-rule="evenodd" d="M272.1,780.2H511.2v-15H272.1v15Z" class="g0_130"/>
<path fill-rule="evenodd" d="M272.1,795.4H511.2V780.2H272.1v15.2Z" class="g0_130"/>
<path fill-rule="evenodd" d="M271.8,810.4H512v-15H271.8v15Z" class="g0_130"/>
<path fill-rule="evenodd" d="M271.8,825.5H512V810.4H271.8v15.1Z" class="g0_130"/>
<path fill-rule="evenodd" d="M271.8,840.6H510.9V825.5H271.8v15.1Z" class="g0_130"/>
<path fill-rule="evenodd" d="M271.8,855.6H510.9v-15H271.8v15Z" class="g0_130"/>
<path fill-rule="evenodd" d="M271.8,870.6H510.9v-15H271.8v15Z" class="g0_130"/>
<path fill-rule="evenodd" d="M272.1,885.7H510.5V870.6H272.1v15.1Z" class="g0_130"/>
<path fill-rule="evenodd" d="M272.1,900.7H510.5v-15H272.1v15Z" class="g0_130"/>
<path fill-rule="evenodd" d="M272.9,915.7H512.7v-15H272.9v15Z" class="g0_130"/>
<path fill-rule="evenodd" d="M532.9,163.2H772.7v-15H532.9v15Z" class="g0_130"/>
<path fill-rule="evenodd" d="M532.9,178.2H772.7v-15H532.9v15Z" class="g0_130"/>
<path fill-rule="evenodd" d="M532.9,193.3H772.7V178.2H532.9v15.1Z" class="g0_130"/>
<path fill-rule="evenodd" d="M533.2,208.3H772.7v-15H533.2v15Z" class="g0_130"/>
<path fill-rule="evenodd" d="M533.2,223.3H772.7v-15H533.2v15Z" class="g0_130"/>
<path fill-rule="evenodd" d="M533.2,238.4H772.7V223.3H533.2v15.1Z" class="g0_130"/>
<path fill-rule="evenodd" d="M532.9,253.4H772.7v-15H532.9v15Z" class="g0_130"/>
<path fill-rule="evenodd" d="M532.9,268.6H772.7V253.4H532.9v15.2Z" class="g0_130"/>
<path fill-rule="evenodd" d="M532.9,283.6H772.7v-15H532.9v15Z" class="g0_130"/>
<path fill-rule="evenodd" d="M532.9,298.7H772.7V283.6H532.9v15.1Z" class="g0_130"/>
<path fill-rule="evenodd" d="M532.9,313.7H772.7v-15H532.9v15Z" class="g0_130"/>
<path fill-rule="evenodd" d="M532.9,328.7H772.7v-15H532.9v15Z" class="g0_130"/>
<path fill-rule="evenodd" d="M532.9,343.8H772.7V328.7H532.9v15.1Z" class="g0_130"/>
<path fill-rule="evenodd" d="M532.5,358.9H772.3V343.8H532.5v15.1Z" class="g0_130"/>
<path fill-rule="evenodd" d="M532.5,373.9H772.3v-15H532.5v15Z" class="g0_130"/>
<path fill-rule="evenodd" d="M532.5,388.9H772.3v-15H532.5v15Z" class="g0_130"/>
<path fill-rule="evenodd" d="M532.5,404H772.3V388.9H532.5V404Z" class="g0_130"/>
<path fill-rule="evenodd" d="M532.1,419H772.7V404H532.1v15Z" class="g0_130"/>
<path fill-rule="evenodd" d="M532.1,434.2H772.7V419H532.1v15.2Z" class="g0_130"/>
<path fill-rule="evenodd" d="M532.1,449.2H772.7v-15H532.1v15Z" class="g0_130"/>
<path fill-rule="evenodd" d="M532.1,464.3H772.7V449.2H532.1v15.1Z" class="g0_130"/>
<path fill-rule="evenodd" d="M531.8,479.3H772.3v-15H531.8v15Z" class="g0_130"/>
<path fill-rule="evenodd" d="M531.8,494.3H772.3v-15H531.8v15Z" class="g0_130"/>
<path fill-rule="evenodd" d="M531.8,509.4H772.3V494.3H531.8v15.1Z" class="g0_130"/>
<path fill-rule="evenodd" d="M531.8,524.4H772.3v-15H531.8v15Z" class="g0_130"/>
<path fill-rule="evenodd" d="M531.8,539.4H772.3v-15H531.8v15Z" class="g0_130"/>
<path fill-rule="evenodd" d="M531.8,554.5H772V539.4H531.8v15.1Z" class="g0_130"/>
<path fill-rule="evenodd" d="M531.8,569.5H772v-15H531.8v15Z" class="g0_130"/>
<path fill-rule="evenodd" d="M531.8,584.5H772v-15H531.8v15Z" class="g0_130"/>
<path fill-rule="evenodd" d="M531.8,599.6H772V584.5H531.8v15.1Z" class="g0_130"/>
<path fill-rule="evenodd" d="M531.8,614.8H772V599.6H531.8v15.2Z" class="g0_130"/>
<path fill-rule="evenodd" d="M531.8,629.9H772V614.8H531.8v15.1Z" class="g0_130"/>
<path fill-rule="evenodd" d="M531.8,644.9H772v-15H531.8v15Z" class="g0_130"/>
<path fill-rule="evenodd" d="M531.8,659.9H772v-15H531.8v15Z" class="g0_130"/>
<path fill-rule="evenodd" d="M531.8,675H772V659.9H531.8V675Z" class="g0_130"/>
<path fill-rule="evenodd" d="M531.8,690H772V675H531.8v15Z" class="g0_130"/>
<path fill-rule="evenodd" d="M531.8,705H772V690H531.8v15Z" class="g0_130"/>
<path fill-rule="evenodd" d="M531.8,720.1H772V705H531.8v15.1Z" class="g0_130"/>
<path fill-rule="evenodd" d="M531.8,735.1H771.2v-15H531.8v15Z" class="g0_130"/>
<path fill-rule="evenodd" d="M531.8,750.1H771.2v-15H531.8v15Z" class="g0_130"/>
<path fill-rule="evenodd" d="M531.8,765.2H772V750.1H531.8v15.1Z" class="g0_130"/>
<path fill-rule="evenodd" d="M531.8,780.2H772v-15H531.8v15Z" class="g0_130"/>
<path fill-rule="evenodd" d="M531.8,795.4H772V780.2H531.8v15.2Z" class="g0_130"/>
<path fill-rule="evenodd" d="M531.8,810.4H772v-15H531.8v15Z" class="g0_130"/>
<path fill-rule="evenodd" d="M531.8,825.5H772V810.4H531.8v15.1Z" class="g0_130"/>
<path fill-rule="evenodd" d="M531.8,840.6H772V825.5H531.8v15.1Z" class="g0_130"/>
<path fill-rule="evenodd" d="M531.8,855.6H772v-15H531.8v15Z" class="g0_130"/>
<path fill-rule="evenodd" d="M531.8,870.6H772v-15H531.8v15Z" class="g0_130"/>
<path fill-rule="evenodd" d="M531.8,885.7H771.6V870.6H531.8v15.1Z" class="g0_130"/>
<path fill-rule="evenodd" d="M531.8,900.7H771.6v-15H531.8v15Z" class="g0_130"/>
<path fill-rule="evenodd" d="M509.8,933H772.7V915.4H509.8V933Z" class="g0_130"/>
<path d="M212,103.4V331.1m4,-227.7V344.7m2.9,-241.3V157" class="g1_130"/>
<path d="M190,868.2V975" class="g2_130"/>
<path d="M200.2,298.1v143m0,-26.1V722m9.9,-324.5V998.4M213,344.7V737.8m0,-580.9V921.4M521.4,148.8V917.7" class="g1_130"/>
</svg>