<?xml version="1.0" encoding="UTF-8" standalone="no"?>
<!DOCTYPE svg PUBLIC "-//W3C//DTD SVG 1.1//EN"
"http://www.w3.org/Graphics/SVG/1.1/DTD/svg11.dtd">
<svg viewBox="0 0 909 1285" version="1.1" xmlns="http://www.w3.org/2000/svg" xmlns:xlink="http://www.w3.org/1999/xlink">
<defs>
<style type="text/css"><![CDATA[
.g0_40{
fill: #FFFFFF;
}
.g1_40{
fill: none;
stroke: #000000;
stroke-width: 0.381;
stroke-linecap: butt;
stroke-linejoin: round;
}
]]></style>
</defs>
<path fill-rule="evenodd" d="M435.3,135H700.5V110H435.3v25Z" class="g0_40"/>
<path fill-rule="evenodd" d="M202.4,172.7H441.5v-15H202.4v15Z" class="g0_40"/>
<path fill-rule="evenodd" d="M202.4,187.8H441.5V172.7H202.4v15.1Z" class="g0_40"/>
<path fill-rule="evenodd" d="M202.4,202.8H441.5v-15H202.4v15Z" class="g0_40"/>
<path fill-rule="evenodd" d="M202.4,217.8H441.5v-15H202.4v15Z" class="g0_40"/>
<path fill-rule="evenodd" d="M202.4,232.9H441.5V217.8H202.4v15.1Z" class="g0_40"/>
<path fill-rule="evenodd" d="M202.4,248.1H441.5V232.9H202.4v15.2Z" class="g0_40"/>
<path fill-rule="evenodd" d="M202.4,263.1H441.5v-15H202.4v15Z" class="g0_40"/>
<path fill-rule="evenodd" d="M202.8,278.1H440.4v-15H202.8v15Z" class="g0_40"/>
<path fill-rule="evenodd" d="M202.8,293.2H440.4V278.1H202.8v15.1Z" class="g0_40"/>
<path fill-rule="evenodd" d="M201.7,308.2H440.8v-15H201.7v15Z" class="g0_40"/>
<path fill-rule="evenodd" d="M201.7,323.2H440.8v-15H201.7v15Z" class="g0_40"/>
<path fill-rule="evenodd" d="M201.7,338.3H440.8V323.2H201.7v15.1Z" class="g0_40"/>
<path fill-rule="evenodd" d="M201.7,353.4H440.8V338.3H201.7v15.1Z" class="g0_40"/>
<path fill-rule="evenodd" d="M201.7,368.4H440.8v-15H201.7v15Z" class="g0_40"/>
<path fill-rule="evenodd" d="M201.7,383.4H440.8v-15H201.7v15Z" class="g0_40"/>
<path fill-rule="evenodd" d="M201.7,398.5H440.8V383.4H201.7v15.1Z" class="g0_40"/>
<path fill-rule="evenodd" d="M201.7,413.5H440.8v-15H201.7v15Z" class="g0_40"/>
<path fill-rule="evenodd" d="M201.7,428.7H440.8V413.5H201.7v15.2Z" class="g0_40"/>
<path fill-rule="evenodd" d="M201.7,443.7H440.8v-15H201.7v15Z" class="g0_40"/>
<path fill-rule="evenodd" d="M201.3,458.8H440.1V443.7H201.3v15.1Z" class="g0_40"/>
<path fill-rule="evenodd" d="M201.3,473.8H440.1v-15H201.3v15Z" class="g0_40"/>
<path fill-rule="evenodd" d="M201.3,488.8H440.1v-15H201.3v15Z" class="g0_40"/>
<path fill-rule="evenodd" d="M201.3,503.9H440.1V488.8H201.3v15.1Z" class="g0_40"/>
<path fill-rule="evenodd" d="M201.3,518.9H440.1v-15H201.3v15Z" class="g0_40"/>
<path fill-rule="evenodd" d="M201.3,533.9H440.1v-15H201.3v15Z" class="g0_40"/>
<path fill-rule="evenodd" d="M200.6,549H439.7V533.9H200.6V549Z" class="g0_40"/>
<path fill-rule="evenodd" d="M200.6,564H439.7V549H200.6v15Z" class="g0_40"/>
<path fill-rule="evenodd" d="M200.6,579H439.7V564H200.6v15Z" class="g0_40"/>
<path fill-rule="evenodd" d="M200.6,594.1H439.7V579H200.6v15.1Z" class="g0_40"/>
<path fill-rule="evenodd" d="M200.6,609.3H439.7V594.1H200.6v15.2Z" class="g0_40"/>
<path fill-rule="evenodd" d="M200.6,624.4H439.7V609.3H200.6v15.1Z" class="g0_40"/>
<path fill-rule="evenodd" d="M200.6,639.4H439.7v-15H200.6v15Z" class="g0_40"/>
<path fill-rule="evenodd" d="M200.2,654.4H439v-15H200.2v15Z" class="g0_40"/>
<path fill-rule="evenodd" d="M200.2,669.5H439V654.4H200.2v15.1Z" class="g0_40"/>
<path fill-rule="evenodd" d="M200.2,684.5H439v-15H200.2v15Z" class="g0_40"/>
<path fill-rule="evenodd" d="M200.2,699.5H439v-15H200.2v15Z" class="g0_40"/>
<path fill-rule="evenodd" d="M201.3,714.6H441.5V699.5H201.3v15.1Z" class="g0_40"/>
<path fill-rule="evenodd" d="M461,172.7H700.5v-15H461v15Z" class="g0_40"/>
<path fill-rule="evenodd" d="M461,187.8H700.5V172.7H461v15.1Z" class="g0_40"/>
<path fill-rule="evenodd" d="M461,202.8H700.5v-15H461v15Z" class="g0_40"/>
<path fill-rule="evenodd" d="M461,217.8H700.5v-15H461v15Z" class="g0_40"/>
<path fill-rule="evenodd" d="M461,232.9H700.5V217.8H461v15.1Z" class="g0_40"/>
<path fill-rule="evenodd" d="M461,248.1H700.5V232.9H461v15.2Z" class="g0_40"/>
<path fill-rule="evenodd" d="M461,263.1H700.5v-15H461v15Z" class="g0_40"/>
<path fill-rule="evenodd" d="M461,278.1H700.5v-15H461v15Z" class="g0_40"/>
<path fill-rule="evenodd" d="M461,293.2H700.5V278.1H461v15.1Z" class="g0_40"/>
<path fill-rule="evenodd" d="M461,308.2H700.5v-15H461v15Z" class="g0_40"/>
<path fill-rule="evenodd" d="M461,323.2H700.5v-15H461v15Z" class="g0_40"/>
<path fill-rule="evenodd" d="M461,338.3H700.5V323.2H461v15.1Z" class="g0_40"/>
<path fill-rule="evenodd" d="M461,353.4H700.5V338.3H461v15.1Z" class="g0_40"/>
<path fill-rule="evenodd" d="M461,368.4H700.5v-15H461v15Z" class="g0_40"/>
<path fill-rule="evenodd" d="M461,383.4H700.5v-15H461v15Z" class="g0_40"/>
<path fill-rule="evenodd" d="M460.6,398.5H699.7V383.4H460.6v15.1Z" class="g0_40"/>
<path fill-rule="evenodd" d="M460.6,413.5H699.7v-15H460.6v15Z" class="g0_40"/>
<path fill-rule="evenodd" d="M460.6,428.7H699.7V413.5H460.6v15.2Z" class="g0_40"/>
<path fill-rule="evenodd" d="M460.6,443.7H699.7v-15H460.6v15Z" class="g0_40"/>
<path fill-rule="evenodd" d="M460.6,458.8H699.7V443.7H460.6v15.1Z" class="g0_40"/>
<path fill-rule="evenodd" d="M460.6,473.8H699.7v-15H460.6v15Z" class="g0_40"/>
<path fill-rule="evenodd" d="M459.9,488.8H699.4v-15H459.9v15Z" class="g0_40"/>
<path fill-rule="evenodd" d="M459.9,503.9H699.4V488.8H459.9v15.1Z" class="g0_40"/>
<path fill-rule="evenodd" d="M459.9,518.9H699.4v-15H459.9v15Z" class="g0_40"/>
<path fill-rule="evenodd" d="M459.9,533.9H699.4v-15H459.9v15Z" class="g0_40"/>
<path fill-rule="evenodd" d="M459.9,549H699.4V533.9H459.9V549Z" class="g0_40"/>
<path fill-rule="evenodd" d="M459.9,564H699.4V549H459.9v15Z" class="g0_40"/>
<path fill-rule="evenodd" d="M459.9,579H699.4V564H459.9v15Z" class="g0_40"/>
<path fill-rule="evenodd" d="M460.6,594.1H698.3V579H460.6v15.1Z" class="g0_40"/>
<path fill-rule="evenodd" d="M460.6,609.3H698.3V594.1H460.6v15.2Z" class="g0_40"/>
<path fill-rule="evenodd" d="M459.9,624.4H699V609.3H459.9v15.1Z" class="g0_40"/>
<path fill-rule="evenodd" d="M459.9,639.4H699v-15H459.9v15Z" class="g0_40"/>
<path fill-rule="evenodd" d="M460.3,654.4h238v-15h-238v15Z" class="g0_40"/>
<path fill-rule="evenodd" d="M460.3,669.5h238V654.4h-238v15.1Z" class="g0_40"/>
<path fill-rule="evenodd" d="M477.9,684.5H700.5v-15H477.9v15Z" class="g0_40"/>
<path fill-rule="evenodd" d="M477.9,699.5H700.5v-15H477.9v15Z" class="g0_40"/>
<path fill-rule="evenodd" d="M477.9,714.6H700.5V699.5H477.9v15.1Z" class="g0_40"/>
<path fill-rule="evenodd" d="M429.4,793.4H700.5V778.7H429.4v14.7Z" class="g0_40"/>
<path d="M449.2,156.9V721.2" class="g1_40"/>
</svg>