<?xml version="1.0" encoding="UTF-8" standalone="no"?>
<!DOCTYPE svg PUBLIC "-//W3C//DTD SVG 1.1//EN"
"http://www.w3.org/Graphics/SVG/1.1/DTD/svg11.dtd">
<svg viewBox="0 0 909 1285" version="1.1" xmlns="http://www.w3.org/2000/svg" xmlns:xlink="http://www.w3.org/1999/xlink">
<defs>
<style type="text/css"><![CDATA[
.g0_169{
fill: #FFFFFF;
}
.g1_169{
fill: none;
stroke: #000000;
stroke-width: 0.381;
stroke-linecap: butt;
stroke-linejoin: round;
}
]]></style>
</defs>
<path fill-rule="evenodd" d="M279.5,125.8H779.7V110H279.5v15.8Z" class="g0_169"/>
<path fill-rule="evenodd" d="M297.8,161.7H518.6v-15H297.8v15Z" class="g0_169"/>
<path fill-rule="evenodd" d="M279.5,176.9H518.2V161.7H279.5v15.2Z" class="g0_169"/>
<path fill-rule="evenodd" d="M279.5,192H518.2V176.9H279.5V192Z" class="g0_169"/>
<path fill-rule="evenodd" d="M278.7,207H518.6V192H278.7v15Z" class="g0_169"/>
<path fill-rule="evenodd" d="M278.7,222H518.6V207H278.7v15Z" class="g0_169"/>
<path fill-rule="evenodd" d="M278.7,237.1H518.6V222H278.7v15.1Z" class="g0_169"/>
<path fill-rule="evenodd" d="M278.7,252.1H518.6v-15H278.7v15Z" class="g0_169"/>
<path fill-rule="evenodd" d="M278.7,267.1H518.6v-15H278.7v15Z" class="g0_169"/>
<path fill-rule="evenodd" d="M278.7,282.2H518.6V267.1H278.7v15.1Z" class="g0_169"/>
<path fill-rule="evenodd" d="M278.7,297.2H518.6v-15H278.7v15Z" class="g0_169"/>
<path fill-rule="evenodd" d="M278.7,312.2H518.6v-15H278.7v15Z" class="g0_169"/>
<path fill-rule="evenodd" d="M279.1,327.3H518.6V312.2H279.1v15.1Z" class="g0_169"/>
<path fill-rule="evenodd" d="M279.1,342.5H518.6V327.3H279.1v15.2Z" class="g0_169"/>
<path fill-rule="evenodd" d="M279.1,357.6H518.6V342.5H279.1v15.1Z" class="g0_169"/>
<path fill-rule="evenodd" d="M279.1,372.6H518.2v-15H279.1v15Z" class="g0_169"/>
<path fill-rule="evenodd" d="M279.1,387.6H518.2v-15H279.1v15Z" class="g0_169"/>
<path fill-rule="evenodd" d="M279.1,402.7H518.2V387.6H279.1v15.1Z" class="g0_169"/>
<path fill-rule="evenodd" d="M279.5,417.7H517.8v-15H279.5v15Z" class="g0_169"/>
<path fill-rule="evenodd" d="M279.5,432.7H517.8v-15H279.5v15Z" class="g0_169"/>
<path fill-rule="evenodd" d="M279.1,447.8H517.8V432.7H279.1v15.1Z" class="g0_169"/>
<path fill-rule="evenodd" d="M279.1,462.8H517.8v-15H279.1v15Z" class="g0_169"/>
<path fill-rule="evenodd" d="M279.1,477.8H518.6v-15H279.1v15Z" class="g0_169"/>
<path fill-rule="evenodd" d="M279.1,492.9H518.6V477.8H279.1v15.1Z" class="g0_169"/>
<path fill-rule="evenodd" d="M279.1,507.9H518.6v-15H279.1v15Z" class="g0_169"/>
<path fill-rule="evenodd" d="M278.7,523.1H518.2V507.9H278.7v15.2Z" class="g0_169"/>
<path fill-rule="evenodd" d="M278.7,538.2H518.2V523.1H278.7v15.1Z" class="g0_169"/>
<path fill-rule="evenodd" d="M278.7,553.2H518.2v-15H278.7v15Z" class="g0_169"/>
<path fill-rule="evenodd" d="M278.7,568.2H518.2v-15H278.7v15Z" class="g0_169"/>
<path fill-rule="evenodd" d="M278.7,583.3H518.2V568.2H278.7v15.1Z" class="g0_169"/>
<path fill-rule="evenodd" d="M278.7,598.3H518.2v-15H278.7v15Z" class="g0_169"/>
<path fill-rule="evenodd" d="M278.7,613.4H518.2V598.3H278.7v15.1Z" class="g0_169"/>
<path fill-rule="evenodd" d="M278.4,628.4H517.8v-15H278.4v15Z" class="g0_169"/>
<path fill-rule="evenodd" d="M278.4,643.4H517.8v-15H278.4v15Z" class="g0_169"/>
<path fill-rule="evenodd" d="M278.4,658.5H517.8V643.4H278.4v15.1Z" class="g0_169"/>
<path fill-rule="evenodd" d="M278.4,673.5H517.8v-15H278.4v15Z" class="g0_169"/>
<path fill-rule="evenodd" d="M278.4,688.5H517.8v-15H278.4v15Z" class="g0_169"/>
<path fill-rule="evenodd" d="M278.4,703.7H517.8V688.5H278.4v15.2Z" class="g0_169"/>
<path fill-rule="evenodd" d="M278.4,718.8H517.8V703.7H278.4v15.1Z" class="g0_169"/>
<path fill-rule="evenodd" d="M278.4,733.8H518.2v-15H278.4v15Z" class="g0_169"/>
<path fill-rule="evenodd" d="M278.4,748.8H518.2v-15H278.4v15Z" class="g0_169"/>
<path fill-rule="evenodd" d="M278.4,763.9H518.2V748.8H278.4v15.1Z" class="g0_169"/>
<path fill-rule="evenodd" d="M278.4,778.9H518.2v-15H278.4v15Z" class="g0_169"/>
<path fill-rule="evenodd" d="M278.4,793.9H518.2v-15H278.4v15Z" class="g0_169"/>
<path fill-rule="evenodd" d="M278,809H517.5V793.9H278V809Z" class="g0_169"/>
<path fill-rule="evenodd" d="M278,824H517.5V809H278v15Z" class="g0_169"/>
<path fill-rule="evenodd" d="M278,839.1H517.5V824H278v15.1Z" class="g0_169"/>
<path fill-rule="evenodd" d="M278,854.1H517.5v-15H278v15Z" class="g0_169"/>
<path fill-rule="evenodd" d="M277.6,869.2H517.5V854.1H277.6v15.1Z" class="g0_169"/>
<path fill-rule="evenodd" d="M277.6,884.4H517.5V869.2H277.6v15.2Z" class="g0_169"/>
<path fill-rule="evenodd" d="M278.7,899H518.2V884.4H278.7V899Z" class="g0_169"/>
<path fill-rule="evenodd" d="M538.7,161.7H779.3V147.1H538.7v14.6Z" class="g0_169"/>
<path fill-rule="evenodd" d="M538.7,176.4H779.3V161.7H538.7v14.7Z" class="g0_169"/>
<path fill-rule="evenodd" d="M538.7,191.1H779.3V176.4H538.7v14.7Z" class="g0_169"/>
<path fill-rule="evenodd" d="M538.7,205.7H779.3V191.1H538.7v14.6Z" class="g0_169"/>
<path fill-rule="evenodd" d="M538.7,220.9H778.9V206.1H538.7v14.8Z" class="g0_169"/>
<path fill-rule="evenodd" d="M538.7,235.6H778.9V220.9H538.7v14.7Z" class="g0_169"/>
<path fill-rule="evenodd" d="M538.7,250.3H778.9V235.6H538.7v14.7Z" class="g0_169"/>
<path fill-rule="evenodd" d="M538.7,264.9H778.9V250.3H538.7v14.6Z" class="g0_169"/>
<path fill-rule="evenodd" d="M538.7,279.6H778.9V264.9H538.7v14.7Z" class="g0_169"/>
<path fill-rule="evenodd" d="M538.7,294.3H778.9V279.6H538.7v14.7Z" class="g0_169"/>
<path fill-rule="evenodd" d="M538.7,308.9H778.9V294.3H538.7v14.6Z" class="g0_169"/>
<path fill-rule="evenodd" d="M539.1,323.6H778.9V308.9H539.1v14.7Z" class="g0_169"/>
<path fill-rule="evenodd" d="M539.1,338.3H778.9V323.6H539.1v14.7Z" class="g0_169"/>
<path fill-rule="evenodd" d="M557.4,353.4H779.7V338.7H557.4v14.7Z" class="g0_169"/>
<path fill-rule="evenodd" d="M538.7,368H778.9V353.4H538.7V368Z" class="g0_169"/>
<path fill-rule="evenodd" d="M538.7,382.7H778.9V368H538.7v14.7Z" class="g0_169"/>
<path fill-rule="evenodd" d="M538.7,397.4H778.9V382.7H538.7v14.7Z" class="g0_169"/>
<path fill-rule="evenodd" d="M538.7,412H778.9V397.4H538.7V412Z" class="g0_169"/>
<path fill-rule="evenodd" d="M539.1,426.7H779.7V412H539.1v14.7Z" class="g0_169"/>
<path fill-rule="evenodd" d="M539.1,441.4H779.7V426.7H539.1v14.7Z" class="g0_169"/>
<path fill-rule="evenodd" d="M557.1,456.4H779.7V441.7H557.1v14.7Z" class="g0_169"/>
<path fill-rule="evenodd" d="M538.4,471.1H778.9V456.4H538.4v14.7Z" class="g0_169"/>
<path fill-rule="evenodd" d="M538.4,485.7H778.9V471.1H538.4v14.6Z" class="g0_169"/>
<path fill-rule="evenodd" d="M538.4,500.4H778.9V485.7H538.4v14.7Z" class="g0_169"/>
<path fill-rule="evenodd" d="M538,515.1H778.9V500.4H538v14.7Z" class="g0_169"/>
<path fill-rule="evenodd" d="M538,529.7H778.9V515.1H538v14.6Z" class="g0_169"/>
<path fill-rule="evenodd" d="M538,544.4H778.9V529.7H538v14.7Z" class="g0_169"/>
<path fill-rule="evenodd" d="M538,559.1H778.9V544.4H538v14.7Z" class="g0_169"/>
<path fill-rule="evenodd" d="M538.4,574.1H778.6V559.4H538.4v14.7Z" class="g0_169"/>
<path fill-rule="evenodd" d="M538.4,588.8H778.6V574.1H538.4v14.7Z" class="g0_169"/>
<path fill-rule="evenodd" d="M538.4,603.8H778.2V589.1H538.4v14.7Z" class="g0_169"/>
<path fill-rule="evenodd" d="M538.4,618.5H778.2V603.8H538.4v14.7Z" class="g0_169"/>
<path fill-rule="evenodd" d="M538,633.2H778.2V618.5H538v14.7Z" class="g0_169"/>
<path fill-rule="evenodd" d="M538,647.8H778.2V633.2H538v14.6Z" class="g0_169"/>
<path fill-rule="evenodd" d="M556.7,662.5h223V647.8h-223v14.7Z" class="g0_169"/>
<path fill-rule="evenodd" d="M556.7,677.2h223V662.5h-223v14.7Z" class="g0_169"/>
<path fill-rule="evenodd" d="M556.7,691.8h223V677.2h-223v14.6Z" class="g0_169"/>
<path fill-rule="evenodd" d="M538.4,706.9H778.6V692.2H538.4v14.7Z" class="g0_169"/>
<path fill-rule="evenodd" d="M538.4,721.5H778.6V706.9H538.4v14.6Z" class="g0_169"/>
<path fill-rule="evenodd" d="M538.4,736.2H778.6V721.5H538.4v14.7Z" class="g0_169"/>
<path fill-rule="evenodd" d="M538.4,750.9H778.6V736.2H538.4v14.7Z" class="g0_169"/>
<path fill-rule="evenodd" d="M538.4,765.5H778.6V750.9H538.4v14.6Z" class="g0_169"/>
<path fill-rule="evenodd" d="M538.4,780.2H778.9V765.5H538.4v14.7Z" class="g0_169"/>
<path fill-rule="evenodd" d="M538.4,794.9H778.9V780.2H538.4v14.7Z" class="g0_169"/>
<path fill-rule="evenodd" d="M538.4,809.5H778.9V794.9H538.4v14.6Z" class="g0_169"/>
<path fill-rule="evenodd" d="M537.6,824.6h241V809.9h-241v14.7Z" class="g0_169"/>
<path fill-rule="evenodd" d="M537.6,839.3h241V824.6h-241v14.7Z" class="g0_169"/>
<path fill-rule="evenodd" d="M537.6,853.9h241V839.3h-241v14.6Z" class="g0_169"/>
<path fill-rule="evenodd" d="M538,868.6H778.9V853.9H538v14.7Z" class="g0_169"/>
<path fill-rule="evenodd" d="M538,883.3H778.9V868.6H538v14.7Z" class="g0_169"/>
<path fill-rule="evenodd" d="M538,897.9H778.9V883.3H538v14.6Z" class="g0_169"/>
<path d="M212,88.4v65.2m1.8,-65.2V335.5M221.5,88.4V221.1m-9.9,-68.9v48.1m1.8,-49.5V276.9m8.8,-40.7V357.6M527.7,148.2V916.7" class="g1_169"/>
</svg>