<?xml version="1.0" encoding="UTF-8" standalone="no"?>
<!DOCTYPE svg PUBLIC "-//W3C//DTD SVG 1.1//EN"
"http://www.w3.org/Graphics/SVG/1.1/DTD/svg11.dtd">
<svg viewBox="0 0 909 1285" version="1.1" xmlns="http://www.w3.org/2000/svg" xmlns:xlink="http://www.w3.org/1999/xlink">
<defs>
<style type="text/css"><![CDATA[
.g0_253{
fill: #FFFFFF;
}
.g1_253{
fill: none;
stroke: #000000;
stroke-width: 0.381;
stroke-linecap: butt;
stroke-linejoin: round;
}
]]></style>
</defs>
<path fill-rule="evenodd" d="M636,125.8h59.4V110H636v15.8Z" class="g0_253"/>
<path fill-rule="evenodd" d="M192.5,161.4H430.9V146.7H192.5v14.7Z" class="g0_253"/>
<path fill-rule="evenodd" d="M192.5,176H430.9V161.4H192.5V176Z" class="g0_253"/>
<path fill-rule="evenodd" d="M192.9,190.7H431.3V176H192.9v14.7Z" class="g0_253"/>
<path fill-rule="evenodd" d="M192.9,205.4H431.3V190.7H192.9v14.7Z" class="g0_253"/>
<path fill-rule="evenodd" d="M192.5,220H430.9V205.4H192.5V220Z" class="g0_253"/>
<path fill-rule="evenodd" d="M192.5,234.7H430.9V220H192.5v14.7Z" class="g0_253"/>
<path fill-rule="evenodd" d="M192.5,249.4H430.9V234.7H192.5v14.7Z" class="g0_253"/>
<path fill-rule="evenodd" d="M192.5,264H430.9V249.4H192.5V264Z" class="g0_253"/>
<path fill-rule="evenodd" d="M192.9,279.1h238V264.4h-238v14.7Z" class="g0_253"/>
<path fill-rule="evenodd" d="M192.9,293.9h238V279.1h-238v14.8Z" class="g0_253"/>
<path fill-rule="evenodd" d="M210.9,308.9H431.3V294.3H210.9v14.6Z" class="g0_253"/>
<path fill-rule="evenodd" d="M192.5,323.6H430.9V308.9H192.5v14.7Z" class="g0_253"/>
<path fill-rule="evenodd" d="M192.5,338.3H430.9V323.6H192.5v14.7Z" class="g0_253"/>
<path fill-rule="evenodd" d="M192.5,353H430.9V338.3H192.5V353Z" class="g0_253"/>
<path fill-rule="evenodd" d="M192.5,367.7H430.9V353H192.5v14.7Z" class="g0_253"/>
<path fill-rule="evenodd" d="M210.9,382.3H431.3V367.7H210.9v14.6Z" class="g0_253"/>
<path fill-rule="evenodd" d="M192.5,397.4H430.9V382.7H192.5v14.7Z" class="g0_253"/>
<path fill-rule="evenodd" d="M192.5,412H430.9V397.4H192.5V412Z" class="g0_253"/>
<path fill-rule="evenodd" d="M192.2,427.1H430.9V412.4H192.2v14.7Z" class="g0_253"/>
<path fill-rule="evenodd" d="M192.2,441.7H430.9V427.1H192.2v14.6Z" class="g0_253"/>
<path fill-rule="evenodd" d="M192.2,456.4H430.9V441.7H192.2v14.7Z" class="g0_253"/>
<path fill-rule="evenodd" d="M192.2,471.1H430.9V456.4H192.2v14.7Z" class="g0_253"/>
<path fill-rule="evenodd" d="M192.2,485.7H430.9V471.1H192.2v14.6Z" class="g0_253"/>
<path fill-rule="evenodd" d="M192.2,500.8H430.5V486.1H192.2v14.7Z" class="g0_253"/>
<path fill-rule="evenodd" d="M192.2,515.4H430.5V500.8H192.2v14.6Z" class="g0_253"/>
<path fill-rule="evenodd" d="M192.2,530.1H430.5V515.4H192.2v14.7Z" class="g0_253"/>
<path fill-rule="evenodd" d="M192.2,544.8H430.5V530.1H192.2v14.7Z" class="g0_253"/>
<path fill-rule="evenodd" d="M191.4,559.4H430.2V544.8H191.4v14.6Z" class="g0_253"/>
<path fill-rule="evenodd" d="M191.4,574.1H430.2V559.4H191.4v14.7Z" class="g0_253"/>
<path fill-rule="evenodd" d="M191.1,588.8H429.8V574.1H191.1v14.7Z" class="g0_253"/>
<path fill-rule="evenodd" d="M191.1,603.5H429.8V588.8H191.1v14.7Z" class="g0_253"/>
<path fill-rule="evenodd" d="M190.7,618.1H430.2V603.5H190.7v14.6Z" class="g0_253"/>
<path fill-rule="evenodd" d="M190.7,632.8H430.2V618.1H190.7v14.7Z" class="g0_253"/>
<path fill-rule="evenodd" d="M190.7,647.5H430.2V632.8H190.7v14.7Z" class="g0_253"/>
<path fill-rule="evenodd" d="M190.7,662.1H430.2V647.5H190.7v14.6Z" class="g0_253"/>
<path fill-rule="evenodd" d="M191.8,676.8h238V662.1h-238v14.7Z" class="g0_253"/>
<path fill-rule="evenodd" d="M191.8,691.5h238V676.8h-238v14.7Z" class="g0_253"/>
<path fill-rule="evenodd" d="M191.8,706.1h238V691.5h-238v14.6Z" class="g0_253"/>
<path fill-rule="evenodd" d="M191.4,720.8H429.8V706.1H191.4v14.7Z" class="g0_253"/>
<path fill-rule="evenodd" d="M191.4,735.5H429.8V720.8H191.4v14.7Z" class="g0_253"/>
<path fill-rule="evenodd" d="M191.4,750.1H429.8V735.5H191.4v14.6Z" class="g0_253"/>
<path fill-rule="evenodd" d="M191.1,764.8H429.4V750.1H191.1v14.7Z" class="g0_253"/>
<path fill-rule="evenodd" d="M191.1,779.5H429.4V764.8H191.1v14.7Z" class="g0_253"/>
<path fill-rule="evenodd" d="M191.4,794.1H429.8V779.5H191.4v14.6Z" class="g0_253"/>
<path fill-rule="evenodd" d="M191.4,808.8H429.8V794.1H191.4v14.7Z" class="g0_253"/>
<path fill-rule="evenodd" d="M191.1,823.8h238V809.2h-238v14.6Z" class="g0_253"/>
<path fill-rule="evenodd" d="M191.1,838.5h238V823.8h-238v14.7Z" class="g0_253"/>
<path fill-rule="evenodd" d="M191.1,853.2H429.8V838.5H191.1v14.7Z" class="g0_253"/>
<path fill-rule="evenodd" d="M191.1,867.9H429.8V853.2H191.1v14.7Z" class="g0_253"/>
<path fill-rule="evenodd" d="M191.8,882.5H430.9V867.9H191.8v14.6Z" class="g0_253"/>
<path fill-rule="evenodd" d="M450.9,161H690V146.3H450.9V161Z" class="g0_253"/>
<path fill-rule="evenodd" d="M450.9,175.7H690V161H450.9v14.7Z" class="g0_253"/>
<path fill-rule="evenodd" d="M450.9,190.3H690V175.7H450.9v14.6Z" class="g0_253"/>
<path fill-rule="evenodd" d="M450.9,205H690V190.3H450.9V205Z" class="g0_253"/>
<path fill-rule="evenodd" d="M451.3,219.7H690V205H451.3v14.7Z" class="g0_253"/>
<path fill-rule="evenodd" d="M451.3,234.3H690V219.7H451.3v14.6Z" class="g0_253"/>
<path fill-rule="evenodd" d="M450.9,249H690V234.3H450.9V249Z" class="g0_253"/>
<path fill-rule="evenodd" d="M450.9,263.7H690V249H450.9v14.7Z" class="g0_253"/>
<path fill-rule="evenodd" d="M450.9,278.3H690V263.7H450.9v14.6Z" class="g0_253"/>
<path fill-rule="evenodd" d="M450.9,293H690V278.3H450.9V293Z" class="g0_253"/>
<path fill-rule="evenodd" d="M451.7,307.7h238V293h-238v14.7Z" class="g0_253"/>
<path fill-rule="evenodd" d="M451.7,322.3h238V307.7h-238v14.6Z" class="g0_253"/>
<path fill-rule="evenodd" d="M450.9,337H690.4V322.3H450.9V337Z" class="g0_253"/>
<path fill-rule="evenodd" d="M450.9,351.7H690.4V337H450.9v14.7Z" class="g0_253"/>
<path fill-rule="evenodd" d="M451.3,366.4H689.7V351.7H451.3v14.7Z" class="g0_253"/>
<path fill-rule="evenodd" d="M451.3,381H689.7V366.4H451.3V381Z" class="g0_253"/>
<path fill-rule="evenodd" d="M450.6,395.7H690.4V381H450.6v14.7Z" class="g0_253"/>
<path fill-rule="evenodd" d="M450.6,410.4H690.4V395.7H450.6v14.7Z" class="g0_253"/>
<path fill-rule="evenodd" d="M450.2,425H690V410.4H450.2V425Z" class="g0_253"/>
<path fill-rule="evenodd" d="M450.2,439.7H690V425H450.2v14.7Z" class="g0_253"/>
<path fill-rule="evenodd" d="M450.6,454.4H689.7V439.7H450.6v14.7Z" class="g0_253"/>
<path fill-rule="evenodd" d="M450.6,469H689.7V454.4H450.6V469Z" class="g0_253"/>
<path fill-rule="evenodd" d="M450.9,483.7H689.3V469H450.9v14.7Z" class="g0_253"/>
<path fill-rule="evenodd" d="M450.9,498.4H689.3V483.7H450.9v14.7Z" class="g0_253"/>
<path fill-rule="evenodd" d="M469.3,513H690.4V498.4H469.3V513Z" class="g0_253"/>
<path fill-rule="evenodd" d="M469.3,527.7H690.4V513H469.3v14.7Z" class="g0_253"/>
<path fill-rule="evenodd" d="M450.9,542.4H689.7V527.7H450.9v14.7Z" class="g0_253"/>
<path fill-rule="evenodd" d="M450.9,557H689.7V542.4H450.9V557Z" class="g0_253"/>
<path fill-rule="evenodd" d="M450.6,571.7H689.3V557H450.6v14.7Z" class="g0_253"/>
<path fill-rule="evenodd" d="M450.6,586.4H689.3V571.7H450.6v14.7Z" class="g0_253"/>
<path fill-rule="evenodd" d="M468.9,601.1H690.4V586.4H468.9v14.7Z" class="g0_253"/>
<path fill-rule="evenodd" d="M449.8,615.7H688.9V601.1H449.8v14.6Z" class="g0_253"/>
<path fill-rule="evenodd" d="M449.8,630.4H688.9V615.7H449.8v14.7Z" class="g0_253"/>
<path fill-rule="evenodd" d="M468.5,645.1H690.4V630.4H468.5v14.7Z" class="g0_253"/>
<path fill-rule="evenodd" d="M449.8,659.7H689.7V645.1H449.8v14.6Z" class="g0_253"/>
<path fill-rule="evenodd" d="M449.8,674.4H689.7V659.7H449.8v14.7Z" class="g0_253"/>
<path fill-rule="evenodd" d="M449.8,689.1H689.7V674.4H449.8v14.7Z" class="g0_253"/>
<path fill-rule="evenodd" d="M449.8,703.7H689.7V689.1H449.8v14.6Z" class="g0_253"/>
<path fill-rule="evenodd" d="M449.8,718.4H689.7V703.7H449.8v14.7Z" class="g0_253"/>
<path fill-rule="evenodd" d="M449.8,733.1H689.7V718.4H449.8v14.7Z" class="g0_253"/>
<path fill-rule="evenodd" d="M449.8,747.7H689.7V733.1H449.8v14.6Z" class="g0_253"/>
<path fill-rule="evenodd" d="M449.8,762.4H689.7V747.7H449.8v14.7Z" class="g0_253"/>
<path fill-rule="evenodd" d="M450.2,777.4H688.9V762.8H450.2v14.6Z" class="g0_253"/>
<path fill-rule="evenodd" d="M450.2,792.1H688.9V777.4H450.2v14.7Z" class="g0_253"/>
<path fill-rule="evenodd" d="M468.5,807.7H690.4V792.8H468.5v14.9Z" class="g0_253"/>
<path fill-rule="evenodd" d="M450.2,822.4H688.6V807.7H450.2v14.7Z" class="g0_253"/>
<path fill-rule="evenodd" d="M450.2,837.1H688.6V822.4H450.2v14.7Z" class="g0_253"/>
<path fill-rule="evenodd" d="M468.5,851.7H690.4V837.1H468.5v14.6Z" class="g0_253"/>
<path fill-rule="evenodd" d="M426.9,900.5H695.4V882.9H426.9v17.6Z" class="g0_253"/>
<path d="M439.2,146V914.9" class="g1_253"/>
</svg>