<?xml version="1.0" encoding="UTF-8" standalone="no"?>
<!DOCTYPE svg PUBLIC "-//W3C//DTD SVG 1.1//EN"
"http://www.w3.org/Graphics/SVG/1.1/DTD/svg11.dtd">
<svg viewBox="0 0 909 1285" version="1.1" xmlns="http://www.w3.org/2000/svg" xmlns:xlink="http://www.w3.org/1999/xlink">
<defs>
<style type="text/css"><![CDATA[
.g0_280{
fill: #FFFFFF;
}
.g1_280{
fill: none;
stroke: #000000;
stroke-width: 0.381;
stroke-linecap: butt;
stroke-linejoin: round;
}
]]></style>
</defs>
<path fill-rule="evenodd" d="M259.4,125.8h497V110h-497v15.8Z" class="g0_280"/>
<path fill-rule="evenodd" d="M259.8,162.1H497.5v-15H259.8v15Z" class="g0_280"/>
<path fill-rule="evenodd" d="M259.8,177.1H497.5v-15H259.8v15Z" class="g0_280"/>
<path fill-rule="evenodd" d="M259.1,192.2h238V177.1h-238v15.1Z" class="g0_280"/>
<path fill-rule="evenodd" d="M259.1,207.2h238v-15h-238v15Z" class="g0_280"/>
<path fill-rule="evenodd" d="M259.1,222.2h238v-15h-238v15Z" class="g0_280"/>
<path fill-rule="evenodd" d="M277.8,237.4H497.9V222.2H277.8v15.2Z" class="g0_280"/>
<path fill-rule="evenodd" d="M278.2,252.5H497.9V237.4H278.2v15.1Z" class="g0_280"/>
<path fill-rule="evenodd" d="M259.1,267.5H497.9v-15H259.1v15Z" class="g0_280"/>
<path fill-rule="evenodd" d="M259.1,282.5H497.9v-15H259.1v15Z" class="g0_280"/>
<path fill-rule="evenodd" d="M259.1,297.6H497.9V282.5H259.1v15.1Z" class="g0_280"/>
<path fill-rule="evenodd" d="M259.1,312.6H497.5v-15H259.1v15Z" class="g0_280"/>
<path fill-rule="evenodd" d="M259.1,327.6H497.5v-15H259.1v15Z" class="g0_280"/>
<path fill-rule="evenodd" d="M259.1,342.7H497.5V327.6H259.1v15.1Z" class="g0_280"/>
<path fill-rule="evenodd" d="M259.1,357.8H497.5V342.7H259.1v15.1Z" class="g0_280"/>
<path fill-rule="evenodd" d="M259.1,373.2H496.8V358.1H259.1v15.1Z" class="g0_280"/>
<path fill-rule="evenodd" d="M259.1,388.4H496.8V373.2H259.1v15.2Z" class="g0_280"/>
<path fill-rule="evenodd" d="M258.3,403.4H496.4v-15H258.3v15Z" class="g0_280"/>
<path fill-rule="evenodd" d="M258.3,418.4H496.4v-15H258.3v15Z" class="g0_280"/>
<path fill-rule="evenodd" d="M258.3,433.5H496.4V418.4H258.3v15.1Z" class="g0_280"/>
<path fill-rule="evenodd" d="M258.3,448.5H496.4v-15H258.3v15Z" class="g0_280"/>
<path fill-rule="evenodd" d="M258.7,463.9H496.8v-15H258.7v15Z" class="g0_280"/>
<path fill-rule="evenodd" d="M258.7,478.9H496.8v-15H258.7v15Z" class="g0_280"/>
<path fill-rule="evenodd" d="M258,494H496.4V478.9H258V494Z" class="g0_280"/>
<path fill-rule="evenodd" d="M258,509H496.4V494H258v15Z" class="g0_280"/>
<path fill-rule="evenodd" d="M258,524H496.4V509H258v15Z" class="g0_280"/>
<path fill-rule="evenodd" d="M258.3,539.1H496.4V524H258.3v15.1Z" class="g0_280"/>
<path fill-rule="evenodd" d="M258.3,554.3H496.4V539.1H258.3v15.2Z" class="g0_280"/>
<path fill-rule="evenodd" d="M258.3,569.3H496.4v-15H258.3v15Z" class="g0_280"/>
<path fill-rule="evenodd" d="M258.3,584.4H496.4V569.3H258.3v15.1Z" class="g0_280"/>
<path fill-rule="evenodd" d="M258.3,599.4H496.4v-15H258.3v15Z" class="g0_280"/>
<path fill-rule="evenodd" d="M257.6,614.5H496.4V599.4H257.6v15.1Z" class="g0_280"/>
<path fill-rule="evenodd" d="M257.6,629.5H496.4v-15H257.6v15Z" class="g0_280"/>
<path fill-rule="evenodd" d="M257.6,644.5H496.4v-15H257.6v15Z" class="g0_280"/>
<path fill-rule="evenodd" d="M257.6,659.6H496.4V644.5H257.6v15.1Z" class="g0_280"/>
<path fill-rule="evenodd" d="M257.6,674.6H496v-15H257.6v15Z" class="g0_280"/>
<path fill-rule="evenodd" d="M257.6,689.6H496v-15H257.6v15Z" class="g0_280"/>
<path fill-rule="evenodd" d="M257.6,704.7H496V689.6H257.6v15.1Z" class="g0_280"/>
<path fill-rule="evenodd" d="M257.6,719.7H496v-15H257.6v15Z" class="g0_280"/>
<path fill-rule="evenodd" d="M257.6,734.9H496V719.7H257.6v15.2Z" class="g0_280"/>
<path fill-rule="evenodd" d="M257.6,749.9H496v-15H257.6v15Z" class="g0_280"/>
<path fill-rule="evenodd" d="M257.6,765H496V749.9H257.6V765Z" class="g0_280"/>
<path fill-rule="evenodd" d="M257.6,780H496V765H257.6v15Z" class="g0_280"/>
<path fill-rule="evenodd" d="M257.2,795H496V780H257.2v15Z" class="g0_280"/>
<path fill-rule="evenodd" d="M257.2,810.1H496V795H257.2v15.1Z" class="g0_280"/>
<path fill-rule="evenodd" d="M257.2,825.1H496v-15H257.2v15Z" class="g0_280"/>
<path fill-rule="evenodd" d="M256.9,840.2H496.8V825.1H256.9v15.1Z" class="g0_280"/>
<path fill-rule="evenodd" d="M256.9,855.2H496.8v-15H256.9v15Z" class="g0_280"/>
<path fill-rule="evenodd" d="M256.9,870.3H496.8V855.2H256.9v15.1Z" class="g0_280"/>
<path fill-rule="evenodd" d="M257.2,885.3H495.7v-15H257.2v15Z" class="g0_280"/>
<path fill-rule="evenodd" d="M257.2,900.3H495.7v-15H257.2v15Z" class="g0_280"/>
<path fill-rule="evenodd" d="M258.3,915.5H497.5V900.3H258.3v15.2Z" class="g0_280"/>
<path fill-rule="evenodd" d="M517.7,162.1H756v-15H517.7v15Z" class="g0_280"/>
<path fill-rule="evenodd" d="M517.7,177.1H756v-15H517.7v15Z" class="g0_280"/>
<path fill-rule="evenodd" d="M517.7,192.2H756V177.1H517.7v15.1Z" class="g0_280"/>
<path fill-rule="evenodd" d="M517.7,207.2H756v-15H517.7v15Z" class="g0_280"/>
<path fill-rule="evenodd" d="M517.7,222.2H756.4v-15H517.7v15Z" class="g0_280"/>
<path fill-rule="evenodd" d="M517.7,237.4H756.4V222.2H517.7v15.2Z" class="g0_280"/>
<path fill-rule="evenodd" d="M517.7,252.5H756.4V237.4H517.7v15.1Z" class="g0_280"/>
<path fill-rule="evenodd" d="M517.7,267.5H756.4v-15H517.7v15Z" class="g0_280"/>
<path fill-rule="evenodd" d="M517.7,282.5H756v-15H517.7v15Z" class="g0_280"/>
<path fill-rule="evenodd" d="M517.7,297.6H756V282.5H517.7v15.1Z" class="g0_280"/>
<path fill-rule="evenodd" d="M516.9,312.6H756v-15H516.9v15Z" class="g0_280"/>
<path fill-rule="evenodd" d="M516.9,327.6H756v-15H516.9v15Z" class="g0_280"/>
<path fill-rule="evenodd" d="M516.9,342.7H756V327.6H516.9v15.1Z" class="g0_280"/>
<path fill-rule="evenodd" d="M516.9,357.8H756V342.7H516.9v15.1Z" class="g0_280"/>
<path fill-rule="evenodd" d="M516.9,372.8H756v-15H516.9v15Z" class="g0_280"/>
<path fill-rule="evenodd" d="M516.9,387.8H756v-15H516.9v15Z" class="g0_280"/>
<path fill-rule="evenodd" d="M516.9,403H756V387.8H516.9V403Z" class="g0_280"/>
<path fill-rule="evenodd" d="M516.9,418.1H756V403H516.9v15.1Z" class="g0_280"/>
<path fill-rule="evenodd" d="M516.9,433.1H756v-15H516.9v15Z" class="g0_280"/>
<path fill-rule="evenodd" d="M516.9,448.1H756v-15H516.9v15Z" class="g0_280"/>
<path fill-rule="evenodd" d="M516.9,463.2H756V448.1H516.9v15.1Z" class="g0_280"/>
<path fill-rule="evenodd" d="M516.6,478.2H756.4v-15H516.6v15Z" class="g0_280"/>
<path fill-rule="evenodd" d="M516.6,493.2H756.4v-15H516.6v15Z" class="g0_280"/>
<path fill-rule="evenodd" d="M516.6,508.3H756.4V493.2H516.6v15.1Z" class="g0_280"/>
<path fill-rule="evenodd" d="M516.6,523.3H756.4v-15H516.6v15Z" class="g0_280"/>
<path fill-rule="evenodd" d="M516.6,538.3H756.4v-15H516.6v15Z" class="g0_280"/>
<path fill-rule="evenodd" d="M516.6,553.4H755.7V538.3H516.6v15.1Z" class="g0_280"/>
<path fill-rule="evenodd" d="M516.6,568.4H755.7v-15H516.6v15Z" class="g0_280"/>
<path fill-rule="evenodd" d="M516.6,583.6H755.7V568.4H516.6v15.2Z" class="g0_280"/>
<path fill-rule="evenodd" d="M516.6,598.7H755.7V583.6H516.6v15.1Z" class="g0_280"/>
<path fill-rule="evenodd" d="M516.6,613.7H755.7v-15H516.6v15Z" class="g0_280"/>
<path fill-rule="evenodd" d="M516.6,628.8H706.5V613.7H516.6v15.1Z" class="g0_280"/>
<path fill-rule="evenodd" d="M516.6,643.8H706.5v-15H516.6v15Z" class="g0_280"/>
<path fill-rule="evenodd" d="M516.6,658.8H755.3v-15H516.6v15Z" class="g0_280"/>
<path fill-rule="evenodd" d="M516.6,673.9H755.3V658.8H516.6v15.1Z" class="g0_280"/>
<path fill-rule="evenodd" d="M516.6,688.9H755.3v-15H516.6v15Z" class="g0_280"/>
<path fill-rule="evenodd" d="M516.6,703.9H755.3v-15H516.6v15Z" class="g0_280"/>
<path fill-rule="evenodd" d="M516.6,719H755.3V703.9H516.6V719Z" class="g0_280"/>
<path fill-rule="evenodd" d="M516.6,734H755.3V719H516.6v15Z" class="g0_280"/>
<path fill-rule="evenodd" d="M516.6,749H755.3V734H516.6v15Z" class="g0_280"/>
<path fill-rule="evenodd" d="M534.9,764.2H756.4V749H534.9v15.2Z" class="g0_280"/>
<path fill-rule="evenodd" d="M516.2,781.8H756.4V766.1H516.2v15.7Z" class="g0_280"/>
<path fill-rule="evenodd" d="M516.6,796.9H706.5V781.8H516.6v15.1Z" class="g0_280"/>
<path fill-rule="evenodd" d="M516.6,811.9H706.5v-15H516.6v15Z" class="g0_280"/>
<path fill-rule="evenodd" d="M516.6,826.9H756.4v-15H516.6v15Z" class="g0_280"/>
<path fill-rule="evenodd" d="M516.6,842H756.4V826.9H516.6V842Z" class="g0_280"/>
<path fill-rule="evenodd" d="M516.6,857.1H756.4V842H516.6v15.1Z" class="g0_280"/>
<path fill-rule="evenodd" d="M516.6,872.1H756.4v-15H516.6v15Z" class="g0_280"/>
<path fill-rule="evenodd" d="M493.1,933H756.4V915.4H493.1V933Z" class="g0_280"/>
<path d="M506.2,148.5V915.9" class="g1_280"/>
</svg>