<?xml version="1.0" encoding="UTF-8" standalone="no"?>
<!DOCTYPE svg PUBLIC "-//W3C//DTD SVG 1.1//EN"
"http://www.w3.org/Graphics/SVG/1.1/DTD/svg11.dtd">
<svg viewBox="0 0 909 1285" version="1.1" xmlns="http://www.w3.org/2000/svg" xmlns:xlink="http://www.w3.org/1999/xlink">
<defs>
<style type="text/css"><![CDATA[
.g0_314{
fill: #FFFFFF;
}
.g1_314{
fill: none;
stroke: #000000;
stroke-width: 0.381;
stroke-linecap: butt;
stroke-linejoin: round;
}
]]></style>
</defs>
<path fill-rule="evenodd" d="M644.8,134.6h59.4V110H644.8v24.6Z" class="g0_314"/>
<path fill-rule="evenodd" d="M196.9,169.4H431.6V154.8H196.9v14.6Z" class="g0_314"/>
<path fill-rule="evenodd" d="M196.9,184.1H431.6V169.4H196.9v14.7Z" class="g0_314"/>
<path fill-rule="evenodd" d="M196.9,198.8H431.6V184.1H196.9v14.7Z" class="g0_314"/>
<path fill-rule="evenodd" d="M196.9,213.4H431.6V198.8H196.9v14.6Z" class="g0_314"/>
<path fill-rule="evenodd" d="M196.9,228.1H431.6V213.4H196.9v14.7Z" class="g0_314"/>
<path fill-rule="evenodd" d="M214.9,243.1H431.6V228.5H214.9v14.6Z" class="g0_314"/>
<path fill-rule="evenodd" d="M214.9,257.8H431.6V243.1H214.9v14.7Z" class="g0_314"/>
<path fill-rule="evenodd" d="M196.6,272.8H431.3V258.2H196.6v14.6Z" class="g0_314"/>
<path fill-rule="evenodd" d="M196.6,287.5H431.3V272.8H196.6v14.7Z" class="g0_314"/>
<path fill-rule="evenodd" d="M196.6,302.2H431.3V287.5H196.6v14.7Z" class="g0_314"/>
<path fill-rule="evenodd" d="M195.5,317.2H431.3V302.5H195.5v14.7Z" class="g0_314"/>
<path fill-rule="evenodd" d="M195.5,331.9H431.3V317.2H195.5v14.7Z" class="g0_314"/>
<path fill-rule="evenodd" d="M195.5,346.5H431.3V331.9H195.5v14.6Z" class="g0_314"/>
<path fill-rule="evenodd" d="M214.5,361.2H431.6V346.5H214.5v14.7Z" class="g0_314"/>
<path fill-rule="evenodd" d="M214.2,375.9H431.6V361.2H214.2v14.7Z" class="g0_314"/>
<path fill-rule="evenodd" d="M195.5,391.5H430.9V376.6H195.5v14.9Z" class="g0_314"/>
<path fill-rule="evenodd" d="M195.5,406.2H430.9V391.5H195.5v14.7Z" class="g0_314"/>
<path fill-rule="evenodd" d="M195.5,420.8H430.9V406.2H195.5v14.6Z" class="g0_314"/>
<path fill-rule="evenodd" d="M194.7,435.5H430.5V420.8H194.7v14.7Z" class="g0_314"/>
<path fill-rule="evenodd" d="M194.7,450.2H430.5V435.5H194.7v14.7Z" class="g0_314"/>
<path fill-rule="evenodd" d="M194.7,464.8H430.5V450.2H194.7v14.6Z" class="g0_314"/>
<path fill-rule="evenodd" d="M194.7,479.5H430.5V464.8H194.7v14.7Z" class="g0_314"/>
<path fill-rule="evenodd" d="M213.1,494.2H431.6V479.5H213.1v14.7Z" class="g0_314"/>
<path fill-rule="evenodd" d="M194,508.8H431.3V494.2H194v14.6Z" class="g0_314"/>
<path fill-rule="evenodd" d="M194,523.5H431.3V508.8H194v14.7Z" class="g0_314"/>
<path fill-rule="evenodd" d="M194,538.2H431.3V523.5H194v14.7Z" class="g0_314"/>
<path fill-rule="evenodd" d="M194,552.8H431.3V538.2H194v14.6Z" class="g0_314"/>
<path fill-rule="evenodd" d="M194,567.5H431.3V552.8H194v14.7Z" class="g0_314"/>
<path fill-rule="evenodd" d="M194,582.2H431.3V567.5H194v14.7Z" class="g0_314"/>
<path fill-rule="evenodd" d="M194,596.9H431.3V582.2H194v14.7Z" class="g0_314"/>
<path fill-rule="evenodd" d="M194,611.5H430.9V596.9H194v14.6Z" class="g0_314"/>
<path fill-rule="evenodd" d="M194,626.2H430.9V611.5H194v14.7Z" class="g0_314"/>
<path fill-rule="evenodd" d="M193.3,640.9H430.5V626.2H193.3v14.7Z" class="g0_314"/>
<path fill-rule="evenodd" d="M193.3,655.5H430.5V640.9H193.3v14.6Z" class="g0_314"/>
<path fill-rule="evenodd" d="M193.3,670.2H430.5V655.5H193.3v14.7Z" class="g0_314"/>
<path fill-rule="evenodd" d="M193.3,684.9H430.5V670.2H193.3v14.7Z" class="g0_314"/>
<path fill-rule="evenodd" d="M193.3,699.5H430.5V684.9H193.3v14.6Z" class="g0_314"/>
<path fill-rule="evenodd" d="M193.3,714.2H430.5V699.5H193.3v14.7Z" class="g0_314"/>
<path fill-rule="evenodd" d="M192.9,728.9H431.3V714.2H192.9v14.7Z" class="g0_314"/>
<path fill-rule="evenodd" d="M192.9,743.5H431.3V728.9H192.9v14.6Z" class="g0_314"/>
<path fill-rule="evenodd" d="M192.9,758.2H431.3V743.5H192.9v14.7Z" class="g0_314"/>
<path fill-rule="evenodd" d="M192.9,772.9H431.3V758.2H192.9v14.7Z" class="g0_314"/>
<path fill-rule="evenodd" d="M192.5,787.5H431.3V772.9H192.5v14.6Z" class="g0_314"/>
<path fill-rule="evenodd" d="M192.5,802.2H431.3V787.5H192.5v14.7Z" class="g0_314"/>
<path fill-rule="evenodd" d="M210.5,816.9H431.6V802.2H210.5v14.7Z" class="g0_314"/>
<path fill-rule="evenodd" d="M192.2,831.9H430.9V817.2H192.2v14.7Z" class="g0_314"/>
<path fill-rule="evenodd" d="M192.2,846.6H430.9V831.9H192.2v14.7Z" class="g0_314"/>
<path fill-rule="evenodd" d="M191.8,861.3H431.6V846.6H191.8v14.7Z" class="g0_314"/>
<path fill-rule="evenodd" d="M191.8,875.9H431.6V861.3H191.8v14.6Z" class="g0_314"/>
<path fill-rule="evenodd" d="M191.8,890.6H431.6V875.9H191.8v14.7Z" class="g0_314"/>
<path fill-rule="evenodd" d="M191.8,905.3H431.6V890.6H191.8v14.7Z" class="g0_314"/>
<path fill-rule="evenodd" d="M192.9,919.9h238V905.3h-238v14.6Z" class="g0_314"/>
<path fill-rule="evenodd" d="M452.2,168.3H692V153.7H452.2v14.6Z" class="g0_314"/>
<path fill-rule="evenodd" d="M452.2,183H692V168.3H452.2V183Z" class="g0_314"/>
<path fill-rule="evenodd" d="M452.6,197.7H692.4V183H452.6v14.7Z" class="g0_314"/>
<path fill-rule="evenodd" d="M452.6,212.3H692.4V197.7H452.6v14.6Z" class="g0_314"/>
<path fill-rule="evenodd" d="M452.6,227H692.4V212.3H452.6V227Z" class="g0_314"/>
<path fill-rule="evenodd" d="M452.6,241.7H692.4V227H452.6v14.7Z" class="g0_314"/>
<path fill-rule="evenodd" d="M452.6,256.3H692.4V241.7H452.6v14.6Z" class="g0_314"/>
<path fill-rule="evenodd" d="M452.6,271H692.4V256.3H452.6V271Z" class="g0_314"/>
<path fill-rule="evenodd" d="M452.6,285.7H692.4V271H452.6v14.7Z" class="g0_314"/>
<path fill-rule="evenodd" d="M470.9,300.7H692.8V286H470.9v14.7Z" class="g0_314"/>
<path fill-rule="evenodd" d="M470.5,315.4H692.8V300.7H470.5v14.7Z" class="g0_314"/>
<path fill-rule="evenodd" d="M470.5,330.4H692.8v-15H470.5v15Z" class="g0_314"/>
<path fill-rule="evenodd" d="M452.2,345.6H692.4V330.8H452.2v14.8Z" class="g0_314"/>
<path fill-rule="evenodd" d="M452.2,360.3H692.4V345.6H452.2v14.7Z" class="g0_314"/>
<path fill-rule="evenodd" d="M451.8,375H692.4V360.3H451.8V375Z" class="g0_314"/>
<path fill-rule="evenodd" d="M451.8,389.7H692.4V375H451.8v14.7Z" class="g0_314"/>
<path fill-rule="evenodd" d="M451.8,404.3H692.4V389.7H451.8v14.6Z" class="g0_314"/>
<path fill-rule="evenodd" d="M451.8,419H692.4V404.3H451.8V419Z" class="g0_314"/>
<path fill-rule="evenodd" d="M451.8,433.7H692.4V419H451.8v14.7Z" class="g0_314"/>
<path fill-rule="evenodd" d="M451.8,448.7h241V434h-241v14.7Z" class="g0_314"/>
<path fill-rule="evenodd" d="M451.8,463.4h241V448.7h-241v14.7Z" class="g0_314"/>
<path fill-rule="evenodd" d="M451.8,478h241V463.4h-241V478Z" class="g0_314"/>
<path fill-rule="evenodd" d="M470.5,492.7H692.8V478H470.5v14.7Z" class="g0_314"/>
<path fill-rule="evenodd" d="M451.8,507.7H692V493.1H451.8v14.6Z" class="g0_314"/>
<path fill-rule="evenodd" d="M451.8,522.4H692V507.7H451.8v14.7Z" class="g0_314"/>
<path fill-rule="evenodd" d="M451.1,537.1H692.8V522.4H451.1v14.7Z" class="g0_314"/>
<path fill-rule="evenodd" d="M451.1,551.7H692.8V537.1H451.1v14.6Z" class="g0_314"/>
<path fill-rule="evenodd" d="M451.1,566.4H692.8V551.7H451.1v14.7Z" class="g0_314"/>
<path fill-rule="evenodd" d="M451.1,581.1H692.8V566.4H451.1v14.7Z" class="g0_314"/>
<path fill-rule="evenodd" d="M451.1,595.8H692.8V581.1H451.1v14.7Z" class="g0_314"/>
<path fill-rule="evenodd" d="M470.2,610.4H692.8V595.8H470.2v14.6Z" class="g0_314"/>
<path fill-rule="evenodd" d="M452.2,625.1H692.4V610.4H452.2v14.7Z" class="g0_314"/>
<path fill-rule="evenodd" d="M452.2,639.8H692.4V625.1H452.2v14.7Z" class="g0_314"/>
<path fill-rule="evenodd" d="M451.8,654.8H692.4V640.1H451.8v14.7Z" class="g0_314"/>
<path fill-rule="evenodd" d="M451.8,669.5H692.4V654.8H451.8v14.7Z" class="g0_314"/>
<path fill-rule="evenodd" d="M451.8,684.1H692.4V669.5H451.8v14.6Z" class="g0_314"/>
<path fill-rule="evenodd" d="M451.8,698.8H692.4V684.1H451.8v14.7Z" class="g0_314"/>
<path fill-rule="evenodd" d="M451.8,713.5H692.4V698.8H451.8v14.7Z" class="g0_314"/>
<path fill-rule="evenodd" d="M452.6,728.5H692.8V713.8H452.6v14.7Z" class="g0_314"/>
<path fill-rule="evenodd" d="M452.6,743.2H692.8V728.5H452.6v14.7Z" class="g0_314"/>
<path fill-rule="evenodd" d="M470.5,758.2H692.8V743.5H470.5v14.7Z" class="g0_314"/>
<path fill-rule="evenodd" d="M452.2,772.9H692.4V758.2H452.2v14.7Z" class="g0_314"/>
<path fill-rule="evenodd" d="M452.2,787.5H692.4V772.9H452.2v14.6Z" class="g0_314"/>
<path fill-rule="evenodd" d="M470.2,802.6H692.8V787.9H470.2v14.7Z" class="g0_314"/>
<path fill-rule="evenodd" d="M470.5,817.6H692.8V802.9H470.5v14.7Z" class="g0_314"/>
<path fill-rule="evenodd" d="M470.5,832.3H692.8V817.6H470.5v14.7Z" class="g0_314"/>
<path fill-rule="evenodd" d="M470.5,847H692.8V832.3H470.5V847Z" class="g0_314"/>
<path fill-rule="evenodd" d="M452.6,861.6H692.8V847H452.6v14.6Z" class="g0_314"/>
<path fill-rule="evenodd" d="M452.6,876.3H692.8V861.6H452.6v14.7Z" class="g0_314"/>
<path fill-rule="evenodd" d="M452.6,891H692.8V876.3H452.6V891Z" class="g0_314"/>
<path fill-rule="evenodd" d="M428.7,936.6H704.2V919.2H428.7v17.4Z" class="g0_314"/>
<path d="M440.7,153.7V922.9" class="g1_314"/>
</svg>