<?xml version="1.0" encoding="UTF-8" standalone="no"?>
<!DOCTYPE svg PUBLIC "-//W3C//DTD SVG 1.1//EN"
"http://www.w3.org/Graphics/SVG/1.1/DTD/svg11.dtd">
<svg viewBox="0 0 909 1285" version="1.1" xmlns="http://www.w3.org/2000/svg" xmlns:xlink="http://www.w3.org/1999/xlink">
<defs>
<style type="text/css"><![CDATA[
.g0_252{
fill: #FFFFFF;
}
.g1_252{
fill: none;
stroke: #000000;
stroke-width: 0.381;
stroke-linecap: butt;
stroke-linejoin: round;
}
]]></style>
</defs>
<path fill-rule="evenodd" d="M263.3,125.8H760.2V110H263.3v15.8Z" class="g0_252"/>
<path fill-rule="evenodd" d="M262.6,162.1H501.3v-15H262.6v15Z" class="g0_252"/>
<path fill-rule="evenodd" d="M262.6,177.1H501.3v-15H262.6v15Z" class="g0_252"/>
<path fill-rule="evenodd" d="M262.6,192.2H501.3V177.1H262.6v15.1Z" class="g0_252"/>
<path fill-rule="evenodd" d="M262.6,207.2H501.3v-15H262.6v15Z" class="g0_252"/>
<path fill-rule="evenodd" d="M262.6,222.2H501.7v-15H262.6v15Z" class="g0_252"/>
<path fill-rule="evenodd" d="M262.6,237.4H501.7V222.2H262.6v15.2Z" class="g0_252"/>
<path fill-rule="evenodd" d="M262.2,252.5H501V237.4H262.2v15.1Z" class="g0_252"/>
<path fill-rule="evenodd" d="M262.2,267.5H501v-15H262.2v15Z" class="g0_252"/>
<path fill-rule="evenodd" d="M262.2,282.5H501v-15H262.2v15Z" class="g0_252"/>
<path fill-rule="evenodd" d="M262.2,297.6H501V282.5H262.2v15.1Z" class="g0_252"/>
<path fill-rule="evenodd" d="M262.2,312.6H501v-15H262.2v15Z" class="g0_252"/>
<path fill-rule="evenodd" d="M262.2,327.6H501v-15H262.2v15Z" class="g0_252"/>
<path fill-rule="evenodd" d="M262.2,342.7H501V327.6H262.2v15.1Z" class="g0_252"/>
<path fill-rule="evenodd" d="M260.7,357.8H500.2V342.7H260.7v15.1Z" class="g0_252"/>
<path fill-rule="evenodd" d="M260.7,372.8H500.2v-15H260.7v15Z" class="g0_252"/>
<path fill-rule="evenodd" d="M260.7,387.8H500.2v-15H260.7v15Z" class="g0_252"/>
<path fill-rule="evenodd" d="M260.7,403H500.2V387.8H260.7V403Z" class="g0_252"/>
<path fill-rule="evenodd" d="M260.7,418.1H500.2V403H260.7v15.1Z" class="g0_252"/>
<path fill-rule="evenodd" d="M261.1,433.1H500.2v-15H261.1v15Z" class="g0_252"/>
<path fill-rule="evenodd" d="M261.1,448.1H500.2v-15H261.1v15Z" class="g0_252"/>
<path fill-rule="evenodd" d="M261.1,463.2H500.2V448.1H261.1v15.1Z" class="g0_252"/>
<path fill-rule="evenodd" d="M261.1,478.2H500.2v-15H261.1v15Z" class="g0_252"/>
<path fill-rule="evenodd" d="M260.4,493.2H500.2v-15H260.4v15Z" class="g0_252"/>
<path fill-rule="evenodd" d="M260.4,508.3H500.2V493.2H260.4v15.1Z" class="g0_252"/>
<path fill-rule="evenodd" d="M260.4,523.3H500.2v-15H260.4v15Z" class="g0_252"/>
<path fill-rule="evenodd" d="M261.1,538.3H499.5v-15H261.1v15Z" class="g0_252"/>
<path fill-rule="evenodd" d="M261.1,553.4H499.5V538.3H261.1v15.1Z" class="g0_252"/>
<path fill-rule="evenodd" d="M261.1,568.4H499.5v-15H261.1v15Z" class="g0_252"/>
<path fill-rule="evenodd" d="M261.1,583.6H499.5V568.4H261.1v15.2Z" class="g0_252"/>
<path fill-rule="evenodd" d="M261.1,598.7H499.5V583.6H261.1v15.1Z" class="g0_252"/>
<path fill-rule="evenodd" d="M261.1,613.7H499.5v-15H261.1v15Z" class="g0_252"/>
<path fill-rule="evenodd" d="M261.1,628.8H499.5V613.7H261.1v15.1Z" class="g0_252"/>
<path fill-rule="evenodd" d="M261.1,643.8H499.5v-15H261.1v15Z" class="g0_252"/>
<path fill-rule="evenodd" d="M261.1,658.8H499.5v-15H261.1v15Z" class="g0_252"/>
<path fill-rule="evenodd" d="M261.1,673.9H499.5V658.8H261.1v15.1Z" class="g0_252"/>
<path fill-rule="evenodd" d="M260.7,688.9H499.5v-15H260.7v15Z" class="g0_252"/>
<path fill-rule="evenodd" d="M260.7,703.9H499.5v-15H260.7v15Z" class="g0_252"/>
<path fill-rule="evenodd" d="M260.7,719H499.5V703.9H260.7V719Z" class="g0_252"/>
<path fill-rule="evenodd" d="M260.7,734H499.5V719H260.7v15Z" class="g0_252"/>
<path fill-rule="evenodd" d="M260.7,749h241V734h-241v15Z" class="g0_252"/>
<path fill-rule="evenodd" d="M279.5,764.2H501.7V749H279.5v15.2Z" class="g0_252"/>
<path fill-rule="evenodd" d="M279.1,779.3H501.7V764.2H279.1v15.1Z" class="g0_252"/>
<path fill-rule="evenodd" d="M260.4,794.3H499.1v-15H260.4v15Z" class="g0_252"/>
<path fill-rule="evenodd" d="M260.4,809.3H499.1v-15H260.4v15Z" class="g0_252"/>
<path fill-rule="evenodd" d="M260.4,824.4H499.1V809.3H260.4v15.1Z" class="g0_252"/>
<path fill-rule="evenodd" d="M260.4,839.5H499.1V824.4H260.4v15.1Z" class="g0_252"/>
<path fill-rule="evenodd" d="M260.4,854.5H499.5v-15H260.4v15Z" class="g0_252"/>
<path fill-rule="evenodd" d="M260.4,869.5H499.5v-15H260.4v15Z" class="g0_252"/>
<path fill-rule="evenodd" d="M260.4,884.6H499.5V869.5H260.4v15.1Z" class="g0_252"/>
<path fill-rule="evenodd" d="M260.4,899.6H499.5v-15H260.4v15Z" class="g0_252"/>
<path fill-rule="evenodd" d="M263.3,914.6H501.7v-15H263.3v15Z" class="g0_252"/>
<path fill-rule="evenodd" d="M521.7,162.1H760.1v-15H521.7v15Z" class="g0_252"/>
<path fill-rule="evenodd" d="M521.7,177.1H760.1v-15H521.7v15Z" class="g0_252"/>
<path fill-rule="evenodd" d="M540,192.2H760.1V177.1H540v15.1Z" class="g0_252"/>
<path fill-rule="evenodd" d="M539.7,207.2H760.1v-15H539.7v15Z" class="g0_252"/>
<path fill-rule="evenodd" d="M539.7,222.2H760.1v-15H539.7v15Z" class="g0_252"/>
<path fill-rule="evenodd" d="M520.6,237.4H759.7V222.2H520.6v15.2Z" class="g0_252"/>
<path fill-rule="evenodd" d="M520.6,252.5H759.7V237.4H520.6v15.1Z" class="g0_252"/>
<path fill-rule="evenodd" d="M539.7,267.5H760.1v-15H539.7v15Z" class="g0_252"/>
<path fill-rule="evenodd" d="M520.6,282.5H759.3v-15H520.6v15Z" class="g0_252"/>
<path fill-rule="evenodd" d="M520.6,297.6H759.3V282.5H520.6v15.1Z" class="g0_252"/>
<path fill-rule="evenodd" d="M520.6,312.6H759.3v-15H520.6v15Z" class="g0_252"/>
<path fill-rule="evenodd" d="M521,327.6H759.3v-15H521v15Z" class="g0_252"/>
<path fill-rule="evenodd" d="M521,342.7H759.3V327.6H521v15.1Z" class="g0_252"/>
<path fill-rule="evenodd" d="M521,357.8H759.3V342.7H521v15.1Z" class="g0_252"/>
<path fill-rule="evenodd" d="M521,372.8H759.3v-15H521v15Z" class="g0_252"/>
<path fill-rule="evenodd" d="M521,387.8H759.3v-15H521v15Z" class="g0_252"/>
<path fill-rule="evenodd" d="M521,403H759V387.8H521V403Z" class="g0_252"/>
<path fill-rule="evenodd" d="M521,418.1H759V403H521v15.1Z" class="g0_252"/>
<path fill-rule="evenodd" d="M520.2,433.1H759v-15H520.2v15Z" class="g0_252"/>
<path fill-rule="evenodd" d="M520.2,448.1H759v-15H520.2v15Z" class="g0_252"/>
<path fill-rule="evenodd" d="M520.2,463.2H759V448.1H520.2v15.1Z" class="g0_252"/>
<path fill-rule="evenodd" d="M520.2,478.2H759v-15H520.2v15Z" class="g0_252"/>
<path fill-rule="evenodd" d="M520.2,493.2H758.6v-15H520.2v15Z" class="g0_252"/>
<path fill-rule="evenodd" d="M520.2,508.3H758.6V493.2H520.2v15.1Z" class="g0_252"/>
<path fill-rule="evenodd" d="M520.2,523.3H758.6v-15H520.2v15Z" class="g0_252"/>
<path fill-rule="evenodd" d="M520.2,538.3H758.6v-15H520.2v15Z" class="g0_252"/>
<path fill-rule="evenodd" d="M519.1,553.4H758.6V538.3H519.1v15.1Z" class="g0_252"/>
<path fill-rule="evenodd" d="M519.1,568.4H758.6v-15H519.1v15Z" class="g0_252"/>
<path fill-rule="evenodd" d="M519.1,583.6H758.6V568.4H519.1v15.2Z" class="g0_252"/>
<path fill-rule="evenodd" d="M519.1,598.7H758.6V583.6H519.1v15.1Z" class="g0_252"/>
<path fill-rule="evenodd" d="M519.1,613.7H758.6v-15H519.1v15Z" class="g0_252"/>
<path fill-rule="evenodd" d="M519.1,628.8H758.6V613.7H519.1v15.1Z" class="g0_252"/>
<path fill-rule="evenodd" d="M519.1,643.8H758.6v-15H519.1v15Z" class="g0_252"/>
<path fill-rule="evenodd" d="M519.1,658.8H758.6v-15H519.1v15Z" class="g0_252"/>
<path fill-rule="evenodd" d="M519.1,673.9H758.2V658.8H519.1v15.1Z" class="g0_252"/>
<path fill-rule="evenodd" d="M519.1,688.9H758.2v-15H519.1v15Z" class="g0_252"/>
<path fill-rule="evenodd" d="M519.1,703.9H758.2v-15H519.1v15Z" class="g0_252"/>
<path fill-rule="evenodd" d="M519.1,719H758.2V703.9H519.1V719Z" class="g0_252"/>
<path fill-rule="evenodd" d="M519.1,734H758.2V719H519.1v15Z" class="g0_252"/>
<path fill-rule="evenodd" d="M519.1,749H758.2V734H519.1v15Z" class="g0_252"/>
<path fill-rule="evenodd" d="M519.1,764.2H758.2V749H519.1v15.2Z" class="g0_252"/>
<path fill-rule="evenodd" d="M519.1,779.3H758.2V764.2H519.1v15.1Z" class="g0_252"/>
<path fill-rule="evenodd" d="M519.1,794.3H758.2v-15H519.1v15Z" class="g0_252"/>
<path fill-rule="evenodd" d="M519.1,809.3H757.9v-15H519.1v15Z" class="g0_252"/>
<path fill-rule="evenodd" d="M519.1,824.4H757.9V809.3H519.1v15.1Z" class="g0_252"/>
<path fill-rule="evenodd" d="M519.1,839.5H757.9V824.4H519.1v15.1Z" class="g0_252"/>
<path fill-rule="evenodd" d="M518.8,854.5H757.5v-15H518.8v15Z" class="g0_252"/>
<path fill-rule="evenodd" d="M518.8,869.5H757.5v-15H518.8v15Z" class="g0_252"/>
<path fill-rule="evenodd" d="M518.8,884.6H757.5V869.5H518.8v15.1Z" class="g0_252"/>
<path fill-rule="evenodd" d="M495.8,931.9H760.2V914.3H495.8v17.6Z" class="g0_252"/>
<path d="M199.4,471.9V900.5M508.9,148.1V915.9" class="g1_252"/>
</svg>