<?xml version="1.0" encoding="UTF-8" standalone="no"?>
<!DOCTYPE svg PUBLIC "-//W3C//DTD SVG 1.1//EN"
"http://www.w3.org/Graphics/SVG/1.1/DTD/svg11.dtd">
<svg viewBox="0 0 909 1285" version="1.1" xmlns="http://www.w3.org/2000/svg" xmlns:xlink="http://www.w3.org/1999/xlink">
<defs>
<style type="text/css"><![CDATA[
.g0_334{
fill: #FFFFFF;
}
.g1_334{
fill: none;
stroke: #000000;
stroke-width: 0.381;
stroke-linecap: butt;
stroke-linejoin: round;
}
]]></style>
</defs>
<path fill-rule="evenodd" d="M642.7,127.6h59.4V110H642.7v17.6Z" class="g0_334"/>
<path fill-rule="evenodd" d="M200.4,163.2H439.5v-15H200.4v15Z" class="g0_334"/>
<path fill-rule="evenodd" d="M200.4,178.2H439.5v-15H200.4v15Z" class="g0_334"/>
<path fill-rule="evenodd" d="M200.4,193.3H439.5V178.2H200.4v15.1Z" class="g0_334"/>
<path fill-rule="evenodd" d="M200.8,208.3H439.1v-15H200.8v15Z" class="g0_334"/>
<path fill-rule="evenodd" d="M200.8,223.3H439.1v-15H200.8v15Z" class="g0_334"/>
<path fill-rule="evenodd" d="M219.1,238.4H439.5V223.3H219.1v15.1Z" class="g0_334"/>
<path fill-rule="evenodd" d="M200.8,253.4H439.1v-15H200.8v15Z" class="g0_334"/>
<path fill-rule="evenodd" d="M460.5,162.8H701v-15H460.5v15Z" class="g0_334"/>
<path fill-rule="evenodd" d="M478.8,177.9H701.4V162.8H478.8v15.1Z" class="g0_334"/>
<path fill-rule="evenodd" d="M478.8,192.9H701.4v-15H478.8v15Z" class="g0_334"/>
<path fill-rule="evenodd" d="M460.5,207.9H701.4v-15H460.5v15Z" class="g0_334"/>
<path fill-rule="evenodd" d="M430.4,306.6H702.1v-25H430.4v25Z" class="g0_334"/>
<path fill-rule="evenodd" d="M200,343.6H439.5V328.9H200v14.7Z" class="g0_334"/>
<path fill-rule="evenodd" d="M200,358.3H439.5V343.6H200v14.7Z" class="g0_334"/>
<path fill-rule="evenodd" d="M200,373H439.5V358.3H200V373Z" class="g0_334"/>
<path fill-rule="evenodd" d="M218,387.6H439.5V373H218v14.6Z" class="g0_334"/>
<path fill-rule="evenodd" d="M218,402.7H439.5V387.6H218v15.1Z" class="g0_334"/>
<path fill-rule="evenodd" d="M218.4,417.3H439.5V402.7H218.4v14.6Z" class="g0_334"/>
<path fill-rule="evenodd" d="M218,432H439.5V417.3H218V432Z" class="g0_334"/>
<path fill-rule="evenodd" d="M217.6,447H439.5V432.4H217.6V447Z" class="g0_334"/>
<path fill-rule="evenodd" d="M217.6,461.7H439.5V447H217.6v14.7Z" class="g0_334"/>
<path fill-rule="evenodd" d="M218,476.7H439.5V462.1H218v14.6Z" class="g0_334"/>
<path fill-rule="evenodd" d="M218,491.4H439.5V476.7H218v14.7Z" class="g0_334"/>
<path fill-rule="evenodd" d="M200,507H438.8V492.1H200V507Z" class="g0_334"/>
<path fill-rule="evenodd" d="M200,521.7H438.8V507H200v14.7Z" class="g0_334"/>
<path fill-rule="evenodd" d="M217.6,536.7H439.5V522H217.6v14.7Z" class="g0_334"/>
<path fill-rule="evenodd" d="M199.3,551.7H438.4V537.1H199.3v14.6Z" class="g0_334"/>
<path fill-rule="evenodd" d="M199.3,566.4H438.4V551.7H199.3v14.7Z" class="g0_334"/>
<path fill-rule="evenodd" d="M198.9,581.1H438.4V566.4H198.9v14.7Z" class="g0_334"/>
<path fill-rule="evenodd" d="M198.9,595.8H438.4V581.1H198.9v14.7Z" class="g0_334"/>
<path fill-rule="evenodd" d="M198.9,610.4H438.4V595.8H198.9v14.6Z" class="g0_334"/>
<path fill-rule="evenodd" d="M198.6,625.5H438.8V610.8H198.6v14.7Z" class="g0_334"/>
<path fill-rule="evenodd" d="M198.6,640.1H438.8V625.5H198.6v14.6Z" class="g0_334"/>
<path fill-rule="evenodd" d="M198.6,654.8H438.8V640.1H198.6v14.7Z" class="g0_334"/>
<path fill-rule="evenodd" d="M198.6,669.5H438.8V654.8H198.6v14.7Z" class="g0_334"/>
<path fill-rule="evenodd" d="M198.6,684.1H438.8V669.5H198.6v14.6Z" class="g0_334"/>
<path fill-rule="evenodd" d="M217.3,699.5H439.5V684.9H217.3v14.6Z" class="g0_334"/>
<path fill-rule="evenodd" d="M198.9,714.2H437.7V699.5H198.9v14.7Z" class="g0_334"/>
<path fill-rule="evenodd" d="M198.9,728.9H437.7V714.2H198.9v14.7Z" class="g0_334"/>
<path fill-rule="evenodd" d="M199.3,743.9H438.4V729.2H199.3v14.7Z" class="g0_334"/>
<path fill-rule="evenodd" d="M199.3,758.6H438.4V743.9H199.3v14.7Z" class="g0_334"/>
<path fill-rule="evenodd" d="M198.9,773.6H438.8V758.9H198.9v14.7Z" class="g0_334"/>
<path fill-rule="evenodd" d="M198.9,788.3H438.8V773.6H198.9v14.7Z" class="g0_334"/>
<path fill-rule="evenodd" d="M198.9,802.9H438.8V788.3H198.9v14.6Z" class="g0_334"/>
<path fill-rule="evenodd" d="M198.9,817.6H438.4V802.9H198.9v14.7Z" class="g0_334"/>
<path fill-rule="evenodd" d="M198.9,832.3H438.4V817.6H198.9v14.7Z" class="g0_334"/>
<path fill-rule="evenodd" d="M216.9,847.3H439.5V832.7H216.9v14.6Z" class="g0_334"/>
<path fill-rule="evenodd" d="M198.2,862.4H438V847.7H198.2v14.7Z" class="g0_334"/>
<path fill-rule="evenodd" d="M198.2,877H438V862.4H198.2V877Z" class="g0_334"/>
<path fill-rule="evenodd" d="M198.2,891.7H438V877H198.2v14.7Z" class="g0_334"/>
<path fill-rule="evenodd" d="M198.2,906.4H438V891.7H198.2v14.7Z" class="g0_334"/>
<path fill-rule="evenodd" d="M198.9,921H439.5V906.4H198.9V921Z" class="g0_334"/>
<path fill-rule="evenodd" d="M459.7,341.8H700.3V327.1H459.7v14.7Z" class="g0_334"/>
<path fill-rule="evenodd" d="M459.7,356.5H700.3V341.8H459.7v14.7Z" class="g0_334"/>
<path fill-rule="evenodd" d="M460.1,371.5H699.9V356.8H460.1v14.7Z" class="g0_334"/>
<path fill-rule="evenodd" d="M460.1,386.2H699.9V371.5H460.1v14.7Z" class="g0_334"/>
<path fill-rule="evenodd" d="M459.7,401.2H699.9V386.5H459.7v14.7Z" class="g0_334"/>
<path fill-rule="evenodd" d="M459.7,415.9H699.9V401.2H459.7v14.7Z" class="g0_334"/>
<path fill-rule="evenodd" d="M459.4,430.5H700.3V415.9H459.4v14.6Z" class="g0_334"/>
<path fill-rule="evenodd" d="M459.4,445.2H700.3V430.5H459.4v14.7Z" class="g0_334"/>
<path fill-rule="evenodd" d="M459.4,459.9H700.3V445.2H459.4v14.7Z" class="g0_334"/>
<path fill-rule="evenodd" d="M459.7,475.5H699.6V460.6H459.7v14.9Z" class="g0_334"/>
<path fill-rule="evenodd" d="M459.7,490.1H699.6V475.5H459.7v14.6Z" class="g0_334"/>
<path fill-rule="evenodd" d="M459,505.5H699.6V490.9H459v14.6Z" class="g0_334"/>
<path fill-rule="evenodd" d="M459,520.2H699.6V505.5H459v14.7Z" class="g0_334"/>
<path fill-rule="evenodd" d="M459,534.9H699.6V520.2H459v14.7Z" class="g0_334"/>
<path fill-rule="evenodd" d="M459.4,549.5H699.6V534.9H459.4v14.6Z" class="g0_334"/>
<path fill-rule="evenodd" d="M459.4,564.2H699.6V549.5H459.4v14.7Z" class="g0_334"/>
<path fill-rule="evenodd" d="M459.4,578.9H699.6V564.2H459.4v14.7Z" class="g0_334"/>
<path fill-rule="evenodd" d="M459,593.9H699.2V579.2H459v14.7Z" class="g0_334"/>
<path fill-rule="evenodd" d="M459,608.6H699.2V593.9H459v14.7Z" class="g0_334"/>
<path fill-rule="evenodd" d="M459,623.3H699.2V608.6H459v14.7Z" class="g0_334"/>
<path fill-rule="evenodd" d="M459.4,638.3H699.6V623.6H459.4v14.7Z" class="g0_334"/>
<path fill-rule="evenodd" d="M459.4,653H699.6V638.3H459.4V653Z" class="g0_334"/>
<path fill-rule="evenodd" d="M459.4,667.6H698.8V653H459.4v14.6Z" class="g0_334"/>
<path fill-rule="evenodd" d="M459.4,682.3H698.8V667.6H459.4v14.7Z" class="g0_334"/>
<path fill-rule="evenodd" d="M459.4,697H699.6V682.3H459.4V697Z" class="g0_334"/>
<path fill-rule="evenodd" d="M459.4,711.6H699.6V697H459.4v14.6Z" class="g0_334"/>
<path fill-rule="evenodd" d="M459.4,726.3H699.6V711.6H459.4v14.7Z" class="g0_334"/>
<path fill-rule="evenodd" d="M459.4,741H699.6V726.3H459.4V741Z" class="g0_334"/>
<path fill-rule="evenodd" d="M459,755.6H699.2V741H459v14.6Z" class="g0_334"/>
<path fill-rule="evenodd" d="M459,770.3H699.2V755.6H459v14.7Z" class="g0_334"/>
<path fill-rule="evenodd" d="M459,785H698.8V770.3H459V785Z" class="g0_334"/>
<path fill-rule="evenodd" d="M459,799.6H698.8V785H459v14.6Z" class="g0_334"/>
<path fill-rule="evenodd" d="M459,814.3H698.8V799.6H459v14.7Z" class="g0_334"/>
<path fill-rule="evenodd" d="M459,829H698.8V814.3H459V829Z" class="g0_334"/>
<path fill-rule="evenodd" d="M477,843.7H700.3V829H477v14.7Z" class="g0_334"/>
<path fill-rule="evenodd" d="M459,858.3H698.8V843.7H459v14.6Z" class="g0_334"/>
<path fill-rule="evenodd" d="M459,873H698.8V858.3H459V873Z" class="g0_334"/>
<path fill-rule="evenodd" d="M459,887.7H698.8V873H459v14.7Z" class="g0_334"/>
<path fill-rule="evenodd" d="M459,902.3H698.8V887.7H459v14.6Z" class="g0_334"/>
<path fill-rule="evenodd" d="M435.5,936.4H702.1V918.8H435.5v17.6Z" class="g0_334"/>
<path d="M449.3,147.7v91.7m-.4,86.6V914.9" class="g1_334"/>
</svg>