<?xml version="1.0" encoding="UTF-8" standalone="no"?>
<!DOCTYPE svg PUBLIC "-//W3C//DTD SVG 1.1//EN"
"http://www.w3.org/Graphics/SVG/1.1/DTD/svg11.dtd">
<svg viewBox="0 0 909 1285" version="1.1" xmlns="http://www.w3.org/2000/svg" xmlns:xlink="http://www.w3.org/1999/xlink">
<defs>
<style type="text/css"><![CDATA[
.g0_308{
fill: #FFFFFF;
}
.g1_308{
fill: none;
stroke: #000000;
stroke-width: 0.381;
stroke-linecap: butt;
stroke-linejoin: round;
}
.g2_308{
fill: none;
stroke: #000000;
stroke-width: 0.763;
stroke-linecap: butt;
stroke-linejoin: round;
}
]]></style>
</defs>
<path fill-rule="evenodd" d="M630,125.8h61.3V110H630v15.8Z" class="g0_308"/>
<path fill-rule="evenodd" d="M191.8,161.4H430.9V146.3H191.8v15.1Z" class="g0_308"/>
<path fill-rule="evenodd" d="M191.8,176.4H430.9v-15H191.8v15Z" class="g0_308"/>
<path fill-rule="evenodd" d="M191.8,191.6H430.9V176.4H191.8v15.2Z" class="g0_308"/>
<path fill-rule="evenodd" d="M191.4,206.6H430.9v-15H191.4v15Z" class="g0_308"/>
<path fill-rule="evenodd" d="M191.4,221.7H430.9V206.6H191.4v15.1Z" class="g0_308"/>
<path fill-rule="evenodd" d="M191.4,236.7H430.9v-15H191.4v15Z" class="g0_308"/>
<path fill-rule="evenodd" d="M191.8,251.7H430.5v-15H191.8v15Z" class="g0_308"/>
<path fill-rule="evenodd" d="M451.5,162.8H690.9v-15H451.5v15Z" class="g0_308"/>
<path fill-rule="evenodd" d="M451.5,177.9H690.9V162.8H451.5v15.1Z" class="g0_308"/>
<path fill-rule="evenodd" d="M451.1,193.4H691.3V178.2H451.1v15.2Z" class="g0_308"/>
<path fill-rule="evenodd" d="M451.1,208.5H691.3V193.4H451.1v15.1Z" class="g0_308"/>
<path fill-rule="evenodd" d="M451.1,223.5H691.3v-15H451.1v15Z" class="g0_308"/>
<path fill-rule="evenodd" d="M451.1,238.5H691.3v-15H451.1v15Z" class="g0_308"/>
<path fill-rule="evenodd" d="M424.3,312.2h267V281.4h-267v30.8Z" class="g0_308"/>
<path fill-rule="evenodd" d="M191.1,349.3H430.5V334.2H191.1v15.1Z" class="g0_308"/>
<path fill-rule="evenodd" d="M191.1,364.4H430.5V349.3H191.1v15.1Z" class="g0_308"/>
<path fill-rule="evenodd" d="M191.1,379.4H430.5v-15H191.1v15Z" class="g0_308"/>
<path fill-rule="evenodd" d="M190,394.4H429.8v-15H190v15Z" class="g0_308"/>
<path fill-rule="evenodd" d="M190,409.5H429.8V394.4H190v15.1Z" class="g0_308"/>
<path fill-rule="evenodd" d="M190,424.5H429.8v-15H190v15Z" class="g0_308"/>
<path fill-rule="evenodd" d="M190,439.7H429.8V424.5H190v15.2Z" class="g0_308"/>
<path fill-rule="evenodd" d="M190,454.7H429.8v-15H190v15Z" class="g0_308"/>
<path fill-rule="evenodd" d="M190,469.8H429.8V454.7H190v15.1Z" class="g0_308"/>
<path fill-rule="evenodd" d="M190,484.8H429.8v-15H190v15Z" class="g0_308"/>
<path fill-rule="evenodd" d="M190,499.8H429.8v-15H190v15Z" class="g0_308"/>
<path fill-rule="evenodd" d="M208.3,514.9H430.5V499.8H208.3v15.1Z" class="g0_308"/>
<path fill-rule="evenodd" d="M190.3,529.9H429.4v-15H190.3v15Z" class="g0_308"/>
<path fill-rule="evenodd" d="M190.3,544.9H429.4v-15H190.3v15Z" class="g0_308"/>
<path fill-rule="evenodd" d="M190.3,560H429.4V544.9H190.3V560Z" class="g0_308"/>
<path fill-rule="evenodd" d="M190,575H429.4V560H190v15Z" class="g0_308"/>
<path fill-rule="evenodd" d="M190,590H429.4V575H190v15Z" class="g0_308"/>
<path fill-rule="evenodd" d="M190,605.1H429.4V590H190v15.1Z" class="g0_308"/>
<path fill-rule="evenodd" d="M189.6,620.3H429.1V605.1H189.6v15.2Z" class="g0_308"/>
<path fill-rule="evenodd" d="M189.6,635.4H429.1V620.3H189.6v15.1Z" class="g0_308"/>
<path fill-rule="evenodd" d="M189.6,650.4H429.1v-15H189.6v15Z" class="g0_308"/>
<path fill-rule="evenodd" d="M189.6,665.4H429.1v-15H189.6v15Z" class="g0_308"/>
<path fill-rule="evenodd" d="M191.1,680.5H430.5V665.4H191.1v15.1Z" class="g0_308"/>
<path fill-rule="evenodd" d="M451.1,349.3H690.6V334.2H451.1v15.1Z" class="g0_308"/>
<path fill-rule="evenodd" d="M451.1,364.4H690.6V349.3H451.1v15.1Z" class="g0_308"/>
<path fill-rule="evenodd" d="M451.1,379.4H690.6v-15H451.1v15Z" class="g0_308"/>
<path fill-rule="evenodd" d="M469.1,394.4H690.6v-15H469.1v15Z" class="g0_308"/>
<path fill-rule="evenodd" d="M450.4,409.5H690.6V394.4H450.4v15.1Z" class="g0_308"/>
<path fill-rule="evenodd" d="M450.4,424.5H690.6v-15H450.4v15Z" class="g0_308"/>
<path fill-rule="evenodd" d="M450.4,439.7H690.6V424.5H450.4v15.2Z" class="g0_308"/>
<path fill-rule="evenodd" d="M450.4,454.7H690.6v-15H450.4v15Z" class="g0_308"/>
<path fill-rule="evenodd" d="M450.4,469.8H690.2V454.7H450.4v15.1Z" class="g0_308"/>
<path fill-rule="evenodd" d="M450.4,484.8H690.2v-15H450.4v15Z" class="g0_308"/>
<path fill-rule="evenodd" d="M450.4,499.8H690.2v-15H450.4v15Z" class="g0_308"/>
<path fill-rule="evenodd" d="M450.4,514.9H690.2V499.8H450.4v15.1Z" class="g0_308"/>
<path fill-rule="evenodd" d="M450.4,529.9H690.2v-15H450.4v15Z" class="g0_308"/>
<path fill-rule="evenodd" d="M450.4,544.9H690.2v-15H450.4v15Z" class="g0_308"/>
<path fill-rule="evenodd" d="M450.4,560H690.2V544.9H450.4V560Z" class="g0_308"/>
<path fill-rule="evenodd" d="M450.4,575H690.2V560H450.4v15Z" class="g0_308"/>
<path fill-rule="evenodd" d="M450,590H689.5V575H450v15Z" class="g0_308"/>
<path fill-rule="evenodd" d="M450,605.1H689.5V590H450v15.1Z" class="g0_308"/>
<path fill-rule="evenodd" d="M449.6,620.3H689.5V605.1H449.6v15.2Z" class="g0_308"/>
<path fill-rule="evenodd" d="M449.6,635.4H689.5V620.3H449.6v15.1Z" class="g0_308"/>
<path fill-rule="evenodd" d="M449.6,650.4H689.5v-15H449.6v15Z" class="g0_308"/>
<path fill-rule="evenodd" d="M468,665.4H690.6v-15H468v15Z" class="g0_308"/>
<path fill-rule="evenodd" d="M416.2,739.5H691.3V708H416.2v31.5Z" class="g0_308"/>
<path fill-rule="evenodd" d="M188.5,774H428.7V759.3H188.5V774Z" class="g0_308"/>
<path fill-rule="evenodd" d="M188.5,788.6H428.7V774H188.5v14.6Z" class="g0_308"/>
<path fill-rule="evenodd" d="M188.5,803.3H428.7V788.6H188.5v14.7Z" class="g0_308"/>
<path fill-rule="evenodd" d="M188.5,818H428.7V803.3H188.5V818Z" class="g0_308"/>
<path fill-rule="evenodd" d="M188.5,832.7H428.7V818H188.5v14.7Z" class="g0_308"/>
<path fill-rule="evenodd" d="M188.5,847.3H428.7V832.7H188.5v14.6Z" class="g0_308"/>
<path fill-rule="evenodd" d="M188.5,862H428.7V847.3H188.5V862Z" class="g0_308"/>
<path fill-rule="evenodd" d="M188.5,876.7H428.7V862H188.5v14.7Z" class="g0_308"/>
<path fill-rule="evenodd" d="M188.5,891.3H428.7V876.7H188.5v14.6Z" class="g0_308"/>
<path fill-rule="evenodd" d="M188.5,906H428.7V891.3H188.5V906Z" class="g0_308"/>
<path fill-rule="evenodd" d="M188.9,920.7H428.7V906H188.9v14.7Z" class="g0_308"/>
<path fill-rule="evenodd" d="M449.3,774H689.5V759.3H449.3V774Z" class="g0_308"/>
<path fill-rule="evenodd" d="M449.3,788.6H689.5V774H449.3v14.6Z" class="g0_308"/>
<path fill-rule="evenodd" d="M449.3,803.3H689.5V788.6H449.3v14.7Z" class="g0_308"/>
<path fill-rule="evenodd" d="M449.3,818H689.5V803.3H449.3V818Z" class="g0_308"/>
<path fill-rule="evenodd" d="M449.3,832.7H689.5V818H449.3v14.7Z" class="g0_308"/>
<path fill-rule="evenodd" d="M449.3,847.3H689.1V832.7H449.3v14.6Z" class="g0_308"/>
<path fill-rule="evenodd" d="M449.3,862H689.1V847.3H449.3V862Z" class="g0_308"/>
<path fill-rule="evenodd" d="M448.9,876.7H688.8V862H448.9v14.7Z" class="g0_308"/>
<path fill-rule="evenodd" d="M448.9,891.3H688.8V876.7H448.9v14.6Z" class="g0_308"/>
<path fill-rule="evenodd" d="M448.9,906H688.8V891.3H448.9V906Z" class="g0_308"/>
<path fill-rule="evenodd" d="M425.4,937H691.3V917.7H425.4V937Z" class="g0_308"/>
<path d="M440.7,146v91.3m-1.8,94V664.6" class="g1_308"/>
<path d="M438.2,757.7V912.5" class="g2_308"/>
</svg>