<?xml version="1.0" encoding="UTF-8" standalone="no"?>
<!DOCTYPE svg PUBLIC "-//W3C//DTD SVG 1.1//EN"
"http://www.w3.org/Graphics/SVG/1.1/DTD/svg11.dtd">
<svg viewBox="0 0 909 1285" version="1.1" xmlns="http://www.w3.org/2000/svg" xmlns:xlink="http://www.w3.org/1999/xlink">
<defs>
<style type="text/css"><![CDATA[
.g0_237{
fill: #FFFFFF;
}
.g1_237{
fill: none;
stroke: #000000;
stroke-width: 1.069;
stroke-linecap: butt;
stroke-linejoin: round;
}
.g2_237{
fill: none;
stroke: #000000;
stroke-width: 0.763;
stroke-linecap: butt;
stroke-linejoin: round;
}
.g3_237{
fill: none;
stroke: #000000;
stroke-width: 0.381;
stroke-linecap: butt;
stroke-linejoin: round;
}
]]></style>
</defs>
<path fill-rule="evenodd" d="M262,125.8H758.6V110H262v15.8Z" class="g0_237"/>
<path fill-rule="evenodd" d="M262,161.4H500.8V146.3H262v15.1Z" class="g0_237"/>
<path fill-rule="evenodd" d="M262,176.4H500.8v-15H262v15Z" class="g0_237"/>
<path fill-rule="evenodd" d="M261.6,191.6H500.4V176.4H261.6v15.2Z" class="g0_237"/>
<path fill-rule="evenodd" d="M261.6,206.6H500.4v-15H261.6v15Z" class="g0_237"/>
<path fill-rule="evenodd" d="M261.6,221.7H500.4V206.6H261.6v15.1Z" class="g0_237"/>
<path fill-rule="evenodd" d="M280,236.7H500.8v-15H280v15Z" class="g0_237"/>
<path fill-rule="evenodd" d="M261.3,251.7H499.7v-15H261.3v15Z" class="g0_237"/>
<path fill-rule="evenodd" d="M261.3,266.8H499.7V251.7H261.3v15.1Z" class="g0_237"/>
<path fill-rule="evenodd" d="M261.3,281.8H499.7v-15H261.3v15Z" class="g0_237"/>
<path fill-rule="evenodd" d="M280,296.8H500.8v-15H280v15Z" class="g0_237"/>
<path fill-rule="evenodd" d="M280,311.9H500.8V296.8H280v15.1Z" class="g0_237"/>
<path fill-rule="evenodd" d="M261.6,326.9H499.7v-15H261.6v15Z" class="g0_237"/>
<path fill-rule="evenodd" d="M261.6,341.9H499.7v-15H261.6v15Z" class="g0_237"/>
<path fill-rule="evenodd" d="M260.9,357.2H500.1V342H260.9v15.2Z" class="g0_237"/>
<path fill-rule="evenodd" d="M260.9,372.2H500.1v-15H260.9v15Z" class="g0_237"/>
<path fill-rule="evenodd" d="M260.2,387.3H499.7V372.2H260.2v15.1Z" class="g0_237"/>
<path fill-rule="evenodd" d="M260.2,402.3H499.7v-15H260.2v15Z" class="g0_237"/>
<path fill-rule="evenodd" d="M260.2,417.3H499.7v-15H260.2v15Z" class="g0_237"/>
<path fill-rule="evenodd" d="M260.2,432.4H499.7V417.3H260.2v15.1Z" class="g0_237"/>
<path fill-rule="evenodd" d="M260.2,447.4H499.7v-15H260.2v15Z" class="g0_237"/>
<path fill-rule="evenodd" d="M260.2,462.4H499.7v-15H260.2v15Z" class="g0_237"/>
<path fill-rule="evenodd" d="M260.2,477.5H499.7V462.4H260.2v15.1Z" class="g0_237"/>
<path fill-rule="evenodd" d="M278.9,492.9H500.8V477.8H278.9v15.1Z" class="g0_237"/>
<path fill-rule="evenodd" d="M260.2,507.9H499v-15H260.2v15Z" class="g0_237"/>
<path fill-rule="evenodd" d="M260.2,523.1H499V507.9H260.2v15.2Z" class="g0_237"/>
<path fill-rule="evenodd" d="M260.2,538.2H498.6V523.1H260.2v15.1Z" class="g0_237"/>
<path fill-rule="evenodd" d="M260.2,553.2H498.6v-15H260.2v15Z" class="g0_237"/>
<path fill-rule="evenodd" d="M260.2,568.2H498.6v-15H260.2v15Z" class="g0_237"/>
<path fill-rule="evenodd" d="M278.6,583.3H500.8V568.2H278.6v15.1Z" class="g0_237"/>
<path fill-rule="evenodd" d="M260.2,598.3H499v-15H260.2v15Z" class="g0_237"/>
<path fill-rule="evenodd" d="M260.2,613.4H499V598.3H260.2v15.1Z" class="g0_237"/>
<path fill-rule="evenodd" d="M259.4,628.4H498.6v-15H259.4v15Z" class="g0_237"/>
<path fill-rule="evenodd" d="M259.4,643.4H498.6v-15H259.4v15Z" class="g0_237"/>
<path fill-rule="evenodd" d="M259.4,658.5H498.6V643.4H259.4v15.1Z" class="g0_237"/>
<path fill-rule="evenodd" d="M259.8,673.5H498.2v-15H259.8v15Z" class="g0_237"/>
<path fill-rule="evenodd" d="M259.8,688.5H498.2v-15H259.8v15Z" class="g0_237"/>
<path fill-rule="evenodd" d="M259.4,703.7H497.9V688.5H259.4v15.2Z" class="g0_237"/>
<path fill-rule="evenodd" d="M259.4,718.8H497.9V703.7H259.4v15.1Z" class="g0_237"/>
<path fill-rule="evenodd" d="M259.4,733.8H497.9v-15H259.4v15Z" class="g0_237"/>
<path fill-rule="evenodd" d="M259.4,748.8H497.9v-15H259.4v15Z" class="g0_237"/>
<path fill-rule="evenodd" d="M259.8,763.9H498.2V748.8H259.8v15.1Z" class="g0_237"/>
<path fill-rule="evenodd" d="M259.8,778.9H498.2v-15H259.8v15Z" class="g0_237"/>
<path fill-rule="evenodd" d="M259.4,794.3H497.9v-15H259.4v15Z" class="g0_237"/>
<path fill-rule="evenodd" d="M259.4,809.3H497.9v-15H259.4v15Z" class="g0_237"/>
<path fill-rule="evenodd" d="M258.7,824.4H497.9V809.3H258.7v15.1Z" class="g0_237"/>
<path fill-rule="evenodd" d="M258.7,839.5H497.9V824.4H258.7v15.1Z" class="g0_237"/>
<path fill-rule="evenodd" d="M258.7,854.5H497.9v-15H258.7v15Z" class="g0_237"/>
<path fill-rule="evenodd" d="M258.7,869.7H497.5V854.5H258.7v15.2Z" class="g0_237"/>
<path fill-rule="evenodd" d="M258.7,884.7H497.5v-15H258.7v15Z" class="g0_237"/>
<path fill-rule="evenodd" d="M277.1,899.8H500.8V884.7H277.1v15.1Z" class="g0_237"/>
<path fill-rule="evenodd" d="M261.3,914.8H500.8v-15H261.3v15Z" class="g0_237"/>
<path fill-rule="evenodd" d="M520.6,161.7h238v-15h-238v15Z" class="g0_237"/>
<path fill-rule="evenodd" d="M520.6,176.9h238V161.7h-238v15.2Z" class="g0_237"/>
<path fill-rule="evenodd" d="M520.6,192h238V176.9h-238V192Z" class="g0_237"/>
<path fill-rule="evenodd" d="M520.6,207h238V192h-238v15Z" class="g0_237"/>
<path fill-rule="evenodd" d="M520.6,222h238V207h-238v15Z" class="g0_237"/>
<path fill-rule="evenodd" d="M520.6,237.1h238V222h-238v15.1Z" class="g0_237"/>
<path fill-rule="evenodd" d="M520.6,252.1h238v-15h-238v15Z" class="g0_237"/>
<path fill-rule="evenodd" d="M520.6,267.1h238v-15h-238v15Z" class="g0_237"/>
<path fill-rule="evenodd" d="M520.6,282.5h238V267.1h-238v15.4Z" class="g0_237"/>
<path fill-rule="evenodd" d="M520.6,297.6h238V282.5h-238v15.1Z" class="g0_237"/>
<path fill-rule="evenodd" d="M520.6,312.6h238v-15h-238v15Z" class="g0_237"/>
<path fill-rule="evenodd" d="M520.6,327.8h238V312.6h-238v15.2Z" class="g0_237"/>
<path fill-rule="evenodd" d="M520.2,342.9H758.6V327.8H520.2v15.1Z" class="g0_237"/>
<path fill-rule="evenodd" d="M520.2,357.9H758.6v-15H520.2v15Z" class="g0_237"/>
<path fill-rule="evenodd" d="M520.2,373H758.6V357.9H520.2V373Z" class="g0_237"/>
<path fill-rule="evenodd" d="M520.2,388H758.6V373H520.2v15Z" class="g0_237"/>
<path fill-rule="evenodd" d="M520.2,403H758.6V388H520.2v15Z" class="g0_237"/>
<path fill-rule="evenodd" d="M520.2,418.1H758.6V403H520.2v15.1Z" class="g0_237"/>
<path fill-rule="evenodd" d="M520.2,433.1H758.6v-15H520.2v15Z" class="g0_237"/>
<path fill-rule="evenodd" d="M520.2,448.1H758.6v-15H520.2v15Z" class="g0_237"/>
<path fill-rule="evenodd" d="M519.5,463.2H757.9V448.1H519.5v15.1Z" class="g0_237"/>
<path fill-rule="evenodd" d="M519.5,478.2H757.9v-15H519.5v15Z" class="g0_237"/>
<path fill-rule="evenodd" d="M519.5,493.2H758.2v-15H519.5v15Z" class="g0_237"/>
<path fill-rule="evenodd" d="M519.5,508.5H758.2V493.2H519.5v15.3Z" class="g0_237"/>
<path fill-rule="evenodd" d="M519.5,523.5H758.2v-15H519.5v15Z" class="g0_237"/>
<path fill-rule="evenodd" d="M518.8,538.5H758.6v-15H518.8v15Z" class="g0_237"/>
<path fill-rule="evenodd" d="M518.8,553.6H758.6V538.5H518.8v15.1Z" class="g0_237"/>
<path fill-rule="evenodd" d="M518.8,568.6H758.6v-15H518.8v15Z" class="g0_237"/>
<path fill-rule="evenodd" d="M518.8,583.6H758.6v-15H518.8v15Z" class="g0_237"/>
<path fill-rule="evenodd" d="M519.1,598.7h238V583.6h-238v15.1Z" class="g0_237"/>
<path fill-rule="evenodd" d="M519.1,613.7h238v-15h-238v15Z" class="g0_237"/>
<path fill-rule="evenodd" d="M518.8,628.8H758.6V613.7H518.8v15.1Z" class="g0_237"/>
<path fill-rule="evenodd" d="M518.8,643.8H758.6v-15H518.8v15Z" class="g0_237"/>
<path fill-rule="evenodd" d="M518.8,658.8H758.6v-15H518.8v15Z" class="g0_237"/>
<path fill-rule="evenodd" d="M518.4,673.9H757.1V658.8H518.4v15.1Z" class="g0_237"/>
<path fill-rule="evenodd" d="M518.4,689.1H757.1V673.9H518.4v15.2Z" class="g0_237"/>
<path fill-rule="evenodd" d="M518.4,704.5H758.6V689.4H518.4v15.1Z" class="g0_237"/>
<path fill-rule="evenodd" d="M518.4,719.5H758.6v-15H518.4v15Z" class="g0_237"/>
<path fill-rule="evenodd" d="M518.4,734.5H758.6v-15H518.4v15Z" class="g0_237"/>
<path fill-rule="evenodd" d="M518,749.9H757.1v-15H518v15Z" class="g0_237"/>
<path fill-rule="evenodd" d="M518,765H757.1V749.9H518V765Z" class="g0_237"/>
<path fill-rule="evenodd" d="M518,780H757.1V765H518v15Z" class="g0_237"/>
<path fill-rule="evenodd" d="M518,795H757.1V780H518v15Z" class="g0_237"/>
<path fill-rule="evenodd" d="M518.4,810.1h238V795h-238v15.1Z" class="g0_237"/>
<path fill-rule="evenodd" d="M518.4,825.1h238v-15h-238v15Z" class="g0_237"/>
<path fill-rule="evenodd" d="M518.4,840.4H757.1V825.1H518.4v15.3Z" class="g0_237"/>
<path fill-rule="evenodd" d="M518.4,855.4H757.1v-15H518.4v15Z" class="g0_237"/>
<path fill-rule="evenodd" d="M536.4,870.4H758.6v-15H536.4v15Z" class="g0_237"/>
<path fill-rule="evenodd" d="M536.4,885.5H758.6V870.4H536.4v15.1Z" class="g0_237"/>
<path fill-rule="evenodd" d="M536.4,900.5H758.6v-15H536.4v15Z" class="g0_237"/>
<path fill-rule="evenodd" d="M494.6,932.4h264V914.8h-264v17.6Z" class="g0_237"/>
<path d="M194.5,354.6V705.1" class="g1_237"/>
<path d="M195.3,161V481.1" class="g2_237"/>
<path d="M195.3,345.1V1000" class="g1_237"/>
<path d="M507.6,147.8V917" class="g3_237"/>
</svg>