<?xml version="1.0" encoding="UTF-8" standalone="no"?>
<!DOCTYPE svg PUBLIC "-//W3C//DTD SVG 1.1//EN"
"http://www.w3.org/Graphics/SVG/1.1/DTD/svg11.dtd">
<svg viewBox="0 0 909 1285" version="1.1" xmlns="http://www.w3.org/2000/svg" xmlns:xlink="http://www.w3.org/1999/xlink">
<defs>
<style type="text/css"><![CDATA[
.g0_195{
fill: #FFFFFF;
}
.g1_195{
fill: none;
stroke: #000000;
stroke-width: 5.881;
stroke-linecap: butt;
stroke-linejoin: round;
}
.g2_195{
fill: none;
stroke: #000000;
stroke-width: 0.381;
stroke-linecap: butt;
stroke-linejoin: round;
}
]]></style>
</defs>
<path fill-rule="evenodd" d="M273.2,125.8H773.8V110H273.2v15.8Z" class="g0_195"/>
<path fill-rule="evenodd" d="M272.5,161.7H513.1v-15H272.5v15Z" class="g0_195"/>
<path fill-rule="evenodd" d="M272.5,176.9H513.1V161.7H272.5v15.2Z" class="g0_195"/>
<path fill-rule="evenodd" d="M272.5,192H513.4V176.9H272.5V192Z" class="g0_195"/>
<path fill-rule="evenodd" d="M272.5,207H513.4V192H272.5v15Z" class="g0_195"/>
<path fill-rule="evenodd" d="M272.5,222H513.4V207H272.5v15Z" class="g0_195"/>
<path fill-rule="evenodd" d="M272.5,237.1H513.1V222H272.5v15.1Z" class="g0_195"/>
<path fill-rule="evenodd" d="M272.5,252.1H513.1v-15H272.5v15Z" class="g0_195"/>
<path fill-rule="evenodd" d="M272.5,267.1H512.7v-15H272.5v15Z" class="g0_195"/>
<path fill-rule="evenodd" d="M272.5,282.2H512.7V267.1H272.5v15.1Z" class="g0_195"/>
<path fill-rule="evenodd" d="M272.5,297.2H513.4v-15H272.5v15Z" class="g0_195"/>
<path fill-rule="evenodd" d="M272.5,312.2H513.4v-15H272.5v15Z" class="g0_195"/>
<path fill-rule="evenodd" d="M290.8,327.3H513.4V312.2H290.8v15.1Z" class="g0_195"/>
<path fill-rule="evenodd" d="M272.5,342.5H513.4V327.3H272.5v15.2Z" class="g0_195"/>
<path fill-rule="evenodd" d="M272.5,357.6H513.4V342.5H272.5v15.1Z" class="g0_195"/>
<path fill-rule="evenodd" d="M272.5,372.6H513.4v-15H272.5v15Z" class="g0_195"/>
<path fill-rule="evenodd" d="M272.5,387.6H513.4v-15H272.5v15Z" class="g0_195"/>
<path fill-rule="evenodd" d="M272.1,402.7H512.7V387.6H272.1v15.1Z" class="g0_195"/>
<path fill-rule="evenodd" d="M272.1,417.7H512.7v-15H272.1v15Z" class="g0_195"/>
<path fill-rule="evenodd" d="M272.1,432.7H512.3v-15H272.1v15Z" class="g0_195"/>
<path fill-rule="evenodd" d="M272.1,447.8H512.3V432.7H272.1v15.1Z" class="g0_195"/>
<path fill-rule="evenodd" d="M272.1,462.8H512.3v-15H272.1v15Z" class="g0_195"/>
<path fill-rule="evenodd" d="M272.1,477.8H512.3v-15H272.1v15Z" class="g0_195"/>
<path fill-rule="evenodd" d="M272.1,492.9H512.3V477.8H272.1v15.1Z" class="g0_195"/>
<path fill-rule="evenodd" d="M272.1,507.9H512v-15H272.1v15Z" class="g0_195"/>
<path fill-rule="evenodd" d="M272.1,523.1H512V507.9H272.1v15.2Z" class="g0_195"/>
<path fill-rule="evenodd" d="M272.1,538.2H512V523.1H272.1v15.1Z" class="g0_195"/>
<path fill-rule="evenodd" d="M272.1,553.2H512v-15H272.1v15Z" class="g0_195"/>
<path fill-rule="evenodd" d="M271.8,568.2H512.3v-15H271.8v15Z" class="g0_195"/>
<path fill-rule="evenodd" d="M271.8,583.3H512.3V568.2H271.8v15.1Z" class="g0_195"/>
<path fill-rule="evenodd" d="M271.8,598.3H511.6v-15H271.8v15Z" class="g0_195"/>
<path fill-rule="evenodd" d="M271.8,613.4H511.6V598.3H271.8v15.1Z" class="g0_195"/>
<path fill-rule="evenodd" d="M271.8,628.4H512v-15H271.8v15Z" class="g0_195"/>
<path fill-rule="evenodd" d="M271.8,643.4H512v-15H271.8v15Z" class="g0_195"/>
<path fill-rule="evenodd" d="M271,658.5H512V643.4H271v15.1Z" class="g0_195"/>
<path fill-rule="evenodd" d="M271,673.5H512v-15H271v15Z" class="g0_195"/>
<path fill-rule="evenodd" d="M271,688.5H512v-15H271v15Z" class="g0_195"/>
<path fill-rule="evenodd" d="M271,703.7H512V688.5H271v15.2Z" class="g0_195"/>
<path fill-rule="evenodd" d="M271,719.1H511.6v-15H271v15Z" class="g0_195"/>
<path fill-rule="evenodd" d="M271,734.2H511.6V719.1H271v15.1Z" class="g0_195"/>
<path fill-rule="evenodd" d="M271,749.2H511.6v-15H271v15Z" class="g0_195"/>
<path fill-rule="evenodd" d="M271,764.2H511.6v-15H271v15Z" class="g0_195"/>
<path fill-rule="evenodd" d="M271,779.3H511.6V764.2H271v15.1Z" class="g0_195"/>
<path fill-rule="evenodd" d="M271,794.3H511.6v-15H271v15Z" class="g0_195"/>
<path fill-rule="evenodd" d="M271,809.3H511.6v-15H271v15Z" class="g0_195"/>
<path fill-rule="evenodd" d="M271.4,824.7H511.6v-15H271.4v15Z" class="g0_195"/>
<path fill-rule="evenodd" d="M271.4,839.8H511.6V824.7H271.4v15.1Z" class="g0_195"/>
<path fill-rule="evenodd" d="M271.4,855H511.6V839.8H271.4V855Z" class="g0_195"/>
<path fill-rule="evenodd" d="M270.7,870.1H511.2V855H270.7v15.1Z" class="g0_195"/>
<path fill-rule="evenodd" d="M270.7,885.1H511.2v-15H270.7v15Z" class="g0_195"/>
<path fill-rule="evenodd" d="M289.4,900.1h224v-15h-224v15Z" class="g0_195"/>
<path fill-rule="evenodd" d="M272.9,915.2H512.7V900.1H272.9v15.1Z" class="g0_195"/>
<path fill-rule="evenodd" d="M533.2,161.7H773.1v-15H533.2v15Z" class="g0_195"/>
<path fill-rule="evenodd" d="M533.2,176.9H773.1V161.7H533.2v15.2Z" class="g0_195"/>
<path fill-rule="evenodd" d="M551.9,192H773.8V176.9H551.9V192Z" class="g0_195"/>
<path fill-rule="evenodd" d="M533.2,207H773.4V192H533.2v15Z" class="g0_195"/>
<path fill-rule="evenodd" d="M533.2,222H773.4V207H533.2v15Z" class="g0_195"/>
<path fill-rule="evenodd" d="M533.2,237.1H773.4V222H533.2v15.1Z" class="g0_195"/>
<path fill-rule="evenodd" d="M533.2,252.1H773.8v-15H533.2v15Z" class="g0_195"/>
<path fill-rule="evenodd" d="M533.2,267.1H773.8v-15H533.2v15Z" class="g0_195"/>
<path fill-rule="evenodd" d="M533.2,282.2H773.8V267.1H533.2v15.1Z" class="g0_195"/>
<path fill-rule="evenodd" d="M533.2,297.2H773.8v-15H533.2v15Z" class="g0_195"/>
<path fill-rule="evenodd" d="M533.2,312.2H773.4v-15H533.2v15Z" class="g0_195"/>
<path fill-rule="evenodd" d="M533.2,327.3H773.4V312.2H533.2v15.1Z" class="g0_195"/>
<path fill-rule="evenodd" d="M532.9,342.5H773.4V327.3H532.9v15.2Z" class="g0_195"/>
<path fill-rule="evenodd" d="M532.9,357.6H773.4V342.5H532.9v15.1Z" class="g0_195"/>
<path fill-rule="evenodd" d="M532.9,372.6H773.4v-15H532.9v15Z" class="g0_195"/>
<path fill-rule="evenodd" d="M532.9,387.6H773.4v-15H532.9v15Z" class="g0_195"/>
<path fill-rule="evenodd" d="M532.9,402.7H773.4V387.6H532.9v15.1Z" class="g0_195"/>
<path fill-rule="evenodd" d="M532.9,417.7H773.4v-15H532.9v15Z" class="g0_195"/>
<path fill-rule="evenodd" d="M532.9,432.7H773.4v-15H532.9v15Z" class="g0_195"/>
<path fill-rule="evenodd" d="M532.9,447.8H772.7V432.7H532.9v15.1Z" class="g0_195"/>
<path fill-rule="evenodd" d="M532.5,463.2H773.1V448.1H532.5v15.1Z" class="g0_195"/>
<path fill-rule="evenodd" d="M532.5,478.2H773.1v-15H532.5v15Z" class="g0_195"/>
<path fill-rule="evenodd" d="M550.8,493.2h223v-15h-223v15Z" class="g0_195"/>
<path fill-rule="evenodd" d="M550.8,508.5h223V493.2h-223v15.3Z" class="g0_195"/>
<path fill-rule="evenodd" d="M532.1,523.5H772.3v-15H532.1v15Z" class="g0_195"/>
<path fill-rule="evenodd" d="M532.1,538.5H772.3v-15H532.1v15Z" class="g0_195"/>
<path fill-rule="evenodd" d="M532.1,553.6H772.3V538.5H532.1v15.1Z" class="g0_195"/>
<path fill-rule="evenodd" d="M531.8,568.6H772.3v-15H531.8v15Z" class="g0_195"/>
<path fill-rule="evenodd" d="M531.8,583.6H772.3v-15H531.8v15Z" class="g0_195"/>
<path fill-rule="evenodd" d="M531.8,598.7H772.3V583.6H531.8v15.1Z" class="g0_195"/>
<path fill-rule="evenodd" d="M531.8,613.7H772.3v-15H531.8v15Z" class="g0_195"/>
<path fill-rule="evenodd" d="M531.8,629.1H772.3V613.7H531.8v15.4Z" class="g0_195"/>
<path fill-rule="evenodd" d="M531.8,644.2H772.3V629.1H531.8v15.1Z" class="g0_195"/>
<path fill-rule="evenodd" d="M531.8,659.2H772.3v-15H531.8v15Z" class="g0_195"/>
<path fill-rule="evenodd" d="M531.8,674.4H772.3V659.2H531.8v15.2Z" class="g0_195"/>
<path fill-rule="evenodd" d="M531.4,689.8H772v-15H531.4v15Z" class="g0_195"/>
<path fill-rule="evenodd" d="M531.4,704.8H772v-15H531.4v15Z" class="g0_195"/>
<path fill-rule="evenodd" d="M531.4,719.9H772V704.8H531.4v15.1Z" class="g0_195"/>
<path fill-rule="evenodd" d="M531.4,734.9H772.3v-15H531.4v15Z" class="g0_195"/>
<path fill-rule="evenodd" d="M531.4,749.9H772.3v-15H531.4v15Z" class="g0_195"/>
<path fill-rule="evenodd" d="M531.4,765H772.3V749.9H531.4V765Z" class="g0_195"/>
<path fill-rule="evenodd" d="M550.1,780H773.8V765H550.1v15Z" class="g0_195"/>
<path fill-rule="evenodd" d="M531.4,795H772.3V780H531.4v15Z" class="g0_195"/>
<path fill-rule="evenodd" d="M531.4,810.1H772.3V795H531.4v15.1Z" class="g0_195"/>
<path fill-rule="evenodd" d="M531,825.1H772v-15H531v15Z" class="g0_195"/>
<path fill-rule="evenodd" d="M531,840.4H772V825.1H531v15.3Z" class="g0_195"/>
<path fill-rule="evenodd" d="M550.1,855.4H773.8v-15H550.1v15Z" class="g0_195"/>
<path fill-rule="evenodd" d="M531.4,870.4H771.6v-15H531.4v15Z" class="g0_195"/>
<path fill-rule="evenodd" d="M531.4,885.5H771.6V870.4H531.4v15.1Z" class="g0_195"/>
<path d="M184.4,625.6V919.3" class="g1_195"/>
<path d="M217.4,803.1V977.2M521,147.8V916.4" class="g2_195"/>
</svg>