<?xml version="1.0" encoding="UTF-8" standalone="no"?>
<!DOCTYPE svg PUBLIC "-//W3C//DTD SVG 1.1//EN"
"http://www.w3.org/Graphics/SVG/1.1/DTD/svg11.dtd">
<svg viewBox="0 0 909 1285" version="1.1" xmlns="http://www.w3.org/2000/svg" xmlns:xlink="http://www.w3.org/1999/xlink">
<defs>
<style type="text/css"><![CDATA[
.g0_247{
fill: #FFFFFF;
}
.g1_247{
fill: none;
stroke: #000000;
stroke-width: 0.381;
stroke-linecap: butt;
stroke-linejoin: round;
}
]]></style>
</defs>
<path fill-rule="evenodd" d="M624.9,125.8h66V110h-66v15.8Z" class="g0_247"/>
<path fill-rule="evenodd" d="M190.3,161.7H430.2v-15H190.3v15Z" class="g0_247"/>
<path fill-rule="evenodd" d="M190.3,176.9H430.2V161.7H190.3v15.2Z" class="g0_247"/>
<path fill-rule="evenodd" d="M190.3,192H430.2V176.9H190.3V192Z" class="g0_247"/>
<path fill-rule="evenodd" d="M190.3,207H430.2V192H190.3v15Z" class="g0_247"/>
<path fill-rule="evenodd" d="M190.3,222H430.2V207H190.3v15Z" class="g0_247"/>
<path fill-rule="evenodd" d="M190.3,237.1H430.2V222H190.3v15.1Z" class="g0_247"/>
<path fill-rule="evenodd" d="M190.3,252.1H430.2v-15H190.3v15Z" class="g0_247"/>
<path fill-rule="evenodd" d="M190.3,267.1H430.2v-15H190.3v15Z" class="g0_247"/>
<path fill-rule="evenodd" d="M190.3,282.2H430.2V267.1H190.3v15.1Z" class="g0_247"/>
<path fill-rule="evenodd" d="M190.7,297.2H429.8v-15H190.7v15Z" class="g0_247"/>
<path fill-rule="evenodd" d="M190.7,312.2H429.8v-15H190.7v15Z" class="g0_247"/>
<path fill-rule="evenodd" d="M190,327.3H429.8V312.2H190v15.1Z" class="g0_247"/>
<path fill-rule="evenodd" d="M190,342.5H429.8V327.3H190v15.2Z" class="g0_247"/>
<path fill-rule="evenodd" d="M190,357.6H429.8V342.5H190v15.1Z" class="g0_247"/>
<path fill-rule="evenodd" d="M190,372.6H429.8v-15H190v15Z" class="g0_247"/>
<path fill-rule="evenodd" d="M450,161.7H690.2v-15H450v15Z" class="g0_247"/>
<path fill-rule="evenodd" d="M450,176.9H690.2V161.7H450v15.2Z" class="g0_247"/>
<path fill-rule="evenodd" d="M450,192H690.2V176.9H450V192Z" class="g0_247"/>
<path fill-rule="evenodd" d="M450.4,207H690.2V192H450.4v15Z" class="g0_247"/>
<path fill-rule="evenodd" d="M450.4,222H690.2V207H450.4v15Z" class="g0_247"/>
<path fill-rule="evenodd" d="M450.4,237.1H690.2V222H450.4v15.1Z" class="g0_247"/>
<path fill-rule="evenodd" d="M450.4,252.1H690.2v-15H450.4v15Z" class="g0_247"/>
<path fill-rule="evenodd" d="M450.7,267.1H690.6v-15H450.7v15Z" class="g0_247"/>
<path fill-rule="evenodd" d="M450.7,282.2H690.6V267.1H450.7v15.1Z" class="g0_247"/>
<path fill-rule="evenodd" d="M468.7,297.2H690.6v-15H468.7v15Z" class="g0_247"/>
<path fill-rule="evenodd" d="M450.4,312.2H690.2v-15H450.4v15Z" class="g0_247"/>
<path fill-rule="evenodd" d="M450.4,327.3H690.2V312.2H450.4v15.1Z" class="g0_247"/>
<path fill-rule="evenodd" d="M426.5,423H691V397.5H426.5V423Z" class="g0_247"/>
<path fill-rule="evenodd" d="M189.2,462.1H429.4V446.5H189.2v15.6Z" class="g0_247"/>
<path fill-rule="evenodd" d="M189.2,477.5H429.4V462.1H189.2v15.4Z" class="g0_247"/>
<path fill-rule="evenodd" d="M189.2,492.9H429.4V477.5H189.2v15.4Z" class="g0_247"/>
<path fill-rule="evenodd" d="M189.2,508.3H429.4V492.9H189.2v15.4Z" class="g0_247"/>
<path fill-rule="evenodd" d="M189.2,523.7H429.4V508.3H189.2v15.4Z" class="g0_247"/>
<path fill-rule="evenodd" d="M189.2,539.1H429.4V523.7H189.2v15.4Z" class="g0_247"/>
<path fill-rule="evenodd" d="M189.2,554.7H429.4V539.1H189.2v15.6Z" class="g0_247"/>
<path fill-rule="evenodd" d="M189.2,570.1H429.4V554.7H189.2v15.4Z" class="g0_247"/>
<path fill-rule="evenodd" d="M189.2,585.5H429.4V570.1H189.2v15.4Z" class="g0_247"/>
<path fill-rule="evenodd" d="M189.2,600.9H429.4V585.5H189.2v15.4Z" class="g0_247"/>
<path fill-rule="evenodd" d="M189.2,616.3H429.4V600.9H189.2v15.4Z" class="g0_247"/>
<path fill-rule="evenodd" d="M189.2,631.7H429.4V616.3H189.2v15.4Z" class="g0_247"/>
<path fill-rule="evenodd" d="M189.2,647.3H428.7V631.7H189.2v15.6Z" class="g0_247"/>
<path fill-rule="evenodd" d="M189.2,662.7H428.7V647.3H189.2v15.4Z" class="g0_247"/>
<path fill-rule="evenodd" d="M189.2,678.1H428.7V662.7H189.2v15.4Z" class="g0_247"/>
<path fill-rule="evenodd" d="M189.2,693.5H428.7V678.1H189.2v15.4Z" class="g0_247"/>
<path fill-rule="evenodd" d="M189.2,708.9H428.7V693.5H189.2v15.4Z" class="g0_247"/>
<path fill-rule="evenodd" d="M189.2,724.3H428.3V708.9H189.2v15.4Z" class="g0_247"/>
<path fill-rule="evenodd" d="M189.2,739.9H428.3V724.3H189.2v15.6Z" class="g0_247"/>
<path fill-rule="evenodd" d="M189.2,755.3H428.3V739.9H189.2v15.4Z" class="g0_247"/>
<path fill-rule="evenodd" d="M189.2,770.7H428.3V755.3H189.2v15.4Z" class="g0_247"/>
<path fill-rule="evenodd" d="M189.2,786.1H428.3V770.7H189.2v15.4Z" class="g0_247"/>
<path fill-rule="evenodd" d="M188.9,801.5H428.3V786.1H188.9v15.4Z" class="g0_247"/>
<path fill-rule="evenodd" d="M188.9,816.9H428.3V801.5H188.9v15.4Z" class="g0_247"/>
<path fill-rule="evenodd" d="M188.9,832.5H428.3V816.9H188.9v15.6Z" class="g0_247"/>
<path fill-rule="evenodd" d="M188.9,847.9H428.3V832.5H188.9v15.4Z" class="g0_247"/>
<path fill-rule="evenodd" d="M188.9,863.3H428.3V847.9H188.9v15.4Z" class="g0_247"/>
<path fill-rule="evenodd" d="M188.9,878.7H428.3V863.3H188.9v15.4Z" class="g0_247"/>
<path fill-rule="evenodd" d="M189.2,894.1H428V878.7H189.2v15.4Z" class="g0_247"/>
<path fill-rule="evenodd" d="M189.2,909.5H428V894.1H189.2v15.4Z" class="g0_247"/>
<path fill-rule="evenodd" d="M190.7,924.7H429.4V909.5H190.7v15.2Z" class="g0_247"/>
<path fill-rule="evenodd" d="M449.8,459.3H689.7v-15H449.8v15Z" class="g0_247"/>
<path fill-rule="evenodd" d="M449.8,474.5H689.7V459.3H449.8v15.2Z" class="g0_247"/>
<path fill-rule="evenodd" d="M449.5,489.6H689.7V474.5H449.5v15.1Z" class="g0_247"/>
<path fill-rule="evenodd" d="M449.5,504.6H689.7v-15H449.5v15Z" class="g0_247"/>
<path fill-rule="evenodd" d="M449.5,519.6H689.7v-15H449.5v15Z" class="g0_247"/>
<path fill-rule="evenodd" d="M449.5,534.7H689.7V519.6H449.5v15.1Z" class="g0_247"/>
<path fill-rule="evenodd" d="M449.5,549.7H689.7v-15H449.5v15Z" class="g0_247"/>
<path fill-rule="evenodd" d="M449.5,564.7H689.7v-15H449.5v15Z" class="g0_247"/>
<path fill-rule="evenodd" d="M449.5,579.8H689.7V564.7H449.5v15.1Z" class="g0_247"/>
<path fill-rule="evenodd" d="M449.5,594.8H689.7v-15H449.5v15Z" class="g0_247"/>
<path fill-rule="evenodd" d="M449.5,609.9H689.7V594.8H449.5v15.1Z" class="g0_247"/>
<path fill-rule="evenodd" d="M449.1,624.9H688.9v-15H449.1v15Z" class="g0_247"/>
<path fill-rule="evenodd" d="M449.1,639.9H688.9v-15H449.1v15Z" class="g0_247"/>
<path fill-rule="evenodd" d="M449.1,655.2H688.9V639.9H449.1v15.3Z" class="g0_247"/>
<path fill-rule="evenodd" d="M467.4,670.2H689.7v-15H467.4v15Z" class="g0_247"/>
<path fill-rule="evenodd" d="M448.7,685.2H689.3v-15H448.7v15Z" class="g0_247"/>
<path fill-rule="evenodd" d="M448.7,700.3H689.3V685.2H448.7v15.1Z" class="g0_247"/>
<path fill-rule="evenodd" d="M448.7,715.3H689.3v-15H448.7v15Z" class="g0_247"/>
<path fill-rule="evenodd" d="M448.7,730.3H689.3v-15H448.7v15Z" class="g0_247"/>
<path fill-rule="evenodd" d="M448.7,745.4H689.3V730.3H448.7v15.1Z" class="g0_247"/>
<path fill-rule="evenodd" d="M448.7,760.4H688.6v-15H448.7v15Z" class="g0_247"/>
<path fill-rule="evenodd" d="M448.7,775.4H688.6v-15H448.7v15Z" class="g0_247"/>
<path fill-rule="evenodd" d="M448.7,790.5H688.6V775.4H448.7v15.1Z" class="g0_247"/>
<path fill-rule="evenodd" d="M448.7,805.5H688.6v-15H448.7v15Z" class="g0_247"/>
<path fill-rule="evenodd" d="M448.7,820.5H688.6v-15H448.7v15Z" class="g0_247"/>
<path fill-rule="evenodd" d="M448.3,835.8H688.2V820.5H448.3v15.3Z" class="g0_247"/>
<path fill-rule="evenodd" d="M448.3,850.8H688.2v-15H448.3v15Z" class="g0_247"/>
<path fill-rule="evenodd" d="M448.3,865.9H688.2V850.8H448.3v15.1Z" class="g0_247"/>
<path fill-rule="evenodd" d="M448,880.9H688.9v-15H448v15Z" class="g0_247"/>
<path fill-rule="evenodd" d="M448,895.9H688.9v-15H448v15Z" class="g0_247"/>
<path fill-rule="evenodd" d="M448,911H688.9V895.9H448V911Z" class="g0_247"/>
<path fill-rule="evenodd" d="M425,937.4H691V919.8H425v17.6Z" class="g0_247"/>
<path d="M439.2,146.4V360.9m-.7,82.6V912.1" class="g1_247"/>
</svg>