<?xml version="1.0" encoding="UTF-8" standalone="no"?>
<!DOCTYPE svg PUBLIC "-//W3C//DTD SVG 1.1//EN"
"http://www.w3.org/Graphics/SVG/1.1/DTD/svg11.dtd">
<svg viewBox="0 0 909 1285" version="1.1" xmlns="http://www.w3.org/2000/svg" xmlns:xlink="http://www.w3.org/1999/xlink">
<defs>
<style type="text/css"><![CDATA[
.g0_173{
fill: #FFFFFF;
}
.g1_173{
fill: none;
stroke: #000000;
stroke-width: 0.381;
stroke-linecap: butt;
stroke-linejoin: round;
}
]]></style>
</defs>
<path fill-rule="evenodd" d="M578.9,125.8H682.3V110H578.9v15.8Z" class="g0_173"/>
<path fill-rule="evenodd" d="M182.4,161.7H421.2v-15H182.4v15Z" class="g0_173"/>
<path fill-rule="evenodd" d="M182.4,176.9H421.2V161.7H182.4v15.2Z" class="g0_173"/>
<path fill-rule="evenodd" d="M182.4,192H421.2V176.9H182.4V192Z" class="g0_173"/>
<path fill-rule="evenodd" d="M182.4,207H421.2V192H182.4v15Z" class="g0_173"/>
<path fill-rule="evenodd" d="M182.4,222H420.8V207H182.4v15Z" class="g0_173"/>
<path fill-rule="evenodd" d="M182.4,237.1H420.8V222H182.4v15.1Z" class="g0_173"/>
<path fill-rule="evenodd" d="M181.7,252.1H420.4v-15H181.7v15Z" class="g0_173"/>
<path fill-rule="evenodd" d="M181.7,267.1H420.4v-15H181.7v15Z" class="g0_173"/>
<path fill-rule="evenodd" d="M181.7,282.2H420.4V267.1H181.7v15.1Z" class="g0_173"/>
<path fill-rule="evenodd" d="M181.3,297.2H420.4v-15H181.3v15Z" class="g0_173"/>
<path fill-rule="evenodd" d="M181.3,312.2H420.4v-15H181.3v15Z" class="g0_173"/>
<path fill-rule="evenodd" d="M181.3,327.3H420.4V312.2H181.3v15.1Z" class="g0_173"/>
<path fill-rule="evenodd" d="M199.3,342.5H421.2V327.3H199.3v15.2Z" class="g0_173"/>
<path fill-rule="evenodd" d="M199.3,357.9H421.2V342.5H199.3v15.4Z" class="g0_173"/>
<path fill-rule="evenodd" d="M181,373H420.4V357.9H181V373Z" class="g0_173"/>
<path fill-rule="evenodd" d="M181,388H420.4V373H181v15Z" class="g0_173"/>
<path fill-rule="evenodd" d="M181,403H420.4V388H181v15Z" class="g0_173"/>
<path fill-rule="evenodd" d="M181,418.1H420.1V403H181v15.1Z" class="g0_173"/>
<path fill-rule="evenodd" d="M181,433.1H420.1v-15H181v15Z" class="g0_173"/>
<path fill-rule="evenodd" d="M181,448.1H420.1v-15H181v15Z" class="g0_173"/>
<path fill-rule="evenodd" d="M181,463.2H420.1V448.1H181v15.1Z" class="g0_173"/>
<path fill-rule="evenodd" d="M181,478.2H420.1v-15H181v15Z" class="g0_173"/>
<path fill-rule="evenodd" d="M180.6,493.2H420.1v-15H180.6v15Z" class="g0_173"/>
<path fill-rule="evenodd" d="M180.6,508.5H420.1V493.2H180.6v15.3Z" class="g0_173"/>
<path fill-rule="evenodd" d="M180.6,523.5H420.1v-15H180.6v15Z" class="g0_173"/>
<path fill-rule="evenodd" d="M180.6,538.5H420.1v-15H180.6v15Z" class="g0_173"/>
<path fill-rule="evenodd" d="M180.2,553.9H419.3v-15H180.2v15Z" class="g0_173"/>
<path fill-rule="evenodd" d="M180.2,569H419.3V553.9H180.2V569Z" class="g0_173"/>
<path fill-rule="evenodd" d="M180.2,584H419.3V569H180.2v15Z" class="g0_173"/>
<path fill-rule="evenodd" d="M179.1,599.1H418.6V584H179.1v15.1Z" class="g0_173"/>
<path fill-rule="evenodd" d="M179.1,614.1H418.6v-15H179.1v15Z" class="g0_173"/>
<path fill-rule="evenodd" d="M179.1,629.1H418.6v-15H179.1v15Z" class="g0_173"/>
<path fill-rule="evenodd" d="M179.9,644.2H418.6V629.1H179.9v15.1Z" class="g0_173"/>
<path fill-rule="evenodd" d="M179.9,659.2H418.6v-15H179.9v15Z" class="g0_173"/>
<path fill-rule="evenodd" d="M197.5,674.4H421.2V659.2H197.5v15.2Z" class="g0_173"/>
<path fill-rule="evenodd" d="M179.9,689.4h238v-15h-238v15Z" class="g0_173"/>
<path fill-rule="evenodd" d="M179.9,704.5h238V689.4h-238v15.1Z" class="g0_173"/>
<path fill-rule="evenodd" d="M179.5,719.5H418.6v-15H179.5v15Z" class="g0_173"/>
<path fill-rule="evenodd" d="M179.5,734.5H418.6v-15H179.5v15Z" class="g0_173"/>
<path fill-rule="evenodd" d="M179.5,749.6H418.2V734.5H179.5v15.1Z" class="g0_173"/>
<path fill-rule="evenodd" d="M179.5,764.6H418.2v-15H179.5v15Z" class="g0_173"/>
<path fill-rule="evenodd" d="M179.1,779.6H418.2v-15H179.1v15Z" class="g0_173"/>
<path fill-rule="evenodd" d="M179.1,794.7H418.2V779.6H179.1v15.1Z" class="g0_173"/>
<path fill-rule="evenodd" d="M179.5,809.7H417.9v-15H179.5v15Z" class="g0_173"/>
<path fill-rule="evenodd" d="M179.5,824.7H417.9v-15H179.5v15Z" class="g0_173"/>
<path fill-rule="evenodd" d="M179.1,839.8H417.9V824.7H179.1v15.1Z" class="g0_173"/>
<path fill-rule="evenodd" d="M179.1,855H417.9V839.8H179.1V855Z" class="g0_173"/>
<path fill-rule="evenodd" d="M179.1,870.1H418.2V855H179.1v15.1Z" class="g0_173"/>
<path fill-rule="evenodd" d="M179.1,885.1H418.2v-15H179.1v15Z" class="g0_173"/>
<path fill-rule="evenodd" d="M179.1,900.1H418.2v-15H179.1v15Z" class="g0_173"/>
<path fill-rule="evenodd" d="M182.4,915.2H421.2V900.1H182.4v15.1Z" class="g0_173"/>
<path fill-rule="evenodd" d="M441.5,161.7H682.2v-15H441.5v15Z" class="g0_173"/>
<path fill-rule="evenodd" d="M441.5,176.9H682.2V161.7H441.5v15.2Z" class="g0_173"/>
<path fill-rule="evenodd" d="M441.5,192.3H681.8v-15H441.5v15Z" class="g0_173"/>
<path fill-rule="evenodd" d="M441.5,207.4H681.8V192.3H441.5v15.1Z" class="g0_173"/>
<path fill-rule="evenodd" d="M441.5,222.4H681.8v-15H441.5v15Z" class="g0_173"/>
<path fill-rule="evenodd" d="M441.5,237.4H681.4v-15H441.5v15Z" class="g0_173"/>
<path fill-rule="evenodd" d="M441.5,252.5H681.4V237.4H441.5v15.1Z" class="g0_173"/>
<path fill-rule="evenodd" d="M441.5,267.5H681.4v-15H441.5v15Z" class="g0_173"/>
<path fill-rule="evenodd" d="M459.5,282.5H682.1v-15H459.5v15Z" class="g0_173"/>
<path fill-rule="evenodd" d="M440.8,297.6h241V282.5h-241v15.1Z" class="g0_173"/>
<path fill-rule="evenodd" d="M440.8,312.6h241v-15h-241v15Z" class="g0_173"/>
<path fill-rule="evenodd" d="M440.8,327.8h241V312.6h-241v15.2Z" class="g0_173"/>
<path fill-rule="evenodd" d="M440.8,342.9h241V327.8h-241v15.1Z" class="g0_173"/>
<path fill-rule="evenodd" d="M440.8,357.9H681.1v-15H440.8v15Z" class="g0_173"/>
<path fill-rule="evenodd" d="M440.8,373H681.1V357.9H440.8V373Z" class="g0_173"/>
<path fill-rule="evenodd" d="M440.8,388H681.1V373H440.8v15Z" class="g0_173"/>
<path fill-rule="evenodd" d="M440.8,403H680.7V388H440.8v15Z" class="g0_173"/>
<path fill-rule="evenodd" d="M440.8,418.1H680.7V403H440.8v15.1Z" class="g0_173"/>
<path fill-rule="evenodd" d="M459.2,433.1H682.1v-15H459.2v15Z" class="g0_173"/>
<path fill-rule="evenodd" d="M459.2,448.1H682.1v-15H459.2v15Z" class="g0_173"/>
<path fill-rule="evenodd" d="M440.4,463.2H680.3V448.1H440.4v15.1Z" class="g0_173"/>
<path fill-rule="evenodd" d="M440.4,478.2H680.3v-15H440.4v15Z" class="g0_173"/>
<path fill-rule="evenodd" d="M440.1,493.2H680.7v-15H440.1v15Z" class="g0_173"/>
<path fill-rule="evenodd" d="M440.1,508.5H680.7V493.2H440.1v15.3Z" class="g0_173"/>
<path fill-rule="evenodd" d="M440.4,523.5H680.3v-15H440.4v15Z" class="g0_173"/>
<path fill-rule="evenodd" d="M440.4,538.5H680.3v-15H440.4v15Z" class="g0_173"/>
<path fill-rule="evenodd" d="M439.7,553.6h241V538.5h-241v15.1Z" class="g0_173"/>
<path fill-rule="evenodd" d="M439.7,568.6h241v-15h-241v15Z" class="g0_173"/>
<path fill-rule="evenodd" d="M439.7,583.6h241v-15h-241v15Z" class="g0_173"/>
<path fill-rule="evenodd" d="M439.7,598.7H680V583.6H439.7v15.1Z" class="g0_173"/>
<path fill-rule="evenodd" d="M439.7,613.7H680v-15H439.7v15Z" class="g0_173"/>
<path fill-rule="evenodd" d="M439.7,628.8H680V613.7H439.7v15.1Z" class="g0_173"/>
<path fill-rule="evenodd" d="M439.7,643.8H680v-15H439.7v15Z" class="g0_173"/>
<path fill-rule="evenodd" d="M439.7,658.8H680v-15H439.7v15Z" class="g0_173"/>
<path fill-rule="evenodd" d="M439.3,673.9H679.6V658.8H439.3v15.1Z" class="g0_173"/>
<path fill-rule="evenodd" d="M439.3,689.1H679.6V673.9H439.3v15.2Z" class="g0_173"/>
<path fill-rule="evenodd" d="M439.3,704.1H679.6v-15H439.3v15Z" class="g0_173"/>
<path fill-rule="evenodd" d="M439.3,719.1H679.6v-15H439.3v15Z" class="g0_173"/>
<path fill-rule="evenodd" d="M439.3,734.2H679.6V719.1H439.3v15.1Z" class="g0_173"/>
<path fill-rule="evenodd" d="M457.7,749.2H682.1v-15H457.7v15Z" class="g0_173"/>
<path fill-rule="evenodd" d="M439,764.2H679.6v-15H439v15Z" class="g0_173"/>
<path fill-rule="evenodd" d="M439,779.3H679.6V764.2H439v15.1Z" class="g0_173"/>
<path fill-rule="evenodd" d="M439,794.3H679.6v-15H439v15Z" class="g0_173"/>
<path fill-rule="evenodd" d="M439,809.3H678.9v-15H439v15Z" class="g0_173"/>
<path fill-rule="evenodd" d="M439,824.4H678.9V809.3H439v15.1Z" class="g0_173"/>
<path fill-rule="evenodd" d="M438.6,839.5H678.9V824.4H438.6v15.1Z" class="g0_173"/>
<path fill-rule="evenodd" d="M438.6,854.5H678.9v-15H438.6v15Z" class="g0_173"/>
<path fill-rule="evenodd" d="M438.6,869.7H678.9V854.5H438.6v15.2Z" class="g0_173"/>
<path fill-rule="evenodd" d="M438.2,884.7H678.9v-15H438.2v15Z" class="g0_173"/>
<path fill-rule="evenodd" d="M438.2,899.8H678.9V884.7H438.2v15.1Z" class="g0_173"/>
<path fill-rule="evenodd" d="M416.1,932.8H682.3V915.2H416.1v17.6Z" class="g0_173"/>
<path d="M427.7,146.4V914.9" class="g1_173"/>
</svg>