<?xml version="1.0" encoding="UTF-8" standalone="no"?>
<!DOCTYPE svg PUBLIC "-//W3C//DTD SVG 1.1//EN"
"http://www.w3.org/Graphics/SVG/1.1/DTD/svg11.dtd">
<svg viewBox="0 0 909 1285" version="1.1" xmlns="http://www.w3.org/2000/svg" xmlns:xlink="http://www.w3.org/1999/xlink">
<defs>
<style type="text/css"><![CDATA[
.g0_103{
fill: #FFFFFF;
}
.g1_103{
fill: none;
stroke: #000000;
stroke-width: 2.215;
stroke-linecap: butt;
stroke-linejoin: round;
}
.g2_103{
fill: none;
stroke: #000000;
stroke-width: 0.381;
stroke-linecap: butt;
stroke-linejoin: round;
}
]]></style>
</defs>
<path fill-rule="evenodd" d="M260.9,127.6h497V110h-497v17.6Z" class="g0_103"/>
<path fill-rule="evenodd" d="M256.5,179H533.2V154H256.5v25Z" class="g0_103"/>
<path fill-rule="evenodd" d="M259.4,216.7H498.6v-15H259.4v15Z" class="g0_103"/>
<path fill-rule="evenodd" d="M259.4,231.8H498.6V216.7H259.4v15.1Z" class="g0_103"/>
<path fill-rule="evenodd" d="M259.4,246.8H498.6v-15H259.4v15Z" class="g0_103"/>
<path fill-rule="evenodd" d="M259.4,261.8H498.6v-15H259.4v15Z" class="g0_103"/>
<path fill-rule="evenodd" d="M259.4,276.9H498.6V261.8H259.4v15.1Z" class="g0_103"/>
<path fill-rule="evenodd" d="M259.4,291.9H498.6v-15H259.4v15Z" class="g0_103"/>
<path fill-rule="evenodd" d="M259.4,307.1H498.6V291.9H259.4v15.2Z" class="g0_103"/>
<path fill-rule="evenodd" d="M259.4,322.1H498.6v-15H259.4v15Z" class="g0_103"/>
<path fill-rule="evenodd" d="M259.4,337.2H498.6V322.1H259.4v15.1Z" class="g0_103"/>
<path fill-rule="evenodd" d="M259.4,352.2H498.6v-15H259.4v15Z" class="g0_103"/>
<path fill-rule="evenodd" d="M259.1,367.3H497.5V352.2H259.1v15.1Z" class="g0_103"/>
<path fill-rule="evenodd" d="M259.1,382.3H497.5v-15H259.1v15Z" class="g0_103"/>
<path fill-rule="evenodd" d="M259.1,397.4H497.9V382.3H259.1v15.1Z" class="g0_103"/>
<path fill-rule="evenodd" d="M259.1,412.4H497.9v-15H259.1v15Z" class="g0_103"/>
<path fill-rule="evenodd" d="M259.1,427.4H497.9v-15H259.1v15Z" class="g0_103"/>
<path fill-rule="evenodd" d="M259.1,442.5H497.9V427.4H259.1v15.1Z" class="g0_103"/>
<path fill-rule="evenodd" d="M258.7,457.5H497.1v-15H258.7v15Z" class="g0_103"/>
<path fill-rule="evenodd" d="M258.7,472.7H497.1V457.5H258.7v15.2Z" class="g0_103"/>
<path fill-rule="evenodd" d="M258.7,487.7H497.1v-15H258.7v15Z" class="g0_103"/>
<path fill-rule="evenodd" d="M258.7,503.1H496.4v-15H258.7v15Z" class="g0_103"/>
<path fill-rule="evenodd" d="M258.7,518.2H496.4V503.1H258.7v15.1Z" class="g0_103"/>
<path fill-rule="evenodd" d="M277.1,533.2H498.6v-15H277.1v15Z" class="g0_103"/>
<path fill-rule="evenodd" d="M277.1,548.2H498.6v-15H277.1v15Z" class="g0_103"/>
<path fill-rule="evenodd" d="M258,563.3H496V548.2H258v15.1Z" class="g0_103"/>
<path fill-rule="evenodd" d="M258,578.3H496v-15H258v15Z" class="g0_103"/>
<path fill-rule="evenodd" d="M257.6,593.4H496.8V578.3H257.6v15.1Z" class="g0_103"/>
<path fill-rule="evenodd" d="M257.6,608.4H496.8v-15H257.6v15Z" class="g0_103"/>
<path fill-rule="evenodd" d="M257.6,623.4H496.8v-15H257.6v15Z" class="g0_103"/>
<path fill-rule="evenodd" d="M257.6,638.7H496.8V623.4H257.6v15.3Z" class="g0_103"/>
<path fill-rule="evenodd" d="M257.6,653.7H496.8v-15H257.6v15Z" class="g0_103"/>
<path fill-rule="evenodd" d="M257.6,668.7H496.8v-15H257.6v15Z" class="g0_103"/>
<path fill-rule="evenodd" d="M257.6,683.8H496.8V668.7H257.6v15.1Z" class="g0_103"/>
<path fill-rule="evenodd" d="M257.6,698.8H496.8v-15H257.6v15Z" class="g0_103"/>
<path fill-rule="evenodd" d="M275.6,713.8h223v-15h-223v15Z" class="g0_103"/>
<path fill-rule="evenodd" d="M276,728.9H498.6V713.8H276v15.1Z" class="g0_103"/>
<path fill-rule="evenodd" d="M256.9,743.9H495.7v-15H256.9v15Z" class="g0_103"/>
<path fill-rule="evenodd" d="M256.9,758.9H495.7v-15H256.9v15Z" class="g0_103"/>
<path fill-rule="evenodd" d="M256.9,774H495.7V758.9H256.9V774Z" class="g0_103"/>
<path fill-rule="evenodd" d="M275.6,789h223V774h-223v15Z" class="g0_103"/>
<path fill-rule="evenodd" d="M275.6,804h223V789h-223v15Z" class="g0_103"/>
<path fill-rule="evenodd" d="M275.3,819.2H498.6V804H275.3v15.2Z" class="g0_103"/>
<path fill-rule="evenodd" d="M275.3,834.3H498.6V819.2H275.3v15.1Z" class="g0_103"/>
<path fill-rule="evenodd" d="M256.9,849.4H495.7V834.3H256.9v15.1Z" class="g0_103"/>
<path fill-rule="evenodd" d="M256.9,864.4H495.7v-15H256.9v15Z" class="g0_103"/>
<path fill-rule="evenodd" d="M256.9,879.4H495.7v-15H256.9v15Z" class="g0_103"/>
<path fill-rule="evenodd" d="M256.5,894.5H495.3V879.4H256.5v15.1Z" class="g0_103"/>
<path fill-rule="evenodd" d="M256.5,909.5H495.3v-15H256.5v15Z" class="g0_103"/>
<path fill-rule="evenodd" d="M259.1,924.5H498.6v-15H259.1v15Z" class="g0_103"/>
<path fill-rule="evenodd" d="M518,217.1H757.9v-15H518v15Z" class="g0_103"/>
<path fill-rule="evenodd" d="M518,232.1H757.9v-15H518v15Z" class="g0_103"/>
<path fill-rule="evenodd" d="M518,247.2H757.9V232.1H518v15.1Z" class="g0_103"/>
<path fill-rule="evenodd" d="M518,262.2H757.9v-15H518v15Z" class="g0_103"/>
<path fill-rule="evenodd" d="M518,277.2H757.9v-15H518v15Z" class="g0_103"/>
<path fill-rule="evenodd" d="M518,292.4H757.9V277.2H518v15.2Z" class="g0_103"/>
<path fill-rule="evenodd" d="M518,307.5H757.9V292.4H518v15.1Z" class="g0_103"/>
<path fill-rule="evenodd" d="M518,322.5H757.9v-15H518v15Z" class="g0_103"/>
<path fill-rule="evenodd" d="M518,337.5H757.9v-15H518v15Z" class="g0_103"/>
<path fill-rule="evenodd" d="M518,352.6H757.9v-15H518v15Z" class="g0_103"/>
<path fill-rule="evenodd" d="M518,367.7H757.9V352.6H518v15.1Z" class="g0_103"/>
<path fill-rule="evenodd" d="M518,382.7H757.9v-15H518v15Z" class="g0_103"/>
<path fill-rule="evenodd" d="M518,397.7H757.9v-15H518v15Z" class="g0_103"/>
<path fill-rule="evenodd" d="M517.7,412.8H756.4V397.7H517.7v15.1Z" class="g0_103"/>
<path fill-rule="evenodd" d="M517.7,427.8H756.4v-15H517.7v15Z" class="g0_103"/>
<path fill-rule="evenodd" d="M517.7,442.8H756.4v-15H517.7v15Z" class="g0_103"/>
<path fill-rule="evenodd" d="M517.7,458H756V442.8H517.7V458Z" class="g0_103"/>
<path fill-rule="evenodd" d="M517.7,473.1H756V458H517.7v15.1Z" class="g0_103"/>
<path fill-rule="evenodd" d="M517.7,488.1H756v-15H517.7v15Z" class="g0_103"/>
<path fill-rule="evenodd" d="M517.3,503.1H756.4v-15H517.3v15Z" class="g0_103"/>
<path fill-rule="evenodd" d="M517.3,518.2H756.4V503.1H517.3v15.1Z" class="g0_103"/>
<path fill-rule="evenodd" d="M517.3,533.2H756.4v-15H517.3v15Z" class="g0_103"/>
<path fill-rule="evenodd" d="M516.6,548.2H755.7v-15H516.6v15Z" class="g0_103"/>
<path fill-rule="evenodd" d="M516.6,563.3H755.7V548.2H516.6v15.1Z" class="g0_103"/>
<path fill-rule="evenodd" d="M516.6,578.3H755.7v-15H516.6v15Z" class="g0_103"/>
<path fill-rule="evenodd" d="M516.6,593.4H755.7V578.3H516.6v15.1Z" class="g0_103"/>
<path fill-rule="evenodd" d="M516.6,608.4H755.7v-15H516.6v15Z" class="g0_103"/>
<path fill-rule="evenodd" d="M516.6,623.4H755.7v-15H516.6v15Z" class="g0_103"/>
<path fill-rule="evenodd" d="M516.6,638.7H755.7V623.4H516.6v15.3Z" class="g0_103"/>
<path fill-rule="evenodd" d="M515.8,653.7H755.3v-15H515.8v15Z" class="g0_103"/>
<path fill-rule="evenodd" d="M515.8,668.7H755.3v-15H515.8v15Z" class="g0_103"/>
<path fill-rule="evenodd" d="M515.8,683.8H755.3V668.7H515.8v15.1Z" class="g0_103"/>
<path fill-rule="evenodd" d="M515.8,698.8H755.3v-15H515.8v15Z" class="g0_103"/>
<path fill-rule="evenodd" d="M515.8,713.8H755.3v-15H515.8v15Z" class="g0_103"/>
<path fill-rule="evenodd" d="M515.8,728.9H755.3V713.8H515.8v15.1Z" class="g0_103"/>
<path fill-rule="evenodd" d="M515.8,743.9H755.3v-15H515.8v15Z" class="g0_103"/>
<path fill-rule="evenodd" d="M515.8,758.9H755.3v-15H515.8v15Z" class="g0_103"/>
<path fill-rule="evenodd" d="M515.8,774H755.3V758.9H515.8V774Z" class="g0_103"/>
<path fill-rule="evenodd" d="M515.8,789H755.7V774H515.8v15Z" class="g0_103"/>
<path fill-rule="evenodd" d="M515.8,804H755.7V789H515.8v15Z" class="g0_103"/>
<path fill-rule="evenodd" d="M515.8,819.2H755.7V804H515.8v15.2Z" class="g0_103"/>
<path fill-rule="evenodd" d="M515.8,834.3H755.7V819.2H515.8v15.1Z" class="g0_103"/>
<path fill-rule="evenodd" d="M515.5,849.4H755.3V834.3H515.5v15.1Z" class="g0_103"/>
<path fill-rule="evenodd" d="M515.5,864.4H755.3v-15H515.5v15Z" class="g0_103"/>
<path fill-rule="evenodd" d="M515.5,879.4H755.3v-15H515.5v15Z" class="g0_103"/>
<path fill-rule="evenodd" d="M515.5,894.5H755.3V879.4H515.5v15.1Z" class="g0_103"/>
<path fill-rule="evenodd" d="M515.5,909.5H755.3v-15H515.5v15Z" class="g0_103"/>
<path fill-rule="evenodd" d="M493.5,940.3H757.9V922.7H493.5v17.6Z" class="g0_103"/>
<path d="M178.1,216.3V442.9" class="g1_103"/>
<path d="M505.5,201.3V917" class="g2_103"/>
</svg>