<?xml version="1.0" encoding="UTF-8" standalone="no"?>
<!DOCTYPE svg PUBLIC "-//W3C//DTD SVG 1.1//EN"
"http://www.w3.org/Graphics/SVG/1.1/DTD/svg11.dtd">
<svg viewBox="0 0 909 1285" version="1.1" xmlns="http://www.w3.org/2000/svg" xmlns:xlink="http://www.w3.org/1999/xlink">
<defs>
<style type="text/css"><![CDATA[
.g0_145{
fill: #FFFFFF;
}
.g1_145{
fill: none;
stroke: #000000;
stroke-width: 0.381;
stroke-linecap: butt;
stroke-linejoin: round;
}
]]></style>
</defs>
<path fill-rule="evenodd" d="M272.1,125.8H770.9V110H272.1v15.8Z" class="g0_145"/>
<path fill-rule="evenodd" d="M272.5,161.7H511.2v-15H272.5v15Z" class="g0_145"/>
<path fill-rule="evenodd" d="M272.5,176.9H511.2V161.7H272.5v15.2Z" class="g0_145"/>
<path fill-rule="evenodd" d="M272.5,192H511.6V176.9H272.5V192Z" class="g0_145"/>
<path fill-rule="evenodd" d="M272.5,207H511.6V192H272.5v15Z" class="g0_145"/>
<path fill-rule="evenodd" d="M272.5,222H511.6V207H272.5v15Z" class="g0_145"/>
<path fill-rule="evenodd" d="M272.1,237.1H510.9V222H272.1v15.1Z" class="g0_145"/>
<path fill-rule="evenodd" d="M272.1,252.1H510.9v-15H272.1v15Z" class="g0_145"/>
<path fill-rule="evenodd" d="M272.1,267.1H510.9v-15H272.1v15Z" class="g0_145"/>
<path fill-rule="evenodd" d="M272.1,282.2H510.9V267.1H272.1v15.1Z" class="g0_145"/>
<path fill-rule="evenodd" d="M272.1,297.2H510.9v-15H272.1v15Z" class="g0_145"/>
<path fill-rule="evenodd" d="M271.8,312.2H510.9v-15H271.8v15Z" class="g0_145"/>
<path fill-rule="evenodd" d="M271.8,327.3H510.9V312.2H271.8v15.1Z" class="g0_145"/>
<path fill-rule="evenodd" d="M271.8,342.5H510.9V327.3H271.8v15.2Z" class="g0_145"/>
<path fill-rule="evenodd" d="M271.8,357.6H510.9V342.5H271.8v15.1Z" class="g0_145"/>
<path fill-rule="evenodd" d="M271.8,372.6H510.9v-15H271.8v15Z" class="g0_145"/>
<path fill-rule="evenodd" d="M271.4,387.6H510.1v-15H271.4v15Z" class="g0_145"/>
<path fill-rule="evenodd" d="M271.4,402.7H510.1V387.6H271.4v15.1Z" class="g0_145"/>
<path fill-rule="evenodd" d="M271.4,417.7H510.1v-15H271.4v15Z" class="g0_145"/>
<path fill-rule="evenodd" d="M271.4,432.7H510.1v-15H271.4v15Z" class="g0_145"/>
<path fill-rule="evenodd" d="M270.7,447.8H509.8V432.7H270.7v15.1Z" class="g0_145"/>
<path fill-rule="evenodd" d="M270.7,462.8H509.8v-15H270.7v15Z" class="g0_145"/>
<path fill-rule="evenodd" d="M270.7,477.8H509.8v-15H270.7v15Z" class="g0_145"/>
<path fill-rule="evenodd" d="M270.7,492.9H509.8V477.8H270.7v15.1Z" class="g0_145"/>
<path fill-rule="evenodd" d="M270.7,507.9H509.8v-15H270.7v15Z" class="g0_145"/>
<path fill-rule="evenodd" d="M270.7,523.1H509.8V507.9H270.7v15.2Z" class="g0_145"/>
<path fill-rule="evenodd" d="M270.7,538.2H509.8V523.1H270.7v15.1Z" class="g0_145"/>
<path fill-rule="evenodd" d="M270.7,553.2H509.8v-15H270.7v15Z" class="g0_145"/>
<path fill-rule="evenodd" d="M269.9,568.2H509.8v-15H269.9v15Z" class="g0_145"/>
<path fill-rule="evenodd" d="M269.9,583.3H509.8V568.2H269.9v15.1Z" class="g0_145"/>
<path fill-rule="evenodd" d="M269.9,598.3H509.8v-15H269.9v15Z" class="g0_145"/>
<path fill-rule="evenodd" d="M269.9,613.4H509.8V598.3H269.9v15.1Z" class="g0_145"/>
<path fill-rule="evenodd" d="M269.9,628.4H509.8v-15H269.9v15Z" class="g0_145"/>
<path fill-rule="evenodd" d="M269.9,643.4H509.8v-15H269.9v15Z" class="g0_145"/>
<path fill-rule="evenodd" d="M269.9,658.5H509.8V643.4H269.9v15.1Z" class="g0_145"/>
<path fill-rule="evenodd" d="M269.9,673.5H509.8v-15H269.9v15Z" class="g0_145"/>
<path fill-rule="evenodd" d="M269.6,688.5H508.7v-15H269.6v15Z" class="g0_145"/>
<path fill-rule="evenodd" d="M269.6,703.7H508.7V688.5H269.6v15.2Z" class="g0_145"/>
<path fill-rule="evenodd" d="M269.6,718.8H508.7V703.7H269.6v15.1Z" class="g0_145"/>
<path fill-rule="evenodd" d="M269.6,733.8H508.7v-15H269.6v15Z" class="g0_145"/>
<path fill-rule="evenodd" d="M269.6,748.8H508.7v-15H269.6v15Z" class="g0_145"/>
<path fill-rule="evenodd" d="M269.6,763.9H508.7V748.8H269.6v15.1Z" class="g0_145"/>
<path fill-rule="evenodd" d="M269.6,778.9H508.7v-15H269.6v15Z" class="g0_145"/>
<path fill-rule="evenodd" d="M269.2,793.9H507.9v-15H269.2v15Z" class="g0_145"/>
<path fill-rule="evenodd" d="M269.2,809H507.9V793.9H269.2V809Z" class="g0_145"/>
<path fill-rule="evenodd" d="M269.2,824H508.7V809H269.2v15Z" class="g0_145"/>
<path fill-rule="evenodd" d="M269.2,839.1H508.7V824H269.2v15.1Z" class="g0_145"/>
<path fill-rule="evenodd" d="M269.2,854.1H508.7v-15H269.2v15Z" class="g0_145"/>
<path fill-rule="evenodd" d="M269.2,869.2H508.7V854.1H269.2v15.1Z" class="g0_145"/>
<path fill-rule="evenodd" d="M269.2,884.4H508.7V869.2H269.2v15.2Z" class="g0_145"/>
<path fill-rule="evenodd" d="M269.2,899.4H508.7v-15H269.2v15Z" class="g0_145"/>
<path fill-rule="evenodd" d="M272.9,914.1H511.6V899.4H272.9v14.7Z" class="g0_145"/>
<path fill-rule="evenodd" d="M531.8,162.3H770.9V147.4H531.8v14.9Z" class="g0_145"/>
<path fill-rule="evenodd" d="M531.8,176.9H770.9V162.3H531.8v14.6Z" class="g0_145"/>
<path fill-rule="evenodd" d="M532.1,192h238V177.3h-238V192Z" class="g0_145"/>
<path fill-rule="evenodd" d="M532.1,206.6h238V192h-238v14.6Z" class="g0_145"/>
<path fill-rule="evenodd" d="M531.4,221.3H770.5V206.6H531.4v14.7Z" class="g0_145"/>
<path fill-rule="evenodd" d="M531.4,236H770.5V221.3H531.4V236Z" class="g0_145"/>
<path fill-rule="evenodd" d="M531.4,250.6H770.5V236H531.4v14.6Z" class="g0_145"/>
<path fill-rule="evenodd" d="M549.7,265.3H770.9V250.6H549.7v14.7Z" class="g0_145"/>
<path fill-rule="evenodd" d="M531.4,280H770.1V265.3H531.4V280Z" class="g0_145"/>
<path fill-rule="evenodd" d="M531.4,294.6H770.1V280H531.4v14.6Z" class="g0_145"/>
<path fill-rule="evenodd" d="M531.4,309.3H770.1V294.6H531.4v14.7Z" class="g0_145"/>
<path fill-rule="evenodd" d="M531.4,324H770.5V309.3H531.4V324Z" class="g0_145"/>
<path fill-rule="evenodd" d="M531.4,338.6H770.5V324H531.4v14.6Z" class="g0_145"/>
<path fill-rule="evenodd" d="M531.4,353.7H770.1V339H531.4v14.7Z" class="g0_145"/>
<path fill-rule="evenodd" d="M531.4,368.4H770.1V353.7H531.4v14.7Z" class="g0_145"/>
<path fill-rule="evenodd" d="M531,383.1H769.8V368.4H531v14.7Z" class="g0_145"/>
<path fill-rule="evenodd" d="M531,397.7H769.8V383.1H531v14.6Z" class="g0_145"/>
<path fill-rule="evenodd" d="M530.7,412.4H769.8V397.7H530.7v14.7Z" class="g0_145"/>
<path fill-rule="evenodd" d="M530.7,427.1H769.8V412.4H530.7v14.7Z" class="g0_145"/>
<path fill-rule="evenodd" d="M530.3,442.1H768.7V427.4H530.3v14.7Z" class="g0_145"/>
<path fill-rule="evenodd" d="M530.3,456.8H768.7V442.1H530.3v14.7Z" class="g0_145"/>
<path fill-rule="evenodd" d="M531,471.8H769.4V457.1H531v14.7Z" class="g0_145"/>
<path fill-rule="evenodd" d="M531,486.5H769.4V471.8H531v14.7Z" class="g0_145"/>
<path fill-rule="evenodd" d="M529.6,501.5H769V486.8H529.6v14.7Z" class="g0_145"/>
<path fill-rule="evenodd" d="M529.6,516.2H769V501.5H529.6v14.7Z" class="g0_145"/>
<path fill-rule="evenodd" d="M529.6,530.8H769V516.2H529.6v14.6Z" class="g0_145"/>
<path fill-rule="evenodd" d="M529.6,545.5H769V530.8H529.6v14.7Z" class="g0_145"/>
<path fill-rule="evenodd" d="M529.6,560.2H769V545.5H529.6v14.7Z" class="g0_145"/>
<path fill-rule="evenodd" d="M529.6,574.8H769V560.2H529.6v14.6Z" class="g0_145"/>
<path fill-rule="evenodd" d="M529.6,589.5H769V574.8H529.6v14.7Z" class="g0_145"/>
<path fill-rule="evenodd" d="M529.9,604.6H769V589.9H529.9v14.7Z" class="g0_145"/>
<path fill-rule="evenodd" d="M529.9,619.2H769V604.6H529.9v14.6Z" class="g0_145"/>
<path fill-rule="evenodd" d="M529.9,633.9H769V619.2H529.9v14.7Z" class="g0_145"/>
<path fill-rule="evenodd" d="M529.6,648.6H768.3V633.9H529.6v14.7Z" class="g0_145"/>
<path fill-rule="evenodd" d="M529.6,663.2H768.3V648.6H529.6v14.6Z" class="g0_145"/>
<path fill-rule="evenodd" d="M529.6,677.9H768.3V663.2H529.6v14.7Z" class="g0_145"/>
<path fill-rule="evenodd" d="M529.9,692.9h238V678.3h-238v14.6Z" class="g0_145"/>
<path fill-rule="evenodd" d="M529.9,707.6h238V692.9h-238v14.7Z" class="g0_145"/>
<path fill-rule="evenodd" d="M529.6,722.3h238V707.6h-238v14.7Z" class="g0_145"/>
<path fill-rule="evenodd" d="M529.6,736.9h238V722.3h-238v14.6Z" class="g0_145"/>
<path fill-rule="evenodd" d="M529.6,752H767.9V737.3H529.6V752Z" class="g0_145"/>
<path fill-rule="evenodd" d="M529.6,766.6H767.9V752H529.6v14.6Z" class="g0_145"/>
<path fill-rule="evenodd" d="M528.8,781.7H767.6V767H528.8v14.7Z" class="g0_145"/>
<path fill-rule="evenodd" d="M528.8,796.3H767.6V781.7H528.8v14.6Z" class="g0_145"/>
<path fill-rule="evenodd" d="M528.8,811H767.6V796.3H528.8V811Z" class="g0_145"/>
<path fill-rule="evenodd" d="M528.8,825.7H767.9V811H528.8v14.7Z" class="g0_145"/>
<path fill-rule="evenodd" d="M528.8,840.4H767.9V825.7H528.8v14.7Z" class="g0_145"/>
<path fill-rule="evenodd" d="M528.8,855H767.9V840.4H528.8V855Z" class="g0_145"/>
<path fill-rule="evenodd" d="M528.8,869.7H767.9V855H528.8v14.7Z" class="g0_145"/>
<path fill-rule="evenodd" d="M528.1,884.7H767.2V870.1H528.1v14.6Z" class="g0_145"/>
<path fill-rule="evenodd" d="M528.1,899.4H767.2V884.7H528.1v14.7Z" class="g0_145"/>
<path d="M200.9,115.9V304.3m5.9,-188.8v34.8m-3.3,15.8V470.9m1.8,-68.3v84.8m1.1,-234.3V509.7m2.2,-181.8V611.3M518.5,147.8V916" class="g1_145"/>
</svg>