<?xml version="1.0" encoding="UTF-8" standalone="no"?>
<!DOCTYPE svg PUBLIC "-//W3C//DTD SVG 1.1//EN"
"http://www.w3.org/Graphics/SVG/1.1/DTD/svg11.dtd">
<svg viewBox="0 0 909 1285" version="1.1" xmlns="http://www.w3.org/2000/svg" xmlns:xlink="http://www.w3.org/1999/xlink">
<defs>
<style type="text/css"><![CDATA[
.g0_160{
fill: #FFFFFF;
}
.g1_160{
fill: none;
stroke: #000000;
stroke-width: 0.381;
stroke-linecap: butt;
stroke-linejoin: round;
}
]]></style>
</defs>
<path fill-rule="evenodd" d="M664.2,125.8h59.4V110H664.2v15.8Z" class="g0_160"/>
<path fill-rule="evenodd" d="M200.6,161.7H439v-15H200.6v15Z" class="g0_160"/>
<path fill-rule="evenodd" d="M200.6,176.9H439V161.7H200.6v15.2Z" class="g0_160"/>
<path fill-rule="evenodd" d="M200.6,192H438.2V176.9H200.6V192Z" class="g0_160"/>
<path fill-rule="evenodd" d="M200.6,207H438.2V192H200.6v15Z" class="g0_160"/>
<path fill-rule="evenodd" d="M199.5,222H439V207H199.5v15Z" class="g0_160"/>
<path fill-rule="evenodd" d="M199.5,237.1H439V222H199.5v15.1Z" class="g0_160"/>
<path fill-rule="evenodd" d="M199.5,252.1H439v-15H199.5v15Z" class="g0_160"/>
<path fill-rule="evenodd" d="M199.5,267.1H439v-15H199.5v15Z" class="g0_160"/>
<path fill-rule="evenodd" d="M199.5,282.2H439V267.1H199.5v15.1Z" class="g0_160"/>
<path fill-rule="evenodd" d="M199.5,297.2H439v-15H199.5v15Z" class="g0_160"/>
<path fill-rule="evenodd" d="M199.5,312.2H439v-15H199.5v15Z" class="g0_160"/>
<path fill-rule="evenodd" d="M199.5,327.3H439V312.2H199.5v15.1Z" class="g0_160"/>
<path fill-rule="evenodd" d="M199.5,342.5H439V327.3H199.5v15.2Z" class="g0_160"/>
<path fill-rule="evenodd" d="M199.5,357.6H439V342.5H199.5v15.1Z" class="g0_160"/>
<path fill-rule="evenodd" d="M199.5,372.6H439v-15H199.5v15Z" class="g0_160"/>
<path fill-rule="evenodd" d="M199.5,387.6H439v-15H199.5v15Z" class="g0_160"/>
<path fill-rule="evenodd" d="M198.8,402.7H438.2V387.6H198.8v15.1Z" class="g0_160"/>
<path fill-rule="evenodd" d="M198.8,417.7H438.2v-15H198.8v15Z" class="g0_160"/>
<path fill-rule="evenodd" d="M198.8,432.7H438.2v-15H198.8v15Z" class="g0_160"/>
<path fill-rule="evenodd" d="M198.8,447.8H438.2V432.7H198.8v15.1Z" class="g0_160"/>
<path fill-rule="evenodd" d="M199.5,462.8H438.2v-15H199.5v15Z" class="g0_160"/>
<path fill-rule="evenodd" d="M199.5,477.8H438.2v-15H199.5v15Z" class="g0_160"/>
<path fill-rule="evenodd" d="M198.8,492.9H437.9V477.8H198.8v15.1Z" class="g0_160"/>
<path fill-rule="evenodd" d="M198.8,507.9H437.9v-15H198.8v15Z" class="g0_160"/>
<path fill-rule="evenodd" d="M198.8,523.1H437.9V507.9H198.8v15.2Z" class="g0_160"/>
<path fill-rule="evenodd" d="M198.4,538.2H438.2V523.1H198.4v15.1Z" class="g0_160"/>
<path fill-rule="evenodd" d="M198.4,553.2H438.2v-15H198.4v15Z" class="g0_160"/>
<path fill-rule="evenodd" d="M198.4,568.2H438.2v-15H198.4v15Z" class="g0_160"/>
<path fill-rule="evenodd" d="M198.4,583.3H437.9V568.2H198.4v15.1Z" class="g0_160"/>
<path fill-rule="evenodd" d="M198.4,598.3H437.9v-15H198.4v15Z" class="g0_160"/>
<path fill-rule="evenodd" d="M198.4,613.4H437.9V598.3H198.4v15.1Z" class="g0_160"/>
<path fill-rule="evenodd" d="M198.4,628.4H437.9v-15H198.4v15Z" class="g0_160"/>
<path fill-rule="evenodd" d="M198.4,643.4H437.5v-15H198.4v15Z" class="g0_160"/>
<path fill-rule="evenodd" d="M198.4,658.5H437.5V643.4H198.4v15.1Z" class="g0_160"/>
<path fill-rule="evenodd" d="M198.8,673.5H437.5v-15H198.8v15Z" class="g0_160"/>
<path fill-rule="evenodd" d="M198.8,688.5H437.5v-15H198.8v15Z" class="g0_160"/>
<path fill-rule="evenodd" d="M198.4,703.7H437.5V688.5H198.4v15.2Z" class="g0_160"/>
<path fill-rule="evenodd" d="M198.4,718.8H437.5V703.7H198.4v15.1Z" class="g0_160"/>
<path fill-rule="evenodd" d="M198.4,733.8H437.5v-15H198.4v15Z" class="g0_160"/>
<path fill-rule="evenodd" d="M198.4,748.8H437.5v-15H198.4v15Z" class="g0_160"/>
<path fill-rule="evenodd" d="M198.4,763.9H437.5V748.8H198.4v15.1Z" class="g0_160"/>
<path fill-rule="evenodd" d="M198.4,778.9H437.5v-15H198.4v15Z" class="g0_160"/>
<path fill-rule="evenodd" d="M198.8,793.9H437.1v-15H198.8v15Z" class="g0_160"/>
<path fill-rule="evenodd" d="M198.8,809H437.1V793.9H198.8V809Z" class="g0_160"/>
<path fill-rule="evenodd" d="M198,824H436.8V809H198v15Z" class="g0_160"/>
<path fill-rule="evenodd" d="M198,839.1H436.8V824H198v15.1Z" class="g0_160"/>
<path fill-rule="evenodd" d="M198,854.1H436.8v-15H198v15Z" class="g0_160"/>
<path fill-rule="evenodd" d="M198,869.2H436.8V854.1H198v15.1Z" class="g0_160"/>
<path fill-rule="evenodd" d="M198,884.4H436.8V869.2H198v15.2Z" class="g0_160"/>
<path fill-rule="evenodd" d="M200.6,899.4H439v-15H200.6v15Z" class="g0_160"/>
<path fill-rule="evenodd" d="M459.9,161.7H700.1v-15H459.9v15Z" class="g0_160"/>
<path fill-rule="evenodd" d="M459.9,176.9H700.1V161.7H459.9v15.2Z" class="g0_160"/>
<path fill-rule="evenodd" d="M459.5,192H699.4V176.9H459.5V192Z" class="g0_160"/>
<path fill-rule="evenodd" d="M459.5,207H699.4V192H459.5v15Z" class="g0_160"/>
<path fill-rule="evenodd" d="M459.9,222H699.7V207H459.9v15Z" class="g0_160"/>
<path fill-rule="evenodd" d="M459.9,237.1H699.7V222H459.9v15.1Z" class="g0_160"/>
<path fill-rule="evenodd" d="M459.9,252.1H699.4v-15H459.9v15Z" class="g0_160"/>
<path fill-rule="evenodd" d="M459.9,267.1H699.4v-15H459.9v15Z" class="g0_160"/>
<path fill-rule="evenodd" d="M457.3,282.5H700.1v-15H457.3v15Z" class="g0_160"/>
<path fill-rule="evenodd" d="M457.3,297.6H699.7V282.5H457.3v15.1Z" class="g0_160"/>
<path fill-rule="evenodd" d="M457.3,312.6H699.4v-15H457.3v15Z" class="g0_160"/>
<path fill-rule="evenodd" d="M457.3,327.8H699.7V312.6H457.3v15.2Z" class="g0_160"/>
<path fill-rule="evenodd" d="M457.3,342.9h37.1V327.8H457.3v15.1Z" class="g0_160"/>
<path fill-rule="evenodd" d="M459.2,357.9H699.4v-15H459.2v15Z" class="g0_160"/>
<path fill-rule="evenodd" d="M459.2,373H699.4V357.9H459.2V373Z" class="g0_160"/>
<path fill-rule="evenodd" d="M459.2,388H699.4V373H459.2v15Z" class="g0_160"/>
<path fill-rule="evenodd" d="M459.2,403H699.4V388H459.2v15Z" class="g0_160"/>
<path fill-rule="evenodd" d="M459.2,418.1H699V403H459.2v15.1Z" class="g0_160"/>
<path fill-rule="evenodd" d="M459.2,433.1H699v-15H459.2v15Z" class="g0_160"/>
<path fill-rule="evenodd" d="M458.8,448.1H699.4v-15H458.8v15Z" class="g0_160"/>
<path fill-rule="evenodd" d="M458.8,463.2H699.4V448.1H458.8v15.1Z" class="g0_160"/>
<path fill-rule="evenodd" d="M458.8,478.2H699.4v-15H458.8v15Z" class="g0_160"/>
<path fill-rule="evenodd" d="M458.8,493.2H699v-15H458.8v15Z" class="g0_160"/>
<path fill-rule="evenodd" d="M458.8,508.5H699V493.2H458.8v15.3Z" class="g0_160"/>
<path fill-rule="evenodd" d="M458.8,523.5H698.6v-15H458.8v15Z" class="g0_160"/>
<path fill-rule="evenodd" d="M458.8,538.5H698.6v-15H458.8v15Z" class="g0_160"/>
<path fill-rule="evenodd" d="M458.1,553.6H698.6V538.5H458.1v15.1Z" class="g0_160"/>
<path fill-rule="evenodd" d="M458.1,568.6H698.6v-15H458.1v15Z" class="g0_160"/>
<path fill-rule="evenodd" d="M458.1,583.6H698.6v-15H458.1v15Z" class="g0_160"/>
<path fill-rule="evenodd" d="M458.4,599.1H698.6V584H458.4v15.1Z" class="g0_160"/>
<path fill-rule="evenodd" d="M458.4,614.1H698.6v-15H458.4v15Z" class="g0_160"/>
<path fill-rule="evenodd" d="M458.4,629.1H698.6v-15H458.4v15Z" class="g0_160"/>
<path fill-rule="evenodd" d="M458.4,644.2H697.9V629.1H458.4v15.1Z" class="g0_160"/>
<path fill-rule="evenodd" d="M458.4,659.2H697.9v-15H458.4v15Z" class="g0_160"/>
<path fill-rule="evenodd" d="M458.4,674.4H697.9V659.2H458.4v15.2Z" class="g0_160"/>
<path fill-rule="evenodd" d="M458.4,689.4H698.3v-15H458.4v15Z" class="g0_160"/>
<path fill-rule="evenodd" d="M458.4,704.5H698.3V689.4H458.4v15.1Z" class="g0_160"/>
<path fill-rule="evenodd" d="M458.4,719.5H697.5v-15H458.4v15Z" class="g0_160"/>
<path fill-rule="evenodd" d="M458.4,734.5H697.5v-15H458.4v15Z" class="g0_160"/>
<path fill-rule="evenodd" d="M458.1,749.6H697.5V734.5H458.1v15.1Z" class="g0_160"/>
<path fill-rule="evenodd" d="M458.1,764.6H697.5v-15H458.1v15Z" class="g0_160"/>
<path fill-rule="evenodd" d="M458.1,779.6H697.5v-15H458.1v15Z" class="g0_160"/>
<path fill-rule="evenodd" d="M458.1,794.7H697.5V779.6H458.1v15.1Z" class="g0_160"/>
<path fill-rule="evenodd" d="M458.1,809.7H697.9v-15H458.1v15Z" class="g0_160"/>
<path fill-rule="evenodd" d="M458.1,824.7H697.9v-15H458.1v15Z" class="g0_160"/>
<path fill-rule="evenodd" d="M457.3,839.8H697.9V824.7H457.3v15.1Z" class="g0_160"/>
<path fill-rule="evenodd" d="M457.3,855H697.9V839.8H457.3V855Z" class="g0_160"/>
<path fill-rule="evenodd" d="M457.3,870.1H697.9V855H457.3v15.1Z" class="g0_160"/>
<path fill-rule="evenodd" d="M457.3,885.1H697.9v-15H457.3v15Z" class="g0_160"/>
<path d="M446.9,146.7V914.9" class="g1_160"/>
</svg>