<?xml version="1.0" encoding="UTF-8" standalone="no"?>
<!DOCTYPE svg PUBLIC "-//W3C//DTD SVG 1.1//EN"
"http://www.w3.org/Graphics/SVG/1.1/DTD/svg11.dtd">
<svg viewBox="0 0 909 1285" version="1.1" xmlns="http://www.w3.org/2000/svg" xmlns:xlink="http://www.w3.org/1999/xlink">
<defs>
<style type="text/css"><![CDATA[
.g0_236{
fill: #FFFFFF;
}
.g1_236{
fill: none;
stroke: #000000;
stroke-width: 1.069;
stroke-linecap: butt;
stroke-linejoin: round;
}
.g2_236{
fill: none;
stroke: #000000;
stroke-width: 3.284;
stroke-linecap: butt;
stroke-linejoin: round;
}
.g3_236{
fill: none;
stroke: #000000;
stroke-width: 0.381;
stroke-linecap: butt;
stroke-linejoin: round;
}
]]></style>
</defs>
<path fill-rule="evenodd" d="M554.9,125.8H686.2V110H554.9v15.8Z" class="g0_236"/>
<path fill-rule="evenodd" d="M185.9,160.6h238V146h-238v14.6Z" class="g0_236"/>
<path fill-rule="evenodd" d="M185.9,175.3h238V160.6h-238v14.7Z" class="g0_236"/>
<path fill-rule="evenodd" d="M185.6,190H424.3V175.3H185.6V190Z" class="g0_236"/>
<path fill-rule="evenodd" d="M185.6,204.6H424.3V190H185.6v14.6Z" class="g0_236"/>
<path fill-rule="evenodd" d="M185.6,219.3H424.3V204.6H185.6v14.7Z" class="g0_236"/>
<path fill-rule="evenodd" d="M185.9,234H423.6V219.3H185.9V234Z" class="g0_236"/>
<path fill-rule="evenodd" d="M185.9,248.6H423.6V234H185.9v14.6Z" class="g0_236"/>
<path fill-rule="evenodd" d="M203.5,263.7H424.7V249H203.5v14.7Z" class="g0_236"/>
<path fill-rule="evenodd" d="M185.6,278.7H424.7V264H185.6v14.7Z" class="g0_236"/>
<path fill-rule="evenodd" d="M185.6,293.4H424.7V278.7H185.6v14.7Z" class="g0_236"/>
<path fill-rule="evenodd" d="M185.2,308H424.7V293.4H185.2V308Z" class="g0_236"/>
<path fill-rule="evenodd" d="M185.2,322.7H424.7V308H185.2v14.7Z" class="g0_236"/>
<path fill-rule="evenodd" d="M203.5,337.9H424.7V323.1H203.5v14.8Z" class="g0_236"/>
<path fill-rule="evenodd" d="M185.6,353H424.3V338.3H185.6V353Z" class="g0_236"/>
<path fill-rule="evenodd" d="M185.6,367.7H424.3V353H185.6v14.7Z" class="g0_236"/>
<path fill-rule="evenodd" d="M185.6,382.3H424.3V367.7H185.6v14.6Z" class="g0_236"/>
<path fill-rule="evenodd" d="M184.8,397H423.9V382.3H184.8V397Z" class="g0_236"/>
<path fill-rule="evenodd" d="M184.8,411.7H423.9V397H184.8v14.7Z" class="g0_236"/>
<path fill-rule="evenodd" d="M184.8,426.3H423.9V411.7H184.8v14.6Z" class="g0_236"/>
<path fill-rule="evenodd" d="M203.5,441H424.7V426.3H203.5V441Z" class="g0_236"/>
<path fill-rule="evenodd" d="M203.2,456H424.7V441.4H203.2V456Z" class="g0_236"/>
<path fill-rule="evenodd" d="M184.5,470.7H423.9V456H184.5v14.7Z" class="g0_236"/>
<path fill-rule="evenodd" d="M184.5,485.4H423.9V470.7H184.5v14.7Z" class="g0_236"/>
<path fill-rule="evenodd" d="M184.5,500H423.9V485.4H184.5V500Z" class="g0_236"/>
<path fill-rule="evenodd" d="M184.8,515.1H423.6V500.4H184.8v14.7Z" class="g0_236"/>
<path fill-rule="evenodd" d="M184.8,529.7H423.6V515.1H184.8v14.6Z" class="g0_236"/>
<path fill-rule="evenodd" d="M184.8,544.4H423.6V529.7H184.8v14.7Z" class="g0_236"/>
<path fill-rule="evenodd" d="M184.5,559.1H423.6V544.4H184.5v14.7Z" class="g0_236"/>
<path fill-rule="evenodd" d="M184.5,573.7H423.6V559.1H184.5v14.6Z" class="g0_236"/>
<path fill-rule="evenodd" d="M184.1,588.8H423.9V574.1H184.1v14.7Z" class="g0_236"/>
<path fill-rule="evenodd" d="M184.1,603.5H423.9V588.8H184.1v14.7Z" class="g0_236"/>
<path fill-rule="evenodd" d="M184.1,618.1H423.9V603.5H184.1v14.6Z" class="g0_236"/>
<path fill-rule="evenodd" d="M184.1,632.8H423.9V618.1H184.1v14.7Z" class="g0_236"/>
<path fill-rule="evenodd" d="M202.8,647.8H424.7V633.2H202.8v14.6Z" class="g0_236"/>
<path fill-rule="evenodd" d="M184.5,662.5H423.6V647.8H184.5v14.7Z" class="g0_236"/>
<path fill-rule="evenodd" d="M184.5,677.2H423.6V662.5H184.5v14.7Z" class="g0_236"/>
<path fill-rule="evenodd" d="M184.5,691.8H423.6V677.2H184.5v14.6Z" class="g0_236"/>
<path fill-rule="evenodd" d="M184.5,706.5H423.2V691.8H184.5v14.7Z" class="g0_236"/>
<path fill-rule="evenodd" d="M184.5,721.2H423.2V706.5H184.5v14.7Z" class="g0_236"/>
<path fill-rule="evenodd" d="M183.7,735.8H423.6V721.2H183.7v14.6Z" class="g0_236"/>
<path fill-rule="evenodd" d="M183.7,750.5H423.6V735.8H183.7v14.7Z" class="g0_236"/>
<path fill-rule="evenodd" d="M183.7,765.2H423.6V750.5H183.7v14.7Z" class="g0_236"/>
<path fill-rule="evenodd" d="M184.1,780.2H423.2V765.5H184.1v14.7Z" class="g0_236"/>
<path fill-rule="evenodd" d="M184.1,794.9H423.2V780.2H184.1v14.7Z" class="g0_236"/>
<path fill-rule="evenodd" d="M184.1,809.5H423.2V794.9H184.1v14.6Z" class="g0_236"/>
<path fill-rule="evenodd" d="M184.1,824.2H423.2V809.5H184.1v14.7Z" class="g0_236"/>
<path fill-rule="evenodd" d="M184.1,838.9H423.6V824.2H184.1v14.7Z" class="g0_236"/>
<path fill-rule="evenodd" d="M184.1,853.6H423.6V838.9H184.1v14.7Z" class="g0_236"/>
<path fill-rule="evenodd" d="M184.1,868.2H423.6V853.6H184.1v14.6Z" class="g0_236"/>
<path fill-rule="evenodd" d="M184.8,882.9H424.3V868.2H184.8v14.7Z" class="g0_236"/>
<path fill-rule="evenodd" d="M445.2,160.3H685.1V145.6H445.2v14.7Z" class="g0_236"/>
<path fill-rule="evenodd" d="M445.2,174.9H685.1V160.3H445.2v14.6Z" class="g0_236"/>
<path fill-rule="evenodd" d="M445.2,189.6H684.7V174.9H445.2v14.7Z" class="g0_236"/>
<path fill-rule="evenodd" d="M445.2,204.3H684.7V189.6H445.2v14.7Z" class="g0_236"/>
<path fill-rule="evenodd" d="M445.2,218.9H685.1V204.3H445.2v14.6Z" class="g0_236"/>
<path fill-rule="evenodd" d="M445.2,233.6H685.1V218.9H445.2v14.7Z" class="g0_236"/>
<path fill-rule="evenodd" d="M445.2,248.3H685.1V233.6H445.2v14.7Z" class="g0_236"/>
<path fill-rule="evenodd" d="M444.8,263.3H685.5V248.6H444.8v14.7Z" class="g0_236"/>
<path fill-rule="evenodd" d="M444.8,278H685.5V263.3H444.8V278Z" class="g0_236"/>
<path fill-rule="evenodd" d="M444.8,292.6H685.5V278H444.8v14.6Z" class="g0_236"/>
<path fill-rule="evenodd" d="M444.8,307.3H685.5V292.6H444.8v14.7Z" class="g0_236"/>
<path fill-rule="evenodd" d="M444.8,322H685.5V307.3H444.8V322Z" class="g0_236"/>
<path fill-rule="evenodd" d="M444.8,336.6H685.5V322H444.8v14.6Z" class="g0_236"/>
<path fill-rule="evenodd" d="M444.8,351.3H685.5V336.6H444.8v14.7Z" class="g0_236"/>
<path fill-rule="evenodd" d="M444.8,366H685.5V351.3H444.8V366Z" class="g0_236"/>
<path fill-rule="evenodd" d="M444.8,380.7H685.5V366H444.8v14.7Z" class="g0_236"/>
<path fill-rule="evenodd" d="M444.8,395.3H685.5V380.7H444.8v14.6Z" class="g0_236"/>
<path fill-rule="evenodd" d="M463.2,410H685.4V395.3H463.2V410Z" class="g0_236"/>
<path fill-rule="evenodd" d="M444.8,425H684.7V410.4H444.8V425Z" class="g0_236"/>
<path fill-rule="evenodd" d="M444.8,439.7H684.7V425H444.8v14.7Z" class="g0_236"/>
<path fill-rule="evenodd" d="M444.8,454.7H684.7v-15H444.8v15Z" class="g0_236"/>
<path fill-rule="evenodd" d="M444.8,469.4H684.7V454.7H444.8v14.7Z" class="g0_236"/>
<path fill-rule="evenodd" d="M444.8,484.6H685.1V469.8H444.8v14.8Z" class="g0_236"/>
<path fill-rule="evenodd" d="M444.8,499.3H685.1V484.6H444.8v14.7Z" class="g0_236"/>
<path fill-rule="evenodd" d="M444.8,514H685.1V499.3H444.8V514Z" class="g0_236"/>
<path fill-rule="evenodd" d="M444.8,528.6H685.1V514H444.8v14.6Z" class="g0_236"/>
<path fill-rule="evenodd" d="M444.5,543.3H685.1V528.6H444.5v14.7Z" class="g0_236"/>
<path fill-rule="evenodd" d="M444.5,558H685.1V543.3H444.5V558Z" class="g0_236"/>
<path fill-rule="evenodd" d="M444.5,572.6H685.1V558H444.5v14.6Z" class="g0_236"/>
<path fill-rule="evenodd" d="M444.5,587.3H685.1V572.6H444.5v14.7Z" class="g0_236"/>
<path fill-rule="evenodd" d="M444.5,602H685.1V587.3H444.5V602Z" class="g0_236"/>
<path fill-rule="evenodd" d="M444.8,617H684V602.4H444.8V617Z" class="g0_236"/>
<path fill-rule="evenodd" d="M444.8,631.7H684V617H444.8v14.7Z" class="g0_236"/>
<path fill-rule="evenodd" d="M444.1,646.7H684.4V632.1H444.1v14.6Z" class="g0_236"/>
<path fill-rule="evenodd" d="M444.1,661.4H684.4V646.7H444.1v14.7Z" class="g0_236"/>
<path fill-rule="evenodd" d="M444.5,676.4H684.4V661.8H444.5v14.6Z" class="g0_236"/>
<path fill-rule="evenodd" d="M444.5,691.1H684.4V676.4H444.5v14.7Z" class="g0_236"/>
<path fill-rule="evenodd" d="M444.5,705.8H684.4V691.1H444.5v14.7Z" class="g0_236"/>
<path fill-rule="evenodd" d="M444.5,720.4H684.4V705.8H444.5v14.6Z" class="g0_236"/>
<path fill-rule="evenodd" d="M444.8,735.1H684V720.4H444.8v14.7Z" class="g0_236"/>
<path fill-rule="evenodd" d="M444.8,749.8H684V735.1H444.8v14.7Z" class="g0_236"/>
<path fill-rule="evenodd" d="M444.5,764.4H684.4V749.8H444.5v14.6Z" class="g0_236"/>
<path fill-rule="evenodd" d="M444.5,779.1H684.4V764.4H444.5v14.7Z" class="g0_236"/>
<path fill-rule="evenodd" d="M444.5,794.1H684V779.5H444.5v14.6Z" class="g0_236"/>
<path fill-rule="evenodd" d="M444.5,808.8H684V794.1H444.5v14.7Z" class="g0_236"/>
<path fill-rule="evenodd" d="M444.5,823.5H684V808.8H444.5v14.7Z" class="g0_236"/>
<path fill-rule="evenodd" d="M444.5,838.2H684V823.5H444.5v14.7Z" class="g0_236"/>
<path fill-rule="evenodd" d="M444.5,852.8H684V838.2H444.5v14.6Z" class="g0_236"/>
<path fill-rule="evenodd" d="M444.5,867.5H684.7V852.8H444.5v14.7Z" class="g0_236"/>
<path fill-rule="evenodd" d="M444.5,882.2H684.7V867.5H444.5v14.7Z" class="g0_236"/>
<path fill-rule="evenodd" d="M444.5,896.8H684.7V882.2H444.5v14.6Z" class="g0_236"/>
<path fill-rule="evenodd" d="M419.9,929.5H686.2V911.9H419.9v17.6Z" class="g0_236"/>
<path d="M164.2,99v74.1" class="g1_236"/>
<path d="M159.8,172.7V335.1" class="g2_236"/>
<path d="M433,144.8V914.1" class="g3_236"/>
</svg>