<?xml version="1.0" encoding="UTF-8" standalone="no"?>
<!DOCTYPE svg PUBLIC "-//W3C//DTD SVG 1.1//EN"
"http://www.w3.org/Graphics/SVG/1.1/DTD/svg11.dtd">
<svg viewBox="0 0 909 1285" version="1.1" xmlns="http://www.w3.org/2000/svg" xmlns:xlink="http://www.w3.org/1999/xlink">
<defs>
<style type="text/css"><![CDATA[
.g0_272{
fill: #FFFFFF;
}
.g1_272{
fill: none;
stroke: #000000;
stroke-width: 0.381;
stroke-linecap: butt;
stroke-linejoin: round;
}
]]></style>
</defs>
<path fill-rule="evenodd" d="M648.8,125.8h59.4V110H648.8v15.8Z" class="g0_272"/>
<path fill-rule="evenodd" d="M183.4,161.4H423.2V146.3H183.4v15.1Z" class="g0_272"/>
<path fill-rule="evenodd" d="M183.4,176.4H423.2v-15H183.4v15Z" class="g0_272"/>
<path fill-rule="evenodd" d="M183.4,191.6H423.2V176.4H183.4v15.2Z" class="g0_272"/>
<path fill-rule="evenodd" d="M183.4,206.6H423.2v-15H183.4v15Z" class="g0_272"/>
<path fill-rule="evenodd" d="M183.4,221.7H423.2V206.6H183.4v15.1Z" class="g0_272"/>
<path fill-rule="evenodd" d="M183.4,236.7H423.2v-15H183.4v15Z" class="g0_272"/>
<path fill-rule="evenodd" d="M183.4,251.7H423.2v-15H183.4v15Z" class="g0_272"/>
<path fill-rule="evenodd" d="M202.1,266.8H423.2V251.7H202.1v15.1Z" class="g0_272"/>
<path fill-rule="evenodd" d="M183.4,281.8H423.2v-15H183.4v15Z" class="g0_272"/>
<path fill-rule="evenodd" d="M183.4,296.8H423.2v-15H183.4v15Z" class="g0_272"/>
<path fill-rule="evenodd" d="M183.4,311.9H423.2V296.8H183.4v15.1Z" class="g0_272"/>
<path fill-rule="evenodd" d="M183.4,326.9H423.2v-15H183.4v15Z" class="g0_272"/>
<path fill-rule="evenodd" d="M183.4,341.9H423.2v-15H183.4v15Z" class="g0_272"/>
<path fill-rule="evenodd" d="M183.4,357.2H423.2V342H183.4v15.2Z" class="g0_272"/>
<path fill-rule="evenodd" d="M183.4,372.2H423.2v-15H183.4v15Z" class="g0_272"/>
<path fill-rule="evenodd" d="M183.4,387.3H423.2V372.2H183.4v15.1Z" class="g0_272"/>
<path fill-rule="evenodd" d="M183.4,402.3H423.2v-15H183.4v15Z" class="g0_272"/>
<path fill-rule="evenodd" d="M183,417.3H423.2v-15H183v15Z" class="g0_272"/>
<path fill-rule="evenodd" d="M183,432.4H423.2V417.3H183v15.1Z" class="g0_272"/>
<path fill-rule="evenodd" d="M183,447.4H423.2v-15H183v15Z" class="g0_272"/>
<path fill-rule="evenodd" d="M183,462.4H423.2v-15H183v15Z" class="g0_272"/>
<path fill-rule="evenodd" d="M183,477.5H423.2V462.4H183v15.1Z" class="g0_272"/>
<path fill-rule="evenodd" d="M182.6,492.5H423.2v-15H182.6v15Z" class="g0_272"/>
<path fill-rule="evenodd" d="M182.6,507.5H423.2v-15H182.6v15Z" class="g0_272"/>
<path fill-rule="evenodd" d="M182.6,522.6H423.2V507.5H182.6v15.1Z" class="g0_272"/>
<path fill-rule="evenodd" d="M182.6,537.8H423.2V522.6H182.6v15.2Z" class="g0_272"/>
<path fill-rule="evenodd" d="M182.6,552.8H423.2v-15H182.6v15Z" class="g0_272"/>
<path fill-rule="evenodd" d="M182.6,567.9H423.2V552.8H182.6v15.1Z" class="g0_272"/>
<path fill-rule="evenodd" d="M181.9,582.9H422.1v-15H181.9v15Z" class="g0_272"/>
<path fill-rule="evenodd" d="M181.9,598H422.1V582.9H181.9V598Z" class="g0_272"/>
<path fill-rule="evenodd" d="M181.9,613H422.1V598H181.9v15Z" class="g0_272"/>
<path fill-rule="evenodd" d="M181.9,628H422.1V613H181.9v15Z" class="g0_272"/>
<path fill-rule="evenodd" d="M181.9,643.1H422.1V628H181.9v15.1Z" class="g0_272"/>
<path fill-rule="evenodd" d="M181.9,658.1H422.1v-15H181.9v15Z" class="g0_272"/>
<path fill-rule="evenodd" d="M181.9,673.1H422.1v-15H181.9v15Z" class="g0_272"/>
<path fill-rule="evenodd" d="M181.9,688.2H422.1V673.1H181.9v15.1Z" class="g0_272"/>
<path fill-rule="evenodd" d="M181.9,703.2H422.1v-15H181.9v15Z" class="g0_272"/>
<path fill-rule="evenodd" d="M181.9,718.4H422.1V703.2H181.9v15.2Z" class="g0_272"/>
<path fill-rule="evenodd" d="M181.9,733.4H422.1v-15H181.9v15Z" class="g0_272"/>
<path fill-rule="evenodd" d="M181.9,748.5H422.1V733.4H181.9v15.1Z" class="g0_272"/>
<path fill-rule="evenodd" d="M181.9,763.5H422.1v-15H181.9v15Z" class="g0_272"/>
<path fill-rule="evenodd" d="M181.9,778.5H422.1v-15H181.9v15Z" class="g0_272"/>
<path fill-rule="evenodd" d="M182.3,793.6H370.4V778.5H182.3v15.1Z" class="g0_272"/>
<path fill-rule="evenodd" d="M182.3,808.6H370.4v-15H182.3v15Z" class="g0_272"/>
<path fill-rule="evenodd" d="M181.9,823.6H421v-15H181.9v15Z" class="g0_272"/>
<path fill-rule="evenodd" d="M181.9,838.7H421V823.6H181.9v15.1Z" class="g0_272"/>
<path fill-rule="evenodd" d="M181.9,853.8H421V838.7H181.9v15.1Z" class="g0_272"/>
<path fill-rule="evenodd" d="M181.9,868.8H421v-15H181.9v15Z" class="g0_272"/>
<path fill-rule="evenodd" d="M181.9,883.8H421v-15H181.9v15Z" class="g0_272"/>
<path fill-rule="evenodd" d="M184.1,899H422.8V883.8H184.1V899Z" class="g0_272"/>
<path fill-rule="evenodd" d="M443.2,161.4H683.1V146.3H443.2v15.1Z" class="g0_272"/>
<path fill-rule="evenodd" d="M443.2,176.4H683.1v-15H443.2v15Z" class="g0_272"/>
<path fill-rule="evenodd" d="M443.2,191.6H683.4V176.4H443.2v15.2Z" class="g0_272"/>
<path fill-rule="evenodd" d="M443.2,206.6H683.4v-15H443.2v15Z" class="g0_272"/>
<path fill-rule="evenodd" d="M443.2,221.7H683.4V206.6H443.2v15.1Z" class="g0_272"/>
<path fill-rule="evenodd" d="M443.2,236.7H683.4v-15H443.2v15Z" class="g0_272"/>
<path fill-rule="evenodd" d="M443.2,251.7H683.4v-15H443.2v15Z" class="g0_272"/>
<path fill-rule="evenodd" d="M461.6,266.8H683.4V251.7H461.6v15.1Z" class="g0_272"/>
<path fill-rule="evenodd" d="M443.2,281.8H683.1v-15H443.2v15Z" class="g0_272"/>
<path fill-rule="evenodd" d="M443.2,296.8H683.1v-15H443.2v15Z" class="g0_272"/>
<path fill-rule="evenodd" d="M443.2,311.9H683.1V296.8H443.2v15.1Z" class="g0_272"/>
<path fill-rule="evenodd" d="M443.2,326.9H683.1v-15H443.2v15Z" class="g0_272"/>
<path fill-rule="evenodd" d="M443.2,341.9H683.1v-15H443.2v15Z" class="g0_272"/>
<path fill-rule="evenodd" d="M442.5,357.2H683.1V342H442.5v15.2Z" class="g0_272"/>
<path fill-rule="evenodd" d="M442.5,372.2H683.1v-15H442.5v15Z" class="g0_272"/>
<path fill-rule="evenodd" d="M442.5,387.3H683.1V372.2H442.5v15.1Z" class="g0_272"/>
<path fill-rule="evenodd" d="M442.5,402.3H683.1v-15H442.5v15Z" class="g0_272"/>
<path fill-rule="evenodd" d="M460.8,417.3H683.4v-15H460.8v15Z" class="g0_272"/>
<path fill-rule="evenodd" d="M442.5,432.4H682V417.3H442.5v15.1Z" class="g0_272"/>
<path fill-rule="evenodd" d="M442.5,447.4H682v-15H442.5v15Z" class="g0_272"/>
<path fill-rule="evenodd" d="M441,462.4H682.3v-15H441v15Z" class="g0_272"/>
<path fill-rule="evenodd" d="M441,477.5H682.3V462.4H441v15.1Z" class="g0_272"/>
<path fill-rule="evenodd" d="M441,492.5H682.3v-15H441v15Z" class="g0_272"/>
<path fill-rule="evenodd" d="M441,507.5H682.3v-15H441v15Z" class="g0_272"/>
<path fill-rule="evenodd" d="M441,522.6H682.3V507.5H441v15.1Z" class="g0_272"/>
<path fill-rule="evenodd" d="M441,537.8H682.3V522.6H441v15.2Z" class="g0_272"/>
<path fill-rule="evenodd" d="M441,552.8H682.3v-15H441v15Z" class="g0_272"/>
<path fill-rule="evenodd" d="M441,567.9H682.3V552.8H441v15.1Z" class="g0_272"/>
<path fill-rule="evenodd" d="M441,582.9H682.3v-15H441v15Z" class="g0_272"/>
<path fill-rule="evenodd" d="M460.5,598H683.4V582.9H460.5V598Z" class="g0_272"/>
<path fill-rule="evenodd" d="M460.5,613H683.4V598H460.5v15Z" class="g0_272"/>
<path fill-rule="evenodd" d="M460.1,628H683.4V613H460.1v15Z" class="g0_272"/>
<path fill-rule="evenodd" d="M441.7,643.1H682.3V628H441.7v15.1Z" class="g0_272"/>
<path fill-rule="evenodd" d="M441.7,658.1H682.3v-15H441.7v15Z" class="g0_272"/>
<path fill-rule="evenodd" d="M441.7,673.1H682.3v-15H441.7v15Z" class="g0_272"/>
<path fill-rule="evenodd" d="M441.7,688.2H682.3V673.1H441.7v15.1Z" class="g0_272"/>
<path fill-rule="evenodd" d="M441.7,703.2H681.6v-15H441.7v15Z" class="g0_272"/>
<path fill-rule="evenodd" d="M441.7,718.4H681.6V703.2H441.7v15.2Z" class="g0_272"/>
<path fill-rule="evenodd" d="M441.7,733.4H681.6v-15H441.7v15Z" class="g0_272"/>
<path fill-rule="evenodd" d="M460.1,748.5H683.4V733.4H460.1v15.1Z" class="g0_272"/>
<path fill-rule="evenodd" d="M460.5,763.5H683.4v-15H460.5v15Z" class="g0_272"/>
<path fill-rule="evenodd" d="M459.7,778.5H683.4v-15H459.7v15Z" class="g0_272"/>
<path fill-rule="evenodd" d="M441.7,793.6H680.9V778.5H441.7v15.1Z" class="g0_272"/>
<path fill-rule="evenodd" d="M441.7,808.6H680.9v-15H441.7v15Z" class="g0_272"/>
<path fill-rule="evenodd" d="M441.7,823.6H681.2v-15H441.7v15Z" class="g0_272"/>
<path fill-rule="evenodd" d="M441.7,838.7H681.2V823.6H441.7v15.1Z" class="g0_272"/>
<path fill-rule="evenodd" d="M441.7,853.8H681.2V838.7H441.7v15.1Z" class="g0_272"/>
<path fill-rule="evenodd" d="M441.7,868.8H682v-15H441.7v15Z" class="g0_272"/>
<path fill-rule="evenodd" d="M441.7,883.8H682v-15H441.7v15Z" class="g0_272"/>
<path fill-rule="evenodd" d="M418.1,916.5H708.2V898.9H418.1v17.6Z" class="g0_272"/>
<path d="M430.8,146V914.9" class="g1_272"/>
</svg>