<?xml version="1.0" encoding="UTF-8" standalone="no"?>
<!DOCTYPE svg PUBLIC "-//W3C//DTD SVG 1.1//EN"
"http://www.w3.org/Graphics/SVG/1.1/DTD/svg11.dtd">
<svg viewBox="0 0 909 1285" version="1.1" xmlns="http://www.w3.org/2000/svg" xmlns:xlink="http://www.w3.org/1999/xlink">
<defs>
<style type="text/css"><![CDATA[
.g0_277{
fill: #FFFFFF;
}
.g1_277{
fill: none;
stroke: #000000;
stroke-width: 0.381;
stroke-linecap: butt;
stroke-linejoin: round;
}
]]></style>
</defs>
<path fill-rule="evenodd" d="M602,125.8h96.1V110H602v15.8Z" class="g0_277"/>
<path fill-rule="evenodd" d="M200.4,162.3h238V147.1h-238v15.2Z" class="g0_277"/>
<path fill-rule="evenodd" d="M200.4,177.3h238v-15h-238v15Z" class="g0_277"/>
<path fill-rule="evenodd" d="M200.8,192.3H438v-15H200.8v15Z" class="g0_277"/>
<path fill-rule="evenodd" d="M218,207.4H438.4V192.3H218v15.1Z" class="g0_277"/>
<path fill-rule="evenodd" d="M200,222.4H438v-15H200v15Z" class="g0_277"/>
<path fill-rule="evenodd" d="M200,237.4H438v-15H200v15Z" class="g0_277"/>
<path fill-rule="evenodd" d="M200,252.5H438V237.4H200v15.1Z" class="g0_277"/>
<path fill-rule="evenodd" d="M200,267.5H438v-15H200v15Z" class="g0_277"/>
<path fill-rule="evenodd" d="M199.7,282.5H438.4v-15H199.7v15Z" class="g0_277"/>
<path fill-rule="evenodd" d="M199.7,297.6H438.4V282.5H199.7v15.1Z" class="g0_277"/>
<path fill-rule="evenodd" d="M199.7,312.6H438.4v-15H199.7v15Z" class="g0_277"/>
<path fill-rule="evenodd" d="M199.7,327.8H438.4V312.6H199.7v15.2Z" class="g0_277"/>
<path fill-rule="evenodd" d="M199.7,342.9H438.4V327.8H199.7v15.1Z" class="g0_277"/>
<path fill-rule="evenodd" d="M200,357.9H438v-15H200v15Z" class="g0_277"/>
<path fill-rule="evenodd" d="M200,373H438V357.9H200V373Z" class="g0_277"/>
<path fill-rule="evenodd" d="M200,388H438V373H200v15Z" class="g0_277"/>
<path fill-rule="evenodd" d="M199.7,403H438.4V388H199.7v15Z" class="g0_277"/>
<path fill-rule="evenodd" d="M199.7,418.1H438.4V403H199.7v15.1Z" class="g0_277"/>
<path fill-rule="evenodd" d="M199.7,433.1H438.4v-15H199.7v15Z" class="g0_277"/>
<path fill-rule="evenodd" d="M199.7,448.1H438.4v-15H199.7v15Z" class="g0_277"/>
<path fill-rule="evenodd" d="M199.3,463.2h238V448.1h-238v15.1Z" class="g0_277"/>
<path fill-rule="evenodd" d="M199.3,478.2h238v-15h-238v15Z" class="g0_277"/>
<path fill-rule="evenodd" d="M199.3,493.2H438v-15H199.3v15Z" class="g0_277"/>
<path fill-rule="evenodd" d="M199.3,508.5H438V493.2H199.3v15.3Z" class="g0_277"/>
<path fill-rule="evenodd" d="M199.3,523.5H438v-15H199.3v15Z" class="g0_277"/>
<path fill-rule="evenodd" d="M199.3,538.5H438v-15H199.3v15Z" class="g0_277"/>
<path fill-rule="evenodd" d="M217.3,553.6H438.4V538.5H217.3v15.1Z" class="g0_277"/>
<path fill-rule="evenodd" d="M198.9,568.6H438.4v-15H198.9v15Z" class="g0_277"/>
<path fill-rule="evenodd" d="M198.9,583.6H438.4v-15H198.9v15Z" class="g0_277"/>
<path fill-rule="evenodd" d="M198.9,598.7H438.4V583.6H198.9v15.1Z" class="g0_277"/>
<path fill-rule="evenodd" d="M198.9,613.7H438.4v-15H198.9v15Z" class="g0_277"/>
<path fill-rule="evenodd" d="M198.9,628.8H438.4V613.7H198.9v15.1Z" class="g0_277"/>
<path fill-rule="evenodd" d="M198.9,643.8H438.4v-15H198.9v15Z" class="g0_277"/>
<path fill-rule="evenodd" d="M198.9,658.8H438.4v-15H198.9v15Z" class="g0_277"/>
<path fill-rule="evenodd" d="M198.6,673.9H437.7V658.8H198.6v15.1Z" class="g0_277"/>
<path fill-rule="evenodd" d="M198.6,689.1H437.7V673.9H198.6v15.2Z" class="g0_277"/>
<path fill-rule="evenodd" d="M198.6,704.1H437.7v-15H198.6v15Z" class="g0_277"/>
<path fill-rule="evenodd" d="M198.6,719.1H437.7v-15H198.6v15Z" class="g0_277"/>
<path fill-rule="evenodd" d="M198.6,734.2H437.7V719.1H198.6v15.1Z" class="g0_277"/>
<path fill-rule="evenodd" d="M198.6,749.2H437.7v-15H198.6v15Z" class="g0_277"/>
<path fill-rule="evenodd" d="M198.6,764.2H437.7v-15H198.6v15Z" class="g0_277"/>
<path fill-rule="evenodd" d="M198.9,779.3H437.3V764.2H198.9v15.1Z" class="g0_277"/>
<path fill-rule="evenodd" d="M198.9,794.3H437.3v-15H198.9v15Z" class="g0_277"/>
<path fill-rule="evenodd" d="M216.9,809.3H438.4v-15H216.9v15Z" class="g0_277"/>
<path fill-rule="evenodd" d="M198.2,824.4H437.3V809.3H198.2v15.1Z" class="g0_277"/>
<path fill-rule="evenodd" d="M198.2,839.5H437.3V824.4H198.2v15.1Z" class="g0_277"/>
<path fill-rule="evenodd" d="M198.2,854.5H437.3v-15H198.2v15Z" class="g0_277"/>
<path fill-rule="evenodd" d="M199.7,869.7H438.4V854.5H199.7v15.2Z" class="g0_277"/>
<path fill-rule="evenodd" d="M458.6,161.7H698.1v-15H458.6v15Z" class="g0_277"/>
<path fill-rule="evenodd" d="M458.6,176.9H698.1V161.7H458.6v15.2Z" class="g0_277"/>
<path fill-rule="evenodd" d="M458.6,192H698.1V176.9H458.6V192Z" class="g0_277"/>
<path fill-rule="evenodd" d="M458.3,207.4H697.7V192.3H458.3v15.1Z" class="g0_277"/>
<path fill-rule="evenodd" d="M458.3,222.4H697.7v-15H458.3v15Z" class="g0_277"/>
<path fill-rule="evenodd" d="M458.3,237.4H697.7v-15H458.3v15Z" class="g0_277"/>
<path fill-rule="evenodd" d="M458.3,252.5H697.7V237.4H458.3v15.1Z" class="g0_277"/>
<path fill-rule="evenodd" d="M477,267.5H698.1v-15H477v15Z" class="g0_277"/>
<path fill-rule="evenodd" d="M459,282.5H697.7v-15H459v15Z" class="g0_277"/>
<path fill-rule="evenodd" d="M459,297.6H697.7V282.5H459v15.1Z" class="g0_277"/>
<path fill-rule="evenodd" d="M458.6,312.6H698.1v-15H458.6v15Z" class="g0_277"/>
<path fill-rule="evenodd" d="M458.6,327.8H698.1V312.6H458.6v15.2Z" class="g0_277"/>
<path fill-rule="evenodd" d="M458.6,342.9H697.4V327.8H458.6v15.1Z" class="g0_277"/>
<path fill-rule="evenodd" d="M458.6,357.9H697.4v-15H458.6v15Z" class="g0_277"/>
<path fill-rule="evenodd" d="M458.6,373H697.7V357.9H458.6V373Z" class="g0_277"/>
<path fill-rule="evenodd" d="M458.6,388H697.7V373H458.6v15Z" class="g0_277"/>
<path fill-rule="evenodd" d="M477,403H698.1V388H477v15Z" class="g0_277"/>
<path fill-rule="evenodd" d="M459,418.1H697V403H459v15.1Z" class="g0_277"/>
<path fill-rule="evenodd" d="M459,433.1H697v-15H459v15Z" class="g0_277"/>
<path fill-rule="evenodd" d="M477,448.5H698.1v-15H477v15Z" class="g0_277"/>
<path fill-rule="evenodd" d="M477,463.5H698.1v-15H477v15Z" class="g0_277"/>
<path fill-rule="evenodd" d="M457.9,478.6H697.4V463.5H457.9v15.1Z" class="g0_277"/>
<path fill-rule="evenodd" d="M457.9,493.8H697.4V478.6H457.9v15.2Z" class="g0_277"/>
<path fill-rule="evenodd" d="M457.9,508.8H697.4v-15H457.9v15Z" class="g0_277"/>
<path fill-rule="evenodd" d="M457.9,523.9H697.4V508.8H457.9v15.1Z" class="g0_277"/>
<path fill-rule="evenodd" d="M457.9,538.9H697.4v-15H457.9v15Z" class="g0_277"/>
<path fill-rule="evenodd" d="M457.9,553.9H697.4v-15H457.9v15Z" class="g0_277"/>
<path fill-rule="evenodd" d="M457.9,569H697.4V553.9H457.9V569Z" class="g0_277"/>
<path fill-rule="evenodd" d="M457.9,584H697.4V569H457.9v15Z" class="g0_277"/>
<path fill-rule="evenodd" d="M458.3,599.1H697V584H458.3v15.1Z" class="g0_277"/>
<path fill-rule="evenodd" d="M458.3,614.1H697v-15H458.3v15Z" class="g0_277"/>
<path fill-rule="evenodd" d="M458.3,629.1H697v-15H458.3v15Z" class="g0_277"/>
<path fill-rule="evenodd" d="M458.3,644.2H697V629.1H458.3v15.1Z" class="g0_277"/>
<path fill-rule="evenodd" d="M458.3,659.2H697v-15H458.3v15Z" class="g0_277"/>
<path fill-rule="evenodd" d="M458.3,674.4H697V659.2H458.3v15.2Z" class="g0_277"/>
<path fill-rule="evenodd" d="M457.5,689.4H696.6v-15H457.5v15Z" class="g0_277"/>
<path fill-rule="evenodd" d="M457.5,704.5H696.6V689.4H457.5v15.1Z" class="g0_277"/>
<path fill-rule="evenodd" d="M457.5,719.5H696.6v-15H457.5v15Z" class="g0_277"/>
<path fill-rule="evenodd" d="M457.5,734.5H696.6v-15H457.5v15Z" class="g0_277"/>
<path fill-rule="evenodd" d="M457.5,749.6H696.6V734.5H457.5v15.1Z" class="g0_277"/>
<path fill-rule="evenodd" d="M457.5,764.6H696.6v-15H457.5v15Z" class="g0_277"/>
<path fill-rule="evenodd" d="M457.5,779.6H696.6v-15H457.5v15Z" class="g0_277"/>
<path fill-rule="evenodd" d="M457.5,794.7H697V779.6H457.5v15.1Z" class="g0_277"/>
<path fill-rule="evenodd" d="M457.5,809.7H697v-15H457.5v15Z" class="g0_277"/>
<path fill-rule="evenodd" d="M457.5,824.7H697v-15H457.5v15Z" class="g0_277"/>
<path fill-rule="evenodd" d="M457.2,839.8H696.3V824.7H457.2v15.1Z" class="g0_277"/>
<path fill-rule="evenodd" d="M457.2,855H696.3V839.8H457.2V855Z" class="g0_277"/>
<path fill-rule="evenodd" d="M457.2,870.1H696.3V855H457.2v15.1Z" class="g0_277"/>
<path fill-rule="evenodd" d="M457.5,885.1H696.6v-15H457.5v15Z" class="g0_277"/>
<path fill-rule="evenodd" d="M457.5,900.1H696.6v-15H457.5v15Z" class="g0_277"/>
<path d="M446.8,146.4V915.3" class="g1_277"/>
</svg>