<?xml version="1.0" encoding="UTF-8" standalone="no"?>
<!DOCTYPE svg PUBLIC "-//W3C//DTD SVG 1.1//EN"
"http://www.w3.org/Graphics/SVG/1.1/DTD/svg11.dtd">
<svg viewBox="0 0 909 1285" version="1.1" xmlns="http://www.w3.org/2000/svg" xmlns:xlink="http://www.w3.org/1999/xlink">
<defs>
<style type="text/css"><![CDATA[
.g0_235{
fill: #FFFFFF;
}
.g1_235{
fill: none;
stroke: #000000;
stroke-width: 1.069;
stroke-linecap: butt;
stroke-linejoin: round;
}
.g2_235{
fill: none;
stroke: #000000;
stroke-width: 4.048;
stroke-linecap: butt;
stroke-linejoin: round;
}
.g3_235{
fill: none;
stroke: #000000;
stroke-width: 5.118;
stroke-linecap: butt;
stroke-linejoin: round;
}
.g4_235{
fill: none;
stroke: #000000;
stroke-width: 1.451;
stroke-linecap: butt;
stroke-linejoin: round;
}
.g5_235{
fill: none;
stroke: #000000;
stroke-width: 0.381;
stroke-linecap: butt;
stroke-linejoin: round;
}
.g6_235{
fill: none;
stroke: #000000;
stroke-width: 0.763;
stroke-linecap: butt;
stroke-linejoin: round;
}
]]></style>
</defs>
<path fill-rule="evenodd" d="M262.7,127.6H763V110H262.7v17.6Z" class="g0_235"/>
<path fill-rule="evenodd" d="M262.4,163.2H502.6v-15H262.4v15Z" class="g0_235"/>
<path fill-rule="evenodd" d="M262.4,178.2H502.6v-15H262.4v15Z" class="g0_235"/>
<path fill-rule="evenodd" d="M262,193.3H503.7V178.2H262v15.1Z" class="g0_235"/>
<path fill-rule="evenodd" d="M262,208.3H503.7v-15H262v15Z" class="g0_235"/>
<path fill-rule="evenodd" d="M262,223.3H503.7v-15H262v15Z" class="g0_235"/>
<path fill-rule="evenodd" d="M281.1,238.4H503.7V223.3H281.1v15.1Z" class="g0_235"/>
<path fill-rule="evenodd" d="M262.4,253.4H502.6v-15H262.4v15Z" class="g0_235"/>
<path fill-rule="evenodd" d="M262.4,268.6H502.6V253.4H262.4v15.2Z" class="g0_235"/>
<path fill-rule="evenodd" d="M262,283.6H502.6v-15H262v15Z" class="g0_235"/>
<path fill-rule="evenodd" d="M262,298.7H502.6V283.6H262v15.1Z" class="g0_235"/>
<path fill-rule="evenodd" d="M262,313.7H502.3v-15H262v15Z" class="g0_235"/>
<path fill-rule="evenodd" d="M262,328.7H502.3v-15H262v15Z" class="g0_235"/>
<path fill-rule="evenodd" d="M262,343.8H502.3V328.7H262v15.1Z" class="g0_235"/>
<path fill-rule="evenodd" d="M262,358.9H502.3V343.8H262v15.1Z" class="g0_235"/>
<path fill-rule="evenodd" d="M262,373.9H502.3v-15H262v15Z" class="g0_235"/>
<path fill-rule="evenodd" d="M262,388.9H502.3v-15H262v15Z" class="g0_235"/>
<path fill-rule="evenodd" d="M280.8,404H503.7V388.9H280.8V404Z" class="g0_235"/>
<path fill-rule="evenodd" d="M280.4,419H503.7V404H280.4v15Z" class="g0_235"/>
<path fill-rule="evenodd" d="M262,434.2H502.3V419H262v15.2Z" class="g0_235"/>
<path fill-rule="evenodd" d="M262,449.2H502.3v-15H262v15Z" class="g0_235"/>
<path fill-rule="evenodd" d="M280.4,464.3H503.7V449.2H280.4v15.1Z" class="g0_235"/>
<path fill-rule="evenodd" d="M261.6,479.3h241v-15h-241v15Z" class="g0_235"/>
<path fill-rule="evenodd" d="M261.6,494.3h241v-15h-241v15Z" class="g0_235"/>
<path fill-rule="evenodd" d="M261.6,509.4H502.3V494.3H261.6v15.1Z" class="g0_235"/>
<path fill-rule="evenodd" d="M261.6,524.4H502.3v-15H261.6v15Z" class="g0_235"/>
<path fill-rule="evenodd" d="M261.6,539.4H502.3v-15H261.6v15Z" class="g0_235"/>
<path fill-rule="evenodd" d="M262,554.5H501.9V539.4H262v15.1Z" class="g0_235"/>
<path fill-rule="evenodd" d="M262,569.5H501.9v-15H262v15Z" class="g0_235"/>
<path fill-rule="evenodd" d="M261.6,584.5H502.3v-15H261.6v15Z" class="g0_235"/>
<path fill-rule="evenodd" d="M261.6,599.6H502.3V584.5H261.6v15.1Z" class="g0_235"/>
<path fill-rule="evenodd" d="M261.6,614.8H501.9V599.6H261.6v15.2Z" class="g0_235"/>
<path fill-rule="evenodd" d="M261.6,629.9H501.9V614.8H261.6v15.1Z" class="g0_235"/>
<path fill-rule="evenodd" d="M261.6,644.9H501.9v-15H261.6v15Z" class="g0_235"/>
<path fill-rule="evenodd" d="M261.6,659.9H501.9v-15H261.6v15Z" class="g0_235"/>
<path fill-rule="evenodd" d="M260.9,675h241V659.9h-241V675Z" class="g0_235"/>
<path fill-rule="evenodd" d="M260.9,690h241V675h-241v15Z" class="g0_235"/>
<path fill-rule="evenodd" d="M260.9,705h241V690h-241v15Z" class="g0_235"/>
<path fill-rule="evenodd" d="M260.9,720.1h241V705h-241v15.1Z" class="g0_235"/>
<path fill-rule="evenodd" d="M260.9,735.1h241v-15h-241v15Z" class="g0_235"/>
<path fill-rule="evenodd" d="M260.9,750.1h241v-15h-241v15Z" class="g0_235"/>
<path fill-rule="evenodd" d="M260.9,765.2h241V750.1h-241v15.1Z" class="g0_235"/>
<path fill-rule="evenodd" d="M260.9,780.2h241v-15h-241v15Z" class="g0_235"/>
<path fill-rule="evenodd" d="M261.3,795.4H501.9V780.2H261.3v15.2Z" class="g0_235"/>
<path fill-rule="evenodd" d="M261.3,810.4H501.9v-15H261.3v15Z" class="g0_235"/>
<path fill-rule="evenodd" d="M261.3,825.5H501.9V810.4H261.3v15.1Z" class="g0_235"/>
<path fill-rule="evenodd" d="M261.3,840.6H501.9V825.5H261.3v15.1Z" class="g0_235"/>
<path fill-rule="evenodd" d="M261.3,855.6H501.9v-15H261.3v15Z" class="g0_235"/>
<path fill-rule="evenodd" d="M261.3,870.6H501.9v-15H261.3v15Z" class="g0_235"/>
<path fill-rule="evenodd" d="M260.9,885.7H502.3V870.6H260.9v15.1Z" class="g0_235"/>
<path fill-rule="evenodd" d="M260.9,900.7H502.3v-15H260.9v15Z" class="g0_235"/>
<path fill-rule="evenodd" d="M262.4,915.7H503.7v-15H262.4v15Z" class="g0_235"/>
<path fill-rule="evenodd" d="M523.5,163.2H763v-15H523.5v15Z" class="g0_235"/>
<path fill-rule="evenodd" d="M523.5,178.2H763v-15H523.5v15Z" class="g0_235"/>
<path fill-rule="evenodd" d="M523.5,193.3H763V178.2H523.5v15.1Z" class="g0_235"/>
<path fill-rule="evenodd" d="M523.5,208.3H763v-15H523.5v15Z" class="g0_235"/>
<path fill-rule="evenodd" d="M523.5,223.3H763v-15H523.5v15Z" class="g0_235"/>
<path fill-rule="evenodd" d="M523.5,238.4H763V223.3H523.5v15.1Z" class="g0_235"/>
<path fill-rule="evenodd" d="M523.5,253.4H762.6v-15H523.5v15Z" class="g0_235"/>
<path fill-rule="evenodd" d="M523.5,268.6H762.6V253.4H523.5v15.2Z" class="g0_235"/>
<path fill-rule="evenodd" d="M523.5,283.6H762.6v-15H523.5v15Z" class="g0_235"/>
<path fill-rule="evenodd" d="M522.8,299H763V284H522.8v15Z" class="g0_235"/>
<path fill-rule="evenodd" d="M522.8,314.1H763V299H522.8v15.1Z" class="g0_235"/>
<path fill-rule="evenodd" d="M522.8,329.1H763v-15H522.8v15Z" class="g0_235"/>
<path fill-rule="evenodd" d="M522.8,344.1H763v-15H522.8v15Z" class="g0_235"/>
<path fill-rule="evenodd" d="M522.8,359.2H763v-15H522.8v15Z" class="g0_235"/>
<path fill-rule="evenodd" d="M522.4,374.3H763V359.2H522.4v15.1Z" class="g0_235"/>
<path fill-rule="evenodd" d="M522.4,389.3H763v-15H522.4v15Z" class="g0_235"/>
<path fill-rule="evenodd" d="M522.4,404.3H763v-15H522.4v15Z" class="g0_235"/>
<path fill-rule="evenodd" d="M522.4,419.5H763V404.3H522.4v15.2Z" class="g0_235"/>
<path fill-rule="evenodd" d="M522.4,434.6H763V419.5H522.4v15.1Z" class="g0_235"/>
<path fill-rule="evenodd" d="M522.4,449.6H763v-15H522.4v15Z" class="g0_235"/>
<path fill-rule="evenodd" d="M522.8,464.6H762.3v-15H522.8v15Z" class="g0_235"/>
<path fill-rule="evenodd" d="M522.8,479.7H762.3V464.6H522.8v15.1Z" class="g0_235"/>
<path fill-rule="evenodd" d="M522.1,495.1H763V480H522.1v15.1Z" class="g0_235"/>
<path fill-rule="evenodd" d="M522.1,510.1H763v-15H522.1v15Z" class="g0_235"/>
<path fill-rule="evenodd" d="M522.1,525.1H763v-15H522.1v15Z" class="g0_235"/>
<path fill-rule="evenodd" d="M522.1,540.2H763V525.1H522.1v15.1Z" class="g0_235"/>
<path fill-rule="evenodd" d="M522.1,555.2H763v-15H522.1v15Z" class="g0_235"/>
<path fill-rule="evenodd" d="M522.1,570.2H763v-15H522.1v15Z" class="g0_235"/>
<path fill-rule="evenodd" d="M522.1,585.5H763V570.2H522.1v15.3Z" class="g0_235"/>
<path fill-rule="evenodd" d="M522.1,600.5H763v-15H522.1v15Z" class="g0_235"/>
<path fill-rule="evenodd" d="M522.1,615.6H763V600.5H522.1v15.1Z" class="g0_235"/>
<path fill-rule="evenodd" d="M522.4,630.6H761.9v-15H522.4v15Z" class="g0_235"/>
<path fill-rule="evenodd" d="M522.4,645.6H761.9v-15H522.4v15Z" class="g0_235"/>
<path fill-rule="evenodd" d="M522.1,660.7H762.6V645.6H522.1v15.1Z" class="g0_235"/>
<path fill-rule="evenodd" d="M522.1,675.7H762.6v-15H522.1v15Z" class="g0_235"/>
<path fill-rule="evenodd" d="M522.1,690.7H762.6v-15H522.1v15Z" class="g0_235"/>
<path fill-rule="evenodd" d="M522.1,705.8H762.6V690.7H522.1v15.1Z" class="g0_235"/>
<path fill-rule="evenodd" d="M522.1,720.8H762.6v-15H522.1v15Z" class="g0_235"/>
<path fill-rule="evenodd" d="M522.1,735.8H762.6v-15H522.1v15Z" class="g0_235"/>
<path fill-rule="evenodd" d="M522.1,750.9H762.6V735.8H522.1v15.1Z" class="g0_235"/>
<path fill-rule="evenodd" d="M522.1,766.1H762.6V750.9H522.1v15.2Z" class="g0_235"/>
<path fill-rule="evenodd" d="M522.1,781.1H762.6v-15H522.1v15Z" class="g0_235"/>
<path fill-rule="evenodd" d="M522.1,796.1H762.6v-15H522.1v15Z" class="g0_235"/>
<path fill-rule="evenodd" d="M522.1,811.2H762.6V796.1H522.1v15.1Z" class="g0_235"/>
<path fill-rule="evenodd" d="M522.1,826.2H763v-15H522.1v15Z" class="g0_235"/>
<path fill-rule="evenodd" d="M522.1,841.3H763V826.2H522.1v15.1Z" class="g0_235"/>
<path fill-rule="evenodd" d="M522.1,856.3H763v-15H522.1v15Z" class="g0_235"/>
<path fill-rule="evenodd" d="M498.2,933.3H763V915.7H498.2v17.6Z" class="g0_235"/>
<path d="M195.3,103V359" class="g1_235"/>
<path d="M174.7,602.8V947.1" class="g2_235"/>
<path d="M184.6,602.8v378" class="g3_235"/>
<path d="M196.7,615.2v109" class="g4_235"/>
<path d="M203.3,273.9v28.5" class="g5_235"/>
<path d="M204,716.5V997.7" class="g6_235"/>
<path d="M511.7,149.2V917.7" class="g5_235"/>
</svg>