<?xml version="1.0" encoding="UTF-8" standalone="no"?>
<!DOCTYPE svg PUBLIC "-//W3C//DTD SVG 1.1//EN"
"http://www.w3.org/Graphics/SVG/1.1/DTD/svg11.dtd">
<svg viewBox="0 0 909 1285" version="1.1" xmlns="http://www.w3.org/2000/svg" xmlns:xlink="http://www.w3.org/1999/xlink">
<defs>
<style type="text/css"><![CDATA[
.g0_162{
fill: #FFFFFF;
}
.g1_162{
fill: none;
stroke: #000000;
stroke-width: 0.381;
stroke-linecap: butt;
stroke-linejoin: round;
}
]]></style>
</defs>
<path fill-rule="evenodd" d="M643.5,132.8h59.4V110H643.5v22.8Z" class="g0_162"/>
<path fill-rule="evenodd" d="M203,167.8H441V152.6H203v15.2Z" class="g0_162"/>
<path fill-rule="evenodd" d="M203,182.8H441v-15H203v15Z" class="g0_162"/>
<path fill-rule="evenodd" d="M203,197.8H441v-15H203v15Z" class="g0_162"/>
<path fill-rule="evenodd" d="M203,212.9H441V197.8H203v15.1Z" class="g0_162"/>
<path fill-rule="evenodd" d="M203,227.9H441v-15H203v15Z" class="g0_162"/>
<path fill-rule="evenodd" d="M203.3,242.9H440.2v-15H203.3v15Z" class="g0_162"/>
<path fill-rule="evenodd" d="M203.3,258H440.2V242.9H203.3V258Z" class="g0_162"/>
<path fill-rule="evenodd" d="M202.2,273h238V258h-238v15Z" class="g0_162"/>
<path fill-rule="evenodd" d="M202.2,288h238V273h-238v15Z" class="g0_162"/>
<path fill-rule="evenodd" d="M202.2,303.1h238V288h-238v15.1Z" class="g0_162"/>
<path fill-rule="evenodd" d="M202.2,318.1h238v-15h-238v15Z" class="g0_162"/>
<path fill-rule="evenodd" d="M202.2,333.1h238v-15h-238v15Z" class="g0_162"/>
<path fill-rule="evenodd" d="M202.2,348.4h238V333.1h-238v15.3Z" class="g0_162"/>
<path fill-rule="evenodd" d="M202.2,363.4h238v-15h-238v15Z" class="g0_162"/>
<path fill-rule="evenodd" d="M201.5,378.5H440.6V363.4H201.5v15.1Z" class="g0_162"/>
<path fill-rule="evenodd" d="M201.5,393.5H440.6v-15H201.5v15Z" class="g0_162"/>
<path fill-rule="evenodd" d="M201.5,408.5H440.6v-15H201.5v15Z" class="g0_162"/>
<path fill-rule="evenodd" d="M201.5,423.6H440.6V408.5H201.5v15.1Z" class="g0_162"/>
<path fill-rule="evenodd" d="M201.5,438.6H440.6v-15H201.5v15Z" class="g0_162"/>
<path fill-rule="evenodd" d="M201.5,453.6H440.6v-15H201.5v15Z" class="g0_162"/>
<path fill-rule="evenodd" d="M201.5,468.7H440.6V453.6H201.5v15.1Z" class="g0_162"/>
<path fill-rule="evenodd" d="M201.9,483.7h238v-15h-238v15Z" class="g0_162"/>
<path fill-rule="evenodd" d="M201.9,498.7h238v-15h-238v15Z" class="g0_162"/>
<path fill-rule="evenodd" d="M201.9,514h238V498.7h-238V514Z" class="g0_162"/>
<path fill-rule="evenodd" d="M201.5,529H440.2V514H201.5v15Z" class="g0_162"/>
<path fill-rule="evenodd" d="M201.5,544H440.2V529H201.5v15Z" class="g0_162"/>
<path fill-rule="evenodd" d="M201.5,559.1H440.2V544H201.5v15.1Z" class="g0_162"/>
<path fill-rule="evenodd" d="M201.1,574.1H439.9v-15H201.1v15Z" class="g0_162"/>
<path fill-rule="evenodd" d="M201.1,589.1H439.9v-15H201.1v15Z" class="g0_162"/>
<path fill-rule="evenodd" d="M201.1,604.2H439.9V589.1H201.1v15.1Z" class="g0_162"/>
<path fill-rule="evenodd" d="M201.1,619.2H439.9v-15H201.1v15Z" class="g0_162"/>
<path fill-rule="evenodd" d="M201.1,634.3H439.9V619.2H201.1v15.1Z" class="g0_162"/>
<path fill-rule="evenodd" d="M201.1,649.3H439.5v-15H201.1v15Z" class="g0_162"/>
<path fill-rule="evenodd" d="M201.1,664.3H439.5v-15H201.1v15Z" class="g0_162"/>
<path fill-rule="evenodd" d="M201.1,679.4H439.5V664.3H201.1v15.1Z" class="g0_162"/>
<path fill-rule="evenodd" d="M201.1,694.6H439.5V679.4H201.1v15.2Z" class="g0_162"/>
<path fill-rule="evenodd" d="M201.1,709.6h238v-15h-238v15Z" class="g0_162"/>
<path fill-rule="evenodd" d="M201.1,724.6h238v-15h-238v15Z" class="g0_162"/>
<path fill-rule="evenodd" d="M201.1,739.7h238V724.6h-238v15.1Z" class="g0_162"/>
<path fill-rule="evenodd" d="M202.2,754.7H441v-15H202.2v15Z" class="g0_162"/>
<path fill-rule="evenodd" d="M460.6,167.2H699.4v-15H460.6v15Z" class="g0_162"/>
<path fill-rule="evenodd" d="M461,182.4H699.4V167.2H461v15.2Z" class="g0_162"/>
<path fill-rule="evenodd" d="M461,197.5H699.4V182.4H461v15.1Z" class="g0_162"/>
<path fill-rule="evenodd" d="M461,212.5H699.4v-15H461v15Z" class="g0_162"/>
<path fill-rule="evenodd" d="M460.6,227.5H699.4v-15H460.6v15Z" class="g0_162"/>
<path fill-rule="evenodd" d="M460.6,242.6H699.4V227.5H460.6v15.1Z" class="g0_162"/>
<path fill-rule="evenodd" d="M479,257.6H699.4v-15H479v15Z" class="g0_162"/>
<path fill-rule="evenodd" d="M460.6,272.6H699.4v-15H460.6v15Z" class="g0_162"/>
<path fill-rule="evenodd" d="M460.6,287.7H699.4V272.6H460.6v15.1Z" class="g0_162"/>
<path fill-rule="evenodd" d="M460.3,302.7H699.4v-15H460.3v15Z" class="g0_162"/>
<path fill-rule="evenodd" d="M460.3,317.7H699.4v-15H460.3v15Z" class="g0_162"/>
<path fill-rule="evenodd" d="M460.3,332.8H699.4V317.7H460.3v15.1Z" class="g0_162"/>
<path fill-rule="evenodd" d="M460.3,347.8H699.4v-15H460.3v15Z" class="g0_162"/>
<path fill-rule="evenodd" d="M461,363.1H698.6V347.8H461v15.3Z" class="g0_162"/>
<path fill-rule="evenodd" d="M461,378.1H698.6v-15H461v15Z" class="g0_162"/>
<path fill-rule="evenodd" d="M460.6,393.1H699.4v-15H460.6v15Z" class="g0_162"/>
<path fill-rule="evenodd" d="M460.6,408.2H699.4V393.1H460.6v15.1Z" class="g0_162"/>
<path fill-rule="evenodd" d="M460.3,423.2H699.4v-15H460.3v15Z" class="g0_162"/>
<path fill-rule="evenodd" d="M460.3,438.2H699.4v-15H460.3v15Z" class="g0_162"/>
<path fill-rule="evenodd" d="M460.3,453.3H699.4V438.2H460.3v15.1Z" class="g0_162"/>
<path fill-rule="evenodd" d="M460.3,468.3H699.4v-15H460.3v15Z" class="g0_162"/>
<path fill-rule="evenodd" d="M460.6,483.3H698.3v-15H460.6v15Z" class="g0_162"/>
<path fill-rule="evenodd" d="M460.6,498.4H698.3V483.3H460.6v15.1Z" class="g0_162"/>
<path fill-rule="evenodd" d="M460.3,513.4H698.6v-15H460.3v15Z" class="g0_162"/>
<path fill-rule="evenodd" d="M460.3,528.6H698.6V513.4H460.3v15.2Z" class="g0_162"/>
<path fill-rule="evenodd" d="M460.3,543.7H698.6V528.6H460.3v15.1Z" class="g0_162"/>
<path fill-rule="evenodd" d="M460.3,558.7H699.4v-15H460.3v15Z" class="g0_162"/>
<path fill-rule="evenodd" d="M460.3,573.7H699.4v-15H460.3v15Z" class="g0_162"/>
<path fill-rule="evenodd" d="M460.3,588.8H699.4V573.7H460.3v15.1Z" class="g0_162"/>
<path fill-rule="evenodd" d="M459.5,603.8H699v-15H459.5v15Z" class="g0_162"/>
<path fill-rule="evenodd" d="M459.5,618.9H699V603.8H459.5v15.1Z" class="g0_162"/>
<path fill-rule="evenodd" d="M459.5,633.9H699v-15H459.5v15Z" class="g0_162"/>
<path fill-rule="evenodd" d="M459.5,648.9H699v-15H459.5v15Z" class="g0_162"/>
<path fill-rule="evenodd" d="M459.5,664H699V648.9H459.5V664Z" class="g0_162"/>
<path fill-rule="evenodd" d="M459.5,679H699V664H459.5v15Z" class="g0_162"/>
<path fill-rule="evenodd" d="M459.5,694H699V679H459.5v15Z" class="g0_162"/>
<path fill-rule="evenodd" d="M459.5,709.2H698.3V694H459.5v15.2Z" class="g0_162"/>
<path fill-rule="evenodd" d="M459.5,724.3H698.3V709.2H459.5v15.1Z" class="g0_162"/>
<path fill-rule="evenodd" d="M478.2,739.3H699.4v-15H478.2v15Z" class="g0_162"/>
<path fill-rule="evenodd" d="M437.7,899.2H702.9V881.6H437.7v17.6Z" class="g0_162"/>
<path d="M448.9,150.8V793.9" class="g1_162"/>
</svg>