<?xml version="1.0" encoding="UTF-8" standalone="no"?>
<!DOCTYPE svg PUBLIC "-//W3C//DTD SVG 1.1//EN"
"http://www.w3.org/Graphics/SVG/1.1/DTD/svg11.dtd">
<svg viewBox="0 0 909 1285" version="1.1" xmlns="http://www.w3.org/2000/svg" xmlns:xlink="http://www.w3.org/1999/xlink">
<defs>
<style type="text/css"><![CDATA[
.g0_146{
fill: #FFFFFF;
}
.g1_146{
fill: none;
stroke: #000000;
stroke-width: 0.763;
stroke-linecap: butt;
stroke-linejoin: round;
}
]]></style>
</defs>
<path fill-rule="evenodd" d="M161.4,127.6h59.4V110H161.4v17.6Z" class="g0_146"/>
<path fill-rule="evenodd" d="M161.4,145.2h59.4V127.6H161.4v17.6Z" class="g0_146"/>
<path fill-rule="evenodd" d="M672.3,149.6h59.4V132H672.3v17.6Z" class="g0_146"/>
<path fill-rule="evenodd" d="M201.7,186.7H439V171.6H201.7v15.1Z" class="g0_146"/>
<path fill-rule="evenodd" d="M201.7,201.7H439v-15H201.7v15Z" class="g0_146"/>
<path fill-rule="evenodd" d="M201.3,216.7H381v-15H201.3v15Z" class="g0_146"/>
<path fill-rule="evenodd" d="M201.3,231.9H381V216.7H201.3v15.2Z" class="g0_146"/>
<path fill-rule="evenodd" d="M201,247H439.7V231.9H201V247Z" class="g0_146"/>
<path fill-rule="evenodd" d="M201,262H439.7V247H201v15Z" class="g0_146"/>
<path fill-rule="evenodd" d="M201,277H439.7V262H201v15Z" class="g0_146"/>
<path fill-rule="evenodd" d="M201,292.1H439.7V277H201v15.1Z" class="g0_146"/>
<path fill-rule="evenodd" d="M201,307.1H439.7v-15H201v15Z" class="g0_146"/>
<path fill-rule="evenodd" d="M201,322.1H439.7v-15H201v15Z" class="g0_146"/>
<path fill-rule="evenodd" d="M201,337.2H439.7V322.1H201v15.1Z" class="g0_146"/>
<path fill-rule="evenodd" d="M201,352.2H439.7v-15H201v15Z" class="g0_146"/>
<path fill-rule="evenodd" d="M201,367.3H439.7V352.2H201v15.1Z" class="g0_146"/>
<path fill-rule="evenodd" d="M201,382.3H439.7v-15H201v15Z" class="g0_146"/>
<path fill-rule="evenodd" d="M201,397.5H439.7V382.3H201v15.2Z" class="g0_146"/>
<path fill-rule="evenodd" d="M201,412.6H439.7V397.5H201v15.1Z" class="g0_146"/>
<path fill-rule="evenodd" d="M201,427.6H439.7v-15H201v15Z" class="g0_146"/>
<path fill-rule="evenodd" d="M199.1,442.6H438.6v-15H199.1v15Z" class="g0_146"/>
<path fill-rule="evenodd" d="M199.1,457.7H438.6V442.6H199.1v15.1Z" class="g0_146"/>
<path fill-rule="evenodd" d="M199.1,472.7H438.6v-15H199.1v15Z" class="g0_146"/>
<path fill-rule="evenodd" d="M199.1,487.7H438.6v-15H199.1v15Z" class="g0_146"/>
<path fill-rule="evenodd" d="M199.1,502.8H438.6V487.7H199.1v15.1Z" class="g0_146"/>
<path fill-rule="evenodd" d="M199.1,517.8H438.6v-15H199.1v15Z" class="g0_146"/>
<path fill-rule="evenodd" d="M199.1,532.8H438.6v-15H199.1v15Z" class="g0_146"/>
<path fill-rule="evenodd" d="M199.1,547.9H438.6V532.8H199.1v15.1Z" class="g0_146"/>
<path fill-rule="evenodd" d="M199.1,562.9H438.6v-15H199.1v15Z" class="g0_146"/>
<path fill-rule="evenodd" d="M199.1,578.1H438.6V562.9H199.1v15.2Z" class="g0_146"/>
<path fill-rule="evenodd" d="M199.1,593.2H438.6V578.1H199.1v15.1Z" class="g0_146"/>
<path fill-rule="evenodd" d="M199.1,608.2H438.6v-15H199.1v15Z" class="g0_146"/>
<path fill-rule="evenodd" d="M199.1,623.3H438.6V608.2H199.1v15.1Z" class="g0_146"/>
<path fill-rule="evenodd" d="M199.1,638.3H438.6v-15H199.1v15Z" class="g0_146"/>
<path fill-rule="evenodd" d="M199.1,653.3H438.6v-15H199.1v15Z" class="g0_146"/>
<path fill-rule="evenodd" d="M199.1,668.4H438.6V653.3H199.1v15.1Z" class="g0_146"/>
<path fill-rule="evenodd" d="M199.1,683.4H437.9v-15H199.1v15Z" class="g0_146"/>
<path fill-rule="evenodd" d="M199.1,698.4H437.9v-15H199.1v15Z" class="g0_146"/>
<path fill-rule="evenodd" d="M199.1,713.5H437.9V698.4H199.1v15.1Z" class="g0_146"/>
<path fill-rule="evenodd" d="M199.1,728.5H437.9v-15H199.1v15Z" class="g0_146"/>
<path fill-rule="evenodd" d="M198.8,743.5H437.1v-15H198.8v15Z" class="g0_146"/>
<path fill-rule="evenodd" d="M198.8,758.7H437.1V743.5H198.8v15.2Z" class="g0_146"/>
<path fill-rule="evenodd" d="M198.8,773.8H437.1V758.7H198.8v15.1Z" class="g0_146"/>
<path fill-rule="evenodd" d="M198.8,788.8H437.1v-15H198.8v15Z" class="g0_146"/>
<path fill-rule="evenodd" d="M198.8,803.8H437.1v-15H198.8v15Z" class="g0_146"/>
<path fill-rule="evenodd" d="M198.8,818.9H437.1V803.8H198.8v15.1Z" class="g0_146"/>
<path fill-rule="evenodd" d="M198.8,834H381V818.9H198.8V834Z" class="g0_146"/>
<path fill-rule="evenodd" d="M198.8,849H381V834H198.8v15Z" class="g0_146"/>
<path fill-rule="evenodd" d="M198.4,864H437.5V849H198.4v15Z" class="g0_146"/>
<path fill-rule="evenodd" d="M198.4,879.1H437.5V864H198.4v15.1Z" class="g0_146"/>
<path fill-rule="evenodd" d="M198.4,894.1H437.5v-15H198.4v15Z" class="g0_146"/>
<path fill-rule="evenodd" d="M198.4,909.1H437.5v-15H198.4v15Z" class="g0_146"/>
<path fill-rule="evenodd" d="M198.4,924.2H437.5V909.1H198.4v15.1Z" class="g0_146"/>
<path fill-rule="evenodd" d="M201,939.4H439.7V924.2H201v15.2Z" class="g0_146"/>
<path fill-rule="evenodd" d="M459.9,186.3H699.7v-15H459.9v15Z" class="g0_146"/>
<path fill-rule="evenodd" d="M459.5,201.3H616.1v-15H459.5v15Z" class="g0_146"/>
<path fill-rule="evenodd" d="M459.5,216.4H616.1V201.3H459.5v15.1Z" class="g0_146"/>
<path fill-rule="evenodd" d="M459.5,231.4H616.1v-15H459.5v15Z" class="g0_146"/>
<path fill-rule="evenodd" d="M459.5,246.6H699V231.4H459.5v15.2Z" class="g0_146"/>
<path fill-rule="evenodd" d="M459.5,261.6H699v-15H459.5v15Z" class="g0_146"/>
<path fill-rule="evenodd" d="M459.5,276.7H699V261.6H459.5v15.1Z" class="g0_146"/>
<path fill-rule="evenodd" d="M477.9,291.7H699.7v-15H477.9v15Z" class="g0_146"/>
<path fill-rule="evenodd" d="M459.5,306.7H699.4v-15H459.5v15Z" class="g0_146"/>
<path fill-rule="evenodd" d="M459.5,321.8H699.4V306.7H459.5v15.1Z" class="g0_146"/>
<path fill-rule="evenodd" d="M459.5,336.8H699.4v-15H459.5v15Z" class="g0_146"/>
<path fill-rule="evenodd" d="M459.2,351.8H699v-15H459.2v15Z" class="g0_146"/>
<path fill-rule="evenodd" d="M459.2,366.9H699v-15H459.2v15Z" class="g0_146"/>
<path fill-rule="evenodd" d="M459.2,382H699V366.9H459.2V382Z" class="g0_146"/>
<path fill-rule="evenodd" d="M459.2,397H699V382H459.2v15Z" class="g0_146"/>
<path fill-rule="evenodd" d="M459.2,412.2H699V397H459.2v15.2Z" class="g0_146"/>
<path fill-rule="evenodd" d="M459.2,427.6H698.6v-15H459.2v15Z" class="g0_146"/>
<path fill-rule="evenodd" d="M459.2,442.6H698.6v-15H459.2v15Z" class="g0_146"/>
<path fill-rule="evenodd" d="M459.2,457.7H698.6V442.6H459.2v15.1Z" class="g0_146"/>
<path fill-rule="evenodd" d="M458.4,472.7H698.3v-15H458.4v15Z" class="g0_146"/>
<path fill-rule="evenodd" d="M458.4,487.7H698.3v-15H458.4v15Z" class="g0_146"/>
<path fill-rule="evenodd" d="M458.4,502.8H698.3V487.7H458.4v15.1Z" class="g0_146"/>
<path fill-rule="evenodd" d="M458.4,517.8H698.3v-15H458.4v15Z" class="g0_146"/>
<path fill-rule="evenodd" d="M458.8,532.8H697.9v-15H458.8v15Z" class="g0_146"/>
<path fill-rule="evenodd" d="M458.8,547.9H697.9V532.8H458.8v15.1Z" class="g0_146"/>
<path fill-rule="evenodd" d="M458.4,562.9H698.3v-15H458.4v15Z" class="g0_146"/>
<path fill-rule="evenodd" d="M458.4,578.1H698.3V562.9H458.4v15.2Z" class="g0_146"/>
<path fill-rule="evenodd" d="M458.4,593.2H698.3V578.1H458.4v15.1Z" class="g0_146"/>
<path fill-rule="evenodd" d="M458.4,608.2H698.3v-15H458.4v15Z" class="g0_146"/>
<path fill-rule="evenodd" d="M476.4,623.3H699.7V608.2H476.4v15.1Z" class="g0_146"/>
<path fill-rule="evenodd" d="M457.3,638.3H697.9v-15H457.3v15Z" class="g0_146"/>
<path fill-rule="evenodd" d="M457.3,653.3H697.9v-15H457.3v15Z" class="g0_146"/>
<path fill-rule="evenodd" d="M457.3,668.4H697.9V653.3H457.3v15.1Z" class="g0_146"/>
<path fill-rule="evenodd" d="M457.3,683.4H697.9v-15H457.3v15Z" class="g0_146"/>
<path fill-rule="evenodd" d="M457.3,698.4H697.9v-15H457.3v15Z" class="g0_146"/>
<path fill-rule="evenodd" d="M457.3,713.5H697.2V698.4H457.3v15.1Z" class="g0_146"/>
<path fill-rule="evenodd" d="M457.3,728.5H697.2v-15H457.3v15Z" class="g0_146"/>
<path fill-rule="evenodd" d="M457.3,743.5H697.2v-15H457.3v15Z" class="g0_146"/>
<path fill-rule="evenodd" d="M457.3,758.7H697.2V743.5H457.3v15.2Z" class="g0_146"/>
<path fill-rule="evenodd" d="M457.3,773.8H697.5V758.7H457.3v15.1Z" class="g0_146"/>
<path fill-rule="evenodd" d="M457.3,788.8H697.5v-15H457.3v15Z" class="g0_146"/>
<path fill-rule="evenodd" d="M457.3,803.8H697.5v-15H457.3v15Z" class="g0_146"/>
<path fill-rule="evenodd" d="M457.3,818.9H697.5V803.8H457.3v15.1Z" class="g0_146"/>
<path fill-rule="evenodd" d="M457.3,834H697.5V818.9H457.3V834Z" class="g0_146"/>
<path fill-rule="evenodd" d="M457.7,849H697.2V834H457.7v15Z" class="g0_146"/>
<path fill-rule="evenodd" d="M457.7,864H697.2V849H457.7v15Z" class="g0_146"/>
<path fill-rule="evenodd" d="M457.7,879.1H697.2V864H457.7v15.1Z" class="g0_146"/>
<path fill-rule="evenodd" d="M457.3,894.1H697.2v-15H457.3v15Z" class="g0_146"/>
<path fill-rule="evenodd" d="M457.3,909.1H697.2v-15H457.3v15Z" class="g0_146"/>
<path fill-rule="evenodd" d="M457.3,924.2H697.2V909.1H457.3v15.1Z" class="g0_146"/>
<path d="M446.6,169.4V938" class="g1_146"/>
</svg>