<?xml version="1.0" encoding="UTF-8" standalone="no"?>
<!DOCTYPE svg PUBLIC "-//W3C//DTD SVG 1.1//EN"
"http://www.w3.org/Graphics/SVG/1.1/DTD/svg11.dtd">
<svg viewBox="0 0 909 1285" version="1.1" xmlns="http://www.w3.org/2000/svg" xmlns:xlink="http://www.w3.org/1999/xlink">
<defs>
<style type="text/css"><![CDATA[
.g0_276{
fill: #FFFFFF;
}
.g1_276{
fill: none;
stroke: #000000;
stroke-width: 1.451;
stroke-linecap: butt;
stroke-linejoin: round;
}
.g2_276{
fill: none;
stroke: #000000;
stroke-width: 0.381;
stroke-linecap: butt;
stroke-linejoin: round;
}
]]></style>
</defs>
<path fill-rule="evenodd" d="M259.6,131.1H757.3V110H259.6v21.1Z" class="g0_276"/>
<path fill-rule="evenodd" d="M258.9,167H498.4V152H258.9v15Z" class="g0_276"/>
<path fill-rule="evenodd" d="M258.9,182.3H498.4V167H258.9v15.3Z" class="g0_276"/>
<path fill-rule="evenodd" d="M258.9,197.3H498.4v-15H258.9v15Z" class="g0_276"/>
<path fill-rule="evenodd" d="M258.9,212.3H498.4v-15H258.9v15Z" class="g0_276"/>
<path fill-rule="evenodd" d="M258.9,227.4H498.4V212.3H258.9v15.1Z" class="g0_276"/>
<path fill-rule="evenodd" d="M258.9,242.4H498.4v-15H258.9v15Z" class="g0_276"/>
<path fill-rule="evenodd" d="M258.9,257.4H498.4v-15H258.9v15Z" class="g0_276"/>
<path fill-rule="evenodd" d="M258.9,272.5H498.4V257.4H258.9v15.1Z" class="g0_276"/>
<path fill-rule="evenodd" d="M258.5,287.5H497.7v-15H258.5v15Z" class="g0_276"/>
<path fill-rule="evenodd" d="M258.5,302.5H497.7v-15H258.5v15Z" class="g0_276"/>
<path fill-rule="evenodd" d="M258.5,317.6H497.7V302.5H258.5v15.1Z" class="g0_276"/>
<path fill-rule="evenodd" d="M258.5,332.6H497.7v-15H258.5v15Z" class="g0_276"/>
<path fill-rule="evenodd" d="M258.5,347.8H497.7V332.6H258.5v15.2Z" class="g0_276"/>
<path fill-rule="evenodd" d="M258.5,362.9H497.7V347.8H258.5v15.1Z" class="g0_276"/>
<path fill-rule="evenodd" d="M258.5,377.9H497.7v-15H258.5v15Z" class="g0_276"/>
<path fill-rule="evenodd" d="M258.5,393H497.7V377.9H258.5V393Z" class="g0_276"/>
<path fill-rule="evenodd" d="M257.4,408H496.9V393H257.4v15Z" class="g0_276"/>
<path fill-rule="evenodd" d="M257.4,423H496.9V408H257.4v15Z" class="g0_276"/>
<path fill-rule="evenodd" d="M257.4,438.1H496.9V423H257.4v15.1Z" class="g0_276"/>
<path fill-rule="evenodd" d="M257.4,453.1H496.9v-15H257.4v15Z" class="g0_276"/>
<path fill-rule="evenodd" d="M257.4,468.1H496.9v-15H257.4v15Z" class="g0_276"/>
<path fill-rule="evenodd" d="M257.4,483.2H496.9V468.1H257.4v15.1Z" class="g0_276"/>
<path fill-rule="evenodd" d="M257.4,498.2H496.9v-15H257.4v15Z" class="g0_276"/>
<path fill-rule="evenodd" d="M257.4,513.2H496.9v-15H257.4v15Z" class="g0_276"/>
<path fill-rule="evenodd" d="M257.4,528.4H496.9V513.2H257.4v15.2Z" class="g0_276"/>
<path fill-rule="evenodd" d="M257.4,543.5H496.9V528.4H257.4v15.1Z" class="g0_276"/>
<path fill-rule="evenodd" d="M257.4,558.5H472v-15H257.4v15Z" class="g0_276"/>
<path fill-rule="evenodd" d="M257.4,573.5H472v-15H257.4v15Z" class="g0_276"/>
<path fill-rule="evenodd" d="M257.1,588.6H495.8V573.5H257.1v15.1Z" class="g0_276"/>
<path fill-rule="evenodd" d="M257.1,603.6H495.8v-15H257.1v15Z" class="g0_276"/>
<path fill-rule="evenodd" d="M257.1,618.7H495.8V603.6H257.1v15.1Z" class="g0_276"/>
<path fill-rule="evenodd" d="M257.1,633.7H495.8v-15H257.1v15Z" class="g0_276"/>
<path fill-rule="evenodd" d="M257.1,648.7H445.6v-15H257.1v15Z" class="g0_276"/>
<path fill-rule="evenodd" d="M257.1,663.8H445.6V648.7H257.1v15.1Z" class="g0_276"/>
<path fill-rule="evenodd" d="M256.3,678.8H495.5v-15H256.3v15Z" class="g0_276"/>
<path fill-rule="evenodd" d="M256.3,693.8H495.5v-15H256.3v15Z" class="g0_276"/>
<path fill-rule="evenodd" d="M256.3,709.1H495.5V693.8H256.3v15.3Z" class="g0_276"/>
<path fill-rule="evenodd" d="M256.3,724.1H495.5v-15H256.3v15Z" class="g0_276"/>
<path fill-rule="evenodd" d="M256.3,739.1H495.5v-15H256.3v15Z" class="g0_276"/>
<path fill-rule="evenodd" d="M256.3,754.2H495.5V739.1H256.3v15.1Z" class="g0_276"/>
<path fill-rule="evenodd" d="M256.3,769.2H495.5v-15H256.3v15Z" class="g0_276"/>
<path fill-rule="evenodd" d="M256.3,784.2H495.5v-15H256.3v15Z" class="g0_276"/>
<path fill-rule="evenodd" d="M255.6,799.3H495.1V784.2H255.6v15.1Z" class="g0_276"/>
<path fill-rule="evenodd" d="M255.6,814.3H495.1v-15H255.6v15Z" class="g0_276"/>
<path fill-rule="evenodd" d="M255.6,829.3H495.1v-15H255.6v15Z" class="g0_276"/>
<path fill-rule="evenodd" d="M255.6,844.4H495.1V829.3H255.6v15.1Z" class="g0_276"/>
<path fill-rule="evenodd" d="M255.6,859.4H495.1v-15H255.6v15Z" class="g0_276"/>
<path fill-rule="evenodd" d="M256,874.5H472V859.4H256v15.1Z" class="g0_276"/>
<path fill-rule="evenodd" d="M256,889.7H472V874.5H256v15.2Z" class="g0_276"/>
<path fill-rule="evenodd" d="M258.9,904.7H498.4v-15H258.9v15Z" class="g0_276"/>
<path fill-rule="evenodd" d="M518.2,167H757.3V152H518.2v15Z" class="g0_276"/>
<path fill-rule="evenodd" d="M518.2,182.3H757.3V167H518.2v15.3Z" class="g0_276"/>
<path fill-rule="evenodd" d="M518.2,197.3H757.3v-15H518.2v15Z" class="g0_276"/>
<path fill-rule="evenodd" d="M518.2,212.3H757.3v-15H518.2v15Z" class="g0_276"/>
<path fill-rule="evenodd" d="M518.2,227.4H757.3V212.3H518.2v15.1Z" class="g0_276"/>
<path fill-rule="evenodd" d="M517.8,242.4H756.6v-15H517.8v15Z" class="g0_276"/>
<path fill-rule="evenodd" d="M517.8,257.4H756.6v-15H517.8v15Z" class="g0_276"/>
<path fill-rule="evenodd" d="M517.8,272.5H756.6V257.4H517.8v15.1Z" class="g0_276"/>
<path fill-rule="evenodd" d="M517.8,287.5H756.6v-15H517.8v15Z" class="g0_276"/>
<path fill-rule="evenodd" d="M517.8,302.5H756.6v-15H517.8v15Z" class="g0_276"/>
<path fill-rule="evenodd" d="M517.8,317.6H756.6V302.5H517.8v15.1Z" class="g0_276"/>
<path fill-rule="evenodd" d="M517.8,332.6H756.6v-15H517.8v15Z" class="g0_276"/>
<path fill-rule="evenodd" d="M517.5,347.8H756.2V332.6H517.5v15.2Z" class="g0_276"/>
<path fill-rule="evenodd" d="M517.5,362.9H756.2V347.8H517.5v15.1Z" class="g0_276"/>
<path fill-rule="evenodd" d="M517.5,377.9H756.2v-15H517.5v15Z" class="g0_276"/>
<path fill-rule="evenodd" d="M517.5,393H756.2V377.9H517.5V393Z" class="g0_276"/>
<path fill-rule="evenodd" d="M517.1,408H710.4V393H517.1v15Z" class="g0_276"/>
<path fill-rule="evenodd" d="M517.1,423H710.4V408H517.1v15Z" class="g0_276"/>
<path fill-rule="evenodd" d="M516.4,438.1H755.5V423H516.4v15.1Z" class="g0_276"/>
<path fill-rule="evenodd" d="M516.4,453.1H755.5v-15H516.4v15Z" class="g0_276"/>
<path fill-rule="evenodd" d="M516.4,468.1H755.5v-15H516.4v15Z" class="g0_276"/>
<path fill-rule="evenodd" d="M516.4,483.2H755.5V468.1H516.4v15.1Z" class="g0_276"/>
<path fill-rule="evenodd" d="M516.4,498.2H755.5v-15H516.4v15Z" class="g0_276"/>
<path fill-rule="evenodd" d="M516.4,513.2H755.5v-15H516.4v15Z" class="g0_276"/>
<path fill-rule="evenodd" d="M516.4,528.4H755.5V513.2H516.4v15.2Z" class="g0_276"/>
<path fill-rule="evenodd" d="M516,543.5H755.1V528.4H516v15.1Z" class="g0_276"/>
<path fill-rule="evenodd" d="M516,558.5H755.1v-15H516v15Z" class="g0_276"/>
<path fill-rule="evenodd" d="M516,573.5H755.1v-15H516v15Z" class="g0_276"/>
<path fill-rule="evenodd" d="M516,588.6H755.1V573.5H516v15.1Z" class="g0_276"/>
<path fill-rule="evenodd" d="M516,603.6H755.1v-15H516v15Z" class="g0_276"/>
<path fill-rule="evenodd" d="M516,618.7H755.1V603.6H516v15.1Z" class="g0_276"/>
<path fill-rule="evenodd" d="M516,633.7H755.1v-15H516v15Z" class="g0_276"/>
<path fill-rule="evenodd" d="M516,648.7H755.1v-15H516v15Z" class="g0_276"/>
<path fill-rule="evenodd" d="M516,663.8H686.9V648.7H516v15.1Z" class="g0_276"/>
<path fill-rule="evenodd" d="M516,678.8H686.9v-15H516v15Z" class="g0_276"/>
<path fill-rule="evenodd" d="M534,693.8H757.3v-15H534v15Z" class="g0_276"/>
<path fill-rule="evenodd" d="M515.3,709.4H755.1V694.2H515.3v15.2Z" class="g0_276"/>
<path fill-rule="evenodd" d="M515.3,724.5H755.1V709.4H515.3v15.1Z" class="g0_276"/>
<path fill-rule="evenodd" d="M515.3,739.5H755.1v-15H515.3v15Z" class="g0_276"/>
<path fill-rule="evenodd" d="M515.3,754.5H755.1v-15H515.3v15Z" class="g0_276"/>
<path fill-rule="evenodd" d="M515.6,769.6H686.9V754.5H515.6v15.1Z" class="g0_276"/>
<path fill-rule="evenodd" d="M515.6,784.6H686.9v-15H515.6v15Z" class="g0_276"/>
<path fill-rule="evenodd" d="M514.9,799.6H757.3v-15H514.9v15Z" class="g0_276"/>
<path fill-rule="evenodd" d="M514.9,814.7H757.3V799.6H514.9v15.1Z" class="g0_276"/>
<path fill-rule="evenodd" d="M514.9,829.7H757.3v-15H514.9v15Z" class="g0_276"/>
<path fill-rule="evenodd" d="M514.9,844.8H757.3V829.7H514.9v15.1Z" class="g0_276"/>
<path fill-rule="evenodd" d="M514.9,859.8H757.3v-15H514.9v15Z" class="g0_276"/>
<path fill-rule="evenodd" d="M514.9,875H754V859.8H514.9V875Z" class="g0_276"/>
<path fill-rule="evenodd" d="M514.9,890.1H754V875H514.9v15.1Z" class="g0_276"/>
<path fill-rule="evenodd" d="M514.9,905.1H754v-15H514.9v15Z" class="g0_276"/>
<path fill-rule="evenodd" d="M491.4,937.7H757.3V920.1H491.4v17.6Z" class="g0_276"/>
<path d="M182.2,148.8v95" class="g1_276"/>
<path d="M187.3,233.5v93.9M504.5,153.2V921.7" class="g2_276"/>
</svg>