<?xml version="1.0" encoding="UTF-8" standalone="no"?>
<!DOCTYPE svg PUBLIC "-//W3C//DTD SVG 1.1//EN"
"http://www.w3.org/Graphics/SVG/1.1/DTD/svg11.dtd">
<svg viewBox="0 0 909 1285" version="1.1" xmlns="http://www.w3.org/2000/svg" xmlns:xlink="http://www.w3.org/1999/xlink">
<defs>
<style type="text/css"><![CDATA[
.g0_122{
fill: #FFFFFF;
}
.g1_122{
fill: none;
stroke: #000000;
stroke-width: 3.284;
stroke-linecap: butt;
stroke-linejoin: round;
}
.g2_122{
fill: none;
stroke: #000000;
stroke-width: 0.381;
stroke-linecap: butt;
stroke-linejoin: round;
}
]]></style>
</defs>
<path fill-rule="evenodd" d="M266.8,125.8H764.5V110H266.8v15.8Z" class="g0_122"/>
<path fill-rule="evenodd" d="M266.8,161.7H450.2V147.1H266.8v14.6Z" class="g0_122"/>
<path fill-rule="evenodd" d="M266.8,176.4H450.2V161.7H266.8v14.7Z" class="g0_122"/>
<path fill-rule="evenodd" d="M266,191.1H505.9V176.4H266v14.7Z" class="g0_122"/>
<path fill-rule="evenodd" d="M266,205.7H505.9V191.1H266v14.6Z" class="g0_122"/>
<path fill-rule="evenodd" d="M266,220.4H505.9V205.7H266v14.7Z" class="g0_122"/>
<path fill-rule="evenodd" d="M266,235.1H505.9V220.4H266v14.7Z" class="g0_122"/>
<path fill-rule="evenodd" d="M266.4,249.7H504.5V235.1H266.4v14.6Z" class="g0_122"/>
<path fill-rule="evenodd" d="M266.4,264.4H504.5V249.7H266.4v14.7Z" class="g0_122"/>
<path fill-rule="evenodd" d="M266,279.1H505.2V264.4H266v14.7Z" class="g0_122"/>
<path fill-rule="evenodd" d="M266,293.7H505.2V279.1H266v14.6Z" class="g0_122"/>
<path fill-rule="evenodd" d="M266,308.4H505.2V293.7H266v14.7Z" class="g0_122"/>
<path fill-rule="evenodd" d="M265.3,323.4H504.8V308.8H265.3v14.6Z" class="g0_122"/>
<path fill-rule="evenodd" d="M265.3,338.1H504.8V323.4H265.3v14.7Z" class="g0_122"/>
<path fill-rule="evenodd" d="M265.3,352.8H504.8V338.1H265.3v14.7Z" class="g0_122"/>
<path fill-rule="evenodd" d="M265.3,367.5H504.8V352.8H265.3v14.7Z" class="g0_122"/>
<path fill-rule="evenodd" d="M265.7,382.1H504.8V367.5H265.7v14.6Z" class="g0_122"/>
<path fill-rule="evenodd" d="M265.7,396.8H504.8V382.1H265.7v14.7Z" class="g0_122"/>
<path fill-rule="evenodd" d="M265.7,411.5H504.8V396.8H265.7v14.7Z" class="g0_122"/>
<path fill-rule="evenodd" d="M265.7,426.1H504.8V411.5H265.7v14.6Z" class="g0_122"/>
<path fill-rule="evenodd" d="M265.7,440.8H504.8V426.1H265.7v14.7Z" class="g0_122"/>
<path fill-rule="evenodd" d="M265.7,455.5H504.8V440.8H265.7v14.7Z" class="g0_122"/>
<path fill-rule="evenodd" d="M264.9,470.9H504.1V456.2H264.9v14.7Z" class="g0_122"/>
<path fill-rule="evenodd" d="M264.9,485.5H504.1V470.9H264.9v14.6Z" class="g0_122"/>
<path fill-rule="evenodd" d="M265.3,500.2H504.5V485.5H265.3v14.7Z" class="g0_122"/>
<path fill-rule="evenodd" d="M265.3,514.9H504.5V500.2H265.3v14.7Z" class="g0_122"/>
<path fill-rule="evenodd" d="M265.3,529.5H504.5V514.9H265.3v14.6Z" class="g0_122"/>
<path fill-rule="evenodd" d="M265.3,544.2H504.1V529.5H265.3v14.7Z" class="g0_122"/>
<path fill-rule="evenodd" d="M265.3,558.9H504.1V544.2H265.3v14.7Z" class="g0_122"/>
<path fill-rule="evenodd" d="M265.3,573.5H504.1V558.9H265.3v14.6Z" class="g0_122"/>
<path fill-rule="evenodd" d="M283.7,588.6H505.9V573.9H283.7v14.7Z" class="g0_122"/>
<path fill-rule="evenodd" d="M264.9,603.8H504.1V588.9H264.9v14.9Z" class="g0_122"/>
<path fill-rule="evenodd" d="M264.9,618.5H504.1V603.8H264.9v14.7Z" class="g0_122"/>
<path fill-rule="evenodd" d="M264.9,633.2H504.1V618.5H264.9v14.7Z" class="g0_122"/>
<path fill-rule="evenodd" d="M283.7,648.2H505.9V633.5H283.7v14.7Z" class="g0_122"/>
<path fill-rule="evenodd" d="M264.9,663.2H503.7V648.6H264.9v14.6Z" class="g0_122"/>
<path fill-rule="evenodd" d="M264.9,677.9H503.7V663.2H264.9v14.7Z" class="g0_122"/>
<path fill-rule="evenodd" d="M264.9,692.6H503.7V677.9H264.9v14.7Z" class="g0_122"/>
<path fill-rule="evenodd" d="M264.6,707.6H503.4V692.9H264.6v14.7Z" class="g0_122"/>
<path fill-rule="evenodd" d="M264.6,722.3H503.4V707.6H264.6v14.7Z" class="g0_122"/>
<path fill-rule="evenodd" d="M264.6,736.9H503.4V722.3H264.6v14.6Z" class="g0_122"/>
<path fill-rule="evenodd" d="M264.6,751.6H503.4V736.9H264.6v14.7Z" class="g0_122"/>
<path fill-rule="evenodd" d="M264.9,766.6H504.1V752H264.9v14.6Z" class="g0_122"/>
<path fill-rule="evenodd" d="M264.9,781.3H504.1V766.6H264.9v14.7Z" class="g0_122"/>
<path fill-rule="evenodd" d="M264.6,796H503.4V781.3H264.6V796Z" class="g0_122"/>
<path fill-rule="evenodd" d="M264.6,810.6H503.4V796H264.6v14.6Z" class="g0_122"/>
<path fill-rule="evenodd" d="M264.2,825.7H503V811H264.2v14.7Z" class="g0_122"/>
<path fill-rule="evenodd" d="M264.2,840.4H503V825.7H264.2v14.7Z" class="g0_122"/>
<path fill-rule="evenodd" d="M283,855.8H505.9V841.1H283v14.7Z" class="g0_122"/>
<path fill-rule="evenodd" d="M264.2,870.8H503V856.1H264.2v14.7Z" class="g0_122"/>
<path fill-rule="evenodd" d="M264.2,885.5H503V870.8H264.2v14.7Z" class="g0_122"/>
<path fill-rule="evenodd" d="M264.2,900.1H503V885.5H264.2v14.6Z" class="g0_122"/>
<path fill-rule="evenodd" d="M266.4,914.8H505.6V900.1H266.4v14.7Z" class="g0_122"/>
<path fill-rule="evenodd" d="M525.7,161.7H764.1V147.1H525.7v14.6Z" class="g0_122"/>
<path fill-rule="evenodd" d="M525.7,176.4H764.1V161.7H525.7v14.7Z" class="g0_122"/>
<path fill-rule="evenodd" d="M544.1,191.1H764.5V176.4H544.1v14.7Z" class="g0_122"/>
<path fill-rule="evenodd" d="M525.7,206.1H764.1V191.4H525.7v14.7Z" class="g0_122"/>
<path fill-rule="evenodd" d="M525.7,220.8H764.1V206.1H525.7v14.7Z" class="g0_122"/>
<path fill-rule="evenodd" d="M525.7,235.4H764.1V220.8H525.7v14.6Z" class="g0_122"/>
<path fill-rule="evenodd" d="M525.7,250.1H764.1V235.4H525.7v14.7Z" class="g0_122"/>
<path fill-rule="evenodd" d="M525.4,265.1H764.1V250.5H525.4v14.6Z" class="g0_122"/>
<path fill-rule="evenodd" d="M525.4,279.8H764.1V265.1H525.4v14.7Z" class="g0_122"/>
<path fill-rule="evenodd" d="M525,294.8H763.7V280.2H525v14.6Z" class="g0_122"/>
<path fill-rule="evenodd" d="M525,309.5H763.7V294.8H525v14.7Z" class="g0_122"/>
<path fill-rule="evenodd" d="M525,324.2H763.7V309.5H525v14.7Z" class="g0_122"/>
<path fill-rule="evenodd" d="M525,338.8H763.7V324.2H525v14.6Z" class="g0_122"/>
<path fill-rule="evenodd" d="M525.7,353.9H764.1V339.2H525.7v14.7Z" class="g0_122"/>
<path fill-rule="evenodd" d="M525.7,368.6H764.1V353.9H525.7v14.7Z" class="g0_122"/>
<path fill-rule="evenodd" d="M525,383.8H764.5V368.9H525v14.9Z" class="g0_122"/>
<path fill-rule="evenodd" d="M525,398.5H764.5V383.8H525v14.7Z" class="g0_122"/>
<path fill-rule="evenodd" d="M525,413.1H764.5V398.5H525v14.6Z" class="g0_122"/>
<path fill-rule="evenodd" d="M524.6,427.8H763.4V413.1H524.6v14.7Z" class="g0_122"/>
<path fill-rule="evenodd" d="M524.6,442.5H763.4V427.8H524.6v14.7Z" class="g0_122"/>
<path fill-rule="evenodd" d="M524.6,457.1H763.7V442.5H524.6v14.6Z" class="g0_122"/>
<path fill-rule="evenodd" d="M524.6,471.8H763.7V457.1H524.6v14.7Z" class="g0_122"/>
<path fill-rule="evenodd" d="M524.6,486.5H763.7V471.8H524.6v14.7Z" class="g0_122"/>
<path fill-rule="evenodd" d="M524.6,501.1H763.7V486.5H524.6v14.6Z" class="g0_122"/>
<path fill-rule="evenodd" d="M525,515.8H763.4V501.1H525v14.7Z" class="g0_122"/>
<path fill-rule="evenodd" d="M525,530.5H763.4V515.8H525v14.7Z" class="g0_122"/>
<path fill-rule="evenodd" d="M524.6,545.5H763.4V530.8H524.6v14.7Z" class="g0_122"/>
<path fill-rule="evenodd" d="M524.6,560.2H763.4V545.5H524.6v14.7Z" class="g0_122"/>
<path fill-rule="evenodd" d="M524.6,574.8H763.4V560.2H524.6v14.6Z" class="g0_122"/>
<path fill-rule="evenodd" d="M524.6,589.9H763V575.2H524.6v14.7Z" class="g0_122"/>
<path fill-rule="evenodd" d="M524.6,604.6H763V589.9H524.6v14.7Z" class="g0_122"/>
<path fill-rule="evenodd" d="M523.9,619.6H763.4V604.9H523.9v14.7Z" class="g0_122"/>
<path fill-rule="evenodd" d="M523.9,634.3H763.4V619.6H523.9v14.7Z" class="g0_122"/>
<path fill-rule="evenodd" d="M523.9,648.9H763.4V634.3H523.9v14.6Z" class="g0_122"/>
<path fill-rule="evenodd" d="M523.9,663.6H763.4V648.9H523.9v14.7Z" class="g0_122"/>
<path fill-rule="evenodd" d="M523.9,678.3H763.4V663.6H523.9v14.7Z" class="g0_122"/>
<path fill-rule="evenodd" d="M523.9,692.9H763.4V678.3H523.9v14.6Z" class="g0_122"/>
<path fill-rule="evenodd" d="M524.3,708H763.4V693.3H524.3V708Z" class="g0_122"/>
<path fill-rule="evenodd" d="M524.3,722.6H763.4V708H524.3v14.6Z" class="g0_122"/>
<path fill-rule="evenodd" d="M524.3,737.3H763.4V722.6H524.3v14.7Z" class="g0_122"/>
<path fill-rule="evenodd" d="M524.3,752H762.6V737.3H524.3V752Z" class="g0_122"/>
<path fill-rule="evenodd" d="M524.3,766.6H762.6V752H524.3v14.6Z" class="g0_122"/>
<path fill-rule="evenodd" d="M524.3,781.3H762.6V766.6H524.3v14.7Z" class="g0_122"/>
<path fill-rule="evenodd" d="M523.5,796.3H763.4V781.7H523.5v14.6Z" class="g0_122"/>
<path fill-rule="evenodd" d="M523.5,811H763.4V796.3H523.5V811Z" class="g0_122"/>
<path fill-rule="evenodd" d="M523.5,825.7H763.4V811H523.5v14.7Z" class="g0_122"/>
<path fill-rule="evenodd" d="M523.5,840.4H763.4V825.7H523.5v14.7Z" class="g0_122"/>
<path fill-rule="evenodd" d="M523.5,855H763V840.4H523.5V855Z" class="g0_122"/>
<path fill-rule="evenodd" d="M523.5,869.7H763V855H523.5v14.7Z" class="g0_122"/>
<path fill-rule="evenodd" d="M523.5,884.4H763V869.7H523.5v14.7Z" class="g0_122"/>
<path fill-rule="evenodd" d="M523.5,899H763V884.4H523.5V899Z" class="g0_122"/>
<path fill-rule="evenodd" d="M501.5,931.7h263V914.1h-263v17.6Z" class="g0_122"/>
<path d="M175.8,429.8V891" class="g1_122"/>
<path d="M203.3,696V899.1M513.5,147.8V916" class="g2_122"/>
</svg>