<?xml version="1.0" encoding="UTF-8" standalone="no"?>
<!DOCTYPE svg PUBLIC "-//W3C//DTD SVG 1.1//EN"
"http://www.w3.org/Graphics/SVG/1.1/DTD/svg11.dtd">
<svg viewBox="0 0 909 1285" version="1.1" xmlns="http://www.w3.org/2000/svg" xmlns:xlink="http://www.w3.org/1999/xlink">
<defs>
<style type="text/css"><![CDATA[
.g0_188{
fill: #FFFFFF;
}
.g1_188{
fill: none;
stroke: #000000;
stroke-width: 0.381;
stroke-linecap: butt;
stroke-linejoin: round;
}
]]></style>
</defs>
<path fill-rule="evenodd" d="M245.7,190.7H432.2V176H245.7v14.7Z" class="g0_188"/>
<path fill-rule="evenodd" d="M245.7,205.4H432.2V190.7H245.7v14.7Z" class="g0_188"/>
<path fill-rule="evenodd" d="M245.7,220H432.2V205.4H245.7V220Z" class="g0_188"/>
<path fill-rule="evenodd" d="M245.7,234.7H432.2V220H245.7v14.7Z" class="g0_188"/>
<path fill-rule="evenodd" d="M245.7,249.4H432.2V234.7H245.7v14.7Z" class="g0_188"/>
<path fill-rule="evenodd" d="M245.7,264H432.2V249.4H245.7V264Z" class="g0_188"/>
<path fill-rule="evenodd" d="M245.7,278.7H432.2V264H245.7v14.7Z" class="g0_188"/>
<path fill-rule="evenodd" d="M245.7,293.4H432.2V278.7H245.7v14.7Z" class="g0_188"/>
<path fill-rule="evenodd" d="M245.7,308H432.2V293.4H245.7V308Z" class="g0_188"/>
<path fill-rule="evenodd" d="M245.7,322.7H432.2V308H245.7v14.7Z" class="g0_188"/>
<path fill-rule="evenodd" d="M245.7,337.4H432.2V322.7H245.7v14.7Z" class="g0_188"/>
<path fill-rule="evenodd" d="M245.7,352H432.2V337.4H245.7V352Z" class="g0_188"/>
<path fill-rule="evenodd" d="M245.7,366.7H432.2V352H245.7v14.7Z" class="g0_188"/>
<path fill-rule="evenodd" d="M245.7,381.4H432.2V366.7H245.7v14.7Z" class="g0_188"/>
<path fill-rule="evenodd" d="M154,396.1H432.4V381.4H154v14.7Z" class="g0_188"/>
<path fill-rule="evenodd" d="M154,410.7H432.4V396.1H154v14.6Z" class="g0_188"/>
<path fill-rule="evenodd" d="M154,425.4H432.4V410.7H154v14.7Z" class="g0_188"/>
<path fill-rule="evenodd" d="M154,440.1H432.4V425.4H154v14.7Z" class="g0_188"/>
<path fill-rule="evenodd" d="M192.5,455.3H432.4V440.4H192.5v14.9Z" class="g0_188"/>
<path fill-rule="evenodd" d="M192.5,470H432.4V455.3H192.5V470Z" class="g0_188"/>
<path fill-rule="evenodd" d="M192.5,484.6H432.4V470H192.5v14.6Z" class="g0_188"/>
<path fill-rule="evenodd" d="M192.5,499.3H432.4V484.6H192.5v14.7Z" class="g0_188"/>
<path fill-rule="evenodd" d="M192.5,514H432.4V499.3H192.5V514Z" class="g0_188"/>
<path fill-rule="evenodd" d="M191.8,528.6H432.4V514H191.8v14.6Z" class="g0_188"/>
<path fill-rule="evenodd" d="M191.8,543.3H432.4V528.6H191.8v14.7Z" class="g0_188"/>
<path fill-rule="evenodd" d="M191.8,558H432.4V543.3H191.8V558Z" class="g0_188"/>
<path fill-rule="evenodd" d="M191.8,572.6H432.4V558H191.8v14.6Z" class="g0_188"/>
<path fill-rule="evenodd" d="M191.8,587.3H432.4V572.6H191.8v14.7Z" class="g0_188"/>
<path fill-rule="evenodd" d="M191.8,602H432.4V587.3H191.8V602Z" class="g0_188"/>
<path fill-rule="evenodd" d="M191.8,616.7H432.4V602H191.8v14.7Z" class="g0_188"/>
<path fill-rule="evenodd" d="M191.8,631.3H432.4V616.7H191.8v14.6Z" class="g0_188"/>
<path fill-rule="evenodd" d="M191.8,646H432.4V631.3H191.8V646Z" class="g0_188"/>
<path fill-rule="evenodd" d="M190.7,661H432.4V646.4H190.7V661Z" class="g0_188"/>
<path fill-rule="evenodd" d="M190.7,675.7H432.4V661H190.7v14.7Z" class="g0_188"/>
<path fill-rule="evenodd" d="M190.7,690.4H432.4V675.7H190.7v14.7Z" class="g0_188"/>
<path fill-rule="evenodd" d="M190.7,705H432.4V690.4H190.7V705Z" class="g0_188"/>
<path fill-rule="evenodd" d="M190.7,719.7H432.4V705H190.7v14.7Z" class="g0_188"/>
<path fill-rule="evenodd" d="M190.7,734.4H432.4V719.7H190.7v14.7Z" class="g0_188"/>
<path fill-rule="evenodd" d="M190.7,749H432.4V734.4H190.7V749Z" class="g0_188"/>
<path fill-rule="evenodd" d="M190.7,763.7H432.4V749H190.7v14.7Z" class="g0_188"/>
<path fill-rule="evenodd" d="M190,778.4H430.2V763.7H190v14.7Z" class="g0_188"/>
<path fill-rule="evenodd" d="M190,793H430.2V778.4H190V793Z" class="g0_188"/>
<path fill-rule="evenodd" d="M190,807.7H430.2V793H190v14.7Z" class="g0_188"/>
<path fill-rule="evenodd" d="M190,822.4H430.2V807.7H190v14.7Z" class="g0_188"/>
<path fill-rule="evenodd" d="M190,837.1H430.2V822.4H190v14.7Z" class="g0_188"/>
<path fill-rule="evenodd" d="M190,851.7H430.2V837.1H190v14.6Z" class="g0_188"/>
<path fill-rule="evenodd" d="M190,866.4H430.2V851.7H190v14.7Z" class="g0_188"/>
<path fill-rule="evenodd" d="M190,881.1H430.2V866.4H190v14.7Z" class="g0_188"/>
<path fill-rule="evenodd" d="M190.3,895.7H429.8V881.1H190.3v14.6Z" class="g0_188"/>
<path fill-rule="evenodd" d="M190.3,910.4H429.8V895.7H190.3v14.7Z" class="g0_188"/>
<path fill-rule="evenodd" d="M190.3,925.1H429.8V910.4H190.3v14.7Z" class="g0_188"/>
<path fill-rule="evenodd" d="M231.8,942.5H432.4V925.1H231.8v17.4Z" class="g0_188"/>
<path fill-rule="evenodd" d="M527.6,154.4H693.3V138.6H527.6v15.8Z" class="g0_188"/>
<path fill-rule="evenodd" d="M452.8,190.3H693.3V175.7H452.8v14.6Z" class="g0_188"/>
<path fill-rule="evenodd" d="M452.8,205H693.3V190.3H452.8V205Z" class="g0_188"/>
<path fill-rule="evenodd" d="M452.8,219.7H693.3V205H452.8v14.7Z" class="g0_188"/>
<path fill-rule="evenodd" d="M452.8,234.3H693.3V219.7H452.8v14.6Z" class="g0_188"/>
<path fill-rule="evenodd" d="M452.8,249H693.3V234.3H452.8V249Z" class="g0_188"/>
<path fill-rule="evenodd" d="M452.8,263.7H693.3V249H452.8v14.7Z" class="g0_188"/>
<path fill-rule="evenodd" d="M452.8,278.3H693.3V263.7H452.8v14.6Z" class="g0_188"/>
<path fill-rule="evenodd" d="M452.8,293H693.3V278.3H452.8V293Z" class="g0_188"/>
<path fill-rule="evenodd" d="M452.4,307.7H692.2V293H452.4v14.7Z" class="g0_188"/>
<path fill-rule="evenodd" d="M452.4,322.3H692.2V307.7H452.4v14.6Z" class="g0_188"/>
<path fill-rule="evenodd" d="M452.4,337H692.6V322.3H452.4V337Z" class="g0_188"/>
<path fill-rule="evenodd" d="M452.4,351.7H692.6V337H452.4v14.7Z" class="g0_188"/>
<path fill-rule="evenodd" d="M452.4,366.4H692.6V351.7H452.4v14.7Z" class="g0_188"/>
<path fill-rule="evenodd" d="M452.4,381H692.6V366.4H452.4V381Z" class="g0_188"/>
<path fill-rule="evenodd" d="M452,395.7H692.2V381H452v14.7Z" class="g0_188"/>
<path fill-rule="evenodd" d="M452,410.4H692.2V395.7H452v14.7Z" class="g0_188"/>
<path fill-rule="evenodd" d="M452,425H692.2V410.4H452V425Z" class="g0_188"/>
<path fill-rule="evenodd" d="M470.4,439.7H693.3V425H470.4v14.7Z" class="g0_188"/>
<path fill-rule="evenodd" d="M452,454.4H691.9V439.7H452v14.7Z" class="g0_188"/>
<path fill-rule="evenodd" d="M452,469H691.9V454.4H452V469Z" class="g0_188"/>
<path fill-rule="evenodd" d="M452,483.7H691.9V469H452v14.7Z" class="g0_188"/>
<path fill-rule="evenodd" d="M452,498.7H691.9v-15H452v15Z" class="g0_188"/>
<path fill-rule="evenodd" d="M452,513.4H691.9V498.7H452v14.7Z" class="g0_188"/>
<path fill-rule="evenodd" d="M452,528.1H691.9V513.4H452v14.7Z" class="g0_188"/>
<path fill-rule="evenodd" d="M452,542.7H691.5V528.1H452v14.6Z" class="g0_188"/>
<path fill-rule="evenodd" d="M452,557.4H691.5V542.7H452v14.7Z" class="g0_188"/>
<path fill-rule="evenodd" d="M450.9,572.1H691.1V557.4H450.9v14.7Z" class="g0_188"/>
<path fill-rule="evenodd" d="M450.9,586.7H691.1V572.1H450.9v14.6Z" class="g0_188"/>
<path fill-rule="evenodd" d="M450.9,601.4H691.1V586.7H450.9v14.7Z" class="g0_188"/>
<path fill-rule="evenodd" d="M450.9,616.1H691.1V601.4H450.9v14.7Z" class="g0_188"/>
<path fill-rule="evenodd" d="M450.9,630.8H691.5V616.1H450.9v14.7Z" class="g0_188"/>
<path fill-rule="evenodd" d="M450.9,645.4H691.5V630.8H450.9v14.6Z" class="g0_188"/>
<path fill-rule="evenodd" d="M469.3,660.1h224V645.4h-224v14.7Z" class="g0_188"/>
<path fill-rule="evenodd" d="M469.6,675.5H693.3V660.8H469.6v14.7Z" class="g0_188"/>
<path fill-rule="evenodd" d="M450.6,690.2H690.4V675.5H450.6v14.7Z" class="g0_188"/>
<path fill-rule="evenodd" d="M450.6,704.8H690.4V690.2H450.6v14.6Z" class="g0_188"/>
<path fill-rule="evenodd" d="M450.6,719.9H690.4V704.8H450.6v15.1Z" class="g0_188"/>
<path fill-rule="evenodd" d="M450.6,734.5H690.4V719.9H450.6v14.6Z" class="g0_188"/>
<path fill-rule="evenodd" d="M450.6,749.2H690.4V734.5H450.6v14.7Z" class="g0_188"/>
<path fill-rule="evenodd" d="M450.6,763.9H690.8V749.2H450.6v14.7Z" class="g0_188"/>
<path fill-rule="evenodd" d="M450.6,778.5H690.8V763.9H450.6v14.6Z" class="g0_188"/>
<path fill-rule="evenodd" d="M450.6,793.2H690.8V778.5H450.6v14.7Z" class="g0_188"/>
<path fill-rule="evenodd" d="M450.6,807.9H690.8V793.2H450.6v14.7Z" class="g0_188"/>
<path fill-rule="evenodd" d="M450.6,822.5H690.8V807.9H450.6v14.6Z" class="g0_188"/>
<path fill-rule="evenodd" d="M450.6,837.3H690.8V822.5H450.6v14.8Z" class="g0_188"/>
<path fill-rule="evenodd" d="M450.6,851.9H690.8V837.3H450.6v14.6Z" class="g0_188"/>
<path fill-rule="evenodd" d="M449.8,866.6H690V851.9H449.8v14.7Z" class="g0_188"/>
<path fill-rule="evenodd" d="M449.8,881.3H690V866.6H449.8v14.7Z" class="g0_188"/>
<path fill-rule="evenodd" d="M449.8,895.9H690V881.3H449.8v14.6Z" class="g0_188"/>
<path fill-rule="evenodd" d="M449.8,910.6H690V895.9H449.8v14.7Z" class="g0_188"/>
<path fill-rule="evenodd" d="M449.8,925.3H690V910.6H449.8v14.7Z" class="g0_188"/>
<path fill-rule="evenodd" d="M426.5,957.5h267V939.9h-267v17.6Z" class="g0_188"/>
<path fill-rule="evenodd" d="M156.2,381.4h91.7V176H156.2V381.4Z" class="g0_188"/>
<path d="M438.9,175.2V943.4" class="g1_188"/>
</svg>