<?xml version="1.0" encoding="UTF-8" standalone="no"?>
<!DOCTYPE svg PUBLIC "-//W3C//DTD SVG 1.1//EN"
"http://www.w3.org/Graphics/SVG/1.1/DTD/svg11.dtd">
<svg viewBox="0 0 909 1285" version="1.1" xmlns="http://www.w3.org/2000/svg" xmlns:xlink="http://www.w3.org/1999/xlink">
<defs>
<style type="text/css"><![CDATA[
.g0_147{
fill: #FFFFFF;
}
.g1_147{
fill: none;
stroke: #000000;
stroke-width: 0.381;
stroke-linecap: butt;
stroke-linejoin: round;
}
.g2_147{
fill: none;
stroke: #000000;
stroke-width: 1.833;
stroke-linecap: butt;
stroke-linejoin: round;
}
.g3_147{
fill: none;
stroke: #000000;
stroke-width: 1.069;
stroke-linecap: butt;
stroke-linejoin: round;
}
.g4_147{
fill: none;
stroke: #000000;
stroke-width: 2.902;
stroke-linecap: butt;
stroke-linejoin: round;
}
.g5_147{
fill: none;
stroke: #000000;
stroke-width: 0.763;
stroke-linecap: butt;
stroke-linejoin: round;
}
]]></style>
</defs>
<path fill-rule="evenodd" d="M276.2,127.6H777.5V110H276.2v17.6Z" class="g0_147"/>
<path fill-rule="evenodd" d="M276.5,162.8H514.9v-15H276.5v15Z" class="g0_147"/>
<path fill-rule="evenodd" d="M276.5,177.9H514.9V162.8H276.5v15.1Z" class="g0_147"/>
<path fill-rule="evenodd" d="M276.5,193.3H514.9V177.9H276.5v15.4Z" class="g0_147"/>
<path fill-rule="evenodd" d="M276.5,208.3H514.9v-15H276.5v15Z" class="g0_147"/>
<path fill-rule="evenodd" d="M276.5,223.3H514.9v-15H276.5v15Z" class="g0_147"/>
<path fill-rule="evenodd" d="M276.9,238.4H515.3V223.3H276.9v15.1Z" class="g0_147"/>
<path fill-rule="evenodd" d="M276.9,253.4H515.3v-15H276.9v15Z" class="g0_147"/>
<path fill-rule="evenodd" d="M276.9,268.6H515.3V253.4H276.9v15.2Z" class="g0_147"/>
<path fill-rule="evenodd" d="M276.9,283.6h238v-15h-238v15Z" class="g0_147"/>
<path fill-rule="evenodd" d="M276.9,298.7h238V283.6h-238v15.1Z" class="g0_147"/>
<path fill-rule="evenodd" d="M276.9,313.7h238v-15h-238v15Z" class="g0_147"/>
<path fill-rule="evenodd" d="M276.9,328.7h238v-15h-238v15Z" class="g0_147"/>
<path fill-rule="evenodd" d="M276.9,343.8h238V328.7h-238v15.1Z" class="g0_147"/>
<path fill-rule="evenodd" d="M276.5,358.9H514.9V343.8H276.5v15.1Z" class="g0_147"/>
<path fill-rule="evenodd" d="M276.5,373.9H514.9v-15H276.5v15Z" class="g0_147"/>
<path fill-rule="evenodd" d="M276.9,388.9H514.5v-15H276.9v15Z" class="g0_147"/>
<path fill-rule="evenodd" d="M276.9,404H514.5V388.9H276.9V404Z" class="g0_147"/>
<path fill-rule="evenodd" d="M276.5,419h238V404h-238v15Z" class="g0_147"/>
<path fill-rule="evenodd" d="M276.5,434.2h238V419h-238v15.2Z" class="g0_147"/>
<path fill-rule="evenodd" d="M276.5,449.2h238v-15h-238v15Z" class="g0_147"/>
<path fill-rule="evenodd" d="M276.5,464.3h238V449.2h-238v15.1Z" class="g0_147"/>
<path fill-rule="evenodd" d="M276.5,479.3h238v-15h-238v15Z" class="g0_147"/>
<path fill-rule="evenodd" d="M276.5,494.3h238v-15h-238v15Z" class="g0_147"/>
<path fill-rule="evenodd" d="M276.2,509.4H515.3V494.3H276.2v15.1Z" class="g0_147"/>
<path fill-rule="evenodd" d="M276.2,524.4H515.3v-15H276.2v15Z" class="g0_147"/>
<path fill-rule="evenodd" d="M276.2,539.4H515.3v-15H276.2v15Z" class="g0_147"/>
<path fill-rule="evenodd" d="M276.2,554.5H515.3V539.4H276.2v15.1Z" class="g0_147"/>
<path fill-rule="evenodd" d="M276.5,569.5H515.3v-15H276.5v15Z" class="g0_147"/>
<path fill-rule="evenodd" d="M276.5,584.5H515.3v-15H276.5v15Z" class="g0_147"/>
<path fill-rule="evenodd" d="M276.5,599.6H515.3V584.5H276.5v15.1Z" class="g0_147"/>
<path fill-rule="evenodd" d="M276.5,614.8H515.3V599.6H276.5v15.2Z" class="g0_147"/>
<path fill-rule="evenodd" d="M276.2,629.9H514.9V614.8H276.2v15.1Z" class="g0_147"/>
<path fill-rule="evenodd" d="M276.2,644.9H514.9v-15H276.2v15Z" class="g0_147"/>
<path fill-rule="evenodd" d="M276.2,659.9H514.9v-15H276.2v15Z" class="g0_147"/>
<path fill-rule="evenodd" d="M277.3,674.6h238V659.9h-238v14.7Z" class="g0_147"/>
<path fill-rule="evenodd" d="M535.4,162.8H777.5V148.2H535.4v14.6Z" class="g0_147"/>
<path fill-rule="evenodd" d="M535.4,177.5H777.5V162.8H535.4v14.7Z" class="g0_147"/>
<path fill-rule="evenodd" d="M535.4,192.2H777.5V177.5H535.4v14.7Z" class="g0_147"/>
<path fill-rule="evenodd" d="M535.4,206.8H777.5V192.2H535.4v14.6Z" class="g0_147"/>
<path fill-rule="evenodd" d="M535.4,221.5H777.5V206.8H535.4v14.7Z" class="g0_147"/>
<path fill-rule="evenodd" d="M535.4,236.2H777.5V221.5H535.4v14.7Z" class="g0_147"/>
<path fill-rule="evenodd" d="M535.4,250.8H777.1V236.2H535.4v14.6Z" class="g0_147"/>
<path fill-rule="evenodd" d="M535.4,265.5H777.1V250.8H535.4v14.7Z" class="g0_147"/>
<path fill-rule="evenodd" d="M535.4,280.2H777.1V265.5H535.4v14.7Z" class="g0_147"/>
<path fill-rule="evenodd" d="M535.4,294.8H777.1V280.2H535.4v14.6Z" class="g0_147"/>
<path fill-rule="evenodd" d="M535.4,309.5H776.6V294.8H535.4v14.7Z" class="g0_147"/>
<path fill-rule="evenodd" d="M535.4,324.2H776.6V309.5H535.4v14.7Z" class="g0_147"/>
<path fill-rule="evenodd" d="M535.4,338.8H777.5V324.2H535.4v14.6Z" class="g0_147"/>
<path fill-rule="evenodd" d="M535.4,353.5H777.5V338.8H535.4v14.7Z" class="g0_147"/>
<path fill-rule="evenodd" d="M535.4,368.2H777.5V353.5H535.4v14.7Z" class="g0_147"/>
<path fill-rule="evenodd" d="M535.4,382.9H777.5V368.2H535.4v14.7Z" class="g0_147"/>
<path fill-rule="evenodd" d="M535.8,397.5H776.6V382.9H535.8v14.6Z" class="g0_147"/>
<path fill-rule="evenodd" d="M535.8,412.2H776.6V397.5H535.8v14.7Z" class="g0_147"/>
<path fill-rule="evenodd" d="M535.8,426.9H776.6V412.2H535.8v14.7Z" class="g0_147"/>
<path fill-rule="evenodd" d="M553.4,441.5H777.5V426.9H553.4v14.6Z" class="g0_147"/>
<path fill-rule="evenodd" d="M535.1,456.2H776.4V441.5H535.1v14.7Z" class="g0_147"/>
<path fill-rule="evenodd" d="M535.1,470.9H776.4V456.2H535.1v14.7Z" class="g0_147"/>
<path fill-rule="evenodd" d="M534.7,485.5H776.4V470.9H534.7v14.6Z" class="g0_147"/>
<path fill-rule="evenodd" d="M534.7,500.2H776.4V485.5H534.7v14.7Z" class="g0_147"/>
<path fill-rule="evenodd" d="M534.7,514.9H776.4V500.2H534.7v14.7Z" class="g0_147"/>
<path fill-rule="evenodd" d="M534.7,529.5H776.4V514.9H534.7v14.6Z" class="g0_147"/>
<path fill-rule="evenodd" d="M534.7,544.2H776V529.5H534.7v14.7Z" class="g0_147"/>
<path fill-rule="evenodd" d="M534.7,558.9H776V544.2H534.7v14.7Z" class="g0_147"/>
<path fill-rule="evenodd" d="M534.7,573.5H776V558.9H534.7v14.6Z" class="g0_147"/>
<path fill-rule="evenodd" d="M535.1,588.2H775.6V573.5H535.1v14.7Z" class="g0_147"/>
<path fill-rule="evenodd" d="M535.1,602.9H775.6V588.2H535.1v14.7Z" class="g0_147"/>
<path fill-rule="evenodd" d="M552.7,617.6H777.5V602.9H552.7v14.7Z" class="g0_147"/>
<path fill-rule="evenodd" d="M534.3,632.2h241V617.6h-241v14.6Z" class="g0_147"/>
<path fill-rule="evenodd" d="M534.3,646.9h241V632.2h-241v14.7Z" class="g0_147"/>
<path fill-rule="evenodd" d="M552.7,661.6H777.5V646.9H552.7v14.7Z" class="g0_147"/>
<path fill-rule="evenodd" d="M511.2,748.1H777.5V723.2H511.2v24.9Z" class="g0_147"/>
<path fill-rule="evenodd" d="M276.9,786.6h238v-15h-238v15Z" class="g0_147"/>
<path fill-rule="evenodd" d="M276.9,801.6h238v-15h-238v15Z" class="g0_147"/>
<path fill-rule="evenodd" d="M276.5,816.7H514.9V801.6H276.5v15.1Z" class="g0_147"/>
<path fill-rule="evenodd" d="M276.5,831.7H514.9v-15H276.5v15Z" class="g0_147"/>
<path fill-rule="evenodd" d="M276.5,846.8H514.9V831.7H276.5v15.1Z" class="g0_147"/>
<path fill-rule="evenodd" d="M276.5,861.8H514.9v-15H276.5v15Z" class="g0_147"/>
<path fill-rule="evenodd" d="M276.5,876.9H514.9V861.8H276.5v15.1Z" class="g0_147"/>
<path fill-rule="evenodd" d="M276.5,891.9H514.9v-15H276.5v15Z" class="g0_147"/>
<path fill-rule="evenodd" d="M276.5,906.9H514.9v-15H276.5v15Z" class="g0_147"/>
<path fill-rule="evenodd" d="M534,787.5H775.6V772.7H534v14.8Z" class="g0_147"/>
<path fill-rule="evenodd" d="M534,802.7H775.6V787.5H534v15.2Z" class="g0_147"/>
<path fill-rule="evenodd" d="M534,817.8H775.6V802.7H534v15.1Z" class="g0_147"/>
<path fill-rule="evenodd" d="M534,832.9H775.6V817.8H534v15.1Z" class="g0_147"/>
<path fill-rule="evenodd" d="M534,847.9H775.6v-15H534v15Z" class="g0_147"/>
<path fill-rule="evenodd" d="M534,862.9H775.6v-15H534v15Z" class="g0_147"/>
<path fill-rule="evenodd" d="M534,878H775.6V862.9H534V878Z" class="g0_147"/>
<path fill-rule="evenodd" d="M534,893H775.6V878H534v15Z" class="g0_147"/>
<path fill-rule="evenodd" d="M534,908H775.6V893H534v15Z" class="g0_147"/>
<path fill-rule="evenodd" d="M512.3,936.6H777.5V917.2H512.3v19.4Z" class="g0_147"/>
<path d="M218.5,96.1v30.1" class="g1_147"/>
<path d="M198.7,426V741.4" class="g2_147"/>
<path d="M205.3,426V657" class="g3_147"/>
<path d="M213,422V616.7" class="g4_147"/>
<path d="M219.6,420.9V742.8" class="g5_147"/>
<path d="M524.3,148.5V677.3" class="g1_147"/>
<path d="M214.1,705v91.7M216,705v89.4" class="g5_147"/>
<path d="M524.3,770.3V910.7" class="g1_147"/>
</svg>