<?xml version="1.0" encoding="UTF-8" standalone="no"?>
<!DOCTYPE svg PUBLIC "-//W3C//DTD SVG 1.1//EN"
"http://www.w3.org/Graphics/SVG/1.1/DTD/svg11.dtd">
<svg viewBox="0 0 909 1285" version="1.1" xmlns="http://www.w3.org/2000/svg" xmlns:xlink="http://www.w3.org/1999/xlink">
<defs>
<style type="text/css"><![CDATA[
.g0_240{
fill: #FFFFFF;
}
.g1_240{
fill: none;
stroke: #000000;
stroke-width: 0.381;
stroke-linecap: butt;
stroke-linejoin: round;
}
]]></style>
</defs>
<path fill-rule="evenodd" d="M640.5,125.8h59.4V110H640.5v15.8Z" class="g0_240"/>
<path fill-rule="evenodd" d="M200.8,162.3H422.3V147.1H200.8v15.2Z" class="g0_240"/>
<path fill-rule="evenodd" d="M200.4,177.3H422.3v-15H200.4v15Z" class="g0_240"/>
<path fill-rule="evenodd" d="M182.4,192.7H421.9v-15H182.4v15Z" class="g0_240"/>
<path fill-rule="evenodd" d="M182.4,207.7H421.9v-15H182.4v15Z" class="g0_240"/>
<path fill-rule="evenodd" d="M182.4,222.8H421.9V207.7H182.4v15.1Z" class="g0_240"/>
<path fill-rule="evenodd" d="M182.4,237.8H422.3v-15H182.4v15Z" class="g0_240"/>
<path fill-rule="evenodd" d="M182.4,252.8H422.3v-15H182.4v15Z" class="g0_240"/>
<path fill-rule="evenodd" d="M182.4,267.9H422.3V252.8H182.4v15.1Z" class="g0_240"/>
<path fill-rule="evenodd" d="M182.4,282.9H422.3v-15H182.4v15Z" class="g0_240"/>
<path fill-rule="evenodd" d="M182.1,297.9H421.5v-15H182.1v15Z" class="g0_240"/>
<path fill-rule="evenodd" d="M182.1,313.2H421.5V297.9H182.1v15.3Z" class="g0_240"/>
<path fill-rule="evenodd" d="M182.1,328.2H421.5v-15H182.1v15Z" class="g0_240"/>
<path fill-rule="evenodd" d="M182.1,343.2H421.9v-15H182.1v15Z" class="g0_240"/>
<path fill-rule="evenodd" d="M182.1,358.3H421.9V343.2H182.1v15.1Z" class="g0_240"/>
<path fill-rule="evenodd" d="M182.1,373.3H421.9v-15H182.1v15Z" class="g0_240"/>
<path fill-rule="evenodd" d="M181,388.4H421.5V373.3H181v15.1Z" class="g0_240"/>
<path fill-rule="evenodd" d="M181,403.4H421.5v-15H181v15Z" class="g0_240"/>
<path fill-rule="evenodd" d="M181,418.4H421.5v-15H181v15Z" class="g0_240"/>
<path fill-rule="evenodd" d="M181,433.5H421.5V418.4H181v15.1Z" class="g0_240"/>
<path fill-rule="evenodd" d="M181,448.5H421.5v-15H181v15Z" class="g0_240"/>
<path fill-rule="evenodd" d="M181,463.5H421.5v-15H181v15Z" class="g0_240"/>
<path fill-rule="evenodd" d="M181,478.6H421.5V463.5H181v15.1Z" class="g0_240"/>
<path fill-rule="evenodd" d="M181,493.8H421.5V478.6H181v15.2Z" class="g0_240"/>
<path fill-rule="evenodd" d="M181,508.8H421.5v-15H181v15Z" class="g0_240"/>
<path fill-rule="evenodd" d="M181,523.9H421.5V508.8H181v15.1Z" class="g0_240"/>
<path fill-rule="evenodd" d="M181,538.9H421.5v-15H181v15Z" class="g0_240"/>
<path fill-rule="evenodd" d="M181.3,553.9H421.2v-15H181.3v15Z" class="g0_240"/>
<path fill-rule="evenodd" d="M181.3,569H421.2V553.9H181.3V569Z" class="g0_240"/>
<path fill-rule="evenodd" d="M181.3,584H421.2V569H181.3v15Z" class="g0_240"/>
<path fill-rule="evenodd" d="M181.3,599.1H421.2V584H181.3v15.1Z" class="g0_240"/>
<path fill-rule="evenodd" d="M181.3,614.1H421.2v-15H181.3v15Z" class="g0_240"/>
<path fill-rule="evenodd" d="M181,629.1H420.8v-15H181v15Z" class="g0_240"/>
<path fill-rule="evenodd" d="M181,644.2H420.8V629.1H181v15.1Z" class="g0_240"/>
<path fill-rule="evenodd" d="M181,659.2H420.8v-15H181v15Z" class="g0_240"/>
<path fill-rule="evenodd" d="M181,674.4H420.8V659.2H181v15.2Z" class="g0_240"/>
<path fill-rule="evenodd" d="M181,689.4H420.8v-15H181v15Z" class="g0_240"/>
<path fill-rule="evenodd" d="M181,704.5H420.8V689.4H181v15.1Z" class="g0_240"/>
<path fill-rule="evenodd" d="M181,719.5H420.8v-15H181v15Z" class="g0_240"/>
<path fill-rule="evenodd" d="M181,734.5H420.8v-15H181v15Z" class="g0_240"/>
<path fill-rule="evenodd" d="M181,749.6H420.8V734.5H181v15.1Z" class="g0_240"/>
<path fill-rule="evenodd" d="M181,764.6H420.8v-15H181v15Z" class="g0_240"/>
<path fill-rule="evenodd" d="M180.6,779.6H420.4v-15H180.6v15Z" class="g0_240"/>
<path fill-rule="evenodd" d="M180.6,794.7H420.4V779.6H180.6v15.1Z" class="g0_240"/>
<path fill-rule="evenodd" d="M180.6,809.7H420.4v-15H180.6v15Z" class="g0_240"/>
<path fill-rule="evenodd" d="M180.2,824.7H420.1v-15H180.2v15Z" class="g0_240"/>
<path fill-rule="evenodd" d="M180.2,839.8H420.1V824.7H180.2v15.1Z" class="g0_240"/>
<path fill-rule="evenodd" d="M180.6,855H419.7V839.8H180.6V855Z" class="g0_240"/>
<path fill-rule="evenodd" d="M180.6,870.1H419.7V855H180.6v15.1Z" class="g0_240"/>
<path fill-rule="evenodd" d="M180.6,885.1H419.7v-15H180.6v15Z" class="g0_240"/>
<path fill-rule="evenodd" d="M182.1,900.1H421.9v-15H182.1v15Z" class="g0_240"/>
<path fill-rule="evenodd" d="M442.5,161.7H682.7v-15H442.5v15Z" class="g0_240"/>
<path fill-rule="evenodd" d="M442.5,176.9H682.7V161.7H442.5v15.2Z" class="g0_240"/>
<path fill-rule="evenodd" d="M442.5,192H682.7V176.9H442.5V192Z" class="g0_240"/>
<path fill-rule="evenodd" d="M442.1,207H682.7V192H442.1v15Z" class="g0_240"/>
<path fill-rule="evenodd" d="M442.1,222H682.7V207H442.1v15Z" class="g0_240"/>
<path fill-rule="evenodd" d="M442.8,237.1H682.7V222H442.8v15.1Z" class="g0_240"/>
<path fill-rule="evenodd" d="M442.8,252.1H682.7v-15H442.8v15Z" class="g0_240"/>
<path fill-rule="evenodd" d="M442.8,267.1H682.7v-15H442.8v15Z" class="g0_240"/>
<path fill-rule="evenodd" d="M442.5,282.2H683.1V267.1H442.5v15.1Z" class="g0_240"/>
<path fill-rule="evenodd" d="M442.5,297.2H683.1v-15H442.5v15Z" class="g0_240"/>
<path fill-rule="evenodd" d="M442.5,312.2H683.1v-15H442.5v15Z" class="g0_240"/>
<path fill-rule="evenodd" d="M442.5,327.3H683.1V312.2H442.5v15.1Z" class="g0_240"/>
<path fill-rule="evenodd" d="M442.5,342.5H683.1V327.3H442.5v15.2Z" class="g0_240"/>
<path fill-rule="evenodd" d="M442.5,357.6H682.3V342.5H442.5v15.1Z" class="g0_240"/>
<path fill-rule="evenodd" d="M442.5,372.6H682.3v-15H442.5v15Z" class="g0_240"/>
<path fill-rule="evenodd" d="M460.8,387.6H683.1v-15H460.8v15Z" class="g0_240"/>
<path fill-rule="evenodd" d="M442.1,402.7H682V387.6H442.1v15.1Z" class="g0_240"/>
<path fill-rule="evenodd" d="M442.1,417.7H682v-15H442.1v15Z" class="g0_240"/>
<path fill-rule="evenodd" d="M441.7,432.7h241v-15h-241v15Z" class="g0_240"/>
<path fill-rule="evenodd" d="M441.7,447.8h241V432.7h-241v15.1Z" class="g0_240"/>
<path fill-rule="evenodd" d="M441.7,462.8h241v-15h-241v15Z" class="g0_240"/>
<path fill-rule="evenodd" d="M441.7,477.8h241v-15h-241v15Z" class="g0_240"/>
<path fill-rule="evenodd" d="M441.7,492.9h241V477.8h-241v15.1Z" class="g0_240"/>
<path fill-rule="evenodd" d="M441.7,507.9h241v-15h-241v15Z" class="g0_240"/>
<path fill-rule="evenodd" d="M441.7,523.1h241V507.9h-241v15.2Z" class="g0_240"/>
<path fill-rule="evenodd" d="M441.7,538.2h241V523.1h-241v15.1Z" class="g0_240"/>
<path fill-rule="evenodd" d="M441.7,553.2h241v-15h-241v15Z" class="g0_240"/>
<path fill-rule="evenodd" d="M441.7,568.2h241v-15h-241v15Z" class="g0_240"/>
<path fill-rule="evenodd" d="M441,583.3H681.6V568.2H441v15.1Z" class="g0_240"/>
<path fill-rule="evenodd" d="M441,598.3H681.6v-15H441v15Z" class="g0_240"/>
<path fill-rule="evenodd" d="M441,613.4H681.6V598.3H441v15.1Z" class="g0_240"/>
<path fill-rule="evenodd" d="M441,628.4H681.6v-15H441v15Z" class="g0_240"/>
<path fill-rule="evenodd" d="M441.4,643.4H681.2v-15H441.4v15Z" class="g0_240"/>
<path fill-rule="evenodd" d="M441.4,658.5H681.2V643.4H441.4v15.1Z" class="g0_240"/>
<path fill-rule="evenodd" d="M441.4,673.5H681.2v-15H441.4v15Z" class="g0_240"/>
<path fill-rule="evenodd" d="M441.4,688.5H681.2v-15H441.4v15Z" class="g0_240"/>
<path fill-rule="evenodd" d="M440.6,703.7H681.2V688.5H440.6v15.2Z" class="g0_240"/>
<path fill-rule="evenodd" d="M440.6,718.8H681.2V703.7H440.6v15.1Z" class="g0_240"/>
<path fill-rule="evenodd" d="M440.6,733.8H681.2v-15H440.6v15Z" class="g0_240"/>
<path fill-rule="evenodd" d="M440.6,748.8H681.2v-15H440.6v15Z" class="g0_240"/>
<path fill-rule="evenodd" d="M441,763.9H680.9V748.8H441v15.1Z" class="g0_240"/>
<path fill-rule="evenodd" d="M441,778.9H680.9v-15H441v15Z" class="g0_240"/>
<path fill-rule="evenodd" d="M440.6,793.9h241v-15h-241v15Z" class="g0_240"/>
<path fill-rule="evenodd" d="M440.6,809h241V793.9h-241V809Z" class="g0_240"/>
<path fill-rule="evenodd" d="M440.6,824h241V809h-241v15Z" class="g0_240"/>
<path fill-rule="evenodd" d="M440.6,839.1h241V824h-241v15.1Z" class="g0_240"/>
<path fill-rule="evenodd" d="M440.6,854.1h241v-15h-241v15Z" class="g0_240"/>
<path fill-rule="evenodd" d="M440.6,869.2h241V854.1h-241v15.1Z" class="g0_240"/>
<path fill-rule="evenodd" d="M440.6,884.4h241V869.2h-241v15.2Z" class="g0_240"/>
<path fill-rule="evenodd" d="M440.6,899.4h241v-15h-241v15Z" class="g0_240"/>
<path fill-rule="evenodd" d="M180.6,926.5H329.5V910.8H180.6v15.7Z" class="g0_240"/>
<path fill-rule="evenodd" d="M180.6,944.1H329.5V926.5H180.6v17.6Z" class="g0_240"/>
<path fill-rule="evenodd" d="M416.8,931.3h59.4V913.7H416.8v17.6Z" class="g0_240"/>
<path d="M429.9,146.7V914.9" class="g1_240"/>
</svg>