<?xml version="1.0" encoding="UTF-8" standalone="no"?>
<!DOCTYPE svg PUBLIC "-//W3C//DTD SVG 1.1//EN"
"http://www.w3.org/Graphics/SVG/1.1/DTD/svg11.dtd">
<svg viewBox="0 0 909 1285" version="1.1" xmlns="http://www.w3.org/2000/svg" xmlns:xlink="http://www.w3.org/1999/xlink">
<defs>
<style type="text/css"><![CDATA[
.g0_112{
fill: #FFFFFF;
}
.g1_112{
fill: none;
stroke: #000000;
stroke-width: 0.381;
stroke-linecap: butt;
stroke-linejoin: round;
}
]]></style>
</defs>
<path fill-rule="evenodd" d="M554.7,125.8H681.2V110H554.7v15.8Z" class="g0_112"/>
<path fill-rule="evenodd" d="M182.1,162.1H420.8V147.4H182.1v14.7Z" class="g0_112"/>
<path fill-rule="evenodd" d="M182.1,176.8H420.8V162.1H182.1v14.7Z" class="g0_112"/>
<path fill-rule="evenodd" d="M182.1,191.4H420.8V176.8H182.1v14.6Z" class="g0_112"/>
<path fill-rule="evenodd" d="M182.1,206.1H420.8V191.4H182.1v14.7Z" class="g0_112"/>
<path fill-rule="evenodd" d="M182.1,220.8H420.8V206.1H182.1v14.7Z" class="g0_112"/>
<path fill-rule="evenodd" d="M182.1,235.4H420.8V220.8H182.1v14.6Z" class="g0_112"/>
<path fill-rule="evenodd" d="M182.1,250.1H420.8V235.4H182.1v14.7Z" class="g0_112"/>
<path fill-rule="evenodd" d="M182.1,264.8H420.8V250.1H182.1v14.7Z" class="g0_112"/>
<path fill-rule="evenodd" d="M182.4,279.4H420.8V264.8H182.4v14.6Z" class="g0_112"/>
<path fill-rule="evenodd" d="M182.4,294.1H420.8V279.4H182.4v14.7Z" class="g0_112"/>
<path fill-rule="evenodd" d="M182.4,308.8H420.8V294.1H182.4v14.7Z" class="g0_112"/>
<path fill-rule="evenodd" d="M182.4,323.4h238V308.8h-238v14.6Z" class="g0_112"/>
<path fill-rule="evenodd" d="M182.4,338.1h238V323.4h-238v14.7Z" class="g0_112"/>
<path fill-rule="evenodd" d="M182.4,352.8h238V338.1h-238v14.7Z" class="g0_112"/>
<path fill-rule="evenodd" d="M182.1,367.5H420.8V352.8H182.1v14.7Z" class="g0_112"/>
<path fill-rule="evenodd" d="M182.1,382.1H420.8V367.5H182.1v14.6Z" class="g0_112"/>
<path fill-rule="evenodd" d="M182.1,396.8H420.8V382.1H182.1v14.7Z" class="g0_112"/>
<path fill-rule="evenodd" d="M182.1,411.5H420.8V396.8H182.1v14.7Z" class="g0_112"/>
<path fill-rule="evenodd" d="M182.1,426.1H420.8V411.5H182.1v14.6Z" class="g0_112"/>
<path fill-rule="evenodd" d="M182.1,440.8H420.8V426.1H182.1v14.7Z" class="g0_112"/>
<path fill-rule="evenodd" d="M182.1,455.5H420.8V440.8H182.1v14.7Z" class="g0_112"/>
<path fill-rule="evenodd" d="M182.1,470.1H420.4V455.5H182.1v14.6Z" class="g0_112"/>
<path fill-rule="evenodd" d="M182.1,484.8H420.4V470.1H182.1v14.7Z" class="g0_112"/>
<path fill-rule="evenodd" d="M182.1,499.5H420.4V484.8H182.1v14.7Z" class="g0_112"/>
<path fill-rule="evenodd" d="M181.3,514.1H420.4V499.5H181.3v14.6Z" class="g0_112"/>
<path fill-rule="evenodd" d="M181.3,528.8H420.4V514.1H181.3v14.7Z" class="g0_112"/>
<path fill-rule="evenodd" d="M181.3,543.5H420.4V528.8H181.3v14.7Z" class="g0_112"/>
<path fill-rule="evenodd" d="M181.3,558.1H420.4V543.5H181.3v14.6Z" class="g0_112"/>
<path fill-rule="evenodd" d="M181,573.2H420.4V558.5H181v14.7Z" class="g0_112"/>
<path fill-rule="evenodd" d="M181,587.8H420.4V573.2H181v14.6Z" class="g0_112"/>
<path fill-rule="evenodd" d="M181,602.5H420.4V587.8H181v14.7Z" class="g0_112"/>
<path fill-rule="evenodd" d="M181,617.2H420.4V602.5H181v14.7Z" class="g0_112"/>
<path fill-rule="evenodd" d="M181,631.9H420.4V617.2H181v14.7Z" class="g0_112"/>
<path fill-rule="evenodd" d="M181,646.5H420.4V631.9H181v14.6Z" class="g0_112"/>
<path fill-rule="evenodd" d="M181,661.2H420.4V646.5H181v14.7Z" class="g0_112"/>
<path fill-rule="evenodd" d="M181,675.9H420.4V661.2H181v14.7Z" class="g0_112"/>
<path fill-rule="evenodd" d="M181,690.5H420.4V675.9H181v14.6Z" class="g0_112"/>
<path fill-rule="evenodd" d="M181,705.2H420.4V690.5H181v14.7Z" class="g0_112"/>
<path fill-rule="evenodd" d="M181,719.9H420.4V705.2H181v14.7Z" class="g0_112"/>
<path fill-rule="evenodd" d="M181,734.5H420.4V719.9H181v14.6Z" class="g0_112"/>
<path fill-rule="evenodd" d="M181,749.2H420.4V734.5H181v14.7Z" class="g0_112"/>
<path fill-rule="evenodd" d="M181,763.9H420.4V749.2H181v14.7Z" class="g0_112"/>
<path fill-rule="evenodd" d="M181,778.5H420.4V763.9H181v14.6Z" class="g0_112"/>
<path fill-rule="evenodd" d="M181,793.2H420.4V778.5H181v14.7Z" class="g0_112"/>
<path fill-rule="evenodd" d="M181.7,807.9H419V793.2H181.7v14.7Z" class="g0_112"/>
<path fill-rule="evenodd" d="M181.7,822.5H419V807.9H181.7v14.6Z" class="g0_112"/>
<path fill-rule="evenodd" d="M181.3,837.3H419.7V822.5H181.3v14.8Z" class="g0_112"/>
<path fill-rule="evenodd" d="M181.3,851.9H419.7V837.3H181.3v14.6Z" class="g0_112"/>
<path fill-rule="evenodd" d="M181.3,867H419.7V851.9H181.3V867Z" class="g0_112"/>
<path fill-rule="evenodd" d="M181.3,881.6H419.7V867H181.3v14.6Z" class="g0_112"/>
<path fill-rule="evenodd" d="M182.1,896.3H420.4V881.6H182.1v14.7Z" class="g0_112"/>
<path fill-rule="evenodd" d="M441.4,161.7H680.1V147.1H441.4v14.6Z" class="g0_112"/>
<path fill-rule="evenodd" d="M441.4,176.4H680.1V161.7H441.4v14.7Z" class="g0_112"/>
<path fill-rule="evenodd" d="M441.4,191.1H680.5V176.4H441.4v14.7Z" class="g0_112"/>
<path fill-rule="evenodd" d="M441.4,205.7H680.5V191.1H441.4v14.6Z" class="g0_112"/>
<path fill-rule="evenodd" d="M441.4,220.4H680.5V205.7H441.4v14.7Z" class="g0_112"/>
<path fill-rule="evenodd" d="M441.4,235.1H680.5V220.4H441.4v14.7Z" class="g0_112"/>
<path fill-rule="evenodd" d="M441.4,249.7H680.5V235.1H441.4v14.6Z" class="g0_112"/>
<path fill-rule="evenodd" d="M441.4,264.4H680.5V249.7H441.4v14.7Z" class="g0_112"/>
<path fill-rule="evenodd" d="M441,279.1H680.1V264.4H441v14.7Z" class="g0_112"/>
<path fill-rule="evenodd" d="M441,293.7H680.1V279.1H441v14.6Z" class="g0_112"/>
<path fill-rule="evenodd" d="M441.4,308.4H680.1V293.7H441.4v14.7Z" class="g0_112"/>
<path fill-rule="evenodd" d="M441.4,323.1H680.1V308.4H441.4v14.7Z" class="g0_112"/>
<path fill-rule="evenodd" d="M441.4,338.1H680.5V323.4H441.4v14.7Z" class="g0_112"/>
<path fill-rule="evenodd" d="M441.4,352.8H680.5V338.1H441.4v14.7Z" class="g0_112"/>
<path fill-rule="evenodd" d="M441.4,367.5H680.5V352.8H441.4v14.7Z" class="g0_112"/>
<path fill-rule="evenodd" d="M441.4,382.5H679.8V367.8H441.4v14.7Z" class="g0_112"/>
<path fill-rule="evenodd" d="M441.4,397.2H679.8V382.5H441.4v14.7Z" class="g0_112"/>
<path fill-rule="evenodd" d="M441.4,411.8H679.8V397.2H441.4v14.6Z" class="g0_112"/>
<path fill-rule="evenodd" d="M441,426.5H679.8V411.8H441v14.7Z" class="g0_112"/>
<path fill-rule="evenodd" d="M441,441.2H679.8V426.5H441v14.7Z" class="g0_112"/>
<path fill-rule="evenodd" d="M459.4,455.8H680.5V441.2H459.4v14.6Z" class="g0_112"/>
<path fill-rule="evenodd" d="M440.3,470.9H679.8V456.2H440.3v14.7Z" class="g0_112"/>
<path fill-rule="evenodd" d="M440.3,485.5H679.8V470.9H440.3v14.6Z" class="g0_112"/>
<path fill-rule="evenodd" d="M440.3,500.2H679.8V485.5H440.3v14.7Z" class="g0_112"/>
<path fill-rule="evenodd" d="M441,514.9H679.4V500.2H441v14.7Z" class="g0_112"/>
<path fill-rule="evenodd" d="M441,529.5H679.4V514.9H441v14.6Z" class="g0_112"/>
<path fill-rule="evenodd" d="M459,544.2H680.5V529.5H459v14.7Z" class="g0_112"/>
<path fill-rule="evenodd" d="M440.6,559.8H679.4V544.9H440.6v14.9Z" class="g0_112"/>
<path fill-rule="evenodd" d="M440.6,574.5H679.4V559.8H440.6v14.7Z" class="g0_112"/>
<path fill-rule="evenodd" d="M459.4,589.1H680.5V574.5H459.4v14.6Z" class="g0_112"/>
<path fill-rule="evenodd" d="M440.6,603.8H679V589.1H440.6v14.7Z" class="g0_112"/>
<path fill-rule="evenodd" d="M440.6,618.5H679V603.8H440.6v14.7Z" class="g0_112"/>
<path fill-rule="evenodd" d="M440.6,633.2H679.4V618.5H440.6v14.7Z" class="g0_112"/>
<path fill-rule="evenodd" d="M440.6,647.8H679.4V633.2H440.6v14.6Z" class="g0_112"/>
<path fill-rule="evenodd" d="M440.6,662.5H679.4V647.8H440.6v14.7Z" class="g0_112"/>
<path fill-rule="evenodd" d="M440.6,677.2H679.4V662.5H440.6v14.7Z" class="g0_112"/>
<path fill-rule="evenodd" d="M441,692.2H679.8V677.5H441v14.7Z" class="g0_112"/>
<path fill-rule="evenodd" d="M441,706.9H679.8V692.2H441v14.7Z" class="g0_112"/>
<path fill-rule="evenodd" d="M440.6,721.9H679.4V707.2H440.6v14.7Z" class="g0_112"/>
<path fill-rule="evenodd" d="M440.6,736.6H679.4V721.9H440.6v14.7Z" class="g0_112"/>
<path fill-rule="evenodd" d="M440.6,751.2H679.4V736.6H440.6v14.6Z" class="g0_112"/>
<path fill-rule="evenodd" d="M440.6,766.3H679.4V751.2H440.6v15.1Z" class="g0_112"/>
<path fill-rule="evenodd" d="M440.6,780.9H679.4V766.3H440.6v14.6Z" class="g0_112"/>
<path fill-rule="evenodd" d="M440.3,795.6H679.8V780.9H440.3v14.7Z" class="g0_112"/>
<path fill-rule="evenodd" d="M440.3,810.3H679.8V795.6H440.3v14.7Z" class="g0_112"/>
<path fill-rule="evenodd" d="M440.3,824.9H679.8V810.3H440.3v14.6Z" class="g0_112"/>
<path fill-rule="evenodd" d="M440.3,839.6H679.8V824.9H440.3v14.7Z" class="g0_112"/>
<path fill-rule="evenodd" d="M440.3,854.3H679.8V839.6H440.3v14.7Z" class="g0_112"/>
<path fill-rule="evenodd" d="M440.3,869H679.8V854.3H440.3V869Z" class="g0_112"/>
<path fill-rule="evenodd" d="M440.3,883.6H679.8V869H440.3v14.6Z" class="g0_112"/>
<path fill-rule="evenodd" d="M440.3,898.3H679.8V883.6H440.3v14.7Z" class="g0_112"/>
<path fill-rule="evenodd" d="M418.3,930.2H681.2V912.6H418.3v17.6Z" class="g0_112"/>
<path d="M429.5,146.7V915.2" class="g1_112"/>
</svg>