<?xml version="1.0" encoding="UTF-8" standalone="no"?>
<!DOCTYPE svg PUBLIC "-//W3C//DTD SVG 1.1//EN"
"http://www.w3.org/Graphics/SVG/1.1/DTD/svg11.dtd">
<svg viewBox="0 0 909 1285" version="1.1" xmlns="http://www.w3.org/2000/svg" xmlns:xlink="http://www.w3.org/1999/xlink">
<defs>
<style type="text/css"><![CDATA[
.g0_208{
fill: #FFFFFF;
}
.g1_208{
fill: none;
stroke: #000000;
stroke-width: 0.381;
stroke-linecap: butt;
stroke-linejoin: round;
}
]]></style>
</defs>
<path fill-rule="evenodd" d="M587.7,125.8h88.4V110H587.7v15.8Z" class="g0_208"/>
<path fill-rule="evenodd" d="M177.3,161h238V146h-238v15Z" class="g0_208"/>
<path fill-rule="evenodd" d="M177.3,176h238V161h-238v15Z" class="g0_208"/>
<path fill-rule="evenodd" d="M177.3,191.1h238V176h-238v15.1Z" class="g0_208"/>
<path fill-rule="evenodd" d="M177.3,206.3h238V191.1h-238v15.2Z" class="g0_208"/>
<path fill-rule="evenodd" d="M176.9,221.3H415.3v-15H176.9v15Z" class="g0_208"/>
<path fill-rule="evenodd" d="M176.9,236.3H415.3v-15H176.9v15Z" class="g0_208"/>
<path fill-rule="evenodd" d="M176.9,251.4H415.3V236.3H176.9v15.1Z" class="g0_208"/>
<path fill-rule="evenodd" d="M176.9,266.4H415.3v-15H176.9v15Z" class="g0_208"/>
<path fill-rule="evenodd" d="M195.3,281.4h220v-15h-220v15Z" class="g0_208"/>
<path fill-rule="evenodd" d="M177.3,296.5h238V281.4h-238v15.1Z" class="g0_208"/>
<path fill-rule="evenodd" d="M176.6,311.5H415.3v-15H176.6v15Z" class="g0_208"/>
<path fill-rule="evenodd" d="M176.6,326.5H415.3v-15H176.6v15Z" class="g0_208"/>
<path fill-rule="evenodd" d="M176.6,341.6H415.3V326.5H176.6v15.1Z" class="g0_208"/>
<path fill-rule="evenodd" d="M176.6,356.7H415.3V341.6H176.6v15.1Z" class="g0_208"/>
<path fill-rule="evenodd" d="M176.6,371.9H415.3V356.7H176.6v15.2Z" class="g0_208"/>
<path fill-rule="evenodd" d="M176.6,386.9H415.3v-15H176.6v15Z" class="g0_208"/>
<path fill-rule="evenodd" d="M176.6,401.9H415.3v-15H176.6v15Z" class="g0_208"/>
<path fill-rule="evenodd" d="M176.6,417H415.3V401.9H176.6V417Z" class="g0_208"/>
<path fill-rule="evenodd" d="M176.9,432H414.6V417H176.9v15Z" class="g0_208"/>
<path fill-rule="evenodd" d="M176.9,447H414.6V432H176.9v15Z" class="g0_208"/>
<path fill-rule="evenodd" d="M176.6,462.1h238V447h-238v15.1Z" class="g0_208"/>
<path fill-rule="evenodd" d="M176.6,477.1h238v-15h-238v15Z" class="g0_208"/>
<path fill-rule="evenodd" d="M175.8,492.1H414.2v-15H175.8v15Z" class="g0_208"/>
<path fill-rule="evenodd" d="M175.8,507.2H414.2V492.1H175.8v15.1Z" class="g0_208"/>
<path fill-rule="evenodd" d="M194.2,522.2H415.3v-15H194.2v15Z" class="g0_208"/>
<path fill-rule="evenodd" d="M175.5,537.2H414.9v-15H175.5v15Z" class="g0_208"/>
<path fill-rule="evenodd" d="M175.5,552.5H414.9V537.2H175.5v15.3Z" class="g0_208"/>
<path fill-rule="evenodd" d="M175.5,567.5H414.9v-15H175.5v15Z" class="g0_208"/>
<path fill-rule="evenodd" d="M175.5,582.5H414.9v-15H175.5v15Z" class="g0_208"/>
<path fill-rule="evenodd" d="M175.5,597.6H414.9V582.5H175.5v15.1Z" class="g0_208"/>
<path fill-rule="evenodd" d="M175.8,612.6H414.2v-15H175.8v15Z" class="g0_208"/>
<path fill-rule="evenodd" d="M175.8,627.7H414.2V612.6H175.8v15.1Z" class="g0_208"/>
<path fill-rule="evenodd" d="M175.5,642.7H414.2v-15H175.5v15Z" class="g0_208"/>
<path fill-rule="evenodd" d="M175.5,657.7H414.2v-15H175.5v15Z" class="g0_208"/>
<path fill-rule="evenodd" d="M175.5,672.8H414.2V657.7H175.5v15.1Z" class="g0_208"/>
<path fill-rule="evenodd" d="M175.1,687.8H413.8v-15H175.1v15Z" class="g0_208"/>
<path fill-rule="evenodd" d="M175.1,702.8H413.8v-15H175.1v15Z" class="g0_208"/>
<path fill-rule="evenodd" d="M175.1,717.9H413.8V702.8H175.1v15.1Z" class="g0_208"/>
<path fill-rule="evenodd" d="M175.5,733.1h238V717.9h-238v15.2Z" class="g0_208"/>
<path fill-rule="evenodd" d="M175.5,748.1h238v-15h-238v15Z" class="g0_208"/>
<path fill-rule="evenodd" d="M175.1,763.1H413.5v-15H175.1v15Z" class="g0_208"/>
<path fill-rule="evenodd" d="M175.1,778.2H413.5V763.1H175.1v15.1Z" class="g0_208"/>
<path fill-rule="evenodd" d="M175.1,793.2H413.5v-15H175.1v15Z" class="g0_208"/>
<path fill-rule="evenodd" d="M175.1,808.2H413.5v-15H175.1v15Z" class="g0_208"/>
<path fill-rule="evenodd" d="M175.1,823.3H413.5V808.2H175.1v15.1Z" class="g0_208"/>
<path fill-rule="evenodd" d="M174.4,838.4H413.8V823.3H174.4v15.1Z" class="g0_208"/>
<path fill-rule="evenodd" d="M174.4,853.4H413.8v-15H174.4v15Z" class="g0_208"/>
<path fill-rule="evenodd" d="M174.4,868.4H413.8v-15H174.4v15Z" class="g0_208"/>
<path fill-rule="evenodd" d="M174.4,883.5H413.8V868.4H174.4v15.1Z" class="g0_208"/>
<path fill-rule="evenodd" d="M176.6,898.5H415.3v-15H176.6v15Z" class="g0_208"/>
<path fill-rule="evenodd" d="M435.9,161.4H675.4V146.3H435.9v15.1Z" class="g0_208"/>
<path fill-rule="evenodd" d="M435.9,176.4H675.4v-15H435.9v15Z" class="g0_208"/>
<path fill-rule="evenodd" d="M435.9,191.6H675.4V176.4H435.9v15.2Z" class="g0_208"/>
<path fill-rule="evenodd" d="M435.9,206.6H675.4v-15H435.9v15Z" class="g0_208"/>
<path fill-rule="evenodd" d="M435.9,221.7H675.4V206.6H435.9v15.1Z" class="g0_208"/>
<path fill-rule="evenodd" d="M435.9,236.7H675.4v-15H435.9v15Z" class="g0_208"/>
<path fill-rule="evenodd" d="M435.9,251.7H675.4v-15H435.9v15Z" class="g0_208"/>
<path fill-rule="evenodd" d="M436.2,266.8H674.6V251.7H436.2v15.1Z" class="g0_208"/>
<path fill-rule="evenodd" d="M436.2,281.8H674.6v-15H436.2v15Z" class="g0_208"/>
<path fill-rule="evenodd" d="M436.2,296.8H674.6v-15H436.2v15Z" class="g0_208"/>
<path fill-rule="evenodd" d="M435.5,311.9H674.6V296.8H435.5v15.1Z" class="g0_208"/>
<path fill-rule="evenodd" d="M435.5,326.9H674.6v-15H435.5v15Z" class="g0_208"/>
<path fill-rule="evenodd" d="M435.5,341.9H674.6v-15H435.5v15Z" class="g0_208"/>
<path fill-rule="evenodd" d="M435.5,357.2H674.6V342H435.5v15.2Z" class="g0_208"/>
<path fill-rule="evenodd" d="M435.5,372.2H674.6v-15H435.5v15Z" class="g0_208"/>
<path fill-rule="evenodd" d="M435.5,387.6H674.3v-15H435.5v15Z" class="g0_208"/>
<path fill-rule="evenodd" d="M435.5,402.7H674.3V387.6H435.5v15.1Z" class="g0_208"/>
<path fill-rule="evenodd" d="M435.9,417.7h238v-15h-238v15Z" class="g0_208"/>
<path fill-rule="evenodd" d="M435.9,432.7h238v-15h-238v15Z" class="g0_208"/>
<path fill-rule="evenodd" d="M435.5,447.8H673.9V432.7H435.5v15.1Z" class="g0_208"/>
<path fill-rule="evenodd" d="M435.5,462.8H673.9v-15H435.5v15Z" class="g0_208"/>
<path fill-rule="evenodd" d="M435.1,478.2H673.9v-15H435.1v15Z" class="g0_208"/>
<path fill-rule="evenodd" d="M435.1,493.2H673.9v-15H435.1v15Z" class="g0_208"/>
<path fill-rule="evenodd" d="M435.1,508.5H673.9V493.2H435.1v15.3Z" class="g0_208"/>
<path fill-rule="evenodd" d="M435.1,523.5H673.5v-15H435.1v15Z" class="g0_208"/>
<path fill-rule="evenodd" d="M435.1,538.5H673.5v-15H435.1v15Z" class="g0_208"/>
<path fill-rule="evenodd" d="M434.4,553.9H673.5v-15H434.4v15Z" class="g0_208"/>
<path fill-rule="evenodd" d="M434.4,569H673.5V553.9H434.4V569Z" class="g0_208"/>
<path fill-rule="evenodd" d="M434.4,584H673.5V569H434.4v15Z" class="g0_208"/>
<path fill-rule="evenodd" d="M435.1,599.1H673.2V584H435.1v15.1Z" class="g0_208"/>
<path fill-rule="evenodd" d="M435.1,614.1H673.2v-15H435.1v15Z" class="g0_208"/>
<path fill-rule="evenodd" d="M434.8,629.1H673.5v-15H434.8v15Z" class="g0_208"/>
<path fill-rule="evenodd" d="M434.8,644.2H673.5V629.1H434.8v15.1Z" class="g0_208"/>
<path fill-rule="evenodd" d="M434,659.2H673.5v-15H434v15Z" class="g0_208"/>
<path fill-rule="evenodd" d="M434,674.4H673.5V659.2H434v15.2Z" class="g0_208"/>
<path fill-rule="evenodd" d="M434,689.4H673.5v-15H434v15Z" class="g0_208"/>
<path fill-rule="evenodd" d="M434,704.5H673.5V689.4H434v15.1Z" class="g0_208"/>
<path fill-rule="evenodd" d="M433.7,719.5H673.2v-15H433.7v15Z" class="g0_208"/>
<path fill-rule="evenodd" d="M433.7,734.5H673.2v-15H433.7v15Z" class="g0_208"/>
<path fill-rule="evenodd" d="M452.4,749.6h223V734.5h-223v15.1Z" class="g0_208"/>
<path fill-rule="evenodd" d="M434,764.6H673.2v-15H434v15Z" class="g0_208"/>
<path fill-rule="evenodd" d="M434,779.6H673.2v-15H434v15Z" class="g0_208"/>
<path fill-rule="evenodd" d="M434,794.7H673.2V779.6H434v15.1Z" class="g0_208"/>
<path fill-rule="evenodd" d="M433.7,809.7H672.8v-15H433.7v15Z" class="g0_208"/>
<path fill-rule="evenodd" d="M433.7,824.7H672.8v-15H433.7v15Z" class="g0_208"/>
<path fill-rule="evenodd" d="M433.7,839.8H672.8V824.7H433.7v15.1Z" class="g0_208"/>
<path fill-rule="evenodd" d="M433.7,855H672.8V839.8H433.7V855Z" class="g0_208"/>
<path fill-rule="evenodd" d="M434,870.4H673.2v-15H434v15Z" class="g0_208"/>
<path fill-rule="evenodd" d="M434,885.5H673.2V870.4H434v15.1Z" class="g0_208"/>
<path d="M423.3,145.6V915.2" class="g1_208"/>
</svg>