<?xml version="1.0" encoding="UTF-8" standalone="no"?>
<!DOCTYPE svg PUBLIC "-//W3C//DTD SVG 1.1//EN"
"http://www.w3.org/Graphics/SVG/1.1/DTD/svg11.dtd">
<svg viewBox="0 0 909 1285" version="1.1" xmlns="http://www.w3.org/2000/svg" xmlns:xlink="http://www.w3.org/1999/xlink">
<defs>
<style type="text/css"><![CDATA[
.g0_267{
fill: #FFFFFF;
}
.g1_267{
fill: none;
stroke: #000000;
stroke-width: 0.381;
stroke-linecap: butt;
stroke-linejoin: round;
}
]]></style>
</defs>
<path fill-rule="evenodd" d="M528.5,131.1H677V110H528.5v21.1Z" class="g0_267"/>
<path fill-rule="evenodd" d="M178.2,167H417.7V152H178.2v15Z" class="g0_267"/>
<path fill-rule="evenodd" d="M178.2,182.3H417.7V167H178.2v15.3Z" class="g0_267"/>
<path fill-rule="evenodd" d="M178.2,197.3H417.7v-15H178.2v15Z" class="g0_267"/>
<path fill-rule="evenodd" d="M178.2,212.3H417.7v-15H178.2v15Z" class="g0_267"/>
<path fill-rule="evenodd" d="M178.2,227.4H417.7V212.3H178.2v15.1Z" class="g0_267"/>
<path fill-rule="evenodd" d="M178.2,242.4H417.7v-15H178.2v15Z" class="g0_267"/>
<path fill-rule="evenodd" d="M178.2,257.4H417.7v-15H178.2v15Z" class="g0_267"/>
<path fill-rule="evenodd" d="M178.2,272.5H417.7V257.4H178.2v15.1Z" class="g0_267"/>
<path fill-rule="evenodd" d="M178.2,287.5H417.7v-15H178.2v15Z" class="g0_267"/>
<path fill-rule="evenodd" d="M178.2,302.5H417.7v-15H178.2v15Z" class="g0_267"/>
<path fill-rule="evenodd" d="M178.2,317.6H417.7V302.5H178.2v15.1Z" class="g0_267"/>
<path fill-rule="evenodd" d="M177.9,332.6H417v-15H177.9v15Z" class="g0_267"/>
<path fill-rule="evenodd" d="M177.9,347.8H417V332.6H177.9v15.2Z" class="g0_267"/>
<path fill-rule="evenodd" d="M178.6,362.9H417.7V347.8H178.6v15.1Z" class="g0_267"/>
<path fill-rule="evenodd" d="M178.6,377.9H417.7v-15H178.6v15Z" class="g0_267"/>
<path fill-rule="evenodd" d="M178.6,393H417.7V377.9H178.6V393Z" class="g0_267"/>
<path fill-rule="evenodd" d="M178.6,408H417.3V393H178.6v15Z" class="g0_267"/>
<path fill-rule="evenodd" d="M178.6,423H417.3V408H178.6v15Z" class="g0_267"/>
<path fill-rule="evenodd" d="M178.6,438.1H417.3V423H178.6v15.1Z" class="g0_267"/>
<path fill-rule="evenodd" d="M178.6,453.1H417.3v-15H178.6v15Z" class="g0_267"/>
<path fill-rule="evenodd" d="M178.6,468.1H417.3v-15H178.6v15Z" class="g0_267"/>
<path fill-rule="evenodd" d="M178.6,483.2H417.3V468.1H178.6v15.1Z" class="g0_267"/>
<path fill-rule="evenodd" d="M178.6,498.2H417.3v-15H178.6v15Z" class="g0_267"/>
<path fill-rule="evenodd" d="M196.2,513.2H417.7v-15H196.2v15Z" class="g0_267"/>
<path fill-rule="evenodd" d="M177.9,528.4H417.7V513.2H177.9v15.2Z" class="g0_267"/>
<path fill-rule="evenodd" d="M177.9,543.5H417.7V528.4H177.9v15.1Z" class="g0_267"/>
<path fill-rule="evenodd" d="M196.6,558.5H417.7v-15H196.6v15Z" class="g0_267"/>
<path fill-rule="evenodd" d="M177.9,573.5H417.7v-15H177.9v15Z" class="g0_267"/>
<path fill-rule="evenodd" d="M177.9,588.6H417.7V573.5H177.9v15.1Z" class="g0_267"/>
<path fill-rule="evenodd" d="M177.5,603.6H416.2v-15H177.5v15Z" class="g0_267"/>
<path fill-rule="evenodd" d="M177.5,618.7H416.2V603.6H177.5v15.1Z" class="g0_267"/>
<path fill-rule="evenodd" d="M178.2,633.7H416.6v-15H178.2v15Z" class="g0_267"/>
<path fill-rule="evenodd" d="M178.2,648.7H416.6v-15H178.2v15Z" class="g0_267"/>
<path fill-rule="evenodd" d="M177.9,663.8H417V648.7H177.9v15.1Z" class="g0_267"/>
<path fill-rule="evenodd" d="M177.9,678.8H417v-15H177.9v15Z" class="g0_267"/>
<path fill-rule="evenodd" d="M177.9,693.8H417v-15H177.9v15Z" class="g0_267"/>
<path fill-rule="evenodd" d="M177.9,709.1H417V693.8H177.9v15.3Z" class="g0_267"/>
<path fill-rule="evenodd" d="M177.9,724.1H417v-15H177.9v15Z" class="g0_267"/>
<path fill-rule="evenodd" d="M177.9,739.1H417v-15H177.9v15Z" class="g0_267"/>
<path fill-rule="evenodd" d="M177.9,754.2H416.6V739.1H177.9v15.1Z" class="g0_267"/>
<path fill-rule="evenodd" d="M177.9,769.2H416.6v-15H177.9v15Z" class="g0_267"/>
<path fill-rule="evenodd" d="M177.9,784.2H416.6v-15H177.9v15Z" class="g0_267"/>
<path fill-rule="evenodd" d="M177.9,799.3H416.2V784.2H177.9v15.1Z" class="g0_267"/>
<path fill-rule="evenodd" d="M177.9,814.3H416.2v-15H177.9v15Z" class="g0_267"/>
<path fill-rule="evenodd" d="M177.9,829.3H416.2v-15H177.9v15Z" class="g0_267"/>
<path fill-rule="evenodd" d="M177.9,844.4H416.6V829.3H177.9v15.1Z" class="g0_267"/>
<path fill-rule="evenodd" d="M177.9,859.4H416.6v-15H177.9v15Z" class="g0_267"/>
<path fill-rule="evenodd" d="M177.9,874.5H416.6V859.4H177.9v15.1Z" class="g0_267"/>
<path fill-rule="evenodd" d="M177.9,889.7H416.6V874.5H177.9v15.2Z" class="g0_267"/>
<path fill-rule="evenodd" d="M196.6,904.7H417.7v-15H196.6v15Z" class="g0_267"/>
<path fill-rule="evenodd" d="M455.7,167H676.8V152H455.7v15Z" class="g0_267"/>
<path fill-rule="evenodd" d="M438.1,182.3H676.8V167H438.1v15.3Z" class="g0_267"/>
<path fill-rule="evenodd" d="M437.3,197.7H676.5V182.6H437.3v15.1Z" class="g0_267"/>
<path fill-rule="evenodd" d="M437.3,212.7H676.5v-15H437.3v15Z" class="g0_267"/>
<path fill-rule="evenodd" d="M437.3,227.7H676.8v-15H437.3v15Z" class="g0_267"/>
<path fill-rule="evenodd" d="M437.3,242.8H676.8V227.7H437.3v15.1Z" class="g0_267"/>
<path fill-rule="evenodd" d="M437.3,257.8H676.8v-15H437.3v15Z" class="g0_267"/>
<path fill-rule="evenodd" d="M437.7,272.8H624v-15H437.7v15Z" class="g0_267"/>
<path fill-rule="evenodd" d="M437.7,287.9H624V272.8H437.7v15.1Z" class="g0_267"/>
<path fill-rule="evenodd" d="M437.7,302.9H676.8v-15H437.7v15Z" class="g0_267"/>
<path fill-rule="evenodd" d="M437.7,317.9H676.8v-15H437.7v15Z" class="g0_267"/>
<path fill-rule="evenodd" d="M437.7,333.1H676.8V317.9H437.7v15.2Z" class="g0_267"/>
<path fill-rule="evenodd" d="M437.7,348.2H676.8V333.1H437.7v15.1Z" class="g0_267"/>
<path fill-rule="evenodd" d="M437.3,363.3H676.5V348.2H437.3v15.1Z" class="g0_267"/>
<path fill-rule="evenodd" d="M437.3,378.3H676.5v-15H437.3v15Z" class="g0_267"/>
<path fill-rule="evenodd" d="M437.3,393.3H676.5v-15H437.3v15Z" class="g0_267"/>
<path fill-rule="evenodd" d="M437.3,408.4H676.5V393.3H437.3v15.1Z" class="g0_267"/>
<path fill-rule="evenodd" d="M437.3,423.4H676.5v-15H437.3v15Z" class="g0_267"/>
<path fill-rule="evenodd" d="M437.3,438.4H676.5v-15H437.3v15Z" class="g0_267"/>
<path fill-rule="evenodd" d="M437.3,453.5H676.5V438.4H437.3v15.1Z" class="g0_267"/>
<path fill-rule="evenodd" d="M437.3,468.5H676.5v-15H437.3v15Z" class="g0_267"/>
<path fill-rule="evenodd" d="M437,483.5H675.7v-15H437v15Z" class="g0_267"/>
<path fill-rule="evenodd" d="M437,498.6H675.7V483.5H437v15.1Z" class="g0_267"/>
<path fill-rule="evenodd" d="M437,513.8H675.7V498.6H437v15.2Z" class="g0_267"/>
<path fill-rule="evenodd" d="M437,528.8H676.1v-15H437v15Z" class="g0_267"/>
<path fill-rule="evenodd" d="M437,543.8H676.1v-15H437v15Z" class="g0_267"/>
<path fill-rule="evenodd" d="M455.3,558.9H676.8V543.8H455.3v15.1Z" class="g0_267"/>
<path fill-rule="evenodd" d="M437.3,573.9H675.7v-15H437.3v15Z" class="g0_267"/>
<path fill-rule="evenodd" d="M437.3,588.9H675.7v-15H437.3v15Z" class="g0_267"/>
<path fill-rule="evenodd" d="M437,604H676.1V588.9H437V604Z" class="g0_267"/>
<path fill-rule="evenodd" d="M437,619H676.1V604H437v15Z" class="g0_267"/>
<path fill-rule="evenodd" d="M437,634.1H676.1V619H437v15.1Z" class="g0_267"/>
<path fill-rule="evenodd" d="M455.3,649.5H676.8V634.4H455.3v15.1Z" class="g0_267"/>
<path fill-rule="evenodd" d="M437.3,664.5H675.4v-15H437.3v15Z" class="g0_267"/>
<path fill-rule="evenodd" d="M437.3,679.7H675.4V664.5H437.3v15.2Z" class="g0_267"/>
<path fill-rule="evenodd" d="M436.6,694.8H675.4V679.7H436.6v15.1Z" class="g0_267"/>
<path fill-rule="evenodd" d="M437,709.8H675.4v-15H437v15Z" class="g0_267"/>
<path fill-rule="evenodd" d="M437,724.8H675.4v-15H437v15Z" class="g0_267"/>
<path fill-rule="evenodd" d="M454.6,739.9H676.8V724.8H454.6v15.1Z" class="g0_267"/>
<path fill-rule="evenodd" d="M454.6,754.9H676.8v-15H454.6v15Z" class="g0_267"/>
<path fill-rule="evenodd" d="M436.6,769.9H676.8v-15H436.6v15Z" class="g0_267"/>
<path fill-rule="evenodd" d="M436.6,785H676.8V769.9H436.6V785Z" class="g0_267"/>
<path fill-rule="evenodd" d="M436.6,800H676.8V785H436.6v15Z" class="g0_267"/>
<path fill-rule="evenodd" d="M436.6,815H676.8V800H436.6v15Z" class="g0_267"/>
<path fill-rule="evenodd" d="M437,830.1H675.7V815H437v15.1Z" class="g0_267"/>
<path fill-rule="evenodd" d="M437,845.1H675.7v-15H437v15Z" class="g0_267"/>
<path fill-rule="evenodd" d="M437,860.4H675.7V845.1H437v15.3Z" class="g0_267"/>
<path fill-rule="evenodd" d="M437.3,875.4H624v-15H437.3v15Z" class="g0_267"/>
<path fill-rule="evenodd" d="M437.3,890.4H624v-15H437.3v15Z" class="g0_267"/>
<path fill-rule="evenodd" d="M413.7,922.7H677V905.1H413.7v17.6Z" class="g0_267"/>
<path d="M426,151.3V920.9" class="g1_267"/>
</svg>