<?xml version="1.0" encoding="UTF-8" standalone="no"?>
<!DOCTYPE svg PUBLIC "-//W3C//DTD SVG 1.1//EN"
"http://www.w3.org/Graphics/SVG/1.1/DTD/svg11.dtd">
<svg viewBox="0 0 909 1285" version="1.1" xmlns="http://www.w3.org/2000/svg" xmlns:xlink="http://www.w3.org/1999/xlink">
<defs>
<style type="text/css"><![CDATA[
.g0_286{
fill: #FFFFFF;
}
.g1_286{
fill: none;
stroke: #000000;
stroke-width: 0.381;
stroke-linecap: butt;
stroke-linejoin: round;
}
]]></style>
</defs>
<path fill-rule="evenodd" d="M608,125.8h87V110H608v15.8Z" class="g0_286"/>
<path fill-rule="evenodd" d="M194,161.7H433.8v-15H194v15Z" class="g0_286"/>
<path fill-rule="evenodd" d="M194,176.9H433.8V161.7H194v15.2Z" class="g0_286"/>
<path fill-rule="evenodd" d="M194,192H433.8V176.9H194V192Z" class="g0_286"/>
<path fill-rule="evenodd" d="M212.7,207H433.8V192H212.7v15Z" class="g0_286"/>
<path fill-rule="evenodd" d="M194.4,222H433.5V207H194.4v15Z" class="g0_286"/>
<path fill-rule="evenodd" d="M194.4,237.1H433.5V222H194.4v15.1Z" class="g0_286"/>
<path fill-rule="evenodd" d="M194.4,252.1H433.5v-15H194.4v15Z" class="g0_286"/>
<path fill-rule="evenodd" d="M194.4,267.1H433.5v-15H194.4v15Z" class="g0_286"/>
<path fill-rule="evenodd" d="M194.4,282.2H433.5V267.1H194.4v15.1Z" class="g0_286"/>
<path fill-rule="evenodd" d="M194,297.2H433.8v-15H194v15Z" class="g0_286"/>
<path fill-rule="evenodd" d="M194,312.2H433.8v-15H194v15Z" class="g0_286"/>
<path fill-rule="evenodd" d="M194,327.3H433.8V312.2H194v15.1Z" class="g0_286"/>
<path fill-rule="evenodd" d="M194,342.5H433.8V327.3H194v15.2Z" class="g0_286"/>
<path fill-rule="evenodd" d="M194,357.6H433.8V342.5H194v15.1Z" class="g0_286"/>
<path fill-rule="evenodd" d="M194,372.6H433.8v-15H194v15Z" class="g0_286"/>
<path fill-rule="evenodd" d="M194,387.6H433.8v-15H194v15Z" class="g0_286"/>
<path fill-rule="evenodd" d="M194,402.7H433.8V387.6H194v15.1Z" class="g0_286"/>
<path fill-rule="evenodd" d="M194,417.7H432.7v-15H194v15Z" class="g0_286"/>
<path fill-rule="evenodd" d="M194,432.7H432.7v-15H194v15Z" class="g0_286"/>
<path fill-rule="evenodd" d="M212.3,447.8H433.8V432.7H212.3v15.1Z" class="g0_286"/>
<path fill-rule="evenodd" d="M212.3,463.2H433.8V447.8H212.3v15.4Z" class="g0_286"/>
<path fill-rule="evenodd" d="M212.3,478.2H433.8v-15H212.3v15Z" class="g0_286"/>
<path fill-rule="evenodd" d="M212,493.2H433.8v-15H212v15Z" class="g0_286"/>
<path fill-rule="evenodd" d="M212.3,508.5H433.8V493.2H212.3v15.3Z" class="g0_286"/>
<path fill-rule="evenodd" d="M194,523.5H433.5v-15H194v15Z" class="g0_286"/>
<path fill-rule="evenodd" d="M194,538.5H433.5v-15H194v15Z" class="g0_286"/>
<path fill-rule="evenodd" d="M193.6,553.6H433.1V538.5H193.6v15.1Z" class="g0_286"/>
<path fill-rule="evenodd" d="M193.6,568.6H433.1v-15H193.6v15Z" class="g0_286"/>
<path fill-rule="evenodd" d="M193.6,583.6H433.1v-15H193.6v15Z" class="g0_286"/>
<path fill-rule="evenodd" d="M194,598.7H432.7V583.6H194v15.1Z" class="g0_286"/>
<path fill-rule="evenodd" d="M194,613.7H432.7v-15H194v15Z" class="g0_286"/>
<path fill-rule="evenodd" d="M194,628.8H432.7V613.7H194v15.1Z" class="g0_286"/>
<path fill-rule="evenodd" d="M194,643.8H432.7v-15H194v15Z" class="g0_286"/>
<path fill-rule="evenodd" d="M193.6,658.8H432.4v-15H193.6v15Z" class="g0_286"/>
<path fill-rule="evenodd" d="M193.6,673.9H432.4V658.8H193.6v15.1Z" class="g0_286"/>
<path fill-rule="evenodd" d="M194,689.1H432.4V673.9H194v15.2Z" class="g0_286"/>
<path fill-rule="evenodd" d="M194,704.1H432.4v-15H194v15Z" class="g0_286"/>
<path fill-rule="evenodd" d="M193.3,719.1H433.5v-15H193.3v15Z" class="g0_286"/>
<path fill-rule="evenodd" d="M193.3,734.2H433.5V719.1H193.3v15.1Z" class="g0_286"/>
<path fill-rule="evenodd" d="M193.3,749.2H433.5v-15H193.3v15Z" class="g0_286"/>
<path fill-rule="evenodd" d="M193.3,764.2H433.5v-15H193.3v15Z" class="g0_286"/>
<path fill-rule="evenodd" d="M193.3,779.3H433.1V764.2H193.3v15.1Z" class="g0_286"/>
<path fill-rule="evenodd" d="M193.3,794.3H433.1v-15H193.3v15Z" class="g0_286"/>
<path fill-rule="evenodd" d="M193.3,809.3H433.1v-15H193.3v15Z" class="g0_286"/>
<path fill-rule="evenodd" d="M193.3,824.4H433.1V809.3H193.3v15.1Z" class="g0_286"/>
<path fill-rule="evenodd" d="M193.3,839.5H433.1V824.4H193.3v15.1Z" class="g0_286"/>
<path fill-rule="evenodd" d="M193.6,854.5H433.1v-15H193.6v15Z" class="g0_286"/>
<path fill-rule="evenodd" d="M193.6,869.7H433.1V854.5H193.6v15.2Z" class="g0_286"/>
<path fill-rule="evenodd" d="M193.6,884.7H433.1v-15H193.6v15Z" class="g0_286"/>
<path fill-rule="evenodd" d="M193.6,899.8H433.1V884.7H193.6v15.1Z" class="g0_286"/>
<path fill-rule="evenodd" d="M194,914.8H433.8v-15H194v15Z" class="g0_286"/>
<path fill-rule="evenodd" d="M454,161.4H695V146.3H454v15.1Z" class="g0_286"/>
<path fill-rule="evenodd" d="M454,176.4H695v-15H454v15Z" class="g0_286"/>
<path fill-rule="evenodd" d="M454.4,191.6H694.2V176.4H454.4v15.2Z" class="g0_286"/>
<path fill-rule="evenodd" d="M454.4,206.6H694.2v-15H454.4v15Z" class="g0_286"/>
<path fill-rule="evenodd" d="M454.4,221.7H694.2V206.6H454.4v15.1Z" class="g0_286"/>
<path fill-rule="evenodd" d="M454.4,236.7H694.2v-15H454.4v15Z" class="g0_286"/>
<path fill-rule="evenodd" d="M454.4,251.7H694.2v-15H454.4v15Z" class="g0_286"/>
<path fill-rule="evenodd" d="M454.4,266.8H694.2V251.7H454.4v15.1Z" class="g0_286"/>
<path fill-rule="evenodd" d="M454.4,281.8H694.2v-15H454.4v15Z" class="g0_286"/>
<path fill-rule="evenodd" d="M453.7,296.8H694.6v-15H453.7v15Z" class="g0_286"/>
<path fill-rule="evenodd" d="M453.7,311.9H694.6V296.8H453.7v15.1Z" class="g0_286"/>
<path fill-rule="evenodd" d="M453.7,326.9H694.6v-15H453.7v15Z" class="g0_286"/>
<path fill-rule="evenodd" d="M472.7,341.9H695v-15H472.7v15Z" class="g0_286"/>
<path fill-rule="evenodd" d="M454,357.2H694.6V342H454v15.2Z" class="g0_286"/>
<path fill-rule="evenodd" d="M454,372.2H694.6v-15H454v15Z" class="g0_286"/>
<path fill-rule="evenodd" d="M472.7,387.3H695V372.2H472.7v15.1Z" class="g0_286"/>
<path fill-rule="evenodd" d="M472.4,402.3H695v-15H472.4v15Z" class="g0_286"/>
<path fill-rule="evenodd" d="M472.4,417.3H695v-15H472.4v15Z" class="g0_286"/>
<path fill-rule="evenodd" d="M453.7,432.4H693.9V417.3H453.7v15.1Z" class="g0_286"/>
<path fill-rule="evenodd" d="M453.7,447.4H693.9v-15H453.7v15Z" class="g0_286"/>
<path fill-rule="evenodd" d="M453.3,462.4H694.2v-15H453.3v15Z" class="g0_286"/>
<path fill-rule="evenodd" d="M453.3,477.5H694.2V462.4H453.3v15.1Z" class="g0_286"/>
<path fill-rule="evenodd" d="M453.3,492.5H694.2v-15H453.3v15Z" class="g0_286"/>
<path fill-rule="evenodd" d="M453.3,507.5H694.2v-15H453.3v15Z" class="g0_286"/>
<path fill-rule="evenodd" d="M453.3,522.6H694.2V507.5H453.3v15.1Z" class="g0_286"/>
<path fill-rule="evenodd" d="M453.3,537.8H693.9V522.6H453.3v15.2Z" class="g0_286"/>
<path fill-rule="evenodd" d="M453.3,552.8H693.9v-15H453.3v15Z" class="g0_286"/>
<path fill-rule="evenodd" d="M453.3,567.9H693.9V552.8H453.3v15.1Z" class="g0_286"/>
<path fill-rule="evenodd" d="M453.3,582.9H693.9v-15H453.3v15Z" class="g0_286"/>
<path fill-rule="evenodd" d="M453.3,598H693.9V582.9H453.3V598Z" class="g0_286"/>
<path fill-rule="evenodd" d="M454,613H693.5V598H454v15Z" class="g0_286"/>
<path fill-rule="evenodd" d="M454,628H693.5V613H454v15Z" class="g0_286"/>
<path fill-rule="evenodd" d="M472,643.4H695v-15H472v15Z" class="g0_286"/>
<path fill-rule="evenodd" d="M453.7,658.5H693.5V643.4H453.7v15.1Z" class="g0_286"/>
<path fill-rule="evenodd" d="M453.7,673.5H693.5v-15H453.7v15Z" class="g0_286"/>
<path fill-rule="evenodd" d="M453.7,688.5H693.5v-15H453.7v15Z" class="g0_286"/>
<path fill-rule="evenodd" d="M453.7,703.7H693.5V688.5H453.7v15.2Z" class="g0_286"/>
<path fill-rule="evenodd" d="M453.7,718.8H693.5V703.7H453.7v15.1Z" class="g0_286"/>
<path fill-rule="evenodd" d="M453.7,733.8H693.5v-15H453.7v15Z" class="g0_286"/>
<path fill-rule="evenodd" d="M453.3,748.8H693.9v-15H453.3v15Z" class="g0_286"/>
<path fill-rule="evenodd" d="M453.3,763.9H693.9V748.8H453.3v15.1Z" class="g0_286"/>
<path fill-rule="evenodd" d="M453.3,778.9H693.9v-15H453.3v15Z" class="g0_286"/>
<path fill-rule="evenodd" d="M453.3,793.9H693.9v-15H453.3v15Z" class="g0_286"/>
<path fill-rule="evenodd" d="M454,809H693.5V793.9H454V809Z" class="g0_286"/>
<path fill-rule="evenodd" d="M454,824H693.5V809H454v15Z" class="g0_286"/>
<path fill-rule="evenodd" d="M454,839.1H693.5V824H454v15.1Z" class="g0_286"/>
<path fill-rule="evenodd" d="M472,854.1H695v-15H472v15Z" class="g0_286"/>
<path fill-rule="evenodd" d="M453.7,869.2H693.9V854.1H453.7v15.1Z" class="g0_286"/>
<path fill-rule="evenodd" d="M453.7,884.4H693.9V869.2H453.7v15.2Z" class="g0_286"/>
<path fill-rule="evenodd" d="M453.7,899.4H693.9v-15H453.7v15Z" class="g0_286"/>
<path d="M442.2,146.4V914.5" class="g1_286"/>
</svg>