<?xml version="1.0" encoding="UTF-8" standalone="no"?>
<!DOCTYPE svg PUBLIC "-//W3C//DTD SVG 1.1//EN"
"http://www.w3.org/Graphics/SVG/1.1/DTD/svg11.dtd">
<svg viewBox="0 0 909 1285" version="1.1" xmlns="http://www.w3.org/2000/svg" xmlns:xlink="http://www.w3.org/1999/xlink">
<defs>
<style type="text/css"><![CDATA[
.g0_62{
fill: #FFFFFF;
}
.g1_62{
fill: none;
stroke: #000000;
stroke-width: 0.381;
stroke-linecap: butt;
stroke-linejoin: round;
}
]]></style>
</defs>
<path fill-rule="evenodd" d="M174.4,125.8H677.6V110H174.4v15.8Z" class="g0_62"/>
<path fill-rule="evenodd" d="M397.4,177.5H677.6V152.6H397.4v24.9Z" class="g0_62"/>
<path fill-rule="evenodd" d="M176.2,216H415.7V201.3H176.2V216Z" class="g0_62"/>
<path fill-rule="evenodd" d="M176.2,230.7H415.7V216H176.2v14.7Z" class="g0_62"/>
<path fill-rule="evenodd" d="M176.6,245.3H415.7V230.7H176.6v14.6Z" class="g0_62"/>
<path fill-rule="evenodd" d="M176.6,260H415.7V245.3H176.6V260Z" class="g0_62"/>
<path fill-rule="evenodd" d="M176.6,274.7H415.7V260H176.6v14.7Z" class="g0_62"/>
<path fill-rule="evenodd" d="M194.2,289.3H415.7V274.7H194.2v14.6Z" class="g0_62"/>
<path fill-rule="evenodd" d="M176.2,304.4H415.7V289.7H176.2v14.7Z" class="g0_62"/>
<path fill-rule="evenodd" d="M176.2,319H415.7V304.4H176.2V319Z" class="g0_62"/>
<path fill-rule="evenodd" d="M176.2,333.7H415.7V319H176.2v14.7Z" class="g0_62"/>
<path fill-rule="evenodd" d="M176.2,348.4H415.3V333.7H176.2v14.7Z" class="g0_62"/>
<path fill-rule="evenodd" d="M176.2,363.1H415.3V348.4H176.2v14.7Z" class="g0_62"/>
<path fill-rule="evenodd" d="M176.2,377.7H415.3V363.1H176.2v14.6Z" class="g0_62"/>
<path fill-rule="evenodd" d="M175.8,392.4H415.3V377.7H175.8v14.7Z" class="g0_62"/>
<path fill-rule="evenodd" d="M175.8,407.1H415.3V392.4H175.8v14.7Z" class="g0_62"/>
<path fill-rule="evenodd" d="M175.5,421.7H415.7V407.1H175.5v14.6Z" class="g0_62"/>
<path fill-rule="evenodd" d="M175.5,436.4H415.7V421.7H175.5v14.7Z" class="g0_62"/>
<path fill-rule="evenodd" d="M175.5,451.1H415.7V436.4H175.5v14.7Z" class="g0_62"/>
<path fill-rule="evenodd" d="M175.5,465.7H415.7V451.1H175.5v14.6Z" class="g0_62"/>
<path fill-rule="evenodd" d="M175.5,480.4H415.7V465.7H175.5v14.7Z" class="g0_62"/>
<path fill-rule="evenodd" d="M175.5,495.1H414.9V480.4H175.5v14.7Z" class="g0_62"/>
<path fill-rule="evenodd" d="M175.5,509.7H414.9V495.1H175.5v14.6Z" class="g0_62"/>
<path fill-rule="evenodd" d="M175.1,524.4H415.7V509.7H175.1v14.7Z" class="g0_62"/>
<path fill-rule="evenodd" d="M175.1,539.1H415.7V524.4H175.1v14.7Z" class="g0_62"/>
<path fill-rule="evenodd" d="M175.1,553.7H415.7V539.1H175.1v14.6Z" class="g0_62"/>
<path fill-rule="evenodd" d="M175.1,568.4H415.7V553.7H175.1v14.7Z" class="g0_62"/>
<path fill-rule="evenodd" d="M175.1,583.1H415.7V568.4H175.1v14.7Z" class="g0_62"/>
<path fill-rule="evenodd" d="M175.1,597.8H415.7V583.1H175.1v14.7Z" class="g0_62"/>
<path fill-rule="evenodd" d="M174.7,612.8H414.6V598.1H174.7v14.7Z" class="g0_62"/>
<path fill-rule="evenodd" d="M174.7,627.5H414.6V612.8H174.7v14.7Z" class="g0_62"/>
<path fill-rule="evenodd" d="M174.7,642.5H413.8V627.8H174.7v14.7Z" class="g0_62"/>
<path fill-rule="evenodd" d="M174.7,657.2H413.8V642.5H174.7v14.7Z" class="g0_62"/>
<path fill-rule="evenodd" d="M174.7,671.8H413.8V657.2H174.7v14.6Z" class="g0_62"/>
<path fill-rule="evenodd" d="M174.7,686.5H414.6V671.8H174.7v14.7Z" class="g0_62"/>
<path fill-rule="evenodd" d="M174.7,701.2H414.6V686.5H174.7v14.7Z" class="g0_62"/>
<path fill-rule="evenodd" d="M174.7,715.8H414.6V701.2H174.7v14.6Z" class="g0_62"/>
<path fill-rule="evenodd" d="M174.7,730.5H414.2V715.8H174.7v14.7Z" class="g0_62"/>
<path fill-rule="evenodd" d="M174.7,745.2H414.2V730.5H174.7v14.7Z" class="g0_62"/>
<path fill-rule="evenodd" d="M174.4,759.8H414.6V745.2H174.4v14.6Z" class="g0_62"/>
<path fill-rule="evenodd" d="M174.4,774.5H414.6V759.8H174.4v14.7Z" class="g0_62"/>
<path fill-rule="evenodd" d="M174.4,789.2H414.6V774.5H174.4v14.7Z" class="g0_62"/>
<path fill-rule="evenodd" d="M174.4,803.8H414.6V789.2H174.4v14.6Z" class="g0_62"/>
<path fill-rule="evenodd" d="M174.4,818.5H414.6V803.8H174.4v14.7Z" class="g0_62"/>
<path fill-rule="evenodd" d="M174.4,833.2H414.6V818.5H174.4v14.7Z" class="g0_62"/>
<path fill-rule="evenodd" d="M174.4,847.9H414.6V833.2H174.4v14.7Z" class="g0_62"/>
<path fill-rule="evenodd" d="M174.4,862.6H414.6V847.9H174.4v14.7Z" class="g0_62"/>
<path fill-rule="evenodd" d="M174.7,877.2H414.2V862.6H174.7v14.6Z" class="g0_62"/>
<path fill-rule="evenodd" d="M174.7,891.9H414.2V877.2H174.7v14.7Z" class="g0_62"/>
<path fill-rule="evenodd" d="M174.7,906.6H414.2V891.9H174.7v14.7Z" class="g0_62"/>
<path fill-rule="evenodd" d="M176.2,921.6H415.3v-15H176.2v15Z" class="g0_62"/>
<path fill-rule="evenodd" d="M437,215.6H677.2v-15H437v15Z" class="g0_62"/>
<path fill-rule="evenodd" d="M437,230.7H677.2V215.6H437v15.1Z" class="g0_62"/>
<path fill-rule="evenodd" d="M437,245.7H677.6v-15H437v15Z" class="g0_62"/>
<path fill-rule="evenodd" d="M436.2,260.7h241v-15h-241v15Z" class="g0_62"/>
<path fill-rule="evenodd" d="M436.2,275.8h241V260.7h-241v15.1Z" class="g0_62"/>
<path fill-rule="evenodd" d="M436.2,290.8h241v-15h-241v15Z" class="g0_62"/>
<path fill-rule="evenodd" d="M436.2,305.8H677.6v-15H436.2v15Z" class="g0_62"/>
<path fill-rule="evenodd" d="M436.2,320.9H677.6V305.8H436.2v15.1Z" class="g0_62"/>
<path fill-rule="evenodd" d="M436.2,336.1H677.6V320.9H436.2v15.2Z" class="g0_62"/>
<path fill-rule="evenodd" d="M436.2,351.1H677.6v-15H436.2v15Z" class="g0_62"/>
<path fill-rule="evenodd" d="M436.6,366.2H676.5V351.1H436.6v15.1Z" class="g0_62"/>
<path fill-rule="evenodd" d="M436.6,381.2H676.5v-15H436.6v15Z" class="g0_62"/>
<path fill-rule="evenodd" d="M436.2,396.3H675.7V381.2H436.2v15.1Z" class="g0_62"/>
<path fill-rule="evenodd" d="M436.2,411.3H675.7v-15H436.2v15Z" class="g0_62"/>
<path fill-rule="evenodd" d="M435.9,426.3H676.5v-15H435.9v15Z" class="g0_62"/>
<path fill-rule="evenodd" d="M435.9,441.4H676.5V426.3H435.9v15.1Z" class="g0_62"/>
<path fill-rule="evenodd" d="M435.9,456.4H676.5v-15H435.9v15Z" class="g0_62"/>
<path fill-rule="evenodd" d="M435.9,471.4H676.5v-15H435.9v15Z" class="g0_62"/>
<path fill-rule="evenodd" d="M435.9,486.5H676.5V471.4H435.9v15.1Z" class="g0_62"/>
<path fill-rule="evenodd" d="M435.9,501.5H676.5v-15H435.9v15Z" class="g0_62"/>
<path fill-rule="evenodd" d="M435.5,516.7H676.1V501.5H435.5v15.2Z" class="g0_62"/>
<path fill-rule="evenodd" d="M435.5,531.7H676.1v-15H435.5v15Z" class="g0_62"/>
<path fill-rule="evenodd" d="M435.5,546.8H676.1V531.7H435.5v15.1Z" class="g0_62"/>
<path fill-rule="evenodd" d="M435.5,561.8H676.1v-15H435.5v15Z" class="g0_62"/>
<path fill-rule="evenodd" d="M435.5,576.8H676.1v-15H435.5v15Z" class="g0_62"/>
<path fill-rule="evenodd" d="M435.5,591.9H676.1V576.8H435.5v15.1Z" class="g0_62"/>
<path fill-rule="evenodd" d="M435.1,606.9H675.4v-15H435.1v15Z" class="g0_62"/>
<path fill-rule="evenodd" d="M435.1,622H675.4V606.9H435.1V622Z" class="g0_62"/>
<path fill-rule="evenodd" d="M435.5,637H675.7V622H435.5v15Z" class="g0_62"/>
<path fill-rule="evenodd" d="M435.5,652H675.7V637H435.5v15Z" class="g0_62"/>
<path fill-rule="evenodd" d="M435.5,667.1H675.4V652H435.5v15.1Z" class="g0_62"/>
<path fill-rule="evenodd" d="M435.5,682.1H675.4v-15H435.5v15Z" class="g0_62"/>
<path fill-rule="evenodd" d="M435.1,697.3H675.4V682.1H435.1v15.2Z" class="g0_62"/>
<path fill-rule="evenodd" d="M435.1,712.4H675.4V697.3H435.1v15.1Z" class="g0_62"/>
<path fill-rule="evenodd" d="M435.1,727.4H675.4v-15H435.1v15Z" class="g0_62"/>
<path fill-rule="evenodd" d="M435.1,742.4H675.4v-15H435.1v15Z" class="g0_62"/>
<path fill-rule="evenodd" d="M436.6,757.5h241V742.4h-241v15.1Z" class="g0_62"/>
<path fill-rule="evenodd" d="M435.1,772.5H677.6v-15H435.1v15Z" class="g0_62"/>
<path fill-rule="evenodd" d="M435.1,787.5H677.6v-15H435.1v15Z" class="g0_62"/>
<path fill-rule="evenodd" d="M435.1,802.6H677.6V787.5H435.1v15.1Z" class="g0_62"/>
<path fill-rule="evenodd" d="M435.1,817.6H675v-15H435.1v15Z" class="g0_62"/>
<path fill-rule="evenodd" d="M435.1,832.7H675V817.6H435.1v15.1Z" class="g0_62"/>
<path fill-rule="evenodd" d="M435.1,847.7H675v-15H435.1v15Z" class="g0_62"/>
<path fill-rule="evenodd" d="M435.1,862.7H675v-15H435.1v15Z" class="g0_62"/>
<path fill-rule="evenodd" d="M435.1,878H675V862.7H435.1V878Z" class="g0_62"/>
<path fill-rule="evenodd" d="M435.1,893H675V878H435.1v15Z" class="g0_62"/>
<path fill-rule="evenodd" d="M435.1,908H675V893H435.1v15Z" class="g0_62"/>
<path fill-rule="evenodd" d="M174.7,937H323.3V921.2H174.7V937Z" class="g0_62"/>
<path fill-rule="evenodd" d="M174.7,954.6H323.3V937H174.7v17.6Z" class="g0_62"/>
<path fill-rule="evenodd" d="M416.2,937.4h59.5V919.8H416.2v17.6Z" class="g0_62"/>
<path d="M424,200.1V902.3" class="g1_62"/>
</svg>