<?xml version="1.0" encoding="UTF-8" standalone="no"?>
<!DOCTYPE svg PUBLIC "-//W3C//DTD SVG 1.1//EN"
"http://www.w3.org/Graphics/SVG/1.1/DTD/svg11.dtd">
<svg viewBox="0 0 909 1285" version="1.1" xmlns="http://www.w3.org/2000/svg" xmlns:xlink="http://www.w3.org/1999/xlink">
<defs>
<style type="text/css"><![CDATA[
.g0_73{
fill: #FFFFFF;
}
.g1_73{
fill: none;
stroke: #000000;
stroke-width: 0.381;
stroke-linecap: butt;
stroke-linejoin: round;
}
]]></style>
</defs>
<path fill-rule="evenodd" d="M264.4,125.8H764.3V110H264.4v15.8Z" class="g0_73"/>
<path fill-rule="evenodd" d="M282.4,161.7H503.9V147.1H282.4v14.6Z" class="g0_73"/>
<path fill-rule="evenodd" d="M264,176.8H503.9V162.1H264v14.7Z" class="g0_73"/>
<path fill-rule="evenodd" d="M264,191.4H503.9V176.8H264v14.6Z" class="g0_73"/>
<path fill-rule="evenodd" d="M264,206.1H503.9V191.4H264v14.7Z" class="g0_73"/>
<path fill-rule="evenodd" d="M282.4,220.8H503.9V206.1H282.4v14.7Z" class="g0_73"/>
<path fill-rule="evenodd" d="M263.7,235.8H503.9V221.1H263.7v14.7Z" class="g0_73"/>
<path fill-rule="evenodd" d="M263.7,250.5H503.9V235.8H263.7v14.7Z" class="g0_73"/>
<path fill-rule="evenodd" d="M263.7,265.1H503.9V250.5H263.7v14.6Z" class="g0_73"/>
<path fill-rule="evenodd" d="M263.7,279.8H503.9V265.1H263.7v14.7Z" class="g0_73"/>
<path fill-rule="evenodd" d="M263.7,294.5H503.9V279.8H263.7v14.7Z" class="g0_73"/>
<path fill-rule="evenodd" d="M263.7,309.1H503.9V294.5H263.7v14.6Z" class="g0_73"/>
<path fill-rule="evenodd" d="M263.7,323.8H503.9V309.1H263.7v14.7Z" class="g0_73"/>
<path fill-rule="evenodd" d="M263.3,338.5H503.9V323.8H263.3v14.7Z" class="g0_73"/>
<path fill-rule="evenodd" d="M263.3,353.2H503.9V338.5H263.3v14.7Z" class="g0_73"/>
<path fill-rule="evenodd" d="M263.3,367.8H503.9V353.2H263.3v14.6Z" class="g0_73"/>
<path fill-rule="evenodd" d="M263.3,382.5H503.9V367.8H263.3v14.7Z" class="g0_73"/>
<path fill-rule="evenodd" d="M263.3,397.2H503.9V382.5H263.3v14.7Z" class="g0_73"/>
<path fill-rule="evenodd" d="M263.3,411.8H503.9V397.2H263.3v14.6Z" class="g0_73"/>
<path fill-rule="evenodd" d="M263.3,426.5H503.9V411.8H263.3v14.7Z" class="g0_73"/>
<path fill-rule="evenodd" d="M263.7,441.2H503.9V426.5H263.7v14.7Z" class="g0_73"/>
<path fill-rule="evenodd" d="M263.7,455.8H503.9V441.2H263.7v14.6Z" class="g0_73"/>
<path fill-rule="evenodd" d="M263.7,470.5H503.9V455.8H263.7v14.7Z" class="g0_73"/>
<path fill-rule="evenodd" d="M262.9,485.2H502.8V470.5H262.9v14.7Z" class="g0_73"/>
<path fill-rule="evenodd" d="M262.9,499.8H502.8V485.2H262.9v14.6Z" class="g0_73"/>
<path fill-rule="evenodd" d="M262.9,514.5H502.8V499.8H262.9v14.7Z" class="g0_73"/>
<path fill-rule="evenodd" d="M263.3,529.5H502.8V514.9H263.3v14.6Z" class="g0_73"/>
<path fill-rule="evenodd" d="M263.3,544.2H502.8V529.5H263.3v14.7Z" class="g0_73"/>
<path fill-rule="evenodd" d="M263.3,558.9H503.2V544.2H263.3v14.7Z" class="g0_73"/>
<path fill-rule="evenodd" d="M263.3,573.5H503.2V558.9H263.3v14.6Z" class="g0_73"/>
<path fill-rule="evenodd" d="M263.3,588.2H503.2V573.5H263.3v14.7Z" class="g0_73"/>
<path fill-rule="evenodd" d="M263.3,602.9H503.2V588.2H263.3v14.7Z" class="g0_73"/>
<path fill-rule="evenodd" d="M263.3,617.6H503.2V602.9H263.3v14.7Z" class="g0_73"/>
<path fill-rule="evenodd" d="M263.3,632.2H502.4V617.6H263.3v14.6Z" class="g0_73"/>
<path fill-rule="evenodd" d="M263.3,646.9H502.4V632.2H263.3v14.7Z" class="g0_73"/>
<path fill-rule="evenodd" d="M262.9,661.6H502.4V646.9H262.9v14.7Z" class="g0_73"/>
<path fill-rule="evenodd" d="M262.9,676.2H502.4V661.6H262.9v14.6Z" class="g0_73"/>
<path fill-rule="evenodd" d="M262.9,690.9H502.4V676.2H262.9v14.7Z" class="g0_73"/>
<path fill-rule="evenodd" d="M262.9,705.6H502.1V690.9H262.9v14.7Z" class="g0_73"/>
<path fill-rule="evenodd" d="M262.9,720.2H502.1V705.6H262.9v14.6Z" class="g0_73"/>
<path fill-rule="evenodd" d="M262.9,734.9H502.1V720.2H262.9v14.7Z" class="g0_73"/>
<path fill-rule="evenodd" d="M262.9,749.6H502.8V734.9H262.9v14.7Z" class="g0_73"/>
<path fill-rule="evenodd" d="M262.9,764.2H502.8V749.6H262.9v14.6Z" class="g0_73"/>
<path fill-rule="evenodd" d="M262.9,778.9H502.8V764.2H262.9v14.7Z" class="g0_73"/>
<path fill-rule="evenodd" d="M262.6,793.9H502.4V779.3H262.6v14.6Z" class="g0_73"/>
<path fill-rule="evenodd" d="M262.6,808.6H502.4V793.9H262.6v14.7Z" class="g0_73"/>
<path fill-rule="evenodd" d="M262.6,823.3H502.4V808.6H262.6v14.7Z" class="g0_73"/>
<path fill-rule="evenodd" d="M262.6,838.5H502.4V823.3H262.6v15.2Z" class="g0_73"/>
<path fill-rule="evenodd" d="M262.6,853.2H502.4V838.5H262.6v14.7Z" class="g0_73"/>
<path fill-rule="evenodd" d="M262.9,867.9H502.8V853.2H262.9v14.7Z" class="g0_73"/>
<path fill-rule="evenodd" d="M262.9,882.5H502.8V867.9H262.9v14.6Z" class="g0_73"/>
<path fill-rule="evenodd" d="M264.8,897.2H503.5V882.5H264.8v14.7Z" class="g0_73"/>
<path fill-rule="evenodd" d="M524.6,161.7H763.7V147.1H524.6v14.6Z" class="g0_73"/>
<path fill-rule="evenodd" d="M524.6,176.4H763.7V161.7H524.6v14.7Z" class="g0_73"/>
<path fill-rule="evenodd" d="M524.3,191.4H764.1V176.8H524.3v14.6Z" class="g0_73"/>
<path fill-rule="evenodd" d="M524.3,206.1H764.1V191.4H524.3v14.7Z" class="g0_73"/>
<path fill-rule="evenodd" d="M524.6,221.1H763.7V206.5H524.6v14.6Z" class="g0_73"/>
<path fill-rule="evenodd" d="M524.6,235.8H763.7V221.1H524.6v14.7Z" class="g0_73"/>
<path fill-rule="evenodd" d="M523.2,250.5H764.1V235.8H523.2v14.7Z" class="g0_73"/>
<path fill-rule="evenodd" d="M523.2,265.1H764.1V250.5H523.2v14.6Z" class="g0_73"/>
<path fill-rule="evenodd" d="M523.2,279.8H764.1V265.1H523.2v14.7Z" class="g0_73"/>
<path fill-rule="evenodd" d="M523.2,294.5H764.1V279.8H523.2v14.7Z" class="g0_73"/>
<path fill-rule="evenodd" d="M523.2,309.1H764.1V294.5H523.2v14.6Z" class="g0_73"/>
<path fill-rule="evenodd" d="M523.5,324.2H764.1V309.5H523.5v14.7Z" class="g0_73"/>
<path fill-rule="evenodd" d="M523.5,338.8H764.1V324.2H523.5v14.6Z" class="g0_73"/>
<path fill-rule="evenodd" d="M523.5,353.5H764.1V338.8H523.5v14.7Z" class="g0_73"/>
<path fill-rule="evenodd" d="M523.5,368.2H764.1V353.5H523.5v14.7Z" class="g0_73"/>
<path fill-rule="evenodd" d="M524.3,383.2H763V368.6H524.3v14.6Z" class="g0_73"/>
<path fill-rule="evenodd" d="M524.3,397.9H763V383.2H524.3v14.7Z" class="g0_73"/>
<path fill-rule="evenodd" d="M523.9,412.6H763.4V397.9H523.9v14.7Z" class="g0_73"/>
<path fill-rule="evenodd" d="M523.9,427.2H763.4V412.6H523.9v14.6Z" class="g0_73"/>
<path fill-rule="evenodd" d="M541.9,441.9H764.1V427.2H541.9v14.7Z" class="g0_73"/>
<path fill-rule="evenodd" d="M522.4,456.6h241V441.9h-241v14.7Z" class="g0_73"/>
<path fill-rule="evenodd" d="M522.4,471.2h241V456.6h-241v14.6Z" class="g0_73"/>
<path fill-rule="evenodd" d="M522.4,485.9h241V471.2h-241v14.7Z" class="g0_73"/>
<path fill-rule="evenodd" d="M522.4,500.6h241V485.9h-241v14.7Z" class="g0_73"/>
<path fill-rule="evenodd" d="M523.5,515.2H763V500.6H523.5v14.6Z" class="g0_73"/>
<path fill-rule="evenodd" d="M523.5,529.9H763V515.2H523.5v14.7Z" class="g0_73"/>
<path fill-rule="evenodd" d="M523.2,544.6H763.4V529.9H523.2v14.7Z" class="g0_73"/>
<path fill-rule="evenodd" d="M523.2,559.2H763.4V544.6H523.2v14.6Z" class="g0_73"/>
<path fill-rule="evenodd" d="M523.2,573.9H763.4V559.2H523.2v14.7Z" class="g0_73"/>
<path fill-rule="evenodd" d="M523.2,588.6H763.4V573.9H523.2v14.7Z" class="g0_73"/>
<path fill-rule="evenodd" d="M523.2,603.3H763.4V588.6H523.2v14.7Z" class="g0_73"/>
<path fill-rule="evenodd" d="M522.8,617.9H763V603.3H522.8v14.6Z" class="g0_73"/>
<path fill-rule="evenodd" d="M522.8,632.6H763V617.9H522.8v14.7Z" class="g0_73"/>
<path fill-rule="evenodd" d="M522.8,647.3H763V632.6H522.8v14.7Z" class="g0_73"/>
<path fill-rule="evenodd" d="M522.8,661.9H763V647.3H522.8v14.6Z" class="g0_73"/>
<path fill-rule="evenodd" d="M523.5,677.2H763V662.3H523.5v14.9Z" class="g0_73"/>
<path fill-rule="evenodd" d="M523.5,691.8H763V677.2H523.5v14.6Z" class="g0_73"/>
<path fill-rule="evenodd" d="M523.2,706.9H763.4V692.2H523.2v14.7Z" class="g0_73"/>
<path fill-rule="evenodd" d="M523.2,721.5H763.4V706.9H523.2v14.6Z" class="g0_73"/>
<path fill-rule="evenodd" d="M523.2,736.2H763.4V721.5H523.2v14.7Z" class="g0_73"/>
<path fill-rule="evenodd" d="M523.2,751.2H762.6V736.6H523.2v14.6Z" class="g0_73"/>
<path fill-rule="evenodd" d="M523.2,765.9H762.6V751.2H523.2v14.7Z" class="g0_73"/>
<path fill-rule="evenodd" d="M522.8,780.6H763V765.9H522.8v14.7Z" class="g0_73"/>
<path fill-rule="evenodd" d="M522.8,795.2H763V780.6H522.8v14.6Z" class="g0_73"/>
<path fill-rule="evenodd" d="M522.8,809.9H763V795.2H522.8v14.7Z" class="g0_73"/>
<path fill-rule="evenodd" d="M522.8,824.6H763V809.9H522.8v14.7Z" class="g0_73"/>
<path fill-rule="evenodd" d="M522.8,839.3H763V824.6H522.8v14.7Z" class="g0_73"/>
<path fill-rule="evenodd" d="M523.2,853.9H763V839.3H523.2v14.6Z" class="g0_73"/>
<path fill-rule="evenodd" d="M523.2,868.6H763V853.9H523.2v14.7Z" class="g0_73"/>
<path fill-rule="evenodd" d="M523.2,883.3H763V868.6H523.2v14.7Z" class="g0_73"/>
<path fill-rule="evenodd" d="M523.2,897.9H763V883.3H523.2v14.6Z" class="g0_73"/>
<path fill-rule="evenodd" d="M503.2,929.3H764.3V911.9H503.2v17.4Z" class="g0_73"/>
<path d="M187.7,87.2V227M206,86.9V943.5M209.3,86.9V614.5M186.2,737.4V784m2.9,-47V991.5M208.2,451V981.9m3.7,-367.7V990.8M512.6,147.4V915.6" class="g1_73"/>
</svg>