<?xml version="1.0" encoding="UTF-8" standalone="no"?>
<!DOCTYPE svg PUBLIC "-//W3C//DTD SVG 1.1//EN"
"http://www.w3.org/Graphics/SVG/1.1/DTD/svg11.dtd">
<svg viewBox="0 0 909 1285" version="1.1" xmlns="http://www.w3.org/2000/svg" xmlns:xlink="http://www.w3.org/1999/xlink">
<defs>
<style type="text/css"><![CDATA[
.g0_244{
fill: #FFFFFF;
}
.g1_244{
fill: none;
stroke: #000000;
stroke-width: 0.381;
stroke-linecap: butt;
stroke-linejoin: round;
}
.g2_244{
fill: none;
stroke: #000000;
stroke-width: 6.569;
stroke-linecap: butt;
stroke-linejoin: round;
}
.g3_244{
fill: none;
stroke: #000000;
stroke-width: 0.763;
stroke-linecap: butt;
stroke-linejoin: round;
}
]]></style>
</defs>
<path fill-rule="evenodd" d="M262.2,125.8h498V110h-498v15.8Z" class="g0_244"/>
<path fill-rule="evenodd" d="M261.8,161.7H501v-15H261.8v15Z" class="g0_244"/>
<path fill-rule="evenodd" d="M261.8,176.9H501V161.7H261.8v15.2Z" class="g0_244"/>
<path fill-rule="evenodd" d="M261.8,192H500.6V176.9H261.8V192Z" class="g0_244"/>
<path fill-rule="evenodd" d="M261.8,207H500.6V192H261.8v15Z" class="g0_244"/>
<path fill-rule="evenodd" d="M262.2,222.4h238v-15h-238v15Z" class="g0_244"/>
<path fill-rule="evenodd" d="M262.2,237.4h238v-15h-238v15Z" class="g0_244"/>
<path fill-rule="evenodd" d="M262.2,252.5h238V237.4h-238v15.1Z" class="g0_244"/>
<path fill-rule="evenodd" d="M261.8,267.5H500.2v-15H261.8v15Z" class="g0_244"/>
<path fill-rule="evenodd" d="M261.8,282.5H500.2v-15H261.8v15Z" class="g0_244"/>
<path fill-rule="evenodd" d="M261.8,297.6H500.2V282.5H261.8v15.1Z" class="g0_244"/>
<path fill-rule="evenodd" d="M261.5,312.6H500.2v-15H261.5v15Z" class="g0_244"/>
<path fill-rule="evenodd" d="M261.5,327.8H500.2V312.6H261.5v15.2Z" class="g0_244"/>
<path fill-rule="evenodd" d="M279.8,342.9H501V327.8H279.8v15.1Z" class="g0_244"/>
<path fill-rule="evenodd" d="M279.8,357.9H501v-15H279.8v15Z" class="g0_244"/>
<path fill-rule="evenodd" d="M261.1,373H499.9V357.9H261.1V373Z" class="g0_244"/>
<path fill-rule="evenodd" d="M261.1,388H499.9V373H261.1v15Z" class="g0_244"/>
<path fill-rule="evenodd" d="M261.1,403H499.9V388H261.1v15Z" class="g0_244"/>
<path fill-rule="evenodd" d="M261.5,418.1H499.9V403H261.5v15.1Z" class="g0_244"/>
<path fill-rule="evenodd" d="M261.5,433.1H499.9v-15H261.5v15Z" class="g0_244"/>
<path fill-rule="evenodd" d="M261.1,448.1H499.5v-15H261.1v15Z" class="g0_244"/>
<path fill-rule="evenodd" d="M261.1,463.2H499.5V448.1H261.1v15.1Z" class="g0_244"/>
<path fill-rule="evenodd" d="M260.7,478.2H499.5v-15H260.7v15Z" class="g0_244"/>
<path fill-rule="evenodd" d="M260.7,493.2H499.5v-15H260.7v15Z" class="g0_244"/>
<path fill-rule="evenodd" d="M260.4,508.5H499.1V493.2H260.4v15.3Z" class="g0_244"/>
<path fill-rule="evenodd" d="M260.4,523.5H499.1v-15H260.4v15Z" class="g0_244"/>
<path fill-rule="evenodd" d="M260.4,538.5H499.1v-15H260.4v15Z" class="g0_244"/>
<path fill-rule="evenodd" d="M260.4,553.6H499.1V538.5H260.4v15.1Z" class="g0_244"/>
<path fill-rule="evenodd" d="M279.1,568.6H501v-15H279.1v15Z" class="g0_244"/>
<path fill-rule="evenodd" d="M279.1,583.6H501v-15H279.1v15Z" class="g0_244"/>
<path fill-rule="evenodd" d="M260.4,598.7H499.1V583.6H260.4v15.1Z" class="g0_244"/>
<path fill-rule="evenodd" d="M260.4,613.7H499.1v-15H260.4v15Z" class="g0_244"/>
<path fill-rule="evenodd" d="M260.4,628.8H499.1V613.7H260.4v15.1Z" class="g0_244"/>
<path fill-rule="evenodd" d="M278.4,643.8H501v-15H278.4v15Z" class="g0_244"/>
<path fill-rule="evenodd" d="M278.7,658.8H501v-15H278.7v15Z" class="g0_244"/>
<path fill-rule="evenodd" d="M260,673.9H498.8V658.8H260v15.1Z" class="g0_244"/>
<path fill-rule="evenodd" d="M260,689.1H498.8V673.9H260v15.2Z" class="g0_244"/>
<path fill-rule="evenodd" d="M260,704.1H498.8v-15H260v15Z" class="g0_244"/>
<path fill-rule="evenodd" d="M278.4,719.1H501v-15H278.4v15Z" class="g0_244"/>
<path fill-rule="evenodd" d="M278.4,734.5H501V719.1H278.4v15.4Z" class="g0_244"/>
<path fill-rule="evenodd" d="M258.9,749.6H498.8V734.5H258.9v15.1Z" class="g0_244"/>
<path fill-rule="evenodd" d="M258.9,764.6H498.8v-15H258.9v15Z" class="g0_244"/>
<path fill-rule="evenodd" d="M258.9,779.6H498.8v-15H258.9v15Z" class="g0_244"/>
<path fill-rule="evenodd" d="M258.9,794.7H498.8V779.6H258.9v15.1Z" class="g0_244"/>
<path fill-rule="evenodd" d="M258.9,809.7H498.8v-15H258.9v15Z" class="g0_244"/>
<path fill-rule="evenodd" d="M258.9,824.7H498.8v-15H258.9v15Z" class="g0_244"/>
<path fill-rule="evenodd" d="M258.9,839.8H498.8V824.7H258.9v15.1Z" class="g0_244"/>
<path fill-rule="evenodd" d="M258.9,855H498.8V839.8H258.9V855Z" class="g0_244"/>
<path fill-rule="evenodd" d="M258.9,870.1H498.8V855H258.9v15.1Z" class="g0_244"/>
<path fill-rule="evenodd" d="M258.9,885.1H498.8v-15H258.9v15Z" class="g0_244"/>
<path fill-rule="evenodd" d="M258.9,900.1H498.8v-15H258.9v15Z" class="g0_244"/>
<path fill-rule="evenodd" d="M262.2,915.2H501V900.1H262.2v15.1Z" class="g0_244"/>
<path fill-rule="evenodd" d="M521,161.7H760.1v-15H521v15Z" class="g0_244"/>
<path fill-rule="evenodd" d="M521,176.9H760.1V161.7H521v15.2Z" class="g0_244"/>
<path fill-rule="evenodd" d="M521,192H760.1V176.9H521V192Z" class="g0_244"/>
<path fill-rule="evenodd" d="M521,207H760.1V192H521v15Z" class="g0_244"/>
<path fill-rule="evenodd" d="M538.9,222.4H760.1v-15H538.9v15Z" class="g0_244"/>
<path fill-rule="evenodd" d="M539.3,237.4H760.1v-15H539.3v15Z" class="g0_244"/>
<path fill-rule="evenodd" d="M520.6,252.5H759.7V237.4H520.6v15.1Z" class="g0_244"/>
<path fill-rule="evenodd" d="M520.6,267.5H759.7v-15H520.6v15Z" class="g0_244"/>
<path fill-rule="evenodd" d="M520.6,282.5H759.7v-15H520.6v15Z" class="g0_244"/>
<path fill-rule="evenodd" d="M538.9,297.6H760.1V282.5H538.9v15.1Z" class="g0_244"/>
<path fill-rule="evenodd" d="M538.6,312.6H760.1v-15H538.6v15Z" class="g0_244"/>
<path fill-rule="evenodd" d="M538.6,327.8H760.1V312.6H538.6v15.2Z" class="g0_244"/>
<path fill-rule="evenodd" d="M519.9,342.9H759.7V327.8H519.9v15.1Z" class="g0_244"/>
<path fill-rule="evenodd" d="M519.9,357.9H759.7v-15H519.9v15Z" class="g0_244"/>
<path fill-rule="evenodd" d="M519.9,373H759.7V357.9H519.9V373Z" class="g0_244"/>
<path fill-rule="evenodd" d="M519.9,388H759.7V373H519.9v15Z" class="g0_244"/>
<path fill-rule="evenodd" d="M519.9,403H759.7V388H519.9v15Z" class="g0_244"/>
<path fill-rule="evenodd" d="M519.9,418.1H759.7V403H519.9v15.1Z" class="g0_244"/>
<path fill-rule="evenodd" d="M519.9,433.1H759.7v-15H519.9v15Z" class="g0_244"/>
<path fill-rule="evenodd" d="M519.9,448.1H759.7v-15H519.9v15Z" class="g0_244"/>
<path fill-rule="evenodd" d="M519.9,463.2H759.7V448.1H519.9v15.1Z" class="g0_244"/>
<path fill-rule="evenodd" d="M519.1,478.6H758.6V463.5H519.1v15.1Z" class="g0_244"/>
<path fill-rule="evenodd" d="M519.1,493.8H758.6V478.6H519.1v15.2Z" class="g0_244"/>
<path fill-rule="evenodd" d="M519.1,508.8H758.6v-15H519.1v15Z" class="g0_244"/>
<path fill-rule="evenodd" d="M519.5,523.9H758.6V508.8H519.5v15.1Z" class="g0_244"/>
<path fill-rule="evenodd" d="M519.5,538.9H758.6v-15H519.5v15Z" class="g0_244"/>
<path fill-rule="evenodd" d="M519.5,553.9H758.6v-15H519.5v15Z" class="g0_244"/>
<path fill-rule="evenodd" d="M519.5,569H758.6V553.9H519.5V569Z" class="g0_244"/>
<path fill-rule="evenodd" d="M517.7,584H758.6V569H517.7v15Z" class="g0_244"/>
<path fill-rule="evenodd" d="M517.7,599.1H758.6V584H517.7v15.1Z" class="g0_244"/>
<path fill-rule="evenodd" d="M517.7,614.1H758.6v-15H517.7v15Z" class="g0_244"/>
<path fill-rule="evenodd" d="M517.7,629.1H758.6v-15H517.7v15Z" class="g0_244"/>
<path fill-rule="evenodd" d="M517.7,644.2H758.6V629.1H517.7v15.1Z" class="g0_244"/>
<path fill-rule="evenodd" d="M517.7,659.2H758.6v-15H517.7v15Z" class="g0_244"/>
<path fill-rule="evenodd" d="M517.7,674.4H758.6V659.2H517.7v15.2Z" class="g0_244"/>
<path fill-rule="evenodd" d="M517.7,689.4H758.6v-15H517.7v15Z" class="g0_244"/>
<path fill-rule="evenodd" d="M517.7,704.5H758.6V689.4H517.7v15.1Z" class="g0_244"/>
<path fill-rule="evenodd" d="M517.7,719.5H758.6v-15H517.7v15Z" class="g0_244"/>
<path fill-rule="evenodd" d="M517.7,734.5H758.6v-15H517.7v15Z" class="g0_244"/>
<path fill-rule="evenodd" d="M517.7,749.6H758.6V734.5H517.7v15.1Z" class="g0_244"/>
<path fill-rule="evenodd" d="M517.7,764.6H758.6v-15H517.7v15Z" class="g0_244"/>
<path fill-rule="evenodd" d="M517.7,779.6H758.6v-15H517.7v15Z" class="g0_244"/>
<path fill-rule="evenodd" d="M517.7,794.7H758.6V779.6H517.7v15.1Z" class="g0_244"/>
<path fill-rule="evenodd" d="M517.7,809.7H758.6v-15H517.7v15Z" class="g0_244"/>
<path fill-rule="evenodd" d="M517.7,824.7H758.6v-15H517.7v15Z" class="g0_244"/>
<path fill-rule="evenodd" d="M517.7,839.8H758.6V824.7H517.7v15.1Z" class="g0_244"/>
<path fill-rule="evenodd" d="M517.7,855H758.6V839.8H517.7V855Z" class="g0_244"/>
<path fill-rule="evenodd" d="M517.7,870.1H758.6V855H517.7v15.1Z" class="g0_244"/>
<path fill-rule="evenodd" d="M517.7,885.1H758.6v-15H517.7v15Z" class="g0_244"/>
<path fill-rule="evenodd" d="M494.7,932.8H760.2V915.2H494.7v17.6Z" class="g0_244"/>
<path d="M202.7,104.1V739.5m2.6,-635.4V720.9" class="g1_244"/>
<path d="M183,624.5V928" class="g2_244"/>
<path d="M199.8,766.8V872.7" class="g3_244"/>
<path d="M204.2,737.5v276M508.1,147.8V916" class="g1_244"/>
</svg>