<?xml version="1.0" encoding="UTF-8" standalone="no"?>
<!DOCTYPE svg PUBLIC "-//W3C//DTD SVG 1.1//EN"
"http://www.w3.org/Graphics/SVG/1.1/DTD/svg11.dtd">
<svg viewBox="0 0 909 1285" version="1.1" xmlns="http://www.w3.org/2000/svg" xmlns:xlink="http://www.w3.org/1999/xlink">
<defs>
<style type="text/css"><![CDATA[
.g0_101{
fill: #FFFFFF;
}
.g1_101{
fill: none;
stroke: #000000;
stroke-width: 0.381;
stroke-linecap: butt;
stroke-linejoin: round;
}
]]></style>
</defs>
<path fill-rule="evenodd" d="M267.4,131.1H767.2V110H267.4v21.1Z" class="g0_101"/>
<path fill-rule="evenodd" d="M267,165.9H507.2v-15H267v15Z" class="g0_101"/>
<path fill-rule="evenodd" d="M267,181H507.2V165.9H267V181Z" class="g0_101"/>
<path fill-rule="evenodd" d="M267,196H507.2V181H267v15Z" class="g0_101"/>
<path fill-rule="evenodd" d="M266.6,211H506.8V196H266.6v15Z" class="g0_101"/>
<path fill-rule="evenodd" d="M266.6,226.1H506.8V211H266.6v15.1Z" class="g0_101"/>
<path fill-rule="evenodd" d="M266.6,241.1H506.8v-15H266.6v15Z" class="g0_101"/>
<path fill-rule="evenodd" d="M266.6,256.1H506.5v-15H266.6v15Z" class="g0_101"/>
<path fill-rule="evenodd" d="M266.6,271.4H506.5V256.1H266.6v15.3Z" class="g0_101"/>
<path fill-rule="evenodd" d="M266.6,286.4H506.5v-15H266.6v15Z" class="g0_101"/>
<path fill-rule="evenodd" d="M266.6,301.4H506.5v-15H266.6v15Z" class="g0_101"/>
<path fill-rule="evenodd" d="M267,316.5H506.5V301.4H267v15.1Z" class="g0_101"/>
<path fill-rule="evenodd" d="M267,331.5H506.5v-15H267v15Z" class="g0_101"/>
<path fill-rule="evenodd" d="M285.3,346.5H507.2v-15H285.3v15Z" class="g0_101"/>
<path fill-rule="evenodd" d="M266.6,361.6H506.8V346.5H266.6v15.1Z" class="g0_101"/>
<path fill-rule="evenodd" d="M266.6,376.6H506.8v-15H266.6v15Z" class="g0_101"/>
<path fill-rule="evenodd" d="M266.6,391.7H506.8V376.6H266.6v15.1Z" class="g0_101"/>
<path fill-rule="evenodd" d="M266.2,406.7H506.5v-15H266.2v15Z" class="g0_101"/>
<path fill-rule="evenodd" d="M266.2,421.7H506.5v-15H266.2v15Z" class="g0_101"/>
<path fill-rule="evenodd" d="M266.2,437H506.5V421.7H266.2V437Z" class="g0_101"/>
<path fill-rule="evenodd" d="M266.2,452H506.5V437H266.2v15Z" class="g0_101"/>
<path fill-rule="evenodd" d="M266.2,467H506.5V452H266.2v15Z" class="g0_101"/>
<path fill-rule="evenodd" d="M266.2,482.1H506.5V467H266.2v15.1Z" class="g0_101"/>
<path fill-rule="evenodd" d="M266.2,497.1H506.5v-15H266.2v15Z" class="g0_101"/>
<path fill-rule="evenodd" d="M266.2,512.1H505.4v-15H266.2v15Z" class="g0_101"/>
<path fill-rule="evenodd" d="M266.2,527.2H506.1V512.1H266.2v15.1Z" class="g0_101"/>
<path fill-rule="evenodd" d="M266.2,542.2H506.1v-15H266.2v15Z" class="g0_101"/>
<path fill-rule="evenodd" d="M265.9,557.2H505.4v-15H265.9v15Z" class="g0_101"/>
<path fill-rule="evenodd" d="M265.9,572.3H505.4V557.2H265.9v15.1Z" class="g0_101"/>
<path fill-rule="evenodd" d="M284.2,587.3h223v-15h-223v15Z" class="g0_101"/>
<path fill-rule="evenodd" d="M265.5,602.4H506.1V587.3H265.5v15.1Z" class="g0_101"/>
<path fill-rule="evenodd" d="M265.5,617.6H506.1V602.4H265.5v15.2Z" class="g0_101"/>
<path fill-rule="evenodd" d="M265.5,632.6H506.1v-15H265.5v15Z" class="g0_101"/>
<path fill-rule="evenodd" d="M265.5,647.6H506.1v-15H265.5v15Z" class="g0_101"/>
<path fill-rule="evenodd" d="M265.5,662.7H506.1V647.6H265.5v15.1Z" class="g0_101"/>
<path fill-rule="evenodd" d="M283.9,677.7H507.2v-15H283.9v15Z" class="g0_101"/>
<path fill-rule="evenodd" d="M283.9,693.1H507.2V677.7H283.9v15.4Z" class="g0_101"/>
<path fill-rule="evenodd" d="M265.5,708.1H506.1v-15H265.5v15Z" class="g0_101"/>
<path fill-rule="evenodd" d="M265.5,723.2H506.1V708.1H265.5v15.1Z" class="g0_101"/>
<path fill-rule="evenodd" d="M265.5,738.2H506.1v-15H265.5v15Z" class="g0_101"/>
<path fill-rule="evenodd" d="M265.9,753.2H505.7v-15H265.9v15Z" class="g0_101"/>
<path fill-rule="evenodd" d="M265.9,768.3H505.7V753.2H265.9v15.1Z" class="g0_101"/>
<path fill-rule="evenodd" d="M265.1,783.5H505.7V768.3H265.1v15.2Z" class="g0_101"/>
<path fill-rule="evenodd" d="M265.1,798.5H505.7v-15H265.1v15Z" class="g0_101"/>
<path fill-rule="evenodd" d="M265.1,813.6H505.7V798.5H265.1v15.1Z" class="g0_101"/>
<path fill-rule="evenodd" d="M265.1,828.6h241v-15h-241v15Z" class="g0_101"/>
<path fill-rule="evenodd" d="M265.1,843.7h241V828.6h-241v15.1Z" class="g0_101"/>
<path fill-rule="evenodd" d="M265.1,858.7h241v-15h-241v15Z" class="g0_101"/>
<path fill-rule="evenodd" d="M265.1,873.7h241v-15h-241v15Z" class="g0_101"/>
<path fill-rule="evenodd" d="M267.4,888.4H507.2V873.7H267.4v14.7Z" class="g0_101"/>
<path fill-rule="evenodd" d="M527.4,165.9H767.2V151.3H527.4v14.6Z" class="g0_101"/>
<path fill-rule="evenodd" d="M527.4,180.6H767.2V165.9H527.4v14.7Z" class="g0_101"/>
<path fill-rule="evenodd" d="M527.4,195.3H767.2V180.6H527.4v14.7Z" class="g0_101"/>
<path fill-rule="evenodd" d="M527.4,209.9H767.2V195.3H527.4v14.6Z" class="g0_101"/>
<path fill-rule="evenodd" d="M527.4,224.6H767.2V209.9H527.4v14.7Z" class="g0_101"/>
<path fill-rule="evenodd" d="M527.4,239.3H767.2V224.6H527.4v14.7Z" class="g0_101"/>
<path fill-rule="evenodd" d="M527.4,253.9H767.2V239.3H527.4v14.6Z" class="g0_101"/>
<path fill-rule="evenodd" d="M527.4,268.6H767.2V253.9H527.4v14.7Z" class="g0_101"/>
<path fill-rule="evenodd" d="M526.6,283.3H766.5V268.6H526.6v14.7Z" class="g0_101"/>
<path fill-rule="evenodd" d="M526.6,297.9H766.5V283.3H526.6v14.6Z" class="g0_101"/>
<path fill-rule="evenodd" d="M526.6,312.6H766.8V297.9H526.6v14.7Z" class="g0_101"/>
<path fill-rule="evenodd" d="M526.6,327.3H766.8V312.6H526.6v14.7Z" class="g0_101"/>
<path fill-rule="evenodd" d="M526.6,341.9H766.8V327.3H526.6v14.6Z" class="g0_101"/>
<path fill-rule="evenodd" d="M526.6,356.7H766.8V342H526.6v14.7Z" class="g0_101"/>
<path fill-rule="evenodd" d="M526.6,371.7H766.5V357H526.6v14.7Z" class="g0_101"/>
<path fill-rule="evenodd" d="M526.6,386.4H766.5V371.7H526.6v14.7Z" class="g0_101"/>
<path fill-rule="evenodd" d="M526.6,401H766.5V386.4H526.6V401Z" class="g0_101"/>
<path fill-rule="evenodd" d="M526.6,416.1H766.5V401H526.6v15.1Z" class="g0_101"/>
<path fill-rule="evenodd" d="M526.6,430.7H766.5V416.1H526.6v14.6Z" class="g0_101"/>
<path fill-rule="evenodd" d="M526.6,445.4H766.5V430.7H526.6v14.7Z" class="g0_101"/>
<path fill-rule="evenodd" d="M526.6,460.8H766.5V445.4H526.6v15.4Z" class="g0_101"/>
<path fill-rule="evenodd" d="M526.6,475.5H766.5V460.8H526.6v14.7Z" class="g0_101"/>
<path fill-rule="evenodd" d="M526.3,490.1H766.1V475.5H526.3v14.6Z" class="g0_101"/>
<path fill-rule="evenodd" d="M526.3,504.8H766.1V490.1H526.3v14.7Z" class="g0_101"/>
<path fill-rule="evenodd" d="M526.3,519.5H766.1V504.8H526.3v14.7Z" class="g0_101"/>
<path fill-rule="evenodd" d="M525.2,534.5H766.1V519.8H525.2v14.7Z" class="g0_101"/>
<path fill-rule="evenodd" d="M525.2,549.2H766.1V534.5H525.2v14.7Z" class="g0_101"/>
<path fill-rule="evenodd" d="M525.2,563.8H766.1V549.2H525.2v14.6Z" class="g0_101"/>
<path fill-rule="evenodd" d="M525.9,579H766.1V564.2H525.9V579Z" class="g0_101"/>
<path fill-rule="evenodd" d="M525.9,593.7H766.1V579H525.9v14.7Z" class="g0_101"/>
<path fill-rule="evenodd" d="M525.9,608.4H766.1V593.7H525.9v14.7Z" class="g0_101"/>
<path fill-rule="evenodd" d="M544.2,623.4h223V608.8h-223v14.6Z" class="g0_101"/>
<path fill-rule="evenodd" d="M526.3,638.1H766.1V623.4H526.3v14.7Z" class="g0_101"/>
<path fill-rule="evenodd" d="M526.3,652.8H766.1V638.1H526.3v14.7Z" class="g0_101"/>
<path fill-rule="evenodd" d="M526.3,667.8H765.4V653.1H526.3v14.7Z" class="g0_101"/>
<path fill-rule="evenodd" d="M526.3,682.5H765.4V667.8H526.3v14.7Z" class="g0_101"/>
<path fill-rule="evenodd" d="M525.2,697.1H766.1V682.5H525.2v14.6Z" class="g0_101"/>
<path fill-rule="evenodd" d="M525.2,711.8H766.1V697.1H525.2v14.7Z" class="g0_101"/>
<path fill-rule="evenodd" d="M525.2,726.5H766.1V711.8H525.2v14.7Z" class="g0_101"/>
<path fill-rule="evenodd" d="M525.2,741.1H766.1V726.5H525.2v14.6Z" class="g0_101"/>
<path fill-rule="evenodd" d="M525.2,755.8H766.1V741.1H525.2v14.7Z" class="g0_101"/>
<path fill-rule="evenodd" d="M525.2,770.5H766.1V755.8H525.2v14.7Z" class="g0_101"/>
<path fill-rule="evenodd" d="M525.2,785.1H766.1V770.5H525.2v14.6Z" class="g0_101"/>
<path fill-rule="evenodd" d="M526.3,799.8H766.1V785.1H526.3v14.7Z" class="g0_101"/>
<path fill-rule="evenodd" d="M526.3,814.5H766.1V799.8H526.3v14.7Z" class="g0_101"/>
<path fill-rule="evenodd" d="M525.9,829.1H765.7V814.5H525.9v14.6Z" class="g0_101"/>
<path fill-rule="evenodd" d="M525.9,843.9H765.7V829.1H525.9v14.8Z" class="g0_101"/>
<path fill-rule="evenodd" d="M525.9,858.5H766.5V843.9H525.9v14.6Z" class="g0_101"/>
<path fill-rule="evenodd" d="M525.9,873.2H766.5V858.5H525.9v14.7Z" class="g0_101"/>
<path fill-rule="evenodd" d="M503.9,905.5H767.2V886.2H503.9v19.3Z" class="g0_101"/>
<path d="M206.8,140.6v81.5M515.5,151.6V920.2" class="g1_101"/>
</svg>