<?xml version="1.0" encoding="UTF-8" standalone="no"?>
<!DOCTYPE svg PUBLIC "-//W3C//DTD SVG 1.1//EN"
"http://www.w3.org/Graphics/SVG/1.1/DTD/svg11.dtd">
<svg viewBox="0 0 909 1285" version="1.1" xmlns="http://www.w3.org/2000/svg" xmlns:xlink="http://www.w3.org/1999/xlink">
<defs>
<style type="text/css"><![CDATA[
.g0_339{
fill: #FFFFFF;
}
.g1_339{
fill: none;
stroke: #000000;
stroke-width: 2.215;
stroke-linecap: butt;
stroke-linejoin: round;
}
.g2_339{
fill: none;
stroke: #000000;
stroke-width: 4.736;
stroke-linecap: butt;
stroke-linejoin: round;
}
.g3_339{
fill: none;
stroke: #000000;
stroke-width: 5.118;
stroke-linecap: butt;
stroke-linejoin: round;
}
.g4_339{
fill: none;
stroke: #000000;
stroke-width: 0.763;
stroke-linecap: butt;
stroke-linejoin: round;
}
.g5_339{
fill: none;
stroke: #000000;
stroke-width: 0.381;
stroke-linecap: butt;
stroke-linejoin: round;
}
.g6_339{
fill: none;
stroke: #000000;
stroke-width: 1.069;
stroke-linecap: butt;
stroke-linejoin: round;
}
]]></style>
</defs>
<path fill-rule="evenodd" d="M271.2,125.8H769.6V110H271.2v15.8Z" class="g0_339"/>
<path fill-rule="evenodd" d="M289.6,161.7H510.7V147.1H289.6v14.6Z" class="g0_339"/>
<path fill-rule="evenodd" d="M271.2,177.1H510.7V162.5H271.2v14.6Z" class="g0_339"/>
<path fill-rule="evenodd" d="M271.2,191.8H510.7V177.1H271.2v14.7Z" class="g0_339"/>
<path fill-rule="evenodd" d="M271.2,206.5H510.7V191.8H271.2v14.7Z" class="g0_339"/>
<path fill-rule="evenodd" d="M271.2,221.1H510.7V206.5H271.2v14.6Z" class="g0_339"/>
<path fill-rule="evenodd" d="M271.2,235.8H510.7V221.1H271.2v14.7Z" class="g0_339"/>
<path fill-rule="evenodd" d="M289.2,250.5H510.7V235.8H289.2v14.7Z" class="g0_339"/>
<path fill-rule="evenodd" d="M270.9,265.1H510.3V250.5H270.9v14.6Z" class="g0_339"/>
<path fill-rule="evenodd" d="M270.9,279.8H510.3V265.1H270.9v14.7Z" class="g0_339"/>
<path fill-rule="evenodd" d="M270.9,294.5H510.3V279.8H270.9v14.7Z" class="g0_339"/>
<path fill-rule="evenodd" d="M270.9,309.1H510.3V294.5H270.9v14.6Z" class="g0_339"/>
<path fill-rule="evenodd" d="M270.9,323.8H510.3V309.1H270.9v14.7Z" class="g0_339"/>
<path fill-rule="evenodd" d="M270.9,338.5H510.3V323.8H270.9v14.7Z" class="g0_339"/>
<path fill-rule="evenodd" d="M271.6,353.5H510V338.8H271.6v14.7Z" class="g0_339"/>
<path fill-rule="evenodd" d="M271.6,368.2H510V353.5H271.6v14.7Z" class="g0_339"/>
<path fill-rule="evenodd" d="M270.5,383.8H509.2V368.9H270.5v14.9Z" class="g0_339"/>
<path fill-rule="evenodd" d="M270.5,398.5H509.2V383.8H270.5v14.7Z" class="g0_339"/>
<path fill-rule="evenodd" d="M289.2,413.1H510.7V398.5H289.2v14.6Z" class="g0_339"/>
<path fill-rule="evenodd" d="M270.9,428.2H509.6V413.5H270.9v14.7Z" class="g0_339"/>
<path fill-rule="evenodd" d="M270.9,442.8H509.6V428.2H270.9v14.6Z" class="g0_339"/>
<path fill-rule="evenodd" d="M270.5,457.9H509.6V443.2H270.5v14.7Z" class="g0_339"/>
<path fill-rule="evenodd" d="M270.5,472.5H509.6V457.9H270.5v14.6Z" class="g0_339"/>
<path fill-rule="evenodd" d="M270.5,487.2H509.6V472.5H270.5v14.7Z" class="g0_339"/>
<path fill-rule="evenodd" d="M270.5,501.9H509.6V487.2H270.5v14.7Z" class="g0_339"/>
<path fill-rule="evenodd" d="M270.5,516.5H509.6V501.9H270.5v14.6Z" class="g0_339"/>
<path fill-rule="evenodd" d="M270.1,531.2H509.2V516.5H270.1v14.7Z" class="g0_339"/>
<path fill-rule="evenodd" d="M270.1,545.9H509.2V531.2H270.1v14.7Z" class="g0_339"/>
<path fill-rule="evenodd" d="M270.1,560.5H509.2V545.9H270.1v14.6Z" class="g0_339"/>
<path fill-rule="evenodd" d="M269.8,575.6H508.9V560.9H269.8v14.7Z" class="g0_339"/>
<path fill-rule="evenodd" d="M269.8,590.2H508.9V575.6H269.8v14.6Z" class="g0_339"/>
<path fill-rule="evenodd" d="M269.8,604.9H508.9V590.2H269.8v14.7Z" class="g0_339"/>
<path fill-rule="evenodd" d="M288.1,620H510.7V605.3H288.1V620Z" class="g0_339"/>
<path fill-rule="evenodd" d="M269.4,634.6H508.5V620H269.4v14.6Z" class="g0_339"/>
<path fill-rule="evenodd" d="M269.4,649.3H508.5V634.6H269.4v14.7Z" class="g0_339"/>
<path fill-rule="evenodd" d="M269.4,664.3H508.9V649.7H269.4v14.6Z" class="g0_339"/>
<path fill-rule="evenodd" d="M269.4,679H508.9V664.3H269.4V679Z" class="g0_339"/>
<path fill-rule="evenodd" d="M269.4,693.7H508.9V679H269.4v14.7Z" class="g0_339"/>
<path fill-rule="evenodd" d="M270.1,708.7h238V694h-238v14.7Z" class="g0_339"/>
<path fill-rule="evenodd" d="M270.1,723.4h238V708.7h-238v14.7Z" class="g0_339"/>
<path fill-rule="evenodd" d="M270.1,738h238V723.4h-238V738Z" class="g0_339"/>
<path fill-rule="evenodd" d="M269.4,753.1H508.5V738.4H269.4v14.7Z" class="g0_339"/>
<path fill-rule="evenodd" d="M269.4,767.7H508.5V753.1H269.4v14.6Z" class="g0_339"/>
<path fill-rule="evenodd" d="M269.4,782.4H508.5V767.7H269.4v14.7Z" class="g0_339"/>
<path fill-rule="evenodd" d="M269.8,797.4H508.5V782.8H269.8v14.6Z" class="g0_339"/>
<path fill-rule="evenodd" d="M269.8,812.1H508.5V797.4H269.8v14.7Z" class="g0_339"/>
<path fill-rule="evenodd" d="M269.8,827.1H508.5v-15H269.8v15Z" class="g0_339"/>
<path fill-rule="evenodd" d="M269.8,841.8H508.5V827.1H269.8v14.7Z" class="g0_339"/>
<path fill-rule="evenodd" d="M269.8,856.5H508.5V841.8H269.8v14.7Z" class="g0_339"/>
<path fill-rule="evenodd" d="M269.8,871.2H508.5V856.5H269.8v14.7Z" class="g0_339"/>
<path fill-rule="evenodd" d="M272.3,885.8H510.7V871.2H272.3v14.6Z" class="g0_339"/>
<path fill-rule="evenodd" d="M530.7,162.1H769.4V147.4H530.7v14.7Z" class="g0_339"/>
<path fill-rule="evenodd" d="M530.7,176.8H769.4V162.1H530.7v14.7Z" class="g0_339"/>
<path fill-rule="evenodd" d="M530.7,191.4H769.4V176.8H530.7v14.6Z" class="g0_339"/>
<path fill-rule="evenodd" d="M531,206.5H768.7V191.8H531v14.7Z" class="g0_339"/>
<path fill-rule="evenodd" d="M531,221.1H768.7V206.5H531v14.6Z" class="g0_339"/>
<path fill-rule="evenodd" d="M530.3,236.2H768.7V221.5H530.3v14.7Z" class="g0_339"/>
<path fill-rule="evenodd" d="M530.3,250.8H768.7V236.2H530.3v14.6Z" class="g0_339"/>
<path fill-rule="evenodd" d="M530.3,265.5H768.7V250.8H530.3v14.7Z" class="g0_339"/>
<path fill-rule="evenodd" d="M530.3,280.2H768.7V265.5H530.3v14.7Z" class="g0_339"/>
<path fill-rule="evenodd" d="M530.3,295.2H768.7v-15H530.3v15Z" class="g0_339"/>
<path fill-rule="evenodd" d="M530.3,309.9H768.7V295.2H530.3v14.7Z" class="g0_339"/>
<path fill-rule="evenodd" d="M530.3,324.5H768.7V309.9H530.3v14.6Z" class="g0_339"/>
<path fill-rule="evenodd" d="M529.9,339.7H768.7V324.9H529.9v14.8Z" class="g0_339"/>
<path fill-rule="evenodd" d="M529.9,354.5H768.7V339.8H529.9v14.7Z" class="g0_339"/>
<path fill-rule="evenodd" d="M529.9,369.1H768.7V354.5H529.9v14.6Z" class="g0_339"/>
<path fill-rule="evenodd" d="M529.9,383.8H768.7V369.1H529.9v14.7Z" class="g0_339"/>
<path fill-rule="evenodd" d="M529.9,398.5H768.7V383.8H529.9v14.7Z" class="g0_339"/>
<path fill-rule="evenodd" d="M529.9,413.1H768.7V398.5H529.9v14.6Z" class="g0_339"/>
<path fill-rule="evenodd" d="M529.9,427.8H768.7V413.1H529.9v14.7Z" class="g0_339"/>
<path fill-rule="evenodd" d="M547.5,442.8H769.4V428.2H547.5v14.6Z" class="g0_339"/>
<path fill-rule="evenodd" d="M528.5,457.5H768.3V442.8H528.5v14.7Z" class="g0_339"/>
<path fill-rule="evenodd" d="M528.5,472.2H768.3V457.5H528.5v14.7Z" class="g0_339"/>
<path fill-rule="evenodd" d="M528.5,486.8H768.3V472.2H528.5v14.6Z" class="g0_339"/>
<path fill-rule="evenodd" d="M528.5,501.5H768.3V486.8H528.5v14.7Z" class="g0_339"/>
<path fill-rule="evenodd" d="M528.5,516.2H768.3V501.5H528.5v14.7Z" class="g0_339"/>
<path fill-rule="evenodd" d="M528.5,530.8H768.3V516.2H528.5v14.6Z" class="g0_339"/>
<path fill-rule="evenodd" d="M528.5,545.5H768.3V530.8H528.5v14.7Z" class="g0_339"/>
<path fill-rule="evenodd" d="M528.5,560.2H768.3V545.5H528.5v14.7Z" class="g0_339"/>
<path fill-rule="evenodd" d="M528.5,574.8H768.3V560.2H528.5v14.6Z" class="g0_339"/>
<path fill-rule="evenodd" d="M528.5,589.5H768.3V574.8H528.5v14.7Z" class="g0_339"/>
<path fill-rule="evenodd" d="M528.5,604.2H768.3V589.5H528.5v14.7Z" class="g0_339"/>
<path fill-rule="evenodd" d="M528.8,619.6H768.3V604.9H528.8v14.7Z" class="g0_339"/>
<path fill-rule="evenodd" d="M528.8,634.3H768.3V619.6H528.8v14.7Z" class="g0_339"/>
<path fill-rule="evenodd" d="M528.8,648.9H768.3V634.3H528.8v14.6Z" class="g0_339"/>
<path fill-rule="evenodd" d="M528.8,663.6H768.3V648.9H528.8v14.7Z" class="g0_339"/>
<path fill-rule="evenodd" d="M528.8,678.3H768.3V663.6H528.8v14.7Z" class="g0_339"/>
<path fill-rule="evenodd" d="M528.8,692.9H768.3V678.3H528.8v14.6Z" class="g0_339"/>
<path fill-rule="evenodd" d="M528.5,708H767.9V693.3H528.5V708Z" class="g0_339"/>
<path fill-rule="evenodd" d="M528.5,722.6H767.9V708H528.5v14.6Z" class="g0_339"/>
<path fill-rule="evenodd" d="M528.5,737.3H767.9V722.6H528.5v14.7Z" class="g0_339"/>
<path fill-rule="evenodd" d="M528.5,752H767.9V737.3H528.5V752Z" class="g0_339"/>
<path fill-rule="evenodd" d="M528.5,766.6H767.9V752H528.5v14.6Z" class="g0_339"/>
<path fill-rule="evenodd" d="M528.1,781.7H767.6V767H528.1v14.7Z" class="g0_339"/>
<path fill-rule="evenodd" d="M528.1,796.3H767.6V781.7H528.1v14.6Z" class="g0_339"/>
<path fill-rule="evenodd" d="M528.1,811H767.6V796.3H528.1V811Z" class="g0_339"/>
<path fill-rule="evenodd" d="M546.4,825.7h223V811h-223v14.7Z" class="g0_339"/>
<path fill-rule="evenodd" d="M527.7,840.7H767.2V826H527.7v14.7Z" class="g0_339"/>
<path fill-rule="evenodd" d="M527.7,855.4H767.2V840.7H527.7v14.7Z" class="g0_339"/>
<path fill-rule="evenodd" d="M527.7,870.1H767.2V855.4H527.7v14.7Z" class="g0_339"/>
<path fill-rule="evenodd" d="M528.1,885.5H767.6V870.8H528.1v14.7Z" class="g0_339"/>
<path fill-rule="evenodd" d="M528.1,900.1H767.6V885.5H528.1v14.6Z" class="g0_339"/>
<path fill-rule="evenodd" d="M505.6,932.4h264V914.8h-264v17.6Z" class="g0_339"/>
<path d="M201.8,97.2v308" class="g1_339"/>
<path d="M182.7,155.1V674.7" class="g2_339"/>
<path d="M184.9,884.8v73" class="g3_339"/>
<path d="M202.9,132.4V764.5" class="g4_339"/>
<path d="M209.2,192.9V975.3m3.6,-244.2V792" class="g5_339"/>
<path d="M216.1,449.5V572" class="g6_339"/>
<path d="M518.2,147.8V917.4" class="g5_339"/>
</svg>