<?xml version="1.0" encoding="UTF-8" standalone="no"?>
<!DOCTYPE svg PUBLIC "-//W3C//DTD SVG 1.1//EN"
"http://www.w3.org/Graphics/SVG/1.1/DTD/svg11.dtd">
<svg viewBox="0 0 909 1285" version="1.1" xmlns="http://www.w3.org/2000/svg" xmlns:xlink="http://www.w3.org/1999/xlink">
<defs>
<style type="text/css"><![CDATA[
.g0_190{
fill: #FFFFFF;
}
.g1_190{
fill: none;
stroke: #000000;
stroke-width: 0.381;
stroke-linecap: butt;
stroke-linejoin: round;
}
]]></style>
</defs>
<path fill-rule="evenodd" d="M556.3,131.1H686.2V110H556.3v21.1Z" class="g0_190"/>
<path fill-rule="evenodd" d="M189.6,166.3H425.8V151.6H189.6v14.7Z" class="g0_190"/>
<path fill-rule="evenodd" d="M189.6,181H425.8V166.3H189.6V181Z" class="g0_190"/>
<path fill-rule="evenodd" d="M188.9,195.6h238V181h-238v14.6Z" class="g0_190"/>
<path fill-rule="evenodd" d="M188.9,210.3h238V195.6h-238v14.7Z" class="g0_190"/>
<path fill-rule="evenodd" d="M188.9,225h238V210.3h-238V225Z" class="g0_190"/>
<path fill-rule="evenodd" d="M188.5,240H426.1V225.3H188.5V240Z" class="g0_190"/>
<path fill-rule="evenodd" d="M188.5,254.7H426.1V240H188.5v14.7Z" class="g0_190"/>
<path fill-rule="evenodd" d="M188.1,269.7H426.5V255H188.1v14.7Z" class="g0_190"/>
<path fill-rule="evenodd" d="M188.1,284.4H426.5V269.7H188.1v14.7Z" class="g0_190"/>
<path fill-rule="evenodd" d="M188.1,299H426.5V284.4H188.1V299Z" class="g0_190"/>
<path fill-rule="evenodd" d="M188.1,313.7H425.8V299H188.1v14.7Z" class="g0_190"/>
<path fill-rule="evenodd" d="M188.1,328.4H425.8V313.7H188.1v14.7Z" class="g0_190"/>
<path fill-rule="evenodd" d="M188.1,343H425.8V328.4H188.1V343Z" class="g0_190"/>
<path fill-rule="evenodd" d="M188.1,357.8H425.8V343.1H188.1v14.7Z" class="g0_190"/>
<path fill-rule="evenodd" d="M188.1,372.4H425.8V357.8H188.1v14.6Z" class="g0_190"/>
<path fill-rule="evenodd" d="M205.7,387.1H426.9V372.4H205.7v14.7Z" class="g0_190"/>
<path fill-rule="evenodd" d="M187.4,401.8H425.8V387.1H187.4v14.7Z" class="g0_190"/>
<path fill-rule="evenodd" d="M187.4,416.4H425.8V401.8H187.4v14.6Z" class="g0_190"/>
<path fill-rule="evenodd" d="M187.4,431.1H425.8V416.4H187.4v14.7Z" class="g0_190"/>
<path fill-rule="evenodd" d="M187.8,446.1h238V431.5h-238v14.6Z" class="g0_190"/>
<path fill-rule="evenodd" d="M187.8,460.8h238V446.1h-238v14.7Z" class="g0_190"/>
<path fill-rule="evenodd" d="M187.8,475.5h238V460.8h-238v14.7Z" class="g0_190"/>
<path fill-rule="evenodd" d="M187.4,490.1H425.8V475.5H187.4v14.6Z" class="g0_190"/>
<path fill-rule="evenodd" d="M187.4,504.8H425.8V490.1H187.4v14.7Z" class="g0_190"/>
<path fill-rule="evenodd" d="M187.4,519.5H425.8V504.8H187.4v14.7Z" class="g0_190"/>
<path fill-rule="evenodd" d="M187.4,534.1H425.8V519.5H187.4v14.6Z" class="g0_190"/>
<path fill-rule="evenodd" d="M187.4,548.8H425.8V534.1H187.4v14.7Z" class="g0_190"/>
<path fill-rule="evenodd" d="M187.4,563.5H425.8V548.8H187.4v14.7Z" class="g0_190"/>
<path fill-rule="evenodd" d="M187.4,578.1H425.8V563.5H187.4v14.6Z" class="g0_190"/>
<path fill-rule="evenodd" d="M186.7,592.8H425.8V578.1H186.7v14.7Z" class="g0_190"/>
<path fill-rule="evenodd" d="M186.7,607.5H425.8V592.8H186.7v14.7Z" class="g0_190"/>
<path fill-rule="evenodd" d="M186.7,622.2H425.8V607.5H186.7v14.7Z" class="g0_190"/>
<path fill-rule="evenodd" d="M186.7,636.8H425.8V622.2H186.7v14.6Z" class="g0_190"/>
<path fill-rule="evenodd" d="M186.7,651.9H425V637.2H186.7v14.7Z" class="g0_190"/>
<path fill-rule="evenodd" d="M186.7,666.5H425V651.9H186.7v14.6Z" class="g0_190"/>
<path fill-rule="evenodd" d="M186.3,681.2h238V666.5h-238v14.7Z" class="g0_190"/>
<path fill-rule="evenodd" d="M186.3,695.9h238V681.2h-238v14.7Z" class="g0_190"/>
<path fill-rule="evenodd" d="M185.6,711.1H424.7V696.2H185.6v14.9Z" class="g0_190"/>
<path fill-rule="evenodd" d="M185.6,725.7H424.7V711.1H185.6v14.6Z" class="g0_190"/>
<path fill-rule="evenodd" d="M185.6,740.4H424.7V725.7H185.6v14.7Z" class="g0_190"/>
<path fill-rule="evenodd" d="M185.6,755.1H424.7V740.4H185.6v14.7Z" class="g0_190"/>
<path fill-rule="evenodd" d="M185.6,769.7H424.7V755.1H185.6v14.6Z" class="g0_190"/>
<path fill-rule="evenodd" d="M185.6,784.4H424.7V769.7H185.6v14.7Z" class="g0_190"/>
<path fill-rule="evenodd" d="M185.6,799.1H424.7V784.4H185.6v14.7Z" class="g0_190"/>
<path fill-rule="evenodd" d="M185.6,813.7H424.3V799.1H185.6v14.6Z" class="g0_190"/>
<path fill-rule="evenodd" d="M185.6,828.4H424.3V813.7H185.6v14.7Z" class="g0_190"/>
<path fill-rule="evenodd" d="M185.6,843.1H424.3V828.4H185.6v14.7Z" class="g0_190"/>
<path fill-rule="evenodd" d="M185.2,858.2H423.6V843.5H185.2v14.7Z" class="g0_190"/>
<path fill-rule="evenodd" d="M185.2,872.8H423.6V858.2H185.2v14.6Z" class="g0_190"/>
<path fill-rule="evenodd" d="M185.2,887.5H423.6V872.8H185.2v14.7Z" class="g0_190"/>
<path fill-rule="evenodd" d="M185.2,902.2H423.6V887.5H185.2v14.7Z" class="g0_190"/>
<path fill-rule="evenodd" d="M187.4,916.8H426.9V902.2H187.4v14.6Z" class="g0_190"/>
<path fill-rule="evenodd" d="M446.5,165.9H686V151.3H446.5v14.6Z" class="g0_190"/>
<path fill-rule="evenodd" d="M446.5,180.6H686V165.9H446.5v14.7Z" class="g0_190"/>
<path fill-rule="evenodd" d="M446.5,195.3H686V180.6H446.5v14.7Z" class="g0_190"/>
<path fill-rule="evenodd" d="M446.5,209.9H686V195.3H446.5v14.6Z" class="g0_190"/>
<path fill-rule="evenodd" d="M446.5,224.6H686V209.9H446.5v14.7Z" class="g0_190"/>
<path fill-rule="evenodd" d="M446.5,239.3H686V224.6H446.5v14.7Z" class="g0_190"/>
<path fill-rule="evenodd" d="M446.5,253.9H686V239.3H446.5v14.6Z" class="g0_190"/>
<path fill-rule="evenodd" d="M446.5,268.6H686V253.9H446.5v14.7Z" class="g0_190"/>
<path fill-rule="evenodd" d="M446.5,283.3H686V268.6H446.5v14.7Z" class="g0_190"/>
<path fill-rule="evenodd" d="M446.5,297.9H685.6V283.3H446.5v14.6Z" class="g0_190"/>
<path fill-rule="evenodd" d="M446.5,312.6H685.6V297.9H446.5v14.7Z" class="g0_190"/>
<path fill-rule="evenodd" d="M446.5,327.3H685.6V312.6H446.5v14.7Z" class="g0_190"/>
<path fill-rule="evenodd" d="M446.5,341.9H685.6V327.3H446.5v14.6Z" class="g0_190"/>
<path fill-rule="evenodd" d="M446.5,356.7H685.6V342H446.5v14.7Z" class="g0_190"/>
<path fill-rule="evenodd" d="M446.1,371.3H684.9V356.7H446.1v14.6Z" class="g0_190"/>
<path fill-rule="evenodd" d="M446.1,386H684.9V371.3H446.1V386Z" class="g0_190"/>
<path fill-rule="evenodd" d="M445.8,400.7H685.3V386H445.8v14.7Z" class="g0_190"/>
<path fill-rule="evenodd" d="M445.8,415.3H685.3V400.7H445.8v14.6Z" class="g0_190"/>
<path fill-rule="evenodd" d="M464.9,430H686V415.3H464.9V430Z" class="g0_190"/>
<path fill-rule="evenodd" d="M464.1,445H686V430.4H464.1V445Z" class="g0_190"/>
<path fill-rule="evenodd" d="M446.5,459.7H684.9V445H446.5v14.7Z" class="g0_190"/>
<path fill-rule="evenodd" d="M446.5,474.4H684.9V459.7H446.5v14.7Z" class="g0_190"/>
<path fill-rule="evenodd" d="M445.8,489H685.3V474.4H445.8V489Z" class="g0_190"/>
<path fill-rule="evenodd" d="M445.8,503.7H685.3V489H445.8v14.7Z" class="g0_190"/>
<path fill-rule="evenodd" d="M445.8,518.4H685.3V503.7H445.8v14.7Z" class="g0_190"/>
<path fill-rule="evenodd" d="M445.8,533H685.3V518.4H445.8V533Z" class="g0_190"/>
<path fill-rule="evenodd" d="M464.1,547.7H686V533H464.1v14.7Z" class="g0_190"/>
<path fill-rule="evenodd" d="M446.1,562.7H684.5V548.1H446.1v14.6Z" class="g0_190"/>
<path fill-rule="evenodd" d="M446.1,577.4H684.5V562.7H446.1v14.7Z" class="g0_190"/>
<path fill-rule="evenodd" d="M445.4,592.1H684.2V577.4H445.4v14.7Z" class="g0_190"/>
<path fill-rule="evenodd" d="M445.4,606.8H684.2V592.1H445.4v14.7Z" class="g0_190"/>
<path fill-rule="evenodd" d="M445,621.8H684.2V607.1H445v14.7Z" class="g0_190"/>
<path fill-rule="evenodd" d="M445,636.5H684.2V621.8H445v14.7Z" class="g0_190"/>
<path fill-rule="evenodd" d="M445,651.5H684.2v-15H445v15Z" class="g0_190"/>
<path fill-rule="evenodd" d="M445,666.2H684.2V651.5H445v14.7Z" class="g0_190"/>
<path fill-rule="evenodd" d="M445,680.8H684.5V666.2H445v14.6Z" class="g0_190"/>
<path fill-rule="evenodd" d="M445,695.5H684.5V680.8H445v14.7Z" class="g0_190"/>
<path fill-rule="evenodd" d="M444.7,710.5H684.2V695.9H444.7v14.6Z" class="g0_190"/>
<path fill-rule="evenodd" d="M444.7,725.2H684.2V710.5H444.7v14.7Z" class="g0_190"/>
<path fill-rule="evenodd" d="M444.7,739.9H684.2V725.2H444.7v14.7Z" class="g0_190"/>
<path fill-rule="evenodd" d="M444.7,754.5H683.8V739.9H444.7v14.6Z" class="g0_190"/>
<path fill-rule="evenodd" d="M444.7,769.2H683.8V754.5H444.7v14.7Z" class="g0_190"/>
<path fill-rule="evenodd" d="M444.3,783.9H684.2V769.2H444.3v14.7Z" class="g0_190"/>
<path fill-rule="evenodd" d="M444.3,798.5H684.2V783.9H444.3v14.6Z" class="g0_190"/>
<path fill-rule="evenodd" d="M444.3,813.2H684.2V798.5H444.3v14.7Z" class="g0_190"/>
<path fill-rule="evenodd" d="M462.7,827.9H686V813.2H462.7v14.7Z" class="g0_190"/>
<path fill-rule="evenodd" d="M462.7,842.6H686V827.9H462.7v14.7Z" class="g0_190"/>
<path fill-rule="evenodd" d="M444.7,857.8H683.1V842.9H444.7v14.9Z" class="g0_190"/>
<path fill-rule="evenodd" d="M444.7,872.5H683.1V857.8H444.7v14.7Z" class="g0_190"/>
<path fill-rule="evenodd" d="M444.7,887.1H683.1V872.5H444.7v14.6Z" class="g0_190"/>
<path fill-rule="evenodd" d="M444.7,901.8H683.1V887.1H444.7v14.7Z" class="g0_190"/>
<path fill-rule="evenodd" d="M145.6,934.1H205V916.5H145.6v17.6Z" class="g0_190"/>
<path fill-rule="evenodd" d="M145.6,951.7H205V934.1H145.6v17.6Z" class="g0_190"/>
<path fill-rule="evenodd" d="M420.6,934.1h59.5V916.5H420.6v17.6Z" class="g0_190"/>
<path d="M433.4,150.5V919.4" class="g1_190"/>
</svg>