<?xml version="1.0" encoding="UTF-8" standalone="no"?>
<!DOCTYPE svg PUBLIC "-//W3C//DTD SVG 1.1//EN"
"http://www.w3.org/Graphics/SVG/1.1/DTD/svg11.dtd">
<svg viewBox="0 0 909 1285" version="1.1" xmlns="http://www.w3.org/2000/svg" xmlns:xlink="http://www.w3.org/1999/xlink">
<defs>
<style type="text/css"><![CDATA[
.g0_155{
fill: #FFFFFF;
}
.g1_155{
fill: none;
stroke: #000000;
stroke-width: 0.381;
stroke-linecap: butt;
stroke-linejoin: round;
}
]]></style>
</defs>
<path fill-rule="evenodd" d="M275.3,132.9H775.8V110H275.3v22.9Z" class="g0_155"/>
<path fill-rule="evenodd" d="M275.3,167.4H515.5v-15H275.3v15Z" class="g0_155"/>
<path fill-rule="evenodd" d="M275.3,182.4H515.5v-15H275.3v15Z" class="g0_155"/>
<path fill-rule="evenodd" d="M275.3,197.5H515.5V182.4H275.3v15.1Z" class="g0_155"/>
<path fill-rule="evenodd" d="M275.3,212.5H515.5v-15H275.3v15Z" class="g0_155"/>
<path fill-rule="evenodd" d="M275.3,227.5H515.5v-15H275.3v15Z" class="g0_155"/>
<path fill-rule="evenodd" d="M275.3,242.6H515.5V227.5H275.3v15.1Z" class="g0_155"/>
<path fill-rule="evenodd" d="M275.3,257.6H515.5v-15H275.3v15Z" class="g0_155"/>
<path fill-rule="evenodd" d="M275.3,272.6H515.5v-15H275.3v15Z" class="g0_155"/>
<path fill-rule="evenodd" d="M275.3,287.9H515.5V272.6H275.3v15.3Z" class="g0_155"/>
<path fill-rule="evenodd" d="M275.3,302.9H514.7v-15H275.3v15Z" class="g0_155"/>
<path fill-rule="evenodd" d="M275.3,317.9H514.7v-15H275.3v15Z" class="g0_155"/>
<path fill-rule="evenodd" d="M274.2,333H514.7V317.9H274.2V333Z" class="g0_155"/>
<path fill-rule="evenodd" d="M274.2,348H514.7V333H274.2v15Z" class="g0_155"/>
<path fill-rule="evenodd" d="M274.2,363.1H514.7V348H274.2v15.1Z" class="g0_155"/>
<path fill-rule="evenodd" d="M274.2,378.1H514.7v-15H274.2v15Z" class="g0_155"/>
<path fill-rule="evenodd" d="M274.2,393.1H514.7v-15H274.2v15Z" class="g0_155"/>
<path fill-rule="evenodd" d="M274.2,408.2H514.7V393.1H274.2v15.1Z" class="g0_155"/>
<path fill-rule="evenodd" d="M274.2,423.2H514.7v-15H274.2v15Z" class="g0_155"/>
<path fill-rule="evenodd" d="M274.2,438.2H514.7v-15H274.2v15Z" class="g0_155"/>
<path fill-rule="evenodd" d="M274.2,453.5H514.7V438.2H274.2v15.3Z" class="g0_155"/>
<path fill-rule="evenodd" d="M274.2,468.5H514.7v-15H274.2v15Z" class="g0_155"/>
<path fill-rule="evenodd" d="M274.2,483.5H514.7v-15H274.2v15Z" class="g0_155"/>
<path fill-rule="evenodd" d="M274.2,498.6H514.7V483.5H274.2v15.1Z" class="g0_155"/>
<path fill-rule="evenodd" d="M274.9,513.6H514.4v-15H274.9v15Z" class="g0_155"/>
<path fill-rule="evenodd" d="M274.9,528.6H514.4v-15H274.9v15Z" class="g0_155"/>
<path fill-rule="evenodd" d="M274.9,543.7H514.4V528.6H274.9v15.1Z" class="g0_155"/>
<path fill-rule="evenodd" d="M274.9,559.1H514.7V544H274.9v15.1Z" class="g0_155"/>
<path fill-rule="evenodd" d="M274.9,574.1H514.7v-15H274.9v15Z" class="g0_155"/>
<path fill-rule="evenodd" d="M274.9,589.1H514.7v-15H274.9v15Z" class="g0_155"/>
<path fill-rule="evenodd" d="M274.9,604.2H514.7V589.1H274.9v15.1Z" class="g0_155"/>
<path fill-rule="evenodd" d="M274.9,619.4H514.7V604.2H274.9v15.2Z" class="g0_155"/>
<path fill-rule="evenodd" d="M274.9,634.4H514.7v-15H274.9v15Z" class="g0_155"/>
<path fill-rule="evenodd" d="M274.9,649.5H514.7V634.4H274.9v15.1Z" class="g0_155"/>
<path fill-rule="evenodd" d="M274.9,664.5H514.7v-15H274.9v15Z" class="g0_155"/>
<path fill-rule="evenodd" d="M274.5,679.5H514.4v-15H274.5v15Z" class="g0_155"/>
<path fill-rule="evenodd" d="M274.5,694.6H514.4V679.5H274.5v15.1Z" class="g0_155"/>
<path fill-rule="evenodd" d="M274.5,709.6H514.7v-15H274.5v15Z" class="g0_155"/>
<path fill-rule="evenodd" d="M274.5,724.6H514.7v-15H274.5v15Z" class="g0_155"/>
<path fill-rule="evenodd" d="M274.5,739.7H514.7V724.6H274.5v15.1Z" class="g0_155"/>
<path fill-rule="evenodd" d="M274.5,754.7H514.7v-15H274.5v15Z" class="g0_155"/>
<path fill-rule="evenodd" d="M274.5,769.7H514.7v-15H274.5v15Z" class="g0_155"/>
<path fill-rule="evenodd" d="M274.5,784.8H514.7V769.7H274.5v15.1Z" class="g0_155"/>
<path fill-rule="evenodd" d="M274.5,800H514.7V784.8H274.5V800Z" class="g0_155"/>
<path fill-rule="evenodd" d="M274.5,815H514.7V800H274.5v15Z" class="g0_155"/>
<path fill-rule="evenodd" d="M274.5,830.1H514.7V815H274.5v15.1Z" class="g0_155"/>
<path fill-rule="evenodd" d="M274.5,845.1H514.7v-15H274.5v15Z" class="g0_155"/>
<path fill-rule="evenodd" d="M274.5,860.2H514.7V845.1H274.5v15.1Z" class="g0_155"/>
<path fill-rule="evenodd" d="M274.5,875.2H514.7v-15H274.5v15Z" class="g0_155"/>
<path fill-rule="evenodd" d="M274.5,890.2H514.7v-15H274.5v15Z" class="g0_155"/>
<path fill-rule="evenodd" d="M274.9,905.3H515.5V890.2H274.9v15.1Z" class="g0_155"/>
<path fill-rule="evenodd" d="M535.6,167H775.8V152H535.6v15Z" class="g0_155"/>
<path fill-rule="evenodd" d="M535.6,182.1H775.8V167H535.6v15.1Z" class="g0_155"/>
<path fill-rule="evenodd" d="M535.6,197.1H775.8v-15H535.6v15Z" class="g0_155"/>
<path fill-rule="evenodd" d="M535.6,212.1H775.8v-15H535.6v15Z" class="g0_155"/>
<path fill-rule="evenodd" d="M535.6,227.2H775.8V212.1H535.6v15.1Z" class="g0_155"/>
<path fill-rule="evenodd" d="M535.6,242.2H775.8v-15H535.6v15Z" class="g0_155"/>
<path fill-rule="evenodd" d="M535.6,257.2H775.8v-15H535.6v15Z" class="g0_155"/>
<path fill-rule="evenodd" d="M535.6,272.3H775.8V257.2H535.6v15.1Z" class="g0_155"/>
<path fill-rule="evenodd" d="M535.6,287.3H775.8v-15H535.6v15Z" class="g0_155"/>
<path fill-rule="evenodd" d="M535.6,302.5H775.8V287.3H535.6v15.2Z" class="g0_155"/>
<path fill-rule="evenodd" d="M535.6,317.6H775.8V302.5H535.6v15.1Z" class="g0_155"/>
<path fill-rule="evenodd" d="M535.6,332.6H775.8v-15H535.6v15Z" class="g0_155"/>
<path fill-rule="evenodd" d="M535.6,347.6H775.8v-15H535.6v15Z" class="g0_155"/>
<path fill-rule="evenodd" d="M535.6,362.7H775.8V347.6H535.6v15.1Z" class="g0_155"/>
<path fill-rule="evenodd" d="M535.3,377.7H775.5v-15H535.3v15Z" class="g0_155"/>
<path fill-rule="evenodd" d="M535.3,392.8H775.5V377.7H535.3v15.1Z" class="g0_155"/>
<path fill-rule="evenodd" d="M535.3,407.8H775.5v-15H535.3v15Z" class="g0_155"/>
<path fill-rule="evenodd" d="M535.3,422.8H775.5v-15H535.3v15Z" class="g0_155"/>
<path fill-rule="evenodd" d="M536,437.9H775.1V422.8H536v15.1Z" class="g0_155"/>
<path fill-rule="evenodd" d="M536,452.9H775.1v-15H536v15Z" class="g0_155"/>
<path fill-rule="evenodd" d="M536,468.1H775.1V452.9H536v15.2Z" class="g0_155"/>
<path fill-rule="evenodd" d="M536,483.2H775.1V468.1H536v15.1Z" class="g0_155"/>
<path fill-rule="evenodd" d="M554,498.2H775.8v-15H554v15Z" class="g0_155"/>
<path fill-rule="evenodd" d="M535.3,513.2H775.5v-15H535.3v15Z" class="g0_155"/>
<path fill-rule="evenodd" d="M535.3,528.3H775.5V513.2H535.3v15.1Z" class="g0_155"/>
<path fill-rule="evenodd" d="M535.3,543.3H775.5v-15H535.3v15Z" class="g0_155"/>
<path fill-rule="evenodd" d="M535.3,558.3H775.5v-15H535.3v15Z" class="g0_155"/>
<path fill-rule="evenodd" d="M535.3,573.4H775.5V558.3H535.3v15.1Z" class="g0_155"/>
<path fill-rule="evenodd" d="M535.3,588.4H775.5v-15H535.3v15Z" class="g0_155"/>
<path fill-rule="evenodd" d="M535.3,603.5H775.5V588.4H535.3v15.1Z" class="g0_155"/>
<path fill-rule="evenodd" d="M535.3,618.5H775.5v-15H535.3v15Z" class="g0_155"/>
<path fill-rule="evenodd" d="M535.3,633.5H775.5v-15H535.3v15Z" class="g0_155"/>
<path fill-rule="evenodd" d="M535.3,648.7H775.5V633.5H535.3v15.2Z" class="g0_155"/>
<path fill-rule="evenodd" d="M535.3,663.8H775.5V648.7H535.3v15.1Z" class="g0_155"/>
<path fill-rule="evenodd" d="M535.3,678.8H775.5v-15H535.3v15Z" class="g0_155"/>
<path fill-rule="evenodd" d="M535.3,693.8H775.5v-15H535.3v15Z" class="g0_155"/>
<path fill-rule="evenodd" d="M535.3,708.9H775.5V693.8H535.3v15.1Z" class="g0_155"/>
<path fill-rule="evenodd" d="M534.9,723.9H775.1v-15H534.9v15Z" class="g0_155"/>
<path fill-rule="evenodd" d="M534.9,738.9H775.1v-15H534.9v15Z" class="g0_155"/>
<path fill-rule="evenodd" d="M534.9,754H775.1V738.9H534.9V754Z" class="g0_155"/>
<path fill-rule="evenodd" d="M534.9,769H774.7V754H534.9v15Z" class="g0_155"/>
<path fill-rule="evenodd" d="M534.9,784H774.7V769H534.9v15Z" class="g0_155"/>
<path fill-rule="evenodd" d="M534.9,799.1H774.7V784H534.9v15.1Z" class="g0_155"/>
<path fill-rule="evenodd" d="M534.9,814.1H774.7v-15H534.9v15Z" class="g0_155"/>
<path fill-rule="evenodd" d="M534.9,829.3H774.7V814.1H534.9v15.2Z" class="g0_155"/>
<path fill-rule="evenodd" d="M534.9,844.4H774.7V829.3H534.9v15.1Z" class="g0_155"/>
<path fill-rule="evenodd" d="M534.9,859.4H774.7v-15H534.9v15Z" class="g0_155"/>
<path fill-rule="evenodd" d="M534.9,874.5H774.7V859.4H534.9v15.1Z" class="g0_155"/>
<path fill-rule="evenodd" d="M512.9,922.3H775.8V903.1H512.9v19.2Z" class="g0_155"/>
<path d="M211.1,121.4V497.6M213.6,92.7v909.4m-18,-497.4v191M208.5,507.6V994.5M524.9,152.7V921.6" class="g1_155"/>
</svg>