<?xml version="1.0" encoding="UTF-8" standalone="no"?>
<!DOCTYPE svg PUBLIC "-//W3C//DTD SVG 1.1//EN"
"http://www.w3.org/Graphics/SVG/1.1/DTD/svg11.dtd">
<svg viewBox="0 0 909 1285" version="1.1" xmlns="http://www.w3.org/2000/svg" xmlns:xlink="http://www.w3.org/1999/xlink">
<defs>
<style type="text/css"><![CDATA[
.g0_51{
fill: #FFFFFF;
}
.g1_51{
fill: none;
stroke: #000000;
stroke-width: 0.381;
stroke-linecap: butt;
stroke-linejoin: round;
}
]]></style>
</defs>
<path fill-rule="evenodd" d="M258.9,125.8H757.3V110H258.9v15.8Z" class="g0_51"/>
<path fill-rule="evenodd" d="M258.5,161.7H497.7v-15H258.5v15Z" class="g0_51"/>
<path fill-rule="evenodd" d="M258.2,176.9H497.7V161.7H258.2v15.2Z" class="g0_51"/>
<path fill-rule="evenodd" d="M258.2,192H497.7V176.9H258.2V192Z" class="g0_51"/>
<path fill-rule="evenodd" d="M258.5,207H497.7V192H258.5v15Z" class="g0_51"/>
<path fill-rule="evenodd" d="M258.5,222H497.7V207H258.5v15Z" class="g0_51"/>
<path fill-rule="evenodd" d="M258.5,237.1H497.7V222H258.5v15.1Z" class="g0_51"/>
<path fill-rule="evenodd" d="M258.5,252.1H497.7v-15H258.5v15Z" class="g0_51"/>
<path fill-rule="evenodd" d="M258.2,267.1H497.3v-15H258.2v15Z" class="g0_51"/>
<path fill-rule="evenodd" d="M258.2,282.2H497.3V267.1H258.2v15.1Z" class="g0_51"/>
<path fill-rule="evenodd" d="M258.2,297.2H497.3v-15H258.2v15Z" class="g0_51"/>
<path fill-rule="evenodd" d="M257.8,312.2H497.7v-15H257.8v15Z" class="g0_51"/>
<path fill-rule="evenodd" d="M257.8,327.3H497.7V312.2H257.8v15.1Z" class="g0_51"/>
<path fill-rule="evenodd" d="M257.8,342.5H497.7V327.3H257.8v15.2Z" class="g0_51"/>
<path fill-rule="evenodd" d="M257.8,357.6H497.7V342.5H257.8v15.1Z" class="g0_51"/>
<path fill-rule="evenodd" d="M257.8,372.6H497.7v-15H257.8v15Z" class="g0_51"/>
<path fill-rule="evenodd" d="M257.8,387.6H497.3v-15H257.8v15Z" class="g0_51"/>
<path fill-rule="evenodd" d="M257.8,402.7H497.3V387.6H257.8v15.1Z" class="g0_51"/>
<path fill-rule="evenodd" d="M257.8,417.7H497.3v-15H257.8v15Z" class="g0_51"/>
<path fill-rule="evenodd" d="M257.8,432.7H497.3v-15H257.8v15Z" class="g0_51"/>
<path fill-rule="evenodd" d="M257.1,447.8H496.6V432.7H257.1v15.1Z" class="g0_51"/>
<path fill-rule="evenodd" d="M257.1,462.8H496.6v-15H257.1v15Z" class="g0_51"/>
<path fill-rule="evenodd" d="M257.1,477.8H496.6v-15H257.1v15Z" class="g0_51"/>
<path fill-rule="evenodd" d="M257.1,492.9H496.6V477.8H257.1v15.1Z" class="g0_51"/>
<path fill-rule="evenodd" d="M257.1,507.9H496.6v-15H257.1v15Z" class="g0_51"/>
<path fill-rule="evenodd" d="M257.1,523.1H496.6V507.9H257.1v15.2Z" class="g0_51"/>
<path fill-rule="evenodd" d="M257.1,538.2H496.6V523.1H257.1v15.1Z" class="g0_51"/>
<path fill-rule="evenodd" d="M257.1,553.2H496.9v-15H257.1v15Z" class="g0_51"/>
<path fill-rule="evenodd" d="M257.1,568.2H496.9v-15H257.1v15Z" class="g0_51"/>
<path fill-rule="evenodd" d="M257.1,583.3H496.9V568.2H257.1v15.1Z" class="g0_51"/>
<path fill-rule="evenodd" d="M257.1,598.3H496.9v-15H257.1v15Z" class="g0_51"/>
<path fill-rule="evenodd" d="M257.1,613.4H496.9V598.3H257.1v15.1Z" class="g0_51"/>
<path fill-rule="evenodd" d="M257.1,628.4H496.9v-15H257.1v15Z" class="g0_51"/>
<path fill-rule="evenodd" d="M257.1,643.4H496.9v-15H257.1v15Z" class="g0_51"/>
<path fill-rule="evenodd" d="M257.1,658.5H496.2V643.4H257.1v15.1Z" class="g0_51"/>
<path fill-rule="evenodd" d="M257.1,673.5H496.2v-15H257.1v15Z" class="g0_51"/>
<path fill-rule="evenodd" d="M257.1,688.5H496.2v-15H257.1v15Z" class="g0_51"/>
<path fill-rule="evenodd" d="M256.7,703.7H496.2V688.5H256.7v15.2Z" class="g0_51"/>
<path fill-rule="evenodd" d="M256.7,718.8H496.2V703.7H256.7v15.1Z" class="g0_51"/>
<path fill-rule="evenodd" d="M256.7,733.8H496.2v-15H256.7v15Z" class="g0_51"/>
<path fill-rule="evenodd" d="M256.7,748.8H496.2v-15H256.7v15Z" class="g0_51"/>
<path fill-rule="evenodd" d="M256.7,763.9H496.2V748.8H256.7v15.1Z" class="g0_51"/>
<path fill-rule="evenodd" d="M256,778.9H496.2v-15H256v15Z" class="g0_51"/>
<path fill-rule="evenodd" d="M256,793.9H496.2v-15H256v15Z" class="g0_51"/>
<path fill-rule="evenodd" d="M256,809H496.2V793.9H256V809Z" class="g0_51"/>
<path fill-rule="evenodd" d="M256,824H496.2V809H256v15Z" class="g0_51"/>
<path fill-rule="evenodd" d="M256,839.1H496.2V824H256v15.1Z" class="g0_51"/>
<path fill-rule="evenodd" d="M256,854.1H496.2v-15H256v15Z" class="g0_51"/>
<path fill-rule="evenodd" d="M276.5,869.2H497.7V854.1H276.5v15.1Z" class="g0_51"/>
<path fill-rule="evenodd" d="M536.5,161.7H757.3v-15H536.5v15Z" class="g0_51"/>
<path fill-rule="evenodd" d="M517.8,176.9H757.3V161.7H517.8v15.2Z" class="g0_51"/>
<path fill-rule="evenodd" d="M517.8,192H757.3V176.9H517.8V192Z" class="g0_51"/>
<path fill-rule="evenodd" d="M517.8,207H757.3V192H517.8v15Z" class="g0_51"/>
<path fill-rule="evenodd" d="M517.8,222H757.3V207H517.8v15Z" class="g0_51"/>
<path fill-rule="evenodd" d="M517.8,237.1H757.3V222H517.8v15.1Z" class="g0_51"/>
<path fill-rule="evenodd" d="M536.2,252.1H757.3v-15H536.2v15Z" class="g0_51"/>
<path fill-rule="evenodd" d="M518.2,267.5H756.6v-15H518.2v15Z" class="g0_51"/>
<path fill-rule="evenodd" d="M518.2,282.5H756.6v-15H518.2v15Z" class="g0_51"/>
<path fill-rule="evenodd" d="M518.2,297.6H756.9V282.5H518.2v15.1Z" class="g0_51"/>
<path fill-rule="evenodd" d="M518.2,312.6H756.9v-15H518.2v15Z" class="g0_51"/>
<path fill-rule="evenodd" d="M518.2,327.8H756.6V312.6H518.2v15.2Z" class="g0_51"/>
<path fill-rule="evenodd" d="M518.2,342.9H756.6V327.8H518.2v15.1Z" class="g0_51"/>
<path fill-rule="evenodd" d="M536.2,357.9H757.3v-15H536.2v15Z" class="g0_51"/>
<path fill-rule="evenodd" d="M536.2,373H757.3V357.9H536.2V373Z" class="g0_51"/>
<path fill-rule="evenodd" d="M517.8,388H756.6V373H517.8v15Z" class="g0_51"/>
<path fill-rule="evenodd" d="M517.8,403H756.6V388H517.8v15Z" class="g0_51"/>
<path fill-rule="evenodd" d="M516.7,418.1H756.6V403H516.7v15.1Z" class="g0_51"/>
<path fill-rule="evenodd" d="M516.7,433.1H756.6v-15H516.7v15Z" class="g0_51"/>
<path fill-rule="evenodd" d="M516.7,448.1H756.6v-15H516.7v15Z" class="g0_51"/>
<path fill-rule="evenodd" d="M516.7,463.2H756.6V448.1H516.7v15.1Z" class="g0_51"/>
<path fill-rule="evenodd" d="M516.7,478.2H756.6v-15H516.7v15Z" class="g0_51"/>
<path fill-rule="evenodd" d="M516.7,493.2H756.6v-15H516.7v15Z" class="g0_51"/>
<path fill-rule="evenodd" d="M516.7,508.5H756.6V493.2H516.7v15.3Z" class="g0_51"/>
<path fill-rule="evenodd" d="M516.7,523.5H756.6v-15H516.7v15Z" class="g0_51"/>
<path fill-rule="evenodd" d="M516.7,538.5H756.6v-15H516.7v15Z" class="g0_51"/>
<path fill-rule="evenodd" d="M516.7,553.6H756.6V538.5H516.7v15.1Z" class="g0_51"/>
<path fill-rule="evenodd" d="M516.7,568.6H756.6v-15H516.7v15Z" class="g0_51"/>
<path fill-rule="evenodd" d="M516.7,583.6H756.6v-15H516.7v15Z" class="g0_51"/>
<path fill-rule="evenodd" d="M516.7,598.7H756.6V583.6H516.7v15.1Z" class="g0_51"/>
<path fill-rule="evenodd" d="M516.7,613.7H756.6v-15H516.7v15Z" class="g0_51"/>
<path fill-rule="evenodd" d="M516.7,629.1H755.1v-15H516.7v15Z" class="g0_51"/>
<path fill-rule="evenodd" d="M516.7,644.2H755.1V629.1H516.7v15.1Z" class="g0_51"/>
<path fill-rule="evenodd" d="M516.7,659.2H755.1v-15H516.7v15Z" class="g0_51"/>
<path fill-rule="evenodd" d="M516.7,674.4H755.5V659.2H516.7v15.2Z" class="g0_51"/>
<path fill-rule="evenodd" d="M516.7,689.4H755.5v-15H516.7v15Z" class="g0_51"/>
<path fill-rule="evenodd" d="M516.7,704.8H755.8v-15H516.7v15Z" class="g0_51"/>
<path fill-rule="evenodd" d="M516.7,719.9H755.8V704.8H516.7v15.1Z" class="g0_51"/>
<path fill-rule="evenodd" d="M516.7,734.9H755.8v-15H516.7v15Z" class="g0_51"/>
<path fill-rule="evenodd" d="M516.7,749.9H755.8v-15H516.7v15Z" class="g0_51"/>
<path fill-rule="evenodd" d="M516.4,765H755.5V749.9H516.4V765Z" class="g0_51"/>
<path fill-rule="evenodd" d="M516.4,780H755.5V765H516.4v15Z" class="g0_51"/>
<path fill-rule="evenodd" d="M516.4,795H755.5V780H516.4v15Z" class="g0_51"/>
<path fill-rule="evenodd" d="M516.4,810.1H755.5V795H516.4v15.1Z" class="g0_51"/>
<path fill-rule="evenodd" d="M516,825.1H755.1v-15H516v15Z" class="g0_51"/>
<path fill-rule="evenodd" d="M516,840.4H755.1V825.1H516v15.3Z" class="g0_51"/>
<path fill-rule="evenodd" d="M516.4,855.4H755.5v-15H516.4v15Z" class="g0_51"/>
<path fill-rule="evenodd" d="M516.4,870.4H755.5v-15H516.4v15Z" class="g0_51"/>
<path fill-rule="evenodd" d="M516.4,885.5H755.5V870.4H516.4v15.1Z" class="g0_51"/>
<path fill-rule="evenodd" d="M496.6,917H757.3V901.2H496.6V917Z" class="g0_51"/>
<path d="M182.2,160.3v85.8m.4,254.5v56m2.2,207.2v49.5m.4,-691.5v64.6m12,-51.7V327.6M506,147.8V916" class="g1_51"/>
</svg>