<?xml version="1.0" encoding="UTF-8" standalone="no"?>
<!DOCTYPE svg PUBLIC "-//W3C//DTD SVG 1.1//EN"
"http://www.w3.org/Graphics/SVG/1.1/DTD/svg11.dtd">
<svg viewBox="0 0 909 1285" version="1.1" xmlns="http://www.w3.org/2000/svg" xmlns:xlink="http://www.w3.org/1999/xlink">
<defs>
<style type="text/css"><![CDATA[
.g0_133{
fill: #FFFFFF;
}
.g1_133{
fill: none;
stroke: #000000;
stroke-width: 0.381;
stroke-linecap: butt;
stroke-linejoin: round;
}
.g2_133{
fill: none;
stroke: #000000;
stroke-width: 0.763;
stroke-linecap: butt;
stroke-linejoin: round;
}
.g3_133{
fill: none;
stroke: #000000;
stroke-width: 1.069;
stroke-linecap: butt;
stroke-linejoin: round;
}
]]></style>
</defs>
<path fill-rule="evenodd" d="M270.7,127.6H769.8V110H270.7v17.6Z" class="g0_133"/>
<path fill-rule="evenodd" d="M269.2,163.6H509.4V148.9H269.2v14.7Z" class="g0_133"/>
<path fill-rule="evenodd" d="M269.2,178.2H509.4V163.6H269.2v14.6Z" class="g0_133"/>
<path fill-rule="evenodd" d="M269.2,192.9H509.4V178.2H269.2v14.7Z" class="g0_133"/>
<path fill-rule="evenodd" d="M269.2,207.6H509.4V192.9H269.2v14.7Z" class="g0_133"/>
<path fill-rule="evenodd" d="M269.2,222.2H509.4V207.6H269.2v14.6Z" class="g0_133"/>
<path fill-rule="evenodd" d="M267.7,236.9H509V222.2H267.7v14.7Z" class="g0_133"/>
<path fill-rule="evenodd" d="M267.7,251.6H509V236.9H267.7v14.7Z" class="g0_133"/>
<path fill-rule="evenodd" d="M267.7,266.2H509V251.6H267.7v14.6Z" class="g0_133"/>
<path fill-rule="evenodd" d="M267.7,280.9H509V266.2H267.7v14.7Z" class="g0_133"/>
<path fill-rule="evenodd" d="M267.7,295.6H509V280.9H267.7v14.7Z" class="g0_133"/>
<path fill-rule="evenodd" d="M267.7,310.2H509V295.6H267.7v14.6Z" class="g0_133"/>
<path fill-rule="evenodd" d="M267.7,324.9H509V310.2H267.7v14.7Z" class="g0_133"/>
<path fill-rule="evenodd" d="M267.7,339.6H509V324.9H267.7v14.7Z" class="g0_133"/>
<path fill-rule="evenodd" d="M267.7,354.3H509V339.6H267.7v14.7Z" class="g0_133"/>
<path fill-rule="evenodd" d="M267.7,368.9H509V354.3H267.7v14.6Z" class="g0_133"/>
<path fill-rule="evenodd" d="M267.7,383.6H509V368.9H267.7v14.7Z" class="g0_133"/>
<path fill-rule="evenodd" d="M267.7,398.3H509V383.6H267.7v14.7Z" class="g0_133"/>
<path fill-rule="evenodd" d="M267.7,412.9H509V398.3H267.7v14.6Z" class="g0_133"/>
<path fill-rule="evenodd" d="M268.5,427.6H507.9V412.9H268.5v14.7Z" class="g0_133"/>
<path fill-rule="evenodd" d="M268.5,442.3H507.9V427.6H268.5v14.7Z" class="g0_133"/>
<path fill-rule="evenodd" d="M268.5,456.9H507.9V442.3H268.5v14.6Z" class="g0_133"/>
<path fill-rule="evenodd" d="M268.5,471.6H480.1V456.9H268.5v14.7Z" class="g0_133"/>
<path fill-rule="evenodd" d="M268.5,486.3H480.1V471.6H268.5v14.7Z" class="g0_133"/>
<path fill-rule="evenodd" d="M268.1,500.9H507.6V486.3H268.1v14.6Z" class="g0_133"/>
<path fill-rule="evenodd" d="M268.1,515.6H507.6V500.9H268.1v14.7Z" class="g0_133"/>
<path fill-rule="evenodd" d="M268.1,530.3H507.6V515.6H268.1v14.7Z" class="g0_133"/>
<path fill-rule="evenodd" d="M268.1,544.9H507.6V530.3H268.1v14.6Z" class="g0_133"/>
<path fill-rule="evenodd" d="M267.7,559.6H507.6V544.9H267.7v14.7Z" class="g0_133"/>
<path fill-rule="evenodd" d="M267.7,574.3H507.6V559.6H267.7v14.7Z" class="g0_133"/>
<path fill-rule="evenodd" d="M267.7,588.9H507.6V574.3H267.7v14.6Z" class="g0_133"/>
<path fill-rule="evenodd" d="M267.7,603.6H507.6V588.9H267.7v14.7Z" class="g0_133"/>
<path fill-rule="evenodd" d="M267.7,618.3H507.6V603.6H267.7v14.7Z" class="g0_133"/>
<path fill-rule="evenodd" d="M268.1,633H507.6V618.3H268.1V633Z" class="g0_133"/>
<path fill-rule="evenodd" d="M268.1,647.6H507.6V633H268.1v14.6Z" class="g0_133"/>
<path fill-rule="evenodd" d="M268.1,662.3H507.6V647.6H268.1v14.7Z" class="g0_133"/>
<path fill-rule="evenodd" d="M268.1,677H507.6V662.3H268.1V677Z" class="g0_133"/>
<path fill-rule="evenodd" d="M267.7,691.6H507.9V677H267.7v14.6Z" class="g0_133"/>
<path fill-rule="evenodd" d="M267.7,706.3H507.9V691.6H267.7v14.7Z" class="g0_133"/>
<path fill-rule="evenodd" d="M267.7,721H507.9V706.3H267.7V721Z" class="g0_133"/>
<path fill-rule="evenodd" d="M267.7,735.6H507.9V721H267.7v14.6Z" class="g0_133"/>
<path fill-rule="evenodd" d="M267.7,750.3H507.9V735.6H267.7v14.7Z" class="g0_133"/>
<path fill-rule="evenodd" d="M267.4,765H507.9V750.3H267.4V765Z" class="g0_133"/>
<path fill-rule="evenodd" d="M267.4,779.6H507.9V765H267.4v14.6Z" class="g0_133"/>
<path fill-rule="evenodd" d="M267.4,794.3H507.9V779.6H267.4v14.7Z" class="g0_133"/>
<path fill-rule="evenodd" d="M267.4,809H507.9V794.3H267.4V809Z" class="g0_133"/>
<path fill-rule="evenodd" d="M267.4,823.6H507.9V809H267.4v14.6Z" class="g0_133"/>
<path fill-rule="evenodd" d="M267.4,838.4H506.8V823.6H267.4v14.8Z" class="g0_133"/>
<path fill-rule="evenodd" d="M267.4,853H506.8V838.4H267.4V853Z" class="g0_133"/>
<path fill-rule="evenodd" d="M267,867.7H507.9V853H267v14.7Z" class="g0_133"/>
<path fill-rule="evenodd" d="M267,882.4H507.9V867.7H267v14.7Z" class="g0_133"/>
<path fill-rule="evenodd" d="M267,897H507.9V882.4H267V897Z" class="g0_133"/>
<path fill-rule="evenodd" d="M285.3,911.7H509.4V897H285.3v14.7Z" class="g0_133"/>
<path fill-rule="evenodd" d="M268.5,926.4H509.4V911.7H268.5v14.7Z" class="g0_133"/>
<path fill-rule="evenodd" d="M528.5,163.6H769.8V148.9H528.5v14.7Z" class="g0_133"/>
<path fill-rule="evenodd" d="M528.5,178.2H769.8V163.6H528.5v14.6Z" class="g0_133"/>
<path fill-rule="evenodd" d="M528.5,192.9H769.8V178.2H528.5v14.7Z" class="g0_133"/>
<path fill-rule="evenodd" d="M528.8,207.9H769V193.3H528.8v14.6Z" class="g0_133"/>
<path fill-rule="evenodd" d="M528.8,222.6H769V207.9H528.8v14.7Z" class="g0_133"/>
<path fill-rule="evenodd" d="M528.8,237.3H768.7V222.6H528.8v14.7Z" class="g0_133"/>
<path fill-rule="evenodd" d="M528.8,251.9H768.7V237.3H528.8v14.6Z" class="g0_133"/>
<path fill-rule="evenodd" d="M528.5,266.6H768.7V251.9H528.5v14.7Z" class="g0_133"/>
<path fill-rule="evenodd" d="M528.5,281.3H768.7V266.6H528.5v14.7Z" class="g0_133"/>
<path fill-rule="evenodd" d="M528.5,295.9H768.7V281.3H528.5v14.6Z" class="g0_133"/>
<path fill-rule="evenodd" d="M528.8,310.6H769V295.9H528.8v14.7Z" class="g0_133"/>
<path fill-rule="evenodd" d="M528.8,325.3H769V310.6H528.8v14.7Z" class="g0_133"/>
<path fill-rule="evenodd" d="M528.5,339.9H768.7V325.3H528.5v14.6Z" class="g0_133"/>
<path fill-rule="evenodd" d="M528.5,354.6H768.7V339.9H528.5v14.7Z" class="g0_133"/>
<path fill-rule="evenodd" d="M546.8,369.3h223V354.6h-223v14.7Z" class="g0_133"/>
<path fill-rule="evenodd" d="M528.5,384H767.9V369.3H528.5V384Z" class="g0_133"/>
<path fill-rule="evenodd" d="M528.5,398.6H767.9V384H528.5v14.6Z" class="g0_133"/>
<path fill-rule="evenodd" d="M528.5,413.3H767.9V398.6H528.5v14.7Z" class="g0_133"/>
<path fill-rule="evenodd" d="M546.1,428H769.8V413.3H546.1V428Z" class="g0_133"/>
<path fill-rule="evenodd" d="M527.7,442.6H767.9V428H527.7v14.6Z" class="g0_133"/>
<path fill-rule="evenodd" d="M527.7,457.3H767.9V442.6H527.7v14.7Z" class="g0_133"/>
<path fill-rule="evenodd" d="M527.7,472h241V457.3h-241V472Z" class="g0_133"/>
<path fill-rule="evenodd" d="M527.7,486.6h241V472h-241v14.6Z" class="g0_133"/>
<path fill-rule="evenodd" d="M527.7,501.3h241V486.6h-241v14.7Z" class="g0_133"/>
<path fill-rule="evenodd" d="M545.7,516H769.8V501.3H545.7V516Z" class="g0_133"/>
<path fill-rule="evenodd" d="M546.1,530.6H769.8V516H546.1v14.6Z" class="g0_133"/>
<path fill-rule="evenodd" d="M527.7,545.3H768.3V530.6H527.7v14.7Z" class="g0_133"/>
<path fill-rule="evenodd" d="M527.7,560H768.3V545.3H527.7V560Z" class="g0_133"/>
<path fill-rule="evenodd" d="M527.7,574.6H768.3V560H527.7v14.6Z" class="g0_133"/>
<path fill-rule="evenodd" d="M527.7,589.3H768.3V574.6H527.7v14.7Z" class="g0_133"/>
<path fill-rule="evenodd" d="M527.4,604H768.7V589.3H527.4V604Z" class="g0_133"/>
<path fill-rule="evenodd" d="M527.4,618.7H768.7V604H527.4v14.7Z" class="g0_133"/>
<path fill-rule="evenodd" d="M527.4,633.3H768.7V618.7H527.4v14.6Z" class="g0_133"/>
<path fill-rule="evenodd" d="M527.4,648H768.7V633.3H527.4V648Z" class="g0_133"/>
<path fill-rule="evenodd" d="M527.7,662.7H767.6V648H527.7v14.7Z" class="g0_133"/>
<path fill-rule="evenodd" d="M527.7,677.3H767.6V662.7H527.7v14.6Z" class="g0_133"/>
<path fill-rule="evenodd" d="M527,692H767.9V677.3H527V692Z" class="g0_133"/>
<path fill-rule="evenodd" d="M527,706.7H767.9V692H527v14.7Z" class="g0_133"/>
<path fill-rule="evenodd" d="M527,721.3H767.9V706.7H527v14.6Z" class="g0_133"/>
<path fill-rule="evenodd" d="M527.7,736H767.2V721.3H527.7V736Z" class="g0_133"/>
<path fill-rule="evenodd" d="M527.7,750.7H767.2V736H527.7v14.7Z" class="g0_133"/>
<path fill-rule="evenodd" d="M527.7,765.3H740.4V750.7H527.7v14.6Z" class="g0_133"/>
<path fill-rule="evenodd" d="M527.7,780H740.4V765.3H527.7V780Z" class="g0_133"/>
<path fill-rule="evenodd" d="M527,794.7H767.9V780H527v14.7Z" class="g0_133"/>
<path fill-rule="evenodd" d="M527,809.3H767.9V794.7H527v14.6Z" class="g0_133"/>
<path fill-rule="evenodd" d="M527,824H767.9V809.3H527V824Z" class="g0_133"/>
<path fill-rule="evenodd" d="M527,838.7H767.9V824H527v14.7Z" class="g0_133"/>
<path fill-rule="evenodd" d="M527,853.4H767.9V838.7H527v14.7Z" class="g0_133"/>
<path fill-rule="evenodd" d="M527.4,868.4H767.9V853.8H527.4v14.6Z" class="g0_133"/>
<path fill-rule="evenodd" d="M527.4,883.1H767.9V868.4H527.4v14.7Z" class="g0_133"/>
<path fill-rule="evenodd" d="M527.4,897.8H767.9V883.1H527.4v14.7Z" class="g0_133"/>
<path fill-rule="evenodd" d="M527.4,912.4H767.9V897.8H527.4v14.6Z" class="g0_133"/>
<path fill-rule="evenodd" d="M505,945.1H769.8V927.5H505v17.6Z" class="g0_133"/>
<path d="M214.9,125.4V496.8" class="g1_133"/>
<path d="M173,423v59.8m4.5,-13.9V593.2" class="g2_133"/>
<path d="M191,886.6V946" class="g3_133"/>
<path d="M192.5,433.4V631.7m3.3,-126.8V720.1M212.3,496.8V945.9M517.4,148.8V919.6" class="g1_133"/>
</svg>