<?xml version="1.0" encoding="UTF-8" standalone="no"?>
<!DOCTYPE svg PUBLIC "-//W3C//DTD SVG 1.1//EN"
"http://www.w3.org/Graphics/SVG/1.1/DTD/svg11.dtd">
<svg viewBox="0 0 909 1285" version="1.1" xmlns="http://www.w3.org/2000/svg" xmlns:xlink="http://www.w3.org/1999/xlink">
<defs>
<style type="text/css"><![CDATA[
.g0_222{
fill: #FFFFFF;
}
.g1_222{
fill: none;
stroke: #000000;
stroke-width: 3.666;
stroke-linecap: butt;
stroke-linejoin: round;
}
.g2_222{
fill: none;
stroke: #000000;
stroke-width: 0.381;
stroke-linecap: butt;
stroke-linejoin: round;
}
]]></style>
</defs>
<path fill-rule="evenodd" d="M651,125.8h59.4V110H651v15.8Z" class="g0_222"/>
<path fill-rule="evenodd" d="M187.4,162.3h238V147.1h-238v15.2Z" class="g0_222"/>
<path fill-rule="evenodd" d="M187.4,177.3h238v-15h-238v15Z" class="g0_222"/>
<path fill-rule="evenodd" d="M187.4,192.3h238v-15h-238v15Z" class="g0_222"/>
<path fill-rule="evenodd" d="M187.8,207.4H425.4V192.3H187.8v15.1Z" class="g0_222"/>
<path fill-rule="evenodd" d="M187.8,222.4H425.4v-15H187.8v15Z" class="g0_222"/>
<path fill-rule="evenodd" d="M187,237.4H425.4v-15H187v15Z" class="g0_222"/>
<path fill-rule="evenodd" d="M187,252.5H425.4V237.4H187v15.1Z" class="g0_222"/>
<path fill-rule="evenodd" d="M187,267.5H425.4v-15H187v15Z" class="g0_222"/>
<path fill-rule="evenodd" d="M187,282.5H425.4v-15H187v15Z" class="g0_222"/>
<path fill-rule="evenodd" d="M187,297.6H425.4V282.5H187v15.1Z" class="g0_222"/>
<path fill-rule="evenodd" d="M187,312.6H425.4v-15H187v15Z" class="g0_222"/>
<path fill-rule="evenodd" d="M187,327.8H425.4V312.6H187v15.2Z" class="g0_222"/>
<path fill-rule="evenodd" d="M187,342.9H425.4V327.8H187v15.1Z" class="g0_222"/>
<path fill-rule="evenodd" d="M187,357.9H425v-15H187v15Z" class="g0_222"/>
<path fill-rule="evenodd" d="M187,373H425V357.9H187V373Z" class="g0_222"/>
<path fill-rule="evenodd" d="M187,388H425V373H187v15Z" class="g0_222"/>
<path fill-rule="evenodd" d="M186.7,403h238V388h-238v15Z" class="g0_222"/>
<path fill-rule="evenodd" d="M186.7,418.1h238V403h-238v15.1Z" class="g0_222"/>
<path fill-rule="evenodd" d="M187,433.1H425v-15H187v15Z" class="g0_222"/>
<path fill-rule="evenodd" d="M187,448.1H425v-15H187v15Z" class="g0_222"/>
<path fill-rule="evenodd" d="M187.4,463.2h238V448.1h-238v15.1Z" class="g0_222"/>
<path fill-rule="evenodd" d="M445.9,161.7H684.7v-15H445.9v15Z" class="g0_222"/>
<path fill-rule="evenodd" d="M445.9,176.9H684.7V161.7H445.9v15.2Z" class="g0_222"/>
<path fill-rule="evenodd" d="M463.9,192H684.7V176.9H463.9V192Z" class="g0_222"/>
<path fill-rule="evenodd" d="M445.9,207H684.4V192H445.9v15Z" class="g0_222"/>
<path fill-rule="evenodd" d="M445.9,222H684.4V207H445.9v15Z" class="g0_222"/>
<path fill-rule="evenodd" d="M445.9,237.1H684.4V222H445.9v15.1Z" class="g0_222"/>
<path fill-rule="evenodd" d="M445.9,252.1H684.4v-15H445.9v15Z" class="g0_222"/>
<path fill-rule="evenodd" d="M445.9,267.1H684.4v-15H445.9v15Z" class="g0_222"/>
<path fill-rule="evenodd" d="M463.9,282.2H684.7V267.1H463.9v15.1Z" class="g0_222"/>
<path fill-rule="evenodd" d="M445.2,297.2H684.7v-15H445.2v15Z" class="g0_222"/>
<path fill-rule="evenodd" d="M445.2,312.2H684.7v-15H445.2v15Z" class="g0_222"/>
<path fill-rule="evenodd" d="M445.6,327.3H684.4V312.2H445.6v15.1Z" class="g0_222"/>
<path fill-rule="evenodd" d="M445.6,342.5H684.4V327.3H445.6v15.2Z" class="g0_222"/>
<path fill-rule="evenodd" d="M445.6,357.6H684.4V342.5H445.6v15.1Z" class="g0_222"/>
<path fill-rule="evenodd" d="M445.9,372.6H684.4v-15H445.9v15Z" class="g0_222"/>
<path fill-rule="evenodd" d="M445.9,387.6H684.4v-15H445.9v15Z" class="g0_222"/>
<path fill-rule="evenodd" d="M445.6,402.7H684.4V387.6H445.6v15.1Z" class="g0_222"/>
<path fill-rule="evenodd" d="M445.6,417.7H684.4v-15H445.6v15Z" class="g0_222"/>
<path fill-rule="evenodd" d="M445.6,432.7H684.4v-15H445.6v15Z" class="g0_222"/>
<path fill-rule="evenodd" d="M445.6,447.8H684.4V432.7H445.6v15.1Z" class="g0_222"/>
<path fill-rule="evenodd" d="M418.8,511.6H710.4v-25H418.8v25Z" class="g0_222"/>
<path fill-rule="evenodd" d="M186.3,546.4H428v-15H186.3v15Z" class="g0_222"/>
<path fill-rule="evenodd" d="M186.3,561.4H428v-15H186.3v15Z" class="g0_222"/>
<path fill-rule="evenodd" d="M186.7,576.5H427.2V561.4H186.7v15.1Z" class="g0_222"/>
<path fill-rule="evenodd" d="M186.7,591.5H427.2v-15H186.7v15Z" class="g0_222"/>
<path fill-rule="evenodd" d="M204.6,606.6H428V591.5H204.6v15.1Z" class="g0_222"/>
<path fill-rule="evenodd" d="M185.9,621.6H427.2v-15H185.9v15Z" class="g0_222"/>
<path fill-rule="evenodd" d="M185.9,636.8H427.2V621.6H185.9v15.2Z" class="g0_222"/>
<path fill-rule="evenodd" d="M185.9,651.9H427.2V636.8H185.9v15.1Z" class="g0_222"/>
<path fill-rule="evenodd" d="M185.9,666.9H427.2v-15H185.9v15Z" class="g0_222"/>
<path fill-rule="evenodd" d="M185.9,681.9h241v-15h-241v15Z" class="g0_222"/>
<path fill-rule="evenodd" d="M185.9,697h241V681.9h-241V697Z" class="g0_222"/>
<path fill-rule="evenodd" d="M203.9,712H428V697H203.9v15Z" class="g0_222"/>
<path fill-rule="evenodd" d="M185.9,727h241V712h-241v15Z" class="g0_222"/>
<path fill-rule="evenodd" d="M185.9,742.1h241V727h-241v15.1Z" class="g0_222"/>
<path fill-rule="evenodd" d="M185.6,757.1H426.9v-15H185.6v15Z" class="g0_222"/>
<path fill-rule="evenodd" d="M185.6,772.1H426.9v-15H185.6v15Z" class="g0_222"/>
<path fill-rule="evenodd" d="M185.6,787.2H426.9V772.1H185.6v15.1Z" class="g0_222"/>
<path fill-rule="evenodd" d="M185.2,802.2H426.9v-15H185.2v15Z" class="g0_222"/>
<path fill-rule="evenodd" d="M185.2,817.4H426.9V802.2H185.2v15.2Z" class="g0_222"/>
<path fill-rule="evenodd" d="M185.2,832.5H426.9V817.4H185.2v15.1Z" class="g0_222"/>
<path fill-rule="evenodd" d="M203.5,847.5H428v-15H203.5v15Z" class="g0_222"/>
<path fill-rule="evenodd" d="M185.6,862.6H426.5V847.5H185.6v15.1Z" class="g0_222"/>
<path fill-rule="evenodd" d="M185.6,877.6H426.5v-15H185.6v15Z" class="g0_222"/>
<path fill-rule="evenodd" d="M186.7,892.6H428v-15H186.7v15Z" class="g0_222"/>
<path fill-rule="evenodd" d="M442.3,545.3H683.6v-15H442.3v15Z" class="g0_222"/>
<path fill-rule="evenodd" d="M442.3,560.3H683.6v-15H442.3v15Z" class="g0_222"/>
<path fill-rule="evenodd" d="M459.9,575.4H683.6V560.3H459.9v15.1Z" class="g0_222"/>
<path fill-rule="evenodd" d="M441.9,590.4H683.3v-15H441.9v15Z" class="g0_222"/>
<path fill-rule="evenodd" d="M441.9,605.7H683.3V590.4H441.9v15.3Z" class="g0_222"/>
<path fill-rule="evenodd" d="M441.9,620.7H683.6v-15H441.9v15Z" class="g0_222"/>
<path fill-rule="evenodd" d="M441.9,635.7H683.6v-15H441.9v15Z" class="g0_222"/>
<path fill-rule="evenodd" d="M441.2,650.8H682.9V635.7H441.2v15.1Z" class="g0_222"/>
<path fill-rule="evenodd" d="M441.2,665.8H682.9v-15H441.2v15Z" class="g0_222"/>
<path fill-rule="evenodd" d="M441.5,680.8H682.9v-15H441.5v15Z" class="g0_222"/>
<path fill-rule="evenodd" d="M441.5,695.9H682.9V680.8H441.5v15.1Z" class="g0_222"/>
<path fill-rule="evenodd" d="M441.5,710.9H682.9v-15H441.5v15Z" class="g0_222"/>
<path fill-rule="evenodd" d="M441.2,725.9H683.3v-15H441.2v15Z" class="g0_222"/>
<path fill-rule="evenodd" d="M441.2,741H683.3V725.9H441.2V741Z" class="g0_222"/>
<path fill-rule="evenodd" d="M441.2,756H683.3V741H441.2v15Z" class="g0_222"/>
<path fill-rule="evenodd" d="M441.2,771H683.3V756H441.2v15Z" class="g0_222"/>
<path fill-rule="evenodd" d="M459.5,786.2H683.6V771H459.5v15.2Z" class="g0_222"/>
<path fill-rule="evenodd" d="M440.8,801.3H683.6V786.2H440.8v15.1Z" class="g0_222"/>
<path fill-rule="evenodd" d="M440.8,816.3H683.6v-15H440.8v15Z" class="g0_222"/>
<path fill-rule="evenodd" d="M440.8,831.3H683.6v-15H440.8v15Z" class="g0_222"/>
<path fill-rule="evenodd" d="M440.8,846.4H683.6V831.3H440.8v15.1Z" class="g0_222"/>
<path fill-rule="evenodd" d="M441.2,861.5H682.9V846.4H441.2v15.1Z" class="g0_222"/>
<path fill-rule="evenodd" d="M441.2,876.5H682.9v-15H441.2v15Z" class="g0_222"/>
<path fill-rule="evenodd" d="M420.3,908.8H710.4V891.2H420.3v17.6Z" class="g0_222"/>
<path d="M162.4,249.8V419.5" class="g1_222"/>
<path d="M434.5,146.4V461.7M433,529.1V897.6" class="g2_222"/>
</svg>