<?xml version="1.0" encoding="UTF-8" standalone="no"?>
<!DOCTYPE svg PUBLIC "-//W3C//DTD SVG 1.1//EN"
"http://www.w3.org/Graphics/SVG/1.1/DTD/svg11.dtd">
<svg viewBox="0 0 909 1285" version="1.1" xmlns="http://www.w3.org/2000/svg" xmlns:xlink="http://www.w3.org/1999/xlink">
<defs>
<style type="text/css"><![CDATA[
.g0_249{
fill: #FFFFFF;
}
.g1_249{
fill: none;
stroke: #000000;
stroke-width: 0.763;
stroke-linecap: butt;
stroke-linejoin: round;
}
]]></style>
</defs>
<path fill-rule="evenodd" d="M599.1,125.8h94.6V110H599.1v15.8Z" class="g0_249"/>
<path fill-rule="evenodd" d="M196,161.4H434.7V146.3H196v15.1Z" class="g0_249"/>
<path fill-rule="evenodd" d="M196,176.4H434.7v-15H196v15Z" class="g0_249"/>
<path fill-rule="evenodd" d="M196,191.6H434.7V176.4H196v15.2Z" class="g0_249"/>
<path fill-rule="evenodd" d="M196,206.6H434.7v-15H196v15Z" class="g0_249"/>
<path fill-rule="evenodd" d="M196,221.7H434.7V206.6H196v15.1Z" class="g0_249"/>
<path fill-rule="evenodd" d="M196,236.7H434.7v-15H196v15Z" class="g0_249"/>
<path fill-rule="evenodd" d="M196,251.7H434v-15H196v15Z" class="g0_249"/>
<path fill-rule="evenodd" d="M196,266.8H434V251.7H196v15.1Z" class="g0_249"/>
<path fill-rule="evenodd" d="M196,281.8H434.7v-15H196v15Z" class="g0_249"/>
<path fill-rule="evenodd" d="M196,296.8H434.7v-15H196v15Z" class="g0_249"/>
<path fill-rule="evenodd" d="M196,311.9H434.7V296.8H196v15.1Z" class="g0_249"/>
<path fill-rule="evenodd" d="M196,326.9H434.7v-15H196v15Z" class="g0_249"/>
<path fill-rule="evenodd" d="M196,341.9H434.7v-15H196v15Z" class="g0_249"/>
<path fill-rule="evenodd" d="M196,357.2H434.7V342H196v15.2Z" class="g0_249"/>
<path fill-rule="evenodd" d="M196,372.2H434.7v-15H196v15Z" class="g0_249"/>
<path fill-rule="evenodd" d="M196,387.3H434.7V372.2H196v15.1Z" class="g0_249"/>
<path fill-rule="evenodd" d="M196,402.3H434.7v-15H196v15Z" class="g0_249"/>
<path fill-rule="evenodd" d="M195.3,417.3H434v-15H195.3v15Z" class="g0_249"/>
<path fill-rule="evenodd" d="M195.3,432.4H434V417.3H195.3v15.1Z" class="g0_249"/>
<path fill-rule="evenodd" d="M195.3,447.4H434v-15H195.3v15Z" class="g0_249"/>
<path fill-rule="evenodd" d="M195.6,462.4h238v-15h-238v15Z" class="g0_249"/>
<path fill-rule="evenodd" d="M195.6,477.5h238V462.4h-238v15.1Z" class="g0_249"/>
<path fill-rule="evenodd" d="M195.3,492.5H433.6v-15H195.3v15Z" class="g0_249"/>
<path fill-rule="evenodd" d="M195.3,507.5H433.6v-15H195.3v15Z" class="g0_249"/>
<path fill-rule="evenodd" d="M195.3,522.6H433.6V507.5H195.3v15.1Z" class="g0_249"/>
<path fill-rule="evenodd" d="M195.6,537.8h238V522.6h-238v15.2Z" class="g0_249"/>
<path fill-rule="evenodd" d="M195.6,552.8h238v-15h-238v15Z" class="g0_249"/>
<path fill-rule="evenodd" d="M194.5,567.9H433.6V552.8H194.5v15.1Z" class="g0_249"/>
<path fill-rule="evenodd" d="M194.5,582.9H433.6v-15H194.5v15Z" class="g0_249"/>
<path fill-rule="evenodd" d="M194.9,598H432.5V582.9H194.9V598Z" class="g0_249"/>
<path fill-rule="evenodd" d="M194.9,613H432.5V598H194.9v15Z" class="g0_249"/>
<path fill-rule="evenodd" d="M194.2,628H433.3V613H194.2v15Z" class="g0_249"/>
<path fill-rule="evenodd" d="M194.2,643.1H433.3V628H194.2v15.1Z" class="g0_249"/>
<path fill-rule="evenodd" d="M194.2,658.1H433.3v-15H194.2v15Z" class="g0_249"/>
<path fill-rule="evenodd" d="M194.2,673.1H433.3v-15H194.2v15Z" class="g0_249"/>
<path fill-rule="evenodd" d="M194.2,688.2H433.3V673.1H194.2v15.1Z" class="g0_249"/>
<path fill-rule="evenodd" d="M194.2,703.2H433.3v-15H194.2v15Z" class="g0_249"/>
<path fill-rule="evenodd" d="M194.2,718.4H433.3V703.2H194.2v15.2Z" class="g0_249"/>
<path fill-rule="evenodd" d="M194.2,733.4H433.3v-15H194.2v15Z" class="g0_249"/>
<path fill-rule="evenodd" d="M194.2,748.5H433.3V733.4H194.2v15.1Z" class="g0_249"/>
<path fill-rule="evenodd" d="M194.2,763.5H433.3v-15H194.2v15Z" class="g0_249"/>
<path fill-rule="evenodd" d="M194.2,778.5H432.5v-15H194.2v15Z" class="g0_249"/>
<path fill-rule="evenodd" d="M194.2,793.6H432.5V778.5H194.2v15.1Z" class="g0_249"/>
<path fill-rule="evenodd" d="M194.2,808.6H432.5v-15H194.2v15Z" class="g0_249"/>
<path fill-rule="evenodd" d="M193.8,823.6H432.2v-15H193.8v15Z" class="g0_249"/>
<path fill-rule="evenodd" d="M193.8,838.7H432.2V823.6H193.8v15.1Z" class="g0_249"/>
<path fill-rule="evenodd" d="M212.5,853.8H434.7V838.7H212.5v15.1Z" class="g0_249"/>
<path fill-rule="evenodd" d="M214.3,868.8H384.9v-15H214.3v15Z" class="g0_249"/>
<path fill-rule="evenodd" d="M472.9,161.7H643.5v-15H472.9v15Z" class="g0_249"/>
<path fill-rule="evenodd" d="M472.9,176.9H643.5V161.7H472.9v15.2Z" class="g0_249"/>
<path fill-rule="evenodd" d="M454.2,192H693.3V176.9H454.2V192Z" class="g0_249"/>
<path fill-rule="evenodd" d="M454.2,207H693.3V192H454.2v15Z" class="g0_249"/>
<path fill-rule="evenodd" d="M454.2,222H693.3V207H454.2v15Z" class="g0_249"/>
<path fill-rule="evenodd" d="M454.6,237.1H693.3V222H454.6v15.1Z" class="g0_249"/>
<path fill-rule="evenodd" d="M454.6,252.1H693.3v-15H454.6v15Z" class="g0_249"/>
<path fill-rule="evenodd" d="M454.6,267.1H693.3v-15H454.6v15Z" class="g0_249"/>
<path fill-rule="evenodd" d="M472.9,282.2H693.3V267.1H472.9v15.1Z" class="g0_249"/>
<path fill-rule="evenodd" d="M454.2,297.2H693.3v-15H454.2v15Z" class="g0_249"/>
<path fill-rule="evenodd" d="M454.2,312.2H693.3v-15H454.2v15Z" class="g0_249"/>
<path fill-rule="evenodd" d="M454.2,327.3H693.3V312.2H454.2v15.1Z" class="g0_249"/>
<path fill-rule="evenodd" d="M454.2,342.5H693.3V327.3H454.2v15.2Z" class="g0_249"/>
<path fill-rule="evenodd" d="M454.2,357.6H693V342.5H454.2v15.1Z" class="g0_249"/>
<path fill-rule="evenodd" d="M454.2,372.6H693v-15H454.2v15Z" class="g0_249"/>
<path fill-rule="evenodd" d="M454.2,387.6H693v-15H454.2v15Z" class="g0_249"/>
<path fill-rule="evenodd" d="M454.2,402.7H693V387.6H454.2v15.1Z" class="g0_249"/>
<path fill-rule="evenodd" d="M472.6,418.1H693.3V403H472.6v15.1Z" class="g0_249"/>
<path fill-rule="evenodd" d="M453.9,433.1H692.6v-15H453.9v15Z" class="g0_249"/>
<path fill-rule="evenodd" d="M453.9,448.1H692.6v-15H453.9v15Z" class="g0_249"/>
<path fill-rule="evenodd" d="M453.9,463.2H692.6V448.1H453.9v15.1Z" class="g0_249"/>
<path fill-rule="evenodd" d="M453.5,478.2H693v-15H453.5v15Z" class="g0_249"/>
<path fill-rule="evenodd" d="M453.5,493.2H693v-15H453.5v15Z" class="g0_249"/>
<path fill-rule="evenodd" d="M453.5,508.5H693V493.2H453.5v15.3Z" class="g0_249"/>
<path fill-rule="evenodd" d="M453.5,523.5H693v-15H453.5v15Z" class="g0_249"/>
<path fill-rule="evenodd" d="M453.5,538.5H693v-15H453.5v15Z" class="g0_249"/>
<path fill-rule="evenodd" d="M453.5,553.6H692.6V538.5H453.5v15.1Z" class="g0_249"/>
<path fill-rule="evenodd" d="M453.5,568.6H692.6v-15H453.5v15Z" class="g0_249"/>
<path fill-rule="evenodd" d="M453.5,583.6H692.6v-15H453.5v15Z" class="g0_249"/>
<path fill-rule="evenodd" d="M471.8,598.7H693.3V583.6H471.8v15.1Z" class="g0_249"/>
<path fill-rule="evenodd" d="M453.5,613.7H692.6v-15H453.5v15Z" class="g0_249"/>
<path fill-rule="evenodd" d="M453.5,628.8H692.6V613.7H453.5v15.1Z" class="g0_249"/>
<path fill-rule="evenodd" d="M453.5,643.8H692.6v-15H453.5v15Z" class="g0_249"/>
<path fill-rule="evenodd" d="M453.5,658.8H692.6v-15H453.5v15Z" class="g0_249"/>
<path fill-rule="evenodd" d="M453.1,673.9H691.9V658.8H453.1v15.1Z" class="g0_249"/>
<path fill-rule="evenodd" d="M453.1,689.1H691.9V673.9H453.1v15.2Z" class="g0_249"/>
<path fill-rule="evenodd" d="M453.1,704.1H691.9v-15H453.1v15Z" class="g0_249"/>
<path fill-rule="evenodd" d="M471.5,719.1H693.3v-15H471.5v15Z" class="g0_249"/>
<path fill-rule="evenodd" d="M452.8,734.2H691.9V719.1H452.8v15.1Z" class="g0_249"/>
<path fill-rule="evenodd" d="M452.8,749.2H691.9v-15H452.8v15Z" class="g0_249"/>
<path fill-rule="evenodd" d="M452.8,764.2H691.9v-15H452.8v15Z" class="g0_249"/>
<path fill-rule="evenodd" d="M452.8,779.3H691.9V764.2H452.8v15.1Z" class="g0_249"/>
<path fill-rule="evenodd" d="M452.8,794.3H691.9v-15H452.8v15Z" class="g0_249"/>
<path fill-rule="evenodd" d="M452.4,809.3H691.9v-15H452.4v15Z" class="g0_249"/>
<path fill-rule="evenodd" d="M452.4,824.4H691.9V809.3H452.4v15.1Z" class="g0_249"/>
<path fill-rule="evenodd" d="M452.4,839.5H691.9V824.4H452.4v15.1Z" class="g0_249"/>
<path fill-rule="evenodd" d="M452.4,854.5H691.5v-15H452.4v15Z" class="g0_249"/>
<path fill-rule="evenodd" d="M452.4,869.7H691.5V854.5H452.4v15.2Z" class="g0_249"/>
<path fill-rule="evenodd" d="M452.4,884.7H691.5v-15H452.4v15Z" class="g0_249"/>
<path d="M441.7,146V914.5" class="g1_249"/>
</svg>