<?xml version="1.0" encoding="UTF-8" standalone="no"?>
<!DOCTYPE svg PUBLIC "-//W3C//DTD SVG 1.1//EN"
"http://www.w3.org/Graphics/SVG/1.1/DTD/svg11.dtd">
<svg viewBox="0 0 909 1285" version="1.1" xmlns="http://www.w3.org/2000/svg" xmlns:xlink="http://www.w3.org/1999/xlink">
<defs>
<style type="text/css"><![CDATA[
.g0_189{
fill: #FFFFFF;
}
.g1_189{
fill: none;
stroke: #000000;
stroke-width: 0.381;
stroke-linecap: butt;
stroke-linejoin: round;
}
.g2_189{
fill: none;
stroke: #000000;
stroke-width: 0.763;
stroke-linecap: butt;
stroke-linejoin: round;
}
]]></style>
</defs>
<path fill-rule="evenodd" d="M282.6,125.8H779.9V110H282.6v15.8Z" class="g0_189"/>
<path fill-rule="evenodd" d="M282.2,161.7H521.7v-15H282.2v15Z" class="g0_189"/>
<path fill-rule="evenodd" d="M282.2,176.9H521.7V161.7H282.2v15.2Z" class="g0_189"/>
<path fill-rule="evenodd" d="M282.2,192H521.7V176.9H282.2V192Z" class="g0_189"/>
<path fill-rule="evenodd" d="M282.2,207H521.7V192H282.2v15Z" class="g0_189"/>
<path fill-rule="evenodd" d="M282.6,222h238V207h-238v15Z" class="g0_189"/>
<path fill-rule="evenodd" d="M282.6,237.1h238V222h-238v15.1Z" class="g0_189"/>
<path fill-rule="evenodd" d="M281.9,252.1H521.3v-15H281.9v15Z" class="g0_189"/>
<path fill-rule="evenodd" d="M281.9,267.1H521.3v-15H281.9v15Z" class="g0_189"/>
<path fill-rule="evenodd" d="M281.9,282.2H521.3V267.1H281.9v15.1Z" class="g0_189"/>
<path fill-rule="evenodd" d="M281.9,297.2H521.3v-15H281.9v15Z" class="g0_189"/>
<path fill-rule="evenodd" d="M281.9,312.2H521.3v-15H281.9v15Z" class="g0_189"/>
<path fill-rule="evenodd" d="M281.9,327.3H521.3V312.2H281.9v15.1Z" class="g0_189"/>
<path fill-rule="evenodd" d="M281.9,342.5H521.3V327.3H281.9v15.2Z" class="g0_189"/>
<path fill-rule="evenodd" d="M281.9,357.6H521.3V342.5H281.9v15.1Z" class="g0_189"/>
<path fill-rule="evenodd" d="M281.5,372.6H521v-15H281.5v15Z" class="g0_189"/>
<path fill-rule="evenodd" d="M281.5,387.6H521v-15H281.5v15Z" class="g0_189"/>
<path fill-rule="evenodd" d="M281.5,402.7H521V387.6H281.5v15.1Z" class="g0_189"/>
<path fill-rule="evenodd" d="M281.5,417.7H521v-15H281.5v15Z" class="g0_189"/>
<path fill-rule="evenodd" d="M281.5,432.7H520.2v-15H281.5v15Z" class="g0_189"/>
<path fill-rule="evenodd" d="M281.5,447.8H520.2V432.7H281.5v15.1Z" class="g0_189"/>
<path fill-rule="evenodd" d="M281.5,463.2H519.9V448.1H281.5v15.1Z" class="g0_189"/>
<path fill-rule="evenodd" d="M281.5,478.2H519.9v-15H281.5v15Z" class="g0_189"/>
<path fill-rule="evenodd" d="M281.5,493.2H519.9v-15H281.5v15Z" class="g0_189"/>
<path fill-rule="evenodd" d="M281.5,508.5H519.9V493.2H281.5v15.3Z" class="g0_189"/>
<path fill-rule="evenodd" d="M281.1,523.5H519.9v-15H281.1v15Z" class="g0_189"/>
<path fill-rule="evenodd" d="M281.1,538.5H519.9v-15H281.1v15Z" class="g0_189"/>
<path fill-rule="evenodd" d="M281.1,553.6H519.9V538.5H281.1v15.1Z" class="g0_189"/>
<path fill-rule="evenodd" d="M281.1,568.6H519.9v-15H281.1v15Z" class="g0_189"/>
<path fill-rule="evenodd" d="M280.8,583.6H519.9v-15H280.8v15Z" class="g0_189"/>
<path fill-rule="evenodd" d="M280.8,598.7H519.9V583.6H280.8v15.1Z" class="g0_189"/>
<path fill-rule="evenodd" d="M280.8,613.7H519.9v-15H280.8v15Z" class="g0_189"/>
<path fill-rule="evenodd" d="M280.8,628.8H519.9V613.7H280.8v15.1Z" class="g0_189"/>
<path fill-rule="evenodd" d="M280.8,643.8H519.9v-15H280.8v15Z" class="g0_189"/>
<path fill-rule="evenodd" d="M280.4,658.8H519.9v-15H280.4v15Z" class="g0_189"/>
<path fill-rule="evenodd" d="M280.4,673.9H519.9V658.8H280.4v15.1Z" class="g0_189"/>
<path fill-rule="evenodd" d="M280.4,689.1H519.9V673.9H280.4v15.2Z" class="g0_189"/>
<path fill-rule="evenodd" d="M280.4,704.1H519.9v-15H280.4v15Z" class="g0_189"/>
<path fill-rule="evenodd" d="M280.8,719.1H519.5v-15H280.8v15Z" class="g0_189"/>
<path fill-rule="evenodd" d="M280.8,734.2H519.5V719.1H280.8v15.1Z" class="g0_189"/>
<path fill-rule="evenodd" d="M280,749.2H519.1v-15H280v15Z" class="g0_189"/>
<path fill-rule="evenodd" d="M280,764.2H519.1v-15H280v15Z" class="g0_189"/>
<path fill-rule="evenodd" d="M280,779.3H519.1V764.2H280v15.1Z" class="g0_189"/>
<path fill-rule="evenodd" d="M280,794.3H519.1v-15H280v15Z" class="g0_189"/>
<path fill-rule="evenodd" d="M280,809.3H519.1v-15H280v15Z" class="g0_189"/>
<path fill-rule="evenodd" d="M280,824.4H519.1V809.3H280v15.1Z" class="g0_189"/>
<path fill-rule="evenodd" d="M280,839.5H519.1V824.4H280v15.1Z" class="g0_189"/>
<path fill-rule="evenodd" d="M280,854.5H519.1v-15H280v15Z" class="g0_189"/>
<path fill-rule="evenodd" d="M280,869.7H518.8V854.5H280v15.2Z" class="g0_189"/>
<path fill-rule="evenodd" d="M280,884.7H518.8v-15H280v15Z" class="g0_189"/>
<path fill-rule="evenodd" d="M280,899.8H518.8V884.7H280v15.1Z" class="g0_189"/>
<path fill-rule="evenodd" d="M282.6,914.8H521.7v-15H282.6v15Z" class="g0_189"/>
<path fill-rule="evenodd" d="M541.3,161.4H779.7V146.3H541.3v15.1Z" class="g0_189"/>
<path fill-rule="evenodd" d="M541.3,176.4H779.7v-15H541.3v15Z" class="g0_189"/>
<path fill-rule="evenodd" d="M541.3,192H778.9V176.8H541.3V192Z" class="g0_189"/>
<path fill-rule="evenodd" d="M541.3,207H778.9V192H541.3v15Z" class="g0_189"/>
<path fill-rule="evenodd" d="M541.3,222H779.7V207H541.3v15Z" class="g0_189"/>
<path fill-rule="evenodd" d="M541.3,237.1H779.7V222H541.3v15.1Z" class="g0_189"/>
<path fill-rule="evenodd" d="M541.3,252.1H779.7v-15H541.3v15Z" class="g0_189"/>
<path fill-rule="evenodd" d="M541.3,267.1H779.7v-15H541.3v15Z" class="g0_189"/>
<path fill-rule="evenodd" d="M541.3,282.2h238V267.1h-238v15.1Z" class="g0_189"/>
<path fill-rule="evenodd" d="M541.3,297.2h238v-15h-238v15Z" class="g0_189"/>
<path fill-rule="evenodd" d="M541.3,312.2h238v-15h-238v15Z" class="g0_189"/>
<path fill-rule="evenodd" d="M540.6,327.3H779.7V312.2H540.6v15.1Z" class="g0_189"/>
<path fill-rule="evenodd" d="M540.6,342.5H779.7V327.3H540.6v15.2Z" class="g0_189"/>
<path fill-rule="evenodd" d="M540.6,357.6H779.7V342.5H540.6v15.1Z" class="g0_189"/>
<path fill-rule="evenodd" d="M540.6,372.6H779.7v-15H540.6v15Z" class="g0_189"/>
<path fill-rule="evenodd" d="M540.6,387.6H778.9v-15H540.6v15Z" class="g0_189"/>
<path fill-rule="evenodd" d="M540.6,402.7H778.9V387.6H540.6v15.1Z" class="g0_189"/>
<path fill-rule="evenodd" d="M540.6,417.7H778.9v-15H540.6v15Z" class="g0_189"/>
<path fill-rule="evenodd" d="M539.8,432.7H779.3v-15H539.8v15Z" class="g0_189"/>
<path fill-rule="evenodd" d="M539.8,447.8H779.3V432.7H539.8v15.1Z" class="g0_189"/>
<path fill-rule="evenodd" d="M539.8,462.8H779.3v-15H539.8v15Z" class="g0_189"/>
<path fill-rule="evenodd" d="M539.8,477.8H779.3v-15H539.8v15Z" class="g0_189"/>
<path fill-rule="evenodd" d="M540.2,492.9H778.9V477.8H540.2v15.1Z" class="g0_189"/>
<path fill-rule="evenodd" d="M540.2,507.9H778.9v-15H540.2v15Z" class="g0_189"/>
<path fill-rule="evenodd" d="M540.2,523.1H778.9V507.9H540.2v15.2Z" class="g0_189"/>
<path fill-rule="evenodd" d="M540.2,538.2H778.9V523.1H540.2v15.1Z" class="g0_189"/>
<path fill-rule="evenodd" d="M540.6,553.2H779.7v-15H540.6v15Z" class="g0_189"/>
<path fill-rule="evenodd" d="M539.8,568.2H778.9v-15H539.8v15Z" class="g0_189"/>
<path fill-rule="evenodd" d="M539.8,583.3H778.9V568.2H539.8v15.1Z" class="g0_189"/>
<path fill-rule="evenodd" d="M540.2,598.3h238v-15h-238v15Z" class="g0_189"/>
<path fill-rule="evenodd" d="M540.2,613.4h238V598.3h-238v15.1Z" class="g0_189"/>
<path fill-rule="evenodd" d="M540.2,628.4h238v-15h-238v15Z" class="g0_189"/>
<path fill-rule="evenodd" d="M539.5,643.4H778.2v-15H539.5v15Z" class="g0_189"/>
<path fill-rule="evenodd" d="M539.5,658.5H778.2V643.4H539.5v15.1Z" class="g0_189"/>
<path fill-rule="evenodd" d="M539.5,673.5H778.2v-15H539.5v15Z" class="g0_189"/>
<path fill-rule="evenodd" d="M539.5,688.5H778.2v-15H539.5v15Z" class="g0_189"/>
<path fill-rule="evenodd" d="M539.5,703.7H778.2V688.5H539.5v15.2Z" class="g0_189"/>
<path fill-rule="evenodd" d="M539.5,718.8H778.2V703.7H539.5v15.1Z" class="g0_189"/>
<path fill-rule="evenodd" d="M539.5,733.8H778.2v-15H539.5v15Z" class="g0_189"/>
<path fill-rule="evenodd" d="M539.1,748.8H778.2v-15H539.1v15Z" class="g0_189"/>
<path fill-rule="evenodd" d="M539.1,763.9H778.2V748.8H539.1v15.1Z" class="g0_189"/>
<path fill-rule="evenodd" d="M539.1,778.9H778.2v-15H539.1v15Z" class="g0_189"/>
<path fill-rule="evenodd" d="M539.1,793.9H778.2v-15H539.1v15Z" class="g0_189"/>
<path fill-rule="evenodd" d="M539.1,809H777.5V793.9H539.1V809Z" class="g0_189"/>
<path fill-rule="evenodd" d="M539.1,824H777.5V809H539.1v15Z" class="g0_189"/>
<path fill-rule="evenodd" d="M539.1,839.1H777.5V824H539.1v15.1Z" class="g0_189"/>
<path fill-rule="evenodd" d="M538.7,854.1H777.8v-15H538.7v15Z" class="g0_189"/>
<path fill-rule="evenodd" d="M538.7,869.2H777.8V854.1H538.7v15.1Z" class="g0_189"/>
<path fill-rule="evenodd" d="M538.7,884.4H777.8V869.2H538.7v15.2Z" class="g0_189"/>
<path fill-rule="evenodd" d="M538.7,899.4H777.8v-15H538.7v15Z" class="g0_189"/>
<path d="M222.4,101.2V294.8" class="g1_189"/>
<path d="M206.2,602.1V753.2" class="g2_189"/>
<path d="M221.6,595.5V994.8M528.8,171V916.4" class="g1_189"/>
</svg>