<?xml version="1.0" encoding="UTF-8" standalone="no"?>
<!DOCTYPE svg PUBLIC "-//W3C//DTD SVG 1.1//EN"
"http://www.w3.org/Graphics/SVG/1.1/DTD/svg11.dtd">
<svg viewBox="0 0 909 1285" version="1.1" xmlns="http://www.w3.org/2000/svg" xmlns:xlink="http://www.w3.org/1999/xlink">
<defs>
<style type="text/css"><![CDATA[
.g0_258{
fill: #FFFFFF;
}
.g1_258{
fill: none;
stroke: #000000;
stroke-width: 0.381;
stroke-linecap: butt;
stroke-linejoin: round;
}
]]></style>
</defs>
<path fill-rule="evenodd" d="M605.7,125.8h91.7V110H605.7v15.8Z" class="g0_258"/>
<path fill-rule="evenodd" d="M196.4,161.7H435.8V147.1H196.4v14.6Z" class="g0_258"/>
<path fill-rule="evenodd" d="M196.4,176.4H435.8V161.7H196.4v14.7Z" class="g0_258"/>
<path fill-rule="evenodd" d="M196.4,191.1H435.8V176.4H196.4v14.7Z" class="g0_258"/>
<path fill-rule="evenodd" d="M196.4,206.1H435.8v-15H196.4v15Z" class="g0_258"/>
<path fill-rule="evenodd" d="M196.4,220.8H435.8V206.1H196.4v14.7Z" class="g0_258"/>
<path fill-rule="evenodd" d="M196.4,235.4H435.8V220.8H196.4v14.6Z" class="g0_258"/>
<path fill-rule="evenodd" d="M196.4,250.1H435.5V235.4H196.4v14.7Z" class="g0_258"/>
<path fill-rule="evenodd" d="M196.4,264.8H435.5V250.1H196.4v14.7Z" class="g0_258"/>
<path fill-rule="evenodd" d="M214.3,279.4H436.2V264.8H214.3v14.6Z" class="g0_258"/>
<path fill-rule="evenodd" d="M196,294.5H436.2V279.8H196v14.7Z" class="g0_258"/>
<path fill-rule="evenodd" d="M196,309.1H436.2V294.5H196v14.6Z" class="g0_258"/>
<path fill-rule="evenodd" d="M196,323.8H436.2V309.1H196v14.7Z" class="g0_258"/>
<path fill-rule="evenodd" d="M196,338.5H436.2V323.8H196v14.7Z" class="g0_258"/>
<path fill-rule="evenodd" d="M196,353.2H436.2V338.5H196v14.7Z" class="g0_258"/>
<path fill-rule="evenodd" d="M196,367.8H436.2V353.2H196v14.6Z" class="g0_258"/>
<path fill-rule="evenodd" d="M196,382.5H436.2V367.8H196v14.7Z" class="g0_258"/>
<path fill-rule="evenodd" d="M196,397.2H436.2V382.5H196v14.7Z" class="g0_258"/>
<path fill-rule="evenodd" d="M196,412.2H435.5V397.5H196v14.7Z" class="g0_258"/>
<path fill-rule="evenodd" d="M196,426.9H435.5V412.2H196v14.7Z" class="g0_258"/>
<path fill-rule="evenodd" d="M196,441.5H435.5V426.9H196v14.6Z" class="g0_258"/>
<path fill-rule="evenodd" d="M196,456.6H435.5V441.5H196v15.1Z" class="g0_258"/>
<path fill-rule="evenodd" d="M196,471.2H435.5V456.6H196v14.6Z" class="g0_258"/>
<path fill-rule="evenodd" d="M196,485.9H435.5V471.2H196v14.7Z" class="g0_258"/>
<path fill-rule="evenodd" d="M196,500.6H435.5V485.9H196v14.7Z" class="g0_258"/>
<path fill-rule="evenodd" d="M196,515.2H435.5V500.6H196v14.6Z" class="g0_258"/>
<path fill-rule="evenodd" d="M196,529.9H435.5V515.2H196v14.7Z" class="g0_258"/>
<path fill-rule="evenodd" d="M196,544.6H435.5V529.9H196v14.7Z" class="g0_258"/>
<path fill-rule="evenodd" d="M195.6,559.8H435.5V544.9H195.6v14.9Z" class="g0_258"/>
<path fill-rule="evenodd" d="M195.6,574.5H435.5V559.8H195.6v14.7Z" class="g0_258"/>
<path fill-rule="evenodd" d="M195.6,589.1H435.5V574.5H195.6v14.6Z" class="g0_258"/>
<path fill-rule="evenodd" d="M195.6,603.8H435.5V589.1H195.6v14.7Z" class="g0_258"/>
<path fill-rule="evenodd" d="M195.6,618.5H435.5V603.8H195.6v14.7Z" class="g0_258"/>
<path fill-rule="evenodd" d="M195.6,633.2H434.7V618.5H195.6v14.7Z" class="g0_258"/>
<path fill-rule="evenodd" d="M195.6,647.8H434.7V633.2H195.6v14.6Z" class="g0_258"/>
<path fill-rule="evenodd" d="M195.6,662.5H434.7V647.8H195.6v14.7Z" class="g0_258"/>
<path fill-rule="evenodd" d="M195.6,677.5H434.4V662.9H195.6v14.6Z" class="g0_258"/>
<path fill-rule="evenodd" d="M195.6,692.2H434.4V677.5H195.6v14.7Z" class="g0_258"/>
<path fill-rule="evenodd" d="M195.3,707.2H434.7V692.6H195.3v14.6Z" class="g0_258"/>
<path fill-rule="evenodd" d="M195.3,721.9H434.7V707.2H195.3v14.7Z" class="g0_258"/>
<path fill-rule="evenodd" d="M195.3,736.9H435.1V722.3H195.3v14.6Z" class="g0_258"/>
<path fill-rule="evenodd" d="M195.3,751.6H435.1V736.9H195.3v14.7Z" class="g0_258"/>
<path fill-rule="evenodd" d="M195.6,766.3H434.7V751.6H195.6v14.7Z" class="g0_258"/>
<path fill-rule="evenodd" d="M195.6,780.9H434.7V766.3H195.6v14.6Z" class="g0_258"/>
<path fill-rule="evenodd" d="M195.3,796.3H435.1V781.7H195.3v14.6Z" class="g0_258"/>
<path fill-rule="evenodd" d="M195.3,811H435.1V796.3H195.3V811Z" class="g0_258"/>
<path fill-rule="evenodd" d="M195.3,825.7H435.1V811H195.3v14.7Z" class="g0_258"/>
<path fill-rule="evenodd" d="M195.3,840.4H435.1V825.7H195.3v14.7Z" class="g0_258"/>
<path fill-rule="evenodd" d="M195.3,855H435.1V840.4H195.3V855Z" class="g0_258"/>
<path fill-rule="evenodd" d="M195.3,869.7H435.1V855H195.3v14.7Z" class="g0_258"/>
<path fill-rule="evenodd" d="M195.3,884.4H435.1V869.7H195.3v14.7Z" class="g0_258"/>
<path fill-rule="evenodd" d="M195.3,899H435.1V884.4H195.3V899Z" class="g0_258"/>
<path fill-rule="evenodd" d="M196.4,913.7H435.8V899H196.4v14.7Z" class="g0_258"/>
<path fill-rule="evenodd" d="M456.4,161.7H696.6V147.1H456.4v14.6Z" class="g0_258"/>
<path fill-rule="evenodd" d="M456.4,176.4H696.6V161.7H456.4v14.7Z" class="g0_258"/>
<path fill-rule="evenodd" d="M456.4,191.4H696.6v-15H456.4v15Z" class="g0_258"/>
<path fill-rule="evenodd" d="M456.4,206.1H696.6V191.4H456.4v14.7Z" class="g0_258"/>
<path fill-rule="evenodd" d="M456.8,221.1H697V206.5H456.8v14.6Z" class="g0_258"/>
<path fill-rule="evenodd" d="M456.8,235.8H697V221.1H456.8v14.7Z" class="g0_258"/>
<path fill-rule="evenodd" d="M456.8,250.5H697V235.8H456.8v14.7Z" class="g0_258"/>
<path fill-rule="evenodd" d="M474.8,265.1H697V250.5H474.8v14.6Z" class="g0_258"/>
<path fill-rule="evenodd" d="M474.4,279.8H697V265.1H474.4v14.7Z" class="g0_258"/>
<path fill-rule="evenodd" d="M474.8,294.8H697V280.2H474.8v14.6Z" class="g0_258"/>
<path fill-rule="evenodd" d="M456.1,309.9H696.6V295.2H456.1v14.7Z" class="g0_258"/>
<path fill-rule="evenodd" d="M456.1,324.5H696.6V309.9H456.1v14.6Z" class="g0_258"/>
<path fill-rule="evenodd" d="M456.1,339.2H696.6V324.5H456.1v14.7Z" class="g0_258"/>
<path fill-rule="evenodd" d="M474.8,354.5H697V339.6H474.8v14.9Z" class="g0_258"/>
<path fill-rule="evenodd" d="M456.1,369.1H697V354.5H456.1v14.6Z" class="g0_258"/>
<path fill-rule="evenodd" d="M456.1,383.8H697V369.1H456.1v14.7Z" class="g0_258"/>
<path fill-rule="evenodd" d="M456.1,398.5H697V383.8H456.1v14.7Z" class="g0_258"/>
<path fill-rule="evenodd" d="M456.1,413.1H697V398.5H456.1v14.6Z" class="g0_258"/>
<path fill-rule="evenodd" d="M456.1,427.8H697V413.1H456.1v14.7Z" class="g0_258"/>
<path fill-rule="evenodd" d="M456.1,442.5H697V427.8H456.1v14.7Z" class="g0_258"/>
<path fill-rule="evenodd" d="M456.1,457.1H697V442.5H456.1v14.6Z" class="g0_258"/>
<path fill-rule="evenodd" d="M455.7,471.8H695.9V457.1H455.7v14.7Z" class="g0_258"/>
<path fill-rule="evenodd" d="M455.7,486.5H695.9V471.8H455.7v14.7Z" class="g0_258"/>
<path fill-rule="evenodd" d="M455.7,501.1H695.9V486.5H455.7v14.6Z" class="g0_258"/>
<path fill-rule="evenodd" d="M455.7,515.8H695.9V501.1H455.7v14.7Z" class="g0_258"/>
<path fill-rule="evenodd" d="M455.7,530.5H695.9V515.8H455.7v14.7Z" class="g0_258"/>
<path fill-rule="evenodd" d="M455.7,545.1H695.9V530.5H455.7v14.6Z" class="g0_258"/>
<path fill-rule="evenodd" d="M455.7,560.2H695.5V545.5H455.7v14.7Z" class="g0_258"/>
<path fill-rule="evenodd" d="M455.7,574.8H695.5V560.2H455.7v14.6Z" class="g0_258"/>
<path fill-rule="evenodd" d="M455.3,589.9H695.5V575.2H455.3v14.7Z" class="g0_258"/>
<path fill-rule="evenodd" d="M455.3,604.6H695.5V589.9H455.3v14.7Z" class="g0_258"/>
<path fill-rule="evenodd" d="M455.7,619.6H695.5V604.9H455.7v14.7Z" class="g0_258"/>
<path fill-rule="evenodd" d="M455.7,634.3H695.5V619.6H455.7v14.7Z" class="g0_258"/>
<path fill-rule="evenodd" d="M455.7,649.7H695.5V634.3H455.7v15.4Z" class="g0_258"/>
<path fill-rule="evenodd" d="M455.7,664.3H695.5V649.7H455.7v14.6Z" class="g0_258"/>
<path fill-rule="evenodd" d="M455.7,679H695.5V664.3H455.7V679Z" class="g0_258"/>
<path fill-rule="evenodd" d="M455.7,693.7H695.5V679H455.7v14.7Z" class="g0_258"/>
<path fill-rule="evenodd" d="M455.7,708.3H695.5V693.7H455.7v14.6Z" class="g0_258"/>
<path fill-rule="evenodd" d="M455.7,723.4H695.9V708.7H455.7v14.7Z" class="g0_258"/>
<path fill-rule="evenodd" d="M455.7,738H695.9V723.4H455.7V738Z" class="g0_258"/>
<path fill-rule="evenodd" d="M455.3,752.7H695.9V738H455.3v14.7Z" class="g0_258"/>
<path fill-rule="evenodd" d="M455.3,767.4H695.9V752.7H455.3v14.7Z" class="g0_258"/>
<path fill-rule="evenodd" d="M455.3,782H695.9V767.4H455.3V782Z" class="g0_258"/>
<path fill-rule="evenodd" d="M455.3,796.7H695.9V782H455.3v14.7Z" class="g0_258"/>
<path fill-rule="evenodd" d="M455.3,811.4H695.5V796.7H455.3v14.7Z" class="g0_258"/>
<path fill-rule="evenodd" d="M455.3,826H695.5V811.4H455.3V826Z" class="g0_258"/>
<path fill-rule="evenodd" d="M455.3,840.7H695.5V826H455.3v14.7Z" class="g0_258"/>
<path fill-rule="evenodd" d="M455.3,855.4H695.5V840.7H455.3v14.7Z" class="g0_258"/>
<path fill-rule="evenodd" d="M455.3,870.1H695.5V855.4H455.3v14.7Z" class="g0_258"/>
<path d="M444.2,146.3V914.8" class="g1_258"/>
</svg>