<?xml version="1.0" encoding="UTF-8" standalone="no"?>
<!DOCTYPE svg PUBLIC "-//W3C//DTD SVG 1.1//EN"
"http://www.w3.org/Graphics/SVG/1.1/DTD/svg11.dtd">
<svg viewBox="0 0 909 1285" version="1.1" xmlns="http://www.w3.org/2000/svg" xmlns:xlink="http://www.w3.org/1999/xlink">
<defs>
<style type="text/css"><![CDATA[
.g0_128{
fill: #FFFFFF;
}
.g1_128{
fill: none;
stroke: #000000;
stroke-width: 0.381;
stroke-linecap: butt;
stroke-linejoin: round;
}
]]></style>
</defs>
<path fill-rule="evenodd" d="M599.4,125.8h92.5V110H599.4v15.8Z" class="g0_128"/>
<path fill-rule="evenodd" d="M192.3,161.7h238v-15h-238v15Z" class="g0_128"/>
<path fill-rule="evenodd" d="M192.3,176.9h238V161.7h-238v15.2Z" class="g0_128"/>
<path fill-rule="evenodd" d="M192.3,192h238V176.9h-238V192Z" class="g0_128"/>
<path fill-rule="evenodd" d="M209.6,207H430.7V192H209.6v15Z" class="g0_128"/>
<path fill-rule="evenodd" d="M192,222H430.7V207H192v15Z" class="g0_128"/>
<path fill-rule="evenodd" d="M192,237.1H430.3V222H192v15.1Z" class="g0_128"/>
<path fill-rule="evenodd" d="M192,252.1H430.3v-15H192v15Z" class="g0_128"/>
<path fill-rule="evenodd" d="M191.2,267.1H430.3v-15H191.2v15Z" class="g0_128"/>
<path fill-rule="evenodd" d="M191.2,282.2H430.3V267.1H191.2v15.1Z" class="g0_128"/>
<path fill-rule="evenodd" d="M191.2,297.2H430.3v-15H191.2v15Z" class="g0_128"/>
<path fill-rule="evenodd" d="M190.9,312.2H430.7v-15H190.9v15Z" class="g0_128"/>
<path fill-rule="evenodd" d="M190.9,327.3H430.7V312.2H190.9v15.1Z" class="g0_128"/>
<path fill-rule="evenodd" d="M190.9,342.5H430.7V327.3H190.9v15.2Z" class="g0_128"/>
<path fill-rule="evenodd" d="M190.9,357.6H430.7V342.5H190.9v15.1Z" class="g0_128"/>
<path fill-rule="evenodd" d="M191.2,372.6H430.3v-15H191.2v15Z" class="g0_128"/>
<path fill-rule="evenodd" d="M191.2,387.6H430.3v-15H191.2v15Z" class="g0_128"/>
<path fill-rule="evenodd" d="M190.9,402.7H430.3V387.6H190.9v15.1Z" class="g0_128"/>
<path fill-rule="evenodd" d="M190.9,417.7H430.3v-15H190.9v15Z" class="g0_128"/>
<path fill-rule="evenodd" d="M190.9,432.7H430.3v-15H190.9v15Z" class="g0_128"/>
<path fill-rule="evenodd" d="M190.9,447.8H430.3V432.7H190.9v15.1Z" class="g0_128"/>
<path fill-rule="evenodd" d="M190.9,462.8H430.3v-15H190.9v15Z" class="g0_128"/>
<path fill-rule="evenodd" d="M190.9,477.8H430.3v-15H190.9v15Z" class="g0_128"/>
<path fill-rule="evenodd" d="M190.9,492.9H430.3V477.8H190.9v15.1Z" class="g0_128"/>
<path fill-rule="evenodd" d="M190.9,507.9H429.6v-15H190.9v15Z" class="g0_128"/>
<path fill-rule="evenodd" d="M190.9,523.1H429.6V507.9H190.9v15.2Z" class="g0_128"/>
<path fill-rule="evenodd" d="M190.9,538.2H430.3V523.1H190.9v15.1Z" class="g0_128"/>
<path fill-rule="evenodd" d="M190.9,553.2H430.3v-15H190.9v15Z" class="g0_128"/>
<path fill-rule="evenodd" d="M190.9,568.2H430.3v-15H190.9v15Z" class="g0_128"/>
<path fill-rule="evenodd" d="M191.2,583.3H430V568.2H191.2v15.1Z" class="g0_128"/>
<path fill-rule="evenodd" d="M191.2,598.3H430v-15H191.2v15Z" class="g0_128"/>
<path fill-rule="evenodd" d="M190.5,613.4H429.6V598.3H190.5v15.1Z" class="g0_128"/>
<path fill-rule="evenodd" d="M190.5,628.4H429.6v-15H190.5v15Z" class="g0_128"/>
<path fill-rule="evenodd" d="M190.1,643.4H429.6v-15H190.1v15Z" class="g0_128"/>
<path fill-rule="evenodd" d="M190.1,658.5H429.6V643.4H190.1v15.1Z" class="g0_128"/>
<path fill-rule="evenodd" d="M208.8,673.5H430.7v-15H208.8v15Z" class="g0_128"/>
<path fill-rule="evenodd" d="M190.5,688.5H429.2v-15H190.5v15Z" class="g0_128"/>
<path fill-rule="evenodd" d="M190.5,703.7H429.2V688.5H190.5v15.2Z" class="g0_128"/>
<path fill-rule="evenodd" d="M191.2,718.8h238V703.7h-238v15.1Z" class="g0_128"/>
<path fill-rule="evenodd" d="M191.2,733.8h238v-15h-238v15Z" class="g0_128"/>
<path fill-rule="evenodd" d="M190.5,748.8H429.6v-15H190.5v15Z" class="g0_128"/>
<path fill-rule="evenodd" d="M190.5,763.9H429.6V748.8H190.5v15.1Z" class="g0_128"/>
<path fill-rule="evenodd" d="M190.5,778.9H429.6v-15H190.5v15Z" class="g0_128"/>
<path fill-rule="evenodd" d="M190.5,793.9H429.6v-15H190.5v15Z" class="g0_128"/>
<path fill-rule="evenodd" d="M208.5,809H430.7V793.9H208.5V809Z" class="g0_128"/>
<path fill-rule="evenodd" d="M190.1,824H430.7V809H190.1v15Z" class="g0_128"/>
<path fill-rule="evenodd" d="M190.1,839.1H430.7V824H190.1v15.1Z" class="g0_128"/>
<path fill-rule="evenodd" d="M190.1,854.1H430.7v-15H190.1v15Z" class="g0_128"/>
<path fill-rule="evenodd" d="M190.1,869.2H430.7V854.1H190.1v15.1Z" class="g0_128"/>
<path fill-rule="evenodd" d="M190.1,884.4H429.6V869.2H190.1v15.2Z" class="g0_128"/>
<path fill-rule="evenodd" d="M190.1,899.4H429.6v-15H190.1v15Z" class="g0_128"/>
<path fill-rule="evenodd" d="M191.2,914.4H430.7v-15H191.2v15Z" class="g0_128"/>
<path fill-rule="evenodd" d="M451.3,161.4H691.5V146.3H451.3v15.1Z" class="g0_128"/>
<path fill-rule="evenodd" d="M451.3,176.4H691.5v-15H451.3v15Z" class="g0_128"/>
<path fill-rule="evenodd" d="M451.3,192H691.1V176.8H451.3V192Z" class="g0_128"/>
<path fill-rule="evenodd" d="M451.3,207H691.1V192H451.3v15Z" class="g0_128"/>
<path fill-rule="evenodd" d="M450.9,222H691.5V207H450.9v15Z" class="g0_128"/>
<path fill-rule="evenodd" d="M450.9,237.1H691.5V222H450.9v15.1Z" class="g0_128"/>
<path fill-rule="evenodd" d="M450.9,252.1H691.5v-15H450.9v15Z" class="g0_128"/>
<path fill-rule="evenodd" d="M450.9,267.1H691.5v-15H450.9v15Z" class="g0_128"/>
<path fill-rule="evenodd" d="M451.3,282.2H691.5V267.1H451.3v15.1Z" class="g0_128"/>
<path fill-rule="evenodd" d="M451.3,297.2H691.5v-15H451.3v15Z" class="g0_128"/>
<path fill-rule="evenodd" d="M451.3,312.2H691.5v-15H451.3v15Z" class="g0_128"/>
<path fill-rule="evenodd" d="M469.6,327.3H691.5V312.2H469.6v15.1Z" class="g0_128"/>
<path fill-rule="evenodd" d="M469.6,342.9H691.5V327.3H469.6v15.6Z" class="g0_128"/>
<path fill-rule="evenodd" d="M451.7,357.9H691.5v-15H451.7v15Z" class="g0_128"/>
<path fill-rule="evenodd" d="M450.6,373.3H690.8v-15H450.6v15Z" class="g0_128"/>
<path fill-rule="evenodd" d="M450.6,388.4H690.8V373.3H450.6v15.1Z" class="g0_128"/>
<path fill-rule="evenodd" d="M450.9,403.8H690.8V388.7H450.9v15.1Z" class="g0_128"/>
<path fill-rule="evenodd" d="M450.9,418.8H690.8v-15H450.9v15Z" class="g0_128"/>
<path fill-rule="evenodd" d="M450.9,433.8H691.1v-15H450.9v15Z" class="g0_128"/>
<path fill-rule="evenodd" d="M450.9,448.9H691.1V433.8H450.9v15.1Z" class="g0_128"/>
<path fill-rule="evenodd" d="M450.9,463.9H691.1v-15H450.9v15Z" class="g0_128"/>
<path fill-rule="evenodd" d="M450.9,479.1H691.1V463.9H450.9v15.2Z" class="g0_128"/>
<path fill-rule="evenodd" d="M450.9,494.2H691.1V479.1H450.9v15.1Z" class="g0_128"/>
<path fill-rule="evenodd" d="M450.6,509.2H690v-15H450.6v15Z" class="g0_128"/>
<path fill-rule="evenodd" d="M450.6,524.2H690v-15H450.6v15Z" class="g0_128"/>
<path fill-rule="evenodd" d="M450.6,539.3H690.8V524.2H450.6v15.1Z" class="g0_128"/>
<path fill-rule="evenodd" d="M450.6,554.3H690.8v-15H450.6v15Z" class="g0_128"/>
<path fill-rule="evenodd" d="M450.6,569.3H690.8v-15H450.6v15Z" class="g0_128"/>
<path fill-rule="evenodd" d="M450.6,584.4H690.8V569.3H450.6v15.1Z" class="g0_128"/>
<path fill-rule="evenodd" d="M450.6,599.4H690.8v-15H450.6v15Z" class="g0_128"/>
<path fill-rule="evenodd" d="M450.6,614.5H690.8V599.4H450.6v15.1Z" class="g0_128"/>
<path fill-rule="evenodd" d="M450.6,629.5H690.4v-15H450.6v15Z" class="g0_128"/>
<path fill-rule="evenodd" d="M450.6,644.5H690.4v-15H450.6v15Z" class="g0_128"/>
<path fill-rule="evenodd" d="M450.6,659.7H690.4V644.5H450.6v15.2Z" class="g0_128"/>
<path fill-rule="evenodd" d="M450.2,674.8H689.7V659.7H450.2v15.1Z" class="g0_128"/>
<path fill-rule="evenodd" d="M450.2,689.8H689.7v-15H450.2v15Z" class="g0_128"/>
<path fill-rule="evenodd" d="M450.9,704.8H690v-15H450.9v15Z" class="g0_128"/>
<path fill-rule="evenodd" d="M450.9,719.9H690V704.8H450.9v15.1Z" class="g0_128"/>
<path fill-rule="evenodd" d="M450.2,734.9H689.7v-15H450.2v15Z" class="g0_128"/>
<path fill-rule="evenodd" d="M450.2,749.9H689.7v-15H450.2v15Z" class="g0_128"/>
<path fill-rule="evenodd" d="M450.6,765H689.7V749.9H450.6V765Z" class="g0_128"/>
<path fill-rule="evenodd" d="M450.6,780H689.7V765H450.6v15Z" class="g0_128"/>
<path fill-rule="evenodd" d="M450.2,795H690.4V780H450.2v15Z" class="g0_128"/>
<path fill-rule="evenodd" d="M450.2,810.1H690.4V795H450.2v15.1Z" class="g0_128"/>
<path fill-rule="evenodd" d="M450.2,825.1H690.4v-15H450.2v15Z" class="g0_128"/>
<path fill-rule="evenodd" d="M450.2,840.4H690.4V825.1H450.2v15.3Z" class="g0_128"/>
<path fill-rule="evenodd" d="M450.2,855.4H689.7v-15H450.2v15Z" class="g0_128"/>
<path fill-rule="evenodd" d="M450.2,870.4H689.7v-15H450.2v15Z" class="g0_128"/>
<path fill-rule="evenodd" d="M450.2,885.5H689.7V870.4H450.2v15.1Z" class="g0_128"/>
<path fill-rule="evenodd" d="M427.8,932H691.9V914.4H427.8V932Z" class="g0_128"/>
<path d="M439.1,146.4V913.5" class="g1_128"/>
</svg>