<?xml version="1.0" encoding="UTF-8" standalone="no"?>
<!DOCTYPE svg PUBLIC "-//W3C//DTD SVG 1.1//EN"
"http://www.w3.org/Graphics/SVG/1.1/DTD/svg11.dtd">
<svg viewBox="0 0 909 1285" version="1.1" xmlns="http://www.w3.org/2000/svg" xmlns:xlink="http://www.w3.org/1999/xlink">
<defs>
<style type="text/css"><![CDATA[
.g0_100{
fill: #FFFFFF;
}
.g1_100{
fill: none;
stroke: #000000;
stroke-width: 0.381;
stroke-linecap: butt;
stroke-linejoin: round;
}
]]></style>
</defs>
<path fill-rule="evenodd" d="M569.9,125.8h132V110h-132v15.8Z" class="g0_100"/>
<path fill-rule="evenodd" d="M203.5,162.5H442.6V147.4H203.5v15.1Z" class="g0_100"/>
<path fill-rule="evenodd" d="M203.5,177.5H442.6v-15H203.5v15Z" class="g0_100"/>
<path fill-rule="evenodd" d="M203.5,192.5H442.6v-15H203.5v15Z" class="g0_100"/>
<path fill-rule="evenodd" d="M203.5,207.6H442.6V192.5H203.5v15.1Z" class="g0_100"/>
<path fill-rule="evenodd" d="M203.5,222.8H442.6V207.6H203.5v15.2Z" class="g0_100"/>
<path fill-rule="evenodd" d="M203.5,237.8H442.6v-15H203.5v15Z" class="g0_100"/>
<path fill-rule="evenodd" d="M203.5,252.8H442.3v-15H203.5v15Z" class="g0_100"/>
<path fill-rule="evenodd" d="M203.5,267.9H442.3V252.8H203.5v15.1Z" class="g0_100"/>
<path fill-rule="evenodd" d="M203.5,282.9H442.3v-15H203.5v15Z" class="g0_100"/>
<path fill-rule="evenodd" d="M203.5,297.9H441.9v-15H203.5v15Z" class="g0_100"/>
<path fill-rule="evenodd" d="M203.5,313H441.9V297.9H203.5V313Z" class="g0_100"/>
<path fill-rule="evenodd" d="M203.5,328H441.9V313H203.5v15Z" class="g0_100"/>
<path fill-rule="evenodd" d="M203.5,343H441.9V328H203.5v15Z" class="g0_100"/>
<path fill-rule="evenodd" d="M203.5,358.1H441.9v-15H203.5v15Z" class="g0_100"/>
<path fill-rule="evenodd" d="M203.5,373.2H441.9V358.1H203.5v15.1Z" class="g0_100"/>
<path fill-rule="evenodd" d="M203.5,388.4H441.9V373.2H203.5v15.2Z" class="g0_100"/>
<path fill-rule="evenodd" d="M203.5,403.4H441.9v-15H203.5v15Z" class="g0_100"/>
<path fill-rule="evenodd" d="M203.2,418.4H441.9v-15H203.2v15Z" class="g0_100"/>
<path fill-rule="evenodd" d="M203.2,433.5H441.9V418.4H203.2v15.1Z" class="g0_100"/>
<path fill-rule="evenodd" d="M203.9,448.5H441.5v-15H203.9v15Z" class="g0_100"/>
<path fill-rule="evenodd" d="M203.9,463.5H441.5v-15H203.9v15Z" class="g0_100"/>
<path fill-rule="evenodd" d="M203.5,478.6h238V463.5h-238v15.1Z" class="g0_100"/>
<path fill-rule="evenodd" d="M203.5,493.6h238v-15h-238v15Z" class="g0_100"/>
<path fill-rule="evenodd" d="M203.2,508.6H441.9v-15H203.2v15Z" class="g0_100"/>
<path fill-rule="evenodd" d="M203.2,523.7H441.9V508.6H203.2v15.1Z" class="g0_100"/>
<path fill-rule="evenodd" d="M203.2,538.7H441.5v-15H203.2v15Z" class="g0_100"/>
<path fill-rule="evenodd" d="M203.2,553.7H441.5v-15H203.2v15Z" class="g0_100"/>
<path fill-rule="evenodd" d="M202.8,569H441.5V553.7H202.8V569Z" class="g0_100"/>
<path fill-rule="evenodd" d="M202.8,584H441.5V569H202.8v15Z" class="g0_100"/>
<path fill-rule="evenodd" d="M202.8,599.1H441.5V584H202.8v15.1Z" class="g0_100"/>
<path fill-rule="evenodd" d="M202.8,614.1H441.5v-15H202.8v15Z" class="g0_100"/>
<path fill-rule="evenodd" d="M202.8,629.1H441.5v-15H202.8v15Z" class="g0_100"/>
<path fill-rule="evenodd" d="M202.8,644.2H441.5V629.1H202.8v15.1Z" class="g0_100"/>
<path fill-rule="evenodd" d="M202.8,659.2H441.5v-15H202.8v15Z" class="g0_100"/>
<path fill-rule="evenodd" d="M202.8,674.2H441.5v-15H202.8v15Z" class="g0_100"/>
<path fill-rule="evenodd" d="M202.8,689.3H441.5V674.2H202.8v15.1Z" class="g0_100"/>
<path fill-rule="evenodd" d="M202.4,704.3H441.5v-15H202.4v15Z" class="g0_100"/>
<path fill-rule="evenodd" d="M202.4,719.3H441.5v-15H202.4v15Z" class="g0_100"/>
<path fill-rule="evenodd" d="M202.4,734.4H441.5V719.3H202.4v15.1Z" class="g0_100"/>
<path fill-rule="evenodd" d="M202.4,749.6H441.5V734.4H202.4v15.2Z" class="g0_100"/>
<path fill-rule="evenodd" d="M202.4,764.6H441.5v-15H202.4v15Z" class="g0_100"/>
<path fill-rule="evenodd" d="M220.8,779.6H442.6v-15H220.8v15Z" class="g0_100"/>
<path fill-rule="evenodd" d="M202.8,794.7h238V779.6h-238v15.1Z" class="g0_100"/>
<path fill-rule="evenodd" d="M202.8,809.7h238v-15h-238v15Z" class="g0_100"/>
<path fill-rule="evenodd" d="M203.5,824.7H442.3v-15H203.5v15Z" class="g0_100"/>
<path fill-rule="evenodd" d="M462.8,161.4H701.2V146.3H462.8v15.1Z" class="g0_100"/>
<path fill-rule="evenodd" d="M462.8,176.4H701.2v-15H462.8v15Z" class="g0_100"/>
<path fill-rule="evenodd" d="M462.8,191.6H701.2V176.4H462.8v15.2Z" class="g0_100"/>
<path fill-rule="evenodd" d="M480.8,206.6H701.6v-15H480.8v15Z" class="g0_100"/>
<path fill-rule="evenodd" d="M462.5,221.7H701.6V206.6H462.5v15.1Z" class="g0_100"/>
<path fill-rule="evenodd" d="M462.5,236.7H701.6v-15H462.5v15Z" class="g0_100"/>
<path fill-rule="evenodd" d="M462.5,251.7H701.6v-15H462.5v15Z" class="g0_100"/>
<path fill-rule="evenodd" d="M462.5,266.8H701.6V251.7H462.5v15.1Z" class="g0_100"/>
<path fill-rule="evenodd" d="M462.8,281.8h238v-15h-238v15Z" class="g0_100"/>
<path fill-rule="evenodd" d="M462.8,296.8h238v-15h-238v15Z" class="g0_100"/>
<path fill-rule="evenodd" d="M462.8,311.9H701.6V296.8H462.8v15.1Z" class="g0_100"/>
<path fill-rule="evenodd" d="M462.8,326.9H701.6v-15H462.8v15Z" class="g0_100"/>
<path fill-rule="evenodd" d="M462.5,341.9H701.2v-15H462.5v15Z" class="g0_100"/>
<path fill-rule="evenodd" d="M462.5,357.2H701.2V342H462.5v15.2Z" class="g0_100"/>
<path fill-rule="evenodd" d="M462.5,372.2H701.2v-15H462.5v15Z" class="g0_100"/>
<path fill-rule="evenodd" d="M462.8,387.3H701.2V372.2H462.8v15.1Z" class="g0_100"/>
<path fill-rule="evenodd" d="M462.8,402.3H701.2v-15H462.8v15Z" class="g0_100"/>
<path fill-rule="evenodd" d="M462.5,417.3H701.2v-15H462.5v15Z" class="g0_100"/>
<path fill-rule="evenodd" d="M462.5,432.4H701.2V417.3H462.5v15.1Z" class="g0_100"/>
<path fill-rule="evenodd" d="M462.5,447.4H700.8v-15H462.5v15Z" class="g0_100"/>
<path fill-rule="evenodd" d="M462.5,462.4H700.8v-15H462.5v15Z" class="g0_100"/>
<path fill-rule="evenodd" d="M480.4,477.5H701.6V462.4H480.4v15.1Z" class="g0_100"/>
<path fill-rule="evenodd" d="M462.8,492.5h238v-15h-238v15Z" class="g0_100"/>
<path fill-rule="evenodd" d="M462.8,507.5h238v-15h-238v15Z" class="g0_100"/>
<path fill-rule="evenodd" d="M462.8,522.6H700.5V507.5H462.8v15.1Z" class="g0_100"/>
<path fill-rule="evenodd" d="M462.8,537.8H700.5V522.6H462.8v15.2Z" class="g0_100"/>
<path fill-rule="evenodd" d="M480.4,552.8H701.6v-15H480.4v15Z" class="g0_100"/>
<path fill-rule="evenodd" d="M461.7,567.9H700.8V552.8H461.7v15.1Z" class="g0_100"/>
<path fill-rule="evenodd" d="M461.7,582.9H700.8v-15H461.7v15Z" class="g0_100"/>
<path fill-rule="evenodd" d="M461.7,598H700.8V582.9H461.7V598Z" class="g0_100"/>
<path fill-rule="evenodd" d="M461.7,613H700.8V598H461.7v15Z" class="g0_100"/>
<path fill-rule="evenodd" d="M461.7,628H700.8V613H461.7v15Z" class="g0_100"/>
<path fill-rule="evenodd" d="M461.7,643.1H700.8V628H461.7v15.1Z" class="g0_100"/>
<path fill-rule="evenodd" d="M461.7,658.1H700.8v-15H461.7v15Z" class="g0_100"/>
<path fill-rule="evenodd" d="M461.7,673.1H700.8v-15H461.7v15Z" class="g0_100"/>
<path fill-rule="evenodd" d="M461.7,688.2H700.8V673.1H461.7v15.1Z" class="g0_100"/>
<path fill-rule="evenodd" d="M461.7,703.2H700.8v-15H461.7v15Z" class="g0_100"/>
<path fill-rule="evenodd" d="M461.7,718.4H700.8V703.2H461.7v15.2Z" class="g0_100"/>
<path fill-rule="evenodd" d="M462.1,733.4H700.5v-15H462.1v15Z" class="g0_100"/>
<path fill-rule="evenodd" d="M462.1,748.5H700.5V733.4H462.1v15.1Z" class="g0_100"/>
<path fill-rule="evenodd" d="M461.7,763.5H700.5v-15H461.7v15Z" class="g0_100"/>
<path fill-rule="evenodd" d="M461.7,778.5H700.5v-15H461.7v15Z" class="g0_100"/>
<path fill-rule="evenodd" d="M461.7,793.6H700.5V778.5H461.7v15.1Z" class="g0_100"/>
<path fill-rule="evenodd" d="M461.7,808.6H700.5v-15H461.7v15Z" class="g0_100"/>
<path fill-rule="evenodd" d="M439.3,939.9H702V922.3H439.3v17.6Z" class="g0_100"/>
<path d="M450.6,146V819.6" class="g1_100"/>
</svg>