<?xml version="1.0" encoding="UTF-8" standalone="no"?>
<!DOCTYPE svg PUBLIC "-//W3C//DTD SVG 1.1//EN"
"http://www.w3.org/Graphics/SVG/1.1/DTD/svg11.dtd">
<svg viewBox="0 0 909 1285" version="1.1" xmlns="http://www.w3.org/2000/svg" xmlns:xlink="http://www.w3.org/1999/xlink">
<defs>
<style type="text/css"><![CDATA[
.g0_181{
fill: #FFFFFF;
}
.g1_181{
fill: none;
stroke: #000000;
stroke-width: 0.381;
stroke-linecap: butt;
stroke-linejoin: round;
}
]]></style>
</defs>
<path fill-rule="evenodd" d="M281.9,127.6H842.2V110H281.9v17.6Z" class="g0_181"/>
<path fill-rule="evenodd" d="M281.9,163.2H520.2v-15H281.9v15Z" class="g0_181"/>
<path fill-rule="evenodd" d="M281.9,178.2H520.2v-15H281.9v15Z" class="g0_181"/>
<path fill-rule="evenodd" d="M281.9,193.3H520.2V178.2H281.9v15.1Z" class="g0_181"/>
<path fill-rule="evenodd" d="M281.9,208.3H520.2v-15H281.9v15Z" class="g0_181"/>
<path fill-rule="evenodd" d="M281.1,223.3H520.6v-15H281.1v15Z" class="g0_181"/>
<path fill-rule="evenodd" d="M281.1,238.4H520.6V223.3H281.1v15.1Z" class="g0_181"/>
<path fill-rule="evenodd" d="M281.1,253.4H520.6v-15H281.1v15Z" class="g0_181"/>
<path fill-rule="evenodd" d="M281.1,268.6H520.6V253.4H281.1v15.2Z" class="g0_181"/>
<path fill-rule="evenodd" d="M281.1,283.6H520.6v-15H281.1v15Z" class="g0_181"/>
<path fill-rule="evenodd" d="M281.1,298.7H520.6V283.6H281.1v15.1Z" class="g0_181"/>
<path fill-rule="evenodd" d="M281.1,313.7H520.6v-15H281.1v15Z" class="g0_181"/>
<path fill-rule="evenodd" d="M281.1,328.7H520.6v-15H281.1v15Z" class="g0_181"/>
<path fill-rule="evenodd" d="M281.1,343.8H520.6V328.7H281.1v15.1Z" class="g0_181"/>
<path fill-rule="evenodd" d="M280.8,358.9H520.2V343.8H280.8v15.1Z" class="g0_181"/>
<path fill-rule="evenodd" d="M280.8,373.9H520.2v-15H280.8v15Z" class="g0_181"/>
<path fill-rule="evenodd" d="M280.8,388.9H520.2v-15H280.8v15Z" class="g0_181"/>
<path fill-rule="evenodd" d="M299.5,404H520.6V388.9H299.5V404Z" class="g0_181"/>
<path fill-rule="evenodd" d="M280.4,419H520.6V404H280.4v15Z" class="g0_181"/>
<path fill-rule="evenodd" d="M280.4,434.2H520.6V419H280.4v15.2Z" class="g0_181"/>
<path fill-rule="evenodd" d="M280.4,449.2H520.6v-15H280.4v15Z" class="g0_181"/>
<path fill-rule="evenodd" d="M280.4,464.3H520.6V449.2H280.4v15.1Z" class="g0_181"/>
<path fill-rule="evenodd" d="M298.7,479.3H520.6v-15H298.7v15Z" class="g0_181"/>
<path fill-rule="evenodd" d="M280,494.3H518.8v-15H280v15Z" class="g0_181"/>
<path fill-rule="evenodd" d="M280,509.4H518.8V494.3H280v15.1Z" class="g0_181"/>
<path fill-rule="evenodd" d="M280,524.4H518.8v-15H280v15Z" class="g0_181"/>
<path fill-rule="evenodd" d="M280,539.4H518.8v-15H280v15Z" class="g0_181"/>
<path fill-rule="evenodd" d="M279.3,554.5H518.8V539.4H279.3v15.1Z" class="g0_181"/>
<path fill-rule="evenodd" d="M279.3,569.5H518.8v-15H279.3v15Z" class="g0_181"/>
<path fill-rule="evenodd" d="M279.3,584.5H518.8v-15H279.3v15Z" class="g0_181"/>
<path fill-rule="evenodd" d="M279.3,599.6H518.8V584.5H279.3v15.1Z" class="g0_181"/>
<path fill-rule="evenodd" d="M279.3,614.8H518.8V599.6H279.3v15.2Z" class="g0_181"/>
<path fill-rule="evenodd" d="M279.3,629.9H518.8V614.8H279.3v15.1Z" class="g0_181"/>
<path fill-rule="evenodd" d="M279.3,644.9H518.8v-15H279.3v15Z" class="g0_181"/>
<path fill-rule="evenodd" d="M279.3,659.9H518.8v-15H279.3v15Z" class="g0_181"/>
<path fill-rule="evenodd" d="M298,675H520.6V659.9H298V675Z" class="g0_181"/>
<path fill-rule="evenodd" d="M279.3,690H520.6V675H279.3v15Z" class="g0_181"/>
<path fill-rule="evenodd" d="M278.9,705H517.3V690H278.9v15Z" class="g0_181"/>
<path fill-rule="evenodd" d="M278.9,720.1H517.3V705H278.9v15.1Z" class="g0_181"/>
<path fill-rule="evenodd" d="M277.8,735.1H518v-15H277.8v15Z" class="g0_181"/>
<path fill-rule="evenodd" d="M277.8,750.1H518v-15H277.8v15Z" class="g0_181"/>
<path fill-rule="evenodd" d="M277.8,765.2H518V750.1H277.8v15.1Z" class="g0_181"/>
<path fill-rule="evenodd" d="M278.9,780.7H517.3V765.5H278.9v15.2Z" class="g0_181"/>
<path fill-rule="evenodd" d="M278.9,795.8H517.3V780.7H278.9v15.1Z" class="g0_181"/>
<path fill-rule="evenodd" d="M278.6,810.8H517.3v-15H278.6v15Z" class="g0_181"/>
<path fill-rule="evenodd" d="M278.6,825.8H517.3v-15H278.6v15Z" class="g0_181"/>
<path fill-rule="evenodd" d="M278.9,840.9H517.7V825.8H278.9v15.1Z" class="g0_181"/>
<path fill-rule="evenodd" d="M278.9,856H517.7V840.9H278.9V856Z" class="g0_181"/>
<path fill-rule="evenodd" d="M278.6,871.4H517.3V856.3H278.6v15.1Z" class="g0_181"/>
<path fill-rule="evenodd" d="M278.6,886.4H517.3v-15H278.6v15Z" class="g0_181"/>
<path fill-rule="evenodd" d="M280.4,901.4H520.6v-15H280.4v15Z" class="g0_181"/>
<path fill-rule="evenodd" d="M540.8,163.2H779.9v-15H540.8v15Z" class="g0_181"/>
<path fill-rule="evenodd" d="M540.8,178.2H779.9v-15H540.8v15Z" class="g0_181"/>
<path fill-rule="evenodd" d="M540.8,193.3H779.9V178.2H540.8v15.1Z" class="g0_181"/>
<path fill-rule="evenodd" d="M540.8,208.3H779.9v-15H540.8v15Z" class="g0_181"/>
<path fill-rule="evenodd" d="M540.8,223.3H779.9v-15H540.8v15Z" class="g0_181"/>
<path fill-rule="evenodd" d="M540.8,238.4H779.9V223.3H540.8v15.1Z" class="g0_181"/>
<path fill-rule="evenodd" d="M540.8,253.9H779.1V238.7H540.8v15.2Z" class="g0_181"/>
<path fill-rule="evenodd" d="M540.8,269H779.1V253.9H540.8V269Z" class="g0_181"/>
<path fill-rule="evenodd" d="M540.4,284H779.5V269H540.4v15Z" class="g0_181"/>
<path fill-rule="evenodd" d="M540.4,299H779.5V284H540.4v15Z" class="g0_181"/>
<path fill-rule="evenodd" d="M540.4,314.1H779.5V299H540.4v15.1Z" class="g0_181"/>
<path fill-rule="evenodd" d="M540.4,329.1H779.5v-15H540.4v15Z" class="g0_181"/>
<path fill-rule="evenodd" d="M540.4,344.1H779.5v-15H540.4v15Z" class="g0_181"/>
<path fill-rule="evenodd" d="M540.4,359.2h238v-15h-238v15Z" class="g0_181"/>
<path fill-rule="evenodd" d="M540.4,374.3h238V359.2h-238v15.1Z" class="g0_181"/>
<path fill-rule="evenodd" d="M540,389.3H779.5v-15H540v15Z" class="g0_181"/>
<path fill-rule="evenodd" d="M540,404.3H779.5v-15H540v15Z" class="g0_181"/>
<path fill-rule="evenodd" d="M540,419.5H779.5V404.3H540v15.2Z" class="g0_181"/>
<path fill-rule="evenodd" d="M540,434.6H779.5V419.5H540v15.1Z" class="g0_181"/>
<path fill-rule="evenodd" d="M539.3,449.6H778.8v-15H539.3v15Z" class="g0_181"/>
<path fill-rule="evenodd" d="M539.3,464.6H778.8v-15H539.3v15Z" class="g0_181"/>
<path fill-rule="evenodd" d="M539.3,479.7H778.8V464.6H539.3v15.1Z" class="g0_181"/>
<path fill-rule="evenodd" d="M539.3,494.7H778.8v-15H539.3v15Z" class="g0_181"/>
<path fill-rule="evenodd" d="M539.3,509.7H778.8v-15H539.3v15Z" class="g0_181"/>
<path fill-rule="evenodd" d="M539.3,524.8H778.8V509.7H539.3v15.1Z" class="g0_181"/>
<path fill-rule="evenodd" d="M539.3,539.8H778.8v-15H539.3v15Z" class="g0_181"/>
<path fill-rule="evenodd" d="M539.3,554.8H778v-15H539.3v15Z" class="g0_181"/>
<path fill-rule="evenodd" d="M539.3,569.9H778V554.8H539.3v15.1Z" class="g0_181"/>
<path fill-rule="evenodd" d="M539.3,584.9H778v-15H539.3v15Z" class="g0_181"/>
<path fill-rule="evenodd" d="M538.9,600.2H778V584.9H538.9v15.3Z" class="g0_181"/>
<path fill-rule="evenodd" d="M538.9,615.2H778v-15H538.9v15Z" class="g0_181"/>
<path fill-rule="evenodd" d="M538.9,630.2H778v-15H538.9v15Z" class="g0_181"/>
<path fill-rule="evenodd" d="M538.9,645.3H778V630.2H538.9v15.1Z" class="g0_181"/>
<path fill-rule="evenodd" d="M538.9,660.3H778v-15H538.9v15Z" class="g0_181"/>
<path fill-rule="evenodd" d="M538.9,675.3H778v-15H538.9v15Z" class="g0_181"/>
<path fill-rule="evenodd" d="M538.6,690.4H778V675.3H538.6v15.1Z" class="g0_181"/>
<path fill-rule="evenodd" d="M538.6,705.4H778v-15H538.6v15Z" class="g0_181"/>
<path fill-rule="evenodd" d="M538.6,720.4H778v-15H538.6v15Z" class="g0_181"/>
<path fill-rule="evenodd" d="M538.6,735.5H778V720.4H538.6v15.1Z" class="g0_181"/>
<path fill-rule="evenodd" d="M538.6,750.5H778v-15H538.6v15Z" class="g0_181"/>
<path fill-rule="evenodd" d="M538.6,765.5H778v-15H538.6v15Z" class="g0_181"/>
<path fill-rule="evenodd" d="M538.6,780.7H778V765.5H538.6v15.2Z" class="g0_181"/>
<path fill-rule="evenodd" d="M538.2,795.8H777.7V780.7H538.2v15.1Z" class="g0_181"/>
<path fill-rule="evenodd" d="M538.2,810.8H777.7v-15H538.2v15Z" class="g0_181"/>
<path fill-rule="evenodd" d="M538.2,825.8H777.7v-15H538.2v15Z" class="g0_181"/>
<path fill-rule="evenodd" d="M538.2,840.9H777.7V825.8H538.2v15.1Z" class="g0_181"/>
<path fill-rule="evenodd" d="M556.2,856H779.9V840.9H556.2V856Z" class="g0_181"/>
<path fill-rule="evenodd" d="M538.6,871H776.9V856H538.6v15Z" class="g0_181"/>
<path fill-rule="evenodd" d="M538.6,886H776.9V871H538.6v15Z" class="g0_181"/>
<path fill-rule="evenodd" d="M515.8,918.3h59.4V900.9H515.8v17.4Z" class="g0_181"/>
<path fill-rule="evenodd" d="M515.8,935.9h59.4V918.3H515.8v17.6Z" class="g0_181"/>
<path fill-rule="evenodd" d="M782.8,918.3h59.4V900.9H782.8v17.4Z" class="g0_181"/>
<path d="M194.5,90.6v37.7m28.6,-8.1V223.3m-2.9,0V985.6M527.8,149.2V917.7" class="g1_181"/>
</svg>