<?xml version="1.0" encoding="UTF-8" standalone="no"?>
<!DOCTYPE svg PUBLIC "-//W3C//DTD SVG 1.1//EN"
"http://www.w3.org/Graphics/SVG/1.1/DTD/svg11.dtd">
<svg viewBox="0 0 909 1285" version="1.1" xmlns="http://www.w3.org/2000/svg" xmlns:xlink="http://www.w3.org/1999/xlink">
<defs>
<style type="text/css"><![CDATA[
.g0_168{
fill: #FFFFFF;
}
.g1_168{
fill: none;
stroke: #000000;
stroke-width: 0.381;
stroke-linecap: butt;
stroke-linejoin: round;
}
]]></style>
</defs>
<path fill-rule="evenodd" d="M632.5,125.8h66.7V110H632.5v15.8Z" class="g0_168"/>
<path fill-rule="evenodd" d="M200.8,161.4H440.2V146.3H200.8v15.1Z" class="g0_168"/>
<path fill-rule="evenodd" d="M200.8,176.4H440.2v-15H200.8v15Z" class="g0_168"/>
<path fill-rule="evenodd" d="M219.1,191.6H440.2V176.4H219.1v15.2Z" class="g0_168"/>
<path fill-rule="evenodd" d="M201.1,206.6H439.9v-15H201.1v15Z" class="g0_168"/>
<path fill-rule="evenodd" d="M201.1,221.7H439.9V206.6H201.1v15.1Z" class="g0_168"/>
<path fill-rule="evenodd" d="M201.1,236.7H439.9v-15H201.1v15Z" class="g0_168"/>
<path fill-rule="evenodd" d="M201.1,251.7H439.9v-15H201.1v15Z" class="g0_168"/>
<path fill-rule="evenodd" d="M201.1,266.8H439.9V251.7H201.1v15.1Z" class="g0_168"/>
<path fill-rule="evenodd" d="M201.1,281.8H439.9v-15H201.1v15Z" class="g0_168"/>
<path fill-rule="evenodd" d="M219.1,296.8H440.2v-15H219.1v15Z" class="g0_168"/>
<path fill-rule="evenodd" d="M200.8,311.9H439.5V296.8H200.8v15.1Z" class="g0_168"/>
<path fill-rule="evenodd" d="M200.8,326.9H439.5v-15H200.8v15Z" class="g0_168"/>
<path fill-rule="evenodd" d="M200.8,341.9H439.5v-15H200.8v15Z" class="g0_168"/>
<path fill-rule="evenodd" d="M218.7,357.2H440.2V342H218.7v15.2Z" class="g0_168"/>
<path fill-rule="evenodd" d="M200,372.2H439.5v-15H200v15Z" class="g0_168"/>
<path fill-rule="evenodd" d="M200,387.3H439.5V372.2H200v15.1Z" class="g0_168"/>
<path fill-rule="evenodd" d="M200,402.3H439.5v-15H200v15Z" class="g0_168"/>
<path fill-rule="evenodd" d="M200,417.3H439.5v-15H200v15Z" class="g0_168"/>
<path fill-rule="evenodd" d="M200,432.4H439.5V417.3H200v15.1Z" class="g0_168"/>
<path fill-rule="evenodd" d="M200,447.4H439.5v-15H200v15Z" class="g0_168"/>
<path fill-rule="evenodd" d="M200,462.4H439.5v-15H200v15Z" class="g0_168"/>
<path fill-rule="evenodd" d="M200,477.5H439.5V462.4H200v15.1Z" class="g0_168"/>
<path fill-rule="evenodd" d="M200,492.5H439.5v-15H200v15Z" class="g0_168"/>
<path fill-rule="evenodd" d="M200,507.5H439.5v-15H200v15Z" class="g0_168"/>
<path fill-rule="evenodd" d="M200,522.6H361V507.5H200v15.1Z" class="g0_168"/>
<path fill-rule="evenodd" d="M200,537.8H361V522.6H200v15.2Z" class="g0_168"/>
<path fill-rule="evenodd" d="M199.7,552.8H438.8v-15H199.7v15Z" class="g0_168"/>
<path fill-rule="evenodd" d="M199.7,567.9H438.8V552.8H199.7v15.1Z" class="g0_168"/>
<path fill-rule="evenodd" d="M203.3,582.9H437.7v-15H203.3v15Z" class="g0_168"/>
<path fill-rule="evenodd" d="M203.3,598H437.7V582.9H203.3V598Z" class="g0_168"/>
<path fill-rule="evenodd" d="M198.9,613H438.4V598H198.9v15Z" class="g0_168"/>
<path fill-rule="evenodd" d="M198.9,628H438.4V613H198.9v15Z" class="g0_168"/>
<path fill-rule="evenodd" d="M198.9,643.1H438.4V628H198.9v15.1Z" class="g0_168"/>
<path fill-rule="evenodd" d="M198.9,658.1H438.4v-15H198.9v15Z" class="g0_168"/>
<path fill-rule="evenodd" d="M198.9,673.1H438.4v-15H198.9v15Z" class="g0_168"/>
<path fill-rule="evenodd" d="M198.9,688.2H438.4V673.1H198.9v15.1Z" class="g0_168"/>
<path fill-rule="evenodd" d="M198.9,703.2H438.4v-15H198.9v15Z" class="g0_168"/>
<path fill-rule="evenodd" d="M198.9,718.4H438.4V703.2H198.9v15.2Z" class="g0_168"/>
<path fill-rule="evenodd" d="M198.9,733.4H438.4v-15H198.9v15Z" class="g0_168"/>
<path fill-rule="evenodd" d="M198.9,748.5H438.4V733.4H198.9v15.1Z" class="g0_168"/>
<path fill-rule="evenodd" d="M198.9,763.5H438.4v-15H198.9v15Z" class="g0_168"/>
<path fill-rule="evenodd" d="M198.9,778.5H438.4v-15H198.9v15Z" class="g0_168"/>
<path fill-rule="evenodd" d="M198.9,793.6H438.4V778.5H198.9v15.1Z" class="g0_168"/>
<path fill-rule="evenodd" d="M198.9,808.6H438.4v-15H198.9v15Z" class="g0_168"/>
<path fill-rule="evenodd" d="M198.9,823.6H438.4v-15H198.9v15Z" class="g0_168"/>
<path fill-rule="evenodd" d="M198.9,838.7H438.4V823.6H198.9v15.1Z" class="g0_168"/>
<path fill-rule="evenodd" d="M198.9,853.8H437.7V838.7H198.9v15.1Z" class="g0_168"/>
<path fill-rule="evenodd" d="M198.9,868.8H437.7v-15H198.9v15Z" class="g0_168"/>
<path fill-rule="evenodd" d="M198.9,883.8H437.7v-15H198.9v15Z" class="g0_168"/>
<path fill-rule="evenodd" d="M200.8,899H440.2V883.8H200.8V899Z" class="g0_168"/>
<path fill-rule="evenodd" d="M460.1,161.4H699.2V146.3H460.1v15.1Z" class="g0_168"/>
<path fill-rule="evenodd" d="M460.1,176.4H699.2v-15H460.1v15Z" class="g0_168"/>
<path fill-rule="evenodd" d="M460.5,191.6H698.8V176.4H460.5v15.2Z" class="g0_168"/>
<path fill-rule="evenodd" d="M460.5,206.6H698.8v-15H460.5v15Z" class="g0_168"/>
<path fill-rule="evenodd" d="M459.7,221.7H699.2V206.6H459.7v15.1Z" class="g0_168"/>
<path fill-rule="evenodd" d="M459.7,236.7H699.2v-15H459.7v15Z" class="g0_168"/>
<path fill-rule="evenodd" d="M459.7,251.7H699.2v-15H459.7v15Z" class="g0_168"/>
<path fill-rule="evenodd" d="M459.7,266.8H699.2V251.7H459.7v15.1Z" class="g0_168"/>
<path fill-rule="evenodd" d="M459.7,281.8H699.2v-15H459.7v15Z" class="g0_168"/>
<path fill-rule="evenodd" d="M459.7,296.8H699.2v-15H459.7v15Z" class="g0_168"/>
<path fill-rule="evenodd" d="M459.7,311.9H699.2V296.8H459.7v15.1Z" class="g0_168"/>
<path fill-rule="evenodd" d="M478.1,327.3H699.2V312.2H478.1v15.1Z" class="g0_168"/>
<path fill-rule="evenodd" d="M478.1,342.5H699.2V327.3H478.1v15.2Z" class="g0_168"/>
<path fill-rule="evenodd" d="M478.1,357.6H699.2V342.5H478.1v15.1Z" class="g0_168"/>
<path fill-rule="evenodd" d="M478.1,372.6H699.2v-15H478.1v15Z" class="g0_168"/>
<path fill-rule="evenodd" d="M459.7,387.6H699.2v-15H459.7v15Z" class="g0_168"/>
<path fill-rule="evenodd" d="M459.7,402.7H699.2V387.6H459.7v15.1Z" class="g0_168"/>
<path fill-rule="evenodd" d="M459.7,417.7H699.2v-15H459.7v15Z" class="g0_168"/>
<path fill-rule="evenodd" d="M459.4,432.7H698.1v-15H459.4v15Z" class="g0_168"/>
<path fill-rule="evenodd" d="M459.4,447.8H698.1V432.7H459.4v15.1Z" class="g0_168"/>
<path fill-rule="evenodd" d="M459,462.8H699.2v-15H459v15Z" class="g0_168"/>
<path fill-rule="evenodd" d="M459,477.8H699.2v-15H459v15Z" class="g0_168"/>
<path fill-rule="evenodd" d="M459,492.9H699.2V477.8H459v15.1Z" class="g0_168"/>
<path fill-rule="evenodd" d="M459,507.9H699.2v-15H459v15Z" class="g0_168"/>
<path fill-rule="evenodd" d="M459,523.1H699.2V507.9H459v15.2Z" class="g0_168"/>
<path fill-rule="evenodd" d="M459.4,538.2H698.1V523.1H459.4v15.1Z" class="g0_168"/>
<path fill-rule="evenodd" d="M459.4,553.2H698.1v-15H459.4v15Z" class="g0_168"/>
<path fill-rule="evenodd" d="M458.6,568.2H697.7v-15H458.6v15Z" class="g0_168"/>
<path fill-rule="evenodd" d="M458.6,583.3H697.7V568.2H458.6v15.1Z" class="g0_168"/>
<path fill-rule="evenodd" d="M458.6,598.3H697.7v-15H458.6v15Z" class="g0_168"/>
<path fill-rule="evenodd" d="M458.6,613.4H697.7V598.3H458.6v15.1Z" class="g0_168"/>
<path fill-rule="evenodd" d="M458.6,628.4H697.7v-15H458.6v15Z" class="g0_168"/>
<path fill-rule="evenodd" d="M477,643.4H699.2v-15H477v15Z" class="g0_168"/>
<path fill-rule="evenodd" d="M458.3,658.5H697.4V643.4H458.3v15.1Z" class="g0_168"/>
<path fill-rule="evenodd" d="M458.3,673.5H697.4v-15H458.3v15Z" class="g0_168"/>
<path fill-rule="evenodd" d="M458.3,688.5H697.4v-15H458.3v15Z" class="g0_168"/>
<path fill-rule="evenodd" d="M458.3,703.7H697.4V688.5H458.3v15.2Z" class="g0_168"/>
<path fill-rule="evenodd" d="M458.3,718.8H697.4V703.7H458.3v15.1Z" class="g0_168"/>
<path fill-rule="evenodd" d="M458.3,733.8H697.4v-15H458.3v15Z" class="g0_168"/>
<path fill-rule="evenodd" d="M458.3,748.8H697.4v-15H458.3v15Z" class="g0_168"/>
<path fill-rule="evenodd" d="M458.3,763.9H697.4V748.8H458.3v15.1Z" class="g0_168"/>
<path fill-rule="evenodd" d="M458.3,778.9H697.4v-15H458.3v15Z" class="g0_168"/>
<path fill-rule="evenodd" d="M458.3,793.9H697.4v-15H458.3v15Z" class="g0_168"/>
<path fill-rule="evenodd" d="M458.3,809.3H697v-15H458.3v15Z" class="g0_168"/>
<path fill-rule="evenodd" d="M458.3,824.4H697V809.3H458.3v15.1Z" class="g0_168"/>
<path fill-rule="evenodd" d="M458.3,839.5H696.6V824.4H458.3v15.1Z" class="g0_168"/>
<path fill-rule="evenodd" d="M458.3,854.5H696.6v-15H458.3v15Z" class="g0_168"/>
<path fill-rule="evenodd" d="M458.6,869.7H697V854.5H458.6v15.2Z" class="g0_168"/>
<path fill-rule="evenodd" d="M458.6,884.7H697v-15H458.6v15Z" class="g0_168"/>
<path fill-rule="evenodd" d="M436.2,917.4h263V899.8h-263v17.6Z" class="g0_168"/>
<path d="M447.6,145.6V914.5" class="g1_168"/>
</svg>