<?xml version="1.0" encoding="UTF-8" standalone="no"?>
<!DOCTYPE svg PUBLIC "-//W3C//DTD SVG 1.1//EN"
"http://www.w3.org/Graphics/SVG/1.1/DTD/svg11.dtd">
<svg viewBox="0 0 909 1285" version="1.1" xmlns="http://www.w3.org/2000/svg" xmlns:xlink="http://www.w3.org/1999/xlink">
<defs>
<style type="text/css"><![CDATA[
.g0_171{
fill: #FFFFFF;
}
.g1_171{
fill: none;
stroke: #000000;
stroke-width: 0.381;
stroke-linecap: butt;
stroke-linejoin: round;
}
]]></style>
</defs>
<path fill-rule="evenodd" d="M283.3,125.8H781V110H283.3v15.8Z" class="g0_171"/>
<path fill-rule="evenodd" d="M300.9,161.4H522.1V146.3H300.9v15.1Z" class="g0_171"/>
<path fill-rule="evenodd" d="M283,176.4H521.7v-15H283v15Z" class="g0_171"/>
<path fill-rule="evenodd" d="M283,191.6H521.7V176.4H283v15.2Z" class="g0_171"/>
<path fill-rule="evenodd" d="M283,206.6H521.7v-15H283v15Z" class="g0_171"/>
<path fill-rule="evenodd" d="M283,221.7H522.1V206.6H283v15.1Z" class="g0_171"/>
<path fill-rule="evenodd" d="M283,236.7H522.1v-15H283v15Z" class="g0_171"/>
<path fill-rule="evenodd" d="M282.6,251.7H521.7v-15H282.6v15Z" class="g0_171"/>
<path fill-rule="evenodd" d="M282.6,266.8H521.7V251.7H282.6v15.1Z" class="g0_171"/>
<path fill-rule="evenodd" d="M282.6,281.8H521.7v-15H282.6v15Z" class="g0_171"/>
<path fill-rule="evenodd" d="M282.6,296.8H521.7v-15H282.6v15Z" class="g0_171"/>
<path fill-rule="evenodd" d="M282.6,311.9H521.7V296.8H282.6v15.1Z" class="g0_171"/>
<path fill-rule="evenodd" d="M282.2,326.9H521.3v-15H282.2v15Z" class="g0_171"/>
<path fill-rule="evenodd" d="M282.2,341.9H521.3v-15H282.2v15Z" class="g0_171"/>
<path fill-rule="evenodd" d="M282.2,357.2H521.3V342H282.2v15.2Z" class="g0_171"/>
<path fill-rule="evenodd" d="M281.9,372.2H521.7v-15H281.9v15Z" class="g0_171"/>
<path fill-rule="evenodd" d="M281.9,387.3H521.7V372.2H281.9v15.1Z" class="g0_171"/>
<path fill-rule="evenodd" d="M281.9,402.3H521.7v-15H281.9v15Z" class="g0_171"/>
<path fill-rule="evenodd" d="M281.9,417.3H521.7v-15H281.9v15Z" class="g0_171"/>
<path fill-rule="evenodd" d="M281.9,432.4H521.3V417.3H281.9v15.1Z" class="g0_171"/>
<path fill-rule="evenodd" d="M281.9,447.4H521.3v-15H281.9v15Z" class="g0_171"/>
<path fill-rule="evenodd" d="M281.9,462.4H521.3v-15H281.9v15Z" class="g0_171"/>
<path fill-rule="evenodd" d="M281.9,477.5H521.3V462.4H281.9v15.1Z" class="g0_171"/>
<path fill-rule="evenodd" d="M281.9,492.5H521.3v-15H281.9v15Z" class="g0_171"/>
<path fill-rule="evenodd" d="M281.9,507.5H520.6v-15H281.9v15Z" class="g0_171"/>
<path fill-rule="evenodd" d="M281.9,522.6H520.6V507.5H281.9v15.1Z" class="g0_171"/>
<path fill-rule="evenodd" d="M281.9,537.8H520.6V522.6H281.9v15.2Z" class="g0_171"/>
<path fill-rule="evenodd" d="M300.6,552.8H522.1v-15H300.6v15Z" class="g0_171"/>
<path fill-rule="evenodd" d="M281.9,567.9H521V552.8H281.9v15.1Z" class="g0_171"/>
<path fill-rule="evenodd" d="M281.9,582.9H521v-15H281.9v15Z" class="g0_171"/>
<path fill-rule="evenodd" d="M281.9,598H521V582.9H281.9V598Z" class="g0_171"/>
<path fill-rule="evenodd" d="M280.8,613H520.6V598H280.8v15Z" class="g0_171"/>
<path fill-rule="evenodd" d="M280.8,628H520.6V613H280.8v15Z" class="g0_171"/>
<path fill-rule="evenodd" d="M280.8,643.1H520.6V628H280.8v15.1Z" class="g0_171"/>
<path fill-rule="evenodd" d="M281.9,658.1H520.6v-15H281.9v15Z" class="g0_171"/>
<path fill-rule="evenodd" d="M281.9,673.1H520.6v-15H281.9v15Z" class="g0_171"/>
<path fill-rule="evenodd" d="M281.9,688.2H520.6V673.1H281.9v15.1Z" class="g0_171"/>
<path fill-rule="evenodd" d="M281.9,703.2H520.6v-15H281.9v15Z" class="g0_171"/>
<path fill-rule="evenodd" d="M281.5,718.4H520.6V703.2H281.5v15.2Z" class="g0_171"/>
<path fill-rule="evenodd" d="M281.5,733.4H520.6v-15H281.5v15Z" class="g0_171"/>
<path fill-rule="evenodd" d="M281.5,748.5H520.6V733.4H281.5v15.1Z" class="g0_171"/>
<path fill-rule="evenodd" d="M281.1,763.5H519.9v-15H281.1v15Z" class="g0_171"/>
<path fill-rule="evenodd" d="M281.1,778.5H519.9v-15H281.1v15Z" class="g0_171"/>
<path fill-rule="evenodd" d="M281.1,793.6H519.9V778.5H281.1v15.1Z" class="g0_171"/>
<path fill-rule="evenodd" d="M281.1,808.6H519.9v-15H281.1v15Z" class="g0_171"/>
<path fill-rule="evenodd" d="M281.1,823.6H519.9v-15H281.1v15Z" class="g0_171"/>
<path fill-rule="evenodd" d="M299.5,838.7H522.1V823.6H299.5v15.1Z" class="g0_171"/>
<path fill-rule="evenodd" d="M280.8,853.8H519.9V838.7H280.8v15.1Z" class="g0_171"/>
<path fill-rule="evenodd" d="M280.8,868.8H519.9v-15H280.8v15Z" class="g0_171"/>
<path fill-rule="evenodd" d="M280.8,883.8H519.9v-15H280.8v15Z" class="g0_171"/>
<path fill-rule="evenodd" d="M280.8,899H519.9V883.8H280.8V899Z" class="g0_171"/>
<path fill-rule="evenodd" d="M281.9,913.7H522.1V899H281.9v14.7Z" class="g0_171"/>
<path fill-rule="evenodd" d="M541.7,161.4H780.8V146.7H541.7v14.7Z" class="g0_171"/>
<path fill-rule="evenodd" d="M541.7,176H780.8V161.4H541.7V176Z" class="g0_171"/>
<path fill-rule="evenodd" d="M541.7,190.7H780.8V176H541.7v14.7Z" class="g0_171"/>
<path fill-rule="evenodd" d="M541.7,205.4H780.8V190.7H541.7v14.7Z" class="g0_171"/>
<path fill-rule="evenodd" d="M542.4,220.4h238V205.7h-238v14.7Z" class="g0_171"/>
<path fill-rule="evenodd" d="M542.4,235.1h238V220.4h-238v14.7Z" class="g0_171"/>
<path fill-rule="evenodd" d="M542,250.3H780.4V235.4H542v14.9Z" class="g0_171"/>
<path fill-rule="evenodd" d="M542,264.9H780.4V250.3H542v14.6Z" class="g0_171"/>
<path fill-rule="evenodd" d="M560.4,279.6H780.8V264.9H560.4v14.7Z" class="g0_171"/>
<path fill-rule="evenodd" d="M560.4,294.3H780.8V279.6H560.4v14.7Z" class="g0_171"/>
<path fill-rule="evenodd" d="M560,309.3H780.8V294.6H560v14.7Z" class="g0_171"/>
<path fill-rule="evenodd" d="M559.6,324.3H780.8V309.7H559.6v14.6Z" class="g0_171"/>
<path fill-rule="evenodd" d="M541.7,339H780.8V324.3H541.7V339Z" class="g0_171"/>
<path fill-rule="evenodd" d="M541.7,353.7H780.8V339H541.7v14.7Z" class="g0_171"/>
<path fill-rule="evenodd" d="M541.7,368.4H780.8V353.7H541.7v14.7Z" class="g0_171"/>
<path fill-rule="evenodd" d="M541.7,383.1H780.8V368.4H541.7v14.7Z" class="g0_171"/>
<path fill-rule="evenodd" d="M541.7,397.7H780.8V383.1H541.7v14.6Z" class="g0_171"/>
<path fill-rule="evenodd" d="M559.6,412.8H780.8V398.1H559.6v14.7Z" class="g0_171"/>
<path fill-rule="evenodd" d="M541.3,427.8H780.4V413.1H541.3v14.7Z" class="g0_171"/>
<path fill-rule="evenodd" d="M541.3,442.5H780.4V427.8H541.3v14.7Z" class="g0_171"/>
<path fill-rule="evenodd" d="M541.3,457.1H780.4V442.5H541.3v14.6Z" class="g0_171"/>
<path fill-rule="evenodd" d="M541.3,471.8H780.4V457.1H541.3v14.7Z" class="g0_171"/>
<path fill-rule="evenodd" d="M541.3,486.8H780V472.2H541.3v14.6Z" class="g0_171"/>
<path fill-rule="evenodd" d="M541.3,501.5H780V486.8H541.3v14.7Z" class="g0_171"/>
<path fill-rule="evenodd" d="M541.7,516.5h238V501.9h-238v14.6Z" class="g0_171"/>
<path fill-rule="evenodd" d="M541.7,531.2h238V516.5h-238v14.7Z" class="g0_171"/>
<path fill-rule="evenodd" d="M541.3,546.2H779.7V531.6H541.3v14.6Z" class="g0_171"/>
<path fill-rule="evenodd" d="M541.3,560.9H779.7V546.2H541.3v14.7Z" class="g0_171"/>
<path fill-rule="evenodd" d="M541.3,575.6H779.7V560.9H541.3v14.7Z" class="g0_171"/>
<path fill-rule="evenodd" d="M540.9,590.6H780V575.9H540.9v14.7Z" class="g0_171"/>
<path fill-rule="evenodd" d="M540.9,605.3H780V590.6H540.9v14.7Z" class="g0_171"/>
<path fill-rule="evenodd" d="M540.9,620H780V605.3H540.9V620Z" class="g0_171"/>
<path fill-rule="evenodd" d="M540.9,634.6H780V620H540.9v14.6Z" class="g0_171"/>
<path fill-rule="evenodd" d="M541.3,649.3H754.4V634.6H541.3v14.7Z" class="g0_171"/>
<path fill-rule="evenodd" d="M541.3,664H754.4V649.3H541.3V664Z" class="g0_171"/>
<path fill-rule="evenodd" d="M540.6,679H779.7V664.3H540.6V679Z" class="g0_171"/>
<path fill-rule="evenodd" d="M540.6,693.7H779.7V679H540.6v14.7Z" class="g0_171"/>
<path fill-rule="evenodd" d="M540.6,708.3H779.7V693.7H540.6v14.6Z" class="g0_171"/>
<path fill-rule="evenodd" d="M540.6,723H779.7V708.3H540.6V723Z" class="g0_171"/>
<path fill-rule="evenodd" d="M540.9,737.7H754.4V723H540.9v14.7Z" class="g0_171"/>
<path fill-rule="evenodd" d="M540.9,752.3H754.4V737.7H540.9v14.6Z" class="g0_171"/>
<path fill-rule="evenodd" d="M540.6,767H780.8V752.3H540.6V767Z" class="g0_171"/>
<path fill-rule="evenodd" d="M540.6,781.7H780.8V767H540.6v14.7Z" class="g0_171"/>
<path fill-rule="evenodd" d="M540.6,796.3H780.8V781.7H540.6v14.6Z" class="g0_171"/>
<path fill-rule="evenodd" d="M540.6,811H780.8V796.3H540.6V811Z" class="g0_171"/>
<path fill-rule="evenodd" d="M540.6,826H779.3V811.4H540.6V826Z" class="g0_171"/>
<path fill-rule="evenodd" d="M540.6,840.7H779.3V826H540.6v14.7Z" class="g0_171"/>
<path fill-rule="evenodd" d="M540.6,855.4H779.3V840.7H540.6v14.7Z" class="g0_171"/>
<path fill-rule="evenodd" d="M558.5,870.6H780.8V855.8H558.5v14.8Z" class="g0_171"/>
<path fill-rule="evenodd" d="M540.6,885.7H779.3V871H540.6v14.7Z" class="g0_171"/>
<path fill-rule="evenodd" d="M540.6,900.3H779.3V885.7H540.6v14.6Z" class="g0_171"/>
<path fill-rule="evenodd" d="M518.4,932H781V914.6H518.4V932Z" class="g0_171"/>
<path d="M530.4,147.4V916" class="g1_171"/>
</svg>