<?xml version="1.0" encoding="UTF-8" standalone="no"?>
<!DOCTYPE svg PUBLIC "-//W3C//DTD SVG 1.1//EN"
"http://www.w3.org/Graphics/SVG/1.1/DTD/svg11.dtd">
<svg viewBox="0 0 909 1285" version="1.1" xmlns="http://www.w3.org/2000/svg" xmlns:xlink="http://www.w3.org/1999/xlink">
<defs>
<style type="text/css"><![CDATA[
.g0_132{
fill: #FFFFFF;
}
.g1_132{
fill: none;
stroke: #000000;
stroke-width: 0.381;
stroke-linecap: butt;
stroke-linejoin: round;
}
]]></style>
</defs>
<path fill-rule="evenodd" d="M616.1,127.6H684V110H616.1v17.6Z" class="g0_132"/>
<path fill-rule="evenodd" d="M185.2,163.2H423.9v-15H185.2v15Z" class="g0_132"/>
<path fill-rule="evenodd" d="M185.2,178.2H423.9v-15H185.2v15Z" class="g0_132"/>
<path fill-rule="evenodd" d="M185.2,193.3H423.9V178.2H185.2v15.1Z" class="g0_132"/>
<path fill-rule="evenodd" d="M185.2,208.3H423.9v-15H185.2v15Z" class="g0_132"/>
<path fill-rule="evenodd" d="M185.2,223.3H423.9v-15H185.2v15Z" class="g0_132"/>
<path fill-rule="evenodd" d="M185.2,238.4H423.9V223.3H185.2v15.1Z" class="g0_132"/>
<path fill-rule="evenodd" d="M185.2,253.4H423.9v-15H185.2v15Z" class="g0_132"/>
<path fill-rule="evenodd" d="M185.2,268.6H423.9V253.4H185.2v15.2Z" class="g0_132"/>
<path fill-rule="evenodd" d="M185.2,283.6H423.9v-15H185.2v15Z" class="g0_132"/>
<path fill-rule="evenodd" d="M185.2,298.7H423.9V283.6H185.2v15.1Z" class="g0_132"/>
<path fill-rule="evenodd" d="M185.2,313.7H423.6v-15H185.2v15Z" class="g0_132"/>
<path fill-rule="evenodd" d="M185.2,328.7H423.6v-15H185.2v15Z" class="g0_132"/>
<path fill-rule="evenodd" d="M185.2,343.8H423.6V328.7H185.2v15.1Z" class="g0_132"/>
<path fill-rule="evenodd" d="M185.2,358.9H423.6V343.8H185.2v15.1Z" class="g0_132"/>
<path fill-rule="evenodd" d="M185.6,373.9H368.2v-15H185.6v15Z" class="g0_132"/>
<path fill-rule="evenodd" d="M185.6,388.9H368.2v-15H185.6v15Z" class="g0_132"/>
<path fill-rule="evenodd" d="M184.5,404H423.6V388.9H184.5V404Z" class="g0_132"/>
<path fill-rule="evenodd" d="M184.5,419H423.6V404H184.5v15Z" class="g0_132"/>
<path fill-rule="evenodd" d="M184.5,434.2H423.6V419H184.5v15.2Z" class="g0_132"/>
<path fill-rule="evenodd" d="M184.5,449.2H423.6v-15H184.5v15Z" class="g0_132"/>
<path fill-rule="evenodd" d="M184.8,464.3H368.2V449.2H184.8v15.1Z" class="g0_132"/>
<path fill-rule="evenodd" d="M184.8,479.3H368.2v-15H184.8v15Z" class="g0_132"/>
<path fill-rule="evenodd" d="M184.1,494.3H423.9v-15H184.1v15Z" class="g0_132"/>
<path fill-rule="evenodd" d="M184.1,509.4H423.9V494.3H184.1v15.1Z" class="g0_132"/>
<path fill-rule="evenodd" d="M184.1,524.4H423.9v-15H184.1v15Z" class="g0_132"/>
<path fill-rule="evenodd" d="M184.1,539.4H423.9v-15H184.1v15Z" class="g0_132"/>
<path fill-rule="evenodd" d="M184.1,554.5H423.9V539.4H184.1v15.1Z" class="g0_132"/>
<path fill-rule="evenodd" d="M184.1,569.5H423.9v-15H184.1v15Z" class="g0_132"/>
<path fill-rule="evenodd" d="M183.4,584.5H422.8v-15H183.4v15Z" class="g0_132"/>
<path fill-rule="evenodd" d="M183.4,599.6H422.8V584.5H183.4v15.1Z" class="g0_132"/>
<path fill-rule="evenodd" d="M183.4,614.8H422.8V599.6H183.4v15.2Z" class="g0_132"/>
<path fill-rule="evenodd" d="M183.4,629.9H422.8V614.8H183.4v15.1Z" class="g0_132"/>
<path fill-rule="evenodd" d="M183.4,644.9H422.8v-15H183.4v15Z" class="g0_132"/>
<path fill-rule="evenodd" d="M183.4,659.9H422.8v-15H183.4v15Z" class="g0_132"/>
<path fill-rule="evenodd" d="M183.4,675H422.1V659.9H183.4V675Z" class="g0_132"/>
<path fill-rule="evenodd" d="M183.4,690H422.1V675H183.4v15Z" class="g0_132"/>
<path fill-rule="evenodd" d="M183.4,705H422.1V690H183.4v15Z" class="g0_132"/>
<path fill-rule="evenodd" d="M183.4,720.1H422.1V705H183.4v15.1Z" class="g0_132"/>
<path fill-rule="evenodd" d="M183,735.1H422.1v-15H183v15Z" class="g0_132"/>
<path fill-rule="evenodd" d="M183,750.1H422.1v-15H183v15Z" class="g0_132"/>
<path fill-rule="evenodd" d="M183,765.2H422.1V750.1H183v15.1Z" class="g0_132"/>
<path fill-rule="evenodd" d="M183,780.2H422.1v-15H183v15Z" class="g0_132"/>
<path fill-rule="evenodd" d="M183,795.4H422.1V780.2H183v15.2Z" class="g0_132"/>
<path fill-rule="evenodd" d="M183,810.4H422.1v-15H183v15Z" class="g0_132"/>
<path fill-rule="evenodd" d="M183,825.5H421V810.4H183v15.1Z" class="g0_132"/>
<path fill-rule="evenodd" d="M183,840.6H421V825.5H183v15.1Z" class="g0_132"/>
<path fill-rule="evenodd" d="M183.4,855.6h238v-15h-238v15Z" class="g0_132"/>
<path fill-rule="evenodd" d="M183.4,870.6h238v-15h-238v15Z" class="g0_132"/>
<path fill-rule="evenodd" d="M184.8,885.7H423.6V870.6H184.8v15.1Z" class="g0_132"/>
<path fill-rule="evenodd" d="M443.7,163.2H682.9v-15H443.7v15Z" class="g0_132"/>
<path fill-rule="evenodd" d="M443.7,178.2H682.9v-15H443.7v15Z" class="g0_132"/>
<path fill-rule="evenodd" d="M444.5,193.3H683.3V178.2H444.5v15.1Z" class="g0_132"/>
<path fill-rule="evenodd" d="M444.5,208.3H683.3v-15H444.5v15Z" class="g0_132"/>
<path fill-rule="evenodd" d="M444.5,223.3H683.3v-15H444.5v15Z" class="g0_132"/>
<path fill-rule="evenodd" d="M462.5,238.4H683.2V223.3H462.5v15.1Z" class="g0_132"/>
<path fill-rule="evenodd" d="M462.1,253.4H683.2v-15H462.1v15Z" class="g0_132"/>
<path fill-rule="evenodd" d="M444.1,268.6H683.3V253.4H444.1v15.2Z" class="g0_132"/>
<path fill-rule="evenodd" d="M444.1,283.6H683.3v-15H444.1v15Z" class="g0_132"/>
<path fill-rule="evenodd" d="M444.1,298.7H683.3V283.6H444.1v15.1Z" class="g0_132"/>
<path fill-rule="evenodd" d="M443.7,313.7H683.3v-15H443.7v15Z" class="g0_132"/>
<path fill-rule="evenodd" d="M443.7,328.7H683.3v-15H443.7v15Z" class="g0_132"/>
<path fill-rule="evenodd" d="M443.7,343.8H683.3V328.7H443.7v15.1Z" class="g0_132"/>
<path fill-rule="evenodd" d="M443.7,358.9H683.3V343.8H443.7v15.1Z" class="g0_132"/>
<path fill-rule="evenodd" d="M443.7,373.9H683.3v-15H443.7v15Z" class="g0_132"/>
<path fill-rule="evenodd" d="M443.7,388.9H683.3v-15H443.7v15Z" class="g0_132"/>
<path fill-rule="evenodd" d="M444.1,404H682.5V388.9H444.1V404Z" class="g0_132"/>
<path fill-rule="evenodd" d="M444.1,419H682.5V404H444.1v15Z" class="g0_132"/>
<path fill-rule="evenodd" d="M443.7,434.2H682.5V419H443.7v15.2Z" class="g0_132"/>
<path fill-rule="evenodd" d="M443.7,449.2H682.5v-15H443.7v15Z" class="g0_132"/>
<path fill-rule="evenodd" d="M443.7,464.3H682.5V449.2H443.7v15.1Z" class="g0_132"/>
<path fill-rule="evenodd" d="M443.4,479.3H682.5v-15H443.4v15Z" class="g0_132"/>
<path fill-rule="evenodd" d="M443.4,494.3H682.5v-15H443.4v15Z" class="g0_132"/>
<path fill-rule="evenodd" d="M442.6,509.4H682.2V494.3H442.6v15.1Z" class="g0_132"/>
<path fill-rule="evenodd" d="M442.6,524.4H682.2v-15H442.6v15Z" class="g0_132"/>
<path fill-rule="evenodd" d="M442.6,539.4H682.2v-15H442.6v15Z" class="g0_132"/>
<path fill-rule="evenodd" d="M442.6,554.5H682.2V539.4H442.6v15.1Z" class="g0_132"/>
<path fill-rule="evenodd" d="M442.6,569.5H682.2v-15H442.6v15Z" class="g0_132"/>
<path fill-rule="evenodd" d="M461.4,584.5H683.2v-15H461.4v15Z" class="g0_132"/>
<path fill-rule="evenodd" d="M461,599.6H683.2V584.5H461v15.1Z" class="g0_132"/>
<path fill-rule="evenodd" d="M443,614.8H681.4V599.6H443v15.2Z" class="g0_132"/>
<path fill-rule="evenodd" d="M443,629.9H681.4V614.8H443v15.1Z" class="g0_132"/>
<path fill-rule="evenodd" d="M443,644.9H681.4v-15H443v15Z" class="g0_132"/>
<path fill-rule="evenodd" d="M442.6,659.9H681.8v-15H442.6v15Z" class="g0_132"/>
<path fill-rule="evenodd" d="M442.6,675H681.8V659.9H442.6V675Z" class="g0_132"/>
<path fill-rule="evenodd" d="M442.6,690H681.8V675H442.6v15Z" class="g0_132"/>
<path fill-rule="evenodd" d="M442.6,705H681.1V690H442.6v15Z" class="g0_132"/>
<path fill-rule="evenodd" d="M442.6,720.1H681.1V705H442.6v15.1Z" class="g0_132"/>
<path fill-rule="evenodd" d="M441.9,735.1H681.4v-15H441.9v15Z" class="g0_132"/>
<path fill-rule="evenodd" d="M441.9,750.1H681.4v-15H441.9v15Z" class="g0_132"/>
<path fill-rule="evenodd" d="M441.9,765.2H681.4V750.1H441.9v15.1Z" class="g0_132"/>
<path fill-rule="evenodd" d="M441.9,780.2H681.4v-15H441.9v15Z" class="g0_132"/>
<path fill-rule="evenodd" d="M460.3,795.4H683.2V780.2H460.3v15.2Z" class="g0_132"/>
<path fill-rule="evenodd" d="M442.3,810.4H681.4v-15H442.3v15Z" class="g0_132"/>
<path fill-rule="evenodd" d="M442.3,825.5H681.4V810.4H442.3v15.1Z" class="g0_132"/>
<path fill-rule="evenodd" d="M442.3,840.6H681.4V825.5H442.3v15.1Z" class="g0_132"/>
<path fill-rule="evenodd" d="M441.9,855.6H681.1v-15H441.9v15Z" class="g0_132"/>
<path fill-rule="evenodd" d="M441.9,870.6H681.1v-15H441.9v15Z" class="g0_132"/>
<path fill-rule="evenodd" d="M441.9,885.7H681.1V870.6H441.9v15.1Z" class="g0_132"/>
<path fill-rule="evenodd" d="M441.9,900.7H681.1v-15H441.9v15Z" class="g0_132"/>
<path d="M431.2,147.4V915.9" class="g1_132"/>
</svg>