<?xml version="1.0" encoding="UTF-8" standalone="no"?>
<!DOCTYPE svg PUBLIC "-//W3C//DTD SVG 1.1//EN"
"http://www.w3.org/Graphics/SVG/1.1/DTD/svg11.dtd">
<svg viewBox="0 0 909 1285" version="1.1" xmlns="http://www.w3.org/2000/svg" xmlns:xlink="http://www.w3.org/1999/xlink">
<defs>
<style type="text/css"><![CDATA[
.g0_214{
fill: #FFFFFF;
}
.g1_214{
fill: none;
stroke: #000000;
stroke-width: 0.381;
stroke-linecap: butt;
stroke-linejoin: round;
}
]]></style>
</defs>
<path fill-rule="evenodd" d="M574.1,125.8H683.4V110H574.1v15.8Z" class="g0_214"/>
<path fill-rule="evenodd" d="M184.3,162.8H421.5V148.2H184.3v14.6Z" class="g0_214"/>
<path fill-rule="evenodd" d="M183.9,177.9H421.5V163.2H183.9v14.7Z" class="g0_214"/>
<path fill-rule="evenodd" d="M183.5,192.5H420.8V177.9H183.5v14.6Z" class="g0_214"/>
<path fill-rule="evenodd" d="M183.5,207.2H420.8V192.5H183.5v14.7Z" class="g0_214"/>
<path fill-rule="evenodd" d="M183.5,221.9H420.8V207.2H183.5v14.7Z" class="g0_214"/>
<path fill-rule="evenodd" d="M183.5,236.5H420.8V221.9H183.5v14.6Z" class="g0_214"/>
<path fill-rule="evenodd" d="M183.5,251.2H420.8V236.5H183.5v14.7Z" class="g0_214"/>
<path fill-rule="evenodd" d="M183.5,265.9H420.8V251.2H183.5v14.7Z" class="g0_214"/>
<path fill-rule="evenodd" d="M183.9,280.5H420.8V265.9H183.9v14.6Z" class="g0_214"/>
<path fill-rule="evenodd" d="M183.9,295.2H420.8V280.5H183.9v14.7Z" class="g0_214"/>
<path fill-rule="evenodd" d="M183.9,309.9H420.8V295.2H183.9v14.7Z" class="g0_214"/>
<path fill-rule="evenodd" d="M183.9,324.5H420.8V309.9H183.9v14.6Z" class="g0_214"/>
<path fill-rule="evenodd" d="M183.9,339.2H420.8V324.5H183.9v14.7Z" class="g0_214"/>
<path fill-rule="evenodd" d="M183.9,353.9H420.8V339.2H183.9v14.7Z" class="g0_214"/>
<path fill-rule="evenodd" d="M182.8,368.6H421.2V353.9H182.8v14.7Z" class="g0_214"/>
<path fill-rule="evenodd" d="M182.8,383.2H421.2V368.6H182.8v14.6Z" class="g0_214"/>
<path fill-rule="evenodd" d="M182.8,397.9H421.2V383.2H182.8v14.7Z" class="g0_214"/>
<path fill-rule="evenodd" d="M182.8,412.6H421.2V397.9H182.8v14.7Z" class="g0_214"/>
<path fill-rule="evenodd" d="M182.8,427.2H421.2V412.6H182.8v14.6Z" class="g0_214"/>
<path fill-rule="evenodd" d="M182.8,441.9H421.2V427.2H182.8v14.7Z" class="g0_214"/>
<path fill-rule="evenodd" d="M181.7,456.6H420.8V441.9H181.7v14.7Z" class="g0_214"/>
<path fill-rule="evenodd" d="M181.7,471.2H420.8V456.6H181.7v14.6Z" class="g0_214"/>
<path fill-rule="evenodd" d="M181.7,485.9H420.8V471.2H181.7v14.7Z" class="g0_214"/>
<path fill-rule="evenodd" d="M182.4,500.6H420.8V485.9H182.4v14.7Z" class="g0_214"/>
<path fill-rule="evenodd" d="M182.4,515.2H420.8V500.6H182.4v14.6Z" class="g0_214"/>
<path fill-rule="evenodd" d="M182.4,529.9H421.2V515.2H182.4v14.7Z" class="g0_214"/>
<path fill-rule="evenodd" d="M182.4,544.6H421.2V529.9H182.4v14.7Z" class="g0_214"/>
<path fill-rule="evenodd" d="M182.4,559.2H421.2V544.6H182.4v14.6Z" class="g0_214"/>
<path fill-rule="evenodd" d="M182.4,573.9H421.2V559.2H182.4v14.7Z" class="g0_214"/>
<path fill-rule="evenodd" d="M182.4,588.6H421.2V573.9H182.4v14.7Z" class="g0_214"/>
<path fill-rule="evenodd" d="M182.4,603.3H421.5V588.6H182.4v14.7Z" class="g0_214"/>
<path fill-rule="evenodd" d="M182.4,617.9H421.5V603.3H182.4v14.6Z" class="g0_214"/>
<path fill-rule="evenodd" d="M200,633.2H421.5V618.3H200v14.9Z" class="g0_214"/>
<path fill-rule="evenodd" d="M182.1,648.2H420.4V633.5H182.1v14.7Z" class="g0_214"/>
<path fill-rule="evenodd" d="M182.1,662.9H420.4V648.2H182.1v14.7Z" class="g0_214"/>
<path fill-rule="evenodd" d="M200,678.3H421.5V663.6H200v14.7Z" class="g0_214"/>
<path fill-rule="evenodd" d="M199.7,692.9H421.5V678.3H199.7v14.6Z" class="g0_214"/>
<path fill-rule="evenodd" d="M200,708H421.5V693.3H200V708Z" class="g0_214"/>
<path fill-rule="evenodd" d="M181.3,723H420.8V708.3H181.3V723Z" class="g0_214"/>
<path fill-rule="evenodd" d="M181.3,737.7H420.8V723H181.3v14.7Z" class="g0_214"/>
<path fill-rule="evenodd" d="M182.1,752.3H420.8V737.7H182.1v14.6Z" class="g0_214"/>
<path fill-rule="evenodd" d="M182.1,767H420.8V752.3H182.1V767Z" class="g0_214"/>
<path fill-rule="evenodd" d="M182.1,781.7H420.8V767H182.1v14.7Z" class="g0_214"/>
<path fill-rule="evenodd" d="M182.1,796.7H421.2V782H182.1v14.7Z" class="g0_214"/>
<path fill-rule="evenodd" d="M182.1,811.4H421.2V796.7H182.1v14.7Z" class="g0_214"/>
<path fill-rule="evenodd" d="M182.1,826H421.2V811.4H182.1V826Z" class="g0_214"/>
<path fill-rule="evenodd" d="M182.1,840.7H420.8V826H182.1v14.7Z" class="g0_214"/>
<path fill-rule="evenodd" d="M182.1,855.4H420.8V840.7H182.1v14.7Z" class="g0_214"/>
<path fill-rule="evenodd" d="M200,870.4H421.5V855.8H200v14.6Z" class="g0_214"/>
<path fill-rule="evenodd" d="M182.1,885.1h238V870.4h-238v14.7Z" class="g0_214"/>
<path fill-rule="evenodd" d="M182.1,899.8h238V885.1h-238v14.7Z" class="g0_214"/>
<path fill-rule="evenodd" d="M181.3,914.4H419.7V899.8H181.3v14.6Z" class="g0_214"/>
<path fill-rule="evenodd" d="M441,161.4H681.6V146.7H441v14.7Z" class="g0_214"/>
<path fill-rule="evenodd" d="M441,176H681.6V161.4H441V176Z" class="g0_214"/>
<path fill-rule="evenodd" d="M441,190.7H682.3V176H441v14.7Z" class="g0_214"/>
<path fill-rule="evenodd" d="M441,205.4H682.3V190.7H441v14.7Z" class="g0_214"/>
<path fill-rule="evenodd" d="M441,220H682.3V205.4H441V220Z" class="g0_214"/>
<path fill-rule="evenodd" d="M441,234.7H682.3V220H441v14.7Z" class="g0_214"/>
<path fill-rule="evenodd" d="M441,249.4H682.3V234.7H441v14.7Z" class="g0_214"/>
<path fill-rule="evenodd" d="M441.4,264H682.3V249.4H441.4V264Z" class="g0_214"/>
<path fill-rule="evenodd" d="M441.4,278.7H682.3V264H441.4v14.7Z" class="g0_214"/>
<path fill-rule="evenodd" d="M441,293.4H683.1V278.7H441v14.7Z" class="g0_214"/>
<path fill-rule="evenodd" d="M441,308H683.1V293.4H441V308Z" class="g0_214"/>
<path fill-rule="evenodd" d="M441,322.7H683.1V308H441v14.7Z" class="g0_214"/>
<path fill-rule="evenodd" d="M441,337.4H683.1V322.7H441v14.7Z" class="g0_214"/>
<path fill-rule="evenodd" d="M441.4,352H682.7V337.4H441.4V352Z" class="g0_214"/>
<path fill-rule="evenodd" d="M441.4,366.7H682.7V352H441.4v14.7Z" class="g0_214"/>
<path fill-rule="evenodd" d="M441.4,381.4h242V366.7h-242v14.7Z" class="g0_214"/>
<path fill-rule="evenodd" d="M441.4,396.1h242V381.4h-242v14.7Z" class="g0_214"/>
<path fill-rule="evenodd" d="M441.4,410.7h242V396.1h-242v14.6Z" class="g0_214"/>
<path fill-rule="evenodd" d="M441.4,425.4h242V410.7h-242v14.7Z" class="g0_214"/>
<path fill-rule="evenodd" d="M441.4,440.6H683.1V425.8H441.4v14.8Z" class="g0_214"/>
<path fill-rule="evenodd" d="M441.4,455.3H683.1V440.6H441.4v14.7Z" class="g0_214"/>
<path fill-rule="evenodd" d="M441.4,470H683.1V455.3H441.4V470Z" class="g0_214"/>
<path fill-rule="evenodd" d="M459,485H683.4V470.3H459V485Z" class="g0_214"/>
<path fill-rule="evenodd" d="M459.4,499.7h224V485h-224v14.7Z" class="g0_214"/>
<path fill-rule="evenodd" d="M459.4,514.3h224V499.7h-224v14.6Z" class="g0_214"/>
<path fill-rule="evenodd" d="M441,529H683.4V514.3H441V529Z" class="g0_214"/>
<path fill-rule="evenodd" d="M441,543.7H683.4V529H441v14.7Z" class="g0_214"/>
<path fill-rule="evenodd" d="M441,558.3H683.4V543.7H441v14.6Z" class="g0_214"/>
<path fill-rule="evenodd" d="M441,573H683.4V558.3H441V573Z" class="g0_214"/>
<path fill-rule="evenodd" d="M441,587.7H683.4V573H441v14.7Z" class="g0_214"/>
<path fill-rule="evenodd" d="M441,602.4H683.4V587.7H441v14.7Z" class="g0_214"/>
<path fill-rule="evenodd" d="M441,617.4H683.1V602.7H441v14.7Z" class="g0_214"/>
<path fill-rule="evenodd" d="M441,632.1H683.1V617.4H441v14.7Z" class="g0_214"/>
<path fill-rule="evenodd" d="M441,646.7H683.1V632.1H441v14.6Z" class="g0_214"/>
<path fill-rule="evenodd" d="M441,661.4H683.1V646.7H441v14.7Z" class="g0_214"/>
<path fill-rule="evenodd" d="M441.4,676.4H682.3V661.8H441.4v14.6Z" class="g0_214"/>
<path fill-rule="evenodd" d="M441.4,691.1H682.3V676.4H441.4v14.7Z" class="g0_214"/>
<path fill-rule="evenodd" d="M441.7,706.1h241V691.5h-241v14.6Z" class="g0_214"/>
<path fill-rule="evenodd" d="M441.7,720.8h241V706.1h-241v14.7Z" class="g0_214"/>
<path fill-rule="evenodd" d="M441.7,735.5h241V720.8h-241v14.7Z" class="g0_214"/>
<path fill-rule="evenodd" d="M441.7,750.1h241V735.5h-241v14.6Z" class="g0_214"/>
<path fill-rule="evenodd" d="M441.7,764.8h241V750.1h-241v14.7Z" class="g0_214"/>
<path fill-rule="evenodd" d="M441.7,779.5h241V764.8h-241v14.7Z" class="g0_214"/>
<path fill-rule="evenodd" d="M441,794.5H683.1V779.8H441v14.7Z" class="g0_214"/>
<path fill-rule="evenodd" d="M441,809.2H683.1V794.5H441v14.7Z" class="g0_214"/>
<path fill-rule="evenodd" d="M441,823.8H683.1V809.2H441v14.6Z" class="g0_214"/>
<path fill-rule="evenodd" d="M441,838.5H683.1V823.8H441v14.7Z" class="g0_214"/>
<path fill-rule="evenodd" d="M441,853.2H683.1V838.5H441v14.7Z" class="g0_214"/>
<path fill-rule="evenodd" d="M441,867.9H683.1V853.2H441v14.7Z" class="g0_214"/>
<path fill-rule="evenodd" d="M417.9,931.7H683.4V914.1H417.9v17.6Z" class="g0_214"/>
<path d="M430.6,147.1V916.4" class="g1_214"/>
</svg>