<?xml version="1.0" encoding="UTF-8" standalone="no"?>
<!DOCTYPE svg PUBLIC "-//W3C//DTD SVG 1.1//EN"
"http://www.w3.org/Graphics/SVG/1.1/DTD/svg11.dtd">
<svg viewBox="0 0 909 1285" version="1.1" xmlns="http://www.w3.org/2000/svg" xmlns:xlink="http://www.w3.org/1999/xlink">
<defs>
<style type="text/css"><![CDATA[
.g0_220{
fill: #FFFFFF;
}
.g1_220{
fill: none;
stroke: #000000;
stroke-width: 0.381;
stroke-linecap: butt;
stroke-linejoin: round;
}
]]></style>
</defs>
<path fill-rule="evenodd" d="M608.6,125.8h80V110h-80v15.8Z" class="g0_220"/>
<path fill-rule="evenodd" d="M187.9,161.7H427.4v-15H187.9v15Z" class="g0_220"/>
<path fill-rule="evenodd" d="M187.9,176.9H427.4V161.7H187.9v15.2Z" class="g0_220"/>
<path fill-rule="evenodd" d="M187.9,192H427.4V176.9H187.9V192Z" class="g0_220"/>
<path fill-rule="evenodd" d="M187.9,207H427.4V192H187.9v15Z" class="g0_220"/>
<path fill-rule="evenodd" d="M187.9,222H427.4V207H187.9v15Z" class="g0_220"/>
<path fill-rule="evenodd" d="M187.9,237.1H427.4V222H187.9v15.1Z" class="g0_220"/>
<path fill-rule="evenodd" d="M187.9,252.1H427.4v-15H187.9v15Z" class="g0_220"/>
<path fill-rule="evenodd" d="M187.9,267.1H427.4v-15H187.9v15Z" class="g0_220"/>
<path fill-rule="evenodd" d="M187.9,282.2H427.4V267.1H187.9v15.1Z" class="g0_220"/>
<path fill-rule="evenodd" d="M187.9,297.2H427.4v-15H187.9v15Z" class="g0_220"/>
<path fill-rule="evenodd" d="M187.9,312.2H427.4v-15H187.9v15Z" class="g0_220"/>
<path fill-rule="evenodd" d="M187.9,327.3H427.4V312.2H187.9v15.1Z" class="g0_220"/>
<path fill-rule="evenodd" d="M187.9,342.5H427.4V327.3H187.9v15.2Z" class="g0_220"/>
<path fill-rule="evenodd" d="M187.9,357.6H427.4V342.5H187.9v15.1Z" class="g0_220"/>
<path fill-rule="evenodd" d="M187.9,372.6H427.4v-15H187.9v15Z" class="g0_220"/>
<path fill-rule="evenodd" d="M187.9,387.6H427.4v-15H187.9v15Z" class="g0_220"/>
<path fill-rule="evenodd" d="M187.6,402.7H427.4V387.6H187.6v15.1Z" class="g0_220"/>
<path fill-rule="evenodd" d="M187.6,417.7H427.4v-15H187.6v15Z" class="g0_220"/>
<path fill-rule="evenodd" d="M187.6,432.7H427.4v-15H187.6v15Z" class="g0_220"/>
<path fill-rule="evenodd" d="M187.2,447.8H427V432.7H187.2v15.1Z" class="g0_220"/>
<path fill-rule="evenodd" d="M187.2,462.8H427v-15H187.2v15Z" class="g0_220"/>
<path fill-rule="evenodd" d="M187.6,477.8H427v-15H187.6v15Z" class="g0_220"/>
<path fill-rule="evenodd" d="M187.6,492.9H427V477.8H187.6v15.1Z" class="g0_220"/>
<path fill-rule="evenodd" d="M187.6,507.9H427v-15H187.6v15Z" class="g0_220"/>
<path fill-rule="evenodd" d="M187.6,523.1H426.7V507.9H187.6v15.2Z" class="g0_220"/>
<path fill-rule="evenodd" d="M187.6,538.2H426.7V523.1H187.6v15.1Z" class="g0_220"/>
<path fill-rule="evenodd" d="M187.2,553.2H427v-15H187.2v15Z" class="g0_220"/>
<path fill-rule="evenodd" d="M187.2,568.2H427v-15H187.2v15Z" class="g0_220"/>
<path fill-rule="evenodd" d="M187.2,583.3H427V568.2H187.2v15.1Z" class="g0_220"/>
<path fill-rule="evenodd" d="M187.2,598.3H427v-15H187.2v15Z" class="g0_220"/>
<path fill-rule="evenodd" d="M187.2,613.4H427V598.3H187.2v15.1Z" class="g0_220"/>
<path fill-rule="evenodd" d="M187.2,628.4H427v-15H187.2v15Z" class="g0_220"/>
<path fill-rule="evenodd" d="M187.2,643.4H427v-15H187.2v15Z" class="g0_220"/>
<path fill-rule="evenodd" d="M187.2,658.5H427V643.4H187.2v15.1Z" class="g0_220"/>
<path fill-rule="evenodd" d="M187.2,673.5H427v-15H187.2v15Z" class="g0_220"/>
<path fill-rule="evenodd" d="M187.6,688.5H426.7v-15H187.6v15Z" class="g0_220"/>
<path fill-rule="evenodd" d="M187.6,703.7H426.7V688.5H187.6v15.2Z" class="g0_220"/>
<path fill-rule="evenodd" d="M187.9,718.8H427V703.7H187.9v15.1Z" class="g0_220"/>
<path fill-rule="evenodd" d="M187.9,733.8H427v-15H187.9v15Z" class="g0_220"/>
<path fill-rule="evenodd" d="M187.6,748.8H426.7v-15H187.6v15Z" class="g0_220"/>
<path fill-rule="evenodd" d="M187.6,763.9H426.7V748.8H187.6v15.1Z" class="g0_220"/>
<path fill-rule="evenodd" d="M187.6,778.9H426.7v-15H187.6v15Z" class="g0_220"/>
<path fill-rule="evenodd" d="M205.5,793.9H427.4v-15H205.5v15Z" class="g0_220"/>
<path fill-rule="evenodd" d="M187.2,809H427V793.9H187.2V809Z" class="g0_220"/>
<path fill-rule="evenodd" d="M187.2,824H427V809H187.2v15Z" class="g0_220"/>
<path fill-rule="evenodd" d="M187.2,839.1H427V824H187.2v15.1Z" class="g0_220"/>
<path fill-rule="evenodd" d="M187.2,854.1H427v-15H187.2v15Z" class="g0_220"/>
<path fill-rule="evenodd" d="M187.6,869.2H426.7V854.1H187.6v15.1Z" class="g0_220"/>
<path fill-rule="evenodd" d="M187.6,884.4H426.7V869.2H187.6v15.2Z" class="g0_220"/>
<path fill-rule="evenodd" d="M188.3,899.4H427v-15H188.3v15Z" class="g0_220"/>
<path fill-rule="evenodd" d="M448.3,161.7H687.8v-15H448.3v15Z" class="g0_220"/>
<path fill-rule="evenodd" d="M448.3,176.9H687.8V161.7H448.3v15.2Z" class="g0_220"/>
<path fill-rule="evenodd" d="M448.7,192H688.2V176.9H448.7V192Z" class="g0_220"/>
<path fill-rule="evenodd" d="M448.7,207H688.2V192H448.7v15Z" class="g0_220"/>
<path fill-rule="evenodd" d="M448,222H688.2V207H448v15Z" class="g0_220"/>
<path fill-rule="evenodd" d="M448,237.1H688.2V222H448v15.1Z" class="g0_220"/>
<path fill-rule="evenodd" d="M448.3,252.1H688.2v-15H448.3v15Z" class="g0_220"/>
<path fill-rule="evenodd" d="M448.3,267.1H688.2v-15H448.3v15Z" class="g0_220"/>
<path fill-rule="evenodd" d="M448.3,282.2H688.2V267.1H448.3v15.1Z" class="g0_220"/>
<path fill-rule="evenodd" d="M448.3,297.2H687.8v-15H448.3v15Z" class="g0_220"/>
<path fill-rule="evenodd" d="M448.3,312.2H687.8v-15H448.3v15Z" class="g0_220"/>
<path fill-rule="evenodd" d="M448.3,327.3H687.8V312.2H448.3v15.1Z" class="g0_220"/>
<path fill-rule="evenodd" d="M448.3,342.5H687.8V327.3H448.3v15.2Z" class="g0_220"/>
<path fill-rule="evenodd" d="M448.3,357.6H687.8V342.5H448.3v15.1Z" class="g0_220"/>
<path fill-rule="evenodd" d="M448.3,372.6H687.8v-15H448.3v15Z" class="g0_220"/>
<path fill-rule="evenodd" d="M448.3,387.6H687.8v-15H448.3v15Z" class="g0_220"/>
<path fill-rule="evenodd" d="M448,402.7H687.8V387.6H448v15.1Z" class="g0_220"/>
<path fill-rule="evenodd" d="M448,417.7H687.8v-15H448v15Z" class="g0_220"/>
<path fill-rule="evenodd" d="M448,432.7H687.8v-15H448v15Z" class="g0_220"/>
<path fill-rule="evenodd" d="M448,447.8H687.5V432.7H448v15.1Z" class="g0_220"/>
<path fill-rule="evenodd" d="M448,462.8H687.5v-15H448v15Z" class="g0_220"/>
<path fill-rule="evenodd" d="M447.6,477.8H687.5v-15H447.6v15Z" class="g0_220"/>
<path fill-rule="evenodd" d="M447.6,492.9H687.5V477.8H447.6v15.1Z" class="g0_220"/>
<path fill-rule="evenodd" d="M447.6,507.9H687.5v-15H447.6v15Z" class="g0_220"/>
<path fill-rule="evenodd" d="M447.6,523.1H687.5V507.9H447.6v15.2Z" class="g0_220"/>
<path fill-rule="evenodd" d="M447.6,538.2H687.5V523.1H447.6v15.1Z" class="g0_220"/>
<path fill-rule="evenodd" d="M447.6,553.2H687.5v-15H447.6v15Z" class="g0_220"/>
<path fill-rule="evenodd" d="M447.6,568.2H687.5v-15H447.6v15Z" class="g0_220"/>
<path fill-rule="evenodd" d="M447.6,583.3H687.5V568.2H447.6v15.1Z" class="g0_220"/>
<path fill-rule="evenodd" d="M447.6,598.3H687.8v-15H447.6v15Z" class="g0_220"/>
<path fill-rule="evenodd" d="M447.6,613.4H687.8V598.3H447.6v15.1Z" class="g0_220"/>
<path fill-rule="evenodd" d="M447.6,628.4H687.8v-15H447.6v15Z" class="g0_220"/>
<path fill-rule="evenodd" d="M447.6,643.4H687.8v-15H447.6v15Z" class="g0_220"/>
<path fill-rule="evenodd" d="M447.6,658.5H687.8V643.4H447.6v15.1Z" class="g0_220"/>
<path fill-rule="evenodd" d="M447.6,673.5H687.8v-15H447.6v15Z" class="g0_220"/>
<path fill-rule="evenodd" d="M447.6,688.5H687.8v-15H447.6v15Z" class="g0_220"/>
<path fill-rule="evenodd" d="M447.6,703.7H687.8V688.5H447.6v15.2Z" class="g0_220"/>
<path fill-rule="evenodd" d="M447.6,718.8H687.8V703.7H447.6v15.1Z" class="g0_220"/>
<path fill-rule="evenodd" d="M447.6,733.8H687.8v-15H447.6v15Z" class="g0_220"/>
<path fill-rule="evenodd" d="M447.6,748.8H687.8v-15H447.6v15Z" class="g0_220"/>
<path fill-rule="evenodd" d="M447.6,763.9H687.8V748.8H447.6v15.1Z" class="g0_220"/>
<path fill-rule="evenodd" d="M447.6,778.9H687.8v-15H447.6v15Z" class="g0_220"/>
<path fill-rule="evenodd" d="M447.2,793.9H687.1v-15H447.2v15Z" class="g0_220"/>
<path fill-rule="evenodd" d="M447.2,809H687.1V793.9H447.2V809Z" class="g0_220"/>
<path fill-rule="evenodd" d="M447.2,824H687.8V809H447.2v15Z" class="g0_220"/>
<path fill-rule="evenodd" d="M447.2,839.1H687.8V824H447.2v15.1Z" class="g0_220"/>
<path fill-rule="evenodd" d="M447.2,854.1H687.8v-15H447.2v15Z" class="g0_220"/>
<path fill-rule="evenodd" d="M447.2,869.2H687.8V854.1H447.2v15.1Z" class="g0_220"/>
<path fill-rule="evenodd" d="M465.6,884.4H688.2V869.2H465.6v15.2Z" class="g0_220"/>
<path fill-rule="evenodd" d="M423.4,916.8H688.6V899.4H423.4v17.4Z" class="g0_220"/>
<path d="M436.5,146.7V914.5" class="g1_220"/>
</svg>