<?xml version="1.0" encoding="UTF-8" standalone="no"?>
<!DOCTYPE svg PUBLIC "-//W3C//DTD SVG 1.1//EN"
"http://www.w3.org/Graphics/SVG/1.1/DTD/svg11.dtd">
<svg viewBox="0 0 909 1285" version="1.1" xmlns="http://www.w3.org/2000/svg" xmlns:xlink="http://www.w3.org/1999/xlink">
<defs>
<style type="text/css"><![CDATA[
.g0_44{
fill: #FFFFFF;
}
.g1_44{
fill: none;
stroke: #000000;
stroke-width: 0.381;
stroke-linecap: butt;
stroke-linejoin: round;
}
]]></style>
</defs>
<path fill-rule="evenodd" d="M640.4,125.8h59.4V110H640.4v15.8Z" class="g0_44"/>
<path fill-rule="evenodd" d="M199.1,161.7H436.4v-15H199.1v15Z" class="g0_44"/>
<path fill-rule="evenodd" d="M199.1,176.9H436.4V161.7H199.1v15.2Z" class="g0_44"/>
<path fill-rule="evenodd" d="M199.1,192H436.4V176.9H199.1V192Z" class="g0_44"/>
<path fill-rule="evenodd" d="M216.7,207H436.8V192H216.7v15Z" class="g0_44"/>
<path fill-rule="evenodd" d="M198.8,222h238V207h-238v15Z" class="g0_44"/>
<path fill-rule="evenodd" d="M198.8,237.1h238V222h-238v15.1Z" class="g0_44"/>
<path fill-rule="evenodd" d="M198.8,252.1H436v-15H198.8v15Z" class="g0_44"/>
<path fill-rule="evenodd" d="M198.8,267.1H436v-15H198.8v15Z" class="g0_44"/>
<path fill-rule="evenodd" d="M198.8,282.2H436V267.1H198.8v15.1Z" class="g0_44"/>
<path fill-rule="evenodd" d="M197.7,297.2H436.4v-15H197.7v15Z" class="g0_44"/>
<path fill-rule="evenodd" d="M197.7,312.2H436.4v-15H197.7v15Z" class="g0_44"/>
<path fill-rule="evenodd" d="M197.7,327.3H436.4V312.2H197.7v15.1Z" class="g0_44"/>
<path fill-rule="evenodd" d="M197.7,342.5H436.4V327.3H197.7v15.2Z" class="g0_44"/>
<path fill-rule="evenodd" d="M197.7,357.6H436.4V342.5H197.7v15.1Z" class="g0_44"/>
<path fill-rule="evenodd" d="M197.7,372.6H436.4v-15H197.7v15Z" class="g0_44"/>
<path fill-rule="evenodd" d="M197.7,387.6H436.4v-15H197.7v15Z" class="g0_44"/>
<path fill-rule="evenodd" d="M216,402.7H436.8V387.6H216v15.1Z" class="g0_44"/>
<path fill-rule="evenodd" d="M197.7,417.7H436v-15H197.7v15Z" class="g0_44"/>
<path fill-rule="evenodd" d="M197.7,432.7H436v-15H197.7v15Z" class="g0_44"/>
<path fill-rule="evenodd" d="M197.7,447.8H436V432.7H197.7v15.1Z" class="g0_44"/>
<path fill-rule="evenodd" d="M197.3,462.8H435.7v-15H197.3v15Z" class="g0_44"/>
<path fill-rule="evenodd" d="M197.3,477.8H435.7v-15H197.3v15Z" class="g0_44"/>
<path fill-rule="evenodd" d="M197.3,492.9H435.7V477.8H197.3v15.1Z" class="g0_44"/>
<path fill-rule="evenodd" d="M197.3,508.5H436V493.2H197.3v15.3Z" class="g0_44"/>
<path fill-rule="evenodd" d="M197.3,523.5H436v-15H197.3v15Z" class="g0_44"/>
<path fill-rule="evenodd" d="M196.9,538.5H436v-15H196.9v15Z" class="g0_44"/>
<path fill-rule="evenodd" d="M196.9,553.6H436V538.5H196.9v15.1Z" class="g0_44"/>
<path fill-rule="evenodd" d="M196.6,568.6H435.3v-15H196.6v15Z" class="g0_44"/>
<path fill-rule="evenodd" d="M196.6,583.6H435.3v-15H196.6v15Z" class="g0_44"/>
<path fill-rule="evenodd" d="M196.6,598.7H435.3V583.6H196.6v15.1Z" class="g0_44"/>
<path fill-rule="evenodd" d="M196.6,613.7H435.3v-15H196.6v15Z" class="g0_44"/>
<path fill-rule="evenodd" d="M214.9,629.1H436.8v-15H214.9v15Z" class="g0_44"/>
<path fill-rule="evenodd" d="M196.6,644.2H434.9V629.1H196.6v15.1Z" class="g0_44"/>
<path fill-rule="evenodd" d="M196.6,659.2H434.9v-15H196.6v15Z" class="g0_44"/>
<path fill-rule="evenodd" d="M196.6,674.4H434.9V659.2H196.6v15.2Z" class="g0_44"/>
<path fill-rule="evenodd" d="M196.6,689.4H434.9v-15H196.6v15Z" class="g0_44"/>
<path fill-rule="evenodd" d="M196.2,704.5H435.3V689.4H196.2v15.1Z" class="g0_44"/>
<path fill-rule="evenodd" d="M196.2,719.5H435.3v-15H196.2v15Z" class="g0_44"/>
<path fill-rule="evenodd" d="M196.2,734.5H435.3v-15H196.2v15Z" class="g0_44"/>
<path fill-rule="evenodd" d="M196.2,749.6H435.3V734.5H196.2v15.1Z" class="g0_44"/>
<path fill-rule="evenodd" d="M196.2,764.6H434.6v-15H196.2v15Z" class="g0_44"/>
<path fill-rule="evenodd" d="M196.2,779.6H434.6v-15H196.2v15Z" class="g0_44"/>
<path fill-rule="evenodd" d="M196.2,794.7H434.6V779.6H196.2v15.1Z" class="g0_44"/>
<path fill-rule="evenodd" d="M196.2,809.7H434.6v-15H196.2v15Z" class="g0_44"/>
<path fill-rule="evenodd" d="M196.2,824.7H434.6v-15H196.2v15Z" class="g0_44"/>
<path fill-rule="evenodd" d="M196.2,839.8H434.6V824.7H196.2v15.1Z" class="g0_44"/>
<path fill-rule="evenodd" d="M195.5,855H434.9V839.8H195.5V855Z" class="g0_44"/>
<path fill-rule="evenodd" d="M195.5,870.1H434.9V855H195.5v15.1Z" class="g0_44"/>
<path fill-rule="evenodd" d="M195.5,885.1H434.9v-15H195.5v15Z" class="g0_44"/>
<path fill-rule="evenodd" d="M195.5,900.1H434.9v-15H195.5v15Z" class="g0_44"/>
<path fill-rule="evenodd" d="M197.7,915.2H436V900.1H197.7v15.1Z" class="g0_44"/>
<path fill-rule="evenodd" d="M457.3,161.7H695.7v-15H457.3v15Z" class="g0_44"/>
<path fill-rule="evenodd" d="M457.3,176.9H695.7V161.7H457.3v15.2Z" class="g0_44"/>
<path fill-rule="evenodd" d="M474.9,192H696.4V176.9H474.9V192Z" class="g0_44"/>
<path fill-rule="evenodd" d="M457.3,207.4H695.7V192.3H457.3v15.1Z" class="g0_44"/>
<path fill-rule="evenodd" d="M457.3,222.4H695.7v-15H457.3v15Z" class="g0_44"/>
<path fill-rule="evenodd" d="M457.3,237.4H695.7v-15H457.3v15Z" class="g0_44"/>
<path fill-rule="evenodd" d="M457.3,252.5H695.7V237.4H457.3v15.1Z" class="g0_44"/>
<path fill-rule="evenodd" d="M457,267.5H696.4v-15H457v15Z" class="g0_44"/>
<path fill-rule="evenodd" d="M457,282.5H696.4v-15H457v15Z" class="g0_44"/>
<path fill-rule="evenodd" d="M457,297.6H695.7V282.5H457v15.1Z" class="g0_44"/>
<path fill-rule="evenodd" d="M457,312.6H695.7v-15H457v15Z" class="g0_44"/>
<path fill-rule="evenodd" d="M457,327.8H696.1V312.6H457v15.2Z" class="g0_44"/>
<path fill-rule="evenodd" d="M457,342.9H696.1V327.8H457v15.1Z" class="g0_44"/>
<path fill-rule="evenodd" d="M457,357.9H696.1v-15H457v15Z" class="g0_44"/>
<path fill-rule="evenodd" d="M474.9,373H696.4V357.9H474.9V373Z" class="g0_44"/>
<path fill-rule="evenodd" d="M474.9,388H696.4V373H474.9v15Z" class="g0_44"/>
<path fill-rule="evenodd" d="M474.9,403H696.4V388H474.9v15Z" class="g0_44"/>
<path fill-rule="evenodd" d="M474.9,418.1H696.4V403H474.9v15.1Z" class="g0_44"/>
<path fill-rule="evenodd" d="M474.6,433.1H696.4v-15H474.6v15Z" class="g0_44"/>
<path fill-rule="evenodd" d="M474.6,448.1H696.4v-15H474.6v15Z" class="g0_44"/>
<path fill-rule="evenodd" d="M456.6,463.2H695V448.1H456.6v15.1Z" class="g0_44"/>
<path fill-rule="evenodd" d="M456.6,478.2H695v-15H456.6v15Z" class="g0_44"/>
<path fill-rule="evenodd" d="M474.6,493.2H696.4v-15H474.6v15Z" class="g0_44"/>
<path fill-rule="evenodd" d="M456.6,508.8h238V493.6h-238v15.2Z" class="g0_44"/>
<path fill-rule="evenodd" d="M456.6,523.9h238V508.8h-238v15.1Z" class="g0_44"/>
<path fill-rule="evenodd" d="M456.2,538.9H695v-15H456.2v15Z" class="g0_44"/>
<path fill-rule="evenodd" d="M456.2,553.9H695v-15H456.2v15Z" class="g0_44"/>
<path fill-rule="evenodd" d="M456.2,569H695V553.9H456.2V569Z" class="g0_44"/>
<path fill-rule="evenodd" d="M456.2,584H695V569H456.2v15Z" class="g0_44"/>
<path fill-rule="evenodd" d="M474.2,599.1H696.4V584H474.2v15.1Z" class="g0_44"/>
<path fill-rule="evenodd" d="M456.2,614.1H695v-15H456.2v15Z" class="g0_44"/>
<path fill-rule="evenodd" d="M456.2,629.1H695v-15H456.2v15Z" class="g0_44"/>
<path fill-rule="evenodd" d="M455.5,644.2H695V629.1H455.5v15.1Z" class="g0_44"/>
<path fill-rule="evenodd" d="M455.5,659.2H695v-15H455.5v15Z" class="g0_44"/>
<path fill-rule="evenodd" d="M455.5,674.4H695V659.2H455.5v15.2Z" class="g0_44"/>
<path fill-rule="evenodd" d="M455.5,689.4H695v-15H455.5v15Z" class="g0_44"/>
<path fill-rule="evenodd" d="M455.5,704.5H694.2V689.4H455.5v15.1Z" class="g0_44"/>
<path fill-rule="evenodd" d="M455.5,719.5H694.2v-15H455.5v15Z" class="g0_44"/>
<path fill-rule="evenodd" d="M455.5,734.5H694.2v-15H455.5v15Z" class="g0_44"/>
<path fill-rule="evenodd" d="M455.5,749.6H694.6V734.5H455.5v15.1Z" class="g0_44"/>
<path fill-rule="evenodd" d="M455.5,764.6H694.6v-15H455.5v15Z" class="g0_44"/>
<path fill-rule="evenodd" d="M455.5,779.6H694.6v-15H455.5v15Z" class="g0_44"/>
<path fill-rule="evenodd" d="M455.5,794.7H694.6V779.6H455.5v15.1Z" class="g0_44"/>
<path fill-rule="evenodd" d="M455.5,809.7H694.6v-15H455.5v15Z" class="g0_44"/>
<path fill-rule="evenodd" d="M455.5,824.7H694.6v-15H455.5v15Z" class="g0_44"/>
<path fill-rule="evenodd" d="M455.5,839.8H694.6V824.7H455.5v15.1Z" class="g0_44"/>
<path fill-rule="evenodd" d="M455.5,855H694.6V839.8H455.5V855Z" class="g0_44"/>
<path fill-rule="evenodd" d="M455.1,870.1H694.2V855H455.1v15.1Z" class="g0_44"/>
<path fill-rule="evenodd" d="M455.1,885.1H694.2v-15H455.1v15Z" class="g0_44"/>
<path fill-rule="evenodd" d="M455.1,900.1H694.2v-15H455.1v15Z" class="g0_44"/>
<path d="M444.4,146.4V914.9" class="g1_44"/>
</svg>