<?xml version="1.0" encoding="UTF-8" standalone="no"?>
<!DOCTYPE svg PUBLIC "-//W3C//DTD SVG 1.1//EN"
"http://www.w3.org/Graphics/SVG/1.1/DTD/svg11.dtd">
<svg viewBox="0 0 909 1285" version="1.1" xmlns="http://www.w3.org/2000/svg" xmlns:xlink="http://www.w3.org/1999/xlink">
<defs>
<style type="text/css"><![CDATA[
.g0_90{
fill: #FFFFFF;
}
]]></style>
</defs>
<path fill-rule="evenodd" d="M592.8,125.8h94.7V110H592.8v15.8Z" class="g0_90"/>
<path fill-rule="evenodd" d="M186.5,161.4H426.3V147.1H186.5v14.3Z" class="g0_90"/>
<path fill-rule="evenodd" d="M186.5,175.7H426.3V161.4H186.5v14.3Z" class="g0_90"/>
<path fill-rule="evenodd" d="M186.1,190H426.3V175.7H186.1V190Z" class="g0_90"/>
<path fill-rule="evenodd" d="M186.1,204.3H426.3V190H186.1v14.3Z" class="g0_90"/>
<path fill-rule="evenodd" d="M186.1,218.6H426.3V204.3H186.1v14.3Z" class="g0_90"/>
<path fill-rule="evenodd" d="M186.1,232.9H426.3V218.6H186.1v14.3Z" class="g0_90"/>
<path fill-rule="evenodd" d="M204.8,247.2H444.6V232.9H204.8v14.3Z" class="g0_90"/>
<path fill-rule="evenodd" d="M186.5,261.5H425.9V247.2H186.5v14.3Z" class="g0_90"/>
<path fill-rule="evenodd" d="M186.5,275.8H425.9V261.5H186.5v14.3Z" class="g0_90"/>
<path fill-rule="evenodd" d="M186.8,290.1H425.9V275.8H186.8v14.3Z" class="g0_90"/>
<path fill-rule="evenodd" d="M186.8,304.4H425.9V290.1H186.8v14.3Z" class="g0_90"/>
<path fill-rule="evenodd" d="M186.8,318.7H425.9V304.4H186.8v14.3Z" class="g0_90"/>
<path fill-rule="evenodd" d="M186.8,332.8H425.9V318.7H186.8v14.1Z" class="g0_90"/>
<path fill-rule="evenodd" d="M186.5,347.1H425.9V332.8H186.5v14.3Z" class="g0_90"/>
<path fill-rule="evenodd" d="M186.5,361.4H425.9V347.1H186.5v14.3Z" class="g0_90"/>
<path fill-rule="evenodd" d="M186.5,375.7H425.9V361.4H186.5v14.3Z" class="g0_90"/>
<path fill-rule="evenodd" d="M186.5,390H425.6V375.7H186.5V390Z" class="g0_90"/>
<path fill-rule="evenodd" d="M186.5,404.3H425.6V390H186.5v14.3Z" class="g0_90"/>
<path fill-rule="evenodd" d="M186.1,418.6H425.6V404.3H186.1v14.3Z" class="g0_90"/>
<path fill-rule="evenodd" d="M186.1,432.9H425.6V418.6H186.1v14.3Z" class="g0_90"/>
<path fill-rule="evenodd" d="M186.5,447.6H425.2V433.3H186.5v14.3Z" class="g0_90"/>
<path fill-rule="evenodd" d="M186.5,461.9H425.2V447.6H186.5v14.3Z" class="g0_90"/>
<path fill-rule="evenodd" d="M186.1,476.2H425.6V461.9H186.1v14.3Z" class="g0_90"/>
<path fill-rule="evenodd" d="M186.1,490.5H425.6V476.2H186.1v14.3Z" class="g0_90"/>
<path fill-rule="evenodd" d="M186.1,504.8H425.6V490.5H186.1v14.3Z" class="g0_90"/>
<path fill-rule="evenodd" d="M186.5,518.9H424.8V504.8H186.5v14.1Z" class="g0_90"/>
<path fill-rule="evenodd" d="M186.5,533.2H424.8V518.9H186.5v14.3Z" class="g0_90"/>
<path fill-rule="evenodd" d="M186.5,547.5H425.2V533.2H186.5v14.3Z" class="g0_90"/>
<path fill-rule="evenodd" d="M186.5,561.8H425.2V547.5H186.5v14.3Z" class="g0_90"/>
<path fill-rule="evenodd" d="M186.5,576.1H425.2V561.8H186.5v14.3Z" class="g0_90"/>
<path fill-rule="evenodd" d="M186.5,590.4H425.2V576.1H186.5v14.3Z" class="g0_90"/>
<path fill-rule="evenodd" d="M186.5,604.7H425.2V590.4H186.5v14.3Z" class="g0_90"/>
<path fill-rule="evenodd" d="M186.5,619H425.2V604.7H186.5V619Z" class="g0_90"/>
<path fill-rule="evenodd" d="M204.4,633.3H444.6V619H204.4v14.3Z" class="g0_90"/>
<path fill-rule="evenodd" d="M204.4,647.6H444.6V633.3H204.4v14.3Z" class="g0_90"/>
<path fill-rule="evenodd" d="M204.4,661.9H444.6V647.6H204.4v14.3Z" class="g0_90"/>
<path fill-rule="evenodd" d="M185.4,676.2H425.2V661.9H185.4v14.3Z" class="g0_90"/>
<path fill-rule="evenodd" d="M185.4,690.4H425.2V676.2H185.4v14.2Z" class="g0_90"/>
<path fill-rule="evenodd" d="M185.4,704.7H425.2V690.4H185.4v14.3Z" class="g0_90"/>
<path fill-rule="evenodd" d="M185.4,719H425.2V704.7H185.4V719Z" class="g0_90"/>
<path fill-rule="evenodd" d="M185.7,733.3H425.2V719H185.7v14.3Z" class="g0_90"/>
<path fill-rule="evenodd" d="M185.7,747.6H425.2V733.3H185.7v14.3Z" class="g0_90"/>
<path fill-rule="evenodd" d="M185.7,761.9H425.2V747.6H185.7v14.3Z" class="g0_90"/>
<path fill-rule="evenodd" d="M185.7,776.2H425.6V761.9H185.7v14.3Z" class="g0_90"/>
<path fill-rule="evenodd" d="M185.7,790.5H425.6V776.2H185.7v14.3Z" class="g0_90"/>
<path fill-rule="evenodd" d="M185.7,804.8H425.6V790.5H185.7v14.3Z" class="g0_90"/>
<path fill-rule="evenodd" d="M185.7,819.1H425.2V804.8H185.7v14.3Z" class="g0_90"/>
<path fill-rule="evenodd" d="M185.7,833.4H425.2V819.1H185.7v14.3Z" class="g0_90"/>
<path fill-rule="evenodd" d="M185.4,847.7H425.2V833.4H185.4v14.3Z" class="g0_90"/>
<path fill-rule="evenodd" d="M185.4,861.8H425.2V847.7H185.4v14.1Z" class="g0_90"/>
<path fill-rule="evenodd" d="M185.7,876.1H425.2V861.8H185.7v14.3Z" class="g0_90"/>
<path fill-rule="evenodd" d="M185.7,890.4H425.2V876.1H185.7v14.3Z" class="g0_90"/>
<path fill-rule="evenodd" d="M185.4,923.4H444.6V905.8H185.4v17.6Z" class="g0_90"/>
<path fill-rule="evenodd" d="M186.1,938.1H444.6V923.4H186.1v14.7Z" class="g0_90"/>
<path fill-rule="evenodd" d="M446.5,161.4h241V146.7h-241v14.7Z" class="g0_90"/>
<path fill-rule="evenodd" d="M446.5,176h241V161.4h-241V176Z" class="g0_90"/>
<path fill-rule="evenodd" d="M446.5,190.7h241V176h-241v14.7Z" class="g0_90"/>
<path fill-rule="evenodd" d="M446.5,205.4h241V190.7h-241v14.7Z" class="g0_90"/>
<path fill-rule="evenodd" d="M446.5,220h241V205.4h-241V220Z" class="g0_90"/>
<path fill-rule="evenodd" d="M446.5,234.7h241V220h-241v14.7Z" class="g0_90"/>
<path fill-rule="evenodd" d="M446.5,249.4h241V234.7h-241v14.7Z" class="g0_90"/>
<path fill-rule="evenodd" d="M446.5,264h241V249.4h-241V264Z" class="g0_90"/>
<path fill-rule="evenodd" d="M446.5,278.7h241V264h-241v14.7Z" class="g0_90"/>
<path fill-rule="evenodd" d="M446.5,293.4h241V278.7h-241v14.7Z" class="g0_90"/>
<path fill-rule="evenodd" d="M446.5,308h241V293.4h-241V308Z" class="g0_90"/>
<path fill-rule="evenodd" d="M446.5,322.7h241V308h-241v14.7Z" class="g0_90"/>
<path fill-rule="evenodd" d="M446.5,337.4h241V322.7h-241v14.7Z" class="g0_90"/>
<path fill-rule="evenodd" d="M447.2,352.6H686.7V337.7H447.2v14.9Z" class="g0_90"/>
<path fill-rule="evenodd" d="M447.2,367.3H686.7V352.6H447.2v14.7Z" class="g0_90"/>
<path fill-rule="evenodd" d="M465.2,382H687.5V367.3H465.2V382Z" class="g0_90"/>
<path fill-rule="evenodd" d="M446.5,397H686.7V382.3H446.5V397Z" class="g0_90"/>
<path fill-rule="evenodd" d="M446.5,411.7H686.7V397H446.5v14.7Z" class="g0_90"/>
<path fill-rule="evenodd" d="M465.2,426.3H687.5V411.7H465.2v14.6Z" class="g0_90"/>
<path fill-rule="evenodd" d="M446.1,441H687.5V426.3H446.1V441Z" class="g0_90"/>
<path fill-rule="evenodd" d="M446.1,455.7H687.5V441H446.1v14.7Z" class="g0_90"/>
<path fill-rule="evenodd" d="M446.1,470.3H687.5V455.7H446.1v14.6Z" class="g0_90"/>
<path fill-rule="evenodd" d="M446.1,485H687.5V470.3H446.1V485Z" class="g0_90"/>
<path fill-rule="evenodd" d="M446.1,500H686.7V485.4H446.1V500Z" class="g0_90"/>
<path fill-rule="evenodd" d="M446.1,514.7H686.7V500H446.1v14.7Z" class="g0_90"/>
<path fill-rule="evenodd" d="M446.1,529.4H686.7V514.7H446.1v14.7Z" class="g0_90"/>
<path fill-rule="evenodd" d="M446.5,544H686.7V529.4H446.5V544Z" class="g0_90"/>
<path fill-rule="evenodd" d="M446.5,558.7H686.7V544H446.5v14.7Z" class="g0_90"/>
<path fill-rule="evenodd" d="M446.5,573.4H686V558.7H446.5v14.7Z" class="g0_90"/>
<path fill-rule="evenodd" d="M446.5,588H686V573.4H446.5V588Z" class="g0_90"/>
<path fill-rule="evenodd" d="M464.5,602.7h223V588h-223v14.7Z" class="g0_90"/>
<path fill-rule="evenodd" d="M446.1,617.8H686.4V603.1H446.1v14.7Z" class="g0_90"/>
<path fill-rule="evenodd" d="M446.1,632.4H686.4V617.8H446.1v14.6Z" class="g0_90"/>
<path fill-rule="evenodd" d="M464.9,647.1H687.5V632.4H464.9v14.7Z" class="g0_90"/>
<path fill-rule="evenodd" d="M464.9,661.8H687.5V647.1H464.9v14.7Z" class="g0_90"/>
<path fill-rule="evenodd" d="M446.1,676.8H686.4V662.1H446.1v14.7Z" class="g0_90"/>
<path fill-rule="evenodd" d="M446.1,691.5H686.4V676.8H446.1v14.7Z" class="g0_90"/>
<path fill-rule="evenodd" d="M446.1,706.1H686.4V691.5H446.1v14.6Z" class="g0_90"/>
<path fill-rule="evenodd" d="M446.1,721.5H686.7V706.9H446.1v14.6Z" class="g0_90"/>
<path fill-rule="evenodd" d="M446.1,736.2H686.7V721.5H446.1v14.7Z" class="g0_90"/>
<path fill-rule="evenodd" d="M446.1,750.9H686.7V736.2H446.1v14.7Z" class="g0_90"/>
<path fill-rule="evenodd" d="M446.1,765.5H686.7V750.9H446.1v14.6Z" class="g0_90"/>
<path fill-rule="evenodd" d="M446.5,780.9H686.4V766.3H446.5v14.6Z" class="g0_90"/>
<path fill-rule="evenodd" d="M446.5,795.6H686.4V780.9H446.5v14.7Z" class="g0_90"/>
<path fill-rule="evenodd" d="M446.5,810.6H686.4v-15H446.5v15Z" class="g0_90"/>
<path fill-rule="evenodd" d="M446.5,825.3H686.4V810.6H446.5v14.7Z" class="g0_90"/>
<path fill-rule="evenodd" d="M446.5,840H686.4V825.3H446.5V840Z" class="g0_90"/>
<path fill-rule="evenodd" d="M446.1,855H686V840.4H446.1V855Z" class="g0_90"/>
<path fill-rule="evenodd" d="M446.1,869.7H686V855H446.1v14.7Z" class="g0_90"/>
<path fill-rule="evenodd" d="M445.8,885.3H686.4V870.4H445.8v14.9Z" class="g0_90"/>
<path fill-rule="evenodd" d="M445.8,900H686.4V885.3H445.8V900Z" class="g0_90"/>
</svg>