<?xml version="1.0" encoding="UTF-8" standalone="no"?>
<!DOCTYPE svg PUBLIC "-//W3C//DTD SVG 1.1//EN"
"http://www.w3.org/Graphics/SVG/1.1/DTD/svg11.dtd">
<svg viewBox="0 0 909 1285" version="1.1" xmlns="http://www.w3.org/2000/svg" xmlns:xlink="http://www.w3.org/1999/xlink">
<defs>
<style type="text/css"><![CDATA[
.g0_331{
fill: #FFFFFF;
}
.g1_331{
fill: none;
stroke: #000000;
stroke-width: 0.763;
stroke-linecap: butt;
stroke-linejoin: round;
}
.g2_331{
fill: none;
stroke: #000000;
stroke-width: 0.381;
stroke-linecap: butt;
stroke-linejoin: round;
}
]]></style>
</defs>
<path fill-rule="evenodd" d="M284.2,125.8H783.4V110H284.2v15.8Z" class="g0_331"/>
<path fill-rule="evenodd" d="M284.6,161.7H523v-15H284.6v15Z" class="g0_331"/>
<path fill-rule="evenodd" d="M284.6,176.9H523V161.7H284.6v15.2Z" class="g0_331"/>
<path fill-rule="evenodd" d="M284.6,192H523V176.9H284.6V192Z" class="g0_331"/>
<path fill-rule="evenodd" d="M284.6,207H523.7V192H284.6v15Z" class="g0_331"/>
<path fill-rule="evenodd" d="M284.6,222H523.7V207H284.6v15Z" class="g0_331"/>
<path fill-rule="evenodd" d="M284.6,237.1H523.7V222H284.6v15.1Z" class="g0_331"/>
<path fill-rule="evenodd" d="M284.2,252.1H523.7v-15H284.2v15Z" class="g0_331"/>
<path fill-rule="evenodd" d="M284.2,267.1H523.7v-15H284.2v15Z" class="g0_331"/>
<path fill-rule="evenodd" d="M284.2,282.2H523.7V267.1H284.2v15.1Z" class="g0_331"/>
<path fill-rule="evenodd" d="M283.9,297.2H523.3v-15H283.9v15Z" class="g0_331"/>
<path fill-rule="evenodd" d="M283.9,312.2H523.3v-15H283.9v15Z" class="g0_331"/>
<path fill-rule="evenodd" d="M283.9,327.3H523.3V312.2H283.9v15.1Z" class="g0_331"/>
<path fill-rule="evenodd" d="M284.2,342.5H523.3V327.3H284.2v15.2Z" class="g0_331"/>
<path fill-rule="evenodd" d="M284.2,357.6H523.3V342.5H284.2v15.1Z" class="g0_331"/>
<path fill-rule="evenodd" d="M284.2,372.6H523.3v-15H284.2v15Z" class="g0_331"/>
<path fill-rule="evenodd" d="M302.2,387.6H523.7v-15H302.2v15Z" class="g0_331"/>
<path fill-rule="evenodd" d="M302.2,402.7H523.7V387.6H302.2v15.1Z" class="g0_331"/>
<path fill-rule="evenodd" d="M283.9,417.7H523v-15H283.9v15Z" class="g0_331"/>
<path fill-rule="evenodd" d="M283.9,432.7H523v-15H283.9v15Z" class="g0_331"/>
<path fill-rule="evenodd" d="M283.9,447.8H523V432.7H283.9v15.1Z" class="g0_331"/>
<path fill-rule="evenodd" d="M283.9,462.8H523v-15H283.9v15Z" class="g0_331"/>
<path fill-rule="evenodd" d="M283.9,477.8H523v-15H283.9v15Z" class="g0_331"/>
<path fill-rule="evenodd" d="M283.9,492.9H523V477.8H283.9v15.1Z" class="g0_331"/>
<path fill-rule="evenodd" d="M283.1,507.9H523v-15H283.1v15Z" class="g0_331"/>
<path fill-rule="evenodd" d="M283.1,523.1H523V507.9H283.1v15.2Z" class="g0_331"/>
<path fill-rule="evenodd" d="M283.1,538.2H523V523.1H283.1v15.1Z" class="g0_331"/>
<path fill-rule="evenodd" d="M283.1,553.2H523v-15H283.1v15Z" class="g0_331"/>
<path fill-rule="evenodd" d="M283.1,568.2H523v-15H283.1v15Z" class="g0_331"/>
<path fill-rule="evenodd" d="M283.1,583.3H523V568.2H283.1v15.1Z" class="g0_331"/>
<path fill-rule="evenodd" d="M283.1,598.3H522.6v-15H283.1v15Z" class="g0_331"/>
<path fill-rule="evenodd" d="M283.1,613.4H522.6V598.3H283.1v15.1Z" class="g0_331"/>
<path fill-rule="evenodd" d="M283.1,628.4H522.6v-15H283.1v15Z" class="g0_331"/>
<path fill-rule="evenodd" d="M283.1,643.4H522.2v-15H283.1v15Z" class="g0_331"/>
<path fill-rule="evenodd" d="M283.1,658.5H522.2V643.4H283.1v15.1Z" class="g0_331"/>
<path fill-rule="evenodd" d="M283.1,673.5H522.2v-15H283.1v15Z" class="g0_331"/>
<path fill-rule="evenodd" d="M283.1,688.5H522.2v-15H283.1v15Z" class="g0_331"/>
<path fill-rule="evenodd" d="M282.8,703.7H522.2V688.5H282.8v15.2Z" class="g0_331"/>
<path fill-rule="evenodd" d="M282.8,718.8H522.2V703.7H282.8v15.1Z" class="g0_331"/>
<path fill-rule="evenodd" d="M282.8,733.8H521.9v-15H282.8v15Z" class="g0_331"/>
<path fill-rule="evenodd" d="M282.8,748.8H521.9v-15H282.8v15Z" class="g0_331"/>
<path fill-rule="evenodd" d="M301.5,763.9H523.7V748.8H301.5v15.1Z" class="g0_331"/>
<path fill-rule="evenodd" d="M283.1,778.9H521.9v-15H283.1v15Z" class="g0_331"/>
<path fill-rule="evenodd" d="M283.1,793.9H521.9v-15H283.1v15Z" class="g0_331"/>
<path fill-rule="evenodd" d="M301.1,809H523.7V793.9H301.1V809Z" class="g0_331"/>
<path fill-rule="evenodd" d="M301.1,824H523.7V809H301.1v15Z" class="g0_331"/>
<path fill-rule="evenodd" d="M301.5,839.1H523.7V824H301.5v15.1Z" class="g0_331"/>
<path fill-rule="evenodd" d="M301.5,854.5H523.7V839.1H301.5v15.4Z" class="g0_331"/>
<path fill-rule="evenodd" d="M301.1,869.7H523.7V854.5H301.1v15.2Z" class="g0_331"/>
<path fill-rule="evenodd" d="M302.6,884.7H523.7v-15H302.6v15Z" class="g0_331"/>
<path fill-rule="evenodd" d="M562.2,161.7H783.3v-15H562.2v15Z" class="g0_331"/>
<path fill-rule="evenodd" d="M562.2,176.9H783.3V161.7H562.2v15.2Z" class="g0_331"/>
<path fill-rule="evenodd" d="M562.6,192.3H783.3v-15H562.6v15Z" class="g0_331"/>
<path fill-rule="evenodd" d="M562.2,207.4H783.3V192.3H562.2v15.1Z" class="g0_331"/>
<path fill-rule="evenodd" d="M562.2,222.4H783.3v-15H562.2v15Z" class="g0_331"/>
<path fill-rule="evenodd" d="M544.2,237.4H783.3v-15H544.2v15Z" class="g0_331"/>
<path fill-rule="evenodd" d="M544.2,252.5H783.3V237.4H544.2v15.1Z" class="g0_331"/>
<path fill-rule="evenodd" d="M543.9,267.5H783.3v-15H543.9v15Z" class="g0_331"/>
<path fill-rule="evenodd" d="M543.9,282.5H783.3v-15H543.9v15Z" class="g0_331"/>
<path fill-rule="evenodd" d="M543.9,297.6H783.3V282.5H543.9v15.1Z" class="g0_331"/>
<path fill-rule="evenodd" d="M543.9,312.6H783.3v-15H543.9v15Z" class="g0_331"/>
<path fill-rule="evenodd" d="M543.9,327.8H783.3V312.6H543.9v15.2Z" class="g0_331"/>
<path fill-rule="evenodd" d="M543.9,342.9H782.6V327.8H543.9v15.1Z" class="g0_331"/>
<path fill-rule="evenodd" d="M543.9,357.9H782.6v-15H543.9v15Z" class="g0_331"/>
<path fill-rule="evenodd" d="M543.9,373H783V357.9H543.9V373Z" class="g0_331"/>
<path fill-rule="evenodd" d="M543.9,388H783V373H543.9v15Z" class="g0_331"/>
<path fill-rule="evenodd" d="M543.9,403H783V388H543.9v15Z" class="g0_331"/>
<path fill-rule="evenodd" d="M543.9,418.1H783V403H543.9v15.1Z" class="g0_331"/>
<path fill-rule="evenodd" d="M543.5,433.1H782.6v-15H543.5v15Z" class="g0_331"/>
<path fill-rule="evenodd" d="M543.5,448.1H782.6v-15H543.5v15Z" class="g0_331"/>
<path fill-rule="evenodd" d="M543.9,463.5H782.2v-15H543.9v15Z" class="g0_331"/>
<path fill-rule="evenodd" d="M543.9,478.6H782.2V463.5H543.9v15.1Z" class="g0_331"/>
<path fill-rule="evenodd" d="M543.1,493.8H782.2V478.6H543.1v15.2Z" class="g0_331"/>
<path fill-rule="evenodd" d="M543.1,508.8H782.2v-15H543.1v15Z" class="g0_331"/>
<path fill-rule="evenodd" d="M543.1,523.9H783V508.8H543.1v15.1Z" class="g0_331"/>
<path fill-rule="evenodd" d="M543.1,538.9H783v-15H543.1v15Z" class="g0_331"/>
<path fill-rule="evenodd" d="M543.1,553.9H783v-15H543.1v15Z" class="g0_331"/>
<path fill-rule="evenodd" d="M543.1,569H783V553.9H543.1V569Z" class="g0_331"/>
<path fill-rule="evenodd" d="M543.1,584H783V569H543.1v15Z" class="g0_331"/>
<path fill-rule="evenodd" d="M543.1,599.1H783V584H543.1v15.1Z" class="g0_331"/>
<path fill-rule="evenodd" d="M543.1,614.1H781.9v-15H543.1v15Z" class="g0_331"/>
<path fill-rule="evenodd" d="M543.1,629.1H781.9v-15H543.1v15Z" class="g0_331"/>
<path fill-rule="evenodd" d="M543.1,644.2H781.9V629.1H543.1v15.1Z" class="g0_331"/>
<path fill-rule="evenodd" d="M543.1,659.2H782.2v-15H543.1v15Z" class="g0_331"/>
<path fill-rule="evenodd" d="M543.1,674.4H782.2V659.2H543.1v15.2Z" class="g0_331"/>
<path fill-rule="evenodd" d="M543.1,689.4H782.2v-15H543.1v15Z" class="g0_331"/>
<path fill-rule="evenodd" d="M542.8,704.5H781.9V689.4H542.8v15.1Z" class="g0_331"/>
<path fill-rule="evenodd" d="M542.8,719.5H781.9v-15H542.8v15Z" class="g0_331"/>
<path fill-rule="evenodd" d="M542.8,734.5H781.9v-15H542.8v15Z" class="g0_331"/>
<path fill-rule="evenodd" d="M542.8,749.6H781.9V734.5H542.8v15.1Z" class="g0_331"/>
<path fill-rule="evenodd" d="M542.8,764.6H781.9v-15H542.8v15Z" class="g0_331"/>
<path fill-rule="evenodd" d="M542.8,779.6H781.5v-15H542.8v15Z" class="g0_331"/>
<path fill-rule="evenodd" d="M542.8,794.7H781.5V779.6H542.8v15.1Z" class="g0_331"/>
<path fill-rule="evenodd" d="M542.8,809.7H781.1v-15H542.8v15Z" class="g0_331"/>
<path fill-rule="evenodd" d="M542.8,824.7H781.1v-15H542.8v15Z" class="g0_331"/>
<path fill-rule="evenodd" d="M542.8,839.8H781.1V824.7H542.8v15.1Z" class="g0_331"/>
<path fill-rule="evenodd" d="M542.4,855.4H781.1V840.2H542.4v15.2Z" class="g0_331"/>
<path fill-rule="evenodd" d="M542.4,870.4H781.1v-15H542.4v15Z" class="g0_331"/>
<path fill-rule="evenodd" d="M543.5,885.5h238V870.4h-238v15.1Z" class="g0_331"/>
<path fill-rule="evenodd" d="M543.5,900.5h238v-15h-238v15Z" class="g0_331"/>
<path d="M197.6,98.6v198" class="g1_331"/>
<path d="M229.1,97.9V988.5M204.2,204V975m7.3,-601.7v631.4M532.4,147.8V917.4" class="g2_331"/>
</svg>