<?xml version="1.0" encoding="UTF-8" standalone="no"?>
<!DOCTYPE svg PUBLIC "-//W3C//DTD SVG 1.1//EN"
"http://www.w3.org/Graphics/SVG/1.1/DTD/svg11.dtd">
<svg viewBox="0 0 909 1285" version="1.1" xmlns="http://www.w3.org/2000/svg" xmlns:xlink="http://www.w3.org/1999/xlink">
<defs>
<style type="text/css"><![CDATA[
.g0_144{
fill: #FFFFFF;
}
.g1_144{
fill: none;
stroke: #000000;
stroke-width: 0.381;
stroke-linecap: butt;
stroke-linejoin: round;
}
]]></style>
</defs>
<path fill-rule="evenodd" d="M621.2,132.8h75.6V110H621.2v22.8Z" class="g0_144"/>
<path fill-rule="evenodd" d="M195.8,167.2H435.7v-15H195.8v15Z" class="g0_144"/>
<path fill-rule="evenodd" d="M195.8,182.4H435.7V167.2H195.8v15.2Z" class="g0_144"/>
<path fill-rule="evenodd" d="M195.8,197.5H435.7V182.4H195.8v15.1Z" class="g0_144"/>
<path fill-rule="evenodd" d="M195.8,212.5H435.7v-15H195.8v15Z" class="g0_144"/>
<path fill-rule="evenodd" d="M195.8,227.5H435.7v-15H195.8v15Z" class="g0_144"/>
<path fill-rule="evenodd" d="M195.8,242.6H435.7V227.5H195.8v15.1Z" class="g0_144"/>
<path fill-rule="evenodd" d="M195.8,257.6H435.7v-15H195.8v15Z" class="g0_144"/>
<path fill-rule="evenodd" d="M195.8,272.6H435.7v-15H195.8v15Z" class="g0_144"/>
<path fill-rule="evenodd" d="M195.8,287.7H434.2V272.6H195.8v15.1Z" class="g0_144"/>
<path fill-rule="evenodd" d="M195.8,302.7H434.2v-15H195.8v15Z" class="g0_144"/>
<path fill-rule="evenodd" d="M195.8,317.7H434.6v-15H195.8v15Z" class="g0_144"/>
<path fill-rule="evenodd" d="M195.8,332.8H434.6V317.7H195.8v15.1Z" class="g0_144"/>
<path fill-rule="evenodd" d="M195.8,347.8H434.6v-15H195.8v15Z" class="g0_144"/>
<path fill-rule="evenodd" d="M195.8,363.1H434.6V347.8H195.8v15.3Z" class="g0_144"/>
<path fill-rule="evenodd" d="M195.8,378.1H434.6v-15H195.8v15Z" class="g0_144"/>
<path fill-rule="evenodd" d="M195.8,393.1H434.6v-15H195.8v15Z" class="g0_144"/>
<path fill-rule="evenodd" d="M195.8,408.2H434.6V393.1H195.8v15.1Z" class="g0_144"/>
<path fill-rule="evenodd" d="M195.8,423.2H434.6v-15H195.8v15Z" class="g0_144"/>
<path fill-rule="evenodd" d="M213.1,438.2H435.7v-15H213.1v15Z" class="g0_144"/>
<path fill-rule="evenodd" d="M212.7,453.3h223V438.2h-223v15.1Z" class="g0_144"/>
<path fill-rule="evenodd" d="M193.3,468.3H433.8v-15H193.3v15Z" class="g0_144"/>
<path fill-rule="evenodd" d="M193.3,483.3H433.8v-15H193.3v15Z" class="g0_144"/>
<path fill-rule="evenodd" d="M193.3,498.4H433.8V483.3H193.3v15.1Z" class="g0_144"/>
<path fill-rule="evenodd" d="M193.3,513.4H433.8v-15H193.3v15Z" class="g0_144"/>
<path fill-rule="evenodd" d="M193.3,528.6H433.8V513.4H193.3v15.2Z" class="g0_144"/>
<path fill-rule="evenodd" d="M193.3,543.7H433.8V528.6H193.3v15.1Z" class="g0_144"/>
<path fill-rule="evenodd" d="M193.3,558.7H433.8v-15H193.3v15Z" class="g0_144"/>
<path fill-rule="evenodd" d="M193.3,573.7H433.8v-15H193.3v15Z" class="g0_144"/>
<path fill-rule="evenodd" d="M193.3,588.8H433.8V573.7H193.3v15.1Z" class="g0_144"/>
<path fill-rule="evenodd" d="M193.3,603.8H433.8v-15H193.3v15Z" class="g0_144"/>
<path fill-rule="evenodd" d="M193.3,618.9H433.8V603.8H193.3v15.1Z" class="g0_144"/>
<path fill-rule="evenodd" d="M193.3,633.9H433.8v-15H193.3v15Z" class="g0_144"/>
<path fill-rule="evenodd" d="M193.3,648.9H433.8v-15H193.3v15Z" class="g0_144"/>
<path fill-rule="evenodd" d="M193.3,664H433.8V648.9H193.3V664Z" class="g0_144"/>
<path fill-rule="evenodd" d="M193.3,679H433.8V664H193.3v15Z" class="g0_144"/>
<path fill-rule="evenodd" d="M193.3,694H433.1V679H193.3v15Z" class="g0_144"/>
<path fill-rule="evenodd" d="M193.3,709.2H433.1V694H193.3v15.2Z" class="g0_144"/>
<path fill-rule="evenodd" d="M193.3,724.3H433.1V709.2H193.3v15.1Z" class="g0_144"/>
<path fill-rule="evenodd" d="M192.2,739.3H433.1v-15H192.2v15Z" class="g0_144"/>
<path fill-rule="evenodd" d="M192.2,754.3H433.1v-15H192.2v15Z" class="g0_144"/>
<path fill-rule="evenodd" d="M192.2,769.4H433.1V754.3H192.2v15.1Z" class="g0_144"/>
<path fill-rule="evenodd" d="M192.2,784.4H433.1v-15H192.2v15Z" class="g0_144"/>
<path fill-rule="evenodd" d="M192.2,799.4H433.1v-15H192.2v15Z" class="g0_144"/>
<path fill-rule="evenodd" d="M192.9,814.5H432.7V799.4H192.9v15.1Z" class="g0_144"/>
<path fill-rule="evenodd" d="M192.9,829.5H432.7v-15H192.9v15Z" class="g0_144"/>
<path fill-rule="evenodd" d="M192.9,844.6H432.7V829.5H192.9v15.1Z" class="g0_144"/>
<path fill-rule="evenodd" d="M192.9,859.6H432v-15H192.9v15Z" class="g0_144"/>
<path fill-rule="evenodd" d="M192.9,874.7H432V859.6H192.9v15.1Z" class="g0_144"/>
<path fill-rule="evenodd" d="M192.9,889.9H432V874.7H192.9v15.2Z" class="g0_144"/>
<path fill-rule="evenodd" d="M195.1,904.5H435.7V889.9H195.1v14.6Z" class="g0_144"/>
<path fill-rule="evenodd" d="M455.7,166.9H695.9V152.2H455.7v14.7Z" class="g0_144"/>
<path fill-rule="evenodd" d="M455.7,181.5H695.9V166.9H455.7v14.6Z" class="g0_144"/>
<path fill-rule="evenodd" d="M455.7,196.6H695.9V181.5H455.7v15.1Z" class="g0_144"/>
<path fill-rule="evenodd" d="M455.7,211.2H695.9V196.6H455.7v14.6Z" class="g0_144"/>
<path fill-rule="evenodd" d="M455,225.9H695.9V211.2H455v14.7Z" class="g0_144"/>
<path fill-rule="evenodd" d="M455,240.6H695.9V225.9H455v14.7Z" class="g0_144"/>
<path fill-rule="evenodd" d="M455,255.2H695.9V240.6H455v14.6Z" class="g0_144"/>
<path fill-rule="evenodd" d="M455,269.9H695.9V255.2H455v14.7Z" class="g0_144"/>
<path fill-rule="evenodd" d="M455,284.6H695.9V269.9H455v14.7Z" class="g0_144"/>
<path fill-rule="evenodd" d="M455,299.2H695.9V284.6H455v14.6Z" class="g0_144"/>
<path fill-rule="evenodd" d="M455,313.9H695.9V299.2H455v14.7Z" class="g0_144"/>
<path fill-rule="evenodd" d="M455,328.6H695.9V313.9H455v14.7Z" class="g0_144"/>
<path fill-rule="evenodd" d="M455.3,343.8H695V328.9H455.3v14.9Z" class="g0_144"/>
<path fill-rule="evenodd" d="M455.3,358.5H695V343.8H455.3v14.7Z" class="g0_144"/>
<path fill-rule="evenodd" d="M455,373.9H695V359.2H455v14.7Z" class="g0_144"/>
<path fill-rule="evenodd" d="M455,388.6H695V373.9H455v14.7Z" class="g0_144"/>
<path fill-rule="evenodd" d="M473.3,403.6H695.9V388.9H473.3v14.7Z" class="g0_144"/>
<path fill-rule="evenodd" d="M454.2,418.3H695V403.6H454.2v14.7Z" class="g0_144"/>
<path fill-rule="evenodd" d="M454.2,432.9H695V418.3H454.2v14.6Z" class="g0_144"/>
<path fill-rule="evenodd" d="M454.2,447.6H695V432.9H454.2v14.7Z" class="g0_144"/>
<path fill-rule="evenodd" d="M454.2,462.3H695V447.6H454.2v14.7Z" class="g0_144"/>
<path fill-rule="evenodd" d="M454.2,476.9H695V462.3H454.2v14.6Z" class="g0_144"/>
<path fill-rule="evenodd" d="M454.2,491.6H695V476.9H454.2v14.7Z" class="g0_144"/>
<path fill-rule="evenodd" d="M454.2,506.3H695V491.6H454.2v14.7Z" class="g0_144"/>
<path fill-rule="evenodd" d="M454.2,520.9H695V506.3H454.2v14.6Z" class="g0_144"/>
<path fill-rule="evenodd" d="M454.2,535.6H695V520.9H454.2v14.7Z" class="g0_144"/>
<path fill-rule="evenodd" d="M453.5,550.6H694.8V536H453.5v14.6Z" class="g0_144"/>
<path fill-rule="evenodd" d="M453.5,565.3H694.8V550.6H453.5v14.7Z" class="g0_144"/>
<path fill-rule="evenodd" d="M453.5,580H694.8V565.3H453.5V580Z" class="g0_144"/>
<path fill-rule="evenodd" d="M453.5,594.7H694.8V580H453.5v14.7Z" class="g0_144"/>
<path fill-rule="evenodd" d="M453.5,609.3H694.8V594.7H453.5v14.6Z" class="g0_144"/>
<path fill-rule="evenodd" d="M453.5,624H694.8V609.3H453.5V624Z" class="g0_144"/>
<path fill-rule="evenodd" d="M453.5,638.7H694.8V624H453.5v14.7Z" class="g0_144"/>
<path fill-rule="evenodd" d="M453.5,653.3H694.8V638.7H453.5v14.6Z" class="g0_144"/>
<path fill-rule="evenodd" d="M453.5,668H694.8V653.3H453.5V668Z" class="g0_144"/>
<path fill-rule="evenodd" d="M453.5,682.7H694.8V668H453.5v14.7Z" class="g0_144"/>
<path fill-rule="evenodd" d="M453.1,697.7H693.3V683H453.1v14.7Z" class="g0_144"/>
<path fill-rule="evenodd" d="M453.1,712.4H693.3V697.7H453.1v14.7Z" class="g0_144"/>
<path fill-rule="evenodd" d="M453.1,727H693.3V712.4H453.1V727Z" class="g0_144"/>
<path fill-rule="evenodd" d="M453.1,741.7H693.3V727H453.1v14.7Z" class="g0_144"/>
<path fill-rule="evenodd" d="M453.1,756.4H693.3V741.7H453.1v14.7Z" class="g0_144"/>
<path fill-rule="evenodd" d="M453.1,771H693.3V756.4H453.1V771Z" class="g0_144"/>
<path fill-rule="evenodd" d="M452.8,785.7H693.3V771H452.8v14.7Z" class="g0_144"/>
<path fill-rule="evenodd" d="M452.8,800.4H693.3V785.7H452.8v14.7Z" class="g0_144"/>
<path fill-rule="evenodd" d="M452.8,815H693.3V800.4H452.8V815Z" class="g0_144"/>
<path fill-rule="evenodd" d="M471.5,829.7H695.9V815H471.5v14.7Z" class="g0_144"/>
<path fill-rule="evenodd" d="M452.8,844.4H693.3V829.7H452.8v14.7Z" class="g0_144"/>
<path fill-rule="evenodd" d="M452.8,859.1H693.3V844.4H452.8v14.7Z" class="g0_144"/>
<path fill-rule="evenodd" d="M452.8,873.7H693.3V859.1H452.8v14.6Z" class="g0_144"/>
<path fill-rule="evenodd" d="M452.8,888.4H693.3V873.7H452.8v14.7Z" class="g0_144"/>
<path fill-rule="evenodd" d="M430.5,922.3H696.8V904.9H430.5v17.4Z" class="g0_144"/>
<path d="M441.8,151.9V920" class="g1_144"/>
</svg>