<?xml version="1.0" encoding="UTF-8" standalone="no"?>
<!DOCTYPE svg PUBLIC "-//W3C//DTD SVG 1.1//EN"
"http://www.w3.org/Graphics/SVG/1.1/DTD/svg11.dtd">
<svg viewBox="0 0 909 1285" version="1.1" xmlns="http://www.w3.org/2000/svg" xmlns:xlink="http://www.w3.org/1999/xlink">
<defs>
<style type="text/css"><![CDATA[
.g0_42{
fill: #FFFFFF;
}
.g1_42{
fill: none;
stroke: #000000;
stroke-width: 0.381;
stroke-linecap: butt;
stroke-linejoin: round;
}
]]></style>
</defs>
<path fill-rule="evenodd" d="M585.7,125.8H695.3V110H585.7v15.8Z" class="g0_42"/>
<path fill-rule="evenodd" d="M194.4,161.4H434.2V146.3H194.4v15.1Z" class="g0_42"/>
<path fill-rule="evenodd" d="M194.4,176.4H434.2v-15H194.4v15Z" class="g0_42"/>
<path fill-rule="evenodd" d="M194.4,191.6H434.2V176.4H194.4v15.2Z" class="g0_42"/>
<path fill-rule="evenodd" d="M194.4,206.6H434.2v-15H194.4v15Z" class="g0_42"/>
<path fill-rule="evenodd" d="M194.4,221.7H434.2V206.6H194.4v15.1Z" class="g0_42"/>
<path fill-rule="evenodd" d="M194.4,236.7H434.2v-15H194.4v15Z" class="g0_42"/>
<path fill-rule="evenodd" d="M194.4,251.7H434.2v-15H194.4v15Z" class="g0_42"/>
<path fill-rule="evenodd" d="M194.4,266.8H434.2V251.7H194.4v15.1Z" class="g0_42"/>
<path fill-rule="evenodd" d="M194,281.8H433.8v-15H194v15Z" class="g0_42"/>
<path fill-rule="evenodd" d="M194,296.8H433.8v-15H194v15Z" class="g0_42"/>
<path fill-rule="evenodd" d="M194,311.9H433.8V296.8H194v15.1Z" class="g0_42"/>
<path fill-rule="evenodd" d="M194,326.9H433.8v-15H194v15Z" class="g0_42"/>
<path fill-rule="evenodd" d="M194,341.9H433.8v-15H194v15Z" class="g0_42"/>
<path fill-rule="evenodd" d="M194,357.2H433.8V342H194v15.2Z" class="g0_42"/>
<path fill-rule="evenodd" d="M194,372.2H433.8v-15H194v15Z" class="g0_42"/>
<path fill-rule="evenodd" d="M194,387.3H433.8V372.2H194v15.1Z" class="g0_42"/>
<path fill-rule="evenodd" d="M193.6,402.3H433.1v-15H193.6v15Z" class="g0_42"/>
<path fill-rule="evenodd" d="M193.6,417.3H433.1v-15H193.6v15Z" class="g0_42"/>
<path fill-rule="evenodd" d="M193.6,432.4H433.1V417.3H193.6v15.1Z" class="g0_42"/>
<path fill-rule="evenodd" d="M193.6,447.8H433.1V432.4H193.6v15.4Z" class="g0_42"/>
<path fill-rule="evenodd" d="M193.6,462.8H433.1v-15H193.6v15Z" class="g0_42"/>
<path fill-rule="evenodd" d="M193.6,477.8H433.1v-15H193.6v15Z" class="g0_42"/>
<path fill-rule="evenodd" d="M192.9,492.9H432.4V477.8H192.9v15.1Z" class="g0_42"/>
<path fill-rule="evenodd" d="M192.9,507.9H432.4v-15H192.9v15Z" class="g0_42"/>
<path fill-rule="evenodd" d="M192.9,523.1H432.4V507.9H192.9v15.2Z" class="g0_42"/>
<path fill-rule="evenodd" d="M192.9,538.2H432.4V523.1H192.9v15.1Z" class="g0_42"/>
<path fill-rule="evenodd" d="M211.2,553.2h223v-15h-223v15Z" class="g0_42"/>
<path fill-rule="evenodd" d="M193.3,568.2H432.4v-15H193.3v15Z" class="g0_42"/>
<path fill-rule="evenodd" d="M193.3,583.3H432.4V568.2H193.3v15.1Z" class="g0_42"/>
<path fill-rule="evenodd" d="M193.3,598.3H432.4v-15H193.3v15Z" class="g0_42"/>
<path fill-rule="evenodd" d="M193.3,613.4H432.4V598.3H193.3v15.1Z" class="g0_42"/>
<path fill-rule="evenodd" d="M210.9,628.4H434.2v-15H210.9v15Z" class="g0_42"/>
<path fill-rule="evenodd" d="M210.9,643.4H434.2v-15H210.9v15Z" class="g0_42"/>
<path fill-rule="evenodd" d="M210.5,658.5H434.2V643.4H210.5v15.1Z" class="g0_42"/>
<path fill-rule="evenodd" d="M191.8,673.5H434.2v-15H191.8v15Z" class="g0_42"/>
<path fill-rule="evenodd" d="M191.8,688.5H434.2v-15H191.8v15Z" class="g0_42"/>
<path fill-rule="evenodd" d="M191.8,703.7H434.2V688.5H191.8v15.2Z" class="g0_42"/>
<path fill-rule="evenodd" d="M191.8,718.8H434.2V703.7H191.8v15.1Z" class="g0_42"/>
<path fill-rule="evenodd" d="M191.8,733.8H434.2v-15H191.8v15Z" class="g0_42"/>
<path fill-rule="evenodd" d="M191.8,748.8H434.2v-15H191.8v15Z" class="g0_42"/>
<path fill-rule="evenodd" d="M191.8,763.9H434.2V748.8H191.8v15.1Z" class="g0_42"/>
<path fill-rule="evenodd" d="M191.8,778.9H434.2v-15H191.8v15Z" class="g0_42"/>
<path fill-rule="evenodd" d="M191.8,793.9H434.2v-15H191.8v15Z" class="g0_42"/>
<path fill-rule="evenodd" d="M191.8,809H434.2V793.9H191.8V809Z" class="g0_42"/>
<path fill-rule="evenodd" d="M191.8,824H434.2V809H191.8v15Z" class="g0_42"/>
<path fill-rule="evenodd" d="M191.8,839.1H434.2V824H191.8v15.1Z" class="g0_42"/>
<path fill-rule="evenodd" d="M191.8,854.1H430.9v-15H191.8v15Z" class="g0_42"/>
<path fill-rule="evenodd" d="M191.8,869.2H430.9V854.1H191.8v15.1Z" class="g0_42"/>
<path fill-rule="evenodd" d="M194.7,884.4H434.2V869.2H194.7v15.2Z" class="g0_42"/>
<path fill-rule="evenodd" d="M454.8,161.4H695.3V146.3H454.8v15.1Z" class="g0_42"/>
<path fill-rule="evenodd" d="M454.8,176.4H695.3v-15H454.8v15Z" class="g0_42"/>
<path fill-rule="evenodd" d="M454.8,191.6H695.3V176.4H454.8v15.2Z" class="g0_42"/>
<path fill-rule="evenodd" d="M454.8,206.6H695.3v-15H454.8v15Z" class="g0_42"/>
<path fill-rule="evenodd" d="M454.8,221.7H695.3V206.6H454.8v15.1Z" class="g0_42"/>
<path fill-rule="evenodd" d="M454.8,236.7H695.3v-15H454.8v15Z" class="g0_42"/>
<path fill-rule="evenodd" d="M454.8,251.7H695.3v-15H454.8v15Z" class="g0_42"/>
<path fill-rule="evenodd" d="M454.8,266.8H616.1V251.7H454.8v15.1Z" class="g0_42"/>
<path fill-rule="evenodd" d="M454.8,281.8H616.1v-15H454.8v15Z" class="g0_42"/>
<path fill-rule="evenodd" d="M454,296.8H694.6v-15H454v15Z" class="g0_42"/>
<path fill-rule="evenodd" d="M454,311.9H694.6V296.8H454v15.1Z" class="g0_42"/>
<path fill-rule="evenodd" d="M454,326.9H694.6v-15H454v15Z" class="g0_42"/>
<path fill-rule="evenodd" d="M454,341.9H694.6v-15H454v15Z" class="g0_42"/>
<path fill-rule="evenodd" d="M454,357.2H694.6V342H454v15.2Z" class="g0_42"/>
<path fill-rule="evenodd" d="M454,372.2H694.6v-15H454v15Z" class="g0_42"/>
<path fill-rule="evenodd" d="M454,387.3H694.6V372.2H454v15.1Z" class="g0_42"/>
<path fill-rule="evenodd" d="M453.3,402.3H694.6v-15H453.3v15Z" class="g0_42"/>
<path fill-rule="evenodd" d="M453.3,417.3H694.6v-15H453.3v15Z" class="g0_42"/>
<path fill-rule="evenodd" d="M453.3,432.4H694.6V417.3H453.3v15.1Z" class="g0_42"/>
<path fill-rule="evenodd" d="M453.3,447.4H694.6v-15H453.3v15Z" class="g0_42"/>
<path fill-rule="evenodd" d="M453.3,462.4H694.6v-15H453.3v15Z" class="g0_42"/>
<path fill-rule="evenodd" d="M453.3,477.5H694.6V462.4H453.3v15.1Z" class="g0_42"/>
<path fill-rule="evenodd" d="M453.3,492.5H694.6v-15H453.3v15Z" class="g0_42"/>
<path fill-rule="evenodd" d="M452.9,507.5h241v-15h-241v15Z" class="g0_42"/>
<path fill-rule="evenodd" d="M452.9,522.6h241V507.5h-241v15.1Z" class="g0_42"/>
<path fill-rule="evenodd" d="M452.9,537.8h241V522.6h-241v15.2Z" class="g0_42"/>
<path fill-rule="evenodd" d="M452.9,552.8h241v-15h-241v15Z" class="g0_42"/>
<path fill-rule="evenodd" d="M452.9,567.9h241V552.8h-241v15.1Z" class="g0_42"/>
<path fill-rule="evenodd" d="M452.9,582.9h241v-15h-241v15Z" class="g0_42"/>
<path fill-rule="evenodd" d="M453.3,598H616.1V582.9H453.3V598Z" class="g0_42"/>
<path fill-rule="evenodd" d="M453.3,613H616.1V598H453.3v15Z" class="g0_42"/>
<path fill-rule="evenodd" d="M451.8,628.4H693.1v-15H451.8v15Z" class="g0_42"/>
<path fill-rule="evenodd" d="M451.8,643.4H693.1v-15H451.8v15Z" class="g0_42"/>
<path fill-rule="evenodd" d="M451.8,658.5H693.1V643.4H451.8v15.1Z" class="g0_42"/>
<path fill-rule="evenodd" d="M451.8,673.5H693.1v-15H451.8v15Z" class="g0_42"/>
<path fill-rule="evenodd" d="M451.8,688.5H693.1v-15H451.8v15Z" class="g0_42"/>
<path fill-rule="evenodd" d="M451.8,703.7H693.1V688.5H451.8v15.2Z" class="g0_42"/>
<path fill-rule="evenodd" d="M451.8,718.8H693.1V703.7H451.8v15.1Z" class="g0_42"/>
<path fill-rule="evenodd" d="M451.8,733.8H693.1v-15H451.8v15Z" class="g0_42"/>
<path fill-rule="evenodd" d="M451.8,748.8H693.1v-15H451.8v15Z" class="g0_42"/>
<path fill-rule="evenodd" d="M451.8,763.9H693.1V748.8H451.8v15.1Z" class="g0_42"/>
<path fill-rule="evenodd" d="M451.8,778.9H693.1v-15H451.8v15Z" class="g0_42"/>
<path fill-rule="evenodd" d="M451.8,793.9H693.1v-15H451.8v15Z" class="g0_42"/>
<path fill-rule="evenodd" d="M451.8,809H693.1V793.9H451.8V809Z" class="g0_42"/>
<path fill-rule="evenodd" d="M451.8,824H693.1V809H451.8v15Z" class="g0_42"/>
<path fill-rule="evenodd" d="M451.8,839.1H693.1V824H451.8v15.1Z" class="g0_42"/>
<path fill-rule="evenodd" d="M452.2,854.1H691.7v-15H452.2v15Z" class="g0_42"/>
<path fill-rule="evenodd" d="M452.2,869.2H691.7V854.1H452.2v15.1Z" class="g0_42"/>
<path fill-rule="evenodd" d="M452.2,884.4H691.7V869.2H452.2v15.2Z" class="g0_42"/>
<path fill-rule="evenodd" d="M432,915.9H695.4V900.1H432v15.8Z" class="g0_42"/>
<path d="M441.1,146V914.9" class="g1_42"/>
</svg>