<?xml version="1.0" encoding="UTF-8" standalone="no"?>
<!DOCTYPE svg PUBLIC "-//W3C//DTD SVG 1.1//EN"
"http://www.w3.org/Graphics/SVG/1.1/DTD/svg11.dtd">
<svg viewBox="0 0 909 1285" version="1.1" xmlns="http://www.w3.org/2000/svg" xmlns:xlink="http://www.w3.org/1999/xlink">
<defs>
<style type="text/css"><![CDATA[
.g0_323{
fill: #FFFFFF;
}
.g1_323{
fill: none;
stroke: #000000;
stroke-width: 4.048;
stroke-linecap: butt;
stroke-linejoin: round;
}
.g2_323{
fill: none;
stroke: #000000;
stroke-width: 1.833;
stroke-linecap: butt;
stroke-linejoin: round;
}
.g3_323{
fill: none;
stroke: #000000;
stroke-width: 0.763;
stroke-linecap: butt;
stroke-linejoin: round;
}
.g4_323{
fill: none;
stroke: #000000;
stroke-width: 0.381;
stroke-linecap: butt;
stroke-linejoin: round;
}
]]></style>
</defs>
<path fill-rule="evenodd" d="M271.8,131.1H769.4V110H271.8v21.1Z" class="g0_323"/>
<path fill-rule="evenodd" d="M271.8,167H510.5V152H271.8v15Z" class="g0_323"/>
<path fill-rule="evenodd" d="M271.8,182.3H510.5V167H271.8v15.3Z" class="g0_323"/>
<path fill-rule="evenodd" d="M271.4,197.3H510.9v-15H271.4v15Z" class="g0_323"/>
<path fill-rule="evenodd" d="M271.4,212.3H510.9v-15H271.4v15Z" class="g0_323"/>
<path fill-rule="evenodd" d="M271.4,227.4H510.9V212.3H271.4v15.1Z" class="g0_323"/>
<path fill-rule="evenodd" d="M271.4,242.4H510.9v-15H271.4v15Z" class="g0_323"/>
<path fill-rule="evenodd" d="M271.4,257.4H510.9v-15H271.4v15Z" class="g0_323"/>
<path fill-rule="evenodd" d="M271.4,272.5H510.9V257.4H271.4v15.1Z" class="g0_323"/>
<path fill-rule="evenodd" d="M271.4,287.5H510.9v-15H271.4v15Z" class="g0_323"/>
<path fill-rule="evenodd" d="M271.4,302.5H510.9v-15H271.4v15Z" class="g0_323"/>
<path fill-rule="evenodd" d="M271.4,317.6H510.9V302.5H271.4v15.1Z" class="g0_323"/>
<path fill-rule="evenodd" d="M271,332.6H510.5v-15H271v15Z" class="g0_323"/>
<path fill-rule="evenodd" d="M271,347.8H510.5V332.6H271v15.2Z" class="g0_323"/>
<path fill-rule="evenodd" d="M271,362.9H510.5V347.8H271v15.1Z" class="g0_323"/>
<path fill-rule="evenodd" d="M271,377.9H510.5v-15H271v15Z" class="g0_323"/>
<path fill-rule="evenodd" d="M271,393H510.5V377.9H271V393Z" class="g0_323"/>
<path fill-rule="evenodd" d="M271,408H510.5V393H271v15Z" class="g0_323"/>
<path fill-rule="evenodd" d="M271,423H510.5V408H271v15Z" class="g0_323"/>
<path fill-rule="evenodd" d="M271,438.1H510.5V423H271v15.1Z" class="g0_323"/>
<path fill-rule="evenodd" d="M271,453.1H510.5v-15H271v15Z" class="g0_323"/>
<path fill-rule="evenodd" d="M270.7,468.1H509.8v-15H270.7v15Z" class="g0_323"/>
<path fill-rule="evenodd" d="M270.7,483.2H509.8V468.1H270.7v15.1Z" class="g0_323"/>
<path fill-rule="evenodd" d="M270.7,498.2H509.8v-15H270.7v15Z" class="g0_323"/>
<path fill-rule="evenodd" d="M270.7,513.2H509.8v-15H270.7v15Z" class="g0_323"/>
<path fill-rule="evenodd" d="M270.3,528.4H509.8V513.2H270.3v15.2Z" class="g0_323"/>
<path fill-rule="evenodd" d="M270.3,543.5H509.8V528.4H270.3v15.1Z" class="g0_323"/>
<path fill-rule="evenodd" d="M270.3,558.5H509.8v-15H270.3v15Z" class="g0_323"/>
<path fill-rule="evenodd" d="M289,573.5H510.9v-15H289v15Z" class="g0_323"/>
<path fill-rule="evenodd" d="M269.6,588.6H509.8V573.5H269.6v15.1Z" class="g0_323"/>
<path fill-rule="evenodd" d="M269.6,603.6H509.8v-15H269.6v15Z" class="g0_323"/>
<path fill-rule="evenodd" d="M269.6,618.7H509.8V603.6H269.6v15.1Z" class="g0_323"/>
<path fill-rule="evenodd" d="M269.6,633.7H509.8v-15H269.6v15Z" class="g0_323"/>
<path fill-rule="evenodd" d="M269.6,648.7H509.8v-15H269.6v15Z" class="g0_323"/>
<path fill-rule="evenodd" d="M269.6,663.8H509.8V648.7H269.6v15.1Z" class="g0_323"/>
<path fill-rule="evenodd" d="M269.6,678.8H509.8v-15H269.6v15Z" class="g0_323"/>
<path fill-rule="evenodd" d="M269.9,693.8H509.4v-15H269.9v15Z" class="g0_323"/>
<path fill-rule="evenodd" d="M269.9,709.1H509.4V693.8H269.9v15.3Z" class="g0_323"/>
<path fill-rule="evenodd" d="M269.9,724.1H509.4v-15H269.9v15Z" class="g0_323"/>
<path fill-rule="evenodd" d="M269.9,739.1H509.4v-15H269.9v15Z" class="g0_323"/>
<path fill-rule="evenodd" d="M269.6,754.2H509.4V739.1H269.6v15.1Z" class="g0_323"/>
<path fill-rule="evenodd" d="M269.6,769.2H509.4v-15H269.6v15Z" class="g0_323"/>
<path fill-rule="evenodd" d="M269.2,784.2H508.7v-15H269.2v15Z" class="g0_323"/>
<path fill-rule="evenodd" d="M269.2,799.3H508.7V784.2H269.2v15.1Z" class="g0_323"/>
<path fill-rule="evenodd" d="M269.2,814.3H508.7v-15H269.2v15Z" class="g0_323"/>
<path fill-rule="evenodd" d="M269.2,829.3H508.7v-15H269.2v15Z" class="g0_323"/>
<path fill-rule="evenodd" d="M269.2,844.4H508.7V829.3H269.2v15.1Z" class="g0_323"/>
<path fill-rule="evenodd" d="M269.2,859.4H508.7v-15H269.2v15Z" class="g0_323"/>
<path fill-rule="evenodd" d="M269.2,874.5H508.7V859.4H269.2v15.1Z" class="g0_323"/>
<path fill-rule="evenodd" d="M269.2,889.7H508.7V874.5H269.2v15.2Z" class="g0_323"/>
<path fill-rule="evenodd" d="M270.7,904.7H510.9v-15H270.7v15Z" class="g0_323"/>
<path fill-rule="evenodd" d="M530.7,167H769.4V152H530.7v15Z" class="g0_323"/>
<path fill-rule="evenodd" d="M530.7,182.3H769.4V167H530.7v15.3Z" class="g0_323"/>
<path fill-rule="evenodd" d="M530.7,197.3H769.4v-15H530.7v15Z" class="g0_323"/>
<path fill-rule="evenodd" d="M530.7,212.3H769.4v-15H530.7v15Z" class="g0_323"/>
<path fill-rule="evenodd" d="M530.7,227.4H769.4V212.3H530.7v15.1Z" class="g0_323"/>
<path fill-rule="evenodd" d="M530.7,242.4H769.4v-15H530.7v15Z" class="g0_323"/>
<path fill-rule="evenodd" d="M530.7,257.4H769.4v-15H530.7v15Z" class="g0_323"/>
<path fill-rule="evenodd" d="M530.7,272.5H769.4V257.4H530.7v15.1Z" class="g0_323"/>
<path fill-rule="evenodd" d="M530.7,287.9h238V272.8h-238v15.1Z" class="g0_323"/>
<path fill-rule="evenodd" d="M530.7,302.9h238v-15h-238v15Z" class="g0_323"/>
<path fill-rule="evenodd" d="M530.7,317.9H769.4v-15H530.7v15Z" class="g0_323"/>
<path fill-rule="evenodd" d="M530.7,333.1H769.4V317.9H530.7v15.2Z" class="g0_323"/>
<path fill-rule="evenodd" d="M530.7,348.2H769.4V333.1H530.7v15.1Z" class="g0_323"/>
<path fill-rule="evenodd" d="M530.7,363.3H769.4V348.2H530.7v15.1Z" class="g0_323"/>
<path fill-rule="evenodd" d="M530.7,378.3H769.4v-15H530.7v15Z" class="g0_323"/>
<path fill-rule="evenodd" d="M530.7,393.3H769.4v-15H530.7v15Z" class="g0_323"/>
<path fill-rule="evenodd" d="M530.7,408.4H769.4V393.3H530.7v15.1Z" class="g0_323"/>
<path fill-rule="evenodd" d="M530.7,423.4H769.4v-15H530.7v15Z" class="g0_323"/>
<path fill-rule="evenodd" d="M529.9,438.4H769v-15H529.9v15Z" class="g0_323"/>
<path fill-rule="evenodd" d="M529.9,453.5H769V438.4H529.9v15.1Z" class="g0_323"/>
<path fill-rule="evenodd" d="M529.9,468.5H769v-15H529.9v15Z" class="g0_323"/>
<path fill-rule="evenodd" d="M529.9,483.5H769v-15H529.9v15Z" class="g0_323"/>
<path fill-rule="evenodd" d="M529.9,498.6H769V483.5H529.9v15.1Z" class="g0_323"/>
<path fill-rule="evenodd" d="M529.9,513.8H769V498.6H529.9v15.2Z" class="g0_323"/>
<path fill-rule="evenodd" d="M529.9,528.8H769v-15H529.9v15Z" class="g0_323"/>
<path fill-rule="evenodd" d="M529.9,543.8H769v-15H529.9v15Z" class="g0_323"/>
<path fill-rule="evenodd" d="M529.9,558.9H769V543.8H529.9v15.1Z" class="g0_323"/>
<path fill-rule="evenodd" d="M529.9,573.9H769v-15H529.9v15Z" class="g0_323"/>
<path fill-rule="evenodd" d="M529.9,588.9H769v-15H529.9v15Z" class="g0_323"/>
<path fill-rule="evenodd" d="M529.9,604H769V588.9H529.9V604Z" class="g0_323"/>
<path fill-rule="evenodd" d="M529.9,619H768.7V604H529.9v15Z" class="g0_323"/>
<path fill-rule="evenodd" d="M529.9,634.1H768.7V619H529.9v15.1Z" class="g0_323"/>
<path fill-rule="evenodd" d="M548.3,649.1H769.4v-15H548.3v15Z" class="g0_323"/>
<path fill-rule="evenodd" d="M529.2,664.1H767.9v-15H529.2v15Z" class="g0_323"/>
<path fill-rule="evenodd" d="M529.2,679.2H767.9V664.1H529.2v15.1Z" class="g0_323"/>
<path fill-rule="evenodd" d="M529.2,694.4H767.9V679.2H529.2v15.2Z" class="g0_323"/>
<path fill-rule="evenodd" d="M529.2,709.4H767.9v-15H529.2v15Z" class="g0_323"/>
<path fill-rule="evenodd" d="M529.2,724.5H767.9V709.4H529.2v15.1Z" class="g0_323"/>
<path fill-rule="evenodd" d="M529.2,739.5H767.9v-15H529.2v15Z" class="g0_323"/>
<path fill-rule="evenodd" d="M529.2,754.5H767.9v-15H529.2v15Z" class="g0_323"/>
<path fill-rule="evenodd" d="M529.2,769.6H767.9V754.5H529.2v15.1Z" class="g0_323"/>
<path fill-rule="evenodd" d="M529.2,784.6h238v-15h-238v15Z" class="g0_323"/>
<path fill-rule="evenodd" d="M529.2,799.6h238v-15h-238v15Z" class="g0_323"/>
<path fill-rule="evenodd" d="M529.2,814.7h238V799.6h-238v15.1Z" class="g0_323"/>
<path fill-rule="evenodd" d="M529.2,829.7H767.6v-15H529.2v15Z" class="g0_323"/>
<path fill-rule="evenodd" d="M529.2,844.8H767.6V829.7H529.2v15.1Z" class="g0_323"/>
<path fill-rule="evenodd" d="M529.2,859.8H767.6v-15H529.2v15Z" class="g0_323"/>
<path fill-rule="evenodd" d="M529.2,875H767.6V859.8H529.2V875Z" class="g0_323"/>
<path fill-rule="evenodd" d="M547.2,890.1H769.4V875H547.2v15.1Z" class="g0_323"/>
<path d="M185.2,205.3V338" class="g1_323"/>
<path d="M186.6,239V961.4" class="g2_323"/>
<path d="M199.8,97.5V897.2" class="g3_323"/>
<path d="M205.3,112.8V659.5M518.5,153.2V922.4" class="g4_323"/>
</svg>