<?xml version="1.0" encoding="UTF-8" standalone="no"?>
<!DOCTYPE svg PUBLIC "-//W3C//DTD SVG 1.1//EN"
"http://www.w3.org/Graphics/SVG/1.1/DTD/svg11.dtd">
<svg viewBox="0 0 909 1285" version="1.1" xmlns="http://www.w3.org/2000/svg" xmlns:xlink="http://www.w3.org/1999/xlink">
<defs>
<style type="text/css"><![CDATA[
.g0_227{
fill: #FFFFFF;
}
.g1_227{
fill: none;
stroke: #000000;
stroke-width: 0.381;
stroke-linecap: butt;
stroke-linejoin: round;
}
]]></style>
</defs>
<path fill-rule="evenodd" d="M256.3,125.8h501V110h-501v15.8Z" class="g0_227"/>
<path fill-rule="evenodd" d="M256.3,161.7H496.2v-15H256.3v15Z" class="g0_227"/>
<path fill-rule="evenodd" d="M256.3,176.9H496.2V161.7H256.3v15.2Z" class="g0_227"/>
<path fill-rule="evenodd" d="M256.3,192H496.2V176.9H256.3V192Z" class="g0_227"/>
<path fill-rule="evenodd" d="M256.3,207H496.2V192H256.3v15Z" class="g0_227"/>
<path fill-rule="evenodd" d="M256.3,222H496.6V207H256.3v15Z" class="g0_227"/>
<path fill-rule="evenodd" d="M256.3,237.1H496.6V222H256.3v15.1Z" class="g0_227"/>
<path fill-rule="evenodd" d="M256.3,252.1H496.6v-15H256.3v15Z" class="g0_227"/>
<path fill-rule="evenodd" d="M256.3,267.1H496.2v-15H256.3v15Z" class="g0_227"/>
<path fill-rule="evenodd" d="M256.3,282.2H496.2V267.1H256.3v15.1Z" class="g0_227"/>
<path fill-rule="evenodd" d="M256.3,297.2H496.6v-15H256.3v15Z" class="g0_227"/>
<path fill-rule="evenodd" d="M256.3,312.2H496.6v-15H256.3v15Z" class="g0_227"/>
<path fill-rule="evenodd" d="M256.3,327.3H496.6V312.2H256.3v15.1Z" class="g0_227"/>
<path fill-rule="evenodd" d="M256.3,342.5H496.6V327.3H256.3v15.2Z" class="g0_227"/>
<path fill-rule="evenodd" d="M256.3,357.6H496.6V342.5H256.3v15.1Z" class="g0_227"/>
<path fill-rule="evenodd" d="M256.3,372.6H496.6v-15H256.3v15Z" class="g0_227"/>
<path fill-rule="evenodd" d="M256.3,387.6H496.6v-15H256.3v15Z" class="g0_227"/>
<path fill-rule="evenodd" d="M256.3,402.7H496.6V387.6H256.3v15.1Z" class="g0_227"/>
<path fill-rule="evenodd" d="M256.3,417.7H496.6v-15H256.3v15Z" class="g0_227"/>
<path fill-rule="evenodd" d="M255.6,432.7H496.2v-15H255.6v15Z" class="g0_227"/>
<path fill-rule="evenodd" d="M255.6,447.8H496.2V432.7H255.6v15.1Z" class="g0_227"/>
<path fill-rule="evenodd" d="M255.6,462.8H496.2v-15H255.6v15Z" class="g0_227"/>
<path fill-rule="evenodd" d="M255.6,477.8H496.2v-15H255.6v15Z" class="g0_227"/>
<path fill-rule="evenodd" d="M256,492.9H495.8V477.8H256v15.1Z" class="g0_227"/>
<path fill-rule="evenodd" d="M256,507.9H495.8v-15H256v15Z" class="g0_227"/>
<path fill-rule="evenodd" d="M256,523.1H495.8V507.9H256v15.2Z" class="g0_227"/>
<path fill-rule="evenodd" d="M256,538.2H495.8V523.1H256v15.1Z" class="g0_227"/>
<path fill-rule="evenodd" d="M255.6,553.2H496.2v-15H255.6v15Z" class="g0_227"/>
<path fill-rule="evenodd" d="M255.6,568.2H496.2v-15H255.6v15Z" class="g0_227"/>
<path fill-rule="evenodd" d="M255.6,583.3H496.2V568.2H255.6v15.1Z" class="g0_227"/>
<path fill-rule="evenodd" d="M255.6,598.3h241v-15h-241v15Z" class="g0_227"/>
<path fill-rule="evenodd" d="M255.6,613.4h241V598.3h-241v15.1Z" class="g0_227"/>
<path fill-rule="evenodd" d="M255.6,628.4h241v-15h-241v15Z" class="g0_227"/>
<path fill-rule="evenodd" d="M255.6,643.4h241v-15h-241v15Z" class="g0_227"/>
<path fill-rule="evenodd" d="M255.6,658.5h241V643.4h-241v15.1Z" class="g0_227"/>
<path fill-rule="evenodd" d="M256,673.5H495.8v-15H256v15Z" class="g0_227"/>
<path fill-rule="evenodd" d="M256,688.5H495.8v-15H256v15Z" class="g0_227"/>
<path fill-rule="evenodd" d="M255.2,703.7H495.8V688.5H255.2v15.2Z" class="g0_227"/>
<path fill-rule="evenodd" d="M255.2,718.8H495.8V703.7H255.2v15.1Z" class="g0_227"/>
<path fill-rule="evenodd" d="M255.2,733.8H495.8v-15H255.2v15Z" class="g0_227"/>
<path fill-rule="evenodd" d="M255.2,748.8H495.8v-15H255.2v15Z" class="g0_227"/>
<path fill-rule="evenodd" d="M255.2,763.9H495.8V748.8H255.2v15.1Z" class="g0_227"/>
<path fill-rule="evenodd" d="M255.2,778.9H495.8v-15H255.2v15Z" class="g0_227"/>
<path fill-rule="evenodd" d="M255.6,793.9H496.2v-15H255.6v15Z" class="g0_227"/>
<path fill-rule="evenodd" d="M255.6,809H496.2V793.9H255.6V809Z" class="g0_227"/>
<path fill-rule="evenodd" d="M255.6,824H496.2V809H255.6v15Z" class="g0_227"/>
<path fill-rule="evenodd" d="M255.6,839.1H496.2V824H255.6v15.1Z" class="g0_227"/>
<path fill-rule="evenodd" d="M274.3,854.1H496.6v-15H274.3v15Z" class="g0_227"/>
<path fill-rule="evenodd" d="M255.6,869.2H495.1V854.1H255.6v15.1Z" class="g0_227"/>
<path fill-rule="evenodd" d="M255.6,884.4H495.1V869.2H255.6v15.2Z" class="g0_227"/>
<path fill-rule="evenodd" d="M275.1,899.4H496.6v-15H275.1v15Z" class="g0_227"/>
<path fill-rule="evenodd" d="M535.4,161.4H757.3V146.3H535.4v15.1Z" class="g0_227"/>
<path fill-rule="evenodd" d="M517.1,176.4H756.9v-15H517.1v15Z" class="g0_227"/>
<path fill-rule="evenodd" d="M517.1,191.6H756.9V176.4H517.1v15.2Z" class="g0_227"/>
<path fill-rule="evenodd" d="M517.1,206.6H756.9v-15H517.1v15Z" class="g0_227"/>
<path fill-rule="evenodd" d="M535.4,221.7H757.3V206.6H535.4v15.1Z" class="g0_227"/>
<path fill-rule="evenodd" d="M517.1,236.7H756.9v-15H517.1v15Z" class="g0_227"/>
<path fill-rule="evenodd" d="M517.1,251.7H756.9v-15H517.1v15Z" class="g0_227"/>
<path fill-rule="evenodd" d="M517.1,266.8H756.9V251.7H517.1v15.1Z" class="g0_227"/>
<path fill-rule="evenodd" d="M517.1,281.8H756.9v-15H517.1v15Z" class="g0_227"/>
<path fill-rule="evenodd" d="M517.1,296.8H757.3v-15H517.1v15Z" class="g0_227"/>
<path fill-rule="evenodd" d="M517.1,311.9H757.3V296.8H517.1v15.1Z" class="g0_227"/>
<path fill-rule="evenodd" d="M517.1,326.9H757.3v-15H517.1v15Z" class="g0_227"/>
<path fill-rule="evenodd" d="M517.1,341.9H757.3v-15H517.1v15Z" class="g0_227"/>
<path fill-rule="evenodd" d="M517.1,357.2H757.3V342H517.1v15.2Z" class="g0_227"/>
<path fill-rule="evenodd" d="M517.1,372.2H757.3v-15H517.1v15Z" class="g0_227"/>
<path fill-rule="evenodd" d="M516.7,387.6H756.9v-15H516.7v15Z" class="g0_227"/>
<path fill-rule="evenodd" d="M516.7,402.7H756.9V387.6H516.7v15.1Z" class="g0_227"/>
<path fill-rule="evenodd" d="M516.7,417.7H756.9v-15H516.7v15Z" class="g0_227"/>
<path fill-rule="evenodd" d="M516.7,432.7H756.9v-15H516.7v15Z" class="g0_227"/>
<path fill-rule="evenodd" d="M516.4,447.8H756.6V432.7H516.4v15.1Z" class="g0_227"/>
<path fill-rule="evenodd" d="M516.4,462.8H756.6v-15H516.4v15Z" class="g0_227"/>
<path fill-rule="evenodd" d="M516.4,477.8H756.6v-15H516.4v15Z" class="g0_227"/>
<path fill-rule="evenodd" d="M516.7,492.9H756.6V477.8H516.7v15.1Z" class="g0_227"/>
<path fill-rule="evenodd" d="M516.7,507.9H756.6v-15H516.7v15Z" class="g0_227"/>
<path fill-rule="evenodd" d="M516.4,523.1H756.9V507.9H516.4v15.2Z" class="g0_227"/>
<path fill-rule="evenodd" d="M516.4,538.2H756.9V523.1H516.4v15.1Z" class="g0_227"/>
<path fill-rule="evenodd" d="M516.4,553.2H756.9v-15H516.4v15Z" class="g0_227"/>
<path fill-rule="evenodd" d="M516.4,568.2H756.9v-15H516.4v15Z" class="g0_227"/>
<path fill-rule="evenodd" d="M516.4,583.3H756.9V568.2H516.4v15.1Z" class="g0_227"/>
<path fill-rule="evenodd" d="M516.7,598.3H756.6v-15H516.7v15Z" class="g0_227"/>
<path fill-rule="evenodd" d="M516.7,613.4H756.6V598.3H516.7v15.1Z" class="g0_227"/>
<path fill-rule="evenodd" d="M516.7,628.4H756.6v-15H516.7v15Z" class="g0_227"/>
<path fill-rule="evenodd" d="M516,643.4H756.9v-15H516v15Z" class="g0_227"/>
<path fill-rule="evenodd" d="M516,658.5H756.9V643.4H516v15.1Z" class="g0_227"/>
<path fill-rule="evenodd" d="M516,673.5H756.9v-15H516v15Z" class="g0_227"/>
<path fill-rule="evenodd" d="M516,688.5H756.2v-15H516v15Z" class="g0_227"/>
<path fill-rule="evenodd" d="M516,703.7H756.2V688.5H516v15.2Z" class="g0_227"/>
<path fill-rule="evenodd" d="M534.3,718.8h223V703.7h-223v15.1Z" class="g0_227"/>
<path fill-rule="evenodd" d="M516,733.8H756.2v-15H516v15Z" class="g0_227"/>
<path fill-rule="evenodd" d="M516,748.8H756.2v-15H516v15Z" class="g0_227"/>
<path fill-rule="evenodd" d="M516,763.9H756.2V748.8H516v15.1Z" class="g0_227"/>
<path fill-rule="evenodd" d="M516,778.9H756.6v-15H516v15Z" class="g0_227"/>
<path fill-rule="evenodd" d="M516,793.9H756.6v-15H516v15Z" class="g0_227"/>
<path fill-rule="evenodd" d="M516,809H756.6V793.9H516V809Z" class="g0_227"/>
<path fill-rule="evenodd" d="M516,824H756.6V809H516v15Z" class="g0_227"/>
<path fill-rule="evenodd" d="M516,839.1H756.6V824H516v15.1Z" class="g0_227"/>
<path fill-rule="evenodd" d="M516,854.1H756.6v-15H516v15Z" class="g0_227"/>
<path fill-rule="evenodd" d="M515.6,869.2h241V854.1h-241v15.1Z" class="g0_227"/>
<path fill-rule="evenodd" d="M515.6,884.4h241V869.2h-241v15.2Z" class="g0_227"/>
<path fill-rule="evenodd" d="M515.6,899.4h241v-15h-241v15Z" class="g0_227"/>
<path d="M204.6,99.8V387.2M199.5,114.7V221.1m7,21V910.9M506,147.8V916.7" class="g1_227"/>
</svg>