<?xml version="1.0" encoding="UTF-8" standalone="no"?>
<!DOCTYPE svg PUBLIC "-//W3C//DTD SVG 1.1//EN"
"http://www.w3.org/Graphics/SVG/1.1/DTD/svg11.dtd">
<svg viewBox="0 0 909 1285" version="1.1" xmlns="http://www.w3.org/2000/svg" xmlns:xlink="http://www.w3.org/1999/xlink">
<defs>
<style type="text/css"><![CDATA[
.g0_131{
fill: #FFFFFF;
}
.g1_131{
fill: none;
stroke: #000000;
stroke-width: 0.381;
stroke-linecap: butt;
stroke-linejoin: round;
}
]]></style>
</defs>
<path fill-rule="evenodd" d="M552.9,125.8h139V110h-139v15.8Z" class="g0_131"/>
<path fill-rule="evenodd" d="M191.6,162.5H431.1V147.4H191.6v15.1Z" class="g0_131"/>
<path fill-rule="evenodd" d="M191.6,177.5H431.1v-15H191.6v15Z" class="g0_131"/>
<path fill-rule="evenodd" d="M191.6,192.5H431.1v-15H191.6v15Z" class="g0_131"/>
<path fill-rule="evenodd" d="M191.6,207.6H431.1V192.5H191.6v15.1Z" class="g0_131"/>
<path fill-rule="evenodd" d="M209.9,222.8H431.1V207.6H209.9v15.2Z" class="g0_131"/>
<path fill-rule="evenodd" d="M191.6,237.8H431.1v-15H191.6v15Z" class="g0_131"/>
<path fill-rule="evenodd" d="M191.6,252.8H431.1v-15H191.6v15Z" class="g0_131"/>
<path fill-rule="evenodd" d="M191.6,267.9H431.1V252.8H191.6v15.1Z" class="g0_131"/>
<path fill-rule="evenodd" d="M191.6,282.9H431.1v-15H191.6v15Z" class="g0_131"/>
<path fill-rule="evenodd" d="M191.6,297.9H431.1v-15H191.6v15Z" class="g0_131"/>
<path fill-rule="evenodd" d="M191.6,313H431.1V297.9H191.6V313Z" class="g0_131"/>
<path fill-rule="evenodd" d="M191.6,328H431.1V313H191.6v15Z" class="g0_131"/>
<path fill-rule="evenodd" d="M191.6,343H431.1V328H191.6v15Z" class="g0_131"/>
<path fill-rule="evenodd" d="M191.6,358.1H431.1v-15H191.6v15Z" class="g0_131"/>
<path fill-rule="evenodd" d="M192.3,373.2H431.1V358.1H192.3v15.1Z" class="g0_131"/>
<path fill-rule="evenodd" d="M451.8,162.1H691.7v-15H451.8v15Z" class="g0_131"/>
<path fill-rule="evenodd" d="M451.8,177.1H691.7v-15H451.8v15Z" class="g0_131"/>
<path fill-rule="evenodd" d="M452.2,192.2H691.7V177.1H452.2v15.1Z" class="g0_131"/>
<path fill-rule="evenodd" d="M452.2,207.2H691.7v-15H452.2v15Z" class="g0_131"/>
<path fill-rule="evenodd" d="M451.5,222.2H691.7v-15H451.5v15Z" class="g0_131"/>
<path fill-rule="evenodd" d="M451.5,237.4H691.7V222.2H451.5v15.2Z" class="g0_131"/>
<path fill-rule="evenodd" d="M451.5,252.5H691.7V237.4H451.5v15.1Z" class="g0_131"/>
<path fill-rule="evenodd" d="M451.5,267.5H691.7v-15H451.5v15Z" class="g0_131"/>
<path fill-rule="evenodd" d="M451.8,282.5H691.7v-15H451.8v15Z" class="g0_131"/>
<path fill-rule="evenodd" d="M451.8,297.6H691.7V282.5H451.8v15.1Z" class="g0_131"/>
<path fill-rule="evenodd" d="M451.8,312.6H691.7v-15H451.8v15Z" class="g0_131"/>
<path fill-rule="evenodd" d="M451.8,327.6H691.7v-15H451.8v15Z" class="g0_131"/>
<path fill-rule="evenodd" d="M451.1,342.7H691.7V327.6H451.1v15.1Z" class="g0_131"/>
<path fill-rule="evenodd" d="M451.1,357.8H691.7V342.7H451.1v15.1Z" class="g0_131"/>
<path fill-rule="evenodd" d="M427.4,439.3H691.9V408.4H427.4v30.9Z" class="g0_131"/>
<path fill-rule="evenodd" d="M190.9,477.5H430.3V462.1H190.9v15.4Z" class="g0_131"/>
<path fill-rule="evenodd" d="M190.9,492.9H430.3V477.5H190.9v15.4Z" class="g0_131"/>
<path fill-rule="evenodd" d="M190.9,508.3H430.3V492.9H190.9v15.4Z" class="g0_131"/>
<path fill-rule="evenodd" d="M190.9,523.7H430.3V508.3H190.9v15.4Z" class="g0_131"/>
<path fill-rule="evenodd" d="M190.9,539.1H430.3V523.7H190.9v15.4Z" class="g0_131"/>
<path fill-rule="evenodd" d="M190.9,554.7H430.3V539.1H190.9v15.6Z" class="g0_131"/>
<path fill-rule="evenodd" d="M209.6,570.1H430.3V554.7H209.6v15.4Z" class="g0_131"/>
<path fill-rule="evenodd" d="M190.9,585.5H430V570.1H190.9v15.4Z" class="g0_131"/>
<path fill-rule="evenodd" d="M190.9,600.9H430V585.5H190.9v15.4Z" class="g0_131"/>
<path fill-rule="evenodd" d="M190.9,616.3H430V600.9H190.9v15.4Z" class="g0_131"/>
<path fill-rule="evenodd" d="M190.9,631.7H430V616.3H190.9v15.4Z" class="g0_131"/>
<path fill-rule="evenodd" d="M209.2,647.3H430.3V631.7H209.2v15.6Z" class="g0_131"/>
<path fill-rule="evenodd" d="M190.9,662.7H429.6V647.3H190.9v15.4Z" class="g0_131"/>
<path fill-rule="evenodd" d="M190.9,678.1H429.6V662.7H190.9v15.4Z" class="g0_131"/>
<path fill-rule="evenodd" d="M209.2,693.5H430.3V678.1H209.2v15.4Z" class="g0_131"/>
<path fill-rule="evenodd" d="M190.5,708.9H430.3V693.5H190.5v15.4Z" class="g0_131"/>
<path fill-rule="evenodd" d="M190.5,724.3H430.3V708.9H190.5v15.4Z" class="g0_131"/>
<path fill-rule="evenodd" d="M190.5,739.9H430.3V724.3H190.5v15.6Z" class="g0_131"/>
<path fill-rule="evenodd" d="M190.5,755.3H430.3V739.9H190.5v15.4Z" class="g0_131"/>
<path fill-rule="evenodd" d="M190.5,770.7H430.3V755.3H190.5v15.4Z" class="g0_131"/>
<path fill-rule="evenodd" d="M190.5,786.1H430.3V770.7H190.5v15.4Z" class="g0_131"/>
<path fill-rule="evenodd" d="M190.5,801.5H430.3V786.1H190.5v15.4Z" class="g0_131"/>
<path fill-rule="evenodd" d="M190.9,816.9H429.6V801.5H190.9v15.4Z" class="g0_131"/>
<path fill-rule="evenodd" d="M190.9,832.5H429.6V816.9H190.9v15.6Z" class="g0_131"/>
<path fill-rule="evenodd" d="M190.9,847.9H429.6V832.5H190.9v15.4Z" class="g0_131"/>
<path fill-rule="evenodd" d="M190.9,863.3H429.6V847.9H190.9v15.4Z" class="g0_131"/>
<path fill-rule="evenodd" d="M190.9,878.7H429.6V863.3H190.9v15.4Z" class="g0_131"/>
<path fill-rule="evenodd" d="M190.5,894.1h187V878.7h-187v15.4Z" class="g0_131"/>
<path fill-rule="evenodd" d="M190.5,909.5h187V894.1h-187v15.4Z" class="g0_131"/>
<path fill-rule="evenodd" d="M209.9,924.7H430.3V909.5H209.9v15.2Z" class="g0_131"/>
<path fill-rule="evenodd" d="M470.2,477.1H691.3v-15H470.2v15Z" class="g0_131"/>
<path fill-rule="evenodd" d="M451.5,492.1H691.3v-15H451.5v15Z" class="g0_131"/>
<path fill-rule="evenodd" d="M451.5,507.2H691.3V492.1H451.5v15.1Z" class="g0_131"/>
<path fill-rule="evenodd" d="M451.5,522.2H691.3v-15H451.5v15Z" class="g0_131"/>
<path fill-rule="evenodd" d="M451.5,537.2H691.3v-15H451.5v15Z" class="g0_131"/>
<path fill-rule="evenodd" d="M451.5,552.3H691.3V537.2H451.5v15.1Z" class="g0_131"/>
<path fill-rule="evenodd" d="M451.5,567.3H691.3v-15H451.5v15Z" class="g0_131"/>
<path fill-rule="evenodd" d="M451.5,582.3H691.3v-15H451.5v15Z" class="g0_131"/>
<path fill-rule="evenodd" d="M451.1,597.4H638.5V582.3H451.1v15.1Z" class="g0_131"/>
<path fill-rule="evenodd" d="M451.1,612.4H638.5v-15H451.1v15Z" class="g0_131"/>
<path fill-rule="evenodd" d="M451.1,627.7H690.9V612.4H451.1v15.3Z" class="g0_131"/>
<path fill-rule="evenodd" d="M451.1,642.7H690.9v-15H451.1v15Z" class="g0_131"/>
<path fill-rule="evenodd" d="M451.1,657.7H690.9v-15H451.1v15Z" class="g0_131"/>
<path fill-rule="evenodd" d="M451.1,672.8H690.9V657.7H451.1v15.1Z" class="g0_131"/>
<path fill-rule="evenodd" d="M451.1,687.8H690.9v-15H451.1v15Z" class="g0_131"/>
<path fill-rule="evenodd" d="M451.1,702.8H638.5v-15H451.1v15Z" class="g0_131"/>
<path fill-rule="evenodd" d="M451.1,717.9H638.5V702.8H451.1v15.1Z" class="g0_131"/>
<path fill-rule="evenodd" d="M450.7,732.9H690.9v-15H450.7v15Z" class="g0_131"/>
<path fill-rule="evenodd" d="M450.7,747.9H690.9v-15H450.7v15Z" class="g0_131"/>
<path fill-rule="evenodd" d="M450.7,763H690.9V747.9H450.7V763Z" class="g0_131"/>
<path fill-rule="evenodd" d="M450.7,778H690.9V763H450.7v15Z" class="g0_131"/>
<path fill-rule="evenodd" d="M450.7,793H690.9V778H450.7v15Z" class="g0_131"/>
<path fill-rule="evenodd" d="M450.7,808.2H690.9V793H450.7v15.2Z" class="g0_131"/>
<path fill-rule="evenodd" d="M450.7,823.3H690.9V808.2H450.7v15.1Z" class="g0_131"/>
<path fill-rule="evenodd" d="M450.7,838.4H690.9V823.3H450.7v15.1Z" class="g0_131"/>
<path fill-rule="evenodd" d="M450.7,853.4H690.9v-15H450.7v15Z" class="g0_131"/>
<path fill-rule="evenodd" d="M451.1,868.4H690.2v-15H451.1v15Z" class="g0_131"/>
<path fill-rule="evenodd" d="M451.1,883.5H690.2V868.4H451.1v15.1Z" class="g0_131"/>
<path fill-rule="evenodd" d="M428.5,942.1H691.9V924.5H428.5v17.6Z" class="g0_131"/>
<path d="M440.8,146.7V403m-1.4,58.2V914.8" class="g1_131"/>
</svg>