<?xml version="1.0" encoding="UTF-8" standalone="no"?>
<!DOCTYPE svg PUBLIC "-//W3C//DTD SVG 1.1//EN"
"http://www.w3.org/Graphics/SVG/1.1/DTD/svg11.dtd">
<svg viewBox="0 0 909 1285" version="1.1" xmlns="http://www.w3.org/2000/svg" xmlns:xlink="http://www.w3.org/1999/xlink">
<defs>
<style type="text/css"><![CDATA[
.g0_298{
fill: #FFFFFF;
}
.g1_298{
fill: none;
stroke: #000000;
stroke-width: 0.381;
stroke-linecap: butt;
stroke-linejoin: round;
}
]]></style>
</defs>
<path fill-rule="evenodd" d="M603.1,125.8h80.3V110H603.1v15.8Z" class="g0_298"/>
<path fill-rule="evenodd" d="M182.8,161.4H422.3V146.3H182.8v15.1Z" class="g0_298"/>
<path fill-rule="evenodd" d="M182.8,176.4H422.3v-15H182.8v15Z" class="g0_298"/>
<path fill-rule="evenodd" d="M182.8,191.6H422.3V176.4H182.8v15.2Z" class="g0_298"/>
<path fill-rule="evenodd" d="M181.3,206.6h241v-15h-241v15Z" class="g0_298"/>
<path fill-rule="evenodd" d="M181.3,221.7h241V206.6h-241v15.1Z" class="g0_298"/>
<path fill-rule="evenodd" d="M181.3,236.7h241v-15h-241v15Z" class="g0_298"/>
<path fill-rule="evenodd" d="M181.3,251.7h241v-15h-241v15Z" class="g0_298"/>
<path fill-rule="evenodd" d="M181.3,266.8h241V251.7h-241v15.1Z" class="g0_298"/>
<path fill-rule="evenodd" d="M181.3,281.8h241v-15h-241v15Z" class="g0_298"/>
<path fill-rule="evenodd" d="M181.3,296.8h241v-15h-241v15Z" class="g0_298"/>
<path fill-rule="evenodd" d="M181.3,311.9h241V296.8h-241v15.1Z" class="g0_298"/>
<path fill-rule="evenodd" d="M181.3,326.9h241v-15h-241v15Z" class="g0_298"/>
<path fill-rule="evenodd" d="M200.4,341.9H422.3v-15H200.4v15Z" class="g0_298"/>
<path fill-rule="evenodd" d="M181.7,357.2H421.9V342H181.7v15.2Z" class="g0_298"/>
<path fill-rule="evenodd" d="M181.7,372.2H421.9v-15H181.7v15Z" class="g0_298"/>
<path fill-rule="evenodd" d="M181.7,387.3H421.9V372.2H181.7v15.1Z" class="g0_298"/>
<path fill-rule="evenodd" d="M181.7,402.3H421.9v-15H181.7v15Z" class="g0_298"/>
<path fill-rule="evenodd" d="M181.7,417.3H421.9v-15H181.7v15Z" class="g0_298"/>
<path fill-rule="evenodd" d="M181.7,432.4H421.9V417.3H181.7v15.1Z" class="g0_298"/>
<path fill-rule="evenodd" d="M181.3,447.4H420.8v-15H181.3v15Z" class="g0_298"/>
<path fill-rule="evenodd" d="M181.3,462.4H420.8v-15H181.3v15Z" class="g0_298"/>
<path fill-rule="evenodd" d="M181.7,477.5H369.5V462.4H181.7v15.1Z" class="g0_298"/>
<path fill-rule="evenodd" d="M181.7,492.5H369.5v-15H181.7v15Z" class="g0_298"/>
<path fill-rule="evenodd" d="M180.6,507.5H422.3v-15H180.6v15Z" class="g0_298"/>
<path fill-rule="evenodd" d="M180.6,522.6H422.3V507.5H180.6v15.1Z" class="g0_298"/>
<path fill-rule="evenodd" d="M180.6,537.8H422.3V522.6H180.6v15.2Z" class="g0_298"/>
<path fill-rule="evenodd" d="M180.6,552.8H422.3v-15H180.6v15Z" class="g0_298"/>
<path fill-rule="evenodd" d="M180.6,567.9H422.3V552.8H180.6v15.1Z" class="g0_298"/>
<path fill-rule="evenodd" d="M180.6,582.9H422.3v-15H180.6v15Z" class="g0_298"/>
<path fill-rule="evenodd" d="M180.6,598H422.3V582.9H180.6V598Z" class="g0_298"/>
<path fill-rule="evenodd" d="M180.6,613H422.3V598H180.6v15Z" class="g0_298"/>
<path fill-rule="evenodd" d="M180.6,628H422.3V613H180.6v15Z" class="g0_298"/>
<path fill-rule="evenodd" d="M180.6,643.1H420.1V628H180.6v15.1Z" class="g0_298"/>
<path fill-rule="evenodd" d="M180.6,658.1H420.1v-15H180.6v15Z" class="g0_298"/>
<path fill-rule="evenodd" d="M180.6,673.1H420.1v-15H180.6v15Z" class="g0_298"/>
<path fill-rule="evenodd" d="M180.6,688.2H420.1V673.1H180.6v15.1Z" class="g0_298"/>
<path fill-rule="evenodd" d="M180.6,703.2H420.1v-15H180.6v15Z" class="g0_298"/>
<path fill-rule="evenodd" d="M180.6,718.4H420.1V703.2H180.6v15.2Z" class="g0_298"/>
<path fill-rule="evenodd" d="M180.6,733.4H420.1v-15H180.6v15Z" class="g0_298"/>
<path fill-rule="evenodd" d="M180.6,748.5H420.1V733.4H180.6v15.1Z" class="g0_298"/>
<path fill-rule="evenodd" d="M180.6,763.5H420.1v-15H180.6v15Z" class="g0_298"/>
<path fill-rule="evenodd" d="M179.5,778.5H420.1v-15H179.5v15Z" class="g0_298"/>
<path fill-rule="evenodd" d="M179.5,793.6H420.1V778.5H179.5v15.1Z" class="g0_298"/>
<path fill-rule="evenodd" d="M179.5,808.6H420.1v-15H179.5v15Z" class="g0_298"/>
<path fill-rule="evenodd" d="M179.5,823.6H420.1v-15H179.5v15Z" class="g0_298"/>
<path fill-rule="evenodd" d="M179.5,838.7H420.1V823.6H179.5v15.1Z" class="g0_298"/>
<path fill-rule="evenodd" d="M179.5,853.8H420.1V838.7H179.5v15.1Z" class="g0_298"/>
<path fill-rule="evenodd" d="M179.5,868.8H420.1v-15H179.5v15Z" class="g0_298"/>
<path fill-rule="evenodd" d="M179.5,883.8H420.1v-15H179.5v15Z" class="g0_298"/>
<path fill-rule="evenodd" d="M182.4,899H421.9V883.8H182.4V899Z" class="g0_298"/>
<path fill-rule="evenodd" d="M443.2,161.4H683.1V146.3H443.2v15.1Z" class="g0_298"/>
<path fill-rule="evenodd" d="M443.2,176.4H683.1v-15H443.2v15Z" class="g0_298"/>
<path fill-rule="evenodd" d="M442.8,191.6H683.1V176.4H442.8v15.2Z" class="g0_298"/>
<path fill-rule="evenodd" d="M442.8,206.6H683.1v-15H442.8v15Z" class="g0_298"/>
<path fill-rule="evenodd" d="M442.8,221.7H683.1V206.6H442.8v15.1Z" class="g0_298"/>
<path fill-rule="evenodd" d="M442.8,236.7H683.1v-15H442.8v15Z" class="g0_298"/>
<path fill-rule="evenodd" d="M442.8,251.7H683.1v-15H442.8v15Z" class="g0_298"/>
<path fill-rule="evenodd" d="M442.8,266.8H683.1V251.7H442.8v15.1Z" class="g0_298"/>
<path fill-rule="evenodd" d="M442.5,281.8H683.1v-15H442.5v15Z" class="g0_298"/>
<path fill-rule="evenodd" d="M442.5,296.8H683.1v-15H442.5v15Z" class="g0_298"/>
<path fill-rule="evenodd" d="M442.5,311.9H683.1V296.8H442.5v15.1Z" class="g0_298"/>
<path fill-rule="evenodd" d="M442.5,326.9H683.1v-15H442.5v15Z" class="g0_298"/>
<path fill-rule="evenodd" d="M442.5,341.9H683.1v-15H442.5v15Z" class="g0_298"/>
<path fill-rule="evenodd" d="M441.7,357.2H683.4V342H441.7v15.2Z" class="g0_298"/>
<path fill-rule="evenodd" d="M441.7,372.2H683.4v-15H441.7v15Z" class="g0_298"/>
<path fill-rule="evenodd" d="M441.7,387.3H683.4V372.2H441.7v15.1Z" class="g0_298"/>
<path fill-rule="evenodd" d="M441.7,402.3H683.4v-15H441.7v15Z" class="g0_298"/>
<path fill-rule="evenodd" d="M441.7,417.3H683.4v-15H441.7v15Z" class="g0_298"/>
<path fill-rule="evenodd" d="M441.7,432.4H682.3V417.3H441.7v15.1Z" class="g0_298"/>
<path fill-rule="evenodd" d="M441.7,447.4H682.3v-15H441.7v15Z" class="g0_298"/>
<path fill-rule="evenodd" d="M441.7,462.4H682.3v-15H441.7v15Z" class="g0_298"/>
<path fill-rule="evenodd" d="M441.7,477.5H682.3V462.4H441.7v15.1Z" class="g0_298"/>
<path fill-rule="evenodd" d="M441.7,492.5H682.3v-15H441.7v15Z" class="g0_298"/>
<path fill-rule="evenodd" d="M441.4,507.5H682.3v-15H441.4v15Z" class="g0_298"/>
<path fill-rule="evenodd" d="M441.4,522.6H682.3V507.5H441.4v15.1Z" class="g0_298"/>
<path fill-rule="evenodd" d="M441.4,537.8H682.3V522.6H441.4v15.2Z" class="g0_298"/>
<path fill-rule="evenodd" d="M441.4,552.8H682.3v-15H441.4v15Z" class="g0_298"/>
<path fill-rule="evenodd" d="M441.4,567.9H682.3V552.8H441.4v15.1Z" class="g0_298"/>
<path fill-rule="evenodd" d="M441,582.9H681.6v-15H441v15Z" class="g0_298"/>
<path fill-rule="evenodd" d="M441,598H681.6V582.9H441V598Z" class="g0_298"/>
<path fill-rule="evenodd" d="M441,613H681.6V598H441v15Z" class="g0_298"/>
<path fill-rule="evenodd" d="M441.4,628H681.6V613H441.4v15Z" class="g0_298"/>
<path fill-rule="evenodd" d="M441.4,643.1H681.6V628H441.4v15.1Z" class="g0_298"/>
<path fill-rule="evenodd" d="M441.4,658.1H681.6v-15H441.4v15Z" class="g0_298"/>
<path fill-rule="evenodd" d="M459.4,673.1h224v-15h-224v15Z" class="g0_298"/>
<path fill-rule="evenodd" d="M440.3,688.2H680.9V673.1H440.3v15.1Z" class="g0_298"/>
<path fill-rule="evenodd" d="M440.3,703.2H680.9v-15H440.3v15Z" class="g0_298"/>
<path fill-rule="evenodd" d="M440.3,718.4H680.9V703.2H440.3v15.2Z" class="g0_298"/>
<path fill-rule="evenodd" d="M440.3,733.4H680.9v-15H440.3v15Z" class="g0_298"/>
<path fill-rule="evenodd" d="M441,748.5H680.5V733.4H441v15.1Z" class="g0_298"/>
<path fill-rule="evenodd" d="M441,763.5H680.5v-15H441v15Z" class="g0_298"/>
<path fill-rule="evenodd" d="M440.3,778.9H680.5v-15H440.3v15Z" class="g0_298"/>
<path fill-rule="evenodd" d="M440.3,793.9H680.5v-15H440.3v15Z" class="g0_298"/>
<path fill-rule="evenodd" d="M440.3,809H680.5V793.9H440.3V809Z" class="g0_298"/>
<path fill-rule="evenodd" d="M440.3,824H680.5V809H440.3v15Z" class="g0_298"/>
<path fill-rule="evenodd" d="M440.3,839.1H680.5V824H440.3v15.1Z" class="g0_298"/>
<path fill-rule="evenodd" d="M440.3,854.1H680.5v-15H440.3v15Z" class="g0_298"/>
<path fill-rule="evenodd" d="M440.3,869.2H680.5V854.1H440.3v15.1Z" class="g0_298"/>
<path fill-rule="evenodd" d="M440.3,884.4H680.5V869.2H440.3v15.2Z" class="g0_298"/>
<path fill-rule="evenodd" d="M181,912.6H683.4V896.8H181v15.8Z" class="g0_298"/>
<path d="M429.2,146.4V911.6" class="g1_298"/>
</svg>