<?xml version="1.0" encoding="UTF-8" standalone="no"?>
<!DOCTYPE svg PUBLIC "-//W3C//DTD SVG 1.1//EN"
"http://www.w3.org/Graphics/SVG/1.1/DTD/svg11.dtd">
<svg viewBox="0 0 909 1285" version="1.1" xmlns="http://www.w3.org/2000/svg" xmlns:xlink="http://www.w3.org/1999/xlink">
<defs>
<style type="text/css"><![CDATA[
.g0_320{
fill: #FFFFFF;
}
.g1_320{
fill: none;
stroke: #000000;
stroke-width: 0.381;
stroke-linecap: butt;
stroke-linejoin: round;
}
]]></style>
</defs>
<path fill-rule="evenodd" d="M598.3,131.1h81.8V110H598.3v21.1Z" class="g0_320"/>
<path fill-rule="evenodd" d="M182.1,167h238V152h-238v15Z" class="g0_320"/>
<path fill-rule="evenodd" d="M182.1,182.3h238V167h-238v15.3Z" class="g0_320"/>
<path fill-rule="evenodd" d="M182.4,197.3H420.1v-15H182.4v15Z" class="g0_320"/>
<path fill-rule="evenodd" d="M182.4,212.3H420.1v-15H182.4v15Z" class="g0_320"/>
<path fill-rule="evenodd" d="M181.3,227.4H419.7V212.3H181.3v15.1Z" class="g0_320"/>
<path fill-rule="evenodd" d="M181.3,242.4H419.7v-15H181.3v15Z" class="g0_320"/>
<path fill-rule="evenodd" d="M181.3,257.4H419.7v-15H181.3v15Z" class="g0_320"/>
<path fill-rule="evenodd" d="M181.3,272.5H419.7V257.4H181.3v15.1Z" class="g0_320"/>
<path fill-rule="evenodd" d="M181.3,287.5H420.1v-15H181.3v15Z" class="g0_320"/>
<path fill-rule="evenodd" d="M181.3,302.5H420.1v-15H181.3v15Z" class="g0_320"/>
<path fill-rule="evenodd" d="M181.3,317.6H420.1V302.5H181.3v15.1Z" class="g0_320"/>
<path fill-rule="evenodd" d="M181.3,332.6H420.1v-15H181.3v15Z" class="g0_320"/>
<path fill-rule="evenodd" d="M181.3,347.8H420.1V332.6H181.3v15.2Z" class="g0_320"/>
<path fill-rule="evenodd" d="M181.3,362.9H420.1V347.8H181.3v15.1Z" class="g0_320"/>
<path fill-rule="evenodd" d="M181.3,377.9H419v-15H181.3v15Z" class="g0_320"/>
<path fill-rule="evenodd" d="M181.3,393H419V377.9H181.3V393Z" class="g0_320"/>
<path fill-rule="evenodd" d="M181,408H419.3V393H181v15Z" class="g0_320"/>
<path fill-rule="evenodd" d="M181,423H419.3V408H181v15Z" class="g0_320"/>
<path fill-rule="evenodd" d="M181,438.1H419.3V423H181v15.1Z" class="g0_320"/>
<path fill-rule="evenodd" d="M181,453.1H419.3v-15H181v15Z" class="g0_320"/>
<path fill-rule="evenodd" d="M181,468.1H418.6v-15H181v15Z" class="g0_320"/>
<path fill-rule="evenodd" d="M181,483.2H418.6V468.1H181v15.1Z" class="g0_320"/>
<path fill-rule="evenodd" d="M180.6,498.2H419v-15H180.6v15Z" class="g0_320"/>
<path fill-rule="evenodd" d="M180.6,513.2H419v-15H180.6v15Z" class="g0_320"/>
<path fill-rule="evenodd" d="M180.6,528.4H419V513.2H180.6v15.2Z" class="g0_320"/>
<path fill-rule="evenodd" d="M180.6,543.5h238V528.4h-238v15.1Z" class="g0_320"/>
<path fill-rule="evenodd" d="M180.6,558.5h238v-15h-238v15Z" class="g0_320"/>
<path fill-rule="evenodd" d="M180.2,573.5H419v-15H180.2v15Z" class="g0_320"/>
<path fill-rule="evenodd" d="M180.2,588.6H419V573.5H180.2v15.1Z" class="g0_320"/>
<path fill-rule="evenodd" d="M180.2,603.6H419v-15H180.2v15Z" class="g0_320"/>
<path fill-rule="evenodd" d="M180.2,618.7H419V603.6H180.2v15.1Z" class="g0_320"/>
<path fill-rule="evenodd" d="M180.2,633.7H419v-15H180.2v15Z" class="g0_320"/>
<path fill-rule="evenodd" d="M179.9,648.7H418.6v-15H179.9v15Z" class="g0_320"/>
<path fill-rule="evenodd" d="M179.9,663.8H418.6V648.7H179.9v15.1Z" class="g0_320"/>
<path fill-rule="evenodd" d="M179.9,678.8H418.6v-15H179.9v15Z" class="g0_320"/>
<path fill-rule="evenodd" d="M180.2,693.8H418.6v-15H180.2v15Z" class="g0_320"/>
<path fill-rule="evenodd" d="M180.2,709.1H418.6V693.8H180.2v15.3Z" class="g0_320"/>
<path fill-rule="evenodd" d="M180.2,724.1H418.6v-15H180.2v15Z" class="g0_320"/>
<path fill-rule="evenodd" d="M179.9,739.1H418.2v-15H179.9v15Z" class="g0_320"/>
<path fill-rule="evenodd" d="M179.9,754.2H418.2V739.1H179.9v15.1Z" class="g0_320"/>
<path fill-rule="evenodd" d="M179.9,769.2H418.2v-15H179.9v15Z" class="g0_320"/>
<path fill-rule="evenodd" d="M179.9,784.2H418.2v-15H179.9v15Z" class="g0_320"/>
<path fill-rule="evenodd" d="M179.9,799.3H418.2V784.2H179.9v15.1Z" class="g0_320"/>
<path fill-rule="evenodd" d="M179.9,814.3H418.2v-15H179.9v15Z" class="g0_320"/>
<path fill-rule="evenodd" d="M179.9,829.3H418.2v-15H179.9v15Z" class="g0_320"/>
<path fill-rule="evenodd" d="M179.9,844.4H418.2V829.3H179.9v15.1Z" class="g0_320"/>
<path fill-rule="evenodd" d="M179.9,859.4H418.2v-15H179.9v15Z" class="g0_320"/>
<path fill-rule="evenodd" d="M179.9,874.5H418.2V859.4H179.9v15.1Z" class="g0_320"/>
<path fill-rule="evenodd" d="M181.7,889.7h238V874.5h-238v15.2Z" class="g0_320"/>
<path fill-rule="evenodd" d="M440.6,166.7H679.4V151.6H440.6v15.1Z" class="g0_320"/>
<path fill-rule="evenodd" d="M440.6,181.7H679.4v-15H440.6v15Z" class="g0_320"/>
<path fill-rule="evenodd" d="M440.3,197.3H679.8V182.1H440.3v15.2Z" class="g0_320"/>
<path fill-rule="evenodd" d="M440.3,212.3H679.8v-15H440.3v15Z" class="g0_320"/>
<path fill-rule="evenodd" d="M440.3,227.4H679.8V212.3H440.3v15.1Z" class="g0_320"/>
<path fill-rule="evenodd" d="M458.6,242.4H679.8v-15H458.6v15Z" class="g0_320"/>
<path fill-rule="evenodd" d="M439.5,257.4H679.8v-15H439.5v15Z" class="g0_320"/>
<path fill-rule="evenodd" d="M439.5,272.5H679.8V257.4H439.5v15.1Z" class="g0_320"/>
<path fill-rule="evenodd" d="M439.5,287.5H679.8v-15H439.5v15Z" class="g0_320"/>
<path fill-rule="evenodd" d="M439.5,302.5H679.8v-15H439.5v15Z" class="g0_320"/>
<path fill-rule="evenodd" d="M439.5,317.6H679.8V302.5H439.5v15.1Z" class="g0_320"/>
<path fill-rule="evenodd" d="M439.5,332.6H679.8v-15H439.5v15Z" class="g0_320"/>
<path fill-rule="evenodd" d="M440.3,347.8H679.4V332.6H440.3v15.2Z" class="g0_320"/>
<path fill-rule="evenodd" d="M440.3,362.9H679.4V347.8H440.3v15.1Z" class="g0_320"/>
<path fill-rule="evenodd" d="M440.3,377.9H679.4v-15H440.3v15Z" class="g0_320"/>
<path fill-rule="evenodd" d="M440.3,393H679.4V377.9H440.3V393Z" class="g0_320"/>
<path fill-rule="evenodd" d="M440.3,408H679.4V393H440.3v15Z" class="g0_320"/>
<path fill-rule="evenodd" d="M439.9,423.4H679.4v-15H439.9v15Z" class="g0_320"/>
<path fill-rule="evenodd" d="M439.9,438.4H679.4v-15H439.9v15Z" class="g0_320"/>
<path fill-rule="evenodd" d="M439.9,453.5H679.4V438.4H439.9v15.1Z" class="g0_320"/>
<path fill-rule="evenodd" d="M439.9,468.5H679.4v-15H439.9v15Z" class="g0_320"/>
<path fill-rule="evenodd" d="M439.9,483.5H679.4v-15H439.9v15Z" class="g0_320"/>
<path fill-rule="evenodd" d="M439.5,498.6H679.4V483.5H439.5v15.1Z" class="g0_320"/>
<path fill-rule="evenodd" d="M439.5,513.8H679.4V498.6H439.5v15.2Z" class="g0_320"/>
<path fill-rule="evenodd" d="M439.5,528.8H679.4v-15H439.5v15Z" class="g0_320"/>
<path fill-rule="evenodd" d="M439.5,543.8H679.4v-15H439.5v15Z" class="g0_320"/>
<path fill-rule="evenodd" d="M439.5,558.9H679.4V543.8H439.5v15.1Z" class="g0_320"/>
<path fill-rule="evenodd" d="M439.5,573.9H679.4v-15H439.5v15Z" class="g0_320"/>
<path fill-rule="evenodd" d="M439.5,588.9H679.4v-15H439.5v15Z" class="g0_320"/>
<path fill-rule="evenodd" d="M439.5,604H679.4V588.9H439.5V604Z" class="g0_320"/>
<path fill-rule="evenodd" d="M439.5,619H679.4V604H439.5v15Z" class="g0_320"/>
<path fill-rule="evenodd" d="M458.3,634.1H679.8V619H458.3v15.1Z" class="g0_320"/>
<path fill-rule="evenodd" d="M457.9,649.1H679.8v-15H457.9v15Z" class="g0_320"/>
<path fill-rule="evenodd" d="M439.5,664.1H678.3v-15H439.5v15Z" class="g0_320"/>
<path fill-rule="evenodd" d="M439.5,679.2H678.3V664.1H439.5v15.1Z" class="g0_320"/>
<path fill-rule="evenodd" d="M457.9,694.4H679.8V679.2H457.9v15.2Z" class="g0_320"/>
<path fill-rule="evenodd" d="M439.2,709.8H678.7v-15H439.2v15Z" class="g0_320"/>
<path fill-rule="evenodd" d="M439.2,724.8H678.7v-15H439.2v15Z" class="g0_320"/>
<path fill-rule="evenodd" d="M439.2,739.9H678.7V724.8H439.2v15.1Z" class="g0_320"/>
<path fill-rule="evenodd" d="M439.2,754.9H678.7v-15H439.2v15Z" class="g0_320"/>
<path fill-rule="evenodd" d="M439.5,769.9H679v-15H439.5v15Z" class="g0_320"/>
<path fill-rule="evenodd" d="M439.5,785H679V769.9H439.5V785Z" class="g0_320"/>
<path fill-rule="evenodd" d="M439.2,800H678.7V785H439.2v15Z" class="g0_320"/>
<path fill-rule="evenodd" d="M439.2,815H678.7V800H439.2v15Z" class="g0_320"/>
<path fill-rule="evenodd" d="M439.2,830.1H678.7V815H439.2v15.1Z" class="g0_320"/>
<path fill-rule="evenodd" d="M439.2,845.1H678.7v-15H439.2v15Z" class="g0_320"/>
<path fill-rule="evenodd" d="M439.2,860.4H678.7V845.1H439.2v15.3Z" class="g0_320"/>
<path fill-rule="evenodd" d="M457.2,875.4H679.8v-15H457.2v15Z" class="g0_320"/>
<path fill-rule="evenodd" d="M438.8,890.4H678.7v-15H438.8v15Z" class="g0_320"/>
<path fill-rule="evenodd" d="M438.8,905.5H678.7V890.4H438.8v15.1Z" class="g0_320"/>
<path d="M161.5,78.1v53.1m266.6,20.1v769" class="g1_320"/>
</svg>