<?xml version="1.0" encoding="UTF-8" standalone="no"?>
<!DOCTYPE svg PUBLIC "-//W3C//DTD SVG 1.1//EN"
"http://www.w3.org/Graphics/SVG/1.1/DTD/svg11.dtd">
<svg viewBox="0 0 909 1285" version="1.1" xmlns="http://www.w3.org/2000/svg" xmlns:xlink="http://www.w3.org/1999/xlink">
<defs>
<style type="text/css"><![CDATA[
.g0_74{
fill: #FFFFFF;
}
.g1_74{
fill: none;
stroke: #000000;
stroke-width: 0.381;
stroke-linecap: butt;
stroke-linejoin: round;
}
]]></style>
</defs>
<path fill-rule="evenodd" d="M620,125.8h71.5V110H620v15.8Z" class="g0_74"/>
<path fill-rule="evenodd" d="M190.9,161.7H430V147.1H190.9v14.6Z" class="g0_74"/>
<path fill-rule="evenodd" d="M190.9,176.4H430V161.7H190.9v14.7Z" class="g0_74"/>
<path fill-rule="evenodd" d="M190.1,191.1H430.3V176.4H190.1v14.7Z" class="g0_74"/>
<path fill-rule="evenodd" d="M190.1,205.7H430.3V191.1H190.1v14.6Z" class="g0_74"/>
<path fill-rule="evenodd" d="M190.1,220.4H430.3V205.7H190.1v14.7Z" class="g0_74"/>
<path fill-rule="evenodd" d="M190.1,235.1H430.3V220.4H190.1v14.7Z" class="g0_74"/>
<path fill-rule="evenodd" d="M190.1,249.7H430.3V235.1H190.1v14.6Z" class="g0_74"/>
<path fill-rule="evenodd" d="M190.1,264.4H430.3V249.7H190.1v14.7Z" class="g0_74"/>
<path fill-rule="evenodd" d="M190.1,279.4H430V264.8H190.1v14.6Z" class="g0_74"/>
<path fill-rule="evenodd" d="M190.1,294.1H430V279.4H190.1v14.7Z" class="g0_74"/>
<path fill-rule="evenodd" d="M190.1,308.8H430V294.1H190.1v14.7Z" class="g0_74"/>
<path fill-rule="evenodd" d="M190.1,323.4H430V308.8H190.1v14.6Z" class="g0_74"/>
<path fill-rule="evenodd" d="M190.1,338.1H430V323.4H190.1v14.7Z" class="g0_74"/>
<path fill-rule="evenodd" d="M190.1,352.8H430V338.1H190.1v14.7Z" class="g0_74"/>
<path fill-rule="evenodd" d="M190.1,367.5H430V352.8H190.1v14.7Z" class="g0_74"/>
<path fill-rule="evenodd" d="M190.1,382.1H430V367.5H190.1v14.6Z" class="g0_74"/>
<path fill-rule="evenodd" d="M189.8,396.8H430.3V382.1H189.8v14.7Z" class="g0_74"/>
<path fill-rule="evenodd" d="M189.8,411.5H430.3V396.8H189.8v14.7Z" class="g0_74"/>
<path fill-rule="evenodd" d="M189.8,426.1H430.3V411.5H189.8v14.6Z" class="g0_74"/>
<path fill-rule="evenodd" d="M189.8,440.8H430.3V426.1H189.8v14.7Z" class="g0_74"/>
<path fill-rule="evenodd" d="M208.5,455.5H430.3V440.8H208.5v14.7Z" class="g0_74"/>
<path fill-rule="evenodd" d="M189.8,470.9H429.2V456.2H189.8v14.7Z" class="g0_74"/>
<path fill-rule="evenodd" d="M189.8,485.5H429.2V470.9H189.8v14.6Z" class="g0_74"/>
<path fill-rule="evenodd" d="M189.8,500.2H429.2V485.5H189.8v14.7Z" class="g0_74"/>
<path fill-rule="evenodd" d="M208.1,515.2H430.3V500.6H208.1v14.6Z" class="g0_74"/>
<path fill-rule="evenodd" d="M189.8,530.8H429.2V516H189.8v14.8Z" class="g0_74"/>
<path fill-rule="evenodd" d="M189.8,545.5H429.2V530.8H189.8v14.7Z" class="g0_74"/>
<path fill-rule="evenodd" d="M189,560.9H429.2V546.2H189v14.7Z" class="g0_74"/>
<path fill-rule="evenodd" d="M189,575.6H429.2V560.9H189v14.7Z" class="g0_74"/>
<path fill-rule="evenodd" d="M189,590.2H429.2V575.6H189v14.6Z" class="g0_74"/>
<path fill-rule="evenodd" d="M189,604.9H429.2V590.2H189v14.7Z" class="g0_74"/>
<path fill-rule="evenodd" d="M189,619.6H428.9V604.9H189v14.7Z" class="g0_74"/>
<path fill-rule="evenodd" d="M189,634.3H428.9V619.6H189v14.7Z" class="g0_74"/>
<path fill-rule="evenodd" d="M189,648.9H428.9V634.3H189v14.6Z" class="g0_74"/>
<path fill-rule="evenodd" d="M189,663.6H428.9V648.9H189v14.7Z" class="g0_74"/>
<path fill-rule="evenodd" d="M189,678.3H428.9V663.6H189v14.7Z" class="g0_74"/>
<path fill-rule="evenodd" d="M189,693.3H428.5V678.6H189v14.7Z" class="g0_74"/>
<path fill-rule="evenodd" d="M189,708H428.5V693.3H189V708Z" class="g0_74"/>
<path fill-rule="evenodd" d="M188.7,722.6H428.1V708H188.7v14.6Z" class="g0_74"/>
<path fill-rule="evenodd" d="M188.7,737.3H428.1V722.6H188.7v14.7Z" class="g0_74"/>
<path fill-rule="evenodd" d="M207.4,752H430.3V737.3H207.4V752Z" class="g0_74"/>
<path fill-rule="evenodd" d="M188.7,767H428.9V752.3H188.7V767Z" class="g0_74"/>
<path fill-rule="evenodd" d="M188.7,781.7H428.9V767H188.7v14.7Z" class="g0_74"/>
<path fill-rule="evenodd" d="M188.7,796.3H428.9V781.7H188.7v14.6Z" class="g0_74"/>
<path fill-rule="evenodd" d="M188.3,811.4H427.8V796.7H188.3v14.7Z" class="g0_74"/>
<path fill-rule="evenodd" d="M188.3,826H427.8V811.4H188.3V826Z" class="g0_74"/>
<path fill-rule="evenodd" d="M188.3,840.7H427.8V826H188.3v14.7Z" class="g0_74"/>
<path fill-rule="evenodd" d="M188.3,855.8H428.1V841.1H188.3v14.7Z" class="g0_74"/>
<path fill-rule="evenodd" d="M188.3,870.4H428.1V855.8H188.3v14.6Z" class="g0_74"/>
<path fill-rule="evenodd" d="M188.3,885.1H428.1V870.4H188.3v14.7Z" class="g0_74"/>
<path fill-rule="evenodd" d="M191.6,899.8H430V885.1H191.6v14.7Z" class="g0_74"/>
<path fill-rule="evenodd" d="M451.3,161.7H691.1V147.1H451.3v14.6Z" class="g0_74"/>
<path fill-rule="evenodd" d="M451.3,176.4H691.1V161.7H451.3v14.7Z" class="g0_74"/>
<path fill-rule="evenodd" d="M450.9,191.1H691.1V176.4H450.9v14.7Z" class="g0_74"/>
<path fill-rule="evenodd" d="M450.9,205.7H691.1V191.1H450.9v14.6Z" class="g0_74"/>
<path fill-rule="evenodd" d="M450.9,220.4H691.1V205.7H450.9v14.7Z" class="g0_74"/>
<path fill-rule="evenodd" d="M450.9,235.4H691.5V220.8H450.9v14.6Z" class="g0_74"/>
<path fill-rule="evenodd" d="M450.9,250.1H691.5V235.4H450.9v14.7Z" class="g0_74"/>
<path fill-rule="evenodd" d="M450.2,265.5H691.1V250.8H450.2v14.7Z" class="g0_74"/>
<path fill-rule="evenodd" d="M450.2,280.2H691.1V265.5H450.2v14.7Z" class="g0_74"/>
<path fill-rule="evenodd" d="M450.2,294.8H691.1V280.2H450.2v14.6Z" class="g0_74"/>
<path fill-rule="evenodd" d="M450.2,309.5H691.1V294.8H450.2v14.7Z" class="g0_74"/>
<path fill-rule="evenodd" d="M450.2,324.2H691.1V309.5H450.2v14.7Z" class="g0_74"/>
<path fill-rule="evenodd" d="M450.2,338.8H691.1V324.2H450.2v14.6Z" class="g0_74"/>
<path fill-rule="evenodd" d="M450.2,353.5H691.1V338.8H450.2v14.7Z" class="g0_74"/>
<path fill-rule="evenodd" d="M450.2,368.2H691.1V353.5H450.2v14.7Z" class="g0_74"/>
<path fill-rule="evenodd" d="M450.2,382.9H690.8V368.2H450.2v14.7Z" class="g0_74"/>
<path fill-rule="evenodd" d="M450.2,397.5H690.8V382.9H450.2v14.6Z" class="g0_74"/>
<path fill-rule="evenodd" d="M450.2,412.2H690.8V397.5H450.2v14.7Z" class="g0_74"/>
<path fill-rule="evenodd" d="M450.6,427.8H690V412.9H450.6v14.9Z" class="g0_74"/>
<path fill-rule="evenodd" d="M450.6,442.5H690V427.8H450.6v14.7Z" class="g0_74"/>
<path fill-rule="evenodd" d="M450.2,457.5H690.4V442.8H450.2v14.7Z" class="g0_74"/>
<path fill-rule="evenodd" d="M450.2,472.2H690.4V457.5H450.2v14.7Z" class="g0_74"/>
<path fill-rule="evenodd" d="M450.2,486.8H690.4V472.2H450.2v14.6Z" class="g0_74"/>
<path fill-rule="evenodd" d="M450.2,501.5H690V486.8H450.2v14.7Z" class="g0_74"/>
<path fill-rule="evenodd" d="M450.2,516.2H690V501.5H450.2v14.7Z" class="g0_74"/>
<path fill-rule="evenodd" d="M450.6,531.2H689.7V516.5H450.6v14.7Z" class="g0_74"/>
<path fill-rule="evenodd" d="M450.6,545.9H689.7V531.2H450.6v14.7Z" class="g0_74"/>
<path fill-rule="evenodd" d="M468.2,560.5H691.5V545.9H468.2v14.6Z" class="g0_74"/>
<path fill-rule="evenodd" d="M449.8,575.6H689.7V560.9H449.8v14.7Z" class="g0_74"/>
<path fill-rule="evenodd" d="M449.8,590.2H689.7V575.6H449.8v14.6Z" class="g0_74"/>
<path fill-rule="evenodd" d="M449.5,605.3H689.7V590.6H449.5v14.7Z" class="g0_74"/>
<path fill-rule="evenodd" d="M449.5,620H689.7V605.3H449.5V620Z" class="g0_74"/>
<path fill-rule="evenodd" d="M449.1,635H689.7V620.3H449.1V635Z" class="g0_74"/>
<path fill-rule="evenodd" d="M449.1,649.7H689.7V635H449.1v14.7Z" class="g0_74"/>
<path fill-rule="evenodd" d="M449.1,664.3H689.7V649.7H449.1v14.6Z" class="g0_74"/>
<path fill-rule="evenodd" d="M449.1,679H689.7V664.3H449.1V679Z" class="g0_74"/>
<path fill-rule="evenodd" d="M449.1,693.7H689.7V679H449.1v14.7Z" class="g0_74"/>
<path fill-rule="evenodd" d="M448.7,708.7h241V694h-241v14.7Z" class="g0_74"/>
<path fill-rule="evenodd" d="M448.7,723.4h241V708.7h-241v14.7Z" class="g0_74"/>
<path fill-rule="evenodd" d="M449.8,738H689.3V723.4H449.8V738Z" class="g0_74"/>
<path fill-rule="evenodd" d="M449.8,752.7H689.3V738H449.8v14.7Z" class="g0_74"/>
<path fill-rule="evenodd" d="M449.5,767.7H688.9V753.1H449.5v14.6Z" class="g0_74"/>
<path fill-rule="evenodd" d="M449.5,782.4H688.9V767.7H449.5v14.7Z" class="g0_74"/>
<path fill-rule="evenodd" d="M448,797.4H689.3V782.8H448v14.6Z" class="g0_74"/>
<path fill-rule="evenodd" d="M448,812.1H689.3V797.4H448v14.7Z" class="g0_74"/>
<path fill-rule="evenodd" d="M448,826.8H689.3V812.1H448v14.7Z" class="g0_74"/>
<path fill-rule="evenodd" d="M448,841.5H689.3V826.8H448v14.7Z" class="g0_74"/>
<path fill-rule="evenodd" d="M448,856.1H689.3V841.5H448v14.6Z" class="g0_74"/>
<path fill-rule="evenodd" d="M448,870.8H689.3V856.1H448v14.7Z" class="g0_74"/>
<path d="M437.9,146.3V914.1" class="g1_74"/>
</svg>