<?xml version="1.0" encoding="UTF-8" standalone="no"?>
<!DOCTYPE svg PUBLIC "-//W3C//DTD SVG 1.1//EN"
"http://www.w3.org/Graphics/SVG/1.1/DTD/svg11.dtd">
<svg viewBox="0 0 909 1285" version="1.1" xmlns="http://www.w3.org/2000/svg" xmlns:xlink="http://www.w3.org/1999/xlink">
<defs>
<style type="text/css"><![CDATA[
.g0_196{
fill: #FFFFFF;
}
.g1_196{
fill: none;
stroke: #000000;
stroke-width: 0.381;
stroke-linecap: butt;
stroke-linejoin: round;
}
]]></style>
</defs>
<path fill-rule="evenodd" d="M619.8,134.6h65.3V110H619.8v24.6Z" class="g0_196"/>
<path fill-rule="evenodd" d="M184.5,168.7H423.6V153.3H184.5v15.4Z" class="g0_196"/>
<path fill-rule="evenodd" d="M184.5,184.3H423.6V168.7H184.5v15.6Z" class="g0_196"/>
<path fill-rule="evenodd" d="M184.5,199.7H423.6V184.3H184.5v15.4Z" class="g0_196"/>
<path fill-rule="evenodd" d="M184.5,215.1H423.2V199.7H184.5v15.4Z" class="g0_196"/>
<path fill-rule="evenodd" d="M184.5,230.5H423.2V215.1H184.5v15.4Z" class="g0_196"/>
<path fill-rule="evenodd" d="M184.1,245.9H423.9V230.5H184.1v15.4Z" class="g0_196"/>
<path fill-rule="evenodd" d="M184.1,261.3H423.9V245.9H184.1v15.4Z" class="g0_196"/>
<path fill-rule="evenodd" d="M184.1,276.9H423.2V261.3H184.1v15.6Z" class="g0_196"/>
<path fill-rule="evenodd" d="M184.1,292.3H423.2V276.9H184.1v15.4Z" class="g0_196"/>
<path fill-rule="evenodd" d="M183.7,307.7H423.6V292.3H183.7v15.4Z" class="g0_196"/>
<path fill-rule="evenodd" d="M183.7,323.1H423.6V307.7H183.7v15.4Z" class="g0_196"/>
<path fill-rule="evenodd" d="M183.7,338.5H423.6V323.1H183.7v15.4Z" class="g0_196"/>
<path fill-rule="evenodd" d="M202.1,353.9H423.9V338.5H202.1v15.4Z" class="g0_196"/>
<path fill-rule="evenodd" d="M183.4,369.5H423.6V353.9H183.4v15.6Z" class="g0_196"/>
<path fill-rule="evenodd" d="M183.4,384.9H423.6V369.5H183.4v15.4Z" class="g0_196"/>
<path fill-rule="evenodd" d="M183.4,400.3H423.6V384.9H183.4v15.4Z" class="g0_196"/>
<path fill-rule="evenodd" d="M183.4,415.7H423.6V400.3H183.4v15.4Z" class="g0_196"/>
<path fill-rule="evenodd" d="M183.4,431.1H423.6V415.7H183.4v15.4Z" class="g0_196"/>
<path fill-rule="evenodd" d="M183,446.5H422.5V431.1H183v15.4Z" class="g0_196"/>
<path fill-rule="evenodd" d="M183,462.1H422.5V446.5H183v15.6Z" class="g0_196"/>
<path fill-rule="evenodd" d="M183,477.5H422.5V462.1H183v15.4Z" class="g0_196"/>
<path fill-rule="evenodd" d="M183,492.9H422.5V477.5H183v15.4Z" class="g0_196"/>
<path fill-rule="evenodd" d="M183,508.3H422.5V492.9H183v15.4Z" class="g0_196"/>
<path fill-rule="evenodd" d="M183,523.7H422.5V508.3H183v15.4Z" class="g0_196"/>
<path fill-rule="evenodd" d="M183,539.1H422.5V523.7H183v15.4Z" class="g0_196"/>
<path fill-rule="evenodd" d="M183,554.7H422.1V539.1H183v15.6Z" class="g0_196"/>
<path fill-rule="evenodd" d="M183,570.1H422.1V554.7H183v15.4Z" class="g0_196"/>
<path fill-rule="evenodd" d="M183,585.5H422.1V570.1H183v15.4Z" class="g0_196"/>
<path fill-rule="evenodd" d="M182.6,600.9H422.1V585.5H182.6v15.4Z" class="g0_196"/>
<path fill-rule="evenodd" d="M182.6,616.3H422.1V600.9H182.6v15.4Z" class="g0_196"/>
<path fill-rule="evenodd" d="M182.3,631.7H422.1V616.3H182.3v15.4Z" class="g0_196"/>
<path fill-rule="evenodd" d="M182.3,647.3H422.1V631.7H182.3v15.6Z" class="g0_196"/>
<path fill-rule="evenodd" d="M182.3,662.7H422.1V647.3H182.3v15.4Z" class="g0_196"/>
<path fill-rule="evenodd" d="M182.3,678.1H422.1V662.7H182.3v15.4Z" class="g0_196"/>
<path fill-rule="evenodd" d="M182.3,693.5H422.1V678.1H182.3v15.4Z" class="g0_196"/>
<path fill-rule="evenodd" d="M182.3,708.9H422.1V693.5H182.3v15.4Z" class="g0_196"/>
<path fill-rule="evenodd" d="M182.3,724.3H422.1V708.9H182.3v15.4Z" class="g0_196"/>
<path fill-rule="evenodd" d="M182.3,739.9H422.1V724.3H182.3v15.6Z" class="g0_196"/>
<path fill-rule="evenodd" d="M182.3,755.3H421V739.9H182.3v15.4Z" class="g0_196"/>
<path fill-rule="evenodd" d="M182.3,770.7H421V755.3H182.3v15.4Z" class="g0_196"/>
<path fill-rule="evenodd" d="M182.3,786.1H421.4V770.7H182.3v15.4Z" class="g0_196"/>
<path fill-rule="evenodd" d="M182.3,801.5H421.4V786.1H182.3v15.4Z" class="g0_196"/>
<path fill-rule="evenodd" d="M182.3,816.9H421.4V801.5H182.3v15.4Z" class="g0_196"/>
<path fill-rule="evenodd" d="M182.3,832.5H421V816.9H182.3v15.6Z" class="g0_196"/>
<path fill-rule="evenodd" d="M182.3,847.9H421V832.5H182.3v15.4Z" class="g0_196"/>
<path fill-rule="evenodd" d="M182.3,863.3H420.6V847.9H182.3v15.4Z" class="g0_196"/>
<path fill-rule="evenodd" d="M182.3,878.7H420.6V863.3H182.3v15.4Z" class="g0_196"/>
<path fill-rule="evenodd" d="M185.2,894.1H423.9V878.7H185.2v15.4Z" class="g0_196"/>
<path fill-rule="evenodd" d="M444.8,169.8H684.7V154.4H444.8v15.4Z" class="g0_196"/>
<path fill-rule="evenodd" d="M444.8,185.2H684.7V169.8H444.8v15.4Z" class="g0_196"/>
<path fill-rule="evenodd" d="M444.1,200.8H684V185.2H444.1v15.6Z" class="g0_196"/>
<path fill-rule="evenodd" d="M444.1,216.2H684V200.8H444.1v15.4Z" class="g0_196"/>
<path fill-rule="evenodd" d="M444.1,231.6H684V216.2H444.1v15.4Z" class="g0_196"/>
<path fill-rule="evenodd" d="M443.7,247H684.4V231.6H443.7V247Z" class="g0_196"/>
<path fill-rule="evenodd" d="M443.7,262.4H684.4V247H443.7v15.4Z" class="g0_196"/>
<path fill-rule="evenodd" d="M443.7,277.8H684.4V262.4H443.7v15.4Z" class="g0_196"/>
<path fill-rule="evenodd" d="M443.7,293.4H684.4V277.8H443.7v15.6Z" class="g0_196"/>
<path fill-rule="evenodd" d="M443.7,308.8H684.4V293.4H443.7v15.4Z" class="g0_196"/>
<path fill-rule="evenodd" d="M443.7,324.2H684.4V308.8H443.7v15.4Z" class="g0_196"/>
<path fill-rule="evenodd" d="M444.1,339.6H684.4V324.2H444.1v15.4Z" class="g0_196"/>
<path fill-rule="evenodd" d="M444.1,355H684.4V339.6H444.1V355Z" class="g0_196"/>
<path fill-rule="evenodd" d="M443.7,370.4H683.6V355H443.7v15.4Z" class="g0_196"/>
<path fill-rule="evenodd" d="M443.7,386H683.6V370.4H443.7V386Z" class="g0_196"/>
<path fill-rule="evenodd" d="M462.5,401.4H684.7V386H462.5v15.4Z" class="g0_196"/>
<path fill-rule="evenodd" d="M462.1,416.8H684.7V401.4H462.1v15.4Z" class="g0_196"/>
<path fill-rule="evenodd" d="M443.4,432.2H683.6V416.8H443.4v15.4Z" class="g0_196"/>
<path fill-rule="evenodd" d="M443.4,447.6H683.6V432.2H443.4v15.4Z" class="g0_196"/>
<path fill-rule="evenodd" d="M443.4,463H683.6V447.6H443.4V463Z" class="g0_196"/>
<path fill-rule="evenodd" d="M443.4,478.6H683.6V463H443.4v15.6Z" class="g0_196"/>
<path fill-rule="evenodd" d="M443.4,494H683.3V478.6H443.4V494Z" class="g0_196"/>
<path fill-rule="evenodd" d="M443.4,509.4H683.3V494H443.4v15.4Z" class="g0_196"/>
<path fill-rule="evenodd" d="M443.4,524.8H683.3V509.4H443.4v15.4Z" class="g0_196"/>
<path fill-rule="evenodd" d="M442.6,540.2H683.3V524.8H442.6v15.4Z" class="g0_196"/>
<path fill-rule="evenodd" d="M442.6,555.6H683.3V540.2H442.6v15.4Z" class="g0_196"/>
<path fill-rule="evenodd" d="M442.6,571.2H682.9V555.6H442.6v15.6Z" class="g0_196"/>
<path fill-rule="evenodd" d="M442.6,586.6H682.5V571.2H442.6v15.4Z" class="g0_196"/>
<path fill-rule="evenodd" d="M442.6,602H682.5V586.6H442.6V602Z" class="g0_196"/>
<path fill-rule="evenodd" d="M442.3,617.4H682.9V602H442.3v15.4Z" class="g0_196"/>
<path fill-rule="evenodd" d="M442.3,632.8H682.9V617.4H442.3v15.4Z" class="g0_196"/>
<path fill-rule="evenodd" d="M442.3,648.2H682.9V632.8H442.3v15.4Z" class="g0_196"/>
<path fill-rule="evenodd" d="M442.3,663.8H682.9V648.2H442.3v15.6Z" class="g0_196"/>
<path fill-rule="evenodd" d="M442.6,679.2H682.5V663.8H442.6v15.4Z" class="g0_196"/>
<path fill-rule="evenodd" d="M442.6,694.6H682.5V679.2H442.6v15.4Z" class="g0_196"/>
<path fill-rule="evenodd" d="M442.3,710H682.2V694.6H442.3V710Z" class="g0_196"/>
<path fill-rule="evenodd" d="M442.3,725.4H682.2V710H442.3v15.4Z" class="g0_196"/>
<path fill-rule="evenodd" d="M442.3,740.8H682.2V725.4H442.3v15.4Z" class="g0_196"/>
<path fill-rule="evenodd" d="M442.3,756.4H682.2V740.8H442.3v15.6Z" class="g0_196"/>
<path fill-rule="evenodd" d="M442.3,771.8H682.2V756.4H442.3v15.4Z" class="g0_196"/>
<path fill-rule="evenodd" d="M441.9,787.2H682.2V771.8H441.9v15.4Z" class="g0_196"/>
<path fill-rule="evenodd" d="M441.9,802.6H682.2V787.2H441.9v15.4Z" class="g0_196"/>
<path fill-rule="evenodd" d="M441.9,818H682.2V802.6H441.9V818Z" class="g0_196"/>
<path fill-rule="evenodd" d="M441.9,833.4H681.8V818H441.9v15.4Z" class="g0_196"/>
<path fill-rule="evenodd" d="M441.9,849H681.8V833.4H441.9V849Z" class="g0_196"/>
<path d="M430.8,153.3V922.2" class="g1_196"/>
</svg>