<?xml version="1.0" encoding="UTF-8" standalone="no"?>
<!DOCTYPE svg PUBLIC "-//W3C//DTD SVG 1.1//EN"
"http://www.w3.org/Graphics/SVG/1.1/DTD/svg11.dtd">
<svg viewBox="0 0 909 1285" version="1.1" xmlns="http://www.w3.org/2000/svg" xmlns:xlink="http://www.w3.org/1999/xlink">
<defs>
<style type="text/css"><![CDATA[
.g0_274{
fill: #FFFFFF;
}
.g1_274{
fill: none;
stroke: #000000;
stroke-width: 0.381;
stroke-linecap: butt;
stroke-linejoin: round;
}
]]></style>
</defs>
<path fill-rule="evenodd" d="M502.1,133.5H687.6V110H502.1v23.5Z" class="g0_274"/>
<path fill-rule="evenodd" d="M189.2,168.7H428.3v-15H189.2v15Z" class="g0_274"/>
<path fill-rule="evenodd" d="M189.2,183.7H428.3v-15H189.2v15Z" class="g0_274"/>
<path fill-rule="evenodd" d="M189.2,198.8H428.3V183.7H189.2v15.1Z" class="g0_274"/>
<path fill-rule="evenodd" d="M189.2,213.8H428.3v-15H189.2v15Z" class="g0_274"/>
<path fill-rule="evenodd" d="M189.2,228.8H428.3v-15H189.2v15Z" class="g0_274"/>
<path fill-rule="evenodd" d="M190,244H372.6V228.8H190V244Z" class="g0_274"/>
<path fill-rule="evenodd" d="M190,259.1H372.6V244H190v15.1Z" class="g0_274"/>
<path fill-rule="evenodd" d="M189.6,274.1H428.3v-15H189.6v15Z" class="g0_274"/>
<path fill-rule="evenodd" d="M189.6,289.1H428.3v-15H189.6v15Z" class="g0_274"/>
<path fill-rule="evenodd" d="M189.6,304.2H428.3V289.1H189.6v15.1Z" class="g0_274"/>
<path fill-rule="evenodd" d="M189.6,319.2H428.3v-15H189.6v15Z" class="g0_274"/>
<path fill-rule="evenodd" d="M189.6,334.2H428.3v-15H189.6v15Z" class="g0_274"/>
<path fill-rule="evenodd" d="M189.6,349.3H428.3V334.2H189.6v15.1Z" class="g0_274"/>
<path fill-rule="evenodd" d="M189.6,364.4H428.3V349.3H189.6v15.1Z" class="g0_274"/>
<path fill-rule="evenodd" d="M189.6,379.4H428.3v-15H189.6v15Z" class="g0_274"/>
<path fill-rule="evenodd" d="M189.6,394.4H428.3v-15H189.6v15Z" class="g0_274"/>
<path fill-rule="evenodd" d="M189.6,409.5H428.3V394.4H189.6v15.1Z" class="g0_274"/>
<path fill-rule="evenodd" d="M189.2,424.7H428V409.5H189.2v15.2Z" class="g0_274"/>
<path fill-rule="evenodd" d="M189.2,439.7H428v-15H189.2v15Z" class="g0_274"/>
<path fill-rule="evenodd" d="M189.2,454.7H428v-15H189.2v15Z" class="g0_274"/>
<path fill-rule="evenodd" d="M189.2,469.8H428V454.7H189.2v15.1Z" class="g0_274"/>
<path fill-rule="evenodd" d="M189.2,484.8H428v-15H189.2v15Z" class="g0_274"/>
<path fill-rule="evenodd" d="M189.2,499.8H428v-15H189.2v15Z" class="g0_274"/>
<path fill-rule="evenodd" d="M189.2,514.9H428V499.8H189.2v15.1Z" class="g0_274"/>
<path fill-rule="evenodd" d="M188.9,529.9H428.3v-15H188.9v15Z" class="g0_274"/>
<path fill-rule="evenodd" d="M188.9,544.9H428.3v-15H188.9v15Z" class="g0_274"/>
<path fill-rule="evenodd" d="M188.9,560H428.3V544.9H188.9V560Z" class="g0_274"/>
<path fill-rule="evenodd" d="M188.9,575H428.3V560H188.9v15Z" class="g0_274"/>
<path fill-rule="evenodd" d="M188.5,590H427.2V575H188.5v15Z" class="g0_274"/>
<path fill-rule="evenodd" d="M188.5,605.3H427.2V590H188.5v15.3Z" class="g0_274"/>
<path fill-rule="evenodd" d="M188.5,620.3H427.2v-15H188.5v15Z" class="g0_274"/>
<path fill-rule="evenodd" d="M188.5,635.4H427.2V620.3H188.5v15.1Z" class="g0_274"/>
<path fill-rule="evenodd" d="M188.5,650.4H427.2v-15H188.5v15Z" class="g0_274"/>
<path fill-rule="evenodd" d="M188.5,665.4H427.2v-15H188.5v15Z" class="g0_274"/>
<path fill-rule="evenodd" d="M188.5,680.5H427.2V665.4H188.5v15.1Z" class="g0_274"/>
<path fill-rule="evenodd" d="M188.5,695.5H372.6v-15H188.5v15Z" class="g0_274"/>
<path fill-rule="evenodd" d="M188.5,710.5H372.6v-15H188.5v15Z" class="g0_274"/>
<path fill-rule="evenodd" d="M187.4,725.6H426.9V710.5H187.4v15.1Z" class="g0_274"/>
<path fill-rule="evenodd" d="M187.4,740.6H426.9v-15H187.4v15Z" class="g0_274"/>
<path fill-rule="evenodd" d="M187.4,755.6H426.9v-15H187.4v15Z" class="g0_274"/>
<path fill-rule="evenodd" d="M187.4,770.8H426.9V755.6H187.4v15.2Z" class="g0_274"/>
<path fill-rule="evenodd" d="M187.4,785.9H426.9V770.8H187.4v15.1Z" class="g0_274"/>
<path fill-rule="evenodd" d="M187.4,800.9H426.9v-15H187.4v15Z" class="g0_274"/>
<path fill-rule="evenodd" d="M187.4,815.9H426.9v-15H187.4v15Z" class="g0_274"/>
<path fill-rule="evenodd" d="M187.4,831H426.9V815.9H187.4V831Z" class="g0_274"/>
<path fill-rule="evenodd" d="M187.4,846.1H426.9V831H187.4v15.1Z" class="g0_274"/>
<path fill-rule="evenodd" d="M187.4,861.1H426.9v-15H187.4v15Z" class="g0_274"/>
<path fill-rule="evenodd" d="M187.4,876.1H426.9v-15H187.4v15Z" class="g0_274"/>
<path fill-rule="evenodd" d="M187.4,891.2H426.9V876.1H187.4v15.1Z" class="g0_274"/>
<path fill-rule="evenodd" d="M187.4,906.2H426.9v-15H187.4v15Z" class="g0_274"/>
<path fill-rule="evenodd" d="M189.6,921.2H400.5v-15H189.6v15Z" class="g0_274"/>
<path fill-rule="evenodd" d="M449.3,169.1H659.4V154H449.3v15.1Z" class="g0_274"/>
<path fill-rule="evenodd" d="M449.3,184.1H659.4v-15H449.3v15Z" class="g0_274"/>
<path fill-rule="evenodd" d="M449.3,199.1h238v-15h-238v15Z" class="g0_274"/>
<path fill-rule="evenodd" d="M449.3,214.2h238V199.1h-238v15.1Z" class="g0_274"/>
<path fill-rule="evenodd" d="M449.3,229.4h238V214.2h-238v15.2Z" class="g0_274"/>
<path fill-rule="evenodd" d="M448.9,244.8H659.4V229.7H448.9v15.1Z" class="g0_274"/>
<path fill-rule="evenodd" d="M448.9,259.8H659.4v-15H448.9v15Z" class="g0_274"/>
<path fill-rule="evenodd" d="M448.5,274.8H687.3v-15H448.5v15Z" class="g0_274"/>
<path fill-rule="evenodd" d="M448.5,289.9H687.3V274.8H448.5v15.1Z" class="g0_274"/>
<path fill-rule="evenodd" d="M448.5,304.9H687.3v-15H448.5v15Z" class="g0_274"/>
<path fill-rule="evenodd" d="M448.5,319.9H687.3v-15H448.5v15Z" class="g0_274"/>
<path fill-rule="evenodd" d="M448.5,335H687.3V319.9H448.5V335Z" class="g0_274"/>
<path fill-rule="evenodd" d="M448.1,350H686.9V335H448.1v15Z" class="g0_274"/>
<path fill-rule="evenodd" d="M448.1,365.1H686.9V350H448.1v15.1Z" class="g0_274"/>
<path fill-rule="evenodd" d="M448.1,380.1H686.9v-15H448.1v15Z" class="g0_274"/>
<path fill-rule="evenodd" d="M448.1,395.3H686.6V380.1H448.1v15.2Z" class="g0_274"/>
<path fill-rule="evenodd" d="M448.1,410.4H686.6V395.3H448.1v15.1Z" class="g0_274"/>
<path fill-rule="evenodd" d="M448.1,425.4H686.6v-15H448.1v15Z" class="g0_274"/>
<path fill-rule="evenodd" d="M448.1,440.4H686.9v-15H448.1v15Z" class="g0_274"/>
<path fill-rule="evenodd" d="M448.1,455.5H686.9V440.4H448.1v15.1Z" class="g0_274"/>
<path fill-rule="evenodd" d="M448.1,470.5H686.9v-15H448.1v15Z" class="g0_274"/>
<path fill-rule="evenodd" d="M448.1,485.5H686.9v-15H448.1v15Z" class="g0_274"/>
<path fill-rule="evenodd" d="M447.8,500.6H686.6V485.5H447.8v15.1Z" class="g0_274"/>
<path fill-rule="evenodd" d="M447.8,515.6H686.6v-15H447.8v15Z" class="g0_274"/>
<path fill-rule="evenodd" d="M447.8,530.6H686.6v-15H447.8v15Z" class="g0_274"/>
<path fill-rule="evenodd" d="M447.8,545.7H686.6V530.6H447.8v15.1Z" class="g0_274"/>
<path fill-rule="evenodd" d="M447.8,560.7H686.6v-15H447.8v15Z" class="g0_274"/>
<path fill-rule="evenodd" d="M447.8,575.9H686.6V560.7H447.8v15.2Z" class="g0_274"/>
<path fill-rule="evenodd" d="M447.8,591H686.6V575.9H447.8V591Z" class="g0_274"/>
<path fill-rule="evenodd" d="M447.8,606H686.6V591H447.8v15Z" class="g0_274"/>
<path fill-rule="evenodd" d="M447.8,621.1H686.6V606H447.8v15.1Z" class="g0_274"/>
<path fill-rule="evenodd" d="M447.8,636.1H686.6v-15H447.8v15Z" class="g0_274"/>
<path fill-rule="evenodd" d="M447.4,651.1H686.2v-15H447.4v15Z" class="g0_274"/>
<path fill-rule="evenodd" d="M447.4,666.2H686.2V651.1H447.4v15.1Z" class="g0_274"/>
<path fill-rule="evenodd" d="M447.4,681.2H686.2v-15H447.4v15Z" class="g0_274"/>
<path fill-rule="evenodd" d="M447.4,696.2H686.2v-15H447.4v15Z" class="g0_274"/>
<path fill-rule="evenodd" d="M447,711.3H687.3V696.2H447v15.1Z" class="g0_274"/>
<path fill-rule="evenodd" d="M447,726.3H687.3v-15H447v15Z" class="g0_274"/>
<path fill-rule="evenodd" d="M447,741.3H687.3v-15H447v15Z" class="g0_274"/>
<path fill-rule="evenodd" d="M447,756.5H687.3V741.3H447v15.2Z" class="g0_274"/>
<path fill-rule="evenodd" d="M447,771.6H687.3V756.5H447v15.1Z" class="g0_274"/>
<path fill-rule="evenodd" d="M447,786.6H687.3v-15H447v15Z" class="g0_274"/>
<path fill-rule="evenodd" d="M447,801.6H687.3v-15H447v15Z" class="g0_274"/>
<path fill-rule="evenodd" d="M447,816.7H687.3V801.6H447v15.1Z" class="g0_274"/>
<path fill-rule="evenodd" d="M447,831.7H686.2v-15H447v15Z" class="g0_274"/>
<path fill-rule="evenodd" d="M447,846.8H686.2V831.7H447v15.1Z" class="g0_274"/>
<path fill-rule="evenodd" d="M447,861.8H686.2v-15H447v15Z" class="g0_274"/>
<path fill-rule="evenodd" d="M447,876.9H686.2V861.8H447v15.1Z" class="g0_274"/>
<path fill-rule="evenodd" d="M447.4,891.9h212v-15h-212v15Z" class="g0_274"/>
<path fill-rule="evenodd" d="M447.4,906.9h212v-15h-212v15Z" class="g0_274"/>
<path fill-rule="evenodd" d="M423.2,939.2H687.7V919.8H423.2v19.4Z" class="g0_274"/>
<path d="M436,152.9V921.4" class="g1_274"/>
</svg>