<?xml version="1.0" encoding="UTF-8" standalone="no"?>
<!DOCTYPE svg PUBLIC "-//W3C//DTD SVG 1.1//EN"
"http://www.w3.org/Graphics/SVG/1.1/DTD/svg11.dtd">
<svg viewBox="0 0 909 1285" version="1.1" xmlns="http://www.w3.org/2000/svg" xmlns:xlink="http://www.w3.org/1999/xlink">
<defs>
<style type="text/css"><![CDATA[
.g0_142{
fill: #FFFFFF;
}
.g1_142{
fill: none;
stroke: #000000;
stroke-width: 0.763;
stroke-linecap: butt;
stroke-linejoin: round;
}
]]></style>
</defs>
<path fill-rule="evenodd" d="M575.8,125.8H682.5V110H575.8v15.8Z" class="g0_142"/>
<path fill-rule="evenodd" d="M183.7,161.7H363.4v-15H183.7v15Z" class="g0_142"/>
<path fill-rule="evenodd" d="M183.7,176.9H363.4V161.7H183.7v15.2Z" class="g0_142"/>
<path fill-rule="evenodd" d="M183.7,192h238V176.9h-238V192Z" class="g0_142"/>
<path fill-rule="evenodd" d="M183.7,207h238V192h-238v15Z" class="g0_142"/>
<path fill-rule="evenodd" d="M201.7,222H422.1V207H201.7v15Z" class="g0_142"/>
<path fill-rule="evenodd" d="M183.7,237.1H422.1V222H183.7v15.1Z" class="g0_142"/>
<path fill-rule="evenodd" d="M183.4,252.1H421.7v-15H183.4v15Z" class="g0_142"/>
<path fill-rule="evenodd" d="M183.4,267.1H421.7v-15H183.4v15Z" class="g0_142"/>
<path fill-rule="evenodd" d="M183.7,282.2H422.1V267.1H183.7v15.1Z" class="g0_142"/>
<path fill-rule="evenodd" d="M183.7,297.2H422.1v-15H183.7v15Z" class="g0_142"/>
<path fill-rule="evenodd" d="M183.4,312.2H422.1v-15H183.4v15Z" class="g0_142"/>
<path fill-rule="evenodd" d="M183.4,327.3H422.1V312.2H183.4v15.1Z" class="g0_142"/>
<path fill-rule="evenodd" d="M183.4,342.5H422.1V327.3H183.4v15.2Z" class="g0_142"/>
<path fill-rule="evenodd" d="M183.4,357.6H422.1V342.5H183.4v15.1Z" class="g0_142"/>
<path fill-rule="evenodd" d="M183.4,372.6H422.1v-15H183.4v15Z" class="g0_142"/>
<path fill-rule="evenodd" d="M183.7,387.6H422.1v-15H183.7v15Z" class="g0_142"/>
<path fill-rule="evenodd" d="M183.7,402.7H422.1V387.6H183.7v15.1Z" class="g0_142"/>
<path fill-rule="evenodd" d="M183.7,417.7h238v-15h-238v15Z" class="g0_142"/>
<path fill-rule="evenodd" d="M183.7,432.7h238v-15h-238v15Z" class="g0_142"/>
<path fill-rule="evenodd" d="M183.7,447.8h238V432.7h-238v15.1Z" class="g0_142"/>
<path fill-rule="evenodd" d="M183,462.8H421.4v-15H183v15Z" class="g0_142"/>
<path fill-rule="evenodd" d="M183,477.8H421.4v-15H183v15Z" class="g0_142"/>
<path fill-rule="evenodd" d="M183,492.9H421.4V477.8H183v15.1Z" class="g0_142"/>
<path fill-rule="evenodd" d="M183,507.9H421.7v-15H183v15Z" class="g0_142"/>
<path fill-rule="evenodd" d="M183,523.1H421.7V507.9H183v15.2Z" class="g0_142"/>
<path fill-rule="evenodd" d="M183,538.2H421.4V523.1H183v15.1Z" class="g0_142"/>
<path fill-rule="evenodd" d="M183,553.2H421.4v-15H183v15Z" class="g0_142"/>
<path fill-rule="evenodd" d="M183,568.2H421.4v-15H183v15Z" class="g0_142"/>
<path fill-rule="evenodd" d="M183,583.3H421.4V568.2H183v15.1Z" class="g0_142"/>
<path fill-rule="evenodd" d="M183,598.3H421.4v-15H183v15Z" class="g0_142"/>
<path fill-rule="evenodd" d="M182.6,613.4H421.4V598.3H182.6v15.1Z" class="g0_142"/>
<path fill-rule="evenodd" d="M182.6,628.4H421.4v-15H182.6v15Z" class="g0_142"/>
<path fill-rule="evenodd" d="M182.6,643.4H421.4v-15H182.6v15Z" class="g0_142"/>
<path fill-rule="evenodd" d="M182.6,658.5H421.4V643.4H182.6v15.1Z" class="g0_142"/>
<path fill-rule="evenodd" d="M182.3,673.5H421v-15H182.3v15Z" class="g0_142"/>
<path fill-rule="evenodd" d="M182.3,688.5H421v-15H182.3v15Z" class="g0_142"/>
<path fill-rule="evenodd" d="M182.3,703.7H421V688.5H182.3v15.2Z" class="g0_142"/>
<path fill-rule="evenodd" d="M183,718.8H420.6V703.7H183v15.1Z" class="g0_142"/>
<path fill-rule="evenodd" d="M183,733.8H420.6v-15H183v15Z" class="g0_142"/>
<path fill-rule="evenodd" d="M182.6,748.8h238v-15h-238v15Z" class="g0_142"/>
<path fill-rule="evenodd" d="M182.6,763.9h238V748.8h-238v15.1Z" class="g0_142"/>
<path fill-rule="evenodd" d="M182.6,778.9h238v-15h-238v15Z" class="g0_142"/>
<path fill-rule="evenodd" d="M182.6,793.9H421v-15H182.6v15Z" class="g0_142"/>
<path fill-rule="evenodd" d="M182.6,809H421V793.9H182.6V809Z" class="g0_142"/>
<path fill-rule="evenodd" d="M182.6,824H421V809H182.6v15Z" class="g0_142"/>
<path fill-rule="evenodd" d="M182.6,839.1H421V824H182.6v15.1Z" class="g0_142"/>
<path fill-rule="evenodd" d="M182.6,854.1H421v-15H182.6v15Z" class="g0_142"/>
<path fill-rule="evenodd" d="M182.6,869.2H421V854.1H182.6v15.1Z" class="g0_142"/>
<path fill-rule="evenodd" d="M183.7,884.4H422.1V869.2H183.7v15.2Z" class="g0_142"/>
<path fill-rule="evenodd" d="M442.5,161.4H682.3V146.3H442.5v15.1Z" class="g0_142"/>
<path fill-rule="evenodd" d="M442.5,176.4H682.3v-15H442.5v15Z" class="g0_142"/>
<path fill-rule="evenodd" d="M442.5,191.6H682.3V176.4H442.5v15.2Z" class="g0_142"/>
<path fill-rule="evenodd" d="M442.5,206.6H682.3v-15H442.5v15Z" class="g0_142"/>
<path fill-rule="evenodd" d="M442.1,221.7H682.3V206.6H442.1v15.1Z" class="g0_142"/>
<path fill-rule="evenodd" d="M442.1,236.7H682.3v-15H442.1v15Z" class="g0_142"/>
<path fill-rule="evenodd" d="M442.1,251.7H682.3v-15H442.1v15Z" class="g0_142"/>
<path fill-rule="evenodd" d="M442.1,266.8H682.3V251.7H442.1v15.1Z" class="g0_142"/>
<path fill-rule="evenodd" d="M442.1,281.8H682.3v-15H442.1v15Z" class="g0_142"/>
<path fill-rule="evenodd" d="M442.1,296.8H682.3v-15H442.1v15Z" class="g0_142"/>
<path fill-rule="evenodd" d="M442.1,311.9H682.3V296.8H442.1v15.1Z" class="g0_142"/>
<path fill-rule="evenodd" d="M442.1,326.9H682.3v-15H442.1v15Z" class="g0_142"/>
<path fill-rule="evenodd" d="M442.1,341.9H682.3v-15H442.1v15Z" class="g0_142"/>
<path fill-rule="evenodd" d="M442.1,357.2H682.3V342H442.1v15.2Z" class="g0_142"/>
<path fill-rule="evenodd" d="M442.1,372.2H682.3v-15H442.1v15Z" class="g0_142"/>
<path fill-rule="evenodd" d="M442.1,387.3H682.3V372.2H442.1v15.1Z" class="g0_142"/>
<path fill-rule="evenodd" d="M441.7,402.3H681.6v-15H441.7v15Z" class="g0_142"/>
<path fill-rule="evenodd" d="M441.7,417.3H681.6v-15H441.7v15Z" class="g0_142"/>
<path fill-rule="evenodd" d="M442.1,432.4H681.6V417.3H442.1v15.1Z" class="g0_142"/>
<path fill-rule="evenodd" d="M442.1,447.4H681.6v-15H442.1v15Z" class="g0_142"/>
<path fill-rule="evenodd" d="M460.5,462.4H682.3v-15H460.5v15Z" class="g0_142"/>
<path fill-rule="evenodd" d="M442.1,477.5H681.2V462.4H442.1v15.1Z" class="g0_142"/>
<path fill-rule="evenodd" d="M442.1,492.5H681.2v-15H442.1v15Z" class="g0_142"/>
<path fill-rule="evenodd" d="M442.1,507.5H681.2v-15H442.1v15Z" class="g0_142"/>
<path fill-rule="evenodd" d="M442.1,522.6H681.2V507.5H442.1v15.1Z" class="g0_142"/>
<path fill-rule="evenodd" d="M442.1,537.8H681.2V522.6H442.1v15.2Z" class="g0_142"/>
<path fill-rule="evenodd" d="M442.1,552.8H681.6v-15H442.1v15Z" class="g0_142"/>
<path fill-rule="evenodd" d="M442.1,567.9H681.6V552.8H442.1v15.1Z" class="g0_142"/>
<path fill-rule="evenodd" d="M442.1,582.9H681.6v-15H442.1v15Z" class="g0_142"/>
<path fill-rule="evenodd" d="M442.1,598H681.6V582.9H442.1V598Z" class="g0_142"/>
<path fill-rule="evenodd" d="M460.1,613H682.3V598H460.1v15Z" class="g0_142"/>
<path fill-rule="evenodd" d="M441.7,628H680.9V613H441.7v15Z" class="g0_142"/>
<path fill-rule="evenodd" d="M441.7,643.1H680.9V628H441.7v15.1Z" class="g0_142"/>
<path fill-rule="evenodd" d="M441,658.1H681.6v-15H441v15Z" class="g0_142"/>
<path fill-rule="evenodd" d="M441,673.1H681.6v-15H441v15Z" class="g0_142"/>
<path fill-rule="evenodd" d="M441,688.2H681.6V673.1H441v15.1Z" class="g0_142"/>
<path fill-rule="evenodd" d="M442.1,703.2H680.9v-15H442.1v15Z" class="g0_142"/>
<path fill-rule="evenodd" d="M442.1,718.4H680.9V703.2H442.1v15.2Z" class="g0_142"/>
<path fill-rule="evenodd" d="M441.4,733.4H681.2v-15H441.4v15Z" class="g0_142"/>
<path fill-rule="evenodd" d="M441.4,748.5H681.2V733.4H441.4v15.1Z" class="g0_142"/>
<path fill-rule="evenodd" d="M441.4,763.5H681.6v-15H441.4v15Z" class="g0_142"/>
<path fill-rule="evenodd" d="M441.4,778.5H681.6v-15H441.4v15Z" class="g0_142"/>
<path fill-rule="evenodd" d="M441.4,793.6H681.6V778.5H441.4v15.1Z" class="g0_142"/>
<path fill-rule="evenodd" d="M441.4,808.6H681.6v-15H441.4v15Z" class="g0_142"/>
<path fill-rule="evenodd" d="M459.7,823.6H682.3v-15H459.7v15Z" class="g0_142"/>
<path fill-rule="evenodd" d="M441.4,838.7H681.2V823.6H441.4v15.1Z" class="g0_142"/>
<path fill-rule="evenodd" d="M441.4,853.8H681.2V838.7H441.4v15.1Z" class="g0_142"/>
<path fill-rule="evenodd" d="M441.4,868.8H681.2v-15H441.4v15Z" class="g0_142"/>
<path fill-rule="evenodd" d="M441.4,883.8H681.2v-15H441.4v15Z" class="g0_142"/>
<path fill-rule="evenodd" d="M419.2,916.5H682.5V897H419.2v19.5Z" class="g0_142"/>
<path d="M430.5,146V914.9" class="g1_142"/>
</svg>