<?xml version="1.0" encoding="UTF-8" standalone="no"?>
<!DOCTYPE svg PUBLIC "-//W3C//DTD SVG 1.1//EN"
"http://www.w3.org/Graphics/SVG/1.1/DTD/svg11.dtd">
<svg viewBox="0 0 909 1285" version="1.1" xmlns="http://www.w3.org/2000/svg" xmlns:xlink="http://www.w3.org/1999/xlink">
<defs>
<style type="text/css"><![CDATA[
.g0_223{
fill: #FFFFFF;
}
.g1_223{
fill: none;
stroke: #000000;
stroke-width: 2.902;
stroke-linecap: butt;
stroke-linejoin: round;
}
.g2_223{
fill: none;
stroke: #000000;
stroke-width: 1.833;
stroke-linecap: butt;
stroke-linejoin: round;
}
.g3_223{
fill: none;
stroke: #000000;
stroke-width: 0.381;
stroke-linecap: butt;
stroke-linejoin: round;
}
.g4_223{
fill: none;
stroke: #000000;
stroke-width: 1.069;
stroke-linecap: butt;
stroke-linejoin: round;
}
]]></style>
</defs>
<path fill-rule="evenodd" d="M262.6,125.8H761V110H262.6v15.8Z" class="g0_223"/>
<path fill-rule="evenodd" d="M262.2,161.7H500.6V147.1H262.2v14.6Z" class="g0_223"/>
<path fill-rule="evenodd" d="M262.2,176.4H500.6V161.7H262.2v14.7Z" class="g0_223"/>
<path fill-rule="evenodd" d="M262.2,191.1H500.6V176.4H262.2v14.7Z" class="g0_223"/>
<path fill-rule="evenodd" d="M262.6,206.6H501V191.8H262.6v14.8Z" class="g0_223"/>
<path fill-rule="evenodd" d="M262.6,221.3H501V206.6H262.6v14.7Z" class="g0_223"/>
<path fill-rule="evenodd" d="M262.2,236.7H500.6V222H262.2v14.7Z" class="g0_223"/>
<path fill-rule="evenodd" d="M262.2,251.4H500.6V236.7H262.2v14.7Z" class="g0_223"/>
<path fill-rule="evenodd" d="M280.6,266.4H501V251.7H280.6v14.7Z" class="g0_223"/>
<path fill-rule="evenodd" d="M280.2,281.4H501V266.8H280.2v14.6Z" class="g0_223"/>
<path fill-rule="evenodd" d="M262.6,296.1H500.2V281.4H262.6v14.7Z" class="g0_223"/>
<path fill-rule="evenodd" d="M262.6,310.8H500.2V296.1H262.6v14.7Z" class="g0_223"/>
<path fill-rule="evenodd" d="M261.5,325.8H501V311.1H261.5v14.7Z" class="g0_223"/>
<path fill-rule="evenodd" d="M261.5,340.5H501V325.8H261.5v14.7Z" class="g0_223"/>
<path fill-rule="evenodd" d="M261.5,355.2H501V340.5H261.5v14.7Z" class="g0_223"/>
<path fill-rule="evenodd" d="M261.5,369.9H501V355.2H261.5v14.7Z" class="g0_223"/>
<path fill-rule="evenodd" d="M261.5,384.5H501V369.9H261.5v14.6Z" class="g0_223"/>
<path fill-rule="evenodd" d="M261.5,399.2H501V384.5H261.5v14.7Z" class="g0_223"/>
<path fill-rule="evenodd" d="M261.5,413.9H501V399.2H261.5v14.7Z" class="g0_223"/>
<path fill-rule="evenodd" d="M261.5,428.5H501V413.9H261.5v14.6Z" class="g0_223"/>
<path fill-rule="evenodd" d="M261.5,443.2H501V428.5H261.5v14.7Z" class="g0_223"/>
<path fill-rule="evenodd" d="M261.1,457.9H501V443.2H261.1v14.7Z" class="g0_223"/>
<path fill-rule="evenodd" d="M261.1,472.5H501V457.9H261.1v14.6Z" class="g0_223"/>
<path fill-rule="evenodd" d="M261.1,487.2H501V472.5H261.1v14.7Z" class="g0_223"/>
<path fill-rule="evenodd" d="M261.1,501.9H501V487.2H261.1v14.7Z" class="g0_223"/>
<path fill-rule="evenodd" d="M261.1,516.5H501V501.9H261.1v14.6Z" class="g0_223"/>
<path fill-rule="evenodd" d="M261.1,531.2H501V516.5H261.1v14.7Z" class="g0_223"/>
<path fill-rule="evenodd" d="M261.1,545.9H500.2V531.2H261.1v14.7Z" class="g0_223"/>
<path fill-rule="evenodd" d="M261.1,560.5H500.2V545.9H261.1v14.6Z" class="g0_223"/>
<path fill-rule="evenodd" d="M261.1,575.2H500.2V560.5H261.1v14.7Z" class="g0_223"/>
<path fill-rule="evenodd" d="M261.1,589.9H500.2V575.2H261.1v14.7Z" class="g0_223"/>
<path fill-rule="evenodd" d="M260.7,604.6H500.6V589.9H260.7v14.7Z" class="g0_223"/>
<path fill-rule="evenodd" d="M260.7,619.2H500.6V604.6H260.7v14.6Z" class="g0_223"/>
<path fill-rule="evenodd" d="M260.7,633.9H500.6V619.2H260.7v14.7Z" class="g0_223"/>
<path fill-rule="evenodd" d="M261.1,648.9H500.2V634.3H261.1v14.6Z" class="g0_223"/>
<path fill-rule="evenodd" d="M261.1,663.6H500.2V648.9H261.1v14.7Z" class="g0_223"/>
<path fill-rule="evenodd" d="M260.7,679H499.9V664.3H260.7V679Z" class="g0_223"/>
<path fill-rule="evenodd" d="M260.7,693.7H499.9V679H260.7v14.7Z" class="g0_223"/>
<path fill-rule="evenodd" d="M260.4,708.3H500.2V693.7H260.4v14.6Z" class="g0_223"/>
<path fill-rule="evenodd" d="M260.4,723H500.2V708.3H260.4V723Z" class="g0_223"/>
<path fill-rule="evenodd" d="M260.4,737.7H500.2V723H260.4v14.7Z" class="g0_223"/>
<path fill-rule="evenodd" d="M260.4,752.3H500.2V737.7H260.4v14.6Z" class="g0_223"/>
<path fill-rule="evenodd" d="M260.4,767H500.2V752.3H260.4V767Z" class="g0_223"/>
<path fill-rule="evenodd" d="M260,782.6H500.2V767.7H260v14.9Z" class="g0_223"/>
<path fill-rule="evenodd" d="M260,797.2H500.2V782.6H260v14.6Z" class="g0_223"/>
<path fill-rule="evenodd" d="M260,811.9H500.2V797.2H260v14.7Z" class="g0_223"/>
<path fill-rule="evenodd" d="M260,826.6H500.2V811.9H260v14.7Z" class="g0_223"/>
<path fill-rule="evenodd" d="M260,841.3H500.2V826.6H260v14.7Z" class="g0_223"/>
<path fill-rule="evenodd" d="M260,856H500.2V841.3H260V856Z" class="g0_223"/>
<path fill-rule="evenodd" d="M260.4,871H499.9V856.3H260.4V871Z" class="g0_223"/>
<path fill-rule="evenodd" d="M260.4,885.7H499.9V871H260.4v14.7Z" class="g0_223"/>
<path fill-rule="evenodd" d="M261.8,900.3H500.6V885.7H261.8v14.6Z" class="g0_223"/>
<path fill-rule="evenodd" d="M521.7,161.4H760.4V146.7H521.7v14.7Z" class="g0_223"/>
<path fill-rule="evenodd" d="M521.7,176H760.4V161.4H521.7V176Z" class="g0_223"/>
<path fill-rule="evenodd" d="M521.3,190.7H760.1V176H521.3v14.7Z" class="g0_223"/>
<path fill-rule="evenodd" d="M521.3,205.4H760.1V190.7H521.3v14.7Z" class="g0_223"/>
<path fill-rule="evenodd" d="M521.3,220H760.1V205.4H521.3V220Z" class="g0_223"/>
<path fill-rule="evenodd" d="M521.3,235.1H760.4V220.4H521.3v14.7Z" class="g0_223"/>
<path fill-rule="evenodd" d="M521.3,249.7H760.4V235.1H521.3v14.6Z" class="g0_223"/>
<path fill-rule="evenodd" d="M521,264.9H760.1V250.1H521v14.8Z" class="g0_223"/>
<path fill-rule="evenodd" d="M521,279.6H760.1V264.9H521v14.7Z" class="g0_223"/>
<path fill-rule="evenodd" d="M521,294.3H760.8V279.6H521v14.7Z" class="g0_223"/>
<path fill-rule="evenodd" d="M521,308.9H760.8V294.3H521v14.6Z" class="g0_223"/>
<path fill-rule="evenodd" d="M521,323.6H760.8V308.9H521v14.7Z" class="g0_223"/>
<path fill-rule="evenodd" d="M521,338.3H760.8V323.6H521v14.7Z" class="g0_223"/>
<path fill-rule="evenodd" d="M521,353H760.8V338.3H521V353Z" class="g0_223"/>
<path fill-rule="evenodd" d="M520.2,368H760.4V353.4H520.2V368Z" class="g0_223"/>
<path fill-rule="evenodd" d="M520.2,382.7H760.4V368H520.2v14.7Z" class="g0_223"/>
<path fill-rule="evenodd" d="M520.2,397.4H760.4V382.7H520.2v14.7Z" class="g0_223"/>
<path fill-rule="evenodd" d="M538.9,412H760.8V397.4H538.9V412Z" class="g0_223"/>
<path fill-rule="evenodd" d="M539.3,427.4H760.8V412.8H539.3v14.6Z" class="g0_223"/>
<path fill-rule="evenodd" d="M519.9,442.5H760.8V427.8H519.9v14.7Z" class="g0_223"/>
<path fill-rule="evenodd" d="M519.9,457.1H760.8V442.5H519.9v14.6Z" class="g0_223"/>
<path fill-rule="evenodd" d="M519.9,471.8H760.8V457.1H519.9v14.7Z" class="g0_223"/>
<path fill-rule="evenodd" d="M519.9,486.5H760.8V471.8H519.9v14.7Z" class="g0_223"/>
<path fill-rule="evenodd" d="M519.9,501.1H760.8V486.5H519.9v14.6Z" class="g0_223"/>
<path fill-rule="evenodd" d="M519.9,515.8H760.8V501.1H519.9v14.7Z" class="g0_223"/>
<path fill-rule="evenodd" d="M519.9,530.5H760.8V515.8H519.9v14.7Z" class="g0_223"/>
<path fill-rule="evenodd" d="M519.9,545.1H760.8V530.5H519.9v14.6Z" class="g0_223"/>
<path fill-rule="evenodd" d="M519.9,559.8H760.8V545.1H519.9v14.7Z" class="g0_223"/>
<path fill-rule="evenodd" d="M519.9,574.5H760.8V559.8H519.9v14.7Z" class="g0_223"/>
<path fill-rule="evenodd" d="M519.9,589.1H760.1V574.5H519.9v14.6Z" class="g0_223"/>
<path fill-rule="evenodd" d="M519.9,603.8H760.1V589.1H519.9v14.7Z" class="g0_223"/>
<path fill-rule="evenodd" d="M519.9,618.5H760.1V603.8H519.9v14.7Z" class="g0_223"/>
<path fill-rule="evenodd" d="M519.9,633.2H760.1V618.5H519.9v14.7Z" class="g0_223"/>
<path fill-rule="evenodd" d="M519.9,647.8H760.1V633.2H519.9v14.6Z" class="g0_223"/>
<path fill-rule="evenodd" d="M519.9,662.5H760.1V647.8H519.9v14.7Z" class="g0_223"/>
<path fill-rule="evenodd" d="M519.9,677.2H760.1V662.5H519.9v14.7Z" class="g0_223"/>
<path fill-rule="evenodd" d="M519.9,691.8H760.1V677.2H519.9v14.6Z" class="g0_223"/>
<path fill-rule="evenodd" d="M519.9,706.5H760.1V691.8H519.9v14.7Z" class="g0_223"/>
<path fill-rule="evenodd" d="M519.9,721.2H760.1V706.5H519.9v14.7Z" class="g0_223"/>
<path fill-rule="evenodd" d="M519.9,735.8H760.1V721.2H519.9v14.6Z" class="g0_223"/>
<path fill-rule="evenodd" d="M519.9,750.5H760.1V735.8H519.9v14.7Z" class="g0_223"/>
<path fill-rule="evenodd" d="M520.2,765.2H760.8V750.5H520.2v14.7Z" class="g0_223"/>
<path fill-rule="evenodd" d="M520.2,779.8H760.8V765.2H520.2v14.6Z" class="g0_223"/>
<path fill-rule="evenodd" d="M520.2,794.5H760.8V779.8H520.2v14.7Z" class="g0_223"/>
<path fill-rule="evenodd" d="M520.2,809.2H760.8V794.5H520.2v14.7Z" class="g0_223"/>
<path fill-rule="evenodd" d="M520.2,823.8H760.8V809.2H520.2v14.6Z" class="g0_223"/>
<path fill-rule="evenodd" d="M520.2,838.5H760.8V823.8H520.2v14.7Z" class="g0_223"/>
<path fill-rule="evenodd" d="M520.2,853.2H760.8V838.5H520.2v14.7Z" class="g0_223"/>
<path fill-rule="evenodd" d="M520.2,867.9H760.8V853.2H520.2v14.7Z" class="g0_223"/>
<path fill-rule="evenodd" d="M520.2,882.5H760.8V867.9H520.2v14.6Z" class="g0_223"/>
<path fill-rule="evenodd" d="M496.9,918.1H761V898.9H496.9v19.2Z" class="g0_223"/>
<path d="M189.5,100.8v117" class="g1_223"/>
<path d="M203,100.5v97.1" class="g2_223"/>
<path d="M206.3,100.5v86.9" class="g3_223"/>
<path d="M204.2,341.1v44" class="g4_223"/>
<path d="M204.5,877.9V994.8m3.4,-652.3V879.3M510,147.5V916.7" class="g3_223"/>
</svg>