<?xml version="1.0" encoding="UTF-8" standalone="no"?>
<!DOCTYPE svg PUBLIC "-//W3C//DTD SVG 1.1//EN"
"http://www.w3.org/Graphics/SVG/1.1/DTD/svg11.dtd">
<svg viewBox="0 0 909 1285" version="1.1" xmlns="http://www.w3.org/2000/svg" xmlns:xlink="http://www.w3.org/1999/xlink">
<defs>
<style type="text/css"><![CDATA[
.g0_328{
fill: #FFFFFF;
}
.g1_328{
fill: none;
stroke: #000000;
stroke-width: 0.381;
stroke-linecap: butt;
stroke-linejoin: round;
}
]]></style>
</defs>
<path fill-rule="evenodd" d="M609,125.8h79.2V110H609v15.8Z" class="g0_328"/>
<path fill-rule="evenodd" d="M189.8,161.7H429.2V147.1H189.8v14.6Z" class="g0_328"/>
<path fill-rule="evenodd" d="M189.8,176.4H429.2V161.7H189.8v14.7Z" class="g0_328"/>
<path fill-rule="evenodd" d="M189.8,191.1H429.2V176.4H189.8v14.7Z" class="g0_328"/>
<path fill-rule="evenodd" d="M190.1,205.7H428.5V191.1H190.1v14.6Z" class="g0_328"/>
<path fill-rule="evenodd" d="M190.1,220.4H428.5V205.7H190.1v14.7Z" class="g0_328"/>
<path fill-rule="evenodd" d="M189.8,235.1H428.1V220.4H189.8v14.7Z" class="g0_328"/>
<path fill-rule="evenodd" d="M189.8,249.7H428.1V235.1H189.8v14.6Z" class="g0_328"/>
<path fill-rule="evenodd" d="M208.5,264.9H429.2V250.1H208.5v14.8Z" class="g0_328"/>
<path fill-rule="evenodd" d="M189.4,279.6H428.1V264.9H189.4v14.7Z" class="g0_328"/>
<path fill-rule="evenodd" d="M189.4,294.3H428.1V279.6H189.4v14.7Z" class="g0_328"/>
<path fill-rule="evenodd" d="M189.8,308.9H428.1V294.3H189.8v14.6Z" class="g0_328"/>
<path fill-rule="evenodd" d="M189.8,323.6H428.1V308.9H189.8v14.7Z" class="g0_328"/>
<path fill-rule="evenodd" d="M189.4,338.3H427.8V323.6H189.4v14.7Z" class="g0_328"/>
<path fill-rule="evenodd" d="M189.4,353H427.8V338.3H189.4V353Z" class="g0_328"/>
<path fill-rule="evenodd" d="M207.7,367.7H429.2V353H207.7v14.7Z" class="g0_328"/>
<path fill-rule="evenodd" d="M188.7,382.7H428.5V368H188.7v14.7Z" class="g0_328"/>
<path fill-rule="evenodd" d="M188.7,397.4H428.5V382.7H188.7v14.7Z" class="g0_328"/>
<path fill-rule="evenodd" d="M188.7,412H428.5V397.4H188.7V412Z" class="g0_328"/>
<path fill-rule="evenodd" d="M188.7,426.7H428.5V412H188.7v14.7Z" class="g0_328"/>
<path fill-rule="evenodd" d="M188.7,441.4H428.5V426.7H188.7v14.7Z" class="g0_328"/>
<path fill-rule="evenodd" d="M188.7,456H428.5V441.4H188.7V456Z" class="g0_328"/>
<path fill-rule="evenodd" d="M188.7,470.7H428.5V456H188.7v14.7Z" class="g0_328"/>
<path fill-rule="evenodd" d="M188.7,485.4H428.5V470.7H188.7v14.7Z" class="g0_328"/>
<path fill-rule="evenodd" d="M188.7,500H428.5V485.4H188.7V500Z" class="g0_328"/>
<path fill-rule="evenodd" d="M189,514.7H429.2V500H189v14.7Z" class="g0_328"/>
<path fill-rule="evenodd" d="M189,529.7H429.2v-15H189v15Z" class="g0_328"/>
<path fill-rule="evenodd" d="M189,544.4H429.2V529.7H189v14.7Z" class="g0_328"/>
<path fill-rule="evenodd" d="M188.7,559.4H427.8V544.8H188.7v14.6Z" class="g0_328"/>
<path fill-rule="evenodd" d="M188.7,574.1H427.8V559.4H188.7v14.7Z" class="g0_328"/>
<path fill-rule="evenodd" d="M188.7,588.8H427.8V574.1H188.7v14.7Z" class="g0_328"/>
<path fill-rule="evenodd" d="M188.7,603.5H427.8V588.8H188.7v14.7Z" class="g0_328"/>
<path fill-rule="evenodd" d="M188.7,618.1H427.8V603.5H188.7v14.6Z" class="g0_328"/>
<path fill-rule="evenodd" d="M187.9,633.2H427V618.5H187.9v14.7Z" class="g0_328"/>
<path fill-rule="evenodd" d="M187.9,647.8H427V633.2H187.9v14.6Z" class="g0_328"/>
<path fill-rule="evenodd" d="M187.9,662.5H427V647.8H187.9v14.7Z" class="g0_328"/>
<path fill-rule="evenodd" d="M187.9,677.2H427V662.5H187.9v14.7Z" class="g0_328"/>
<path fill-rule="evenodd" d="M188.3,691.8H427V677.2H188.3v14.6Z" class="g0_328"/>
<path fill-rule="evenodd" d="M188.3,706.5H427V691.8H188.3v14.7Z" class="g0_328"/>
<path fill-rule="evenodd" d="M187.9,721.2H426.7V706.5H187.9v14.7Z" class="g0_328"/>
<path fill-rule="evenodd" d="M187.9,735.8H426.7V721.2H187.9v14.6Z" class="g0_328"/>
<path fill-rule="evenodd" d="M187.9,750.5H427V735.8H187.9v14.7Z" class="g0_328"/>
<path fill-rule="evenodd" d="M187.9,765.2H427V750.5H187.9v14.7Z" class="g0_328"/>
<path fill-rule="evenodd" d="M187.6,780.2H426.7V765.5H187.6v14.7Z" class="g0_328"/>
<path fill-rule="evenodd" d="M187.6,794.9H426.7V780.2H187.6v14.7Z" class="g0_328"/>
<path fill-rule="evenodd" d="M187.9,809.9H427V795.2H187.9v14.7Z" class="g0_328"/>
<path fill-rule="evenodd" d="M187.9,824.6H427V809.9H187.9v14.7Z" class="g0_328"/>
<path fill-rule="evenodd" d="M187.2,839.6H426.7V824.9H187.2v14.7Z" class="g0_328"/>
<path fill-rule="evenodd" d="M187.2,854.3H426.7V839.6H187.2v14.7Z" class="g0_328"/>
<path fill-rule="evenodd" d="M187.2,869H426.7V854.3H187.2V869Z" class="g0_328"/>
<path fill-rule="evenodd" d="M187.2,883.6H426.3V869H187.2v14.6Z" class="g0_328"/>
<path fill-rule="evenodd" d="M187.2,898.3H426.3V883.6H187.2v14.7Z" class="g0_328"/>
<path fill-rule="evenodd" d="M189.8,913H429.2V898.3H189.8V913Z" class="g0_328"/>
<path fill-rule="evenodd" d="M448.7,161.4H687.5V146.7H448.7v14.7Z" class="g0_328"/>
<path fill-rule="evenodd" d="M448.7,176H687.5V161.4H448.7V176Z" class="g0_328"/>
<path fill-rule="evenodd" d="M448.7,190.7H687.5V176H448.7v14.7Z" class="g0_328"/>
<path fill-rule="evenodd" d="M448.7,205.4H687.5V190.7H448.7v14.7Z" class="g0_328"/>
<path fill-rule="evenodd" d="M448.3,220.4H687.1V205.7H448.3v14.7Z" class="g0_328"/>
<path fill-rule="evenodd" d="M448.3,235.1H687.1V220.4H448.3v14.7Z" class="g0_328"/>
<path fill-rule="evenodd" d="M448.3,249.7H687.1V235.1H448.3v14.6Z" class="g0_328"/>
<path fill-rule="evenodd" d="M448.3,264.4H687.1V249.7H448.3v14.7Z" class="g0_328"/>
<path fill-rule="evenodd" d="M448.3,279.6H687.1V264.4H448.3v15.2Z" class="g0_328"/>
<path fill-rule="evenodd" d="M448.3,294.3H687.1V279.6H448.3v14.7Z" class="g0_328"/>
<path fill-rule="evenodd" d="M448.3,308.9H687.1V294.3H448.3v14.6Z" class="g0_328"/>
<path fill-rule="evenodd" d="M448.3,323.6H687.1V308.9H448.3v14.7Z" class="g0_328"/>
<path fill-rule="evenodd" d="M448.3,338.3H687.1V323.6H448.3v14.7Z" class="g0_328"/>
<path fill-rule="evenodd" d="M448.3,353H686.4V338.3H448.3V353Z" class="g0_328"/>
<path fill-rule="evenodd" d="M448.3,367.7H686.4V353H448.3v14.7Z" class="g0_328"/>
<path fill-rule="evenodd" d="M448.3,382.3H686.4V367.7H448.3v14.6Z" class="g0_328"/>
<path fill-rule="evenodd" d="M448,397.4H687.5V382.7H448v14.7Z" class="g0_328"/>
<path fill-rule="evenodd" d="M448,412H687.5V397.4H448V412Z" class="g0_328"/>
<path fill-rule="evenodd" d="M448,426.7H687.5V412H448v14.7Z" class="g0_328"/>
<path fill-rule="evenodd" d="M448,442.1H686.7V427.4H448v14.7Z" class="g0_328"/>
<path fill-rule="evenodd" d="M448,456.8H686.7V442.1H448v14.7Z" class="g0_328"/>
<path fill-rule="evenodd" d="M448,471.8H686.7v-15H448v15Z" class="g0_328"/>
<path fill-rule="evenodd" d="M448,486.5H686.7V471.8H448v14.7Z" class="g0_328"/>
<path fill-rule="evenodd" d="M466,501.5H687.5V486.8H466v14.7Z" class="g0_328"/>
<path fill-rule="evenodd" d="M466,516.2H687.5V501.5H466v14.7Z" class="g0_328"/>
<path fill-rule="evenodd" d="M447.6,531.2H686.4V516.5H447.6v14.7Z" class="g0_328"/>
<path fill-rule="evenodd" d="M447.6,545.9H686.4V531.2H447.6v14.7Z" class="g0_328"/>
<path fill-rule="evenodd" d="M447.6,560.5H686.4V545.9H447.6v14.6Z" class="g0_328"/>
<path fill-rule="evenodd" d="M447.6,575.2H686.4V560.5H447.6v14.7Z" class="g0_328"/>
<path fill-rule="evenodd" d="M447.6,589.9H686.4V575.2H447.6v14.7Z" class="g0_328"/>
<path fill-rule="evenodd" d="M447.2,604.9H686.4V590.2H447.2v14.7Z" class="g0_328"/>
<path fill-rule="evenodd" d="M447.2,619.6H686.4V604.9H447.2v14.7Z" class="g0_328"/>
<path fill-rule="evenodd" d="M447.2,634.3H686.4V619.6H447.2v14.7Z" class="g0_328"/>
<path fill-rule="evenodd" d="M447.2,648.9H686.4V634.3H447.2v14.6Z" class="g0_328"/>
<path fill-rule="evenodd" d="M447.2,663.6H686.4V648.9H447.2v14.7Z" class="g0_328"/>
<path fill-rule="evenodd" d="M447.2,678.3H686.4V663.6H447.2v14.7Z" class="g0_328"/>
<path fill-rule="evenodd" d="M447.2,692.9H686.4V678.3H447.2v14.6Z" class="g0_328"/>
<path fill-rule="evenodd" d="M447.2,707.6H686.4V692.9H447.2v14.7Z" class="g0_328"/>
<path fill-rule="evenodd" d="M447.2,722.6H686.4v-15H447.2v15Z" class="g0_328"/>
<path fill-rule="evenodd" d="M447.2,737.3H686.4V722.6H447.2v14.7Z" class="g0_328"/>
<path fill-rule="evenodd" d="M447.2,752H686.4V737.3H447.2V752Z" class="g0_328"/>
<path fill-rule="evenodd" d="M447.2,766.6H686.4V752H447.2v14.6Z" class="g0_328"/>
<path fill-rule="evenodd" d="M446.9,781.3H686.4V766.6H446.9v14.7Z" class="g0_328"/>
<path fill-rule="evenodd" d="M446.9,796H686.4V781.3H446.9V796Z" class="g0_328"/>
<path fill-rule="evenodd" d="M446.9,810.6H686.4V796H446.9v14.6Z" class="g0_328"/>
<path fill-rule="evenodd" d="M446.9,825.3H686.4V810.6H446.9v14.7Z" class="g0_328"/>
<path fill-rule="evenodd" d="M446.9,840.4H686V825.7H446.9v14.7Z" class="g0_328"/>
<path fill-rule="evenodd" d="M446.9,855H686V840.4H446.9V855Z" class="g0_328"/>
<path fill-rule="evenodd" d="M446.1,869.7H685.6V855H446.1v14.7Z" class="g0_328"/>
<path fill-rule="evenodd" d="M446.1,884.4H685.6V869.7H446.1v14.7Z" class="g0_328"/>
<path fill-rule="evenodd" d="M446.1,899H685.6V884.4H446.1V899Z" class="g0_328"/>
<path fill-rule="evenodd" d="M423.4,931.7H688.2V914.1H423.4v17.6Z" class="g0_328"/>
<path d="M436.1,146.4V914.9" class="g1_328"/>
</svg>