<?xml version="1.0" encoding="UTF-8" standalone="no"?>
<!DOCTYPE svg PUBLIC "-//W3C//DTD SVG 1.1//EN"
"http://www.w3.org/Graphics/SVG/1.1/DTD/svg11.dtd">
<svg viewBox="0 0 909 1285" version="1.1" xmlns="http://www.w3.org/2000/svg" xmlns:xlink="http://www.w3.org/1999/xlink">
<defs>
<style type="text/css"><![CDATA[
.g0_64{
fill: #FFFFFF;
}
]]></style>
</defs>
<path fill-rule="evenodd" d="M618.3,127.6h59.4V110H618.3v17.6Z" class="g0_64"/>
<path fill-rule="evenodd" d="M177.5,163.6H416.2V148.5H177.5v15.1Z" class="g0_64"/>
<path fill-rule="evenodd" d="M177.1,178.6H416.2v-15H177.1v15Z" class="g0_64"/>
<path fill-rule="evenodd" d="M177.1,193.6H416.2v-15H177.1v15Z" class="g0_64"/>
<path fill-rule="evenodd" d="M177.1,208.7H416.2V193.6H177.1v15.1Z" class="g0_64"/>
<path fill-rule="evenodd" d="M177.5,223.7H415.9v-15H177.5v15Z" class="g0_64"/>
<path fill-rule="evenodd" d="M177.5,238.7H415.9v-15H177.5v15Z" class="g0_64"/>
<path fill-rule="evenodd" d="M177.1,253.9H416.2V238.7H177.1v15.2Z" class="g0_64"/>
<path fill-rule="evenodd" d="M177.1,269H416.2V253.9H177.1V269Z" class="g0_64"/>
<path fill-rule="evenodd" d="M177.1,284H416.2V269H177.1v15Z" class="g0_64"/>
<path fill-rule="evenodd" d="M177.5,299H416.2V284H177.5v15Z" class="g0_64"/>
<path fill-rule="evenodd" d="M177.5,314.1H416.2V299H177.5v15.1Z" class="g0_64"/>
<path fill-rule="evenodd" d="M177.5,329.1H415.9v-15H177.5v15Z" class="g0_64"/>
<path fill-rule="evenodd" d="M177.5,344.1H415.9v-15H177.5v15Z" class="g0_64"/>
<path fill-rule="evenodd" d="M177.1,359.2H416.2v-15H177.1v15Z" class="g0_64"/>
<path fill-rule="evenodd" d="M177.1,374.3H416.2V359.2H177.1v15.1Z" class="g0_64"/>
<path fill-rule="evenodd" d="M177.1,389.3H415.9v-15H177.1v15Z" class="g0_64"/>
<path fill-rule="evenodd" d="M177.1,404.3H415.9v-15H177.1v15Z" class="g0_64"/>
<path fill-rule="evenodd" d="M177.1,419.5H415.9V404.3H177.1v15.2Z" class="g0_64"/>
<path fill-rule="evenodd" d="M177.1,434.6H415.9V419.5H177.1v15.1Z" class="g0_64"/>
<path fill-rule="evenodd" d="M177.1,449.6H415.9v-15H177.1v15Z" class="g0_64"/>
<path fill-rule="evenodd" d="M177.1,464.6H415.9v-15H177.1v15Z" class="g0_64"/>
<path fill-rule="evenodd" d="M177.1,479.7H415.9V464.6H177.1v15.1Z" class="g0_64"/>
<path fill-rule="evenodd" d="M177.1,494.7H415.9v-15H177.1v15Z" class="g0_64"/>
<path fill-rule="evenodd" d="M177.1,509.7H415.9v-15H177.1v15Z" class="g0_64"/>
<path fill-rule="evenodd" d="M177.1,524.8H415.9V509.7H177.1v15.1Z" class="g0_64"/>
<path fill-rule="evenodd" d="M177.1,539.8H415.9v-15H177.1v15Z" class="g0_64"/>
<path fill-rule="evenodd" d="M177.1,554.8H415.9v-15H177.1v15Z" class="g0_64"/>
<path fill-rule="evenodd" d="M177.1,569.9H415.9V554.8H177.1v15.1Z" class="g0_64"/>
<path fill-rule="evenodd" d="M177.1,584.9H415.9v-15H177.1v15Z" class="g0_64"/>
<path fill-rule="evenodd" d="M177.1,600.2H415.5V584.9H177.1v15.3Z" class="g0_64"/>
<path fill-rule="evenodd" d="M177.1,615.2H415.5v-15H177.1v15Z" class="g0_64"/>
<path fill-rule="evenodd" d="M177.1,630.2H415.5v-15H177.1v15Z" class="g0_64"/>
<path fill-rule="evenodd" d="M176,645.3H414.8V630.2H176v15.1Z" class="g0_64"/>
<path fill-rule="evenodd" d="M176,660.3H414.8v-15H176v15Z" class="g0_64"/>
<path fill-rule="evenodd" d="M176,675.3H414.8v-15H176v15Z" class="g0_64"/>
<path fill-rule="evenodd" d="M176.8,690.4H415.1V675.3H176.8v15.1Z" class="g0_64"/>
<path fill-rule="evenodd" d="M176.8,705.4H415.1v-15H176.8v15Z" class="g0_64"/>
<path fill-rule="evenodd" d="M176.8,720.4H415.1v-15H176.8v15Z" class="g0_64"/>
<path fill-rule="evenodd" d="M176.8,735.5H415.1V720.4H176.8v15.1Z" class="g0_64"/>
<path fill-rule="evenodd" d="M195.1,750.5H416.2v-15H195.1v15Z" class="g0_64"/>
<path fill-rule="evenodd" d="M194.7,765.5H416.2v-15H194.7v15Z" class="g0_64"/>
<path fill-rule="evenodd" d="M176.8,780.7H415.1V765.5H176.8v15.2Z" class="g0_64"/>
<path fill-rule="evenodd" d="M176.8,795.8H415.1V780.7H176.8v15.1Z" class="g0_64"/>
<path fill-rule="evenodd" d="M176.8,810.8H415.1v-15H176.8v15Z" class="g0_64"/>
<path fill-rule="evenodd" d="M176.8,825.8H415.1v-15H176.8v15Z" class="g0_64"/>
<path fill-rule="evenodd" d="M176.8,840.9H415.1V825.8H176.8v15.1Z" class="g0_64"/>
<path fill-rule="evenodd" d="M176.8,856H415.1V840.9H176.8V856Z" class="g0_64"/>
<path fill-rule="evenodd" d="M176.8,871H415.1V856H176.8v15Z" class="g0_64"/>
<path fill-rule="evenodd" d="M177.1,902.3H416.2V890.1H177.1v12.2Z" class="g0_64"/>
<path fill-rule="evenodd" d="M194.7,917.4H416.2V902.3H194.7v15.1Z" class="g0_64"/>
<path fill-rule="evenodd" d="M436.4,164.7H676.3V149.6H436.4v15.1Z" class="g0_64"/>
<path fill-rule="evenodd" d="M436.4,179.7H676.3v-15H436.4v15Z" class="g0_64"/>
<path fill-rule="evenodd" d="M436.4,194.7H676.3v-15H436.4v15Z" class="g0_64"/>
<path fill-rule="evenodd" d="M436.4,209.8H676.3V194.7H436.4v15.1Z" class="g0_64"/>
<path fill-rule="evenodd" d="M436.8,224.8H675.6v-15H436.8v15Z" class="g0_64"/>
<path fill-rule="evenodd" d="M436.8,239.8H675.6v-15H436.8v15Z" class="g0_64"/>
<path fill-rule="evenodd" d="M436.8,254.9H676.3V239.8H436.8v15.1Z" class="g0_64"/>
<path fill-rule="evenodd" d="M436.8,269.9H676.3v-15H436.8v15Z" class="g0_64"/>
<path fill-rule="evenodd" d="M436.8,285.1H676.3V269.9H436.8v15.2Z" class="g0_64"/>
<path fill-rule="evenodd" d="M436.4,300.1H675.6v-15H436.4v15Z" class="g0_64"/>
<path fill-rule="evenodd" d="M436.4,315.2H675.6V300.1H436.4v15.1Z" class="g0_64"/>
<path fill-rule="evenodd" d="M436.4,330.2H675.6v-15H436.4v15Z" class="g0_64"/>
<path fill-rule="evenodd" d="M437.1,345.2H675.6v-15H437.1v15Z" class="g0_64"/>
<path fill-rule="evenodd" d="M437.1,360.3H675.6v-15H437.1v15Z" class="g0_64"/>
<path fill-rule="evenodd" d="M436.8,375.4H675.6V360.3H436.8v15.1Z" class="g0_64"/>
<path fill-rule="evenodd" d="M436.8,390.4H675.6v-15H436.8v15Z" class="g0_64"/>
<path fill-rule="evenodd" d="M435.3,405.4H675.6v-15H435.3v15Z" class="g0_64"/>
<path fill-rule="evenodd" d="M435.3,420.5H675.6V405.4H435.3v15.1Z" class="g0_64"/>
<path fill-rule="evenodd" d="M435.3,435.5H675.6v-15H435.3v15Z" class="g0_64"/>
<path fill-rule="evenodd" d="M435.3,450.7H675.6V435.5H435.3v15.2Z" class="g0_64"/>
<path fill-rule="evenodd" d="M435.3,465.7H675.6v-15H435.3v15Z" class="g0_64"/>
<path fill-rule="evenodd" d="M435.3,480.8H675.6V465.7H435.3v15.1Z" class="g0_64"/>
<path fill-rule="evenodd" d="M436,495.8H675.6v-15H436v15Z" class="g0_64"/>
<path fill-rule="evenodd" d="M436,510.8H675.6v-15H436v15Z" class="g0_64"/>
<path fill-rule="evenodd" d="M436,525.9H675.6V510.8H436v15.1Z" class="g0_64"/>
<path fill-rule="evenodd" d="M436,540.9H675.6v-15H436v15Z" class="g0_64"/>
<path fill-rule="evenodd" d="M436,555.9H675.6v-15H436v15Z" class="g0_64"/>
<path fill-rule="evenodd" d="M436,571H675.6V555.9H436V571Z" class="g0_64"/>
<path fill-rule="evenodd" d="M436,586H675.6V571H436v15Z" class="g0_64"/>
<path fill-rule="evenodd" d="M436,601.1H675.6V586H436v15.1Z" class="g0_64"/>
<path fill-rule="evenodd" d="M436,616.1H675.6v-15H436v15Z" class="g0_64"/>
<path fill-rule="evenodd" d="M435.7,631.3H675.2V616.1H435.7v15.2Z" class="g0_64"/>
<path fill-rule="evenodd" d="M435.7,646.4H675.2V631.3H435.7v15.1Z" class="g0_64"/>
<path fill-rule="evenodd" d="M435.7,661.4H675.2v-15H435.7v15Z" class="g0_64"/>
<path fill-rule="evenodd" d="M454,676.4H676.3v-15H454v15Z" class="g0_64"/>
<path fill-rule="evenodd" d="M454,691.5H676.3V676.4H454v15.1Z" class="g0_64"/>
<path fill-rule="evenodd" d="M454,706.5H676.3v-15H454v15Z" class="g0_64"/>
<path fill-rule="evenodd" d="M435.7,721.5H675.2v-15H435.7v15Z" class="g0_64"/>
<path fill-rule="evenodd" d="M435.7,736.6H675.2V721.5H435.7v15.1Z" class="g0_64"/>
<path fill-rule="evenodd" d="M435.7,751.6H675.2v-15H435.7v15Z" class="g0_64"/>
<path fill-rule="evenodd" d="M435.7,766.6H675.2v-15H435.7v15Z" class="g0_64"/>
<path fill-rule="evenodd" d="M435.7,781.7H675.2V766.6H435.7v15.1Z" class="g0_64"/>
<path fill-rule="evenodd" d="M435.7,797.2H675.2V781.7H435.7v15.5Z" class="g0_64"/>
<path fill-rule="evenodd" d="M435.7,812.3H675.2V797.2H435.7v15.1Z" class="g0_64"/>
<path fill-rule="evenodd" d="M435.7,827.3H675.6v-15H435.7v15Z" class="g0_64"/>
<path fill-rule="evenodd" d="M435.7,842.4H675.6V827.3H435.7v15.1Z" class="g0_64"/>
<path fill-rule="evenodd" d="M435.7,857.4H675.6v-15H435.7v15Z" class="g0_64"/>
<path fill-rule="evenodd" d="M435.7,872.5H675.6V857.4H435.7v15.1Z" class="g0_64"/>
<path fill-rule="evenodd" d="M417.7,903.3H676.3V885.7H417.7v17.6Z" class="g0_64"/>
</svg>