<?xml version="1.0" encoding="UTF-8" standalone="no"?>
<!DOCTYPE svg PUBLIC "-//W3C//DTD SVG 1.1//EN"
"http://www.w3.org/Graphics/SVG/1.1/DTD/svg11.dtd">
<svg viewBox="0 0 909 1285" version="1.1" xmlns="http://www.w3.org/2000/svg" xmlns:xlink="http://www.w3.org/1999/xlink">
<defs>
<style type="text/css"><![CDATA[
.g0_278{
fill: #FFFFFF;
}
.g1_278{
fill: none;
stroke: #000000;
stroke-width: 2.215;
stroke-linecap: butt;
stroke-linejoin: round;
}
.g2_278{
fill: none;
stroke: #000000;
stroke-width: 0.381;
stroke-linecap: butt;
stroke-linejoin: round;
}
]]></style>
</defs>
<path fill-rule="evenodd" d="M269.9,125.8H769.1V110H269.9v15.8Z" class="g0_278"/>
<path fill-rule="evenodd" d="M269.2,161.4H509V146.3H269.2v15.1Z" class="g0_278"/>
<path fill-rule="evenodd" d="M269.2,176.4H509v-15H269.2v15Z" class="g0_278"/>
<path fill-rule="evenodd" d="M269.2,191.6H509V176.4H269.2v15.2Z" class="g0_278"/>
<path fill-rule="evenodd" d="M268.8,206.6H509v-15H268.8v15Z" class="g0_278"/>
<path fill-rule="evenodd" d="M268.8,221.7H509V206.6H268.8v15.1Z" class="g0_278"/>
<path fill-rule="evenodd" d="M268.8,236.7H509v-15H268.8v15Z" class="g0_278"/>
<path fill-rule="evenodd" d="M268.8,251.7H509v-15H268.8v15Z" class="g0_278"/>
<path fill-rule="evenodd" d="M268.8,266.8H509V251.7H268.8v15.1Z" class="g0_278"/>
<path fill-rule="evenodd" d="M268.8,281.8H509v-15H268.8v15Z" class="g0_278"/>
<path fill-rule="evenodd" d="M268.8,296.8H509v-15H268.8v15Z" class="g0_278"/>
<path fill-rule="evenodd" d="M268.8,311.9H509V296.8H268.8v15.1Z" class="g0_278"/>
<path fill-rule="evenodd" d="M268.8,326.9H509v-15H268.8v15Z" class="g0_278"/>
<path fill-rule="evenodd" d="M268.8,341.9H509v-15H268.8v15Z" class="g0_278"/>
<path fill-rule="evenodd" d="M268.8,357.2H509V342H268.8v15.2Z" class="g0_278"/>
<path fill-rule="evenodd" d="M268.8,372.2H509v-15H268.8v15Z" class="g0_278"/>
<path fill-rule="evenodd" d="M268.8,387.3H509V372.2H268.8v15.1Z" class="g0_278"/>
<path fill-rule="evenodd" d="M268.5,402.3H508.7v-15H268.5v15Z" class="g0_278"/>
<path fill-rule="evenodd" d="M268.5,417.3H508.7v-15H268.5v15Z" class="g0_278"/>
<path fill-rule="evenodd" d="M268.5,432.4H508.7V417.3H268.5v15.1Z" class="g0_278"/>
<path fill-rule="evenodd" d="M268.5,447.4H508.7v-15H268.5v15Z" class="g0_278"/>
<path fill-rule="evenodd" d="M268.5,462.4H508.7v-15H268.5v15Z" class="g0_278"/>
<path fill-rule="evenodd" d="M286.8,477.5H509V462.4H286.8v15.1Z" class="g0_278"/>
<path fill-rule="evenodd" d="M268.5,492.5H507.9v-15H268.5v15Z" class="g0_278"/>
<path fill-rule="evenodd" d="M268.5,507.5H507.9v-15H268.5v15Z" class="g0_278"/>
<path fill-rule="evenodd" d="M268.5,522.6H507.9V507.5H268.5v15.1Z" class="g0_278"/>
<path fill-rule="evenodd" d="M268.5,537.8H507.9V522.6H268.5v15.2Z" class="g0_278"/>
<path fill-rule="evenodd" d="M268.5,552.8H507.9v-15H268.5v15Z" class="g0_278"/>
<path fill-rule="evenodd" d="M268.5,567.9H507.6V552.8H268.5v15.1Z" class="g0_278"/>
<path fill-rule="evenodd" d="M268.5,582.9H507.6v-15H268.5v15Z" class="g0_278"/>
<path fill-rule="evenodd" d="M268.1,598H507.9V582.9H268.1V598Z" class="g0_278"/>
<path fill-rule="evenodd" d="M268.1,613H507.9V598H268.1v15Z" class="g0_278"/>
<path fill-rule="evenodd" d="M268.1,628H507.9V613H268.1v15Z" class="g0_278"/>
<path fill-rule="evenodd" d="M267.7,643.1H507.9V628H267.7v15.1Z" class="g0_278"/>
<path fill-rule="evenodd" d="M267.7,658.1H507.9v-15H267.7v15Z" class="g0_278"/>
<path fill-rule="evenodd" d="M267.7,673.1H507.9v-15H267.7v15Z" class="g0_278"/>
<path fill-rule="evenodd" d="M267.7,688.2H507.9V673.1H267.7v15.1Z" class="g0_278"/>
<path fill-rule="evenodd" d="M267.7,703.2H507.9v-15H267.7v15Z" class="g0_278"/>
<path fill-rule="evenodd" d="M268.1,718.4H507.9V703.2H268.1v15.2Z" class="g0_278"/>
<path fill-rule="evenodd" d="M268.1,733.4H507.9v-15H268.1v15Z" class="g0_278"/>
<path fill-rule="evenodd" d="M267.7,748.5H507.9V733.4H267.7v15.1Z" class="g0_278"/>
<path fill-rule="evenodd" d="M267.7,763.5H507.9v-15H267.7v15Z" class="g0_278"/>
<path fill-rule="evenodd" d="M267.7,778.5H507.9v-15H267.7v15Z" class="g0_278"/>
<path fill-rule="evenodd" d="M267.7,793.6H507.9V778.5H267.7v15.1Z" class="g0_278"/>
<path fill-rule="evenodd" d="M267.7,808.6H507.9v-15H267.7v15Z" class="g0_278"/>
<path fill-rule="evenodd" d="M267.7,823.6H507.9v-15H267.7v15Z" class="g0_278"/>
<path fill-rule="evenodd" d="M268.1,838.7H507.6V823.6H268.1v15.1Z" class="g0_278"/>
<path fill-rule="evenodd" d="M268.1,853.8H507.6V838.7H268.1v15.1Z" class="g0_278"/>
<path fill-rule="evenodd" d="M267.7,868.8H507.6v-15H267.7v15Z" class="g0_278"/>
<path fill-rule="evenodd" d="M267.7,883.8H507.6v-15H267.7v15Z" class="g0_278"/>
<path fill-rule="evenodd" d="M269.6,899H508.7V883.8H269.6V899Z" class="g0_278"/>
<path fill-rule="evenodd" d="M529.4,161H768.5V146H529.4v15Z" class="g0_278"/>
<path fill-rule="evenodd" d="M529.4,176H768.5V161H529.4v15Z" class="g0_278"/>
<path fill-rule="evenodd" d="M529,191.1H768.9V176H529v15.1Z" class="g0_278"/>
<path fill-rule="evenodd" d="M529,206.3H768.9V191.1H529v15.2Z" class="g0_278"/>
<path fill-rule="evenodd" d="M529,221.3H768.9v-15H529v15Z" class="g0_278"/>
<path fill-rule="evenodd" d="M529,236.3H768.9v-15H529v15Z" class="g0_278"/>
<path fill-rule="evenodd" d="M529,251.4H768.5V236.3H529v15.1Z" class="g0_278"/>
<path fill-rule="evenodd" d="M529,266.4H768.5v-15H529v15Z" class="g0_278"/>
<path fill-rule="evenodd" d="M529,281.4H768.9v-15H529v15Z" class="g0_278"/>
<path fill-rule="evenodd" d="M529,296.5H768.9V281.4H529v15.1Z" class="g0_278"/>
<path fill-rule="evenodd" d="M529,311.9H768.5V296.8H529v15.1Z" class="g0_278"/>
<path fill-rule="evenodd" d="M529,326.9H768.5v-15H529v15Z" class="g0_278"/>
<path fill-rule="evenodd" d="M529,341.9H768.5v-15H529v15Z" class="g0_278"/>
<path fill-rule="evenodd" d="M529,357.2H768.5V342H529v15.2Z" class="g0_278"/>
<path fill-rule="evenodd" d="M529,372.2H768.5v-15H529v15Z" class="g0_278"/>
<path fill-rule="evenodd" d="M529,387.3H768.5V372.2H529v15.1Z" class="g0_278"/>
<path fill-rule="evenodd" d="M528.7,402.3H768.5v-15H528.7v15Z" class="g0_278"/>
<path fill-rule="evenodd" d="M528.7,417.3H768.5v-15H528.7v15Z" class="g0_278"/>
<path fill-rule="evenodd" d="M528.3,432.4H768.5V417.3H528.3v15.1Z" class="g0_278"/>
<path fill-rule="evenodd" d="M528.3,447.4H768.5v-15H528.3v15Z" class="g0_278"/>
<path fill-rule="evenodd" d="M528.3,462.4H768.5v-15H528.3v15Z" class="g0_278"/>
<path fill-rule="evenodd" d="M528.3,477.5H768.5V462.4H528.3v15.1Z" class="g0_278"/>
<path fill-rule="evenodd" d="M528.3,492.5H768.5v-15H528.3v15Z" class="g0_278"/>
<path fill-rule="evenodd" d="M528.3,507.5H768.5v-15H528.3v15Z" class="g0_278"/>
<path fill-rule="evenodd" d="M527.6,522.6H768.1V507.5H527.6v15.1Z" class="g0_278"/>
<path fill-rule="evenodd" d="M527.6,537.8H768.1V522.6H527.6v15.2Z" class="g0_278"/>
<path fill-rule="evenodd" d="M527.6,552.8H768.1v-15H527.6v15Z" class="g0_278"/>
<path fill-rule="evenodd" d="M527.6,567.9H768.1V552.8H527.6v15.1Z" class="g0_278"/>
<path fill-rule="evenodd" d="M527.6,582.9H768.1v-15H527.6v15Z" class="g0_278"/>
<path fill-rule="evenodd" d="M527.6,598H768.1V582.9H527.6V598Z" class="g0_278"/>
<path fill-rule="evenodd" d="M528.3,613.4H767.8V598.3H528.3v15.1Z" class="g0_278"/>
<path fill-rule="evenodd" d="M528.3,628.4H767.8v-15H528.3v15Z" class="g0_278"/>
<path fill-rule="evenodd" d="M528.3,643.4H767.8v-15H528.3v15Z" class="g0_278"/>
<path fill-rule="evenodd" d="M527.9,658.5H767.8V643.4H527.9v15.1Z" class="g0_278"/>
<path fill-rule="evenodd" d="M527.9,673.5H767.8v-15H527.9v15Z" class="g0_278"/>
<path fill-rule="evenodd" d="M527.9,688.5H768.1v-15H527.9v15Z" class="g0_278"/>
<path fill-rule="evenodd" d="M527.9,703.7H768.1V688.5H527.9v15.2Z" class="g0_278"/>
<path fill-rule="evenodd" d="M527.9,718.8H767.4V703.7H527.9v15.1Z" class="g0_278"/>
<path fill-rule="evenodd" d="M527.9,733.8H767.4v-15H527.9v15Z" class="g0_278"/>
<path fill-rule="evenodd" d="M527.9,748.8H767.4v-15H527.9v15Z" class="g0_278"/>
<path fill-rule="evenodd" d="M527.9,763.9H767.4V748.8H527.9v15.1Z" class="g0_278"/>
<path fill-rule="evenodd" d="M546.3,778.9H768.9v-15H546.3v15Z" class="g0_278"/>
<path fill-rule="evenodd" d="M527.9,793.9H767.4v-15H527.9v15Z" class="g0_278"/>
<path fill-rule="evenodd" d="M527.9,809H767.4V793.9H527.9V809Z" class="g0_278"/>
<path fill-rule="evenodd" d="M527.6,824H767.4V809H527.6v15Z" class="g0_278"/>
<path fill-rule="evenodd" d="M527.6,839.1H767.4V824H527.6v15.1Z" class="g0_278"/>
<path fill-rule="evenodd" d="M527.6,854.1H768.1v-15H527.6v15Z" class="g0_278"/>
<path fill-rule="evenodd" d="M527.6,869.2H768.1V854.1H527.6v15.1Z" class="g0_278"/>
<path fill-rule="evenodd" d="M527.6,884.4H768.1V869.2H527.6v15.2Z" class="g0_278"/>
<path fill-rule="evenodd" d="M527.6,899.4H768.1v-15H527.6v15Z" class="g0_278"/>
<path fill-rule="evenodd" d="M504.3,932.2H769V913H504.3v19.2Z" class="g0_278"/>
<path d="M186.9,738.9v264.4" class="g1_278"/>
<path d="M214,114V990.8m.4,-897.6V620.4M211.1,333V518.5M517.3,146.7V915.3" class="g2_278"/>
</svg>