<?xml version="1.0" encoding="UTF-8" standalone="no"?>
<!DOCTYPE svg PUBLIC "-//W3C//DTD SVG 1.1//EN"
"http://www.w3.org/Graphics/SVG/1.1/DTD/svg11.dtd">
<svg viewBox="0 0 909 1285" version="1.1" xmlns="http://www.w3.org/2000/svg" xmlns:xlink="http://www.w3.org/1999/xlink">
<defs>
<style type="text/css"><![CDATA[
.g0_150{
fill: #FFFFFF;
}
.g1_150{
fill: none;
stroke: #000000;
stroke-width: 0.381;
stroke-linecap: butt;
stroke-linejoin: round;
}
]]></style>
</defs>
<path fill-rule="evenodd" d="M596.1,125.8h88.4V110H596.1v15.8Z" class="g0_150"/>
<path fill-rule="evenodd" d="M186.8,162.1H424.5v-15H186.8v15Z" class="g0_150"/>
<path fill-rule="evenodd" d="M186.8,177.1H424.5v-15H186.8v15Z" class="g0_150"/>
<path fill-rule="evenodd" d="M186.8,192.2H424.5V177.1H186.8v15.1Z" class="g0_150"/>
<path fill-rule="evenodd" d="M186.5,207.2h238v-15h-238v15Z" class="g0_150"/>
<path fill-rule="evenodd" d="M186.5,222.2h238v-15h-238v15Z" class="g0_150"/>
<path fill-rule="evenodd" d="M186.1,237.4H425.2V222.2H186.1v15.2Z" class="g0_150"/>
<path fill-rule="evenodd" d="M186.1,252.5H425.2V237.4H186.1v15.1Z" class="g0_150"/>
<path fill-rule="evenodd" d="M186.1,267.5H425.2v-15H186.1v15Z" class="g0_150"/>
<path fill-rule="evenodd" d="M186.1,282.5H425.2v-15H186.1v15Z" class="g0_150"/>
<path fill-rule="evenodd" d="M186.1,297.6H425.2V282.5H186.1v15.1Z" class="g0_150"/>
<path fill-rule="evenodd" d="M185.7,312.6H425.2v-15H185.7v15Z" class="g0_150"/>
<path fill-rule="evenodd" d="M185.7,327.6H425.2v-15H185.7v15Z" class="g0_150"/>
<path fill-rule="evenodd" d="M185.7,342.7H425.2V327.6H185.7v15.1Z" class="g0_150"/>
<path fill-rule="evenodd" d="M185.7,357.8H425.2V342.7H185.7v15.1Z" class="g0_150"/>
<path fill-rule="evenodd" d="M185.7,372.8H425.2v-15H185.7v15Z" class="g0_150"/>
<path fill-rule="evenodd" d="M185.7,387.8H425.2v-15H185.7v15Z" class="g0_150"/>
<path fill-rule="evenodd" d="M185.7,403H425.2V387.8H185.7V403Z" class="g0_150"/>
<path fill-rule="evenodd" d="M185.7,418.1H425.2V403H185.7v15.1Z" class="g0_150"/>
<path fill-rule="evenodd" d="M185.7,433.1H425.2v-15H185.7v15Z" class="g0_150"/>
<path fill-rule="evenodd" d="M185.7,448.1H425.2v-15H185.7v15Z" class="g0_150"/>
<path fill-rule="evenodd" d="M185.7,463.2H425.2V448.1H185.7v15.1Z" class="g0_150"/>
<path fill-rule="evenodd" d="M185.7,478.2H425.2v-15H185.7v15Z" class="g0_150"/>
<path fill-rule="evenodd" d="M185.7,493.2H425.2v-15H185.7v15Z" class="g0_150"/>
<path fill-rule="evenodd" d="M185.7,508.3H425.2V493.2H185.7v15.1Z" class="g0_150"/>
<path fill-rule="evenodd" d="M185.7,523.3H424.8v-15H185.7v15Z" class="g0_150"/>
<path fill-rule="evenodd" d="M185.7,538.3H424.8v-15H185.7v15Z" class="g0_150"/>
<path fill-rule="evenodd" d="M185.7,553.4H424.8V538.3H185.7v15.1Z" class="g0_150"/>
<path fill-rule="evenodd" d="M185.7,568.4H424.8v-15H185.7v15Z" class="g0_150"/>
<path fill-rule="evenodd" d="M185.7,583.6H424.8V568.4H185.7v15.2Z" class="g0_150"/>
<path fill-rule="evenodd" d="M185.4,598.7H424.8V583.6H185.4v15.1Z" class="g0_150"/>
<path fill-rule="evenodd" d="M185.4,613.7H424.8v-15H185.4v15Z" class="g0_150"/>
<path fill-rule="evenodd" d="M185.4,628.8H424.8V613.7H185.4v15.1Z" class="g0_150"/>
<path fill-rule="evenodd" d="M185.4,643.8H424.8v-15H185.4v15Z" class="g0_150"/>
<path fill-rule="evenodd" d="M185.4,658.8H424.8v-15H185.4v15Z" class="g0_150"/>
<path fill-rule="evenodd" d="M185.4,673.9H424.8V658.8H185.4v15.1Z" class="g0_150"/>
<path fill-rule="evenodd" d="M185.4,688.9H424.8v-15H185.4v15Z" class="g0_150"/>
<path fill-rule="evenodd" d="M185.7,703.9H424.8v-15H185.7v15Z" class="g0_150"/>
<path fill-rule="evenodd" d="M185.7,719H424.8V703.9H185.7V719Z" class="g0_150"/>
<path fill-rule="evenodd" d="M185.7,734H424.8V719H185.7v15Z" class="g0_150"/>
<path fill-rule="evenodd" d="M185.7,749H424.5V734H185.7v15Z" class="g0_150"/>
<path fill-rule="evenodd" d="M185.7,764.2H424.5V749H185.7v15.2Z" class="g0_150"/>
<path fill-rule="evenodd" d="M185.7,779.3H424.5V764.2H185.7v15.1Z" class="g0_150"/>
<path fill-rule="evenodd" d="M203.7,794.3H425.2v-15H203.7v15Z" class="g0_150"/>
<path fill-rule="evenodd" d="M185.4,809.3H423.7v-15H185.4v15Z" class="g0_150"/>
<path fill-rule="evenodd" d="M185.4,824.4H423.7V809.3H185.4v15.1Z" class="g0_150"/>
<path fill-rule="evenodd" d="M185.4,839.5H423.7V824.4H185.4v15.1Z" class="g0_150"/>
<path fill-rule="evenodd" d="M185.4,854.5H424.5v-15H185.4v15Z" class="g0_150"/>
<path fill-rule="evenodd" d="M185.4,869.5H424.5v-15H185.4v15Z" class="g0_150"/>
<path fill-rule="evenodd" d="M205.5,884.2H425.2V869.5H205.5v14.7Z" class="g0_150"/>
<path fill-rule="evenodd" d="M463.8,161.7H684.5V147.1H463.8v14.6Z" class="g0_150"/>
<path fill-rule="evenodd" d="M445.4,176.8H684.2V162.1H445.4v14.7Z" class="g0_150"/>
<path fill-rule="evenodd" d="M445.4,191.4H684.2V176.8H445.4v14.6Z" class="g0_150"/>
<path fill-rule="evenodd" d="M445.4,206.5H684.2V191.4H445.4v15.1Z" class="g0_150"/>
<path fill-rule="evenodd" d="M445.4,221.1H684.2V206.5H445.4v14.6Z" class="g0_150"/>
<path fill-rule="evenodd" d="M445.4,235.8H684.2V221.1H445.4v14.7Z" class="g0_150"/>
<path fill-rule="evenodd" d="M445.4,250.5H684.2V235.8H445.4v14.7Z" class="g0_150"/>
<path fill-rule="evenodd" d="M445.4,265.1H684.2V250.5H445.4v14.6Z" class="g0_150"/>
<path fill-rule="evenodd" d="M445.4,279.8H684.2V265.1H445.4v14.7Z" class="g0_150"/>
<path fill-rule="evenodd" d="M445,294.8H684.5V280.2H445v14.6Z" class="g0_150"/>
<path fill-rule="evenodd" d="M445,309.5H684.5V294.8H445v14.7Z" class="g0_150"/>
<path fill-rule="evenodd" d="M445,324.2H684.5V309.5H445v14.7Z" class="g0_150"/>
<path fill-rule="evenodd" d="M445.4,338.8H684.2V324.2H445.4v14.6Z" class="g0_150"/>
<path fill-rule="evenodd" d="M445.4,353.5H684.2V338.8H445.4v14.7Z" class="g0_150"/>
<path fill-rule="evenodd" d="M445.4,368.2H684.5V353.5H445.4v14.7Z" class="g0_150"/>
<path fill-rule="evenodd" d="M445.4,382.9H684.5V368.2H445.4v14.7Z" class="g0_150"/>
<path fill-rule="evenodd" d="M445.4,397.5H684.2V382.9H445.4v14.6Z" class="g0_150"/>
<path fill-rule="evenodd" d="M445.4,412.2H684.2V397.5H445.4v14.7Z" class="g0_150"/>
<path fill-rule="evenodd" d="M445.4,426.9H684.2V412.2H445.4v14.7Z" class="g0_150"/>
<path fill-rule="evenodd" d="M445.4,441.5H684.5V426.9H445.4v14.6Z" class="g0_150"/>
<path fill-rule="evenodd" d="M445.4,456.2H684.5V441.5H445.4v14.7Z" class="g0_150"/>
<path fill-rule="evenodd" d="M445.4,470.9H684.5V456.2H445.4v14.7Z" class="g0_150"/>
<path fill-rule="evenodd" d="M445.4,485.5H683.8V470.9H445.4v14.6Z" class="g0_150"/>
<path fill-rule="evenodd" d="M445.4,500.2H683.8V485.5H445.4v14.7Z" class="g0_150"/>
<path fill-rule="evenodd" d="M445,514.9H684.5V500.2H445v14.7Z" class="g0_150"/>
<path fill-rule="evenodd" d="M445,529.5H684.5V514.9H445v14.6Z" class="g0_150"/>
<path fill-rule="evenodd" d="M445,544.2H684.5V529.5H445v14.7Z" class="g0_150"/>
<path fill-rule="evenodd" d="M463.4,558.9H684.5V544.2H463.4v14.7Z" class="g0_150"/>
<path fill-rule="evenodd" d="M445.4,573.5h238V558.9h-238v14.6Z" class="g0_150"/>
<path fill-rule="evenodd" d="M445.4,588.2h238V573.5h-238v14.7Z" class="g0_150"/>
<path fill-rule="evenodd" d="M445,602.9H684.2V588.2H445v14.7Z" class="g0_150"/>
<path fill-rule="evenodd" d="M445,617.6H684.2V602.9H445v14.7Z" class="g0_150"/>
<path fill-rule="evenodd" d="M444.7,632.2H684.2V617.6H444.7v14.6Z" class="g0_150"/>
<path fill-rule="evenodd" d="M444.7,646.9H684.2V632.2H444.7v14.7Z" class="g0_150"/>
<path fill-rule="evenodd" d="M444.7,661.6H684.2V646.9H444.7v14.7Z" class="g0_150"/>
<path fill-rule="evenodd" d="M444.7,676.2H684.2V661.6H444.7v14.6Z" class="g0_150"/>
<path fill-rule="evenodd" d="M444.7,690.9H684.2V676.2H444.7v14.7Z" class="g0_150"/>
<path fill-rule="evenodd" d="M444.7,705.6H684.2V690.9H444.7v14.7Z" class="g0_150"/>
<path fill-rule="evenodd" d="M444.7,720.2H684.2V705.6H444.7v14.6Z" class="g0_150"/>
<path fill-rule="evenodd" d="M444.7,734.9H684.2V720.2H444.7v14.7Z" class="g0_150"/>
<path fill-rule="evenodd" d="M443.6,749.6H683.8V734.9H443.6v14.7Z" class="g0_150"/>
<path fill-rule="evenodd" d="M443.6,764.2H683.8V749.6H443.6v14.6Z" class="g0_150"/>
<path fill-rule="evenodd" d="M443.6,778.9H683.8V764.2H443.6v14.7Z" class="g0_150"/>
<path fill-rule="evenodd" d="M444.7,793.6H684.2V778.9H444.7v14.7Z" class="g0_150"/>
<path fill-rule="evenodd" d="M444.7,808.2H684.2V793.6H444.7v14.6Z" class="g0_150"/>
<path fill-rule="evenodd" d="M444.7,822.9H684.2V808.2H444.7v14.7Z" class="g0_150"/>
<path fill-rule="evenodd" d="M444.7,837.6H684.2V822.9H444.7v14.7Z" class="g0_150"/>
<path fill-rule="evenodd" d="M444.7,852.3H684.2V837.6H444.7v14.7Z" class="g0_150"/>
<path fill-rule="evenodd" d="M444.7,867H684.2V852.3H444.7V867Z" class="g0_150"/>
<path fill-rule="evenodd" d="M445.4,881.6H684.2V867H445.4v14.6Z" class="g0_150"/>
<path fill-rule="evenodd" d="M445.4,896.3H684.2V881.6H445.4v14.7Z" class="g0_150"/>
<path d="M434,146.3V915.5" class="g1_150"/>
</svg>