<?xml version="1.0" encoding="UTF-8" standalone="no"?>
<!DOCTYPE svg PUBLIC "-//W3C//DTD SVG 1.1//EN"
"http://www.w3.org/Graphics/SVG/1.1/DTD/svg11.dtd">
<svg viewBox="0 0 909 1285" version="1.1" xmlns="http://www.w3.org/2000/svg" xmlns:xlink="http://www.w3.org/1999/xlink">
<defs>
<style type="text/css"><![CDATA[
.g0_111{
fill: #FFFFFF;
}
.g1_111{
fill: none;
stroke: #000000;
stroke-width: 0.381;
stroke-linecap: butt;
stroke-linejoin: round;
}
.g2_111{
fill: none;
stroke: #000000;
stroke-width: 0.763;
stroke-linecap: butt;
stroke-linejoin: round;
}
]]></style>
</defs>
<path fill-rule="evenodd" d="M269.6,125.8H768V110H269.6v15.8Z" class="g0_111"/>
<path fill-rule="evenodd" d="M268.8,161.4H508.7V146.7H268.8v14.7Z" class="g0_111"/>
<path fill-rule="evenodd" d="M268.8,176H508.7V161.4H268.8V176Z" class="g0_111"/>
<path fill-rule="evenodd" d="M268.8,190.7H508.7V176H268.8v14.7Z" class="g0_111"/>
<path fill-rule="evenodd" d="M268.8,205.4H508.7V190.7H268.8v14.7Z" class="g0_111"/>
<path fill-rule="evenodd" d="M268.8,220H508.7V205.4H268.8V220Z" class="g0_111"/>
<path fill-rule="evenodd" d="M268.5,235.1H508.3V220.4H268.5v14.7Z" class="g0_111"/>
<path fill-rule="evenodd" d="M268.5,249.7H508.3V235.1H268.5v14.6Z" class="g0_111"/>
<path fill-rule="evenodd" d="M268.5,264.4H508.3V249.7H268.5v14.7Z" class="g0_111"/>
<path fill-rule="evenodd" d="M268.5,279.1H508.3V264.4H268.5v14.7Z" class="g0_111"/>
<path fill-rule="evenodd" d="M268.5,293.9H508.3V279.1H268.5v14.8Z" class="g0_111"/>
<path fill-rule="evenodd" d="M268.5,308.6H508.3V293.9H268.5v14.7Z" class="g0_111"/>
<path fill-rule="evenodd" d="M268.5,323.2H508.3V308.6H268.5v14.6Z" class="g0_111"/>
<path fill-rule="evenodd" d="M268.8,337.9H376.6V323.2H268.8v14.7Z" class="g0_111"/>
<path fill-rule="evenodd" d="M268.8,352.6H376.6V337.9H268.8v14.7Z" class="g0_111"/>
<path fill-rule="evenodd" d="M286.8,367.3H508.7V352.6H286.8v14.7Z" class="g0_111"/>
<path fill-rule="evenodd" d="M268.1,382.3H508.7V367.7H268.1v14.6Z" class="g0_111"/>
<path fill-rule="evenodd" d="M268.5,397.4H507.6V382.7H268.5v14.7Z" class="g0_111"/>
<path fill-rule="evenodd" d="M268.5,412H507.6V397.4H268.5V412Z" class="g0_111"/>
<path fill-rule="evenodd" d="M268.5,426.7H507.6V412H268.5v14.7Z" class="g0_111"/>
<path fill-rule="evenodd" d="M267,441.7H507.2V427.1H267v14.6Z" class="g0_111"/>
<path fill-rule="evenodd" d="M267,456.4H507.2V441.7H267v14.7Z" class="g0_111"/>
<path fill-rule="evenodd" d="M267,471.1H507.2V456.4H267v14.7Z" class="g0_111"/>
<path fill-rule="evenodd" d="M267,485.7H507.2V471.1H267v14.6Z" class="g0_111"/>
<path fill-rule="evenodd" d="M267,500.4H507.2V485.7H267v14.7Z" class="g0_111"/>
<path fill-rule="evenodd" d="M267,515.1H507.2V500.4H267v14.7Z" class="g0_111"/>
<path fill-rule="evenodd" d="M267,529.7H507.2V515.1H267v14.6Z" class="g0_111"/>
<path fill-rule="evenodd" d="M267,544.4H507.2V529.7H267v14.7Z" class="g0_111"/>
<path fill-rule="evenodd" d="M267,559.1H507.2V544.4H267v14.7Z" class="g0_111"/>
<path fill-rule="evenodd" d="M267,573.7H507.2V559.1H267v14.6Z" class="g0_111"/>
<path fill-rule="evenodd" d="M267,588.8H506.1V574.1H267v14.7Z" class="g0_111"/>
<path fill-rule="evenodd" d="M267,603.5H506.1V588.8H267v14.7Z" class="g0_111"/>
<path fill-rule="evenodd" d="M267,618.1H506.1V603.5H267v14.6Z" class="g0_111"/>
<path fill-rule="evenodd" d="M267,632.8H506.1V618.1H267v14.7Z" class="g0_111"/>
<path fill-rule="evenodd" d="M265.9,647.8H506.1V633.2H265.9v14.6Z" class="g0_111"/>
<path fill-rule="evenodd" d="M265.9,662.5H506.1V647.8H265.9v14.7Z" class="g0_111"/>
<path fill-rule="evenodd" d="M265.9,677.2H506.1V662.5H265.9v14.7Z" class="g0_111"/>
<path fill-rule="evenodd" d="M265.9,691.8H506.1V677.2H265.9v14.6Z" class="g0_111"/>
<path fill-rule="evenodd" d="M265.9,706.5H506.1V691.8H265.9v14.7Z" class="g0_111"/>
<path fill-rule="evenodd" d="M265.9,721.2H506.1V706.5H265.9v14.7Z" class="g0_111"/>
<path fill-rule="evenodd" d="M265.9,735.8H506.1V721.2H265.9v14.6Z" class="g0_111"/>
<path fill-rule="evenodd" d="M265.9,750.5H506.1V735.8H265.9v14.7Z" class="g0_111"/>
<path fill-rule="evenodd" d="M265.9,765.2H506.1V750.5H265.9v14.7Z" class="g0_111"/>
<path fill-rule="evenodd" d="M265.5,780.2H505V765.5H265.5v14.7Z" class="g0_111"/>
<path fill-rule="evenodd" d="M265.5,794.9H505V780.2H265.5v14.7Z" class="g0_111"/>
<path fill-rule="evenodd" d="M265.5,809.5H505V794.9H265.5v14.6Z" class="g0_111"/>
<path fill-rule="evenodd" d="M265.9,824.6H505.4V809.9H265.9v14.7Z" class="g0_111"/>
<path fill-rule="evenodd" d="M265.9,839.3H505.4V824.6H265.9v14.7Z" class="g0_111"/>
<path fill-rule="evenodd" d="M265.9,853.9H505.4V839.3H265.9v14.6Z" class="g0_111"/>
<path fill-rule="evenodd" d="M265.9,868.6H505.4V853.9H265.9v14.7Z" class="g0_111"/>
<path fill-rule="evenodd" d="M268.8,883.3H508.7V868.6H268.8v14.7Z" class="g0_111"/>
<path fill-rule="evenodd" d="M528.3,161.7H767.8V147.1H528.3v14.6Z" class="g0_111"/>
<path fill-rule="evenodd" d="M528.3,176.4H767.8V161.7H528.3v14.7Z" class="g0_111"/>
<path fill-rule="evenodd" d="M528.3,191.1H767.8V176.4H528.3v14.7Z" class="g0_111"/>
<path fill-rule="evenodd" d="M528.3,205.7H767.8V191.1H528.3v14.6Z" class="g0_111"/>
<path fill-rule="evenodd" d="M528.3,220.4H767.8V205.7H528.3v14.7Z" class="g0_111"/>
<path fill-rule="evenodd" d="M527.9,235.6H767.4V220.8H527.9v14.8Z" class="g0_111"/>
<path fill-rule="evenodd" d="M527.9,250.3H767.4V235.6H527.9v14.7Z" class="g0_111"/>
<path fill-rule="evenodd" d="M527.9,264.9H767.4V250.3H527.9v14.6Z" class="g0_111"/>
<path fill-rule="evenodd" d="M527.9,280H766.7V265.3H527.9V280Z" class="g0_111"/>
<path fill-rule="evenodd" d="M527.9,294.6H766.7V280H527.9v14.6Z" class="g0_111"/>
<path fill-rule="evenodd" d="M546.3,309.7H767.8V295H546.3v14.7Z" class="g0_111"/>
<path fill-rule="evenodd" d="M546.3,324.3H767.8V309.7H546.3v14.6Z" class="g0_111"/>
<path fill-rule="evenodd" d="M527.6,339.4H766.3V324.7H527.6v14.7Z" class="g0_111"/>
<path fill-rule="evenodd" d="M527.6,354.1H766.3V339.4H527.6v14.7Z" class="g0_111"/>
<path fill-rule="evenodd" d="M527.6,368.8H766.3V354.1H527.6v14.7Z" class="g0_111"/>
<path fill-rule="evenodd" d="M527.6,383.4H766.3V368.8H527.6v14.6Z" class="g0_111"/>
<path fill-rule="evenodd" d="M527.6,398.1H766.3V383.4H527.6v14.7Z" class="g0_111"/>
<path fill-rule="evenodd" d="M527.6,412.8H766.3V398.1H527.6v14.7Z" class="g0_111"/>
<path fill-rule="evenodd" d="M527.6,427.4H766.3V412.8H527.6v14.6Z" class="g0_111"/>
<path fill-rule="evenodd" d="M526.5,442.5H765.9V427.8H526.5v14.7Z" class="g0_111"/>
<path fill-rule="evenodd" d="M526.5,457.1H765.9V442.5H526.5v14.6Z" class="g0_111"/>
<path fill-rule="evenodd" d="M526.5,471.8H765.9V457.1H526.5v14.7Z" class="g0_111"/>
<path fill-rule="evenodd" d="M526.5,486.5H765.9V471.8H526.5v14.7Z" class="g0_111"/>
<path fill-rule="evenodd" d="M526.5,501.1H767.8V486.5H526.5v14.6Z" class="g0_111"/>
<path fill-rule="evenodd" d="M526.5,515.8H767.8V501.1H526.5v14.7Z" class="g0_111"/>
<path fill-rule="evenodd" d="M526.5,530.5H767.8V515.8H526.5v14.7Z" class="g0_111"/>
<path fill-rule="evenodd" d="M526.5,545.1H767.8V530.5H526.5v14.6Z" class="g0_111"/>
<path fill-rule="evenodd" d="M526.5,559.8H767.8V545.1H526.5v14.7Z" class="g0_111"/>
<path fill-rule="evenodd" d="M526.5,574.5H767.8V559.8H526.5v14.7Z" class="g0_111"/>
<path fill-rule="evenodd" d="M525.7,589.1H767.8V574.5H525.7v14.6Z" class="g0_111"/>
<path fill-rule="evenodd" d="M525.7,603.8H767.8V589.1H525.7v14.7Z" class="g0_111"/>
<path fill-rule="evenodd" d="M525.7,618.5H767.8V603.8H525.7v14.7Z" class="g0_111"/>
<path fill-rule="evenodd" d="M525.7,633.2H767.8V618.5H525.7v14.7Z" class="g0_111"/>
<path fill-rule="evenodd" d="M525.7,647.8H767.8V633.2H525.7v14.6Z" class="g0_111"/>
<path fill-rule="evenodd" d="M525.7,662.5H767.8V647.8H525.7v14.7Z" class="g0_111"/>
<path fill-rule="evenodd" d="M544.1,677.2H767.8V662.5H544.1v14.7Z" class="g0_111"/>
<path fill-rule="evenodd" d="M525.7,692.6H764.5V677.9H525.7v14.7Z" class="g0_111"/>
<path fill-rule="evenodd" d="M525.7,707.2H764.5V692.6H525.7v14.6Z" class="g0_111"/>
<path fill-rule="evenodd" d="M525.7,722.3H764.8V707.6H525.7v14.7Z" class="g0_111"/>
<path fill-rule="evenodd" d="M525.7,736.9H764.8V722.3H525.7v14.6Z" class="g0_111"/>
<path fill-rule="evenodd" d="M525.7,751.6H764.8V736.9H525.7v14.7Z" class="g0_111"/>
<path fill-rule="evenodd" d="M525.4,766.3H764.8V751.6H525.4v14.7Z" class="g0_111"/>
<path fill-rule="evenodd" d="M525.4,780.9H764.8V766.3H525.4v14.6Z" class="g0_111"/>
<path fill-rule="evenodd" d="M525.4,795.6H764.8V780.9H525.4v14.7Z" class="g0_111"/>
<path fill-rule="evenodd" d="M525.4,810.3H764.8V795.6H525.4v14.7Z" class="g0_111"/>
<path fill-rule="evenodd" d="M525.4,824.9H764.8V810.3H525.4v14.6Z" class="g0_111"/>
<path fill-rule="evenodd" d="M525,840H764.5V825.3H525V840Z" class="g0_111"/>
<path fill-rule="evenodd" d="M525,854.7H764.5V840H525v14.7Z" class="g0_111"/>
<path fill-rule="evenodd" d="M525,869.3H764.5V854.7H525v14.6Z" class="g0_111"/>
<path fill-rule="evenodd" d="M525,884H764.5V869.3H525V884Z" class="g0_111"/>
<path fill-rule="evenodd" d="M503.2,915.9H767.9V898.3H503.2v17.6Z" class="g0_111"/>
<path d="M208.9,109.2V985.6M192.4,290.1V530.3" class="g1_111"/>
<path d="M196.5,721.6V870.1" class="g2_111"/>
<path d="M515.1,147.8V916.4" class="g1_111"/>
</svg>