<?xml version="1.0" encoding="UTF-8" standalone="no"?>
<!DOCTYPE svg PUBLIC "-//W3C//DTD SVG 1.1//EN"
"http://www.w3.org/Graphics/SVG/1.1/DTD/svg11.dtd">
<svg viewBox="0 0 909 1285" version="1.1" xmlns="http://www.w3.org/2000/svg" xmlns:xlink="http://www.w3.org/1999/xlink">
<defs>
<style type="text/css"><![CDATA[
.g0_315{
fill: #FFFFFF;
}
.g1_315{
fill: none;
stroke: #000000;
stroke-width: 0.381;
stroke-linecap: butt;
stroke-linejoin: round;
}
.g2_315{
fill: none;
stroke: #000000;
stroke-width: 1.451;
stroke-linecap: butt;
stroke-linejoin: round;
}
]]></style>
</defs>
<path fill-rule="evenodd" d="M279.7,127.6H778.4V110H279.7v17.6Z" class="g0_315"/>
<path fill-rule="evenodd" d="M279.7,163.6H518V148.5H279.7v15.1Z" class="g0_315"/>
<path fill-rule="evenodd" d="M279.7,178.6H518v-15H279.7v15Z" class="g0_315"/>
<path fill-rule="evenodd" d="M279.7,193.6H518v-15H279.7v15Z" class="g0_315"/>
<path fill-rule="evenodd" d="M279.3,208.7H518.4V193.6H279.3v15.1Z" class="g0_315"/>
<path fill-rule="evenodd" d="M279.3,223.7H518.4v-15H279.3v15Z" class="g0_315"/>
<path fill-rule="evenodd" d="M279.3,238.7H518.4v-15H279.3v15Z" class="g0_315"/>
<path fill-rule="evenodd" d="M279.3,253.9H518.4V238.7H279.3v15.2Z" class="g0_315"/>
<path fill-rule="evenodd" d="M279.3,269H518.4V253.9H279.3V269Z" class="g0_315"/>
<path fill-rule="evenodd" d="M279.3,284H518.4V269H279.3v15Z" class="g0_315"/>
<path fill-rule="evenodd" d="M279.3,299H518.4V284H279.3v15Z" class="g0_315"/>
<path fill-rule="evenodd" d="M279.3,314.1H518.4V299H279.3v15.1Z" class="g0_315"/>
<path fill-rule="evenodd" d="M278.2,329.1H518v-15H278.2v15Z" class="g0_315"/>
<path fill-rule="evenodd" d="M278.2,344.1H518v-15H278.2v15Z" class="g0_315"/>
<path fill-rule="evenodd" d="M278.2,359.2H518v-15H278.2v15Z" class="g0_315"/>
<path fill-rule="evenodd" d="M297.6,374.3H518.4V359.2H297.6v15.1Z" class="g0_315"/>
<path fill-rule="evenodd" d="M278.9,389.3H517.3v-15H278.9v15Z" class="g0_315"/>
<path fill-rule="evenodd" d="M278.9,404.3H517.3v-15H278.9v15Z" class="g0_315"/>
<path fill-rule="evenodd" d="M278.6,419.5H517.7V404.3H278.6v15.2Z" class="g0_315"/>
<path fill-rule="evenodd" d="M278.6,434.6H517.7V419.5H278.6v15.1Z" class="g0_315"/>
<path fill-rule="evenodd" d="M278.6,449.6H517.7v-15H278.6v15Z" class="g0_315"/>
<path fill-rule="evenodd" d="M278.6,464.6H517.7v-15H278.6v15Z" class="g0_315"/>
<path fill-rule="evenodd" d="M278.6,479.7H517.7V464.6H278.6v15.1Z" class="g0_315"/>
<path fill-rule="evenodd" d="M297.3,494.7H518.4v-15H297.3v15Z" class="g0_315"/>
<path fill-rule="evenodd" d="M278.2,509.7H516.6v-15H278.2v15Z" class="g0_315"/>
<path fill-rule="evenodd" d="M278.2,524.8H516.6V509.7H278.2v15.1Z" class="g0_315"/>
<path fill-rule="evenodd" d="M277.8,539.8H516.9v-15H277.8v15Z" class="g0_315"/>
<path fill-rule="evenodd" d="M277.8,554.8H516.9v-15H277.8v15Z" class="g0_315"/>
<path fill-rule="evenodd" d="M277.8,569.9H516.9V554.8H277.8v15.1Z" class="g0_315"/>
<path fill-rule="evenodd" d="M278.9,584.9h238v-15h-238v15Z" class="g0_315"/>
<path fill-rule="evenodd" d="M278.9,600.2h238V584.9h-238v15.3Z" class="g0_315"/>
<path fill-rule="evenodd" d="M277.8,615.2H516.9v-15H277.8v15Z" class="g0_315"/>
<path fill-rule="evenodd" d="M277.8,630.2H516.9v-15H277.8v15Z" class="g0_315"/>
<path fill-rule="evenodd" d="M277.8,645.3H516.9V630.2H277.8v15.1Z" class="g0_315"/>
<path fill-rule="evenodd" d="M277.8,660.3H516.9v-15H277.8v15Z" class="g0_315"/>
<path fill-rule="evenodd" d="M277.8,675.3H516.9v-15H277.8v15Z" class="g0_315"/>
<path fill-rule="evenodd" d="M277.8,690.4H516.9V675.3H277.8v15.1Z" class="g0_315"/>
<path fill-rule="evenodd" d="M277.8,705.4H516.9v-15H277.8v15Z" class="g0_315"/>
<path fill-rule="evenodd" d="M277.8,720.4H516.6v-15H277.8v15Z" class="g0_315"/>
<path fill-rule="evenodd" d="M277.8,735.5H516.6V720.4H277.8v15.1Z" class="g0_315"/>
<path fill-rule="evenodd" d="M277.8,750.5H516.6v-15H277.8v15Z" class="g0_315"/>
<path fill-rule="evenodd" d="M277.8,765.5H516.6v-15H277.8v15Z" class="g0_315"/>
<path fill-rule="evenodd" d="M296.5,780.7H518.4V765.5H296.5v15.2Z" class="g0_315"/>
<path fill-rule="evenodd" d="M277.8,795.8h238V780.7h-238v15.1Z" class="g0_315"/>
<path fill-rule="evenodd" d="M277.8,810.8h238v-15h-238v15Z" class="g0_315"/>
<path fill-rule="evenodd" d="M277.8,825.8H516.2v-15H277.8v15Z" class="g0_315"/>
<path fill-rule="evenodd" d="M277.8,840.9H516.2V825.8H277.8v15.1Z" class="g0_315"/>
<path fill-rule="evenodd" d="M277.5,856H516.6V840.9H277.5V856Z" class="g0_315"/>
<path fill-rule="evenodd" d="M277.5,871H516.6V856H277.5v15Z" class="g0_315"/>
<path fill-rule="evenodd" d="M277.5,886H516.6V871H277.5v15Z" class="g0_315"/>
<path fill-rule="evenodd" d="M277.5,901.1H516.6V886H277.5v15.1Z" class="g0_315"/>
<path fill-rule="evenodd" d="M279.7,916.1H518.4v-15H279.7v15Z" class="g0_315"/>
<path fill-rule="evenodd" d="M538.9,163.6H778.4V148.5H538.9v15.1Z" class="g0_315"/>
<path fill-rule="evenodd" d="M538.9,178.6H778.4v-15H538.9v15Z" class="g0_315"/>
<path fill-rule="evenodd" d="M538.9,194h238V179h-238v15Z" class="g0_315"/>
<path fill-rule="evenodd" d="M538.9,209h238V194h-238v15Z" class="g0_315"/>
<path fill-rule="evenodd" d="M538.6,224.6H777.7V209.4H538.6v15.2Z" class="g0_315"/>
<path fill-rule="evenodd" d="M538.6,239.6H777.7v-15H538.6v15Z" class="g0_315"/>
<path fill-rule="evenodd" d="M538.6,254.7H777.7V239.6H538.6v15.1Z" class="g0_315"/>
<path fill-rule="evenodd" d="M538.6,269.7H777.7v-15H538.6v15Z" class="g0_315"/>
<path fill-rule="evenodd" d="M538.6,284.7H777.7v-15H538.6v15Z" class="g0_315"/>
<path fill-rule="evenodd" d="M538.2,299.8H777.7V284.7H538.2v15.1Z" class="g0_315"/>
<path fill-rule="evenodd" d="M538.2,314.8H777.7v-15H538.2v15Z" class="g0_315"/>
<path fill-rule="evenodd" d="M538.2,329.8H777.7v-15H538.2v15Z" class="g0_315"/>
<path fill-rule="evenodd" d="M538.2,344.9H777.3V329.8H538.2v15.1Z" class="g0_315"/>
<path fill-rule="evenodd" d="M538.2,360H777.3V344.9H538.2V360Z" class="g0_315"/>
<path fill-rule="evenodd" d="M538.2,375H777.3V360H538.2v15Z" class="g0_315"/>
<path fill-rule="evenodd" d="M537.5,390.2H777.3V375H537.5v15.2Z" class="g0_315"/>
<path fill-rule="evenodd" d="M537.5,405.2H777.3v-15H537.5v15Z" class="g0_315"/>
<path fill-rule="evenodd" d="M537.5,420.3H777.3V405.2H537.5v15.1Z" class="g0_315"/>
<path fill-rule="evenodd" d="M537.5,435.3H777.3v-15H537.5v15Z" class="g0_315"/>
<path fill-rule="evenodd" d="M537.5,450.3H777.3v-15H537.5v15Z" class="g0_315"/>
<path fill-rule="evenodd" d="M556.2,465.7H778.4v-15H556.2v15Z" class="g0_315"/>
<path fill-rule="evenodd" d="M556.2,480.8H778.4V465.7H556.2v15.1Z" class="g0_315"/>
<path fill-rule="evenodd" d="M537.8,495.8H776.6v-15H537.8v15Z" class="g0_315"/>
<path fill-rule="evenodd" d="M537.8,510.8H776.6v-15H537.8v15Z" class="g0_315"/>
<path fill-rule="evenodd" d="M537.8,525.9H776.6V510.8H537.8v15.1Z" class="g0_315"/>
<path fill-rule="evenodd" d="M537.8,540.9H776.6v-15H537.8v15Z" class="g0_315"/>
<path fill-rule="evenodd" d="M537.8,556.1H776.6V540.9H537.8v15.2Z" class="g0_315"/>
<path fill-rule="evenodd" d="M555.8,571.2H778.4V556.1H555.8v15.1Z" class="g0_315"/>
<path fill-rule="evenodd" d="M556.2,586.2H778.4v-15H556.2v15Z" class="g0_315"/>
<path fill-rule="evenodd" d="M537.1,601.3H776.6V586.2H537.1v15.1Z" class="g0_315"/>
<path fill-rule="evenodd" d="M537.1,616.3H776.6v-15H537.1v15Z" class="g0_315"/>
<path fill-rule="evenodd" d="M537.1,631.3H776.6v-15H537.1v15Z" class="g0_315"/>
<path fill-rule="evenodd" d="M537.1,646.4H776.6V631.3H537.1v15.1Z" class="g0_315"/>
<path fill-rule="evenodd" d="M537.5,661.4H775.8v-15H537.5v15Z" class="g0_315"/>
<path fill-rule="evenodd" d="M537.5,676.4H775.8v-15H537.5v15Z" class="g0_315"/>
<path fill-rule="evenodd" d="M536.7,691.5H775.8V676.4H536.7v15.1Z" class="g0_315"/>
<path fill-rule="evenodd" d="M536.7,706.5H775.8v-15H536.7v15Z" class="g0_315"/>
<path fill-rule="evenodd" d="M536.7,721.5H775.8v-15H536.7v15Z" class="g0_315"/>
<path fill-rule="evenodd" d="M536.7,736.7H775.8V721.5H536.7v15.2Z" class="g0_315"/>
<path fill-rule="evenodd" d="M537.1,751.8H775.5V736.7H537.1v15.1Z" class="g0_315"/>
<path fill-rule="evenodd" d="M537.1,766.8H775.5v-15H537.1v15Z" class="g0_315"/>
<path fill-rule="evenodd" d="M536.7,781.8H776.2v-15H536.7v15Z" class="g0_315"/>
<path fill-rule="evenodd" d="M536.7,796.9H776.2V781.8H536.7v15.1Z" class="g0_315"/>
<path fill-rule="evenodd" d="M537.1,811.9H776.2v-15H537.1v15Z" class="g0_315"/>
<path fill-rule="evenodd" d="M537.1,826.9H776.2v-15H537.1v15Z" class="g0_315"/>
<path fill-rule="evenodd" d="M537.1,842H776.2V826.9H537.1V842Z" class="g0_315"/>
<path fill-rule="evenodd" d="M537.1,857.1H776.2V842H537.1v15.1Z" class="g0_315"/>
<path fill-rule="evenodd" d="M537.1,872.1H776.2v-15H537.1v15Z" class="g0_315"/>
<path fill-rule="evenodd" d="M537.5,887.1H776.2v-15H537.5v15Z" class="g0_315"/>
<path fill-rule="evenodd" d="M537.5,902.2H776.2V887.1H537.5v15.1Z" class="g0_315"/>
<path d="M222,100.8V408.5" class="g1_315"/>
<path d="M190.8,338.1V936.8" class="g2_315"/>
<path d="M214.7,882.9v122.8m5.5,-464.1v469.3M526.7,149.3v770" class="g1_315"/>
</svg>