<?xml version="1.0" encoding="UTF-8" standalone="no"?>
<!DOCTYPE svg PUBLIC "-//W3C//DTD SVG 1.1//EN"
"http://www.w3.org/Graphics/SVG/1.1/DTD/svg11.dtd">
<svg viewBox="0 0 909 1285" version="1.1" xmlns="http://www.w3.org/2000/svg" xmlns:xlink="http://www.w3.org/1999/xlink">
<defs>
<style type="text/css"><![CDATA[
.g0_52{
fill: #FFFFFF;
}
]]></style>
</defs>
<path fill-rule="evenodd" d="M569.7,125.8H693V110H569.7v15.8Z" class="g0_52"/>
<path fill-rule="evenodd" d="M194.9,162.5H431.8V147.8H194.9v14.7Z" class="g0_52"/>
<path fill-rule="evenodd" d="M194.9,177.1H431.8V162.5H194.9v14.6Z" class="g0_52"/>
<path fill-rule="evenodd" d="M194.9,191.8H431.8V177.1H194.9v14.7Z" class="g0_52"/>
<path fill-rule="evenodd" d="M194.9,206.5H431.8V191.8H194.9v14.7Z" class="g0_52"/>
<path fill-rule="evenodd" d="M195.3,221.1H380.1V206.5H195.3v14.6Z" class="g0_52"/>
<path fill-rule="evenodd" d="M195.3,235.8H380.1V221.1H195.3v14.7Z" class="g0_52"/>
<path fill-rule="evenodd" d="M194.9,250.5h238V235.8h-238v14.7Z" class="g0_52"/>
<path fill-rule="evenodd" d="M194.9,265.1h238V250.5h-238v14.6Z" class="g0_52"/>
<path fill-rule="evenodd" d="M194.9,279.8h238V265.1h-238v14.7Z" class="g0_52"/>
<path fill-rule="evenodd" d="M194.9,294.5h238V279.8h-238v14.7Z" class="g0_52"/>
<path fill-rule="evenodd" d="M194.9,309.1h238V294.5h-238v14.6Z" class="g0_52"/>
<path fill-rule="evenodd" d="M194.5,323.8H432.2V309.1H194.5v14.7Z" class="g0_52"/>
<path fill-rule="evenodd" d="M194.5,338.5H432.2V323.8H194.5v14.7Z" class="g0_52"/>
<path fill-rule="evenodd" d="M194.5,353.2H432.2V338.5H194.5v14.7Z" class="g0_52"/>
<path fill-rule="evenodd" d="M194.5,367.8H432.2V353.2H194.5v14.6Z" class="g0_52"/>
<path fill-rule="evenodd" d="M194.5,382.5H432.2V367.8H194.5v14.7Z" class="g0_52"/>
<path fill-rule="evenodd" d="M194.5,397.2H432.2V382.5H194.5v14.7Z" class="g0_52"/>
<path fill-rule="evenodd" d="M194.5,411.8H432.2V397.2H194.5v14.6Z" class="g0_52"/>
<path fill-rule="evenodd" d="M194.5,426.5H432.2V411.8H194.5v14.7Z" class="g0_52"/>
<path fill-rule="evenodd" d="M194.5,441.2H432.2V426.5H194.5v14.7Z" class="g0_52"/>
<path fill-rule="evenodd" d="M194.5,455.8H432.2V441.2H194.5v14.6Z" class="g0_52"/>
<path fill-rule="evenodd" d="M194.2,470.5h238V455.8h-238v14.7Z" class="g0_52"/>
<path fill-rule="evenodd" d="M194.2,485.2h238V470.5h-238v14.7Z" class="g0_52"/>
<path fill-rule="evenodd" d="M194.2,499.8h238V485.2h-238v14.6Z" class="g0_52"/>
<path fill-rule="evenodd" d="M194.2,514.5h238V499.8h-238v14.7Z" class="g0_52"/>
<path fill-rule="evenodd" d="M194.2,529.2h238V514.5h-238v14.7Z" class="g0_52"/>
<path fill-rule="evenodd" d="M194.2,543.8h238V529.2h-238v14.6Z" class="g0_52"/>
<path fill-rule="evenodd" d="M194.2,558.5h238V543.8h-238v14.7Z" class="g0_52"/>
<path fill-rule="evenodd" d="M194.2,573.2h238V558.5h-238v14.7Z" class="g0_52"/>
<path fill-rule="evenodd" d="M194.2,587.8h238V573.2h-238v14.6Z" class="g0_52"/>
<path fill-rule="evenodd" d="M194.2,602.5h238V587.8h-238v14.7Z" class="g0_52"/>
<path fill-rule="evenodd" d="M194.2,617.2h238V602.5h-238v14.7Z" class="g0_52"/>
<path fill-rule="evenodd" d="M194.2,631.9h238V617.2h-238v14.7Z" class="g0_52"/>
<path fill-rule="evenodd" d="M194.2,646.5h238V631.9h-238v14.6Z" class="g0_52"/>
<path fill-rule="evenodd" d="M194.2,661.2h238V646.5h-238v14.7Z" class="g0_52"/>
<path fill-rule="evenodd" d="M194.2,675.9h238V661.2h-238v14.7Z" class="g0_52"/>
<path fill-rule="evenodd" d="M194.5,690.5H380.1V675.9H194.5v14.6Z" class="g0_52"/>
<path fill-rule="evenodd" d="M194.5,705.2H380.1V690.5H194.5v14.7Z" class="g0_52"/>
<path fill-rule="evenodd" d="M194.2,719.9H432.5V705.2H194.2v14.7Z" class="g0_52"/>
<path fill-rule="evenodd" d="M194.2,734.5H432.5V719.9H194.2v14.6Z" class="g0_52"/>
<path fill-rule="evenodd" d="M194.2,749.2H432.5V734.5H194.2v14.7Z" class="g0_52"/>
<path fill-rule="evenodd" d="M194.2,763.9H432.5V749.2H194.2v14.7Z" class="g0_52"/>
<path fill-rule="evenodd" d="M194.2,778.5H432.5V763.9H194.2v14.6Z" class="g0_52"/>
<path fill-rule="evenodd" d="M194.2,793.2H432.5V778.5H194.2v14.7Z" class="g0_52"/>
<path fill-rule="evenodd" d="M194.2,808.2H432.9V793.6H194.2v14.6Z" class="g0_52"/>
<path fill-rule="evenodd" d="M194.2,822.9H432.9V808.2H194.2v14.7Z" class="g0_52"/>
<path fill-rule="evenodd" d="M194.2,837.6H432.9V822.9H194.2v14.7Z" class="g0_52"/>
<path fill-rule="evenodd" d="M194.2,852.3H432.9V837.6H194.2v14.7Z" class="g0_52"/>
<path fill-rule="evenodd" d="M194.2,867H432.9V852.3H194.2V867Z" class="g0_52"/>
<path fill-rule="evenodd" d="M194.2,881.6H432.9V867H194.2v14.6Z" class="g0_52"/>
<path fill-rule="evenodd" d="M194.2,896.3H432.9V881.6H194.2v14.7Z" class="g0_52"/>
<path fill-rule="evenodd" d="M212.5,911H432.9V896.3H212.5V911Z" class="g0_52"/>
<path fill-rule="evenodd" d="M452,161.7H693V147.1H452v14.6Z" class="g0_52"/>
<path fill-rule="evenodd" d="M452,176.4H693V161.7H452v14.7Z" class="g0_52"/>
<path fill-rule="evenodd" d="M452,191.1H693V176.4H452v14.7Z" class="g0_52"/>
<path fill-rule="evenodd" d="M452,205.7H693V191.1H452v14.6Z" class="g0_52"/>
<path fill-rule="evenodd" d="M452,220.4H693V205.7H452v14.7Z" class="g0_52"/>
<path fill-rule="evenodd" d="M452,235.1H693V220.4H452v14.7Z" class="g0_52"/>
<path fill-rule="evenodd" d="M452,249.7H693V235.1H452v14.6Z" class="g0_52"/>
<path fill-rule="evenodd" d="M452,264.4H693V249.7H452v14.7Z" class="g0_52"/>
<path fill-rule="evenodd" d="M452,279.1H693V264.4H452v14.7Z" class="g0_52"/>
<path fill-rule="evenodd" d="M452,293.7H693V279.1H452v14.6Z" class="g0_52"/>
<path fill-rule="evenodd" d="M452,308.4H693V293.7H452v14.7Z" class="g0_52"/>
<path fill-rule="evenodd" d="M452,323.1H693V308.4H452v14.7Z" class="g0_52"/>
<path fill-rule="evenodd" d="M452,337.7H693V323.1H452v14.6Z" class="g0_52"/>
<path fill-rule="evenodd" d="M452,352.4H693V337.7H452v14.7Z" class="g0_52"/>
<path fill-rule="evenodd" d="M452,367.1H693V352.4H452v14.7Z" class="g0_52"/>
<path fill-rule="evenodd" d="M452,381.8H693V367.1H452v14.7Z" class="g0_52"/>
<path fill-rule="evenodd" d="M452,396.4H693V381.8H452v14.6Z" class="g0_52"/>
<path fill-rule="evenodd" d="M452.4,411.1H693V396.4H452.4v14.7Z" class="g0_52"/>
<path fill-rule="evenodd" d="M452.4,425.8H693V411.1H452.4v14.7Z" class="g0_52"/>
<path fill-rule="evenodd" d="M452.4,440.4H693V425.8H452.4v14.6Z" class="g0_52"/>
<path fill-rule="evenodd" d="M452.4,455.1H693V440.4H452.4v14.7Z" class="g0_52"/>
<path fill-rule="evenodd" d="M452.4,469.8H693V455.1H452.4v14.7Z" class="g0_52"/>
<path fill-rule="evenodd" d="M452.8,484.8H693V470.1H452.8v14.7Z" class="g0_52"/>
<path fill-rule="evenodd" d="M452.8,499.5H693V484.8H452.8v14.7Z" class="g0_52"/>
<path fill-rule="evenodd" d="M452.4,514.5H692.6V499.8H452.4v14.7Z" class="g0_52"/>
<path fill-rule="evenodd" d="M452.4,529.2H692.6V514.5H452.4v14.7Z" class="g0_52"/>
<path fill-rule="evenodd" d="M452.4,543.8H692.6V529.2H452.4v14.6Z" class="g0_52"/>
<path fill-rule="evenodd" d="M452.4,558.5H692.6V543.8H452.4v14.7Z" class="g0_52"/>
<path fill-rule="evenodd" d="M452.4,573.2H692.6V558.5H452.4v14.7Z" class="g0_52"/>
<path fill-rule="evenodd" d="M452.4,587.8H692.6V573.2H452.4v14.6Z" class="g0_52"/>
<path fill-rule="evenodd" d="M452.4,602.5H692.6V587.8H452.4v14.7Z" class="g0_52"/>
<path fill-rule="evenodd" d="M452.8,617.6H692.2V602.9H452.8v14.7Z" class="g0_52"/>
<path fill-rule="evenodd" d="M452.8,632.2H692.2V617.6H452.8v14.6Z" class="g0_52"/>
<path fill-rule="evenodd" d="M471.1,647.3H693V632.6H471.1v14.7Z" class="g0_52"/>
<path fill-rule="evenodd" d="M452.8,662.5H693V647.6H452.8v14.9Z" class="g0_52"/>
<path fill-rule="evenodd" d="M452.8,677.2H693V662.5H452.8v14.7Z" class="g0_52"/>
<path fill-rule="evenodd" d="M452.8,691.8H693V677.2H452.8v14.6Z" class="g0_52"/>
<path fill-rule="evenodd" d="M452.8,706.5H693V691.8H452.8v14.7Z" class="g0_52"/>
<path fill-rule="evenodd" d="M452.8,721.2H693V706.5H452.8v14.7Z" class="g0_52"/>
<path fill-rule="evenodd" d="M452.8,735.8H693V721.2H452.8v14.6Z" class="g0_52"/>
<path fill-rule="evenodd" d="M452.8,750.5H692.6V735.8H452.8v14.7Z" class="g0_52"/>
<path fill-rule="evenodd" d="M452.8,765.2H692.6V750.5H452.8v14.7Z" class="g0_52"/>
<path fill-rule="evenodd" d="M453.1,780.2H693V765.5H453.1v14.7Z" class="g0_52"/>
<path fill-rule="evenodd" d="M453.1,794.9H693V780.2H453.1v14.7Z" class="g0_52"/>
<path fill-rule="evenodd" d="M453.5,809.5H692.6V794.9H453.5v14.6Z" class="g0_52"/>
<path fill-rule="evenodd" d="M453.5,824.2H692.6V809.5H453.5v14.7Z" class="g0_52"/>
<path fill-rule="evenodd" d="M453.5,838.9H692.6V824.2H453.5v14.7Z" class="g0_52"/>
<path fill-rule="evenodd" d="M453.5,853.6H692.6V838.9H453.5v14.7Z" class="g0_52"/>
<path fill-rule="evenodd" d="M453.5,868.2H692.6V853.6H453.5v14.6Z" class="g0_52"/>
<path fill-rule="evenodd" d="M433.7,901.2H693V883.6H433.7v17.6Z" class="g0_52"/>
</svg>