<?xml version="1.0" encoding="UTF-8" standalone="no"?>
<!DOCTYPE svg PUBLIC "-//W3C//DTD SVG 1.1//EN"
"http://www.w3.org/Graphics/SVG/1.1/DTD/svg11.dtd">
<svg viewBox="0 0 909 1285" version="1.1" xmlns="http://www.w3.org/2000/svg" xmlns:xlink="http://www.w3.org/1999/xlink">
<defs>
<style type="text/css"><![CDATA[
.g0_330{
fill: #FFFFFF;
}
.g1_330{
fill: none;
stroke: #000000;
stroke-width: 0.381;
stroke-linecap: butt;
stroke-linejoin: round;
}
]]></style>
</defs>
<path fill-rule="evenodd" d="M644.8,125.8h59.4V110H644.8v15.8Z" class="g0_330"/>
<path fill-rule="evenodd" d="M185.9,161.4H426.5V146.3H185.9v15.1Z" class="g0_330"/>
<path fill-rule="evenodd" d="M185.9,176.4H426.5v-15H185.9v15Z" class="g0_330"/>
<path fill-rule="evenodd" d="M185.9,191.6H426.5V176.4H185.9v15.2Z" class="g0_330"/>
<path fill-rule="evenodd" d="M185.9,206.6H426.5v-15H185.9v15Z" class="g0_330"/>
<path fill-rule="evenodd" d="M185.9,221.7H426.5V206.6H185.9v15.1Z" class="g0_330"/>
<path fill-rule="evenodd" d="M186.3,236.7H426.1v-15H186.3v15Z" class="g0_330"/>
<path fill-rule="evenodd" d="M186.3,251.7H426.1v-15H186.3v15Z" class="g0_330"/>
<path fill-rule="evenodd" d="M186.3,266.8H426.1V251.7H186.3v15.1Z" class="g0_330"/>
<path fill-rule="evenodd" d="M186.3,281.8H426.1v-15H186.3v15Z" class="g0_330"/>
<path fill-rule="evenodd" d="M186.3,296.8H425.8v-15H186.3v15Z" class="g0_330"/>
<path fill-rule="evenodd" d="M186.3,311.9H425.8V296.8H186.3v15.1Z" class="g0_330"/>
<path fill-rule="evenodd" d="M186.3,326.9H425.8v-15H186.3v15Z" class="g0_330"/>
<path fill-rule="evenodd" d="M185.9,341.9H425.8v-15H185.9v15Z" class="g0_330"/>
<path fill-rule="evenodd" d="M446.3,161.7H686.9v-15H446.3v15Z" class="g0_330"/>
<path fill-rule="evenodd" d="M446.3,176.9H686.9V161.7H446.3v15.2Z" class="g0_330"/>
<path fill-rule="evenodd" d="M446.3,192H686.9V176.9H446.3V192Z" class="g0_330"/>
<path fill-rule="evenodd" d="M446.7,207h241V192h-241v15Z" class="g0_330"/>
<path fill-rule="evenodd" d="M446.7,222h241V207h-241v15Z" class="g0_330"/>
<path fill-rule="evenodd" d="M446.7,237.1h241V222h-241v15.1Z" class="g0_330"/>
<path fill-rule="evenodd" d="M446.3,252.1H686.9v-15H446.3v15Z" class="g0_330"/>
<path fill-rule="evenodd" d="M446.3,267.1H686.9v-15H446.3v15Z" class="g0_330"/>
<path fill-rule="evenodd" d="M446.3,282.2H686.9V267.1H446.3v15.1Z" class="g0_330"/>
<path fill-rule="evenodd" d="M446.7,297.2H686.2v-15H446.7v15Z" class="g0_330"/>
<path fill-rule="evenodd" d="M446.7,312.2H686.2v-15H446.7v15Z" class="g0_330"/>
<path fill-rule="evenodd" d="M416.6,472.3H476v-30H416.6v30Z" class="g0_330"/>
<path fill-rule="evenodd" d="M204.3,507.5H704.1v-15H204.3v15Z" class="g0_330"/>
<path fill-rule="evenodd" d="M185.2,522.6H425V507.5H185.2v15.1Z" class="g0_330"/>
<path fill-rule="evenodd" d="M185.2,537.6H425v-15H185.2v15Z" class="g0_330"/>
<path fill-rule="evenodd" d="M185.2,552.6H425v-15H185.2v15Z" class="g0_330"/>
<path fill-rule="evenodd" d="M185.2,567.7H425V552.6H185.2v15.1Z" class="g0_330"/>
<path fill-rule="evenodd" d="M184.1,654.2H423.9V639.6H184.1v14.6Z" class="g0_330"/>
<path fill-rule="evenodd" d="M184.1,668.9H423.9V654.2H184.1v14.7Z" class="g0_330"/>
<path fill-rule="evenodd" d="M184.1,683.6H423.9V668.9H184.1v14.7Z" class="g0_330"/>
<path fill-rule="evenodd" d="M184.1,698.2H423.9V683.6H184.1v14.6Z" class="g0_330"/>
<path fill-rule="evenodd" d="M184.1,712.9H344.7V698.2H184.1v14.7Z" class="g0_330"/>
<path fill-rule="evenodd" d="M184.1,727.6H344.7V712.9H184.1v14.7Z" class="g0_330"/>
<path fill-rule="evenodd" d="M183.7,742.2H423.2V727.6H183.7v14.6Z" class="g0_330"/>
<path fill-rule="evenodd" d="M183.7,756.9H423.2V742.2H183.7v14.7Z" class="g0_330"/>
<path fill-rule="evenodd" d="M183.7,771.6H423.2V756.9H183.7v14.7Z" class="g0_330"/>
<path fill-rule="evenodd" d="M183.7,786.2H423.9V771.6H183.7v14.6Z" class="g0_330"/>
<path fill-rule="evenodd" d="M183.7,800.9H423.9V786.2H183.7v14.7Z" class="g0_330"/>
<path fill-rule="evenodd" d="M183.7,815.6H423.9V800.9H183.7v14.7Z" class="g0_330"/>
<path fill-rule="evenodd" d="M183.7,830.2H423.9V815.6H183.7v14.6Z" class="g0_330"/>
<path fill-rule="evenodd" d="M183.7,845H423.9V830.2H183.7V845Z" class="g0_330"/>
<path fill-rule="evenodd" d="M183.4,859.6H423.2V845H183.4v14.6Z" class="g0_330"/>
<path fill-rule="evenodd" d="M183.4,874.3H423.2V859.6H183.4v14.7Z" class="g0_330"/>
<path fill-rule="evenodd" d="M183.4,889H423.2V874.3H183.4V889Z" class="g0_330"/>
<path fill-rule="evenodd" d="M183.4,903.6H423.2V889H183.4v14.6Z" class="g0_330"/>
<path fill-rule="evenodd" d="M183,918.7H423.2V904H183v14.7Z" class="g0_330"/>
<path fill-rule="evenodd" d="M183,933.3H423.2V918.7H183v14.6Z" class="g0_330"/>
<path fill-rule="evenodd" d="M183,948H423.2V933.3H183V948Z" class="g0_330"/>
<path fill-rule="evenodd" d="M201.7,962.7H423.9V948H201.7v14.7Z" class="g0_330"/>
<path fill-rule="evenodd" d="M184.1,987.4H423.9V971.5H184.1v15.9Z" class="g0_330"/>
<path fill-rule="evenodd" d="M183,1004.8H423.9V987.4H183v17.4Z" class="g0_330"/>
<path fill-rule="evenodd" d="M422.3,1009.2h59.4V991.6H422.3v17.6Z" class="g0_330"/>
<path fill-rule="evenodd" d="M423,1024.3h58.7v-15.1H423v15.1Z" class="g0_330"/>
<path fill-rule="evenodd" d="M478.1,654.2H718.6v-15H478.1v15Z" class="g0_330"/>
<path fill-rule="evenodd" d="M478.1,669.3H718.6V654.2H478.1v15.1Z" class="g0_330"/>
<path fill-rule="evenodd" d="M478.1,684.5H718.6V669.3H478.1v15.2Z" class="g0_330"/>
<path fill-rule="evenodd" d="M478.1,699.5H718.6v-15H478.1v15Z" class="g0_330"/>
<path fill-rule="evenodd" d="M478.1,714.6H718.6V699.5H478.1v15.1Z" class="g0_330"/>
<path fill-rule="evenodd" d="M496.4,729.6H718.6v-15H496.4v15Z" class="g0_330"/>
<path fill-rule="evenodd" d="M478.1,744.6H717.9v-15H478.1v15Z" class="g0_330"/>
<path fill-rule="evenodd" d="M478.1,759.7H717.9V744.6H478.1v15.1Z" class="g0_330"/>
<path fill-rule="evenodd" d="M477.7,774.7H717.9v-15H477.7v15Z" class="g0_330"/>
<path fill-rule="evenodd" d="M477.7,789.7H717.9v-15H477.7v15Z" class="g0_330"/>
<path fill-rule="evenodd" d="M477.7,804.8H717.9V789.7H477.7v15.1Z" class="g0_330"/>
<path fill-rule="evenodd" d="M477.7,819.8H717.9v-15H477.7v15Z" class="g0_330"/>
<path fill-rule="evenodd" d="M477.7,834.9H717.9V819.8H477.7v15.1Z" class="g0_330"/>
<path fill-rule="evenodd" d="M477.3,849.9H717.5v-15H477.3v15Z" class="g0_330"/>
<path fill-rule="evenodd" d="M477.3,865.1H717.5V849.9H477.3v15.2Z" class="g0_330"/>
<path fill-rule="evenodd" d="M477.3,880.2H717.5V865.1H477.3v15.1Z" class="g0_330"/>
<path fill-rule="evenodd" d="M477.3,895.2H717.5v-15H477.3v15Z" class="g0_330"/>
<path fill-rule="evenodd" d="M477.3,910.2H717.5v-15H477.3v15Z" class="g0_330"/>
<path fill-rule="evenodd" d="M477.3,925.3H717.5V910.2H477.3v15.1Z" class="g0_330"/>
<path fill-rule="evenodd" d="M477.3,940.3H717.5v-15H477.3v15Z" class="g0_330"/>
<path fill-rule="evenodd" d="M477.3,955.3H717.5v-15H477.3v15Z" class="g0_330"/>
<path fill-rule="evenodd" d="M477.3,970.4H717.5V955.3H477.3v15.1Z" class="g0_330"/>
<path fill-rule="evenodd" d="M422.5,397.2h29V371.5h-29v25.7Z" class="g0_330"/>
<path d="M435.6,146.4V329.3" class="g1_330"/>
</svg>