<?xml version="1.0" encoding="UTF-8" standalone="no"?>
<!DOCTYPE svg PUBLIC "-//W3C//DTD SVG 1.1//EN"
"http://www.w3.org/Graphics/SVG/1.1/DTD/svg11.dtd">
<svg viewBox="0 0 909 1285" version="1.1" xmlns="http://www.w3.org/2000/svg" xmlns:xlink="http://www.w3.org/1999/xlink">
<defs>
<style type="text/css"><![CDATA[
.g0_119{
fill: #FFFFFF;
}
.g1_119{
fill: none;
stroke: #000000;
stroke-width: 0.381;
stroke-linecap: butt;
stroke-linejoin: round;
}
]]></style>
</defs>
<path fill-rule="evenodd" d="M527.2,125.8H685.6V110H527.2v15.8Z" class="g0_119"/>
<path fill-rule="evenodd" d="M187.2,161.4H425.6V146.7H187.2v14.7Z" class="g0_119"/>
<path fill-rule="evenodd" d="M187.2,176H425.6V161.4H187.2V176Z" class="g0_119"/>
<path fill-rule="evenodd" d="M187.2,190.7H425.6V176H187.2v14.7Z" class="g0_119"/>
<path fill-rule="evenodd" d="M187.2,205.4H425.6V190.7H187.2v14.7Z" class="g0_119"/>
<path fill-rule="evenodd" d="M187.2,220H425.6V205.4H187.2V220Z" class="g0_119"/>
<path fill-rule="evenodd" d="M186.8,234.7H425.6V220H186.8v14.7Z" class="g0_119"/>
<path fill-rule="evenodd" d="M186.8,249.4H425.6V234.7H186.8v14.7Z" class="g0_119"/>
<path fill-rule="evenodd" d="M186.8,264H425.6V249.4H186.8V264Z" class="g0_119"/>
<path fill-rule="evenodd" d="M186.8,278.7H425.6V264H186.8v14.7Z" class="g0_119"/>
<path fill-rule="evenodd" d="M186.8,293.4H425.6V278.7H186.8v14.7Z" class="g0_119"/>
<path fill-rule="evenodd" d="M186.8,308H425.6V293.4H186.8V308Z" class="g0_119"/>
<path fill-rule="evenodd" d="M186.8,322.7H425.6V308H186.8v14.7Z" class="g0_119"/>
<path fill-rule="evenodd" d="M186.8,337.4H425.6V322.7H186.8v14.7Z" class="g0_119"/>
<path fill-rule="evenodd" d="M186.8,352H425.6V337.4H186.8V352Z" class="g0_119"/>
<path fill-rule="evenodd" d="M186.8,367.3H424.5V352.4H186.8v14.9Z" class="g0_119"/>
<path fill-rule="evenodd" d="M186.8,382H424.5V367.3H186.8V382Z" class="g0_119"/>
<path fill-rule="evenodd" d="M185.4,396.6H424.8V382H185.4v14.6Z" class="g0_119"/>
<path fill-rule="evenodd" d="M185.4,411.3H424.8V396.6H185.4v14.7Z" class="g0_119"/>
<path fill-rule="evenodd" d="M185.4,426H424.8V411.3H185.4V426Z" class="g0_119"/>
<path fill-rule="evenodd" d="M185.4,440.6H424.8V426H185.4v14.6Z" class="g0_119"/>
<path fill-rule="evenodd" d="M185.4,455.3H424.8V440.6H185.4v14.7Z" class="g0_119"/>
<path fill-rule="evenodd" d="M185.4,470H424.8V455.3H185.4V470Z" class="g0_119"/>
<path fill-rule="evenodd" d="M185.4,484.6H424.8V470H185.4v14.6Z" class="g0_119"/>
<path fill-rule="evenodd" d="M185.4,499.3H424.8V484.6H185.4v14.7Z" class="g0_119"/>
<path fill-rule="evenodd" d="M185.4,514H424.8V499.3H185.4V514Z" class="g0_119"/>
<path fill-rule="evenodd" d="M185.4,528.6H424.8V514H185.4v14.6Z" class="g0_119"/>
<path fill-rule="evenodd" d="M185.4,543.3H424.8V528.6H185.4v14.7Z" class="g0_119"/>
<path fill-rule="evenodd" d="M185.4,558H424.8V543.3H185.4V558Z" class="g0_119"/>
<path fill-rule="evenodd" d="M185.4,572.6H424.8V558H185.4v14.6Z" class="g0_119"/>
<path fill-rule="evenodd" d="M185.4,587.3H424.5V572.6H185.4v14.7Z" class="g0_119"/>
<path fill-rule="evenodd" d="M185.4,602H424.5V587.3H185.4V602Z" class="g0_119"/>
<path fill-rule="evenodd" d="M185.4,616.7H424.5V602H185.4v14.7Z" class="g0_119"/>
<path fill-rule="evenodd" d="M185.7,631.3H424.1V616.7H185.7v14.6Z" class="g0_119"/>
<path fill-rule="evenodd" d="M185.7,646H424.1V631.3H185.7V646Z" class="g0_119"/>
<path fill-rule="evenodd" d="M184.6,660.7H423.7V646H184.6v14.7Z" class="g0_119"/>
<path fill-rule="evenodd" d="M184.6,675.3H423.7V660.7H184.6v14.6Z" class="g0_119"/>
<path fill-rule="evenodd" d="M185,690.4H423.7V675.7H185v14.7Z" class="g0_119"/>
<path fill-rule="evenodd" d="M185,705H423.7V690.4H185V705Z" class="g0_119"/>
<path fill-rule="evenodd" d="M185,719.7H423.7V705H185v14.7Z" class="g0_119"/>
<path fill-rule="evenodd" d="M185,734.4H423V719.7H185v14.7Z" class="g0_119"/>
<path fill-rule="evenodd" d="M185,749H423V734.4H185V749Z" class="g0_119"/>
<path fill-rule="evenodd" d="M184.3,763.7H423.4V749H184.3v14.7Z" class="g0_119"/>
<path fill-rule="evenodd" d="M184.3,778.4H423.4V763.7H184.3v14.7Z" class="g0_119"/>
<path fill-rule="evenodd" d="M184.3,793H423.4V778.4H184.3V793Z" class="g0_119"/>
<path fill-rule="evenodd" d="M184.3,807.7H423.4V793H184.3v14.7Z" class="g0_119"/>
<path fill-rule="evenodd" d="M184.3,822.4H423.4V807.7H184.3v14.7Z" class="g0_119"/>
<path fill-rule="evenodd" d="M184.3,837.1H423.4V822.4H184.3v14.7Z" class="g0_119"/>
<path fill-rule="evenodd" d="M184.3,851.7H423.4V837.1H184.3v14.6Z" class="g0_119"/>
<path fill-rule="evenodd" d="M184.3,866.4H423.4V851.7H184.3v14.7Z" class="g0_119"/>
<path fill-rule="evenodd" d="M184.3,881.1H423.4V866.4H184.3v14.7Z" class="g0_119"/>
<path fill-rule="evenodd" d="M184.3,895.7H423.4V881.1H184.3v14.6Z" class="g0_119"/>
<path fill-rule="evenodd" d="M186.8,910.8H425.2V895.7H186.8v15.1Z" class="g0_119"/>
<path fill-rule="evenodd" d="M445.9,161.4H684.7V146.3H445.9v15.1Z" class="g0_119"/>
<path fill-rule="evenodd" d="M445.9,176.4H684.7v-15H445.9v15Z" class="g0_119"/>
<path fill-rule="evenodd" d="M445.6,192H684.7V176.8H445.6V192Z" class="g0_119"/>
<path fill-rule="evenodd" d="M445.6,207H684.7V192H445.6v15Z" class="g0_119"/>
<path fill-rule="evenodd" d="M445.6,222H685.1V207H445.6v15Z" class="g0_119"/>
<path fill-rule="evenodd" d="M445.6,237.1H685.1V222H445.6v15.1Z" class="g0_119"/>
<path fill-rule="evenodd" d="M445.6,252.1H685.1v-15H445.6v15Z" class="g0_119"/>
<path fill-rule="evenodd" d="M463.9,267.1H685.1v-15H463.9v15Z" class="g0_119"/>
<path fill-rule="evenodd" d="M444.8,282.2H685.1V267.1H444.8v15.1Z" class="g0_119"/>
<path fill-rule="evenodd" d="M444.8,297.2H685.1v-15H444.8v15Z" class="g0_119"/>
<path fill-rule="evenodd" d="M444.8,312.2H685.1v-15H444.8v15Z" class="g0_119"/>
<path fill-rule="evenodd" d="M445.6,327.3H684.7V312.2H445.6v15.1Z" class="g0_119"/>
<path fill-rule="evenodd" d="M445.6,342.5H684.7V327.3H445.6v15.2Z" class="g0_119"/>
<path fill-rule="evenodd" d="M445.2,357.6H684.7V342.5H445.2v15.1Z" class="g0_119"/>
<path fill-rule="evenodd" d="M445.2,372.6H684.7v-15H445.2v15Z" class="g0_119"/>
<path fill-rule="evenodd" d="M445.2,387.6H684.7v-15H445.2v15Z" class="g0_119"/>
<path fill-rule="evenodd" d="M444.8,402.7H684.7V387.6H444.8v15.1Z" class="g0_119"/>
<path fill-rule="evenodd" d="M444.8,417.7H684.7v-15H444.8v15Z" class="g0_119"/>
<path fill-rule="evenodd" d="M444.8,432.7H684.7v-15H444.8v15Z" class="g0_119"/>
<path fill-rule="evenodd" d="M444.8,447.8H684.7V432.7H444.8v15.1Z" class="g0_119"/>
<path fill-rule="evenodd" d="M444.8,462.8H684.7v-15H444.8v15Z" class="g0_119"/>
<path fill-rule="evenodd" d="M444.8,477.8H684.7v-15H444.8v15Z" class="g0_119"/>
<path fill-rule="evenodd" d="M444.5,492.9H657.2V477.8H444.5v15.1Z" class="g0_119"/>
<path fill-rule="evenodd" d="M444.5,507.9H657.2v-15H444.5v15Z" class="g0_119"/>
<path fill-rule="evenodd" d="M444.5,523.1H683.6V507.9H444.5v15.2Z" class="g0_119"/>
<path fill-rule="evenodd" d="M444.5,538.2H683.6V523.1H444.5v15.1Z" class="g0_119"/>
<path fill-rule="evenodd" d="M444.5,553.2H683.6v-15H444.5v15Z" class="g0_119"/>
<path fill-rule="evenodd" d="M444.5,568.2H683.6v-15H444.5v15Z" class="g0_119"/>
<path fill-rule="evenodd" d="M444.5,583.3H683.6V568.2H444.5v15.1Z" class="g0_119"/>
<path fill-rule="evenodd" d="M444.5,598.3H683.6v-15H444.5v15Z" class="g0_119"/>
<path fill-rule="evenodd" d="M444.5,613.4H683.6V598.3H444.5v15.1Z" class="g0_119"/>
<path fill-rule="evenodd" d="M444.5,628.4H683.6v-15H444.5v15Z" class="g0_119"/>
<path fill-rule="evenodd" d="M444.5,643.4H683.6v-15H444.5v15Z" class="g0_119"/>
<path fill-rule="evenodd" d="M444.1,658.5H683.3V643.4H444.1v15.1Z" class="g0_119"/>
<path fill-rule="evenodd" d="M444.1,673.5H683.3v-15H444.1v15Z" class="g0_119"/>
<path fill-rule="evenodd" d="M444.1,688.5H683.3v-15H444.1v15Z" class="g0_119"/>
<path fill-rule="evenodd" d="M444.1,703.7H683.3V688.5H444.1v15.2Z" class="g0_119"/>
<path fill-rule="evenodd" d="M444.1,718.8H683.3V703.7H444.1v15.1Z" class="g0_119"/>
<path fill-rule="evenodd" d="M443.7,733.8H657.2v-15H443.7v15Z" class="g0_119"/>
<path fill-rule="evenodd" d="M443.7,748.8H657.2v-15H443.7v15Z" class="g0_119"/>
<path fill-rule="evenodd" d="M443.4,763.9H685.1V748.8H443.4v15.1Z" class="g0_119"/>
<path fill-rule="evenodd" d="M443.4,778.9H685.1v-15H443.4v15Z" class="g0_119"/>
<path fill-rule="evenodd" d="M443.4,793.9H685.1v-15H443.4v15Z" class="g0_119"/>
<path fill-rule="evenodd" d="M443.4,809H685.1V793.9H443.4V809Z" class="g0_119"/>
<path fill-rule="evenodd" d="M443.4,824H685.1V809H443.4v15Z" class="g0_119"/>
<path fill-rule="evenodd" d="M443.4,839.1H685.1V824H443.4v15.1Z" class="g0_119"/>
<path fill-rule="evenodd" d="M443.7,854.1H683.3v-15H443.7v15Z" class="g0_119"/>
<path fill-rule="evenodd" d="M443.7,869.2H683.3V854.1H443.7v15.1Z" class="g0_119"/>
<path fill-rule="evenodd" d="M443.7,884.4H683.3V869.2H443.7v15.2Z" class="g0_119"/>
<path fill-rule="evenodd" d="M443.7,899.4H683.3v-15H443.7v15Z" class="g0_119"/>
<path fill-rule="evenodd" d="M421.6,931.5h264V914.1h-264v17.4Z" class="g0_119"/>
<path d="M432.8,146V912.7" class="g1_119"/>
</svg>