<?xml version="1.0" encoding="UTF-8" standalone="no"?>
<!DOCTYPE svg PUBLIC "-//W3C//DTD SVG 1.1//EN"
"http://www.w3.org/Graphics/SVG/1.1/DTD/svg11.dtd">
<svg viewBox="0 0 909 1285" version="1.1" xmlns="http://www.w3.org/2000/svg" xmlns:xlink="http://www.w3.org/1999/xlink">
<defs>
<style type="text/css"><![CDATA[
.g0_268{
fill: #FFFFFF;
}
.g1_268{
fill: none;
stroke: #000000;
stroke-width: 0.381;
stroke-linecap: butt;
stroke-linejoin: round;
}
.g2_268{
fill: none;
stroke: #000000;
stroke-width: 2.215;
stroke-linecap: butt;
stroke-linejoin: round;
}
.g3_268{
fill: none;
stroke: #000000;
stroke-width: 1.833;
stroke-linecap: butt;
stroke-linejoin: round;
}
]]></style>
</defs>
<path fill-rule="evenodd" d="M255,125.8H755.3V110H255v15.8Z" class="g0_268"/>
<path fill-rule="evenodd" d="M254.3,161.7H494.9v-15H254.3v15Z" class="g0_268"/>
<path fill-rule="evenodd" d="M254.3,176.9H494.9V161.7H254.3v15.2Z" class="g0_268"/>
<path fill-rule="evenodd" d="M254.3,192H494.9V176.9H254.3V192Z" class="g0_268"/>
<path fill-rule="evenodd" d="M254.3,207H494.9V192H254.3v15Z" class="g0_268"/>
<path fill-rule="evenodd" d="M254.3,222H494.2V207H254.3v15Z" class="g0_268"/>
<path fill-rule="evenodd" d="M254.3,237.1H494.2V222H254.3v15.1Z" class="g0_268"/>
<path fill-rule="evenodd" d="M254.3,252.1H494.2v-15H254.3v15Z" class="g0_268"/>
<path fill-rule="evenodd" d="M273.1,267.1H494.9v-15H273.1v15Z" class="g0_268"/>
<path fill-rule="evenodd" d="M253.9,282.2H494.6V267.1H253.9v15.1Z" class="g0_268"/>
<path fill-rule="evenodd" d="M253.9,297.2H494.6v-15H253.9v15Z" class="g0_268"/>
<path fill-rule="evenodd" d="M253.9,312.2H494.6v-15H253.9v15Z" class="g0_268"/>
<path fill-rule="evenodd" d="M254.7,327.3H494.2V312.2H254.7v15.1Z" class="g0_268"/>
<path fill-rule="evenodd" d="M254.7,342.5H494.2V327.3H254.7v15.2Z" class="g0_268"/>
<path fill-rule="evenodd" d="M254.3,357.6H493.8V342.5H254.3v15.1Z" class="g0_268"/>
<path fill-rule="evenodd" d="M254.3,372.6H493.8v-15H254.3v15Z" class="g0_268"/>
<path fill-rule="evenodd" d="M253.9,387.6H494.6v-15H253.9v15Z" class="g0_268"/>
<path fill-rule="evenodd" d="M253.9,402.7H494.6V387.6H253.9v15.1Z" class="g0_268"/>
<path fill-rule="evenodd" d="M253.9,417.7H494.6v-15H253.9v15Z" class="g0_268"/>
<path fill-rule="evenodd" d="M253.9,432.7H494.6v-15H253.9v15Z" class="g0_268"/>
<path fill-rule="evenodd" d="M253.2,447.8H493.8V432.7H253.2v15.1Z" class="g0_268"/>
<path fill-rule="evenodd" d="M253.2,462.8H493.8v-15H253.2v15Z" class="g0_268"/>
<path fill-rule="evenodd" d="M253.2,477.8H493.8v-15H253.2v15Z" class="g0_268"/>
<path fill-rule="evenodd" d="M253.2,492.9H493.8V477.8H253.2v15.1Z" class="g0_268"/>
<path fill-rule="evenodd" d="M253.2,507.9H493.8v-15H253.2v15Z" class="g0_268"/>
<path fill-rule="evenodd" d="M253.2,523.1H493.8V507.9H253.2v15.2Z" class="g0_268"/>
<path fill-rule="evenodd" d="M253.2,538.2H493.8V523.1H253.2v15.1Z" class="g0_268"/>
<path fill-rule="evenodd" d="M253.2,553.2H493.8v-15H253.2v15Z" class="g0_268"/>
<path fill-rule="evenodd" d="M253.2,568.2H493.8v-15H253.2v15Z" class="g0_268"/>
<path fill-rule="evenodd" d="M254.3,583.3H494.9V568.2H254.3v15.1Z" class="g0_268"/>
<path fill-rule="evenodd" d="M514.7,161.7H755.3v-15H514.7v15Z" class="g0_268"/>
<path fill-rule="evenodd" d="M514.7,176.9H755.3V161.7H514.7v15.2Z" class="g0_268"/>
<path fill-rule="evenodd" d="M514.7,192H755.3V176.9H514.7V192Z" class="g0_268"/>
<path fill-rule="evenodd" d="M514.7,207H755.3V192H514.7v15Z" class="g0_268"/>
<path fill-rule="evenodd" d="M514.7,222H755.3V207H514.7v15Z" class="g0_268"/>
<path fill-rule="evenodd" d="M514.7,237.1H755.3V222H514.7v15.1Z" class="g0_268"/>
<path fill-rule="evenodd" d="M514.7,252.1H755.3v-15H514.7v15Z" class="g0_268"/>
<path fill-rule="evenodd" d="M514.7,267.1H755.3v-15H514.7v15Z" class="g0_268"/>
<path fill-rule="evenodd" d="M514.7,282.2H755.3V267.1H514.7v15.1Z" class="g0_268"/>
<path fill-rule="evenodd" d="M514.7,297.2H755.3v-15H514.7v15Z" class="g0_268"/>
<path fill-rule="evenodd" d="M514.4,312.2H754.6v-15H514.4v15Z" class="g0_268"/>
<path fill-rule="evenodd" d="M514.4,327.3H754.6V312.2H514.4v15.1Z" class="g0_268"/>
<path fill-rule="evenodd" d="M514.4,342.5H754.6V327.3H514.4v15.2Z" class="g0_268"/>
<path fill-rule="evenodd" d="M514.7,357.6H754.9V342.5H514.7v15.1Z" class="g0_268"/>
<path fill-rule="evenodd" d="M514.7,372.6H754.9v-15H514.7v15Z" class="g0_268"/>
<path fill-rule="evenodd" d="M514.7,387.6H754.9v-15H514.7v15Z" class="g0_268"/>
<path fill-rule="evenodd" d="M514,402.7H754.9V387.6H514v15.1Z" class="g0_268"/>
<path fill-rule="evenodd" d="M514,417.7H754.9v-15H514v15Z" class="g0_268"/>
<path fill-rule="evenodd" d="M514,432.7H754.9v-15H514v15Z" class="g0_268"/>
<path fill-rule="evenodd" d="M514,447.8H754.9V432.7H514v15.1Z" class="g0_268"/>
<path fill-rule="evenodd" d="M514,462.8H754.9v-15H514v15Z" class="g0_268"/>
<path fill-rule="evenodd" d="M514,477.8H754.2v-15H514v15Z" class="g0_268"/>
<path fill-rule="evenodd" d="M514,492.9H754.2V477.8H514v15.1Z" class="g0_268"/>
<path fill-rule="evenodd" d="M514,507.9H753.8v-15H514v15Z" class="g0_268"/>
<path fill-rule="evenodd" d="M514,523.1H753.8V507.9H514v15.2Z" class="g0_268"/>
<path fill-rule="evenodd" d="M513.6,538.2H753.8V523.1H513.6v15.1Z" class="g0_268"/>
<path fill-rule="evenodd" d="M513.6,553.2H753.8v-15H513.6v15Z" class="g0_268"/>
<path fill-rule="evenodd" d="M483.9,637.2H755.3V613H483.9v24.2Z" class="g0_268"/>
<path fill-rule="evenodd" d="M272,673.9H493.8V658.5H272v15.4Z" class="g0_268"/>
<path fill-rule="evenodd" d="M272,689.3H493.8V673.9H272v15.4Z" class="g0_268"/>
<path fill-rule="evenodd" d="M253.2,704.7H493.1V689.3H253.2v15.4Z" class="g0_268"/>
<path fill-rule="evenodd" d="M253.2,720.2H493.1V704.7H253.2v15.5Z" class="g0_268"/>
<path fill-rule="evenodd" d="M253.2,735.6H493.1V720.2H253.2v15.4Z" class="g0_268"/>
<path fill-rule="evenodd" d="M253.2,751.4H493.8V736H253.2v15.4Z" class="g0_268"/>
<path fill-rule="evenodd" d="M272,766.8H493.8V751.4H272v15.4Z" class="g0_268"/>
<path fill-rule="evenodd" d="M272,782.2H493.8V766.8H272v15.4Z" class="g0_268"/>
<path fill-rule="evenodd" d="M253.2,797.6H493.8V782.2H253.2v15.4Z" class="g0_268"/>
<path fill-rule="evenodd" d="M253.2,813.2H493.8V797.6H253.2v15.6Z" class="g0_268"/>
<path fill-rule="evenodd" d="M253.2,828.6H493.8V813.2H253.2v15.4Z" class="g0_268"/>
<path fill-rule="evenodd" d="M253.2,844H493.8V828.6H253.2V844Z" class="g0_268"/>
<path fill-rule="evenodd" d="M252.5,859.4H493.8V844H252.5v15.4Z" class="g0_268"/>
<path fill-rule="evenodd" d="M252.5,874.8H493.8V859.4H252.5v15.4Z" class="g0_268"/>
<path fill-rule="evenodd" d="M252.5,890.2H493.8V874.8H252.5v15.4Z" class="g0_268"/>
<path fill-rule="evenodd" d="M252.5,905.8H493.8V890.2H252.5v15.6Z" class="g0_268"/>
<path fill-rule="evenodd" d="M252.8,921.2h241V905.8h-241v15.4Z" class="g0_268"/>
<path fill-rule="evenodd" d="M513.4,672.8H754V657.4H513.4v15.4Z" class="g0_268"/>
<path fill-rule="evenodd" d="M513.4,688.2H754V672.8H513.4v15.4Z" class="g0_268"/>
<path fill-rule="evenodd" d="M513.4,703.7H754V688.2H513.4v15.5Z" class="g0_268"/>
<path fill-rule="evenodd" d="M513.4,719.1H754V703.7H513.4v15.4Z" class="g0_268"/>
<path fill-rule="evenodd" d="M513.4,734.5H753.6V719.1H513.4v15.4Z" class="g0_268"/>
<path fill-rule="evenodd" d="M513.4,749.9H753.6V734.5H513.4v15.4Z" class="g0_268"/>
<path fill-rule="evenodd" d="M513.4,765.3H753.6V749.9H513.4v15.4Z" class="g0_268"/>
<path fill-rule="evenodd" d="M513.4,780.7H753.6V765.3H513.4v15.4Z" class="g0_268"/>
<path fill-rule="evenodd" d="M513.4,796.3H753.6V780.7H513.4v15.6Z" class="g0_268"/>
<path fill-rule="evenodd" d="M513.1,811.7H754V796.3H513.1v15.4Z" class="g0_268"/>
<path fill-rule="evenodd" d="M513.1,827.1H754V811.7H513.1v15.4Z" class="g0_268"/>
<path fill-rule="evenodd" d="M513.1,842.6H754V827.1H513.1v15.5Z" class="g0_268"/>
<path fill-rule="evenodd" d="M513.1,858H754V842.6H513.1V858Z" class="g0_268"/>
<path fill-rule="evenodd" d="M513.1,873.4H754V858H513.1v15.4Z" class="g0_268"/>
<path fill-rule="evenodd" d="M513.1,889H754V873.4H513.1V889Z" class="g0_268"/>
<path fill-rule="evenodd" d="M490.2,935.3H755.3V917.9H490.2v17.4Z" class="g0_268"/>
<path d="M503.6,147.8V572.1" class="g1_268"/>
<path d="M177.2,578V812.7" class="g2_268"/>
<path d="M181.7,604.5V717.1" class="g3_268"/>
<path d="M503.6,657.2V910.6" class="g1_268"/>
</svg>