<?xml version="1.0" encoding="UTF-8" standalone="no"?>
<!DOCTYPE svg PUBLIC "-//W3C//DTD SVG 1.1//EN"
"http://www.w3.org/Graphics/SVG/1.1/DTD/svg11.dtd">
<svg viewBox="0 0 909 1285" version="1.1" xmlns="http://www.w3.org/2000/svg" xmlns:xlink="http://www.w3.org/1999/xlink">
<defs>
<style type="text/css"><![CDATA[
.g0_85{
fill: #FFFFFF;
}
.g1_85{
fill: none;
stroke: #000000;
stroke-width: 0.381;
stroke-linecap: butt;
stroke-linejoin: round;
}
]]></style>
</defs>
<path fill-rule="evenodd" d="M264,125.8H770.9V110H264v15.8Z" class="g0_85"/>
<path fill-rule="evenodd" d="M262.6,161.7H509v-15H262.6v15Z" class="g0_85"/>
<path fill-rule="evenodd" d="M262.6,176.9H509V161.7H262.6v15.2Z" class="g0_85"/>
<path fill-rule="evenodd" d="M262.6,192H509V176.9H262.6V192Z" class="g0_85"/>
<path fill-rule="evenodd" d="M262.6,207H509V192H262.6v15Z" class="g0_85"/>
<path fill-rule="evenodd" d="M262.6,222H509V207H262.6v15Z" class="g0_85"/>
<path fill-rule="evenodd" d="M262.6,237.1H509V222H262.6v15.1Z" class="g0_85"/>
<path fill-rule="evenodd" d="M262.9,252.5H508.7V237.4H262.9v15.1Z" class="g0_85"/>
<path fill-rule="evenodd" d="M262.9,267.5H508.7v-15H262.9v15Z" class="g0_85"/>
<path fill-rule="evenodd" d="M262.2,282.5H508.3v-15H262.2v15Z" class="g0_85"/>
<path fill-rule="evenodd" d="M262.2,297.6H508.3V282.5H262.2v15.1Z" class="g0_85"/>
<path fill-rule="evenodd" d="M262.2,312.6H508.3v-15H262.2v15Z" class="g0_85"/>
<path fill-rule="evenodd" d="M262.2,327.8H508.3V312.6H262.2v15.2Z" class="g0_85"/>
<path fill-rule="evenodd" d="M261.8,342.9H509V327.8H261.8v15.1Z" class="g0_85"/>
<path fill-rule="evenodd" d="M261.8,357.9H509v-15H261.8v15Z" class="g0_85"/>
<path fill-rule="evenodd" d="M261.8,373H509V357.9H261.8V373Z" class="g0_85"/>
<path fill-rule="evenodd" d="M286.1,388H509.4V373H286.1v15Z" class="g0_85"/>
<path fill-rule="evenodd" d="M261.5,401.9H508.7V388.4H261.5v13.5Z" class="g0_85"/>
<path fill-rule="evenodd" d="M261.8,419.2H509V404.1H261.8v15.1Z" class="g0_85"/>
<path fill-rule="evenodd" d="M261.8,434.2H509v-15H261.8v15Z" class="g0_85"/>
<path fill-rule="evenodd" d="M261.1,449.2H508.7v-15H261.1v15Z" class="g0_85"/>
<path fill-rule="evenodd" d="M261.1,464.5H508.7V449.2H261.1v15.3Z" class="g0_85"/>
<path fill-rule="evenodd" d="M261.1,479.5H508.7v-15H261.1v15Z" class="g0_85"/>
<path fill-rule="evenodd" d="M260.7,494.9H509v-15H260.7v15Z" class="g0_85"/>
<path fill-rule="evenodd" d="M260.7,509.9H509v-15H260.7v15Z" class="g0_85"/>
<path fill-rule="evenodd" d="M261.1,525H508.7V509.9H261.1V525Z" class="g0_85"/>
<path fill-rule="evenodd" d="M261.1,540H508.7V525H261.1v15Z" class="g0_85"/>
<path fill-rule="evenodd" d="M261.1,555H508.7V540H261.1v15Z" class="g0_85"/>
<path fill-rule="evenodd" d="M260.4,570.1H508.7V555H260.4v15.1Z" class="g0_85"/>
<path fill-rule="evenodd" d="M260.4,585.1H508.7v-15H260.4v15Z" class="g0_85"/>
<path fill-rule="evenodd" d="M260,600.2H509V585.1H260v15.1Z" class="g0_85"/>
<path fill-rule="evenodd" d="M260,615.2H509v-15H260v15Z" class="g0_85"/>
<path fill-rule="evenodd" d="M260,630.4H509V615.2H260v15.2Z" class="g0_85"/>
<path fill-rule="evenodd" d="M260,645.4H509v-15H260v15Z" class="g0_85"/>
<path fill-rule="evenodd" d="M260.4,660.8H453.7v-15H260.4v15Z" class="g0_85"/>
<path fill-rule="evenodd" d="M260.4,675.9H453.7V660.8H260.4v15.1Z" class="g0_85"/>
<path fill-rule="evenodd" d="M260,690.9H508.3v-15H260v15Z" class="g0_85"/>
<path fill-rule="evenodd" d="M260,705.9H508.3v-15H260v15Z" class="g0_85"/>
<path fill-rule="evenodd" d="M259.3,721H509.4V705.9H259.3V721Z" class="g0_85"/>
<path fill-rule="evenodd" d="M259.3,736H509.4V721H259.3v15Z" class="g0_85"/>
<path fill-rule="evenodd" d="M259.3,751H509.4V736H259.3v15Z" class="g0_85"/>
<path fill-rule="evenodd" d="M259.3,766.1H509.4V751H259.3v15.1Z" class="g0_85"/>
<path fill-rule="evenodd" d="M259.3,781.1H509.4v-15H259.3v15Z" class="g0_85"/>
<path fill-rule="evenodd" d="M259.3,796.3H509.4V781.1H259.3v15.2Z" class="g0_85"/>
<path fill-rule="evenodd" d="M259.3,811.4H509.4V796.3H259.3v15.1Z" class="g0_85"/>
<path fill-rule="evenodd" d="M259.3,826.4H509.4v-15H259.3v15Z" class="g0_85"/>
<path fill-rule="evenodd" d="M259.3,841.5H509.4V826.4H259.3v15.1Z" class="g0_85"/>
<path fill-rule="evenodd" d="M259.3,856.5H509.4v-15H259.3v15Z" class="g0_85"/>
<path fill-rule="evenodd" d="M277.6,871.5H509.4v-15H277.6v15Z" class="g0_85"/>
<path fill-rule="evenodd" d="M529.6,161H770.9V146H529.6v15Z" class="g0_85"/>
<path fill-rule="evenodd" d="M529.6,176H770.9V161H529.6v15Z" class="g0_85"/>
<path fill-rule="evenodd" d="M529.6,191.1H770.9V176H529.6v15.1Z" class="g0_85"/>
<path fill-rule="evenodd" d="M529.6,206.3H770.9V191.1H529.6v15.2Z" class="g0_85"/>
<path fill-rule="evenodd" d="M529.9,221.3h241v-15h-241v15Z" class="g0_85"/>
<path fill-rule="evenodd" d="M529.9,236.3h241v-15h-241v15Z" class="g0_85"/>
<path fill-rule="evenodd" d="M529.9,251.4h241V236.3h-241v15.1Z" class="g0_85"/>
<path fill-rule="evenodd" d="M529.9,266.4h241v-15h-241v15Z" class="g0_85"/>
<path fill-rule="evenodd" d="M529.9,281.8h241V266.4h-241v15.4Z" class="g0_85"/>
<path fill-rule="evenodd" d="M529.9,296.8h241v-15h-241v15Z" class="g0_85"/>
<path fill-rule="evenodd" d="M529.9,311.9h241V296.8h-241v15.1Z" class="g0_85"/>
<path fill-rule="evenodd" d="M529.9,326.9h241v-15h-241v15Z" class="g0_85"/>
<path fill-rule="evenodd" d="M529.6,341.9H770.9v-15H529.6v15Z" class="g0_85"/>
<path fill-rule="evenodd" d="M529.6,357.2H770.9V342H529.6v15.2Z" class="g0_85"/>
<path fill-rule="evenodd" d="M529.6,372.2H770.9v-15H529.6v15Z" class="g0_85"/>
<path fill-rule="evenodd" d="M529.6,387.3H770.1V372.2H529.6v15.1Z" class="g0_85"/>
<path fill-rule="evenodd" d="M529.6,402.3H770.1v-15H529.6v15Z" class="g0_85"/>
<path fill-rule="evenodd" d="M529.6,417.3H770.1v-15H529.6v15Z" class="g0_85"/>
<path fill-rule="evenodd" d="M529.2,432.4H770.5V417.3H529.2v15.1Z" class="g0_85"/>
<path fill-rule="evenodd" d="M529.2,447.4H770.5v-15H529.2v15Z" class="g0_85"/>
<path fill-rule="evenodd" d="M529.2,462.4H770.5v-15H529.2v15Z" class="g0_85"/>
<path fill-rule="evenodd" d="M529.2,477.5H770.5V462.4H529.2v15.1Z" class="g0_85"/>
<path fill-rule="evenodd" d="M529.2,492.5H691.7v-15H529.2v15Z" class="g0_85"/>
<path fill-rule="evenodd" d="M529.2,507.5H691.7v-15H529.2v15Z" class="g0_85"/>
<path fill-rule="evenodd" d="M529.2,522.6H769.8V507.5H529.2v15.1Z" class="g0_85"/>
<path fill-rule="evenodd" d="M529.2,537.8H769.8V522.6H529.2v15.2Z" class="g0_85"/>
<path fill-rule="evenodd" d="M529.2,552.8H769.8v-15H529.2v15Z" class="g0_85"/>
<path fill-rule="evenodd" d="M529.6,567.9H769.8V552.8H529.6v15.1Z" class="g0_85"/>
<path fill-rule="evenodd" d="M529.6,582.9H769.8v-15H529.6v15Z" class="g0_85"/>
<path fill-rule="evenodd" d="M529.2,598H769.4V582.9H529.2V598Z" class="g0_85"/>
<path fill-rule="evenodd" d="M529.2,613H769.4V598H529.2v15Z" class="g0_85"/>
<path fill-rule="evenodd" d="M529.2,628H769.4V613H529.2v15Z" class="g0_85"/>
<path fill-rule="evenodd" d="M529.2,643.1H769.4V628H529.2v15.1Z" class="g0_85"/>
<path fill-rule="evenodd" d="M529.2,658.1H769.4v-15H529.2v15Z" class="g0_85"/>
<path fill-rule="evenodd" d="M529.2,673.1H769.4v-15H529.2v15Z" class="g0_85"/>
<path fill-rule="evenodd" d="M529.2,688.2H769.4V673.1H529.2v15.1Z" class="g0_85"/>
<path fill-rule="evenodd" d="M529.2,703.2H769.4v-15H529.2v15Z" class="g0_85"/>
<path fill-rule="evenodd" d="M529.2,718.4H769.4V703.2H529.2v15.2Z" class="g0_85"/>
<path fill-rule="evenodd" d="M529.2,733.4H769.4v-15H529.2v15Z" class="g0_85"/>
<path fill-rule="evenodd" d="M529.2,748.5H769.4V733.4H529.2v15.1Z" class="g0_85"/>
<path fill-rule="evenodd" d="M529.2,763.5H769.4v-15H529.2v15Z" class="g0_85"/>
<path fill-rule="evenodd" d="M529.2,778.5H769.4v-15H529.2v15Z" class="g0_85"/>
<path fill-rule="evenodd" d="M529.2,793.6H769.4V778.5H529.2v15.1Z" class="g0_85"/>
<path fill-rule="evenodd" d="M529.2,808.6H769.4v-15H529.2v15Z" class="g0_85"/>
<path fill-rule="evenodd" d="M529.2,823.6H769.4v-15H529.2v15Z" class="g0_85"/>
<path fill-rule="evenodd" d="M529.2,838.7H769.4V823.6H529.2v15.1Z" class="g0_85"/>
<path fill-rule="evenodd" d="M529.2,853.8H769.4V838.7H529.2v15.1Z" class="g0_85"/>
<path fill-rule="evenodd" d="M529.2,868.8H769.4v-15H529.2v15Z" class="g0_85"/>
<path fill-rule="evenodd" d="M529.2,883.8H769.4v-15H529.2v15Z" class="g0_85"/>
<path fill-rule="evenodd" d="M529.2,899H769.4V883.8H529.2V899Z" class="g0_85"/>
<path fill-rule="evenodd" d="M511.2,928.4H770.9V910.8H511.2v17.6Z" class="g0_85"/>
<path d="M199.8,95.7v85.4" class="g1_85"/>
</svg>