<?xml version="1.0" encoding="UTF-8" standalone="no"?>
<!DOCTYPE svg PUBLIC "-//W3C//DTD SVG 1.1//EN"
"http://www.w3.org/Graphics/SVG/1.1/DTD/svg11.dtd">
<svg viewBox="0 0 909 1285" version="1.1" xmlns="http://www.w3.org/2000/svg" xmlns:xlink="http://www.w3.org/1999/xlink">
<defs>
<style type="text/css"><![CDATA[
.g0_187{
fill: #FFFFFF;
}
.g1_187{
fill: none;
stroke: #000000;
stroke-width: 0.381;
stroke-linecap: butt;
stroke-linejoin: round;
}
]]></style>
</defs>
<path fill-rule="evenodd" d="M276.9,127.6H776.4V110H276.9v17.6Z" class="g0_187"/>
<path fill-rule="evenodd" d="M276.9,163.2H516.4v-15H276.9v15Z" class="g0_187"/>
<path fill-rule="evenodd" d="M276.9,178.2H516.4v-15H276.9v15Z" class="g0_187"/>
<path fill-rule="evenodd" d="M276.9,193.3H516.4V178.2H276.9v15.1Z" class="g0_187"/>
<path fill-rule="evenodd" d="M276.9,208.3H516.4v-15H276.9v15Z" class="g0_187"/>
<path fill-rule="evenodd" d="M276.9,223.3H516.4v-15H276.9v15Z" class="g0_187"/>
<path fill-rule="evenodd" d="M276.5,238.4H516V223.3H276.5v15.1Z" class="g0_187"/>
<path fill-rule="evenodd" d="M276.5,253.4H516v-15H276.5v15Z" class="g0_187"/>
<path fill-rule="evenodd" d="M295.2,268.6H516.4V253.4H295.2v15.2Z" class="g0_187"/>
<path fill-rule="evenodd" d="M294.9,283.6H516.4v-15H294.9v15Z" class="g0_187"/>
<path fill-rule="evenodd" d="M276.2,298.7H516V283.6H276.2v15.1Z" class="g0_187"/>
<path fill-rule="evenodd" d="M276.2,313.7H516v-15H276.2v15Z" class="g0_187"/>
<path fill-rule="evenodd" d="M276.2,328.7H516v-15H276.2v15Z" class="g0_187"/>
<path fill-rule="evenodd" d="M276.2,343.8H516V328.7H276.2v15.1Z" class="g0_187"/>
<path fill-rule="evenodd" d="M276.2,358.9H516V343.8H276.2v15.1Z" class="g0_187"/>
<path fill-rule="evenodd" d="M276.2,373.9H516v-15H276.2v15Z" class="g0_187"/>
<path fill-rule="evenodd" d="M276.2,388.9H515.6v-15H276.2v15Z" class="g0_187"/>
<path fill-rule="evenodd" d="M276.2,404H515.6V388.9H276.2V404Z" class="g0_187"/>
<path fill-rule="evenodd" d="M276.2,419H515.6V404H276.2v15Z" class="g0_187"/>
<path fill-rule="evenodd" d="M276.5,434.2H516V419H276.5v15.2Z" class="g0_187"/>
<path fill-rule="evenodd" d="M276.5,449.2H516v-15H276.5v15Z" class="g0_187"/>
<path fill-rule="evenodd" d="M295.2,464.3H516.4V449.2H295.2v15.1Z" class="g0_187"/>
<path fill-rule="evenodd" d="M275.8,479.3H515.3v-15H275.8v15Z" class="g0_187"/>
<path fill-rule="evenodd" d="M275.8,494.3H515.3v-15H275.8v15Z" class="g0_187"/>
<path fill-rule="evenodd" d="M275.8,509.4H515.3V494.3H275.8v15.1Z" class="g0_187"/>
<path fill-rule="evenodd" d="M275.8,524.4H515.3v-15H275.8v15Z" class="g0_187"/>
<path fill-rule="evenodd" d="M275.8,539.4H515.3v-15H275.8v15Z" class="g0_187"/>
<path fill-rule="evenodd" d="M275.8,554.5H515.3V539.4H275.8v15.1Z" class="g0_187"/>
<path fill-rule="evenodd" d="M275.8,569.5H515.3v-15H275.8v15Z" class="g0_187"/>
<path fill-rule="evenodd" d="M275.8,584.5H515.3v-15H275.8v15Z" class="g0_187"/>
<path fill-rule="evenodd" d="M275.8,599.6H515.3V584.5H275.8v15.1Z" class="g0_187"/>
<path fill-rule="evenodd" d="M275.8,614.8H515.3V599.6H275.8v15.2Z" class="g0_187"/>
<path fill-rule="evenodd" d="M275.8,629.9H514.5V614.8H275.8v15.1Z" class="g0_187"/>
<path fill-rule="evenodd" d="M275.8,644.9H514.5v-15H275.8v15Z" class="g0_187"/>
<path fill-rule="evenodd" d="M275.4,659.9H514.2v-15H275.4v15Z" class="g0_187"/>
<path fill-rule="evenodd" d="M275.4,675H514.2V659.9H275.4V675Z" class="g0_187"/>
<path fill-rule="evenodd" d="M275.8,690H514.9V675H275.8v15Z" class="g0_187"/>
<path fill-rule="evenodd" d="M275.8,705H514.9V690H275.8v15Z" class="g0_187"/>
<path fill-rule="evenodd" d="M275.4,720.1H514.9V705H275.4v15.1Z" class="g0_187"/>
<path fill-rule="evenodd" d="M275.4,735.1H514.9v-15H275.4v15Z" class="g0_187"/>
<path fill-rule="evenodd" d="M275.4,750.1H514.9v-15H275.4v15Z" class="g0_187"/>
<path fill-rule="evenodd" d="M275.4,765.2H514.9V750.1H275.4v15.1Z" class="g0_187"/>
<path fill-rule="evenodd" d="M275.4,780.2H515.3v-15H275.4v15Z" class="g0_187"/>
<path fill-rule="evenodd" d="M275.4,795.4H515.3V780.2H275.4v15.2Z" class="g0_187"/>
<path fill-rule="evenodd" d="M275.4,810.4H515.3v-15H275.4v15Z" class="g0_187"/>
<path fill-rule="evenodd" d="M275.1,825.5H514.9V810.4H275.1v15.1Z" class="g0_187"/>
<path fill-rule="evenodd" d="M275.1,840.6H514.9V825.5H275.1v15.1Z" class="g0_187"/>
<path fill-rule="evenodd" d="M275.1,855.6H514.9v-15H275.1v15Z" class="g0_187"/>
<path fill-rule="evenodd" d="M275.1,870.6H514.9v-15H275.1v15Z" class="g0_187"/>
<path fill-rule="evenodd" d="M275.1,885.7H514.9V870.6H275.1v15.1Z" class="g0_187"/>
<path fill-rule="evenodd" d="M275.1,900.7H514.9v-15H275.1v15Z" class="g0_187"/>
<path fill-rule="evenodd" d="M276.9,915.7H516v-15H276.9v15Z" class="g0_187"/>
<path fill-rule="evenodd" d="M536.4,163.2H775.8v-15H536.4v15Z" class="g0_187"/>
<path fill-rule="evenodd" d="M536.4,178.2H775.8v-15H536.4v15Z" class="g0_187"/>
<path fill-rule="evenodd" d="M536.4,193.3H775.8V178.2H536.4v15.1Z" class="g0_187"/>
<path fill-rule="evenodd" d="M536.4,208.3H775.8v-15H536.4v15Z" class="g0_187"/>
<path fill-rule="evenodd" d="M536.4,223.3H775.8v-15H536.4v15Z" class="g0_187"/>
<path fill-rule="evenodd" d="M536.4,238.4H775.8V223.3H536.4v15.1Z" class="g0_187"/>
<path fill-rule="evenodd" d="M536.4,253.4H775.8v-15H536.4v15Z" class="g0_187"/>
<path fill-rule="evenodd" d="M536.4,268.6H775.8V253.4H536.4v15.2Z" class="g0_187"/>
<path fill-rule="evenodd" d="M536,283.6H776.2v-15H536v15Z" class="g0_187"/>
<path fill-rule="evenodd" d="M536,298.7H776.2V283.6H536v15.1Z" class="g0_187"/>
<path fill-rule="evenodd" d="M536,313.7H776.2v-15H536v15Z" class="g0_187"/>
<path fill-rule="evenodd" d="M536,328.7H776.2v-15H536v15Z" class="g0_187"/>
<path fill-rule="evenodd" d="M536,343.8H776.2V328.7H536v15.1Z" class="g0_187"/>
<path fill-rule="evenodd" d="M536,358.9H776.2V343.8H536v15.1Z" class="g0_187"/>
<path fill-rule="evenodd" d="M536,373.9H776.2v-15H536v15Z" class="g0_187"/>
<path fill-rule="evenodd" d="M535.6,388.9H776.2v-15H535.6v15Z" class="g0_187"/>
<path fill-rule="evenodd" d="M535.6,404H776.2V388.9H535.6V404Z" class="g0_187"/>
<path fill-rule="evenodd" d="M535.6,419H776.2V404H535.6v15Z" class="g0_187"/>
<path fill-rule="evenodd" d="M535.6,434.2H776.2V419H535.6v15.2Z" class="g0_187"/>
<path fill-rule="evenodd" d="M536,449.2H775.1v-15H536v15Z" class="g0_187"/>
<path fill-rule="evenodd" d="M536,464.3H775.1V449.2H536v15.1Z" class="g0_187"/>
<path fill-rule="evenodd" d="M536,479.3H775.1v-15H536v15Z" class="g0_187"/>
<path fill-rule="evenodd" d="M535.3,494.3H775.1v-15H535.3v15Z" class="g0_187"/>
<path fill-rule="evenodd" d="M535.3,509.4H775.1V494.3H535.3v15.1Z" class="g0_187"/>
<path fill-rule="evenodd" d="M535.3,524.4H775.1v-15H535.3v15Z" class="g0_187"/>
<path fill-rule="evenodd" d="M535.3,539.4H775.1v-15H535.3v15Z" class="g0_187"/>
<path fill-rule="evenodd" d="M535.3,554.5H775.1V539.4H535.3v15.1Z" class="g0_187"/>
<path fill-rule="evenodd" d="M535.3,569.5H775.1v-15H535.3v15Z" class="g0_187"/>
<path fill-rule="evenodd" d="M535.3,584.5H775.1v-15H535.3v15Z" class="g0_187"/>
<path fill-rule="evenodd" d="M535.3,599.6H775.1V584.5H535.3v15.1Z" class="g0_187"/>
<path fill-rule="evenodd" d="M534.9,614.8H775.1V599.6H534.9v15.2Z" class="g0_187"/>
<path fill-rule="evenodd" d="M534.9,629.9H775.1V614.8H534.9v15.1Z" class="g0_187"/>
<path fill-rule="evenodd" d="M534.9,644.9H775.1v-15H534.9v15Z" class="g0_187"/>
<path fill-rule="evenodd" d="M534.9,659.9H775.1v-15H534.9v15Z" class="g0_187"/>
<path fill-rule="evenodd" d="M534.9,675H775.1V659.9H534.9V675Z" class="g0_187"/>
<path fill-rule="evenodd" d="M534.9,690H775.1V675H534.9v15Z" class="g0_187"/>
<path fill-rule="evenodd" d="M534.9,705H775.1V690H534.9v15Z" class="g0_187"/>
<path fill-rule="evenodd" d="M534.9,720.1H774.4V705H534.9v15.1Z" class="g0_187"/>
<path fill-rule="evenodd" d="M534.9,735.1H774.4v-15H534.9v15Z" class="g0_187"/>
<path fill-rule="evenodd" d="M534.9,750.1H774.4v-15H534.9v15Z" class="g0_187"/>
<path fill-rule="evenodd" d="M534.5,765.2H774.7V750.1H534.5v15.1Z" class="g0_187"/>
<path fill-rule="evenodd" d="M534.5,780.2H774.7v-15H534.5v15Z" class="g0_187"/>
<path fill-rule="evenodd" d="M534.5,795.4H774.7V780.2H534.5v15.2Z" class="g0_187"/>
<path fill-rule="evenodd" d="M534.5,810.4H774.7v-15H534.5v15Z" class="g0_187"/>
<path fill-rule="evenodd" d="M534.9,825.5H774.4V810.4H534.9v15.1Z" class="g0_187"/>
<path fill-rule="evenodd" d="M534.9,840.6H774.4V825.5H534.9v15.1Z" class="g0_187"/>
<path fill-rule="evenodd" d="M534.9,855.6H774.4v-15H534.9v15Z" class="g0_187"/>
<path fill-rule="evenodd" d="M534.9,870.6H774.4v-15H534.9v15Z" class="g0_187"/>
<path fill-rule="evenodd" d="M534.9,885.7H774.7V870.6H534.9v15.1Z" class="g0_187"/>
<path fill-rule="evenodd" d="M534.9,900.7H774.7v-15H534.9v15Z" class="g0_187"/>
<path fill-rule="evenodd" d="M512.7,932.6H776.4V915H512.7v17.6Z" class="g0_187"/>
<path d="M217.4,102.7v550M215.2,115.9V222.2m1.1,472.3V974.6M524.6,149.2V917.7" class="g1_187"/>
</svg>