<?xml version="1.0" encoding="UTF-8" standalone="no"?>
<!DOCTYPE svg PUBLIC "-//W3C//DTD SVG 1.1//EN"
"http://www.w3.org/Graphics/SVG/1.1/DTD/svg11.dtd">
<svg viewBox="0 0 909 1285" version="1.1" xmlns="http://www.w3.org/2000/svg" xmlns:xlink="http://www.w3.org/1999/xlink">
<defs>
<style type="text/css"><![CDATA[
.g0_124{
fill: #FFFFFF;
}
.g1_124{
fill: none;
stroke: #000000;
stroke-width: 2.597;
stroke-linecap: butt;
stroke-linejoin: round;
}
.g2_124{
fill: none;
stroke: #000000;
stroke-width: 0.381;
stroke-linecap: butt;
stroke-linejoin: round;
}
]]></style>
</defs>
<path fill-rule="evenodd" d="M623.4,134.6h59.5V110H623.4v24.6Z" class="g0_124"/>
<path fill-rule="evenodd" d="M174.6,169.1H413.7V154.4H174.6v14.7Z" class="g0_124"/>
<path fill-rule="evenodd" d="M174.6,183.7H413.7V169.1H174.6v14.6Z" class="g0_124"/>
<path fill-rule="evenodd" d="M174.2,198.9H414.4V184.1H174.2v14.8Z" class="g0_124"/>
<path fill-rule="evenodd" d="M174.2,213.6H414.4V198.9H174.2v14.7Z" class="g0_124"/>
<path fill-rule="evenodd" d="M174.2,228.3H414.4V213.6H174.2v14.7Z" class="g0_124"/>
<path fill-rule="evenodd" d="M174.2,242.9H414.4V228.3H174.2v14.6Z" class="g0_124"/>
<path fill-rule="evenodd" d="M192.9,257.6H414.4V242.9H192.9v14.7Z" class="g0_124"/>
<path fill-rule="evenodd" d="M174.6,272.6H414V258H174.6v14.6Z" class="g0_124"/>
<path fill-rule="evenodd" d="M174.6,287.3H414V272.6H174.6v14.7Z" class="g0_124"/>
<path fill-rule="evenodd" d="M173.8,302H414V287.3H173.8V302Z" class="g0_124"/>
<path fill-rule="evenodd" d="M173.8,316.6H414V302H173.8v14.6Z" class="g0_124"/>
<path fill-rule="evenodd" d="M173.8,331.3H414V316.6H173.8v14.7Z" class="g0_124"/>
<path fill-rule="evenodd" d="M173.8,346H414V331.3H173.8V346Z" class="g0_124"/>
<path fill-rule="evenodd" d="M173.8,360.7H414V346H173.8v14.7Z" class="g0_124"/>
<path fill-rule="evenodd" d="M173.8,375.4H414V360.7H173.8v14.7Z" class="g0_124"/>
<path fill-rule="evenodd" d="M173.8,390H414V375.4H173.8V390Z" class="g0_124"/>
<path fill-rule="evenodd" d="M174.2,404.7H388V390H174.2v14.7Z" class="g0_124"/>
<path fill-rule="evenodd" d="M174.2,419.4H388V404.7H174.2v14.7Z" class="g0_124"/>
<path fill-rule="evenodd" d="M173.8,434H413.3V419.4H173.8V434Z" class="g0_124"/>
<path fill-rule="evenodd" d="M173.8,448.7H413.3V434H173.8v14.7Z" class="g0_124"/>
<path fill-rule="evenodd" d="M173.8,463.4H413.3V448.7H173.8v14.7Z" class="g0_124"/>
<path fill-rule="evenodd" d="M173.8,478H413.3V463.4H173.8V478Z" class="g0_124"/>
<path fill-rule="evenodd" d="M173.5,492.7H412.9V478H173.5v14.7Z" class="g0_124"/>
<path fill-rule="evenodd" d="M173.5,507.4H412.9V492.7H173.5v14.7Z" class="g0_124"/>
<path fill-rule="evenodd" d="M173.5,522H412.9V507.4H173.5V522Z" class="g0_124"/>
<path fill-rule="evenodd" d="M173.5,536.7H412.9V522H173.5v14.7Z" class="g0_124"/>
<path fill-rule="evenodd" d="M173.5,551.4H412.6V536.7H173.5v14.7Z" class="g0_124"/>
<path fill-rule="evenodd" d="M173.5,566H412.6V551.4H173.5V566Z" class="g0_124"/>
<path fill-rule="evenodd" d="M173.5,580.7H412.6V566H173.5v14.7Z" class="g0_124"/>
<path fill-rule="evenodd" d="M173.5,595.4H412.6V580.7H173.5v14.7Z" class="g0_124"/>
<path fill-rule="evenodd" d="M173.5,610.1H413.3V595.4H173.5v14.7Z" class="g0_124"/>
<path fill-rule="evenodd" d="M173.5,624.7H413.3V610.1H173.5v14.6Z" class="g0_124"/>
<path fill-rule="evenodd" d="M173.5,639.4H413.3V624.7H173.5v14.7Z" class="g0_124"/>
<path fill-rule="evenodd" d="M172.7,654.4H412.6V639.8H172.7v14.6Z" class="g0_124"/>
<path fill-rule="evenodd" d="M172.7,669.1H412.6V654.4H172.7v14.7Z" class="g0_124"/>
<path fill-rule="evenodd" d="M172.7,683.8H412.6V669.1H172.7v14.7Z" class="g0_124"/>
<path fill-rule="evenodd" d="M172.7,698.4H412.6V683.8H172.7v14.6Z" class="g0_124"/>
<path fill-rule="evenodd" d="M172.7,713.1H412.6V698.4H172.7v14.7Z" class="g0_124"/>
<path fill-rule="evenodd" d="M172.7,727.8H412.6V713.1H172.7v14.7Z" class="g0_124"/>
<path fill-rule="evenodd" d="M172.7,742.4H412.6V727.8H172.7v14.6Z" class="g0_124"/>
<path fill-rule="evenodd" d="M172.7,757.1H412.6V742.4H172.7v14.7Z" class="g0_124"/>
<path fill-rule="evenodd" d="M172.7,771.8H412.6V757.1H172.7v14.7Z" class="g0_124"/>
<path fill-rule="evenodd" d="M172.7,786.4H412.6V771.8H172.7v14.6Z" class="g0_124"/>
<path fill-rule="evenodd" d="M172.7,801.1H412.6V786.4H172.7v14.7Z" class="g0_124"/>
<path fill-rule="evenodd" d="M172.7,815.8H412.6V801.1H172.7v14.7Z" class="g0_124"/>
<path fill-rule="evenodd" d="M172.7,830.4H412.6V815.8H172.7v14.6Z" class="g0_124"/>
<path fill-rule="evenodd" d="M172.7,845.1H412.6V830.4H172.7v14.7Z" class="g0_124"/>
<path fill-rule="evenodd" d="M172.7,859.8H412.6V845.1H172.7v14.7Z" class="g0_124"/>
<path fill-rule="evenodd" d="M172.4,874.8H411.5V860.2H172.4v14.6Z" class="g0_124"/>
<path fill-rule="evenodd" d="M172.4,889.5H411.5V874.8H172.4v14.7Z" class="g0_124"/>
<path fill-rule="evenodd" d="M172.4,904.2H411.5V889.5H172.4v14.7Z" class="g0_124"/>
<path fill-rule="evenodd" d="M174.6,918.8H414.4V904.2H174.6v14.6Z" class="g0_124"/>
<path fill-rule="evenodd" d="M434.9,168.3H674.8V153.7H434.9v14.6Z" class="g0_124"/>
<path fill-rule="evenodd" d="M434.9,183H674.8V168.3H434.9V183Z" class="g0_124"/>
<path fill-rule="evenodd" d="M433.1,197.7H674.8V183H433.1v14.7Z" class="g0_124"/>
<path fill-rule="evenodd" d="M433.1,212.3H674.8V197.7H433.1v14.6Z" class="g0_124"/>
<path fill-rule="evenodd" d="M434.6,227H648.4V212.3H434.6V227Z" class="g0_124"/>
<path fill-rule="evenodd" d="M434.6,241.7H648.4V227H434.6v14.7Z" class="g0_124"/>
<path fill-rule="evenodd" d="M434.2,256.3H674.8V241.7H434.2v14.6Z" class="g0_124"/>
<path fill-rule="evenodd" d="M434.2,271H674.8V256.3H434.2V271Z" class="g0_124"/>
<path fill-rule="evenodd" d="M434.2,285.7H674.8V271H434.2v14.7Z" class="g0_124"/>
<path fill-rule="evenodd" d="M434.2,300.3H674.8V285.7H434.2v14.6Z" class="g0_124"/>
<path fill-rule="evenodd" d="M434.2,315H674.8V300.3H434.2V315Z" class="g0_124"/>
<path fill-rule="evenodd" d="M434.2,329.7H674.8V315H434.2v14.7Z" class="g0_124"/>
<path fill-rule="evenodd" d="M434.2,344.3H674.8V329.7H434.2v14.6Z" class="g0_124"/>
<path fill-rule="evenodd" d="M434.2,359.4H674.5V344.7H434.2v14.7Z" class="g0_124"/>
<path fill-rule="evenodd" d="M434.2,374.1H674.5V359.4H434.2v14.7Z" class="g0_124"/>
<path fill-rule="evenodd" d="M434.2,388.7H674.5V374.1H434.2v14.6Z" class="g0_124"/>
<path fill-rule="evenodd" d="M434.2,403.4H674.5V388.7H434.2v14.7Z" class="g0_124"/>
<path fill-rule="evenodd" d="M434.2,418.6H674.1V403.8H434.2v14.8Z" class="g0_124"/>
<path fill-rule="evenodd" d="M434.2,433.3H674.1V418.6H434.2v14.7Z" class="g0_124"/>
<path fill-rule="evenodd" d="M434.2,448H674.1V433.3H434.2V448Z" class="g0_124"/>
<path fill-rule="evenodd" d="M433.5,463H674.1V448.3H433.5V463Z" class="g0_124"/>
<path fill-rule="evenodd" d="M433.5,477.7H674.1V463H433.5v14.7Z" class="g0_124"/>
<path fill-rule="evenodd" d="M433.5,492.3H674.1V477.7H433.5v14.6Z" class="g0_124"/>
<path fill-rule="evenodd" d="M433.5,507H674.1V492.3H433.5V507Z" class="g0_124"/>
<path fill-rule="evenodd" d="M433.5,521.7H674.1V507H433.5v14.7Z" class="g0_124"/>
<path fill-rule="evenodd" d="M433.5,536.3H674.1V521.7H433.5v14.6Z" class="g0_124"/>
<path fill-rule="evenodd" d="M433.5,551H674.1V536.3H433.5V551Z" class="g0_124"/>
<path fill-rule="evenodd" d="M433.1,566H673.7V551.4H433.1V566Z" class="g0_124"/>
<path fill-rule="evenodd" d="M433.1,580.7H673.7V566H433.1v14.7Z" class="g0_124"/>
<path fill-rule="evenodd" d="M433.5,595.4H673.7V580.7H433.5v14.7Z" class="g0_124"/>
<path fill-rule="evenodd" d="M433.5,610.1H673.7V595.4H433.5v14.7Z" class="g0_124"/>
<path fill-rule="evenodd" d="M433.5,624.7H673.7V610.1H433.5v14.6Z" class="g0_124"/>
<path fill-rule="evenodd" d="M433.5,639.4H673.7V624.7H433.5v14.7Z" class="g0_124"/>
<path fill-rule="evenodd" d="M433.5,654.1H673.7V639.4H433.5v14.7Z" class="g0_124"/>
<path fill-rule="evenodd" d="M433.5,668.7H673.7V654.1H433.5v14.6Z" class="g0_124"/>
<path fill-rule="evenodd" d="M433.5,683.4H673.7V668.7H433.5v14.7Z" class="g0_124"/>
<path fill-rule="evenodd" d="M433.5,698.1H673.7V683.4H433.5v14.7Z" class="g0_124"/>
<path fill-rule="evenodd" d="M433.5,712.7H673.7V698.1H433.5v14.6Z" class="g0_124"/>
<path fill-rule="evenodd" d="M433.5,727.4H673.7V712.7H433.5v14.7Z" class="g0_124"/>
<path fill-rule="evenodd" d="M433.1,742.1H673V727.4H433.1v14.7Z" class="g0_124"/>
<path fill-rule="evenodd" d="M433.1,756.7H673V742.1H433.1v14.6Z" class="g0_124"/>
<path fill-rule="evenodd" d="M433.5,772.1H673V757.5H433.5v14.6Z" class="g0_124"/>
<path fill-rule="evenodd" d="M433.5,786.8H673V772.1H433.5v14.7Z" class="g0_124"/>
<path fill-rule="evenodd" d="M451.1,801.5H674.8V786.8H451.1v14.7Z" class="g0_124"/>
<path fill-rule="evenodd" d="M451.5,816.1H674.8V801.5H451.5v14.6Z" class="g0_124"/>
<path fill-rule="evenodd" d="M432.7,831.2H673V816.5H432.7v14.7Z" class="g0_124"/>
<path fill-rule="evenodd" d="M432.7,845.9H673V831.2H432.7v14.7Z" class="g0_124"/>
<path fill-rule="evenodd" d="M432.7,860.5H673V845.9H432.7v14.6Z" class="g0_124"/>
<path fill-rule="evenodd" d="M432.7,875.2H673V860.5H432.7v14.7Z" class="g0_124"/>
<path fill-rule="evenodd" d="M432.7,889.9H673V875.2H432.7v14.7Z" class="g0_124"/>
<path fill-rule="evenodd" d="M432.7,904.5H673V889.9H432.7v14.6Z" class="g0_124"/>
<path fill-rule="evenodd" d="M172.4,936.1H321.6V920.3H172.4v15.8Z" class="g0_124"/>
<path fill-rule="evenodd" d="M172.4,953.7H321.6V936.1H172.4v17.6Z" class="g0_124"/>
<path fill-rule="evenodd" d="M411.5,936.8h59.4V919.2H411.5v17.6Z" class="g0_124"/>
<path d="M154,139.4V554.1" class="g1_124"/>
<path d="M421.7,153.7V921.1" class="g2_124"/>
</svg>