<?xml version="1.0" encoding="UTF-8" standalone="no"?>
<!DOCTYPE svg PUBLIC "-//W3C//DTD SVG 1.1//EN"
"http://www.w3.org/Graphics/SVG/1.1/DTD/svg11.dtd">
<svg viewBox="0 0 909 1285" version="1.1" xmlns="http://www.w3.org/2000/svg" xmlns:xlink="http://www.w3.org/1999/xlink">
<defs>
<style type="text/css"><![CDATA[
.g0_50{
fill: #FFFFFF;
}
.g1_50{
fill: none;
stroke: #000000;
stroke-width: 0.381;
stroke-linecap: butt;
stroke-linejoin: round;
}
]]></style>
</defs>
<path fill-rule="evenodd" d="M534.9,125.8H686V110H534.9v15.8Z" class="g0_50"/>
<path fill-rule="evenodd" d="M185.4,162.6H424.8V147.4H185.4v15.2Z" class="g0_50"/>
<path fill-rule="evenodd" d="M184.6,177.7H424.5V162.6H184.6v15.1Z" class="g0_50"/>
<path fill-rule="evenodd" d="M184.6,192.7H424.5v-15H184.6v15Z" class="g0_50"/>
<path fill-rule="evenodd" d="M184.6,207.7H424.5v-15H184.6v15Z" class="g0_50"/>
<path fill-rule="evenodd" d="M184.6,222.8H424.5V207.7H184.6v15.1Z" class="g0_50"/>
<path fill-rule="evenodd" d="M184.6,237.8H424.5v-15H184.6v15Z" class="g0_50"/>
<path fill-rule="evenodd" d="M184.6,252.8H424.5v-15H184.6v15Z" class="g0_50"/>
<path fill-rule="evenodd" d="M184.6,267.9H424.5V252.8H184.6v15.1Z" class="g0_50"/>
<path fill-rule="evenodd" d="M184.6,282.9H423.7v-15H184.6v15Z" class="g0_50"/>
<path fill-rule="evenodd" d="M184.6,297.9H423.7v-15H184.6v15Z" class="g0_50"/>
<path fill-rule="evenodd" d="M184.6,313.2H423.7V297.9H184.6v15.3Z" class="g0_50"/>
<path fill-rule="evenodd" d="M184.3,328.2H424.5v-15H184.3v15Z" class="g0_50"/>
<path fill-rule="evenodd" d="M184.3,343.2H424.5v-15H184.3v15Z" class="g0_50"/>
<path fill-rule="evenodd" d="M184.3,358.3H424.5V343.2H184.3v15.1Z" class="g0_50"/>
<path fill-rule="evenodd" d="M184.6,373.3H424.1v-15H184.6v15Z" class="g0_50"/>
<path fill-rule="evenodd" d="M184.6,388.4H424.1V373.3H184.6v15.1Z" class="g0_50"/>
<path fill-rule="evenodd" d="M184.6,403.4H424.1v-15H184.6v15Z" class="g0_50"/>
<path fill-rule="evenodd" d="M203,418.4H424.8v-15H203v15Z" class="g0_50"/>
<path fill-rule="evenodd" d="M203,433.5H424.8V418.4H203v15.1Z" class="g0_50"/>
<path fill-rule="evenodd" d="M202.6,448.5H424.8v-15H202.6v15Z" class="g0_50"/>
<path fill-rule="evenodd" d="M202.6,463.5H424.8v-15H202.6v15Z" class="g0_50"/>
<path fill-rule="evenodd" d="M183.9,478.6H424.1V463.5H183.9v15.1Z" class="g0_50"/>
<path fill-rule="evenodd" d="M183.9,493.8H424.1V478.6H183.9v15.2Z" class="g0_50"/>
<path fill-rule="evenodd" d="M183.9,508.8H424.1v-15H183.9v15Z" class="g0_50"/>
<path fill-rule="evenodd" d="M183.9,523.9H424.1V508.8H183.9v15.1Z" class="g0_50"/>
<path fill-rule="evenodd" d="M183.9,538.9H424.1v-15H183.9v15Z" class="g0_50"/>
<path fill-rule="evenodd" d="M183.9,553.9H424.1v-15H183.9v15Z" class="g0_50"/>
<path fill-rule="evenodd" d="M183.9,569H424.1V553.9H183.9V569Z" class="g0_50"/>
<path fill-rule="evenodd" d="M183.9,584H424.1V569H183.9v15Z" class="g0_50"/>
<path fill-rule="evenodd" d="M184.3,599.1H423.7V584H184.3v15.1Z" class="g0_50"/>
<path fill-rule="evenodd" d="M184.3,614.1H423.7v-15H184.3v15Z" class="g0_50"/>
<path fill-rule="evenodd" d="M183.5,629.1H423v-15H183.5v15Z" class="g0_50"/>
<path fill-rule="evenodd" d="M183.5,644.2H423V629.1H183.5v15.1Z" class="g0_50"/>
<path fill-rule="evenodd" d="M183.5,659.2H423v-15H183.5v15Z" class="g0_50"/>
<path fill-rule="evenodd" d="M183.9,674.4H423V659.2H183.9v15.2Z" class="g0_50"/>
<path fill-rule="evenodd" d="M183.9,689.4H423v-15H183.9v15Z" class="g0_50"/>
<path fill-rule="evenodd" d="M183.9,704.5H423V689.4H183.9v15.1Z" class="g0_50"/>
<path fill-rule="evenodd" d="M183.5,719.5H424.8v-15H183.5v15Z" class="g0_50"/>
<path fill-rule="evenodd" d="M183.5,734.5H424.8v-15H183.5v15Z" class="g0_50"/>
<path fill-rule="evenodd" d="M183.5,749.6H424.8V734.5H183.5v15.1Z" class="g0_50"/>
<path fill-rule="evenodd" d="M183.5,764.6H424.8v-15H183.5v15Z" class="g0_50"/>
<path fill-rule="evenodd" d="M183.5,779.6H424.8v-15H183.5v15Z" class="g0_50"/>
<path fill-rule="evenodd" d="M183.5,794.7H423.4V779.6H183.5v15.1Z" class="g0_50"/>
<path fill-rule="evenodd" d="M183.5,809.7H423.4v-15H183.5v15Z" class="g0_50"/>
<path fill-rule="evenodd" d="M183.5,824.7H423.4v-15H183.5v15Z" class="g0_50"/>
<path fill-rule="evenodd" d="M183.5,839.8H423.4V824.7H183.5v15.1Z" class="g0_50"/>
<path fill-rule="evenodd" d="M183.5,855H350V839.8H183.5V855Z" class="g0_50"/>
<path fill-rule="evenodd" d="M183.5,870.1H350V855H183.5v15.1Z" class="g0_50"/>
<path fill-rule="evenodd" d="M183.5,885.1H423v-15H183.5v15Z" class="g0_50"/>
<path fill-rule="evenodd" d="M183.5,900.1H423v-15H183.5v15Z" class="g0_50"/>
<path fill-rule="evenodd" d="M184.6,915.2H424.8V900.1H184.6v15.1Z" class="g0_50"/>
<path fill-rule="evenodd" d="M445,161.7H686v-15H445v15Z" class="g0_50"/>
<path fill-rule="evenodd" d="M445,176.9H686V161.7H445v15.2Z" class="g0_50"/>
<path fill-rule="evenodd" d="M445,192H686V176.9H445V192Z" class="g0_50"/>
<path fill-rule="evenodd" d="M445,207H686V192H445v15Z" class="g0_50"/>
<path fill-rule="evenodd" d="M445,222H686V207H445v15Z" class="g0_50"/>
<path fill-rule="evenodd" d="M445,237.1H686V222H445v15.1Z" class="g0_50"/>
<path fill-rule="evenodd" d="M444.3,252.1H686v-15H444.3v15Z" class="g0_50"/>
<path fill-rule="evenodd" d="M444.3,267.1H686v-15H444.3v15Z" class="g0_50"/>
<path fill-rule="evenodd" d="M444.3,282.2H686V267.1H444.3v15.1Z" class="g0_50"/>
<path fill-rule="evenodd" d="M444.3,297.2H686v-15H444.3v15Z" class="g0_50"/>
<path fill-rule="evenodd" d="M444.3,312.2H686v-15H444.3v15Z" class="g0_50"/>
<path fill-rule="evenodd" d="M444.3,327.3H686V312.2H444.3v15.1Z" class="g0_50"/>
<path fill-rule="evenodd" d="M444.3,342.5H686V327.3H444.3v15.2Z" class="g0_50"/>
<path fill-rule="evenodd" d="M444.3,357.6H686V342.5H444.3v15.1Z" class="g0_50"/>
<path fill-rule="evenodd" d="M444.3,372.6h241v-15h-241v15Z" class="g0_50"/>
<path fill-rule="evenodd" d="M444.3,387.6h241v-15h-241v15Z" class="g0_50"/>
<path fill-rule="evenodd" d="M444.3,402.7h241V387.6h-241v15.1Z" class="g0_50"/>
<path fill-rule="evenodd" d="M444.3,417.7h241v-15h-241v15Z" class="g0_50"/>
<path fill-rule="evenodd" d="M444.3,432.7h241v-15h-241v15Z" class="g0_50"/>
<path fill-rule="evenodd" d="M444.3,447.8h241V432.7h-241v15.1Z" class="g0_50"/>
<path fill-rule="evenodd" d="M444.3,462.8h241v-15h-241v15Z" class="g0_50"/>
<path fill-rule="evenodd" d="M444.3,477.8h241v-15h-241v15Z" class="g0_50"/>
<path fill-rule="evenodd" d="M444.3,492.9h241V477.8h-241v15.1Z" class="g0_50"/>
<path fill-rule="evenodd" d="M444.3,507.9h241v-15h-241v15Z" class="g0_50"/>
<path fill-rule="evenodd" d="M444.7,523.1H633.2V507.9H444.7v15.2Z" class="g0_50"/>
<path fill-rule="evenodd" d="M444.7,538.2H633.2V523.1H444.7v15.1Z" class="g0_50"/>
<path fill-rule="evenodd" d="M444.3,553.2H684.9v-15H444.3v15Z" class="g0_50"/>
<path fill-rule="evenodd" d="M444.3,568.2H684.9v-15H444.3v15Z" class="g0_50"/>
<path fill-rule="evenodd" d="M444.3,583.3H684.9V568.2H444.3v15.1Z" class="g0_50"/>
<path fill-rule="evenodd" d="M444.3,598.3H684.9v-15H444.3v15Z" class="g0_50"/>
<path fill-rule="evenodd" d="M444.3,613.4H684.9V598.3H444.3v15.1Z" class="g0_50"/>
<path fill-rule="evenodd" d="M444.3,628.4H684.9v-15H444.3v15Z" class="g0_50"/>
<path fill-rule="evenodd" d="M444.3,643.4H684.9v-15H444.3v15Z" class="g0_50"/>
<path fill-rule="evenodd" d="M443.9,658.5H684.5V643.4H443.9v15.1Z" class="g0_50"/>
<path fill-rule="evenodd" d="M443.9,673.5H684.5v-15H443.9v15Z" class="g0_50"/>
<path fill-rule="evenodd" d="M443.9,688.5H684.5v-15H443.9v15Z" class="g0_50"/>
<path fill-rule="evenodd" d="M443.9,703.7H684.5V688.5H443.9v15.2Z" class="g0_50"/>
<path fill-rule="evenodd" d="M443.9,718.8H684.5V703.7H443.9v15.1Z" class="g0_50"/>
<path fill-rule="evenodd" d="M443.9,733.8H684.5v-15H443.9v15Z" class="g0_50"/>
<path fill-rule="evenodd" d="M443.9,748.8H684.5v-15H443.9v15Z" class="g0_50"/>
<path fill-rule="evenodd" d="M443.9,763.9H684.5V748.8H443.9v15.1Z" class="g0_50"/>
<path fill-rule="evenodd" d="M443.9,778.9H684.5v-15H443.9v15Z" class="g0_50"/>
<path fill-rule="evenodd" d="M443.9,793.9H684.5v-15H443.9v15Z" class="g0_50"/>
<path fill-rule="evenodd" d="M443.9,809H684.5V793.9H443.9V809Z" class="g0_50"/>
<path fill-rule="evenodd" d="M443.9,824H684.5V809H443.9v15Z" class="g0_50"/>
<path fill-rule="evenodd" d="M443.9,839.1H684.5V824H443.9v15.1Z" class="g0_50"/>
<path fill-rule="evenodd" d="M443.9,854.1H684.5v-15H443.9v15Z" class="g0_50"/>
<path fill-rule="evenodd" d="M444.3,869.2H684.2V854.1H444.3v15.1Z" class="g0_50"/>
<path fill-rule="evenodd" d="M444.3,884.4H684.2V869.2H444.3v15.2Z" class="g0_50"/>
<path d="M432.8,146.7V914.9" class="g1_50"/>
</svg>