<?xml version="1.0" encoding="UTF-8" standalone="no"?>
<!DOCTYPE svg PUBLIC "-//W3C//DTD SVG 1.1//EN"
"http://www.w3.org/Graphics/SVG/1.1/DTD/svg11.dtd">
<svg viewBox="0 0 909 1285" version="1.1" xmlns="http://www.w3.org/2000/svg" xmlns:xlink="http://www.w3.org/1999/xlink">
<defs>
<style type="text/css"><![CDATA[
.g0_65{
fill: #FFFFFF;
}
.g1_65{
fill: none;
stroke: #000000;
stroke-width: 0.381;
stroke-linecap: butt;
stroke-linejoin: round;
}
]]></style>
</defs>
<path fill-rule="evenodd" d="M269.4,125.8H772.5V110H269.4v15.8Z" class="g0_65"/>
<path fill-rule="evenodd" d="M269.4,161H510V146.3H269.4V161Z" class="g0_65"/>
<path fill-rule="evenodd" d="M269.4,175.7H510V161H269.4v14.7Z" class="g0_65"/>
<path fill-rule="evenodd" d="M269,190.3H510.7V175.7H269v14.6Z" class="g0_65"/>
<path fill-rule="evenodd" d="M269,205H510.7V190.3H269V205Z" class="g0_65"/>
<path fill-rule="evenodd" d="M269,219.7H510.7V205H269v14.7Z" class="g0_65"/>
<path fill-rule="evenodd" d="M269,234.3H510.7V219.7H269v14.6Z" class="g0_65"/>
<path fill-rule="evenodd" d="M287.7,249.4h223V234.7h-223v14.7Z" class="g0_65"/>
<path fill-rule="evenodd" d="M269.4,264.4H510V249.7H269.4v14.7Z" class="g0_65"/>
<path fill-rule="evenodd" d="M269.4,279.1H510V264.4H269.4v14.7Z" class="g0_65"/>
<path fill-rule="evenodd" d="M269.4,293.9H510V279.1H269.4v14.8Z" class="g0_65"/>
<path fill-rule="evenodd" d="M269,308.9H509.6V294.3H269v14.6Z" class="g0_65"/>
<path fill-rule="evenodd" d="M269,323.6H509.6V308.9H269v14.7Z" class="g0_65"/>
<path fill-rule="evenodd" d="M269,338.6H509.6v-15H269v15Z" class="g0_65"/>
<path fill-rule="evenodd" d="M269,353.4H509.6V338.7H269v14.7Z" class="g0_65"/>
<path fill-rule="evenodd" d="M269,368H509.6V353.4H269V368Z" class="g0_65"/>
<path fill-rule="evenodd" d="M269,382.7H509.6V368H269v14.7Z" class="g0_65"/>
<path fill-rule="evenodd" d="M268.7,397.7H509.6V383.1H268.7v14.6Z" class="g0_65"/>
<path fill-rule="evenodd" d="M268.7,412.4H509.6V397.7H268.7v14.7Z" class="g0_65"/>
<path fill-rule="evenodd" d="M268.7,427.1H509.6V412.4H268.7v14.7Z" class="g0_65"/>
<path fill-rule="evenodd" d="M268.7,441.7H509.6V427.1H268.7v14.6Z" class="g0_65"/>
<path fill-rule="evenodd" d="M268.7,456.4H509.6V441.7H268.7v14.7Z" class="g0_65"/>
<path fill-rule="evenodd" d="M268.7,471.1H509.6V456.4H268.7v14.7Z" class="g0_65"/>
<path fill-rule="evenodd" d="M268.7,485.7H509.6V471.1H268.7v14.6Z" class="g0_65"/>
<path fill-rule="evenodd" d="M268.7,500.4H509.2V485.7H268.7v14.7Z" class="g0_65"/>
<path fill-rule="evenodd" d="M268.7,515.1H509.2V500.4H268.7v14.7Z" class="g0_65"/>
<path fill-rule="evenodd" d="M268.7,529.7H509.2V515.1H268.7v14.6Z" class="g0_65"/>
<path fill-rule="evenodd" d="M268.7,544.4H509.2V529.7H268.7v14.7Z" class="g0_65"/>
<path fill-rule="evenodd" d="M269,559.1H508.5V544.4H269v14.7Z" class="g0_65"/>
<path fill-rule="evenodd" d="M269,573.7H508.5V559.1H269v14.6Z" class="g0_65"/>
<path fill-rule="evenodd" d="M268.3,588.4H508.5V573.7H268.3v14.7Z" class="g0_65"/>
<path fill-rule="evenodd" d="M268.3,603.1H508.5V588.4H268.3v14.7Z" class="g0_65"/>
<path fill-rule="evenodd" d="M268.7,617.8H508.9V603.1H268.7v14.7Z" class="g0_65"/>
<path fill-rule="evenodd" d="M268.7,632.4H508.9V617.8H268.7v14.6Z" class="g0_65"/>
<path fill-rule="evenodd" d="M268.7,647.1H508.9V632.4H268.7v14.7Z" class="g0_65"/>
<path fill-rule="evenodd" d="M267.1,662.1H508.5V647.5H267.1v14.6Z" class="g0_65"/>
<path fill-rule="evenodd" d="M267.1,676.8H508.5V662.1H267.1v14.7Z" class="g0_65"/>
<path fill-rule="evenodd" d="M267.1,691.5H508.5V676.8H267.1v14.7Z" class="g0_65"/>
<path fill-rule="evenodd" d="M267.1,706.1H508.5V691.5H267.1v14.6Z" class="g0_65"/>
<path fill-rule="evenodd" d="M268.3,720.8H508.9V706.1H268.3v14.7Z" class="g0_65"/>
<path fill-rule="evenodd" d="M268.3,735.5H508.9V720.8H268.3v14.7Z" class="g0_65"/>
<path fill-rule="evenodd" d="M268.3,750.1H508.9V735.5H268.3v14.6Z" class="g0_65"/>
<path fill-rule="evenodd" d="M268.3,764.8H508.9V750.1H268.3v14.7Z" class="g0_65"/>
<path fill-rule="evenodd" d="M268.3,779.5H508.9V764.8H268.3v14.7Z" class="g0_65"/>
<path fill-rule="evenodd" d="M268.3,794.1H508.9V779.5H268.3v14.6Z" class="g0_65"/>
<path fill-rule="evenodd" d="M268.3,808.8H508.9V794.1H268.3v14.7Z" class="g0_65"/>
<path fill-rule="evenodd" d="M268.3,823.5H508.9V808.8H268.3v14.7Z" class="g0_65"/>
<path fill-rule="evenodd" d="M268.3,838.2H508.9V823.5H268.3v14.7Z" class="g0_65"/>
<path fill-rule="evenodd" d="M268.3,852.8H508.9V838.2H268.3v14.6Z" class="g0_65"/>
<path fill-rule="evenodd" d="M269.8,867.5H510.3V852.8H269.8v14.7Z" class="g0_65"/>
<path fill-rule="evenodd" d="M531.6,161H772.2V146.3H531.6V161Z" class="g0_65"/>
<path fill-rule="evenodd" d="M531.6,175.7H772.2V161H531.6v14.7Z" class="g0_65"/>
<path fill-rule="evenodd" d="M530.5,190.3h242V175.7h-242v14.6Z" class="g0_65"/>
<path fill-rule="evenodd" d="M530.5,205h242V190.3h-242V205Z" class="g0_65"/>
<path fill-rule="evenodd" d="M530.5,219.7h242V205h-242v14.7Z" class="g0_65"/>
<path fill-rule="evenodd" d="M530.5,234.3h242V219.7h-242v14.6Z" class="g0_65"/>
<path fill-rule="evenodd" d="M530.5,249h242V234.3h-242V249Z" class="g0_65"/>
<path fill-rule="evenodd" d="M530.5,263.7h242V249h-242v14.7Z" class="g0_65"/>
<path fill-rule="evenodd" d="M530.5,278.3h242V263.7h-242v14.6Z" class="g0_65"/>
<path fill-rule="evenodd" d="M530.5,293h242V278.3h-242V293Z" class="g0_65"/>
<path fill-rule="evenodd" d="M530.5,307.7h242V293h-242v14.7Z" class="g0_65"/>
<path fill-rule="evenodd" d="M530.5,322.3h242V307.7h-242v14.6Z" class="g0_65"/>
<path fill-rule="evenodd" d="M530.5,337h242V322.3h-242V337Z" class="g0_65"/>
<path fill-rule="evenodd" d="M530.5,351.7h242V337h-242v14.7Z" class="g0_65"/>
<path fill-rule="evenodd" d="M530.5,366.4h242V351.7h-242v14.7Z" class="g0_65"/>
<path fill-rule="evenodd" d="M530.1,381.4H771.4V366.7H530.1v14.7Z" class="g0_65"/>
<path fill-rule="evenodd" d="M530.1,396.1H771.4V381.4H530.1v14.7Z" class="g0_65"/>
<path fill-rule="evenodd" d="M530.1,410.7H771.4V396.1H530.1v14.6Z" class="g0_65"/>
<path fill-rule="evenodd" d="M530.1,425.4H771.4V410.7H530.1v14.7Z" class="g0_65"/>
<path fill-rule="evenodd" d="M548.5,440.6h224V425.8h-224v14.8Z" class="g0_65"/>
<path fill-rule="evenodd" d="M530.1,455.3h241V440.6h-241v14.7Z" class="g0_65"/>
<path fill-rule="evenodd" d="M530.1,470h241V455.3h-241V470Z" class="g0_65"/>
<path fill-rule="evenodd" d="M530.1,484.6h241V470h-241v14.6Z" class="g0_65"/>
<path fill-rule="evenodd" d="M529.4,499.7H770.7V485H529.4v14.7Z" class="g0_65"/>
<path fill-rule="evenodd" d="M529.4,514.3H770.7V499.7H529.4v14.6Z" class="g0_65"/>
<path fill-rule="evenodd" d="M529.4,529H770.7V514.3H529.4V529Z" class="g0_65"/>
<path fill-rule="evenodd" d="M548.1,544H772.5V529.4H548.1V544Z" class="g0_65"/>
<path fill-rule="evenodd" d="M529.4,559.1H770.3V544.4H529.4v14.7Z" class="g0_65"/>
<path fill-rule="evenodd" d="M529.4,573.7H770.3V559.1H529.4v14.6Z" class="g0_65"/>
<path fill-rule="evenodd" d="M529.4,588.4H770.3V573.7H529.4v14.7Z" class="g0_65"/>
<path fill-rule="evenodd" d="M529.4,603.1H770.3V588.4H529.4v14.7Z" class="g0_65"/>
<path fill-rule="evenodd" d="M529.4,617.8H770.3V603.1H529.4v14.7Z" class="g0_65"/>
<path fill-rule="evenodd" d="M529.4,632.4H770.3V617.8H529.4v14.6Z" class="g0_65"/>
<path fill-rule="evenodd" d="M529.4,647.1H770.3V632.4H529.4v14.7Z" class="g0_65"/>
<path fill-rule="evenodd" d="M529.4,661.8H770.3V647.1H529.4v14.7Z" class="g0_65"/>
<path fill-rule="evenodd" d="M529.4,676.4H770.3V661.8H529.4v14.6Z" class="g0_65"/>
<path fill-rule="evenodd" d="M529.4,691.5H769.6V676.8H529.4v14.7Z" class="g0_65"/>
<path fill-rule="evenodd" d="M529.4,706.1H769.6V691.5H529.4v14.6Z" class="g0_65"/>
<path fill-rule="evenodd" d="M529.4,720.8H769.6V706.1H529.4v14.7Z" class="g0_65"/>
<path fill-rule="evenodd" d="M529.4,735.5H769.6V720.8H529.4v14.7Z" class="g0_65"/>
<path fill-rule="evenodd" d="M529.4,750.1H769.6V735.5H529.4v14.6Z" class="g0_65"/>
<path fill-rule="evenodd" d="M529,764.8H769.6V750.1H529v14.7Z" class="g0_65"/>
<path fill-rule="evenodd" d="M529,779.5H769.6V764.8H529v14.7Z" class="g0_65"/>
<path fill-rule="evenodd" d="M529,794.1H769.6V779.5H529v14.6Z" class="g0_65"/>
<path fill-rule="evenodd" d="M529,808.8H769.6V794.1H529v14.7Z" class="g0_65"/>
<path fill-rule="evenodd" d="M529,823.5H769.6V808.8H529v14.7Z" class="g0_65"/>
<path fill-rule="evenodd" d="M529,838.2H769.6V823.5H529v14.7Z" class="g0_65"/>
<path fill-rule="evenodd" d="M529,852.8H769.6V838.2H529v14.6Z" class="g0_65"/>
<path fill-rule="evenodd" d="M529,867.5H769.6V852.8H529v14.7Z" class="g0_65"/>
<path fill-rule="evenodd" d="M529,882.2H769.6V867.5H529v14.7Z" class="g0_65"/>
<path d="M202.5,90.2V373.6M206.9,90.2V635.5M205.1,373.3V999.2m4.4,-364.1V999.2M518.6,147.1V915.7" class="g1_65"/>
</svg>