<?xml version="1.0" encoding="UTF-8" standalone="no"?>
<!DOCTYPE svg PUBLIC "-//W3C//DTD SVG 1.1//EN"
"http://www.w3.org/Graphics/SVG/1.1/DTD/svg11.dtd">
<svg viewBox="0 0 909 1285" version="1.1" xmlns="http://www.w3.org/2000/svg" xmlns:xlink="http://www.w3.org/1999/xlink">
<defs>
<style type="text/css"><![CDATA[
.g0_161{
fill: #FFFFFF;
}
.g1_161{
fill: none;
stroke: #000000;
stroke-width: 0.381;
stroke-linecap: butt;
stroke-linejoin: round;
}
]]></style>
</defs>
<path fill-rule="evenodd" d="M281.7,125.8H779V110H281.7v15.8Z" class="g0_161"/>
<path fill-rule="evenodd" d="M281.3,161.7H520v-15H281.3v15Z" class="g0_161"/>
<path fill-rule="evenodd" d="M281.3,176.9H520V161.7H281.3v15.2Z" class="g0_161"/>
<path fill-rule="evenodd" d="M281.3,192H519.7V176.9H281.3V192Z" class="g0_161"/>
<path fill-rule="evenodd" d="M281.3,207H519.7V192H281.3v15Z" class="g0_161"/>
<path fill-rule="evenodd" d="M280.9,222H519.7V207H280.9v15Z" class="g0_161"/>
<path fill-rule="evenodd" d="M280.9,237.1H519.7V222H280.9v15.1Z" class="g0_161"/>
<path fill-rule="evenodd" d="M280.9,252.1H519.7v-15H280.9v15Z" class="g0_161"/>
<path fill-rule="evenodd" d="M280.9,267.1H519.7v-15H280.9v15Z" class="g0_161"/>
<path fill-rule="evenodd" d="M280.9,282.2H519.7V267.1H280.9v15.1Z" class="g0_161"/>
<path fill-rule="evenodd" d="M300,297.2H520v-15H300v15Z" class="g0_161"/>
<path fill-rule="evenodd" d="M281.7,312.2H520v-15H281.7v15Z" class="g0_161"/>
<path fill-rule="evenodd" d="M281.7,327.3H520V312.2H281.7v15.1Z" class="g0_161"/>
<path fill-rule="evenodd" d="M279.8,342.5H519.7V327.3H279.8v15.2Z" class="g0_161"/>
<path fill-rule="evenodd" d="M279.8,357.6H519.7V342.5H279.8v15.1Z" class="g0_161"/>
<path fill-rule="evenodd" d="M279.8,372.6H519.7v-15H279.8v15Z" class="g0_161"/>
<path fill-rule="evenodd" d="M279.8,387.6H519.7v-15H279.8v15Z" class="g0_161"/>
<path fill-rule="evenodd" d="M280.6,402.7H519.3V387.6H280.6v15.1Z" class="g0_161"/>
<path fill-rule="evenodd" d="M280.6,417.7H519.3v-15H280.6v15Z" class="g0_161"/>
<path fill-rule="evenodd" d="M280.2,432.7H519.7v-15H280.2v15Z" class="g0_161"/>
<path fill-rule="evenodd" d="M280.2,447.8H519.7V432.7H280.2v15.1Z" class="g0_161"/>
<path fill-rule="evenodd" d="M280.2,462.8H519.7v-15H280.2v15Z" class="g0_161"/>
<path fill-rule="evenodd" d="M280.2,477.8H518.6v-15H280.2v15Z" class="g0_161"/>
<path fill-rule="evenodd" d="M280.2,492.9H518.6V477.8H280.2v15.1Z" class="g0_161"/>
<path fill-rule="evenodd" d="M279.8,507.9H518.9v-15H279.8v15Z" class="g0_161"/>
<path fill-rule="evenodd" d="M279.8,523.1H518.9V507.9H279.8v15.2Z" class="g0_161"/>
<path fill-rule="evenodd" d="M279.8,538.2H518.9V523.1H279.8v15.1Z" class="g0_161"/>
<path fill-rule="evenodd" d="M279.8,553.2H518.9v-15H279.8v15Z" class="g0_161"/>
<path fill-rule="evenodd" d="M279.8,568.2H518.9v-15H279.8v15Z" class="g0_161"/>
<path fill-rule="evenodd" d="M279.8,583.3H518.9V568.2H279.8v15.1Z" class="g0_161"/>
<path fill-rule="evenodd" d="M279.8,598.3H518.9v-15H279.8v15Z" class="g0_161"/>
<path fill-rule="evenodd" d="M279.8,613.4H518.9V598.3H279.8v15.1Z" class="g0_161"/>
<path fill-rule="evenodd" d="M279.8,628.4H518.2v-15H279.8v15Z" class="g0_161"/>
<path fill-rule="evenodd" d="M279.8,643.4H518.2v-15H279.8v15Z" class="g0_161"/>
<path fill-rule="evenodd" d="M298.2,658.5H520V643.4H298.2v15.1Z" class="g0_161"/>
<path fill-rule="evenodd" d="M279.1,673.5H517.8v-15H279.1v15Z" class="g0_161"/>
<path fill-rule="evenodd" d="M279.1,688.5H517.8v-15H279.1v15Z" class="g0_161"/>
<path fill-rule="evenodd" d="M279.1,703.7H517.8V688.5H279.1v15.2Z" class="g0_161"/>
<path fill-rule="evenodd" d="M279.1,718.8H517.8V703.7H279.1v15.1Z" class="g0_161"/>
<path fill-rule="evenodd" d="M279.1,733.8H517.8v-15H279.1v15Z" class="g0_161"/>
<path fill-rule="evenodd" d="M279.1,748.8H517.8v-15H279.1v15Z" class="g0_161"/>
<path fill-rule="evenodd" d="M279.1,763.9H517.8V748.8H279.1v15.1Z" class="g0_161"/>
<path fill-rule="evenodd" d="M297.8,778.9H520v-15H297.8v15Z" class="g0_161"/>
<path fill-rule="evenodd" d="M279.1,793.9h238v-15h-238v15Z" class="g0_161"/>
<path fill-rule="evenodd" d="M279.1,809h238V793.9h-238V809Z" class="g0_161"/>
<path fill-rule="evenodd" d="M279.1,824h238V809h-238v15Z" class="g0_161"/>
<path fill-rule="evenodd" d="M297.8,839.1H520V824H297.8v15.1Z" class="g0_161"/>
<path fill-rule="evenodd" d="M297.8,854.1H520v-15H297.8v15Z" class="g0_161"/>
<path fill-rule="evenodd" d="M297.8,869.2H520V854.1H297.8v15.1Z" class="g0_161"/>
<path fill-rule="evenodd" d="M278.4,884.4H517.1V869.2H278.4v15.2Z" class="g0_161"/>
<path fill-rule="evenodd" d="M278.4,899.4H517.1v-15H278.4v15Z" class="g0_161"/>
<path fill-rule="evenodd" d="M280.6,914.4H520v-15H280.6v15Z" class="g0_161"/>
<path fill-rule="evenodd" d="M540.2,161.7H778.9v-15H540.2v15Z" class="g0_161"/>
<path fill-rule="evenodd" d="M540.2,176.9H778.9V161.7H540.2v15.2Z" class="g0_161"/>
<path fill-rule="evenodd" d="M540.2,192H778.9V176.9H540.2V192Z" class="g0_161"/>
<path fill-rule="evenodd" d="M540.2,207H778.9V192H540.2v15Z" class="g0_161"/>
<path fill-rule="evenodd" d="M540.2,222H778.9V207H540.2v15Z" class="g0_161"/>
<path fill-rule="evenodd" d="M540.2,237.1H778.9V222H540.2v15.1Z" class="g0_161"/>
<path fill-rule="evenodd" d="M540.2,252.1H778.9v-15H540.2v15Z" class="g0_161"/>
<path fill-rule="evenodd" d="M540.2,267.1H778.9v-15H540.2v15Z" class="g0_161"/>
<path fill-rule="evenodd" d="M540.6,282.5h238v-15h-238v15Z" class="g0_161"/>
<path fill-rule="evenodd" d="M540.6,297.6h238V282.5h-238v15.1Z" class="g0_161"/>
<path fill-rule="evenodd" d="M540.2,312.6h238v-15h-238v15Z" class="g0_161"/>
<path fill-rule="evenodd" d="M540.2,327.8h238V312.6h-238v15.2Z" class="g0_161"/>
<path fill-rule="evenodd" d="M558.9,342.9h220V327.8h-220v15.1Z" class="g0_161"/>
<path fill-rule="evenodd" d="M540.2,357.9H778.6v-15H540.2v15Z" class="g0_161"/>
<path fill-rule="evenodd" d="M540.2,373H778.6V357.9H540.2V373Z" class="g0_161"/>
<path fill-rule="evenodd" d="M540.2,388H778.6V373H540.2v15Z" class="g0_161"/>
<path fill-rule="evenodd" d="M558.5,403H778.9V388H558.5v15Z" class="g0_161"/>
<path fill-rule="evenodd" d="M558.5,418.4H778.9V403H558.5v15.4Z" class="g0_161"/>
<path fill-rule="evenodd" d="M539.1,433.5H778.6V418.4H539.1v15.1Z" class="g0_161"/>
<path fill-rule="evenodd" d="M539.1,448.5H778.6v-15H539.1v15Z" class="g0_161"/>
<path fill-rule="evenodd" d="M539.1,463.9H777.8v-15H539.1v15Z" class="g0_161"/>
<path fill-rule="evenodd" d="M539.1,479.1H777.8V463.9H539.1v15.2Z" class="g0_161"/>
<path fill-rule="evenodd" d="M539.1,494.2H777.8V479.1H539.1v15.1Z" class="g0_161"/>
<path fill-rule="evenodd" d="M539.1,509.2H777.8v-15H539.1v15Z" class="g0_161"/>
<path fill-rule="evenodd" d="M538.7,524.2H777.8v-15H538.7v15Z" class="g0_161"/>
<path fill-rule="evenodd" d="M538.7,539.3H777.8V524.2H538.7v15.1Z" class="g0_161"/>
<path fill-rule="evenodd" d="M538.7,554.3H777.8v-15H538.7v15Z" class="g0_161"/>
<path fill-rule="evenodd" d="M538.7,569.3H777.8v-15H538.7v15Z" class="g0_161"/>
<path fill-rule="evenodd" d="M538.7,584.4H777.8V569.3H538.7v15.1Z" class="g0_161"/>
<path fill-rule="evenodd" d="M538.7,599.4H777.8v-15H538.7v15Z" class="g0_161"/>
<path fill-rule="evenodd" d="M538.7,614.5H777.1V599.4H538.7v15.1Z" class="g0_161"/>
<path fill-rule="evenodd" d="M538.7,629.5H777.1v-15H538.7v15Z" class="g0_161"/>
<path fill-rule="evenodd" d="M538.4,645.1H777.1V629.9H538.4v15.2Z" class="g0_161"/>
<path fill-rule="evenodd" d="M538.4,660.1H777.1v-15H538.4v15Z" class="g0_161"/>
<path fill-rule="evenodd" d="M538.4,675.1H777.1v-15H538.4v15Z" class="g0_161"/>
<path fill-rule="evenodd" d="M538.4,690.2H777.1V675.1H538.4v15.1Z" class="g0_161"/>
<path fill-rule="evenodd" d="M538.4,705.2H777.1v-15H538.4v15Z" class="g0_161"/>
<path fill-rule="evenodd" d="M538.7,720.2H777.1v-15H538.7v15Z" class="g0_161"/>
<path fill-rule="evenodd" d="M538.7,735.3H777.1V720.2H538.7v15.1Z" class="g0_161"/>
<path fill-rule="evenodd" d="M538,750.3H776.7v-15H538v15Z" class="g0_161"/>
<path fill-rule="evenodd" d="M538,765.3H776.7v-15H538v15Z" class="g0_161"/>
<path fill-rule="evenodd" d="M538,780.4H776.7V765.3H538v15.1Z" class="g0_161"/>
<path fill-rule="evenodd" d="M538,795.4H776.7v-15H538v15Z" class="g0_161"/>
<path fill-rule="evenodd" d="M556.7,810.4H778.9v-15H556.7v15Z" class="g0_161"/>
<path fill-rule="evenodd" d="M556.7,825.7H778.9V810.4H556.7v15.3Z" class="g0_161"/>
<path fill-rule="evenodd" d="M538.4,840.7H776.7v-15H538.4v15Z" class="g0_161"/>
<path fill-rule="evenodd" d="M538.4,855.8H776.7V840.7H538.4v15.1Z" class="g0_161"/>
<path fill-rule="evenodd" d="M556.7,870.8H778.9v-15H556.7v15Z" class="g0_161"/>
<path fill-rule="evenodd" d="M538.4,885.8h238v-15h-238v15Z" class="g0_161"/>
<path fill-rule="evenodd" d="M538.4,900.9h238V885.8h-238v15.1Z" class="g0_161"/>
<path d="M205.7,215.3v46.6M527.6,148.2V916.4" class="g1_161"/>
</svg>