<?xml version="1.0" encoding="UTF-8" standalone="no"?>
<!DOCTYPE svg PUBLIC "-//W3C//DTD SVG 1.1//EN"
"http://www.w3.org/Graphics/SVG/1.1/DTD/svg11.dtd">
<svg viewBox="0 0 909 1285" version="1.1" xmlns="http://www.w3.org/2000/svg" xmlns:xlink="http://www.w3.org/1999/xlink">
<defs>
<style type="text/css"><![CDATA[
.g0_48{
fill: #FFFFFF;
}
]]></style>
</defs>
<path fill-rule="evenodd" d="M653.7,125.8h59.4V110H653.7v15.8Z" class="g0_48"/>
<path fill-rule="evenodd" d="M205.2,161.4H441.7V146.3H205.2v15.1Z" class="g0_48"/>
<path fill-rule="evenodd" d="M205.2,176.4H441.7v-15H205.2v15Z" class="g0_48"/>
<path fill-rule="evenodd" d="M204.8,191.6H442.1V176.4H204.8v15.2Z" class="g0_48"/>
<path fill-rule="evenodd" d="M204.8,206.6H442.1v-15H204.8v15Z" class="g0_48"/>
<path fill-rule="evenodd" d="M204.8,221.7H442.1V206.6H204.8v15.1Z" class="g0_48"/>
<path fill-rule="evenodd" d="M222.4,236.7H457.5v-15H222.4v15Z" class="g0_48"/>
<path fill-rule="evenodd" d="M222.8,251.7H457.5v-15H222.8v15Z" class="g0_48"/>
<path fill-rule="evenodd" d="M204.8,266.8H441.7V251.7H204.8v15.1Z" class="g0_48"/>
<path fill-rule="evenodd" d="M204.8,281.8H441.7v-15H204.8v15Z" class="g0_48"/>
<path fill-rule="evenodd" d="M204.8,296.8H441.7v-15H204.8v15Z" class="g0_48"/>
<path fill-rule="evenodd" d="M204.1,311.9H441.3V296.8H204.1v15.1Z" class="g0_48"/>
<path fill-rule="evenodd" d="M204.1,326.9H441.3v-15H204.1v15Z" class="g0_48"/>
<path fill-rule="evenodd" d="M204.1,341.9H441.3v-15H204.1v15Z" class="g0_48"/>
<path fill-rule="evenodd" d="M204.1,357.2H441.3V342H204.1v15.2Z" class="g0_48"/>
<path fill-rule="evenodd" d="M203.7,372.2H441.3v-15H203.7v15Z" class="g0_48"/>
<path fill-rule="evenodd" d="M203.7,387.3H441.3V372.2H203.7v15.1Z" class="g0_48"/>
<path fill-rule="evenodd" d="M203.7,402.3H441.3v-15H203.7v15Z" class="g0_48"/>
<path fill-rule="evenodd" d="M203.7,417.3H441.3v-15H203.7v15Z" class="g0_48"/>
<path fill-rule="evenodd" d="M203.7,432.4H441.3V417.3H203.7v15.1Z" class="g0_48"/>
<path fill-rule="evenodd" d="M203.7,447.4H441.3v-15H203.7v15Z" class="g0_48"/>
<path fill-rule="evenodd" d="M203.7,462.4H441.3v-15H203.7v15Z" class="g0_48"/>
<path fill-rule="evenodd" d="M203.3,477.5H441V462.4H203.3v15.1Z" class="g0_48"/>
<path fill-rule="evenodd" d="M203.3,492.5H441v-15H203.3v15Z" class="g0_48"/>
<path fill-rule="evenodd" d="M203.3,507.5H441v-15H203.3v15Z" class="g0_48"/>
<path fill-rule="evenodd" d="M203,522.6H441V507.5H203v15.1Z" class="g0_48"/>
<path fill-rule="evenodd" d="M203,537.8H441V522.6H203v15.2Z" class="g0_48"/>
<path fill-rule="evenodd" d="M203,552.8H441v-15H203v15Z" class="g0_48"/>
<path fill-rule="evenodd" d="M203.3,567.9H440.6V552.8H203.3v15.1Z" class="g0_48"/>
<path fill-rule="evenodd" d="M203.3,582.9H440.6v-15H203.3v15Z" class="g0_48"/>
<path fill-rule="evenodd" d="M203,598H440.2V582.9H203V598Z" class="g0_48"/>
<path fill-rule="evenodd" d="M203,613H440.2V598H203v15Z" class="g0_48"/>
<path fill-rule="evenodd" d="M203,628H440.2V613H203v15Z" class="g0_48"/>
<path fill-rule="evenodd" d="M203,643.1H440.2V628H203v15.1Z" class="g0_48"/>
<path fill-rule="evenodd" d="M203,658.1H440.2v-15H203v15Z" class="g0_48"/>
<path fill-rule="evenodd" d="M202.6,673.1H440.2v-15H202.6v15Z" class="g0_48"/>
<path fill-rule="evenodd" d="M202.6,688.2H440.2V673.1H202.6v15.1Z" class="g0_48"/>
<path fill-rule="evenodd" d="M202.6,703.2H440.2v-15H202.6v15Z" class="g0_48"/>
<path fill-rule="evenodd" d="M202.6,718.4H440.2V703.2H202.6v15.2Z" class="g0_48"/>
<path fill-rule="evenodd" d="M202.6,733.4H440.2v-15H202.6v15Z" class="g0_48"/>
<path fill-rule="evenodd" d="M202.6,748.5H440.2V733.4H202.6v15.1Z" class="g0_48"/>
<path fill-rule="evenodd" d="M202.2,763.5H439.9v-15H202.2v15Z" class="g0_48"/>
<path fill-rule="evenodd" d="M202.2,778.5H439.9v-15H202.2v15Z" class="g0_48"/>
<path fill-rule="evenodd" d="M202.2,793.6H439.9V778.5H202.2v15.1Z" class="g0_48"/>
<path fill-rule="evenodd" d="M202.2,808.6H439.9v-15H202.2v15Z" class="g0_48"/>
<path fill-rule="evenodd" d="M202.2,823.6H439.9v-15H202.2v15Z" class="g0_48"/>
<path fill-rule="evenodd" d="M202.6,838.7H439.1V823.6H202.6v15.1Z" class="g0_48"/>
<path fill-rule="evenodd" d="M202.6,853.8H439.1V838.7H202.6v15.1Z" class="g0_48"/>
<path fill-rule="evenodd" d="M202.6,868.8H439.1v-15H202.6v15Z" class="g0_48"/>
<path fill-rule="evenodd" d="M202.2,883.8H439.5v-15H202.2v15Z" class="g0_48"/>
<path fill-rule="evenodd" d="M202.2,899H439.5V883.8H202.2V899Z" class="g0_48"/>
<path fill-rule="evenodd" d="M202.2,930.9H457.5V915.2H202.2v15.7Z" class="g0_48"/>
<path fill-rule="evenodd" d="M204.4,946H457.5V930.9H204.4V946Z" class="g0_48"/>
<path fill-rule="evenodd" d="M462.3,161.4H701.4V146.3H462.3v15.1Z" class="g0_48"/>
<path fill-rule="evenodd" d="M462.3,176.4H701.4v-15H462.3v15Z" class="g0_48"/>
<path fill-rule="evenodd" d="M462.3,191.6H701.4V176.4H462.3v15.2Z" class="g0_48"/>
<path fill-rule="evenodd" d="M462.3,206.6H701.4v-15H462.3v15Z" class="g0_48"/>
<path fill-rule="evenodd" d="M462.3,221.7H701.4V206.6H462.3v15.1Z" class="g0_48"/>
<path fill-rule="evenodd" d="M462.3,236.7H701.4v-15H462.3v15Z" class="g0_48"/>
<path fill-rule="evenodd" d="M462.3,251.7H701.4v-15H462.3v15Z" class="g0_48"/>
<path fill-rule="evenodd" d="M461.9,266.8H701.4V251.7H461.9v15.1Z" class="g0_48"/>
<path fill-rule="evenodd" d="M461.9,281.8H701.4v-15H461.9v15Z" class="g0_48"/>
<path fill-rule="evenodd" d="M461.9,296.8H701.4v-15H461.9v15Z" class="g0_48"/>
<path fill-rule="evenodd" d="M461.9,311.9H701V296.8H461.9v15.1Z" class="g0_48"/>
<path fill-rule="evenodd" d="M461.9,326.9H701v-15H461.9v15Z" class="g0_48"/>
<path fill-rule="evenodd" d="M461.9,341.9H701v-15H461.9v15Z" class="g0_48"/>
<path fill-rule="evenodd" d="M461.9,357.2H701V342H461.9v15.2Z" class="g0_48"/>
<path fill-rule="evenodd" d="M461.9,372.2H701v-15H461.9v15Z" class="g0_48"/>
<path fill-rule="evenodd" d="M461.9,387.3H701V372.2H461.9v15.1Z" class="g0_48"/>
<path fill-rule="evenodd" d="M461.9,402.3H701v-15H461.9v15Z" class="g0_48"/>
<path fill-rule="evenodd" d="M461.2,417.3H700.3v-15H461.2v15Z" class="g0_48"/>
<path fill-rule="evenodd" d="M461.2,432.4H700.3V417.3H461.2v15.1Z" class="g0_48"/>
<path fill-rule="evenodd" d="M461.2,447.4H700.3v-15H461.2v15Z" class="g0_48"/>
<path fill-rule="evenodd" d="M461.2,462.4H700.3v-15H461.2v15Z" class="g0_48"/>
<path fill-rule="evenodd" d="M461.2,477.5H700.3V462.4H461.2v15.1Z" class="g0_48"/>
<path fill-rule="evenodd" d="M461.2,492.5H700.3v-15H461.2v15Z" class="g0_48"/>
<path fill-rule="evenodd" d="M461.2,507.5H699.6v-15H461.2v15Z" class="g0_48"/>
<path fill-rule="evenodd" d="M461.2,522.6H699.6V507.5H461.2v15.1Z" class="g0_48"/>
<path fill-rule="evenodd" d="M461.2,537.8H699.9V522.6H461.2v15.2Z" class="g0_48"/>
<path fill-rule="evenodd" d="M461.2,552.8H699.9v-15H461.2v15Z" class="g0_48"/>
<path fill-rule="evenodd" d="M461.2,567.9H699.9V552.8H461.2v15.1Z" class="g0_48"/>
<path fill-rule="evenodd" d="M460.8,582.9H699.6v-15H460.8v15Z" class="g0_48"/>
<path fill-rule="evenodd" d="M460.8,598H699.6V582.9H460.8V598Z" class="g0_48"/>
<path fill-rule="evenodd" d="M460.8,613H699.6V598H460.8v15Z" class="g0_48"/>
<path fill-rule="evenodd" d="M460.8,628H699.6V613H460.8v15Z" class="g0_48"/>
<path fill-rule="evenodd" d="M478.8,643.4H701.4v-15H478.8v15Z" class="g0_48"/>
<path fill-rule="evenodd" d="M460.8,658.5H699.2V643.4H460.8v15.1Z" class="g0_48"/>
<path fill-rule="evenodd" d="M460.8,673.5H699.2v-15H460.8v15Z" class="g0_48"/>
<path fill-rule="evenodd" d="M460.8,688.5H699.2v-15H460.8v15Z" class="g0_48"/>
<path fill-rule="evenodd" d="M460.5,704.5H698.8V689.3H460.5v15.2Z" class="g0_48"/>
<path fill-rule="evenodd" d="M460.5,719.5H698.8v-15H460.5v15Z" class="g0_48"/>
<path fill-rule="evenodd" d="M460.1,734.5H698.8v-15H460.1v15Z" class="g0_48"/>
<path fill-rule="evenodd" d="M460.1,749.6H698.8V734.5H460.1v15.1Z" class="g0_48"/>
<path fill-rule="evenodd" d="M460.1,764.6H698.8v-15H460.1v15Z" class="g0_48"/>
<path fill-rule="evenodd" d="M460.1,779.6H698.8v-15H460.1v15Z" class="g0_48"/>
<path fill-rule="evenodd" d="M460.1,794.7H698.8V779.6H460.1v15.1Z" class="g0_48"/>
<path fill-rule="evenodd" d="M460.1,809.7H698.8v-15H460.1v15Z" class="g0_48"/>
<path fill-rule="evenodd" d="M460.1,824.7H698.8v-15H460.1v15Z" class="g0_48"/>
<path fill-rule="evenodd" d="M460.1,839.8H698.8V824.7H460.1v15.1Z" class="g0_48"/>
<path fill-rule="evenodd" d="M460.1,855H698.8V839.8H460.1V855Z" class="g0_48"/>
<path fill-rule="evenodd" d="M460.1,870.1H698.8V855H460.1v15.1Z" class="g0_48"/>
<path fill-rule="evenodd" d="M460.1,885.5H698.8V870.1H460.1v15.4Z" class="g0_48"/>
<path fill-rule="evenodd" d="M460.1,900.5H698.8v-15H460.1v15Z" class="g0_48"/>
<path fill-rule="evenodd" d="M541.5,988.7H713.1V960.6H541.5v28.1Z" class="g0_48"/>
</svg>