<?xml version="1.0" encoding="UTF-8" standalone="no"?>
<!DOCTYPE svg PUBLIC "-//W3C//DTD SVG 1.1//EN"
"http://www.w3.org/Graphics/SVG/1.1/DTD/svg11.dtd">
<svg viewBox="0 0 909 1285" version="1.1" xmlns="http://www.w3.org/2000/svg" xmlns:xlink="http://www.w3.org/1999/xlink">
<defs>
<style type="text/css"><![CDATA[
.g0_287{
fill: #FFFFFF;
}
.g1_287{
fill: none;
stroke: #000000;
stroke-width: 0.381;
stroke-linecap: butt;
stroke-linejoin: round;
}
]]></style>
</defs>
<path fill-rule="evenodd" d="M274.3,125.8H771.6V110H274.3v15.8Z" class="g0_287"/>
<path fill-rule="evenodd" d="M274,161.7H512.7V147.1H274v14.6Z" class="g0_287"/>
<path fill-rule="evenodd" d="M274,176.4H512.7V161.7H274v14.7Z" class="g0_287"/>
<path fill-rule="evenodd" d="M274.3,191.4h238V176.8h-238v14.6Z" class="g0_287"/>
<path fill-rule="evenodd" d="M274.3,206.1h238V191.4h-238v14.7Z" class="g0_287"/>
<path fill-rule="evenodd" d="M274.3,220.8h238V206.1h-238v14.7Z" class="g0_287"/>
<path fill-rule="evenodd" d="M274.3,235.4h238V220.8h-238v14.6Z" class="g0_287"/>
<path fill-rule="evenodd" d="M292.3,250.1H512.7V235.4H292.3v14.7Z" class="g0_287"/>
<path fill-rule="evenodd" d="M274,265.1H512.3V250.5H274v14.6Z" class="g0_287"/>
<path fill-rule="evenodd" d="M274,279.8H512.3V265.1H274v14.7Z" class="g0_287"/>
<path fill-rule="evenodd" d="M274,294.8H512.7V280.2H274v14.6Z" class="g0_287"/>
<path fill-rule="evenodd" d="M274,309.5H512.7V294.8H274v14.7Z" class="g0_287"/>
<path fill-rule="evenodd" d="M274,324.2H512.7V309.5H274v14.7Z" class="g0_287"/>
<path fill-rule="evenodd" d="M274,338.8H512.7V324.2H274v14.6Z" class="g0_287"/>
<path fill-rule="evenodd" d="M274,353.5H512V338.8H274v14.7Z" class="g0_287"/>
<path fill-rule="evenodd" d="M274,368.2H512V353.5H274v14.7Z" class="g0_287"/>
<path fill-rule="evenodd" d="M274,382.9H512V368.2H274v14.7Z" class="g0_287"/>
<path fill-rule="evenodd" d="M291.9,397.9H512.7V383.2H291.9v14.7Z" class="g0_287"/>
<path fill-rule="evenodd" d="M273.2,412.6H512V397.9H273.2v14.7Z" class="g0_287"/>
<path fill-rule="evenodd" d="M273.2,427.2H512V412.6H273.2v14.6Z" class="g0_287"/>
<path fill-rule="evenodd" d="M273.2,441.9H512V427.2H273.2v14.7Z" class="g0_287"/>
<path fill-rule="evenodd" d="M273.2,457.1H512.3V442.3H273.2v14.8Z" class="g0_287"/>
<path fill-rule="evenodd" d="M273.2,471.8H512.3V457.1H273.2v14.7Z" class="g0_287"/>
<path fill-rule="evenodd" d="M273.2,486.8H511.6V472.2H273.2v14.6Z" class="g0_287"/>
<path fill-rule="evenodd" d="M273.2,501.5H511.6V486.8H273.2v14.7Z" class="g0_287"/>
<path fill-rule="evenodd" d="M273.2,516.5H511.6v-15H273.2v15Z" class="g0_287"/>
<path fill-rule="evenodd" d="M273.2,531.2H511.6V516.5H273.2v14.7Z" class="g0_287"/>
<path fill-rule="evenodd" d="M273.2,546.2H511.6v-15H273.2v15Z" class="g0_287"/>
<path fill-rule="evenodd" d="M273.2,560.9H511.6V546.2H273.2v14.7Z" class="g0_287"/>
<path fill-rule="evenodd" d="M273.2,575.6H512V560.9H273.2v14.7Z" class="g0_287"/>
<path fill-rule="evenodd" d="M273.2,590.2H512V575.6H273.2v14.6Z" class="g0_287"/>
<path fill-rule="evenodd" d="M273.2,604.9H512V590.2H273.2v14.7Z" class="g0_287"/>
<path fill-rule="evenodd" d="M273.2,619.6H512V604.9H273.2v14.7Z" class="g0_287"/>
<path fill-rule="evenodd" d="M273.2,634.6h238V620h-238v14.6Z" class="g0_287"/>
<path fill-rule="evenodd" d="M273.2,649.3h238V634.6h-238v14.7Z" class="g0_287"/>
<path fill-rule="evenodd" d="M291.2,664.3H512.7V649.7H291.2v14.6Z" class="g0_287"/>
<path fill-rule="evenodd" d="M291.2,679H512.7V664.3H291.2V679Z" class="g0_287"/>
<path fill-rule="evenodd" d="M272.5,693.7H511.6V679H272.5v14.7Z" class="g0_287"/>
<path fill-rule="evenodd" d="M272.5,708.3H511.6V693.7H272.5v14.6Z" class="g0_287"/>
<path fill-rule="evenodd" d="M272.5,723H511.6V708.3H272.5V723Z" class="g0_287"/>
<path fill-rule="evenodd" d="M272.5,737.7H511.6V723H272.5v14.7Z" class="g0_287"/>
<path fill-rule="evenodd" d="M272.5,752.7H511.2V738H272.5v14.7Z" class="g0_287"/>
<path fill-rule="evenodd" d="M272.5,767.4H511.2V752.7H272.5v14.7Z" class="g0_287"/>
<path fill-rule="evenodd" d="M272.5,782H511.2V767.4H272.5V782Z" class="g0_287"/>
<path fill-rule="evenodd" d="M272.5,796.7H511.2V782H272.5v14.7Z" class="g0_287"/>
<path fill-rule="evenodd" d="M272.9,811.7H511.2V797.1H272.9v14.6Z" class="g0_287"/>
<path fill-rule="evenodd" d="M272.9,826.4H511.2V811.7H272.9v14.7Z" class="g0_287"/>
<path fill-rule="evenodd" d="M272.9,841.5h238V826.8h-238v14.7Z" class="g0_287"/>
<path fill-rule="evenodd" d="M272.9,856.1h238V841.5h-238v14.6Z" class="g0_287"/>
<path fill-rule="evenodd" d="M290.5,871.2H512.7V856.5H290.5v14.7Z" class="g0_287"/>
<path fill-rule="evenodd" d="M271.8,886.2H511.2V871.5H271.8v14.7Z" class="g0_287"/>
<path fill-rule="evenodd" d="M271.8,900.9H511.2V886.2H271.8v14.7Z" class="g0_287"/>
<path fill-rule="evenodd" d="M291.6,915.5H512.7V900.9H291.6v14.6Z" class="g0_287"/>
<path fill-rule="evenodd" d="M551.6,161.7h220V147.1h-220v14.6Z" class="g0_287"/>
<path fill-rule="evenodd" d="M551.2,176.8H771.6V162.1H551.2v14.7Z" class="g0_287"/>
<path fill-rule="evenodd" d="M551.2,191.4H771.6V176.8H551.2v14.6Z" class="g0_287"/>
<path fill-rule="evenodd" d="M533.2,206.5H770.9V191.8H533.2v14.7Z" class="g0_287"/>
<path fill-rule="evenodd" d="M533.2,221.1H770.9V206.5H533.2v14.6Z" class="g0_287"/>
<path fill-rule="evenodd" d="M533.2,236.2h238V221.5h-238v14.7Z" class="g0_287"/>
<path fill-rule="evenodd" d="M533.2,250.8h238V236.2h-238v14.6Z" class="g0_287"/>
<path fill-rule="evenodd" d="M532.9,265.5H771.2V250.8H532.9v14.7Z" class="g0_287"/>
<path fill-rule="evenodd" d="M532.9,280.2H771.2V265.5H532.9v14.7Z" class="g0_287"/>
<path fill-rule="evenodd" d="M532.9,295.2H771.6V280.5H532.9v14.7Z" class="g0_287"/>
<path fill-rule="evenodd" d="M532.9,309.9H771.6V295.2H532.9v14.7Z" class="g0_287"/>
<path fill-rule="evenodd" d="M532.9,324.5H771.6V309.9H532.9v14.6Z" class="g0_287"/>
<path fill-rule="evenodd" d="M532.9,339.2H771.6V324.5H532.9v14.7Z" class="g0_287"/>
<path fill-rule="evenodd" d="M532.9,353.9H771.6V339.2H532.9v14.7Z" class="g0_287"/>
<path fill-rule="evenodd" d="M533.2,368.6h238V353.9h-238v14.7Z" class="g0_287"/>
<path fill-rule="evenodd" d="M533.2,383.2h238V368.6h-238v14.6Z" class="g0_287"/>
<path fill-rule="evenodd" d="M532.9,397.9h238V383.2h-238v14.7Z" class="g0_287"/>
<path fill-rule="evenodd" d="M532.9,412.6h238V397.9h-238v14.7Z" class="g0_287"/>
<path fill-rule="evenodd" d="M532.9,427.2h238V412.6h-238v14.6Z" class="g0_287"/>
<path fill-rule="evenodd" d="M550.8,442.5H771.6V427.6H550.8v14.9Z" class="g0_287"/>
<path fill-rule="evenodd" d="M550.5,457.1H771.6V442.5H550.5v14.6Z" class="g0_287"/>
<path fill-rule="evenodd" d="M532.5,472.2H770.9V457.5H532.5v14.7Z" class="g0_287"/>
<path fill-rule="evenodd" d="M532.5,486.8H770.9V472.2H532.5v14.6Z" class="g0_287"/>
<path fill-rule="evenodd" d="M532.5,501.5H770.9V486.8H532.5v14.7Z" class="g0_287"/>
<path fill-rule="evenodd" d="M532.1,516.5H771.2V501.9H532.1v14.6Z" class="g0_287"/>
<path fill-rule="evenodd" d="M532.1,531.2H771.2V516.5H532.1v14.7Z" class="g0_287"/>
<path fill-rule="evenodd" d="M532.1,545.9H771.2V531.2H532.1v14.7Z" class="g0_287"/>
<path fill-rule="evenodd" d="M532.1,560.5H771.2V545.9H532.1v14.6Z" class="g0_287"/>
<path fill-rule="evenodd" d="M532.1,575.2H771.2V560.5H532.1v14.7Z" class="g0_287"/>
<path fill-rule="evenodd" d="M532.1,589.9H771.2V575.2H532.1v14.7Z" class="g0_287"/>
<path fill-rule="evenodd" d="M532.1,604.6H771.2V589.9H532.1v14.7Z" class="g0_287"/>
<path fill-rule="evenodd" d="M532.1,619.2H771.2V604.6H532.1v14.6Z" class="g0_287"/>
<path fill-rule="evenodd" d="M532.1,633.9H771.2V619.2H532.1v14.7Z" class="g0_287"/>
<path fill-rule="evenodd" d="M532.1,648.6H771.2V633.9H532.1v14.7Z" class="g0_287"/>
<path fill-rule="evenodd" d="M532.1,663.2H771.2V648.6H532.1v14.6Z" class="g0_287"/>
<path fill-rule="evenodd" d="M532.1,677.9H771.2V663.2H532.1v14.7Z" class="g0_287"/>
<path fill-rule="evenodd" d="M532.1,692.6H771.2V677.9H532.1v14.7Z" class="g0_287"/>
<path fill-rule="evenodd" d="M532.1,707.6H770.5V692.9H532.1v14.7Z" class="g0_287"/>
<path fill-rule="evenodd" d="M532.1,722.3H770.5V707.6H532.1v14.7Z" class="g0_287"/>
<path fill-rule="evenodd" d="M532.1,736.9H770.5V722.3H532.1v14.6Z" class="g0_287"/>
<path fill-rule="evenodd" d="M532.1,751.6H770.5V736.9H532.1v14.7Z" class="g0_287"/>
<path fill-rule="evenodd" d="M532.1,766.6H770.9V752H532.1v14.6Z" class="g0_287"/>
<path fill-rule="evenodd" d="M532.1,781.3H770.9V766.6H532.1v14.7Z" class="g0_287"/>
<path fill-rule="evenodd" d="M532.1,796.3H770.5V781.7H532.1v14.6Z" class="g0_287"/>
<path fill-rule="evenodd" d="M532.1,811H770.5V796.3H532.1V811Z" class="g0_287"/>
<path fill-rule="evenodd" d="M531.8,826H770.5V811.4H531.8V826Z" class="g0_287"/>
<path fill-rule="evenodd" d="M531.8,840.7H770.5V826H531.8v14.7Z" class="g0_287"/>
<path fill-rule="evenodd" d="M531.8,855.4H770.5V840.7H531.8v14.7Z" class="g0_287"/>
<path fill-rule="evenodd" d="M531.8,870.4H770.9V855.8H531.8v14.6Z" class="g0_287"/>
<path fill-rule="evenodd" d="M531.8,885.1H770.9V870.4H531.8v14.7Z" class="g0_287"/>
<path d="M199.8,465.3V712.8m1.5,-328.2v90.9M521.4,147.8V916.4" class="g1_287"/>
</svg>