<?xml version="1.0" encoding="UTF-8" standalone="no"?>
<!DOCTYPE svg PUBLIC "-//W3C//DTD SVG 1.1//EN"
"http://www.w3.org/Graphics/SVG/1.1/DTD/svg11.dtd">
<svg viewBox="0 0 909 1285" version="1.1" xmlns="http://www.w3.org/2000/svg" xmlns:xlink="http://www.w3.org/1999/xlink">
<defs>
<style type="text/css"><![CDATA[
.g0_264{
fill: #FFFFFF;
}
.g1_264{
fill: none;
stroke: #000000;
stroke-width: 0.763;
stroke-linecap: butt;
stroke-linejoin: round;
}
]]></style>
</defs>
<path fill-rule="evenodd" d="M609,125.8h80.7V110H609v15.8Z" class="g0_264"/>
<path fill-rule="evenodd" d="M209.2,161.7H430v-15H209.2v15Z" class="g0_264"/>
<path fill-rule="evenodd" d="M191.6,176.9H429.2V161.7H191.6v15.2Z" class="g0_264"/>
<path fill-rule="evenodd" d="M191.6,192H429.2V176.9H191.6V192Z" class="g0_264"/>
<path fill-rule="evenodd" d="M191.2,207H430V192H191.2v15Z" class="g0_264"/>
<path fill-rule="evenodd" d="M191.2,222H430V207H191.2v15Z" class="g0_264"/>
<path fill-rule="evenodd" d="M191.2,237.1H430V222H191.2v15.1Z" class="g0_264"/>
<path fill-rule="evenodd" d="M191.2,252.1H430v-15H191.2v15Z" class="g0_264"/>
<path fill-rule="evenodd" d="M191.6,267.1H429.2v-15H191.6v15Z" class="g0_264"/>
<path fill-rule="evenodd" d="M191.6,282.2H429.2V267.1H191.6v15.1Z" class="g0_264"/>
<path fill-rule="evenodd" d="M191.2,297.2H429.6v-15H191.2v15Z" class="g0_264"/>
<path fill-rule="evenodd" d="M191.2,312.2H429.6v-15H191.2v15Z" class="g0_264"/>
<path fill-rule="evenodd" d="M191.2,327.3H429.6V312.2H191.2v15.1Z" class="g0_264"/>
<path fill-rule="evenodd" d="M191.2,342.5H429.6V327.3H191.2v15.2Z" class="g0_264"/>
<path fill-rule="evenodd" d="M191.2,357.6H429.6V342.5H191.2v15.1Z" class="g0_264"/>
<path fill-rule="evenodd" d="M191.2,372.6H429.6v-15H191.2v15Z" class="g0_264"/>
<path fill-rule="evenodd" d="M190.5,387.6H429.6v-15H190.5v15Z" class="g0_264"/>
<path fill-rule="evenodd" d="M190.5,402.7H429.6V387.6H190.5v15.1Z" class="g0_264"/>
<path fill-rule="evenodd" d="M190.5,417.7H429.6v-15H190.5v15Z" class="g0_264"/>
<path fill-rule="evenodd" d="M190.5,432.7H429.6v-15H190.5v15Z" class="g0_264"/>
<path fill-rule="evenodd" d="M190.5,447.8H429.6V432.7H190.5v15.1Z" class="g0_264"/>
<path fill-rule="evenodd" d="M190.5,462.8H429.6v-15H190.5v15Z" class="g0_264"/>
<path fill-rule="evenodd" d="M190.5,477.8H429.6v-15H190.5v15Z" class="g0_264"/>
<path fill-rule="evenodd" d="M190.5,492.9H429.6V477.8H190.5v15.1Z" class="g0_264"/>
<path fill-rule="evenodd" d="M190.5,507.9H429.6v-15H190.5v15Z" class="g0_264"/>
<path fill-rule="evenodd" d="M190.5,523.1H429.6V507.9H190.5v15.2Z" class="g0_264"/>
<path fill-rule="evenodd" d="M190.5,538.2H429.6V523.1H190.5v15.1Z" class="g0_264"/>
<path fill-rule="evenodd" d="M191.6,553.2H428.5v-15H191.6v15Z" class="g0_264"/>
<path fill-rule="evenodd" d="M191.6,568.2H428.5v-15H191.6v15Z" class="g0_264"/>
<path fill-rule="evenodd" d="M190.9,583.3H429.2V568.2H190.9v15.1Z" class="g0_264"/>
<path fill-rule="evenodd" d="M190.9,598.3H429.2v-15H190.9v15Z" class="g0_264"/>
<path fill-rule="evenodd" d="M190.9,613.4H429.2V598.3H190.9v15.1Z" class="g0_264"/>
<path fill-rule="evenodd" d="M208.8,628.4H430v-15H208.8v15Z" class="g0_264"/>
<path fill-rule="evenodd" d="M208.8,643.8H430V628.4H208.8v15.4Z" class="g0_264"/>
<path fill-rule="evenodd" d="M208.8,658.8H430v-15H208.8v15Z" class="g0_264"/>
<path fill-rule="evenodd" d="M190.5,673.9H428.9V658.8H190.5v15.1Z" class="g0_264"/>
<path fill-rule="evenodd" d="M190.5,689.1H428.9V673.9H190.5v15.2Z" class="g0_264"/>
<path fill-rule="evenodd" d="M190.5,704.1H429.6v-15H190.5v15Z" class="g0_264"/>
<path fill-rule="evenodd" d="M190.5,719.1H429.6v-15H190.5v15Z" class="g0_264"/>
<path fill-rule="evenodd" d="M190.5,734.2H429.6V719.1H190.5v15.1Z" class="g0_264"/>
<path fill-rule="evenodd" d="M190.5,749.2H429.6v-15H190.5v15Z" class="g0_264"/>
<path fill-rule="evenodd" d="M190.5,764.2H429.6v-15H190.5v15Z" class="g0_264"/>
<path fill-rule="evenodd" d="M190.5,779.3H429.6V764.2H190.5v15.1Z" class="g0_264"/>
<path fill-rule="evenodd" d="M190.5,794.3H429.6v-15H190.5v15Z" class="g0_264"/>
<path fill-rule="evenodd" d="M190.5,809.3H429.6v-15H190.5v15Z" class="g0_264"/>
<path fill-rule="evenodd" d="M190.5,824.4h238V809.3h-238v15.1Z" class="g0_264"/>
<path fill-rule="evenodd" d="M190.5,839.5h238V824.4h-238v15.1Z" class="g0_264"/>
<path fill-rule="evenodd" d="M190.1,854.5H428.9v-15H190.1v15Z" class="g0_264"/>
<path fill-rule="evenodd" d="M190.1,869.7H428.9V854.5H190.1v15.2Z" class="g0_264"/>
<path fill-rule="evenodd" d="M190.1,884.7H428.9v-15H190.1v15Z" class="g0_264"/>
<path fill-rule="evenodd" d="M190.1,899.8H428.9V884.7H190.1v15.1Z" class="g0_264"/>
<path fill-rule="evenodd" d="M190.5,914.8H429.6v-15H190.5v15Z" class="g0_264"/>
<path fill-rule="evenodd" d="M449.8,161.4H689.3V146.3H449.8v15.1Z" class="g0_264"/>
<path fill-rule="evenodd" d="M449.8,176.4H689.3v-15H449.8v15Z" class="g0_264"/>
<path fill-rule="evenodd" d="M450.2,192H689.3V176.8H450.2V192Z" class="g0_264"/>
<path fill-rule="evenodd" d="M450.2,207H689.3V192H450.2v15Z" class="g0_264"/>
<path fill-rule="evenodd" d="M468.2,222H689.7V207H468.2v15Z" class="g0_264"/>
<path fill-rule="evenodd" d="M449.5,237.1H689.3V222H449.5v15.1Z" class="g0_264"/>
<path fill-rule="evenodd" d="M449.5,252.1H689.3v-15H449.5v15Z" class="g0_264"/>
<path fill-rule="evenodd" d="M449.5,267.1H689.3v-15H449.5v15Z" class="g0_264"/>
<path fill-rule="evenodd" d="M449.5,282.2H689.3V267.1H449.5v15.1Z" class="g0_264"/>
<path fill-rule="evenodd" d="M449.5,297.2H689.3v-15H449.5v15Z" class="g0_264"/>
<path fill-rule="evenodd" d="M449.5,312.2H689.3v-15H449.5v15Z" class="g0_264"/>
<path fill-rule="evenodd" d="M449.5,327.3H689.3V312.2H449.5v15.1Z" class="g0_264"/>
<path fill-rule="evenodd" d="M449.5,342.5H689.3V327.3H449.5v15.2Z" class="g0_264"/>
<path fill-rule="evenodd" d="M449.8,357.6H689.7V342.5H449.8v15.1Z" class="g0_264"/>
<path fill-rule="evenodd" d="M449.8,372.6H689.7v-15H449.8v15Z" class="g0_264"/>
<path fill-rule="evenodd" d="M449.8,387.6H689.7v-15H449.8v15Z" class="g0_264"/>
<path fill-rule="evenodd" d="M449.8,402.7H689.7V387.6H449.8v15.1Z" class="g0_264"/>
<path fill-rule="evenodd" d="M450.2,417.7H689.3v-15H450.2v15Z" class="g0_264"/>
<path fill-rule="evenodd" d="M450.2,432.7H689.3v-15H450.2v15Z" class="g0_264"/>
<path fill-rule="evenodd" d="M449.8,447.8H688.9V432.7H449.8v15.1Z" class="g0_264"/>
<path fill-rule="evenodd" d="M449.8,462.8H688.9v-15H449.8v15Z" class="g0_264"/>
<path fill-rule="evenodd" d="M449.5,477.8H688.9v-15H449.5v15Z" class="g0_264"/>
<path fill-rule="evenodd" d="M449.5,492.9H688.9V477.8H449.5v15.1Z" class="g0_264"/>
<path fill-rule="evenodd" d="M449.5,507.9H688.9v-15H449.5v15Z" class="g0_264"/>
<path fill-rule="evenodd" d="M449.5,523.1H688.9V507.9H449.5v15.2Z" class="g0_264"/>
<path fill-rule="evenodd" d="M449.8,538.2H688.9V523.1H449.8v15.1Z" class="g0_264"/>
<path fill-rule="evenodd" d="M449.8,553.2H688.9v-15H449.8v15Z" class="g0_264"/>
<path fill-rule="evenodd" d="M449.8,568.2H689.3v-15H449.8v15Z" class="g0_264"/>
<path fill-rule="evenodd" d="M449.8,583.3H689.3V568.2H449.8v15.1Z" class="g0_264"/>
<path fill-rule="evenodd" d="M449.8,598.3H689.3v-15H449.8v15Z" class="g0_264"/>
<path fill-rule="evenodd" d="M449.8,613.4H689.3V598.3H449.8v15.1Z" class="g0_264"/>
<path fill-rule="evenodd" d="M467.8,628.4H689.7v-15H467.8v15Z" class="g0_264"/>
<path fill-rule="evenodd" d="M467.8,643.4H689.7v-15H467.8v15Z" class="g0_264"/>
<path fill-rule="evenodd" d="M449.8,658.5H689.3V643.4H449.8v15.1Z" class="g0_264"/>
<path fill-rule="evenodd" d="M449.8,673.5H689.3v-15H449.8v15Z" class="g0_264"/>
<path fill-rule="evenodd" d="M449.5,688.5H688.9v-15H449.5v15Z" class="g0_264"/>
<path fill-rule="evenodd" d="M449.5,703.7H688.9V688.5H449.5v15.2Z" class="g0_264"/>
<path fill-rule="evenodd" d="M449.5,718.8H688.9V703.7H449.5v15.1Z" class="g0_264"/>
<path fill-rule="evenodd" d="M467.4,733.8H689.7v-15H467.4v15Z" class="g0_264"/>
<path fill-rule="evenodd" d="M449.5,748.8H688.6v-15H449.5v15Z" class="g0_264"/>
<path fill-rule="evenodd" d="M449.5,763.9H688.6V748.8H449.5v15.1Z" class="g0_264"/>
<path fill-rule="evenodd" d="M449.5,778.9H688.6v-15H449.5v15Z" class="g0_264"/>
<path fill-rule="evenodd" d="M449.5,793.9H688.6v-15H449.5v15Z" class="g0_264"/>
<path fill-rule="evenodd" d="M449.5,809H688.6V793.9H449.5V809Z" class="g0_264"/>
<path fill-rule="evenodd" d="M449.5,824H688.6V809H449.5v15Z" class="g0_264"/>
<path fill-rule="evenodd" d="M449.5,839.1H688.6V824H449.5v15.1Z" class="g0_264"/>
<path fill-rule="evenodd" d="M449.5,854.1H688.6v-15H449.5v15Z" class="g0_264"/>
<path fill-rule="evenodd" d="M449.5,869.2H688.6V854.1H449.5v15.1Z" class="g0_264"/>
<path fill-rule="evenodd" d="M449.5,884.4H688.6V869.2H449.5v15.2Z" class="g0_264"/>
<path fill-rule="evenodd" d="M467.4,899.8H689.7V884.7H467.4v15.1Z" class="g0_264"/>
<path fill-rule="evenodd" d="M426,932H689.7V914.4H426V932Z" class="g0_264"/>
<path d="M438.4,146V914.1" class="g1_264"/>
</svg>