<?xml version="1.0" encoding="UTF-8" standalone="no"?>
<!DOCTYPE svg PUBLIC "-//W3C//DTD SVG 1.1//EN"
"http://www.w3.org/Graphics/SVG/1.1/DTD/svg11.dtd">
<svg viewBox="0 0 909 1285" version="1.1" xmlns="http://www.w3.org/2000/svg" xmlns:xlink="http://www.w3.org/1999/xlink">
<defs>
<style type="text/css"><![CDATA[
.g0_201{
fill: #FFFFFF;
}
.g1_201{
fill: none;
stroke: #000000;
stroke-width: 0.381;
stroke-linecap: butt;
stroke-linejoin: round;
}
]]></style>
</defs>
<path fill-rule="evenodd" d="M185,125.8H684.5V110H185v15.8Z" class="g0_201"/>
<path fill-rule="evenodd" d="M419.7,180.1H684.5V154.4H419.7v25.7Z" class="g0_201"/>
<path fill-rule="evenodd" d="M186.1,219.7h238V204.3h-238v15.4Z" class="g0_201"/>
<path fill-rule="evenodd" d="M186.1,235.1h238V219.7h-238v15.4Z" class="g0_201"/>
<path fill-rule="evenodd" d="M186.1,250.6H424.5V235.1H186.1v15.5Z" class="g0_201"/>
<path fill-rule="evenodd" d="M186.1,266H424.5V250.6H186.1V266Z" class="g0_201"/>
<path fill-rule="evenodd" d="M186.1,281.4H424.5V266H186.1v15.4Z" class="g0_201"/>
<path fill-rule="evenodd" d="M186.1,296.8H424.5V281.4H186.1v15.4Z" class="g0_201"/>
<path fill-rule="evenodd" d="M186.1,312.2H424.5V296.8H186.1v15.4Z" class="g0_201"/>
<path fill-rule="evenodd" d="M186.1,327.8H424.5V312.2H186.1v15.6Z" class="g0_201"/>
<path fill-rule="evenodd" d="M186.1,343.2H424.5V327.8H186.1v15.4Z" class="g0_201"/>
<path fill-rule="evenodd" d="M186.1,358.7H424.5V343.2H186.1v15.5Z" class="g0_201"/>
<path fill-rule="evenodd" d="M186.1,374.1H424.5V358.7H186.1v15.4Z" class="g0_201"/>
<path fill-rule="evenodd" d="M186.1,389.5H424.5V374.1H186.1v15.4Z" class="g0_201"/>
<path fill-rule="evenodd" d="M185.4,404.9H424.1V389.5H185.4v15.4Z" class="g0_201"/>
<path fill-rule="evenodd" d="M185.4,420.5H424.1V404.9H185.4v15.6Z" class="g0_201"/>
<path fill-rule="evenodd" d="M185.4,435.9H424.1V420.5H185.4v15.4Z" class="g0_201"/>
<path fill-rule="evenodd" d="M185.4,451.3H424.1V435.9H185.4v15.4Z" class="g0_201"/>
<path fill-rule="evenodd" d="M185.4,466.7H424.1V451.3H185.4v15.4Z" class="g0_201"/>
<path fill-rule="evenodd" d="M203.7,482.1H424.8V466.7H203.7v15.4Z" class="g0_201"/>
<path fill-rule="evenodd" d="M185.7,497.5H424.5V482.1H185.7v15.4Z" class="g0_201"/>
<path fill-rule="evenodd" d="M185.7,513H424.5V497.5H185.7V513Z" class="g0_201"/>
<path fill-rule="evenodd" d="M185.4,528.4H424.5V513H185.4v15.4Z" class="g0_201"/>
<path fill-rule="evenodd" d="M185.4,543.8H424.5V528.4H185.4v15.4Z" class="g0_201"/>
<path fill-rule="evenodd" d="M185.4,559.2H424.5V543.8H185.4v15.4Z" class="g0_201"/>
<path fill-rule="evenodd" d="M203.7,574.6H424.8V559.2H203.7v15.4Z" class="g0_201"/>
<path fill-rule="evenodd" d="M185.4,590H424.8V574.6H185.4V590Z" class="g0_201"/>
<path fill-rule="evenodd" d="M185.4,605.7H424.8V590H185.4v15.7Z" class="g0_201"/>
<path fill-rule="evenodd" d="M185.4,621.1H424.8V605.7H185.4v15.4Z" class="g0_201"/>
<path fill-rule="evenodd" d="M185.4,636.5H424.8V621.1H185.4v15.4Z" class="g0_201"/>
<path fill-rule="evenodd" d="M185.4,651.9H424.8V636.5H185.4v15.4Z" class="g0_201"/>
<path fill-rule="evenodd" d="M185.4,667.3H424.8V651.9H185.4v15.4Z" class="g0_201"/>
<path fill-rule="evenodd" d="M185.4,682.7H424.8V667.3H185.4v15.4Z" class="g0_201"/>
<path fill-rule="evenodd" d="M185.4,698.2H424.8V682.7H185.4v15.5Z" class="g0_201"/>
<path fill-rule="evenodd" d="M185.4,713.6H424.8V698.2H185.4v15.4Z" class="g0_201"/>
<path fill-rule="evenodd" d="M185,729H423.7V713.6H185V729Z" class="g0_201"/>
<path fill-rule="evenodd" d="M185,744.4H423.7V729H185v15.4Z" class="g0_201"/>
<path fill-rule="evenodd" d="M185.4,759.8H424.1V744.4H185.4v15.4Z" class="g0_201"/>
<path fill-rule="evenodd" d="M185.4,775.2H424.1V759.8H185.4v15.4Z" class="g0_201"/>
<path fill-rule="evenodd" d="M185.4,790.8H424.1V775.2H185.4v15.6Z" class="g0_201"/>
<path fill-rule="evenodd" d="M185.4,806.2H424.1V790.8H185.4v15.4Z" class="g0_201"/>
<path fill-rule="evenodd" d="M203.7,821.6H424.8V806.2H203.7v15.4Z" class="g0_201"/>
<path fill-rule="evenodd" d="M185.4,837.1H424.1V821.6H185.4v15.5Z" class="g0_201"/>
<path fill-rule="evenodd" d="M185.4,852.5H424.1V837.1H185.4v15.4Z" class="g0_201"/>
<path fill-rule="evenodd" d="M185.4,867.9H424.1V852.5H185.4v15.4Z" class="g0_201"/>
<path fill-rule="evenodd" d="M185.4,883.5H424.1V867.9H185.4v15.6Z" class="g0_201"/>
<path fill-rule="evenodd" d="M185.4,898.9H424.1V883.5H185.4v15.4Z" class="g0_201"/>
<path fill-rule="evenodd" d="M185.4,914.3H424.1V898.9H185.4v15.4Z" class="g0_201"/>
<path fill-rule="evenodd" d="M185.7,929.3H424.8v-15H185.7v15Z" class="g0_201"/>
<path fill-rule="evenodd" d="M444.5,219.3H684.4v-15H444.5v15Z" class="g0_201"/>
<path fill-rule="evenodd" d="M444.5,234.3H684.4v-15H444.5v15Z" class="g0_201"/>
<path fill-rule="evenodd" d="M444.5,249.4H684.4V234.3H444.5v15.1Z" class="g0_201"/>
<path fill-rule="evenodd" d="M444.5,264.4H684.4v-15H444.5v15Z" class="g0_201"/>
<path fill-rule="evenodd" d="M444.5,279.6H684.4V264.4H444.5v15.2Z" class="g0_201"/>
<path fill-rule="evenodd" d="M444.1,294.6H684v-15H444.1v15Z" class="g0_201"/>
<path fill-rule="evenodd" d="M444.1,309.7H684V294.6H444.1v15.1Z" class="g0_201"/>
<path fill-rule="evenodd" d="M444.1,324.7H684v-15H444.1v15Z" class="g0_201"/>
<path fill-rule="evenodd" d="M462.8,339.7H684.3v-15H462.8v15Z" class="g0_201"/>
<path fill-rule="evenodd" d="M444.8,354.8H684.4v-15H444.8v15Z" class="g0_201"/>
<path fill-rule="evenodd" d="M444.8,369.9H684.4V354.8H444.8v15.1Z" class="g0_201"/>
<path fill-rule="evenodd" d="M444.8,384.9H684.4v-15H444.8v15Z" class="g0_201"/>
<path fill-rule="evenodd" d="M444.8,399.9H684.4v-15H444.8v15Z" class="g0_201"/>
<path fill-rule="evenodd" d="M444.8,415H684.4V399.9H444.8V415Z" class="g0_201"/>
<path fill-rule="evenodd" d="M444.1,430H684V415H444.1v15Z" class="g0_201"/>
<path fill-rule="evenodd" d="M444.1,445.2H684V430H444.1v15.2Z" class="g0_201"/>
<path fill-rule="evenodd" d="M444.1,460.2H684v-15H444.1v15Z" class="g0_201"/>
<path fill-rule="evenodd" d="M444.1,475.3H684V460.2H444.1v15.1Z" class="g0_201"/>
<path fill-rule="evenodd" d="M444.1,490.3H684v-15H444.1v15Z" class="g0_201"/>
<path fill-rule="evenodd" d="M444.1,505.3H684v-15H444.1v15Z" class="g0_201"/>
<path fill-rule="evenodd" d="M444.1,520.4H684V505.3H444.1v15.1Z" class="g0_201"/>
<path fill-rule="evenodd" d="M444.1,535.4H684v-15H444.1v15Z" class="g0_201"/>
<path fill-rule="evenodd" d="M444.5,550.4H683.6v-15H444.5v15Z" class="g0_201"/>
<path fill-rule="evenodd" d="M444.5,565.5H683.6V550.4H444.5v15.1Z" class="g0_201"/>
<path fill-rule="evenodd" d="M444.5,580.5H683.6v-15H444.5v15Z" class="g0_201"/>
<path fill-rule="evenodd" d="M444.5,595.6H684V580.5H444.5v15.1Z" class="g0_201"/>
<path fill-rule="evenodd" d="M444.5,610.6H684v-15H444.5v15Z" class="g0_201"/>
<path fill-rule="evenodd" d="M444.5,625.8H683.6V610.6H444.5v15.2Z" class="g0_201"/>
<path fill-rule="evenodd" d="M444.5,640.9H683.6V625.8H444.5v15.1Z" class="g0_201"/>
<path fill-rule="evenodd" d="M444.5,655.9H683.6v-15H444.5v15Z" class="g0_201"/>
<path fill-rule="evenodd" d="M444.5,670.9H684v-15H444.5v15Z" class="g0_201"/>
<path fill-rule="evenodd" d="M444.5,686H684V670.9H444.5V686Z" class="g0_201"/>
<path fill-rule="evenodd" d="M444.5,701H684V686H444.5v15Z" class="g0_201"/>
<path fill-rule="evenodd" d="M444.1,716H683.6V701H444.1v15Z" class="g0_201"/>
<path fill-rule="evenodd" d="M444.1,731.1H683.6V716H444.1v15.1Z" class="g0_201"/>
<path fill-rule="evenodd" d="M444.1,746.1H683.6v-15H444.1v15Z" class="g0_201"/>
<path fill-rule="evenodd" d="M444.5,761.1H683.6v-15H444.5v15Z" class="g0_201"/>
<path fill-rule="evenodd" d="M444.5,776.2H683.6V761.1H444.5v15.1Z" class="g0_201"/>
<path fill-rule="evenodd" d="M444.1,791.2H684v-15H444.1v15Z" class="g0_201"/>
<path fill-rule="evenodd" d="M444.1,806.4H684V791.2H444.1v15.2Z" class="g0_201"/>
<path fill-rule="evenodd" d="M444.5,821.4H683.6v-15H444.5v15Z" class="g0_201"/>
<path fill-rule="evenodd" d="M444.5,836.5H683.6V821.4H444.5v15.1Z" class="g0_201"/>
<path fill-rule="evenodd" d="M443.7,851.6H684V836.5H443.7v15.1Z" class="g0_201"/>
<path fill-rule="evenodd" d="M443.7,866.6H684v-15H443.7v15Z" class="g0_201"/>
<path fill-rule="evenodd" d="M443.7,881.6H684v-15H443.7v15Z" class="g0_201"/>
<path fill-rule="evenodd" d="M444.5,896.7H684V881.6H444.5v15.1Z" class="g0_201"/>
<path fill-rule="evenodd" d="M444.5,911.7H684v-15H444.5v15Z" class="g0_201"/>
<path fill-rule="evenodd" d="M421.2,944.1H684.5V924.9H421.2v19.2Z" class="g0_201"/>
<path d="M433.6,203.2V915.3" class="g1_201"/>
</svg>