<?xml version="1.0" encoding="UTF-8" standalone="no"?>
<!DOCTYPE svg PUBLIC "-//W3C//DTD SVG 1.1//EN"
"http://www.w3.org/Graphics/SVG/1.1/DTD/svg11.dtd">
<svg viewBox="0 0 909 1285" version="1.1" xmlns="http://www.w3.org/2000/svg" xmlns:xlink="http://www.w3.org/1999/xlink">
<defs>
<style type="text/css"><![CDATA[
.g0_213{
fill: #FFFFFF;
}
.g1_213{
fill: none;
stroke: #000000;
stroke-width: 0.381;
stroke-linecap: butt;
stroke-linejoin: round;
}
]]></style>
</defs>
<path fill-rule="evenodd" d="M272.3,125.8H771.4V110H272.3v15.8Z" class="g0_213"/>
<path fill-rule="evenodd" d="M290.7,161.7H512.2V147.1H290.7v14.6Z" class="g0_213"/>
<path fill-rule="evenodd" d="M271.6,176.8H512.2V162.1H271.6v14.7Z" class="g0_213"/>
<path fill-rule="evenodd" d="M271.6,191.4H512.2V176.8H271.6v14.6Z" class="g0_213"/>
<path fill-rule="evenodd" d="M271.6,206.1H512.2V191.4H271.6v14.7Z" class="g0_213"/>
<path fill-rule="evenodd" d="M271.6,220.8H512.2V206.1H271.6v14.7Z" class="g0_213"/>
<path fill-rule="evenodd" d="M271.6,235.4H512.2V220.8H271.6v14.6Z" class="g0_213"/>
<path fill-rule="evenodd" d="M271.6,250.1H512.2V235.4H271.6v14.7Z" class="g0_213"/>
<path fill-rule="evenodd" d="M271.6,264.8H512.2V250.1H271.6v14.7Z" class="g0_213"/>
<path fill-rule="evenodd" d="M271.6,279.4H512.2V264.8H271.6v14.6Z" class="g0_213"/>
<path fill-rule="evenodd" d="M271.6,294.5H511.8V279.8H271.6v14.7Z" class="g0_213"/>
<path fill-rule="evenodd" d="M271.6,309.1H511.8V294.5H271.6v14.6Z" class="g0_213"/>
<path fill-rule="evenodd" d="M271.6,324.2H511.1V309.5H271.6v14.7Z" class="g0_213"/>
<path fill-rule="evenodd" d="M271.6,338.8H511.1V324.2H271.6v14.6Z" class="g0_213"/>
<path fill-rule="evenodd" d="M271.6,353.5H511.1V338.8H271.6v14.7Z" class="g0_213"/>
<path fill-rule="evenodd" d="M271.6,368.2H511.1V353.5H271.6v14.7Z" class="g0_213"/>
<path fill-rule="evenodd" d="M271.6,382.9H511.1V368.2H271.6v14.7Z" class="g0_213"/>
<path fill-rule="evenodd" d="M271.6,397.5H511.1V382.9H271.6v14.6Z" class="g0_213"/>
<path fill-rule="evenodd" d="M270.9,412.2H511.1V397.5H270.9v14.7Z" class="g0_213"/>
<path fill-rule="evenodd" d="M270.9,426.9H511.1V412.2H270.9v14.7Z" class="g0_213"/>
<path fill-rule="evenodd" d="M270.9,441.9H511.1v-15H270.9v15Z" class="g0_213"/>
<path fill-rule="evenodd" d="M270.9,456.6H511.1V441.9H270.9v14.7Z" class="g0_213"/>
<path fill-rule="evenodd" d="M270.9,471.2H511.1V456.6H270.9v14.6Z" class="g0_213"/>
<path fill-rule="evenodd" d="M270.9,485.9H511.1V471.2H270.9v14.7Z" class="g0_213"/>
<path fill-rule="evenodd" d="M270.9,500.6H511.1V485.9H270.9v14.7Z" class="g0_213"/>
<path fill-rule="evenodd" d="M270.9,515.2H511.1V500.6H270.9v14.6Z" class="g0_213"/>
<path fill-rule="evenodd" d="M270.9,529.9H511.1V515.2H270.9v14.7Z" class="g0_213"/>
<path fill-rule="evenodd" d="M270.5,544.6H510.3V529.9H270.5v14.7Z" class="g0_213"/>
<path fill-rule="evenodd" d="M270.5,559.2H510.3V544.6H270.5v14.6Z" class="g0_213"/>
<path fill-rule="evenodd" d="M270.5,573.9H510.3V559.2H270.5v14.7Z" class="g0_213"/>
<path fill-rule="evenodd" d="M270.5,588.6H510.3V573.9H270.5v14.7Z" class="g0_213"/>
<path fill-rule="evenodd" d="M270.5,603.3H510.3V588.6H270.5v14.7Z" class="g0_213"/>
<path fill-rule="evenodd" d="M270.1,618.5H510.3V603.6H270.1v14.9Z" class="g0_213"/>
<path fill-rule="evenodd" d="M270.1,633.2H510.3V618.5H270.1v14.7Z" class="g0_213"/>
<path fill-rule="evenodd" d="M270.1,647.8H510.3V633.2H270.1v14.6Z" class="g0_213"/>
<path fill-rule="evenodd" d="M270.1,662.5H510V647.8H270.1v14.7Z" class="g0_213"/>
<path fill-rule="evenodd" d="M270.1,677.2H510V662.5H270.1v14.7Z" class="g0_213"/>
<path fill-rule="evenodd" d="M270.1,691.8H510V677.2H270.1v14.6Z" class="g0_213"/>
<path fill-rule="evenodd" d="M270.1,706.5H510V691.8H270.1v14.7Z" class="g0_213"/>
<path fill-rule="evenodd" d="M270.1,721.2H510V706.5H270.1v14.7Z" class="g0_213"/>
<path fill-rule="evenodd" d="M270.1,735.8H510V721.2H270.1v14.6Z" class="g0_213"/>
<path fill-rule="evenodd" d="M270.1,750.5H510V735.8H270.1v14.7Z" class="g0_213"/>
<path fill-rule="evenodd" d="M288.8,765.5H512.2V750.9H288.8v14.6Z" class="g0_213"/>
<path fill-rule="evenodd" d="M270.1,780.2H510V765.5H270.1v14.7Z" class="g0_213"/>
<path fill-rule="evenodd" d="M270.1,794.9H510V780.2H270.1v14.7Z" class="g0_213"/>
<path fill-rule="evenodd" d="M270.1,809.5H510V794.9H270.1v14.6Z" class="g0_213"/>
<path fill-rule="evenodd" d="M269.4,824.2H510V809.5H269.4v14.7Z" class="g0_213"/>
<path fill-rule="evenodd" d="M269.4,838.9H510V824.2H269.4v14.7Z" class="g0_213"/>
<path fill-rule="evenodd" d="M269.4,853.6H510V838.9H269.4v14.7Z" class="g0_213"/>
<path fill-rule="evenodd" d="M269.4,868.2H510V853.6H269.4v14.6Z" class="g0_213"/>
<path fill-rule="evenodd" d="M269.4,882.9H510V868.2H269.4v14.7Z" class="g0_213"/>
<path fill-rule="evenodd" d="M269.4,897.6H510V882.9H269.4v14.7Z" class="g0_213"/>
<path fill-rule="evenodd" d="M271.6,912.2H512.2V897.6H271.6v14.6Z" class="g0_213"/>
<path fill-rule="evenodd" d="M532.3,161.7H771.4V147.1H532.3v14.6Z" class="g0_213"/>
<path fill-rule="evenodd" d="M532.3,176.4H771.4V161.7H532.3v14.7Z" class="g0_213"/>
<path fill-rule="evenodd" d="M532.3,191.4H771.1V176.8H532.3v14.6Z" class="g0_213"/>
<path fill-rule="evenodd" d="M532.3,206.1H771.1V191.4H532.3v14.7Z" class="g0_213"/>
<path fill-rule="evenodd" d="M532.3,220.8H771.1V206.1H532.3v14.7Z" class="g0_213"/>
<path fill-rule="evenodd" d="M532.3,235.4H771.1V220.8H532.3v14.6Z" class="g0_213"/>
<path fill-rule="evenodd" d="M532,250.1H771.4V235.4H532v14.7Z" class="g0_213"/>
<path fill-rule="evenodd" d="M532,264.8H771.4V250.1H532v14.7Z" class="g0_213"/>
<path fill-rule="evenodd" d="M532,279.4H771.4V264.8H532v14.6Z" class="g0_213"/>
<path fill-rule="evenodd" d="M532,294.1H771.4V279.4H532v14.7Z" class="g0_213"/>
<path fill-rule="evenodd" d="M531.6,309.5H771.1V294.8H531.6v14.7Z" class="g0_213"/>
<path fill-rule="evenodd" d="M531.6,324.2H771.1V309.5H531.6v14.7Z" class="g0_213"/>
<path fill-rule="evenodd" d="M531.6,338.8H771.1V324.2H531.6v14.6Z" class="g0_213"/>
<path fill-rule="evenodd" d="M531.6,353.5H771.1V338.8H531.6v14.7Z" class="g0_213"/>
<path fill-rule="evenodd" d="M532,369.1H771.1V354.3H532v14.8Z" class="g0_213"/>
<path fill-rule="evenodd" d="M532,383.8H771.1V369.1H532v14.7Z" class="g0_213"/>
<path fill-rule="evenodd" d="M532,398.5H771.1V383.8H532v14.7Z" class="g0_213"/>
<path fill-rule="evenodd" d="M549.6,413.5H771.4V398.8H549.6v14.7Z" class="g0_213"/>
<path fill-rule="evenodd" d="M531.2,428.2H771.1V413.5H531.2v14.7Z" class="g0_213"/>
<path fill-rule="evenodd" d="M531.2,442.8H771.1V428.2H531.2v14.6Z" class="g0_213"/>
<path fill-rule="evenodd" d="M549.6,457.5H771.4V442.8H549.6v14.7Z" class="g0_213"/>
<path fill-rule="evenodd" d="M530.9,472.2H770.7V457.5H530.9v14.7Z" class="g0_213"/>
<path fill-rule="evenodd" d="M530.9,486.8H770.7V472.2H530.9v14.6Z" class="g0_213"/>
<path fill-rule="evenodd" d="M530.9,501.5H770.7V486.8H530.9v14.7Z" class="g0_213"/>
<path fill-rule="evenodd" d="M530.9,516.2H770.7V501.5H530.9v14.7Z" class="g0_213"/>
<path fill-rule="evenodd" d="M530.5,531.2H771.1V516.5H530.5v14.7Z" class="g0_213"/>
<path fill-rule="evenodd" d="M530.5,545.9H771.1V531.2H530.5v14.7Z" class="g0_213"/>
<path fill-rule="evenodd" d="M530.5,560.5H771.1V545.9H530.5v14.6Z" class="g0_213"/>
<path fill-rule="evenodd" d="M530.5,575.2H770.7V560.5H530.5v14.7Z" class="g0_213"/>
<path fill-rule="evenodd" d="M530.5,589.9H770.7V575.2H530.5v14.7Z" class="g0_213"/>
<path fill-rule="evenodd" d="M530.5,604.6H770.7V589.9H530.5v14.7Z" class="g0_213"/>
<path fill-rule="evenodd" d="M530.5,619.2H770.7V604.6H530.5v14.6Z" class="g0_213"/>
<path fill-rule="evenodd" d="M530.5,633.9H770.7V619.2H530.5v14.7Z" class="g0_213"/>
<path fill-rule="evenodd" d="M530.5,648.6H770.7V633.9H530.5v14.7Z" class="g0_213"/>
<path fill-rule="evenodd" d="M530.1,663.6H770.7V648.9H530.1v14.7Z" class="g0_213"/>
<path fill-rule="evenodd" d="M530.1,678.3H770.7V663.6H530.1v14.7Z" class="g0_213"/>
<path fill-rule="evenodd" d="M530.1,692.9H770.7V678.3H530.1v14.6Z" class="g0_213"/>
<path fill-rule="evenodd" d="M530.1,707.6H770.7V692.9H530.1v14.7Z" class="g0_213"/>
<path fill-rule="evenodd" d="M530.9,722.3H770.7V707.6H530.9v14.7Z" class="g0_213"/>
<path fill-rule="evenodd" d="M530.9,736.9H770.7V722.3H530.9v14.6Z" class="g0_213"/>
<path fill-rule="evenodd" d="M530.9,751.6H770.3V736.9H530.9v14.7Z" class="g0_213"/>
<path fill-rule="evenodd" d="M530.9,766.3H770.3V751.6H530.9v14.7Z" class="g0_213"/>
<path fill-rule="evenodd" d="M530.1,780.9H770.7V766.3H530.1v14.6Z" class="g0_213"/>
<path fill-rule="evenodd" d="M530.1,795.6H770.7V780.9H530.1v14.7Z" class="g0_213"/>
<path fill-rule="evenodd" d="M530.1,810.3H770.7V795.6H530.1v14.7Z" class="g0_213"/>
<path fill-rule="evenodd" d="M530.1,824.9H770.7V810.3H530.1v14.6Z" class="g0_213"/>
<path fill-rule="evenodd" d="M530.1,839.6H770.7V824.9H530.1v14.7Z" class="g0_213"/>
<path fill-rule="evenodd" d="M530.5,854.7H770.3V840H530.5v14.7Z" class="g0_213"/>
<path fill-rule="evenodd" d="M530.5,869.3H770.3V854.7H530.5v14.6Z" class="g0_213"/>
<path fill-rule="evenodd" d="M507,930H771.4V910.8H507V930Z" class="g0_213"/>
<path d="M210,112.9V955.5M198.6,195.1V354.6M520.1,147.8V917" class="g1_213"/>
</svg>