<?xml version="1.0" encoding="UTF-8" standalone="no"?>
<!DOCTYPE svg PUBLIC "-//W3C//DTD SVG 1.1//EN"
"http://www.w3.org/Graphics/SVG/1.1/DTD/svg11.dtd">
<svg viewBox="0 0 909 1285" version="1.1" xmlns="http://www.w3.org/2000/svg" xmlns:xlink="http://www.w3.org/1999/xlink">
<defs>
<style type="text/css"><![CDATA[
.g0_141{
fill: #FFFFFF;
}
.g1_141{
fill: none;
stroke: #000000;
stroke-width: 0.381;
stroke-linecap: butt;
stroke-linejoin: round;
}
]]></style>
</defs>
<path fill-rule="evenodd" d="M575.6,129.1H682V110H575.6v19.1Z" class="g0_141"/>
<path fill-rule="evenodd" d="M181.7,164.3H420.8V149.6H181.7v14.7Z" class="g0_141"/>
<path fill-rule="evenodd" d="M181.7,179H420.8V164.3H181.7V179Z" class="g0_141"/>
<path fill-rule="evenodd" d="M181.3,194H420.1V179.3H181.3V194Z" class="g0_141"/>
<path fill-rule="evenodd" d="M181.3,208.7H420.1V194H181.3v14.7Z" class="g0_141"/>
<path fill-rule="evenodd" d="M180.6,223.3H421.2V208.7H180.6v14.6Z" class="g0_141"/>
<path fill-rule="evenodd" d="M180.6,238H421.2V223.3H180.6V238Z" class="g0_141"/>
<path fill-rule="evenodd" d="M180.6,252.7H421.2V238H180.6v14.7Z" class="g0_141"/>
<path fill-rule="evenodd" d="M180.6,267.3H421.2V252.7H180.6v14.6Z" class="g0_141"/>
<path fill-rule="evenodd" d="M180.6,282H421.2V267.3H180.6V282Z" class="g0_141"/>
<path fill-rule="evenodd" d="M199.3,296.7H421.2V282H199.3v14.7Z" class="g0_141"/>
<path fill-rule="evenodd" d="M181,311.7H420.4V297H181v14.7Z" class="g0_141"/>
<path fill-rule="evenodd" d="M181,326.4H420.4V311.7H181v14.7Z" class="g0_141"/>
<path fill-rule="evenodd" d="M181,341H420.4V326.4H181V341Z" class="g0_141"/>
<path fill-rule="evenodd" d="M181,355.7H420.4V341H181v14.7Z" class="g0_141"/>
<path fill-rule="evenodd" d="M181,370.4H420.1V355.7H181v14.7Z" class="g0_141"/>
<path fill-rule="evenodd" d="M181,385.1H420.1V370.4H181v14.7Z" class="g0_141"/>
<path fill-rule="evenodd" d="M180.2,400.1H420.1V385.4H180.2v14.7Z" class="g0_141"/>
<path fill-rule="evenodd" d="M180.2,414.8H420.1V400.1H180.2v14.7Z" class="g0_141"/>
<path fill-rule="evenodd" d="M180.2,429.4H420.1V414.8H180.2v14.6Z" class="g0_141"/>
<path fill-rule="evenodd" d="M181,444.5H420.1V429.8H181v14.7Z" class="g0_141"/>
<path fill-rule="evenodd" d="M181,459.1H420.1V444.5H181v14.6Z" class="g0_141"/>
<path fill-rule="evenodd" d="M198.9,473.8H421.2V459.1H198.9v14.7Z" class="g0_141"/>
<path fill-rule="evenodd" d="M180.6,488.8H420.1V474.2H180.6v14.6Z" class="g0_141"/>
<path fill-rule="evenodd" d="M180.6,503.5H420.1V488.8H180.6v14.7Z" class="g0_141"/>
<path fill-rule="evenodd" d="M180.6,518.2H420.1V503.5H180.6v14.7Z" class="g0_141"/>
<path fill-rule="evenodd" d="M180.6,532.8H420.1V518.2H180.6v14.6Z" class="g0_141"/>
<path fill-rule="evenodd" d="M180.2,547.9H419.7V533.2H180.2v14.7Z" class="g0_141"/>
<path fill-rule="evenodd" d="M180.2,562.5H419.7V547.9H180.2v14.6Z" class="g0_141"/>
<path fill-rule="evenodd" d="M180.2,577.2H419.7V562.5H180.2v14.7Z" class="g0_141"/>
<path fill-rule="evenodd" d="M180.2,591.9H419.7V577.2H180.2v14.7Z" class="g0_141"/>
<path fill-rule="evenodd" d="M180.2,607.1H420.1V592.2H180.2v14.9Z" class="g0_141"/>
<path fill-rule="evenodd" d="M180.2,621.8H420.1V607.1H180.2v14.7Z" class="g0_141"/>
<path fill-rule="evenodd" d="M180.2,636.5H420.1V621.8H180.2v14.7Z" class="g0_141"/>
<path fill-rule="evenodd" d="M180.2,651.1H420.1V636.5H180.2v14.6Z" class="g0_141"/>
<path fill-rule="evenodd" d="M180.2,665.8H420.1V651.1H180.2v14.7Z" class="g0_141"/>
<path fill-rule="evenodd" d="M180.2,680.5H420.1V665.8H180.2v14.7Z" class="g0_141"/>
<path fill-rule="evenodd" d="M180.2,695.1H419.3V680.5H180.2v14.6Z" class="g0_141"/>
<path fill-rule="evenodd" d="M180.2,709.8H419.3V695.1H180.2v14.7Z" class="g0_141"/>
<path fill-rule="evenodd" d="M180.2,724.5H419.3V709.8H180.2v14.7Z" class="g0_141"/>
<path fill-rule="evenodd" d="M179.9,739.1H419.7V724.5H179.9v14.6Z" class="g0_141"/>
<path fill-rule="evenodd" d="M179.9,753.8H419.7V739.1H179.9v14.7Z" class="g0_141"/>
<path fill-rule="evenodd" d="M179.9,768.5H419.7V753.8H179.9v14.7Z" class="g0_141"/>
<path fill-rule="evenodd" d="M179.9,783.1H419.7V768.5H179.9v14.6Z" class="g0_141"/>
<path fill-rule="evenodd" d="M179.9,797.8H419.7V783.1H179.9v14.7Z" class="g0_141"/>
<path fill-rule="evenodd" d="M180.6,812.8H419.3V798.2H180.6v14.6Z" class="g0_141"/>
<path fill-rule="evenodd" d="M180.6,827.5H419.3V812.8H180.6v14.7Z" class="g0_141"/>
<path fill-rule="evenodd" d="M180.6,842.2H419.3V827.5H180.6v14.7Z" class="g0_141"/>
<path fill-rule="evenodd" d="M180.6,856.9H419.3V842.2H180.6v14.7Z" class="g0_141"/>
<path fill-rule="evenodd" d="M180.2,871.9H419V857.2H180.2v14.7Z" class="g0_141"/>
<path fill-rule="evenodd" d="M180.2,886.6H419V871.9H180.2v14.7Z" class="g0_141"/>
<path fill-rule="evenodd" d="M181,901.2H421.2V886.6H181v14.6Z" class="g0_141"/>
<path fill-rule="evenodd" d="M440.8,163.9H681.4V149.3H440.8v14.6Z" class="g0_141"/>
<path fill-rule="evenodd" d="M440.8,178.6H681.4V163.9H440.8v14.7Z" class="g0_141"/>
<path fill-rule="evenodd" d="M440.8,193.3H681.4V178.6H440.8v14.7Z" class="g0_141"/>
<path fill-rule="evenodd" d="M440.8,207.9H681.4V193.3H440.8v14.6Z" class="g0_141"/>
<path fill-rule="evenodd" d="M440.8,222.6H681.4V207.9H440.8v14.7Z" class="g0_141"/>
<path fill-rule="evenodd" d="M440.8,237.3H681.4V222.6H440.8v14.7Z" class="g0_141"/>
<path fill-rule="evenodd" d="M440.8,251.9H680.7V237.3H440.8v14.6Z" class="g0_141"/>
<path fill-rule="evenodd" d="M440.8,266.6H680.7V251.9H440.8v14.7Z" class="g0_141"/>
<path fill-rule="evenodd" d="M441.2,281.3H680.7V266.6H441.2v14.7Z" class="g0_141"/>
<path fill-rule="evenodd" d="M441.2,295.9H680.7V281.3H441.2v14.6Z" class="g0_141"/>
<path fill-rule="evenodd" d="M441.2,310.6H681.4V295.9H441.2v14.7Z" class="g0_141"/>
<path fill-rule="evenodd" d="M441.2,325.3H681.4V310.6H441.2v14.7Z" class="g0_141"/>
<path fill-rule="evenodd" d="M440.8,339.9H681.1V325.3H440.8v14.6Z" class="g0_141"/>
<path fill-rule="evenodd" d="M440.8,354.6H681.1V339.9H440.8v14.7Z" class="g0_141"/>
<path fill-rule="evenodd" d="M440.8,369.3H681.1V354.6H440.8v14.7Z" class="g0_141"/>
<path fill-rule="evenodd" d="M440.8,384H681.1V369.3H440.8V384Z" class="g0_141"/>
<path fill-rule="evenodd" d="M440.8,398.6H681.1V384H440.8v14.6Z" class="g0_141"/>
<path fill-rule="evenodd" d="M459.2,413.7H681.4V399H459.2v14.7Z" class="g0_141"/>
<path fill-rule="evenodd" d="M440.8,428.7H680.7V414H440.8v14.7Z" class="g0_141"/>
<path fill-rule="evenodd" d="M440.8,443.4H680.7V428.7H440.8v14.7Z" class="g0_141"/>
<path fill-rule="evenodd" d="M440.8,458H680.7V443.4H440.8V458Z" class="g0_141"/>
<path fill-rule="evenodd" d="M440.8,473.1H680.7V458H440.8v15.1Z" class="g0_141"/>
<path fill-rule="evenodd" d="M440.8,487.7H680.7V473.1H440.8v14.6Z" class="g0_141"/>
<path fill-rule="evenodd" d="M440.8,502.4H680.7V487.7H440.8v14.7Z" class="g0_141"/>
<path fill-rule="evenodd" d="M440.8,517.1H680.3V502.4H440.8v14.7Z" class="g0_141"/>
<path fill-rule="evenodd" d="M440.8,531.7H680.3V517.1H440.8v14.6Z" class="g0_141"/>
<path fill-rule="evenodd" d="M458.8,546.4H681.4V531.7H458.8v14.7Z" class="g0_141"/>
<path fill-rule="evenodd" d="M440.1,561.4H680V546.8H440.1v14.6Z" class="g0_141"/>
<path fill-rule="evenodd" d="M440.1,576.1H680V561.4H440.1v14.7Z" class="g0_141"/>
<path fill-rule="evenodd" d="M440.1,590.8H680V576.1H440.1v14.7Z" class="g0_141"/>
<path fill-rule="evenodd" d="M458.4,605.8h223V591.1h-223v14.7Z" class="g0_141"/>
<path fill-rule="evenodd" d="M440.4,620.5H680V605.8H440.4v14.7Z" class="g0_141"/>
<path fill-rule="evenodd" d="M440.4,635.2H680V620.5H440.4v14.7Z" class="g0_141"/>
<path fill-rule="evenodd" d="M440.4,650.6H680.3V635.9H440.4v14.7Z" class="g0_141"/>
<path fill-rule="evenodd" d="M440.4,665.2H680.3V650.6H440.4v14.6Z" class="g0_141"/>
<path fill-rule="evenodd" d="M439.7,680.5H680.3V665.6H439.7v14.9Z" class="g0_141"/>
<path fill-rule="evenodd" d="M439.7,695.1H680.3V680.5H439.7v14.6Z" class="g0_141"/>
<path fill-rule="evenodd" d="M439.7,709.8H680.3V695.1H439.7v14.7Z" class="g0_141"/>
<path fill-rule="evenodd" d="M439.7,724.5H680.3V709.8H439.7v14.7Z" class="g0_141"/>
<path fill-rule="evenodd" d="M439.7,739.5H680V724.8H439.7v14.7Z" class="g0_141"/>
<path fill-rule="evenodd" d="M439.7,754.2H680V739.5H439.7v14.7Z" class="g0_141"/>
<path fill-rule="evenodd" d="M439.7,768.8H680V754.2H439.7v14.6Z" class="g0_141"/>
<path fill-rule="evenodd" d="M440.1,783.9H679.6V769.2H440.1v14.7Z" class="g0_141"/>
<path fill-rule="evenodd" d="M440.1,798.5H679.6V783.9H440.1v14.6Z" class="g0_141"/>
<path fill-rule="evenodd" d="M439.7,813.9H680V799.3H439.7v14.6Z" class="g0_141"/>
<path fill-rule="evenodd" d="M439.7,828.6H680V813.9H439.7v14.7Z" class="g0_141"/>
<path fill-rule="evenodd" d="M439.7,843.3H680V828.6H439.7v14.7Z" class="g0_141"/>
<path fill-rule="evenodd" d="M439.7,858H680V843.3H439.7V858Z" class="g0_141"/>
<path fill-rule="evenodd" d="M439.7,872.6H680V858H439.7v14.6Z" class="g0_141"/>
<path fill-rule="evenodd" d="M440.4,887.7H679.6V873H440.4v14.7Z" class="g0_141"/>
<path fill-rule="evenodd" d="M440.4,902.3H679.6V887.7H440.4v14.6Z" class="g0_141"/>
<path fill-rule="evenodd" d="M417.5,935.3H682V917.7H417.5v17.6Z" class="g0_141"/>
<path d="M428.8,148.8V917.7" class="g1_141"/>
</svg>