<?xml version="1.0" encoding="UTF-8" standalone="no"?>
<!DOCTYPE svg PUBLIC "-//W3C//DTD SVG 1.1//EN"
"http://www.w3.org/Graphics/SVG/1.1/DTD/svg11.dtd">
<svg viewBox="0 0 909 1285" version="1.1" xmlns="http://www.w3.org/2000/svg" xmlns:xlink="http://www.w3.org/1999/xlink">
<defs>
<style type="text/css"><![CDATA[
.g0_303{
fill: #FFFFFF;
}
.g1_303{
fill: none;
stroke: #000000;
stroke-width: 0.381;
stroke-linecap: butt;
stroke-linejoin: round;
}
]]></style>
</defs>
<path fill-rule="evenodd" d="M268.7,125.8H767.4V110H268.7v15.8Z" class="g0_303"/>
<path fill-rule="evenodd" d="M268.3,161.7H507.8v-15H268.3v15Z" class="g0_303"/>
<path fill-rule="evenodd" d="M268.3,176.9H507.8V161.7H268.3v15.2Z" class="g0_303"/>
<path fill-rule="evenodd" d="M268.3,192H507.8V176.9H268.3V192Z" class="g0_303"/>
<path fill-rule="evenodd" d="M268.3,207H507.8V192H268.3v15Z" class="g0_303"/>
<path fill-rule="evenodd" d="M268.3,222H507.8V207H268.3v15Z" class="g0_303"/>
<path fill-rule="evenodd" d="M267.6,237.1H507.8V222H267.6v15.1Z" class="g0_303"/>
<path fill-rule="evenodd" d="M267.6,252.1H507.8v-15H267.6v15Z" class="g0_303"/>
<path fill-rule="evenodd" d="M267.6,267.1H507.8v-15H267.6v15Z" class="g0_303"/>
<path fill-rule="evenodd" d="M267.6,282.2H507.8V267.1H267.6v15.1Z" class="g0_303"/>
<path fill-rule="evenodd" d="M267.6,297.2H507.8v-15H267.6v15Z" class="g0_303"/>
<path fill-rule="evenodd" d="M267.9,312.2H507.8v-15H267.9v15Z" class="g0_303"/>
<path fill-rule="evenodd" d="M267.9,327.3H507.8V312.2H267.9v15.1Z" class="g0_303"/>
<path fill-rule="evenodd" d="M267.9,342.5H507.8V327.3H267.9v15.2Z" class="g0_303"/>
<path fill-rule="evenodd" d="M267.9,357.6H507.8V342.5H267.9v15.1Z" class="g0_303"/>
<path fill-rule="evenodd" d="M267.9,372.6H507.8v-15H267.9v15Z" class="g0_303"/>
<path fill-rule="evenodd" d="M267.9,387.6H507.8v-15H267.9v15Z" class="g0_303"/>
<path fill-rule="evenodd" d="M267.1,402.7H507.8V387.6H267.1v15.1Z" class="g0_303"/>
<path fill-rule="evenodd" d="M267.1,417.7H507.8v-15H267.1v15Z" class="g0_303"/>
<path fill-rule="evenodd" d="M267.1,432.7H507.8v-15H267.1v15Z" class="g0_303"/>
<path fill-rule="evenodd" d="M267.1,447.8H507.8V432.7H267.1v15.1Z" class="g0_303"/>
<path fill-rule="evenodd" d="M267.1,462.8H507.8v-15H267.1v15Z" class="g0_303"/>
<path fill-rule="evenodd" d="M267.1,477.8H506.7v-15H267.1v15Z" class="g0_303"/>
<path fill-rule="evenodd" d="M267.1,492.9H506.7V477.8H267.1v15.1Z" class="g0_303"/>
<path fill-rule="evenodd" d="M267.1,507.9H506.7v-15H267.1v15Z" class="g0_303"/>
<path fill-rule="evenodd" d="M267.1,523.1H506.7V507.9H267.1v15.2Z" class="g0_303"/>
<path fill-rule="evenodd" d="M267.1,538.2H506.7V523.1H267.1v15.1Z" class="g0_303"/>
<path fill-rule="evenodd" d="M267.1,553.2H506.7v-15H267.1v15Z" class="g0_303"/>
<path fill-rule="evenodd" d="M267.1,568.2H506.7v-15H267.1v15Z" class="g0_303"/>
<path fill-rule="evenodd" d="M267.1,583.3H506.7V568.2H267.1v15.1Z" class="g0_303"/>
<path fill-rule="evenodd" d="M265.7,598.3H505.9v-15H265.7v15Z" class="g0_303"/>
<path fill-rule="evenodd" d="M265.7,613.4H505.9V598.3H265.7v15.1Z" class="g0_303"/>
<path fill-rule="evenodd" d="M265.7,628.4H505.9v-15H265.7v15Z" class="g0_303"/>
<path fill-rule="evenodd" d="M265.7,643.4H505.9v-15H265.7v15Z" class="g0_303"/>
<path fill-rule="evenodd" d="M265.7,658.5H505.9V643.4H265.7v15.1Z" class="g0_303"/>
<path fill-rule="evenodd" d="M265.7,673.5H505.9v-15H265.7v15Z" class="g0_303"/>
<path fill-rule="evenodd" d="M265.7,688.5H505.9v-15H265.7v15Z" class="g0_303"/>
<path fill-rule="evenodd" d="M265.7,703.7H505.9V688.5H265.7v15.2Z" class="g0_303"/>
<path fill-rule="evenodd" d="M285.2,718.8H507.8V703.7H285.2v15.1Z" class="g0_303"/>
<path fill-rule="evenodd" d="M266,733.8H505.9v-15H266v15Z" class="g0_303"/>
<path fill-rule="evenodd" d="M266,748.8H505.9v-15H266v15Z" class="g0_303"/>
<path fill-rule="evenodd" d="M266,763.9H505.9V748.8H266v15.1Z" class="g0_303"/>
<path fill-rule="evenodd" d="M266,778.9H505.9v-15H266v15Z" class="g0_303"/>
<path fill-rule="evenodd" d="M266,793.9H505.9v-15H266v15Z" class="g0_303"/>
<path fill-rule="evenodd" d="M266.4,809h215V793.9h-215V809Z" class="g0_303"/>
<path fill-rule="evenodd" d="M266.4,824h215V809h-215v15Z" class="g0_303"/>
<path fill-rule="evenodd" d="M284.8,839.1h223V824h-223v15.1Z" class="g0_303"/>
<path fill-rule="evenodd" d="M266.8,854.1h241v-15h-241v15Z" class="g0_303"/>
<path fill-rule="evenodd" d="M266.8,869.2h241V854.1h-241v15.1Z" class="g0_303"/>
<path fill-rule="evenodd" d="M267.6,884.4H507.8V869.2H267.6v15.2Z" class="g0_303"/>
<path fill-rule="evenodd" d="M527.9,161.7H767.4v-15H527.9v15Z" class="g0_303"/>
<path fill-rule="evenodd" d="M527.9,176.9H767.4V161.7H527.9v15.2Z" class="g0_303"/>
<path fill-rule="evenodd" d="M527.9,192H767.4V176.9H527.9V192Z" class="g0_303"/>
<path fill-rule="evenodd" d="M527.9,207H767.4V192H527.9v15Z" class="g0_303"/>
<path fill-rule="evenodd" d="M527.9,222H767.4V207H527.9v15Z" class="g0_303"/>
<path fill-rule="evenodd" d="M527.2,237.1H767V222H527.2v15.1Z" class="g0_303"/>
<path fill-rule="evenodd" d="M527.2,252.1H767v-15H527.2v15Z" class="g0_303"/>
<path fill-rule="evenodd" d="M527.2,267.1H767v-15H527.2v15Z" class="g0_303"/>
<path fill-rule="evenodd" d="M527.2,282.2H767V267.1H527.2v15.1Z" class="g0_303"/>
<path fill-rule="evenodd" d="M527.6,297.2H740.8v-15H527.6v15Z" class="g0_303"/>
<path fill-rule="evenodd" d="M527.6,312.2H740.8v-15H527.6v15Z" class="g0_303"/>
<path fill-rule="evenodd" d="M526.8,327.3H766.7V312.2H526.8v15.1Z" class="g0_303"/>
<path fill-rule="evenodd" d="M526.8,342.5H766.7V327.3H526.8v15.2Z" class="g0_303"/>
<path fill-rule="evenodd" d="M526.8,357.6H766.7V342.5H526.8v15.1Z" class="g0_303"/>
<path fill-rule="evenodd" d="M526.8,372.6H766.7v-15H526.8v15Z" class="g0_303"/>
<path fill-rule="evenodd" d="M526.8,387.6H766.7v-15H526.8v15Z" class="g0_303"/>
<path fill-rule="evenodd" d="M526.8,402.7H766.7V387.6H526.8v15.1Z" class="g0_303"/>
<path fill-rule="evenodd" d="M526.8,417.7H766.7v-15H526.8v15Z" class="g0_303"/>
<path fill-rule="evenodd" d="M526.8,432.7H766.7v-15H526.8v15Z" class="g0_303"/>
<path fill-rule="evenodd" d="M526.5,447.8H767.4V432.7H526.5v15.1Z" class="g0_303"/>
<path fill-rule="evenodd" d="M526.5,462.8H767.4v-15H526.5v15Z" class="g0_303"/>
<path fill-rule="evenodd" d="M526.5,477.8H767.4v-15H526.5v15Z" class="g0_303"/>
<path fill-rule="evenodd" d="M526.5,492.9H767.4V477.8H526.5v15.1Z" class="g0_303"/>
<path fill-rule="evenodd" d="M526.5,507.9H767.4v-15H526.5v15Z" class="g0_303"/>
<path fill-rule="evenodd" d="M526.5,523.1H767.4V507.9H526.5v15.2Z" class="g0_303"/>
<path fill-rule="evenodd" d="M526.1,538.2H765.9V523.1H526.1v15.1Z" class="g0_303"/>
<path fill-rule="evenodd" d="M526.1,553.2H765.9v-15H526.1v15Z" class="g0_303"/>
<path fill-rule="evenodd" d="M526.1,568.2H765.9v-15H526.1v15Z" class="g0_303"/>
<path fill-rule="evenodd" d="M526.1,583.3H765.9V568.2H526.1v15.1Z" class="g0_303"/>
<path fill-rule="evenodd" d="M526.1,598.3H765.9v-15H526.1v15Z" class="g0_303"/>
<path fill-rule="evenodd" d="M526.1,613.4H765.9V598.3H526.1v15.1Z" class="g0_303"/>
<path fill-rule="evenodd" d="M526.1,628.4H765.9v-15H526.1v15Z" class="g0_303"/>
<path fill-rule="evenodd" d="M526.1,643.4H765.9v-15H526.1v15Z" class="g0_303"/>
<path fill-rule="evenodd" d="M526.1,658.5H765.9V643.4H526.1v15.1Z" class="g0_303"/>
<path fill-rule="evenodd" d="M526.1,673.5H765.9v-15H526.1v15Z" class="g0_303"/>
<path fill-rule="evenodd" d="M526.1,688.5H765.9v-15H526.1v15Z" class="g0_303"/>
<path fill-rule="evenodd" d="M526.1,703.7H765.9V688.5H526.1v15.2Z" class="g0_303"/>
<path fill-rule="evenodd" d="M526.1,718.8H765.9V703.7H526.1v15.1Z" class="g0_303"/>
<path fill-rule="evenodd" d="M526.1,733.8H765.9v-15H526.1v15Z" class="g0_303"/>
<path fill-rule="evenodd" d="M526.1,748.8H765.9v-15H526.1v15Z" class="g0_303"/>
<path fill-rule="evenodd" d="M526.1,763.9H765.9V748.8H526.1v15.1Z" class="g0_303"/>
<path fill-rule="evenodd" d="M526.1,778.9H765.9v-15H526.1v15Z" class="g0_303"/>
<path fill-rule="evenodd" d="M526.1,793.9H765.9v-15H526.1v15Z" class="g0_303"/>
<path fill-rule="evenodd" d="M526.1,809H765.9V793.9H526.1V809Z" class="g0_303"/>
<path fill-rule="evenodd" d="M526.1,824H765.9V809H526.1v15Z" class="g0_303"/>
<path fill-rule="evenodd" d="M526.1,839.1H714.6V824H526.1v15.1Z" class="g0_303"/>
<path fill-rule="evenodd" d="M526.1,854.1H714.6v-15H526.1v15Z" class="g0_303"/>
<path fill-rule="evenodd" d="M526.1,869.2H765.2V854.1H526.1v15.1Z" class="g0_303"/>
<path fill-rule="evenodd" d="M526.1,884.4H765.2V869.2H526.1v15.2Z" class="g0_303"/>
<path fill-rule="evenodd" d="M526.1,899.4H765.2v-15H526.1v15Z" class="g0_303"/>
<path fill-rule="evenodd" d="M502.3,932H767.4V914.4H502.3V932Z" class="g0_303"/>
<path d="M207.7,88V853.3M209.2,89.5V772.9m-18,-24.4V895.9m3.7,-82.2v68.6m11,-427.6V997m1.4,-147V997m308,-848.8V917.1" class="g1_303"/>
</svg>