<?xml version="1.0" encoding="UTF-8" standalone="no"?>
<!DOCTYPE svg PUBLIC "-//W3C//DTD SVG 1.1//EN"
"http://www.w3.org/Graphics/SVG/1.1/DTD/svg11.dtd">
<svg viewBox="0 0 909 1285" version="1.1" xmlns="http://www.w3.org/2000/svg" xmlns:xlink="http://www.w3.org/1999/xlink">
<defs>
<style type="text/css"><![CDATA[
.g0_185{
fill: #FFFFFF;
}
.g1_185{
fill: none;
stroke: #000000;
stroke-width: 0.763;
stroke-linecap: butt;
stroke-linejoin: round;
}
.g2_185{
fill: none;
stroke: #000000;
stroke-width: 0.381;
stroke-linecap: butt;
stroke-linejoin: round;
}
]]></style>
</defs>
<path fill-rule="evenodd" d="M280,125.8H778V110H280v15.8Z" class="g0_185"/>
<path fill-rule="evenodd" d="M298.4,161.4H519.1V146.3H298.4v15.1Z" class="g0_185"/>
<path fill-rule="evenodd" d="M279.7,176.9H519.1V161.7H279.7v15.2Z" class="g0_185"/>
<path fill-rule="evenodd" d="M279.7,192H519.1V176.9H279.7V192Z" class="g0_185"/>
<path fill-rule="evenodd" d="M279.7,207H519.1V192H279.7v15Z" class="g0_185"/>
<path fill-rule="evenodd" d="M279.7,222H519.1V207H279.7v15Z" class="g0_185"/>
<path fill-rule="evenodd" d="M279.7,237.1H519.1V222H279.7v15.1Z" class="g0_185"/>
<path fill-rule="evenodd" d="M279.7,252.1H519.1v-15H279.7v15Z" class="g0_185"/>
<path fill-rule="evenodd" d="M279.7,267.1H519.1v-15H279.7v15Z" class="g0_185"/>
<path fill-rule="evenodd" d="M279.7,282.2H519.1V267.1H279.7v15.1Z" class="g0_185"/>
<path fill-rule="evenodd" d="M279.7,297.2H519.1v-15H279.7v15Z" class="g0_185"/>
<path fill-rule="evenodd" d="M279.7,312.2H519.1v-15H279.7v15Z" class="g0_185"/>
<path fill-rule="evenodd" d="M279.7,327.3H519.1V312.2H279.7v15.1Z" class="g0_185"/>
<path fill-rule="evenodd" d="M279.3,342.5H518.4V327.3H279.3v15.2Z" class="g0_185"/>
<path fill-rule="evenodd" d="M279.3,357.6H518.4V342.5H279.3v15.1Z" class="g0_185"/>
<path fill-rule="evenodd" d="M279.3,372.6H518.4v-15H279.3v15Z" class="g0_185"/>
<path fill-rule="evenodd" d="M279.3,387.6H518.4v-15H279.3v15Z" class="g0_185"/>
<path fill-rule="evenodd" d="M278.9,402.7H518.4V387.6H278.9v15.1Z" class="g0_185"/>
<path fill-rule="evenodd" d="M278.9,417.7H518.4v-15H278.9v15Z" class="g0_185"/>
<path fill-rule="evenodd" d="M278.9,432.7H518.4v-15H278.9v15Z" class="g0_185"/>
<path fill-rule="evenodd" d="M278.9,447.8H518.4V432.7H278.9v15.1Z" class="g0_185"/>
<path fill-rule="evenodd" d="M278.9,462.8H518v-15H278.9v15Z" class="g0_185"/>
<path fill-rule="evenodd" d="M278.9,477.8H518v-15H278.9v15Z" class="g0_185"/>
<path fill-rule="evenodd" d="M278.9,492.9H518V477.8H278.9v15.1Z" class="g0_185"/>
<path fill-rule="evenodd" d="M278.9,507.9H518v-15H278.9v15Z" class="g0_185"/>
<path fill-rule="evenodd" d="M278.2,523.1H518V507.9H278.2v15.2Z" class="g0_185"/>
<path fill-rule="evenodd" d="M278.2,538.2H518V523.1H278.2v15.1Z" class="g0_185"/>
<path fill-rule="evenodd" d="M278.2,553.2H518v-15H278.2v15Z" class="g0_185"/>
<path fill-rule="evenodd" d="M278.2,568.2H518v-15H278.2v15Z" class="g0_185"/>
<path fill-rule="evenodd" d="M278.2,583.3H518V568.2H278.2v15.1Z" class="g0_185"/>
<path fill-rule="evenodd" d="M278.2,598.3H518v-15H278.2v15Z" class="g0_185"/>
<path fill-rule="evenodd" d="M278.2,613.4H518V598.3H278.2v15.1Z" class="g0_185"/>
<path fill-rule="evenodd" d="M278.2,628.4H518v-15H278.2v15Z" class="g0_185"/>
<path fill-rule="evenodd" d="M278.2,643.4H518v-15H278.2v15Z" class="g0_185"/>
<path fill-rule="evenodd" d="M277.8,658.5H516.9V643.4H277.8v15.1Z" class="g0_185"/>
<path fill-rule="evenodd" d="M277.8,673.5H516.9v-15H277.8v15Z" class="g0_185"/>
<path fill-rule="evenodd" d="M277.8,688.5H516.9v-15H277.8v15Z" class="g0_185"/>
<path fill-rule="evenodd" d="M278.2,703.7H517.3V688.5H278.2v15.2Z" class="g0_185"/>
<path fill-rule="evenodd" d="M278.2,718.8H517.3V703.7H278.2v15.1Z" class="g0_185"/>
<path fill-rule="evenodd" d="M278.2,733.8H517.3v-15H278.2v15Z" class="g0_185"/>
<path fill-rule="evenodd" d="M278.2,748.8H517.3v-15H278.2v15Z" class="g0_185"/>
<path fill-rule="evenodd" d="M278.2,763.9H517.3V748.8H278.2v15.1Z" class="g0_185"/>
<path fill-rule="evenodd" d="M277.8,778.9H516.6v-15H277.8v15Z" class="g0_185"/>
<path fill-rule="evenodd" d="M277.8,793.9H516.6v-15H277.8v15Z" class="g0_185"/>
<path fill-rule="evenodd" d="M278.2,809H516.9V793.9H278.2V809Z" class="g0_185"/>
<path fill-rule="evenodd" d="M278.2,824H516.9V809H278.2v15Z" class="g0_185"/>
<path fill-rule="evenodd" d="M278.2,839.1H516.9V824H278.2v15.1Z" class="g0_185"/>
<path fill-rule="evenodd" d="M277.5,854.1H516.9v-15H277.5v15Z" class="g0_185"/>
<path fill-rule="evenodd" d="M277.5,869.2H516.9V854.1H277.5v15.1Z" class="g0_185"/>
<path fill-rule="evenodd" d="M277.5,884.4H516.9V869.2H277.5v15.2Z" class="g0_185"/>
<path fill-rule="evenodd" d="M277.5,899.4H516.9v-15H277.5v15Z" class="g0_185"/>
<path fill-rule="evenodd" d="M280,914.4H518.8v-15H280v15Z" class="g0_185"/>
<path fill-rule="evenodd" d="M539.3,161.7H777.7v-15H539.3v15Z" class="g0_185"/>
<path fill-rule="evenodd" d="M539.3,176.9H777.7V161.7H539.3v15.2Z" class="g0_185"/>
<path fill-rule="evenodd" d="M539.3,192H777.7V176.9H539.3V192Z" class="g0_185"/>
<path fill-rule="evenodd" d="M539.3,207H777.7V192H539.3v15Z" class="g0_185"/>
<path fill-rule="evenodd" d="M538.9,222H778V207H538.9v15Z" class="g0_185"/>
<path fill-rule="evenodd" d="M538.9,237.1H778V222H538.9v15.1Z" class="g0_185"/>
<path fill-rule="evenodd" d="M538.9,252.1H778v-15H538.9v15Z" class="g0_185"/>
<path fill-rule="evenodd" d="M538.9,267.1H777.3v-15H538.9v15Z" class="g0_185"/>
<path fill-rule="evenodd" d="M538.9,282.2H777.3V267.1H538.9v15.1Z" class="g0_185"/>
<path fill-rule="evenodd" d="M538.9,297.2H777.3v-15H538.9v15Z" class="g0_185"/>
<path fill-rule="evenodd" d="M538.9,312.2H777.3v-15H538.9v15Z" class="g0_185"/>
<path fill-rule="evenodd" d="M538.9,327.3H777.3V312.2H538.9v15.1Z" class="g0_185"/>
<path fill-rule="evenodd" d="M538.9,342.5H777.3V327.3H538.9v15.2Z" class="g0_185"/>
<path fill-rule="evenodd" d="M538.9,357.6H777.3V342.5H538.9v15.1Z" class="g0_185"/>
<path fill-rule="evenodd" d="M538.9,372.6H777.7v-15H538.9v15Z" class="g0_185"/>
<path fill-rule="evenodd" d="M538.9,387.6H777.7v-15H538.9v15Z" class="g0_185"/>
<path fill-rule="evenodd" d="M538.9,402.7H777.7V387.6H538.9v15.1Z" class="g0_185"/>
<path fill-rule="evenodd" d="M538.2,417.7H776.9v-15H538.2v15Z" class="g0_185"/>
<path fill-rule="evenodd" d="M538.2,432.7H776.9v-15H538.2v15Z" class="g0_185"/>
<path fill-rule="evenodd" d="M538.2,447.8H777.3V432.7H538.2v15.1Z" class="g0_185"/>
<path fill-rule="evenodd" d="M538.2,462.8H777.3v-15H538.2v15Z" class="g0_185"/>
<path fill-rule="evenodd" d="M538.2,477.8H777.3v-15H538.2v15Z" class="g0_185"/>
<path fill-rule="evenodd" d="M538.2,492.9H776.9V477.8H538.2v15.1Z" class="g0_185"/>
<path fill-rule="evenodd" d="M538.2,507.9H776.9v-15H538.2v15Z" class="g0_185"/>
<path fill-rule="evenodd" d="M538.2,523.1H776.9V507.9H538.2v15.2Z" class="g0_185"/>
<path fill-rule="evenodd" d="M538.2,538.2H776.9V523.1H538.2v15.1Z" class="g0_185"/>
<path fill-rule="evenodd" d="M537.5,553.2H777.3v-15H537.5v15Z" class="g0_185"/>
<path fill-rule="evenodd" d="M537.5,568.2H777.3v-15H537.5v15Z" class="g0_185"/>
<path fill-rule="evenodd" d="M537.5,583.3H777.3V568.2H537.5v15.1Z" class="g0_185"/>
<path fill-rule="evenodd" d="M537.5,598.3H777.3v-15H537.5v15Z" class="g0_185"/>
<path fill-rule="evenodd" d="M537.5,613.4H777.3V598.3H537.5v15.1Z" class="g0_185"/>
<path fill-rule="evenodd" d="M537.5,628.4H777.3v-15H537.5v15Z" class="g0_185"/>
<path fill-rule="evenodd" d="M555.8,643.4H778v-15H555.8v15Z" class="g0_185"/>
<path fill-rule="evenodd" d="M537.1,658.5H776.2V643.4H537.1v15.1Z" class="g0_185"/>
<path fill-rule="evenodd" d="M537.1,673.5H776.2v-15H537.1v15Z" class="g0_185"/>
<path fill-rule="evenodd" d="M537.1,688.5H776.2v-15H537.1v15Z" class="g0_185"/>
<path fill-rule="evenodd" d="M537.1,703.7H776.2V688.5H537.1v15.2Z" class="g0_185"/>
<path fill-rule="evenodd" d="M537.1,718.8H776.2V703.7H537.1v15.1Z" class="g0_185"/>
<path fill-rule="evenodd" d="M537.1,733.8H776.2v-15H537.1v15Z" class="g0_185"/>
<path fill-rule="evenodd" d="M537.1,748.8H776.2v-15H537.1v15Z" class="g0_185"/>
<path fill-rule="evenodd" d="M537.1,763.9H776.2V748.8H537.1v15.1Z" class="g0_185"/>
<path fill-rule="evenodd" d="M537.1,778.9H776.2v-15H537.1v15Z" class="g0_185"/>
<path fill-rule="evenodd" d="M537.1,793.9H776.2v-15H537.1v15Z" class="g0_185"/>
<path fill-rule="evenodd" d="M537.1,809H776.2V793.9H537.1V809Z" class="g0_185"/>
<path fill-rule="evenodd" d="M537.1,824H776.2V809H537.1v15Z" class="g0_185"/>
<path fill-rule="evenodd" d="M536.7,839.1H775.8V824H536.7v15.1Z" class="g0_185"/>
<path fill-rule="evenodd" d="M536.7,854.1H775.8v-15H536.7v15Z" class="g0_185"/>
<path fill-rule="evenodd" d="M536.7,869.2H775.8V854.1H536.7v15.1Z" class="g0_185"/>
<path fill-rule="evenodd" d="M536.7,884.4H775.8V869.2H536.7v15.2Z" class="g0_185"/>
<path fill-rule="evenodd" d="M514.7,932H778V914.4H514.7V932Z" class="g0_185"/>
<path d="M194.2,103v91" class="g1_185"/>
<path d="M214.3,102.7V238m2.6,-135.7V645.7m2.6,-543.4V430.1" class="g2_185"/>
<path d="M196.7,745.1V880.4" class="g1_185"/>
<path d="M197.1,340.3v51.3" class="g2_185"/>
<path d="M203,727.1V807" class="g1_185"/>
<path d="M215,328.6V945.4m1.5,-515.6V924M526.7,150.8V916.4" class="g2_185"/>
</svg>