<?xml version="1.0" encoding="UTF-8" standalone="no"?>
<!DOCTYPE svg PUBLIC "-//W3C//DTD SVG 1.1//EN"
"http://www.w3.org/Graphics/SVG/1.1/DTD/svg11.dtd">
<svg viewBox="0 0 909 1285" version="1.1" xmlns="http://www.w3.org/2000/svg" xmlns:xlink="http://www.w3.org/1999/xlink">
<defs>
<style type="text/css"><![CDATA[
.g0_224{
fill: #FFFFFF;
}
.g1_224{
fill: none;
stroke: #000000;
stroke-width: 2.597;
stroke-linecap: butt;
stroke-linejoin: round;
}
.g2_224{
fill: none;
stroke: #000000;
stroke-width: 4.048;
stroke-linecap: butt;
stroke-linejoin: round;
}
.g3_224{
fill: none;
stroke: #000000;
stroke-width: 0.381;
stroke-linecap: butt;
stroke-linejoin: round;
}
]]></style>
</defs>
<path fill-rule="evenodd" d="M585.3,125.8h99.8V110H585.3v15.8Z" class="g0_224"/>
<path fill-rule="evenodd" d="M184.5,161.4H424.3V146.3H184.5v15.1Z" class="g0_224"/>
<path fill-rule="evenodd" d="M184.5,176.4H424.3v-15H184.5v15Z" class="g0_224"/>
<path fill-rule="evenodd" d="M184.5,191.6H424.3V176.4H184.5v15.2Z" class="g0_224"/>
<path fill-rule="evenodd" d="M184.8,206.6H423.6v-15H184.8v15Z" class="g0_224"/>
<path fill-rule="evenodd" d="M184.8,221.7H423.6V206.6H184.8v15.1Z" class="g0_224"/>
<path fill-rule="evenodd" d="M184.5,236.7H423.9v-15H184.5v15Z" class="g0_224"/>
<path fill-rule="evenodd" d="M184.5,251.7H423.9v-15H184.5v15Z" class="g0_224"/>
<path fill-rule="evenodd" d="M184.1,266.8H424.3V251.7H184.1v15.1Z" class="g0_224"/>
<path fill-rule="evenodd" d="M184.1,281.8H424.3v-15H184.1v15Z" class="g0_224"/>
<path fill-rule="evenodd" d="M184.1,296.8H424.3v-15H184.1v15Z" class="g0_224"/>
<path fill-rule="evenodd" d="M184.1,311.9H424.3V296.8H184.1v15.1Z" class="g0_224"/>
<path fill-rule="evenodd" d="M184.1,326.9H424.3v-15H184.1v15Z" class="g0_224"/>
<path fill-rule="evenodd" d="M184.1,341.9H424.3v-15H184.1v15Z" class="g0_224"/>
<path fill-rule="evenodd" d="M184.1,357.2H423.9V342H184.1v15.2Z" class="g0_224"/>
<path fill-rule="evenodd" d="M184.1,372.2H423.9v-15H184.1v15Z" class="g0_224"/>
<path fill-rule="evenodd" d="M184.1,387.3H423.9V372.2H184.1v15.1Z" class="g0_224"/>
<path fill-rule="evenodd" d="M183.7,402.3H423.2v-15H183.7v15Z" class="g0_224"/>
<path fill-rule="evenodd" d="M183.7,417.3H423.2v-15H183.7v15Z" class="g0_224"/>
<path fill-rule="evenodd" d="M183.7,432.4H423.2V417.3H183.7v15.1Z" class="g0_224"/>
<path fill-rule="evenodd" d="M183.7,447.4H423.2v-15H183.7v15Z" class="g0_224"/>
<path fill-rule="evenodd" d="M183.7,462.8H423.2V447.4H183.7v15.4Z" class="g0_224"/>
<path fill-rule="evenodd" d="M183.7,477.8H423.2v-15H183.7v15Z" class="g0_224"/>
<path fill-rule="evenodd" d="M183.7,492.9H423.2V477.8H183.7v15.1Z" class="g0_224"/>
<path fill-rule="evenodd" d="M183.7,507.9H423.2v-15H183.7v15Z" class="g0_224"/>
<path fill-rule="evenodd" d="M183.7,523.1H423.2V507.9H183.7v15.2Z" class="g0_224"/>
<path fill-rule="evenodd" d="M183.7,538.2H422.8V523.1H183.7v15.1Z" class="g0_224"/>
<path fill-rule="evenodd" d="M183.7,553.2H422.8v-15H183.7v15Z" class="g0_224"/>
<path fill-rule="evenodd" d="M183.7,568.2H422.8v-15H183.7v15Z" class="g0_224"/>
<path fill-rule="evenodd" d="M183.4,583.3H422.5V568.2H183.4v15.1Z" class="g0_224"/>
<path fill-rule="evenodd" d="M183.4,598.3H422.5v-15H183.4v15Z" class="g0_224"/>
<path fill-rule="evenodd" d="M183,613.4H423.2V598.3H183v15.1Z" class="g0_224"/>
<path fill-rule="evenodd" d="M183,628.4H423.2v-15H183v15Z" class="g0_224"/>
<path fill-rule="evenodd" d="M183,643.4H423.2v-15H183v15Z" class="g0_224"/>
<path fill-rule="evenodd" d="M183,658.5H423.2V643.4H183v15.1Z" class="g0_224"/>
<path fill-rule="evenodd" d="M183,673.5H423.2v-15H183v15Z" class="g0_224"/>
<path fill-rule="evenodd" d="M183,688.5H423.2v-15H183v15Z" class="g0_224"/>
<path fill-rule="evenodd" d="M183,703.7H423.2V688.5H183v15.2Z" class="g0_224"/>
<path fill-rule="evenodd" d="M183,718.8H423.2V703.7H183v15.1Z" class="g0_224"/>
<path fill-rule="evenodd" d="M183.4,733.8H422.5v-15H183.4v15Z" class="g0_224"/>
<path fill-rule="evenodd" d="M183.4,748.8H422.5v-15H183.4v15Z" class="g0_224"/>
<path fill-rule="evenodd" d="M201.3,763.9h223V748.8h-223v15.1Z" class="g0_224"/>
<path fill-rule="evenodd" d="M201.3,778.9h223v-15h-223v15Z" class="g0_224"/>
<path fill-rule="evenodd" d="M182.6,793.9H422.8v-15H182.6v15Z" class="g0_224"/>
<path fill-rule="evenodd" d="M182.6,809H422.8V793.9H182.6V809Z" class="g0_224"/>
<path fill-rule="evenodd" d="M182.6,824H422.8V809H182.6v15Z" class="g0_224"/>
<path fill-rule="evenodd" d="M182.3,839.1H422.5V824H182.3v15.1Z" class="g0_224"/>
<path fill-rule="evenodd" d="M182.3,854.1H422.5v-15H182.3v15Z" class="g0_224"/>
<path fill-rule="evenodd" d="M182.3,869.2H422.5V854.1H182.3v15.1Z" class="g0_224"/>
<path fill-rule="evenodd" d="M182.3,884.4H422.5V869.2H182.3v15.2Z" class="g0_224"/>
<path fill-rule="evenodd" d="M184.5,899.4H424.3v-15H184.5v15Z" class="g0_224"/>
<path fill-rule="evenodd" d="M444.8,161.4H685.1V146.3H444.8v15.1Z" class="g0_224"/>
<path fill-rule="evenodd" d="M444.8,176.4H685.1v-15H444.8v15Z" class="g0_224"/>
<path fill-rule="evenodd" d="M463.2,191.6H685.1V176.4H463.2v15.2Z" class="g0_224"/>
<path fill-rule="evenodd" d="M444.5,206.6H685.1v-15H444.5v15Z" class="g0_224"/>
<path fill-rule="evenodd" d="M444.5,221.7H685.1V206.6H444.5v15.1Z" class="g0_224"/>
<path fill-rule="evenodd" d="M444.5,236.7H685.1v-15H444.5v15Z" class="g0_224"/>
<path fill-rule="evenodd" d="M444.5,251.7H684.4v-15H444.5v15Z" class="g0_224"/>
<path fill-rule="evenodd" d="M444.5,266.8H684.4V251.7H444.5v15.1Z" class="g0_224"/>
<path fill-rule="evenodd" d="M444.5,281.8H684.7v-15H444.5v15Z" class="g0_224"/>
<path fill-rule="evenodd" d="M444.5,296.8H684.7v-15H444.5v15Z" class="g0_224"/>
<path fill-rule="evenodd" d="M444.5,311.9H684.7V296.8H444.5v15.1Z" class="g0_224"/>
<path fill-rule="evenodd" d="M444.5,326.9H684.7v-15H444.5v15Z" class="g0_224"/>
<path fill-rule="evenodd" d="M444.5,341.9H684.7v-15H444.5v15Z" class="g0_224"/>
<path fill-rule="evenodd" d="M444.5,357.2H684.7V342H444.5v15.2Z" class="g0_224"/>
<path fill-rule="evenodd" d="M444.5,372.2H684.7v-15H444.5v15Z" class="g0_224"/>
<path fill-rule="evenodd" d="M444.5,387.3H684.7V372.2H444.5v15.1Z" class="g0_224"/>
<path fill-rule="evenodd" d="M444.1,402.3H684.4v-15H444.1v15Z" class="g0_224"/>
<path fill-rule="evenodd" d="M444.1,417.3H684.4v-15H444.1v15Z" class="g0_224"/>
<path fill-rule="evenodd" d="M462.5,432.4H685.1V417.3H462.5v15.1Z" class="g0_224"/>
<path fill-rule="evenodd" d="M443.4,447.4H684v-15H443.4v15Z" class="g0_224"/>
<path fill-rule="evenodd" d="M443.4,462.4H684v-15H443.4v15Z" class="g0_224"/>
<path fill-rule="evenodd" d="M443.4,477.5H684V462.4H443.4v15.1Z" class="g0_224"/>
<path fill-rule="evenodd" d="M443.4,492.5H684v-15H443.4v15Z" class="g0_224"/>
<path fill-rule="evenodd" d="M443.4,507.5H684v-15H443.4v15Z" class="g0_224"/>
<path fill-rule="evenodd" d="M443.4,522.6H684V507.5H443.4v15.1Z" class="g0_224"/>
<path fill-rule="evenodd" d="M443.4,537.8H684V522.6H443.4v15.2Z" class="g0_224"/>
<path fill-rule="evenodd" d="M462.1,552.8h223v-15h-223v15Z" class="g0_224"/>
<path fill-rule="evenodd" d="M462.1,567.9h223V552.8h-223v15.1Z" class="g0_224"/>
<path fill-rule="evenodd" d="M462.1,582.9h223v-15h-223v15Z" class="g0_224"/>
<path fill-rule="evenodd" d="M461.7,598H685.1V582.9H461.7V598Z" class="g0_224"/>
<path fill-rule="evenodd" d="M443.4,613H683.6V598H443.4v15Z" class="g0_224"/>
<path fill-rule="evenodd" d="M443.4,628H683.6V613H443.4v15Z" class="g0_224"/>
<path fill-rule="evenodd" d="M443.4,643.1H683.6V628H443.4v15.1Z" class="g0_224"/>
<path fill-rule="evenodd" d="M443.4,658.1H683.6v-15H443.4v15Z" class="g0_224"/>
<path fill-rule="evenodd" d="M443.4,673.1H683.6v-15H443.4v15Z" class="g0_224"/>
<path fill-rule="evenodd" d="M443.4,688.2H683.6V673.1H443.4v15.1Z" class="g0_224"/>
<path fill-rule="evenodd" d="M443,703.2H682.9v-15H443v15Z" class="g0_224"/>
<path fill-rule="evenodd" d="M443,718.4H682.9V703.2H443v15.2Z" class="g0_224"/>
<path fill-rule="evenodd" d="M443,733.4H682.9v-15H443v15Z" class="g0_224"/>
<path fill-rule="evenodd" d="M443,748.5H683.3V733.4H443v15.1Z" class="g0_224"/>
<path fill-rule="evenodd" d="M443,763.5H683.3v-15H443v15Z" class="g0_224"/>
<path fill-rule="evenodd" d="M443,778.5H682.9v-15H443v15Z" class="g0_224"/>
<path fill-rule="evenodd" d="M443,793.6H682.9V778.5H443v15.1Z" class="g0_224"/>
<path fill-rule="evenodd" d="M443,808.6H682.9v-15H443v15Z" class="g0_224"/>
<path fill-rule="evenodd" d="M443,823.6H682.9v-15H443v15Z" class="g0_224"/>
<path fill-rule="evenodd" d="M442.6,839.1H683.3V824H442.6v15.1Z" class="g0_224"/>
<path fill-rule="evenodd" d="M442.6,854.1H683.3v-15H442.6v15Z" class="g0_224"/>
<path fill-rule="evenodd" d="M442.6,869.2H683.3V854.1H442.6v15.1Z" class="g0_224"/>
<path fill-rule="evenodd" d="M442.6,884.4H683.3V869.2H442.6v15.2Z" class="g0_224"/>
<path d="M160.6,84V190.3" class="g1_224"/>
<path d="M156.1,190V363.8" class="g2_224"/>
<path d="M431.9,146.4V914.9" class="g3_224"/>
</svg>