<?xml version="1.0" encoding="UTF-8" standalone="no"?>
<!DOCTYPE svg PUBLIC "-//W3C//DTD SVG 1.1//EN"
"http://www.w3.org/Graphics/SVG/1.1/DTD/svg11.dtd">
<svg viewBox="0 0 909 1285" version="1.1" xmlns="http://www.w3.org/2000/svg" xmlns:xlink="http://www.w3.org/1999/xlink">
<defs>
<style type="text/css"><![CDATA[
.g0_299{
fill: #FFFFFF;
}
.g1_299{
fill: none;
stroke: #000000;
stroke-width: 0.381;
stroke-linecap: butt;
stroke-linejoin: round;
}
]]></style>
</defs>
<path fill-rule="evenodd" d="M285.2,134.6H783.5V110H285.2v24.6Z" class="g0_299"/>
<path fill-rule="evenodd" d="M284.8,168.7H524.3v-15H284.8v15Z" class="g0_299"/>
<path fill-rule="evenodd" d="M284.8,183.7H524.3v-15H284.8v15Z" class="g0_299"/>
<path fill-rule="evenodd" d="M284.8,198.9H524.3V183.7H284.8v15.2Z" class="g0_299"/>
<path fill-rule="evenodd" d="M284.8,214H524.3V198.9H284.8V214Z" class="g0_299"/>
<path fill-rule="evenodd" d="M284.8,229H524.3V214H284.8v15Z" class="g0_299"/>
<path fill-rule="evenodd" d="M284.8,244H524.3V229H284.8v15Z" class="g0_299"/>
<path fill-rule="evenodd" d="M285.2,259.1H523.9V244H285.2v15.1Z" class="g0_299"/>
<path fill-rule="evenodd" d="M285.2,274.1H523.9v-15H285.2v15Z" class="g0_299"/>
<path fill-rule="evenodd" d="M285.2,289.1H523.9v-15H285.2v15Z" class="g0_299"/>
<path fill-rule="evenodd" d="M284.4,304.2H523.9V289.1H284.4v15.1Z" class="g0_299"/>
<path fill-rule="evenodd" d="M284.4,319.2H523.9v-15H284.4v15Z" class="g0_299"/>
<path fill-rule="evenodd" d="M284.4,334.2H523.9v-15H284.4v15Z" class="g0_299"/>
<path fill-rule="evenodd" d="M284.4,349.3H523.9V334.2H284.4v15.1Z" class="g0_299"/>
<path fill-rule="evenodd" d="M284.1,364.5H523.5V349.3H284.1v15.2Z" class="g0_299"/>
<path fill-rule="evenodd" d="M284.1,379.6H523.5V364.5H284.1v15.1Z" class="g0_299"/>
<path fill-rule="evenodd" d="M284.1,394.6H523.5v-15H284.1v15Z" class="g0_299"/>
<path fill-rule="evenodd" d="M285.5,409.6H523.9v-15H285.5v15Z" class="g0_299"/>
<path fill-rule="evenodd" d="M544.8,168.7H783.2v-15H544.8v15Z" class="g0_299"/>
<path fill-rule="evenodd" d="M544.8,183.7H783.2v-15H544.8v15Z" class="g0_299"/>
<path fill-rule="evenodd" d="M544.8,198.9H783.2V183.7H544.8v15.2Z" class="g0_299"/>
<path fill-rule="evenodd" d="M543.3,214H783.5V198.9H543.3V214Z" class="g0_299"/>
<path fill-rule="evenodd" d="M543.3,229H783.5V214H543.3v15Z" class="g0_299"/>
<path fill-rule="evenodd" d="M543.3,244H783.5V229H543.3v15Z" class="g0_299"/>
<path fill-rule="evenodd" d="M543.3,259.1H783.5V244H543.3v15.1Z" class="g0_299"/>
<path fill-rule="evenodd" d="M544.1,274.1H782.8v-15H544.1v15Z" class="g0_299"/>
<path fill-rule="evenodd" d="M544.1,289.1H782.8v-15H544.1v15Z" class="g0_299"/>
<path fill-rule="evenodd" d="M544.1,304.2H782.8V289.1H544.1v15.1Z" class="g0_299"/>
<path fill-rule="evenodd" d="M544.1,319.2H782.8v-15H544.1v15Z" class="g0_299"/>
<path fill-rule="evenodd" d="M544.1,334.2H782.8v-15H544.1v15Z" class="g0_299"/>
<path fill-rule="evenodd" d="M544.1,349.3H782.8V334.2H544.1v15.1Z" class="g0_299"/>
<path fill-rule="evenodd" d="M544.1,364.5H782.8V349.3H544.1v15.2Z" class="g0_299"/>
<path fill-rule="evenodd" d="M544.1,379.6H782.8V364.5H544.1v15.1Z" class="g0_299"/>
<path fill-rule="evenodd" d="M544.1,394.6H782.8v-15H544.1v15Z" class="g0_299"/>
<path fill-rule="evenodd" d="M505.6,462.8H783.5V439H505.6v23.8Z" class="g0_299"/>
<path fill-rule="evenodd" d="M283.3,500.9H522.4V486.3H283.3v14.6Z" class="g0_299"/>
<path fill-rule="evenodd" d="M283.3,515.6H522.4V500.9H283.3v14.7Z" class="g0_299"/>
<path fill-rule="evenodd" d="M283.3,530.3H522.4V515.6H283.3v14.7Z" class="g0_299"/>
<path fill-rule="evenodd" d="M283.3,544.9H522.4V530.3H283.3v14.6Z" class="g0_299"/>
<path fill-rule="evenodd" d="M283.3,559.6H522.4V544.9H283.3v14.7Z" class="g0_299"/>
<path fill-rule="evenodd" d="M283.3,574.3H522.4V559.6H283.3v14.7Z" class="g0_299"/>
<path fill-rule="evenodd" d="M283.3,588.9H522.4V574.3H283.3v14.6Z" class="g0_299"/>
<path fill-rule="evenodd" d="M283.3,603.6H522.4V588.9H283.3v14.7Z" class="g0_299"/>
<path fill-rule="evenodd" d="M283.3,618.3H522.4V603.6H283.3v14.7Z" class="g0_299"/>
<path fill-rule="evenodd" d="M283.3,633H522.4V618.3H283.3V633Z" class="g0_299"/>
<path fill-rule="evenodd" d="M283.3,647.6H522.4V633H283.3v14.6Z" class="g0_299"/>
<path fill-rule="evenodd" d="M283.3,662.3H522.4V647.6H283.3v14.7Z" class="g0_299"/>
<path fill-rule="evenodd" d="M283.3,677H522.4V662.3H283.3V677Z" class="g0_299"/>
<path fill-rule="evenodd" d="M283.3,691.6H521.7V677H283.3v14.6Z" class="g0_299"/>
<path fill-rule="evenodd" d="M283.3,706.3H521.7V691.6H283.3v14.7Z" class="g0_299"/>
<path fill-rule="evenodd" d="M283.3,721H521.7V706.3H283.3V721Z" class="g0_299"/>
<path fill-rule="evenodd" d="M282.2,736H521.3V721.3H282.2V736Z" class="g0_299"/>
<path fill-rule="evenodd" d="M282.2,750.7H521.3V736H282.2v14.7Z" class="g0_299"/>
<path fill-rule="evenodd" d="M282.2,765.3H521.3V750.7H282.2v14.6Z" class="g0_299"/>
<path fill-rule="evenodd" d="M282.2,780H521.3V765.3H282.2V780Z" class="g0_299"/>
<path fill-rule="evenodd" d="M282.2,794.7H521.3V780H282.2v14.7Z" class="g0_299"/>
<path fill-rule="evenodd" d="M281.9,809.3H522.4V794.7H281.9v14.6Z" class="g0_299"/>
<path fill-rule="evenodd" d="M281.9,824H522.4V809.3H281.9V824Z" class="g0_299"/>
<path fill-rule="evenodd" d="M281.9,838.7H522.4V824H281.9v14.7Z" class="g0_299"/>
<path fill-rule="evenodd" d="M281.9,853.4H522.4V838.7H281.9v14.7Z" class="g0_299"/>
<path fill-rule="evenodd" d="M281.9,868.1H522.4V853.4H281.9v14.7Z" class="g0_299"/>
<path fill-rule="evenodd" d="M282.2,882.7H521.3V868.1H282.2v14.6Z" class="g0_299"/>
<path fill-rule="evenodd" d="M282.2,897.4H521.3V882.7H282.2v14.7Z" class="g0_299"/>
<path fill-rule="evenodd" d="M283,912.1H522.4V897.4H283v14.7Z" class="g0_299"/>
<path fill-rule="evenodd" d="M543,499.8H782.4V485.2H543v14.6Z" class="g0_299"/>
<path fill-rule="evenodd" d="M543,514.5H782.4V499.8H543v14.7Z" class="g0_299"/>
<path fill-rule="evenodd" d="M543,529.2H782.4V514.5H543v14.7Z" class="g0_299"/>
<path fill-rule="evenodd" d="M543,543.8H782.4V529.2H543v14.6Z" class="g0_299"/>
<path fill-rule="evenodd" d="M543,558.5H782.4V543.8H543v14.7Z" class="g0_299"/>
<path fill-rule="evenodd" d="M543,573.2H729.6V558.5H543v14.7Z" class="g0_299"/>
<path fill-rule="evenodd" d="M543,587.8H729.6V573.2H543v14.6Z" class="g0_299"/>
<path fill-rule="evenodd" d="M541.9,602.5H782.1V587.8H541.9v14.7Z" class="g0_299"/>
<path fill-rule="evenodd" d="M541.9,617.2H782.1V602.5H541.9v14.7Z" class="g0_299"/>
<path fill-rule="evenodd" d="M541.9,631.9H782.1V617.2H541.9v14.7Z" class="g0_299"/>
<path fill-rule="evenodd" d="M541.9,646.5H782.1V631.9H541.9v14.6Z" class="g0_299"/>
<path fill-rule="evenodd" d="M541.9,661.2H782.1V646.5H541.9v14.7Z" class="g0_299"/>
<path fill-rule="evenodd" d="M541.9,675.9H782.1V661.2H541.9v14.7Z" class="g0_299"/>
<path fill-rule="evenodd" d="M541.9,690.5H782.1V675.9H541.9v14.6Z" class="g0_299"/>
<path fill-rule="evenodd" d="M541.9,705.2H782.1V690.5H541.9v14.7Z" class="g0_299"/>
<path fill-rule="evenodd" d="M541.9,719.9H782.1V705.2H541.9v14.7Z" class="g0_299"/>
<path fill-rule="evenodd" d="M541.9,734.5H782.1V719.9H541.9v14.6Z" class="g0_299"/>
<path fill-rule="evenodd" d="M541.9,749.2H782.1V734.5H541.9v14.7Z" class="g0_299"/>
<path fill-rule="evenodd" d="M541.9,763.9H782.1V749.2H541.9v14.7Z" class="g0_299"/>
<path fill-rule="evenodd" d="M541.9,778.5H782.1V763.9H541.9v14.6Z" class="g0_299"/>
<path fill-rule="evenodd" d="M541.9,793.2H782.1V778.5H541.9v14.7Z" class="g0_299"/>
<path fill-rule="evenodd" d="M541.9,807.9H782.1V793.2H541.9v14.7Z" class="g0_299"/>
<path fill-rule="evenodd" d="M541.9,822.5H781.3V807.9H541.9v14.6Z" class="g0_299"/>
<path fill-rule="evenodd" d="M541.9,837.3H781.3V822.5H541.9v14.8Z" class="g0_299"/>
<path fill-rule="evenodd" d="M541.9,851.9H781.3V837.3H541.9v14.6Z" class="g0_299"/>
<path fill-rule="evenodd" d="M541.9,866.6H781.3V851.9H541.9v14.7Z" class="g0_299"/>
<path fill-rule="evenodd" d="M541.9,881.3H781.3V866.6H541.9v14.7Z" class="g0_299"/>
<path fill-rule="evenodd" d="M541.9,895.9H729.6V881.3H541.9v14.6Z" class="g0_299"/>
<path fill-rule="evenodd" d="M541.9,910.6H729.6V895.9H541.9v14.7Z" class="g0_299"/>
<path fill-rule="evenodd" d="M518,940.3H783.5V922.7H518v17.6Z" class="g0_299"/>
<path d="M226.7,102.7V996.6m307,-841.8V396m-1.8,88V920.7" class="g1_299"/>
</svg>