<?xml version="1.0" encoding="UTF-8" standalone="no"?>
<!DOCTYPE svg PUBLIC "-//W3C//DTD SVG 1.1//EN"
"http://www.w3.org/Graphics/SVG/1.1/DTD/svg11.dtd">
<svg viewBox="0 0 909 1285" version="1.1" xmlns="http://www.w3.org/2000/svg" xmlns:xlink="http://www.w3.org/1999/xlink">
<defs>
<style type="text/css"><![CDATA[
.g0_259{
fill: #FFFFFF;
}
.g1_259{
fill: none;
stroke: #000000;
stroke-width: 0.381;
stroke-linecap: butt;
stroke-linejoin: round;
}
]]></style>
</defs>
<path fill-rule="evenodd" d="M267.9,125.8H766.3V110H267.9v15.8Z" class="g0_259"/>
<path fill-rule="evenodd" d="M267.9,161.4H507V146.3H267.9v15.1Z" class="g0_259"/>
<path fill-rule="evenodd" d="M267.9,176.4H507v-15H267.9v15Z" class="g0_259"/>
<path fill-rule="evenodd" d="M267.9,191.6H507V176.4H267.9v15.2Z" class="g0_259"/>
<path fill-rule="evenodd" d="M267.9,206.6H507v-15H267.9v15Z" class="g0_259"/>
<path fill-rule="evenodd" d="M267.9,221.7H506.3V206.6H267.9v15.1Z" class="g0_259"/>
<path fill-rule="evenodd" d="M267.9,236.7H506.3v-15H267.9v15Z" class="g0_259"/>
<path fill-rule="evenodd" d="M267.9,251.7H506.3v-15H267.9v15Z" class="g0_259"/>
<path fill-rule="evenodd" d="M267.9,266.8H506.3V251.7H267.9v15.1Z" class="g0_259"/>
<path fill-rule="evenodd" d="M267.6,281.8H505.9v-15H267.6v15Z" class="g0_259"/>
<path fill-rule="evenodd" d="M267.6,296.8H505.9v-15H267.6v15Z" class="g0_259"/>
<path fill-rule="evenodd" d="M267.6,311.9H505.9V296.8H267.6v15.1Z" class="g0_259"/>
<path fill-rule="evenodd" d="M267.1,326.9H506.7v-15H267.1v15Z" class="g0_259"/>
<path fill-rule="evenodd" d="M267.1,341.9H506.7v-15H267.1v15Z" class="g0_259"/>
<path fill-rule="evenodd" d="M267.1,357.2H506.7V342H267.1v15.2Z" class="g0_259"/>
<path fill-rule="evenodd" d="M267.1,372.2H506.7v-15H267.1v15Z" class="g0_259"/>
<path fill-rule="evenodd" d="M267.1,387.3H506.7V372.2H267.1v15.1Z" class="g0_259"/>
<path fill-rule="evenodd" d="M267.1,402.3H506.7v-15H267.1v15Z" class="g0_259"/>
<path fill-rule="evenodd" d="M267.1,417.3H506.7v-15H267.1v15Z" class="g0_259"/>
<path fill-rule="evenodd" d="M267.6,432.4H505.9V417.3H267.6v15.1Z" class="g0_259"/>
<path fill-rule="evenodd" d="M267.6,447.4H505.9v-15H267.6v15Z" class="g0_259"/>
<path fill-rule="evenodd" d="M266.4,462.4H505.6v-15H266.4v15Z" class="g0_259"/>
<path fill-rule="evenodd" d="M266.4,477.5H505.6V462.4H266.4v15.1Z" class="g0_259"/>
<path fill-rule="evenodd" d="M266.4,492.5H505.2v-15H266.4v15Z" class="g0_259"/>
<path fill-rule="evenodd" d="M266.4,507.5H505.2v-15H266.4v15Z" class="g0_259"/>
<path fill-rule="evenodd" d="M266.4,522.6H505.2V507.5H266.4v15.1Z" class="g0_259"/>
<path fill-rule="evenodd" d="M266.4,537.8H505.2V522.6H266.4v15.2Z" class="g0_259"/>
<path fill-rule="evenodd" d="M266,553.2H505.2v-15H266v15Z" class="g0_259"/>
<path fill-rule="evenodd" d="M266,568.2H505.2v-15H266v15Z" class="g0_259"/>
<path fill-rule="evenodd" d="M266,583.3H505.2V568.2H266v15.1Z" class="g0_259"/>
<path fill-rule="evenodd" d="M266,598.3H505.2v-15H266v15Z" class="g0_259"/>
<path fill-rule="evenodd" d="M266.4,613.4H504.8V598.3H266.4v15.1Z" class="g0_259"/>
<path fill-rule="evenodd" d="M266.4,628.4H504.8v-15H266.4v15Z" class="g0_259"/>
<path fill-rule="evenodd" d="M266.4,643.4H504.8v-15H266.4v15Z" class="g0_259"/>
<path fill-rule="evenodd" d="M266.4,658.5H504.1V643.4H266.4v15.1Z" class="g0_259"/>
<path fill-rule="evenodd" d="M266.4,673.5H504.1v-15H266.4v15Z" class="g0_259"/>
<path fill-rule="evenodd" d="M265.7,688.5H505.2v-15H265.7v15Z" class="g0_259"/>
<path fill-rule="evenodd" d="M265.7,703.7H505.2V688.5H265.7v15.2Z" class="g0_259"/>
<path fill-rule="evenodd" d="M265.7,718.8H505.2V703.7H265.7v15.1Z" class="g0_259"/>
<path fill-rule="evenodd" d="M265.7,733.8H505.2v-15H265.7v15Z" class="g0_259"/>
<path fill-rule="evenodd" d="M265.7,748.8H505.2v-15H265.7v15Z" class="g0_259"/>
<path fill-rule="evenodd" d="M265.7,763.9H505.2V748.8H265.7v15.1Z" class="g0_259"/>
<path fill-rule="evenodd" d="M265.7,778.9H505.2v-15H265.7v15Z" class="g0_259"/>
<path fill-rule="evenodd" d="M265.7,793.9H505.2v-15H265.7v15Z" class="g0_259"/>
<path fill-rule="evenodd" d="M265.7,809H505.2V793.9H265.7V809Z" class="g0_259"/>
<path fill-rule="evenodd" d="M265.7,824H505.2V809H265.7v15Z" class="g0_259"/>
<path fill-rule="evenodd" d="M265.7,839.1H505.2V824H265.7v15.1Z" class="g0_259"/>
<path fill-rule="evenodd" d="M264.9,854.1H504.5v-15H264.9v15Z" class="g0_259"/>
<path fill-rule="evenodd" d="M264.9,869.2H504.5V854.1H264.9v15.1Z" class="g0_259"/>
<path fill-rule="evenodd" d="M264.9,884.4H504.5V869.2H264.9v15.2Z" class="g0_259"/>
<path fill-rule="evenodd" d="M264.9,899.4H504.5v-15H264.9v15Z" class="g0_259"/>
<path fill-rule="evenodd" d="M267.9,914.4H506.7v-15H267.9v15Z" class="g0_259"/>
<path fill-rule="evenodd" d="M527.4,161.7H765.7v-15H527.4v15Z" class="g0_259"/>
<path fill-rule="evenodd" d="M527.4,176.9H765.7V161.7H527.4v15.2Z" class="g0_259"/>
<path fill-rule="evenodd" d="M527,192.3H766.1v-15H527v15Z" class="g0_259"/>
<path fill-rule="evenodd" d="M527,207.4H766.1V192.3H527v15.1Z" class="g0_259"/>
<path fill-rule="evenodd" d="M545,222.4H766.1v-15H545v15Z" class="g0_259"/>
<path fill-rule="evenodd" d="M526.6,237.4H765.4v-15H526.6v15Z" class="g0_259"/>
<path fill-rule="evenodd" d="M526.6,252.5H765.4V237.4H526.6v15.1Z" class="g0_259"/>
<path fill-rule="evenodd" d="M526.6,267.5H765.4v-15H526.6v15Z" class="g0_259"/>
<path fill-rule="evenodd" d="M526.6,282.5H765.4v-15H526.6v15Z" class="g0_259"/>
<path fill-rule="evenodd" d="M526.6,297.6H765V282.5H526.6v15.1Z" class="g0_259"/>
<path fill-rule="evenodd" d="M526.6,312.6H765v-15H526.6v15Z" class="g0_259"/>
<path fill-rule="evenodd" d="M526.6,327.8H765V312.6H526.6v15.2Z" class="g0_259"/>
<path fill-rule="evenodd" d="M526.3,343.2H765v-15H526.3v15Z" class="g0_259"/>
<path fill-rule="evenodd" d="M526.3,358.3H765V343.2H526.3v15.1Z" class="g0_259"/>
<path fill-rule="evenodd" d="M526.3,373.3H764.6v-15H526.3v15Z" class="g0_259"/>
<path fill-rule="evenodd" d="M526.3,388.4H764.6V373.3H526.3v15.1Z" class="g0_259"/>
<path fill-rule="evenodd" d="M526.3,403.4H765v-15H526.3v15Z" class="g0_259"/>
<path fill-rule="evenodd" d="M526.3,418.4H765v-15H526.3v15Z" class="g0_259"/>
<path fill-rule="evenodd" d="M526.3,433.5H765V418.4H526.3v15.1Z" class="g0_259"/>
<path fill-rule="evenodd" d="M525.2,448.9H764.6V433.8H525.2v15.1Z" class="g0_259"/>
<path fill-rule="evenodd" d="M525.2,463.9H764.6v-15H525.2v15Z" class="g0_259"/>
<path fill-rule="evenodd" d="M525.5,479.1H764.3V463.9H525.5v15.2Z" class="g0_259"/>
<path fill-rule="evenodd" d="M525.5,494.2H764.3V479.1H525.5v15.1Z" class="g0_259"/>
<path fill-rule="evenodd" d="M525.5,509.2H764.3v-15H525.5v15Z" class="g0_259"/>
<path fill-rule="evenodd" d="M543.5,524.2H766.1v-15H543.5v15Z" class="g0_259"/>
<path fill-rule="evenodd" d="M525.2,539.6H764.3v-15H525.2v15Z" class="g0_259"/>
<path fill-rule="evenodd" d="M525.2,554.7H764.3V539.6H525.2v15.1Z" class="g0_259"/>
<path fill-rule="evenodd" d="M525.2,569.7H764.3v-15H525.2v15Z" class="g0_259"/>
<path fill-rule="evenodd" d="M525.2,584.7H764.3v-15H525.2v15Z" class="g0_259"/>
<path fill-rule="evenodd" d="M525.2,599.8H764.3V584.7H525.2v15.1Z" class="g0_259"/>
<path fill-rule="evenodd" d="M525.2,614.8H764.3v-15H525.2v15Z" class="g0_259"/>
<path fill-rule="evenodd" d="M543.1,630.4h223V615.2h-223v15.2Z" class="g0_259"/>
<path fill-rule="evenodd" d="M525.5,645.4h238v-15h-238v15Z" class="g0_259"/>
<path fill-rule="evenodd" d="M525.5,660.5h238V645.4h-238v15.1Z" class="g0_259"/>
<path fill-rule="evenodd" d="M524.4,675.5H763.5v-15H524.4v15Z" class="g0_259"/>
<path fill-rule="evenodd" d="M524.4,690.5H763.5v-15H524.4v15Z" class="g0_259"/>
<path fill-rule="evenodd" d="M524.4,705.6H763.5V690.5H524.4v15.1Z" class="g0_259"/>
<path fill-rule="evenodd" d="M524.4,720.6H763.5v-15H524.4v15Z" class="g0_259"/>
<path fill-rule="evenodd" d="M524.4,735.6H763.5v-15H524.4v15Z" class="g0_259"/>
<path fill-rule="evenodd" d="M524.4,750.7H763.5V735.6H524.4v15.1Z" class="g0_259"/>
<path fill-rule="evenodd" d="M524.4,765.7H763.5v-15H524.4v15Z" class="g0_259"/>
<path fill-rule="evenodd" d="M524.8,780.7H763.5v-15H524.8v15Z" class="g0_259"/>
<path fill-rule="evenodd" d="M524.8,795.8H763.5V780.7H524.8v15.1Z" class="g0_259"/>
<path fill-rule="evenodd" d="M524.4,811H763.2V795.8H524.4V811Z" class="g0_259"/>
<path fill-rule="evenodd" d="M524.4,826H763.2V811H524.4v15Z" class="g0_259"/>
<path fill-rule="evenodd" d="M524.4,841.1H763.2V826H524.4v15.1Z" class="g0_259"/>
<path fill-rule="evenodd" d="M524.4,856.1H762.8v-15H524.4v15Z" class="g0_259"/>
<path fill-rule="evenodd" d="M524.4,871.2H762.8V856.1H524.4v15.1Z" class="g0_259"/>
<path fill-rule="evenodd" d="M500.8,931.5H766.3V914.1H500.8v17.4Z" class="g0_259"/>
<path d="M200,539.1v81m6.2,117.4V960.1m5.1,-223.8V994M514.2,147.8V916" class="g1_259"/>
</svg>