<?xml version="1.0" encoding="UTF-8" standalone="no"?>
<!DOCTYPE svg PUBLIC "-//W3C//DTD SVG 1.1//EN"
"http://www.w3.org/Graphics/SVG/1.1/DTD/svg11.dtd">
<svg viewBox="0 0 909 1285" version="1.1" xmlns="http://www.w3.org/2000/svg" xmlns:xlink="http://www.w3.org/1999/xlink">
<defs>
<style type="text/css"><![CDATA[
.g0_296{
fill: #FFFFFF;
}
.g1_296{
fill: none;
stroke: #000000;
stroke-width: 3.666;
stroke-linecap: butt;
stroke-linejoin: round;
}
.g2_296{
fill: none;
stroke: #000000;
stroke-width: 0.381;
stroke-linecap: butt;
stroke-linejoin: round;
}
]]></style>
</defs>
<path fill-rule="evenodd" d="M597.8,125.8h89.1V110H597.8v15.8Z" class="g0_296"/>
<path fill-rule="evenodd" d="M188.1,161.7H426.9V147.1H188.1v14.6Z" class="g0_296"/>
<path fill-rule="evenodd" d="M188.1,176.4H426.9V161.7H188.1v14.7Z" class="g0_296"/>
<path fill-rule="evenodd" d="M188.1,191.1H426.9V176.4H188.1v14.7Z" class="g0_296"/>
<path fill-rule="evenodd" d="M188.1,205.7H426.9V191.1H188.1v14.6Z" class="g0_296"/>
<path fill-rule="evenodd" d="M188.1,220.4H426.9V205.7H188.1v14.7Z" class="g0_296"/>
<path fill-rule="evenodd" d="M188.1,235.1H426.5V220.4H188.1v14.7Z" class="g0_296"/>
<path fill-rule="evenodd" d="M188.1,249.7H426.5V235.1H188.1v14.6Z" class="g0_296"/>
<path fill-rule="evenodd" d="M188.1,264.4H426.5V249.7H188.1v14.7Z" class="g0_296"/>
<path fill-rule="evenodd" d="M188.1,279.1H426.5V264.4H188.1v14.7Z" class="g0_296"/>
<path fill-rule="evenodd" d="M187.8,294.3H426.9V279.4H187.8v14.9Z" class="g0_296"/>
<path fill-rule="evenodd" d="M187.8,308.9H426.9V294.3H187.8v14.6Z" class="g0_296"/>
<path fill-rule="evenodd" d="M187.8,323.6H426.9V308.9H187.8v14.7Z" class="g0_296"/>
<path fill-rule="evenodd" d="M187.8,338.3H426.9V323.6H187.8v14.7Z" class="g0_296"/>
<path fill-rule="evenodd" d="M187.8,353H426.9V338.3H187.8V353Z" class="g0_296"/>
<path fill-rule="evenodd" d="M187.8,368H426.5V353.4H187.8V368Z" class="g0_296"/>
<path fill-rule="evenodd" d="M187.8,382.7H426.5V368H187.8v14.7Z" class="g0_296"/>
<path fill-rule="evenodd" d="M187.8,397.4H426.5V382.7H187.8v14.7Z" class="g0_296"/>
<path fill-rule="evenodd" d="M187.8,412H426.5V397.4H187.8V412Z" class="g0_296"/>
<path fill-rule="evenodd" d="M187.8,426.7H426.5V412H187.8v14.7Z" class="g0_296"/>
<path fill-rule="evenodd" d="M187.4,441.4H425.8V426.7H187.4v14.7Z" class="g0_296"/>
<path fill-rule="evenodd" d="M187.4,456H425.8V441.4H187.4V456Z" class="g0_296"/>
<path fill-rule="evenodd" d="M187.4,470.7H425.8V456H187.4v14.7Z" class="g0_296"/>
<path fill-rule="evenodd" d="M187.4,485.4H425V470.7H187.4v14.7Z" class="g0_296"/>
<path fill-rule="evenodd" d="M187.4,500H425V485.4H187.4V500Z" class="g0_296"/>
<path fill-rule="evenodd" d="M187.4,514.7H426.1V500H187.4v14.7Z" class="g0_296"/>
<path fill-rule="evenodd" d="M187.4,529.4H426.1V514.7H187.4v14.7Z" class="g0_296"/>
<path fill-rule="evenodd" d="M187.4,544H426.1V529.4H187.4V544Z" class="g0_296"/>
<path fill-rule="evenodd" d="M187.4,558.7H426.1V544H187.4v14.7Z" class="g0_296"/>
<path fill-rule="evenodd" d="M186.7,573.4H425.8V558.7H186.7v14.7Z" class="g0_296"/>
<path fill-rule="evenodd" d="M186.7,588H425.8V573.4H186.7V588Z" class="g0_296"/>
<path fill-rule="evenodd" d="M186.7,602.7H425.8V588H186.7v14.7Z" class="g0_296"/>
<path fill-rule="evenodd" d="M187,617.4H425.4V602.7H187v14.7Z" class="g0_296"/>
<path fill-rule="evenodd" d="M187,632.1H425.4V617.4H187v14.7Z" class="g0_296"/>
<path fill-rule="evenodd" d="M205.4,647.1H426.9V632.4H205.4v14.7Z" class="g0_296"/>
<path fill-rule="evenodd" d="M186.7,662.1H425.4V647.5H186.7v14.6Z" class="g0_296"/>
<path fill-rule="evenodd" d="M186.7,676.8H425.4V662.1H186.7v14.7Z" class="g0_296"/>
<path fill-rule="evenodd" d="M186.3,691.5H425.8V676.8H186.3v14.7Z" class="g0_296"/>
<path fill-rule="evenodd" d="M186.3,706.1H425.8V691.5H186.3v14.6Z" class="g0_296"/>
<path fill-rule="evenodd" d="M186.3,720.8H425.8V706.1H186.3v14.7Z" class="g0_296"/>
<path fill-rule="evenodd" d="M186.3,735.5H425.8V720.8H186.3v14.7Z" class="g0_296"/>
<path fill-rule="evenodd" d="M186.3,750.1H425.8V735.5H186.3v14.6Z" class="g0_296"/>
<path fill-rule="evenodd" d="M186.3,764.8H425.8V750.1H186.3v14.7Z" class="g0_296"/>
<path fill-rule="evenodd" d="M186.3,779.5H425.8V764.8H186.3v14.7Z" class="g0_296"/>
<path fill-rule="evenodd" d="M186.7,794.1h238V779.5h-238v14.6Z" class="g0_296"/>
<path fill-rule="evenodd" d="M186.7,808.8h238V794.1h-238v14.7Z" class="g0_296"/>
<path fill-rule="evenodd" d="M186.3,823.5H425.4V808.8H186.3v14.7Z" class="g0_296"/>
<path fill-rule="evenodd" d="M186.3,838.2H425.4V823.5H186.3v14.7Z" class="g0_296"/>
<path fill-rule="evenodd" d="M186.3,852.8H425.4V838.2H186.3v14.6Z" class="g0_296"/>
<path fill-rule="evenodd" d="M185.9,867.5H425V852.8H185.9v14.7Z" class="g0_296"/>
<path fill-rule="evenodd" d="M185.9,882.2H425V867.5H185.9v14.7Z" class="g0_296"/>
<path fill-rule="evenodd" d="M185.9,896.8H425V882.2H185.9v14.6Z" class="g0_296"/>
<path fill-rule="evenodd" d="M187.8,911.5H426.9V896.8H187.8v14.7Z" class="g0_296"/>
<path fill-rule="evenodd" d="M447.4,161.4H686.2V146.7H447.4v14.7Z" class="g0_296"/>
<path fill-rule="evenodd" d="M447.4,176H686.2V161.4H447.4V176Z" class="g0_296"/>
<path fill-rule="evenodd" d="M447.4,190.7H686.2V176H447.4v14.7Z" class="g0_296"/>
<path fill-rule="evenodd" d="M447.4,205.4H686.2V190.7H447.4v14.7Z" class="g0_296"/>
<path fill-rule="evenodd" d="M447.4,220H686.2V205.4H447.4V220Z" class="g0_296"/>
<path fill-rule="evenodd" d="M447.4,234.7H686.2V220H447.4v14.7Z" class="g0_296"/>
<path fill-rule="evenodd" d="M446.7,249.7H686.2V235.1H446.7v14.6Z" class="g0_296"/>
<path fill-rule="evenodd" d="M446.7,264.4H686.2V249.7H446.7v14.7Z" class="g0_296"/>
<path fill-rule="evenodd" d="M446.7,279.1H686.2V264.4H446.7v14.7Z" class="g0_296"/>
<path fill-rule="evenodd" d="M446.7,293.9H686.2V279.1H446.7v14.8Z" class="g0_296"/>
<path fill-rule="evenodd" d="M446.7,308.6H686.2V293.9H446.7v14.7Z" class="g0_296"/>
<path fill-rule="evenodd" d="M446.7,323.2H686.2V308.6H446.7v14.6Z" class="g0_296"/>
<path fill-rule="evenodd" d="M446.7,337.9H685.8V323.2H446.7v14.7Z" class="g0_296"/>
<path fill-rule="evenodd" d="M446.7,352.6H685.8V337.9H446.7v14.7Z" class="g0_296"/>
<path fill-rule="evenodd" d="M447,367.3H685.8V352.6H447v14.7Z" class="g0_296"/>
<path fill-rule="evenodd" d="M447,382H685.8V367.3H447V382Z" class="g0_296"/>
<path fill-rule="evenodd" d="M465.4,396.6H686.2V382H465.4v14.6Z" class="g0_296"/>
<path fill-rule="evenodd" d="M446.7,412H685.8V397.4H446.7V412Z" class="g0_296"/>
<path fill-rule="evenodd" d="M446.7,426.7H685.8V412H446.7v14.7Z" class="g0_296"/>
<path fill-rule="evenodd" d="M446.7,441.4H685.8V426.7H446.7v14.7Z" class="g0_296"/>
<path fill-rule="evenodd" d="M446.7,456H685.8V441.4H446.7V456Z" class="g0_296"/>
<path fill-rule="evenodd" d="M445.9,471.1H685.5V456.4H445.9v14.7Z" class="g0_296"/>
<path fill-rule="evenodd" d="M445.9,485.7H685.5V471.1H445.9v14.6Z" class="g0_296"/>
<path fill-rule="evenodd" d="M445.9,500.4H685.5V485.7H445.9v14.7Z" class="g0_296"/>
<path fill-rule="evenodd" d="M464.7,515.1H686.2V500.4H464.7v14.7Z" class="g0_296"/>
<path fill-rule="evenodd" d="M445.9,529.7H685.5V515.1H445.9v14.6Z" class="g0_296"/>
<path fill-rule="evenodd" d="M445.9,544.4H685.5V529.7H445.9v14.7Z" class="g0_296"/>
<path fill-rule="evenodd" d="M445.9,559.1H685.5V544.4H445.9v14.7Z" class="g0_296"/>
<path fill-rule="evenodd" d="M445.9,573.7H685.5V559.1H445.9v14.6Z" class="g0_296"/>
<path fill-rule="evenodd" d="M445.9,588.4H685.5V573.7H445.9v14.7Z" class="g0_296"/>
<path fill-rule="evenodd" d="M445.9,603.5H684.7V588.8H445.9v14.7Z" class="g0_296"/>
<path fill-rule="evenodd" d="M445.9,618.1H684.7V603.5H445.9v14.6Z" class="g0_296"/>
<path fill-rule="evenodd" d="M445.9,632.8H684.7V618.1H445.9v14.7Z" class="g0_296"/>
<path fill-rule="evenodd" d="M445.9,647.5H684.7V632.8H445.9v14.7Z" class="g0_296"/>
<path fill-rule="evenodd" d="M445.9,662.1H684.7V647.5H445.9v14.6Z" class="g0_296"/>
<path fill-rule="evenodd" d="M445.9,677.2H684.4V662.5H445.9v14.7Z" class="g0_296"/>
<path fill-rule="evenodd" d="M445.9,691.8H684.4V677.2H445.9v14.6Z" class="g0_296"/>
<path fill-rule="evenodd" d="M464.3,706.9H686.2V692.2H464.3v14.7Z" class="g0_296"/>
<path fill-rule="evenodd" d="M445.6,721.5H684.4V706.9H445.6v14.6Z" class="g0_296"/>
<path fill-rule="evenodd" d="M445.6,736.2H684.4V721.5H445.6v14.7Z" class="g0_296"/>
<path fill-rule="evenodd" d="M445.6,750.9H684.7V736.2H445.6v14.7Z" class="g0_296"/>
<path fill-rule="evenodd" d="M445.6,765.5H684.7V750.9H445.6v14.6Z" class="g0_296"/>
<path fill-rule="evenodd" d="M445.6,780.2H685.1V765.5H445.6v14.7Z" class="g0_296"/>
<path fill-rule="evenodd" d="M445.6,794.9H685.1V780.2H445.6v14.7Z" class="g0_296"/>
<path fill-rule="evenodd" d="M445.6,809.5H685.1V794.9H445.6v14.6Z" class="g0_296"/>
<path fill-rule="evenodd" d="M445.9,824.2H685.1V809.5H445.9v14.7Z" class="g0_296"/>
<path fill-rule="evenodd" d="M445.9,838.9H685.1V824.2H445.9v14.7Z" class="g0_296"/>
<path fill-rule="evenodd" d="M445.9,853.6H685.1V838.9H445.9v14.7Z" class="g0_296"/>
<path fill-rule="evenodd" d="M445.9,868.2H684.4V853.6H445.9v14.6Z" class="g0_296"/>
<path fill-rule="evenodd" d="M445.9,882.9H684.4V868.2H445.9v14.7Z" class="g0_296"/>
<path fill-rule="evenodd" d="M445.9,897.6H684.4V882.9H445.9v14.7Z" class="g0_296"/>
<path fill-rule="evenodd" d="M422.5,930.2H686.9V912.6H422.5v17.6Z" class="g0_296"/>
<path d="M159.5,84.3V338.4" class="g1_296"/>
<path d="M434.8,146V916" class="g2_296"/>
</svg>