<?xml version="1.0" encoding="UTF-8" standalone="no"?>
<!DOCTYPE svg PUBLIC "-//W3C//DTD SVG 1.1//EN"
"http://www.w3.org/Graphics/SVG/1.1/DTD/svg11.dtd">
<svg viewBox="0 0 909 1285" version="1.1" xmlns="http://www.w3.org/2000/svg" xmlns:xlink="http://www.w3.org/1999/xlink">
<defs>
<style type="text/css"><![CDATA[
.g0_289{
fill: #FFFFFF;
}
.g1_289{
fill: none;
stroke: #000000;
stroke-width: 3.666;
stroke-linecap: butt;
stroke-linejoin: round;
}
.g2_289{
fill: none;
stroke: #000000;
stroke-width: 0.381;
stroke-linecap: butt;
stroke-linejoin: round;
}
]]></style>
</defs>
<path fill-rule="evenodd" d="M268.5,125.8H768.3V110H268.5v15.8Z" class="g0_289"/>
<path fill-rule="evenodd" d="M268.5,161.7H506.8V147.1H268.5v14.6Z" class="g0_289"/>
<path fill-rule="evenodd" d="M268.5,176.4H506.8V161.7H268.5v14.7Z" class="g0_289"/>
<path fill-rule="evenodd" d="M267.7,192H508.3V177.1H267.7V192Z" class="g0_289"/>
<path fill-rule="evenodd" d="M267.7,206.6H508.3V192H267.7v14.6Z" class="g0_289"/>
<path fill-rule="evenodd" d="M267.7,221.3H508.3V206.6H267.7v14.7Z" class="g0_289"/>
<path fill-rule="evenodd" d="M267.7,236H508.3V221.3H267.7V236Z" class="g0_289"/>
<path fill-rule="evenodd" d="M267.7,250.6H508.3V236H267.7v14.6Z" class="g0_289"/>
<path fill-rule="evenodd" d="M267.7,265.3H508.3V250.6H267.7v14.7Z" class="g0_289"/>
<path fill-rule="evenodd" d="M267.7,280H508.3V265.3H267.7V280Z" class="g0_289"/>
<path fill-rule="evenodd" d="M267.7,294.6H508.3V280H267.7v14.6Z" class="g0_289"/>
<path fill-rule="evenodd" d="M267.7,309.3H508.3V294.6H267.7v14.7Z" class="g0_289"/>
<path fill-rule="evenodd" d="M268.1,324H507.6V309.3H268.1V324Z" class="g0_289"/>
<path fill-rule="evenodd" d="M268.1,338.6H507.6V324H268.1v14.6Z" class="g0_289"/>
<path fill-rule="evenodd" d="M268.1,353.4H507.6V338.7H268.1v14.7Z" class="g0_289"/>
<path fill-rule="evenodd" d="M268.1,368.4H507.6v-15H268.1v15Z" class="g0_289"/>
<path fill-rule="evenodd" d="M268.1,383.1H507.6V368.4H268.1v14.7Z" class="g0_289"/>
<path fill-rule="evenodd" d="M267.7,397.7H507.2V383.1H267.7v14.6Z" class="g0_289"/>
<path fill-rule="evenodd" d="M267.7,412.4H507.2V397.7H267.7v14.7Z" class="g0_289"/>
<path fill-rule="evenodd" d="M286.4,427.1H508.3V412.4H286.4v14.7Z" class="g0_289"/>
<path fill-rule="evenodd" d="M267.4,442.1H508.3V427.4H267.4v14.7Z" class="g0_289"/>
<path fill-rule="evenodd" d="M267.4,456.8H508.3V442.1H267.4v14.7Z" class="g0_289"/>
<path fill-rule="evenodd" d="M267.4,471.4H508.3V456.8H267.4v14.6Z" class="g0_289"/>
<path fill-rule="evenodd" d="M267.4,486.1H508.3V471.4H267.4v14.7Z" class="g0_289"/>
<path fill-rule="evenodd" d="M267.4,500.8H508.3V486.1H267.4v14.7Z" class="g0_289"/>
<path fill-rule="evenodd" d="M267.4,515.4H508.3V500.8H267.4v14.6Z" class="g0_289"/>
<path fill-rule="evenodd" d="M267.4,530.1H508.3V515.4H267.4v14.7Z" class="g0_289"/>
<path fill-rule="evenodd" d="M267.4,544.8H508.3V530.1H267.4v14.7Z" class="g0_289"/>
<path fill-rule="evenodd" d="M267.4,559.4H508.3V544.8H267.4v14.6Z" class="g0_289"/>
<path fill-rule="evenodd" d="M267.4,574.5H507.6V559.8H267.4v14.7Z" class="g0_289"/>
<path fill-rule="evenodd" d="M267.4,589.1H507.6V574.5H267.4v14.6Z" class="g0_289"/>
<path fill-rule="evenodd" d="M267.4,603.8H507.6V589.1H267.4v14.7Z" class="g0_289"/>
<path fill-rule="evenodd" d="M267.4,618.5H507.6V603.8H267.4v14.7Z" class="g0_289"/>
<path fill-rule="evenodd" d="M267.7,633.5H508.3V618.9H267.7v14.6Z" class="g0_289"/>
<path fill-rule="evenodd" d="M267.7,648.2H508.3V633.5H267.7v14.7Z" class="g0_289"/>
<path fill-rule="evenodd" d="M267.4,662.9H507.9V648.2H267.4v14.7Z" class="g0_289"/>
<path fill-rule="evenodd" d="M267.4,677.5H507.9V662.9H267.4v14.6Z" class="g0_289"/>
<path fill-rule="evenodd" d="M267.4,692.2H507.9V677.5H267.4v14.7Z" class="g0_289"/>
<path fill-rule="evenodd" d="M286.1,707.6H508.3V692.9H286.1v14.7Z" class="g0_289"/>
<path fill-rule="evenodd" d="M267.7,730.1H508.3v-21H267.7v21Z" class="g0_289"/>
<path fill-rule="evenodd" d="M286.4,744.8H508.3V730.1H286.4v14.7Z" class="g0_289"/>
<path fill-rule="evenodd" d="M267.7,759.5H507.9V744.8H267.7v14.7Z" class="g0_289"/>
<path fill-rule="evenodd" d="M267.7,774.1H507.9V759.5H267.7v14.6Z" class="g0_289"/>
<path fill-rule="evenodd" d="M267.7,788.8H507.9V774.1H267.7v14.7Z" class="g0_289"/>
<path fill-rule="evenodd" d="M267.7,803.5H507.9V788.8H267.7v14.7Z" class="g0_289"/>
<path fill-rule="evenodd" d="M267.7,818.1H508.3V803.5H267.7v14.6Z" class="g0_289"/>
<path fill-rule="evenodd" d="M267.7,832.9H508.3V818.1H267.7v14.8Z" class="g0_289"/>
<path fill-rule="evenodd" d="M267.7,847.5H507.6V832.9H267.7v14.6Z" class="g0_289"/>
<path fill-rule="evenodd" d="M267.7,862.2H507.6V847.5H267.7v14.7Z" class="g0_289"/>
<path fill-rule="evenodd" d="M267.7,876.9H507.6V862.2H267.7v14.7Z" class="g0_289"/>
<path fill-rule="evenodd" d="M267.4,891.5H508.3V876.9H267.4v14.6Z" class="g0_289"/>
<path fill-rule="evenodd" d="M267.4,906.2H508.3V891.5H267.4v14.7Z" class="g0_289"/>
<path fill-rule="evenodd" d="M267.7,920.9H508.3V906.2H267.7v14.7Z" class="g0_289"/>
<path fill-rule="evenodd" d="M527.7,161.4H768.3V146.7H527.7v14.7Z" class="g0_289"/>
<path fill-rule="evenodd" d="M527.7,176H768.3V161.4H527.7V176Z" class="g0_289"/>
<path fill-rule="evenodd" d="M527.7,190.7H768.3V176H527.7v14.7Z" class="g0_289"/>
<path fill-rule="evenodd" d="M527.7,205.4H768.3V190.7H527.7v14.7Z" class="g0_289"/>
<path fill-rule="evenodd" d="M527.7,220H768.3V205.4H527.7V220Z" class="g0_289"/>
<path fill-rule="evenodd" d="M527.4,234.7H767.6V220H527.4v14.7Z" class="g0_289"/>
<path fill-rule="evenodd" d="M527.4,249.4H767.6V234.7H527.4v14.7Z" class="g0_289"/>
<path fill-rule="evenodd" d="M527.7,264H767.6V249.4H527.7V264Z" class="g0_289"/>
<path fill-rule="evenodd" d="M527.7,278.7H767.6V264H527.7v14.7Z" class="g0_289"/>
<path fill-rule="evenodd" d="M527.7,293.4H767.6V278.7H527.7v14.7Z" class="g0_289"/>
<path fill-rule="evenodd" d="M528.1,308H767.6V293.4H528.1V308Z" class="g0_289"/>
<path fill-rule="evenodd" d="M528.1,322.7H767.6V308H528.1v14.7Z" class="g0_289"/>
<path fill-rule="evenodd" d="M528.1,337.4H767.6V322.7H528.1v14.7Z" class="g0_289"/>
<path fill-rule="evenodd" d="M528.1,352H767.6V337.4H528.1V352Z" class="g0_289"/>
<path fill-rule="evenodd" d="M528.1,366.7H767.9V352H528.1v14.7Z" class="g0_289"/>
<path fill-rule="evenodd" d="M528.1,381.4H767.9V366.7H528.1v14.7Z" class="g0_289"/>
<path fill-rule="evenodd" d="M528.1,396.1H767.9V381.4H528.1v14.7Z" class="g0_289"/>
<path fill-rule="evenodd" d="M528.5,410.7H767.6V396.1H528.5v14.6Z" class="g0_289"/>
<path fill-rule="evenodd" d="M528.5,425.4H767.6V410.7H528.5v14.7Z" class="g0_289"/>
<path fill-rule="evenodd" d="M527.7,440.1H767.2V425.4H527.7v14.7Z" class="g0_289"/>
<path fill-rule="evenodd" d="M527.7,454.7H767.2V440.1H527.7v14.6Z" class="g0_289"/>
<path fill-rule="evenodd" d="M527.7,469.4H767.2V454.7H527.7v14.7Z" class="g0_289"/>
<path fill-rule="evenodd" d="M528.1,484.1H767.6V469.4H528.1v14.7Z" class="g0_289"/>
<path fill-rule="evenodd" d="M528.1,498.7H767.6V484.1H528.1v14.6Z" class="g0_289"/>
<path fill-rule="evenodd" d="M528.1,513.4H767.6V498.7H528.1v14.7Z" class="g0_289"/>
<path fill-rule="evenodd" d="M528.1,528.1H767.6V513.4H528.1v14.7Z" class="g0_289"/>
<path fill-rule="evenodd" d="M528.1,542.7H767.6V528.1H528.1v14.6Z" class="g0_289"/>
<path fill-rule="evenodd" d="M527.7,557.4H767.6V542.7H527.7v14.7Z" class="g0_289"/>
<path fill-rule="evenodd" d="M527.7,572.1H767.6V557.4H527.7v14.7Z" class="g0_289"/>
<path fill-rule="evenodd" d="M527.7,586.7H767.6V572.1H527.7v14.6Z" class="g0_289"/>
<path fill-rule="evenodd" d="M527.7,601.4H767.6V586.7H527.7v14.7Z" class="g0_289"/>
<path fill-rule="evenodd" d="M528.1,616.1H767.9V601.4H528.1v14.7Z" class="g0_289"/>
<path fill-rule="evenodd" d="M528.1,630.8H767.9V616.1H528.1v14.7Z" class="g0_289"/>
<path fill-rule="evenodd" d="M528.1,645.4H767.9V630.8H528.1v14.6Z" class="g0_289"/>
<path fill-rule="evenodd" d="M528.1,660.1H767.9V645.4H528.1v14.7Z" class="g0_289"/>
<path fill-rule="evenodd" d="M528.1,674.8H767.9V660.1H528.1v14.7Z" class="g0_289"/>
<path fill-rule="evenodd" d="M528.1,689.4H767.9V674.8H528.1v14.6Z" class="g0_289"/>
<path fill-rule="evenodd" d="M528.1,704.1H767.9V689.4H528.1v14.7Z" class="g0_289"/>
<path fill-rule="evenodd" d="M528.1,718.8H767.9V704.1H528.1v14.7Z" class="g0_289"/>
<path fill-rule="evenodd" d="M528.5,733.4H767.6V718.8H528.5v14.6Z" class="g0_289"/>
<path fill-rule="evenodd" d="M528.5,748.1H767.6V733.4H528.5v14.7Z" class="g0_289"/>
<path fill-rule="evenodd" d="M546.8,762.8H768.3V748.1H546.8v14.7Z" class="g0_289"/>
<path fill-rule="evenodd" d="M546.4,777.4H768.3V762.8H546.4v14.6Z" class="g0_289"/>
<path fill-rule="evenodd" d="M528.5,792.1H768.3V777.4H528.5v14.7Z" class="g0_289"/>
<path fill-rule="evenodd" d="M528.5,806.8H768.3V792.1H528.5v14.7Z" class="g0_289"/>
<path fill-rule="evenodd" d="M528.5,821.4H768.3V806.8H528.5v14.6Z" class="g0_289"/>
<path fill-rule="evenodd" d="M528.5,836.2H768.3V821.4H528.5v14.8Z" class="g0_289"/>
<path fill-rule="evenodd" d="M528.5,850.8H768.3V836.2H528.5v14.6Z" class="g0_289"/>
<path fill-rule="evenodd" d="M547.2,865.5H768.3V850.8H547.2v14.7Z" class="g0_289"/>
<path fill-rule="evenodd" d="M505,938.8H768.3V921.2H505v17.6Z" class="g0_289"/>
<path d="M183.3,410.7V521.8" class="g1_289"/>
<path d="M517.4,147.5V915.7" class="g2_289"/>
</svg>