<?xml version="1.0" encoding="UTF-8" standalone="no"?>
<!DOCTYPE svg PUBLIC "-//W3C//DTD SVG 1.1//EN"
"http://www.w3.org/Graphics/SVG/1.1/DTD/svg11.dtd">
<svg viewBox="0 0 909 1285" version="1.1" xmlns="http://www.w3.org/2000/svg" xmlns:xlink="http://www.w3.org/1999/xlink">
<defs>
<style type="text/css"><![CDATA[
.g0_134{
fill: #FFFFFF;
}
.g1_134{
fill: none;
stroke: #000000;
stroke-width: 0.381;
stroke-linecap: butt;
stroke-linejoin: round;
}
]]></style>
</defs>
<path fill-rule="evenodd" d="M582.7,125.8H700.5V110H582.7v15.8Z" class="g0_134"/>
<path fill-rule="evenodd" d="M217.8,161.7H439.3v-15H217.8v15Z" class="g0_134"/>
<path fill-rule="evenodd" d="M199.9,176.9H439.3V161.7H199.9v15.2Z" class="g0_134"/>
<path fill-rule="evenodd" d="M199.9,192H439.3V176.9H199.9V192Z" class="g0_134"/>
<path fill-rule="evenodd" d="M199.1,207H439.3V192H199.1v15Z" class="g0_134"/>
<path fill-rule="evenodd" d="M199.1,222H439.3V207H199.1v15Z" class="g0_134"/>
<path fill-rule="evenodd" d="M199.1,237.1H439.3V222H199.1v15.1Z" class="g0_134"/>
<path fill-rule="evenodd" d="M199.1,252.1H439.3v-15H199.1v15Z" class="g0_134"/>
<path fill-rule="evenodd" d="M199.1,267.1H439.3v-15H199.1v15Z" class="g0_134"/>
<path fill-rule="evenodd" d="M199.1,282.2H439.3V267.1H199.1v15.1Z" class="g0_134"/>
<path fill-rule="evenodd" d="M199.1,297.2H439.3v-15H199.1v15Z" class="g0_134"/>
<path fill-rule="evenodd" d="M199.1,312.2H438.6v-15H199.1v15Z" class="g0_134"/>
<path fill-rule="evenodd" d="M199.1,327.3H438.6V312.2H199.1v15.1Z" class="g0_134"/>
<path fill-rule="evenodd" d="M198.4,342.5H439V327.3H198.4v15.2Z" class="g0_134"/>
<path fill-rule="evenodd" d="M198.4,357.6H439V342.5H198.4v15.1Z" class="g0_134"/>
<path fill-rule="evenodd" d="M198.4,372.6H439v-15H198.4v15Z" class="g0_134"/>
<path fill-rule="evenodd" d="M198.4,387.6H439v-15H198.4v15Z" class="g0_134"/>
<path fill-rule="evenodd" d="M198.4,402.7H439V387.6H198.4v15.1Z" class="g0_134"/>
<path fill-rule="evenodd" d="M199.1,418.1H438.2V403H199.1v15.1Z" class="g0_134"/>
<path fill-rule="evenodd" d="M199.1,433.1H438.2v-15H199.1v15Z" class="g0_134"/>
<path fill-rule="evenodd" d="M198.8,448.1H437.9v-15H198.8v15Z" class="g0_134"/>
<path fill-rule="evenodd" d="M198.8,463.2H437.9V448.1H198.8v15.1Z" class="g0_134"/>
<path fill-rule="evenodd" d="M198.8,478.2H438.2v-15H198.8v15Z" class="g0_134"/>
<path fill-rule="evenodd" d="M198.8,493.2H438.2v-15H198.8v15Z" class="g0_134"/>
<path fill-rule="evenodd" d="M198.4,508.5H437.9V493.2H198.4v15.3Z" class="g0_134"/>
<path fill-rule="evenodd" d="M198.4,523.5H437.9v-15H198.4v15Z" class="g0_134"/>
<path fill-rule="evenodd" d="M217.1,538.5H439.3v-15H217.1v15Z" class="g0_134"/>
<path fill-rule="evenodd" d="M216.7,553.6H439.3V538.5H216.7v15.1Z" class="g0_134"/>
<path fill-rule="evenodd" d="M198,568.6H437.9v-15H198v15Z" class="g0_134"/>
<path fill-rule="evenodd" d="M198,583.6H437.9v-15H198v15Z" class="g0_134"/>
<path fill-rule="evenodd" d="M198.4,598.7H437.9V583.6H198.4v15.1Z" class="g0_134"/>
<path fill-rule="evenodd" d="M198.4,613.7H437.9v-15H198.4v15Z" class="g0_134"/>
<path fill-rule="evenodd" d="M198.4,628.8H437.5V613.7H198.4v15.1Z" class="g0_134"/>
<path fill-rule="evenodd" d="M198.4,643.8H437.5v-15H198.4v15Z" class="g0_134"/>
<path fill-rule="evenodd" d="M197.7,658.8H437.9v-15H197.7v15Z" class="g0_134"/>
<path fill-rule="evenodd" d="M197.7,673.9H437.9V658.8H197.7v15.1Z" class="g0_134"/>
<path fill-rule="evenodd" d="M197.7,689.1H437.9V673.9H197.7v15.2Z" class="g0_134"/>
<path fill-rule="evenodd" d="M216.4,704.1H439.3v-15H216.4v15Z" class="g0_134"/>
<path fill-rule="evenodd" d="M198,719.1H437.9v-15H198v15Z" class="g0_134"/>
<path fill-rule="evenodd" d="M198,734.2H437.9V719.1H198v15.1Z" class="g0_134"/>
<path fill-rule="evenodd" d="M198,749.2H437.9v-15H198v15Z" class="g0_134"/>
<path fill-rule="evenodd" d="M197.7,764.2H437.9v-15H197.7v15Z" class="g0_134"/>
<path fill-rule="evenodd" d="M197.7,779.3H437.9V764.2H197.7v15.1Z" class="g0_134"/>
<path fill-rule="evenodd" d="M197.7,794.3H437.9v-15H197.7v15Z" class="g0_134"/>
<path fill-rule="evenodd" d="M197.7,809.3H437.9v-15H197.7v15Z" class="g0_134"/>
<path fill-rule="evenodd" d="M197.7,824.4H437.9V809.3H197.7v15.1Z" class="g0_134"/>
<path fill-rule="evenodd" d="M198,839.5H437.5V824.4H198v15.1Z" class="g0_134"/>
<path fill-rule="evenodd" d="M198,854.5H437.5v-15H198v15Z" class="g0_134"/>
<path fill-rule="evenodd" d="M198,869.7H437.5V854.5H198v15.2Z" class="g0_134"/>
<path fill-rule="evenodd" d="M199.1,884.4H439.3V869.7H199.1v14.7Z" class="g0_134"/>
<path fill-rule="evenodd" d="M459.5,161.7h241V147.1h-241v14.6Z" class="g0_134"/>
<path fill-rule="evenodd" d="M459.5,176.4h241V161.7h-241v14.7Z" class="g0_134"/>
<path fill-rule="evenodd" d="M459.2,191.6H700.1V176.8H459.2v14.8Z" class="g0_134"/>
<path fill-rule="evenodd" d="M459.2,206.3H700.1V191.6H459.2v14.7Z" class="g0_134"/>
<path fill-rule="evenodd" d="M459.2,220.9H700.1V206.3H459.2v14.6Z" class="g0_134"/>
<path fill-rule="evenodd" d="M459.2,235.6H700.1V220.9H459.2v14.7Z" class="g0_134"/>
<path fill-rule="evenodd" d="M459.2,250.3H700.1V235.6H459.2v14.7Z" class="g0_134"/>
<path fill-rule="evenodd" d="M459.2,264.9H700.1V250.3H459.2v14.6Z" class="g0_134"/>
<path fill-rule="evenodd" d="M459.2,279.6H700.1V264.9H459.2v14.7Z" class="g0_134"/>
<path fill-rule="evenodd" d="M459.2,294.3H700.1V279.6H459.2v14.7Z" class="g0_134"/>
<path fill-rule="evenodd" d="M458.8,309.3H700.1V294.6H458.8v14.7Z" class="g0_134"/>
<path fill-rule="evenodd" d="M458.8,324H700.1V309.3H458.8V324Z" class="g0_134"/>
<path fill-rule="evenodd" d="M458.8,338.6H700.1V324H458.8v14.6Z" class="g0_134"/>
<path fill-rule="evenodd" d="M458.8,353.4H700.1V338.7H458.8v14.7Z" class="g0_134"/>
<path fill-rule="evenodd" d="M458.8,368H700.1V353.4H458.8V368Z" class="g0_134"/>
<path fill-rule="evenodd" d="M458.8,382.7H700.1V368H458.8v14.7Z" class="g0_134"/>
<path fill-rule="evenodd" d="M458.8,397.4H700.1V382.7H458.8v14.7Z" class="g0_134"/>
<path fill-rule="evenodd" d="M458.8,412H700.1V397.4H458.8V412Z" class="g0_134"/>
<path fill-rule="evenodd" d="M458.8,426.7H700.1V412H458.8v14.7Z" class="g0_134"/>
<path fill-rule="evenodd" d="M458.8,441.4H700.1V426.7H458.8v14.7Z" class="g0_134"/>
<path fill-rule="evenodd" d="M458.8,456H700.1V441.4H458.8V456Z" class="g0_134"/>
<path fill-rule="evenodd" d="M458.8,470.7H700.1V456H458.8v14.7Z" class="g0_134"/>
<path fill-rule="evenodd" d="M458.8,485.4H700.1V470.7H458.8v14.7Z" class="g0_134"/>
<path fill-rule="evenodd" d="M458.8,500.4H644.7V485.7H458.8v14.7Z" class="g0_134"/>
<path fill-rule="evenodd" d="M458.8,515.1H644.7V500.4H458.8v14.7Z" class="g0_134"/>
<path fill-rule="evenodd" d="M458.8,529.7H699V515.1H458.8v14.6Z" class="g0_134"/>
<path fill-rule="evenodd" d="M458.8,544.4H699V529.7H458.8v14.7Z" class="g0_134"/>
<path fill-rule="evenodd" d="M458.8,559.1H699V544.4H458.8v14.7Z" class="g0_134"/>
<path fill-rule="evenodd" d="M458.4,573.7H699V559.1H458.4v14.6Z" class="g0_134"/>
<path fill-rule="evenodd" d="M458.4,588.4H699V573.7H458.4v14.7Z" class="g0_134"/>
<path fill-rule="evenodd" d="M458.4,603.1H699V588.4H458.4v14.7Z" class="g0_134"/>
<path fill-rule="evenodd" d="M458.8,617.8H698.3V603.1H458.8v14.7Z" class="g0_134"/>
<path fill-rule="evenodd" d="M458.8,632.4H698.3V617.8H458.8v14.6Z" class="g0_134"/>
<path fill-rule="evenodd" d="M458.8,647.1H698.3V632.4H458.8v14.7Z" class="g0_134"/>
<path fill-rule="evenodd" d="M458.8,661.8H698.3V647.1H458.8v14.7Z" class="g0_134"/>
<path fill-rule="evenodd" d="M458.4,676.4H698.6V661.8H458.4v14.6Z" class="g0_134"/>
<path fill-rule="evenodd" d="M458.4,691.1H698.6V676.4H458.4v14.7Z" class="g0_134"/>
<path fill-rule="evenodd" d="M458.4,705.8H698.6V691.1H458.4v14.7Z" class="g0_134"/>
<path fill-rule="evenodd" d="M458.4,720.4H698.6V705.8H458.4v14.6Z" class="g0_134"/>
<path fill-rule="evenodd" d="M458.4,735.1H698.6V720.4H458.4v14.7Z" class="g0_134"/>
<path fill-rule="evenodd" d="M458.4,749.8H698.6V735.1H458.4v14.7Z" class="g0_134"/>
<path fill-rule="evenodd" d="M458.4,764.4H698.6V749.8H458.4v14.6Z" class="g0_134"/>
<path fill-rule="evenodd" d="M458.4,779.1H698.6V764.4H458.4v14.7Z" class="g0_134"/>
<path fill-rule="evenodd" d="M458.4,793.8H698.6V779.1H458.4v14.7Z" class="g0_134"/>
<path fill-rule="evenodd" d="M458.1,808.4H697.9V793.8H458.1v14.6Z" class="g0_134"/>
<path fill-rule="evenodd" d="M458.1,823.1H697.9V808.4H458.1v14.7Z" class="g0_134"/>
<path fill-rule="evenodd" d="M458.1,837.8H697.9V823.1H458.1v14.7Z" class="g0_134"/>
<path fill-rule="evenodd" d="M458.4,852.5H697.9V837.8H458.4v14.7Z" class="g0_134"/>
<path fill-rule="evenodd" d="M458.4,867.1H697.9V852.5H458.4v14.6Z" class="g0_134"/>
<path fill-rule="evenodd" d="M458.1,881.8H697.9V867.1H458.1v14.7Z" class="g0_134"/>
<path fill-rule="evenodd" d="M458.1,896.5H697.9V881.8H458.1v14.7Z" class="g0_134"/>
<path fill-rule="evenodd" d="M435.3,928.7H700.5V911.1H435.3v17.6Z" class="g0_134"/>
<path d="M447.3,146.4V914.9" class="g1_134"/>
</svg>