<?xml version="1.0" encoding="UTF-8" standalone="no"?>
<!DOCTYPE svg PUBLIC "-//W3C//DTD SVG 1.1//EN"
"http://www.w3.org/Graphics/SVG/1.1/DTD/svg11.dtd">
<svg viewBox="0 0 909 1285" version="1.1" xmlns="http://www.w3.org/2000/svg" xmlns:xlink="http://www.w3.org/1999/xlink">
<defs>
<style type="text/css"><![CDATA[
.g0_113{
fill: #FFFFFF;
}
.g1_113{
fill: none;
stroke: #000000;
stroke-width: 0.381;
stroke-linecap: butt;
stroke-linejoin: round;
}
]]></style>
</defs>
<path fill-rule="evenodd" d="M255.8,131.1H756V110H255.8v21.1Z" class="g0_113"/>
<path fill-rule="evenodd" d="M255.8,165.9H495.7v-15H255.8v15Z" class="g0_113"/>
<path fill-rule="evenodd" d="M255.8,181H495.7V165.9H255.8V181Z" class="g0_113"/>
<path fill-rule="evenodd" d="M255.8,196H494.9V181H255.8v15Z" class="g0_113"/>
<path fill-rule="evenodd" d="M255.8,211H494.9V196H255.8v15Z" class="g0_113"/>
<path fill-rule="evenodd" d="M255.4,226.1H495.3V211H255.4v15.1Z" class="g0_113"/>
<path fill-rule="evenodd" d="M255.4,241.1H495.3v-15H255.4v15Z" class="g0_113"/>
<path fill-rule="evenodd" d="M255.4,256.1H495.3v-15H255.4v15Z" class="g0_113"/>
<path fill-rule="evenodd" d="M255.4,271.4H495.3V256.1H255.4v15.3Z" class="g0_113"/>
<path fill-rule="evenodd" d="M255.4,286.4H495.3v-15H255.4v15Z" class="g0_113"/>
<path fill-rule="evenodd" d="M255.4,301.4H495.7v-15H255.4v15Z" class="g0_113"/>
<path fill-rule="evenodd" d="M255.4,316.5H495.7V301.4H255.4v15.1Z" class="g0_113"/>
<path fill-rule="evenodd" d="M255.4,331.5H495.7v-15H255.4v15Z" class="g0_113"/>
<path fill-rule="evenodd" d="M255.4,346.5H495.7v-15H255.4v15Z" class="g0_113"/>
<path fill-rule="evenodd" d="M255.4,361.6H495.7V346.5H255.4v15.1Z" class="g0_113"/>
<path fill-rule="evenodd" d="M255.4,376.6H495.7v-15H255.4v15Z" class="g0_113"/>
<path fill-rule="evenodd" d="M255.4,391.7H495.7V376.6H255.4v15.1Z" class="g0_113"/>
<path fill-rule="evenodd" d="M255.4,406.7H495.7v-15H255.4v15Z" class="g0_113"/>
<path fill-rule="evenodd" d="M255.4,421.7H495.7v-15H255.4v15Z" class="g0_113"/>
<path fill-rule="evenodd" d="M255.4,437H495.7V421.7H255.4V437Z" class="g0_113"/>
<path fill-rule="evenodd" d="M255.4,452H439.9V437H255.4v15Z" class="g0_113"/>
<path fill-rule="evenodd" d="M255.4,467H439.9V452H255.4v15Z" class="g0_113"/>
<path fill-rule="evenodd" d="M255,482.1H495.3V467H255v15.1Z" class="g0_113"/>
<path fill-rule="evenodd" d="M255,497.1H495.3v-15H255v15Z" class="g0_113"/>
<path fill-rule="evenodd" d="M255,512.1H495.3v-15H255v15Z" class="g0_113"/>
<path fill-rule="evenodd" d="M255,527.2H495.3V512.1H255v15.1Z" class="g0_113"/>
<path fill-rule="evenodd" d="M255.4,542.2H494.6v-15H255.4v15Z" class="g0_113"/>
<path fill-rule="evenodd" d="M255.4,557.2H494.6v-15H255.4v15Z" class="g0_113"/>
<path fill-rule="evenodd" d="M255,572.3H494.9V557.2H255v15.1Z" class="g0_113"/>
<path fill-rule="evenodd" d="M255,587.3H494.9v-15H255v15Z" class="g0_113"/>
<path fill-rule="evenodd" d="M255,602.4H494.9V587.3H255v15.1Z" class="g0_113"/>
<path fill-rule="evenodd" d="M255,617.6H494.9V602.4H255v15.2Z" class="g0_113"/>
<path fill-rule="evenodd" d="M255,632.6H494.9v-15H255v15Z" class="g0_113"/>
<path fill-rule="evenodd" d="M255,647.6H494.9v-15H255v15Z" class="g0_113"/>
<path fill-rule="evenodd" d="M255,662.7H494.9V647.6H255v15.1Z" class="g0_113"/>
<path fill-rule="evenodd" d="M255,677.7H494.9v-15H255v15Z" class="g0_113"/>
<path fill-rule="evenodd" d="M255,692.7H494.9v-15H255v15Z" class="g0_113"/>
<path fill-rule="evenodd" d="M255,707.8H494.9V692.7H255v15.1Z" class="g0_113"/>
<path fill-rule="evenodd" d="M255,722.8H494.9v-15H255v15Z" class="g0_113"/>
<path fill-rule="evenodd" d="M255,737.8H494.9v-15H255v15Z" class="g0_113"/>
<path fill-rule="evenodd" d="M254.3,752.9H494.6V737.8H254.3v15.1Z" class="g0_113"/>
<path fill-rule="evenodd" d="M254.3,767.9H494.6v-15H254.3v15Z" class="g0_113"/>
<path fill-rule="evenodd" d="M254.3,782.9H494.6v-15H254.3v15Z" class="g0_113"/>
<path fill-rule="evenodd" d="M254.3,798.2H494.6V782.9H254.3v15.3Z" class="g0_113"/>
<path fill-rule="evenodd" d="M253.6,813.2H494.9v-15H253.6v15Z" class="g0_113"/>
<path fill-rule="evenodd" d="M253.6,828.2H494.9v-15H253.6v15Z" class="g0_113"/>
<path fill-rule="evenodd" d="M253.6,843.3H494.9V828.2H253.6v15.1Z" class="g0_113"/>
<path fill-rule="evenodd" d="M253.6,858.3H494.9v-15H253.6v15Z" class="g0_113"/>
<path fill-rule="evenodd" d="M253.6,873.4H494.9V858.3H253.6v15.1Z" class="g0_113"/>
<path fill-rule="evenodd" d="M253.6,888.4H494.9v-15H253.6v15Z" class="g0_113"/>
<path fill-rule="evenodd" d="M253.6,903.4H494.9v-15H253.6v15Z" class="g0_113"/>
<path fill-rule="evenodd" d="M254.7,918.5H467.8V903.4H254.7v15.1Z" class="g0_113"/>
<path fill-rule="evenodd" d="M515.5,165.9H728.2v-15H515.5v15Z" class="g0_113"/>
<path fill-rule="evenodd" d="M515.5,181H728.2V165.9H515.5V181Z" class="g0_113"/>
<path fill-rule="evenodd" d="M515.5,196H756V181H515.5v15Z" class="g0_113"/>
<path fill-rule="evenodd" d="M515.5,211H756V196H515.5v15Z" class="g0_113"/>
<path fill-rule="evenodd" d="M515.5,226.1H756V211H515.5v15.1Z" class="g0_113"/>
<path fill-rule="evenodd" d="M515.5,241.1H756v-15H515.5v15Z" class="g0_113"/>
<path fill-rule="evenodd" d="M515.8,256.1H756v-15H515.8v15Z" class="g0_113"/>
<path fill-rule="evenodd" d="M515.8,271.4H756V256.1H515.8v15.3Z" class="g0_113"/>
<path fill-rule="evenodd" d="M515.8,286.4H756v-15H515.8v15Z" class="g0_113"/>
<path fill-rule="evenodd" d="M515.8,301.4H755.3v-15H515.8v15Z" class="g0_113"/>
<path fill-rule="evenodd" d="M515.8,316.5H755.3V301.4H515.8v15.1Z" class="g0_113"/>
<path fill-rule="evenodd" d="M515.8,331.5H755.7v-15H515.8v15Z" class="g0_113"/>
<path fill-rule="evenodd" d="M515.8,346.5H755.7v-15H515.8v15Z" class="g0_113"/>
<path fill-rule="evenodd" d="M533.8,361.6H756V346.5H533.8v15.1Z" class="g0_113"/>
<path fill-rule="evenodd" d="M533.8,376.6H756v-15H533.8v15Z" class="g0_113"/>
<path fill-rule="evenodd" d="M515.5,391.7H755.3V376.6H515.5v15.1Z" class="g0_113"/>
<path fill-rule="evenodd" d="M515.5,406.7H755.3v-15H515.5v15Z" class="g0_113"/>
<path fill-rule="evenodd" d="M514.4,421.7H756v-15H514.4v15Z" class="g0_113"/>
<path fill-rule="evenodd" d="M514.4,437H756V421.7H514.4V437Z" class="g0_113"/>
<path fill-rule="evenodd" d="M514.4,452H756V437H514.4v15Z" class="g0_113"/>
<path fill-rule="evenodd" d="M514.4,467H756V452H514.4v15Z" class="g0_113"/>
<path fill-rule="evenodd" d="M515.5,482.1H755.3V467H515.5v15.1Z" class="g0_113"/>
<path fill-rule="evenodd" d="M515.5,497.1H755.3v-15H515.5v15Z" class="g0_113"/>
<path fill-rule="evenodd" d="M515.5,512.1H755.3v-15H515.5v15Z" class="g0_113"/>
<path fill-rule="evenodd" d="M515.5,527.2H755.3V512.1H515.5v15.1Z" class="g0_113"/>
<path fill-rule="evenodd" d="M533.4,542.2H756v-15H533.4v15Z" class="g0_113"/>
<path fill-rule="evenodd" d="M514.7,557.2h241v-15h-241v15Z" class="g0_113"/>
<path fill-rule="evenodd" d="M514.7,572.3h241V557.2h-241v15.1Z" class="g0_113"/>
<path fill-rule="evenodd" d="M515.1,587.3H756v-15H515.1v15Z" class="g0_113"/>
<path fill-rule="evenodd" d="M515.1,602.4H756V587.3H515.1v15.1Z" class="g0_113"/>
<path fill-rule="evenodd" d="M515.1,617.6H754.9V602.4H515.1v15.2Z" class="g0_113"/>
<path fill-rule="evenodd" d="M515.1,632.6H754.9v-15H515.1v15Z" class="g0_113"/>
<path fill-rule="evenodd" d="M514.4,647.6H754.9v-15H514.4v15Z" class="g0_113"/>
<path fill-rule="evenodd" d="M514.4,662.7H754.9V647.6H514.4v15.1Z" class="g0_113"/>
<path fill-rule="evenodd" d="M514.4,677.7H754.9v-15H514.4v15Z" class="g0_113"/>
<path fill-rule="evenodd" d="M515.1,692.7H754.9v-15H515.1v15Z" class="g0_113"/>
<path fill-rule="evenodd" d="M515.1,707.8H754.9V692.7H515.1v15.1Z" class="g0_113"/>
<path fill-rule="evenodd" d="M514.4,722.8H755.3v-15H514.4v15Z" class="g0_113"/>
<path fill-rule="evenodd" d="M514.4,737.8H755.3v-15H514.4v15Z" class="g0_113"/>
<path fill-rule="evenodd" d="M514.4,752.9H755.3V737.8H514.4v15.1Z" class="g0_113"/>
<path fill-rule="evenodd" d="M514.4,767.9H755.3v-15H514.4v15Z" class="g0_113"/>
<path fill-rule="evenodd" d="M514.4,782.9H755.3v-15H514.4v15Z" class="g0_113"/>
<path fill-rule="evenodd" d="M514.4,798.2H755.3V782.9H514.4v15.3Z" class="g0_113"/>
<path fill-rule="evenodd" d="M514.4,813.2H755.3v-15H514.4v15Z" class="g0_113"/>
<path fill-rule="evenodd" d="M514.4,828.2H755.3v-15H514.4v15Z" class="g0_113"/>
<path fill-rule="evenodd" d="M514.4,843.3H755.3V828.2H514.4v15.1Z" class="g0_113"/>
<path fill-rule="evenodd" d="M533.1,858.3H756v-15H533.1v15Z" class="g0_113"/>
<path fill-rule="evenodd" d="M514.4,873.4H754.6V858.3H514.4v15.1Z" class="g0_113"/>
<path fill-rule="evenodd" d="M514.4,888.4H754.6v-15H514.4v15Z" class="g0_113"/>
<path fill-rule="evenodd" d="M492.7,935H756V919.2H492.7V935Z" class="g0_113"/>
<path d="M191.6,112.2v187m6.2,-187V484.4M178,701.3v32.2M200.4,485.6v522.1M504.7,151.9v769" class="g1_113"/>
</svg>