<?xml version="1.0" encoding="UTF-8" standalone="no"?>
<!DOCTYPE svg PUBLIC "-//W3C//DTD SVG 1.1//EN"
"http://www.w3.org/Graphics/SVG/1.1/DTD/svg11.dtd">
<svg viewBox="0 0 909 1285" version="1.1" xmlns="http://www.w3.org/2000/svg" xmlns:xlink="http://www.w3.org/1999/xlink">
<defs>
<style type="text/css"><![CDATA[
.g0_234{
fill: #FFFFFF;
}
.g1_234{
fill: none;
stroke: #000000;
stroke-width: 2.902;
stroke-linecap: butt;
stroke-linejoin: round;
}
.g2_234{
fill: none;
stroke: #000000;
stroke-width: 5.118;
stroke-linecap: butt;
stroke-linejoin: round;
}
.g3_234{
fill: none;
stroke: #000000;
stroke-width: 0.381;
stroke-linecap: butt;
stroke-linejoin: round;
}
]]></style>
</defs>
<path fill-rule="evenodd" d="M581.3,125.8h99.4V110H581.3v15.8Z" class="g0_234"/>
<path fill-rule="evenodd" d="M182.6,161.7h238V147.1h-238v14.6Z" class="g0_234"/>
<path fill-rule="evenodd" d="M182.6,176.4h238V161.7h-238v14.7Z" class="g0_234"/>
<path fill-rule="evenodd" d="M182.6,191.1h238V176.4h-238v14.7Z" class="g0_234"/>
<path fill-rule="evenodd" d="M182.3,206.6H420.6V191.8H182.3v14.8Z" class="g0_234"/>
<path fill-rule="evenodd" d="M182.3,221.3H420.6V206.6H182.3v14.7Z" class="g0_234"/>
<path fill-rule="evenodd" d="M181.5,236H419.9V221.3H181.5V236Z" class="g0_234"/>
<path fill-rule="evenodd" d="M181.5,250.6H419.9V236H181.5v14.6Z" class="g0_234"/>
<path fill-rule="evenodd" d="M181.5,265.3H419.9V250.6H181.5v14.7Z" class="g0_234"/>
<path fill-rule="evenodd" d="M182.6,280H419.9V265.3H182.6V280Z" class="g0_234"/>
<path fill-rule="evenodd" d="M182.6,294.6H419.9V280H182.6v14.6Z" class="g0_234"/>
<path fill-rule="evenodd" d="M181.9,309.3h238V294.6h-238v14.7Z" class="g0_234"/>
<path fill-rule="evenodd" d="M181.9,324h238V309.3h-238V324Z" class="g0_234"/>
<path fill-rule="evenodd" d="M181.9,338.6h238V324h-238v14.6Z" class="g0_234"/>
<path fill-rule="evenodd" d="M200.2,353.7H420.6V339H200.2v14.7Z" class="g0_234"/>
<path fill-rule="evenodd" d="M181.5,368.8H419.9V354.1H181.5v14.7Z" class="g0_234"/>
<path fill-rule="evenodd" d="M181.5,383.4H419.9V368.8H181.5v14.6Z" class="g0_234"/>
<path fill-rule="evenodd" d="M181.2,398.1H419.9V383.4H181.2v14.7Z" class="g0_234"/>
<path fill-rule="evenodd" d="M181.2,412.8H419.9V398.1H181.2v14.7Z" class="g0_234"/>
<path fill-rule="evenodd" d="M181.2,427.4H419.9V412.8H181.2v14.6Z" class="g0_234"/>
<path fill-rule="evenodd" d="M181.2,442.1H419.9V427.4H181.2v14.7Z" class="g0_234"/>
<path fill-rule="evenodd" d="M181.2,456.8H419.9V442.1H181.2v14.7Z" class="g0_234"/>
<path fill-rule="evenodd" d="M181.2,471.4H419.5V456.8H181.2v14.6Z" class="g0_234"/>
<path fill-rule="evenodd" d="M181.2,486.1H419.5V471.4H181.2v14.7Z" class="g0_234"/>
<path fill-rule="evenodd" d="M181.5,501.1H419.9V486.5H181.5v14.6Z" class="g0_234"/>
<path fill-rule="evenodd" d="M181.5,515.8H419.9V501.1H181.5v14.7Z" class="g0_234"/>
<path fill-rule="evenodd" d="M181.5,530.5H419.9V515.8H181.5v14.7Z" class="g0_234"/>
<path fill-rule="evenodd" d="M181.2,545.1h238V530.5h-238v14.6Z" class="g0_234"/>
<path fill-rule="evenodd" d="M181.2,559.8h238V545.1h-238v14.7Z" class="g0_234"/>
<path fill-rule="evenodd" d="M199.5,574.5H420.6V559.8H199.5v14.7Z" class="g0_234"/>
<path fill-rule="evenodd" d="M199.5,589.5H420.6v-15H199.5v15Z" class="g0_234"/>
<path fill-rule="evenodd" d="M181.2,604.2H419.5V589.5H181.2v14.7Z" class="g0_234"/>
<path fill-rule="evenodd" d="M181.2,618.9H419.5V604.2H181.2v14.7Z" class="g0_234"/>
<path fill-rule="evenodd" d="M181.2,633.5H419.5V618.9H181.2v14.6Z" class="g0_234"/>
<path fill-rule="evenodd" d="M181.2,648.2H419.5V633.5H181.2v14.7Z" class="g0_234"/>
<path fill-rule="evenodd" d="M199.1,662.9H420.6V648.2H199.1v14.7Z" class="g0_234"/>
<path fill-rule="evenodd" d="M180.8,677.9H419.2V663.2H180.8v14.7Z" class="g0_234"/>
<path fill-rule="evenodd" d="M180.8,692.6H419.2V677.9H180.8v14.7Z" class="g0_234"/>
<path fill-rule="evenodd" d="M180.8,707.6h238V692.9h-238v14.7Z" class="g0_234"/>
<path fill-rule="evenodd" d="M180.8,722.3h238V707.6h-238v14.7Z" class="g0_234"/>
<path fill-rule="evenodd" d="M180.4,736.9H418.8V722.3H180.4v14.6Z" class="g0_234"/>
<path fill-rule="evenodd" d="M180.4,751.6H418.8V736.9H180.4v14.7Z" class="g0_234"/>
<path fill-rule="evenodd" d="M180.4,766.3H418.8V751.6H180.4v14.7Z" class="g0_234"/>
<path fill-rule="evenodd" d="M199.1,780.9H420.6V766.3H199.1v14.6Z" class="g0_234"/>
<path fill-rule="evenodd" d="M199.1,796H420.6V780.9H199.1V796Z" class="g0_234"/>
<path fill-rule="evenodd" d="M180.8,810.6H419.2V796H180.8v14.6Z" class="g0_234"/>
<path fill-rule="evenodd" d="M180.8,825.3H419.2V810.6H180.8v14.7Z" class="g0_234"/>
<path fill-rule="evenodd" d="M180.8,840H419.2V825.3H180.8V840Z" class="g0_234"/>
<path fill-rule="evenodd" d="M180.4,855H418.8V840.4H180.4V855Z" class="g0_234"/>
<path fill-rule="evenodd" d="M180.4,869.7H418.8V855H180.4v14.7Z" class="g0_234"/>
<path fill-rule="evenodd" d="M180.8,884.7H419.5V870.1H180.8v14.6Z" class="g0_234"/>
<path fill-rule="evenodd" d="M180.8,899.4H419.5V884.7H180.8v14.7Z" class="g0_234"/>
<path fill-rule="evenodd" d="M182.3,914.1h238V899.4h-238v14.7Z" class="g0_234"/>
<path fill-rule="evenodd" d="M440.8,161.4H680V146.7H440.8v14.7Z" class="g0_234"/>
<path fill-rule="evenodd" d="M440.8,176H680V161.4H440.8V176Z" class="g0_234"/>
<path fill-rule="evenodd" d="M440.4,191.1H680.3V176.4H440.4v14.7Z" class="g0_234"/>
<path fill-rule="evenodd" d="M440.4,205.7H680.3V191.1H440.4v14.6Z" class="g0_234"/>
<path fill-rule="evenodd" d="M440.4,220.4H680.3V205.7H440.4v14.7Z" class="g0_234"/>
<path fill-rule="evenodd" d="M440.4,235.1H680.3V220.4H440.4v14.7Z" class="g0_234"/>
<path fill-rule="evenodd" d="M440.4,249.7H680.3V235.1H440.4v14.6Z" class="g0_234"/>
<path fill-rule="evenodd" d="M440.4,264.4H680.3V249.7H440.4v14.7Z" class="g0_234"/>
<path fill-rule="evenodd" d="M440.4,279.1H680.3V264.4H440.4v14.7Z" class="g0_234"/>
<path fill-rule="evenodd" d="M440.4,294.3H680V279.4H440.4v14.9Z" class="g0_234"/>
<path fill-rule="evenodd" d="M440.4,308.9H680V294.3H440.4v14.6Z" class="g0_234"/>
<path fill-rule="evenodd" d="M440.4,323.6H680V308.9H440.4v14.7Z" class="g0_234"/>
<path fill-rule="evenodd" d="M440.4,338.3H680V323.6H440.4v14.7Z" class="g0_234"/>
<path fill-rule="evenodd" d="M440.4,353H680.3V338.3H440.4V353Z" class="g0_234"/>
<path fill-rule="evenodd" d="M440.4,367.7H680.3V353H440.4v14.7Z" class="g0_234"/>
<path fill-rule="evenodd" d="M440.4,382.3H680.3V367.7H440.4v14.6Z" class="g0_234"/>
<path fill-rule="evenodd" d="M458.8,397.4H680.3V382.7H458.8v14.7Z" class="g0_234"/>
<path fill-rule="evenodd" d="M439.7,412H679.2V397.4H439.7V412Z" class="g0_234"/>
<path fill-rule="evenodd" d="M439.7,426.7H679.2V412H439.7v14.7Z" class="g0_234"/>
<path fill-rule="evenodd" d="M440.1,441.7H679.6V427.1H440.1v14.6Z" class="g0_234"/>
<path fill-rule="evenodd" d="M440.1,456.4H679.6V441.7H440.1v14.7Z" class="g0_234"/>
<path fill-rule="evenodd" d="M440.1,471.1H679.6V456.4H440.1v14.7Z" class="g0_234"/>
<path fill-rule="evenodd" d="M440.4,485.7H679.6V471.1H440.4v14.6Z" class="g0_234"/>
<path fill-rule="evenodd" d="M440.4,500.4H679.6V485.7H440.4v14.7Z" class="g0_234"/>
<path fill-rule="evenodd" d="M440.1,515.1H679.2V500.4H440.1v14.7Z" class="g0_234"/>
<path fill-rule="evenodd" d="M440.1,529.7H679.2V515.1H440.1v14.6Z" class="g0_234"/>
<path fill-rule="evenodd" d="M458.4,544.4H680.3V529.7H458.4v14.7Z" class="g0_234"/>
<path fill-rule="evenodd" d="M439,559.4H678.9V544.8H439v14.6Z" class="g0_234"/>
<path fill-rule="evenodd" d="M439,574.1H678.9V559.4H439v14.7Z" class="g0_234"/>
<path fill-rule="evenodd" d="M440.1,588.8H678.5V574.1H440.1v14.7Z" class="g0_234"/>
<path fill-rule="evenodd" d="M440.1,603.5H678.5V588.8H440.1v14.7Z" class="g0_234"/>
<path fill-rule="evenodd" d="M440.1,618.5H678.5v-15H440.1v15Z" class="g0_234"/>
<path fill-rule="evenodd" d="M440.1,633.2H678.5V618.5H440.1v14.7Z" class="g0_234"/>
<path fill-rule="evenodd" d="M439.7,647.8H679.6V633.2H439.7v14.6Z" class="g0_234"/>
<path fill-rule="evenodd" d="M439.7,662.5H679.6V647.8H439.7v14.7Z" class="g0_234"/>
<path fill-rule="evenodd" d="M439.7,677.2H679.2V662.5H439.7v14.7Z" class="g0_234"/>
<path fill-rule="evenodd" d="M439.7,691.8H679.2V677.2H439.7v14.6Z" class="g0_234"/>
<path fill-rule="evenodd" d="M439.7,706.5H679.2V691.8H439.7v14.7Z" class="g0_234"/>
<path fill-rule="evenodd" d="M439.7,721.5H678.9V706.9H439.7v14.6Z" class="g0_234"/>
<path fill-rule="evenodd" d="M439.7,736.2H678.9V721.5H439.7v14.7Z" class="g0_234"/>
<path fill-rule="evenodd" d="M439.7,750.9H678.9V736.2H439.7v14.7Z" class="g0_234"/>
<path fill-rule="evenodd" d="M439.7,765.5H678.9V750.9H439.7v14.6Z" class="g0_234"/>
<path fill-rule="evenodd" d="M439.7,780.2H678.9V765.5H439.7v14.7Z" class="g0_234"/>
<path fill-rule="evenodd" d="M439.7,795.2H678.9v-15H439.7v15Z" class="g0_234"/>
<path fill-rule="evenodd" d="M439.7,809.9H678.9V795.2H439.7v14.7Z" class="g0_234"/>
<path fill-rule="evenodd" d="M439.7,824.6H678.9V809.9H439.7v14.7Z" class="g0_234"/>
<path fill-rule="evenodd" d="M439.7,839.3H678.9V824.6H439.7v14.7Z" class="g0_234"/>
<path fill-rule="evenodd" d="M439.7,853.9H678.9V839.3H439.7v14.6Z" class="g0_234"/>
<path fill-rule="evenodd" d="M440.1,869H678.9V854.3H440.1V869Z" class="g0_234"/>
<path fill-rule="evenodd" d="M440.1,883.6H678.9V869H440.1v14.6Z" class="g0_234"/>
<path fill-rule="evenodd" d="M416.2,932.4H680.7V913H416.2v19.4Z" class="g0_234"/>
<path d="M158.4,115.9v61.9" class="g1_234"/>
<path d="M159.8,176.8V318.4" class="g2_234"/>
<path d="M428.6,145.7V915.3" class="g3_234"/>
</svg>