<?xml version="1.0" encoding="UTF-8" standalone="no"?>
<!DOCTYPE svg PUBLIC "-//W3C//DTD SVG 1.1//EN"
"http://www.w3.org/Graphics/SVG/1.1/DTD/svg11.dtd">
<svg viewBox="0 0 909 1285" version="1.1" xmlns="http://www.w3.org/2000/svg" xmlns:xlink="http://www.w3.org/1999/xlink">
<defs>
<style type="text/css"><![CDATA[
.g0_242{
fill: #FFFFFF;
}
.g1_242{
fill: none;
stroke: #000000;
stroke-width: 0.381;
stroke-linecap: butt;
stroke-linejoin: round;
}
]]></style>
</defs>
<path fill-rule="evenodd" d="M617,125.8h73.4V110H617v15.8Z" class="g0_242"/>
<path fill-rule="evenodd" d="M209.6,161.4H430V146.3H209.6v15.1Z" class="g0_242"/>
<path fill-rule="evenodd" d="M209.9,176.4H430v-15H209.9v15Z" class="g0_242"/>
<path fill-rule="evenodd" d="M192.3,191.6H429.6V176.4H192.3v15.2Z" class="g0_242"/>
<path fill-rule="evenodd" d="M192.3,206.6H429.6v-15H192.3v15Z" class="g0_242"/>
<path fill-rule="evenodd" d="M209.9,221.7H430V206.6H209.9v15.1Z" class="g0_242"/>
<path fill-rule="evenodd" d="M193.1,236.7H429.6v-15H193.1v15Z" class="g0_242"/>
<path fill-rule="evenodd" d="M193.1,251.7H429.6v-15H193.1v15Z" class="g0_242"/>
<path fill-rule="evenodd" d="M192.3,266.8H430V251.7H192.3v15.1Z" class="g0_242"/>
<path fill-rule="evenodd" d="M192.3,281.8H430v-15H192.3v15Z" class="g0_242"/>
<path fill-rule="evenodd" d="M209.6,296.8H430v-15H209.6v15Z" class="g0_242"/>
<path fill-rule="evenodd" d="M192.3,311.9H430V296.8H192.3v15.1Z" class="g0_242"/>
<path fill-rule="evenodd" d="M192.3,326.9H430v-15H192.3v15Z" class="g0_242"/>
<path fill-rule="evenodd" d="M191.6,341.9H430v-15H191.6v15Z" class="g0_242"/>
<path fill-rule="evenodd" d="M191.6,357.2H430V342H191.6v15.2Z" class="g0_242"/>
<path fill-rule="evenodd" d="M191.6,372.2H430v-15H191.6v15Z" class="g0_242"/>
<path fill-rule="evenodd" d="M191.6,387.3H430V372.2H191.6v15.1Z" class="g0_242"/>
<path fill-rule="evenodd" d="M191.6,402.3H430v-15H191.6v15Z" class="g0_242"/>
<path fill-rule="evenodd" d="M191.6,417.3H430v-15H191.6v15Z" class="g0_242"/>
<path fill-rule="evenodd" d="M192,432.4H430V417.3H192v15.1Z" class="g0_242"/>
<path fill-rule="evenodd" d="M192,447.4H430v-15H192v15Z" class="g0_242"/>
<path fill-rule="evenodd" d="M192,462.4H430v-15H192v15Z" class="g0_242"/>
<path fill-rule="evenodd" d="M190.9,477.5H429.6V462.4H190.9v15.1Z" class="g0_242"/>
<path fill-rule="evenodd" d="M190.9,492.5H429.6v-15H190.9v15Z" class="g0_242"/>
<path fill-rule="evenodd" d="M190.9,507.5H429.6v-15H190.9v15Z" class="g0_242"/>
<path fill-rule="evenodd" d="M191.6,522.6h238V507.5h-238v15.1Z" class="g0_242"/>
<path fill-rule="evenodd" d="M191.6,537.8h238V522.6h-238v15.2Z" class="g0_242"/>
<path fill-rule="evenodd" d="M190.9,552.8H429.2v-15H190.9v15Z" class="g0_242"/>
<path fill-rule="evenodd" d="M190.9,567.9H429.2V552.8H190.9v15.1Z" class="g0_242"/>
<path fill-rule="evenodd" d="M191.2,582.9H430v-15H191.2v15Z" class="g0_242"/>
<path fill-rule="evenodd" d="M191.2,598H430V582.9H191.2V598Z" class="g0_242"/>
<path fill-rule="evenodd" d="M191.2,613H430V598H191.2v15Z" class="g0_242"/>
<path fill-rule="evenodd" d="M190.9,628.4H429.6v-15H190.9v15Z" class="g0_242"/>
<path fill-rule="evenodd" d="M190.9,643.4H429.6v-15H190.9v15Z" class="g0_242"/>
<path fill-rule="evenodd" d="M209.2,658.5H430V643.4H209.2v15.1Z" class="g0_242"/>
<path fill-rule="evenodd" d="M190.9,673.5H429.6v-15H190.9v15Z" class="g0_242"/>
<path fill-rule="evenodd" d="M190.9,688.5H429.6v-15H190.9v15Z" class="g0_242"/>
<path fill-rule="evenodd" d="M190.9,703.7H429.2V688.5H190.9v15.2Z" class="g0_242"/>
<path fill-rule="evenodd" d="M190.9,718.8H429.2V703.7H190.9v15.1Z" class="g0_242"/>
<path fill-rule="evenodd" d="M190.5,734.5H428.9v-15H190.5v15Z" class="g0_242"/>
<path fill-rule="evenodd" d="M190.5,749.6H428.9V734.5H190.5v15.1Z" class="g0_242"/>
<path fill-rule="evenodd" d="M190.5,764.6H428.9v-15H190.5v15Z" class="g0_242"/>
<path fill-rule="evenodd" d="M190.5,779.6H428.9v-15H190.5v15Z" class="g0_242"/>
<path fill-rule="evenodd" d="M190.5,794.7H428.9V779.6H190.5v15.1Z" class="g0_242"/>
<path fill-rule="evenodd" d="M208.8,809.7H430v-15H208.8v15Z" class="g0_242"/>
<path fill-rule="evenodd" d="M190.9,824.7H429.2v-15H190.9v15Z" class="g0_242"/>
<path fill-rule="evenodd" d="M190.9,839.8H429.2V824.7H190.9v15.1Z" class="g0_242"/>
<path fill-rule="evenodd" d="M190.5,855H429.6V839.8H190.5V855Z" class="g0_242"/>
<path fill-rule="evenodd" d="M190.5,870.1H429.6V855H190.5v15.1Z" class="g0_242"/>
<path fill-rule="evenodd" d="M190.5,885.1H429.6v-15H190.5v15Z" class="g0_242"/>
<path fill-rule="evenodd" d="M190.5,900.1H429.6v-15H190.5v15Z" class="g0_242"/>
<path fill-rule="evenodd" d="M191.6,915.2H430V900.1H191.6v15.1Z" class="g0_242"/>
<path fill-rule="evenodd" d="M450.6,161.4H690V146.3H450.6v15.1Z" class="g0_242"/>
<path fill-rule="evenodd" d="M450.6,176.4H690v-15H450.6v15Z" class="g0_242"/>
<path fill-rule="evenodd" d="M450.6,191.6H690V176.4H450.6v15.2Z" class="g0_242"/>
<path fill-rule="evenodd" d="M450.6,206.6H690v-15H450.6v15Z" class="g0_242"/>
<path fill-rule="evenodd" d="M450.6,221.7H690V206.6H450.6v15.1Z" class="g0_242"/>
<path fill-rule="evenodd" d="M449.5,236.7H690v-15H449.5v15Z" class="g0_242"/>
<path fill-rule="evenodd" d="M449.5,251.7H690v-15H449.5v15Z" class="g0_242"/>
<path fill-rule="evenodd" d="M449.5,266.8H690V251.7H449.5v15.1Z" class="g0_242"/>
<path fill-rule="evenodd" d="M449.5,281.8H690v-15H449.5v15Z" class="g0_242"/>
<path fill-rule="evenodd" d="M449.5,296.8H690v-15H449.5v15Z" class="g0_242"/>
<path fill-rule="evenodd" d="M449.5,311.9H690V296.8H449.5v15.1Z" class="g0_242"/>
<path fill-rule="evenodd" d="M449.5,326.9H689.7v-15H449.5v15Z" class="g0_242"/>
<path fill-rule="evenodd" d="M449.5,341.9H689.7v-15H449.5v15Z" class="g0_242"/>
<path fill-rule="evenodd" d="M449.5,357.2H689.7V342H449.5v15.2Z" class="g0_242"/>
<path fill-rule="evenodd" d="M450.2,372.2H689.7v-15H450.2v15Z" class="g0_242"/>
<path fill-rule="evenodd" d="M450.2,387.3H689.7V372.2H450.2v15.1Z" class="g0_242"/>
<path fill-rule="evenodd" d="M450.2,402.3H689.7v-15H450.2v15Z" class="g0_242"/>
<path fill-rule="evenodd" d="M450.2,417.3H689.7v-15H450.2v15Z" class="g0_242"/>
<path fill-rule="evenodd" d="M450.6,432.4H690V417.3H450.6v15.1Z" class="g0_242"/>
<path fill-rule="evenodd" d="M450.6,447.4H690v-15H450.6v15Z" class="g0_242"/>
<path fill-rule="evenodd" d="M450.6,462.4H690v-15H450.6v15Z" class="g0_242"/>
<path fill-rule="evenodd" d="M450.6,477.5H690V462.4H450.6v15.1Z" class="g0_242"/>
<path fill-rule="evenodd" d="M450.6,492.5H689.3v-15H450.6v15Z" class="g0_242"/>
<path fill-rule="evenodd" d="M450.6,507.5H689.3v-15H450.6v15Z" class="g0_242"/>
<path fill-rule="evenodd" d="M450.6,522.6H689.3V507.5H450.6v15.1Z" class="g0_242"/>
<path fill-rule="evenodd" d="M450.2,538.2H688.9V522.9H450.2v15.3Z" class="g0_242"/>
<path fill-rule="evenodd" d="M450.2,553.2H688.9v-15H450.2v15Z" class="g0_242"/>
<path fill-rule="evenodd" d="M450.2,568.2H688.6v-15H450.2v15Z" class="g0_242"/>
<path fill-rule="evenodd" d="M450.2,583.3H688.6V568.2H450.2v15.1Z" class="g0_242"/>
<path fill-rule="evenodd" d="M450.2,598.3H688.6v-15H450.2v15Z" class="g0_242"/>
<path fill-rule="evenodd" d="M450.2,613.4H688.6V598.3H450.2v15.1Z" class="g0_242"/>
<path fill-rule="evenodd" d="M450.2,628.4h238v-15h-238v15Z" class="g0_242"/>
<path fill-rule="evenodd" d="M450.2,643.4h238v-15h-238v15Z" class="g0_242"/>
<path fill-rule="evenodd" d="M450.2,658.5h238V643.4h-238v15.1Z" class="g0_242"/>
<path fill-rule="evenodd" d="M449.5,673.5H690v-15H449.5v15Z" class="g0_242"/>
<path fill-rule="evenodd" d="M449.5,688.5H690v-15H449.5v15Z" class="g0_242"/>
<path fill-rule="evenodd" d="M449.5,703.7H690V688.5H449.5v15.2Z" class="g0_242"/>
<path fill-rule="evenodd" d="M449.5,718.8H690V703.7H449.5v15.1Z" class="g0_242"/>
<path fill-rule="evenodd" d="M449.5,733.8H690v-15H449.5v15Z" class="g0_242"/>
<path fill-rule="evenodd" d="M449.5,748.8H690v-15H449.5v15Z" class="g0_242"/>
<path fill-rule="evenodd" d="M449.8,763.9H688.2V748.8H449.8v15.1Z" class="g0_242"/>
<path fill-rule="evenodd" d="M449.8,778.9H688.2v-15H449.8v15Z" class="g0_242"/>
<path fill-rule="evenodd" d="M449.5,793.9H688.2v-15H449.5v15Z" class="g0_242"/>
<path fill-rule="evenodd" d="M449.5,809H688.2V793.9H449.5V809Z" class="g0_242"/>
<path fill-rule="evenodd" d="M450.2,824H690V809H450.2v15Z" class="g0_242"/>
<path fill-rule="evenodd" d="M450.2,839.1H690V824H450.2v15.1Z" class="g0_242"/>
<path fill-rule="evenodd" d="M450.2,854.1H690v-15H450.2v15Z" class="g0_242"/>
<path fill-rule="evenodd" d="M450.2,869.2H690V854.1H450.2v15.1Z" class="g0_242"/>
<path fill-rule="evenodd" d="M450.2,884.4H690V869.2H450.2v15.2Z" class="g0_242"/>
<path fill-rule="evenodd" d="M190.5,925.1h59.4V909.3H190.5v15.8Z" class="g0_242"/>
<path fill-rule="evenodd" d="M190.5,942.7h59.4V925.1H190.5v17.6Z" class="g0_242"/>
<path fill-rule="evenodd" d="M426,932.8h59.4V913.3H426v19.5Z" class="g0_242"/>
<path d="M438.7,146V914.9" class="g1_242"/>
</svg>