<?xml version="1.0" encoding="UTF-8" standalone="no"?>
<!DOCTYPE svg PUBLIC "-//W3C//DTD SVG 1.1//EN"
"http://www.w3.org/Graphics/SVG/1.1/DTD/svg11.dtd">
<svg viewBox="0 0 909 1285" version="1.1" xmlns="http://www.w3.org/2000/svg" xmlns:xlink="http://www.w3.org/1999/xlink">
<defs>
<style type="text/css"><![CDATA[
.g0_273{
fill: #FFFFFF;
}
.g1_273{
fill: none;
stroke: #000000;
stroke-width: 0.381;
stroke-linecap: butt;
stroke-linejoin: round;
}
]]></style>
</defs>
<path fill-rule="evenodd" d="M260,125.8H757.3V110H260v15.8Z" class="g0_273"/>
<path fill-rule="evenodd" d="M259.6,161.4H499.1V146.3H259.6v15.1Z" class="g0_273"/>
<path fill-rule="evenodd" d="M259.6,176.4H499.1v-15H259.6v15Z" class="g0_273"/>
<path fill-rule="evenodd" d="M259.6,191.6H499.1V176.4H259.6v15.2Z" class="g0_273"/>
<path fill-rule="evenodd" d="M259.6,206.6H499.1v-15H259.6v15Z" class="g0_273"/>
<path fill-rule="evenodd" d="M259.6,221.7H498V206.6H259.6v15.1Z" class="g0_273"/>
<path fill-rule="evenodd" d="M259.6,236.7H498v-15H259.6v15Z" class="g0_273"/>
<path fill-rule="evenodd" d="M259.6,251.7H498v-15H259.6v15Z" class="g0_273"/>
<path fill-rule="evenodd" d="M259.6,266.8H498V251.7H259.6v15.1Z" class="g0_273"/>
<path fill-rule="evenodd" d="M259.6,281.8H498v-15H259.6v15Z" class="g0_273"/>
<path fill-rule="evenodd" d="M259.6,296.8H446.3v-15H259.6v15Z" class="g0_273"/>
<path fill-rule="evenodd" d="M259.6,311.9H446.3V296.8H259.6v15.1Z" class="g0_273"/>
<path fill-rule="evenodd" d="M258.9,326.9H498v-15H258.9v15Z" class="g0_273"/>
<path fill-rule="evenodd" d="M258.9,341.9H498v-15H258.9v15Z" class="g0_273"/>
<path fill-rule="evenodd" d="M258.9,357.2H498V342H258.9v15.2Z" class="g0_273"/>
<path fill-rule="evenodd" d="M258.9,372.2H498v-15H258.9v15Z" class="g0_273"/>
<path fill-rule="evenodd" d="M258.9,387.3H498V372.2H258.9v15.1Z" class="g0_273"/>
<path fill-rule="evenodd" d="M258.9,402.3H498v-15H258.9v15Z" class="g0_273"/>
<path fill-rule="evenodd" d="M258.9,417.3H497.3v-15H258.9v15Z" class="g0_273"/>
<path fill-rule="evenodd" d="M258.9,432.4H497.3V417.3H258.9v15.1Z" class="g0_273"/>
<path fill-rule="evenodd" d="M258.9,447.4H497.3v-15H258.9v15Z" class="g0_273"/>
<path fill-rule="evenodd" d="M258.9,462.4H446.3v-15H258.9v15Z" class="g0_273"/>
<path fill-rule="evenodd" d="M258.9,477.5H446.3V462.4H258.9v15.1Z" class="g0_273"/>
<path fill-rule="evenodd" d="M258.2,492.9H496.6V477.8H258.2v15.1Z" class="g0_273"/>
<path fill-rule="evenodd" d="M258.2,507.9H496.6v-15H258.2v15Z" class="g0_273"/>
<path fill-rule="evenodd" d="M258.2,523.1H499.1V507.9H258.2v15.2Z" class="g0_273"/>
<path fill-rule="evenodd" d="M258.2,538.2H499.1V523.1H258.2v15.1Z" class="g0_273"/>
<path fill-rule="evenodd" d="M258.2,553.2H499.1v-15H258.2v15Z" class="g0_273"/>
<path fill-rule="evenodd" d="M258.2,568.2H499.1v-15H258.2v15Z" class="g0_273"/>
<path fill-rule="evenodd" d="M258.2,583.3H499.1V568.2H258.2v15.1Z" class="g0_273"/>
<path fill-rule="evenodd" d="M257.4,598.3H499.1v-15H257.4v15Z" class="g0_273"/>
<path fill-rule="evenodd" d="M257.4,613.4H499.1V598.3H257.4v15.1Z" class="g0_273"/>
<path fill-rule="evenodd" d="M257.4,628.4H499.1v-15H257.4v15Z" class="g0_273"/>
<path fill-rule="evenodd" d="M257.4,643.4H499.1v-15H257.4v15Z" class="g0_273"/>
<path fill-rule="evenodd" d="M257.4,658.5H499.1V643.4H257.4v15.1Z" class="g0_273"/>
<path fill-rule="evenodd" d="M257.4,673.5H499.1v-15H257.4v15Z" class="g0_273"/>
<path fill-rule="evenodd" d="M257.4,688.5H499.1v-15H257.4v15Z" class="g0_273"/>
<path fill-rule="evenodd" d="M257.4,703.7H499.1V688.5H257.4v15.2Z" class="g0_273"/>
<path fill-rule="evenodd" d="M257.4,718.8H499.1V703.7H257.4v15.1Z" class="g0_273"/>
<path fill-rule="evenodd" d="M257.4,733.8H499.1v-15H257.4v15Z" class="g0_273"/>
<path fill-rule="evenodd" d="M257.4,748.8H496.6v-15H257.4v15Z" class="g0_273"/>
<path fill-rule="evenodd" d="M257.4,763.9H496.6V748.8H257.4v15.1Z" class="g0_273"/>
<path fill-rule="evenodd" d="M257.4,778.9H496.6v-15H257.4v15Z" class="g0_273"/>
<path fill-rule="evenodd" d="M257.4,793.9H496.6v-15H257.4v15Z" class="g0_273"/>
<path fill-rule="evenodd" d="M257.4,809H495.8V793.9H257.4V809Z" class="g0_273"/>
<path fill-rule="evenodd" d="M257.4,824H495.8V809H257.4v15Z" class="g0_273"/>
<path fill-rule="evenodd" d="M275.8,839.1H499.1V824H275.8v15.1Z" class="g0_273"/>
<path fill-rule="evenodd" d="M275.8,854.1H499.1v-15H275.8v15Z" class="g0_273"/>
<path fill-rule="evenodd" d="M275.4,869.2H499.1V854.1H275.4v15.1Z" class="g0_273"/>
<path fill-rule="evenodd" d="M275.4,884.4H499.1V869.2H275.4v15.2Z" class="g0_273"/>
<path fill-rule="evenodd" d="M260.7,899.4H499.1v-15H260.7v15Z" class="g0_273"/>
<path fill-rule="evenodd" d="M519.1,161.4h238V146.3h-238v15.1Z" class="g0_273"/>
<path fill-rule="evenodd" d="M519.1,176.4h238v-15h-238v15Z" class="g0_273"/>
<path fill-rule="evenodd" d="M518.8,191.6H757.1V176.4H518.8v15.2Z" class="g0_273"/>
<path fill-rule="evenodd" d="M518.8,206.6H757.1v-15H518.8v15Z" class="g0_273"/>
<path fill-rule="evenodd" d="M518.8,221.7H757.1V206.6H518.8v15.1Z" class="g0_273"/>
<path fill-rule="evenodd" d="M518.8,236.7H757.1v-15H518.8v15Z" class="g0_273"/>
<path fill-rule="evenodd" d="M518.4,251.7H757.1v-15H518.4v15Z" class="g0_273"/>
<path fill-rule="evenodd" d="M518.4,266.8H757.1V251.7H518.4v15.1Z" class="g0_273"/>
<path fill-rule="evenodd" d="M518.4,281.8H757.1v-15H518.4v15Z" class="g0_273"/>
<path fill-rule="evenodd" d="M518.4,296.8H756.8v-15H518.4v15Z" class="g0_273"/>
<path fill-rule="evenodd" d="M518.4,311.9H756.8V296.8H518.4v15.1Z" class="g0_273"/>
<path fill-rule="evenodd" d="M536.4,326.9H757.1v-15H536.4v15Z" class="g0_273"/>
<path fill-rule="evenodd" d="M518.4,341.9H757.1v-15H518.4v15Z" class="g0_273"/>
<path fill-rule="evenodd" d="M518.4,357.2H757.1V342H518.4v15.2Z" class="g0_273"/>
<path fill-rule="evenodd" d="M518,372.2H757.1v-15H518v15Z" class="g0_273"/>
<path fill-rule="evenodd" d="M518,387.3H757.1V372.2H518v15.1Z" class="g0_273"/>
<path fill-rule="evenodd" d="M518,402.3H757.1v-15H518v15Z" class="g0_273"/>
<path fill-rule="evenodd" d="M518,417.3H757.1v-15H518v15Z" class="g0_273"/>
<path fill-rule="evenodd" d="M518.4,432.4h238V417.3h-238v15.1Z" class="g0_273"/>
<path fill-rule="evenodd" d="M518.4,447.4h238v-15h-238v15Z" class="g0_273"/>
<path fill-rule="evenodd" d="M517.7,462.4H756.8v-15H517.7v15Z" class="g0_273"/>
<path fill-rule="evenodd" d="M517.7,477.5H756.8V462.4H517.7v15.1Z" class="g0_273"/>
<path fill-rule="evenodd" d="M517.7,492.5H756.8v-15H517.7v15Z" class="g0_273"/>
<path fill-rule="evenodd" d="M516.9,507.5H756.4v-15H516.9v15Z" class="g0_273"/>
<path fill-rule="evenodd" d="M516.9,522.6H756.4V507.5H516.9v15.1Z" class="g0_273"/>
<path fill-rule="evenodd" d="M516.9,537.8H756.4V522.6H516.9v15.2Z" class="g0_273"/>
<path fill-rule="evenodd" d="M516.9,552.8H756.4v-15H516.9v15Z" class="g0_273"/>
<path fill-rule="evenodd" d="M516.9,567.9H756.4V552.8H516.9v15.1Z" class="g0_273"/>
<path fill-rule="evenodd" d="M516.9,582.9H756.4v-15H516.9v15Z" class="g0_273"/>
<path fill-rule="evenodd" d="M516.9,598H756.4V582.9H516.9V598Z" class="g0_273"/>
<path fill-rule="evenodd" d="M516.9,613H756V598H516.9v15Z" class="g0_273"/>
<path fill-rule="evenodd" d="M516.9,628H756V613H516.9v15Z" class="g0_273"/>
<path fill-rule="evenodd" d="M516.9,643.1H756V628H516.9v15.1Z" class="g0_273"/>
<path fill-rule="evenodd" d="M516.2,658.1H755.7v-15H516.2v15Z" class="g0_273"/>
<path fill-rule="evenodd" d="M516.2,673.1H755.7v-15H516.2v15Z" class="g0_273"/>
<path fill-rule="evenodd" d="M516.2,688.2H755.7V673.1H516.2v15.1Z" class="g0_273"/>
<path fill-rule="evenodd" d="M516.2,703.2H755.7v-15H516.2v15Z" class="g0_273"/>
<path fill-rule="evenodd" d="M516.2,718.4H755.7V703.2H516.2v15.2Z" class="g0_273"/>
<path fill-rule="evenodd" d="M516.2,733.4H755.7v-15H516.2v15Z" class="g0_273"/>
<path fill-rule="evenodd" d="M516.2,748.5H755.7V733.4H516.2v15.1Z" class="g0_273"/>
<path fill-rule="evenodd" d="M516.2,763.5H757.1v-15H516.2v15Z" class="g0_273"/>
<path fill-rule="evenodd" d="M516.2,778.5H757.1v-15H516.2v15Z" class="g0_273"/>
<path fill-rule="evenodd" d="M516.2,793.6H757.1V778.5H516.2v15.1Z" class="g0_273"/>
<path fill-rule="evenodd" d="M516.2,808.6H757.1v-15H516.2v15Z" class="g0_273"/>
<path fill-rule="evenodd" d="M516.2,823.6H757.1v-15H516.2v15Z" class="g0_273"/>
<path fill-rule="evenodd" d="M515.8,838.7H754.9V823.6H515.8v15.1Z" class="g0_273"/>
<path fill-rule="evenodd" d="M515.8,853.8H754.9V838.7H515.8v15.1Z" class="g0_273"/>
<path fill-rule="evenodd" d="M515.8,868.8H754.9v-15H515.8v15Z" class="g0_273"/>
<path fill-rule="evenodd" d="M516.2,883.8H677.9v-15H516.2v15Z" class="g0_273"/>
<path fill-rule="evenodd" d="M516.2,899H677.9V883.8H516.2V899Z" class="g0_273"/>
<path fill-rule="evenodd" d="M492.9,931.5H757.3V914.1H492.9v17.4Z" class="g0_273"/>
<path d="M193.2,176.8v94.5M506,147.8V916.4" class="g1_273"/>
</svg>