<?xml version="1.0" encoding="UTF-8" standalone="no"?>
<!DOCTYPE svg PUBLIC "-//W3C//DTD SVG 1.1//EN"
"http://www.w3.org/Graphics/SVG/1.1/DTD/svg11.dtd">
<svg viewBox="0 0 909 1285" version="1.1" xmlns="http://www.w3.org/2000/svg" xmlns:xlink="http://www.w3.org/1999/xlink">
<defs>
<style type="text/css"><![CDATA[
.g0_243{
fill: #FFFFFF;
}
.g1_243{
fill: none;
stroke: #000000;
stroke-width: 0.381;
stroke-linecap: butt;
stroke-linejoin: round;
}
]]></style>
</defs>
<path fill-rule="evenodd" d="M557.8,125.8H691.7V110H557.8v15.8Z" class="g0_243"/>
<path fill-rule="evenodd" d="M191.8,161.4H430.9V146.3H191.8v15.1Z" class="g0_243"/>
<path fill-rule="evenodd" d="M191.8,176.4H430.9v-15H191.8v15Z" class="g0_243"/>
<path fill-rule="evenodd" d="M191.4,192H430.5V176.8H191.4V192Z" class="g0_243"/>
<path fill-rule="evenodd" d="M191.4,207H430.5V192H191.4v15Z" class="g0_243"/>
<path fill-rule="evenodd" d="M191.4,222H430.5V207H191.4v15Z" class="g0_243"/>
<path fill-rule="evenodd" d="M191.4,237.1H430.5V222H191.4v15.1Z" class="g0_243"/>
<path fill-rule="evenodd" d="M209.4,252.1H430.9v-15H209.4v15Z" class="g0_243"/>
<path fill-rule="evenodd" d="M191.4,267.1H430.9v-15H191.4v15Z" class="g0_243"/>
<path fill-rule="evenodd" d="M191.4,282.2H430.9V267.1H191.4v15.1Z" class="g0_243"/>
<path fill-rule="evenodd" d="M209.4,297.2H430.9v-15H209.4v15Z" class="g0_243"/>
<path fill-rule="evenodd" d="M191.1,312.2H430.2v-15H191.1v15Z" class="g0_243"/>
<path fill-rule="evenodd" d="M191.1,327.3H430.2V312.2H191.1v15.1Z" class="g0_243"/>
<path fill-rule="evenodd" d="M191.1,342.5H430.2V327.3H191.1v15.2Z" class="g0_243"/>
<path fill-rule="evenodd" d="M209.4,357.6H430.9V342.5H209.4v15.1Z" class="g0_243"/>
<path fill-rule="evenodd" d="M190.7,372.6H429.4v-15H190.7v15Z" class="g0_243"/>
<path fill-rule="evenodd" d="M190.7,387.6H429.4v-15H190.7v15Z" class="g0_243"/>
<path fill-rule="evenodd" d="M191.1,402.7H429.8V387.6H191.1v15.1Z" class="g0_243"/>
<path fill-rule="evenodd" d="M191.1,417.7H429.8v-15H191.1v15Z" class="g0_243"/>
<path fill-rule="evenodd" d="M190.3,432.7H430.2v-15H190.3v15Z" class="g0_243"/>
<path fill-rule="evenodd" d="M190.3,447.8H430.2V432.7H190.3v15.1Z" class="g0_243"/>
<path fill-rule="evenodd" d="M190.3,462.8H430.2v-15H190.3v15Z" class="g0_243"/>
<path fill-rule="evenodd" d="M190.3,477.8H430.2v-15H190.3v15Z" class="g0_243"/>
<path fill-rule="evenodd" d="M190.3,492.9H430.2V477.8H190.3v15.1Z" class="g0_243"/>
<path fill-rule="evenodd" d="M190.3,507.9H430.2v-15H190.3v15Z" class="g0_243"/>
<path fill-rule="evenodd" d="M190.3,523.1H430.2V507.9H190.3v15.2Z" class="g0_243"/>
<path fill-rule="evenodd" d="M190.3,538.2H430.2V523.1H190.3v15.1Z" class="g0_243"/>
<path fill-rule="evenodd" d="M190.3,553.2H430.2v-15H190.3v15Z" class="g0_243"/>
<path fill-rule="evenodd" d="M190,568.2H429.4v-15H190v15Z" class="g0_243"/>
<path fill-rule="evenodd" d="M190,583.3H429.4V568.2H190v15.1Z" class="g0_243"/>
<path fill-rule="evenodd" d="M190,598.3H429.4v-15H190v15Z" class="g0_243"/>
<path fill-rule="evenodd" d="M208.7,613.4H430.9V598.3H208.7v15.1Z" class="g0_243"/>
<path fill-rule="evenodd" d="M208.3,628.4H430.9v-15H208.3v15Z" class="g0_243"/>
<path fill-rule="evenodd" d="M190,643.4H429.1v-15H190v15Z" class="g0_243"/>
<path fill-rule="evenodd" d="M190,658.5H429.1V643.4H190v15.1Z" class="g0_243"/>
<path fill-rule="evenodd" d="M190,673.5H429.1v-15H190v15Z" class="g0_243"/>
<path fill-rule="evenodd" d="M190,688.5H429.1v-15H190v15Z" class="g0_243"/>
<path fill-rule="evenodd" d="M189.6,703.7H429.4V688.5H189.6v15.2Z" class="g0_243"/>
<path fill-rule="evenodd" d="M189.6,718.8H429.4V703.7H189.6v15.1Z" class="g0_243"/>
<path fill-rule="evenodd" d="M189.6,733.8H429.4v-15H189.6v15Z" class="g0_243"/>
<path fill-rule="evenodd" d="M189.6,748.8H429.4v-15H189.6v15Z" class="g0_243"/>
<path fill-rule="evenodd" d="M189.2,763.9H428.3V748.8H189.2v15.1Z" class="g0_243"/>
<path fill-rule="evenodd" d="M189.2,778.9H428.3v-15H189.2v15Z" class="g0_243"/>
<path fill-rule="evenodd" d="M189.2,793.9H428.3v-15H189.2v15Z" class="g0_243"/>
<path fill-rule="evenodd" d="M189.2,809H428.7V793.9H189.2V809Z" class="g0_243"/>
<path fill-rule="evenodd" d="M189.2,824H428.7V809H189.2v15Z" class="g0_243"/>
<path fill-rule="evenodd" d="M189.6,839.1H428.7V824H189.6v15.1Z" class="g0_243"/>
<path fill-rule="evenodd" d="M189.6,854.1H428.7v-15H189.6v15Z" class="g0_243"/>
<path fill-rule="evenodd" d="M189.6,869.2H428.7V854.1H189.6v15.1Z" class="g0_243"/>
<path fill-rule="evenodd" d="M190,884.4H428.7V869.2H190v15.2Z" class="g0_243"/>
<path fill-rule="evenodd" d="M190,899.4H428.7v-15H190v15Z" class="g0_243"/>
<path fill-rule="evenodd" d="M191.4,914.4H430.9v-15H191.4v15Z" class="g0_243"/>
<path fill-rule="evenodd" d="M451.1,161.7H691.7v-15H451.1v15Z" class="g0_243"/>
<path fill-rule="evenodd" d="M451.1,176.9H691.7V161.7H451.1v15.2Z" class="g0_243"/>
<path fill-rule="evenodd" d="M451.1,192H691.7V176.9H451.1V192Z" class="g0_243"/>
<path fill-rule="evenodd" d="M451.1,207H690.9V192H451.1v15Z" class="g0_243"/>
<path fill-rule="evenodd" d="M451.1,222H690.9V207H451.1v15Z" class="g0_243"/>
<path fill-rule="evenodd" d="M469.4,237.1H691.7V222H469.4v15.1Z" class="g0_243"/>
<path fill-rule="evenodd" d="M450.4,252.1H691.3v-15H450.4v15Z" class="g0_243"/>
<path fill-rule="evenodd" d="M450.4,267.1H691.3v-15H450.4v15Z" class="g0_243"/>
<path fill-rule="evenodd" d="M450.4,282.2H691.3V267.1H450.4v15.1Z" class="g0_243"/>
<path fill-rule="evenodd" d="M450.4,297.2H691.3v-15H450.4v15Z" class="g0_243"/>
<path fill-rule="evenodd" d="M450.4,312.2H691.3v-15H450.4v15Z" class="g0_243"/>
<path fill-rule="evenodd" d="M450.4,327.3H691.3V312.2H450.4v15.1Z" class="g0_243"/>
<path fill-rule="evenodd" d="M450.4,342.5H691.3V327.3H450.4v15.2Z" class="g0_243"/>
<path fill-rule="evenodd" d="M469.4,357.6H691.7V342.5H469.4v15.1Z" class="g0_243"/>
<path fill-rule="evenodd" d="M469.1,372.6H691.7v-15H469.1v15Z" class="g0_243"/>
<path fill-rule="evenodd" d="M469.1,387.6H691.7v-15H469.1v15Z" class="g0_243"/>
<path fill-rule="evenodd" d="M505.4,402.7H691.7V387.6H505.4v15.1Z" class="g0_243"/>
<path fill-rule="evenodd" d="M450.4,417.7H690.2v-15H450.4v15Z" class="g0_243"/>
<path fill-rule="evenodd" d="M450.4,432.7H690.2v-15H450.4v15Z" class="g0_243"/>
<path fill-rule="evenodd" d="M450.4,447.8H689.8V432.7H450.4v15.1Z" class="g0_243"/>
<path fill-rule="evenodd" d="M450.4,462.8H689.8v-15H450.4v15Z" class="g0_243"/>
<path fill-rule="evenodd" d="M449.6,477.8H690.2v-15H449.6v15Z" class="g0_243"/>
<path fill-rule="evenodd" d="M449.6,492.9H690.2V477.8H449.6v15.1Z" class="g0_243"/>
<path fill-rule="evenodd" d="M449.6,507.9H690.2v-15H449.6v15Z" class="g0_243"/>
<path fill-rule="evenodd" d="M449.6,523.1H690.2V507.9H449.6v15.2Z" class="g0_243"/>
<path fill-rule="evenodd" d="M449.6,538.2H690.2V523.1H449.6v15.1Z" class="g0_243"/>
<path fill-rule="evenodd" d="M449.6,553.2H690.2v-15H449.6v15Z" class="g0_243"/>
<path fill-rule="evenodd" d="M449.6,568.2H690.2v-15H449.6v15Z" class="g0_243"/>
<path fill-rule="evenodd" d="M449.6,583.3H690.2V568.2H449.6v15.1Z" class="g0_243"/>
<path fill-rule="evenodd" d="M449.6,598.3H689.1v-15H449.6v15Z" class="g0_243"/>
<path fill-rule="evenodd" d="M449.6,613.4H689.1V598.3H449.6v15.1Z" class="g0_243"/>
<path fill-rule="evenodd" d="M449.6,628.4H689.1v-15H449.6v15Z" class="g0_243"/>
<path fill-rule="evenodd" d="M450,643.4H689.1v-15H450v15Z" class="g0_243"/>
<path fill-rule="evenodd" d="M450,658.5H689.1V643.4H450v15.1Z" class="g0_243"/>
<path fill-rule="evenodd" d="M450,673.5H689.1v-15H450v15Z" class="g0_243"/>
<path fill-rule="evenodd" d="M468,688.5H691.7v-15H468v15Z" class="g0_243"/>
<path fill-rule="evenodd" d="M468,703.7H691.7V688.5H468v15.2Z" class="g0_243"/>
<path fill-rule="evenodd" d="M448.9,718.8H689.5V703.7H448.9v15.1Z" class="g0_243"/>
<path fill-rule="evenodd" d="M448.9,733.8H689.5v-15H448.9v15Z" class="g0_243"/>
<path fill-rule="evenodd" d="M448.9,748.8H689.5v-15H448.9v15Z" class="g0_243"/>
<path fill-rule="evenodd" d="M448.9,763.9H689.5V748.8H448.9v15.1Z" class="g0_243"/>
<path fill-rule="evenodd" d="M448.9,778.9H689.5v-15H448.9v15Z" class="g0_243"/>
<path fill-rule="evenodd" d="M448.9,793.9H689.5v-15H448.9v15Z" class="g0_243"/>
<path fill-rule="evenodd" d="M448.9,809H689.5V793.9H448.9V809Z" class="g0_243"/>
<path fill-rule="evenodd" d="M448.9,824H689.5V809H448.9v15Z" class="g0_243"/>
<path fill-rule="evenodd" d="M448.9,839.1H689.5V824H448.9v15.1Z" class="g0_243"/>
<path fill-rule="evenodd" d="M448.9,854.1H689.5v-15H448.9v15Z" class="g0_243"/>
<path fill-rule="evenodd" d="M448.9,869.2H689.5V854.1H448.9v15.1Z" class="g0_243"/>
<path fill-rule="evenodd" d="M448.9,884.4H689.5V869.2H448.9v15.2Z" class="g0_243"/>
<path fill-rule="evenodd" d="M448.9,899.4H689.5v-15H448.9v15Z" class="g0_243"/>
<path fill-rule="evenodd" d="M425.4,931.5H691.7V914.1H425.4v17.4Z" class="g0_243"/>
<path d="M438.1,146.4V914.9" class="g1_243"/>
</svg>