<?xml version="1.0" encoding="UTF-8" standalone="no"?>
<!DOCTYPE svg PUBLIC "-//W3C//DTD SVG 1.1//EN"
"http://www.w3.org/Graphics/SVG/1.1/DTD/svg11.dtd">
<svg viewBox="0 0 909 1285" version="1.1" xmlns="http://www.w3.org/2000/svg" xmlns:xlink="http://www.w3.org/1999/xlink">
<defs>
<style type="text/css"><![CDATA[
.g0_184{
fill: #FFFFFF;
}
.g1_184{
fill: none;
stroke: #000000;
stroke-width: 0.381;
stroke-linecap: butt;
stroke-linejoin: round;
}
]]></style>
</defs>
<path fill-rule="evenodd" d="M583.3,125.8H687.5V110H583.3v15.8Z" class="g0_184"/>
<path fill-rule="evenodd" d="M187.9,162.3H426.7V147.1H187.9v15.2Z" class="g0_184"/>
<path fill-rule="evenodd" d="M187.9,177.3H426.7v-15H187.9v15Z" class="g0_184"/>
<path fill-rule="evenodd" d="M187.9,192.3H426.7v-15H187.9v15Z" class="g0_184"/>
<path fill-rule="evenodd" d="M187.9,207.4H426.7V192.3H187.9v15.1Z" class="g0_184"/>
<path fill-rule="evenodd" d="M187.9,222.4H426.7v-15H187.9v15Z" class="g0_184"/>
<path fill-rule="evenodd" d="M187.6,237.4H427v-15H187.6v15Z" class="g0_184"/>
<path fill-rule="evenodd" d="M187.6,252.5H427V237.4H187.6v15.1Z" class="g0_184"/>
<path fill-rule="evenodd" d="M187.6,267.5H427v-15H187.6v15Z" class="g0_184"/>
<path fill-rule="evenodd" d="M187.6,282.5H427v-15H187.6v15Z" class="g0_184"/>
<path fill-rule="evenodd" d="M187.6,297.6H427V282.5H187.6v15.1Z" class="g0_184"/>
<path fill-rule="evenodd" d="M187.6,312.6H427v-15H187.6v15Z" class="g0_184"/>
<path fill-rule="evenodd" d="M187.6,327.8H427V312.6H187.6v15.2Z" class="g0_184"/>
<path fill-rule="evenodd" d="M187.6,342.9H427V327.8H187.6v15.1Z" class="g0_184"/>
<path fill-rule="evenodd" d="M187.6,357.9H427v-15H187.6v15Z" class="g0_184"/>
<path fill-rule="evenodd" d="M187.6,373H427V357.9H187.6V373Z" class="g0_184"/>
<path fill-rule="evenodd" d="M187.6,388H427V373H187.6v15Z" class="g0_184"/>
<path fill-rule="evenodd" d="M187.2,403H426.3V388H187.2v15Z" class="g0_184"/>
<path fill-rule="evenodd" d="M187.2,418.1H426.3V403H187.2v15.1Z" class="g0_184"/>
<path fill-rule="evenodd" d="M187.2,433.1H426.3v-15H187.2v15Z" class="g0_184"/>
<path fill-rule="evenodd" d="M187.2,448.1H426.3v-15H187.2v15Z" class="g0_184"/>
<path fill-rule="evenodd" d="M205.5,463.2H427V448.1H205.5v15.1Z" class="g0_184"/>
<path fill-rule="evenodd" d="M187.6,478.2H426.3v-15H187.6v15Z" class="g0_184"/>
<path fill-rule="evenodd" d="M187.6,493.2H426.3v-15H187.6v15Z" class="g0_184"/>
<path fill-rule="evenodd" d="M205.5,508.5H427V493.2H205.5v15.3Z" class="g0_184"/>
<path fill-rule="evenodd" d="M186.8,523.5H425.9v-15H186.8v15Z" class="g0_184"/>
<path fill-rule="evenodd" d="M186.8,538.5H425.9v-15H186.8v15Z" class="g0_184"/>
<path fill-rule="evenodd" d="M186.8,553.6H425.9V538.5H186.8v15.1Z" class="g0_184"/>
<path fill-rule="evenodd" d="M186.8,568.6H425.9v-15H186.8v15Z" class="g0_184"/>
<path fill-rule="evenodd" d="M186.8,583.6H425.9v-15H186.8v15Z" class="g0_184"/>
<path fill-rule="evenodd" d="M186.8,598.7H425.9V583.6H186.8v15.1Z" class="g0_184"/>
<path fill-rule="evenodd" d="M186.5,613.7H425.9v-15H186.5v15Z" class="g0_184"/>
<path fill-rule="evenodd" d="M186.5,628.8H425.9V613.7H186.5v15.1Z" class="g0_184"/>
<path fill-rule="evenodd" d="M186.5,643.8H425.9v-15H186.5v15Z" class="g0_184"/>
<path fill-rule="evenodd" d="M186.8,658.8H427v-15H186.8v15Z" class="g0_184"/>
<path fill-rule="evenodd" d="M186.1,673.9H425.6V658.8H186.1v15.1Z" class="g0_184"/>
<path fill-rule="evenodd" d="M186.1,689.1H425.6V673.9H186.1v15.2Z" class="g0_184"/>
<path fill-rule="evenodd" d="M186.1,704.1H425.6v-15H186.1v15Z" class="g0_184"/>
<path fill-rule="evenodd" d="M186.1,719.1H425.6v-15H186.1v15Z" class="g0_184"/>
<path fill-rule="evenodd" d="M186.1,734.2H426.3V719.1H186.1v15.1Z" class="g0_184"/>
<path fill-rule="evenodd" d="M186.1,749.2H426.3v-15H186.1v15Z" class="g0_184"/>
<path fill-rule="evenodd" d="M186.1,764.2H426.3v-15H186.1v15Z" class="g0_184"/>
<path fill-rule="evenodd" d="M186.1,779.3H426.3V764.2H186.1v15.1Z" class="g0_184"/>
<path fill-rule="evenodd" d="M186.1,794.3H426.3v-15H186.1v15Z" class="g0_184"/>
<path fill-rule="evenodd" d="M186.1,809.3H425.9v-15H186.1v15Z" class="g0_184"/>
<path fill-rule="evenodd" d="M186.1,824.4H425.9V809.3H186.1v15.1Z" class="g0_184"/>
<path fill-rule="evenodd" d="M186.1,839.5H425.9V824.4H186.1v15.1Z" class="g0_184"/>
<path fill-rule="evenodd" d="M186.1,854.5H425.9v-15H186.1v15Z" class="g0_184"/>
<path fill-rule="evenodd" d="M186.1,869.7H425.9V854.5H186.1v15.2Z" class="g0_184"/>
<path fill-rule="evenodd" d="M186.1,884.7H425.9v-15H186.1v15Z" class="g0_184"/>
<path fill-rule="evenodd" d="M186.1,899.8H425.9V884.7H186.1v15.1Z" class="g0_184"/>
<path fill-rule="evenodd" d="M205.9,914.8H427v-15H205.9v15Z" class="g0_184"/>
<path fill-rule="evenodd" d="M465.6,161.7H687.5v-15H465.6v15Z" class="g0_184"/>
<path fill-rule="evenodd" d="M447.2,176.9H687.5V161.7H447.2v15.2Z" class="g0_184"/>
<path fill-rule="evenodd" d="M447.2,192H687.5V176.9H447.2V192Z" class="g0_184"/>
<path fill-rule="evenodd" d="M447.2,207H687.5V192H447.2v15Z" class="g0_184"/>
<path fill-rule="evenodd" d="M447.2,222H687.5V207H447.2v15Z" class="g0_184"/>
<path fill-rule="evenodd" d="M447.2,237.1H687.5V222H447.2v15.1Z" class="g0_184"/>
<path fill-rule="evenodd" d="M447.2,252.1H687.5v-15H447.2v15Z" class="g0_184"/>
<path fill-rule="evenodd" d="M447.2,267.1H687.5v-15H447.2v15Z" class="g0_184"/>
<path fill-rule="evenodd" d="M447.2,282.2H687.5V267.1H447.2v15.1Z" class="g0_184"/>
<path fill-rule="evenodd" d="M446.9,297.2H687.1v-15H446.9v15Z" class="g0_184"/>
<path fill-rule="evenodd" d="M446.9,312.2H687.1v-15H446.9v15Z" class="g0_184"/>
<path fill-rule="evenodd" d="M446.9,327.3H687.1V312.2H446.9v15.1Z" class="g0_184"/>
<path fill-rule="evenodd" d="M446.9,342.5H687.1V327.3H446.9v15.2Z" class="g0_184"/>
<path fill-rule="evenodd" d="M446.9,357.6H687.1V342.5H446.9v15.1Z" class="g0_184"/>
<path fill-rule="evenodd" d="M446.9,372.6H687.1v-15H446.9v15Z" class="g0_184"/>
<path fill-rule="evenodd" d="M446.9,387.6H687.1v-15H446.9v15Z" class="g0_184"/>
<path fill-rule="evenodd" d="M446.9,402.7H687.1V387.6H446.9v15.1Z" class="g0_184"/>
<path fill-rule="evenodd" d="M446.9,417.7H687.1v-15H446.9v15Z" class="g0_184"/>
<path fill-rule="evenodd" d="M446.9,432.7H687.1v-15H446.9v15Z" class="g0_184"/>
<path fill-rule="evenodd" d="M446.9,447.8H687.1V432.7H446.9v15.1Z" class="g0_184"/>
<path fill-rule="evenodd" d="M446.9,462.8H687.1v-15H446.9v15Z" class="g0_184"/>
<path fill-rule="evenodd" d="M446.9,477.8H686.7v-15H446.9v15Z" class="g0_184"/>
<path fill-rule="evenodd" d="M446.9,492.9H686.7V477.8H446.9v15.1Z" class="g0_184"/>
<path fill-rule="evenodd" d="M446.9,507.9H686.7v-15H446.9v15Z" class="g0_184"/>
<path fill-rule="evenodd" d="M446.9,523.1H686.7V507.9H446.9v15.2Z" class="g0_184"/>
<path fill-rule="evenodd" d="M446.5,538.2H686.4V523.1H446.5v15.1Z" class="g0_184"/>
<path fill-rule="evenodd" d="M446.5,553.2H686.4v-15H446.5v15Z" class="g0_184"/>
<path fill-rule="evenodd" d="M446.5,568.2H686.4v-15H446.5v15Z" class="g0_184"/>
<path fill-rule="evenodd" d="M446.1,583.3H686.7V568.2H446.1v15.1Z" class="g0_184"/>
<path fill-rule="evenodd" d="M446.1,598.3H686.7v-15H446.1v15Z" class="g0_184"/>
<path fill-rule="evenodd" d="M446.1,613.4H686.7V598.3H446.1v15.1Z" class="g0_184"/>
<path fill-rule="evenodd" d="M446.1,628.4H686.7v-15H446.1v15Z" class="g0_184"/>
<path fill-rule="evenodd" d="M446.1,643.4H686.7v-15H446.1v15Z" class="g0_184"/>
<path fill-rule="evenodd" d="M446.1,658.5H686.7V643.4H446.1v15.1Z" class="g0_184"/>
<path fill-rule="evenodd" d="M446.1,673.5H686.7v-15H446.1v15Z" class="g0_184"/>
<path fill-rule="evenodd" d="M446.1,688.5H686.7v-15H446.1v15Z" class="g0_184"/>
<path fill-rule="evenodd" d="M446.1,703.7H686.7V688.5H446.1v15.2Z" class="g0_184"/>
<path fill-rule="evenodd" d="M446.1,718.8H686.7V703.7H446.1v15.1Z" class="g0_184"/>
<path fill-rule="evenodd" d="M446.5,733.8H686.4v-15H446.5v15Z" class="g0_184"/>
<path fill-rule="evenodd" d="M446.5,748.8H686.4v-15H446.5v15Z" class="g0_184"/>
<path fill-rule="evenodd" d="M446.1,763.9H686V748.8H446.1v15.1Z" class="g0_184"/>
<path fill-rule="evenodd" d="M446.1,778.9H686v-15H446.1v15Z" class="g0_184"/>
<path fill-rule="evenodd" d="M446.1,793.9H686v-15H446.1v15Z" class="g0_184"/>
<path fill-rule="evenodd" d="M445.8,809H686.4V793.9H445.8V809Z" class="g0_184"/>
<path fill-rule="evenodd" d="M445.8,824H686.4V809H445.8v15Z" class="g0_184"/>
<path fill-rule="evenodd" d="M445.8,839.1H686.4V824H445.8v15.1Z" class="g0_184"/>
<path fill-rule="evenodd" d="M445.8,854.1H686.4v-15H445.8v15Z" class="g0_184"/>
<path fill-rule="evenodd" d="M445.8,869.2H686.4V854.1H445.8v15.1Z" class="g0_184"/>
<path fill-rule="evenodd" d="M445.8,884.4H686.4V869.2H445.8v15.2Z" class="g0_184"/>
<path fill-rule="evenodd" d="M445.8,899.4H686.4v-15H445.8v15Z" class="g0_184"/>
<path d="M435,146.7V915.3" class="g1_184"/>
</svg>