<?xml version="1.0" encoding="UTF-8" standalone="no"?>
<!DOCTYPE svg PUBLIC "-//W3C//DTD SVG 1.1//EN"
"http://www.w3.org/Graphics/SVG/1.1/DTD/svg11.dtd">
<svg viewBox="0 0 909 1285" version="1.1" xmlns="http://www.w3.org/2000/svg" xmlns:xlink="http://www.w3.org/1999/xlink">
<defs>
<style type="text/css"><![CDATA[
.g0_71{
fill: #FFFFFF;
}
.g1_71{
fill: none;
stroke: #000000;
stroke-width: 0.381;
stroke-linecap: butt;
stroke-linejoin: round;
}
]]></style>
</defs>
<path fill-rule="evenodd" d="M263.5,125.8h498V110h-498v15.8Z" class="g0_71"/>
<path fill-rule="evenodd" d="M263.1,161.4H501.9V146.7H263.1v14.7Z" class="g0_71"/>
<path fill-rule="evenodd" d="M263.1,176H501.9V161.4H263.1V176Z" class="g0_71"/>
<path fill-rule="evenodd" d="M263.1,190.7H501.9V176H263.1v14.7Z" class="g0_71"/>
<path fill-rule="evenodd" d="M263.5,205.4H502.3V190.7H263.5v14.7Z" class="g0_71"/>
<path fill-rule="evenodd" d="M263.5,220H502.3V205.4H263.5V220Z" class="g0_71"/>
<path fill-rule="evenodd" d="M263.5,234.7H502.3V220H263.5v14.7Z" class="g0_71"/>
<path fill-rule="evenodd" d="M263.5,249.4H502.3V234.7H263.5v14.7Z" class="g0_71"/>
<path fill-rule="evenodd" d="M263.5,264.4h238V249.7h-238v14.7Z" class="g0_71"/>
<path fill-rule="evenodd" d="M263.5,279.1h238V264.4h-238v14.7Z" class="g0_71"/>
<path fill-rule="evenodd" d="M263.5,293.9h238V279.1h-238v14.8Z" class="g0_71"/>
<path fill-rule="evenodd" d="M262.7,308.6H501.9V293.9H262.7v14.7Z" class="g0_71"/>
<path fill-rule="evenodd" d="M262.7,323.2H501.9V308.6H262.7v14.6Z" class="g0_71"/>
<path fill-rule="evenodd" d="M262.7,337.9H501.9V323.2H262.7v14.7Z" class="g0_71"/>
<path fill-rule="evenodd" d="M262.7,352.6H501.9V337.9H262.7v14.7Z" class="g0_71"/>
<path fill-rule="evenodd" d="M262.7,367.3H501.9V352.6H262.7v14.7Z" class="g0_71"/>
<path fill-rule="evenodd" d="M262.7,382H501.9V367.3H262.7V382Z" class="g0_71"/>
<path fill-rule="evenodd" d="M262.7,396.6H501.9V382H262.7v14.6Z" class="g0_71"/>
<path fill-rule="evenodd" d="M281.1,411.3H502.3V396.6H281.1v14.7Z" class="g0_71"/>
<path fill-rule="evenodd" d="M262.7,426.3H501.2V411.7H262.7v14.6Z" class="g0_71"/>
<path fill-rule="evenodd" d="M262.7,441H501.2V426.3H262.7V441Z" class="g0_71"/>
<path fill-rule="evenodd" d="M262.7,455.7H501.2V441H262.7v14.7Z" class="g0_71"/>
<path fill-rule="evenodd" d="M262.4,470.3H501.2V455.7H262.4v14.6Z" class="g0_71"/>
<path fill-rule="evenodd" d="M262.4,485H501.2V470.3H262.4V485Z" class="g0_71"/>
<path fill-rule="evenodd" d="M262,499.7H501.2V485H262v14.7Z" class="g0_71"/>
<path fill-rule="evenodd" d="M262,514.3H501.2V499.7H262v14.6Z" class="g0_71"/>
<path fill-rule="evenodd" d="M262,529H501.2V514.3H262V529Z" class="g0_71"/>
<path fill-rule="evenodd" d="M262,543.7H501.2V529H262v14.7Z" class="g0_71"/>
<path fill-rule="evenodd" d="M262,558.3H501.2V543.7H262v14.6Z" class="g0_71"/>
<path fill-rule="evenodd" d="M262,573H501.2V558.3H262V573Z" class="g0_71"/>
<path fill-rule="evenodd" d="M262,587.7H501.2V573H262v14.7Z" class="g0_71"/>
<path fill-rule="evenodd" d="M262,602.4H501.2V587.7H262v14.7Z" class="g0_71"/>
<path fill-rule="evenodd" d="M261.6,617H500.4V602.4H261.6V617Z" class="g0_71"/>
<path fill-rule="evenodd" d="M261.6,631.7H500.4V617H261.6v14.7Z" class="g0_71"/>
<path fill-rule="evenodd" d="M261.6,646.4H500.4V631.7H261.6v14.7Z" class="g0_71"/>
<path fill-rule="evenodd" d="M261.6,661H500.4V646.4H261.6V661Z" class="g0_71"/>
<path fill-rule="evenodd" d="M262.7,675.7H502.3V661H262.7v14.7Z" class="g0_71"/>
<path fill-rule="evenodd" d="M522.4,161.4H761.5V146.7H522.4v14.7Z" class="g0_71"/>
<path fill-rule="evenodd" d="M522.4,176H761.5V161.4H522.4V176Z" class="g0_71"/>
<path fill-rule="evenodd" d="M522.8,191.1H761.5V176.4H522.8v14.7Z" class="g0_71"/>
<path fill-rule="evenodd" d="M522.8,205.7H761.5V191.1H522.8v14.6Z" class="g0_71"/>
<path fill-rule="evenodd" d="M522.8,220.4H761.5V205.7H522.8v14.7Z" class="g0_71"/>
<path fill-rule="evenodd" d="M522.8,235.1H761.5V220.4H522.8v14.7Z" class="g0_71"/>
<path fill-rule="evenodd" d="M522.8,249.7H761.5V235.1H522.8v14.6Z" class="g0_71"/>
<path fill-rule="evenodd" d="M522.4,264.9H761.2V250.1H522.4v14.8Z" class="g0_71"/>
<path fill-rule="evenodd" d="M522.4,279.6H761.2V264.9H522.4v14.7Z" class="g0_71"/>
<path fill-rule="evenodd" d="M522.4,294.3H761.2V279.6H522.4v14.7Z" class="g0_71"/>
<path fill-rule="evenodd" d="M522.4,308.9H761.2V294.3H522.4v14.6Z" class="g0_71"/>
<path fill-rule="evenodd" d="M522.4,323.6H761.5V308.9H522.4v14.7Z" class="g0_71"/>
<path fill-rule="evenodd" d="M522.4,338.3H761.5V323.6H522.4v14.7Z" class="g0_71"/>
<path fill-rule="evenodd" d="M522.4,353H761.5V338.3H522.4V353Z" class="g0_71"/>
<path fill-rule="evenodd" d="M522.4,367.7H761.5V353H522.4v14.7Z" class="g0_71"/>
<path fill-rule="evenodd" d="M521.7,383.1H760.8V368.4H521.7v14.7Z" class="g0_71"/>
<path fill-rule="evenodd" d="M521.7,397.7H760.8V383.1H521.7v14.6Z" class="g0_71"/>
<path fill-rule="evenodd" d="M521.7,412.4H760.8V397.7H521.7v14.7Z" class="g0_71"/>
<path fill-rule="evenodd" d="M521.7,427.1H760.8V412.4H521.7v14.7Z" class="g0_71"/>
<path fill-rule="evenodd" d="M521.7,441.7H760.8V427.1H521.7v14.6Z" class="g0_71"/>
<path fill-rule="evenodd" d="M521.7,456.4H760.8V441.7H521.7v14.7Z" class="g0_71"/>
<path fill-rule="evenodd" d="M540,471.4H761.5V456.8H540v14.6Z" class="g0_71"/>
<path fill-rule="evenodd" d="M521.7,486.5H760.1V471.8H521.7v14.7Z" class="g0_71"/>
<path fill-rule="evenodd" d="M521.7,501.1H760.1V486.5H521.7v14.6Z" class="g0_71"/>
<path fill-rule="evenodd" d="M521.7,515.8H760.1V501.1H521.7v14.7Z" class="g0_71"/>
<path fill-rule="evenodd" d="M521.7,530.5H760.1V515.8H521.7v14.7Z" class="g0_71"/>
<path fill-rule="evenodd" d="M521.7,545.1H760.1V530.5H521.7v14.6Z" class="g0_71"/>
<path fill-rule="evenodd" d="M521.7,559.8H760.1V545.1H521.7v14.7Z" class="g0_71"/>
<path fill-rule="evenodd" d="M521.7,574.5H760.1V559.8H521.7v14.7Z" class="g0_71"/>
<path fill-rule="evenodd" d="M521.3,589.1H760.1V574.5H521.3v14.6Z" class="g0_71"/>
<path fill-rule="evenodd" d="M521.3,603.8H760.1V589.1H521.3v14.7Z" class="g0_71"/>
<path fill-rule="evenodd" d="M521.3,618.5H760.1V603.8H521.3v14.7Z" class="g0_71"/>
<path fill-rule="evenodd" d="M521.3,633.2H760.1V618.5H521.3v14.7Z" class="g0_71"/>
<path fill-rule="evenodd" d="M497.1,723.4H761.5V699.5H497.1v23.9Z" class="g0_71"/>
<path fill-rule="evenodd" d="M261.6,761.9H500.8V746.1H261.6v15.8Z" class="g0_71"/>
<path fill-rule="evenodd" d="M261.6,777.4H500.8V761.9H261.6v15.5Z" class="g0_71"/>
<path fill-rule="evenodd" d="M261.6,793.2H500.8V777.4H261.6v15.8Z" class="g0_71"/>
<path fill-rule="evenodd" d="M261.6,809H500.8V793.2H261.6V809Z" class="g0_71"/>
<path fill-rule="evenodd" d="M261.6,824.7H500.8V809H261.6v15.7Z" class="g0_71"/>
<path fill-rule="evenodd" d="M261.6,840.6H500.8V824.7H261.6v15.9Z" class="g0_71"/>
<path fill-rule="evenodd" d="M261.3,856.3H500.8V840.6H261.3v15.7Z" class="g0_71"/>
<path fill-rule="evenodd" d="M261.3,871.9H500.8V856.3H261.3v15.6Z" class="g0_71"/>
<path fill-rule="evenodd" d="M261.3,887.7H500.8V871.9H261.3v15.8Z" class="g0_71"/>
<path fill-rule="evenodd" d="M261.3,901.6H500.8V887.7H261.3v13.9Z" class="g0_71"/>
<path fill-rule="evenodd" d="M520.4,760.8H759.5v-14H520.4v14Z" class="g0_71"/>
<path fill-rule="evenodd" d="M520.4,774.7H759.5V760.8H520.4v13.9Z" class="g0_71"/>
<path fill-rule="evenodd" d="M520.4,788.4H759.5V774.7H520.4v13.7Z" class="g0_71"/>
<path fill-rule="evenodd" d="M520.4,802.4H759.5v-14H520.4v14Z" class="g0_71"/>
<path fill-rule="evenodd" d="M520.4,816.3H759.5V802.4H520.4v13.9Z" class="g0_71"/>
<path fill-rule="evenodd" d="M520.4,830.2H759.5V816.3H520.4v13.9Z" class="g0_71"/>
<path fill-rule="evenodd" d="M520.4,844.2H759.5v-14H520.4v14Z" class="g0_71"/>
<path fill-rule="evenodd" d="M520.4,858.2H759.1v-14H520.4v14Z" class="g0_71"/>
<path fill-rule="evenodd" d="M520.4,871.9H759.1V858.2H520.4v13.7Z" class="g0_71"/>
<path fill-rule="evenodd" d="M520.4,885.8H759.1V871.9H520.4v13.9Z" class="g0_71"/>
<path fill-rule="evenodd" d="M501.2,915H761.5V899H501.2v16Z" class="g0_71"/>
<path d="M205.8,102.7V259.3M203.7,155.5V461.7m3.2,-283.4V248m304,-100.5V672.6m-2.2,73V890" class="g1_71"/>
</svg>