<?xml version="1.0" encoding="UTF-8" standalone="no"?>
<!DOCTYPE svg PUBLIC "-//W3C//DTD SVG 1.1//EN"
"http://www.w3.org/Graphics/SVG/1.1/DTD/svg11.dtd">
<svg viewBox="0 0 909 1285" version="1.1" xmlns="http://www.w3.org/2000/svg" xmlns:xlink="http://www.w3.org/1999/xlink">
<defs>
<style type="text/css"><![CDATA[
.g0_55{
fill: #FFFFFF;
}
.g1_55{
fill: none;
stroke: #000000;
stroke-width: 0.381;
stroke-linecap: butt;
stroke-linejoin: round;
}
]]></style>
</defs>
<path fill-rule="evenodd" d="M261.6,125.8H760.1V110H261.6v15.8Z" class="g0_55"/>
<path fill-rule="evenodd" d="M280,161H501.2V146H280v15Z" class="g0_55"/>
<path fill-rule="evenodd" d="M261.6,176H501.2V161H261.6v15Z" class="g0_55"/>
<path fill-rule="evenodd" d="M261.6,191.1H501.2V176H261.6v15.1Z" class="g0_55"/>
<path fill-rule="evenodd" d="M260.9,206.3H501.2V191.1H260.9v15.2Z" class="g0_55"/>
<path fill-rule="evenodd" d="M260.9,221.3H501.2v-15H260.9v15Z" class="g0_55"/>
<path fill-rule="evenodd" d="M260.9,236.3H501.2v-15H260.9v15Z" class="g0_55"/>
<path fill-rule="evenodd" d="M260.9,251.4H501.2V236.3H260.9v15.1Z" class="g0_55"/>
<path fill-rule="evenodd" d="M260.5,266.4H501.2v-15H260.5v15Z" class="g0_55"/>
<path fill-rule="evenodd" d="M260.5,281.4H501.2v-15H260.5v15Z" class="g0_55"/>
<path fill-rule="evenodd" d="M260.5,296.5H501.2V281.4H260.5v15.1Z" class="g0_55"/>
<path fill-rule="evenodd" d="M260.5,311.5H501.2v-15H260.5v15Z" class="g0_55"/>
<path fill-rule="evenodd" d="M260.5,326.5H501.2v-15H260.5v15Z" class="g0_55"/>
<path fill-rule="evenodd" d="M260.5,341.6H501.2V326.5H260.5v15.1Z" class="g0_55"/>
<path fill-rule="evenodd" d="M260.5,356.7H501.2V341.6H260.5v15.1Z" class="g0_55"/>
<path fill-rule="evenodd" d="M260.5,371.9H501.2V356.7H260.5v15.2Z" class="g0_55"/>
<path fill-rule="evenodd" d="M260.5,386.9H501.2v-15H260.5v15Z" class="g0_55"/>
<path fill-rule="evenodd" d="M260.5,401.9H501.2v-15H260.5v15Z" class="g0_55"/>
<path fill-rule="evenodd" d="M259.8,417H501.2V401.9H259.8V417Z" class="g0_55"/>
<path fill-rule="evenodd" d="M259.8,432H501.2V417H259.8v15Z" class="g0_55"/>
<path fill-rule="evenodd" d="M259.8,447H501.2V432H259.8v15Z" class="g0_55"/>
<path fill-rule="evenodd" d="M259.8,462.1H501.2V447H259.8v15.1Z" class="g0_55"/>
<path fill-rule="evenodd" d="M259.8,477.1H501.2v-15H259.8v15Z" class="g0_55"/>
<path fill-rule="evenodd" d="M259.8,492.1H498.6v-15H259.8v15Z" class="g0_55"/>
<path fill-rule="evenodd" d="M259.8,507.2H498.6V492.1H259.8v15.1Z" class="g0_55"/>
<path fill-rule="evenodd" d="M259.4,522.2H498.6v-15H259.4v15Z" class="g0_55"/>
<path fill-rule="evenodd" d="M259.4,537.2H498.6v-15H259.4v15Z" class="g0_55"/>
<path fill-rule="evenodd" d="M259.4,552.5H498.6V537.2H259.4v15.3Z" class="g0_55"/>
<path fill-rule="evenodd" d="M259.4,567.5H498.6v-15H259.4v15Z" class="g0_55"/>
<path fill-rule="evenodd" d="M258.7,582.5H501.2v-15H258.7v15Z" class="g0_55"/>
<path fill-rule="evenodd" d="M258.7,597.6H501.2V582.5H258.7v15.1Z" class="g0_55"/>
<path fill-rule="evenodd" d="M258.7,612.6H501.2v-15H258.7v15Z" class="g0_55"/>
<path fill-rule="evenodd" d="M258.7,627.7H501.2V612.6H258.7v15.1Z" class="g0_55"/>
<path fill-rule="evenodd" d="M258.7,642.7H501.2v-15H258.7v15Z" class="g0_55"/>
<path fill-rule="evenodd" d="M258.7,657.7H501.2v-15H258.7v15Z" class="g0_55"/>
<path fill-rule="evenodd" d="M258.7,672.8H497.9V657.7H258.7v15.1Z" class="g0_55"/>
<path fill-rule="evenodd" d="M258.7,687.8H497.9v-15H258.7v15Z" class="g0_55"/>
<path fill-rule="evenodd" d="M258.7,702.8H497.9v-15H258.7v15Z" class="g0_55"/>
<path fill-rule="evenodd" d="M258.3,717.9H501.2V702.8H258.3v15.1Z" class="g0_55"/>
<path fill-rule="evenodd" d="M258.3,733.1H501.2V717.9H258.3v15.2Z" class="g0_55"/>
<path fill-rule="evenodd" d="M258.3,748.1H501.2v-15H258.3v15Z" class="g0_55"/>
<path fill-rule="evenodd" d="M258.3,763.1H501.2v-15H258.3v15Z" class="g0_55"/>
<path fill-rule="evenodd" d="M258.3,778.2H501.2V763.1H258.3v15.1Z" class="g0_55"/>
<path fill-rule="evenodd" d="M258,793.2H497.5v-15H258v15Z" class="g0_55"/>
<path fill-rule="evenodd" d="M258,808.2H497.5v-15H258v15Z" class="g0_55"/>
<path fill-rule="evenodd" d="M258,823.3H497.5V808.2H258v15.1Z" class="g0_55"/>
<path fill-rule="evenodd" d="M258,838.4H497.5V823.3H258v15.1Z" class="g0_55"/>
<path fill-rule="evenodd" d="M258,853.4H497.5v-15H258v15Z" class="g0_55"/>
<path fill-rule="evenodd" d="M258,868.4H496.8v-15H258v15Z" class="g0_55"/>
<path fill-rule="evenodd" d="M258,883.5H496.8V868.4H258v15.1Z" class="g0_55"/>
<path fill-rule="evenodd" d="M258,898.5H496.8v-15H258v15Z" class="g0_55"/>
<path fill-rule="evenodd" d="M262.4,913.2H501.2V898.5H262.4v14.7Z" class="g0_55"/>
<path fill-rule="evenodd" d="M521.7,161.4H760.1V146.7H521.7v14.7Z" class="g0_55"/>
<path fill-rule="evenodd" d="M521.7,176H760.1V161.4H521.7V176Z" class="g0_55"/>
<path fill-rule="evenodd" d="M521,190.7H760.1V176H521v14.7Z" class="g0_55"/>
<path fill-rule="evenodd" d="M521,205.4H760.1V190.7H521v14.7Z" class="g0_55"/>
<path fill-rule="evenodd" d="M521,220H760.1V205.4H521V220Z" class="g0_55"/>
<path fill-rule="evenodd" d="M521,234.7H760.1V220H521v14.7Z" class="g0_55"/>
<path fill-rule="evenodd" d="M521,249.4H760.1V234.7H521v14.7Z" class="g0_55"/>
<path fill-rule="evenodd" d="M521,264H760.1V249.4H521V264Z" class="g0_55"/>
<path fill-rule="evenodd" d="M520.6,279.6H732.2V264.8H520.6v14.8Z" class="g0_55"/>
<path fill-rule="evenodd" d="M520.6,294.3H732.2V279.6H520.6v14.7Z" class="g0_55"/>
<path fill-rule="evenodd" d="M520.6,308.9H759V294.3H520.6v14.6Z" class="g0_55"/>
<path fill-rule="evenodd" d="M520.6,323.6H759V308.9H520.6v14.7Z" class="g0_55"/>
<path fill-rule="evenodd" d="M520.2,338.3H759.3V323.6H520.2v14.7Z" class="g0_55"/>
<path fill-rule="evenodd" d="M520.2,353H759.3V338.3H520.2V353Z" class="g0_55"/>
<path fill-rule="evenodd" d="M520.2,367.7H759.3V353H520.2v14.7Z" class="g0_55"/>
<path fill-rule="evenodd" d="M538.2,382.7H760.1V368H538.2v14.7Z" class="g0_55"/>
<path fill-rule="evenodd" d="M538.2,397.4H760.1V382.7H538.2v14.7Z" class="g0_55"/>
<path fill-rule="evenodd" d="M519.9,412.4H758.6V397.7H519.9v14.7Z" class="g0_55"/>
<path fill-rule="evenodd" d="M519.9,427.1H758.6V412.4H519.9v14.7Z" class="g0_55"/>
<path fill-rule="evenodd" d="M519.9,441.7H758.6V427.1H519.9v14.6Z" class="g0_55"/>
<path fill-rule="evenodd" d="M519.5,457.1H757.9V442.5H519.5v14.6Z" class="g0_55"/>
<path fill-rule="evenodd" d="M519.5,471.8H757.9V457.1H519.5v14.7Z" class="g0_55"/>
<path fill-rule="evenodd" d="M518.8,487.2H758.2V472.5H518.8v14.7Z" class="g0_55"/>
<path fill-rule="evenodd" d="M518.8,501.9H758.2V487.2H518.8v14.7Z" class="g0_55"/>
<path fill-rule="evenodd" d="M518.8,516.5H758.2V501.9H518.8v14.6Z" class="g0_55"/>
<path fill-rule="evenodd" d="M518.8,531.2H758.2V516.5H518.8v14.7Z" class="g0_55"/>
<path fill-rule="evenodd" d="M518.8,545.9H758.2V531.2H518.8v14.7Z" class="g0_55"/>
<path fill-rule="evenodd" d="M518.8,560.5H758.2V545.9H518.8v14.6Z" class="g0_55"/>
<path fill-rule="evenodd" d="M518.8,575.2H758.2V560.5H518.8v14.7Z" class="g0_55"/>
<path fill-rule="evenodd" d="M518.8,589.9H758.2V575.2H518.8v14.7Z" class="g0_55"/>
<path fill-rule="evenodd" d="M518.8,604.6H758.2V589.9H518.8v14.7Z" class="g0_55"/>
<path fill-rule="evenodd" d="M518.8,619.2H758.2V604.6H518.8v14.6Z" class="g0_55"/>
<path fill-rule="evenodd" d="M518.4,633.9H757.5V619.2H518.4v14.7Z" class="g0_55"/>
<path fill-rule="evenodd" d="M518.4,648.6H757.5V633.9H518.4v14.7Z" class="g0_55"/>
<path fill-rule="evenodd" d="M518.4,663.2H757.5V648.6H518.4v14.6Z" class="g0_55"/>
<path fill-rule="evenodd" d="M518.4,677.9H757.5V663.2H518.4v14.7Z" class="g0_55"/>
<path fill-rule="evenodd" d="M518.4,692.9h238V678.3h-238v14.6Z" class="g0_55"/>
<path fill-rule="evenodd" d="M518.4,707.6h238V692.9h-238v14.7Z" class="g0_55"/>
<path fill-rule="evenodd" d="M518,722.3H756.4V707.6H518v14.7Z" class="g0_55"/>
<path fill-rule="evenodd" d="M518,736.9H756.4V722.3H518v14.6Z" class="g0_55"/>
<path fill-rule="evenodd" d="M518,752.3H757.1V737.7H518v14.6Z" class="g0_55"/>
<path fill-rule="evenodd" d="M518,767H757.1V752.3H518V767Z" class="g0_55"/>
<path fill-rule="evenodd" d="M518,781.7H757.1V767H518v14.7Z" class="g0_55"/>
<path fill-rule="evenodd" d="M517.7,796.7H756V782H517.7v14.7Z" class="g0_55"/>
<path fill-rule="evenodd" d="M517.7,811.4H756V796.7H517.7v14.7Z" class="g0_55"/>
<path fill-rule="evenodd" d="M517.3,826H756.4V811.4H517.3V826Z" class="g0_55"/>
<path fill-rule="evenodd" d="M517.3,840.7H756.4V826H517.3v14.7Z" class="g0_55"/>
<path fill-rule="evenodd" d="M517.3,855.4H756V840.7H517.3v14.7Z" class="g0_55"/>
<path fill-rule="evenodd" d="M517.3,870.1H756V855.4H517.3v14.7Z" class="g0_55"/>
<path fill-rule="evenodd" d="M517.3,884.7H756V870.1H517.3v14.6Z" class="g0_55"/>
<path fill-rule="evenodd" d="M497.5,930.4H760.1V912.8H497.5v17.6Z" class="g0_55"/>
<path d="M182.8,269.6V542.4m2.6,-4.5V780.3M506.9,147V914.5" class="g1_55"/>
</svg>