<?xml version="1.0" encoding="UTF-8" standalone="no"?>
<!DOCTYPE svg PUBLIC "-//W3C//DTD SVG 1.1//EN"
"http://www.w3.org/Graphics/SVG/1.1/DTD/svg11.dtd">
<svg viewBox="0 0 909 1285" version="1.1" xmlns="http://www.w3.org/2000/svg" xmlns:xlink="http://www.w3.org/1999/xlink">
<defs>
<style type="text/css"><![CDATA[
.g0_92{
fill: #FFFFFF;
}
.g1_92{
fill: none;
stroke: #000000;
stroke-width: 2.597;
stroke-linecap: butt;
stroke-linejoin: round;
}
]]></style>
</defs>
<path fill-rule="evenodd" d="M645.9,125.8h59.4V110H645.9v15.8Z" class="g0_92"/>
<path fill-rule="evenodd" d="M199.1,213.1H419.9V198H199.1v15.1Z" class="g0_92"/>
<path fill-rule="evenodd" d="M181.2,228.3h238V213.1h-238v15.2Z" class="g0_92"/>
<path fill-rule="evenodd" d="M181.2,243.3h238v-15h-238v15Z" class="g0_92"/>
<path fill-rule="evenodd" d="M181.2,258.3H419.9v-15H181.2v15Z" class="g0_92"/>
<path fill-rule="evenodd" d="M181.2,273.4H419.9V258.3H181.2v15.1Z" class="g0_92"/>
<path fill-rule="evenodd" d="M181.2,288.4H419.9v-15H181.2v15Z" class="g0_92"/>
<path fill-rule="evenodd" d="M181.2,303.4H419.9v-15H181.2v15Z" class="g0_92"/>
<path fill-rule="evenodd" d="M180.4,318.5H419.2V303.4H180.4v15.1Z" class="g0_92"/>
<path fill-rule="evenodd" d="M180.4,333.5H419.2v-15H180.4v15Z" class="g0_92"/>
<path fill-rule="evenodd" d="M180.4,348.5H419.2v-15H180.4v15Z" class="g0_92"/>
<path fill-rule="evenodd" d="M180.4,363.6H419.2v-15H180.4v15Z" class="g0_92"/>
<path fill-rule="evenodd" d="M180.8,378.7H419.9V363.6H180.8v15.1Z" class="g0_92"/>
<path fill-rule="evenodd" d="M180.8,393.9H419.9V378.7H180.8v15.2Z" class="g0_92"/>
<path fill-rule="evenodd" d="M180.8,408.9H419.9v-15H180.8v15Z" class="g0_92"/>
<path fill-rule="evenodd" d="M180.8,423.9H419.9v-15H180.8v15Z" class="g0_92"/>
<path fill-rule="evenodd" d="M180.4,439H419.2V423.9H180.4V439Z" class="g0_92"/>
<path fill-rule="evenodd" d="M180.4,454H419.2V439H180.4v15Z" class="g0_92"/>
<path fill-rule="evenodd" d="M180.4,469H419.2V454H180.4v15Z" class="g0_92"/>
<path fill-rule="evenodd" d="M179.7,484.1H418.4V469H179.7v15.1Z" class="g0_92"/>
<path fill-rule="evenodd" d="M179.7,499.1H418.4v-15H179.7v15Z" class="g0_92"/>
<path fill-rule="evenodd" d="M179.7,514.1H418.4v-15H179.7v15Z" class="g0_92"/>
<path fill-rule="evenodd" d="M198.4,529.2H419.9V514.1H198.4v15.1Z" class="g0_92"/>
<path fill-rule="evenodd" d="M179.7,544.2H418.8v-15H179.7v15Z" class="g0_92"/>
<path fill-rule="evenodd" d="M179.7,559.2H418.8v-15H179.7v15Z" class="g0_92"/>
<path fill-rule="evenodd" d="M198.4,574.5H419.9V559.2H198.4v15.3Z" class="g0_92"/>
<path fill-rule="evenodd" d="M179.3,589.5H418.4v-15H179.3v15Z" class="g0_92"/>
<path fill-rule="evenodd" d="M179.3,604.6H418.4V589.5H179.3v15.1Z" class="g0_92"/>
<path fill-rule="evenodd" d="M179.3,619.6H418.4v-15H179.3v15Z" class="g0_92"/>
<path fill-rule="evenodd" d="M179.3,634.6H418.8v-15H179.3v15Z" class="g0_92"/>
<path fill-rule="evenodd" d="M179.3,649.7H418.8V634.6H179.3v15.1Z" class="g0_92"/>
<path fill-rule="evenodd" d="M179.3,664.7H418.8v-15H179.3v15Z" class="g0_92"/>
<path fill-rule="evenodd" d="M179.3,679.7H418.8v-15H179.3v15Z" class="g0_92"/>
<path fill-rule="evenodd" d="M179.3,694.8H418.8V679.7H179.3v15.1Z" class="g0_92"/>
<path fill-rule="evenodd" d="M179.3,709.8H418.8v-15H179.3v15Z" class="g0_92"/>
<path fill-rule="evenodd" d="M179,724.8H418.4v-15H179v15Z" class="g0_92"/>
<path fill-rule="evenodd" d="M179,739.9H418.4V724.8H179v15.1Z" class="g0_92"/>
<path fill-rule="evenodd" d="M179,755.1H418.4V739.9H179v15.2Z" class="g0_92"/>
<path fill-rule="evenodd" d="M179,770.1H418.4v-15H179v15Z" class="g0_92"/>
<path fill-rule="evenodd" d="M179,785.1H417.7v-15H179v15Z" class="g0_92"/>
<path fill-rule="evenodd" d="M179,800.2H417.7V785.1H179v15.1Z" class="g0_92"/>
<path fill-rule="evenodd" d="M179.3,815.2H417.7v-15H179.3v15Z" class="g0_92"/>
<path fill-rule="evenodd" d="M179.3,830.2H417.7v-15H179.3v15Z" class="g0_92"/>
<path fill-rule="evenodd" d="M178.6,845.3H418.1V830.2H178.6v15.1Z" class="g0_92"/>
<path fill-rule="evenodd" d="M178.6,860.4H418.1V845.3H178.6v15.1Z" class="g0_92"/>
<path fill-rule="evenodd" d="M178.6,875.4H418.1v-15H178.6v15Z" class="g0_92"/>
<path fill-rule="evenodd" d="M178.6,890.4H418.1v-15H178.6v15Z" class="g0_92"/>
<path fill-rule="evenodd" d="M178.6,924.5H419.9V890.4H178.6v34.1Z" class="g0_92"/>
<path fill-rule="evenodd" d="M417.7,186.3H679.2V152.2H417.7v34.1Z" class="g0_92"/>
<path fill-rule="evenodd" d="M440.1,212.7H679.2v-15H440.1v15Z" class="g0_92"/>
<path fill-rule="evenodd" d="M440.1,227.7H679.2v-15H440.1v15Z" class="g0_92"/>
<path fill-rule="evenodd" d="M440.1,242.9H679.2V227.7H440.1v15.2Z" class="g0_92"/>
<path fill-rule="evenodd" d="M440.1,258H679.2V242.9H440.1V258Z" class="g0_92"/>
<path fill-rule="evenodd" d="M440.1,273H679.2V258H440.1v15Z" class="g0_92"/>
<path fill-rule="evenodd" d="M440.1,288H679.2V273H440.1v15Z" class="g0_92"/>
<path fill-rule="evenodd" d="M440.1,303.1H679.2V288H440.1v15.1Z" class="g0_92"/>
<path fill-rule="evenodd" d="M439.7,318.1H679.2v-15H439.7v15Z" class="g0_92"/>
<path fill-rule="evenodd" d="M439.7,333.1H679.2v-15H439.7v15Z" class="g0_92"/>
<path fill-rule="evenodd" d="M439.7,348.2H679.2V333.1H439.7v15.1Z" class="g0_92"/>
<path fill-rule="evenodd" d="M439.7,363.3H679.2V348.2H439.7v15.1Z" class="g0_92"/>
<path fill-rule="evenodd" d="M439.7,378.3H679.2v-15H439.7v15Z" class="g0_92"/>
<path fill-rule="evenodd" d="M439.7,393.3H679.2v-15H439.7v15Z" class="g0_92"/>
<path fill-rule="evenodd" d="M439.7,408.5H679.2V393.3H439.7v15.2Z" class="g0_92"/>
<path fill-rule="evenodd" d="M439.7,423.6H679.2V408.5H439.7v15.1Z" class="g0_92"/>
<path fill-rule="evenodd" d="M439.3,438.6h239v-15h-239v15Z" class="g0_92"/>
<path fill-rule="evenodd" d="M439.3,453.6h239v-15h-239v15Z" class="g0_92"/>
<path fill-rule="evenodd" d="M439.3,468.7h239V453.6h-239v15.1Z" class="g0_92"/>
<path fill-rule="evenodd" d="M457.7,483.7H679.2v-15H457.7v15Z" class="g0_92"/>
<path fill-rule="evenodd" d="M439.3,498.7H678.1v-15H439.3v15Z" class="g0_92"/>
<path fill-rule="evenodd" d="M439.3,513.8H678.1V498.7H439.3v15.1Z" class="g0_92"/>
<path fill-rule="evenodd" d="M439.3,528.8H678.1v-15H439.3v15Z" class="g0_92"/>
<path fill-rule="evenodd" d="M439.3,543.8h239v-15h-239v15Z" class="g0_92"/>
<path fill-rule="evenodd" d="M439.3,558.9h239V543.8h-239v15.1Z" class="g0_92"/>
<path fill-rule="evenodd" d="M457.7,573.9H679.2v-15H457.7v15Z" class="g0_92"/>
<path fill-rule="evenodd" d="M439,589.1H678.1V573.9H439v15.2Z" class="g0_92"/>
<path fill-rule="evenodd" d="M439,604.2H678.1V589.1H439v15.1Z" class="g0_92"/>
<path fill-rule="evenodd" d="M439,619.2H678.1v-15H439v15Z" class="g0_92"/>
<path fill-rule="evenodd" d="M439,634.3H678.1V619.2H439v15.1Z" class="g0_92"/>
<path fill-rule="evenodd" d="M439,649.3H678.1v-15H439v15Z" class="g0_92"/>
<path fill-rule="evenodd" d="M439,664.3H678.1v-15H439v15Z" class="g0_92"/>
<path fill-rule="evenodd" d="M438.6,679.7H678.1v-15H438.6v15Z" class="g0_92"/>
<path fill-rule="evenodd" d="M438.6,694.8H678.1V679.7H438.6v15.1Z" class="g0_92"/>
<path fill-rule="evenodd" d="M438.6,709.8H678.1v-15H438.6v15Z" class="g0_92"/>
<path fill-rule="evenodd" d="M438.6,724.8H678.1v-15H438.6v15Z" class="g0_92"/>
<path fill-rule="evenodd" d="M437.9,739.9H678.3V724.8H437.9v15.1Z" class="g0_92"/>
<path fill-rule="evenodd" d="M437.9,755.1H678.3V739.9H437.9v15.2Z" class="g0_92"/>
<path fill-rule="evenodd" d="M437.9,770.1H678.3v-15H437.9v15Z" class="g0_92"/>
<path fill-rule="evenodd" d="M437.9,785.1H678.3v-15H437.9v15Z" class="g0_92"/>
<path fill-rule="evenodd" d="M437.9,800.2H678.3V785.1H437.9v15.1Z" class="g0_92"/>
<path fill-rule="evenodd" d="M437.9,815.2H678.3v-15H437.9v15Z" class="g0_92"/>
<path fill-rule="evenodd" d="M437.9,830.2H678.3v-15H437.9v15Z" class="g0_92"/>
<path fill-rule="evenodd" d="M437.9,845.3H678.3V830.2H437.9v15.1Z" class="g0_92"/>
<path fill-rule="evenodd" d="M437.9,860.4H678.3V845.3H437.9v15.1Z" class="g0_92"/>
<path fill-rule="evenodd" d="M437.9,875.4H678.3v-15H437.9v15Z" class="g0_92"/>
<path fill-rule="evenodd" d="M437.9,890.4H678.3v-15H437.9v15Z" class="g0_92"/>
<path d="M158.4,161v89.5" class="g1_92"/>
</svg>