<?xml version="1.0" encoding="UTF-8" standalone="no"?>
<!DOCTYPE svg PUBLIC "-//W3C//DTD SVG 1.1//EN"
"http://www.w3.org/Graphics/SVG/1.1/DTD/svg11.dtd">
<svg viewBox="0 0 909 1285" version="1.1" xmlns="http://www.w3.org/2000/svg" xmlns:xlink="http://www.w3.org/1999/xlink">
<defs>
<style type="text/css"><![CDATA[
.g0_250{
fill: #FFFFFF;
}
.g1_250{
fill: none;
stroke: #000000;
stroke-width: 0.381;
stroke-linecap: butt;
stroke-linejoin: round;
}
.g2_250{
fill: none;
stroke: #000000;
stroke-width: 0.763;
stroke-linecap: butt;
stroke-linejoin: round;
}
]]></style>
</defs>
<path fill-rule="evenodd" d="M262.7,125.8H762.3V110H262.7v15.8Z" class="g0_250"/>
<path fill-rule="evenodd" d="M262.4,161.4H502.3V146.3H262.4v15.1Z" class="g0_250"/>
<path fill-rule="evenodd" d="M262.4,176.4H502.3v-15H262.4v15Z" class="g0_250"/>
<path fill-rule="evenodd" d="M262.4,191.6H502.3V176.4H262.4v15.2Z" class="g0_250"/>
<path fill-rule="evenodd" d="M262.4,206.6H502.3v-15H262.4v15Z" class="g0_250"/>
<path fill-rule="evenodd" d="M262.4,221.7H502.3V206.6H262.4v15.1Z" class="g0_250"/>
<path fill-rule="evenodd" d="M262.4,236.7H502.3v-15H262.4v15Z" class="g0_250"/>
<path fill-rule="evenodd" d="M262.4,251.7H502.3v-15H262.4v15Z" class="g0_250"/>
<path fill-rule="evenodd" d="M262.4,266.8H502.3V251.7H262.4v15.1Z" class="g0_250"/>
<path fill-rule="evenodd" d="M262.4,281.8H501.5v-15H262.4v15Z" class="g0_250"/>
<path fill-rule="evenodd" d="M262.4,296.8H501.5v-15H262.4v15Z" class="g0_250"/>
<path fill-rule="evenodd" d="M262.4,311.9H501.5V296.8H262.4v15.1Z" class="g0_250"/>
<path fill-rule="evenodd" d="M262,326.9H502.3v-15H262v15Z" class="g0_250"/>
<path fill-rule="evenodd" d="M262,341.9H502.3v-15H262v15Z" class="g0_250"/>
<path fill-rule="evenodd" d="M262,357.2H502.3V342H262v15.2Z" class="g0_250"/>
<path fill-rule="evenodd" d="M262,372.2H502.3v-15H262v15Z" class="g0_250"/>
<path fill-rule="evenodd" d="M262,387.3H502.3V372.2H262v15.1Z" class="g0_250"/>
<path fill-rule="evenodd" d="M262,402.3H502.3v-15H262v15Z" class="g0_250"/>
<path fill-rule="evenodd" d="M261.6,417.3H501.9v-15H261.6v15Z" class="g0_250"/>
<path fill-rule="evenodd" d="M261.6,432.4H501.9V417.3H261.6v15.1Z" class="g0_250"/>
<path fill-rule="evenodd" d="M261.6,447.4H501.9v-15H261.6v15Z" class="g0_250"/>
<path fill-rule="evenodd" d="M261.6,462.4H501.9v-15H261.6v15Z" class="g0_250"/>
<path fill-rule="evenodd" d="M261.3,477.5H501.2V462.4H261.3v15.1Z" class="g0_250"/>
<path fill-rule="evenodd" d="M261.3,492.5H501.2v-15H261.3v15Z" class="g0_250"/>
<path fill-rule="evenodd" d="M261.3,507.5H501.2v-15H261.3v15Z" class="g0_250"/>
<path fill-rule="evenodd" d="M261.6,522.6H501.5V507.5H261.6v15.1Z" class="g0_250"/>
<path fill-rule="evenodd" d="M261.6,537.8H501.5V522.6H261.6v15.2Z" class="g0_250"/>
<path fill-rule="evenodd" d="M261.6,552.8H501.5v-15H261.6v15Z" class="g0_250"/>
<path fill-rule="evenodd" d="M261.6,567.9H501.2V552.8H261.6v15.1Z" class="g0_250"/>
<path fill-rule="evenodd" d="M261.6,582.9H501.2v-15H261.6v15Z" class="g0_250"/>
<path fill-rule="evenodd" d="M261.6,598H501.2V582.9H261.6V598Z" class="g0_250"/>
<path fill-rule="evenodd" d="M261.6,613H501.2V598H261.6v15Z" class="g0_250"/>
<path fill-rule="evenodd" d="M261.3,628H500.8V613H261.3v15Z" class="g0_250"/>
<path fill-rule="evenodd" d="M261.3,643.1H500.8V628H261.3v15.1Z" class="g0_250"/>
<path fill-rule="evenodd" d="M261.6,658.1H500.8v-15H261.6v15Z" class="g0_250"/>
<path fill-rule="evenodd" d="M261.6,673.1H500.8v-15H261.6v15Z" class="g0_250"/>
<path fill-rule="evenodd" d="M261.3,688.2H500.8V673.1H261.3v15.1Z" class="g0_250"/>
<path fill-rule="evenodd" d="M261.3,703.2H500.8v-15H261.3v15Z" class="g0_250"/>
<path fill-rule="evenodd" d="M261.3,718.4H500.8V703.2H261.3v15.2Z" class="g0_250"/>
<path fill-rule="evenodd" d="M261.3,733.4H500.8v-15H261.3v15Z" class="g0_250"/>
<path fill-rule="evenodd" d="M260.9,748.5H501.2V733.4H260.9v15.1Z" class="g0_250"/>
<path fill-rule="evenodd" d="M260.9,763.5H501.2v-15H260.9v15Z" class="g0_250"/>
<path fill-rule="evenodd" d="M260.9,778.5H501.2v-15H260.9v15Z" class="g0_250"/>
<path fill-rule="evenodd" d="M261.3,793.6H501.2V778.5H261.3v15.1Z" class="g0_250"/>
<path fill-rule="evenodd" d="M261.3,808.6H501.2v-15H261.3v15Z" class="g0_250"/>
<path fill-rule="evenodd" d="M261.3,823.6H501.2v-15H261.3v15Z" class="g0_250"/>
<path fill-rule="evenodd" d="M261.3,838.7H501.2V823.6H261.3v15.1Z" class="g0_250"/>
<path fill-rule="evenodd" d="M261.6,853.8H501.2V838.7H261.6v15.1Z" class="g0_250"/>
<path fill-rule="evenodd" d="M261.6,868.8H501.2v-15H261.6v15Z" class="g0_250"/>
<path fill-rule="evenodd" d="M261.3,883.8H500.8v-15H261.3v15Z" class="g0_250"/>
<path fill-rule="evenodd" d="M261.3,899H500.8V883.8H261.3V899Z" class="g0_250"/>
<path fill-rule="evenodd" d="M262.4,914.1H501.9V899H262.4v15.1Z" class="g0_250"/>
<path fill-rule="evenodd" d="M522.4,161.4H761.9V146.3H522.4v15.1Z" class="g0_250"/>
<path fill-rule="evenodd" d="M522.4,176.4H761.9v-15H522.4v15Z" class="g0_250"/>
<path fill-rule="evenodd" d="M522.4,191.6H761.9V176.4H522.4v15.2Z" class="g0_250"/>
<path fill-rule="evenodd" d="M522.4,206.6H761.5v-15H522.4v15Z" class="g0_250"/>
<path fill-rule="evenodd" d="M522.4,221.7H761.5V206.6H522.4v15.1Z" class="g0_250"/>
<path fill-rule="evenodd" d="M522.8,236.7H761.9v-15H522.8v15Z" class="g0_250"/>
<path fill-rule="evenodd" d="M522.8,251.7H761.9v-15H522.8v15Z" class="g0_250"/>
<path fill-rule="evenodd" d="M522.1,266.8H762.3V251.7H522.1v15.1Z" class="g0_250"/>
<path fill-rule="evenodd" d="M522.1,281.8H762.3v-15H522.1v15Z" class="g0_250"/>
<path fill-rule="evenodd" d="M522.1,296.8H762.3v-15H522.1v15Z" class="g0_250"/>
<path fill-rule="evenodd" d="M522.1,311.9H762.3V296.8H522.1v15.1Z" class="g0_250"/>
<path fill-rule="evenodd" d="M522.1,326.9H762.3v-15H522.1v15Z" class="g0_250"/>
<path fill-rule="evenodd" d="M522.4,341.9H762.3v-15H522.4v15Z" class="g0_250"/>
<path fill-rule="evenodd" d="M522.4,357.2H762.3V342H522.4v15.2Z" class="g0_250"/>
<path fill-rule="evenodd" d="M521.3,372.2H761.9v-15H521.3v15Z" class="g0_250"/>
<path fill-rule="evenodd" d="M521.3,387.3H761.9V372.2H521.3v15.1Z" class="g0_250"/>
<path fill-rule="evenodd" d="M521.3,402.3H761.9v-15H521.3v15Z" class="g0_250"/>
<path fill-rule="evenodd" d="M521.3,417.3H761.9v-15H521.3v15Z" class="g0_250"/>
<path fill-rule="evenodd" d="M521.3,432.4H761.9V417.3H521.3v15.1Z" class="g0_250"/>
<path fill-rule="evenodd" d="M521.3,447.4H761.9v-15H521.3v15Z" class="g0_250"/>
<path fill-rule="evenodd" d="M521.3,462.4H761.9v-15H521.3v15Z" class="g0_250"/>
<path fill-rule="evenodd" d="M521.3,477.5H761.5V462.4H521.3v15.1Z" class="g0_250"/>
<path fill-rule="evenodd" d="M521.3,492.5H761.5v-15H521.3v15Z" class="g0_250"/>
<path fill-rule="evenodd" d="M521.3,507.5H761.5v-15H521.3v15Z" class="g0_250"/>
<path fill-rule="evenodd" d="M521,522.6H761.5V507.5H521v15.1Z" class="g0_250"/>
<path fill-rule="evenodd" d="M521,537.8H761.5V522.6H521v15.2Z" class="g0_250"/>
<path fill-rule="evenodd" d="M521,552.8H761.5v-15H521v15Z" class="g0_250"/>
<path fill-rule="evenodd" d="M521,567.9H761.5V552.8H521v15.1Z" class="g0_250"/>
<path fill-rule="evenodd" d="M521,582.9H761.5v-15H521v15Z" class="g0_250"/>
<path fill-rule="evenodd" d="M521,598H761.5V582.9H521V598Z" class="g0_250"/>
<path fill-rule="evenodd" d="M521,613H761.5V598H521v15Z" class="g0_250"/>
<path fill-rule="evenodd" d="M521.3,628.4H761.9v-15H521.3v15Z" class="g0_250"/>
<path fill-rule="evenodd" d="M521.3,643.4H761.9v-15H521.3v15Z" class="g0_250"/>
<path fill-rule="evenodd" d="M540,658.5H762.3V643.4H540v15.1Z" class="g0_250"/>
<path fill-rule="evenodd" d="M521,673.5H761.2v-15H521v15Z" class="g0_250"/>
<path fill-rule="evenodd" d="M521,688.5H761.2v-15H521v15Z" class="g0_250"/>
<path fill-rule="evenodd" d="M521,703.7H761.2V688.5H521v15.2Z" class="g0_250"/>
<path fill-rule="evenodd" d="M521.3,718.8H761.2V703.7H521.3v15.1Z" class="g0_250"/>
<path fill-rule="evenodd" d="M521.3,733.8H761.2v-15H521.3v15Z" class="g0_250"/>
<path fill-rule="evenodd" d="M521.3,748.8H761.9v-15H521.3v15Z" class="g0_250"/>
<path fill-rule="evenodd" d="M521.3,763.9H761.9V748.8H521.3v15.1Z" class="g0_250"/>
<path fill-rule="evenodd" d="M540,778.9H762.3v-15H540v15Z" class="g0_250"/>
<path fill-rule="evenodd" d="M521,793.9H761.5v-15H521v15Z" class="g0_250"/>
<path fill-rule="evenodd" d="M521,809H761.5V793.9H521V809Z" class="g0_250"/>
<path fill-rule="evenodd" d="M521,824H761.5V809H521v15Z" class="g0_250"/>
<path fill-rule="evenodd" d="M521,839.1H761.5V824H521v15.1Z" class="g0_250"/>
<path fill-rule="evenodd" d="M521,854.1H761.5v-15H521v15Z" class="g0_250"/>
<path fill-rule="evenodd" d="M521.7,869.2H761.5V854.1H521.7v15.1Z" class="g0_250"/>
<path fill-rule="evenodd" d="M521.7,884.4H761.5V869.2H521.7v15.2Z" class="g0_250"/>
<path d="M199.7,158.8V449.5M201.8,95V681.7" class="g1_250"/>
<path d="M511,147.4V915.2" class="g2_250"/>
</svg>