<?xml version="1.0" encoding="UTF-8" standalone="no"?>
<!DOCTYPE svg PUBLIC "-//W3C//DTD SVG 1.1//EN"
"http://www.w3.org/Graphics/SVG/1.1/DTD/svg11.dtd">
<svg viewBox="0 0 909 1285" version="1.1" xmlns="http://www.w3.org/2000/svg" xmlns:xlink="http://www.w3.org/1999/xlink">
<defs>
<style type="text/css"><![CDATA[
.g0_75{
fill: #FFFFFF;
}
.g1_75{
fill: none;
stroke: #000000;
stroke-width: 0.381;
stroke-linecap: butt;
stroke-linejoin: round;
}
.g2_75{
fill: none;
stroke: #000000;
stroke-width: 2.597;
stroke-linecap: butt;
stroke-linejoin: round;
}
.g3_75{
fill: none;
stroke: #000000;
stroke-width: 0.763;
stroke-linecap: butt;
stroke-linejoin: round;
}
]]></style>
</defs>
<path fill-rule="evenodd" d="M262.7,125.8H761.2V110H262.7v15.8Z" class="g0_75"/>
<path fill-rule="evenodd" d="M262.7,161.7H500.4V147.1H262.7v14.6Z" class="g0_75"/>
<path fill-rule="evenodd" d="M262.7,176.4H500.4V161.7H262.7v14.7Z" class="g0_75"/>
<path fill-rule="evenodd" d="M280.8,191.1h238V176.4h-238v14.7Z" class="g0_75"/>
<path fill-rule="evenodd" d="M262,206.3H500.8V191.4H262v14.9Z" class="g0_75"/>
<path fill-rule="evenodd" d="M262,220.9H500.8V206.3H262v14.6Z" class="g0_75"/>
<path fill-rule="evenodd" d="M262,235.6H500.8V220.9H262v14.7Z" class="g0_75"/>
<path fill-rule="evenodd" d="M262,250.3H500.8V235.6H262v14.7Z" class="g0_75"/>
<path fill-rule="evenodd" d="M280.8,264.9h238V250.3h-238v14.6Z" class="g0_75"/>
<path fill-rule="evenodd" d="M262,280H500.4V265.3H262V280Z" class="g0_75"/>
<path fill-rule="evenodd" d="M262,294.6H500.4V280H262v14.6Z" class="g0_75"/>
<path fill-rule="evenodd" d="M262,309.3H500.4V294.6H262v14.7Z" class="g0_75"/>
<path fill-rule="evenodd" d="M262,324H500.4V309.3H262V324Z" class="g0_75"/>
<path fill-rule="evenodd" d="M262,338.6H500.4V324H262v14.6Z" class="g0_75"/>
<path fill-rule="evenodd" d="M280.4,353.4H518.8V338.7H280.4v14.7Z" class="g0_75"/>
<path fill-rule="evenodd" d="M262,368.4H499.7V353.7H262v14.7Z" class="g0_75"/>
<path fill-rule="evenodd" d="M262,383.1H499.7V368.4H262v14.7Z" class="g0_75"/>
<path fill-rule="evenodd" d="M261.6,398.1H500.4V383.4H261.6v14.7Z" class="g0_75"/>
<path fill-rule="evenodd" d="M261.6,412.8H500.4V398.1H261.6v14.7Z" class="g0_75"/>
<path fill-rule="evenodd" d="M261.6,427.4H500.4V412.8H261.6v14.6Z" class="g0_75"/>
<path fill-rule="evenodd" d="M261.6,442.1H500.4V427.4H261.6v14.7Z" class="g0_75"/>
<path fill-rule="evenodd" d="M261.3,456.8H499.7V442.1H261.3v14.7Z" class="g0_75"/>
<path fill-rule="evenodd" d="M261.3,471.4H499.7V456.8H261.3v14.6Z" class="g0_75"/>
<path fill-rule="evenodd" d="M260.9,486.1H500.1V471.4H260.9v14.7Z" class="g0_75"/>
<path fill-rule="evenodd" d="M260.9,500.8H500.1V486.1H260.9v14.7Z" class="g0_75"/>
<path fill-rule="evenodd" d="M260.9,515.4H500.1V500.8H260.9v14.6Z" class="g0_75"/>
<path fill-rule="evenodd" d="M280,530.1H518.8V515.4H280v14.7Z" class="g0_75"/>
<path fill-rule="evenodd" d="M260.9,545.5H499.7V530.8H260.9v14.7Z" class="g0_75"/>
<path fill-rule="evenodd" d="M260.9,560.2H499.7V545.5H260.9v14.7Z" class="g0_75"/>
<path fill-rule="evenodd" d="M260.9,574.8H499.7V560.2H260.9v14.6Z" class="g0_75"/>
<path fill-rule="evenodd" d="M260.9,589.5H499.7V574.8H260.9v14.7Z" class="g0_75"/>
<path fill-rule="evenodd" d="M279.7,604.2H518.8V589.5H279.7v14.7Z" class="g0_75"/>
<path fill-rule="evenodd" d="M261.3,619.2h238V604.6h-238v14.6Z" class="g0_75"/>
<path fill-rule="evenodd" d="M261.3,633.9h238V619.2h-238v14.7Z" class="g0_75"/>
<path fill-rule="evenodd" d="M260.9,648.6H499.7V633.9H260.9v14.7Z" class="g0_75"/>
<path fill-rule="evenodd" d="M260.9,663.2H499.7V648.6H260.9v14.6Z" class="g0_75"/>
<path fill-rule="evenodd" d="M260.9,677.9H499.7V663.2H260.9v14.7Z" class="g0_75"/>
<path fill-rule="evenodd" d="M260.9,692.6H499.7V677.9H260.9v14.7Z" class="g0_75"/>
<path fill-rule="evenodd" d="M279.3,707.6H518.8V692.9H279.3v14.7Z" class="g0_75"/>
<path fill-rule="evenodd" d="M260.2,722.6H499.3V708H260.2v14.6Z" class="g0_75"/>
<path fill-rule="evenodd" d="M260.2,737.3H499.3V722.6H260.2v14.7Z" class="g0_75"/>
<path fill-rule="evenodd" d="M279.3,752H518.8V737.3H279.3V752Z" class="g0_75"/>
<path fill-rule="evenodd" d="M279.3,767H518.8V752H279.3v15Z" class="g0_75"/>
<path fill-rule="evenodd" d="M259.8,781.7H499.3V767H259.8v14.7Z" class="g0_75"/>
<path fill-rule="evenodd" d="M259.8,796.3H499.3V781.7H259.8v14.6Z" class="g0_75"/>
<path fill-rule="evenodd" d="M259.8,811H499.3V796.3H259.8V811Z" class="g0_75"/>
<path fill-rule="evenodd" d="M259.8,825.7H499.3V811H259.8v14.7Z" class="g0_75"/>
<path fill-rule="evenodd" d="M260.5,840.4H499.3V825.7H260.5v14.7Z" class="g0_75"/>
<path fill-rule="evenodd" d="M260.5,855H499.3V840.4H260.5V855Z" class="g0_75"/>
<path fill-rule="evenodd" d="M260.5,869.7H499.3V855H260.5v14.7Z" class="g0_75"/>
<path fill-rule="evenodd" d="M260.2,884.7H499.3V870.1H260.2v14.6Z" class="g0_75"/>
<path fill-rule="evenodd" d="M260.2,899.4H499.3V884.7H260.2v14.7Z" class="g0_75"/>
<path fill-rule="evenodd" d="M259.8,931.7h259V914.1h-259v17.6Z" class="g0_75"/>
<path fill-rule="evenodd" d="M261.3,946.3H518.8V931.7H261.3v14.6Z" class="g0_75"/>
<path fill-rule="evenodd" d="M521.7,161.4H761.2V146.7H521.7v14.7Z" class="g0_75"/>
<path fill-rule="evenodd" d="M521.7,176H761.2V161.4H521.7V176Z" class="g0_75"/>
<path fill-rule="evenodd" d="M521.7,190.7H761.2V176H521.7v14.7Z" class="g0_75"/>
<path fill-rule="evenodd" d="M521.7,205.4H761.2V190.7H521.7v14.7Z" class="g0_75"/>
<path fill-rule="evenodd" d="M521.7,220H760.8V205.4H521.7V220Z" class="g0_75"/>
<path fill-rule="evenodd" d="M521.7,234.7H760.8V220H521.7v14.7Z" class="g0_75"/>
<path fill-rule="evenodd" d="M521.7,249.4H760.8V234.7H521.7v14.7Z" class="g0_75"/>
<path fill-rule="evenodd" d="M521.7,264H760.8V249.4H521.7V264Z" class="g0_75"/>
<path fill-rule="evenodd" d="M521.7,278.7H760.8V264H521.7v14.7Z" class="g0_75"/>
<path fill-rule="evenodd" d="M540,293.4H761.2V278.7H540v14.7Z" class="g0_75"/>
<path fill-rule="evenodd" d="M521.3,308H760.1V293.4H521.3V308Z" class="g0_75"/>
<path fill-rule="evenodd" d="M521.3,322.7H760.1V308H521.3v14.7Z" class="g0_75"/>
<path fill-rule="evenodd" d="M521.3,337.4H760.1V322.7H521.3v14.7Z" class="g0_75"/>
<path fill-rule="evenodd" d="M521.3,352H760.1V337.4H521.3V352Z" class="g0_75"/>
<path fill-rule="evenodd" d="M521.3,366.7H760.1V352H521.3v14.7Z" class="g0_75"/>
<path fill-rule="evenodd" d="M521,382H760.1V367.1H521V382Z" class="g0_75"/>
<path fill-rule="evenodd" d="M521,396.6H760.1V382H521v14.6Z" class="g0_75"/>
<path fill-rule="evenodd" d="M521,411.3H760.1V396.6H521v14.7Z" class="g0_75"/>
<path fill-rule="evenodd" d="M521,426H760.1V411.3H521V426Z" class="g0_75"/>
<path fill-rule="evenodd" d="M520.6,441H760.1V426.3H520.6V441Z" class="g0_75"/>
<path fill-rule="evenodd" d="M520.6,455.7H760.1V441H520.6v14.7Z" class="g0_75"/>
<path fill-rule="evenodd" d="M520.6,470.3H760.1V455.7H520.6v14.6Z" class="g0_75"/>
<path fill-rule="evenodd" d="M520.6,485H760.1V470.3H520.6V485Z" class="g0_75"/>
<path fill-rule="evenodd" d="M520.6,500.4H759.7V485.7H520.6v14.7Z" class="g0_75"/>
<path fill-rule="evenodd" d="M520.6,515.1H759.7V500.4H520.6v14.7Z" class="g0_75"/>
<path fill-rule="evenodd" d="M520.6,529.7H759.7V515.1H520.6v14.6Z" class="g0_75"/>
<path fill-rule="evenodd" d="M520.6,544.4H759.7V529.7H520.6v14.7Z" class="g0_75"/>
<path fill-rule="evenodd" d="M520.6,559.1H759.7V544.4H520.6v14.7Z" class="g0_75"/>
<path fill-rule="evenodd" d="M539.3,574.1H761.2V559.4H539.3v14.7Z" class="g0_75"/>
<path fill-rule="evenodd" d="M520.6,589.1H759.7V574.5H520.6v14.6Z" class="g0_75"/>
<path fill-rule="evenodd" d="M520.6,603.8H759.7V589.1H520.6v14.7Z" class="g0_75"/>
<path fill-rule="evenodd" d="M520.6,618.5H759.7V603.8H520.6v14.7Z" class="g0_75"/>
<path fill-rule="evenodd" d="M520.6,633.2H759.7V618.5H520.6v14.7Z" class="g0_75"/>
<path fill-rule="evenodd" d="M520.6,647.8H759.3V633.2H520.6v14.6Z" class="g0_75"/>
<path fill-rule="evenodd" d="M520.6,662.5H759.3V647.8H520.6v14.7Z" class="g0_75"/>
<path fill-rule="evenodd" d="M520.6,677.2H759.3V662.5H520.6v14.7Z" class="g0_75"/>
<path fill-rule="evenodd" d="M520.6,691.8H759V677.2H520.6v14.6Z" class="g0_75"/>
<path fill-rule="evenodd" d="M520.6,706.5H759V691.8H520.6v14.7Z" class="g0_75"/>
<path fill-rule="evenodd" d="M520.2,721.2H759.3V706.5H520.2v14.7Z" class="g0_75"/>
<path fill-rule="evenodd" d="M520.2,735.8H759.3V721.2H520.2v14.6Z" class="g0_75"/>
<path fill-rule="evenodd" d="M520.2,750.5H759.3V735.8H520.2v14.7Z" class="g0_75"/>
<path fill-rule="evenodd" d="M520.2,765.2H759.3V750.5H520.2v14.7Z" class="g0_75"/>
<path fill-rule="evenodd" d="M520.2,779.8H759.3V765.2H520.2v14.6Z" class="g0_75"/>
<path fill-rule="evenodd" d="M520.2,794.5H759.3V779.8H520.2v14.7Z" class="g0_75"/>
<path fill-rule="evenodd" d="M520.2,809.2H759.3V794.5H520.2v14.7Z" class="g0_75"/>
<path fill-rule="evenodd" d="M520.2,823.8H759.3V809.2H520.2v14.6Z" class="g0_75"/>
<path fill-rule="evenodd" d="M520.2,838.5H759.3V823.8H520.2v14.7Z" class="g0_75"/>
<path fill-rule="evenodd" d="M520.2,853.2H759.3V838.5H520.2v14.7Z" class="g0_75"/>
<path fill-rule="evenodd" d="M520.2,867.9H759.3V853.2H520.2v14.7Z" class="g0_75"/>
<path fill-rule="evenodd" d="M520.2,882.5H759.3V867.9H520.2v14.6Z" class="g0_75"/>
<path fill-rule="evenodd" d="M520.2,897.2H759.3V882.5H520.2v14.7Z" class="g0_75"/>
<path d="M203,86.5V587.8" class="g1_75"/>
<path d="M181.3,420.7V992.3" class="g2_75"/>
<path d="M190.9,656.8v71.9m0,-197V865.8M202.6,766v67.1" class="g1_75"/>
<path d="M202.6,823.6v172" class="g3_75"/>
<path d="M203.3,332.7V995.6" class="g1_75"/>
</svg>