<?xml version="1.0" encoding="UTF-8" standalone="no"?>
<!DOCTYPE svg PUBLIC "-//W3C//DTD SVG 1.1//EN"
"http://www.w3.org/Graphics/SVG/1.1/DTD/svg11.dtd">
<svg viewBox="0 0 909 1285" version="1.1" xmlns="http://www.w3.org/2000/svg" xmlns:xlink="http://www.w3.org/1999/xlink">
<defs>
<style type="text/css"><![CDATA[
.g0_198{
fill: #FFFFFF;
}
.g1_198{
fill: none;
stroke: #000000;
stroke-width: 3.284;
stroke-linecap: butt;
stroke-linejoin: round;
}
.g2_198{
fill: none;
stroke: #000000;
stroke-width: 0.381;
stroke-linecap: butt;
stroke-linejoin: round;
}
]]></style>
</defs>
<path fill-rule="evenodd" d="M267.9,125.8H768.1V110H267.9v15.8Z" class="g0_198"/>
<path fill-rule="evenodd" d="M267.1,161.4H507V146.3H267.1v15.1Z" class="g0_198"/>
<path fill-rule="evenodd" d="M267.1,176.4H507v-15H267.1v15Z" class="g0_198"/>
<path fill-rule="evenodd" d="M267.1,191.6h241V176.4h-241v15.2Z" class="g0_198"/>
<path fill-rule="evenodd" d="M267.1,206.6h241v-15h-241v15Z" class="g0_198"/>
<path fill-rule="evenodd" d="M267.1,221.7h241V206.6h-241v15.1Z" class="g0_198"/>
<path fill-rule="evenodd" d="M267.1,236.7h241v-15h-241v15Z" class="g0_198"/>
<path fill-rule="evenodd" d="M267.1,251.7h241v-15h-241v15Z" class="g0_198"/>
<path fill-rule="evenodd" d="M267.1,266.8h241V251.7h-241v15.1Z" class="g0_198"/>
<path fill-rule="evenodd" d="M285.9,281.8H508.1v-15H285.9v15Z" class="g0_198"/>
<path fill-rule="evenodd" d="M266.8,296.8H508.1v-15H266.8v15Z" class="g0_198"/>
<path fill-rule="evenodd" d="M266.8,311.9H508.1V296.8H266.8v15.1Z" class="g0_198"/>
<path fill-rule="evenodd" d="M266.8,326.9H508.1v-15H266.8v15Z" class="g0_198"/>
<path fill-rule="evenodd" d="M266.8,341.9H508.1v-15H266.8v15Z" class="g0_198"/>
<path fill-rule="evenodd" d="M267.6,357.2H507V342H267.6v15.2Z" class="g0_198"/>
<path fill-rule="evenodd" d="M267.6,372.2H507v-15H267.6v15Z" class="g0_198"/>
<path fill-rule="evenodd" d="M266.8,387.3H507V372.2H266.8v15.1Z" class="g0_198"/>
<path fill-rule="evenodd" d="M266.8,402.3H507v-15H266.8v15Z" class="g0_198"/>
<path fill-rule="evenodd" d="M267.6,417.3H507v-15H267.6v15Z" class="g0_198"/>
<path fill-rule="evenodd" d="M267.6,432.4H507V417.3H267.6v15.1Z" class="g0_198"/>
<path fill-rule="evenodd" d="M267.1,447.4H506.7v-15H267.1v15Z" class="g0_198"/>
<path fill-rule="evenodd" d="M267.1,462.4H506.7v-15H267.1v15Z" class="g0_198"/>
<path fill-rule="evenodd" d="M266.8,477.5H506.7V462.4H266.8v15.1Z" class="g0_198"/>
<path fill-rule="evenodd" d="M266.8,492.5H506.7v-15H266.8v15Z" class="g0_198"/>
<path fill-rule="evenodd" d="M266.8,507.5H506.3v-15H266.8v15Z" class="g0_198"/>
<path fill-rule="evenodd" d="M266.8,522.6H506.3V507.5H266.8v15.1Z" class="g0_198"/>
<path fill-rule="evenodd" d="M266.8,537.8H506.7V522.6H266.8v15.2Z" class="g0_198"/>
<path fill-rule="evenodd" d="M266.8,552.8H506.7v-15H266.8v15Z" class="g0_198"/>
<path fill-rule="evenodd" d="M266.4,567.9H506.7V552.8H266.4v15.1Z" class="g0_198"/>
<path fill-rule="evenodd" d="M266.4,582.9H506.7v-15H266.4v15Z" class="g0_198"/>
<path fill-rule="evenodd" d="M266.4,598H506.7V582.9H266.4V598Z" class="g0_198"/>
<path fill-rule="evenodd" d="M266,613H506.3V598H266v15Z" class="g0_198"/>
<path fill-rule="evenodd" d="M266,628H506.3V613H266v15Z" class="g0_198"/>
<path fill-rule="evenodd" d="M266,643.1H506.3V628H266v15.1Z" class="g0_198"/>
<path fill-rule="evenodd" d="M266.4,658.1H506.7v-15H266.4v15Z" class="g0_198"/>
<path fill-rule="evenodd" d="M266.4,673.1H506.7v-15H266.4v15Z" class="g0_198"/>
<path fill-rule="evenodd" d="M266.4,688.2H506.7V673.1H266.4v15.1Z" class="g0_198"/>
<path fill-rule="evenodd" d="M266.4,703.2H506.7v-15H266.4v15Z" class="g0_198"/>
<path fill-rule="evenodd" d="M266.4,718.4H506.7V703.2H266.4v15.2Z" class="g0_198"/>
<path fill-rule="evenodd" d="M266.4,733.4H506.7v-15H266.4v15Z" class="g0_198"/>
<path fill-rule="evenodd" d="M284.8,748.5H508.1V733.4H284.8v15.1Z" class="g0_198"/>
<path fill-rule="evenodd" d="M284.8,763.5H508.1v-15H284.8v15Z" class="g0_198"/>
<path fill-rule="evenodd" d="M265.7,778.5h241v-15h-241v15Z" class="g0_198"/>
<path fill-rule="evenodd" d="M265.7,793.6h241V778.5h-241v15.1Z" class="g0_198"/>
<path fill-rule="evenodd" d="M265.7,808.6h241v-15h-241v15Z" class="g0_198"/>
<path fill-rule="evenodd" d="M266,824H505.6V809H266v15Z" class="g0_198"/>
<path fill-rule="evenodd" d="M266,839.1H505.6V824H266v15.1Z" class="g0_198"/>
<path fill-rule="evenodd" d="M266,854.1H505.9v-15H266v15Z" class="g0_198"/>
<path fill-rule="evenodd" d="M266,869.2H505.9V854.1H266v15.1Z" class="g0_198"/>
<path fill-rule="evenodd" d="M265.7,884.4H506.3V869.2H265.7v15.2Z" class="g0_198"/>
<path fill-rule="evenodd" d="M265.7,899.4H506.3v-15H265.7v15Z" class="g0_198"/>
<path fill-rule="evenodd" d="M267.1,914.4h241v-15h-241v15Z" class="g0_198"/>
<path fill-rule="evenodd" d="M527.9,161.4H768.1V146.3H527.9v15.1Z" class="g0_198"/>
<path fill-rule="evenodd" d="M527.9,176.4H768.1v-15H527.9v15Z" class="g0_198"/>
<path fill-rule="evenodd" d="M527.9,191.6H767.4V176.4H527.9v15.2Z" class="g0_198"/>
<path fill-rule="evenodd" d="M527.9,206.6H767.4v-15H527.9v15Z" class="g0_198"/>
<path fill-rule="evenodd" d="M527.9,221.7H767.4V206.6H527.9v15.1Z" class="g0_198"/>
<path fill-rule="evenodd" d="M527.9,236.7H767.4v-15H527.9v15Z" class="g0_198"/>
<path fill-rule="evenodd" d="M527.9,251.7H767.4v-15H527.9v15Z" class="g0_198"/>
<path fill-rule="evenodd" d="M527.6,267.1H767.4v-15H527.6v15Z" class="g0_198"/>
<path fill-rule="evenodd" d="M527.6,282.2H767.4V267.1H527.6v15.1Z" class="g0_198"/>
<path fill-rule="evenodd" d="M546.3,297.6H768.1V282.5H546.3v15.1Z" class="g0_198"/>
<path fill-rule="evenodd" d="M546.3,312.6H768.1v-15H546.3v15Z" class="g0_198"/>
<path fill-rule="evenodd" d="M545.9,327.8H768.1V312.6H545.9v15.2Z" class="g0_198"/>
<path fill-rule="evenodd" d="M527.2,342.9H767.4V327.8H527.2v15.1Z" class="g0_198"/>
<path fill-rule="evenodd" d="M527.2,357.9H767.4v-15H527.2v15Z" class="g0_198"/>
<path fill-rule="evenodd" d="M526.8,373h241V357.9h-241V373Z" class="g0_198"/>
<path fill-rule="evenodd" d="M526.8,388h241V373h-241v15Z" class="g0_198"/>
<path fill-rule="evenodd" d="M526.8,403h241V388h-241v15Z" class="g0_198"/>
<path fill-rule="evenodd" d="M526.8,418.1h241V403h-241v15.1Z" class="g0_198"/>
<path fill-rule="evenodd" d="M526.8,433.1H767.4v-15H526.8v15Z" class="g0_198"/>
<path fill-rule="evenodd" d="M526.8,448.1H767.4v-15H526.8v15Z" class="g0_198"/>
<path fill-rule="evenodd" d="M526.8,463.2H767.4V448.1H526.8v15.1Z" class="g0_198"/>
<path fill-rule="evenodd" d="M526.8,478.2H767.4v-15H526.8v15Z" class="g0_198"/>
<path fill-rule="evenodd" d="M526.8,493.2H767v-15H526.8v15Z" class="g0_198"/>
<path fill-rule="evenodd" d="M526.8,508.5H767V493.2H526.8v15.3Z" class="g0_198"/>
<path fill-rule="evenodd" d="M526.8,523.5h241v-15h-241v15Z" class="g0_198"/>
<path fill-rule="evenodd" d="M526.8,538.5h241v-15h-241v15Z" class="g0_198"/>
<path fill-rule="evenodd" d="M545.2,553.6H768.1V538.5H545.2v15.1Z" class="g0_198"/>
<path fill-rule="evenodd" d="M526.8,568.6H767.4v-15H526.8v15Z" class="g0_198"/>
<path fill-rule="evenodd" d="M526.8,583.6H767.4v-15H526.8v15Z" class="g0_198"/>
<path fill-rule="evenodd" d="M526.8,598.7H767.4V583.6H526.8v15.1Z" class="g0_198"/>
<path fill-rule="evenodd" d="M526.8,613.7H767.4v-15H526.8v15Z" class="g0_198"/>
<path fill-rule="evenodd" d="M526.8,628.8H767.4V613.7H526.8v15.1Z" class="g0_198"/>
<path fill-rule="evenodd" d="M526.8,643.8H767.4v-15H526.8v15Z" class="g0_198"/>
<path fill-rule="evenodd" d="M545.2,658.8H768.1v-15H545.2v15Z" class="g0_198"/>
<path fill-rule="evenodd" d="M544.8,673.9H768.1V658.8H544.8v15.1Z" class="g0_198"/>
<path fill-rule="evenodd" d="M526.8,689.1H766.3V673.9H526.8v15.2Z" class="g0_198"/>
<path fill-rule="evenodd" d="M526.8,704.1H766.3v-15H526.8v15Z" class="g0_198"/>
<path fill-rule="evenodd" d="M526.8,719.1H766.3v-15H526.8v15Z" class="g0_198"/>
<path fill-rule="evenodd" d="M526.5,734.2H766.3V719.1H526.5v15.1Z" class="g0_198"/>
<path fill-rule="evenodd" d="M526.5,749.2H766.3v-15H526.5v15Z" class="g0_198"/>
<path fill-rule="evenodd" d="M526.8,764.2H766.7v-15H526.8v15Z" class="g0_198"/>
<path fill-rule="evenodd" d="M526.8,779.3H766.7V764.2H526.8v15.1Z" class="g0_198"/>
<path fill-rule="evenodd" d="M526.5,794.3H766.7v-15H526.5v15Z" class="g0_198"/>
<path fill-rule="evenodd" d="M526.5,809.3H766.7v-15H526.5v15Z" class="g0_198"/>
<path fill-rule="evenodd" d="M526.5,824.4H765.9V809.3H526.5v15.1Z" class="g0_198"/>
<path fill-rule="evenodd" d="M526.5,839.5H765.9V824.4H526.5v15.1Z" class="g0_198"/>
<path fill-rule="evenodd" d="M526.5,854.5H765.9v-15H526.5v15Z" class="g0_198"/>
<path fill-rule="evenodd" d="M526.5,869.7H765.9V854.5H526.5v15.2Z" class="g0_198"/>
<path fill-rule="evenodd" d="M527.6,884.7H767v-15H527.6v15Z" class="g0_198"/>
<path fill-rule="evenodd" d="M527.6,899.8H767V884.7H527.6v15.1Z" class="g0_198"/>
<path fill-rule="evenodd" d="M502.6,931.5H768.1V914.1H502.6v17.4Z" class="g0_198"/>
<path d="M184.2,364.1V547.5" class="g1_198"/>
<path d="M201.4,428.7V490M211,102V997M516.1,147.8V916.7" class="g2_198"/>
</svg>