<?xml version="1.0" encoding="UTF-8" standalone="no"?>
<!DOCTYPE svg PUBLIC "-//W3C//DTD SVG 1.1//EN"
"http://www.w3.org/Graphics/SVG/1.1/DTD/svg11.dtd">
<svg viewBox="0 0 909 1285" version="1.1" xmlns="http://www.w3.org/2000/svg" xmlns:xlink="http://www.w3.org/1999/xlink">
<defs>
<style type="text/css"><![CDATA[
.g0_183{
fill: #FFFFFF;
}
.g1_183{
fill: none;
stroke: #000000;
stroke-width: 0.381;
stroke-linecap: butt;
stroke-linejoin: round;
}
]]></style>
</defs>
<path fill-rule="evenodd" d="M271.8,125.8H772V110H271.8v15.8Z" class="g0_183"/>
<path fill-rule="evenodd" d="M271.8,161.7H511.6v-15H271.8v15Z" class="g0_183"/>
<path fill-rule="evenodd" d="M271.4,176.9H511.6V161.7H271.4v15.2Z" class="g0_183"/>
<path fill-rule="evenodd" d="M271.4,192H511.6V176.9H271.4V192Z" class="g0_183"/>
<path fill-rule="evenodd" d="M271.4,207H511.6V192H271.4v15Z" class="g0_183"/>
<path fill-rule="evenodd" d="M271.4,222H511.6V207H271.4v15Z" class="g0_183"/>
<path fill-rule="evenodd" d="M272.1,237.1H510.9V222H272.1v15.1Z" class="g0_183"/>
<path fill-rule="evenodd" d="M272.1,252.1H510.9v-15H272.1v15Z" class="g0_183"/>
<path fill-rule="evenodd" d="M271.8,267.1H511.2v-15H271.8v15Z" class="g0_183"/>
<path fill-rule="evenodd" d="M271.8,282.2H511.2V267.1H271.8v15.1Z" class="g0_183"/>
<path fill-rule="evenodd" d="M271.4,297.2H511.6v-15H271.4v15Z" class="g0_183"/>
<path fill-rule="evenodd" d="M271.4,312.2H511.6v-15H271.4v15Z" class="g0_183"/>
<path fill-rule="evenodd" d="M271.4,327.3H511.6V312.2H271.4v15.1Z" class="g0_183"/>
<path fill-rule="evenodd" d="M290.1,342.5H511.6V327.3H290.1v15.2Z" class="g0_183"/>
<path fill-rule="evenodd" d="M271.8,357.6H511.6V342.5H271.8v15.1Z" class="g0_183"/>
<path fill-rule="evenodd" d="M271.8,372.6H511.6v-15H271.8v15Z" class="g0_183"/>
<path fill-rule="evenodd" d="M271.8,387.6H511.6v-15H271.8v15Z" class="g0_183"/>
<path fill-rule="evenodd" d="M271,402.7H510.9V387.6H271v15.1Z" class="g0_183"/>
<path fill-rule="evenodd" d="M271,417.7H510.9v-15H271v15Z" class="g0_183"/>
<path fill-rule="evenodd" d="M271.4,432.7H510.9v-15H271.4v15Z" class="g0_183"/>
<path fill-rule="evenodd" d="M271.4,447.8H510.9V432.7H271.4v15.1Z" class="g0_183"/>
<path fill-rule="evenodd" d="M271.4,462.8H510.9v-15H271.4v15Z" class="g0_183"/>
<path fill-rule="evenodd" d="M271.4,477.8H510.9v-15H271.4v15Z" class="g0_183"/>
<path fill-rule="evenodd" d="M271,492.9H510.5V477.8H271v15.1Z" class="g0_183"/>
<path fill-rule="evenodd" d="M271,507.9H510.5v-15H271v15Z" class="g0_183"/>
<path fill-rule="evenodd" d="M290.1,523.1H511.6V507.9H290.1v15.2Z" class="g0_183"/>
<path fill-rule="evenodd" d="M289.7,538.2H511.6V523.1H289.7v15.1Z" class="g0_183"/>
<path fill-rule="evenodd" d="M271,553.2H510.9v-15H271v15Z" class="g0_183"/>
<path fill-rule="evenodd" d="M271,568.2H510.9v-15H271v15Z" class="g0_183"/>
<path fill-rule="evenodd" d="M271,583.3H510.9V568.2H271v15.1Z" class="g0_183"/>
<path fill-rule="evenodd" d="M271.4,598.3H511.6v-15H271.4v15Z" class="g0_183"/>
<path fill-rule="evenodd" d="M271.4,613.4H511.6V598.3H271.4v15.1Z" class="g0_183"/>
<path fill-rule="evenodd" d="M271.4,628.4H511.6v-15H271.4v15Z" class="g0_183"/>
<path fill-rule="evenodd" d="M271,643.4H511.2v-15H271v15Z" class="g0_183"/>
<path fill-rule="evenodd" d="M271,658.5H511.2V643.4H271v15.1Z" class="g0_183"/>
<path fill-rule="evenodd" d="M271,673.5H511.2v-15H271v15Z" class="g0_183"/>
<path fill-rule="evenodd" d="M271,688.5H511.2v-15H271v15Z" class="g0_183"/>
<path fill-rule="evenodd" d="M271,703.7H510.9V688.5H271v15.2Z" class="g0_183"/>
<path fill-rule="evenodd" d="M271,718.8H510.9V703.7H271v15.1Z" class="g0_183"/>
<path fill-rule="evenodd" d="M271,734.2H510.5V719.1H271v15.1Z" class="g0_183"/>
<path fill-rule="evenodd" d="M271,749.2H510.5v-15H271v15Z" class="g0_183"/>
<path fill-rule="evenodd" d="M270.7,764.2H511.6v-15H270.7v15Z" class="g0_183"/>
<path fill-rule="evenodd" d="M270.7,779.3H511.6V764.2H270.7v15.1Z" class="g0_183"/>
<path fill-rule="evenodd" d="M270.7,794.3H511.6v-15H270.7v15Z" class="g0_183"/>
<path fill-rule="evenodd" d="M270.7,809.3H511.6v-15H270.7v15Z" class="g0_183"/>
<path fill-rule="evenodd" d="M270.7,824.4H511.6V809.3H270.7v15.1Z" class="g0_183"/>
<path fill-rule="evenodd" d="M270.7,839.5H511.6V824.4H270.7v15.1Z" class="g0_183"/>
<path fill-rule="evenodd" d="M270.7,854.5H511.6v-15H270.7v15Z" class="g0_183"/>
<path fill-rule="evenodd" d="M270.7,869.7H511.6V854.5H270.7v15.2Z" class="g0_183"/>
<path fill-rule="evenodd" d="M270.7,884.7H511.6v-15H270.7v15Z" class="g0_183"/>
<path fill-rule="evenodd" d="M270.7,899.8H511.6V884.7H270.7v15.1Z" class="g0_183"/>
<path fill-rule="evenodd" d="M271.4,914.8H511.6v-15H271.4v15Z" class="g0_183"/>
<path fill-rule="evenodd" d="M531.8,161.4H772V146.3H531.8v15.1Z" class="g0_183"/>
<path fill-rule="evenodd" d="M532.1,176.4H772v-15H532.1v15Z" class="g0_183"/>
<path fill-rule="evenodd" d="M531.8,191.6H772V176.4H531.8v15.2Z" class="g0_183"/>
<path fill-rule="evenodd" d="M532.1,206.6H772v-15H532.1v15Z" class="g0_183"/>
<path fill-rule="evenodd" d="M531.8,221.7H772V206.6H531.8v15.1Z" class="g0_183"/>
<path fill-rule="evenodd" d="M531.8,236.7H772v-15H531.8v15Z" class="g0_183"/>
<path fill-rule="evenodd" d="M531.8,251.7H772v-15H531.8v15Z" class="g0_183"/>
<path fill-rule="evenodd" d="M531.8,266.8H772V251.7H531.8v15.1Z" class="g0_183"/>
<path fill-rule="evenodd" d="M531.8,281.8H772v-15H531.8v15Z" class="g0_183"/>
<path fill-rule="evenodd" d="M531.8,296.8H772v-15H531.8v15Z" class="g0_183"/>
<path fill-rule="evenodd" d="M532.1,311.9H771.2V296.8H532.1v15.1Z" class="g0_183"/>
<path fill-rule="evenodd" d="M532.1,326.9H771.2v-15H532.1v15Z" class="g0_183"/>
<path fill-rule="evenodd" d="M532.1,341.9H771.6v-15H532.1v15Z" class="g0_183"/>
<path fill-rule="evenodd" d="M532.1,357.2H771.6V342H532.1v15.2Z" class="g0_183"/>
<path fill-rule="evenodd" d="M532.1,372.6H771.6V357.2H532.1v15.4Z" class="g0_183"/>
<path fill-rule="evenodd" d="M532.1,387.6H771.6v-15H532.1v15Z" class="g0_183"/>
<path fill-rule="evenodd" d="M531.8,402.7H771.2V387.6H531.8v15.1Z" class="g0_183"/>
<path fill-rule="evenodd" d="M531.8,417.7H771.2v-15H531.8v15Z" class="g0_183"/>
<path fill-rule="evenodd" d="M550.1,432.7H772v-15H550.1v15Z" class="g0_183"/>
<path fill-rule="evenodd" d="M531.8,447.8H771.6V432.7H531.8v15.1Z" class="g0_183"/>
<path fill-rule="evenodd" d="M531.8,462.8H771.6v-15H531.8v15Z" class="g0_183"/>
<path fill-rule="evenodd" d="M531.8,477.8H771.6v-15H531.8v15Z" class="g0_183"/>
<path fill-rule="evenodd" d="M531.4,492.9H772V477.8H531.4v15.1Z" class="g0_183"/>
<path fill-rule="evenodd" d="M531.4,507.9H772v-15H531.4v15Z" class="g0_183"/>
<path fill-rule="evenodd" d="M531.4,523.1H772V507.9H531.4v15.2Z" class="g0_183"/>
<path fill-rule="evenodd" d="M531.4,538.2H772V523.1H531.4v15.1Z" class="g0_183"/>
<path fill-rule="evenodd" d="M531.4,553.2H772v-15H531.4v15Z" class="g0_183"/>
<path fill-rule="evenodd" d="M531.4,568.6H771.6v-15H531.4v15Z" class="g0_183"/>
<path fill-rule="evenodd" d="M531.4,583.6H771.6v-15H531.4v15Z" class="g0_183"/>
<path fill-rule="evenodd" d="M549.7,598.7H772V583.6H549.7v15.1Z" class="g0_183"/>
<path fill-rule="evenodd" d="M531,614.1H771.2v-15H531v15Z" class="g0_183"/>
<path fill-rule="evenodd" d="M531,629.1H771.2v-15H531v15Z" class="g0_183"/>
<path fill-rule="evenodd" d="M531.4,644.2H770.9V629.1H531.4v15.1Z" class="g0_183"/>
<path fill-rule="evenodd" d="M531.4,659.2H770.9v-15H531.4v15Z" class="g0_183"/>
<path fill-rule="evenodd" d="M531.4,674.4H771.2V659.2H531.4v15.2Z" class="g0_183"/>
<path fill-rule="evenodd" d="M531.4,689.4H771.2v-15H531.4v15Z" class="g0_183"/>
<path fill-rule="evenodd" d="M549.7,704.5H772V689.4H549.7v15.1Z" class="g0_183"/>
<path fill-rule="evenodd" d="M531,719.5H771.2v-15H531v15Z" class="g0_183"/>
<path fill-rule="evenodd" d="M531,734.5H771.2v-15H531v15Z" class="g0_183"/>
<path fill-rule="evenodd" d="M531,749.6H771.6V734.5H531v15.1Z" class="g0_183"/>
<path fill-rule="evenodd" d="M531,764.6H771.6v-15H531v15Z" class="g0_183"/>
<path fill-rule="evenodd" d="M531,779.6H770.9v-15H531v15Z" class="g0_183"/>
<path fill-rule="evenodd" d="M531,794.7H770.9V779.6H531v15.1Z" class="g0_183"/>
<path fill-rule="evenodd" d="M531,809.7H771.2v-15H531v15Z" class="g0_183"/>
<path fill-rule="evenodd" d="M531,824.7H771.2v-15H531v15Z" class="g0_183"/>
<path fill-rule="evenodd" d="M531,839.8H771.2V824.7H531v15.1Z" class="g0_183"/>
<path fill-rule="evenodd" d="M531,855H771.2V839.8H531V855Z" class="g0_183"/>
<path fill-rule="evenodd" d="M531,870.1H771.2V855H531v15.1Z" class="g0_183"/>
<path fill-rule="evenodd" d="M531,885.1H771.2v-15H531v15Z" class="g0_183"/>
<path fill-rule="evenodd" d="M531,900.1H771.2v-15H531v15Z" class="g0_183"/>
<path fill-rule="evenodd" d="M509,932.4H772V914.8H509v17.6Z" class="g0_183"/>
<path d="M208.2,146.4V996.6m3.3,-906v906M520.7,147.4v769" class="g1_183"/>
</svg>