<?xml version="1.0" encoding="UTF-8" standalone="no"?>
<!DOCTYPE svg PUBLIC "-//W3C//DTD SVG 1.1//EN"
"http://www.w3.org/Graphics/SVG/1.1/DTD/svg11.dtd">
<svg viewBox="0 0 909 1285" version="1.1" xmlns="http://www.w3.org/2000/svg" xmlns:xlink="http://www.w3.org/1999/xlink">
<defs>
<style type="text/css"><![CDATA[
.g0_257{
fill: #FFFFFF;
}
.g1_257{
fill: none;
stroke: #000000;
stroke-width: 0.381;
stroke-linecap: butt;
stroke-linejoin: round;
}
.g2_257{
fill: none;
stroke: #000000;
stroke-width: 1.069;
stroke-linecap: butt;
stroke-linejoin: round;
}
.g3_257{
fill: none;
stroke: #000000;
stroke-width: 4.048;
stroke-linecap: butt;
stroke-linejoin: round;
}
]]></style>
</defs>
<path fill-rule="evenodd" d="M265.3,125.8H764.5V110H265.3v15.8Z" class="g0_257"/>
<path fill-rule="evenodd" d="M264.6,161.7H504.1v-15H264.6v15Z" class="g0_257"/>
<path fill-rule="evenodd" d="M264.6,176.9H504.1V161.7H264.6v15.2Z" class="g0_257"/>
<path fill-rule="evenodd" d="M264.6,192H504.1V176.9H264.6V192Z" class="g0_257"/>
<path fill-rule="evenodd" d="M264.6,207H504.1V192H264.6v15Z" class="g0_257"/>
<path fill-rule="evenodd" d="M263.8,222H504.5V207H263.8v15Z" class="g0_257"/>
<path fill-rule="evenodd" d="M263.8,237.1H504.5V222H263.8v15.1Z" class="g0_257"/>
<path fill-rule="evenodd" d="M263.8,252.1H504.5v-15H263.8v15Z" class="g0_257"/>
<path fill-rule="evenodd" d="M263.8,267.1H504.5v-15H263.8v15Z" class="g0_257"/>
<path fill-rule="evenodd" d="M264.6,282.2H503.7V267.1H264.6v15.1Z" class="g0_257"/>
<path fill-rule="evenodd" d="M264.6,297.2H503.7v-15H264.6v15Z" class="g0_257"/>
<path fill-rule="evenodd" d="M263.8,312.2H504.1v-15H263.8v15Z" class="g0_257"/>
<path fill-rule="evenodd" d="M263.8,327.3H504.1V312.2H263.8v15.1Z" class="g0_257"/>
<path fill-rule="evenodd" d="M263.8,342.5H504.1V327.3H263.8v15.2Z" class="g0_257"/>
<path fill-rule="evenodd" d="M263.8,357.6H504.1V342.5H263.8v15.1Z" class="g0_257"/>
<path fill-rule="evenodd" d="M264.2,372.6H504.1v-15H264.2v15Z" class="g0_257"/>
<path fill-rule="evenodd" d="M282.6,387.6H504.5v-15H282.6v15Z" class="g0_257"/>
<path fill-rule="evenodd" d="M263.8,402.7H503.7V387.6H263.8v15.1Z" class="g0_257"/>
<path fill-rule="evenodd" d="M263.8,417.7H503.7v-15H263.8v15Z" class="g0_257"/>
<path fill-rule="evenodd" d="M264.6,432.7H504.5v-15H264.6v15Z" class="g0_257"/>
<path fill-rule="evenodd" d="M525,165H764.5V150H525v15Z" class="g0_257"/>
<path fill-rule="evenodd" d="M525,180.1H764.5V165H525v15.1Z" class="g0_257"/>
<path fill-rule="evenodd" d="M524.3,195.3H764.1V180.1H524.3v15.2Z" class="g0_257"/>
<path fill-rule="evenodd" d="M524.3,210.3H764.1v-15H524.3v15Z" class="g0_257"/>
<path fill-rule="evenodd" d="M524.6,225.3H764.1v-15H524.6v15Z" class="g0_257"/>
<path fill-rule="evenodd" d="M524.6,240.4H764.1V225.3H524.6v15.1Z" class="g0_257"/>
<path fill-rule="evenodd" d="M525,255.8H764.5V240.7H525v15.1Z" class="g0_257"/>
<path fill-rule="evenodd" d="M525,270.8H764.5v-15H525v15Z" class="g0_257"/>
<path fill-rule="evenodd" d="M524.6,285.8H764.5v-15H524.6v15Z" class="g0_257"/>
<path fill-rule="evenodd" d="M524.6,300.9H764.5V285.8H524.6v15.1Z" class="g0_257"/>
<path fill-rule="evenodd" d="M524.6,315.9H764.5v-15H524.6v15Z" class="g0_257"/>
<path fill-rule="evenodd" d="M524.6,330.9H764.5v-15H524.6v15Z" class="g0_257"/>
<path fill-rule="evenodd" d="M524.3,346.2H764.5V330.9H524.3v15.3Z" class="g0_257"/>
<path fill-rule="evenodd" d="M524.3,361.2H764.5v-15H524.3v15Z" class="g0_257"/>
<path fill-rule="evenodd" d="M524.3,376.3H764.5V361.2H524.3v15.1Z" class="g0_257"/>
<path fill-rule="evenodd" d="M524.3,391.3H764.5v-15H524.3v15Z" class="g0_257"/>
<path fill-rule="evenodd" d="M524.3,406.3H764.5v-15H524.3v15Z" class="g0_257"/>
<path fill-rule="evenodd" d="M524.3,421.4H764.5V406.3H524.3v15.1Z" class="g0_257"/>
<path fill-rule="evenodd" d="M524.3,436.4H764.5v-15H524.3v15Z" class="g0_257"/>
<path fill-rule="evenodd" d="M500.8,502.4H764.5V477.5H500.8v24.9Z" class="g0_257"/>
<path fill-rule="evenodd" d="M263.8,540.2H503V525.1H263.8v15.1Z" class="g0_257"/>
<path fill-rule="evenodd" d="M263.8,555.2H503v-15H263.8v15Z" class="g0_257"/>
<path fill-rule="evenodd" d="M263.5,570.2H503.4v-15H263.5v15Z" class="g0_257"/>
<path fill-rule="evenodd" d="M263.5,585.5H503.4V570.2H263.5v15.3Z" class="g0_257"/>
<path fill-rule="evenodd" d="M263.5,600.5H503.4v-15H263.5v15Z" class="g0_257"/>
<path fill-rule="evenodd" d="M263.5,615.6H503V600.5H263.5v15.1Z" class="g0_257"/>
<path fill-rule="evenodd" d="M263.5,630.6H503v-15H263.5v15Z" class="g0_257"/>
<path fill-rule="evenodd" d="M263.5,645.6H503v-15H263.5v15Z" class="g0_257"/>
<path fill-rule="evenodd" d="M263.5,660.7H503V645.6H263.5v15.1Z" class="g0_257"/>
<path fill-rule="evenodd" d="M263.5,675.7H503v-15H263.5v15Z" class="g0_257"/>
<path fill-rule="evenodd" d="M263.5,690.7H503v-15H263.5v15Z" class="g0_257"/>
<path fill-rule="evenodd" d="M263.5,706.1H502.6v-15H263.5v15Z" class="g0_257"/>
<path fill-rule="evenodd" d="M263.5,721.2H502.6V706.1H263.5v15.1Z" class="g0_257"/>
<path fill-rule="evenodd" d="M281.5,736.2H503.4v-15H281.5v15Z" class="g0_257"/>
<path fill-rule="evenodd" d="M263.5,751.8H502.6V736.6H263.5v15.2Z" class="g0_257"/>
<path fill-rule="evenodd" d="M263.5,766.8H502.6v-15H263.5v15Z" class="g0_257"/>
<path fill-rule="evenodd" d="M263.1,781.8H502.6v-15H263.1v15Z" class="g0_257"/>
<path fill-rule="evenodd" d="M263.1,796.9H502.6V781.8H263.1v15.1Z" class="g0_257"/>
<path fill-rule="evenodd" d="M263.1,811.9H502.6v-15H263.1v15Z" class="g0_257"/>
<path fill-rule="evenodd" d="M263.1,826.9H502.6v-15H263.1v15Z" class="g0_257"/>
<path fill-rule="evenodd" d="M262.7,842.4H502.6V827.3H262.7v15.1Z" class="g0_257"/>
<path fill-rule="evenodd" d="M262.7,857.4H502.6v-15H262.7v15Z" class="g0_257"/>
<path fill-rule="evenodd" d="M262.7,872.5H502.6V857.4H262.7v15.1Z" class="g0_257"/>
<path fill-rule="evenodd" d="M262.7,887.5H502.6v-15H262.7v15Z" class="g0_257"/>
<path fill-rule="evenodd" d="M262.7,902.7H502.6V887.5H262.7v15.2Z" class="g0_257"/>
<path fill-rule="evenodd" d="M263.5,917.7H503.4v-15H263.5v15Z" class="g0_257"/>
<path fill-rule="evenodd" d="M523.9,542H763.7V527H523.9v15Z" class="g0_257"/>
<path fill-rule="evenodd" d="M523.9,557H763.7V542H523.9v15Z" class="g0_257"/>
<path fill-rule="evenodd" d="M523.5,572.1H763.7V557H523.5v15.1Z" class="g0_257"/>
<path fill-rule="evenodd" d="M523.5,587.3H763.7V572.1H523.5v15.2Z" class="g0_257"/>
<path fill-rule="evenodd" d="M523.5,602.4H763.7V587.3H523.5v15.1Z" class="g0_257"/>
<path fill-rule="evenodd" d="M523.5,617.4H763.7v-15H523.5v15Z" class="g0_257"/>
<path fill-rule="evenodd" d="M523.5,632.4H763.7v-15H523.5v15Z" class="g0_257"/>
<path fill-rule="evenodd" d="M523.5,647.5H763.7V632.4H523.5v15.1Z" class="g0_257"/>
<path fill-rule="evenodd" d="M523.2,662.9H763.4V647.8H523.2v15.1Z" class="g0_257"/>
<path fill-rule="evenodd" d="M523.2,677.9H763.4v-15H523.2v15Z" class="g0_257"/>
<path fill-rule="evenodd" d="M523.2,692.9H763.4v-15H523.2v15Z" class="g0_257"/>
<path fill-rule="evenodd" d="M523.2,708H763.4V692.9H523.2V708Z" class="g0_257"/>
<path fill-rule="evenodd" d="M541.5,723.4H763.7V708.3H541.5v15.1Z" class="g0_257"/>
<path fill-rule="evenodd" d="M523.2,738.6H763.7V723.4H523.2v15.2Z" class="g0_257"/>
<path fill-rule="evenodd" d="M523.2,753.6H763.7v-15H523.2v15Z" class="g0_257"/>
<path fill-rule="evenodd" d="M523.2,768.6H763.7v-15H523.2v15Z" class="g0_257"/>
<path fill-rule="evenodd" d="M523.2,783.7H763.7V768.6H523.2v15.1Z" class="g0_257"/>
<path fill-rule="evenodd" d="M523.2,798.7H763.7v-15H523.2v15Z" class="g0_257"/>
<path fill-rule="evenodd" d="M523.2,813.7H763.7v-15H523.2v15Z" class="g0_257"/>
<path fill-rule="evenodd" d="M523.5,828.8H763.4V813.7H523.5v15.1Z" class="g0_257"/>
<path fill-rule="evenodd" d="M523.5,843.9H763.4V828.8H523.5v15.1Z" class="g0_257"/>
<path fill-rule="evenodd" d="M523.5,858.9H763.7v-15H523.5v15Z" class="g0_257"/>
<path fill-rule="evenodd" d="M523.5,873.9H763.7v-15H523.5v15Z" class="g0_257"/>
<path fill-rule="evenodd" d="M523.5,889H763.4V873.9H523.5V889Z" class="g0_257"/>
<path fill-rule="evenodd" d="M523.5,904H763.4V889H523.5v15Z" class="g0_257"/>
<path fill-rule="evenodd" d="M499.7,934.4H764.5V916.8H499.7v17.6Z" class="g0_257"/>
<path d="M195.3,119.2V258.9M204,104.5V353.8m1.5,-249.3V806.3" class="g1_257"/>
<path d="M196.7,198.5v264" class="g2_257"/>
<path d="M513.9,147.8V434.6" class="g1_257"/>
<path d="M181,482.5V968.8" class="g3_257"/>
<path d="M208.8,529.5V842M511.3,522.9V914.5" class="g1_257"/>
</svg>