<?xml version="1.0" encoding="UTF-8" standalone="no"?>
<!DOCTYPE svg PUBLIC "-//W3C//DTD SVG 1.1//EN"
"http://www.w3.org/Graphics/SVG/1.1/DTD/svg11.dtd">
<svg viewBox="0 0 909 1285" version="1.1" xmlns="http://www.w3.org/2000/svg" xmlns:xlink="http://www.w3.org/1999/xlink">
<defs>
<style type="text/css"><![CDATA[
.g0_310{
fill: #FFFFFF;
}
.g1_310{
fill: none;
stroke: #000000;
stroke-width: 0.381;
stroke-linecap: butt;
stroke-linejoin: round;
}
]]></style>
</defs>
<path fill-rule="evenodd" d="M652.3,131.1h59.4V110H652.3v21.1Z" class="g0_310"/>
<path fill-rule="evenodd" d="M193.8,166.7h238V152h-238v14.7Z" class="g0_310"/>
<path fill-rule="evenodd" d="M193.8,181.3h238V166.7h-238v14.6Z" class="g0_310"/>
<path fill-rule="evenodd" d="M193.8,196h238V181.3h-238V196Z" class="g0_310"/>
<path fill-rule="evenodd" d="M193.1,210.7H432.2V196H193.1v14.7Z" class="g0_310"/>
<path fill-rule="evenodd" d="M193.1,225.3H432.2V210.7H193.1v14.6Z" class="g0_310"/>
<path fill-rule="evenodd" d="M193.1,240H432.2V225.3H193.1V240Z" class="g0_310"/>
<path fill-rule="evenodd" d="M193.1,254.7H432.2V240H193.1v14.7Z" class="g0_310"/>
<path fill-rule="evenodd" d="M193.4,269.3H431.8V254.7H193.4v14.6Z" class="g0_310"/>
<path fill-rule="evenodd" d="M193.4,284H431.8V269.3H193.4V284Z" class="g0_310"/>
<path fill-rule="evenodd" d="M193.4,298.7H431.8V284H193.4v14.7Z" class="g0_310"/>
<path fill-rule="evenodd" d="M193.1,313.3H431.8V298.7H193.1v14.6Z" class="g0_310"/>
<path fill-rule="evenodd" d="M193.1,328H431.8V313.3H193.1V328Z" class="g0_310"/>
<path fill-rule="evenodd" d="M193.1,342.7H431.8V328H193.1v14.7Z" class="g0_310"/>
<path fill-rule="evenodd" d="M193.1,357.4H431.8V342.7H193.1v14.7Z" class="g0_310"/>
<path fill-rule="evenodd" d="M192.7,372.6H431.8V357.8H192.7v14.8Z" class="g0_310"/>
<path fill-rule="evenodd" d="M192.7,387.3H431.8V372.6H192.7v14.7Z" class="g0_310"/>
<path fill-rule="evenodd" d="M192.7,401.9H431.8V387.3H192.7v14.6Z" class="g0_310"/>
<path fill-rule="evenodd" d="M192.7,416.6H431.8V401.9H192.7v14.7Z" class="g0_310"/>
<path fill-rule="evenodd" d="M192.7,431.3H431.8V416.6H192.7v14.7Z" class="g0_310"/>
<path fill-rule="evenodd" d="M192.7,446.3H431.1V431.6H192.7v14.7Z" class="g0_310"/>
<path fill-rule="evenodd" d="M192.7,461H431.1V446.3H192.7V461Z" class="g0_310"/>
<path fill-rule="evenodd" d="M192,476H430.7V461.3H192V476Z" class="g0_310"/>
<path fill-rule="evenodd" d="M192,490.7H430.7V476H192v14.7Z" class="g0_310"/>
<path fill-rule="evenodd" d="M192,505.3H430.7V490.7H192v14.6Z" class="g0_310"/>
<path fill-rule="evenodd" d="M192,520H430.7V505.3H192V520Z" class="g0_310"/>
<path fill-rule="evenodd" d="M192,535H431.1V520.4H192V535Z" class="g0_310"/>
<path fill-rule="evenodd" d="M192,549.7H431.1V535H192v14.7Z" class="g0_310"/>
<path fill-rule="evenodd" d="M192,564.4H431.1V549.7H192v14.7Z" class="g0_310"/>
<path fill-rule="evenodd" d="M192,579H429.6V564.4H192V579Z" class="g0_310"/>
<path fill-rule="evenodd" d="M192,593.7H429.6V579H192v14.7Z" class="g0_310"/>
<path fill-rule="evenodd" d="M191.2,608.8H430V594.1H191.2v14.7Z" class="g0_310"/>
<path fill-rule="evenodd" d="M191.2,623.4H430V608.8H191.2v14.6Z" class="g0_310"/>
<path fill-rule="evenodd" d="M190.9,638.1H430.3V623.4H190.9v14.7Z" class="g0_310"/>
<path fill-rule="evenodd" d="M190.9,652.8H430.3V638.1H190.9v14.7Z" class="g0_310"/>
<path fill-rule="evenodd" d="M190.9,667.4H430.3V652.8H190.9v14.6Z" class="g0_310"/>
<path fill-rule="evenodd" d="M190.9,682.1H430.3V667.4H190.9v14.7Z" class="g0_310"/>
<path fill-rule="evenodd" d="M190.9,697.1H430.3v-15H190.9v15Z" class="g0_310"/>
<path fill-rule="evenodd" d="M190.9,711.8H430.3V697.1H190.9v14.7Z" class="g0_310"/>
<path fill-rule="evenodd" d="M190.9,726.5H430.3V711.8H190.9v14.7Z" class="g0_310"/>
<path fill-rule="evenodd" d="M190.9,741.1H430.3V726.5H190.9v14.6Z" class="g0_310"/>
<path fill-rule="evenodd" d="M190.9,755.8H430.3V741.1H190.9v14.7Z" class="g0_310"/>
<path fill-rule="evenodd" d="M190.9,770.5H430.3V755.8H190.9v14.7Z" class="g0_310"/>
<path fill-rule="evenodd" d="M191.2,785.5h238V770.8h-238v14.7Z" class="g0_310"/>
<path fill-rule="evenodd" d="M191.2,800.2h238V785.5h-238v14.7Z" class="g0_310"/>
<path fill-rule="evenodd" d="M190.9,814.8H430V800.2H190.9v14.6Z" class="g0_310"/>
<path fill-rule="evenodd" d="M190.9,829.5H430V814.8H190.9v14.7Z" class="g0_310"/>
<path fill-rule="evenodd" d="M190.9,844.2H430V829.5H190.9v14.7Z" class="g0_310"/>
<path fill-rule="evenodd" d="M191.2,858.9H430.3V844.2H191.2v14.7Z" class="g0_310"/>
<path fill-rule="evenodd" d="M191.2,873.6H430.3V858.9H191.2v14.7Z" class="g0_310"/>
<path fill-rule="evenodd" d="M209.6,888.6H432.2V873.9H209.6v14.7Z" class="g0_310"/>
<path fill-rule="evenodd" d="M193.1,903.3H432.2V888.6H193.1v14.7Z" class="g0_310"/>
<path fill-rule="evenodd" d="M452.4,166.7H691.9V152H452.4v14.7Z" class="g0_310"/>
<path fill-rule="evenodd" d="M452.4,181.3H691.9V166.7H452.4v14.6Z" class="g0_310"/>
<path fill-rule="evenodd" d="M452.4,196.4H691.5V181.7H452.4v14.7Z" class="g0_310"/>
<path fill-rule="evenodd" d="M452.4,211H691.5V196.4H452.4V211Z" class="g0_310"/>
<path fill-rule="evenodd" d="M470.7,225.9H691.9V211H470.7v14.9Z" class="g0_310"/>
<path fill-rule="evenodd" d="M452,241.3H691.5V226.6H452v14.7Z" class="g0_310"/>
<path fill-rule="evenodd" d="M452,256H691.5V241.3H452V256Z" class="g0_310"/>
<path fill-rule="evenodd" d="M452,270.6H691.5V256H452v14.6Z" class="g0_310"/>
<path fill-rule="evenodd" d="M452,285.3H691.1V270.6H452v14.7Z" class="g0_310"/>
<path fill-rule="evenodd" d="M452,300H691.1V285.3H452V300Z" class="g0_310"/>
<path fill-rule="evenodd" d="M452,314.6H691.1V300H452v14.6Z" class="g0_310"/>
<path fill-rule="evenodd" d="M452,329.3H691.1V314.6H452v14.7Z" class="g0_310"/>
<path fill-rule="evenodd" d="M452,344H691.1V329.3H452V344Z" class="g0_310"/>
<path fill-rule="evenodd" d="M452,358.7H691.1V344H452v14.7Z" class="g0_310"/>
<path fill-rule="evenodd" d="M452,373.3H691.1V358.7H452v14.6Z" class="g0_310"/>
<path fill-rule="evenodd" d="M451.7,388.4H690.8V373.7H451.7v14.7Z" class="g0_310"/>
<path fill-rule="evenodd" d="M451.7,403H690.8V388.4H451.7V403Z" class="g0_310"/>
<path fill-rule="evenodd" d="M451.7,417.7H690.8V403H451.7v14.7Z" class="g0_310"/>
<path fill-rule="evenodd" d="M470,433.1H691.9V418.4H470v14.7Z" class="g0_310"/>
<path fill-rule="evenodd" d="M451.3,448.1H690.4V433.5H451.3v14.6Z" class="g0_310"/>
<path fill-rule="evenodd" d="M451.3,462.8H690.4V448.1H451.3v14.7Z" class="g0_310"/>
<path fill-rule="evenodd" d="M451.3,477.5H690.4V462.8H451.3v14.7Z" class="g0_310"/>
<path fill-rule="evenodd" d="M451.3,492.1H690.4V477.5H451.3v14.6Z" class="g0_310"/>
<path fill-rule="evenodd" d="M451.3,507.2H690.4V492.1H451.3v15.1Z" class="g0_310"/>
<path fill-rule="evenodd" d="M451.3,521.8H690.4V507.2H451.3v14.6Z" class="g0_310"/>
<path fill-rule="evenodd" d="M451.3,536.5H690.4V521.8H451.3v14.7Z" class="g0_310"/>
<path fill-rule="evenodd" d="M450.9,551.2H689.7V536.5H450.9v14.7Z" class="g0_310"/>
<path fill-rule="evenodd" d="M450.9,565.8H689.7V551.2H450.9v14.6Z" class="g0_310"/>
<path fill-rule="evenodd" d="M450.9,580.5H689.7V565.8H450.9v14.7Z" class="g0_310"/>
<path fill-rule="evenodd" d="M450.9,595.2H689.7V580.5H450.9v14.7Z" class="g0_310"/>
<path fill-rule="evenodd" d="M469.3,610.2H691.9V595.6H469.3v14.6Z" class="g0_310"/>
<path fill-rule="evenodd" d="M450.9,625.3H689.7V610.6H450.9v14.7Z" class="g0_310"/>
<path fill-rule="evenodd" d="M450.9,639.9H689.7V625.3H450.9v14.6Z" class="g0_310"/>
<path fill-rule="evenodd" d="M450.9,654.6H689.7V639.9H450.9v14.7Z" class="g0_310"/>
<path fill-rule="evenodd" d="M450.9,669.6H689.7v-15H450.9v15Z" class="g0_310"/>
<path fill-rule="evenodd" d="M450.9,684.3H689.7V669.6H450.9v14.7Z" class="g0_310"/>
<path fill-rule="evenodd" d="M450.9,699H689.7V684.3H450.9V699Z" class="g0_310"/>
<path fill-rule="evenodd" d="M450.9,713.6H689.7V699H450.9v14.6Z" class="g0_310"/>
<path fill-rule="evenodd" d="M450.6,728.3H689.7V713.6H450.6v14.7Z" class="g0_310"/>
<path fill-rule="evenodd" d="M450.6,743H689.7V728.3H450.6V743Z" class="g0_310"/>
<path fill-rule="evenodd" d="M450.6,757.6H689.7V743H450.6v14.6Z" class="g0_310"/>
<path fill-rule="evenodd" d="M450.6,772.3H689.7V757.6H450.6v14.7Z" class="g0_310"/>
<path fill-rule="evenodd" d="M468.5,787.3H691.9V772.7H468.5v14.6Z" class="g0_310"/>
<path fill-rule="evenodd" d="M450.2,802.6H689.3V787.7H450.2v14.9Z" class="g0_310"/>
<path fill-rule="evenodd" d="M450.2,817.2H689.3V802.6H450.2v14.6Z" class="g0_310"/>
<path fill-rule="evenodd" d="M450.2,831.9H689.3V817.2H450.2v14.7Z" class="g0_310"/>
<path fill-rule="evenodd" d="M450.6,846.6h238V831.9h-238v14.7Z" class="g0_310"/>
<path fill-rule="evenodd" d="M450.6,861.3h238V846.6h-238v14.7Z" class="g0_310"/>
<path fill-rule="evenodd" d="M450.2,875.9H689.7V861.3H450.2v14.6Z" class="g0_310"/>
<path fill-rule="evenodd" d="M450.2,890.6H689.7V875.9H450.2v14.7Z" class="g0_310"/>
<path fill-rule="evenodd" d="M450.2,905.3H689.7V890.6H450.2v14.7Z" class="g0_310"/>
<path d="M439.5,151.3V920.6" class="g1_310"/>
</svg>