<?xml version="1.0" encoding="UTF-8" standalone="no"?>
<!DOCTYPE svg PUBLIC "-//W3C//DTD SVG 1.1//EN"
"http://www.w3.org/Graphics/SVG/1.1/DTD/svg11.dtd">
<svg viewBox="0 0 909 1285" version="1.1" xmlns="http://www.w3.org/2000/svg" xmlns:xlink="http://www.w3.org/1999/xlink">
<defs>
<style type="text/css"><![CDATA[
.g0_177{
fill: #FFFFFF;
}
.g1_177{
fill: none;
stroke: #000000;
stroke-width: 0.381;
stroke-linecap: butt;
stroke-linejoin: round;
}
]]></style>
</defs>
<path fill-rule="evenodd" d="M277.8,125.8H775.5V110H277.8v15.8Z" class="g0_177"/>
<path fill-rule="evenodd" d="M277.8,161.4H516.2V146.3H277.8v15.1Z" class="g0_177"/>
<path fill-rule="evenodd" d="M277.8,176.4H516.2v-15H277.8v15Z" class="g0_177"/>
<path fill-rule="evenodd" d="M277.8,191.6H516.2V176.4H277.8v15.2Z" class="g0_177"/>
<path fill-rule="evenodd" d="M277.8,206.6H516.2v-15H277.8v15Z" class="g0_177"/>
<path fill-rule="evenodd" d="M277.8,221.7H516.2V206.6H277.8v15.1Z" class="g0_177"/>
<path fill-rule="evenodd" d="M277.1,236.7H516.6v-15H277.1v15Z" class="g0_177"/>
<path fill-rule="evenodd" d="M277.1,251.7H516.6v-15H277.1v15Z" class="g0_177"/>
<path fill-rule="evenodd" d="M277.1,266.8H516.6V251.7H277.1v15.1Z" class="g0_177"/>
<path fill-rule="evenodd" d="M277.1,281.8H516.6v-15H277.1v15Z" class="g0_177"/>
<path fill-rule="evenodd" d="M277.1,296.8H516.6v-15H277.1v15Z" class="g0_177"/>
<path fill-rule="evenodd" d="M277.1,311.9H516.6V296.8H277.1v15.1Z" class="g0_177"/>
<path fill-rule="evenodd" d="M277.1,326.9H516.6v-15H277.1v15Z" class="g0_177"/>
<path fill-rule="evenodd" d="M277.1,341.9H515.5v-15H277.1v15Z" class="g0_177"/>
<path fill-rule="evenodd" d="M277.1,357.2H515.5V342H277.1v15.2Z" class="g0_177"/>
<path fill-rule="evenodd" d="M277.1,372.2H515.5v-15H277.1v15Z" class="g0_177"/>
<path fill-rule="evenodd" d="M276.4,387.3H515.5V372.2H276.4v15.1Z" class="g0_177"/>
<path fill-rule="evenodd" d="M276.4,402.3H515.5v-15H276.4v15Z" class="g0_177"/>
<path fill-rule="evenodd" d="M276.4,417.3H515.5v-15H276.4v15Z" class="g0_177"/>
<path fill-rule="evenodd" d="M276.4,432.4H515.5V417.3H276.4v15.1Z" class="g0_177"/>
<path fill-rule="evenodd" d="M276.4,447.4H515.1v-15H276.4v15Z" class="g0_177"/>
<path fill-rule="evenodd" d="M276.4,462.4H515.1v-15H276.4v15Z" class="g0_177"/>
<path fill-rule="evenodd" d="M276.4,477.5H515.1V462.4H276.4v15.1Z" class="g0_177"/>
<path fill-rule="evenodd" d="M276.4,492.5H515.1v-15H276.4v15Z" class="g0_177"/>
<path fill-rule="evenodd" d="M276.4,507.5H515.1v-15H276.4v15Z" class="g0_177"/>
<path fill-rule="evenodd" d="M276,522.6H515.1V507.5H276v15.1Z" class="g0_177"/>
<path fill-rule="evenodd" d="M276,537.8H515.1V522.6H276v15.2Z" class="g0_177"/>
<path fill-rule="evenodd" d="M276,552.8H515.1v-15H276v15Z" class="g0_177"/>
<path fill-rule="evenodd" d="M276,567.9H515.1V552.8H276v15.1Z" class="g0_177"/>
<path fill-rule="evenodd" d="M276,582.9H515.1v-15H276v15Z" class="g0_177"/>
<path fill-rule="evenodd" d="M276,598H515.1V582.9H276V598Z" class="g0_177"/>
<path fill-rule="evenodd" d="M275.3,613H514.4V598H275.3v15Z" class="g0_177"/>
<path fill-rule="evenodd" d="M275.3,628H514.4V613H275.3v15Z" class="g0_177"/>
<path fill-rule="evenodd" d="M275.3,643.1H514.4V628H275.3v15.1Z" class="g0_177"/>
<path fill-rule="evenodd" d="M275.3,658.1H514.4v-15H275.3v15Z" class="g0_177"/>
<path fill-rule="evenodd" d="M275.6,673.1H514v-15H275.6v15Z" class="g0_177"/>
<path fill-rule="evenodd" d="M275.6,688.2H514V673.1H275.6v15.1Z" class="g0_177"/>
<path fill-rule="evenodd" d="M294,703.2H516.6v-15H294v15Z" class="g0_177"/>
<path fill-rule="evenodd" d="M294,718.8H516.6V703.2H294v15.6Z" class="g0_177"/>
<path fill-rule="evenodd" d="M275.6,733.8H514.4v-15H275.6v15Z" class="g0_177"/>
<path fill-rule="evenodd" d="M275.6,748.8H514.4v-15H275.6v15Z" class="g0_177"/>
<path fill-rule="evenodd" d="M275.6,763.9H514.4V748.8H275.6v15.1Z" class="g0_177"/>
<path fill-rule="evenodd" d="M275.3,778.9H514.4v-15H275.3v15Z" class="g0_177"/>
<path fill-rule="evenodd" d="M275.3,793.9H514.4v-15H275.3v15Z" class="g0_177"/>
<path fill-rule="evenodd" d="M274.9,809H513.6V793.9H274.9V809Z" class="g0_177"/>
<path fill-rule="evenodd" d="M274.9,824H513.6V809H274.9v15Z" class="g0_177"/>
<path fill-rule="evenodd" d="M275.3,839.1H513.6V824H275.3v15.1Z" class="g0_177"/>
<path fill-rule="evenodd" d="M275.3,854.1H513.6v-15H275.3v15Z" class="g0_177"/>
<path fill-rule="evenodd" d="M275.3,869.2H514V854.1H275.3v15.1Z" class="g0_177"/>
<path fill-rule="evenodd" d="M275.3,884.4H514V869.2H275.3v15.2Z" class="g0_177"/>
<path fill-rule="evenodd" d="M277.8,899.4H516.6v-15H277.8v15Z" class="g0_177"/>
<path fill-rule="evenodd" d="M536.5,161.4H775.3V146.3H536.5v15.1Z" class="g0_177"/>
<path fill-rule="evenodd" d="M536.9,176.4H775.3v-15H536.9v15Z" class="g0_177"/>
<path fill-rule="evenodd" d="M536.9,192h238V176.8h-238V192Z" class="g0_177"/>
<path fill-rule="evenodd" d="M536.9,207h238V192h-238v15Z" class="g0_177"/>
<path fill-rule="evenodd" d="M536.5,222h238V207h-238v15Z" class="g0_177"/>
<path fill-rule="evenodd" d="M536.5,237.1h238V222h-238v15.1Z" class="g0_177"/>
<path fill-rule="evenodd" d="M536.5,252.1H774.9v-15H536.5v15Z" class="g0_177"/>
<path fill-rule="evenodd" d="M536.5,267.1H774.9v-15H536.5v15Z" class="g0_177"/>
<path fill-rule="evenodd" d="M536.5,282.5h238v-15h-238v15Z" class="g0_177"/>
<path fill-rule="evenodd" d="M536.5,297.6h238V282.5h-238v15.1Z" class="g0_177"/>
<path fill-rule="evenodd" d="M536.5,312.6h238v-15h-238v15Z" class="g0_177"/>
<path fill-rule="evenodd" d="M536.5,327.8h238V312.6h-238v15.2Z" class="g0_177"/>
<path fill-rule="evenodd" d="M536.2,342.9H774.5V327.8H536.2v15.1Z" class="g0_177"/>
<path fill-rule="evenodd" d="M536.2,357.9H774.5v-15H536.2v15Z" class="g0_177"/>
<path fill-rule="evenodd" d="M536.2,373H774.5V357.9H536.2V373Z" class="g0_177"/>
<path fill-rule="evenodd" d="M536.2,388H775.3V373H536.2v15Z" class="g0_177"/>
<path fill-rule="evenodd" d="M536.2,403H774.5V388H536.2v15Z" class="g0_177"/>
<path fill-rule="evenodd" d="M536.2,418.1H774.5V403H536.2v15.1Z" class="g0_177"/>
<path fill-rule="evenodd" d="M535.8,433.1H774.5v-15H535.8v15Z" class="g0_177"/>
<path fill-rule="evenodd" d="M535.8,448.1H774.5v-15H535.8v15Z" class="g0_177"/>
<path fill-rule="evenodd" d="M535.8,463.2H774.5V448.1H535.8v15.1Z" class="g0_177"/>
<path fill-rule="evenodd" d="M535.8,478.2H774.5v-15H535.8v15Z" class="g0_177"/>
<path fill-rule="evenodd" d="M535.8,493.2H774.5v-15H535.8v15Z" class="g0_177"/>
<path fill-rule="evenodd" d="M535.8,508.5H774.5V493.2H535.8v15.3Z" class="g0_177"/>
<path fill-rule="evenodd" d="M535.8,523.5H774.5v-15H535.8v15Z" class="g0_177"/>
<path fill-rule="evenodd" d="M535.8,538.5H774.2v-15H535.8v15Z" class="g0_177"/>
<path fill-rule="evenodd" d="M535.8,553.6H774.2V538.5H535.8v15.1Z" class="g0_177"/>
<path fill-rule="evenodd" d="M535.8,568.6H774.2v-15H535.8v15Z" class="g0_177"/>
<path fill-rule="evenodd" d="M534.7,583.6H773.8v-15H534.7v15Z" class="g0_177"/>
<path fill-rule="evenodd" d="M534.7,598.7H773.8V583.6H534.7v15.1Z" class="g0_177"/>
<path fill-rule="evenodd" d="M534.7,613.7H773.8v-15H534.7v15Z" class="g0_177"/>
<path fill-rule="evenodd" d="M534.7,628.8H773.8V613.7H534.7v15.1Z" class="g0_177"/>
<path fill-rule="evenodd" d="M533.6,643.8H773.4v-15H533.6v15Z" class="g0_177"/>
<path fill-rule="evenodd" d="M533.6,658.8H773.4v-15H533.6v15Z" class="g0_177"/>
<path fill-rule="evenodd" d="M534.7,674.4H773.4V659.2H534.7v15.2Z" class="g0_177"/>
<path fill-rule="evenodd" d="M534.7,689.4H773.4v-15H534.7v15Z" class="g0_177"/>
<path fill-rule="evenodd" d="M534.3,704.5H773.4V689.4H534.3v15.1Z" class="g0_177"/>
<path fill-rule="evenodd" d="M534.3,719.5H773.4v-15H534.3v15Z" class="g0_177"/>
<path fill-rule="evenodd" d="M534.3,734.5H773.4v-15H534.3v15Z" class="g0_177"/>
<path fill-rule="evenodd" d="M534.3,749.6H773.4V734.5H534.3v15.1Z" class="g0_177"/>
<path fill-rule="evenodd" d="M534.3,764.6H773.4v-15H534.3v15Z" class="g0_177"/>
<path fill-rule="evenodd" d="M534.3,779.6H773.4v-15H534.3v15Z" class="g0_177"/>
<path fill-rule="evenodd" d="M534.3,794.7H773.4V779.6H534.3v15.1Z" class="g0_177"/>
<path fill-rule="evenodd" d="M534.3,809.7H773.4v-15H534.3v15Z" class="g0_177"/>
<path fill-rule="evenodd" d="M534.3,824.7H773.4v-15H534.3v15Z" class="g0_177"/>
<path fill-rule="evenodd" d="M534.3,839.8H773.4V824.7H534.3v15.1Z" class="g0_177"/>
<path fill-rule="evenodd" d="M534.3,855H773.4V839.8H534.3V855Z" class="g0_177"/>
<path fill-rule="evenodd" d="M534.3,870.1H773.4V855H534.3v15.1Z" class="g0_177"/>
<path fill-rule="evenodd" d="M534.7,885.1h238v-15h-238v15Z" class="g0_177"/>
<path fill-rule="evenodd" d="M534.7,900.1h238v-15h-238v15Z" class="g0_177"/>
<path fill-rule="evenodd" d="M511.8,932.4H775.5V914.8H511.8v17.6Z" class="g0_177"/>
<path d="M203.3,146V351.7m11,-209V183m2.2,538v42.9m2.2,-33.5v37.5M524.1,147.1v769" class="g1_177"/>
</svg>