<?xml version="1.0" encoding="UTF-8" standalone="no"?>
<!DOCTYPE svg PUBLIC "-//W3C//DTD SVG 1.1//EN"
"http://www.w3.org/Graphics/SVG/1.1/DTD/svg11.dtd">
<svg viewBox="0 0 909 1285" version="1.1" xmlns="http://www.w3.org/2000/svg" xmlns:xlink="http://www.w3.org/1999/xlink">
<defs>
<style type="text/css"><![CDATA[
.g0_60{
fill: #FFFFFF;
}
.g1_60{
fill: none;
stroke: #000000;
stroke-width: 0.381;
stroke-linecap: butt;
stroke-linejoin: round;
}
]]></style>
</defs>
<path fill-rule="evenodd" d="M604.9,131.1h77.8V110H604.9v21.1Z" class="g0_60"/>
<path fill-rule="evenodd" d="M202.2,166.7H422.6V151.6H202.2v15.1Z" class="g0_60"/>
<path fill-rule="evenodd" d="M184.3,181.7h238v-15h-238v15Z" class="g0_60"/>
<path fill-rule="evenodd" d="M184.3,196.9h238V181.7h-238v15.2Z" class="g0_60"/>
<path fill-rule="evenodd" d="M184.3,212h238V196.9h-238V212Z" class="g0_60"/>
<path fill-rule="evenodd" d="M184.3,227h238V212h-238v15Z" class="g0_60"/>
<path fill-rule="evenodd" d="M202.6,242h220V227h-220v15Z" class="g0_60"/>
<path fill-rule="evenodd" d="M202.2,257.1H422.6V242H202.2v15.1Z" class="g0_60"/>
<path fill-rule="evenodd" d="M202.2,272.1H422.6v-15H202.2v15Z" class="g0_60"/>
<path fill-rule="evenodd" d="M183.9,287.1H422.3v-15H183.9v15Z" class="g0_60"/>
<path fill-rule="evenodd" d="M183.9,302.2H422.3V287.1H183.9v15.1Z" class="g0_60"/>
<path fill-rule="evenodd" d="M183.9,317.2H422.3v-15H183.9v15Z" class="g0_60"/>
<path fill-rule="evenodd" d="M183.9,332.2H422.3v-15H183.9v15Z" class="g0_60"/>
<path fill-rule="evenodd" d="M183.9,347.3H422.3V332.2H183.9v15.1Z" class="g0_60"/>
<path fill-rule="evenodd" d="M183.9,362.5H422.3V347.3H183.9v15.2Z" class="g0_60"/>
<path fill-rule="evenodd" d="M183.9,377.6H422.3V362.5H183.9v15.1Z" class="g0_60"/>
<path fill-rule="evenodd" d="M183.9,392.6H422.3v-15H183.9v15Z" class="g0_60"/>
<path fill-rule="evenodd" d="M183.9,407.6H422.3v-15H183.9v15Z" class="g0_60"/>
<path fill-rule="evenodd" d="M183.2,422.7H422.3V407.6H183.2v15.1Z" class="g0_60"/>
<path fill-rule="evenodd" d="M183.2,437.7H422.3v-15H183.2v15Z" class="g0_60"/>
<path fill-rule="evenodd" d="M183.2,452.7H422.3v-15H183.2v15Z" class="g0_60"/>
<path fill-rule="evenodd" d="M183.2,467.8H422.3V452.7H183.2v15.1Z" class="g0_60"/>
<path fill-rule="evenodd" d="M183.2,482.8H422.3v-15H183.2v15Z" class="g0_60"/>
<path fill-rule="evenodd" d="M183.2,497.8H422.3v-15H183.2v15Z" class="g0_60"/>
<path fill-rule="evenodd" d="M183.9,512.9h238V497.8h-238v15.1Z" class="g0_60"/>
<path fill-rule="evenodd" d="M183.9,527.9h238v-15h-238v15Z" class="g0_60"/>
<path fill-rule="evenodd" d="M183.9,543.1h238V527.9h-238v15.2Z" class="g0_60"/>
<path fill-rule="evenodd" d="M183.5,558.1H421.9v-15H183.5v15Z" class="g0_60"/>
<path fill-rule="evenodd" d="M183.5,573.2H421.9V558.1H183.5v15.1Z" class="g0_60"/>
<path fill-rule="evenodd" d="M183.5,588.2H422.3v-15H183.5v15Z" class="g0_60"/>
<path fill-rule="evenodd" d="M183.5,603.3H422.3V588.2H183.5v15.1Z" class="g0_60"/>
<path fill-rule="evenodd" d="M183.5,618.3H422.3v-15H183.5v15Z" class="g0_60"/>
<path fill-rule="evenodd" d="M201.9,633.3H422.6v-15H201.9v15Z" class="g0_60"/>
<path fill-rule="evenodd" d="M183.2,648.7H421.9v-15H183.2v15Z" class="g0_60"/>
<path fill-rule="evenodd" d="M183.2,663.8H421.9V648.7H183.2v15.1Z" class="g0_60"/>
<path fill-rule="evenodd" d="M183.2,678.8H421.9v-15H183.2v15Z" class="g0_60"/>
<path fill-rule="evenodd" d="M183.2,693.8H421.9v-15H183.2v15Z" class="g0_60"/>
<path fill-rule="evenodd" d="M183.2,709.1H421.9V693.8H183.2v15.3Z" class="g0_60"/>
<path fill-rule="evenodd" d="M183.2,724.1H421.9v-15H183.2v15Z" class="g0_60"/>
<path fill-rule="evenodd" d="M182.8,739.1H421.9v-15H182.8v15Z" class="g0_60"/>
<path fill-rule="evenodd" d="M182.8,754.2H421.9V739.1H182.8v15.1Z" class="g0_60"/>
<path fill-rule="evenodd" d="M182.8,769.2H421.9v-15H182.8v15Z" class="g0_60"/>
<path fill-rule="evenodd" d="M182.8,784.2H421.9v-15H182.8v15Z" class="g0_60"/>
<path fill-rule="evenodd" d="M201.5,799.3H422.6V784.2H201.5v15.1Z" class="g0_60"/>
<path fill-rule="evenodd" d="M182.8,814.3H421.5v-15H182.8v15Z" class="g0_60"/>
<path fill-rule="evenodd" d="M182.8,829.3H421.5v-15H182.8v15Z" class="g0_60"/>
<path fill-rule="evenodd" d="M182.8,844.4H421.5V829.3H182.8v15.1Z" class="g0_60"/>
<path fill-rule="evenodd" d="M182.8,859.4H421.5v-15H182.8v15Z" class="g0_60"/>
<path fill-rule="evenodd" d="M182.8,874.5H421.5V859.4H182.8v15.1Z" class="g0_60"/>
<path fill-rule="evenodd" d="M182.8,889.7H421.5V874.5H182.8v15.2Z" class="g0_60"/>
<path fill-rule="evenodd" d="M182.8,904.7H421.5v-15H182.8v15Z" class="g0_60"/>
<path fill-rule="evenodd" d="M184.3,919.8h238V904.7h-238v15.1Z" class="g0_60"/>
<path fill-rule="evenodd" d="M443,166.7H681.8V151.6H443v15.1Z" class="g0_60"/>
<path fill-rule="evenodd" d="M443,181.7H681.8v-15H443v15Z" class="g0_60"/>
<path fill-rule="evenodd" d="M461,196.9H682.1V181.7H461v15.2Z" class="g0_60"/>
<path fill-rule="evenodd" d="M442.6,212H681.8V196.9H442.6V212Z" class="g0_60"/>
<path fill-rule="evenodd" d="M442.6,227H681.8V212H442.6v15Z" class="g0_60"/>
<path fill-rule="evenodd" d="M442.6,242H681.8V227H442.6v15Z" class="g0_60"/>
<path fill-rule="evenodd" d="M461,257.1H682.1V242H461v15.1Z" class="g0_60"/>
<path fill-rule="evenodd" d="M443,272.1H682.2v-15H443v15Z" class="g0_60"/>
<path fill-rule="evenodd" d="M443,287.1H682.2v-15H443v15Z" class="g0_60"/>
<path fill-rule="evenodd" d="M461,302.2H682.1V287.1H461v15.1Z" class="g0_60"/>
<path fill-rule="evenodd" d="M461,317.2H682.1v-15H461v15Z" class="g0_60"/>
<path fill-rule="evenodd" d="M442.6,332.2H681.4v-15H442.6v15Z" class="g0_60"/>
<path fill-rule="evenodd" d="M442.6,347.3H681.4V332.2H442.6v15.1Z" class="g0_60"/>
<path fill-rule="evenodd" d="M442.6,362.5H681.4V347.3H442.6v15.2Z" class="g0_60"/>
<path fill-rule="evenodd" d="M442.6,377.6H681.4V362.5H442.6v15.1Z" class="g0_60"/>
<path fill-rule="evenodd" d="M442.6,392.6H681.4v-15H442.6v15Z" class="g0_60"/>
<path fill-rule="evenodd" d="M442.6,407.6H681.8v-15H442.6v15Z" class="g0_60"/>
<path fill-rule="evenodd" d="M442.6,422.7H681.8V407.6H442.6v15.1Z" class="g0_60"/>
<path fill-rule="evenodd" d="M442.6,437.7H681.8v-15H442.6v15Z" class="g0_60"/>
<path fill-rule="evenodd" d="M442.6,452.7H681.8v-15H442.6v15Z" class="g0_60"/>
<path fill-rule="evenodd" d="M442.3,467.8H681.8V452.7H442.3v15.1Z" class="g0_60"/>
<path fill-rule="evenodd" d="M442.3,482.8H681.8v-15H442.3v15Z" class="g0_60"/>
<path fill-rule="evenodd" d="M442.3,497.8H681.8v-15H442.3v15Z" class="g0_60"/>
<path fill-rule="evenodd" d="M442.3,512.9H681.8V497.8H442.3v15.1Z" class="g0_60"/>
<path fill-rule="evenodd" d="M442.6,527.9H682.2v-15H442.6v15Z" class="g0_60"/>
<path fill-rule="evenodd" d="M442.6,543.1H682.2V527.9H442.6v15.2Z" class="g0_60"/>
<path fill-rule="evenodd" d="M442.6,558.1H682.2v-15H442.6v15Z" class="g0_60"/>
<path fill-rule="evenodd" d="M442.6,573.2H682.2V558.1H442.6v15.1Z" class="g0_60"/>
<path fill-rule="evenodd" d="M442.3,588.2H682.2v-15H442.3v15Z" class="g0_60"/>
<path fill-rule="evenodd" d="M442.3,603.3H682.2V588.2H442.3v15.1Z" class="g0_60"/>
<path fill-rule="evenodd" d="M442.3,618.3H682.2v-15H442.3v15Z" class="g0_60"/>
<path fill-rule="evenodd" d="M442.3,633.3H682.2v-15H442.3v15Z" class="g0_60"/>
<path fill-rule="evenodd" d="M442.3,648.4H682.2V633.3H442.3v15.1Z" class="g0_60"/>
<path fill-rule="evenodd" d="M441.9,663.4H681.8v-15H441.9v15Z" class="g0_60"/>
<path fill-rule="evenodd" d="M441.9,678.4H681.8v-15H441.9v15Z" class="g0_60"/>
<path fill-rule="evenodd" d="M441.9,693.5H681.8V678.4H441.9v15.1Z" class="g0_60"/>
<path fill-rule="evenodd" d="M441.9,708.5H681.8v-15H441.9v15Z" class="g0_60"/>
<path fill-rule="evenodd" d="M441.9,723.7H681.8V708.5H441.9v15.2Z" class="g0_60"/>
<path fill-rule="evenodd" d="M441.9,738.8H681.8V723.7H441.9v15.1Z" class="g0_60"/>
<path fill-rule="evenodd" d="M441.9,753.8H681.1v-15H441.9v15Z" class="g0_60"/>
<path fill-rule="evenodd" d="M441.9,768.8H681.1v-15H441.9v15Z" class="g0_60"/>
<path fill-rule="evenodd" d="M441.9,783.9H681.1V768.8H441.9v15.1Z" class="g0_60"/>
<path fill-rule="evenodd" d="M441.9,798.9H681.1v-15H441.9v15Z" class="g0_60"/>
<path fill-rule="evenodd" d="M460.3,813.9H682.1v-15H460.3v15Z" class="g0_60"/>
<path fill-rule="evenodd" d="M441.9,829.3H681.1v-15H441.9v15Z" class="g0_60"/>
<path fill-rule="evenodd" d="M441.9,844.4H681.1V829.3H441.9v15.1Z" class="g0_60"/>
<path fill-rule="evenodd" d="M441.5,859.4H681.1v-15H441.5v15Z" class="g0_60"/>
<path fill-rule="evenodd" d="M441.5,874.5H681.1V859.4H441.5v15.1Z" class="g0_60"/>
<path fill-rule="evenodd" d="M441.5,889.7H681.1V874.5H441.5v15.2Z" class="g0_60"/>
<path fill-rule="evenodd" d="M441.5,904.7H681.1v-15H441.5v15Z" class="g0_60"/>
<path d="M431,151.3v769" class="g1_60"/>
</svg>