<?xml version="1.0" encoding="UTF-8" standalone="no"?>
<!DOCTYPE svg PUBLIC "-//W3C//DTD SVG 1.1//EN"
"http://www.w3.org/Graphics/SVG/1.1/DTD/svg11.dtd">
<svg viewBox="0 0 909 1285" version="1.1" xmlns="http://www.w3.org/2000/svg" xmlns:xlink="http://www.w3.org/1999/xlink">
<defs>
<style type="text/css"><![CDATA[
.g0_136{
fill: #FFFFFF;
}
.g1_136{
fill: none;
stroke: #000000;
stroke-width: 0.381;
stroke-linecap: butt;
stroke-linejoin: round;
}
]]></style>
</defs>
<path fill-rule="evenodd" d="M588.4,127.6h102V110h-102v17.6Z" class="g0_136"/>
<path fill-rule="evenodd" d="M192,162.8H430.7v-15H192v15Z" class="g0_136"/>
<path fill-rule="evenodd" d="M192,177.9H430.7V162.8H192v15.1Z" class="g0_136"/>
<path fill-rule="evenodd" d="M192,192.9H430.7v-15H192v15Z" class="g0_136"/>
<path fill-rule="evenodd" d="M192,207.9H430.7v-15H192v15Z" class="g0_136"/>
<path fill-rule="evenodd" d="M192,223H430.7V207.9H192V223Z" class="g0_136"/>
<path fill-rule="evenodd" d="M192,238H430.7V223H192v15Z" class="g0_136"/>
<path fill-rule="evenodd" d="M192,253H430.7V238H192v15Z" class="g0_136"/>
<path fill-rule="evenodd" d="M192,268.1H430.7V253H192v15.1Z" class="g0_136"/>
<path fill-rule="evenodd" d="M192.7,283.3h238V268.1h-238v15.2Z" class="g0_136"/>
<path fill-rule="evenodd" d="M192.7,298.3h238v-15h-238v15Z" class="g0_136"/>
<path fill-rule="evenodd" d="M192.3,313.3H430.7v-15H192.3v15Z" class="g0_136"/>
<path fill-rule="evenodd" d="M192.3,328.4H430.7V313.3H192.3v15.1Z" class="g0_136"/>
<path fill-rule="evenodd" d="M192.3,343.4H430.7v-15H192.3v15Z" class="g0_136"/>
<path fill-rule="evenodd" d="M192.3,358.5H430.7V343.4H192.3v15.1Z" class="g0_136"/>
<path fill-rule="evenodd" d="M210.3,373.5H430.7v-15H210.3v15Z" class="g0_136"/>
<path fill-rule="evenodd" d="M192,388.6H430.7V373.5H192v15.1Z" class="g0_136"/>
<path fill-rule="evenodd" d="M192,403.6H430.7v-15H192v15Z" class="g0_136"/>
<path fill-rule="evenodd" d="M192,418.6H430.7v-15H192v15Z" class="g0_136"/>
<path fill-rule="evenodd" d="M192,433.7H430.7V418.6H192v15.1Z" class="g0_136"/>
<path fill-rule="evenodd" d="M192,448.9H430.7V433.7H192v15.2Z" class="g0_136"/>
<path fill-rule="evenodd" d="M191.2,463.9H430.3v-15H191.2v15Z" class="g0_136"/>
<path fill-rule="evenodd" d="M191.2,478.9H430.3v-15H191.2v15Z" class="g0_136"/>
<path fill-rule="evenodd" d="M191.2,494H430.3V478.9H191.2V494Z" class="g0_136"/>
<path fill-rule="evenodd" d="M191.2,509H430.3V494H191.2v15Z" class="g0_136"/>
<path fill-rule="evenodd" d="M191.2,524H430.3V509H191.2v15Z" class="g0_136"/>
<path fill-rule="evenodd" d="M191.2,539.1H430.3V524H191.2v15.1Z" class="g0_136"/>
<path fill-rule="evenodd" d="M209.9,554.5H430.7V539.4H209.9v15.1Z" class="g0_136"/>
<path fill-rule="evenodd" d="M191.6,569.5H430v-15H191.6v15Z" class="g0_136"/>
<path fill-rule="evenodd" d="M191.6,584.5H430v-15H191.6v15Z" class="g0_136"/>
<path fill-rule="evenodd" d="M191.2,599.6H429.6V584.5H191.2v15.1Z" class="g0_136"/>
<path fill-rule="evenodd" d="M191.2,614.8H429.6V599.6H191.2v15.2Z" class="g0_136"/>
<path fill-rule="evenodd" d="M191.2,629.9H429.6V614.8H191.2v15.1Z" class="g0_136"/>
<path fill-rule="evenodd" d="M191.2,645.3H430V630.2H191.2v15.1Z" class="g0_136"/>
<path fill-rule="evenodd" d="M191.2,660.3H430v-15H191.2v15Z" class="g0_136"/>
<path fill-rule="evenodd" d="M191.2,675.3H430v-15H191.2v15Z" class="g0_136"/>
<path fill-rule="evenodd" d="M190.9,690.4H430.7V675.3H190.9v15.1Z" class="g0_136"/>
<path fill-rule="evenodd" d="M190.9,705.4H430.7v-15H190.9v15Z" class="g0_136"/>
<path fill-rule="evenodd" d="M190.9,720.4H430.7v-15H190.9v15Z" class="g0_136"/>
<path fill-rule="evenodd" d="M190.9,735.5H430.7V720.4H190.9v15.1Z" class="g0_136"/>
<path fill-rule="evenodd" d="M190.5,750.5H429.6v-15H190.5v15Z" class="g0_136"/>
<path fill-rule="evenodd" d="M190.5,765.5H429.6v-15H190.5v15Z" class="g0_136"/>
<path fill-rule="evenodd" d="M190.5,780.7H429.6V765.5H190.5v15.2Z" class="g0_136"/>
<path fill-rule="evenodd" d="M190.5,795.8H429.6V780.7H190.5v15.1Z" class="g0_136"/>
<path fill-rule="evenodd" d="M190.5,810.8H429.6v-15H190.5v15Z" class="g0_136"/>
<path fill-rule="evenodd" d="M190.5,825.8H429.6v-15H190.5v15Z" class="g0_136"/>
<path fill-rule="evenodd" d="M190.5,840.9H429.6V825.8H190.5v15.1Z" class="g0_136"/>
<path fill-rule="evenodd" d="M190.5,856H429.6V840.9H190.5V856Z" class="g0_136"/>
<path fill-rule="evenodd" d="M190.5,871H429.6V856H190.5v15Z" class="g0_136"/>
<path fill-rule="evenodd" d="M190.5,886H429.6V871H190.5v15Z" class="g0_136"/>
<path fill-rule="evenodd" d="M190.5,901.1H429.6V886H190.5v15.1Z" class="g0_136"/>
<path fill-rule="evenodd" d="M192.3,916.1H430.7v-15H192.3v15Z" class="g0_136"/>
<path fill-rule="evenodd" d="M451.3,162.5H690.4V147.4H451.3v15.1Z" class="g0_136"/>
<path fill-rule="evenodd" d="M450.9,177.9H690.4V162.8H450.9v15.1Z" class="g0_136"/>
<path fill-rule="evenodd" d="M452,192.9H690.4v-15H452v15Z" class="g0_136"/>
<path fill-rule="evenodd" d="M451.3,207.9H690.4v-15H451.3v15Z" class="g0_136"/>
<path fill-rule="evenodd" d="M451.3,223H690.4V207.9H451.3V223Z" class="g0_136"/>
<path fill-rule="evenodd" d="M450.9,238H690.4V223H450.9v15Z" class="g0_136"/>
<path fill-rule="evenodd" d="M450.9,253H690.4V238H450.9v15Z" class="g0_136"/>
<path fill-rule="evenodd" d="M450.9,268.1H690.4V253H450.9v15.1Z" class="g0_136"/>
<path fill-rule="evenodd" d="M450.9,283.3H690.4V268.1H450.9v15.2Z" class="g0_136"/>
<path fill-rule="evenodd" d="M450.9,298.3H690.4v-15H450.9v15Z" class="g0_136"/>
<path fill-rule="evenodd" d="M450.9,313.3H690.4v-15H450.9v15Z" class="g0_136"/>
<path fill-rule="evenodd" d="M450.9,328.4H690.4V313.3H450.9v15.1Z" class="g0_136"/>
<path fill-rule="evenodd" d="M450.9,343.4H690.4v-15H450.9v15Z" class="g0_136"/>
<path fill-rule="evenodd" d="M450.9,358.5H690.4V343.4H450.9v15.1Z" class="g0_136"/>
<path fill-rule="evenodd" d="M450.9,373.5H689.7v-15H450.9v15Z" class="g0_136"/>
<path fill-rule="evenodd" d="M450.9,388.6H689.7V373.5H450.9v15.1Z" class="g0_136"/>
<path fill-rule="evenodd" d="M450.9,403.6H689.7v-15H450.9v15Z" class="g0_136"/>
<path fill-rule="evenodd" d="M450.2,418.6H689.7v-15H450.2v15Z" class="g0_136"/>
<path fill-rule="evenodd" d="M450.2,433.7H689.7V418.6H450.2v15.1Z" class="g0_136"/>
<path fill-rule="evenodd" d="M450.2,448.9H689.7V433.7H450.2v15.2Z" class="g0_136"/>
<path fill-rule="evenodd" d="M450.2,463.9H689.3v-15H450.2v15Z" class="g0_136"/>
<path fill-rule="evenodd" d="M450.2,478.9H689.3v-15H450.2v15Z" class="g0_136"/>
<path fill-rule="evenodd" d="M450.2,494H689.3V478.9H450.2V494Z" class="g0_136"/>
<path fill-rule="evenodd" d="M450.2,509H689.3V494H450.2v15Z" class="g0_136"/>
<path fill-rule="evenodd" d="M450.2,524H689.3V509H450.2v15Z" class="g0_136"/>
<path fill-rule="evenodd" d="M450.2,539.1H689.3V524H450.2v15.1Z" class="g0_136"/>
<path fill-rule="evenodd" d="M450.2,554.1H689.3v-15H450.2v15Z" class="g0_136"/>
<path fill-rule="evenodd" d="M450.6,569.1H689.7v-15H450.6v15Z" class="g0_136"/>
<path fill-rule="evenodd" d="M450.6,584.2H689.7V569.1H450.6v15.1Z" class="g0_136"/>
<path fill-rule="evenodd" d="M450.2,599.2H689.3v-15H450.2v15Z" class="g0_136"/>
<path fill-rule="evenodd" d="M450.2,614.3H689.3V599.2H450.2v15.1Z" class="g0_136"/>
<path fill-rule="evenodd" d="M450.2,629.5H689.3V614.3H450.2v15.2Z" class="g0_136"/>
<path fill-rule="evenodd" d="M450.2,644.5H689.3v-15H450.2v15Z" class="g0_136"/>
<path fill-rule="evenodd" d="M449.8,659.6H689.3V644.5H449.8v15.1Z" class="g0_136"/>
<path fill-rule="evenodd" d="M449.8,674.6H689.3v-15H449.8v15Z" class="g0_136"/>
<path fill-rule="evenodd" d="M449.8,689.6H689.3v-15H449.8v15Z" class="g0_136"/>
<path fill-rule="evenodd" d="M449.8,704.7H689.3V689.6H449.8v15.1Z" class="g0_136"/>
<path fill-rule="evenodd" d="M450.6,719.7H688.2v-15H450.6v15Z" class="g0_136"/>
<path fill-rule="evenodd" d="M450.6,734.7H688.2v-15H450.6v15Z" class="g0_136"/>
<path fill-rule="evenodd" d="M449.5,749.8H688.9V734.7H449.5v15.1Z" class="g0_136"/>
<path fill-rule="evenodd" d="M449.5,764.8H688.9v-15H449.5v15Z" class="g0_136"/>
<path fill-rule="evenodd" d="M449.5,779.8H688.9v-15H449.5v15Z" class="g0_136"/>
<path fill-rule="evenodd" d="M449.5,794.9H688.9V779.8H449.5v15.1Z" class="g0_136"/>
<path fill-rule="evenodd" d="M449.5,810.1H688.9V794.9H449.5v15.2Z" class="g0_136"/>
<path fill-rule="evenodd" d="M449.5,825.1H688.9v-15H449.5v15Z" class="g0_136"/>
<path fill-rule="evenodd" d="M449.5,840.2H688.6V825.1H449.5v15.1Z" class="g0_136"/>
<path fill-rule="evenodd" d="M449.5,855.2H688.6v-15H449.5v15Z" class="g0_136"/>
<path fill-rule="evenodd" d="M449.5,870.3H688.6V855.2H449.5v15.1Z" class="g0_136"/>
<path fill-rule="evenodd" d="M449.5,885.3H688.6v-15H449.5v15Z" class="g0_136"/>
<path fill-rule="evenodd" d="M449.5,900.3H688.6v-15H449.5v15Z" class="g0_136"/>
<path d="M438.7,147V916.2" class="g1_136"/>
</svg>