<?xml version="1.0" encoding="UTF-8" standalone="no"?>
<!DOCTYPE svg PUBLIC "-//W3C//DTD SVG 1.1//EN"
"http://www.w3.org/Graphics/SVG/1.1/DTD/svg11.dtd">
<svg viewBox="0 0 909 1285" version="1.1" xmlns="http://www.w3.org/2000/svg" xmlns:xlink="http://www.w3.org/1999/xlink">
<defs>
<style type="text/css"><![CDATA[
.g0_178{
fill: #FFFFFF;
}
.g1_178{
fill: none;
stroke: #000000;
stroke-width: 0.381;
stroke-linecap: butt;
stroke-linejoin: round;
}
]]></style>
</defs>
<path fill-rule="evenodd" d="M619.8,125.8h65.6V110H619.8v15.8Z" class="g0_178"/>
<path fill-rule="evenodd" d="M188.1,161.7H426.9v-15H188.1v15Z" class="g0_178"/>
<path fill-rule="evenodd" d="M188.1,176.9H426.9V161.7H188.1v15.2Z" class="g0_178"/>
<path fill-rule="evenodd" d="M188.1,192H426.9V176.9H188.1V192Z" class="g0_178"/>
<path fill-rule="evenodd" d="M187.8,207H426.9V192H187.8v15Z" class="g0_178"/>
<path fill-rule="evenodd" d="M187.8,222H426.9V207H187.8v15Z" class="g0_178"/>
<path fill-rule="evenodd" d="M187.8,237.1H426.9V222H187.8v15.1Z" class="g0_178"/>
<path fill-rule="evenodd" d="M187.8,252.1H426.9v-15H187.8v15Z" class="g0_178"/>
<path fill-rule="evenodd" d="M187.8,267.1H426.9v-15H187.8v15Z" class="g0_178"/>
<path fill-rule="evenodd" d="M187.8,282.2H426.9V267.1H187.8v15.1Z" class="g0_178"/>
<path fill-rule="evenodd" d="M187.8,297.2H426.9v-15H187.8v15Z" class="g0_178"/>
<path fill-rule="evenodd" d="M187.8,312.2H426.9v-15H187.8v15Z" class="g0_178"/>
<path fill-rule="evenodd" d="M187.8,327.3H426.9V312.2H187.8v15.1Z" class="g0_178"/>
<path fill-rule="evenodd" d="M187.8,342.5H426.9V327.3H187.8v15.2Z" class="g0_178"/>
<path fill-rule="evenodd" d="M187.8,357.6H426.9V342.5H187.8v15.1Z" class="g0_178"/>
<path fill-rule="evenodd" d="M187.8,372.6H426.9v-15H187.8v15Z" class="g0_178"/>
<path fill-rule="evenodd" d="M187.8,387.6H426.9v-15H187.8v15Z" class="g0_178"/>
<path fill-rule="evenodd" d="M187.8,402.7H426.9V387.6H187.8v15.1Z" class="g0_178"/>
<path fill-rule="evenodd" d="M187.8,417.7H426.9v-15H187.8v15Z" class="g0_178"/>
<path fill-rule="evenodd" d="M187,432.7H426.9v-15H187v15Z" class="g0_178"/>
<path fill-rule="evenodd" d="M187,447.8H426.9V432.7H187v15.1Z" class="g0_178"/>
<path fill-rule="evenodd" d="M187,462.8H426.9v-15H187v15Z" class="g0_178"/>
<path fill-rule="evenodd" d="M187,477.8H426.9v-15H187v15Z" class="g0_178"/>
<path fill-rule="evenodd" d="M187,492.9H426.9V477.8H187v15.1Z" class="g0_178"/>
<path fill-rule="evenodd" d="M187,507.9H426.9v-15H187v15Z" class="g0_178"/>
<path fill-rule="evenodd" d="M187.4,523.1h238V507.9h-238v15.2Z" class="g0_178"/>
<path fill-rule="evenodd" d="M187.4,538.2h238V523.1h-238v15.1Z" class="g0_178"/>
<path fill-rule="evenodd" d="M187.4,553.2H356.5v-15H187.4v15Z" class="g0_178"/>
<path fill-rule="evenodd" d="M187.4,568.2H356.5v-15H187.4v15Z" class="g0_178"/>
<path fill-rule="evenodd" d="M187,583.3H425.8V568.2H187v15.1Z" class="g0_178"/>
<path fill-rule="evenodd" d="M187,598.3H425.8v-15H187v15Z" class="g0_178"/>
<path fill-rule="evenodd" d="M187,613.4H425.8V598.3H187v15.1Z" class="g0_178"/>
<path fill-rule="evenodd" d="M187,628.4H425.8v-15H187v15Z" class="g0_178"/>
<path fill-rule="evenodd" d="M205,643.8H426.9v-15H205v15Z" class="g0_178"/>
<path fill-rule="evenodd" d="M186.7,658.8H425.4v-15H186.7v15Z" class="g0_178"/>
<path fill-rule="evenodd" d="M186.7,673.9H425.4V658.8H186.7v15.1Z" class="g0_178"/>
<path fill-rule="evenodd" d="M186.7,689.1H425V673.9H186.7v15.2Z" class="g0_178"/>
<path fill-rule="evenodd" d="M186.7,704.1H425v-15H186.7v15Z" class="g0_178"/>
<path fill-rule="evenodd" d="M186.3,719.1H425.8v-15H186.3v15Z" class="g0_178"/>
<path fill-rule="evenodd" d="M186.3,734.2H425.8V719.1H186.3v15.1Z" class="g0_178"/>
<path fill-rule="evenodd" d="M204.6,749.2H426.9v-15H204.6v15Z" class="g0_178"/>
<path fill-rule="evenodd" d="M185.9,764.2H425.4v-15H185.9v15Z" class="g0_178"/>
<path fill-rule="evenodd" d="M185.9,779.3H425.4V764.2H185.9v15.1Z" class="g0_178"/>
<path fill-rule="evenodd" d="M186.3,794.3H424.7v-15H186.3v15Z" class="g0_178"/>
<path fill-rule="evenodd" d="M186.3,809.3H424.7v-15H186.3v15Z" class="g0_178"/>
<path fill-rule="evenodd" d="M186.3,824.4H425V809.3H186.3v15.1Z" class="g0_178"/>
<path fill-rule="evenodd" d="M186.3,839.5H425V824.4H186.3v15.1Z" class="g0_178"/>
<path fill-rule="evenodd" d="M186.3,854.5H425v-15H186.3v15Z" class="g0_178"/>
<path fill-rule="evenodd" d="M186.7,869.7H424.3V854.5H186.7v15.2Z" class="g0_178"/>
<path fill-rule="evenodd" d="M186.7,884.7H424.3v-15H186.7v15Z" class="g0_178"/>
<path fill-rule="evenodd" d="M188.9,899.8h238V884.7h-238v15.1Z" class="g0_178"/>
<path fill-rule="evenodd" d="M446.7,161.7H685.5v-15H446.7v15Z" class="g0_178"/>
<path fill-rule="evenodd" d="M446.7,176.9H685.5V161.7H446.7v15.2Z" class="g0_178"/>
<path fill-rule="evenodd" d="M446.7,192H685.5V176.9H446.7V192Z" class="g0_178"/>
<path fill-rule="evenodd" d="M446.3,207.4H685.1V192.3H446.3v15.1Z" class="g0_178"/>
<path fill-rule="evenodd" d="M446.3,222.4H685.1v-15H446.3v15Z" class="g0_178"/>
<path fill-rule="evenodd" d="M446.3,237.4H685.1v-15H446.3v15Z" class="g0_178"/>
<path fill-rule="evenodd" d="M446.3,252.5H685.1V237.4H446.3v15.1Z" class="g0_178"/>
<path fill-rule="evenodd" d="M446.3,267.5H685.1v-15H446.3v15Z" class="g0_178"/>
<path fill-rule="evenodd" d="M446.3,282.5H685.1v-15H446.3v15Z" class="g0_178"/>
<path fill-rule="evenodd" d="M445.9,297.6H685.5V282.5H445.9v15.1Z" class="g0_178"/>
<path fill-rule="evenodd" d="M445.9,312.6H685.5v-15H445.9v15Z" class="g0_178"/>
<path fill-rule="evenodd" d="M445.9,327.8H685.5V312.6H445.9v15.2Z" class="g0_178"/>
<path fill-rule="evenodd" d="M445.9,342.9H685.5V327.8H445.9v15.1Z" class="g0_178"/>
<path fill-rule="evenodd" d="M445.9,357.9H685.5v-15H445.9v15Z" class="g0_178"/>
<path fill-rule="evenodd" d="M446.3,373H685.1V357.9H446.3V373Z" class="g0_178"/>
<path fill-rule="evenodd" d="M446.3,388H685.1V373H446.3v15Z" class="g0_178"/>
<path fill-rule="evenodd" d="M446.3,403H685.1V388H446.3v15Z" class="g0_178"/>
<path fill-rule="evenodd" d="M445.9,418.1H684.7V403H445.9v15.1Z" class="g0_178"/>
<path fill-rule="evenodd" d="M445.9,433.1H684.7v-15H445.9v15Z" class="g0_178"/>
<path fill-rule="evenodd" d="M445.9,448.1H684.7v-15H445.9v15Z" class="g0_178"/>
<path fill-rule="evenodd" d="M445.9,463.2H684.7V448.1H445.9v15.1Z" class="g0_178"/>
<path fill-rule="evenodd" d="M445.9,478.2H684.7v-15H445.9v15Z" class="g0_178"/>
<path fill-rule="evenodd" d="M445.9,493.2H684.7v-15H445.9v15Z" class="g0_178"/>
<path fill-rule="evenodd" d="M445.9,508.5H684.7V493.2H445.9v15.3Z" class="g0_178"/>
<path fill-rule="evenodd" d="M445.9,523.5H684.7v-15H445.9v15Z" class="g0_178"/>
<path fill-rule="evenodd" d="M445.9,538.5H684.7v-15H445.9v15Z" class="g0_178"/>
<path fill-rule="evenodd" d="M445.9,553.6H684.7V538.5H445.9v15.1Z" class="g0_178"/>
<path fill-rule="evenodd" d="M445.6,568.6H684.4v-15H445.6v15Z" class="g0_178"/>
<path fill-rule="evenodd" d="M445.6,583.6H684.4v-15H445.6v15Z" class="g0_178"/>
<path fill-rule="evenodd" d="M445.6,598.7H684.4V583.6H445.6v15.1Z" class="g0_178"/>
<path fill-rule="evenodd" d="M445.6,613.7H684.4v-15H445.6v15Z" class="g0_178"/>
<path fill-rule="evenodd" d="M445.6,628.8H684.4V613.7H445.6v15.1Z" class="g0_178"/>
<path fill-rule="evenodd" d="M445.6,643.8H684.4v-15H445.6v15Z" class="g0_178"/>
<path fill-rule="evenodd" d="M445.6,658.8H684.4v-15H445.6v15Z" class="g0_178"/>
<path fill-rule="evenodd" d="M445.6,673.9H684.4V658.8H445.6v15.1Z" class="g0_178"/>
<path fill-rule="evenodd" d="M445.6,689.1H684V673.9H445.6v15.2Z" class="g0_178"/>
<path fill-rule="evenodd" d="M445.6,704.1H684v-15H445.6v15Z" class="g0_178"/>
<path fill-rule="evenodd" d="M445.2,719.1H684.7v-15H445.2v15Z" class="g0_178"/>
<path fill-rule="evenodd" d="M445.2,734.2H684.7V719.1H445.2v15.1Z" class="g0_178"/>
<path fill-rule="evenodd" d="M445.2,749.2H684.7v-15H445.2v15Z" class="g0_178"/>
<path fill-rule="evenodd" d="M445.2,764.2H684.7v-15H445.2v15Z" class="g0_178"/>
<path fill-rule="evenodd" d="M445.2,779.3H684V764.2H445.2v15.1Z" class="g0_178"/>
<path fill-rule="evenodd" d="M445.2,794.3H684v-15H445.2v15Z" class="g0_178"/>
<path fill-rule="evenodd" d="M445.2,809.3H684.7v-15H445.2v15Z" class="g0_178"/>
<path fill-rule="evenodd" d="M445.2,824.4H684.7V809.3H445.2v15.1Z" class="g0_178"/>
<path fill-rule="evenodd" d="M445.2,839.5H684.7V824.4H445.2v15.1Z" class="g0_178"/>
<path fill-rule="evenodd" d="M443.7,854.5H684.4v-15H443.7v15Z" class="g0_178"/>
<path fill-rule="evenodd" d="M443.7,869.7H684.4V854.5H443.7v15.2Z" class="g0_178"/>
<path fill-rule="evenodd" d="M443.7,884.7H684.4v-15H443.7v15Z" class="g0_178"/>
<path d="M434.2,146V914.9" class="g1_178"/>
</svg>