<?xml version="1.0" encoding="UTF-8" standalone="no"?>
<!DOCTYPE svg PUBLIC "-//W3C//DTD SVG 1.1//EN"
"http://www.w3.org/Graphics/SVG/1.1/DTD/svg11.dtd">
<svg viewBox="0 0 909 1285" version="1.1" xmlns="http://www.w3.org/2000/svg" xmlns:xlink="http://www.w3.org/1999/xlink">
<defs>
<style type="text/css"><![CDATA[
.g0_58{
fill: #FFFFFF;
}
.g1_58{
fill: none;
stroke: #000000;
stroke-width: 0.381;
stroke-linecap: butt;
stroke-linejoin: round;
}
]]></style>
</defs>
<path fill-rule="evenodd" d="M634.1,125.8h59.4V110H634.1v15.8Z" class="g0_58"/>
<path fill-rule="evenodd" d="M208.7,161.7H430.5v-15H208.7v15Z" class="g0_58"/>
<path fill-rule="evenodd" d="M190.7,176.9H430.2V161.7H190.7v15.2Z" class="g0_58"/>
<path fill-rule="evenodd" d="M190.7,192H430.2V176.9H190.7V192Z" class="g0_58"/>
<path fill-rule="evenodd" d="M190.7,207H430.2V192H190.7v15Z" class="g0_58"/>
<path fill-rule="evenodd" d="M190.7,222H429.8V207H190.7v15Z" class="g0_58"/>
<path fill-rule="evenodd" d="M190.7,237.1H429.8V222H190.7v15.1Z" class="g0_58"/>
<path fill-rule="evenodd" d="M190.3,252.1H430.5v-15H190.3v15Z" class="g0_58"/>
<path fill-rule="evenodd" d="M190.3,267.1H430.5v-15H190.3v15Z" class="g0_58"/>
<path fill-rule="evenodd" d="M190.3,282.2H430.5V267.1H190.3v15.1Z" class="g0_58"/>
<path fill-rule="evenodd" d="M190.3,297.2H430.5v-15H190.3v15Z" class="g0_58"/>
<path fill-rule="evenodd" d="M190.3,312.2H430.5v-15H190.3v15Z" class="g0_58"/>
<path fill-rule="evenodd" d="M190.3,327.3H430.5V312.2H190.3v15.1Z" class="g0_58"/>
<path fill-rule="evenodd" d="M190.7,342.5H430.2V327.3H190.7v15.2Z" class="g0_58"/>
<path fill-rule="evenodd" d="M190.7,357.6H430.2V342.5H190.7v15.1Z" class="g0_58"/>
<path fill-rule="evenodd" d="M190.3,372.6H429.4v-15H190.3v15Z" class="g0_58"/>
<path fill-rule="evenodd" d="M190.3,387.6H429.4v-15H190.3v15Z" class="g0_58"/>
<path fill-rule="evenodd" d="M190.7,402.7H430.2V387.6H190.7v15.1Z" class="g0_58"/>
<path fill-rule="evenodd" d="M190.7,417.7H430.2v-15H190.7v15Z" class="g0_58"/>
<path fill-rule="evenodd" d="M190.7,432.7H430.2v-15H190.7v15Z" class="g0_58"/>
<path fill-rule="evenodd" d="M190,447.8H429.4V432.7H190v15.1Z" class="g0_58"/>
<path fill-rule="evenodd" d="M190,462.8H429.4v-15H190v15Z" class="g0_58"/>
<path fill-rule="evenodd" d="M208.3,477.8H430.5v-15H208.3v15Z" class="g0_58"/>
<path fill-rule="evenodd" d="M208.3,492.9H430.5V477.8H208.3v15.1Z" class="g0_58"/>
<path fill-rule="evenodd" d="M189.6,507.9H429.8v-15H189.6v15Z" class="g0_58"/>
<path fill-rule="evenodd" d="M189.6,523.1H429.8V507.9H189.6v15.2Z" class="g0_58"/>
<path fill-rule="evenodd" d="M189.6,538.2H429.8V523.1H189.6v15.1Z" class="g0_58"/>
<path fill-rule="evenodd" d="M189.6,553.2H429.8v-15H189.6v15Z" class="g0_58"/>
<path fill-rule="evenodd" d="M207.9,568.2H430.5v-15H207.9v15Z" class="g0_58"/>
<path fill-rule="evenodd" d="M189.6,583.3H429.1V568.2H189.6v15.1Z" class="g0_58"/>
<path fill-rule="evenodd" d="M189.6,598.3H429.1v-15H189.6v15Z" class="g0_58"/>
<path fill-rule="evenodd" d="M189.6,613.4H429.1V598.3H189.6v15.1Z" class="g0_58"/>
<path fill-rule="evenodd" d="M188.9,628.4H429.1v-15H188.9v15Z" class="g0_58"/>
<path fill-rule="evenodd" d="M188.9,643.4H429.1v-15H188.9v15Z" class="g0_58"/>
<path fill-rule="evenodd" d="M188.9,658.5H429.1V643.4H188.9v15.1Z" class="g0_58"/>
<path fill-rule="evenodd" d="M188.9,673.5H429.1v-15H188.9v15Z" class="g0_58"/>
<path fill-rule="evenodd" d="M188.9,688.5H429.1v-15H188.9v15Z" class="g0_58"/>
<path fill-rule="evenodd" d="M188.9,703.7H429.1V688.5H188.9v15.2Z" class="g0_58"/>
<path fill-rule="evenodd" d="M188.5,718.8H428.3V703.7H188.5v15.1Z" class="g0_58"/>
<path fill-rule="evenodd" d="M188.5,733.8H428.3v-15H188.5v15Z" class="g0_58"/>
<path fill-rule="evenodd" d="M207.6,748.8H430.5v-15H207.6v15Z" class="g0_58"/>
<path fill-rule="evenodd" d="M188.9,763.9H429.1V748.8H188.9v15.1Z" class="g0_58"/>
<path fill-rule="evenodd" d="M188.9,778.9H429.1v-15H188.9v15Z" class="g0_58"/>
<path fill-rule="evenodd" d="M188.9,793.9H429.1v-15H188.9v15Z" class="g0_58"/>
<path fill-rule="evenodd" d="M188.9,809H429.1V793.9H188.9V809Z" class="g0_58"/>
<path fill-rule="evenodd" d="M188.9,824H429.1V809H188.9v15Z" class="g0_58"/>
<path fill-rule="evenodd" d="M189.2,839.1H428V824H189.2v15.1Z" class="g0_58"/>
<path fill-rule="evenodd" d="M189.2,854.1H428v-15H189.2v15Z" class="g0_58"/>
<path fill-rule="evenodd" d="M188.1,869.2H428.3V854.1H188.1v15.1Z" class="g0_58"/>
<path fill-rule="evenodd" d="M188.1,884.4H428.3V869.2H188.1v15.2Z" class="g0_58"/>
<path fill-rule="evenodd" d="M188.1,899.4H428.3v-15H188.1v15Z" class="g0_58"/>
<path fill-rule="evenodd" d="M190.7,914.4H430.5v-15H190.7v15Z" class="g0_58"/>
<path fill-rule="evenodd" d="M451.5,161.4H691.7V146.3H451.5v15.1Z" class="g0_58"/>
<path fill-rule="evenodd" d="M451.5,176.4H691.7v-15H451.5v15Z" class="g0_58"/>
<path fill-rule="evenodd" d="M450.7,192h241V176.8h-241V192Z" class="g0_58"/>
<path fill-rule="evenodd" d="M450.7,207h241V192h-241v15Z" class="g0_58"/>
<path fill-rule="evenodd" d="M450.7,222h241V207h-241v15Z" class="g0_58"/>
<path fill-rule="evenodd" d="M450.7,237.1h241V222h-241v15.1Z" class="g0_58"/>
<path fill-rule="evenodd" d="M450.7,252.1h241v-15h-241v15Z" class="g0_58"/>
<path fill-rule="evenodd" d="M450.7,267.1h241v-15h-241v15Z" class="g0_58"/>
<path fill-rule="evenodd" d="M450.7,282.2h241V267.1h-241v15.1Z" class="g0_58"/>
<path fill-rule="evenodd" d="M450.7,297.2h241v-15h-241v15Z" class="g0_58"/>
<path fill-rule="evenodd" d="M450.7,312.2h241v-15h-241v15Z" class="g0_58"/>
<path fill-rule="evenodd" d="M450.7,327.3H691.3V312.2H450.7v15.1Z" class="g0_58"/>
<path fill-rule="evenodd" d="M450.7,342.5H691.3V327.3H450.7v15.2Z" class="g0_58"/>
<path fill-rule="evenodd" d="M450.7,357.6H691.3V342.5H450.7v15.1Z" class="g0_58"/>
<path fill-rule="evenodd" d="M450.7,372.6H691.3v-15H450.7v15Z" class="g0_58"/>
<path fill-rule="evenodd" d="M450.7,387.6H690.9v-15H450.7v15Z" class="g0_58"/>
<path fill-rule="evenodd" d="M450.7,402.7H690.9V387.6H450.7v15.1Z" class="g0_58"/>
<path fill-rule="evenodd" d="M450.7,417.7H690.9v-15H450.7v15Z" class="g0_58"/>
<path fill-rule="evenodd" d="M450.7,432.7H690.9v-15H450.7v15Z" class="g0_58"/>
<path fill-rule="evenodd" d="M450.7,447.8H690.9V432.7H450.7v15.1Z" class="g0_58"/>
<path fill-rule="evenodd" d="M450,462.8H691.3v-15H450v15Z" class="g0_58"/>
<path fill-rule="evenodd" d="M450,477.8H691.3v-15H450v15Z" class="g0_58"/>
<path fill-rule="evenodd" d="M450,492.9H691.3V477.8H450v15.1Z" class="g0_58"/>
<path fill-rule="evenodd" d="M450,507.9H691.3v-15H450v15Z" class="g0_58"/>
<path fill-rule="evenodd" d="M450,523.1H691.3V507.9H450v15.2Z" class="g0_58"/>
<path fill-rule="evenodd" d="M450,538.2H691.3V523.1H450v15.1Z" class="g0_58"/>
<path fill-rule="evenodd" d="M450,553.2H691.3v-15H450v15Z" class="g0_58"/>
<path fill-rule="evenodd" d="M450,568.2H691.3v-15H450v15Z" class="g0_58"/>
<path fill-rule="evenodd" d="M450,583.3H691.3V568.2H450v15.1Z" class="g0_58"/>
<path fill-rule="evenodd" d="M450,598.3H691.3v-15H450v15Z" class="g0_58"/>
<path fill-rule="evenodd" d="M468.3,613.4H691.7V598.3H468.3v15.1Z" class="g0_58"/>
<path fill-rule="evenodd" d="M449.6,628.8h241V613.7h-241v15.1Z" class="g0_58"/>
<path fill-rule="evenodd" d="M449.6,643.8h241v-15h-241v15Z" class="g0_58"/>
<path fill-rule="evenodd" d="M449.6,658.8h241v-15h-241v15Z" class="g0_58"/>
<path fill-rule="evenodd" d="M449.6,673.9h241V658.8h-241v15.1Z" class="g0_58"/>
<path fill-rule="evenodd" d="M449.6,689.1h241V673.9h-241v15.2Z" class="g0_58"/>
<path fill-rule="evenodd" d="M449.3,704.1H690.6v-15H449.3v15Z" class="g0_58"/>
<path fill-rule="evenodd" d="M449.3,719.1H690.6v-15H449.3v15Z" class="g0_58"/>
<path fill-rule="evenodd" d="M449.3,734.2H690.6V719.1H449.3v15.1Z" class="g0_58"/>
<path fill-rule="evenodd" d="M449.3,749.2H690.6v-15H449.3v15Z" class="g0_58"/>
<path fill-rule="evenodd" d="M449.3,764.2H690.6v-15H449.3v15Z" class="g0_58"/>
<path fill-rule="evenodd" d="M449.3,779.3H690.6V764.2H449.3v15.1Z" class="g0_58"/>
<path fill-rule="evenodd" d="M449.6,794.3H690.2v-15H449.6v15Z" class="g0_58"/>
<path fill-rule="evenodd" d="M449.6,809.3H690.2v-15H449.6v15Z" class="g0_58"/>
<path fill-rule="evenodd" d="M467.2,824.4H691.7V809.3H467.2v15.1Z" class="g0_58"/>
<path fill-rule="evenodd" d="M449.3,839.5H689.5V824.4H449.3v15.1Z" class="g0_58"/>
<path fill-rule="evenodd" d="M449.3,854.5H689.5v-15H449.3v15Z" class="g0_58"/>
<path fill-rule="evenodd" d="M448.9,869.7H689.5V854.5H448.9v15.2Z" class="g0_58"/>
<path fill-rule="evenodd" d="M448.9,884.7H689.5v-15H448.9v15Z" class="g0_58"/>
<path fill-rule="evenodd" d="M448.9,899.8H689.5V884.7H448.9v15.1Z" class="g0_58"/>
<path fill-rule="evenodd" d="M429.1,932H693.5V914.4H429.1V932Z" class="g0_58"/>
<path d="M437.8,146.4V914.9" class="g1_58"/>
</svg>