<?xml version="1.0" encoding="UTF-8" standalone="no"?>
<!DOCTYPE svg PUBLIC "-//W3C//DTD SVG 1.1//EN"
"http://www.w3.org/Graphics/SVG/1.1/DTD/svg11.dtd">
<svg viewBox="0 0 909 1285" version="1.1" xmlns="http://www.w3.org/2000/svg" xmlns:xlink="http://www.w3.org/1999/xlink">
<defs>
<style type="text/css"><![CDATA[
.g0_313{
fill: #FFFFFF;
}
.g1_313{
fill: none;
stroke: #000000;
stroke-width: 0.381;
stroke-linecap: butt;
stroke-linejoin: round;
}
.g2_313{
fill: none;
stroke: #000000;
stroke-width: 0.763;
stroke-linecap: butt;
stroke-linejoin: round;
}
]]></style>
</defs>
<path fill-rule="evenodd" d="M274.5,131.1h498V110h-498v21.1Z" class="g0_313"/>
<path fill-rule="evenodd" d="M274.5,167H513.3V152H274.5v15Z" class="g0_313"/>
<path fill-rule="evenodd" d="M274.5,182.3H513.3V167H274.5v15.3Z" class="g0_313"/>
<path fill-rule="evenodd" d="M274.5,197.3H513.3v-15H274.5v15Z" class="g0_313"/>
<path fill-rule="evenodd" d="M274.5,212.3H513.3v-15H274.5v15Z" class="g0_313"/>
<path fill-rule="evenodd" d="M274.5,227.4H513.3V212.3H274.5v15.1Z" class="g0_313"/>
<path fill-rule="evenodd" d="M274.2,242.4H512.9v-15H274.2v15Z" class="g0_313"/>
<path fill-rule="evenodd" d="M274.2,257.4H512.9v-15H274.2v15Z" class="g0_313"/>
<path fill-rule="evenodd" d="M274.2,272.5H512.9V257.4H274.2v15.1Z" class="g0_313"/>
<path fill-rule="evenodd" d="M274.2,287.5H513.3v-15H274.2v15Z" class="g0_313"/>
<path fill-rule="evenodd" d="M274.2,302.5H513.3v-15H274.2v15Z" class="g0_313"/>
<path fill-rule="evenodd" d="M274.2,317.6H512.9V302.5H274.2v15.1Z" class="g0_313"/>
<path fill-rule="evenodd" d="M274.2,332.6H512.9v-15H274.2v15Z" class="g0_313"/>
<path fill-rule="evenodd" d="M274.2,347.8H512.9V332.6H274.2v15.2Z" class="g0_313"/>
<path fill-rule="evenodd" d="M273.8,362.9H512.5V347.8H273.8v15.1Z" class="g0_313"/>
<path fill-rule="evenodd" d="M273.8,377.9H512.5v-15H273.8v15Z" class="g0_313"/>
<path fill-rule="evenodd" d="M273.1,393H512.2V377.9H273.1V393Z" class="g0_313"/>
<path fill-rule="evenodd" d="M273.1,408H512.2V393H273.1v15Z" class="g0_313"/>
<path fill-rule="evenodd" d="M273.1,423H512.2V408H273.1v15Z" class="g0_313"/>
<path fill-rule="evenodd" d="M273.1,438.1H512.2V423H273.1v15.1Z" class="g0_313"/>
<path fill-rule="evenodd" d="M292.1,453.1H513.3v-15H292.1v15Z" class="g0_313"/>
<path fill-rule="evenodd" d="M273.8,468.1H513.3v-15H273.8v15Z" class="g0_313"/>
<path fill-rule="evenodd" d="M533.4,167H772.5V152H533.4v15Z" class="g0_313"/>
<path fill-rule="evenodd" d="M533.4,182.3H772.5V167H533.4v15.3Z" class="g0_313"/>
<path fill-rule="evenodd" d="M533.4,197.3H772.5v-15H533.4v15Z" class="g0_313"/>
<path fill-rule="evenodd" d="M552.1,212.3H772.5v-15H552.1v15Z" class="g0_313"/>
<path fill-rule="evenodd" d="M533.8,227.4H771.4V212.3H533.8v15.1Z" class="g0_313"/>
<path fill-rule="evenodd" d="M533.8,242.4H771.4v-15H533.8v15Z" class="g0_313"/>
<path fill-rule="evenodd" d="M533.1,257.4H772.2v-15H533.1v15Z" class="g0_313"/>
<path fill-rule="evenodd" d="M533.1,272.5H772.2V257.4H533.1v15.1Z" class="g0_313"/>
<path fill-rule="evenodd" d="M533.1,287.5H772.2v-15H533.1v15Z" class="g0_313"/>
<path fill-rule="evenodd" d="M533.1,302.5H772.2v-15H533.1v15Z" class="g0_313"/>
<path fill-rule="evenodd" d="M532.7,317.6H772.5V302.5H532.7v15.1Z" class="g0_313"/>
<path fill-rule="evenodd" d="M532.7,332.6H772.5v-15H532.7v15Z" class="g0_313"/>
<path fill-rule="evenodd" d="M532.7,347.8H772.5V332.6H532.7v15.2Z" class="g0_313"/>
<path fill-rule="evenodd" d="M532.7,362.9H772.5V347.8H532.7v15.1Z" class="g0_313"/>
<path fill-rule="evenodd" d="M532.7,377.9H772.5v-15H532.7v15Z" class="g0_313"/>
<path fill-rule="evenodd" d="M533.4,393h238V377.9h-238V393Z" class="g0_313"/>
<path fill-rule="evenodd" d="M533.4,408h238V393h-238v15Z" class="g0_313"/>
<path fill-rule="evenodd" d="M532.7,423H771.4V408H532.7v15Z" class="g0_313"/>
<path fill-rule="evenodd" d="M532.7,438.1H771.4V423H532.7v15.1Z" class="g0_313"/>
<path fill-rule="evenodd" d="M532.7,453.1H771.4v-15H532.7v15Z" class="g0_313"/>
<path fill-rule="evenodd" d="M532.7,468.1H771.1v-15H532.7v15Z" class="g0_313"/>
<path fill-rule="evenodd" d="M532.7,483.2H771.1V468.1H532.7v15.1Z" class="g0_313"/>
<path fill-rule="evenodd" d="M273.1,588.6H511.8V573.9H273.1v14.7Z" class="g0_313"/>
<path fill-rule="evenodd" d="M273.1,603.3H511.8V588.6H273.1v14.7Z" class="g0_313"/>
<path fill-rule="evenodd" d="M272.7,617.9H511.8V603.3H272.7v14.6Z" class="g0_313"/>
<path fill-rule="evenodd" d="M272.7,632.6H511.8V617.9H272.7v14.7Z" class="g0_313"/>
<path fill-rule="evenodd" d="M272.7,647.3H511.8V632.6H272.7v14.7Z" class="g0_313"/>
<path fill-rule="evenodd" d="M272.3,661.9H511.1V647.3H272.3v14.6Z" class="g0_313"/>
<path fill-rule="evenodd" d="M272.3,676.6H511.1V661.9H272.3v14.7Z" class="g0_313"/>
<path fill-rule="evenodd" d="M272.3,691.3H511.1V676.6H272.3v14.7Z" class="g0_313"/>
<path fill-rule="evenodd" d="M291,705.9H511.8V691.3H291v14.6Z" class="g0_313"/>
<path fill-rule="evenodd" d="M291,720.6H511.8V705.9H291v14.7Z" class="g0_313"/>
<path fill-rule="evenodd" d="M272,735.3H511.1V720.6H272v14.7Z" class="g0_313"/>
<path fill-rule="evenodd" d="M272,749.9H511.1V735.3H272v14.6Z" class="g0_313"/>
<path fill-rule="evenodd" d="M272,764.6H511.1V749.9H272v14.7Z" class="g0_313"/>
<path fill-rule="evenodd" d="M272,779.3H511.1V764.6H272v14.7Z" class="g0_313"/>
<path fill-rule="evenodd" d="M272,793.9H511.1V779.3H272v14.6Z" class="g0_313"/>
<path fill-rule="evenodd" d="M272,808.6H511.1V793.9H272v14.7Z" class="g0_313"/>
<path fill-rule="evenodd" d="M272.3,823.6H511.1V809H272.3v14.6Z" class="g0_313"/>
<path fill-rule="evenodd" d="M272.3,838.4H511.1V823.6H272.3v14.8Z" class="g0_313"/>
<path fill-rule="evenodd" d="M272.3,853H511.1V838.4H272.3V853Z" class="g0_313"/>
<path fill-rule="evenodd" d="M272,867.7H510.7V853H272v14.7Z" class="g0_313"/>
<path fill-rule="evenodd" d="M272,882.4H510.7V867.7H272v14.7Z" class="g0_313"/>
<path fill-rule="evenodd" d="M272,897H510.7V882.4H272V897Z" class="g0_313"/>
<path fill-rule="evenodd" d="M272,911.7H510.7V897H272v14.7Z" class="g0_313"/>
<path fill-rule="evenodd" d="M273.4,926.4H511.8V911.7H273.4v14.7Z" class="g0_313"/>
<path fill-rule="evenodd" d="M532.3,590H770.7V575.4H532.3V590Z" class="g0_313"/>
<path fill-rule="evenodd" d="M532.3,604.7H770.7V590H532.3v14.7Z" class="g0_313"/>
<path fill-rule="evenodd" d="M532.3,619.4H770.7V604.7H532.3v14.7Z" class="g0_313"/>
<path fill-rule="evenodd" d="M532.3,634.1H770.7V619.4H532.3v14.7Z" class="g0_313"/>
<path fill-rule="evenodd" d="M530.9,649.1H770.7V634.4H530.9v14.7Z" class="g0_313"/>
<path fill-rule="evenodd" d="M530.9,663.8H770.7V649.1H530.9v14.7Z" class="g0_313"/>
<path fill-rule="evenodd" d="M530.9,678.4H770.7V663.8H530.9v14.6Z" class="g0_313"/>
<path fill-rule="evenodd" d="M530.9,693.1H770.7V678.4H530.9v14.7Z" class="g0_313"/>
<path fill-rule="evenodd" d="M530.9,707.8H770.7V693.1H530.9v14.7Z" class="g0_313"/>
<path fill-rule="evenodd" d="M530.9,722.4H770.7V707.8H530.9v14.6Z" class="g0_313"/>
<path fill-rule="evenodd" d="M530.9,737.1H770.7V722.4H530.9v14.7Z" class="g0_313"/>
<path fill-rule="evenodd" d="M530.9,751.8H770.7V737.1H530.9v14.7Z" class="g0_313"/>
<path fill-rule="evenodd" d="M530.9,766.4H770.7V751.8H530.9v14.6Z" class="g0_313"/>
<path fill-rule="evenodd" d="M530.9,781.1H770.7V766.4H530.9v14.7Z" class="g0_313"/>
<path fill-rule="evenodd" d="M531.2,795.8H770.3V781.1H531.2v14.7Z" class="g0_313"/>
<path fill-rule="evenodd" d="M531.2,810.4H770.3V795.8H531.2v14.6Z" class="g0_313"/>
<path fill-rule="evenodd" d="M531.2,825.1H770.3V810.4H531.2v14.7Z" class="g0_313"/>
<path fill-rule="evenodd" d="M531.2,839.8H770.3V825.1H531.2v14.7Z" class="g0_313"/>
<path fill-rule="evenodd" d="M531.6,854.9H770.3V840.2H531.6v14.7Z" class="g0_313"/>
<path fill-rule="evenodd" d="M531.6,869.5H770.3V854.9H531.6v14.6Z" class="g0_313"/>
<path fill-rule="evenodd" d="M507.8,941H772.5V923.4H507.8V941Z" class="g0_313"/>
<path d="M213.6,90.6V994M521.9,153.5V484.3M212.5,770.8v54.6" class="g1_313"/>
<path d="M519,571.6V918.9" class="g2_313"/>
</svg>