<?xml version="1.0" encoding="UTF-8" standalone="no"?>
<!DOCTYPE svg PUBLIC "-//W3C//DTD SVG 1.1//EN"
"http://www.w3.org/Graphics/SVG/1.1/DTD/svg11.dtd">
<svg viewBox="0 0 909 1285" version="1.1" xmlns="http://www.w3.org/2000/svg" xmlns:xlink="http://www.w3.org/1999/xlink">
<defs>
<style type="text/css"><![CDATA[
.g0_82{
fill: #FFFFFF;
}
.g1_82{
fill: none;
stroke: #000000;
stroke-width: 0.381;
stroke-linecap: butt;
stroke-linejoin: round;
}
]]></style>
</defs>
<path fill-rule="evenodd" d="M636.3,125.8h59.4V110H636.3v15.8Z" class="g0_82"/>
<path fill-rule="evenodd" d="M183,162.3H422.5V147.1H183v15.2Z" class="g0_82"/>
<path fill-rule="evenodd" d="M183,177.3H422.5v-15H183v15Z" class="g0_82"/>
<path fill-rule="evenodd" d="M183,192.3H422.5v-15H183v15Z" class="g0_82"/>
<path fill-rule="evenodd" d="M182.6,207.4H422.5V192.3H182.6v15.1Z" class="g0_82"/>
<path fill-rule="evenodd" d="M182.6,222.4H422.5v-15H182.6v15Z" class="g0_82"/>
<path fill-rule="evenodd" d="M201.3,237.4H422.5v-15H201.3v15Z" class="g0_82"/>
<path fill-rule="evenodd" d="M183,252.5H422.5V237.4H183v15.1Z" class="g0_82"/>
<path fill-rule="evenodd" d="M183,267.5H422.5v-15H183v15Z" class="g0_82"/>
<path fill-rule="evenodd" d="M183,282.5H422.5v-15H183v15Z" class="g0_82"/>
<path fill-rule="evenodd" d="M183,297.6H422.5V282.5H183v15.1Z" class="g0_82"/>
<path fill-rule="evenodd" d="M183,312.6H422.5v-15H183v15Z" class="g0_82"/>
<path fill-rule="evenodd" d="M183,327.8H422.5V312.6H183v15.2Z" class="g0_82"/>
<path fill-rule="evenodd" d="M183,342.9H422.5V327.8H183v15.1Z" class="g0_82"/>
<path fill-rule="evenodd" d="M183,357.9H422.5v-15H183v15Z" class="g0_82"/>
<path fill-rule="evenodd" d="M183,373H422.1V357.9H183V373Z" class="g0_82"/>
<path fill-rule="evenodd" d="M183,388H422.1V373H183v15Z" class="g0_82"/>
<path fill-rule="evenodd" d="M183,403H422.1V388H183v15Z" class="g0_82"/>
<path fill-rule="evenodd" d="M183,418.1H422.1V403H183v15.1Z" class="g0_82"/>
<path fill-rule="evenodd" d="M182.6,433.1H422.5v-15H182.6v15Z" class="g0_82"/>
<path fill-rule="evenodd" d="M182.6,448.1H422.5v-15H182.6v15Z" class="g0_82"/>
<path fill-rule="evenodd" d="M182.6,463.2H422.5V448.1H182.6v15.1Z" class="g0_82"/>
<path fill-rule="evenodd" d="M182.6,478.2H422.1v-15H182.6v15Z" class="g0_82"/>
<path fill-rule="evenodd" d="M182.6,493.2H422.1v-15H182.6v15Z" class="g0_82"/>
<path fill-rule="evenodd" d="M182.6,508.5H422.1V493.2H182.6v15.3Z" class="g0_82"/>
<path fill-rule="evenodd" d="M182.6,523.5H422.1v-15H182.6v15Z" class="g0_82"/>
<path fill-rule="evenodd" d="M182.6,538.5H422.1v-15H182.6v15Z" class="g0_82"/>
<path fill-rule="evenodd" d="M182.6,553.6H422.1V538.5H182.6v15.1Z" class="g0_82"/>
<path fill-rule="evenodd" d="M183,568.6H421.7v-15H183v15Z" class="g0_82"/>
<path fill-rule="evenodd" d="M183,583.6H421.7v-15H183v15Z" class="g0_82"/>
<path fill-rule="evenodd" d="M200.6,598.7H422.5V583.6H200.6v15.1Z" class="g0_82"/>
<path fill-rule="evenodd" d="M182.3,613.7H421.4v-15H182.3v15Z" class="g0_82"/>
<path fill-rule="evenodd" d="M182.3,628.8H421.4V613.7H182.3v15.1Z" class="g0_82"/>
<path fill-rule="evenodd" d="M182.3,643.8H421.4v-15H182.3v15Z" class="g0_82"/>
<path fill-rule="evenodd" d="M182.3,658.8H421.7v-15H182.3v15Z" class="g0_82"/>
<path fill-rule="evenodd" d="M182.3,673.9H421.7V658.8H182.3v15.1Z" class="g0_82"/>
<path fill-rule="evenodd" d="M182.3,689.1H422.1V673.9H182.3v15.2Z" class="g0_82"/>
<path fill-rule="evenodd" d="M182.3,704.1H422.1v-15H182.3v15Z" class="g0_82"/>
<path fill-rule="evenodd" d="M182.3,719.1H422.1v-15H182.3v15Z" class="g0_82"/>
<path fill-rule="evenodd" d="M182.3,734.2H422.1V719.1H182.3v15.1Z" class="g0_82"/>
<path fill-rule="evenodd" d="M182.3,749.2H422.1v-15H182.3v15Z" class="g0_82"/>
<path fill-rule="evenodd" d="M182.3,764.2H422.1v-15H182.3v15Z" class="g0_82"/>
<path fill-rule="evenodd" d="M182.3,779.3H422.1V764.2H182.3v15.1Z" class="g0_82"/>
<path fill-rule="evenodd" d="M182.3,794.3H422.1v-15H182.3v15Z" class="g0_82"/>
<path fill-rule="evenodd" d="M182.6,809.3H422.1v-15H182.6v15Z" class="g0_82"/>
<path fill-rule="evenodd" d="M182.6,824.4H422.1V809.3H182.6v15.1Z" class="g0_82"/>
<path fill-rule="evenodd" d="M182.6,839.5H421.4V824.4H182.6v15.1Z" class="g0_82"/>
<path fill-rule="evenodd" d="M182.6,854.5H421.4v-15H182.6v15Z" class="g0_82"/>
<path fill-rule="evenodd" d="M183.4,869.7h238V854.5h-238v15.2Z" class="g0_82"/>
<path fill-rule="evenodd" d="M183.4,884.7h238v-15h-238v15Z" class="g0_82"/>
<path fill-rule="evenodd" d="M183,899.8H421.7V884.7H183v15.1Z" class="g0_82"/>
<path fill-rule="evenodd" d="M442.6,161.7H682.9v-15H442.6v15Z" class="g0_82"/>
<path fill-rule="evenodd" d="M442.6,176.9H682.9V161.7H442.6v15.2Z" class="g0_82"/>
<path fill-rule="evenodd" d="M442.6,192H682.9V176.9H442.6V192Z" class="g0_82"/>
<path fill-rule="evenodd" d="M443,207H682.9V192H443v15Z" class="g0_82"/>
<path fill-rule="evenodd" d="M443,222H682.9V207H443v15Z" class="g0_82"/>
<path fill-rule="evenodd" d="M442.6,237.1H683.3V222H442.6v15.1Z" class="g0_82"/>
<path fill-rule="evenodd" d="M442.6,252.1H683.3v-15H442.6v15Z" class="g0_82"/>
<path fill-rule="evenodd" d="M442.6,267.1H683.3v-15H442.6v15Z" class="g0_82"/>
<path fill-rule="evenodd" d="M442.6,282.5H682.9v-15H442.6v15Z" class="g0_82"/>
<path fill-rule="evenodd" d="M442.6,297.6H682.9V282.5H442.6v15.1Z" class="g0_82"/>
<path fill-rule="evenodd" d="M442.6,312.6h241v-15h-241v15Z" class="g0_82"/>
<path fill-rule="evenodd" d="M442.6,327.8h241V312.6h-241v15.2Z" class="g0_82"/>
<path fill-rule="evenodd" d="M442.6,342.9h241V327.8h-241v15.1Z" class="g0_82"/>
<path fill-rule="evenodd" d="M442.6,357.9h241v-15h-241v15Z" class="g0_82"/>
<path fill-rule="evenodd" d="M442.6,373h241V357.9h-241V373Z" class="g0_82"/>
<path fill-rule="evenodd" d="M442.6,388h241V373h-241v15Z" class="g0_82"/>
<path fill-rule="evenodd" d="M441.9,403h241V388h-241v15Z" class="g0_82"/>
<path fill-rule="evenodd" d="M441.9,418.1h241V403h-241v15.1Z" class="g0_82"/>
<path fill-rule="evenodd" d="M441.9,433.1h241v-15h-241v15Z" class="g0_82"/>
<path fill-rule="evenodd" d="M441.9,448.1h241v-15h-241v15Z" class="g0_82"/>
<path fill-rule="evenodd" d="M441.9,463.2h241V448.1h-241v15.1Z" class="g0_82"/>
<path fill-rule="evenodd" d="M441.9,478.2h241v-15h-241v15Z" class="g0_82"/>
<path fill-rule="evenodd" d="M441.9,493.2h241v-15h-241v15Z" class="g0_82"/>
<path fill-rule="evenodd" d="M441.9,508.5h241V493.2h-241v15.3Z" class="g0_82"/>
<path fill-rule="evenodd" d="M441.9,523.5h241v-15h-241v15Z" class="g0_82"/>
<path fill-rule="evenodd" d="M441.9,538.5h241v-15h-241v15Z" class="g0_82"/>
<path fill-rule="evenodd" d="M441.9,553.6h241V538.5h-241v15.1Z" class="g0_82"/>
<path fill-rule="evenodd" d="M441.9,568.6h241v-15h-241v15Z" class="g0_82"/>
<path fill-rule="evenodd" d="M441.9,583.6h241v-15h-241v15Z" class="g0_82"/>
<path fill-rule="evenodd" d="M441.9,598.7h241V583.6h-241v15.1Z" class="g0_82"/>
<path fill-rule="evenodd" d="M442.6,613.7H682.5v-15H442.6v15Z" class="g0_82"/>
<path fill-rule="evenodd" d="M442.6,628.8H682.5V613.7H442.6v15.1Z" class="g0_82"/>
<path fill-rule="evenodd" d="M442.6,644.2H682.2V629.1H442.6v15.1Z" class="g0_82"/>
<path fill-rule="evenodd" d="M442.6,659.2H682.2v-15H442.6v15Z" class="g0_82"/>
<path fill-rule="evenodd" d="M441.9,674.4H682.2V659.2H441.9v15.2Z" class="g0_82"/>
<path fill-rule="evenodd" d="M441.9,689.4H682.2v-15H441.9v15Z" class="g0_82"/>
<path fill-rule="evenodd" d="M442.3,704.5H682.5V689.4H442.3v15.1Z" class="g0_82"/>
<path fill-rule="evenodd" d="M442.3,719.5H682.5v-15H442.3v15Z" class="g0_82"/>
<path fill-rule="evenodd" d="M442.3,734.5H682.5v-15H442.3v15Z" class="g0_82"/>
<path fill-rule="evenodd" d="M442.3,749.6H682.5V734.5H442.3v15.1Z" class="g0_82"/>
<path fill-rule="evenodd" d="M461,764.6H683.6v-15H461v15Z" class="g0_82"/>
<path fill-rule="evenodd" d="M442.3,779.6H682.9v-15H442.3v15Z" class="g0_82"/>
<path fill-rule="evenodd" d="M442.3,794.7H682.9V779.6H442.3v15.1Z" class="g0_82"/>
<path fill-rule="evenodd" d="M441.9,809.7H683.3v-15H441.9v15Z" class="g0_82"/>
<path fill-rule="evenodd" d="M441.9,824.7H683.3v-15H441.9v15Z" class="g0_82"/>
<path fill-rule="evenodd" d="M441.9,839.8H683.3V824.7H441.9v15.1Z" class="g0_82"/>
<path fill-rule="evenodd" d="M441.9,855H683.3V839.8H441.9V855Z" class="g0_82"/>
<path fill-rule="evenodd" d="M441.9,870.1H683.3V855H441.9v15.1Z" class="g0_82"/>
<path fill-rule="evenodd" d="M442.3,885.1H682.5v-15H442.3v15Z" class="g0_82"/>
<path fill-rule="evenodd" d="M442.3,900.1H682.5v-15H442.3v15Z" class="g0_82"/>
<path fill-rule="evenodd" d="M422.5,933.1H695.7V915.5H422.5v17.6Z" class="g0_82"/>
<path d="M430.8,146.4V915.3" class="g1_82"/>
</svg>