<?xml version="1.0" encoding="UTF-8" standalone="no"?>
<!DOCTYPE svg PUBLIC "-//W3C//DTD SVG 1.1//EN"
"http://www.w3.org/Graphics/SVG/1.1/DTD/svg11.dtd">
<svg viewBox="0 0 909 1285" version="1.1" xmlns="http://www.w3.org/2000/svg" xmlns:xlink="http://www.w3.org/1999/xlink">
<defs>
<style type="text/css"><![CDATA[
.g0_305{
fill: #FFFFFF;
}
.g1_305{
fill: none;
stroke: #000000;
stroke-width: 1.833;
stroke-linecap: butt;
stroke-linejoin: round;
}
.g2_305{
fill: none;
stroke: #000000;
stroke-width: 0.381;
stroke-linecap: butt;
stroke-linejoin: round;
}
]]></style>
</defs>
<path fill-rule="evenodd" d="M260.4,131.1H761V110H260.4v21.1Z" class="g0_305"/>
<path fill-rule="evenodd" d="M260.4,167.4H444.8V152.7H260.4v14.7Z" class="g0_305"/>
<path fill-rule="evenodd" d="M260.4,182.1H444.8V167.4H260.4v14.7Z" class="g0_305"/>
<path fill-rule="evenodd" d="M259.6,196.7h241V182.1h-241v14.6Z" class="g0_305"/>
<path fill-rule="evenodd" d="M259.6,211.4h241V196.7h-241v14.7Z" class="g0_305"/>
<path fill-rule="evenodd" d="M259.6,226.1h241V211.4h-241v14.7Z" class="g0_305"/>
<path fill-rule="evenodd" d="M259.6,240.7h241V226.1h-241v14.6Z" class="g0_305"/>
<path fill-rule="evenodd" d="M259.6,255.4h241V240.7h-241v14.7Z" class="g0_305"/>
<path fill-rule="evenodd" d="M259.6,270.1h241V255.4h-241v14.7Z" class="g0_305"/>
<path fill-rule="evenodd" d="M259.6,284.7h241V270.1h-241v14.6Z" class="g0_305"/>
<path fill-rule="evenodd" d="M259.6,299.4h241V284.7h-241v14.7Z" class="g0_305"/>
<path fill-rule="evenodd" d="M259.6,314.1H499.9V299.4H259.6v14.7Z" class="g0_305"/>
<path fill-rule="evenodd" d="M259.6,328.7H499.9V314.1H259.6v14.6Z" class="g0_305"/>
<path fill-rule="evenodd" d="M259.6,343.4H499.9V328.7H259.6v14.7Z" class="g0_305"/>
<path fill-rule="evenodd" d="M259.6,358.1H499.9V343.4H259.6v14.7Z" class="g0_305"/>
<path fill-rule="evenodd" d="M259.6,372.8H499.9V358.1H259.6v14.7Z" class="g0_305"/>
<path fill-rule="evenodd" d="M259.6,387.5H499.9V372.8H259.6v14.7Z" class="g0_305"/>
<path fill-rule="evenodd" d="M259.6,402.1H499.9V387.5H259.6v14.6Z" class="g0_305"/>
<path fill-rule="evenodd" d="M259.6,416.8H499.9V402.1H259.6v14.7Z" class="g0_305"/>
<path fill-rule="evenodd" d="M259.3,431.5H500.6V416.8H259.3v14.7Z" class="g0_305"/>
<path fill-rule="evenodd" d="M259.3,446.1H500.6V431.5H259.3v14.6Z" class="g0_305"/>
<path fill-rule="evenodd" d="M259.3,460.8H500.6V446.1H259.3v14.7Z" class="g0_305"/>
<path fill-rule="evenodd" d="M259.3,475.5H500.6V460.8H259.3v14.7Z" class="g0_305"/>
<path fill-rule="evenodd" d="M259.3,490.1H500.6V475.5H259.3v14.6Z" class="g0_305"/>
<path fill-rule="evenodd" d="M258.9,505.2H499.5V490.5H258.9v14.7Z" class="g0_305"/>
<path fill-rule="evenodd" d="M258.9,519.8H499.5V505.2H258.9v14.6Z" class="g0_305"/>
<path fill-rule="evenodd" d="M258.9,534.5H499.5V519.8H258.9v14.7Z" class="g0_305"/>
<path fill-rule="evenodd" d="M258.9,549.2H499.5V534.5H258.9v14.7Z" class="g0_305"/>
<path fill-rule="evenodd" d="M259.3,563.8H472.7V549.2H259.3v14.6Z" class="g0_305"/>
<path fill-rule="evenodd" d="M259.3,578.5H472.7V563.8H259.3v14.7Z" class="g0_305"/>
<path fill-rule="evenodd" d="M258.5,593.2H500.6V578.5H258.5v14.7Z" class="g0_305"/>
<path fill-rule="evenodd" d="M258.5,607.9H500.6V593.2H258.5v14.7Z" class="g0_305"/>
<path fill-rule="evenodd" d="M258.5,622.5H500.6V607.9H258.5v14.6Z" class="g0_305"/>
<path fill-rule="evenodd" d="M258.5,637.2H500.6V622.5H258.5v14.7Z" class="g0_305"/>
<path fill-rule="evenodd" d="M258.5,651.9H500.6V637.2H258.5v14.7Z" class="g0_305"/>
<path fill-rule="evenodd" d="M258.9,666.5H500.6V651.9H258.9v14.6Z" class="g0_305"/>
<path fill-rule="evenodd" d="M258.9,681.2H500.6V666.5H258.9v14.7Z" class="g0_305"/>
<path fill-rule="evenodd" d="M258.9,695.9H500.6V681.2H258.9v14.7Z" class="g0_305"/>
<path fill-rule="evenodd" d="M258.9,710.5H500.6V695.9H258.9v14.6Z" class="g0_305"/>
<path fill-rule="evenodd" d="M258.9,725.2H500.6V710.5H258.9v14.7Z" class="g0_305"/>
<path fill-rule="evenodd" d="M258.9,739.9H500.6V725.2H258.9v14.7Z" class="g0_305"/>
<path fill-rule="evenodd" d="M258.9,754.5H498.4V739.9H258.9v14.6Z" class="g0_305"/>
<path fill-rule="evenodd" d="M258.9,769.2H498.4V754.5H258.9v14.7Z" class="g0_305"/>
<path fill-rule="evenodd" d="M258.9,783.9H498.4V769.2H258.9v14.7Z" class="g0_305"/>
<path fill-rule="evenodd" d="M258.9,798.5H498.4V783.9H258.9v14.6Z" class="g0_305"/>
<path fill-rule="evenodd" d="M258.9,813.2H498.4V798.5H258.9v14.7Z" class="g0_305"/>
<path fill-rule="evenodd" d="M258.9,828.2H472.7V813.6H258.9v14.6Z" class="g0_305"/>
<path fill-rule="evenodd" d="M258.9,842.9H472.7V828.2H258.9v14.7Z" class="g0_305"/>
<path fill-rule="evenodd" d="M258.5,858H499.1V843.3H258.5V858Z" class="g0_305"/>
<path fill-rule="evenodd" d="M258.5,872.6H499.1V858H258.5v14.6Z" class="g0_305"/>
<path fill-rule="evenodd" d="M258.5,887.3H499.1V872.6H258.5v14.7Z" class="g0_305"/>
<path fill-rule="evenodd" d="M258.5,902H499.1V887.3H258.5V902Z" class="g0_305"/>
<path fill-rule="evenodd" d="M260.4,916.6H499.9V902H260.4v14.6Z" class="g0_305"/>
<path fill-rule="evenodd" d="M520.4,167.4H760.2V152.7H520.4v14.7Z" class="g0_305"/>
<path fill-rule="evenodd" d="M520.4,182.1H760.2V167.4H520.4v14.7Z" class="g0_305"/>
<path fill-rule="evenodd" d="M520.4,196.7H760.2V182.1H520.4v14.6Z" class="g0_305"/>
<path fill-rule="evenodd" d="M520.4,211.8H733.1V197.1H520.4v14.7Z" class="g0_305"/>
<path fill-rule="evenodd" d="M520.4,226.4H733.1V211.8H520.4v14.6Z" class="g0_305"/>
<path fill-rule="evenodd" d="M520,241.1H761V226.4H520v14.7Z" class="g0_305"/>
<path fill-rule="evenodd" d="M520,255.8H761V241.1H520v14.7Z" class="g0_305"/>
<path fill-rule="evenodd" d="M520,270.4H761V255.8H520v14.6Z" class="g0_305"/>
<path fill-rule="evenodd" d="M520,285.1H761V270.4H520v14.7Z" class="g0_305"/>
<path fill-rule="evenodd" d="M520,299.8H761V285.1H520v14.7Z" class="g0_305"/>
<path fill-rule="evenodd" d="M520,314.4H761V299.8H520v14.6Z" class="g0_305"/>
<path fill-rule="evenodd" d="M520,329.1H761V314.4H520v14.7Z" class="g0_305"/>
<path fill-rule="evenodd" d="M520,343.8H761V329.1H520v14.7Z" class="g0_305"/>
<path fill-rule="evenodd" d="M519.3,358.5H761V343.8H519.3v14.7Z" class="g0_305"/>
<path fill-rule="evenodd" d="M519.3,373.2H761V358.5H519.3v14.7Z" class="g0_305"/>
<path fill-rule="evenodd" d="M519.3,387.8H761V373.2H519.3v14.6Z" class="g0_305"/>
<path fill-rule="evenodd" d="M519.3,402.5H761V387.8H519.3v14.7Z" class="g0_305"/>
<path fill-rule="evenodd" d="M519.3,417.2H761V402.5H519.3v14.7Z" class="g0_305"/>
<path fill-rule="evenodd" d="M519.3,431.8H761V417.2H519.3v14.6Z" class="g0_305"/>
<path fill-rule="evenodd" d="M519.7,446.9H761V432.2H519.7v14.7Z" class="g0_305"/>
<path fill-rule="evenodd" d="M519.7,461.5H761V446.9H519.7v14.6Z" class="g0_305"/>
<path fill-rule="evenodd" d="M519.7,476.2H761V461.5H519.7v14.7Z" class="g0_305"/>
<path fill-rule="evenodd" d="M519.7,490.9H761V476.2H519.7v14.7Z" class="g0_305"/>
<path fill-rule="evenodd" d="M519.7,505.5H761V490.9H519.7v14.6Z" class="g0_305"/>
<path fill-rule="evenodd" d="M519.7,520.2H761V505.5H519.7v14.7Z" class="g0_305"/>
<path fill-rule="evenodd" d="M518.9,535.2H761V520.6H518.9v14.6Z" class="g0_305"/>
<path fill-rule="evenodd" d="M518.9,549.9H761V535.2H518.9v14.7Z" class="g0_305"/>
<path fill-rule="evenodd" d="M518.9,564.6H761V549.9H518.9v14.7Z" class="g0_305"/>
<path fill-rule="evenodd" d="M518.9,579.2H761V564.6H518.9v14.6Z" class="g0_305"/>
<path fill-rule="evenodd" d="M518.9,593.9H761V579.2H518.9v14.7Z" class="g0_305"/>
<path fill-rule="evenodd" d="M518.6,608.6H759.5V593.9H518.6v14.7Z" class="g0_305"/>
<path fill-rule="evenodd" d="M518.6,623.3H759.5V608.6H518.6v14.7Z" class="g0_305"/>
<path fill-rule="evenodd" d="M518.6,637.9H759.5V623.3H518.6v14.6Z" class="g0_305"/>
<path fill-rule="evenodd" d="M518.6,652.6H759.5V637.9H518.6v14.7Z" class="g0_305"/>
<path fill-rule="evenodd" d="M518.6,667.3H759.5V652.6H518.6v14.7Z" class="g0_305"/>
<path fill-rule="evenodd" d="M518.6,681.9H759.5V667.3H518.6v14.6Z" class="g0_305"/>
<path fill-rule="evenodd" d="M519.7,696.6H733.1V681.9H519.7v14.7Z" class="g0_305"/>
<path fill-rule="evenodd" d="M519.7,711.3H733.1V696.6H519.7v14.7Z" class="g0_305"/>
<path fill-rule="evenodd" d="M518.9,725.9h241V711.3h-241v14.6Z" class="g0_305"/>
<path fill-rule="evenodd" d="M518.9,740.6h241V725.9h-241v14.7Z" class="g0_305"/>
<path fill-rule="evenodd" d="M518.9,755.3h241V740.6h-241v14.7Z" class="g0_305"/>
<path fill-rule="evenodd" d="M518.9,769.9h241V755.3h-241v14.6Z" class="g0_305"/>
<path fill-rule="evenodd" d="M518.9,784.6h241V769.9h-241v14.7Z" class="g0_305"/>
<path fill-rule="evenodd" d="M518.9,799.3h241V784.6h-241v14.7Z" class="g0_305"/>
<path fill-rule="evenodd" d="M518.9,813.9h241V799.3h-241v14.6Z" class="g0_305"/>
<path fill-rule="evenodd" d="M519.3,828.6H759.5V813.9H519.3v14.7Z" class="g0_305"/>
<path fill-rule="evenodd" d="M519.3,843.3H759.5V828.6H519.3v14.7Z" class="g0_305"/>
<path fill-rule="evenodd" d="M519.3,858H759.5V843.3H519.3V858Z" class="g0_305"/>
<path fill-rule="evenodd" d="M519.3,872.6H759.5V858H519.3v14.6Z" class="g0_305"/>
<path fill-rule="evenodd" d="M519.3,887.9H733.1V873H519.3v14.9Z" class="g0_305"/>
<path fill-rule="evenodd" d="M519.3,902.5H733.1V887.9H519.3v14.6Z" class="g0_305"/>
<path fill-rule="evenodd" d="M495.8,934.2H761V916.8H495.8v17.4Z" class="g0_305"/>
<path d="M180.8,493.4v512.3" class="g1_305"/>
<path d="M188.5,631.3v64.1m21.3,-20.5V852.7M213,628v64.5m296,-539V922.8" class="g2_305"/>
</svg>