<?xml version="1.0" encoding="UTF-8" standalone="no"?>
<!DOCTYPE svg PUBLIC "-//W3C//DTD SVG 1.1//EN"
"http://www.w3.org/Graphics/SVG/1.1/DTD/svg11.dtd">
<svg viewBox="0 0 909 1285" version="1.1" xmlns="http://www.w3.org/2000/svg" xmlns:xlink="http://www.w3.org/1999/xlink">
<defs>
<style type="text/css"><![CDATA[
.g0_232{
fill: #FFFFFF;
}
.g1_232{
fill: none;
stroke: #000000;
stroke-width: 5.5;
stroke-linecap: butt;
stroke-linejoin: round;
}
.g2_232{
fill: none;
stroke: #000000;
stroke-width: 0.381;
stroke-linecap: butt;
stroke-linejoin: round;
}
]]></style>
</defs>
<path fill-rule="evenodd" d="M605.8,125.8h76V110h-76v15.8Z" class="g0_232"/>
<path fill-rule="evenodd" d="M181.2,162.1H419.5V147.4H181.2v14.7Z" class="g0_232"/>
<path fill-rule="evenodd" d="M181.2,176.8H419.5V162.1H181.2v14.7Z" class="g0_232"/>
<path fill-rule="evenodd" d="M180.8,191.8H420.3V177.1H180.8v14.7Z" class="g0_232"/>
<path fill-rule="evenodd" d="M180.8,206.5H420.3V191.8H180.8v14.7Z" class="g0_232"/>
<path fill-rule="evenodd" d="M180.8,221.1H420.3V206.5H180.8v14.6Z" class="g0_232"/>
<path fill-rule="evenodd" d="M180.8,235.8H419.9V221.1H180.8v14.7Z" class="g0_232"/>
<path fill-rule="evenodd" d="M180.8,250.5H419.9V235.8H180.8v14.7Z" class="g0_232"/>
<path fill-rule="evenodd" d="M180.8,265.1H419.9V250.5H180.8v14.6Z" class="g0_232"/>
<path fill-rule="evenodd" d="M180.8,279.8H420.6V265.1H180.8v14.7Z" class="g0_232"/>
<path fill-rule="evenodd" d="M180.8,294.5H420.6V279.8H180.8v14.7Z" class="g0_232"/>
<path fill-rule="evenodd" d="M180.8,309.1H420.6V294.5H180.8v14.6Z" class="g0_232"/>
<path fill-rule="evenodd" d="M180.8,323.8H420.6V309.1H180.8v14.7Z" class="g0_232"/>
<path fill-rule="evenodd" d="M180.8,338.5H420.6V323.8H180.8v14.7Z" class="g0_232"/>
<path fill-rule="evenodd" d="M199.1,353.2H420.6V338.5H199.1v14.7Z" class="g0_232"/>
<path fill-rule="evenodd" d="M180.8,368.2H419.9V353.5H180.8v14.7Z" class="g0_232"/>
<path fill-rule="evenodd" d="M180.8,382.9H419.9V368.2H180.8v14.7Z" class="g0_232"/>
<path fill-rule="evenodd" d="M180.8,397.5H420.6V382.9H180.8v14.6Z" class="g0_232"/>
<path fill-rule="evenodd" d="M180.8,412.2H420.6V397.5H180.8v14.7Z" class="g0_232"/>
<path fill-rule="evenodd" d="M180.8,426.9H420.6V412.2H180.8v14.7Z" class="g0_232"/>
<path fill-rule="evenodd" d="M180.8,441.5H420.6V426.9H180.8v14.6Z" class="g0_232"/>
<path fill-rule="evenodd" d="M180.8,456.2H420.6V441.5H180.8v14.7Z" class="g0_232"/>
<path fill-rule="evenodd" d="M199.1,470.9H420.6V456.2H199.1v14.7Z" class="g0_232"/>
<path fill-rule="evenodd" d="M180.8,485.5H419.9V470.9H180.8v14.6Z" class="g0_232"/>
<path fill-rule="evenodd" d="M180.8,500.2H419.9V485.5H180.8v14.7Z" class="g0_232"/>
<path fill-rule="evenodd" d="M180.4,514.9H419.9V500.2H180.4v14.7Z" class="g0_232"/>
<path fill-rule="evenodd" d="M180.4,529.5H419.9V514.9H180.4v14.6Z" class="g0_232"/>
<path fill-rule="evenodd" d="M180.4,544.2H419.9V529.5H180.4v14.7Z" class="g0_232"/>
<path fill-rule="evenodd" d="M180.4,558.9H419.9V544.2H180.4v14.7Z" class="g0_232"/>
<path fill-rule="evenodd" d="M180.4,573.5H419.5V558.9H180.4v14.6Z" class="g0_232"/>
<path fill-rule="evenodd" d="M180.4,588.2H419.5V573.5H180.4v14.7Z" class="g0_232"/>
<path fill-rule="evenodd" d="M181.2,603.3H419.9V588.6H181.2v14.7Z" class="g0_232"/>
<path fill-rule="evenodd" d="M181.2,617.9H419.9V603.3H181.2v14.6Z" class="g0_232"/>
<path fill-rule="evenodd" d="M180.4,633.2H419.2V618.3H180.4v14.9Z" class="g0_232"/>
<path fill-rule="evenodd" d="M180.4,647.8H419.2V633.2H180.4v14.6Z" class="g0_232"/>
<path fill-rule="evenodd" d="M180.8,662.9H419.9V648.2H180.8v14.7Z" class="g0_232"/>
<path fill-rule="evenodd" d="M180.8,677.5H419.9V662.9H180.8v14.6Z" class="g0_232"/>
<path fill-rule="evenodd" d="M198.8,692.6H420.6V677.9H198.8v14.7Z" class="g0_232"/>
<path fill-rule="evenodd" d="M180.4,707.6H419.9V692.9H180.4v14.7Z" class="g0_232"/>
<path fill-rule="evenodd" d="M180.4,722.3H419.9V707.6H180.4v14.7Z" class="g0_232"/>
<path fill-rule="evenodd" d="M180.4,736.9H419.9V722.3H180.4v14.6Z" class="g0_232"/>
<path fill-rule="evenodd" d="M180.4,751.6H419.9V736.9H180.4v14.7Z" class="g0_232"/>
<path fill-rule="evenodd" d="M180.4,766.3H419.9V751.6H180.4v14.7Z" class="g0_232"/>
<path fill-rule="evenodd" d="M180.4,780.9H419.9V766.3H180.4v14.6Z" class="g0_232"/>
<path fill-rule="evenodd" d="M198.8,795.6H420.6V780.9H198.8v14.7Z" class="g0_232"/>
<path fill-rule="evenodd" d="M198.8,810.6H420.6v-15H198.8v15Z" class="g0_232"/>
<path fill-rule="evenodd" d="M198.4,825.3H420.6V810.6H198.4v14.7Z" class="g0_232"/>
<path fill-rule="evenodd" d="M180.1,840.7H419.2V826H180.1v14.7Z" class="g0_232"/>
<path fill-rule="evenodd" d="M180.1,855.4H419.2V840.7H180.1v14.7Z" class="g0_232"/>
<path fill-rule="evenodd" d="M180.1,870.8H419.2V855.4H180.1v15.4Z" class="g0_232"/>
<path fill-rule="evenodd" d="M180.1,885.5H419.2V870.8H180.1v14.7Z" class="g0_232"/>
<path fill-rule="evenodd" d="M180.1,900.1H419.2V885.5H180.1v14.6Z" class="g0_232"/>
<path fill-rule="evenodd" d="M199.5,914.8H420.6V900.1H199.5v14.7Z" class="g0_232"/>
<path fill-rule="evenodd" d="M459.5,161.7H681.4V147.1H459.5v14.6Z" class="g0_232"/>
<path fill-rule="evenodd" d="M441.2,176.8H681.4V162.1H441.2v14.7Z" class="g0_232"/>
<path fill-rule="evenodd" d="M441.2,191.4H681.4V176.8H441.2v14.6Z" class="g0_232"/>
<path fill-rule="evenodd" d="M440.8,206.5H681.1V191.8H440.8v14.7Z" class="g0_232"/>
<path fill-rule="evenodd" d="M440.8,221.1H681.1V206.5H440.8v14.6Z" class="g0_232"/>
<path fill-rule="evenodd" d="M440.8,235.8H681.1V221.1H440.8v14.7Z" class="g0_232"/>
<path fill-rule="evenodd" d="M440.8,250.5H681.4V235.8H440.8v14.7Z" class="g0_232"/>
<path fill-rule="evenodd" d="M440.8,265.1H681.4V250.5H440.8v14.6Z" class="g0_232"/>
<path fill-rule="evenodd" d="M441.2,279.8H681.4V265.1H441.2v14.7Z" class="g0_232"/>
<path fill-rule="evenodd" d="M441.2,294.5H681.4V279.8H441.2v14.7Z" class="g0_232"/>
<path fill-rule="evenodd" d="M441.2,309.1H681.4V294.5H441.2v14.6Z" class="g0_232"/>
<path fill-rule="evenodd" d="M441.2,323.8H681.4V309.1H441.2v14.7Z" class="g0_232"/>
<path fill-rule="evenodd" d="M459.5,338.5H681.4V323.8H459.5v14.7Z" class="g0_232"/>
<path fill-rule="evenodd" d="M440.8,353.2H681.4V338.5H440.8v14.7Z" class="g0_232"/>
<path fill-rule="evenodd" d="M440.8,367.8H681.4V353.2H440.8v14.6Z" class="g0_232"/>
<path fill-rule="evenodd" d="M459.5,382.5H681.4V367.8H459.5v14.7Z" class="g0_232"/>
<path fill-rule="evenodd" d="M459.5,397.5H681.4v-15H459.5v15Z" class="g0_232"/>
<path fill-rule="evenodd" d="M459.5,412.6H681.4V397.5H459.5v15.1Z" class="g0_232"/>
<path fill-rule="evenodd" d="M440.4,427.8H680.7V412.9H440.4v14.9Z" class="g0_232"/>
<path fill-rule="evenodd" d="M440.4,442.5H680.7V427.8H440.4v14.7Z" class="g0_232"/>
<path fill-rule="evenodd" d="M440.4,457.1H680.7V442.5H440.4v14.6Z" class="g0_232"/>
<path fill-rule="evenodd" d="M440.4,471.8H680.7V457.1H440.4v14.7Z" class="g0_232"/>
<path fill-rule="evenodd" d="M459.2,486.5H681.4V471.8H459.2v14.7Z" class="g0_232"/>
<path fill-rule="evenodd" d="M440.8,501.5H681.1V486.8H440.8v14.7Z" class="g0_232"/>
<path fill-rule="evenodd" d="M440.8,516.2H681.1V501.5H440.8v14.7Z" class="g0_232"/>
<path fill-rule="evenodd" d="M440.8,531.2H681.1v-15H440.8v15Z" class="g0_232"/>
<path fill-rule="evenodd" d="M440.8,545.9H681.1V531.2H440.8v14.7Z" class="g0_232"/>
<path fill-rule="evenodd" d="M440.8,560.5H681.1V545.9H440.8v14.6Z" class="g0_232"/>
<path fill-rule="evenodd" d="M440.8,575.6H680.7V560.9H440.8v14.7Z" class="g0_232"/>
<path fill-rule="evenodd" d="M440.8,590.2H680.7V575.6H440.8v14.6Z" class="g0_232"/>
<path fill-rule="evenodd" d="M440.8,604.9H680.7V590.2H440.8v14.7Z" class="g0_232"/>
<path fill-rule="evenodd" d="M440.1,620H680.7V605.3H440.1V620Z" class="g0_232"/>
<path fill-rule="evenodd" d="M440.1,634.6H680.7V620H440.1v14.6Z" class="g0_232"/>
<path fill-rule="evenodd" d="M440.1,649.3H680.7V634.6H440.1v14.7Z" class="g0_232"/>
<path fill-rule="evenodd" d="M440.4,664.3H680.3V649.7H440.4v14.6Z" class="g0_232"/>
<path fill-rule="evenodd" d="M440.4,679H680.3V664.3H440.4V679Z" class="g0_232"/>
<path fill-rule="evenodd" d="M458.8,694H681.4V679.4H458.8V694Z" class="g0_232"/>
<path fill-rule="evenodd" d="M440.8,709.4H680.7V694.8H440.8v14.6Z" class="g0_232"/>
<path fill-rule="evenodd" d="M440.8,724.1H680.7V709.4H440.8v14.7Z" class="g0_232"/>
<path fill-rule="evenodd" d="M440.1,738.8H680.3V724.1H440.1v14.7Z" class="g0_232"/>
<path fill-rule="evenodd" d="M440.1,753.4H680.3V738.8H440.1v14.6Z" class="g0_232"/>
<path fill-rule="evenodd" d="M440.1,768.1H680.3V753.4H440.1v14.7Z" class="g0_232"/>
<path fill-rule="evenodd" d="M440.1,783.1h241V768.5h-241v14.6Z" class="g0_232"/>
<path fill-rule="evenodd" d="M440.1,797.8h241V783.1h-241v14.7Z" class="g0_232"/>
<path fill-rule="evenodd" d="M440.1,812.5h241V797.8h-241v14.7Z" class="g0_232"/>
<path fill-rule="evenodd" d="M440.1,827.1h241V812.5h-241v14.6Z" class="g0_232"/>
<path fill-rule="evenodd" d="M440.4,842.2H681.1V827.5H440.4v14.7Z" class="g0_232"/>
<path fill-rule="evenodd" d="M440.4,856.9H681.1V842.2H440.4v14.7Z" class="g0_232"/>
<path fill-rule="evenodd" d="M440.4,871.5H681.1V856.9H440.4v14.6Z" class="g0_232"/>
<path fill-rule="evenodd" d="M458.4,886.6h223V871.9h-223v14.7Z" class="g0_232"/>
<path fill-rule="evenodd" d="M416.6,931.7H681.8V914.1H416.6v17.6Z" class="g0_232"/>
<path d="M156.2,144.1V432.4" class="g1_232"/>
<path d="M429.4,146.7V912.6" class="g2_232"/>
</svg>