<?xml version="1.0" encoding="UTF-8" standalone="no"?>
<!DOCTYPE svg PUBLIC "-//W3C//DTD SVG 1.1//EN"
"http://www.w3.org/Graphics/SVG/1.1/DTD/svg11.dtd">
<svg viewBox="0 0 909 1285" version="1.1" xmlns="http://www.w3.org/2000/svg" xmlns:xlink="http://www.w3.org/1999/xlink">
<defs>
<style type="text/css"><![CDATA[
.g0_282{
fill: #FFFFFF;
}
.g1_282{
fill: none;
stroke: #000000;
stroke-width: 4.43;
stroke-linecap: butt;
stroke-linejoin: round;
}
.g2_282{
fill: none;
stroke: #000000;
stroke-width: 0.381;
stroke-linecap: butt;
stroke-linejoin: round;
}
]]></style>
</defs>
<path fill-rule="evenodd" d="M617.9,125.8h69.7V110H617.9v15.8Z" class="g0_282"/>
<path fill-rule="evenodd" d="M186.7,161.7H426.5V147.1H186.7v14.6Z" class="g0_282"/>
<path fill-rule="evenodd" d="M186.7,176.4H426.5V161.7H186.7v14.7Z" class="g0_282"/>
<path fill-rule="evenodd" d="M186.7,191.1H426.5V176.4H186.7v14.7Z" class="g0_282"/>
<path fill-rule="evenodd" d="M186.3,206.1H426.5V191.4H186.3v14.7Z" class="g0_282"/>
<path fill-rule="evenodd" d="M186.3,220.8H426.5V206.1H186.3v14.7Z" class="g0_282"/>
<path fill-rule="evenodd" d="M186.3,235.4H426.5V220.8H186.3v14.6Z" class="g0_282"/>
<path fill-rule="evenodd" d="M186.3,250.1H426.5V235.4H186.3v14.7Z" class="g0_282"/>
<path fill-rule="evenodd" d="M186.3,264.8H426.5V250.1H186.3v14.7Z" class="g0_282"/>
<path fill-rule="evenodd" d="M186.7,279.4H426.1V264.8H186.7v14.6Z" class="g0_282"/>
<path fill-rule="evenodd" d="M186.7,294.1H426.1V279.4H186.7v14.7Z" class="g0_282"/>
<path fill-rule="evenodd" d="M186.7,308.8H426.1V294.1H186.7v14.7Z" class="g0_282"/>
<path fill-rule="evenodd" d="M186.7,323.4H426.1V308.8H186.7v14.6Z" class="g0_282"/>
<path fill-rule="evenodd" d="M186.7,338.1H426.1V323.4H186.7v14.7Z" class="g0_282"/>
<path fill-rule="evenodd" d="M186.3,353.2H425.8V338.5H186.3v14.7Z" class="g0_282"/>
<path fill-rule="evenodd" d="M186.3,367.8H425.8V353.2H186.3v14.6Z" class="g0_282"/>
<path fill-rule="evenodd" d="M186.3,382.5H425.8V367.8H186.3v14.7Z" class="g0_282"/>
<path fill-rule="evenodd" d="M186.7,397.5H426.5V382.9H186.7v14.6Z" class="g0_282"/>
<path fill-rule="evenodd" d="M186.7,412.2H426.5V397.5H186.7v14.7Z" class="g0_282"/>
<path fill-rule="evenodd" d="M185.9,426.9H425.8V412.2H185.9v14.7Z" class="g0_282"/>
<path fill-rule="evenodd" d="M185.9,441.5H425.8V426.9H185.9v14.6Z" class="g0_282"/>
<path fill-rule="evenodd" d="M185.9,456.2H425.8V441.5H185.9v14.7Z" class="g0_282"/>
<path fill-rule="evenodd" d="M185.9,470.9H425.8V456.2H185.9v14.7Z" class="g0_282"/>
<path fill-rule="evenodd" d="M185.9,485.5H425.8V470.9H185.9v14.6Z" class="g0_282"/>
<path fill-rule="evenodd" d="M185.9,500.2H425.8V485.5H185.9v14.7Z" class="g0_282"/>
<path fill-rule="evenodd" d="M185.2,514.9H425V500.2H185.2v14.7Z" class="g0_282"/>
<path fill-rule="evenodd" d="M185.2,529.5H425V514.9H185.2v14.6Z" class="g0_282"/>
<path fill-rule="evenodd" d="M185.2,544.2H425V529.5H185.2v14.7Z" class="g0_282"/>
<path fill-rule="evenodd" d="M185.2,558.9H425V544.2H185.2v14.7Z" class="g0_282"/>
<path fill-rule="evenodd" d="M185.2,573.5H425V558.9H185.2v14.6Z" class="g0_282"/>
<path fill-rule="evenodd" d="M185.2,588.2H425V573.5H185.2v14.7Z" class="g0_282"/>
<path fill-rule="evenodd" d="M185.2,602.9H425V588.2H185.2v14.7Z" class="g0_282"/>
<path fill-rule="evenodd" d="M185.2,617.6H425V602.9H185.2v14.7Z" class="g0_282"/>
<path fill-rule="evenodd" d="M185.6,632.2H426.5V617.6H185.6v14.6Z" class="g0_282"/>
<path fill-rule="evenodd" d="M185.6,646.9H426.5V632.2H185.6v14.7Z" class="g0_282"/>
<path fill-rule="evenodd" d="M185.6,661.6H426.5V646.9H185.6v14.7Z" class="g0_282"/>
<path fill-rule="evenodd" d="M185.6,676.2H426.5V661.6H185.6v14.6Z" class="g0_282"/>
<path fill-rule="evenodd" d="M185.6,690.9H426.5V676.2H185.6v14.7Z" class="g0_282"/>
<path fill-rule="evenodd" d="M185.2,705.6H426.5V690.9H185.2v14.7Z" class="g0_282"/>
<path fill-rule="evenodd" d="M185.2,720.2H426.5V705.6H185.2v14.6Z" class="g0_282"/>
<path fill-rule="evenodd" d="M185.2,734.9H426.5V720.2H185.2v14.7Z" class="g0_282"/>
<path fill-rule="evenodd" d="M185.2,749.6H426.5V734.9H185.2v14.7Z" class="g0_282"/>
<path fill-rule="evenodd" d="M185.2,764.2H424.7V749.6H185.2v14.6Z" class="g0_282"/>
<path fill-rule="evenodd" d="M185.2,778.9H424.7V764.2H185.2v14.7Z" class="g0_282"/>
<path fill-rule="evenodd" d="M185.2,793.6H424.7V778.9H185.2v14.7Z" class="g0_282"/>
<path fill-rule="evenodd" d="M185.2,808.2H424.7V793.6H185.2v14.6Z" class="g0_282"/>
<path fill-rule="evenodd" d="M185.2,822.9H424.3V808.2H185.2v14.7Z" class="g0_282"/>
<path fill-rule="evenodd" d="M185.2,837.6H424.3V822.9H185.2v14.7Z" class="g0_282"/>
<path fill-rule="evenodd" d="M185.2,852.3H424.3V837.6H185.2v14.7Z" class="g0_282"/>
<path fill-rule="evenodd" d="M185.2,867H424.3V852.3H185.2V867Z" class="g0_282"/>
<path fill-rule="evenodd" d="M185.2,881.6H424.3V867H185.2v14.6Z" class="g0_282"/>
<path fill-rule="evenodd" d="M187.4,896.3H426.5V881.6H187.4v14.7Z" class="g0_282"/>
<path fill-rule="evenodd" d="M447.4,161.7H687.7V147.1H447.4v14.6Z" class="g0_282"/>
<path fill-rule="evenodd" d="M447.4,176.4H687.7V161.7H447.4v14.7Z" class="g0_282"/>
<path fill-rule="evenodd" d="M465,191.1H687.6V176.4H465v14.7Z" class="g0_282"/>
<path fill-rule="evenodd" d="M447.4,206.1H687.3V191.4H447.4v14.7Z" class="g0_282"/>
<path fill-rule="evenodd" d="M447.4,220.8H687.3V206.1H447.4v14.7Z" class="g0_282"/>
<path fill-rule="evenodd" d="M447.4,235.8H686.6V221.1H447.4v14.7Z" class="g0_282"/>
<path fill-rule="evenodd" d="M447.4,250.5H686.6V235.8H447.4v14.7Z" class="g0_282"/>
<path fill-rule="evenodd" d="M465.4,265.5H687.6V250.8H465.4v14.7Z" class="g0_282"/>
<path fill-rule="evenodd" d="M447,280.2H687.7V265.5H447v14.7Z" class="g0_282"/>
<path fill-rule="evenodd" d="M447,294.8H686.9V280.2H447v14.6Z" class="g0_282"/>
<path fill-rule="evenodd" d="M447,309.5H686.9V294.8H447v14.7Z" class="g0_282"/>
<path fill-rule="evenodd" d="M447,325.1H686.9V309.5H447v15.6Z" class="g0_282"/>
<path fill-rule="evenodd" d="M447,339.7H686.9V325.1H447v14.6Z" class="g0_282"/>
<path fill-rule="evenodd" d="M447,355.2H686.9V339.8H447v15.4Z" class="g0_282"/>
<path fill-rule="evenodd" d="M447,369.9H686.9V355.2H447v14.7Z" class="g0_282"/>
<path fill-rule="evenodd" d="M447,384.5H686.9V369.9H447v14.6Z" class="g0_282"/>
<path fill-rule="evenodd" d="M464.7,399.2H687.6V384.5H464.7v14.7Z" class="g0_282"/>
<path fill-rule="evenodd" d="M464.7,413.9H687.6V399.2H464.7v14.7Z" class="g0_282"/>
<path fill-rule="evenodd" d="M445.9,428.5h241V413.9h-241v14.6Z" class="g0_282"/>
<path fill-rule="evenodd" d="M445.9,443.2h241V428.5h-241v14.7Z" class="g0_282"/>
<path fill-rule="evenodd" d="M445.9,457.9h241V443.2h-241v14.7Z" class="g0_282"/>
<path fill-rule="evenodd" d="M445.9,472.5h241V457.9h-241v14.6Z" class="g0_282"/>
<path fill-rule="evenodd" d="M464.7,487.2H687.6V472.5H464.7v14.7Z" class="g0_282"/>
<path fill-rule="evenodd" d="M445.9,502.2H686.2V487.6H445.9v14.6Z" class="g0_282"/>
<path fill-rule="evenodd" d="M445.9,516.9H686.2V502.2H445.9v14.7Z" class="g0_282"/>
<path fill-rule="evenodd" d="M464.3,531.9H687.6V517.3H464.3v14.6Z" class="g0_282"/>
<path fill-rule="evenodd" d="M445.6,546.6h241V531.9h-241v14.7Z" class="g0_282"/>
<path fill-rule="evenodd" d="M445.6,561.3h241V546.6h-241v14.7Z" class="g0_282"/>
<path fill-rule="evenodd" d="M445.6,575.9h241V561.3h-241v14.6Z" class="g0_282"/>
<path fill-rule="evenodd" d="M445.6,590.6h241V575.9h-241v14.7Z" class="g0_282"/>
<path fill-rule="evenodd" d="M445.6,605.3h241V590.6h-241v14.7Z" class="g0_282"/>
<path fill-rule="evenodd" d="M445.6,620h241V605.3h-241V620Z" class="g0_282"/>
<path fill-rule="evenodd" d="M445.6,634.6h241V620h-241v14.6Z" class="g0_282"/>
<path fill-rule="evenodd" d="M445.6,649.3h241V634.6h-241v14.7Z" class="g0_282"/>
<path fill-rule="evenodd" d="M445.6,664h241V649.3h-241V664Z" class="g0_282"/>
<path fill-rule="evenodd" d="M445.6,678.6h241V664h-241v14.6Z" class="g0_282"/>
<path fill-rule="evenodd" d="M445.6,693.3h241V678.6h-241v14.7Z" class="g0_282"/>
<path fill-rule="evenodd" d="M445.9,708H685.8V693.3H445.9V708Z" class="g0_282"/>
<path fill-rule="evenodd" d="M445.9,722.6H685.8V708H445.9v14.6Z" class="g0_282"/>
<path fill-rule="evenodd" d="M445.6,737.3H685.5V722.6H445.6v14.7Z" class="g0_282"/>
<path fill-rule="evenodd" d="M445.6,752H685.5V737.3H445.6V752Z" class="g0_282"/>
<path fill-rule="evenodd" d="M445.2,767H685.8V752.3H445.2V767Z" class="g0_282"/>
<path fill-rule="evenodd" d="M445.2,781.7H685.8V767H445.2v14.7Z" class="g0_282"/>
<path fill-rule="evenodd" d="M445.6,796.3H685.1V781.7H445.6v14.6Z" class="g0_282"/>
<path fill-rule="evenodd" d="M445.6,811H685.1V796.3H445.6V811Z" class="g0_282"/>
<path fill-rule="evenodd" d="M445.6,825.7H685.8V811H445.6v14.7Z" class="g0_282"/>
<path fill-rule="evenodd" d="M445.6,840.4H685.8V825.7H445.6v14.7Z" class="g0_282"/>
<path fill-rule="evenodd" d="M445.6,855H685.8V840.4H445.6V855Z" class="g0_282"/>
<path fill-rule="evenodd" d="M445.6,869.7H685.8V855H445.6v14.7Z" class="g0_282"/>
<path fill-rule="evenodd" d="M445.6,884.4H685.8V869.7H445.6v14.7Z" class="g0_282"/>
<path d="M160.6,119.9V294.5" class="g1_282"/>
<path d="M434.1,146.3V914.8" class="g2_282"/>
</svg>