<?xml version="1.0" encoding="UTF-8" standalone="no"?>
<!DOCTYPE svg PUBLIC "-//W3C//DTD SVG 1.1//EN"
"http://www.w3.org/Graphics/SVG/1.1/DTD/svg11.dtd">
<svg viewBox="0 0 909 1285" version="1.1" xmlns="http://www.w3.org/2000/svg" xmlns:xlink="http://www.w3.org/1999/xlink">
<defs>
<style type="text/css"><![CDATA[
.g0_63{
fill: #FFFFFF;
}
.g1_63{
fill: none;
stroke: #000000;
stroke-width: 0.381;
stroke-linecap: butt;
stroke-linejoin: round;
}
]]></style>
</defs>
<path fill-rule="evenodd" d="M279.7,125.8H778V110H279.7v15.8Z" class="g0_63"/>
<path fill-rule="evenodd" d="M279.7,161.4H518.4V146.3H279.7v15.1Z" class="g0_63"/>
<path fill-rule="evenodd" d="M279.7,176.4H518.4v-15H279.7v15Z" class="g0_63"/>
<path fill-rule="evenodd" d="M279.3,191.6H518.4V176.4H279.3v15.2Z" class="g0_63"/>
<path fill-rule="evenodd" d="M279.3,206.6H518.4v-15H279.3v15Z" class="g0_63"/>
<path fill-rule="evenodd" d="M279.3,221.7H518.4V206.6H279.3v15.1Z" class="g0_63"/>
<path fill-rule="evenodd" d="M278.9,236.7H518.4v-15H278.9v15Z" class="g0_63"/>
<path fill-rule="evenodd" d="M278.9,251.7H518.4v-15H278.9v15Z" class="g0_63"/>
<path fill-rule="evenodd" d="M278.9,266.8H518.4V251.7H278.9v15.1Z" class="g0_63"/>
<path fill-rule="evenodd" d="M278.9,281.8H518.4v-15H278.9v15Z" class="g0_63"/>
<path fill-rule="evenodd" d="M278.9,296.8H518.4v-15H278.9v15Z" class="g0_63"/>
<path fill-rule="evenodd" d="M278.9,311.9H517.7V296.8H278.9v15.1Z" class="g0_63"/>
<path fill-rule="evenodd" d="M278.9,326.9H517.7v-15H278.9v15Z" class="g0_63"/>
<path fill-rule="evenodd" d="M278.9,341.9H518v-15H278.9v15Z" class="g0_63"/>
<path fill-rule="evenodd" d="M278.9,357.2H518V342H278.9v15.2Z" class="g0_63"/>
<path fill-rule="evenodd" d="M278.2,372.2H517.3v-15H278.2v15Z" class="g0_63"/>
<path fill-rule="evenodd" d="M278.2,387.3H517.3V372.2H278.2v15.1Z" class="g0_63"/>
<path fill-rule="evenodd" d="M278.2,402.3H517.3v-15H278.2v15Z" class="g0_63"/>
<path fill-rule="evenodd" d="M278.2,417.3H517.3v-15H278.2v15Z" class="g0_63"/>
<path fill-rule="evenodd" d="M278.2,432.4H517.3V417.3H278.2v15.1Z" class="g0_63"/>
<path fill-rule="evenodd" d="M278.2,447.4H517.3v-15H278.2v15Z" class="g0_63"/>
<path fill-rule="evenodd" d="M278.2,462.4H517.3v-15H278.2v15Z" class="g0_63"/>
<path fill-rule="evenodd" d="M278.2,477.5H517.3V462.4H278.2v15.1Z" class="g0_63"/>
<path fill-rule="evenodd" d="M278.2,492.5H517.3v-15H278.2v15Z" class="g0_63"/>
<path fill-rule="evenodd" d="M278.2,507.5H516.9v-15H278.2v15Z" class="g0_63"/>
<path fill-rule="evenodd" d="M278.2,522.6H516.9V507.5H278.2v15.1Z" class="g0_63"/>
<path fill-rule="evenodd" d="M278.2,537.8H516.9V522.6H278.2v15.2Z" class="g0_63"/>
<path fill-rule="evenodd" d="M277.5,552.8H516.2v-15H277.5v15Z" class="g0_63"/>
<path fill-rule="evenodd" d="M277.5,567.9H516.2V552.8H277.5v15.1Z" class="g0_63"/>
<path fill-rule="evenodd" d="M277.5,582.9H516.2v-15H277.5v15Z" class="g0_63"/>
<path fill-rule="evenodd" d="M277.5,598H516.2V582.9H277.5V598Z" class="g0_63"/>
<path fill-rule="evenodd" d="M277.5,613H516.2V598H277.5v15Z" class="g0_63"/>
<path fill-rule="evenodd" d="M277.5,628H516.2V613H277.5v15Z" class="g0_63"/>
<path fill-rule="evenodd" d="M277.5,643.1H516.6V628H277.5v15.1Z" class="g0_63"/>
<path fill-rule="evenodd" d="M277.5,658.1H516.6v-15H277.5v15Z" class="g0_63"/>
<path fill-rule="evenodd" d="M277.5,673.1H516.6v-15H277.5v15Z" class="g0_63"/>
<path fill-rule="evenodd" d="M277.5,688.2H516.6V673.1H277.5v15.1Z" class="g0_63"/>
<path fill-rule="evenodd" d="M295.8,703.2H518.4v-15H295.8v15Z" class="g0_63"/>
<path fill-rule="evenodd" d="M277.1,718.4H516.2V703.2H277.1v15.2Z" class="g0_63"/>
<path fill-rule="evenodd" d="M277.1,733.4H516.2v-15H277.1v15Z" class="g0_63"/>
<path fill-rule="evenodd" d="M276.7,748.5H516.2V733.4H276.7v15.1Z" class="g0_63"/>
<path fill-rule="evenodd" d="M276.7,763.5H516.2v-15H276.7v15Z" class="g0_63"/>
<path fill-rule="evenodd" d="M276.7,778.5H516.2v-15H276.7v15Z" class="g0_63"/>
<path fill-rule="evenodd" d="M276.7,793.6H516.2V778.5H276.7v15.1Z" class="g0_63"/>
<path fill-rule="evenodd" d="M278.6,808.6H518.4v-15H278.6v15Z" class="g0_63"/>
<path fill-rule="evenodd" d="M537.8,161.4H778V146.3H537.8v15.1Z" class="g0_63"/>
<path fill-rule="evenodd" d="M537.8,176.4H778v-15H537.8v15Z" class="g0_63"/>
<path fill-rule="evenodd" d="M537.8,191.6H778V176.4H537.8v15.2Z" class="g0_63"/>
<path fill-rule="evenodd" d="M537.8,206.6H778v-15H537.8v15Z" class="g0_63"/>
<path fill-rule="evenodd" d="M538.2,221.7H777.7V206.6H538.2v15.1Z" class="g0_63"/>
<path fill-rule="evenodd" d="M538.2,236.7H777.7v-15H538.2v15Z" class="g0_63"/>
<path fill-rule="evenodd" d="M538.2,251.7H777.7v-15H538.2v15Z" class="g0_63"/>
<path fill-rule="evenodd" d="M538.2,266.8H777.7V251.7H538.2v15.1Z" class="g0_63"/>
<path fill-rule="evenodd" d="M538.2,281.8H777.7v-15H538.2v15Z" class="g0_63"/>
<path fill-rule="evenodd" d="M538.2,296.8H777.7v-15H538.2v15Z" class="g0_63"/>
<path fill-rule="evenodd" d="M538.2,311.9H777.7V296.8H538.2v15.1Z" class="g0_63"/>
<path fill-rule="evenodd" d="M538.6,326.9H776.9v-15H538.6v15Z" class="g0_63"/>
<path fill-rule="evenodd" d="M538.6,341.9H777.3v-15H538.6v15Z" class="g0_63"/>
<path fill-rule="evenodd" d="M538.6,357.2H777.3V342H538.6v15.2Z" class="g0_63"/>
<path fill-rule="evenodd" d="M536,372.2H776.9v-15H536v15Z" class="g0_63"/>
<path fill-rule="evenodd" d="M536,387.3H776.9V372.2H536v15.1Z" class="g0_63"/>
<path fill-rule="evenodd" d="M536,402.3H772.9v-15H536v15Z" class="g0_63"/>
<path fill-rule="evenodd" d="M536,417.3H776.9v-15H536v15Z" class="g0_63"/>
<path fill-rule="evenodd" d="M536,432.4H695.9V417.3H536v15.1Z" class="g0_63"/>
<path fill-rule="evenodd" d="M537.1,447.4H776.9v-15H537.1v15Z" class="g0_63"/>
<path fill-rule="evenodd" d="M537.1,462.4H776.9v-15H537.1v15Z" class="g0_63"/>
<path fill-rule="evenodd" d="M537.1,477.5H776.9V462.4H537.1v15.1Z" class="g0_63"/>
<path fill-rule="evenodd" d="M537.1,492.5H776.9v-15H537.1v15Z" class="g0_63"/>
<path fill-rule="evenodd" d="M537.1,507.5H776.9v-15H537.1v15Z" class="g0_63"/>
<path fill-rule="evenodd" d="M537.1,522.6H776.9V507.5H537.1v15.1Z" class="g0_63"/>
<path fill-rule="evenodd" d="M537.1,537.8H776.9V522.6H537.1v15.2Z" class="g0_63"/>
<path fill-rule="evenodd" d="M536.7,554.3H778V537.8H536.7v16.5Z" class="g0_63"/>
<path fill-rule="evenodd" d="M536.7,570.8H778V554.3H536.7v16.5Z" class="g0_63"/>
<path fill-rule="evenodd" d="M536.7,587.3H778V570.8H536.7v16.5Z" class="g0_63"/>
<path fill-rule="evenodd" d="M536.7,603.8H778V587.3H536.7v16.5Z" class="g0_63"/>
<path fill-rule="evenodd" d="M536.7,620.3H778V603.8H536.7v16.5Z" class="g0_63"/>
<path fill-rule="evenodd" d="M536.7,636.8H778V620.3H536.7v16.5Z" class="g0_63"/>
<path fill-rule="evenodd" d="M536.7,653.3H778V636.8H536.7v16.5Z" class="g0_63"/>
<path fill-rule="evenodd" d="M536.7,669.8H778V653.3H536.7v16.5Z" class="g0_63"/>
<path fill-rule="evenodd" d="M536.7,686.3H778V669.8H536.7v16.5Z" class="g0_63"/>
<path fill-rule="evenodd" d="M536.7,702.8H778V686.3H536.7v16.5Z" class="g0_63"/>
<path fill-rule="evenodd" d="M536.7,719.7H775.8V703.2H536.7v16.5Z" class="g0_63"/>
<path fill-rule="evenodd" d="M536.7,736.2H775.8V719.7H536.7v16.5Z" class="g0_63"/>
<path fill-rule="evenodd" d="M536.7,752.7H775.8V736.2H536.7v16.5Z" class="g0_63"/>
<path fill-rule="evenodd" d="M536,769.6H775.1V753.1H536v16.5Z" class="g0_63"/>
<path fill-rule="evenodd" d="M536,786.1H775.1V769.6H536v16.5Z" class="g0_63"/>
<path fill-rule="evenodd" d="M516.6,893H778V875.4H516.6V893Z" class="g0_63"/>
<path d="M215,87.7V963.3M525.9,147.4V844.9" class="g1_63"/>
</svg>