<?xml version="1.0" encoding="UTF-8" standalone="no"?>
<!DOCTYPE svg PUBLIC "-//W3C//DTD SVG 1.1//EN"
"http://www.w3.org/Graphics/SVG/1.1/DTD/svg11.dtd">
<svg viewBox="0 0 909 1285" version="1.1" xmlns="http://www.w3.org/2000/svg" xmlns:xlink="http://www.w3.org/1999/xlink">
<defs>
<style type="text/css"><![CDATA[
.g0_174{
fill: #FFFFFF;
}
.g1_174{
fill: none;
stroke: #000000;
stroke-width: 2.902;
stroke-linecap: butt;
stroke-linejoin: round;
}
.g2_174{
fill: none;
stroke: #000000;
stroke-width: 0.381;
stroke-linecap: butt;
stroke-linejoin: round;
}
]]></style>
</defs>
<path fill-rule="evenodd" d="M260.7,125.8H758V110H260.7v15.8Z" class="g0_174"/>
<path fill-rule="evenodd" d="M257.4,177.9H526.3v-25H257.4v25Z" class="g0_174"/>
<path fill-rule="evenodd" d="M260,216.7H498.4v-15H260v15Z" class="g0_174"/>
<path fill-rule="evenodd" d="M260,231.8H498.4V216.7H260v15.1Z" class="g0_174"/>
<path fill-rule="evenodd" d="M260.7,246.8H498.4v-15H260.7v15Z" class="g0_174"/>
<path fill-rule="evenodd" d="M260.7,261.8H498.4v-15H260.7v15Z" class="g0_174"/>
<path fill-rule="evenodd" d="M260,276.9H499.5V261.8H260v15.1Z" class="g0_174"/>
<path fill-rule="evenodd" d="M260,291.9H499.5v-15H260v15Z" class="g0_174"/>
<path fill-rule="evenodd" d="M260,307.1H499.5V291.9H260v15.2Z" class="g0_174"/>
<path fill-rule="evenodd" d="M260,322.1H499.5v-15H260v15Z" class="g0_174"/>
<path fill-rule="evenodd" d="M260,337.2H499.5V322.1H260v15.1Z" class="g0_174"/>
<path fill-rule="evenodd" d="M259.3,352.2H499.1v-15H259.3v15Z" class="g0_174"/>
<path fill-rule="evenodd" d="M259.3,367.3H499.1V352.2H259.3v15.1Z" class="g0_174"/>
<path fill-rule="evenodd" d="M259.3,382.3H499.1v-15H259.3v15Z" class="g0_174"/>
<path fill-rule="evenodd" d="M259.3,397.4H499.1V382.3H259.3v15.1Z" class="g0_174"/>
<path fill-rule="evenodd" d="M259.3,412.4H499.1v-15H259.3v15Z" class="g0_174"/>
<path fill-rule="evenodd" d="M259.3,427.4H499.1v-15H259.3v15Z" class="g0_174"/>
<path fill-rule="evenodd" d="M259.3,442.5H499.1V427.4H259.3v15.1Z" class="g0_174"/>
<path fill-rule="evenodd" d="M259.3,457.5H499.1v-15H259.3v15Z" class="g0_174"/>
<path fill-rule="evenodd" d="M258.9,472.7H474.6V457.5H258.9v15.2Z" class="g0_174"/>
<path fill-rule="evenodd" d="M258.9,487.7H474.6v-15H258.9v15Z" class="g0_174"/>
<path fill-rule="evenodd" d="M258.5,503.1H497.7v-15H258.5v15Z" class="g0_174"/>
<path fill-rule="evenodd" d="M258.5,518.2H497.7V503.1H258.5v15.1Z" class="g0_174"/>
<path fill-rule="evenodd" d="M258.5,533.2H497.7v-15H258.5v15Z" class="g0_174"/>
<path fill-rule="evenodd" d="M258.5,548.2H497.7v-15H258.5v15Z" class="g0_174"/>
<path fill-rule="evenodd" d="M258.5,563.3H497.7V548.2H258.5v15.1Z" class="g0_174"/>
<path fill-rule="evenodd" d="M258.5,578.3H497.7v-15H258.5v15Z" class="g0_174"/>
<path fill-rule="evenodd" d="M258.5,593.4H497.7V578.3H258.5v15.1Z" class="g0_174"/>
<path fill-rule="evenodd" d="M258.5,608.4H497.7v-15H258.5v15Z" class="g0_174"/>
<path fill-rule="evenodd" d="M258.9,623.4H496.6v-15H258.9v15Z" class="g0_174"/>
<path fill-rule="evenodd" d="M258.9,638.7H496.6V623.4H258.9v15.3Z" class="g0_174"/>
<path fill-rule="evenodd" d="M258.2,653.7H499.5v-15H258.2v15Z" class="g0_174"/>
<path fill-rule="evenodd" d="M258.2,668.7H499.5v-15H258.2v15Z" class="g0_174"/>
<path fill-rule="evenodd" d="M258.2,683.8H499.5V668.7H258.2v15.1Z" class="g0_174"/>
<path fill-rule="evenodd" d="M258.2,698.8H499.5v-15H258.2v15Z" class="g0_174"/>
<path fill-rule="evenodd" d="M257.8,713.8H496.2v-15H257.8v15Z" class="g0_174"/>
<path fill-rule="evenodd" d="M257.8,728.9H496.2V713.8H257.8v15.1Z" class="g0_174"/>
<path fill-rule="evenodd" d="M257.8,743.9H496.9v-15H257.8v15Z" class="g0_174"/>
<path fill-rule="evenodd" d="M257.8,758.9H496.9v-15H257.8v15Z" class="g0_174"/>
<path fill-rule="evenodd" d="M257.8,774H496.9V758.9H257.8V774Z" class="g0_174"/>
<path fill-rule="evenodd" d="M276.2,789H499.5V774H276.2v15Z" class="g0_174"/>
<path fill-rule="evenodd" d="M257.4,804H496.6V789H257.4v15Z" class="g0_174"/>
<path fill-rule="evenodd" d="M257.4,819.2H496.6V804H257.4v15.2Z" class="g0_174"/>
<path fill-rule="evenodd" d="M257.4,834.3H496.6V819.2H257.4v15.1Z" class="g0_174"/>
<path fill-rule="evenodd" d="M257.4,849.4H496.6V834.3H257.4v15.1Z" class="g0_174"/>
<path fill-rule="evenodd" d="M257.4,864.4H496.6v-15H257.4v15Z" class="g0_174"/>
<path fill-rule="evenodd" d="M257.4,879.4H496.6v-15H257.4v15Z" class="g0_174"/>
<path fill-rule="evenodd" d="M257.4,894.5H496.6V879.4H257.4v15.1Z" class="g0_174"/>
<path fill-rule="evenodd" d="M257.4,909.5H496.6v-15H257.4v15Z" class="g0_174"/>
<path fill-rule="evenodd" d="M259.6,924.5H499.5v-15H259.6v15Z" class="g0_174"/>
<path fill-rule="evenodd" d="M518.4,216.7H757.9v-15H518.4v15Z" class="g0_174"/>
<path fill-rule="evenodd" d="M518.4,231.8H757.9V216.7H518.4v15.1Z" class="g0_174"/>
<path fill-rule="evenodd" d="M518.4,246.8H757.9v-15H518.4v15Z" class="g0_174"/>
<path fill-rule="evenodd" d="M518.4,261.8H757.9v-15H518.4v15Z" class="g0_174"/>
<path fill-rule="evenodd" d="M518.4,276.9H757.9V261.8H518.4v15.1Z" class="g0_174"/>
<path fill-rule="evenodd" d="M518.4,291.9H757.9v-15H518.4v15Z" class="g0_174"/>
<path fill-rule="evenodd" d="M518.4,307.1H757.9V291.9H518.4v15.2Z" class="g0_174"/>
<path fill-rule="evenodd" d="M518.4,322.1H757.9v-15H518.4v15Z" class="g0_174"/>
<path fill-rule="evenodd" d="M518.4,337.2H757.9V322.1H518.4v15.1Z" class="g0_174"/>
<path fill-rule="evenodd" d="M518.4,352.2H757.9v-15H518.4v15Z" class="g0_174"/>
<path fill-rule="evenodd" d="M518.4,367.3H757.9V352.2H518.4v15.1Z" class="g0_174"/>
<path fill-rule="evenodd" d="M518.4,382.3H757.9v-15H518.4v15Z" class="g0_174"/>
<path fill-rule="evenodd" d="M518.4,397.4H757.9V382.3H518.4v15.1Z" class="g0_174"/>
<path fill-rule="evenodd" d="M518.4,412.4H757.9v-15H518.4v15Z" class="g0_174"/>
<path fill-rule="evenodd" d="M518.4,427.4H757.9v-15H518.4v15Z" class="g0_174"/>
<path fill-rule="evenodd" d="M517.7,442.5H757.1V427.4H517.7v15.1Z" class="g0_174"/>
<path fill-rule="evenodd" d="M517.7,457.5H757.1v-15H517.7v15Z" class="g0_174"/>
<path fill-rule="evenodd" d="M517.7,472.7H757.1V457.5H517.7v15.2Z" class="g0_174"/>
<path fill-rule="evenodd" d="M517.7,487.7H757.1v-15H517.7v15Z" class="g0_174"/>
<path fill-rule="evenodd" d="M517.7,502.8H757.1V487.7H517.7v15.1Z" class="g0_174"/>
<path fill-rule="evenodd" d="M517.7,517.8H757.1v-15H517.7v15Z" class="g0_174"/>
<path fill-rule="evenodd" d="M517.7,532.8H757.1v-15H517.7v15Z" class="g0_174"/>
<path fill-rule="evenodd" d="M517.7,547.9H757.1V532.8H517.7v15.1Z" class="g0_174"/>
<path fill-rule="evenodd" d="M517.7,562.9H757.1v-15H517.7v15Z" class="g0_174"/>
<path fill-rule="evenodd" d="M518,577.9H756v-15H518v15Z" class="g0_174"/>
<path fill-rule="evenodd" d="M518,593H756V577.9H518V593Z" class="g0_174"/>
<path fill-rule="evenodd" d="M517.7,608H756V593H517.7v15Z" class="g0_174"/>
<path fill-rule="evenodd" d="M517.7,623.1H756V608H517.7v15.1Z" class="g0_174"/>
<path fill-rule="evenodd" d="M517.3,638.1H756v-15H517.3v15Z" class="g0_174"/>
<path fill-rule="evenodd" d="M517.3,653.3H756V638.1H517.3v15.2Z" class="g0_174"/>
<path fill-rule="evenodd" d="M517.3,668.4H756V653.3H517.3v15.1Z" class="g0_174"/>
<path fill-rule="evenodd" d="M517.3,683.4H756v-15H517.3v15Z" class="g0_174"/>
<path fill-rule="evenodd" d="M517.3,698.4H756v-15H517.3v15Z" class="g0_174"/>
<path fill-rule="evenodd" d="M517.3,713.5H756V698.4H517.3v15.1Z" class="g0_174"/>
<path fill-rule="evenodd" d="M516.9,728.5H756v-15H516.9v15Z" class="g0_174"/>
<path fill-rule="evenodd" d="M516.9,743.5H756v-15H516.9v15Z" class="g0_174"/>
<path fill-rule="evenodd" d="M516.6,758.6H755.7V743.5H516.6v15.1Z" class="g0_174"/>
<path fill-rule="evenodd" d="M516.6,773.6H755.7v-15H516.6v15Z" class="g0_174"/>
<path fill-rule="evenodd" d="M516.6,788.6H755.7v-15H516.6v15Z" class="g0_174"/>
<path fill-rule="evenodd" d="M516.6,803.7H755.7V788.6H516.6v15.1Z" class="g0_174"/>
<path fill-rule="evenodd" d="M516.2,818.7H755.7v-15H516.2v15Z" class="g0_174"/>
<path fill-rule="evenodd" d="M516.2,834H755.7V818.7H516.2V834Z" class="g0_174"/>
<path fill-rule="evenodd" d="M516.2,849H755.7V834H516.2v15Z" class="g0_174"/>
<path fill-rule="evenodd" d="M516.2,864H755.7V849H516.2v15Z" class="g0_174"/>
<path fill-rule="evenodd" d="M516.2,879.1H755.7V864H516.2v15.1Z" class="g0_174"/>
<path fill-rule="evenodd" d="M494.4,938.8H758V923.1H494.4v15.7Z" class="g0_174"/>
<path d="M174.2,562.8V914.5" class="g1_174"/>
<path d="M506.3,200.9V916.3" class="g2_174"/>
</svg>