<?xml version="1.0" encoding="UTF-8" standalone="no"?>
<!DOCTYPE svg PUBLIC "-//W3C//DTD SVG 1.1//EN"
"http://www.w3.org/Graphics/SVG/1.1/DTD/svg11.dtd">
<svg viewBox="0 0 909 1285" version="1.1" xmlns="http://www.w3.org/2000/svg" xmlns:xlink="http://www.w3.org/1999/xlink">
<defs>
<style type="text/css"><![CDATA[
.g0_256{
fill: #FFFFFF;
}
.g1_256{
fill: none;
stroke: #000000;
stroke-width: 0.381;
stroke-linecap: butt;
stroke-linejoin: round;
}
]]></style>
</defs>
<path fill-rule="evenodd" d="M610.4,131.1h81.5V110H610.4v21.1Z" class="g0_256"/>
<path fill-rule="evenodd" d="M193.8,165.9h238v-15h-238v15Z" class="g0_256"/>
<path fill-rule="evenodd" d="M193.8,181h238V165.9h-238V181Z" class="g0_256"/>
<path fill-rule="evenodd" d="M193.8,196h238V181h-238v15Z" class="g0_256"/>
<path fill-rule="evenodd" d="M193.8,211h238V196h-238v15Z" class="g0_256"/>
<path fill-rule="evenodd" d="M193.4,226.1H432.5V211H193.4v15.1Z" class="g0_256"/>
<path fill-rule="evenodd" d="M193.4,241.1H432.5v-15H193.4v15Z" class="g0_256"/>
<path fill-rule="evenodd" d="M193.4,256.1H432.5v-15H193.4v15Z" class="g0_256"/>
<path fill-rule="evenodd" d="M193.8,271.4H432.2V256.1H193.8v15.3Z" class="g0_256"/>
<path fill-rule="evenodd" d="M193.8,286.4H432.2v-15H193.8v15Z" class="g0_256"/>
<path fill-rule="evenodd" d="M193.4,301.4H432.2v-15H193.4v15Z" class="g0_256"/>
<path fill-rule="evenodd" d="M193.8,316.5H432.2V301.4H193.8v15.1Z" class="g0_256"/>
<path fill-rule="evenodd" d="M193.8,331.5H432.2v-15H193.8v15Z" class="g0_256"/>
<path fill-rule="evenodd" d="M193.8,346.5H432.2v-15H193.8v15Z" class="g0_256"/>
<path fill-rule="evenodd" d="M193.8,361.6H432.2V346.5H193.8v15.1Z" class="g0_256"/>
<path fill-rule="evenodd" d="M193.4,376.6H432.2v-15H193.4v15Z" class="g0_256"/>
<path fill-rule="evenodd" d="M193.4,391.7H432.2V376.6H193.4v15.1Z" class="g0_256"/>
<path fill-rule="evenodd" d="M193.4,406.7H431.8v-15H193.4v15Z" class="g0_256"/>
<path fill-rule="evenodd" d="M193.4,421.7H431.8v-15H193.4v15Z" class="g0_256"/>
<path fill-rule="evenodd" d="M192.3,437H431.4V421.7H192.3V437Z" class="g0_256"/>
<path fill-rule="evenodd" d="M192.3,452H431.4V437H192.3v15Z" class="g0_256"/>
<path fill-rule="evenodd" d="M193.8,467h238V452h-238v15Z" class="g0_256"/>
<path fill-rule="evenodd" d="M193.8,482.1h238V467h-238v15.1Z" class="g0_256"/>
<path fill-rule="evenodd" d="M193.1,497.1H431.8v-15H193.1v15Z" class="g0_256"/>
<path fill-rule="evenodd" d="M193.1,512.1H431.8v-15H193.1v15Z" class="g0_256"/>
<path fill-rule="evenodd" d="M193.1,527.2H431.8V512.1H193.1v15.1Z" class="g0_256"/>
<path fill-rule="evenodd" d="M193.1,542.2H431.8v-15H193.1v15Z" class="g0_256"/>
<path fill-rule="evenodd" d="M193.1,557.2H431.8v-15H193.1v15Z" class="g0_256"/>
<path fill-rule="evenodd" d="M192.7,572.3H431.8V557.2H192.7v15.1Z" class="g0_256"/>
<path fill-rule="evenodd" d="M192.7,587.3H431.8v-15H192.7v15Z" class="g0_256"/>
<path fill-rule="evenodd" d="M192.7,602.4H431.1V587.3H192.7v15.1Z" class="g0_256"/>
<path fill-rule="evenodd" d="M192.7,617.6H431.1V602.4H192.7v15.2Z" class="g0_256"/>
<path fill-rule="evenodd" d="M193.1,632.6H431.8v-15H193.1v15Z" class="g0_256"/>
<path fill-rule="evenodd" d="M193.1,647.6H431.8v-15H193.1v15Z" class="g0_256"/>
<path fill-rule="evenodd" d="M193.1,662.7H431.8V647.6H193.1v15.1Z" class="g0_256"/>
<path fill-rule="evenodd" d="M193.1,677.7H431.8v-15H193.1v15Z" class="g0_256"/>
<path fill-rule="evenodd" d="M192.7,692.7H431.1v-15H192.7v15Z" class="g0_256"/>
<path fill-rule="evenodd" d="M192.7,707.8H431.1V692.7H192.7v15.1Z" class="g0_256"/>
<path fill-rule="evenodd" d="M210.7,722.8H432.5v-15H210.7v15Z" class="g0_256"/>
<path fill-rule="evenodd" d="M192.3,737.8H431.1v-15H192.3v15Z" class="g0_256"/>
<path fill-rule="evenodd" d="M192.3,752.9H431.1V737.8H192.3v15.1Z" class="g0_256"/>
<path fill-rule="evenodd" d="M192.7,767.9H431.4v-15H192.7v15Z" class="g0_256"/>
<path fill-rule="evenodd" d="M192.7,782.9H431.4v-15H192.7v15Z" class="g0_256"/>
<path fill-rule="evenodd" d="M192.7,798.2H431.4V782.9H192.7v15.3Z" class="g0_256"/>
<path fill-rule="evenodd" d="M192.7,813.2H431.1v-15H192.7v15Z" class="g0_256"/>
<path fill-rule="evenodd" d="M192.7,828.2H431.1v-15H192.7v15Z" class="g0_256"/>
<path fill-rule="evenodd" d="M192.7,843.3H431.1V828.2H192.7v15.1Z" class="g0_256"/>
<path fill-rule="evenodd" d="M192.7,858.3H431.1v-15H192.7v15Z" class="g0_256"/>
<path fill-rule="evenodd" d="M192.7,873.4H431.1V858.3H192.7v15.1Z" class="g0_256"/>
<path fill-rule="evenodd" d="M193.4,888.4H432.2v-15H193.4v15Z" class="g0_256"/>
<path fill-rule="evenodd" d="M452.8,165.6H691.5V150.5H452.8v15.1Z" class="g0_256"/>
<path fill-rule="evenodd" d="M452.8,180.6H691.5v-15H452.8v15Z" class="g0_256"/>
<path fill-rule="evenodd" d="M452.8,195.6H691.9v-15H452.8v15Z" class="g0_256"/>
<path fill-rule="evenodd" d="M452.8,210.7H691.9V195.6H452.8v15.1Z" class="g0_256"/>
<path fill-rule="evenodd" d="M452.8,225.7H691.9v-15H452.8v15Z" class="g0_256"/>
<path fill-rule="evenodd" d="M452.8,240.7H691.9v-15H452.8v15Z" class="g0_256"/>
<path fill-rule="evenodd" d="M470.4,255.8H691.9V240.7H470.4v15.1Z" class="g0_256"/>
<path fill-rule="evenodd" d="M452.8,270.8H691.5v-15H452.8v15Z" class="g0_256"/>
<path fill-rule="evenodd" d="M452.8,286H691.5V270.8H452.8V286Z" class="g0_256"/>
<path fill-rule="evenodd" d="M452.8,301.1H691.5V286H452.8v15.1Z" class="g0_256"/>
<path fill-rule="evenodd" d="M452.8,316.1H691.5v-15H452.8v15Z" class="g0_256"/>
<path fill-rule="evenodd" d="M452.8,331.1H691.5v-15H452.8v15Z" class="g0_256"/>
<path fill-rule="evenodd" d="M452.8,346.2H691.5V331.1H452.8v15.1Z" class="g0_256"/>
<path fill-rule="evenodd" d="M452.8,361.2H691.5v-15H452.8v15Z" class="g0_256"/>
<path fill-rule="evenodd" d="M452.8,376.3H691.5V361.2H452.8v15.1Z" class="g0_256"/>
<path fill-rule="evenodd" d="M452.8,391.3H691.5v-15H452.8v15Z" class="g0_256"/>
<path fill-rule="evenodd" d="M452.8,406.3H691.5v-15H452.8v15Z" class="g0_256"/>
<path fill-rule="evenodd" d="M452.4,421.4H691.5V406.3H452.4v15.1Z" class="g0_256"/>
<path fill-rule="evenodd" d="M452.4,436.4H691.5v-15H452.4v15Z" class="g0_256"/>
<path fill-rule="evenodd" d="M452.4,451.6H691.5V436.4H452.4v15.2Z" class="g0_256"/>
<path fill-rule="evenodd" d="M452.8,466.7H691.5V451.6H452.8v15.1Z" class="g0_256"/>
<path fill-rule="evenodd" d="M452.8,481.7H691.5v-15H452.8v15Z" class="g0_256"/>
<path fill-rule="evenodd" d="M452.4,496.7H691.1v-15H452.4v15Z" class="g0_256"/>
<path fill-rule="evenodd" d="M452.4,511.8H691.1V496.7H452.4v15.1Z" class="g0_256"/>
<path fill-rule="evenodd" d="M452.4,526.8H691.1v-15H452.4v15Z" class="g0_256"/>
<path fill-rule="evenodd" d="M452.4,541.8H691.1v-15H452.4v15Z" class="g0_256"/>
<path fill-rule="evenodd" d="M452.4,556.9H691.1V541.8H452.4v15.1Z" class="g0_256"/>
<path fill-rule="evenodd" d="M452.4,571.9H691.1v-15H452.4v15Z" class="g0_256"/>
<path fill-rule="evenodd" d="M452,586.9H690.4v-15H452v15Z" class="g0_256"/>
<path fill-rule="evenodd" d="M452,602H690.4V586.9H452V602Z" class="g0_256"/>
<path fill-rule="evenodd" d="M470.4,617H691.9V602H470.4v15Z" class="g0_256"/>
<path fill-rule="evenodd" d="M451.7,632.2H690.8V617H451.7v15.2Z" class="g0_256"/>
<path fill-rule="evenodd" d="M451.7,647.3H690.8V632.2H451.7v15.1Z" class="g0_256"/>
<path fill-rule="evenodd" d="M451.7,662.3H690.8v-15H451.7v15Z" class="g0_256"/>
<path fill-rule="evenodd" d="M451.7,677.3H690.8v-15H451.7v15Z" class="g0_256"/>
<path fill-rule="evenodd" d="M451.7,692.4H690.8V677.3H451.7v15.1Z" class="g0_256"/>
<path fill-rule="evenodd" d="M451.7,707.4H690.8v-15H451.7v15Z" class="g0_256"/>
<path fill-rule="evenodd" d="M451.7,722.4H690.8v-15H451.7v15Z" class="g0_256"/>
<path fill-rule="evenodd" d="M451.7,737.5H691.1V722.4H451.7v15.1Z" class="g0_256"/>
<path fill-rule="evenodd" d="M451.7,752.5H691.1v-15H451.7v15Z" class="g0_256"/>
<path fill-rule="evenodd" d="M451.7,767.5H691.1v-15H451.7v15Z" class="g0_256"/>
<path fill-rule="evenodd" d="M451.7,782.6H691.1V767.5H451.7v15.1Z" class="g0_256"/>
<path fill-rule="evenodd" d="M451.7,797.6H691.1v-15H451.7v15Z" class="g0_256"/>
<path fill-rule="evenodd" d="M451.7,812.8H691.1V797.6H451.7v15.2Z" class="g0_256"/>
<path fill-rule="evenodd" d="M451.7,827.9H691.1V812.8H451.7v15.1Z" class="g0_256"/>
<path fill-rule="evenodd" d="M451.7,842.9H691.1v-15H451.7v15Z" class="g0_256"/>
<path fill-rule="evenodd" d="M451.7,858H691.1V842.9H451.7V858Z" class="g0_256"/>
<path fill-rule="evenodd" d="M451.7,873H691.1V858H451.7v15Z" class="g0_256"/>
<path fill-rule="evenodd" d="M451.7,888H691.1V873H451.7v15Z" class="g0_256"/>
<path fill-rule="evenodd" d="M428.5,920.3H691.9V902.7H428.5v17.6Z" class="g0_256"/>
<path d="M440.9,150.5V918.3" class="g1_256"/>
</svg>