<?xml version="1.0" encoding="UTF-8" standalone="no"?>
<!DOCTYPE svg PUBLIC "-//W3C//DTD SVG 1.1//EN"
"http://www.w3.org/Graphics/SVG/1.1/DTD/svg11.dtd">
<svg viewBox="0 0 909 1285" version="1.1" xmlns="http://www.w3.org/2000/svg" xmlns:xlink="http://www.w3.org/1999/xlink">
<defs>
<style type="text/css"><![CDATA[
.g0_199{
fill: #FFFFFF;
}
.g1_199{
fill: none;
stroke: #000000;
stroke-width: 0.381;
stroke-linecap: butt;
stroke-linejoin: round;
}
]]></style>
</defs>
<path fill-rule="evenodd" d="M651.4,131.1h59.4V110H651.4v21.1Z" class="g0_199"/>
<path fill-rule="evenodd" d="M194.7,167H433.1V152.4H194.7V167Z" class="g0_199"/>
<path fill-rule="evenodd" d="M194.7,181.7H433.1V167H194.7v14.7Z" class="g0_199"/>
<path fill-rule="evenodd" d="M194,196.7H433.1V182.1H194v14.6Z" class="g0_199"/>
<path fill-rule="evenodd" d="M194,211.4H433.1V196.7H194v14.7Z" class="g0_199"/>
<path fill-rule="evenodd" d="M194,226.1H433.1V211.4H194v14.7Z" class="g0_199"/>
<path fill-rule="evenodd" d="M194,240.7H433.1V226.1H194v14.6Z" class="g0_199"/>
<path fill-rule="evenodd" d="M194,255.4H433.1V240.7H194v14.7Z" class="g0_199"/>
<path fill-rule="evenodd" d="M194,270.1H433.1V255.4H194v14.7Z" class="g0_199"/>
<path fill-rule="evenodd" d="M194,284.7H433.1V270.1H194v14.6Z" class="g0_199"/>
<path fill-rule="evenodd" d="M194,299.4H433.1V284.7H194v14.7Z" class="g0_199"/>
<path fill-rule="evenodd" d="M193.6,314.1H432.7V299.4H193.6v14.7Z" class="g0_199"/>
<path fill-rule="evenodd" d="M193.6,328.7H432.7V314.1H193.6v14.6Z" class="g0_199"/>
<path fill-rule="evenodd" d="M193.6,343.4H432.7V328.7H193.6v14.7Z" class="g0_199"/>
<path fill-rule="evenodd" d="M193.3,358.1H432.4V343.4H193.3v14.7Z" class="g0_199"/>
<path fill-rule="evenodd" d="M193.3,372.8H432.4V358.1H193.3v14.7Z" class="g0_199"/>
<path fill-rule="evenodd" d="M193.6,387.5H432.7V372.8H193.6v14.7Z" class="g0_199"/>
<path fill-rule="evenodd" d="M193.6,402.1H432.7V387.5H193.6v14.6Z" class="g0_199"/>
<path fill-rule="evenodd" d="M211.6,416.8H433.1V402.1H211.6v14.7Z" class="g0_199"/>
<path fill-rule="evenodd" d="M193.3,431.8H432V417.2H193.3v14.6Z" class="g0_199"/>
<path fill-rule="evenodd" d="M193.3,446.5H432V431.8H193.3v14.7Z" class="g0_199"/>
<path fill-rule="evenodd" d="M193.3,461.2H432V446.5H193.3v14.7Z" class="g0_199"/>
<path fill-rule="evenodd" d="M192.9,475.8H432V461.2H192.9v14.6Z" class="g0_199"/>
<path fill-rule="evenodd" d="M192.9,490.5H432V475.8H192.9v14.7Z" class="g0_199"/>
<path fill-rule="evenodd" d="M192.9,505.2H432V490.5H192.9v14.7Z" class="g0_199"/>
<path fill-rule="evenodd" d="M192.9,519.8H432V505.2H192.9v14.6Z" class="g0_199"/>
<path fill-rule="evenodd" d="M192.9,534.5H432V519.8H192.9v14.7Z" class="g0_199"/>
<path fill-rule="evenodd" d="M192.9,549.2H432V534.5H192.9v14.7Z" class="g0_199"/>
<path fill-rule="evenodd" d="M192.5,563.8H432V549.2H192.5v14.6Z" class="g0_199"/>
<path fill-rule="evenodd" d="M192.5,578.5H432V563.8H192.5v14.7Z" class="g0_199"/>
<path fill-rule="evenodd" d="M211.2,593.2H433.1V578.5H211.2v14.7Z" class="g0_199"/>
<path fill-rule="evenodd" d="M192.9,607.9H431.6V593.2H192.9v14.7Z" class="g0_199"/>
<path fill-rule="evenodd" d="M192.9,622.5H431.6V607.9H192.9v14.6Z" class="g0_199"/>
<path fill-rule="evenodd" d="M210.9,637.6H433.1V622.9H210.9v14.7Z" class="g0_199"/>
<path fill-rule="evenodd" d="M211.2,652.2H433.1V637.6H211.2v14.6Z" class="g0_199"/>
<path fill-rule="evenodd" d="M192.5,667.8H431.6V653H192.5v14.8Z" class="g0_199"/>
<path fill-rule="evenodd" d="M192.5,682.5H431.6V667.8H192.5v14.7Z" class="g0_199"/>
<path fill-rule="evenodd" d="M192.5,697.1H431.6V682.5H192.5v14.6Z" class="g0_199"/>
<path fill-rule="evenodd" d="M192.5,711.8H431.6V697.1H192.5v14.7Z" class="g0_199"/>
<path fill-rule="evenodd" d="M192.5,726.5H432V711.8H192.5v14.7Z" class="g0_199"/>
<path fill-rule="evenodd" d="M192.5,741.1H432V726.5H192.5v14.6Z" class="g0_199"/>
<path fill-rule="evenodd" d="M192.5,755.8H431.6V741.1H192.5v14.7Z" class="g0_199"/>
<path fill-rule="evenodd" d="M192.5,770.5H431.6V755.8H192.5v14.7Z" class="g0_199"/>
<path fill-rule="evenodd" d="M210.9,785.1H433.1V770.5H210.9v14.6Z" class="g0_199"/>
<path fill-rule="evenodd" d="M210.9,800.2H433.1V785.1H210.9v15.1Z" class="g0_199"/>
<path fill-rule="evenodd" d="M193.3,814.8H432V800.2H193.3v14.6Z" class="g0_199"/>
<path fill-rule="evenodd" d="M193.3,829.5H432V814.8H193.3v14.7Z" class="g0_199"/>
<path fill-rule="evenodd" d="M192.5,844.2H431.3V829.5H192.5v14.7Z" class="g0_199"/>
<path fill-rule="evenodd" d="M192.5,858.9H431.3V844.2H192.5v14.7Z" class="g0_199"/>
<path fill-rule="evenodd" d="M192.5,873.6H431.3V858.9H192.5v14.7Z" class="g0_199"/>
<path fill-rule="evenodd" d="M193.6,888.2H433.1V873.6H193.6v14.6Z" class="g0_199"/>
<path fill-rule="evenodd" d="M453.7,167H693.9V152.4H453.7V167Z" class="g0_199"/>
<path fill-rule="evenodd" d="M453.7,181.7H693.9V167H453.7v14.7Z" class="g0_199"/>
<path fill-rule="evenodd" d="M471.6,196.7H693.9V182.1H471.6v14.6Z" class="g0_199"/>
<path fill-rule="evenodd" d="M453.7,211.8H693.5V197.1H453.7v14.7Z" class="g0_199"/>
<path fill-rule="evenodd" d="M453.7,226.4H693.5V211.8H453.7v14.6Z" class="g0_199"/>
<path fill-rule="evenodd" d="M472,241.1H693.9V226.4H472v14.7Z" class="g0_199"/>
<path fill-rule="evenodd" d="M471.6,256.1H693.9V241.5H471.6v14.6Z" class="g0_199"/>
<path fill-rule="evenodd" d="M454,270.8H693.5V256.1H454v14.7Z" class="g0_199"/>
<path fill-rule="evenodd" d="M454,285.5H693.5V270.8H454v14.7Z" class="g0_199"/>
<path fill-rule="evenodd" d="M453.7,300.5H693.5V285.8H453.7v14.7Z" class="g0_199"/>
<path fill-rule="evenodd" d="M453.7,315.2H693.5V300.5H453.7v14.7Z" class="g0_199"/>
<path fill-rule="evenodd" d="M453.7,329.8H693.5V315.2H453.7v14.6Z" class="g0_199"/>
<path fill-rule="evenodd" d="M453.7,344.5H693.5V329.8H453.7v14.7Z" class="g0_199"/>
<path fill-rule="evenodd" d="M453.7,359.8H693.5V344.5H453.7v15.3Z" class="g0_199"/>
<path fill-rule="evenodd" d="M453.7,374.4H693.5V359.8H453.7v14.6Z" class="g0_199"/>
<path fill-rule="evenodd" d="M453.3,389.1H693.1V374.4H453.3v14.7Z" class="g0_199"/>
<path fill-rule="evenodd" d="M453.3,403.8H693.1V389.1H453.3v14.7Z" class="g0_199"/>
<path fill-rule="evenodd" d="M453.3,418.4H693.5V403.8H453.3v14.6Z" class="g0_199"/>
<path fill-rule="evenodd" d="M453.3,433.1H693.5V418.4H453.3v14.7Z" class="g0_199"/>
<path fill-rule="evenodd" d="M453.3,447.8H693.5V433.1H453.3v14.7Z" class="g0_199"/>
<path fill-rule="evenodd" d="M453.3,462.8H693.5v-15H453.3v15Z" class="g0_199"/>
<path fill-rule="evenodd" d="M453.3,477.5H693.5V462.8H453.3v14.7Z" class="g0_199"/>
<path fill-rule="evenodd" d="M452.9,492.1H692.8V477.5H452.9v14.6Z" class="g0_199"/>
<path fill-rule="evenodd" d="M452.9,506.8H692.8V492.1H452.9v14.7Z" class="g0_199"/>
<path fill-rule="evenodd" d="M452.9,521.5H693.1V506.8H452.9v14.7Z" class="g0_199"/>
<path fill-rule="evenodd" d="M452.9,536.1H693.1V521.5H452.9v14.6Z" class="g0_199"/>
<path fill-rule="evenodd" d="M452.9,550.8H693.1V536.1H452.9v14.7Z" class="g0_199"/>
<path fill-rule="evenodd" d="M452.9,565.5H692.8V550.8H452.9v14.7Z" class="g0_199"/>
<path fill-rule="evenodd" d="M452.9,580.1H692.8V565.5H452.9v14.6Z" class="g0_199"/>
<path fill-rule="evenodd" d="M452.9,594.8H692.8V580.1H452.9v14.7Z" class="g0_199"/>
<path fill-rule="evenodd" d="M452.9,609.5H692.8V594.8H452.9v14.7Z" class="g0_199"/>
<path fill-rule="evenodd" d="M452.9,624.2H692.8V609.5H452.9v14.7Z" class="g0_199"/>
<path fill-rule="evenodd" d="M452.9,638.8H692.8V624.2H452.9v14.6Z" class="g0_199"/>
<path fill-rule="evenodd" d="M452.6,653.5H692.4V638.8H452.6v14.7Z" class="g0_199"/>
<path fill-rule="evenodd" d="M452.6,668.2H692.4V653.5H452.6v14.7Z" class="g0_199"/>
<path fill-rule="evenodd" d="M452.6,683.2H692V668.5H452.6v14.7Z" class="g0_199"/>
<path fill-rule="evenodd" d="M452.6,697.9H692V683.2H452.6v14.7Z" class="g0_199"/>
<path fill-rule="evenodd" d="M452.6,712.9H692.8V698.2H452.6v14.7Z" class="g0_199"/>
<path fill-rule="evenodd" d="M452.6,727.6H692.8V712.9H452.6v14.7Z" class="g0_199"/>
<path fill-rule="evenodd" d="M452.9,742.2H692.8V727.6H452.9v14.6Z" class="g0_199"/>
<path fill-rule="evenodd" d="M452.9,756.9H692.8V742.2H452.9v14.7Z" class="g0_199"/>
<path fill-rule="evenodd" d="M452.6,771.9H692.8V757.3H452.6v14.6Z" class="g0_199"/>
<path fill-rule="evenodd" d="M452.6,786.6H692.8V771.9H452.6v14.7Z" class="g0_199"/>
<path fill-rule="evenodd" d="M452.6,801.6H692.8v-15H452.6v15Z" class="g0_199"/>
<path fill-rule="evenodd" d="M452.6,816.3H692.8V801.6H452.6v14.7Z" class="g0_199"/>
<path fill-rule="evenodd" d="M471.3,831H693.9V816.3H471.3V831Z" class="g0_199"/>
<path fill-rule="evenodd" d="M470.9,845.7h223V831h-223v14.7Z" class="g0_199"/>
<path fill-rule="evenodd" d="M452.6,860.7H692.8V846.1H452.6v14.6Z" class="g0_199"/>
<path fill-rule="evenodd" d="M452.6,875.4H692.8V860.7H452.6v14.7Z" class="g0_199"/>
<path fill-rule="evenodd" d="M452.6,890.1H692.8V875.4H452.6v14.7Z" class="g0_199"/>
<path fill-rule="evenodd" d="M428.7,922.7H710.8V905.1H428.7v17.6Z" class="g0_199"/>
<path d="M441.5,151.6v769" class="g1_199"/>
</svg>