<?xml version="1.0" encoding="UTF-8" standalone="no"?>
<!DOCTYPE svg PUBLIC "-//W3C//DTD SVG 1.1//EN"
"http://www.w3.org/Graphics/SVG/1.1/DTD/svg11.dtd">
<svg viewBox="0 0 909 1285" version="1.1" xmlns="http://www.w3.org/2000/svg" xmlns:xlink="http://www.w3.org/1999/xlink">
<defs>
<style type="text/css"><![CDATA[
.g0_66{
fill: #FFFFFF;
}
]]></style>
</defs>
<path fill-rule="evenodd" d="M615.7,125.8h76.7V110H615.7v15.8Z" class="g0_66"/>
<path fill-rule="evenodd" d="M191.4,162.1H431.6v-15H191.4v15Z" class="g0_66"/>
<path fill-rule="evenodd" d="M191.4,177.1H431.6v-15H191.4v15Z" class="g0_66"/>
<path fill-rule="evenodd" d="M191.4,192.2H431.6V177.1H191.4v15.1Z" class="g0_66"/>
<path fill-rule="evenodd" d="M191.4,207.2H431.6v-15H191.4v15Z" class="g0_66"/>
<path fill-rule="evenodd" d="M191.4,222.2H430.9v-15H191.4v15Z" class="g0_66"/>
<path fill-rule="evenodd" d="M191.4,237.4H430.9V222.2H191.4v15.2Z" class="g0_66"/>
<path fill-rule="evenodd" d="M191.4,252.5H430.9V237.4H191.4v15.1Z" class="g0_66"/>
<path fill-rule="evenodd" d="M191.4,267.5H430.9v-15H191.4v15Z" class="g0_66"/>
<path fill-rule="evenodd" d="M191.4,282.5H430.9v-15H191.4v15Z" class="g0_66"/>
<path fill-rule="evenodd" d="M191.4,297.6H430.9V282.5H191.4v15.1Z" class="g0_66"/>
<path fill-rule="evenodd" d="M191.4,312.6H430.9v-15H191.4v15Z" class="g0_66"/>
<path fill-rule="evenodd" d="M191.4,327.6H430.9v-15H191.4v15Z" class="g0_66"/>
<path fill-rule="evenodd" d="M191.4,342.7H430.9V327.6H191.4v15.1Z" class="g0_66"/>
<path fill-rule="evenodd" d="M191.4,357.8H430.9V342.7H191.4v15.1Z" class="g0_66"/>
<path fill-rule="evenodd" d="M191.4,372.8H430.5v-15H191.4v15Z" class="g0_66"/>
<path fill-rule="evenodd" d="M191.4,387.8H430.5v-15H191.4v15Z" class="g0_66"/>
<path fill-rule="evenodd" d="M190.7,403H430.9V387.8H190.7V403Z" class="g0_66"/>
<path fill-rule="evenodd" d="M190.7,418.1H430.9V403H190.7v15.1Z" class="g0_66"/>
<path fill-rule="evenodd" d="M190.7,433.1H430.9v-15H190.7v15Z" class="g0_66"/>
<path fill-rule="evenodd" d="M190.7,448.1H430.9v-15H190.7v15Z" class="g0_66"/>
<path fill-rule="evenodd" d="M190.7,463.2H430.9V448.1H190.7v15.1Z" class="g0_66"/>
<path fill-rule="evenodd" d="M190.7,478.2H430.9v-15H190.7v15Z" class="g0_66"/>
<path fill-rule="evenodd" d="M190.7,493.2H430.2v-15H190.7v15Z" class="g0_66"/>
<path fill-rule="evenodd" d="M190.7,508.3H430.2V493.2H190.7v15.1Z" class="g0_66"/>
<path fill-rule="evenodd" d="M190.7,523.3H430.2v-15H190.7v15Z" class="g0_66"/>
<path fill-rule="evenodd" d="M190.7,538.3H430.2v-15H190.7v15Z" class="g0_66"/>
<path fill-rule="evenodd" d="M190.7,553.4H430.2V538.3H190.7v15.1Z" class="g0_66"/>
<path fill-rule="evenodd" d="M190.7,568.4H430.2v-15H190.7v15Z" class="g0_66"/>
<path fill-rule="evenodd" d="M209,584H448.9V568.8H209V584Z" class="g0_66"/>
<path fill-rule="evenodd" d="M190.3,599.1H430.2V584H190.3v15.1Z" class="g0_66"/>
<path fill-rule="evenodd" d="M190.3,614.1H430.2v-15H190.3v15Z" class="g0_66"/>
<path fill-rule="evenodd" d="M190.3,629.1H430.2v-15H190.3v15Z" class="g0_66"/>
<path fill-rule="evenodd" d="M190.3,644.2H430.2V629.1H190.3v15.1Z" class="g0_66"/>
<path fill-rule="evenodd" d="M190.7,659.2H448.9v-15H190.7v15Z" class="g0_66"/>
<path fill-rule="evenodd" d="M190.7,674.2H448.9v-15H190.7v15Z" class="g0_66"/>
<path fill-rule="evenodd" d="M190,689.3H448.9V674.2H190v15.1Z" class="g0_66"/>
<path fill-rule="evenodd" d="M190,704.3H448.9v-15H190v15Z" class="g0_66"/>
<path fill-rule="evenodd" d="M190,719.3H448.9v-15H190v15Z" class="g0_66"/>
<path fill-rule="evenodd" d="M190,734.4H448.9V719.3H190v15.1Z" class="g0_66"/>
<path fill-rule="evenodd" d="M190,749.6H448.9V734.4H190v15.2Z" class="g0_66"/>
<path fill-rule="evenodd" d="M190.3,764.6H429.8v-15H190.3v15Z" class="g0_66"/>
<path fill-rule="evenodd" d="M190.3,779.6H429.8v-15H190.3v15Z" class="g0_66"/>
<path fill-rule="evenodd" d="M190.3,794.7H429.8V779.6H190.3v15.1Z" class="g0_66"/>
<path fill-rule="evenodd" d="M190.3,809.7H429.8v-15H190.3v15Z" class="g0_66"/>
<path fill-rule="evenodd" d="M190.3,824.7H429.8v-15H190.3v15Z" class="g0_66"/>
<path fill-rule="evenodd" d="M190,839.8H448.9V824.7H190v15.1Z" class="g0_66"/>
<path fill-rule="evenodd" d="M190,854.9H448.9V839.8H190v15.1Z" class="g0_66"/>
<path fill-rule="evenodd" d="M190,887.5H448.9V854.9H190v32.6Z" class="g0_66"/>
<path fill-rule="evenodd" d="M191.8,902.2H448.9V887.5H191.8v14.7Z" class="g0_66"/>
<path fill-rule="evenodd" d="M451.5,161.7H692V147.1H451.5v14.6Z" class="g0_66"/>
<path fill-rule="evenodd" d="M451.5,176.4H692V161.7H451.5v14.7Z" class="g0_66"/>
<path fill-rule="evenodd" d="M451.5,191.1H692V176.4H451.5v14.7Z" class="g0_66"/>
<path fill-rule="evenodd" d="M451.8,206.1H692V191.4H451.8v14.7Z" class="g0_66"/>
<path fill-rule="evenodd" d="M451.5,221.1H692V206.5H451.5v14.6Z" class="g0_66"/>
<path fill-rule="evenodd" d="M451.1,235.8H692V221.1H451.1v14.7Z" class="g0_66"/>
<path fill-rule="evenodd" d="M451.1,250.5H692V235.8H451.1v14.7Z" class="g0_66"/>
<path fill-rule="evenodd" d="M451.1,265.1H692V250.5H451.1v14.6Z" class="g0_66"/>
<path fill-rule="evenodd" d="M451.1,279.8H692V265.1H451.1v14.7Z" class="g0_66"/>
<path fill-rule="evenodd" d="M451.1,294.5H692V279.8H451.1v14.7Z" class="g0_66"/>
<path fill-rule="evenodd" d="M451.1,309.1H692V294.5H451.1v14.6Z" class="g0_66"/>
<path fill-rule="evenodd" d="M451.1,323.8H691.7V309.1H451.1v14.7Z" class="g0_66"/>
<path fill-rule="evenodd" d="M451.1,338.5H691.7V323.8H451.1v14.7Z" class="g0_66"/>
<path fill-rule="evenodd" d="M451.1,353.2H691.7V338.5H451.1v14.7Z" class="g0_66"/>
<path fill-rule="evenodd" d="M451.1,368.6H648V353.9H451.1v14.7Z" class="g0_66"/>
<path fill-rule="evenodd" d="M451.1,383.2H648V368.6H451.1v14.6Z" class="g0_66"/>
<path fill-rule="evenodd" d="M451.1,398.5H690.9V383.6H451.1v14.9Z" class="g0_66"/>
<path fill-rule="evenodd" d="M451.1,413.1H690.9V398.5H451.1v14.6Z" class="g0_66"/>
<path fill-rule="evenodd" d="M450.7,427.8H691.3V413.1H450.7v14.7Z" class="g0_66"/>
<path fill-rule="evenodd" d="M450.7,442.5H691.3V427.8H450.7v14.7Z" class="g0_66"/>
<path fill-rule="evenodd" d="M450.7,457.1H691.3V442.5H450.7v14.6Z" class="g0_66"/>
<path fill-rule="evenodd" d="M450.7,471.8H691.3V457.1H450.7v14.7Z" class="g0_66"/>
<path fill-rule="evenodd" d="M450.7,486.5H691.3V471.8H450.7v14.7Z" class="g0_66"/>
<path fill-rule="evenodd" d="M450.7,501.1H691.3V486.5H450.7v14.6Z" class="g0_66"/>
<path fill-rule="evenodd" d="M450.7,515.8H691.3V501.1H450.7v14.7Z" class="g0_66"/>
<path fill-rule="evenodd" d="M449.6,530.5h241V515.8h-241v14.7Z" class="g0_66"/>
<path fill-rule="evenodd" d="M449.6,545.1h241V530.5h-241v14.6Z" class="g0_66"/>
<path fill-rule="evenodd" d="M449.6,559.8h241V545.1h-241v14.7Z" class="g0_66"/>
<path fill-rule="evenodd" d="M450.4,574.8H690.9V560.2H450.4v14.6Z" class="g0_66"/>
<path fill-rule="evenodd" d="M450.4,589.5H690.9V574.8H450.4v14.7Z" class="g0_66"/>
<path fill-rule="evenodd" d="M450.4,604.6H690.9V589.5H450.4v15.1Z" class="g0_66"/>
<path fill-rule="evenodd" d="M450.4,619.2H690.9V604.6H450.4v14.6Z" class="g0_66"/>
<path fill-rule="evenodd" d="M450.4,633.9H690.9V619.2H450.4v14.7Z" class="g0_66"/>
<path fill-rule="evenodd" d="M450.4,648.9H690.6V634.3H450.4v14.6Z" class="g0_66"/>
<path fill-rule="evenodd" d="M450.4,663.6H690.6V648.9H450.4v14.7Z" class="g0_66"/>
<path fill-rule="evenodd" d="M450.4,678.3H690.6V663.6H450.4v14.7Z" class="g0_66"/>
<path fill-rule="evenodd" d="M450.4,692.9H690.6V678.3H450.4v14.6Z" class="g0_66"/>
<path fill-rule="evenodd" d="M450.4,707.6H690.6V692.9H450.4v14.7Z" class="g0_66"/>
<path fill-rule="evenodd" d="M450.4,722.3H690.6V707.6H450.4v14.7Z" class="g0_66"/>
<path fill-rule="evenodd" d="M450.4,737.3H690.6v-15H450.4v15Z" class="g0_66"/>
<path fill-rule="evenodd" d="M450.4,752H690.6V737.3H450.4V752Z" class="g0_66"/>
<path fill-rule="evenodd" d="M450.4,766.6H690.6V752H450.4v14.6Z" class="g0_66"/>
<path fill-rule="evenodd" d="M450.7,781.7H690.2V767H450.7v14.7Z" class="g0_66"/>
<path fill-rule="evenodd" d="M450.7,796.3H690.2V781.7H450.7v14.6Z" class="g0_66"/>
<path fill-rule="evenodd" d="M450.4,811H690.2V796.3H450.4V811Z" class="g0_66"/>
<path fill-rule="evenodd" d="M450.4,825.7H690.2V811H450.4v14.7Z" class="g0_66"/>
<path fill-rule="evenodd" d="M450,840.4H690.6V825.7H450v14.7Z" class="g0_66"/>
<path fill-rule="evenodd" d="M450,855H690.6V840.4H450V855Z" class="g0_66"/>
<path fill-rule="evenodd" d="M450,869.7H690.6V855H450v14.7Z" class="g0_66"/>
</svg>