<?xml version="1.0" encoding="UTF-8" standalone="no"?>
<!DOCTYPE svg PUBLIC "-//W3C//DTD SVG 1.1//EN"
"http://www.w3.org/Graphics/SVG/1.1/DTD/svg11.dtd">
<svg viewBox="0 0 909 1285" version="1.1" xmlns="http://www.w3.org/2000/svg" xmlns:xlink="http://www.w3.org/1999/xlink">
<defs>
<style type="text/css"><![CDATA[
.g0_67{
fill: #FFFFFF;
}
.g1_67{
fill: none;
stroke: #000000;
stroke-width: 0.381;
stroke-linecap: butt;
stroke-linejoin: round;
}
]]></style>
</defs>
<path fill-rule="evenodd" d="M267.6,125.8H765.9V110H267.6v15.8Z" class="g0_67"/>
<path fill-rule="evenodd" d="M267.6,161.4H506.7V146.3H267.6v15.1Z" class="g0_67"/>
<path fill-rule="evenodd" d="M267.6,176.4H506.7v-15H267.6v15Z" class="g0_67"/>
<path fill-rule="evenodd" d="M267.6,191.6H506.7V176.4H267.6v15.2Z" class="g0_67"/>
<path fill-rule="evenodd" d="M266.8,206.6H506.3v-15H266.8v15Z" class="g0_67"/>
<path fill-rule="evenodd" d="M266.8,221.7H506.3V206.6H266.8v15.1Z" class="g0_67"/>
<path fill-rule="evenodd" d="M266.8,236.7H506.3v-15H266.8v15Z" class="g0_67"/>
<path fill-rule="evenodd" d="M266.8,251.7H506.3v-15H266.8v15Z" class="g0_67"/>
<path fill-rule="evenodd" d="M266.8,266.8H506.3V251.7H266.8v15.1Z" class="g0_67"/>
<path fill-rule="evenodd" d="M266.8,281.8H506.3v-15H266.8v15Z" class="g0_67"/>
<path fill-rule="evenodd" d="M266.8,296.8H506.3v-15H266.8v15Z" class="g0_67"/>
<path fill-rule="evenodd" d="M266.8,311.9H506.3V296.8H266.8v15.1Z" class="g0_67"/>
<path fill-rule="evenodd" d="M266,326.9H505.9v-15H266v15Z" class="g0_67"/>
<path fill-rule="evenodd" d="M266,341.9H505.9v-15H266v15Z" class="g0_67"/>
<path fill-rule="evenodd" d="M266,357.2H505.9V342H266v15.2Z" class="g0_67"/>
<path fill-rule="evenodd" d="M266,372.2H505.9v-15H266v15Z" class="g0_67"/>
<path fill-rule="evenodd" d="M266,387.3H505.9V372.2H266v15.1Z" class="g0_67"/>
<path fill-rule="evenodd" d="M266,402.3H505.9v-15H266v15Z" class="g0_67"/>
<path fill-rule="evenodd" d="M266,417.3H505.9v-15H266v15Z" class="g0_67"/>
<path fill-rule="evenodd" d="M266,432.4H505.9V417.3H266v15.1Z" class="g0_67"/>
<path fill-rule="evenodd" d="M267.1,447.4H504.8v-15H267.1v15Z" class="g0_67"/>
<path fill-rule="evenodd" d="M267.1,462.4H504.8v-15H267.1v15Z" class="g0_67"/>
<path fill-rule="evenodd" d="M266.8,477.5H505.6V462.4H266.8v15.1Z" class="g0_67"/>
<path fill-rule="evenodd" d="M266.8,492.5H505.6v-15H266.8v15Z" class="g0_67"/>
<path fill-rule="evenodd" d="M266.8,507.5H505.6v-15H266.8v15Z" class="g0_67"/>
<path fill-rule="evenodd" d="M266,522.6H505.2V507.5H266v15.1Z" class="g0_67"/>
<path fill-rule="evenodd" d="M266,537.8H505.2V522.6H266v15.2Z" class="g0_67"/>
<path fill-rule="evenodd" d="M266,552.8H505.2v-15H266v15Z" class="g0_67"/>
<path fill-rule="evenodd" d="M264.9,567.9H504.8V552.8H264.9v15.1Z" class="g0_67"/>
<path fill-rule="evenodd" d="M264.9,582.9H504.8v-15H264.9v15Z" class="g0_67"/>
<path fill-rule="evenodd" d="M264.9,598H504.8V582.9H264.9V598Z" class="g0_67"/>
<path fill-rule="evenodd" d="M264.9,613H504.8V598H264.9v15Z" class="g0_67"/>
<path fill-rule="evenodd" d="M264.9,628H504.8V613H264.9v15Z" class="g0_67"/>
<path fill-rule="evenodd" d="M264.9,643.1H504.8V628H264.9v15.1Z" class="g0_67"/>
<path fill-rule="evenodd" d="M264.9,658.1H504.8v-15H264.9v15Z" class="g0_67"/>
<path fill-rule="evenodd" d="M264.9,673.1H504.8v-15H264.9v15Z" class="g0_67"/>
<path fill-rule="evenodd" d="M264.9,688.2H504.8V673.1H264.9v15.1Z" class="g0_67"/>
<path fill-rule="evenodd" d="M264.9,703.2H504.8v-15H264.9v15Z" class="g0_67"/>
<path fill-rule="evenodd" d="M264.9,718.4H504.8V703.2H264.9v15.2Z" class="g0_67"/>
<path fill-rule="evenodd" d="M264.9,733.4H504.8v-15H264.9v15Z" class="g0_67"/>
<path fill-rule="evenodd" d="M264.9,748.5H504.8V733.4H264.9v15.1Z" class="g0_67"/>
<path fill-rule="evenodd" d="M264.9,763.5H504.1v-15H264.9v15Z" class="g0_67"/>
<path fill-rule="evenodd" d="M264.9,778.5H504.1v-15H264.9v15Z" class="g0_67"/>
<path fill-rule="evenodd" d="M264.9,793.6H504.1V778.5H264.9v15.1Z" class="g0_67"/>
<path fill-rule="evenodd" d="M265.3,808.6H504.1v-15H265.3v15Z" class="g0_67"/>
<path fill-rule="evenodd" d="M265.3,823.6H504.1v-15H265.3v15Z" class="g0_67"/>
<path fill-rule="evenodd" d="M264.6,838.7H503.7V823.6H264.6v15.1Z" class="g0_67"/>
<path fill-rule="evenodd" d="M264.6,853.8H503.7V838.7H264.6v15.1Z" class="g0_67"/>
<path fill-rule="evenodd" d="M264.6,868.8H503.7v-15H264.6v15Z" class="g0_67"/>
<path fill-rule="evenodd" d="M264.9,883.8H503.7v-15H264.9v15Z" class="g0_67"/>
<path fill-rule="evenodd" d="M264.9,899H503.7V883.8H264.9V899Z" class="g0_67"/>
<path fill-rule="evenodd" d="M267.6,913.7H506.7V899H267.6v14.7Z" class="g0_67"/>
<path fill-rule="evenodd" d="M527.2,161H765.9V146.3H527.2V161Z" class="g0_67"/>
<path fill-rule="evenodd" d="M527.6,176H765.9V161.4H527.6V176Z" class="g0_67"/>
<path fill-rule="evenodd" d="M527.2,190.7H765.9V176H527.2v14.7Z" class="g0_67"/>
<path fill-rule="evenodd" d="M527.2,205.4H765.9V190.7H527.2v14.7Z" class="g0_67"/>
<path fill-rule="evenodd" d="M526.8,220.4H765.9V205.7H526.8v14.7Z" class="g0_67"/>
<path fill-rule="evenodd" d="M526.8,235.1H765.9V220.4H526.8v14.7Z" class="g0_67"/>
<path fill-rule="evenodd" d="M526.5,250.6H765.9V235.8H526.5v14.8Z" class="g0_67"/>
<path fill-rule="evenodd" d="M526.5,265.3H765.9V250.6H526.5v14.7Z" class="g0_67"/>
<path fill-rule="evenodd" d="M526.5,280H765.9V265.3H526.5V280Z" class="g0_67"/>
<path fill-rule="evenodd" d="M526.5,294.6H765.9V280H526.5v14.6Z" class="g0_67"/>
<path fill-rule="evenodd" d="M526.5,309.3H765.9V294.6H526.5v14.7Z" class="g0_67"/>
<path fill-rule="evenodd" d="M526.5,324H765.9V309.3H526.5V324Z" class="g0_67"/>
<path fill-rule="evenodd" d="M525.7,339H765.6V324.3H525.7V339Z" class="g0_67"/>
<path fill-rule="evenodd" d="M525.7,353.7H765.6V339H525.7v14.7Z" class="g0_67"/>
<path fill-rule="evenodd" d="M525.7,368.4H765.6V353.7H525.7v14.7Z" class="g0_67"/>
<path fill-rule="evenodd" d="M525.7,383.1H765.6V368.4H525.7v14.7Z" class="g0_67"/>
<path fill-rule="evenodd" d="M525.7,397.7H765.6V383.1H525.7v14.6Z" class="g0_67"/>
<path fill-rule="evenodd" d="M525.7,412.4H765.6V397.7H525.7v14.7Z" class="g0_67"/>
<path fill-rule="evenodd" d="M525.7,427.1H765.6V412.4H525.7v14.7Z" class="g0_67"/>
<path fill-rule="evenodd" d="M525.7,441.7H765.6V427.1H525.7v14.6Z" class="g0_67"/>
<path fill-rule="evenodd" d="M525.7,456.4H765.2V441.7H525.7v14.7Z" class="g0_67"/>
<path fill-rule="evenodd" d="M525.7,471.1H765.2V456.4H525.7v14.7Z" class="g0_67"/>
<path fill-rule="evenodd" d="M525.7,485.7H765.2V471.1H525.7v14.6Z" class="g0_67"/>
<path fill-rule="evenodd" d="M525.7,500.4H765.2V485.7H525.7v14.7Z" class="g0_67"/>
<path fill-rule="evenodd" d="M525.7,515.1H765.2V500.4H525.7v14.7Z" class="g0_67"/>
<path fill-rule="evenodd" d="M525.7,529.7H765.2V515.1H525.7v14.6Z" class="g0_67"/>
<path fill-rule="evenodd" d="M525.4,544.8H765.2V530.1H525.4v14.7Z" class="g0_67"/>
<path fill-rule="evenodd" d="M525.4,559.4H765.2V544.8H525.4v14.6Z" class="g0_67"/>
<path fill-rule="evenodd" d="M525.4,574.1H765.2V559.4H525.4v14.7Z" class="g0_67"/>
<path fill-rule="evenodd" d="M525.4,588.8H765.2V574.1H525.4v14.7Z" class="g0_67"/>
<path fill-rule="evenodd" d="M525.4,604.2H764.1V589.5H525.4v14.7Z" class="g0_67"/>
<path fill-rule="evenodd" d="M525.4,618.9H764.1V604.2H525.4v14.7Z" class="g0_67"/>
<path fill-rule="evenodd" d="M525.4,633.5H764.1V618.9H525.4v14.6Z" class="g0_67"/>
<path fill-rule="evenodd" d="M525,648.6H764.1V633.9H525v14.7Z" class="g0_67"/>
<path fill-rule="evenodd" d="M525,663.2H764.1V648.6H525v14.6Z" class="g0_67"/>
<path fill-rule="evenodd" d="M525,678.3H764.5V663.6H525v14.7Z" class="g0_67"/>
<path fill-rule="evenodd" d="M525,692.9H764.5V678.3H525v14.6Z" class="g0_67"/>
<path fill-rule="evenodd" d="M525,707.6H764.5V692.9H525v14.7Z" class="g0_67"/>
<path fill-rule="evenodd" d="M525,722.3H764.5V707.6H525v14.7Z" class="g0_67"/>
<path fill-rule="evenodd" d="M525,736.9H764.5V722.3H525v14.6Z" class="g0_67"/>
<path fill-rule="evenodd" d="M524.3,752.3H764.1V737.7H524.3v14.6Z" class="g0_67"/>
<path fill-rule="evenodd" d="M524.3,767H764.1V752.3H524.3V767Z" class="g0_67"/>
<path fill-rule="evenodd" d="M524.3,781.7H764.1V767H524.3v14.7Z" class="g0_67"/>
<path fill-rule="evenodd" d="M524.3,796.3H764.1V781.7H524.3v14.6Z" class="g0_67"/>
<path fill-rule="evenodd" d="M524.3,811H764.1V796.3H524.3V811Z" class="g0_67"/>
<path fill-rule="evenodd" d="M524.3,826H763.4V811.4H524.3V826Z" class="g0_67"/>
<path fill-rule="evenodd" d="M524.3,840.7H763.4V826H524.3v14.7Z" class="g0_67"/>
<path fill-rule="evenodd" d="M524.3,856.3H763.4V840.7H524.3v15.6Z" class="g0_67"/>
<path fill-rule="evenodd" d="M524.3,871H763.4V856.3H524.3V871Z" class="g0_67"/>
<path fill-rule="evenodd" d="M524.3,885.7H763.4V871H524.3v14.7Z" class="g0_67"/>
<path d="M203.3,100.1V635.8M204.4,87.2V643.8M202.2,330.1V996.3M203,731.6V996.3M514.3,147.1V915.3" class="g1_67"/>
</svg>