<?xml version="1.0" encoding="UTF-8" standalone="no"?>
<!DOCTYPE svg PUBLIC "-//W3C//DTD SVG 1.1//EN"
"http://www.w3.org/Graphics/SVG/1.1/DTD/svg11.dtd">
<svg viewBox="0 0 909 1285" version="1.1" xmlns="http://www.w3.org/2000/svg" xmlns:xlink="http://www.w3.org/1999/xlink">
<defs>
<style type="text/css"><![CDATA[
.g0_321{
fill: #FFFFFF;
}
.g1_321{
fill: none;
stroke: #000000;
stroke-width: 0.763;
stroke-linecap: butt;
stroke-linejoin: round;
}
.g2_321{
fill: none;
stroke: #000000;
stroke-width: 0.381;
stroke-linecap: butt;
stroke-linejoin: round;
}
]]></style>
</defs>
<path fill-rule="evenodd" d="M271.8,131.1H772.7V110H271.8v21.1Z" class="g0_321"/>
<path fill-rule="evenodd" d="M271.4,167H512V152H271.4v15Z" class="g0_321"/>
<path fill-rule="evenodd" d="M271.4,182.3H512V167H271.4v15.3Z" class="g0_321"/>
<path fill-rule="evenodd" d="M290.5,197.3H512.3v-15H290.5v15Z" class="g0_321"/>
<path fill-rule="evenodd" d="M271.8,212.3H512v-15H271.8v15Z" class="g0_321"/>
<path fill-rule="evenodd" d="M271.8,227.4H512V212.3H271.8v15.1Z" class="g0_321"/>
<path fill-rule="evenodd" d="M290.8,242.4H512.3v-15H290.8v15Z" class="g0_321"/>
<path fill-rule="evenodd" d="M271.4,257.4H512v-15H271.4v15Z" class="g0_321"/>
<path fill-rule="evenodd" d="M271.4,272.5H512V257.4H271.4v15.1Z" class="g0_321"/>
<path fill-rule="evenodd" d="M271.4,287.5H512v-15H271.4v15Z" class="g0_321"/>
<path fill-rule="evenodd" d="M271.8,303.3H511.6V288.2H271.8v15.1Z" class="g0_321"/>
<path fill-rule="evenodd" d="M271.8,318.5H511.6V303.3H271.8v15.2Z" class="g0_321"/>
<path fill-rule="evenodd" d="M271.4,333.5H512.3v-15H271.4v15Z" class="g0_321"/>
<path fill-rule="evenodd" d="M271.4,348.5H512.3v-15H271.4v15Z" class="g0_321"/>
<path fill-rule="evenodd" d="M271.4,363.6H512v-15H271.4v15Z" class="g0_321"/>
<path fill-rule="evenodd" d="M271.4,378.7H512V363.6H271.4v15.1Z" class="g0_321"/>
<path fill-rule="evenodd" d="M271.4,393.7H511.6v-15H271.4v15Z" class="g0_321"/>
<path fill-rule="evenodd" d="M271.4,408.7H511.6v-15H271.4v15Z" class="g0_321"/>
<path fill-rule="evenodd" d="M271.4,423.8H512V408.7H271.4v15.1Z" class="g0_321"/>
<path fill-rule="evenodd" d="M271.4,438.8H512v-15H271.4v15Z" class="g0_321"/>
<path fill-rule="evenodd" d="M271.4,453.8H512v-15H271.4v15Z" class="g0_321"/>
<path fill-rule="evenodd" d="M271,469.2H511.6v-15H271v15Z" class="g0_321"/>
<path fill-rule="evenodd" d="M271,484.4H511.6V469.2H271v15.2Z" class="g0_321"/>
<path fill-rule="evenodd" d="M289.7,499.5H512.3V484.4H289.7v15.1Z" class="g0_321"/>
<path fill-rule="evenodd" d="M270.7,514.5H511.6v-15H270.7v15Z" class="g0_321"/>
<path fill-rule="evenodd" d="M270.7,529.5H511.6v-15H270.7v15Z" class="g0_321"/>
<path fill-rule="evenodd" d="M270.7,544.6H511.6V529.5H270.7v15.1Z" class="g0_321"/>
<path fill-rule="evenodd" d="M270.7,559.6H511.6v-15H270.7v15Z" class="g0_321"/>
<path fill-rule="evenodd" d="M270.7,574.6H511.2v-15H270.7v15Z" class="g0_321"/>
<path fill-rule="evenodd" d="M270.7,589.7H511.2V574.6H270.7v15.1Z" class="g0_321"/>
<path fill-rule="evenodd" d="M270.7,604.7H511.2v-15H270.7v15Z" class="g0_321"/>
<path fill-rule="evenodd" d="M270.7,619.8H511.2V604.7H270.7v15.1Z" class="g0_321"/>
<path fill-rule="evenodd" d="M270.7,634.8H511.2v-15H270.7v15Z" class="g0_321"/>
<path fill-rule="evenodd" d="M270.7,649.8H510.9v-15H270.7v15Z" class="g0_321"/>
<path fill-rule="evenodd" d="M270.7,665.1H510.9V649.8H270.7v15.3Z" class="g0_321"/>
<path fill-rule="evenodd" d="M270.3,680.1H510.9v-15H270.3v15Z" class="g0_321"/>
<path fill-rule="evenodd" d="M270.3,695.1H510.9v-15H270.3v15Z" class="g0_321"/>
<path fill-rule="evenodd" d="M270.7,710.2H510.9V695.1H270.7v15.1Z" class="g0_321"/>
<path fill-rule="evenodd" d="M270.7,725.2H510.9v-15H270.7v15Z" class="g0_321"/>
<path fill-rule="evenodd" d="M270.3,740.6H511.2v-15H270.3v15Z" class="g0_321"/>
<path fill-rule="evenodd" d="M270.3,755.6H511.2v-15H270.3v15Z" class="g0_321"/>
<path fill-rule="evenodd" d="M270.3,770.7H511.2V755.6H270.3v15.1Z" class="g0_321"/>
<path fill-rule="evenodd" d="M270.3,785.7H510.9v-15H270.3v15Z" class="g0_321"/>
<path fill-rule="evenodd" d="M270.3,800.7H510.9v-15H270.3v15Z" class="g0_321"/>
<path fill-rule="evenodd" d="M270.3,815.8H510.9V800.7H270.3v15.1Z" class="g0_321"/>
<path fill-rule="evenodd" d="M270.3,831H510.5V815.8H270.3V831Z" class="g0_321"/>
<path fill-rule="evenodd" d="M270.3,846.1H510.5V831H270.3v15.1Z" class="g0_321"/>
<path fill-rule="evenodd" d="M270.3,861.1H510.5v-15H270.3v15Z" class="g0_321"/>
<path fill-rule="evenodd" d="M270.3,876.1H510.5v-15H270.3v15Z" class="g0_321"/>
<path fill-rule="evenodd" d="M270.3,891.2H510.5V876.1H270.3v15.1Z" class="g0_321"/>
<path fill-rule="evenodd" d="M270.3,906.2H510.5v-15H270.3v15Z" class="g0_321"/>
<path fill-rule="evenodd" d="M271.4,921.2H512.3v-15H271.4v15Z" class="g0_321"/>
<path fill-rule="evenodd" d="M532.1,167H772.7V152H532.1v15Z" class="g0_321"/>
<path fill-rule="evenodd" d="M532.1,182.3H772.7V167H532.1v15.3Z" class="g0_321"/>
<path fill-rule="evenodd" d="M532.1,197.3H772.7v-15H532.1v15Z" class="g0_321"/>
<path fill-rule="evenodd" d="M532.1,212.3H772.7v-15H532.1v15Z" class="g0_321"/>
<path fill-rule="evenodd" d="M532.1,227.4H772.7V212.3H532.1v15.1Z" class="g0_321"/>
<path fill-rule="evenodd" d="M532.1,242.4H772v-15H532.1v15Z" class="g0_321"/>
<path fill-rule="evenodd" d="M532.1,257.4H772v-15H532.1v15Z" class="g0_321"/>
<path fill-rule="evenodd" d="M532.1,272.5H772V257.4H532.1v15.1Z" class="g0_321"/>
<path fill-rule="evenodd" d="M551.6,287.5H772.7v-15H551.6v15Z" class="g0_321"/>
<path fill-rule="evenodd" d="M532.1,302.5H772.7v-15H532.1v15Z" class="g0_321"/>
<path fill-rule="evenodd" d="M532.1,317.6H772.7V302.5H532.1v15.1Z" class="g0_321"/>
<path fill-rule="evenodd" d="M532.1,332.6H772.7v-15H532.1v15Z" class="g0_321"/>
<path fill-rule="evenodd" d="M532.5,347.8H772.7V332.6H532.5v15.2Z" class="g0_321"/>
<path fill-rule="evenodd" d="M532.5,362.9H772.7V347.8H532.5v15.1Z" class="g0_321"/>
<path fill-rule="evenodd" d="M532.5,377.9H772.7v-15H532.5v15Z" class="g0_321"/>
<path fill-rule="evenodd" d="M532.5,393H772.7V377.9H532.5V393Z" class="g0_321"/>
<path fill-rule="evenodd" d="M532.5,408H772.7V393H532.5v15Z" class="g0_321"/>
<path fill-rule="evenodd" d="M532.1,423H772V408H532.1v15Z" class="g0_321"/>
<path fill-rule="evenodd" d="M532.1,438.1H772V423H532.1v15.1Z" class="g0_321"/>
<path fill-rule="evenodd" d="M532.1,453.1H772v-15H532.1v15Z" class="g0_321"/>
<path fill-rule="evenodd" d="M532.1,468.1H772v-15H532.1v15Z" class="g0_321"/>
<path fill-rule="evenodd" d="M531.8,483.2H746.3V468.1H531.8v15.1Z" class="g0_321"/>
<path fill-rule="evenodd" d="M531.8,498.2H746.3v-15H531.8v15Z" class="g0_321"/>
<path fill-rule="evenodd" d="M531.4,513.2H772v-15H531.4v15Z" class="g0_321"/>
<path fill-rule="evenodd" d="M531.4,528.4H772V513.2H531.4v15.2Z" class="g0_321"/>
<path fill-rule="evenodd" d="M531.4,543.5H772V528.4H531.4v15.1Z" class="g0_321"/>
<path fill-rule="evenodd" d="M531.4,558.5H772v-15H531.4v15Z" class="g0_321"/>
<path fill-rule="evenodd" d="M531.4,573.5H772v-15H531.4v15Z" class="g0_321"/>
<path fill-rule="evenodd" d="M531.4,588.6H772V573.5H531.4v15.1Z" class="g0_321"/>
<path fill-rule="evenodd" d="M531.4,603.6H771.6v-15H531.4v15Z" class="g0_321"/>
<path fill-rule="evenodd" d="M531.4,618.7H771.6V603.6H531.4v15.1Z" class="g0_321"/>
<path fill-rule="evenodd" d="M531.4,633.7H771.6v-15H531.4v15Z" class="g0_321"/>
<path fill-rule="evenodd" d="M531.4,648.7H771.6v-15H531.4v15Z" class="g0_321"/>
<path fill-rule="evenodd" d="M531.4,663.8H771.6V648.7H531.4v15.1Z" class="g0_321"/>
<path fill-rule="evenodd" d="M531.4,678.8H771.2v-15H531.4v15Z" class="g0_321"/>
<path fill-rule="evenodd" d="M531.4,693.8H771.2v-15H531.4v15Z" class="g0_321"/>
<path fill-rule="evenodd" d="M531.4,709.1H771.2V693.8H531.4v15.3Z" class="g0_321"/>
<path fill-rule="evenodd" d="M531.4,724.1H771.2v-15H531.4v15Z" class="g0_321"/>
<path fill-rule="evenodd" d="M531.4,739.1H771.6v-15H531.4v15Z" class="g0_321"/>
<path fill-rule="evenodd" d="M531.4,754.2H771.6V739.1H531.4v15.1Z" class="g0_321"/>
<path fill-rule="evenodd" d="M531,769.2H772v-15H531v15Z" class="g0_321"/>
<path fill-rule="evenodd" d="M531,784.2H772v-15H531v15Z" class="g0_321"/>
<path fill-rule="evenodd" d="M531,799.3H772V784.2H531v15.1Z" class="g0_321"/>
<path fill-rule="evenodd" d="M550.1,814.3H772.7v-15H550.1v15Z" class="g0_321"/>
<path fill-rule="evenodd" d="M550.1,829.3H772.7v-15H550.1v15Z" class="g0_321"/>
<path fill-rule="evenodd" d="M531,844.4H771.6V829.3H531v15.1Z" class="g0_321"/>
<path fill-rule="evenodd" d="M531,859.4H771.6v-15H531v15Z" class="g0_321"/>
<path fill-rule="evenodd" d="M531,874.5H771.6V859.4H531v15.1Z" class="g0_321"/>
<path fill-rule="evenodd" d="M531,889.7H770.9V874.5H531v15.2Z" class="g0_321"/>
<path fill-rule="evenodd" d="M531,904.7H770.9v-15H531v15Z" class="g0_321"/>
<path d="M200.9,838.8v153" class="g1_321"/>
<path d="M207.2,287.8V886.9M212.7,598v405.1m308,-849.9V922.1" class="g2_321"/>
</svg>