<?xml version="1.0" encoding="UTF-8" standalone="no"?>
<!DOCTYPE svg PUBLIC "-//W3C//DTD SVG 1.1//EN"
"http://www.w3.org/Graphics/SVG/1.1/DTD/svg11.dtd">
<svg viewBox="0 0 909 1285" version="1.1" xmlns="http://www.w3.org/2000/svg" xmlns:xlink="http://www.w3.org/1999/xlink">
<defs>
<style type="text/css"><![CDATA[
.g0_154{
fill: #FFFFFF;
}
.g1_154{
fill: none;
stroke: #000000;
stroke-width: 0.381;
stroke-linecap: butt;
stroke-linejoin: round;
}
]]></style>
</defs>
<path fill-rule="evenodd" d="M552.1,125.8h131V110h-131v15.8Z" class="g0_154"/>
<path fill-rule="evenodd" d="M185,162.3H423.7V147.1H185v15.2Z" class="g0_154"/>
<path fill-rule="evenodd" d="M185,177.3H423.7v-15H185v15Z" class="g0_154"/>
<path fill-rule="evenodd" d="M185,192.3H423v-15H185v15Z" class="g0_154"/>
<path fill-rule="evenodd" d="M185,207.4H423V192.3H185v15.1Z" class="g0_154"/>
<path fill-rule="evenodd" d="M185,222.4H423v-15H185v15Z" class="g0_154"/>
<path fill-rule="evenodd" d="M203,237.4H423.7v-15H203v15Z" class="g0_154"/>
<path fill-rule="evenodd" d="M203,252.5H423.7V237.4H203v15.1Z" class="g0_154"/>
<path fill-rule="evenodd" d="M184.6,267.5H423.4v-15H184.6v15Z" class="g0_154"/>
<path fill-rule="evenodd" d="M184.6,282.5H423.4v-15H184.6v15Z" class="g0_154"/>
<path fill-rule="evenodd" d="M184.6,297.6H423.4V282.5H184.6v15.1Z" class="g0_154"/>
<path fill-rule="evenodd" d="M184.6,312.6H423.4v-15H184.6v15Z" class="g0_154"/>
<path fill-rule="evenodd" d="M184.6,327.8H423.4V312.6H184.6v15.2Z" class="g0_154"/>
<path fill-rule="evenodd" d="M184.6,342.9H423.4V327.8H184.6v15.1Z" class="g0_154"/>
<path fill-rule="evenodd" d="M184.6,357.9H423.4v-15H184.6v15Z" class="g0_154"/>
<path fill-rule="evenodd" d="M184.6,373H423.4V357.9H184.6V373Z" class="g0_154"/>
<path fill-rule="evenodd" d="M202.6,388H423.7V373H202.6v15Z" class="g0_154"/>
<path fill-rule="evenodd" d="M184.6,403H423V388H184.6v15Z" class="g0_154"/>
<path fill-rule="evenodd" d="M184.6,418.1H423V403H184.6v15.1Z" class="g0_154"/>
<path fill-rule="evenodd" d="M184.6,433.1H423v-15H184.6v15Z" class="g0_154"/>
<path fill-rule="evenodd" d="M183.9,448.1H422.6v-15H183.9v15Z" class="g0_154"/>
<path fill-rule="evenodd" d="M183.9,463.2H422.6V448.1H183.9v15.1Z" class="g0_154"/>
<path fill-rule="evenodd" d="M183.9,478.2H422.6v-15H183.9v15Z" class="g0_154"/>
<path fill-rule="evenodd" d="M183.9,493.2H422.6v-15H183.9v15Z" class="g0_154"/>
<path fill-rule="evenodd" d="M183.9,508.5H422.6V493.2H183.9v15.3Z" class="g0_154"/>
<path fill-rule="evenodd" d="M183.9,523.5H422.6v-15H183.9v15Z" class="g0_154"/>
<path fill-rule="evenodd" d="M183.9,538.5H422.6v-15H183.9v15Z" class="g0_154"/>
<path fill-rule="evenodd" d="M183.9,553.6H422.6V538.5H183.9v15.1Z" class="g0_154"/>
<path fill-rule="evenodd" d="M183.9,568.6H422.6v-15H183.9v15Z" class="g0_154"/>
<path fill-rule="evenodd" d="M183.9,583.6H422.6v-15H183.9v15Z" class="g0_154"/>
<path fill-rule="evenodd" d="M183.9,598.7H422.6V583.6H183.9v15.1Z" class="g0_154"/>
<path fill-rule="evenodd" d="M183.9,613.7H422.6v-15H183.9v15Z" class="g0_154"/>
<path fill-rule="evenodd" d="M184.3,628.8H421.9V613.7H184.3v15.1Z" class="g0_154"/>
<path fill-rule="evenodd" d="M184.3,643.8H421.9v-15H184.3v15Z" class="g0_154"/>
<path fill-rule="evenodd" d="M183.2,658.8H422.3v-15H183.2v15Z" class="g0_154"/>
<path fill-rule="evenodd" d="M183.2,673.9H422.3V658.8H183.2v15.1Z" class="g0_154"/>
<path fill-rule="evenodd" d="M183.2,689.1H422.3V673.9H183.2v15.2Z" class="g0_154"/>
<path fill-rule="evenodd" d="M183.2,704.1H422.3v-15H183.2v15Z" class="g0_154"/>
<path fill-rule="evenodd" d="M183.2,719.1H422.3v-15H183.2v15Z" class="g0_154"/>
<path fill-rule="evenodd" d="M183.2,734.2H421.9V719.1H183.2v15.1Z" class="g0_154"/>
<path fill-rule="evenodd" d="M183.2,749.2H421.9v-15H183.2v15Z" class="g0_154"/>
<path fill-rule="evenodd" d="M183.2,764.2H421.9v-15H183.2v15Z" class="g0_154"/>
<path fill-rule="evenodd" d="M183.9,779.3H421.5V764.2H183.9v15.1Z" class="g0_154"/>
<path fill-rule="evenodd" d="M183.9,794.3H421.5v-15H183.9v15Z" class="g0_154"/>
<path fill-rule="evenodd" d="M183.5,809.3H421.9v-15H183.5v15Z" class="g0_154"/>
<path fill-rule="evenodd" d="M183.5,824.4H421.9V809.3H183.5v15.1Z" class="g0_154"/>
<path fill-rule="evenodd" d="M183.5,839.5H421.9V824.4H183.5v15.1Z" class="g0_154"/>
<path fill-rule="evenodd" d="M183.5,854.5H421.9v-15H183.5v15Z" class="g0_154"/>
<path fill-rule="evenodd" d="M183.2,869.7H421.9V854.5H183.2v15.2Z" class="g0_154"/>
<path fill-rule="evenodd" d="M183.2,884.7H421.9v-15H183.2v15Z" class="g0_154"/>
<path fill-rule="evenodd" d="M183.2,899.8H421.9V884.7H183.2v15.1Z" class="g0_154"/>
<path fill-rule="evenodd" d="M183.2,927.3H423.7V911.5H183.2v15.8Z" class="g0_154"/>
<path fill-rule="evenodd" d="M185,942.3H423.7v-15H185v15Z" class="g0_154"/>
<path fill-rule="evenodd" d="M443.9,161.7H683.1v-15H443.9v15Z" class="g0_154"/>
<path fill-rule="evenodd" d="M443.9,176.9H683.1V161.7H443.9v15.2Z" class="g0_154"/>
<path fill-rule="evenodd" d="M443.9,192H683.1V176.9H443.9V192Z" class="g0_154"/>
<path fill-rule="evenodd" d="M443.9,207H683.1V192H443.9v15Z" class="g0_154"/>
<path fill-rule="evenodd" d="M443.6,222H682.7V207H443.6v15Z" class="g0_154"/>
<path fill-rule="evenodd" d="M443.6,237.1H682.7V222H443.6v15.1Z" class="g0_154"/>
<path fill-rule="evenodd" d="M443.6,252.1H682.7v-15H443.6v15Z" class="g0_154"/>
<path fill-rule="evenodd" d="M443.6,267.1H682.7v-15H443.6v15Z" class="g0_154"/>
<path fill-rule="evenodd" d="M443.6,282.2H682.7V267.1H443.6v15.1Z" class="g0_154"/>
<path fill-rule="evenodd" d="M443.6,297.2H682.7v-15H443.6v15Z" class="g0_154"/>
<path fill-rule="evenodd" d="M443.6,312.2H682.3v-15H443.6v15Z" class="g0_154"/>
<path fill-rule="evenodd" d="M443.6,327.3H682.3V312.2H443.6v15.1Z" class="g0_154"/>
<path fill-rule="evenodd" d="M443.6,342.5H682.3V327.3H443.6v15.2Z" class="g0_154"/>
<path fill-rule="evenodd" d="M443.2,357.6H683.1V342.5H443.2v15.1Z" class="g0_154"/>
<path fill-rule="evenodd" d="M443.2,372.6H683.1v-15H443.2v15Z" class="g0_154"/>
<path fill-rule="evenodd" d="M443.2,387.6H683.1v-15H443.2v15Z" class="g0_154"/>
<path fill-rule="evenodd" d="M443.2,402.7H683.1V387.6H443.2v15.1Z" class="g0_154"/>
<path fill-rule="evenodd" d="M443.6,417.7H682.7v-15H443.6v15Z" class="g0_154"/>
<path fill-rule="evenodd" d="M443.6,432.7H682.7v-15H443.6v15Z" class="g0_154"/>
<path fill-rule="evenodd" d="M443.6,447.8H682.7V432.7H443.6v15.1Z" class="g0_154"/>
<path fill-rule="evenodd" d="M443.2,462.8H681.6v-15H443.2v15Z" class="g0_154"/>
<path fill-rule="evenodd" d="M443.2,477.8H681.6v-15H443.2v15Z" class="g0_154"/>
<path fill-rule="evenodd" d="M443.2,492.9H682.3V477.8H443.2v15.1Z" class="g0_154"/>
<path fill-rule="evenodd" d="M443.2,507.9H682.3v-15H443.2v15Z" class="g0_154"/>
<path fill-rule="evenodd" d="M443.2,523.1H682.3V507.9H443.2v15.2Z" class="g0_154"/>
<path fill-rule="evenodd" d="M443.2,538.2H681.6V523.1H443.2v15.1Z" class="g0_154"/>
<path fill-rule="evenodd" d="M443.2,553.2H681.6v-15H443.2v15Z" class="g0_154"/>
<path fill-rule="evenodd" d="M442.5,568.2H682v-15H442.5v15Z" class="g0_154"/>
<path fill-rule="evenodd" d="M442.5,583.3H682V568.2H442.5v15.1Z" class="g0_154"/>
<path fill-rule="evenodd" d="M442.5,598.3H682v-15H442.5v15Z" class="g0_154"/>
<path fill-rule="evenodd" d="M442.5,613.4H682V598.3H442.5v15.1Z" class="g0_154"/>
<path fill-rule="evenodd" d="M442.5,628.4H682v-15H442.5v15Z" class="g0_154"/>
<path fill-rule="evenodd" d="M442.8,643.8H682v-15H442.8v15Z" class="g0_154"/>
<path fill-rule="evenodd" d="M442.8,658.8H682v-15H442.8v15Z" class="g0_154"/>
<path fill-rule="evenodd" d="M442.5,673.9H681.6V658.8H442.5v15.1Z" class="g0_154"/>
<path fill-rule="evenodd" d="M442.5,689.1H681.6V673.9H442.5v15.2Z" class="g0_154"/>
<path fill-rule="evenodd" d="M442.5,704.1H681.6v-15H442.5v15Z" class="g0_154"/>
<path fill-rule="evenodd" d="M442.5,719.1H681.6v-15H442.5v15Z" class="g0_154"/>
<path fill-rule="evenodd" d="M442.5,734.2H681.6V719.1H442.5v15.1Z" class="g0_154"/>
<path fill-rule="evenodd" d="M442.5,749.2H681.6v-15H442.5v15Z" class="g0_154"/>
<path fill-rule="evenodd" d="M442.1,764.2H680.9v-15H442.1v15Z" class="g0_154"/>
<path fill-rule="evenodd" d="M442.1,779.3H680.9V764.2H442.1v15.1Z" class="g0_154"/>
<path fill-rule="evenodd" d="M442.5,794.3H681.2v-15H442.5v15Z" class="g0_154"/>
<path fill-rule="evenodd" d="M442.5,809.3H681.2v-15H442.5v15Z" class="g0_154"/>
<path fill-rule="evenodd" d="M442.5,824.4H681.2V809.3H442.5v15.1Z" class="g0_154"/>
<path fill-rule="evenodd" d="M442.5,839.5H681.2V824.4H442.5v15.1Z" class="g0_154"/>
<path fill-rule="evenodd" d="M460.5,854.5H683.1v-15H460.5v15Z" class="g0_154"/>
<path fill-rule="evenodd" d="M442.1,869.7H681.2V854.5H442.1v15.2Z" class="g0_154"/>
<path fill-rule="evenodd" d="M442.1,884.7H681.2v-15H442.1v15Z" class="g0_154"/>
<path fill-rule="evenodd" d="M460.1,899.8h223V884.7h-223v15.1Z" class="g0_154"/>
<path d="M431.4,146.4V915.3" class="g1_154"/>
</svg>