<?xml version="1.0" encoding="UTF-8" standalone="no"?>
<!DOCTYPE svg PUBLIC "-//W3C//DTD SVG 1.1//EN"
"http://www.w3.org/Graphics/SVG/1.1/DTD/svg11.dtd">
<svg viewBox="0 0 909 1285" version="1.1" xmlns="http://www.w3.org/2000/svg" xmlns:xlink="http://www.w3.org/1999/xlink">
<defs>
<style type="text/css"><![CDATA[
.g0_288{
fill: #FFFFFF;
}
.g1_288{
fill: none;
stroke: #000000;
stroke-width: 0.381;
stroke-linecap: butt;
stroke-linejoin: round;
}
.g2_288{
fill: none;
stroke: #000000;
stroke-width: 0.763;
stroke-linecap: butt;
stroke-linejoin: round;
}
]]></style>
</defs>
<path fill-rule="evenodd" d="M630.4,125.8h59.4V110H630.4v15.8Z" class="g0_288"/>
<path fill-rule="evenodd" d="M198.8,162.3H418.4V147.1H198.8v15.2Z" class="g0_288"/>
<path fill-rule="evenodd" d="M198.8,177.3H418.4v-15H198.8v15Z" class="g0_288"/>
<path fill-rule="evenodd" d="M198.8,192.3H418.4v-15H198.8v15Z" class="g0_288"/>
<path fill-rule="evenodd" d="M198.8,207.4H418.4V192.3H198.8v15.1Z" class="g0_288"/>
<path fill-rule="evenodd" d="M198.8,222.4H418.4v-15H198.8v15Z" class="g0_288"/>
<path fill-rule="evenodd" d="M439.2,161.7H678.3v-15H439.2v15Z" class="g0_288"/>
<path fill-rule="evenodd" d="M439.2,176.9H678.3V161.7H439.2v15.2Z" class="g0_288"/>
<path fill-rule="evenodd" d="M439.2,192H678.3V176.9H439.2V192Z" class="g0_288"/>
<path fill-rule="evenodd" d="M439.2,207H678.3V192H439.2v15Z" class="g0_288"/>
<path fill-rule="evenodd" d="M413.3,271.7H689.9V247H413.3v24.7Z" class="g0_288"/>
<path fill-rule="evenodd" d="M180.8,306.2H419.2v-15H180.8v15Z" class="g0_288"/>
<path fill-rule="evenodd" d="M180.8,321.2H419.2v-15H180.8v15Z" class="g0_288"/>
<path fill-rule="evenodd" d="M180.4,336.4H419.2V321.2H180.4v15.2Z" class="g0_288"/>
<path fill-rule="evenodd" d="M180.4,351.5H419.2V336.4H180.4v15.1Z" class="g0_288"/>
<path fill-rule="evenodd" d="M180.4,366.6H419.2V351.5H180.4v15.1Z" class="g0_288"/>
<path fill-rule="evenodd" d="M180.4,381.6H419.2v-15H180.4v15Z" class="g0_288"/>
<path fill-rule="evenodd" d="M180.1,396.6H418.8v-15H180.1v15Z" class="g0_288"/>
<path fill-rule="evenodd" d="M180.1,411.7H418.8V396.6H180.1v15.1Z" class="g0_288"/>
<path fill-rule="evenodd" d="M180.1,426.7H418.8v-15H180.1v15Z" class="g0_288"/>
<path fill-rule="evenodd" d="M180.1,441.7H418.8v-15H180.1v15Z" class="g0_288"/>
<path fill-rule="evenodd" d="M180.1,456.8H418.8V441.7H180.1v15.1Z" class="g0_288"/>
<path fill-rule="evenodd" d="M180.1,471.8H418.8v-15H180.1v15Z" class="g0_288"/>
<path fill-rule="evenodd" d="M180.1,486.8H418.8v-15H180.1v15Z" class="g0_288"/>
<path fill-rule="evenodd" d="M180.1,502H418.8V486.8H180.1V502Z" class="g0_288"/>
<path fill-rule="evenodd" d="M180.1,517.1H418.8V502H180.1v15.1Z" class="g0_288"/>
<path fill-rule="evenodd" d="M180.1,532.1H418.8v-15H180.1v15Z" class="g0_288"/>
<path fill-rule="evenodd" d="M180.1,547.1H418.8v-15H180.1v15Z" class="g0_288"/>
<path fill-rule="evenodd" d="M180.1,562.2H418.8V547.1H180.1v15.1Z" class="g0_288"/>
<path fill-rule="evenodd" d="M180.1,577.2H418.8v-15H180.1v15Z" class="g0_288"/>
<path fill-rule="evenodd" d="M180.1,592.2H418.8v-15H180.1v15Z" class="g0_288"/>
<path fill-rule="evenodd" d="M180.1,607.3H418.8V592.2H180.1v15.1Z" class="g0_288"/>
<path fill-rule="evenodd" d="M180.1,622.3H418.8v-15H180.1v15Z" class="g0_288"/>
<path fill-rule="evenodd" d="M180.1,637.4H418.8V622.3H180.1v15.1Z" class="g0_288"/>
<path fill-rule="evenodd" d="M180.1,652.4H418.8v-15H180.1v15Z" class="g0_288"/>
<path fill-rule="evenodd" d="M180.1,667.4H418.8v-15H180.1v15Z" class="g0_288"/>
<path fill-rule="evenodd" d="M198.8,682.7H419.2V667.4H198.8v15.3Z" class="g0_288"/>
<path fill-rule="evenodd" d="M180.8,697.7h238v-15h-238v15Z" class="g0_288"/>
<path fill-rule="evenodd" d="M180.8,712.7h238v-15h-238v15Z" class="g0_288"/>
<path fill-rule="evenodd" d="M180.4,727.8H418.1V712.7H180.4v15.1Z" class="g0_288"/>
<path fill-rule="evenodd" d="M180.4,742.8H418.1v-15H180.4v15Z" class="g0_288"/>
<path fill-rule="evenodd" d="M180.8,757.8H418.4v-15H180.8v15Z" class="g0_288"/>
<path fill-rule="evenodd" d="M180.8,772.9H418.4V757.8H180.8v15.1Z" class="g0_288"/>
<path fill-rule="evenodd" d="M180.4,787.9H418.8v-15H180.4v15Z" class="g0_288"/>
<path fill-rule="evenodd" d="M180.4,802.9H418.8v-15H180.4v15Z" class="g0_288"/>
<path fill-rule="evenodd" d="M180.4,818H418.8V802.9H180.4V818Z" class="g0_288"/>
<path fill-rule="evenodd" d="M180.4,833H418.8V818H180.4v15Z" class="g0_288"/>
<path fill-rule="evenodd" d="M180.1,848.1H418.4V833H180.1v15.1Z" class="g0_288"/>
<path fill-rule="evenodd" d="M180.1,863.3H418.4V848.1H180.1v15.2Z" class="g0_288"/>
<path fill-rule="evenodd" d="M180.1,878.3H418.4v-15H180.1v15Z" class="g0_288"/>
<path fill-rule="evenodd" d="M180.1,893.4H418.4V878.3H180.1v15.1Z" class="g0_288"/>
<path fill-rule="evenodd" d="M180.4,908h238V893.4h-238V908Z" class="g0_288"/>
<path fill-rule="evenodd" d="M439.3,308H678.9V293.4H439.3V308Z" class="g0_288"/>
<path fill-rule="evenodd" d="M439.3,322.7H678.9V308H439.3v14.7Z" class="g0_288"/>
<path fill-rule="evenodd" d="M439.3,337.4H678.9V322.7H439.3v14.7Z" class="g0_288"/>
<path fill-rule="evenodd" d="M439.3,352H678.9V337.4H439.3V352Z" class="g0_288"/>
<path fill-rule="evenodd" d="M439.3,366.7H679.6V352H439.3v14.7Z" class="g0_288"/>
<path fill-rule="evenodd" d="M439.3,381.4H679.6V366.7H439.3v14.7Z" class="g0_288"/>
<path fill-rule="evenodd" d="M439.3,396.6H679.2V381.8H439.3v14.8Z" class="g0_288"/>
<path fill-rule="evenodd" d="M439.3,411.3H679.2V396.6H439.3v14.7Z" class="g0_288"/>
<path fill-rule="evenodd" d="M439.3,426H679.2V411.3H439.3V426Z" class="g0_288"/>
<path fill-rule="evenodd" d="M439.3,440.6H679.2V426H439.3v14.6Z" class="g0_288"/>
<path fill-rule="evenodd" d="M439.3,455.3H679.2V440.6H439.3v14.7Z" class="g0_288"/>
<path fill-rule="evenodd" d="M439.7,470.3H623.8V455.7H439.7v14.6Z" class="g0_288"/>
<path fill-rule="evenodd" d="M439.7,485H623.8V470.3H439.7V485Z" class="g0_288"/>
<path fill-rule="evenodd" d="M439,500H678.5V485.4H439V500Z" class="g0_288"/>
<path fill-rule="evenodd" d="M439,514.7H678.5V500H439v14.7Z" class="g0_288"/>
<path fill-rule="evenodd" d="M439,529.4H678.5V514.7H439v14.7Z" class="g0_288"/>
<path fill-rule="evenodd" d="M439.7,544H678.9V529.4H439.7V544Z" class="g0_288"/>
<path fill-rule="evenodd" d="M439.7,558.7H678.9V544H439.7v14.7Z" class="g0_288"/>
<path fill-rule="evenodd" d="M439.3,573.4H678.5V558.7H439.3v14.7Z" class="g0_288"/>
<path fill-rule="evenodd" d="M439.3,588H678.5V573.4H439.3V588Z" class="g0_288"/>
<path fill-rule="evenodd" d="M439.3,602.7H679.2V588H439.3v14.7Z" class="g0_288"/>
<path fill-rule="evenodd" d="M439.3,617.4H679.2V602.7H439.3v14.7Z" class="g0_288"/>
<path fill-rule="evenodd" d="M439.3,632.1H679.2V617.4H439.3v14.7Z" class="g0_288"/>
<path fill-rule="evenodd" d="M439.3,646.7H679.2V632.1H439.3v14.6Z" class="g0_288"/>
<path fill-rule="evenodd" d="M439.3,661.4H679.2V646.7H439.3v14.7Z" class="g0_288"/>
<path fill-rule="evenodd" d="M439.3,676.1H679.2V661.4H439.3v14.7Z" class="g0_288"/>
<path fill-rule="evenodd" d="M439.3,690.7H678.9V676.1H439.3v14.6Z" class="g0_288"/>
<path fill-rule="evenodd" d="M439.3,705.4H678.9V690.7H439.3v14.7Z" class="g0_288"/>
<path fill-rule="evenodd" d="M439.3,720.1H678.9V705.4H439.3v14.7Z" class="g0_288"/>
<path fill-rule="evenodd" d="M439.7,734.7H679.2V720.1H439.7v14.6Z" class="g0_288"/>
<path fill-rule="evenodd" d="M439.7,749.4H679.2V734.7H439.7v14.7Z" class="g0_288"/>
<path fill-rule="evenodd" d="M439,764.1H678.5V749.4H439v14.7Z" class="g0_288"/>
<path fill-rule="evenodd" d="M439,778.7H678.5V764.1H439v14.6Z" class="g0_288"/>
<path fill-rule="evenodd" d="M457.3,793.4H679.6V778.7H457.3v14.7Z" class="g0_288"/>
<path fill-rule="evenodd" d="M439,808.1H678.9V793.4H439v14.7Z" class="g0_288"/>
<path fill-rule="evenodd" d="M439,822.7H678.9V808.1H439v14.6Z" class="g0_288"/>
<path fill-rule="evenodd" d="M439,837.4H678.9V822.7H439v14.7Z" class="g0_288"/>
<path fill-rule="evenodd" d="M439,852.1H678.9V837.4H439v14.7Z" class="g0_288"/>
<path fill-rule="evenodd" d="M439,866.8H678.9V852.1H439v14.7Z" class="g0_288"/>
<path fill-rule="evenodd" d="M439,881.4H678.9V866.8H439v14.6Z" class="g0_288"/>
<path fill-rule="evenodd" d="M415.9,923.2h274V905.8h-274v17.4Z" class="g0_288"/>
<path d="M428.2,146.4v58.2" class="g1_288"/>
<path d="M428.6,290.1V913.8" class="g2_288"/>
</svg>