<?xml version="1.0" encoding="UTF-8" standalone="no"?>
<!DOCTYPE svg PUBLIC "-//W3C//DTD SVG 1.1//EN"
"http://www.w3.org/Graphics/SVG/1.1/DTD/svg11.dtd">
<svg viewBox="0 0 909 1285" version="1.1" xmlns="http://www.w3.org/2000/svg" xmlns:xlink="http://www.w3.org/1999/xlink">
<defs>
<style type="text/css"><![CDATA[
.g0_291{
fill: #FFFFFF;
}
.g1_291{
fill: none;
stroke: #000000;
stroke-width: 0.381;
stroke-linecap: butt;
stroke-linejoin: round;
}
]]></style>
</defs>
<path fill-rule="evenodd" d="M260.5,125.8H758.2V110H260.5v15.8Z" class="g0_291"/>
<path fill-rule="evenodd" d="M259.4,162.1H499.3V147.4H259.4v14.7Z" class="g0_291"/>
<path fill-rule="evenodd" d="M259.4,176.8H499.3V162.1H259.4v14.7Z" class="g0_291"/>
<path fill-rule="evenodd" d="M259.4,191.4H499.3V176.8H259.4v14.6Z" class="g0_291"/>
<path fill-rule="evenodd" d="M259.4,206.1H499.3V191.4H259.4v14.7Z" class="g0_291"/>
<path fill-rule="evenodd" d="M259.4,220.8H499.3V206.1H259.4v14.7Z" class="g0_291"/>
<path fill-rule="evenodd" d="M278.6,235.8H499.3V221.1H278.6v14.7Z" class="g0_291"/>
<path fill-rule="evenodd" d="M278.6,250.5H499.3V235.8H278.6v14.7Z" class="g0_291"/>
<path fill-rule="evenodd" d="M278.6,265.5H499.3v-15H278.6v15Z" class="g0_291"/>
<path fill-rule="evenodd" d="M278.6,280.5H499.3v-15H278.6v15Z" class="g0_291"/>
<path fill-rule="evenodd" d="M259.4,295.7H499V280.9H259.4v14.8Z" class="g0_291"/>
<path fill-rule="evenodd" d="M259.4,310.4H499V295.7H259.4v14.7Z" class="g0_291"/>
<path fill-rule="evenodd" d="M259.4,325.1H499V310.4H259.4v14.7Z" class="g0_291"/>
<path fill-rule="evenodd" d="M259.4,339.7H499V325.1H259.4v14.6Z" class="g0_291"/>
<path fill-rule="evenodd" d="M259.4,354.5H499V339.8H259.4v14.7Z" class="g0_291"/>
<path fill-rule="evenodd" d="M259.4,369.1H499V354.5H259.4v14.6Z" class="g0_291"/>
<path fill-rule="evenodd" d="M259.4,384.2H498.6V369.5H259.4v14.7Z" class="g0_291"/>
<path fill-rule="evenodd" d="M259.4,398.8H498.6V384.2H259.4v14.6Z" class="g0_291"/>
<path fill-rule="evenodd" d="M259.4,413.5H498.6V398.8H259.4v14.7Z" class="g0_291"/>
<path fill-rule="evenodd" d="M258,428.5H498.2V413.9H258v14.6Z" class="g0_291"/>
<path fill-rule="evenodd" d="M258,443.2H498.2V428.5H258v14.7Z" class="g0_291"/>
<path fill-rule="evenodd" d="M258,457.9H498.2V443.2H258v14.7Z" class="g0_291"/>
<path fill-rule="evenodd" d="M258,472.5H498.2V457.9H258v14.6Z" class="g0_291"/>
<path fill-rule="evenodd" d="M258,487.2H498.2V472.5H258v14.7Z" class="g0_291"/>
<path fill-rule="evenodd" d="M258,501.9H498.2V487.2H258v14.7Z" class="g0_291"/>
<path fill-rule="evenodd" d="M258,516.5H498.2V501.9H258v14.6Z" class="g0_291"/>
<path fill-rule="evenodd" d="M258,531.2H498.2V516.5H258v14.7Z" class="g0_291"/>
<path fill-rule="evenodd" d="M258,545.9H498.2V531.2H258v14.7Z" class="g0_291"/>
<path fill-rule="evenodd" d="M258,560.5H498.2V545.9H258v14.6Z" class="g0_291"/>
<path fill-rule="evenodd" d="M258,575.2H498.2V560.5H258v14.7Z" class="g0_291"/>
<path fill-rule="evenodd" d="M258,589.9H498.2V575.2H258v14.7Z" class="g0_291"/>
<path fill-rule="evenodd" d="M258,604.6H498.2V589.9H258v14.7Z" class="g0_291"/>
<path fill-rule="evenodd" d="M258,619.2H498.2V604.6H258v14.6Z" class="g0_291"/>
<path fill-rule="evenodd" d="M258.7,633.9H497.5V619.2H258.7v14.7Z" class="g0_291"/>
<path fill-rule="evenodd" d="M258.7,648.6H497.5V633.9H258.7v14.7Z" class="g0_291"/>
<path fill-rule="evenodd" d="M258.7,663.2H497.5V648.6H258.7v14.6Z" class="g0_291"/>
<path fill-rule="evenodd" d="M258.7,677.9H497.5V663.2H258.7v14.7Z" class="g0_291"/>
<path fill-rule="evenodd" d="M258.7,692.6H497.5V677.9H258.7v14.7Z" class="g0_291"/>
<path fill-rule="evenodd" d="M258.7,707.2H497.5V692.6H258.7v14.6Z" class="g0_291"/>
<path fill-rule="evenodd" d="M258.3,721.9H497.1V707.2H258.3v14.7Z" class="g0_291"/>
<path fill-rule="evenodd" d="M258.3,736.6H497.1V721.9H258.3v14.7Z" class="g0_291"/>
<path fill-rule="evenodd" d="M258,751.6H496.8V736.9H258v14.7Z" class="g0_291"/>
<path fill-rule="evenodd" d="M258,766.3H496.8V751.6H258v14.7Z" class="g0_291"/>
<path fill-rule="evenodd" d="M258,780.9H496.8V766.3H258v14.6Z" class="g0_291"/>
<path fill-rule="evenodd" d="M258,796H496.8V780.9H258V796Z" class="g0_291"/>
<path fill-rule="evenodd" d="M258,810.6H496.8V796H258v14.6Z" class="g0_291"/>
<path fill-rule="evenodd" d="M258,825.3H496.8V810.6H258v14.7Z" class="g0_291"/>
<path fill-rule="evenodd" d="M258,840H496.8V825.3H258V840Z" class="g0_291"/>
<path fill-rule="evenodd" d="M257.6,855.4H496.8V840.7H257.6v14.7Z" class="g0_291"/>
<path fill-rule="evenodd" d="M257.6,870.1H496.8V855.4H257.6v14.7Z" class="g0_291"/>
<path fill-rule="evenodd" d="M257.6,885.1H496.4V870.4H257.6v14.7Z" class="g0_291"/>
<path fill-rule="evenodd" d="M257.6,899.8H496.4V885.1H257.6v14.7Z" class="g0_291"/>
<path fill-rule="evenodd" d="M260.5,914.4H499.3V899.8H260.5v14.6Z" class="g0_291"/>
<path fill-rule="evenodd" d="M519.3,162.5H758V147.8H519.3v14.7Z" class="g0_291"/>
<path fill-rule="evenodd" d="M519.3,177.1H758V162.5H519.3v14.6Z" class="g0_291"/>
<path fill-rule="evenodd" d="M519.3,191.8H758V177.1H519.3v14.7Z" class="g0_291"/>
<path fill-rule="evenodd" d="M519.3,206.5H758V191.8H519.3v14.7Z" class="g0_291"/>
<path fill-rule="evenodd" d="M519.3,221.1H758V206.5H519.3v14.6Z" class="g0_291"/>
<path fill-rule="evenodd" d="M519.3,235.8H758V221.1H519.3v14.7Z" class="g0_291"/>
<path fill-rule="evenodd" d="M519.3,250.5H758V235.8H519.3v14.7Z" class="g0_291"/>
<path fill-rule="evenodd" d="M519.7,265.9h238V251.2h-238v14.7Z" class="g0_291"/>
<path fill-rule="evenodd" d="M519.7,280.5h238V265.9h-238v14.6Z" class="g0_291"/>
<path fill-rule="evenodd" d="M519.3,296.1h238V281.3h-238v14.8Z" class="g0_291"/>
<path fill-rule="evenodd" d="M519.3,310.8h238V296.1h-238v14.7Z" class="g0_291"/>
<path fill-rule="evenodd" d="M518.6,325.8H757.3V311.1H518.6v14.7Z" class="g0_291"/>
<path fill-rule="evenodd" d="M518.6,340.5H757.3V325.8H518.6v14.7Z" class="g0_291"/>
<path fill-rule="evenodd" d="M518.6,355.2H757.3V340.5H518.6v14.7Z" class="g0_291"/>
<path fill-rule="evenodd" d="M518.6,369.9H757.3V355.2H518.6v14.7Z" class="g0_291"/>
<path fill-rule="evenodd" d="M518.6,384.5H757.3V369.9H518.6v14.6Z" class="g0_291"/>
<path fill-rule="evenodd" d="M518.6,399.2H757.3V384.5H518.6v14.7Z" class="g0_291"/>
<path fill-rule="evenodd" d="M518.6,413.9H757.3V399.2H518.6v14.7Z" class="g0_291"/>
<path fill-rule="evenodd" d="M518.9,429.3H756.2V414.6H518.9v14.7Z" class="g0_291"/>
<path fill-rule="evenodd" d="M518.9,443.9H756.2V429.3H518.9v14.6Z" class="g0_291"/>
<path fill-rule="evenodd" d="M517.8,459H756.6V444.3H517.8V459Z" class="g0_291"/>
<path fill-rule="evenodd" d="M517.8,473.6H756.6V459H517.8v14.6Z" class="g0_291"/>
<path fill-rule="evenodd" d="M517.8,488.7H756.9V474H517.8v14.7Z" class="g0_291"/>
<path fill-rule="evenodd" d="M517.8,503.3H756.9V488.7H517.8v14.6Z" class="g0_291"/>
<path fill-rule="evenodd" d="M517.8,518H756.9V503.3H517.8V518Z" class="g0_291"/>
<path fill-rule="evenodd" d="M517.8,532.7H756.9V518H517.8v14.7Z" class="g0_291"/>
<path fill-rule="evenodd" d="M517.8,547.3H756.9V532.7H517.8v14.6Z" class="g0_291"/>
<path fill-rule="evenodd" d="M517.8,562H756.9V547.3H517.8V562Z" class="g0_291"/>
<path fill-rule="evenodd" d="M517.8,577H756.6V562.4H517.8V577Z" class="g0_291"/>
<path fill-rule="evenodd" d="M517.8,591.7H756.6V577H517.8v14.7Z" class="g0_291"/>
<path fill-rule="evenodd" d="M517.8,606.4H756.6V591.7H517.8v14.7Z" class="g0_291"/>
<path fill-rule="evenodd" d="M535.8,621.4H758V606.8H535.8v14.6Z" class="g0_291"/>
<path fill-rule="evenodd" d="M517.1,636.1H755.8V621.4H517.1v14.7Z" class="g0_291"/>
<path fill-rule="evenodd" d="M517.1,650.8H755.8V636.1H517.1v14.7Z" class="g0_291"/>
<path fill-rule="evenodd" d="M517.1,665.4H755.8V650.8H517.1v14.6Z" class="g0_291"/>
<path fill-rule="evenodd" d="M517.1,680.1H755.8V665.4H517.1v14.7Z" class="g0_291"/>
<path fill-rule="evenodd" d="M517.1,695.1H755.8v-15H517.1v15Z" class="g0_291"/>
<path fill-rule="evenodd" d="M517.1,709.8H755.8V695.1H517.1v14.7Z" class="g0_291"/>
<path fill-rule="evenodd" d="M517.1,724.5H755.8V709.8H517.1v14.7Z" class="g0_291"/>
<path fill-rule="evenodd" d="M517.1,739.1H755.8V724.5H517.1v14.6Z" class="g0_291"/>
<path fill-rule="evenodd" d="M535.1,754.2H758V739.5H535.1v14.7Z" class="g0_291"/>
<path fill-rule="evenodd" d="M517.1,769.2H755.8V754.5H517.1v14.7Z" class="g0_291"/>
<path fill-rule="evenodd" d="M517.1,783.9H755.8V769.2H517.1v14.7Z" class="g0_291"/>
<path fill-rule="evenodd" d="M517.1,798.5H755.8V783.9H517.1v14.6Z" class="g0_291"/>
<path fill-rule="evenodd" d="M534.7,813.7H758V798.9H534.7v14.8Z" class="g0_291"/>
<path fill-rule="evenodd" d="M534.3,828.8H758V814.1H534.3v14.7Z" class="g0_291"/>
<path fill-rule="evenodd" d="M516.7,843.5H755.5V828.8H516.7v14.7Z" class="g0_291"/>
<path fill-rule="evenodd" d="M516.7,858.2H755.5V843.5H516.7v14.7Z" class="g0_291"/>
<path fill-rule="evenodd" d="M516.4,873.6H755.5V858.9H516.4v14.7Z" class="g0_291"/>
<path fill-rule="evenodd" d="M516.4,888.2H755.5V873.6H516.4v14.6Z" class="g0_291"/>
<path d="M506.5,148.5V916.7" class="g1_291"/>
</svg>