<?xml version="1.0" encoding="UTF-8" standalone="no"?>
<!DOCTYPE svg PUBLIC "-//W3C//DTD SVG 1.1//EN"
"http://www.w3.org/Graphics/SVG/1.1/DTD/svg11.dtd">
<svg viewBox="0 0 909 1285" version="1.1" xmlns="http://www.w3.org/2000/svg" xmlns:xlink="http://www.w3.org/1999/xlink">
<defs>
<style type="text/css"><![CDATA[
.g0_167{
fill: #FFFFFF;
}
.g1_167{
fill: none;
stroke: #000000;
stroke-width: 0.381;
stroke-linecap: butt;
stroke-linejoin: round;
}
]]></style>
</defs>
<path fill-rule="evenodd" d="M275.4,125.8H773.1V110H275.4v15.8Z" class="g0_167"/>
<path fill-rule="evenodd" d="M274.7,161.4H513.8V146.3H274.7v15.1Z" class="g0_167"/>
<path fill-rule="evenodd" d="M274.7,176.4H513.8v-15H274.7v15Z" class="g0_167"/>
<path fill-rule="evenodd" d="M274.7,191.6H513.8V176.4H274.7v15.2Z" class="g0_167"/>
<path fill-rule="evenodd" d="M275.1,206.6h238v-15h-238v15Z" class="g0_167"/>
<path fill-rule="evenodd" d="M275.1,221.7h238V206.6h-238v15.1Z" class="g0_167"/>
<path fill-rule="evenodd" d="M275.1,236.7H513.8v-15H275.1v15Z" class="g0_167"/>
<path fill-rule="evenodd" d="M275.1,251.7H513.8v-15H275.1v15Z" class="g0_167"/>
<path fill-rule="evenodd" d="M275.1,266.8H513.8V251.7H275.1v15.1Z" class="g0_167"/>
<path fill-rule="evenodd" d="M274.3,282.2H513.4V267.1H274.3v15.1Z" class="g0_167"/>
<path fill-rule="evenodd" d="M274.3,297.2H513.4v-15H274.3v15Z" class="g0_167"/>
<path fill-rule="evenodd" d="M274.3,312.2H513.4v-15H274.3v15Z" class="g0_167"/>
<path fill-rule="evenodd" d="M274.7,327.3H513.1V312.2H274.7v15.1Z" class="g0_167"/>
<path fill-rule="evenodd" d="M274.7,342.5H513.1V327.3H274.7v15.2Z" class="g0_167"/>
<path fill-rule="evenodd" d="M274.3,357.6H512.7V342.5H274.3v15.1Z" class="g0_167"/>
<path fill-rule="evenodd" d="M274.3,372.6H512.7v-15H274.3v15Z" class="g0_167"/>
<path fill-rule="evenodd" d="M273.6,387.6H512.7v-15H273.6v15Z" class="g0_167"/>
<path fill-rule="evenodd" d="M273.6,402.7H512.7V387.6H273.6v15.1Z" class="g0_167"/>
<path fill-rule="evenodd" d="M273.6,417.7H512.7v-15H273.6v15Z" class="g0_167"/>
<path fill-rule="evenodd" d="M273.6,432.7H512.7v-15H273.6v15Z" class="g0_167"/>
<path fill-rule="evenodd" d="M273.6,447.8H512.7V432.7H273.6v15.1Z" class="g0_167"/>
<path fill-rule="evenodd" d="M273.6,462.8H512.7v-15H273.6v15Z" class="g0_167"/>
<path fill-rule="evenodd" d="M273.6,477.8H512.7v-15H273.6v15Z" class="g0_167"/>
<path fill-rule="evenodd" d="M273.6,492.9H512.7V477.8H273.6v15.1Z" class="g0_167"/>
<path fill-rule="evenodd" d="M272.1,507.9H513.8v-15H272.1v15Z" class="g0_167"/>
<path fill-rule="evenodd" d="M272.1,523.1H513.8V507.9H272.1v15.2Z" class="g0_167"/>
<path fill-rule="evenodd" d="M272.1,538.2H513.8V523.1H272.1v15.1Z" class="g0_167"/>
<path fill-rule="evenodd" d="M272.1,553.2H513.8v-15H272.1v15Z" class="g0_167"/>
<path fill-rule="evenodd" d="M273.2,568.2H512v-15H273.2v15Z" class="g0_167"/>
<path fill-rule="evenodd" d="M273.2,583.3H512V568.2H273.2v15.1Z" class="g0_167"/>
<path fill-rule="evenodd" d="M273.2,598.3H511.6v-15H273.2v15Z" class="g0_167"/>
<path fill-rule="evenodd" d="M273.2,613.4H511.6V598.3H273.2v15.1Z" class="g0_167"/>
<path fill-rule="evenodd" d="M272.5,628.4H511.6v-15H272.5v15Z" class="g0_167"/>
<path fill-rule="evenodd" d="M272.5,643.4H511.6v-15H272.5v15Z" class="g0_167"/>
<path fill-rule="evenodd" d="M272.5,658.5H511.6V643.4H272.5v15.1Z" class="g0_167"/>
<path fill-rule="evenodd" d="M272.5,673.5H511.6v-15H272.5v15Z" class="g0_167"/>
<path fill-rule="evenodd" d="M272.9,688.5H511.2v-15H272.9v15Z" class="g0_167"/>
<path fill-rule="evenodd" d="M272.9,703.7H511.2V688.5H272.9v15.2Z" class="g0_167"/>
<path fill-rule="evenodd" d="M272.9,718.8H511.2V703.7H272.9v15.1Z" class="g0_167"/>
<path fill-rule="evenodd" d="M272.5,733.8H510.9v-15H272.5v15Z" class="g0_167"/>
<path fill-rule="evenodd" d="M272.5,748.8H510.9v-15H272.5v15Z" class="g0_167"/>
<path fill-rule="evenodd" d="M272.1,763.9H513.8V748.8H272.1v15.1Z" class="g0_167"/>
<path fill-rule="evenodd" d="M272.1,778.9H513.8v-15H272.1v15Z" class="g0_167"/>
<path fill-rule="evenodd" d="M272.1,793.9H513.8v-15H272.1v15Z" class="g0_167"/>
<path fill-rule="evenodd" d="M272.1,809H513.8V793.9H272.1V809Z" class="g0_167"/>
<path fill-rule="evenodd" d="M272.1,824H513.8V809H272.1v15Z" class="g0_167"/>
<path fill-rule="evenodd" d="M272.1,839.1H513.8V824H272.1v15.1Z" class="g0_167"/>
<path fill-rule="evenodd" d="M272.1,854.1H510.9v-15H272.1v15Z" class="g0_167"/>
<path fill-rule="evenodd" d="M272.1,869.2H510.9V854.1H272.1v15.1Z" class="g0_167"/>
<path fill-rule="evenodd" d="M272.1,884.4H510.9V869.2H272.1v15.2Z" class="g0_167"/>
<path fill-rule="evenodd" d="M274,899.4H513.8v-15H274v15Z" class="g0_167"/>
<path fill-rule="evenodd" d="M533.2,161.4H773.1V146.3H533.2v15.1Z" class="g0_167"/>
<path fill-rule="evenodd" d="M533.2,176.4H773.1v-15H533.2v15Z" class="g0_167"/>
<path fill-rule="evenodd" d="M533.2,191.6H773.1V176.4H533.2v15.2Z" class="g0_167"/>
<path fill-rule="evenodd" d="M533.2,206.6H773.1v-15H533.2v15Z" class="g0_167"/>
<path fill-rule="evenodd" d="M533.2,221.7H773.1V206.6H533.2v15.1Z" class="g0_167"/>
<path fill-rule="evenodd" d="M533.2,236.7H773.1v-15H533.2v15Z" class="g0_167"/>
<path fill-rule="evenodd" d="M533.2,251.7H773.1v-15H533.2v15Z" class="g0_167"/>
<path fill-rule="evenodd" d="M533.2,266.8H773.1V251.7H533.2v15.1Z" class="g0_167"/>
<path fill-rule="evenodd" d="M533.2,281.8H773.1v-15H533.2v15Z" class="g0_167"/>
<path fill-rule="evenodd" d="M533.2,296.8H773.1v-15H533.2v15Z" class="g0_167"/>
<path fill-rule="evenodd" d="M533.2,311.9H773.1V296.8H533.2v15.1Z" class="g0_167"/>
<path fill-rule="evenodd" d="M533.2,326.9H773.1v-15H533.2v15Z" class="g0_167"/>
<path fill-rule="evenodd" d="M533.6,341.9H746.7v-15H533.6v15Z" class="g0_167"/>
<path fill-rule="evenodd" d="M533.6,357.2H746.7V342H533.6v15.2Z" class="g0_167"/>
<path fill-rule="evenodd" d="M532.9,372.2H773.1v-15H532.9v15Z" class="g0_167"/>
<path fill-rule="evenodd" d="M532.9,387.3H773.1V372.2H532.9v15.1Z" class="g0_167"/>
<path fill-rule="evenodd" d="M532.9,402.3H773.1v-15H532.9v15Z" class="g0_167"/>
<path fill-rule="evenodd" d="M532.9,417.3H773.1v-15H532.9v15Z" class="g0_167"/>
<path fill-rule="evenodd" d="M532.9,432.4H773.1V417.3H532.9v15.1Z" class="g0_167"/>
<path fill-rule="evenodd" d="M532.9,447.4H771.2v-15H532.9v15Z" class="g0_167"/>
<path fill-rule="evenodd" d="M532.5,462.4H641.1v-15H532.5v15Z" class="g0_167"/>
<path fill-rule="evenodd" d="M532.5,477.5H641.1V462.4H532.5v15.1Z" class="g0_167"/>
<path fill-rule="evenodd" d="M532.5,492.5H770.9v-15H532.5v15Z" class="g0_167"/>
<path fill-rule="evenodd" d="M532.5,507.5H770.9v-15H532.5v15Z" class="g0_167"/>
<path fill-rule="evenodd" d="M550.8,523.1H773.1V507.9H550.8v15.2Z" class="g0_167"/>
<path fill-rule="evenodd" d="M550.8,538.2H773.1V523.1H550.8v15.1Z" class="g0_167"/>
<path fill-rule="evenodd" d="M532.1,553.2h241v-15h-241v15Z" class="g0_167"/>
<path fill-rule="evenodd" d="M532.1,568.2h241v-15h-241v15Z" class="g0_167"/>
<path fill-rule="evenodd" d="M532.1,583.3h241V568.2h-241v15.1Z" class="g0_167"/>
<path fill-rule="evenodd" d="M532.1,598.3h241v-15h-241v15Z" class="g0_167"/>
<path fill-rule="evenodd" d="M531.8,613.4H770.9V598.3H531.8v15.1Z" class="g0_167"/>
<path fill-rule="evenodd" d="M531.8,628.4H770.9v-15H531.8v15Z" class="g0_167"/>
<path fill-rule="evenodd" d="M531.8,643.4H770.9v-15H531.8v15Z" class="g0_167"/>
<path fill-rule="evenodd" d="M531.8,658.5H770.9V643.4H531.8v15.1Z" class="g0_167"/>
<path fill-rule="evenodd" d="M531.4,673.5H773.1v-15H531.4v15Z" class="g0_167"/>
<path fill-rule="evenodd" d="M531.4,688.5H773.1v-15H531.4v15Z" class="g0_167"/>
<path fill-rule="evenodd" d="M531.4,703.7H773.1V688.5H531.4v15.2Z" class="g0_167"/>
<path fill-rule="evenodd" d="M531.4,718.8H773.1V703.7H531.4v15.1Z" class="g0_167"/>
<path fill-rule="evenodd" d="M531.4,733.8H773.1v-15H531.4v15Z" class="g0_167"/>
<path fill-rule="evenodd" d="M531.4,748.8H769.8v-15H531.4v15Z" class="g0_167"/>
<path fill-rule="evenodd" d="M531.4,763.9H769.8V748.8H531.4v15.1Z" class="g0_167"/>
<path fill-rule="evenodd" d="M531.4,778.9H770.9v-15H531.4v15Z" class="g0_167"/>
<path fill-rule="evenodd" d="M531.4,793.9H770.9v-15H531.4v15Z" class="g0_167"/>
<path fill-rule="evenodd" d="M531.4,809H770.9V793.9H531.4V809Z" class="g0_167"/>
<path fill-rule="evenodd" d="M531.4,824H770.9V809H531.4v15Z" class="g0_167"/>
<path fill-rule="evenodd" d="M531.4,839.1H770.9V824H531.4v15.1Z" class="g0_167"/>
<path fill-rule="evenodd" d="M531.4,854.1H770.9v-15H531.4v15Z" class="g0_167"/>
<path fill-rule="evenodd" d="M509,916.5H773.1V899H509v17.5Z" class="g0_167"/>
<path d="M198.8,100.5v39.9m19.1,-40.3V154m-3,729v86.1m3.3,-806.2v803M199.5,142.7v16.9M520.7,147.4V916" class="g1_167"/>
</svg>