<?xml version="1.0" encoding="UTF-8" standalone="no"?>
<!DOCTYPE svg PUBLIC "-//W3C//DTD SVG 1.1//EN"
"http://www.w3.org/Graphics/SVG/1.1/DTD/svg11.dtd">
<svg viewBox="0 0 909 1285" version="1.1" xmlns="http://www.w3.org/2000/svg" xmlns:xlink="http://www.w3.org/1999/xlink">
<defs>
<style type="text/css"><![CDATA[
.g0_43{
fill: #FFFFFF;
}
.g1_43{
fill: none;
stroke: #000000;
stroke-width: 0.381;
stroke-linecap: butt;
stroke-linejoin: round;
}
]]></style>
</defs>
<path fill-rule="evenodd" d="M260.7,125.8H758.4V110H260.7v15.8Z" class="g0_43"/>
<path fill-rule="evenodd" d="M260.4,161.7H499.1v-15H260.4v15Z" class="g0_43"/>
<path fill-rule="evenodd" d="M260.4,176.9H499.1V161.7H260.4v15.2Z" class="g0_43"/>
<path fill-rule="evenodd" d="M260.4,192H499.1V176.9H260.4V192Z" class="g0_43"/>
<path fill-rule="evenodd" d="M260.4,207H499.1V192H260.4v15Z" class="g0_43"/>
<path fill-rule="evenodd" d="M260,222H498.8V207H260v15Z" class="g0_43"/>
<path fill-rule="evenodd" d="M260,237.1H498.8V222H260v15.1Z" class="g0_43"/>
<path fill-rule="evenodd" d="M260,252.1H498.8v-15H260v15Z" class="g0_43"/>
<path fill-rule="evenodd" d="M260,267.1H498.8v-15H260v15Z" class="g0_43"/>
<path fill-rule="evenodd" d="M260,282.2H498.8V267.1H260v15.1Z" class="g0_43"/>
<path fill-rule="evenodd" d="M260,297.2H498.8v-15H260v15Z" class="g0_43"/>
<path fill-rule="evenodd" d="M260,312.2H498.8v-15H260v15Z" class="g0_43"/>
<path fill-rule="evenodd" d="M260,327.3H498.8V312.2H260v15.1Z" class="g0_43"/>
<path fill-rule="evenodd" d="M260,342.5H498.8V327.3H260v15.2Z" class="g0_43"/>
<path fill-rule="evenodd" d="M260,357.6H419.9V342.5H260v15.1Z" class="g0_43"/>
<path fill-rule="evenodd" d="M260,372.6H419.9v-15H260v15Z" class="g0_43"/>
<path fill-rule="evenodd" d="M258.9,387.6H498.4v-15H258.9v15Z" class="g0_43"/>
<path fill-rule="evenodd" d="M258.9,402.7H498.4V387.6H258.9v15.1Z" class="g0_43"/>
<path fill-rule="evenodd" d="M258.9,417.7H498.4v-15H258.9v15Z" class="g0_43"/>
<path fill-rule="evenodd" d="M258.9,432.7H498.4v-15H258.9v15Z" class="g0_43"/>
<path fill-rule="evenodd" d="M258.9,447.8H498.4V432.7H258.9v15.1Z" class="g0_43"/>
<path fill-rule="evenodd" d="M258.9,462.8H498.4v-15H258.9v15Z" class="g0_43"/>
<path fill-rule="evenodd" d="M258.9,477.8H498.4v-15H258.9v15Z" class="g0_43"/>
<path fill-rule="evenodd" d="M258.9,492.9H499.1V477.8H258.9v15.1Z" class="g0_43"/>
<path fill-rule="evenodd" d="M258.9,507.9H499.1v-15H258.9v15Z" class="g0_43"/>
<path fill-rule="evenodd" d="M258.9,523.1H499.1V507.9H258.9v15.2Z" class="g0_43"/>
<path fill-rule="evenodd" d="M258.9,538.2H499.1V523.1H258.9v15.1Z" class="g0_43"/>
<path fill-rule="evenodd" d="M258.9,553.2H499.1v-15H258.9v15Z" class="g0_43"/>
<path fill-rule="evenodd" d="M258.2,568.6H497.7v-15H258.2v15Z" class="g0_43"/>
<path fill-rule="evenodd" d="M258.2,583.6H497.7v-15H258.2v15Z" class="g0_43"/>
<path fill-rule="evenodd" d="M258.2,598.7H497.7V583.6H258.2v15.1Z" class="g0_43"/>
<path fill-rule="evenodd" d="M258.2,613.7H497.7v-15H258.2v15Z" class="g0_43"/>
<path fill-rule="evenodd" d="M258.2,628.8H497.7V613.7H258.2v15.1Z" class="g0_43"/>
<path fill-rule="evenodd" d="M258.2,643.8H497.7v-15H258.2v15Z" class="g0_43"/>
<path fill-rule="evenodd" d="M258.2,658.8H497.7v-15H258.2v15Z" class="g0_43"/>
<path fill-rule="evenodd" d="M257.8,673.9H496.9V658.8H257.8v15.1Z" class="g0_43"/>
<path fill-rule="evenodd" d="M257.8,689.1H496.9V673.9H257.8v15.2Z" class="g0_43"/>
<path fill-rule="evenodd" d="M257.8,704.1H496.9v-15H257.8v15Z" class="g0_43"/>
<path fill-rule="evenodd" d="M257.8,719.1H496.9v-15H257.8v15Z" class="g0_43"/>
<path fill-rule="evenodd" d="M257.8,734.2H496.9V719.1H257.8v15.1Z" class="g0_43"/>
<path fill-rule="evenodd" d="M257.8,749.2H496.9v-15H257.8v15Z" class="g0_43"/>
<path fill-rule="evenodd" d="M258.2,764.2H446.3v-15H258.2v15Z" class="g0_43"/>
<path fill-rule="evenodd" d="M258.2,779.3H446.3V764.2H258.2v15.1Z" class="g0_43"/>
<path fill-rule="evenodd" d="M257.8,794.3H496.9v-15H257.8v15Z" class="g0_43"/>
<path fill-rule="evenodd" d="M257.8,809.3H496.9v-15H257.8v15Z" class="g0_43"/>
<path fill-rule="evenodd" d="M257.8,824.4H496.9V809.3H257.8v15.1Z" class="g0_43"/>
<path fill-rule="evenodd" d="M257.8,839.5H496.9V824.4H257.8v15.1Z" class="g0_43"/>
<path fill-rule="evenodd" d="M257.8,854.5H496.9v-15H257.8v15Z" class="g0_43"/>
<path fill-rule="evenodd" d="M257.4,869.7H496.6V854.5H257.4v15.2Z" class="g0_43"/>
<path fill-rule="evenodd" d="M257.4,884.7H496.6v-15H257.4v15Z" class="g0_43"/>
<path fill-rule="evenodd" d="M260,899.8H498.4V884.7H260v15.1Z" class="g0_43"/>
<path fill-rule="evenodd" d="M519.3,161.7H757.7v-15H519.3v15Z" class="g0_43"/>
<path fill-rule="evenodd" d="M519.3,176.9H757.7V161.7H519.3v15.2Z" class="g0_43"/>
<path fill-rule="evenodd" d="M537.6,192.3H758.4v-15H537.6v15Z" class="g0_43"/>
<path fill-rule="evenodd" d="M519.3,207.4H758.4V192.3H519.3v15.1Z" class="g0_43"/>
<path fill-rule="evenodd" d="M519.3,222.4H758.4v-15H519.3v15Z" class="g0_43"/>
<path fill-rule="evenodd" d="M519.3,237.4H758.4v-15H519.3v15Z" class="g0_43"/>
<path fill-rule="evenodd" d="M537.3,252.5H758.4V237.4H537.3v15.1Z" class="g0_43"/>
<path fill-rule="evenodd" d="M518.9,267.5H758.4v-15H518.9v15Z" class="g0_43"/>
<path fill-rule="evenodd" d="M518.9,282.5H758.4v-15H518.9v15Z" class="g0_43"/>
<path fill-rule="evenodd" d="M518.9,297.6H758.4V282.5H518.9v15.1Z" class="g0_43"/>
<path fill-rule="evenodd" d="M518.9,312.6H758.4v-15H518.9v15Z" class="g0_43"/>
<path fill-rule="evenodd" d="M519.3,327.8H756.9V312.6H519.3v15.2Z" class="g0_43"/>
<path fill-rule="evenodd" d="M519.3,342.9H756.9V327.8H519.3v15.1Z" class="g0_43"/>
<path fill-rule="evenodd" d="M518.9,357.9H757.7v-15H518.9v15Z" class="g0_43"/>
<path fill-rule="evenodd" d="M518.9,373H757.7V357.9H518.9V373Z" class="g0_43"/>
<path fill-rule="evenodd" d="M517.8,388H757.3V373H517.8v15Z" class="g0_43"/>
<path fill-rule="evenodd" d="M517.8,403H757.3V388H517.8v15Z" class="g0_43"/>
<path fill-rule="evenodd" d="M517.8,418.1H757.3V403H517.8v15.1Z" class="g0_43"/>
<path fill-rule="evenodd" d="M517.8,433.1H757.3v-15H517.8v15Z" class="g0_43"/>
<path fill-rule="evenodd" d="M517.8,448.1H757.3v-15H517.8v15Z" class="g0_43"/>
<path fill-rule="evenodd" d="M517.8,463.2H757.3V448.1H517.8v15.1Z" class="g0_43"/>
<path fill-rule="evenodd" d="M517.8,478.2H757.3v-15H517.8v15Z" class="g0_43"/>
<path fill-rule="evenodd" d="M517.8,493.2H757.3v-15H517.8v15Z" class="g0_43"/>
<path fill-rule="evenodd" d="M517.5,508.5H756.6V493.2H517.5v15.3Z" class="g0_43"/>
<path fill-rule="evenodd" d="M517.5,523.5H756.6v-15H517.5v15Z" class="g0_43"/>
<path fill-rule="evenodd" d="M517.5,538.5H756.6v-15H517.5v15Z" class="g0_43"/>
<path fill-rule="evenodd" d="M517.5,553.6H756.6V538.5H517.5v15.1Z" class="g0_43"/>
<path fill-rule="evenodd" d="M517.5,568.6H756.6v-15H517.5v15Z" class="g0_43"/>
<path fill-rule="evenodd" d="M517.5,583.6H756.6v-15H517.5v15Z" class="g0_43"/>
<path fill-rule="evenodd" d="M517.1,598.7H758.4V583.6H517.1v15.1Z" class="g0_43"/>
<path fill-rule="evenodd" d="M517.1,613.7H758.4v-15H517.1v15Z" class="g0_43"/>
<path fill-rule="evenodd" d="M517.1,628.8H758.4V613.7H517.1v15.1Z" class="g0_43"/>
<path fill-rule="evenodd" d="M517.1,643.8H758.4v-15H517.1v15Z" class="g0_43"/>
<path fill-rule="evenodd" d="M517.1,658.8H758.4v-15H517.1v15Z" class="g0_43"/>
<path fill-rule="evenodd" d="M517.1,673.9H756.2V658.8H517.1v15.1Z" class="g0_43"/>
<path fill-rule="evenodd" d="M517.1,689.1H756.2V673.9H517.1v15.2Z" class="g0_43"/>
<path fill-rule="evenodd" d="M517.1,704.1H756.2v-15H517.1v15Z" class="g0_43"/>
<path fill-rule="evenodd" d="M517.1,719.1H756.2v-15H517.1v15Z" class="g0_43"/>
<path fill-rule="evenodd" d="M517.1,734.2H756.2V719.1H517.1v15.1Z" class="g0_43"/>
<path fill-rule="evenodd" d="M517.1,749.2H756.2v-15H517.1v15Z" class="g0_43"/>
<path fill-rule="evenodd" d="M516.7,764.2H755.8v-15H516.7v15Z" class="g0_43"/>
<path fill-rule="evenodd" d="M516.7,779.3H755.8V764.2H516.7v15.1Z" class="g0_43"/>
<path fill-rule="evenodd" d="M516.7,794.3H755.8v-15H516.7v15Z" class="g0_43"/>
<path fill-rule="evenodd" d="M516.7,809.3H755.8v-15H516.7v15Z" class="g0_43"/>
<path fill-rule="evenodd" d="M516.7,824.4H755.8V809.3H516.7v15.1Z" class="g0_43"/>
<path fill-rule="evenodd" d="M516.7,839.5H755.8V824.4H516.7v15.1Z" class="g0_43"/>
<path fill-rule="evenodd" d="M516.7,854.5H755.8v-15H516.7v15Z" class="g0_43"/>
<path fill-rule="evenodd" d="M496.9,916.8H758.4V899.4H496.9v17.4Z" class="g0_43"/>
<path d="M196.9,94.3v40.3m2.9,-40.3V521.4M187.7,373V506.5m3.7,180v128M197.6,656V946.1m2.2,-120.3V973.3m.3,-459.1V970.3M506.3,147.8V916" class="g1_43"/>
</svg>