<?xml version="1.0" encoding="UTF-8" standalone="no"?>
<!DOCTYPE svg PUBLIC "-//W3C//DTD SVG 1.1//EN"
"http://www.w3.org/Graphics/SVG/1.1/DTD/svg11.dtd">
<svg viewBox="0 0 909 1285" version="1.1" xmlns="http://www.w3.org/2000/svg" xmlns:xlink="http://www.w3.org/1999/xlink">
<defs>
<style type="text/css"><![CDATA[
.g0_219{
fill: #FFFFFF;
}
.g1_219{
fill: none;
stroke: #000000;
stroke-width: 2.215;
stroke-linecap: butt;
stroke-linejoin: round;
}
.g2_219{
fill: none;
stroke: #000000;
stroke-width: 0.381;
stroke-linecap: butt;
stroke-linejoin: round;
}
]]></style>
</defs>
<path fill-rule="evenodd" d="M532.9,125.8H685.1V110H532.9v15.8Z" class="g0_219"/>
<path fill-rule="evenodd" d="M187,162.1H425.4V147.4H187v14.7Z" class="g0_219"/>
<path fill-rule="evenodd" d="M187,176.8H425.4V162.1H187v14.7Z" class="g0_219"/>
<path fill-rule="evenodd" d="M187,191.4H425.4V176.8H187v14.6Z" class="g0_219"/>
<path fill-rule="evenodd" d="M187,206.1H425.4V191.4H187v14.7Z" class="g0_219"/>
<path fill-rule="evenodd" d="M187,220.8H425.4V206.1H187v14.7Z" class="g0_219"/>
<path fill-rule="evenodd" d="M187,235.4H425.4V220.8H187v14.6Z" class="g0_219"/>
<path fill-rule="evenodd" d="M187,250.1H424.7V235.4H187v14.7Z" class="g0_219"/>
<path fill-rule="evenodd" d="M187,264.8H424.7V250.1H187v14.7Z" class="g0_219"/>
<path fill-rule="evenodd" d="M205.4,279.4h220V264.8h-220v14.6Z" class="g0_219"/>
<path fill-rule="evenodd" d="M187.4,294.5H425V279.8H187.4v14.7Z" class="g0_219"/>
<path fill-rule="evenodd" d="M187.4,309.1H425V294.5H187.4v14.6Z" class="g0_219"/>
<path fill-rule="evenodd" d="M187,323.8H425.4V309.1H187v14.7Z" class="g0_219"/>
<path fill-rule="evenodd" d="M187,338.5H425.4V323.8H187v14.7Z" class="g0_219"/>
<path fill-rule="evenodd" d="M187,353.2H425.4V338.5H187v14.7Z" class="g0_219"/>
<path fill-rule="evenodd" d="M205.4,367.8h220V353.2h-220v14.6Z" class="g0_219"/>
<path fill-rule="evenodd" d="M187,382.9H425.4V368.2H187v14.7Z" class="g0_219"/>
<path fill-rule="evenodd" d="M187,397.5H425.4V382.9H187v14.6Z" class="g0_219"/>
<path fill-rule="evenodd" d="M187,412.2H425.4V397.5H187v14.7Z" class="g0_219"/>
<path fill-rule="evenodd" d="M187,426.9H425.4V412.2H187v14.7Z" class="g0_219"/>
<path fill-rule="evenodd" d="M187,441.5H425.4V426.9H187v14.6Z" class="g0_219"/>
<path fill-rule="evenodd" d="M187,456.2H425.4V441.5H187v14.7Z" class="g0_219"/>
<path fill-rule="evenodd" d="M186.7,470.9H425V456.2H186.7v14.7Z" class="g0_219"/>
<path fill-rule="evenodd" d="M186.7,485.5H425V470.9H186.7v14.6Z" class="g0_219"/>
<path fill-rule="evenodd" d="M186.7,500.2H425V485.5H186.7v14.7Z" class="g0_219"/>
<path fill-rule="evenodd" d="M204.6,514.9H425.4V500.2H204.6v14.7Z" class="g0_219"/>
<path fill-rule="evenodd" d="M186.7,529.5H425V514.9H186.7v14.6Z" class="g0_219"/>
<path fill-rule="evenodd" d="M186.7,544.2H425V529.5H186.7v14.7Z" class="g0_219"/>
<path fill-rule="evenodd" d="M185.9,559.2H425.4V544.6H185.9v14.6Z" class="g0_219"/>
<path fill-rule="evenodd" d="M185.9,573.9H425.4V559.2H185.9v14.7Z" class="g0_219"/>
<path fill-rule="evenodd" d="M185.9,588.6H425.4V573.9H185.9v14.7Z" class="g0_219"/>
<path fill-rule="evenodd" d="M185.9,603.3H425.4V588.6H185.9v14.7Z" class="g0_219"/>
<path fill-rule="evenodd" d="M204.3,618.5H425.4V603.6H204.3v14.9Z" class="g0_219"/>
<path fill-rule="evenodd" d="M185.9,633.5H424.3V618.9H185.9v14.6Z" class="g0_219"/>
<path fill-rule="evenodd" d="M185.9,648.2H424.3V633.5H185.9v14.7Z" class="g0_219"/>
<path fill-rule="evenodd" d="M185.2,662.9H424.3V648.2H185.2v14.7Z" class="g0_219"/>
<path fill-rule="evenodd" d="M185.2,677.5H424.3V662.9H185.2v14.6Z" class="g0_219"/>
<path fill-rule="evenodd" d="M185.2,692.2H424.3V677.5H185.2v14.7Z" class="g0_219"/>
<path fill-rule="evenodd" d="M185.2,707.2H424.3v-15H185.2v15Z" class="g0_219"/>
<path fill-rule="evenodd" d="M185.2,721.9H424.3V707.2H185.2v14.7Z" class="g0_219"/>
<path fill-rule="evenodd" d="M185.2,736.6H424.3V721.9H185.2v14.7Z" class="g0_219"/>
<path fill-rule="evenodd" d="M185.2,751.2H424.3V736.6H185.2v14.6Z" class="g0_219"/>
<path fill-rule="evenodd" d="M185.2,765.9H424.3V751.2H185.2v14.7Z" class="g0_219"/>
<path fill-rule="evenodd" d="M203.9,780.6H425.4V765.9H203.9v14.7Z" class="g0_219"/>
<path fill-rule="evenodd" d="M185.6,796H423.9V781.3H185.6V796Z" class="g0_219"/>
<path fill-rule="evenodd" d="M185.6,810.6H423.9V796H185.6v14.6Z" class="g0_219"/>
<path fill-rule="evenodd" d="M185.2,825.3H423.6V810.6H185.2v14.7Z" class="g0_219"/>
<path fill-rule="evenodd" d="M185.2,840H423.6V825.3H185.2V840Z" class="g0_219"/>
<path fill-rule="evenodd" d="M185.2,854.7H423.6V840H185.2v14.7Z" class="g0_219"/>
<path fill-rule="evenodd" d="M184.8,869.7H423.6V855H184.8v14.7Z" class="g0_219"/>
<path fill-rule="evenodd" d="M184.8,884.4H423.6V869.7H184.8v14.7Z" class="g0_219"/>
<path fill-rule="evenodd" d="M184.8,899H423.6V884.4H184.8V899Z" class="g0_219"/>
<path fill-rule="evenodd" d="M185.9,913.7H425.4V899H185.9v14.7Z" class="g0_219"/>
<path fill-rule="evenodd" d="M445,161.7H684.9V147.1H445v14.6Z" class="g0_219"/>
<path fill-rule="evenodd" d="M445,176.4H684.9V161.7H445v14.7Z" class="g0_219"/>
<path fill-rule="evenodd" d="M445,191.1H684.9V176.4H445v14.7Z" class="g0_219"/>
<path fill-rule="evenodd" d="M445,205.7H684.9V191.1H445v14.6Z" class="g0_219"/>
<path fill-rule="evenodd" d="M445,220.4H684.9V205.7H445v14.7Z" class="g0_219"/>
<path fill-rule="evenodd" d="M445,235.1H684.9V220.4H445v14.7Z" class="g0_219"/>
<path fill-rule="evenodd" d="M445,249.7H684.9V235.1H445v14.6Z" class="g0_219"/>
<path fill-rule="evenodd" d="M445,264.4H684.9V249.7H445v14.7Z" class="g0_219"/>
<path fill-rule="evenodd" d="M445,279.1H684.9V264.4H445v14.7Z" class="g0_219"/>
<path fill-rule="evenodd" d="M445.4,294.1H684.2V279.4H445.4v14.7Z" class="g0_219"/>
<path fill-rule="evenodd" d="M445.4,308.8H684.2V294.1H445.4v14.7Z" class="g0_219"/>
<path fill-rule="evenodd" d="M445.4,323.4H684.2V308.8H445.4v14.6Z" class="g0_219"/>
<path fill-rule="evenodd" d="M445.4,338.5H684.5V323.8H445.4v14.7Z" class="g0_219"/>
<path fill-rule="evenodd" d="M445.4,353.2H684.5V338.5H445.4v14.7Z" class="g0_219"/>
<path fill-rule="evenodd" d="M445.4,367.8H684.5V353.2H445.4v14.6Z" class="g0_219"/>
<path fill-rule="evenodd" d="M444.3,382.5H684.5V367.8H444.3v14.7Z" class="g0_219"/>
<path fill-rule="evenodd" d="M444.3,397.2H684.5V382.5H444.3v14.7Z" class="g0_219"/>
<path fill-rule="evenodd" d="M444.3,411.8H684.5V397.2H444.3v14.6Z" class="g0_219"/>
<path fill-rule="evenodd" d="M444.3,426.5H684.5V411.8H444.3v14.7Z" class="g0_219"/>
<path fill-rule="evenodd" d="M444.3,441.2H684.5V426.5H444.3v14.7Z" class="g0_219"/>
<path fill-rule="evenodd" d="M444.3,455.8H684.5V441.2H444.3v14.6Z" class="g0_219"/>
<path fill-rule="evenodd" d="M444.3,470.5H684.5V455.8H444.3v14.7Z" class="g0_219"/>
<path fill-rule="evenodd" d="M444.3,485.2H684.5V470.5H444.3v14.7Z" class="g0_219"/>
<path fill-rule="evenodd" d="M445,499.8H683.4V485.2H445v14.6Z" class="g0_219"/>
<path fill-rule="evenodd" d="M445,514.5H683.4V499.8H445v14.7Z" class="g0_219"/>
<path fill-rule="evenodd" d="M445,529.2H683.4V514.5H445v14.7Z" class="g0_219"/>
<path fill-rule="evenodd" d="M445,543.8H683.8V529.2H445v14.6Z" class="g0_219"/>
<path fill-rule="evenodd" d="M445,558.5H683.8V543.8H445v14.7Z" class="g0_219"/>
<path fill-rule="evenodd" d="M445,573.2H683.8V558.5H445v14.7Z" class="g0_219"/>
<path fill-rule="evenodd" d="M445,587.8H683.8V573.2H445v14.6Z" class="g0_219"/>
<path fill-rule="evenodd" d="M445,602.5H683.8V587.8H445v14.7Z" class="g0_219"/>
<path fill-rule="evenodd" d="M463,617.2H684.9V602.5H463v14.7Z" class="g0_219"/>
<path fill-rule="evenodd" d="M443.9,632.2H683.8V617.6H443.9v14.6Z" class="g0_219"/>
<path fill-rule="evenodd" d="M443.9,646.9H683.8V632.2H443.9v14.7Z" class="g0_219"/>
<path fill-rule="evenodd" d="M443.9,661.6H683.8V646.9H443.9v14.7Z" class="g0_219"/>
<path fill-rule="evenodd" d="M443.9,676.2H683.8V661.6H443.9v14.6Z" class="g0_219"/>
<path fill-rule="evenodd" d="M443.9,690.9H683.8V676.2H443.9v14.7Z" class="g0_219"/>
<path fill-rule="evenodd" d="M443.9,705.6H683.8V690.9H443.9v14.7Z" class="g0_219"/>
<path fill-rule="evenodd" d="M444.3,720.2H683.1V705.6H444.3v14.6Z" class="g0_219"/>
<path fill-rule="evenodd" d="M444.3,734.9H683.1V720.2H444.3v14.7Z" class="g0_219"/>
<path fill-rule="evenodd" d="M444.3,749.6H683.1V734.9H444.3v14.7Z" class="g0_219"/>
<path fill-rule="evenodd" d="M443.9,764.2H683.4V749.6H443.9v14.6Z" class="g0_219"/>
<path fill-rule="evenodd" d="M443.9,778.9H683.4V764.2H443.9v14.7Z" class="g0_219"/>
<path fill-rule="evenodd" d="M443.9,793.6H683.4V778.9H443.9v14.7Z" class="g0_219"/>
<path fill-rule="evenodd" d="M443.9,808.2H683.4V793.6H443.9v14.6Z" class="g0_219"/>
<path fill-rule="evenodd" d="M443.9,822.9H683.1V808.2H443.9v14.7Z" class="g0_219"/>
<path fill-rule="evenodd" d="M443.9,837.6H683.1V822.9H443.9v14.7Z" class="g0_219"/>
<path fill-rule="evenodd" d="M443.9,852.3H683.1V837.6H443.9v14.7Z" class="g0_219"/>
<path fill-rule="evenodd" d="M461.9,867.9h223V853h-223v14.9Z" class="g0_219"/>
<path fill-rule="evenodd" d="M443.9,882.9h241V868.2h-241v14.7Z" class="g0_219"/>
<path fill-rule="evenodd" d="M420.3,931.5H685.1V912.2H420.3v19.3Z" class="g0_219"/>
<path d="M156.5,215.3v90.6" class="g1_219"/>
<path d="M433,146.3V914.8" class="g2_219"/>
</svg>