<?xml version="1.0" encoding="UTF-8" standalone="no"?>
<!DOCTYPE svg PUBLIC "-//W3C//DTD SVG 1.1//EN"
"http://www.w3.org/Graphics/SVG/1.1/DTD/svg11.dtd">
<svg viewBox="0 0 909 1285" version="1.1" xmlns="http://www.w3.org/2000/svg" xmlns:xlink="http://www.w3.org/1999/xlink">
<defs>
<style type="text/css"><![CDATA[
.g0_306{
fill: #FFFFFF;
}
.g1_306{
fill: none;
stroke: #000000;
stroke-width: 0.381;
stroke-linecap: butt;
stroke-linejoin: round;
}
]]></style>
</defs>
<path fill-rule="evenodd" d="M644.4,125.8h59.4V110H644.4v15.8Z" class="g0_306"/>
<path fill-rule="evenodd" d="M190.7,161.7H430.5V147.1H190.7v14.6Z" class="g0_306"/>
<path fill-rule="evenodd" d="M190.7,176.4H430.5V161.7H190.7v14.7Z" class="g0_306"/>
<path fill-rule="evenodd" d="M190.7,191.1H430.5V176.4H190.7v14.7Z" class="g0_306"/>
<path fill-rule="evenodd" d="M190.7,205.7H430.5V191.1H190.7v14.6Z" class="g0_306"/>
<path fill-rule="evenodd" d="M191.1,220.4h213V205.7h-213v14.7Z" class="g0_306"/>
<path fill-rule="evenodd" d="M191.1,235.1h213V220.4h-213v14.7Z" class="g0_306"/>
<path fill-rule="evenodd" d="M209,249.7H430.5V235.1H209v14.6Z" class="g0_306"/>
<path fill-rule="evenodd" d="M190.7,264.8H430.5V250.1H190.7v14.7Z" class="g0_306"/>
<path fill-rule="evenodd" d="M190.7,279.4H430.5V264.8H190.7v14.6Z" class="g0_306"/>
<path fill-rule="evenodd" d="M190.7,294.1H430.5V279.4H190.7v14.7Z" class="g0_306"/>
<path fill-rule="evenodd" d="M190.7,308.8H430.5V294.1H190.7v14.7Z" class="g0_306"/>
<path fill-rule="evenodd" d="M190.7,323.4H430.5V308.8H190.7v14.6Z" class="g0_306"/>
<path fill-rule="evenodd" d="M190.7,338.1H430.5V323.4H190.7v14.7Z" class="g0_306"/>
<path fill-rule="evenodd" d="M190.7,352.8H430.5V338.1H190.7v14.7Z" class="g0_306"/>
<path fill-rule="evenodd" d="M190.7,367.5H430.5V352.8H190.7v14.7Z" class="g0_306"/>
<path fill-rule="evenodd" d="M190.7,382.1H430.5V367.5H190.7v14.6Z" class="g0_306"/>
<path fill-rule="evenodd" d="M190.7,396.8H430.5V382.1H190.7v14.7Z" class="g0_306"/>
<path fill-rule="evenodd" d="M190.7,411.5H430.5V396.8H190.7v14.7Z" class="g0_306"/>
<path fill-rule="evenodd" d="M190.7,426.5H430.5v-15H190.7v15Z" class="g0_306"/>
<path fill-rule="evenodd" d="M190.7,441.2H430.5V426.5H190.7v14.7Z" class="g0_306"/>
<path fill-rule="evenodd" d="M190.7,455.8H430.5V441.2H190.7v14.6Z" class="g0_306"/>
<path fill-rule="evenodd" d="M190,470.9H430.2V456.2H190v14.7Z" class="g0_306"/>
<path fill-rule="evenodd" d="M190,485.5H430.2V470.9H190v14.6Z" class="g0_306"/>
<path fill-rule="evenodd" d="M190,500.2H430.2V485.5H190v14.7Z" class="g0_306"/>
<path fill-rule="evenodd" d="M190,514.9H430.2V500.2H190v14.7Z" class="g0_306"/>
<path fill-rule="evenodd" d="M190,529.5H430.2V514.9H190v14.6Z" class="g0_306"/>
<path fill-rule="evenodd" d="M190,544.2H430.2V529.5H190v14.7Z" class="g0_306"/>
<path fill-rule="evenodd" d="M190,558.9H430.2V544.2H190v14.7Z" class="g0_306"/>
<path fill-rule="evenodd" d="M190,573.5H430.2V558.9H190v14.6Z" class="g0_306"/>
<path fill-rule="evenodd" d="M190,588.6H430.5V573.9H190v14.7Z" class="g0_306"/>
<path fill-rule="evenodd" d="M190,603.3H430.5V588.6H190v14.7Z" class="g0_306"/>
<path fill-rule="evenodd" d="M190,617.9H430.5V603.3H190v14.6Z" class="g0_306"/>
<path fill-rule="evenodd" d="M190,632.6H430.5V617.9H190v14.7Z" class="g0_306"/>
<path fill-rule="evenodd" d="M190,647.3H430.5V632.6H190v14.7Z" class="g0_306"/>
<path fill-rule="evenodd" d="M190,661.9H430.5V647.3H190v14.6Z" class="g0_306"/>
<path fill-rule="evenodd" d="M190,676.6H429.4V661.9H190v14.7Z" class="g0_306"/>
<path fill-rule="evenodd" d="M190,691.3H429.4V676.6H190v14.7Z" class="g0_306"/>
<path fill-rule="evenodd" d="M190,705.9H429.4V691.3H190v14.6Z" class="g0_306"/>
<path fill-rule="evenodd" d="M190,720.6H429.4V705.9H190v14.7Z" class="g0_306"/>
<path fill-rule="evenodd" d="M190,735.3H429.4V720.6H190v14.7Z" class="g0_306"/>
<path fill-rule="evenodd" d="M190,749.9H429.4V735.3H190v14.6Z" class="g0_306"/>
<path fill-rule="evenodd" d="M190,764.6H429.4V749.9H190v14.7Z" class="g0_306"/>
<path fill-rule="evenodd" d="M190,779.3H429.4V764.6H190v14.7Z" class="g0_306"/>
<path fill-rule="evenodd" d="M189.6,794.5H429.4V779.6H189.6v14.9Z" class="g0_306"/>
<path fill-rule="evenodd" d="M189.6,809.2H429.4V794.5H189.6v14.7Z" class="g0_306"/>
<path fill-rule="evenodd" d="M190,823.8H429.8V809.2H190v14.6Z" class="g0_306"/>
<path fill-rule="evenodd" d="M190,838.5H429.8V823.8H190v14.7Z" class="g0_306"/>
<path fill-rule="evenodd" d="M190,853.2H429.8V838.5H190v14.7Z" class="g0_306"/>
<path fill-rule="evenodd" d="M189.6,868.2H428.7V853.6H189.6v14.6Z" class="g0_306"/>
<path fill-rule="evenodd" d="M189.6,882.9H428.7V868.2H189.6v14.7Z" class="g0_306"/>
<path fill-rule="evenodd" d="M189.6,897.6H428.7V882.9H189.6v14.7Z" class="g0_306"/>
<path fill-rule="evenodd" d="M192.5,912.2H429.8V897.6H192.5v14.6Z" class="g0_306"/>
<path fill-rule="evenodd" d="M451.8,161.7H690.9V147.1H451.8v14.6Z" class="g0_306"/>
<path fill-rule="evenodd" d="M451.8,176.4H690.9V161.7H451.8v14.7Z" class="g0_306"/>
<path fill-rule="evenodd" d="M450,191.1H691.3V176.4H450v14.7Z" class="g0_306"/>
<path fill-rule="evenodd" d="M450,205.7H691.3V191.1H450v14.6Z" class="g0_306"/>
<path fill-rule="evenodd" d="M450,220.4H691.3V205.7H450v14.7Z" class="g0_306"/>
<path fill-rule="evenodd" d="M450,235.1H691.3V220.4H450v14.7Z" class="g0_306"/>
<path fill-rule="evenodd" d="M451.1,250.1H691.7V235.4H451.1v14.7Z" class="g0_306"/>
<path fill-rule="evenodd" d="M451.1,264.8H691.7V250.1H451.1v14.7Z" class="g0_306"/>
<path fill-rule="evenodd" d="M451.1,279.4H691.7V264.8H451.1v14.6Z" class="g0_306"/>
<path fill-rule="evenodd" d="M451.1,294.1H691.7V279.4H451.1v14.7Z" class="g0_306"/>
<path fill-rule="evenodd" d="M451.1,308.8H691.7V294.1H451.1v14.7Z" class="g0_306"/>
<path fill-rule="evenodd" d="M451.1,323.4H691.7V308.8H451.1v14.6Z" class="g0_306"/>
<path fill-rule="evenodd" d="M451.1,338.1H691.7V323.4H451.1v14.7Z" class="g0_306"/>
<path fill-rule="evenodd" d="M451.1,353.2H691.3V338.5H451.1v14.7Z" class="g0_306"/>
<path fill-rule="evenodd" d="M451.1,367.8H691.3V353.2H451.1v14.6Z" class="g0_306"/>
<path fill-rule="evenodd" d="M451.1,382.5H691.3V367.8H451.1v14.7Z" class="g0_306"/>
<path fill-rule="evenodd" d="M451.1,397.2H691.7V382.5H451.1v14.7Z" class="g0_306"/>
<path fill-rule="evenodd" d="M451.1,411.8H691.7V397.2H451.1v14.6Z" class="g0_306"/>
<path fill-rule="evenodd" d="M451.1,426.5H691.7V411.8H451.1v14.7Z" class="g0_306"/>
<path fill-rule="evenodd" d="M451.1,441.5H665.3V426.9H451.1v14.6Z" class="g0_306"/>
<path fill-rule="evenodd" d="M451.1,456.2H665.3V441.5H451.1v14.7Z" class="g0_306"/>
<path fill-rule="evenodd" d="M450.4,470.9H690.9V456.2H450.4v14.7Z" class="g0_306"/>
<path fill-rule="evenodd" d="M450.4,485.5H690.9V470.9H450.4v14.6Z" class="g0_306"/>
<path fill-rule="evenodd" d="M450.4,500.2H690.9V485.5H450.4v14.7Z" class="g0_306"/>
<path fill-rule="evenodd" d="M450.4,514.9H690.9V500.2H450.4v14.7Z" class="g0_306"/>
<path fill-rule="evenodd" d="M450.4,529.5H690.9V514.9H450.4v14.6Z" class="g0_306"/>
<path fill-rule="evenodd" d="M450.4,544.2H690.9V529.5H450.4v14.7Z" class="g0_306"/>
<path fill-rule="evenodd" d="M450.4,558.9H690.9V544.2H450.4v14.7Z" class="g0_306"/>
<path fill-rule="evenodd" d="M450.4,573.5H690.9V558.9H450.4v14.6Z" class="g0_306"/>
<path fill-rule="evenodd" d="M450.4,588.2H690.9V573.5H450.4v14.7Z" class="g0_306"/>
<path fill-rule="evenodd" d="M450.4,603.3H665.3V588.6H450.4v14.7Z" class="g0_306"/>
<path fill-rule="evenodd" d="M450.4,617.9H665.3V603.3H450.4v14.6Z" class="g0_306"/>
<path fill-rule="evenodd" d="M450,632.6H690.6V617.9H450v14.7Z" class="g0_306"/>
<path fill-rule="evenodd" d="M450,647.3H690.6V632.6H450v14.7Z" class="g0_306"/>
<path fill-rule="evenodd" d="M450,661.9H690.6V647.3H450v14.6Z" class="g0_306"/>
<path fill-rule="evenodd" d="M450,676.6H690.6V661.9H450v14.7Z" class="g0_306"/>
<path fill-rule="evenodd" d="M450,691.3H690.6V676.6H450v14.7Z" class="g0_306"/>
<path fill-rule="evenodd" d="M450,705.9H690.6V691.3H450v14.6Z" class="g0_306"/>
<path fill-rule="evenodd" d="M450,720.6H690.6V705.9H450v14.7Z" class="g0_306"/>
<path fill-rule="evenodd" d="M450,735.3H690.6V720.6H450v14.7Z" class="g0_306"/>
<path fill-rule="evenodd" d="M450,749.9H690.6V735.3H450v14.6Z" class="g0_306"/>
<path fill-rule="evenodd" d="M450,764.6H689.8V749.9H450v14.7Z" class="g0_306"/>
<path fill-rule="evenodd" d="M450,779.3H689.8V764.6H450v14.7Z" class="g0_306"/>
<path fill-rule="evenodd" d="M450,793.9H689.8V779.3H450v14.6Z" class="g0_306"/>
<path fill-rule="evenodd" d="M449.3,808.6H689.5V793.9H449.3v14.7Z" class="g0_306"/>
<path fill-rule="evenodd" d="M449.3,823.3H689.5V808.6H449.3v14.7Z" class="g0_306"/>
<path fill-rule="evenodd" d="M448.9,838.5H689.5V823.6H448.9v14.9Z" class="g0_306"/>
<path fill-rule="evenodd" d="M448.9,853.2H689.5V838.5H448.9v14.7Z" class="g0_306"/>
<path fill-rule="evenodd" d="M448.9,867.9H689.5V853.2H448.9v14.7Z" class="g0_306"/>
<path d="M438.5,146.7V914.8" class="g1_306"/>
</svg>