<?xml version="1.0" encoding="UTF-8" standalone="no"?>
<!DOCTYPE svg PUBLIC "-//W3C//DTD SVG 1.1//EN"
"http://www.w3.org/Graphics/SVG/1.1/DTD/svg11.dtd">
<svg viewBox="0 0 909 1285" version="1.1" xmlns="http://www.w3.org/2000/svg" xmlns:xlink="http://www.w3.org/1999/xlink">
<defs>
<style type="text/css"><![CDATA[
.g0_135{
fill: #FFFFFF;
}
.g1_135{
fill: none;
stroke: #000000;
stroke-width: 0.381;
stroke-linecap: butt;
stroke-linejoin: round;
}
.g2_135{
fill: none;
stroke: #000000;
stroke-width: 1.451;
stroke-linecap: butt;
stroke-linejoin: round;
}
]]></style>
</defs>
<path fill-rule="evenodd" d="M274.5,125.8h498V110h-498v15.8Z" class="g0_135"/>
<path fill-rule="evenodd" d="M274.5,161.4H513.6V146.3H274.5v15.1Z" class="g0_135"/>
<path fill-rule="evenodd" d="M274.5,176.4H513.6v-15H274.5v15Z" class="g0_135"/>
<path fill-rule="evenodd" d="M274.5,191.6H513.6V176.4H274.5v15.2Z" class="g0_135"/>
<path fill-rule="evenodd" d="M274.5,206.6H513.6v-15H274.5v15Z" class="g0_135"/>
<path fill-rule="evenodd" d="M292.9,221.7H513.6V206.6H292.9v15.1Z" class="g0_135"/>
<path fill-rule="evenodd" d="M274.2,236.7H512.9v-15H274.2v15Z" class="g0_135"/>
<path fill-rule="evenodd" d="M274.2,251.7H512.9v-15H274.2v15Z" class="g0_135"/>
<path fill-rule="evenodd" d="M274.2,266.8H512.9V251.7H274.2v15.1Z" class="g0_135"/>
<path fill-rule="evenodd" d="M274.2,281.8H512.9v-15H274.2v15Z" class="g0_135"/>
<path fill-rule="evenodd" d="M273.8,296.8H512.5v-15H273.8v15Z" class="g0_135"/>
<path fill-rule="evenodd" d="M273.8,311.9H512.5V296.8H273.8v15.1Z" class="g0_135"/>
<path fill-rule="evenodd" d="M273.8,326.9H512.5v-15H273.8v15Z" class="g0_135"/>
<path fill-rule="evenodd" d="M272.3,341.9H512.9v-15H272.3v15Z" class="g0_135"/>
<path fill-rule="evenodd" d="M272.3,357.2H512.9V342H272.3v15.2Z" class="g0_135"/>
<path fill-rule="evenodd" d="M272.3,372.2H512.9v-15H272.3v15Z" class="g0_135"/>
<path fill-rule="evenodd" d="M272.3,387.3H512.9V372.2H272.3v15.1Z" class="g0_135"/>
<path fill-rule="evenodd" d="M272.3,402.3H512.9v-15H272.3v15Z" class="g0_135"/>
<path fill-rule="evenodd" d="M272.3,417.3H512.9v-15H272.3v15Z" class="g0_135"/>
<path fill-rule="evenodd" d="M272.3,432.4H512.9V417.3H272.3v15.1Z" class="g0_135"/>
<path fill-rule="evenodd" d="M272.3,447.4H512.9v-15H272.3v15Z" class="g0_135"/>
<path fill-rule="evenodd" d="M272.3,462.4H512.9v-15H272.3v15Z" class="g0_135"/>
<path fill-rule="evenodd" d="M272.3,477.5H512.9V462.4H272.3v15.1Z" class="g0_135"/>
<path fill-rule="evenodd" d="M272.7,492.5H512.2v-15H272.7v15Z" class="g0_135"/>
<path fill-rule="evenodd" d="M272.7,507.5H512.2v-15H272.7v15Z" class="g0_135"/>
<path fill-rule="evenodd" d="M272.7,522.6H512.2V507.5H272.7v15.1Z" class="g0_135"/>
<path fill-rule="evenodd" d="M272.7,537.8H512.2V522.6H272.7v15.2Z" class="g0_135"/>
<path fill-rule="evenodd" d="M272.7,552.8H512.2v-15H272.7v15Z" class="g0_135"/>
<path fill-rule="evenodd" d="M272.7,567.9H512.2V552.8H272.7v15.1Z" class="g0_135"/>
<path fill-rule="evenodd" d="M273.1,582.9H511.8v-15H273.1v15Z" class="g0_135"/>
<path fill-rule="evenodd" d="M273.1,598H511.8V582.9H273.1V598Z" class="g0_135"/>
<path fill-rule="evenodd" d="M273.1,613H511.8V598H273.1v15Z" class="g0_135"/>
<path fill-rule="evenodd" d="M272.7,628H511.4V613H272.7v15Z" class="g0_135"/>
<path fill-rule="evenodd" d="M272.7,643.1H511.4V628H272.7v15.1Z" class="g0_135"/>
<path fill-rule="evenodd" d="M272.7,658.1H511.4v-15H272.7v15Z" class="g0_135"/>
<path fill-rule="evenodd" d="M272.3,673.1H511.4v-15H272.3v15Z" class="g0_135"/>
<path fill-rule="evenodd" d="M272.3,688.2H511.4V673.1H272.3v15.1Z" class="g0_135"/>
<path fill-rule="evenodd" d="M272.3,703.2H511.4v-15H272.3v15Z" class="g0_135"/>
<path fill-rule="evenodd" d="M272.3,718.4H511.4V703.2H272.3v15.2Z" class="g0_135"/>
<path fill-rule="evenodd" d="M272.3,733.4H511.4v-15H272.3v15Z" class="g0_135"/>
<path fill-rule="evenodd" d="M272.3,748.5H511.4V733.4H272.3v15.1Z" class="g0_135"/>
<path fill-rule="evenodd" d="M272.3,763.5H511.4v-15H272.3v15Z" class="g0_135"/>
<path fill-rule="evenodd" d="M272.3,778.5H511.4v-15H272.3v15Z" class="g0_135"/>
<path fill-rule="evenodd" d="M272.3,793.6H511.4V778.5H272.3v15.1Z" class="g0_135"/>
<path fill-rule="evenodd" d="M272.3,808.6H511.1v-15H272.3v15Z" class="g0_135"/>
<path fill-rule="evenodd" d="M272.3,823.6H511.1v-15H272.3v15Z" class="g0_135"/>
<path fill-rule="evenodd" d="M272.3,838.7H511.1V823.6H272.3v15.1Z" class="g0_135"/>
<path fill-rule="evenodd" d="M272,853.8H510.7V838.7H272v15.1Z" class="g0_135"/>
<path fill-rule="evenodd" d="M272,868.8H510.7v-15H272v15Z" class="g0_135"/>
<path fill-rule="evenodd" d="M271.6,883.8H511.1v-15H271.6v15Z" class="g0_135"/>
<path fill-rule="evenodd" d="M271.6,899H511.1V883.8H271.6V899Z" class="g0_135"/>
<path fill-rule="evenodd" d="M274.2,914.1H513.6V899H274.2v15.1Z" class="g0_135"/>
<path fill-rule="evenodd" d="M533.4,161.7H772.5v-15H533.4v15Z" class="g0_135"/>
<path fill-rule="evenodd" d="M533.4,176.9H772.5V161.7H533.4v15.2Z" class="g0_135"/>
<path fill-rule="evenodd" d="M533.4,192H772.5V176.9H533.4V192Z" class="g0_135"/>
<path fill-rule="evenodd" d="M533.4,207H772.5V192H533.4v15Z" class="g0_135"/>
<path fill-rule="evenodd" d="M533.4,222H772.5V207H533.4v15Z" class="g0_135"/>
<path fill-rule="evenodd" d="M531.6,237.1H771.8V222H531.6v15.1Z" class="g0_135"/>
<path fill-rule="evenodd" d="M531.6,252.1H771.8v-15H531.6v15Z" class="g0_135"/>
<path fill-rule="evenodd" d="M531.6,267.1H771.8v-15H531.6v15Z" class="g0_135"/>
<path fill-rule="evenodd" d="M533.1,282.2H771.4V267.1H533.1v15.1Z" class="g0_135"/>
<path fill-rule="evenodd" d="M533.1,297.2H771.4v-15H533.1v15Z" class="g0_135"/>
<path fill-rule="evenodd" d="M531.6,312.2H771.1v-15H531.6v15Z" class="g0_135"/>
<path fill-rule="evenodd" d="M531.6,327.3H771.1V312.2H531.6v15.1Z" class="g0_135"/>
<path fill-rule="evenodd" d="M533.1,342.5H771.8V327.3H533.1v15.2Z" class="g0_135"/>
<path fill-rule="evenodd" d="M533.1,357.6H771.8V342.5H533.1v15.1Z" class="g0_135"/>
<path fill-rule="evenodd" d="M532.7,373H771.4V357.9H532.7V373Z" class="g0_135"/>
<path fill-rule="evenodd" d="M532.7,388H771.4V373H532.7v15Z" class="g0_135"/>
<path fill-rule="evenodd" d="M532.7,403H771.4V388H532.7v15Z" class="g0_135"/>
<path fill-rule="evenodd" d="M532.7,418.1H771.4V403H532.7v15.1Z" class="g0_135"/>
<path fill-rule="evenodd" d="M532.7,433.1H771.4v-15H532.7v15Z" class="g0_135"/>
<path fill-rule="evenodd" d="M532.3,448.1H771.1v-15H532.3v15Z" class="g0_135"/>
<path fill-rule="evenodd" d="M532.3,463.2H771.1V448.1H532.3v15.1Z" class="g0_135"/>
<path fill-rule="evenodd" d="M532.3,478.2H771.1v-15H532.3v15Z" class="g0_135"/>
<path fill-rule="evenodd" d="M532.3,493.2H771.1v-15H532.3v15Z" class="g0_135"/>
<path fill-rule="evenodd" d="M532.3,508.5H771.1V493.2H532.3v15.3Z" class="g0_135"/>
<path fill-rule="evenodd" d="M532.3,523.5H771.1v-15H532.3v15Z" class="g0_135"/>
<path fill-rule="evenodd" d="M532.3,538.5H771.1v-15H532.3v15Z" class="g0_135"/>
<path fill-rule="evenodd" d="M532.3,553.6H771.1V538.5H532.3v15.1Z" class="g0_135"/>
<path fill-rule="evenodd" d="M532.3,568.6H771.1v-15H532.3v15Z" class="g0_135"/>
<path fill-rule="evenodd" d="M532.3,583.6H771.1v-15H532.3v15Z" class="g0_135"/>
<path fill-rule="evenodd" d="M531.6,598.7H770.3V583.6H531.6v15.1Z" class="g0_135"/>
<path fill-rule="evenodd" d="M531.6,613.7H770.3v-15H531.6v15Z" class="g0_135"/>
<path fill-rule="evenodd" d="M531.6,628.8H770.7V613.7H531.6v15.1Z" class="g0_135"/>
<path fill-rule="evenodd" d="M531.6,643.8H770.7v-15H531.6v15Z" class="g0_135"/>
<path fill-rule="evenodd" d="M531.6,658.8H770.7v-15H531.6v15Z" class="g0_135"/>
<path fill-rule="evenodd" d="M531.6,673.9H770.7V658.8H531.6v15.1Z" class="g0_135"/>
<path fill-rule="evenodd" d="M531.6,689.1H770.7V673.9H531.6v15.2Z" class="g0_135"/>
<path fill-rule="evenodd" d="M531.6,704.1H770v-15H531.6v15Z" class="g0_135"/>
<path fill-rule="evenodd" d="M531.6,719.1H770v-15H531.6v15Z" class="g0_135"/>
<path fill-rule="evenodd" d="M549.2,734.2H772.5V719.1H549.2v15.1Z" class="g0_135"/>
<path fill-rule="evenodd" d="M531.6,749.2H772.5v-15H531.6v15Z" class="g0_135"/>
<path fill-rule="evenodd" d="M531.2,764.2H770v-15H531.2v15Z" class="g0_135"/>
<path fill-rule="evenodd" d="M531.2,779.3H770V764.2H531.2v15.1Z" class="g0_135"/>
<path fill-rule="evenodd" d="M530.9,794.3H770v-15H530.9v15Z" class="g0_135"/>
<path fill-rule="evenodd" d="M530.9,809.3H770v-15H530.9v15Z" class="g0_135"/>
<path fill-rule="evenodd" d="M530.9,824.4H770V809.3H530.9v15.1Z" class="g0_135"/>
<path fill-rule="evenodd" d="M531.2,839.5H770V824.4H531.2v15.1Z" class="g0_135"/>
<path fill-rule="evenodd" d="M531.2,854.5H770v-15H531.2v15Z" class="g0_135"/>
<path fill-rule="evenodd" d="M531.2,869.7H770V854.5H531.2v15.2Z" class="g0_135"/>
<path fill-rule="evenodd" d="M531.2,884.7H770v-15H531.2v15Z" class="g0_135"/>
<path fill-rule="evenodd" d="M508.9,931.1H772.5V913.7H508.9v17.4Z" class="g0_135"/>
<path d="M217.2,101.9V782.1" class="g1_135"/>
<path d="M191.2,806.4V944.6" class="g2_135"/>
<path d="M206.6,316.9V697.8m8.1,32.3V987.6M520.8,147.8V916.7" class="g1_135"/>
</svg>