<?xml version="1.0" encoding="UTF-8" standalone="no"?>
<!DOCTYPE svg PUBLIC "-//W3C//DTD SVG 1.1//EN"
"http://www.w3.org/Graphics/SVG/1.1/DTD/svg11.dtd">
<svg viewBox="0 0 909 1285" version="1.1" xmlns="http://www.w3.org/2000/svg" xmlns:xlink="http://www.w3.org/1999/xlink">
<defs>
<style type="text/css"><![CDATA[
.g0_307{
fill: #FFFFFF;
}
.g1_307{
fill: none;
stroke: #000000;
stroke-width: 6.263;
stroke-linecap: butt;
stroke-linejoin: round;
}
.g2_307{
fill: none;
stroke: #000000;
stroke-width: 0.381;
stroke-linecap: butt;
stroke-linejoin: round;
}
.g3_307{
fill: none;
stroke: #000000;
stroke-width: 1.451;
stroke-linecap: butt;
stroke-linejoin: round;
}
]]></style>
</defs>
<path fill-rule="evenodd" d="M253,125.8H751.1V110H253v15.8Z" class="g0_307"/>
<path fill-rule="evenodd" d="M252.7,162.1H491.8V147.4H252.7v14.7Z" class="g0_307"/>
<path fill-rule="evenodd" d="M252.7,176.8H491.8V162.1H252.7v14.7Z" class="g0_307"/>
<path fill-rule="evenodd" d="M252.7,191.4H491.8V176.8H252.7v14.6Z" class="g0_307"/>
<path fill-rule="evenodd" d="M252.3,206.5H491.8V191.8H252.3v14.7Z" class="g0_307"/>
<path fill-rule="evenodd" d="M252.3,221.1H491.8V206.5H252.3v14.6Z" class="g0_307"/>
<path fill-rule="evenodd" d="M252.3,235.8H491.8V221.1H252.3v14.7Z" class="g0_307"/>
<path fill-rule="evenodd" d="M252.3,250.5H491.8V235.8H252.3v14.7Z" class="g0_307"/>
<path fill-rule="evenodd" d="M252.3,265.1H491.8V250.5H252.3v14.6Z" class="g0_307"/>
<path fill-rule="evenodd" d="M252.3,279.8H491.8V265.1H252.3v14.7Z" class="g0_307"/>
<path fill-rule="evenodd" d="M252.3,294.5H491.8V279.8H252.3v14.7Z" class="g0_307"/>
<path fill-rule="evenodd" d="M252.3,309.1H491.8V294.5H252.3v14.6Z" class="g0_307"/>
<path fill-rule="evenodd" d="M252.3,323.8H491.8V309.1H252.3v14.7Z" class="g0_307"/>
<path fill-rule="evenodd" d="M252.3,338.5H491.8V323.8H252.3v14.7Z" class="g0_307"/>
<path fill-rule="evenodd" d="M252.3,353.2H491.8V338.5H252.3v14.7Z" class="g0_307"/>
<path fill-rule="evenodd" d="M252.3,367.8H491.8V353.2H252.3v14.6Z" class="g0_307"/>
<path fill-rule="evenodd" d="M252.3,382.5H491.8V367.8H252.3v14.7Z" class="g0_307"/>
<path fill-rule="evenodd" d="M251.6,397.2H491.1V382.5H251.6v14.7Z" class="g0_307"/>
<path fill-rule="evenodd" d="M251.6,411.8H491.1V397.2H251.6v14.6Z" class="g0_307"/>
<path fill-rule="evenodd" d="M251.6,426.5H491.1V411.8H251.6v14.7Z" class="g0_307"/>
<path fill-rule="evenodd" d="M251.6,441.2H491.1V426.5H251.6v14.7Z" class="g0_307"/>
<path fill-rule="evenodd" d="M251.6,455.8H491.1V441.2H251.6v14.6Z" class="g0_307"/>
<path fill-rule="evenodd" d="M251.6,470.5H491.1V455.8H251.6v14.7Z" class="g0_307"/>
<path fill-rule="evenodd" d="M251.6,485.2h234V470.5h-234v14.7Z" class="g0_307"/>
<path fill-rule="evenodd" d="M251.6,499.8h234V485.2h-234v14.6Z" class="g0_307"/>
<path fill-rule="evenodd" d="M251.6,514.9H490.3V500.2H251.6v14.7Z" class="g0_307"/>
<path fill-rule="evenodd" d="M251.6,529.5H490.3V514.9H251.6v14.6Z" class="g0_307"/>
<path fill-rule="evenodd" d="M251.6,544.2H490.3V529.5H251.6v14.7Z" class="g0_307"/>
<path fill-rule="evenodd" d="M251.6,558.9H490.3V544.2H251.6v14.7Z" class="g0_307"/>
<path fill-rule="evenodd" d="M251.2,573.5H489.6V558.9H251.2v14.6Z" class="g0_307"/>
<path fill-rule="evenodd" d="M251.2,588.2H489.6V573.5H251.2v14.7Z" class="g0_307"/>
<path fill-rule="evenodd" d="M269.6,602.9H491.8V588.2H269.6v14.7Z" class="g0_307"/>
<path fill-rule="evenodd" d="M250.8,617.6H489.6V602.9H250.8v14.7Z" class="g0_307"/>
<path fill-rule="evenodd" d="M250.8,632.2H489.6V617.6H250.8v14.6Z" class="g0_307"/>
<path fill-rule="evenodd" d="M250.8,646.9H489.6V632.2H250.8v14.7Z" class="g0_307"/>
<path fill-rule="evenodd" d="M250.8,661.6H489.6V646.9H250.8v14.7Z" class="g0_307"/>
<path fill-rule="evenodd" d="M250.8,676.2H489.6V661.6H250.8v14.6Z" class="g0_307"/>
<path fill-rule="evenodd" d="M250.8,690.9H489.6V676.2H250.8v14.7Z" class="g0_307"/>
<path fill-rule="evenodd" d="M250.5,705.6H489.6V690.9H250.5v14.7Z" class="g0_307"/>
<path fill-rule="evenodd" d="M250.5,720.2H489.6V705.6H250.5v14.6Z" class="g0_307"/>
<path fill-rule="evenodd" d="M250.5,734.9H489.6V720.2H250.5v14.7Z" class="g0_307"/>
<path fill-rule="evenodd" d="M251.2,749.9h238V735.3h-238v14.6Z" class="g0_307"/>
<path fill-rule="evenodd" d="M251.2,764.6h238V749.9h-238v14.7Z" class="g0_307"/>
<path fill-rule="evenodd" d="M268.8,779.8h223V765h-223v14.8Z" class="g0_307"/>
<path fill-rule="evenodd" d="M250.5,794.9H488.9V780.2H250.5v14.7Z" class="g0_307"/>
<path fill-rule="evenodd" d="M250.5,809.5H488.9V794.9H250.5v14.6Z" class="g0_307"/>
<path fill-rule="evenodd" d="M250.1,824.2H489.2V809.5H250.1v14.7Z" class="g0_307"/>
<path fill-rule="evenodd" d="M250.1,838.9H489.2V824.2H250.1v14.7Z" class="g0_307"/>
<path fill-rule="evenodd" d="M250.1,853.6H489.2V838.9H250.1v14.7Z" class="g0_307"/>
<path fill-rule="evenodd" d="M250.1,868.2H489.2V853.6H250.1v14.6Z" class="g0_307"/>
<path fill-rule="evenodd" d="M268.1,882.9H491.8V868.2H268.1v14.7Z" class="g0_307"/>
<path fill-rule="evenodd" d="M253,897.6H491.8V882.9H253v14.7Z" class="g0_307"/>
<path fill-rule="evenodd" d="M512.3,162.1H751.1V147.4H512.3v14.7Z" class="g0_307"/>
<path fill-rule="evenodd" d="M512.3,177.1H751.1v-15H512.3v15Z" class="g0_307"/>
<path fill-rule="evenodd" d="M512.3,192.2H751.1V177.1H512.3v15.1Z" class="g0_307"/>
<path fill-rule="evenodd" d="M512.3,206.8H751.1V192.2H512.3v14.6Z" class="g0_307"/>
<path fill-rule="evenodd" d="M512,221.5H751.1V206.8H512v14.7Z" class="g0_307"/>
<path fill-rule="evenodd" d="M512,236.5H751.1v-15H512v15Z" class="g0_307"/>
<path fill-rule="evenodd" d="M512,251.2H751.1V236.5H512v14.7Z" class="g0_307"/>
<path fill-rule="evenodd" d="M511.6,265.9H751.1V251.2H511.6v14.7Z" class="g0_307"/>
<path fill-rule="evenodd" d="M511.6,280.5H751.1V265.9H511.6v14.6Z" class="g0_307"/>
<path fill-rule="evenodd" d="M511.6,295.2H751.1V280.5H511.6v14.7Z" class="g0_307"/>
<path fill-rule="evenodd" d="M511.6,309.9H751.1V295.2H511.6v14.7Z" class="g0_307"/>
<path fill-rule="evenodd" d="M512,324.5H619V309.9H512v14.6Z" class="g0_307"/>
<path fill-rule="evenodd" d="M512,339.2H619V324.5H512v14.7Z" class="g0_307"/>
<path fill-rule="evenodd" d="M511.2,354.5H750V339.6H511.2v14.9Z" class="g0_307"/>
<path fill-rule="evenodd" d="M511.2,369.1H750V354.5H511.2v14.6Z" class="g0_307"/>
<path fill-rule="evenodd" d="M511.2,383.8H750V369.1H511.2v14.7Z" class="g0_307"/>
<path fill-rule="evenodd" d="M511.6,399.2H724.7V384.5H511.6v14.7Z" class="g0_307"/>
<path fill-rule="evenodd" d="M511.6,413.9H724.7V399.2H511.6v14.7Z" class="g0_307"/>
<path fill-rule="evenodd" d="M510.5,428.5H749.6V413.9H510.5v14.6Z" class="g0_307"/>
<path fill-rule="evenodd" d="M510.5,443.2H749.6V428.5H510.5v14.7Z" class="g0_307"/>
<path fill-rule="evenodd" d="M510.5,457.9H749.6V443.2H510.5v14.7Z" class="g0_307"/>
<path fill-rule="evenodd" d="M510.5,472.5H749.6V457.9H510.5v14.6Z" class="g0_307"/>
<path fill-rule="evenodd" d="M510.5,487.2H749.6V472.5H510.5v14.7Z" class="g0_307"/>
<path fill-rule="evenodd" d="M510.5,501.9H749.6V487.2H510.5v14.7Z" class="g0_307"/>
<path fill-rule="evenodd" d="M510.5,516.5H749.6V501.9H510.5v14.6Z" class="g0_307"/>
<path fill-rule="evenodd" d="M510.5,531.2H749.6V516.5H510.5v14.7Z" class="g0_307"/>
<path fill-rule="evenodd" d="M510.5,545.9H749.2V531.2H510.5v14.7Z" class="g0_307"/>
<path fill-rule="evenodd" d="M510.5,560.5H749.2V545.9H510.5v14.6Z" class="g0_307"/>
<path fill-rule="evenodd" d="M510.5,575.2H749.2V560.5H510.5v14.7Z" class="g0_307"/>
<path fill-rule="evenodd" d="M510.5,589.9H749.2V575.2H510.5v14.7Z" class="g0_307"/>
<path fill-rule="evenodd" d="M510.5,604.6H749.2V589.9H510.5v14.7Z" class="g0_307"/>
<path fill-rule="evenodd" d="M510.1,619.6H724.7V604.9H510.1v14.7Z" class="g0_307"/>
<path fill-rule="evenodd" d="M510.1,634.3H724.7V619.6H510.1v14.7Z" class="g0_307"/>
<path fill-rule="evenodd" d="M509.4,648.9H748.9V634.3H509.4v14.6Z" class="g0_307"/>
<path fill-rule="evenodd" d="M509.4,663.6H748.9V648.9H509.4v14.7Z" class="g0_307"/>
<path fill-rule="evenodd" d="M509.4,678.3H748.9V663.6H509.4v14.7Z" class="g0_307"/>
<path fill-rule="evenodd" d="M509.4,692.9H748.9V678.3H509.4v14.6Z" class="g0_307"/>
<path fill-rule="evenodd" d="M509.4,707.6H748.9V692.9H509.4v14.7Z" class="g0_307"/>
<path fill-rule="evenodd" d="M509.4,722.3H748.9V707.6H509.4v14.7Z" class="g0_307"/>
<path fill-rule="evenodd" d="M509.4,736.9H748.9V722.3H509.4v14.6Z" class="g0_307"/>
<path fill-rule="evenodd" d="M509.4,751.6H748.5V736.9H509.4v14.7Z" class="g0_307"/>
<path fill-rule="evenodd" d="M509.4,766.3H748.5V751.6H509.4v14.7Z" class="g0_307"/>
<path fill-rule="evenodd" d="M509.4,780.9H748.5V766.3H509.4v14.6Z" class="g0_307"/>
<path fill-rule="evenodd" d="M509.4,795.6H748.5V780.9H509.4v14.7Z" class="g0_307"/>
<path fill-rule="evenodd" d="M509.4,810.3H751.1V795.6H509.4v14.7Z" class="g0_307"/>
<path fill-rule="evenodd" d="M509.4,824.9H751.1V810.3H509.4v14.6Z" class="g0_307"/>
<path fill-rule="evenodd" d="M509.4,839.6H751.1V824.9H509.4v14.7Z" class="g0_307"/>
<path fill-rule="evenodd" d="M509.4,854.3H751.1V839.6H509.4v14.7Z" class="g0_307"/>
<path fill-rule="evenodd" d="M509.4,869H751.1V854.3H509.4V869Z" class="g0_307"/>
<path fill-rule="evenodd" d="M509.4,883.6H751.1V869H509.4v14.6Z" class="g0_307"/>
<path fill-rule="evenodd" d="M509.4,898.3H751.1V883.6H509.4v14.7Z" class="g0_307"/>
<path fill-rule="evenodd" d="M486.3,929.8H751.1V914.1H486.3v15.7Z" class="g0_307"/>
<path d="M172,92.4v601" class="g1_307"/>
<path d="M205.7,92V968.4" class="g2_307"/>
<path d="M177.5,674V869.8" class="g3_307"/>
<path d="M191.8,839V989.3M203.6,854.7V995.5M499,164.7V917.4" class="g2_307"/>
</svg>