<?xml version="1.0" encoding="UTF-8" standalone="no"?>
<!DOCTYPE svg PUBLIC "-//W3C//DTD SVG 1.1//EN"
"http://www.w3.org/Graphics/SVG/1.1/DTD/svg11.dtd">
<svg viewBox="0 0 909 1285" version="1.1" xmlns="http://www.w3.org/2000/svg" xmlns:xlink="http://www.w3.org/1999/xlink">
<defs>
<style type="text/css"><![CDATA[
.g0_156{
fill: #FFFFFF;
}
.g1_156{
fill: none;
stroke: #000000;
stroke-width: 0.381;
stroke-linecap: butt;
stroke-linejoin: round;
}
]]></style>
</defs>
<path fill-rule="evenodd" d="M185.6,125.8H685.8V110H185.6v15.8Z" class="g0_156"/>
<path fill-rule="evenodd" d="M423.2,178.2H686.6V153.7H423.2v24.5Z" class="g0_156"/>
<path fill-rule="evenodd" d="M187.8,215.8H426.1V200.6H187.8v15.2Z" class="g0_156"/>
<path fill-rule="evenodd" d="M187.8,230.8H426.1v-15H187.8v15Z" class="g0_156"/>
<path fill-rule="evenodd" d="M187.8,245.9H426.1V230.8H187.8v15.1Z" class="g0_156"/>
<path fill-rule="evenodd" d="M186.3,260.9H425.8v-15H186.3v15Z" class="g0_156"/>
<path fill-rule="evenodd" d="M186.3,275.9H425.8v-15H186.3v15Z" class="g0_156"/>
<path fill-rule="evenodd" d="M186.3,291H425.8V275.9H186.3V291Z" class="g0_156"/>
<path fill-rule="evenodd" d="M186.3,306H425.8V291H186.3v15Z" class="g0_156"/>
<path fill-rule="evenodd" d="M186.3,321H425.8V306H186.3v15Z" class="g0_156"/>
<path fill-rule="evenodd" d="M186.3,336.1H425.8V321H186.3v15.1Z" class="g0_156"/>
<path fill-rule="evenodd" d="M186.3,351.1H425.8v-15H186.3v15Z" class="g0_156"/>
<path fill-rule="evenodd" d="M186.3,366.4H425.8V351.1H186.3v15.3Z" class="g0_156"/>
<path fill-rule="evenodd" d="M186.3,381.4H425.8v-15H186.3v15Z" class="g0_156"/>
<path fill-rule="evenodd" d="M186.3,396.4H425.8v-15H186.3v15Z" class="g0_156"/>
<path fill-rule="evenodd" d="M186.3,411.5H425.8V396.4H186.3v15.1Z" class="g0_156"/>
<path fill-rule="evenodd" d="M186.3,426.5H425.8v-15H186.3v15Z" class="g0_156"/>
<path fill-rule="evenodd" d="M186.3,441.5H425.8v-15H186.3v15Z" class="g0_156"/>
<path fill-rule="evenodd" d="M186.3,456.6H425.8V441.5H186.3v15.1Z" class="g0_156"/>
<path fill-rule="evenodd" d="M186.3,471.6H425.8v-15H186.3v15Z" class="g0_156"/>
<path fill-rule="evenodd" d="M186.3,486.6H425.8v-15H186.3v15Z" class="g0_156"/>
<path fill-rule="evenodd" d="M186.3,501.7H425.8V486.6H186.3v15.1Z" class="g0_156"/>
<path fill-rule="evenodd" d="M186.3,516.7H425.8v-15H186.3v15Z" class="g0_156"/>
<path fill-rule="evenodd" d="M186.3,531.7H425.8v-15H186.3v15Z" class="g0_156"/>
<path fill-rule="evenodd" d="M185.9,547H425.4V531.7H185.9V547Z" class="g0_156"/>
<path fill-rule="evenodd" d="M185.9,562H425.4V547H185.9v15Z" class="g0_156"/>
<path fill-rule="evenodd" d="M185.9,577H425.4V562H185.9v15Z" class="g0_156"/>
<path fill-rule="evenodd" d="M185.9,592.1H425.4V577H185.9v15.1Z" class="g0_156"/>
<path fill-rule="evenodd" d="M185.9,607.1H425.4v-15H185.9v15Z" class="g0_156"/>
<path fill-rule="evenodd" d="M185.9,622.2H425.4V607.1H185.9v15.1Z" class="g0_156"/>
<path fill-rule="evenodd" d="M185.9,637.2H425.4v-15H185.9v15Z" class="g0_156"/>
<path fill-rule="evenodd" d="M185.9,652.2H425.4v-15H185.9v15Z" class="g0_156"/>
<path fill-rule="evenodd" d="M185.9,667.3H425V652.2H185.9v15.1Z" class="g0_156"/>
<path fill-rule="evenodd" d="M185.9,682.3H425v-15H185.9v15Z" class="g0_156"/>
<path fill-rule="evenodd" d="M185.9,697.3H425v-15H185.9v15Z" class="g0_156"/>
<path fill-rule="evenodd" d="M185.9,712.4H424.7V697.3H185.9v15.1Z" class="g0_156"/>
<path fill-rule="evenodd" d="M185.9,727.6H424.7V712.4H185.9v15.2Z" class="g0_156"/>
<path fill-rule="evenodd" d="M185.9,742.6H424.7v-15H185.9v15Z" class="g0_156"/>
<path fill-rule="evenodd" d="M185.9,757.6H424.7v-15H185.9v15Z" class="g0_156"/>
<path fill-rule="evenodd" d="M185.9,772.7H424.7V757.6H185.9v15.1Z" class="g0_156"/>
<path fill-rule="evenodd" d="M185.9,787.7H424.7v-15H185.9v15Z" class="g0_156"/>
<path fill-rule="evenodd" d="M185.6,802.7H424.7v-15H185.6v15Z" class="g0_156"/>
<path fill-rule="evenodd" d="M185.6,817.8H424.7V802.7H185.6v15.1Z" class="g0_156"/>
<path fill-rule="evenodd" d="M185.6,832.9H424.7V817.8H185.6v15.1Z" class="g0_156"/>
<path fill-rule="evenodd" d="M185.6,847.9H424.7v-15H185.6v15Z" class="g0_156"/>
<path fill-rule="evenodd" d="M185.9,862.9H424.7v-15H185.9v15Z" class="g0_156"/>
<path fill-rule="evenodd" d="M185.9,878H424.7V862.9H185.9V878Z" class="g0_156"/>
<path fill-rule="evenodd" d="M185.9,893H424.7V878H185.9v15Z" class="g0_156"/>
<path fill-rule="evenodd" d="M187.8,908.2H426.1V893H187.8v15.2Z" class="g0_156"/>
<path fill-rule="evenodd" d="M447,215.4H686.6V200.2H447v15.2Z" class="g0_156"/>
<path fill-rule="evenodd" d="M447,230.5H686.6V215.4H447v15.1Z" class="g0_156"/>
<path fill-rule="evenodd" d="M447,245.5H686.6v-15H447v15Z" class="g0_156"/>
<path fill-rule="evenodd" d="M446.3,260.5H686.6v-15H446.3v15Z" class="g0_156"/>
<path fill-rule="evenodd" d="M446.3,275.6H686.6V260.5H446.3v15.1Z" class="g0_156"/>
<path fill-rule="evenodd" d="M446.3,290.6H686.6v-15H446.3v15Z" class="g0_156"/>
<path fill-rule="evenodd" d="M446.3,305.6H686.6v-15H446.3v15Z" class="g0_156"/>
<path fill-rule="evenodd" d="M446.7,320.7H686.2V305.6H446.7v15.1Z" class="g0_156"/>
<path fill-rule="evenodd" d="M446.7,335.7H686.2v-15H446.7v15Z" class="g0_156"/>
<path fill-rule="evenodd" d="M445.9,350.7H686.6v-15H445.9v15Z" class="g0_156"/>
<path fill-rule="evenodd" d="M445.9,365.8H686.6v-15H445.9v15Z" class="g0_156"/>
<path fill-rule="evenodd" d="M445.9,381H686.6V365.8H445.9V381Z" class="g0_156"/>
<path fill-rule="evenodd" d="M445.9,396.1H686.6V381H445.9v15.1Z" class="g0_156"/>
<path fill-rule="evenodd" d="M445.9,411.1H686.6v-15H445.9v15Z" class="g0_156"/>
<path fill-rule="evenodd" d="M445.9,426.1H686.6v-15H445.9v15Z" class="g0_156"/>
<path fill-rule="evenodd" d="M445.9,441.2H686.6V426.1H445.9v15.1Z" class="g0_156"/>
<path fill-rule="evenodd" d="M445.9,456.2H686.6v-15H445.9v15Z" class="g0_156"/>
<path fill-rule="evenodd" d="M445.9,471.2H686.6v-15H445.9v15Z" class="g0_156"/>
<path fill-rule="evenodd" d="M445.9,486.3H686.6V471.2H445.9v15.1Z" class="g0_156"/>
<path fill-rule="evenodd" d="M445.9,501.3H686.6v-15H445.9v15Z" class="g0_156"/>
<path fill-rule="evenodd" d="M445.9,516.3H686.6v-15H445.9v15Z" class="g0_156"/>
<path fill-rule="evenodd" d="M445.9,531.4H686.6V516.3H445.9v15.1Z" class="g0_156"/>
<path fill-rule="evenodd" d="M444.8,546.4H685.5v-15H444.8v15Z" class="g0_156"/>
<path fill-rule="evenodd" d="M444.8,561.6H685.5V546.4H444.8v15.2Z" class="g0_156"/>
<path fill-rule="evenodd" d="M445.6,576.7H685.5V561.6H445.6v15.1Z" class="g0_156"/>
<path fill-rule="evenodd" d="M445.6,591.7H685.5v-15H445.6v15Z" class="g0_156"/>
<path fill-rule="evenodd" d="M445.6,606.8H685.5V591.7H445.6v15.1Z" class="g0_156"/>
<path fill-rule="evenodd" d="M445.6,621.8H685.5v-15H445.6v15Z" class="g0_156"/>
<path fill-rule="evenodd" d="M445.6,636.8H685.5v-15H445.6v15Z" class="g0_156"/>
<path fill-rule="evenodd" d="M445.9,651.9H685.5V636.8H445.9v15.1Z" class="g0_156"/>
<path fill-rule="evenodd" d="M445.9,666.9H685.5v-15H445.9v15Z" class="g0_156"/>
<path fill-rule="evenodd" d="M445.9,681.9H685.5v-15H445.9v15Z" class="g0_156"/>
<path fill-rule="evenodd" d="M445.6,697H685.5V681.9H445.6V697Z" class="g0_156"/>
<path fill-rule="evenodd" d="M445.6,712H685.5V697H445.6v15Z" class="g0_156"/>
<path fill-rule="evenodd" d="M445.6,727H685.5V712H445.6v15Z" class="g0_156"/>
<path fill-rule="evenodd" d="M445.6,742.2H685.5V727H445.6v15.2Z" class="g0_156"/>
<path fill-rule="evenodd" d="M445.6,757.3H685.5V742.2H445.6v15.1Z" class="g0_156"/>
<path fill-rule="evenodd" d="M445.6,772.3H685.5v-15H445.6v15Z" class="g0_156"/>
<path fill-rule="evenodd" d="M444.8,787.3H685.1v-15H444.8v15Z" class="g0_156"/>
<path fill-rule="evenodd" d="M444.8,802.4H685.1V787.3H444.8v15.1Z" class="g0_156"/>
<path fill-rule="evenodd" d="M444.8,817.4H685.1v-15H444.8v15Z" class="g0_156"/>
<path fill-rule="evenodd" d="M445.2,832.5H685.1V817.4H445.2v15.1Z" class="g0_156"/>
<path fill-rule="evenodd" d="M445.2,847.5H685.1v-15H445.2v15Z" class="g0_156"/>
<path fill-rule="evenodd" d="M444.8,862.6H685.1V847.5H444.8v15.1Z" class="g0_156"/>
<path fill-rule="evenodd" d="M444.8,877.6H685.1v-15H444.8v15Z" class="g0_156"/>
<path fill-rule="evenodd" d="M444.8,892.6H685.1v-15H444.8v15Z" class="g0_156"/>
<path fill-rule="evenodd" d="M422.8,923.8H686.6V906.2H422.8v17.6Z" class="g0_156"/>
<path d="M434.2,195.6V915.3" class="g1_156"/>
</svg>