<?xml version="1.0" encoding="UTF-8" standalone="no"?>
<!DOCTYPE svg PUBLIC "-//W3C//DTD SVG 1.1//EN"
"http://www.w3.org/Graphics/SVG/1.1/DTD/svg11.dtd">
<svg viewBox="0 0 909 1285" version="1.1" xmlns="http://www.w3.org/2000/svg" xmlns:xlink="http://www.w3.org/1999/xlink">
<defs>
<style type="text/css"><![CDATA[
.g0_255{
fill: #FFFFFF;
}
.g1_255{
fill: none;
stroke: #000000;
stroke-width: 0.381;
stroke-linecap: butt;
stroke-linejoin: round;
}
]]></style>
</defs>
<path fill-rule="evenodd" d="M574.9,125.8H682.3V110H574.9v15.8Z" class="g0_255"/>
<path fill-rule="evenodd" d="M200.4,162.1H420.8v-15H200.4v15Z" class="g0_255"/>
<path fill-rule="evenodd" d="M200.4,177.1H420.8v-15H200.4v15Z" class="g0_255"/>
<path fill-rule="evenodd" d="M181.7,192.2H420.8V177.1H181.7v15.1Z" class="g0_255"/>
<path fill-rule="evenodd" d="M181.7,207.2H420.8v-15H181.7v15Z" class="g0_255"/>
<path fill-rule="evenodd" d="M181.7,222.2H420.8v-15H181.7v15Z" class="g0_255"/>
<path fill-rule="evenodd" d="M181.7,237.4H420.8V222.2H181.7v15.2Z" class="g0_255"/>
<path fill-rule="evenodd" d="M181.7,252.5H420.4V237.4H181.7v15.1Z" class="g0_255"/>
<path fill-rule="evenodd" d="M181.7,267.5H420.4v-15H181.7v15Z" class="g0_255"/>
<path fill-rule="evenodd" d="M181.3,282.5H420.8v-15H181.3v15Z" class="g0_255"/>
<path fill-rule="evenodd" d="M181.3,297.6H420.8V282.5H181.3v15.1Z" class="g0_255"/>
<path fill-rule="evenodd" d="M181.3,312.6H420.8v-15H181.3v15Z" class="g0_255"/>
<path fill-rule="evenodd" d="M181.3,327.6H420.4v-15H181.3v15Z" class="g0_255"/>
<path fill-rule="evenodd" d="M181.3,342.7H420.4V327.6H181.3v15.1Z" class="g0_255"/>
<path fill-rule="evenodd" d="M200,357.8H420.8V342.7H200v15.1Z" class="g0_255"/>
<path fill-rule="evenodd" d="M181,372.8H420.8v-15H181v15Z" class="g0_255"/>
<path fill-rule="evenodd" d="M181,387.8H420.8v-15H181v15Z" class="g0_255"/>
<path fill-rule="evenodd" d="M181,403H420.8V387.8H181V403Z" class="g0_255"/>
<path fill-rule="evenodd" d="M181,418.1H420.8V403H181v15.1Z" class="g0_255"/>
<path fill-rule="evenodd" d="M181,433.1H420.8v-15H181v15Z" class="g0_255"/>
<path fill-rule="evenodd" d="M181,448.1H420.8v-15H181v15Z" class="g0_255"/>
<path fill-rule="evenodd" d="M181,463.2H420.8V448.1H181v15.1Z" class="g0_255"/>
<path fill-rule="evenodd" d="M181,478.2H420.8v-15H181v15Z" class="g0_255"/>
<path fill-rule="evenodd" d="M181,493.2H420.4v-15H181v15Z" class="g0_255"/>
<path fill-rule="evenodd" d="M181,508.3H420.4V493.2H181v15.1Z" class="g0_255"/>
<path fill-rule="evenodd" d="M181,523.3H419.7v-15H181v15Z" class="g0_255"/>
<path fill-rule="evenodd" d="M181,538.3H419.7v-15H181v15Z" class="g0_255"/>
<path fill-rule="evenodd" d="M181,553.4H420.4V538.3H181v15.1Z" class="g0_255"/>
<path fill-rule="evenodd" d="M181,568.4H420.4v-15H181v15Z" class="g0_255"/>
<path fill-rule="evenodd" d="M199.3,583.6H420.8V568.4H199.3v15.2Z" class="g0_255"/>
<path fill-rule="evenodd" d="M180.2,599.1H419.7V584H180.2v15.1Z" class="g0_255"/>
<path fill-rule="evenodd" d="M180.2,614.1H419.7v-15H180.2v15Z" class="g0_255"/>
<path fill-rule="evenodd" d="M180.6,629.1H419.3v-15H180.6v15Z" class="g0_255"/>
<path fill-rule="evenodd" d="M180.6,644.2H419.3V629.1H180.6v15.1Z" class="g0_255"/>
<path fill-rule="evenodd" d="M198.9,659.2H420.8v-15H198.9v15Z" class="g0_255"/>
<path fill-rule="evenodd" d="M180.6,674.2H419.7v-15H180.6v15Z" class="g0_255"/>
<path fill-rule="evenodd" d="M180.6,689.3H419.7V674.2H180.6v15.1Z" class="g0_255"/>
<path fill-rule="evenodd" d="M198.9,704.3H420.8v-15H198.9v15Z" class="g0_255"/>
<path fill-rule="evenodd" d="M180.2,719.3H419.7v-15H180.2v15Z" class="g0_255"/>
<path fill-rule="evenodd" d="M180.2,734.4H419.7V719.3H180.2v15.1Z" class="g0_255"/>
<path fill-rule="evenodd" d="M180.6,749.6H419.3V734.4H180.6v15.2Z" class="g0_255"/>
<path fill-rule="evenodd" d="M180.6,764.6H419.3v-15H180.6v15Z" class="g0_255"/>
<path fill-rule="evenodd" d="M180.6,779.6H419.3v-15H180.6v15Z" class="g0_255"/>
<path fill-rule="evenodd" d="M180.2,794.7H419.7V779.6H180.2v15.1Z" class="g0_255"/>
<path fill-rule="evenodd" d="M180.2,809.7H419.7v-15H180.2v15Z" class="g0_255"/>
<path fill-rule="evenodd" d="M180.2,824.7H419.7v-15H180.2v15Z" class="g0_255"/>
<path fill-rule="evenodd" d="M180.2,839.8H419.7V824.7H180.2v15.1Z" class="g0_255"/>
<path fill-rule="evenodd" d="M180.2,854.9H419.7V839.8H180.2v15.1Z" class="g0_255"/>
<path fill-rule="evenodd" d="M180.2,869.9H419.7v-15H180.2v15Z" class="g0_255"/>
<path fill-rule="evenodd" d="M180.2,884.9H419.7v-15H180.2v15Z" class="g0_255"/>
<path fill-rule="evenodd" d="M180.2,900H419.7V884.9H180.2V900Z" class="g0_255"/>
<path fill-rule="evenodd" d="M181.7,915H420.8V900H181.7v15Z" class="g0_255"/>
<path fill-rule="evenodd" d="M441.7,162.1H682.3v-15H441.7v15Z" class="g0_255"/>
<path fill-rule="evenodd" d="M441.7,177.1H682.3v-15H441.7v15Z" class="g0_255"/>
<path fill-rule="evenodd" d="M441.7,192.2H682.3V177.1H441.7v15.1Z" class="g0_255"/>
<path fill-rule="evenodd" d="M442.1,207.2H682v-15H442.1v15Z" class="g0_255"/>
<path fill-rule="evenodd" d="M442.1,222.2H682v-15H442.1v15Z" class="g0_255"/>
<path fill-rule="evenodd" d="M441.4,237.4H682V222.2H441.4v15.2Z" class="g0_255"/>
<path fill-rule="evenodd" d="M441.4,252.5H682V237.4H441.4v15.1Z" class="g0_255"/>
<path fill-rule="evenodd" d="M441.7,267.5H682v-15H441.7v15Z" class="g0_255"/>
<path fill-rule="evenodd" d="M441.7,282.5H682v-15H441.7v15Z" class="g0_255"/>
<path fill-rule="evenodd" d="M441.4,297.6H682V282.5H441.4v15.1Z" class="g0_255"/>
<path fill-rule="evenodd" d="M441.4,312.6H682v-15H441.4v15Z" class="g0_255"/>
<path fill-rule="evenodd" d="M441.4,327.6H682v-15H441.4v15Z" class="g0_255"/>
<path fill-rule="evenodd" d="M441.7,342.7H681.6V327.6H441.7v15.1Z" class="g0_255"/>
<path fill-rule="evenodd" d="M441.7,357.8H681.6V342.7H441.7v15.1Z" class="g0_255"/>
<path fill-rule="evenodd" d="M441.7,372.8H681.6v-15H441.7v15Z" class="g0_255"/>
<path fill-rule="evenodd" d="M441.7,387.8H681.6v-15H441.7v15Z" class="g0_255"/>
<path fill-rule="evenodd" d="M441.7,403H682V387.8H441.7V403Z" class="g0_255"/>
<path fill-rule="evenodd" d="M441.7,418.1H682V403H441.7v15.1Z" class="g0_255"/>
<path fill-rule="evenodd" d="M459.7,433.1H682.3v-15H459.7v15Z" class="g0_255"/>
<path fill-rule="evenodd" d="M440.6,448.5h241v-15h-241v15Z" class="g0_255"/>
<path fill-rule="evenodd" d="M440.6,463.5h241v-15h-241v15Z" class="g0_255"/>
<path fill-rule="evenodd" d="M440.6,478.6h241V463.5h-241v15.1Z" class="g0_255"/>
<path fill-rule="evenodd" d="M441.4,493.6H681.6v-15H441.4v15Z" class="g0_255"/>
<path fill-rule="evenodd" d="M441.4,508.6H681.6v-15H441.4v15Z" class="g0_255"/>
<path fill-rule="evenodd" d="M441.4,523.7H681.6V508.6H441.4v15.1Z" class="g0_255"/>
<path fill-rule="evenodd" d="M459.4,538.7H682.3v-15H459.4v15Z" class="g0_255"/>
<path fill-rule="evenodd" d="M441,553.7H681.2v-15H441v15Z" class="g0_255"/>
<path fill-rule="evenodd" d="M441,569H681.2V553.7H441V569Z" class="g0_255"/>
<path fill-rule="evenodd" d="M441,584H680.9V569H441v15Z" class="g0_255"/>
<path fill-rule="evenodd" d="M441,599.1H680.9V584H441v15.1Z" class="g0_255"/>
<path fill-rule="evenodd" d="M440.6,614.1H680.5v-15H440.6v15Z" class="g0_255"/>
<path fill-rule="evenodd" d="M440.6,629.1H680.5v-15H440.6v15Z" class="g0_255"/>
<path fill-rule="evenodd" d="M440.6,644.2H681.2V629.1H440.6v15.1Z" class="g0_255"/>
<path fill-rule="evenodd" d="M440.6,659.2H681.2v-15H440.6v15Z" class="g0_255"/>
<path fill-rule="evenodd" d="M440.3,674.2H680.5v-15H440.3v15Z" class="g0_255"/>
<path fill-rule="evenodd" d="M440.3,689.3H680.5V674.2H440.3v15.1Z" class="g0_255"/>
<path fill-rule="evenodd" d="M440.6,704.3H680.1v-15H440.6v15Z" class="g0_255"/>
<path fill-rule="evenodd" d="M440.6,719.3H680.1v-15H440.6v15Z" class="g0_255"/>
<path fill-rule="evenodd" d="M440.3,734.4H680.5V719.3H440.3v15.1Z" class="g0_255"/>
<path fill-rule="evenodd" d="M440.3,749.6H680.5V734.4H440.3v15.2Z" class="g0_255"/>
<path fill-rule="evenodd" d="M440.3,764.6H680.5v-15H440.3v15Z" class="g0_255"/>
<path fill-rule="evenodd" d="M440.3,779.6H680.5v-15H440.3v15Z" class="g0_255"/>
<path fill-rule="evenodd" d="M440.6,794.7H680.5V779.6H440.6v15.1Z" class="g0_255"/>
<path fill-rule="evenodd" d="M440.6,809.7H680.5v-15H440.6v15Z" class="g0_255"/>
<path fill-rule="evenodd" d="M440.3,824.7H680.1v-15H440.3v15Z" class="g0_255"/>
<path fill-rule="evenodd" d="M440.3,839.8H680.1V824.7H440.3v15.1Z" class="g0_255"/>
<path fill-rule="evenodd" d="M440.3,854.9H680.5V839.8H440.3v15.1Z" class="g0_255"/>
<path fill-rule="evenodd" d="M440.3,869.9H680.5v-15H440.3v15Z" class="g0_255"/>
<path d="M429.2,146.7V914.8" class="g1_255"/>
</svg>