<?xml version="1.0" encoding="UTF-8" standalone="no"?>
<!DOCTYPE svg PUBLIC "-//W3C//DTD SVG 1.1//EN"
"http://www.w3.org/Graphics/SVG/1.1/DTD/svg11.dtd">
<svg viewBox="0 0 909 1285" version="1.1" xmlns="http://www.w3.org/2000/svg" xmlns:xlink="http://www.w3.org/1999/xlink">
<defs>
<style type="text/css"><![CDATA[
.g0_68{
fill: #FFFFFF;
}
.g1_68{
fill: none;
stroke: #000000;
stroke-width: 0.381;
stroke-linecap: butt;
stroke-linejoin: round;
}
]]></style>
</defs>
<path fill-rule="evenodd" d="M602.9,131.1h94.6V110H602.9v21.1Z" class="g0_68"/>
<path fill-rule="evenodd" d="M199.1,166.7H438.6V151.6H199.1v15.1Z" class="g0_68"/>
<path fill-rule="evenodd" d="M199.1,181.7H438.6v-15H199.1v15Z" class="g0_68"/>
<path fill-rule="evenodd" d="M199.1,196.9H438.6V181.7H199.1v15.2Z" class="g0_68"/>
<path fill-rule="evenodd" d="M199.1,212H438.6V196.9H199.1V212Z" class="g0_68"/>
<path fill-rule="evenodd" d="M199.1,227H438.6V212H199.1v15Z" class="g0_68"/>
<path fill-rule="evenodd" d="M199.1,242H438.2V227H199.1v15Z" class="g0_68"/>
<path fill-rule="evenodd" d="M199.1,257.1H438.2V242H199.1v15.1Z" class="g0_68"/>
<path fill-rule="evenodd" d="M199.1,272.1H438.2v-15H199.1v15Z" class="g0_68"/>
<path fill-rule="evenodd" d="M199.1,287.1H437.5v-15H199.1v15Z" class="g0_68"/>
<path fill-rule="evenodd" d="M199.1,302.2H437.5V287.1H199.1v15.1Z" class="g0_68"/>
<path fill-rule="evenodd" d="M199.1,317.2H437.9v-15H199.1v15Z" class="g0_68"/>
<path fill-rule="evenodd" d="M199.1,332.2H437.9v-15H199.1v15Z" class="g0_68"/>
<path fill-rule="evenodd" d="M199.1,347.3H437.9V332.2H199.1v15.1Z" class="g0_68"/>
<path fill-rule="evenodd" d="M199.5,362.9h238V347.6h-238v15.3Z" class="g0_68"/>
<path fill-rule="evenodd" d="M199.5,377.9h238v-15h-238v15Z" class="g0_68"/>
<path fill-rule="evenodd" d="M199.5,393h238V377.9h-238V393Z" class="g0_68"/>
<path fill-rule="evenodd" d="M198.8,408H437.5V393H198.8v15Z" class="g0_68"/>
<path fill-rule="evenodd" d="M198.8,423H437.5V408H198.8v15Z" class="g0_68"/>
<path fill-rule="evenodd" d="M198.8,438.1H437.5V423H198.8v15.1Z" class="g0_68"/>
<path fill-rule="evenodd" d="M198.8,453.1H437.5v-15H198.8v15Z" class="g0_68"/>
<path fill-rule="evenodd" d="M198.8,468.1H437.5v-15H198.8v15Z" class="g0_68"/>
<path fill-rule="evenodd" d="M198.8,483.2H437.5V468.1H198.8v15.1Z" class="g0_68"/>
<path fill-rule="evenodd" d="M198.8,498.2H437.5v-15H198.8v15Z" class="g0_68"/>
<path fill-rule="evenodd" d="M198,513.2H437.5v-15H198v15Z" class="g0_68"/>
<path fill-rule="evenodd" d="M198,528.4H437.5V513.2H198v15.2Z" class="g0_68"/>
<path fill-rule="evenodd" d="M198,543.5H437.5V528.4H198v15.1Z" class="g0_68"/>
<path fill-rule="evenodd" d="M198,558.5H437.5v-15H198v15Z" class="g0_68"/>
<path fill-rule="evenodd" d="M198,573.5H437.5v-15H198v15Z" class="g0_68"/>
<path fill-rule="evenodd" d="M198,588.6H437.5V573.5H198v15.1Z" class="g0_68"/>
<path fill-rule="evenodd" d="M198,603.6H437.5v-15H198v15Z" class="g0_68"/>
<path fill-rule="evenodd" d="M198,618.7H437.5V603.6H198v15.1Z" class="g0_68"/>
<path fill-rule="evenodd" d="M198,633.7H437.5v-15H198v15Z" class="g0_68"/>
<path fill-rule="evenodd" d="M198.8,648.7H436v-15H198.8v15Z" class="g0_68"/>
<path fill-rule="evenodd" d="M198.8,663.8H436V648.7H198.8v15.1Z" class="g0_68"/>
<path fill-rule="evenodd" d="M197.7,678.8H436.4v-15H197.7v15Z" class="g0_68"/>
<path fill-rule="evenodd" d="M197.7,693.8H436.4v-15H197.7v15Z" class="g0_68"/>
<path fill-rule="evenodd" d="M197.7,709.1H436.4V693.8H197.7v15.3Z" class="g0_68"/>
<path fill-rule="evenodd" d="M197.7,724.1H436.4v-15H197.7v15Z" class="g0_68"/>
<path fill-rule="evenodd" d="M197.7,739.1H436.8v-15H197.7v15Z" class="g0_68"/>
<path fill-rule="evenodd" d="M197.7,754.2H436.8V739.1H197.7v15.1Z" class="g0_68"/>
<path fill-rule="evenodd" d="M197.7,769.2H436.8v-15H197.7v15Z" class="g0_68"/>
<path fill-rule="evenodd" d="M197.7,784.2H436.8v-15H197.7v15Z" class="g0_68"/>
<path fill-rule="evenodd" d="M197.7,799.3H436V784.2H197.7v15.1Z" class="g0_68"/>
<path fill-rule="evenodd" d="M197.7,814.3H436v-15H197.7v15Z" class="g0_68"/>
<path fill-rule="evenodd" d="M197.7,829.3H436v-15H197.7v15Z" class="g0_68"/>
<path fill-rule="evenodd" d="M197.7,844.4H436V829.3H197.7v15.1Z" class="g0_68"/>
<path fill-rule="evenodd" d="M199.5,859.4H438.2v-15H199.5v15Z" class="g0_68"/>
<path fill-rule="evenodd" d="M458.4,167H697.2V152H458.4v15Z" class="g0_68"/>
<path fill-rule="evenodd" d="M458.4,182.3H697.2V167H458.4v15.3Z" class="g0_68"/>
<path fill-rule="evenodd" d="M458.4,197.3H697.2v-15H458.4v15Z" class="g0_68"/>
<path fill-rule="evenodd" d="M458.4,212.3H697.2v-15H458.4v15Z" class="g0_68"/>
<path fill-rule="evenodd" d="M458.4,227.4H697.2V212.3H458.4v15.1Z" class="g0_68"/>
<path fill-rule="evenodd" d="M458.4,242.4H697.2v-15H458.4v15Z" class="g0_68"/>
<path fill-rule="evenodd" d="M458.8,257.4h238v-15h-238v15Z" class="g0_68"/>
<path fill-rule="evenodd" d="M458.8,272.5h238V257.4h-238v15.1Z" class="g0_68"/>
<path fill-rule="evenodd" d="M458.1,287.5H697.5v-15H458.1v15Z" class="g0_68"/>
<path fill-rule="evenodd" d="M458.1,302.5H697.5v-15H458.1v15Z" class="g0_68"/>
<path fill-rule="evenodd" d="M458.1,317.6H697.5V302.5H458.1v15.1Z" class="g0_68"/>
<path fill-rule="evenodd" d="M458.1,332.6H697.5v-15H458.1v15Z" class="g0_68"/>
<path fill-rule="evenodd" d="M458.1,347.8H697.5V332.6H458.1v15.2Z" class="g0_68"/>
<path fill-rule="evenodd" d="M458.1,362.9H697.5V347.8H458.1v15.1Z" class="g0_68"/>
<path fill-rule="evenodd" d="M458.1,377.9H697.5v-15H458.1v15Z" class="g0_68"/>
<path fill-rule="evenodd" d="M458.1,393H697.5V377.9H458.1V393Z" class="g0_68"/>
<path fill-rule="evenodd" d="M458.1,408H697.5V393H458.1v15Z" class="g0_68"/>
<path fill-rule="evenodd" d="M458.1,423H697.5V408H458.1v15Z" class="g0_68"/>
<path fill-rule="evenodd" d="M458.1,438.1H697.5V423H458.1v15.1Z" class="g0_68"/>
<path fill-rule="evenodd" d="M458.1,453.1H697.5v-15H458.1v15Z" class="g0_68"/>
<path fill-rule="evenodd" d="M458.1,468.1H697.5v-15H458.1v15Z" class="g0_68"/>
<path fill-rule="evenodd" d="M458.1,483.2H697.5V468.1H458.1v15.1Z" class="g0_68"/>
<path fill-rule="evenodd" d="M458.1,498.2H697.5v-15H458.1v15Z" class="g0_68"/>
<path fill-rule="evenodd" d="M458.1,513.2H697.5v-15H458.1v15Z" class="g0_68"/>
<path fill-rule="evenodd" d="M457.7,528.4H696.8V513.2H457.7v15.2Z" class="g0_68"/>
<path fill-rule="evenodd" d="M457.7,543.5H696.8V528.4H457.7v15.1Z" class="g0_68"/>
<path fill-rule="evenodd" d="M457.7,558.5H696.8v-15H457.7v15Z" class="g0_68"/>
<path fill-rule="evenodd" d="M457.7,573.5H696.8v-15H457.7v15Z" class="g0_68"/>
<path fill-rule="evenodd" d="M457.7,588.6H696.1V573.5H457.7v15.1Z" class="g0_68"/>
<path fill-rule="evenodd" d="M457.7,603.6H696.1v-15H457.7v15Z" class="g0_68"/>
<path fill-rule="evenodd" d="M457.7,618.7H696.1V603.6H457.7v15.1Z" class="g0_68"/>
<path fill-rule="evenodd" d="M457.7,633.7H696.8v-15H457.7v15Z" class="g0_68"/>
<path fill-rule="evenodd" d="M457.7,648.7H696.8v-15H457.7v15Z" class="g0_68"/>
<path fill-rule="evenodd" d="M457.7,663.8H696.8V648.7H457.7v15.1Z" class="g0_68"/>
<path fill-rule="evenodd" d="M456.6,678.8H696.4v-15H456.6v15Z" class="g0_68"/>
<path fill-rule="evenodd" d="M456.6,693.8H696.4v-15H456.6v15Z" class="g0_68"/>
<path fill-rule="evenodd" d="M456.6,709.1H696.4V693.8H456.6v15.3Z" class="g0_68"/>
<path fill-rule="evenodd" d="M456.6,724.1H696.4v-15H456.6v15Z" class="g0_68"/>
<path fill-rule="evenodd" d="M456.6,739.1H696.4v-15H456.6v15Z" class="g0_68"/>
<path fill-rule="evenodd" d="M456.6,754.2H696.4V739.1H456.6v15.1Z" class="g0_68"/>
<path fill-rule="evenodd" d="M456.6,769.2H696.4v-15H456.6v15Z" class="g0_68"/>
<path fill-rule="evenodd" d="M456.6,784.2H696.1v-15H456.6v15Z" class="g0_68"/>
<path fill-rule="evenodd" d="M456.6,799.3H696.1V784.2H456.6v15.1Z" class="g0_68"/>
<path fill-rule="evenodd" d="M456.6,814.3H696.1v-15H456.6v15Z" class="g0_68"/>
<path fill-rule="evenodd" d="M456.6,829.3H696.1v-15H456.6v15Z" class="g0_68"/>
<path fill-rule="evenodd" d="M456.6,844.4H696.1V829.3H456.6v15.1Z" class="g0_68"/>
<path fill-rule="evenodd" d="M456.6,859.8H695.7v-15H456.6v15Z" class="g0_68"/>
<path fill-rule="evenodd" d="M456.6,875H695.7V859.8H456.6V875Z" class="g0_68"/>
<path fill-rule="evenodd" d="M456.6,890.1H695.7V875H456.6v15.1Z" class="g0_68"/>
<path fill-rule="evenodd" d="M456.6,905.1H695.7v-15H456.6v15Z" class="g0_68"/>
<path d="M445.9,151.3V919.5" class="g1_68"/>
</svg>