<?xml version="1.0" encoding="UTF-8" standalone="no"?>
<!DOCTYPE svg PUBLIC "-//W3C//DTD SVG 1.1//EN"
"http://www.w3.org/Graphics/SVG/1.1/DTD/svg11.dtd">
<svg viewBox="0 0 909 1285" version="1.1" xmlns="http://www.w3.org/2000/svg" xmlns:xlink="http://www.w3.org/1999/xlink">
<defs>
<style type="text/css"><![CDATA[
.g0_176{
fill: #FFFFFF;
}
.g1_176{
fill: none;
stroke: #000000;
stroke-width: 0.381;
stroke-linecap: butt;
stroke-linejoin: round;
}
]]></style>
</defs>
<path fill-rule="evenodd" d="M627.7,125.8h66.7V110H627.7v15.8Z" class="g0_176"/>
<path fill-rule="evenodd" d="M194.2,162.3H432.9V147.1H194.2v15.2Z" class="g0_176"/>
<path fill-rule="evenodd" d="M194.2,177.3H432.9v-15H194.2v15Z" class="g0_176"/>
<path fill-rule="evenodd" d="M193.8,192.3H432.9v-15H193.8v15Z" class="g0_176"/>
<path fill-rule="evenodd" d="M193.8,207.4H432.9V192.3H193.8v15.1Z" class="g0_176"/>
<path fill-rule="evenodd" d="M193.8,222.4H432.9v-15H193.8v15Z" class="g0_176"/>
<path fill-rule="evenodd" d="M193.8,237.4H432.9v-15H193.8v15Z" class="g0_176"/>
<path fill-rule="evenodd" d="M193.8,252.5H432.5V237.4H193.8v15.1Z" class="g0_176"/>
<path fill-rule="evenodd" d="M193.8,267.5H432.5v-15H193.8v15Z" class="g0_176"/>
<path fill-rule="evenodd" d="M193.8,282.5H432.5v-15H193.8v15Z" class="g0_176"/>
<path fill-rule="evenodd" d="M193.4,297.6H432.5V282.5H193.4v15.1Z" class="g0_176"/>
<path fill-rule="evenodd" d="M193.4,312.6H432.5v-15H193.4v15Z" class="g0_176"/>
<path fill-rule="evenodd" d="M193.4,327.8H432.5V312.6H193.4v15.2Z" class="g0_176"/>
<path fill-rule="evenodd" d="M193.4,342.9H432.9V327.8H193.4v15.1Z" class="g0_176"/>
<path fill-rule="evenodd" d="M193.4,357.9H432.9v-15H193.4v15Z" class="g0_176"/>
<path fill-rule="evenodd" d="M193.4,373H432.9V357.9H193.4V373Z" class="g0_176"/>
<path fill-rule="evenodd" d="M193.4,388H432.5V373H193.4v15Z" class="g0_176"/>
<path fill-rule="evenodd" d="M193.4,403H432.5V388H193.4v15Z" class="g0_176"/>
<path fill-rule="evenodd" d="M193.1,418.1H432.5V403H193.1v15.1Z" class="g0_176"/>
<path fill-rule="evenodd" d="M193.1,433.1H432.5v-15H193.1v15Z" class="g0_176"/>
<path fill-rule="evenodd" d="M193.1,448.1H432.5v-15H193.1v15Z" class="g0_176"/>
<path fill-rule="evenodd" d="M193.1,463.2H432.5V448.1H193.1v15.1Z" class="g0_176"/>
<path fill-rule="evenodd" d="M193.1,478.2H432.5v-15H193.1v15Z" class="g0_176"/>
<path fill-rule="evenodd" d="M193.1,493.2H432.5v-15H193.1v15Z" class="g0_176"/>
<path fill-rule="evenodd" d="M193.1,508.5H432.5V493.2H193.1v15.3Z" class="g0_176"/>
<path fill-rule="evenodd" d="M193.1,523.5H432.5v-15H193.1v15Z" class="g0_176"/>
<path fill-rule="evenodd" d="M193.1,538.5H327.3v-15H193.1v15Z" class="g0_176"/>
<path fill-rule="evenodd" d="M193.1,553.6H327.3V538.5H193.1v15.1Z" class="g0_176"/>
<path fill-rule="evenodd" d="M192.7,568.6H432.2v-15H192.7v15Z" class="g0_176"/>
<path fill-rule="evenodd" d="M192.7,583.6H432.2v-15H192.7v15Z" class="g0_176"/>
<path fill-rule="evenodd" d="M192.7,598.7H432.2V583.6H192.7v15.1Z" class="g0_176"/>
<path fill-rule="evenodd" d="M192.7,613.7H432.2v-15H192.7v15Z" class="g0_176"/>
<path fill-rule="evenodd" d="M192.7,628.8H432.2V613.7H192.7v15.1Z" class="g0_176"/>
<path fill-rule="evenodd" d="M192.7,643.8H432.2v-15H192.7v15Z" class="g0_176"/>
<path fill-rule="evenodd" d="M192.7,658.8H432.2v-15H192.7v15Z" class="g0_176"/>
<path fill-rule="evenodd" d="M192.7,673.9H327.3V658.8H192.7v15.1Z" class="g0_176"/>
<path fill-rule="evenodd" d="M192.7,689.1H327.3V673.9H192.7v15.2Z" class="g0_176"/>
<path fill-rule="evenodd" d="M192,704.1H431.8v-15H192v15Z" class="g0_176"/>
<path fill-rule="evenodd" d="M192,719.1H431.8v-15H192v15Z" class="g0_176"/>
<path fill-rule="evenodd" d="M192,734.2H431.8V719.1H192v15.1Z" class="g0_176"/>
<path fill-rule="evenodd" d="M191.6,749.6H431.8V734.5H191.6v15.1Z" class="g0_176"/>
<path fill-rule="evenodd" d="M191.6,764.6H431.8v-15H191.6v15Z" class="g0_176"/>
<path fill-rule="evenodd" d="M191.6,779.6H431.8v-15H191.6v15Z" class="g0_176"/>
<path fill-rule="evenodd" d="M191.6,794.7H431.8V779.6H191.6v15.1Z" class="g0_176"/>
<path fill-rule="evenodd" d="M191.6,809.7H431.8v-15H191.6v15Z" class="g0_176"/>
<path fill-rule="evenodd" d="M191.6,824.7H431.8v-15H191.6v15Z" class="g0_176"/>
<path fill-rule="evenodd" d="M191.6,839.8H431.8V824.7H191.6v15.1Z" class="g0_176"/>
<path fill-rule="evenodd" d="M191.6,855H431.8V839.8H191.6V855Z" class="g0_176"/>
<path fill-rule="evenodd" d="M191.6,870.1H431.8V855H191.6v15.1Z" class="g0_176"/>
<path fill-rule="evenodd" d="M191.6,885.1H431.8v-15H191.6v15Z" class="g0_176"/>
<path fill-rule="evenodd" d="M193.4,900.1H432.5v-15H193.4v15Z" class="g0_176"/>
<path fill-rule="evenodd" d="M453.9,161.7H694.1v-15H453.9v15Z" class="g0_176"/>
<path fill-rule="evenodd" d="M453.9,176.9H694.1V161.7H453.9v15.2Z" class="g0_176"/>
<path fill-rule="evenodd" d="M453.9,192H694.1V176.9H453.9V192Z" class="g0_176"/>
<path fill-rule="evenodd" d="M453.5,207H694.1V192H453.5v15Z" class="g0_176"/>
<path fill-rule="evenodd" d="M453.5,222H694.1V207H453.5v15Z" class="g0_176"/>
<path fill-rule="evenodd" d="M453.5,237.1H694.4V222H453.5v15.1Z" class="g0_176"/>
<path fill-rule="evenodd" d="M453.5,252.1H694.4v-15H453.5v15Z" class="g0_176"/>
<path fill-rule="evenodd" d="M453.5,267.1H694.4v-15H453.5v15Z" class="g0_176"/>
<path fill-rule="evenodd" d="M453.5,282.2H694.4V267.1H453.5v15.1Z" class="g0_176"/>
<path fill-rule="evenodd" d="M453.5,297.2H694.1v-15H453.5v15Z" class="g0_176"/>
<path fill-rule="evenodd" d="M453.5,312.2H694.1v-15H453.5v15Z" class="g0_176"/>
<path fill-rule="evenodd" d="M453.5,327.3H694.4V312.2H453.5v15.1Z" class="g0_176"/>
<path fill-rule="evenodd" d="M453.5,342.5H694.4V327.3H453.5v15.2Z" class="g0_176"/>
<path fill-rule="evenodd" d="M453.5,357.6H694.4V342.5H453.5v15.1Z" class="g0_176"/>
<path fill-rule="evenodd" d="M453.1,372.6h241v-15h-241v15Z" class="g0_176"/>
<path fill-rule="evenodd" d="M453.1,387.6h241v-15h-241v15Z" class="g0_176"/>
<path fill-rule="evenodd" d="M453.1,402.7h241V387.6h-241v15.1Z" class="g0_176"/>
<path fill-rule="evenodd" d="M453.1,417.7h241v-15h-241v15Z" class="g0_176"/>
<path fill-rule="evenodd" d="M453.1,432.7h241v-15h-241v15Z" class="g0_176"/>
<path fill-rule="evenodd" d="M453.1,447.8h241V432.7h-241v15.1Z" class="g0_176"/>
<path fill-rule="evenodd" d="M453.1,462.8h241v-15h-241v15Z" class="g0_176"/>
<path fill-rule="evenodd" d="M471.1,477.8H694.4v-15H471.1v15Z" class="g0_176"/>
<path fill-rule="evenodd" d="M453.1,492.9H693.7V477.8H453.1v15.1Z" class="g0_176"/>
<path fill-rule="evenodd" d="M453.1,507.9H693.7v-15H453.1v15Z" class="g0_176"/>
<path fill-rule="evenodd" d="M452.8,523.1H694.1V507.9H452.8v15.2Z" class="g0_176"/>
<path fill-rule="evenodd" d="M452.8,538.2H694.1V523.1H452.8v15.1Z" class="g0_176"/>
<path fill-rule="evenodd" d="M452.8,553.2H694.1v-15H452.8v15Z" class="g0_176"/>
<path fill-rule="evenodd" d="M452.8,568.2H694.1v-15H452.8v15Z" class="g0_176"/>
<path fill-rule="evenodd" d="M452.8,583.3H694.1V568.2H452.8v15.1Z" class="g0_176"/>
<path fill-rule="evenodd" d="M452.8,598.3H694.1v-15H452.8v15Z" class="g0_176"/>
<path fill-rule="evenodd" d="M452.8,613.4H694.1V598.3H452.8v15.1Z" class="g0_176"/>
<path fill-rule="evenodd" d="M452.8,628.4H694.1v-15H452.8v15Z" class="g0_176"/>
<path fill-rule="evenodd" d="M452.8,643.4H694.1v-15H452.8v15Z" class="g0_176"/>
<path fill-rule="evenodd" d="M452.8,658.5H694.1V643.4H452.8v15.1Z" class="g0_176"/>
<path fill-rule="evenodd" d="M452.8,673.5H693v-15H452.8v15Z" class="g0_176"/>
<path fill-rule="evenodd" d="M452.8,688.5H693v-15H452.8v15Z" class="g0_176"/>
<path fill-rule="evenodd" d="M470.7,703.7H694.4V688.5H470.7v15.2Z" class="g0_176"/>
<path fill-rule="evenodd" d="M452,718.8H692.6V703.7H452v15.1Z" class="g0_176"/>
<path fill-rule="evenodd" d="M452,733.8H692.6v-15H452v15Z" class="g0_176"/>
<path fill-rule="evenodd" d="M452,748.8H692.6v-15H452v15Z" class="g0_176"/>
<path fill-rule="evenodd" d="M452.4,763.9H693V748.8H452.4v15.1Z" class="g0_176"/>
<path fill-rule="evenodd" d="M452.4,778.9H693v-15H452.4v15Z" class="g0_176"/>
<path fill-rule="evenodd" d="M452.4,793.9H693v-15H452.4v15Z" class="g0_176"/>
<path fill-rule="evenodd" d="M452.4,809H693.3V793.9H452.4V809Z" class="g0_176"/>
<path fill-rule="evenodd" d="M452.4,824H693.3V809H452.4v15Z" class="g0_176"/>
<path fill-rule="evenodd" d="M452,839.1H693.3V824H452v15.1Z" class="g0_176"/>
<path fill-rule="evenodd" d="M452,854.1H693.3v-15H452v15Z" class="g0_176"/>
<path fill-rule="evenodd" d="M452,869.2H693.3V854.1H452v15.1Z" class="g0_176"/>
<path fill-rule="evenodd" d="M452,884.4H693.3V869.2H452v15.2Z" class="g0_176"/>
<path fill-rule="evenodd" d="M429.6,917.7H694.4V900.1H429.6v17.6Z" class="g0_176"/>
<path d="M440.9,146.7v769" class="g1_176"/>
</svg>