<?xml version="1.0" encoding="UTF-8" standalone="no"?>
<!DOCTYPE svg PUBLIC "-//W3C//DTD SVG 1.1//EN"
"http://www.w3.org/Graphics/SVG/1.1/DTD/svg11.dtd">
<svg viewBox="0 0 909 1285" version="1.1" xmlns="http://www.w3.org/2000/svg" xmlns:xlink="http://www.w3.org/1999/xlink">
<defs>
<style type="text/css"><![CDATA[
.g0_152{
fill: #FFFFFF;
}
]]></style>
</defs>
<path fill-rule="evenodd" d="M600.3,125.8h89.5V110H600.3v15.8Z" class="g0_152"/>
<path fill-rule="evenodd" d="M189.2,161.4H447.8V146.3H189.2v15.1Z" class="g0_152"/>
<path fill-rule="evenodd" d="M189.2,176.4H447.8v-15H189.2v15Z" class="g0_152"/>
<path fill-rule="evenodd" d="M189.2,191.6H447.8V176.4H189.2v15.2Z" class="g0_152"/>
<path fill-rule="evenodd" d="M188.9,206.6H428.5v-15H188.9v15Z" class="g0_152"/>
<path fill-rule="evenodd" d="M188.9,221.7H428.5V206.6H188.9v15.1Z" class="g0_152"/>
<path fill-rule="evenodd" d="M188.9,236.7H428.5v-15H188.9v15Z" class="g0_152"/>
<path fill-rule="evenodd" d="M188.9,251.7H428.5v-15H188.9v15Z" class="g0_152"/>
<path fill-rule="evenodd" d="M188.9,266.8H428.5V251.7H188.9v15.1Z" class="g0_152"/>
<path fill-rule="evenodd" d="M188.9,281.8H428.3v-15H188.9v15Z" class="g0_152"/>
<path fill-rule="evenodd" d="M188.9,296.8H428.3v-15H188.9v15Z" class="g0_152"/>
<path fill-rule="evenodd" d="M188.9,311.9H428.3V296.8H188.9v15.1Z" class="g0_152"/>
<path fill-rule="evenodd" d="M188.9,326.9H428.3v-15H188.9v15Z" class="g0_152"/>
<path fill-rule="evenodd" d="M188.9,341.9H428.3v-15H188.9v15Z" class="g0_152"/>
<path fill-rule="evenodd" d="M188.5,357.2H428V342H188.5v15.2Z" class="g0_152"/>
<path fill-rule="evenodd" d="M188.5,372.2H428v-15H188.5v15Z" class="g0_152"/>
<path fill-rule="evenodd" d="M188.5,387.3H428V372.2H188.5v15.1Z" class="g0_152"/>
<path fill-rule="evenodd" d="M188.1,402.3H428v-15H188.1v15Z" class="g0_152"/>
<path fill-rule="evenodd" d="M188.1,417.3H428v-15H188.1v15Z" class="g0_152"/>
<path fill-rule="evenodd" d="M188.1,432.4H428V417.3H188.1v15.1Z" class="g0_152"/>
<path fill-rule="evenodd" d="M188.1,447.4H428v-15H188.1v15Z" class="g0_152"/>
<path fill-rule="evenodd" d="M187.4,462.8H427.2v-15H187.4v15Z" class="g0_152"/>
<path fill-rule="evenodd" d="M187.4,477.8H427.2v-15H187.4v15Z" class="g0_152"/>
<path fill-rule="evenodd" d="M187.4,492.9H427.2V477.8H187.4v15.1Z" class="g0_152"/>
<path fill-rule="evenodd" d="M187.4,507.9H427.2v-15H187.4v15Z" class="g0_152"/>
<path fill-rule="evenodd" d="M187.4,523.1H427.2V507.9H187.4v15.2Z" class="g0_152"/>
<path fill-rule="evenodd" d="M187,538.2H426.9V523.1H187v15.1Z" class="g0_152"/>
<path fill-rule="evenodd" d="M187,553.2H426.9v-15H187v15Z" class="g0_152"/>
<path fill-rule="evenodd" d="M187,568.2H426.9v-15H187v15Z" class="g0_152"/>
<path fill-rule="evenodd" d="M187,583.3H426.9V568.2H187v15.1Z" class="g0_152"/>
<path fill-rule="evenodd" d="M187,598.3H426.9v-15H187v15Z" class="g0_152"/>
<path fill-rule="evenodd" d="M187,613.4H426.5V598.3H187v15.1Z" class="g0_152"/>
<path fill-rule="evenodd" d="M187,628.4H426.5v-15H187v15Z" class="g0_152"/>
<path fill-rule="evenodd" d="M187,643.4H426.5v-15H187v15Z" class="g0_152"/>
<path fill-rule="evenodd" d="M187,658.5H426.5V643.4H187v15.1Z" class="g0_152"/>
<path fill-rule="evenodd" d="M187,673.5H426.5v-15H187v15Z" class="g0_152"/>
<path fill-rule="evenodd" d="M187,688.5H426.5v-15H187v15Z" class="g0_152"/>
<path fill-rule="evenodd" d="M187,703.7H426.5V688.5H187v15.2Z" class="g0_152"/>
<path fill-rule="evenodd" d="M187.4,718.8H425.8V703.7H187.4v15.1Z" class="g0_152"/>
<path fill-rule="evenodd" d="M187.4,733.8H425.8v-15H187.4v15Z" class="g0_152"/>
<path fill-rule="evenodd" d="M186.7,748.8H426.1v-15H186.7v15Z" class="g0_152"/>
<path fill-rule="evenodd" d="M186.7,763.9H426.1V748.8H186.7v15.1Z" class="g0_152"/>
<path fill-rule="evenodd" d="M186.7,778.9H426.1v-15H186.7v15Z" class="g0_152"/>
<path fill-rule="evenodd" d="M186.7,793.9H426.1v-15H186.7v15Z" class="g0_152"/>
<path fill-rule="evenodd" d="M187,809.3H425.8v-15H187v15Z" class="g0_152"/>
<path fill-rule="evenodd" d="M187,824.4H425.8V809.3H187v15.1Z" class="g0_152"/>
<path fill-rule="evenodd" d="M186.7,839.5H426.1V824.4H186.7v15.1Z" class="g0_152"/>
<path fill-rule="evenodd" d="M186.7,854.5H426.1v-15H186.7v15Z" class="g0_152"/>
<path fill-rule="evenodd" d="M186.7,869.7H426.1V854.5H186.7v15.2Z" class="g0_152"/>
<path fill-rule="evenodd" d="M186.7,884.7H425.4v-15H186.7v15Z" class="g0_152"/>
<path fill-rule="evenodd" d="M186.7,899.8H425.4V884.7H186.7v15.1Z" class="g0_152"/>
<path fill-rule="evenodd" d="M186.3,927.6H447.8V911.9H186.3v15.7Z" class="g0_152"/>
<path fill-rule="evenodd" d="M186.3,943.4H447.8V927.6H186.3v15.8Z" class="g0_152"/>
<path fill-rule="evenodd" d="M188.5,958.4H447.8v-15H188.5v15Z" class="g0_152"/>
<path fill-rule="evenodd" d="M448.3,161.7H689.7v-15H448.3v15Z" class="g0_152"/>
<path fill-rule="evenodd" d="M448.3,176.9H689.7V161.7H448.3v15.2Z" class="g0_152"/>
<path fill-rule="evenodd" d="M448.3,192H689.7V176.9H448.3V192Z" class="g0_152"/>
<path fill-rule="evenodd" d="M448.3,207H689.7V192H448.3v15Z" class="g0_152"/>
<path fill-rule="evenodd" d="M448.3,222H689.7V207H448.3v15Z" class="g0_152"/>
<path fill-rule="evenodd" d="M448.3,237.1H689.7V222H448.3v15.1Z" class="g0_152"/>
<path fill-rule="evenodd" d="M448.3,252.1H689.7v-15H448.3v15Z" class="g0_152"/>
<path fill-rule="evenodd" d="M448.3,267.1H689.7v-15H448.3v15Z" class="g0_152"/>
<path fill-rule="evenodd" d="M447.6,282.2h241V267.1h-241v15.1Z" class="g0_152"/>
<path fill-rule="evenodd" d="M447.6,297.2h241v-15h-241v15Z" class="g0_152"/>
<path fill-rule="evenodd" d="M447.6,312.2h241v-15h-241v15Z" class="g0_152"/>
<path fill-rule="evenodd" d="M447.6,327.3h241V312.2h-241v15.1Z" class="g0_152"/>
<path fill-rule="evenodd" d="M447.6,342.5h241V327.3h-241v15.2Z" class="g0_152"/>
<path fill-rule="evenodd" d="M447.6,357.6h241V342.5h-241v15.1Z" class="g0_152"/>
<path fill-rule="evenodd" d="M447.6,372.6h241v-15h-241v15Z" class="g0_152"/>
<path fill-rule="evenodd" d="M447.6,387.6h241v-15h-241v15Z" class="g0_152"/>
<path fill-rule="evenodd" d="M447.6,402.7h241V387.6h-241v15.1Z" class="g0_152"/>
<path fill-rule="evenodd" d="M447.6,417.7h241v-15h-241v15Z" class="g0_152"/>
<path fill-rule="evenodd" d="M447.6,432.7h241v-15h-241v15Z" class="g0_152"/>
<path fill-rule="evenodd" d="M447.6,447.8h241V432.7h-241v15.1Z" class="g0_152"/>
<path fill-rule="evenodd" d="M447.6,462.8h241v-15h-241v15Z" class="g0_152"/>
<path fill-rule="evenodd" d="M447.6,477.8h241v-15h-241v15Z" class="g0_152"/>
<path fill-rule="evenodd" d="M447.6,492.9h241V477.8h-241v15.1Z" class="g0_152"/>
<path fill-rule="evenodd" d="M447.6,507.9h241v-15h-241v15Z" class="g0_152"/>
<path fill-rule="evenodd" d="M446.9,523.1H687.8V507.9H446.9v15.2Z" class="g0_152"/>
<path fill-rule="evenodd" d="M446.9,538.2H687.8V523.1H446.9v15.1Z" class="g0_152"/>
<path fill-rule="evenodd" d="M446.9,553.2H687.8v-15H446.9v15Z" class="g0_152"/>
<path fill-rule="evenodd" d="M446.9,568.2H687.8v-15H446.9v15Z" class="g0_152"/>
<path fill-rule="evenodd" d="M446.9,583.3H687.8V568.2H446.9v15.1Z" class="g0_152"/>
<path fill-rule="evenodd" d="M464.9,598.3H689.7v-15H464.9v15Z" class="g0_152"/>
<path fill-rule="evenodd" d="M446.9,613.4H687.1V598.3H446.9v15.1Z" class="g0_152"/>
<path fill-rule="evenodd" d="M446.9,628.4H687.1v-15H446.9v15Z" class="g0_152"/>
<path fill-rule="evenodd" d="M446.9,643.4H687.1v-15H446.9v15Z" class="g0_152"/>
<path fill-rule="evenodd" d="M446.5,658.5h241V643.4h-241v15.1Z" class="g0_152"/>
<path fill-rule="evenodd" d="M446.5,673.5h241v-15h-241v15Z" class="g0_152"/>
<path fill-rule="evenodd" d="M446.5,688.5H687.1v-15H446.5v15Z" class="g0_152"/>
<path fill-rule="evenodd" d="M446.5,703.7H687.1V688.5H446.5v15.2Z" class="g0_152"/>
<path fill-rule="evenodd" d="M446.5,718.8H687.1V703.7H446.5v15.1Z" class="g0_152"/>
<path fill-rule="evenodd" d="M446.5,733.8H687.1v-15H446.5v15Z" class="g0_152"/>
<path fill-rule="evenodd" d="M446.5,748.8H686.7v-15H446.5v15Z" class="g0_152"/>
<path fill-rule="evenodd" d="M446.5,763.9H686.7V748.8H446.5v15.1Z" class="g0_152"/>
<path fill-rule="evenodd" d="M446.5,778.9H686.7v-15H446.5v15Z" class="g0_152"/>
<path fill-rule="evenodd" d="M446.5,793.9H686v-15H446.5v15Z" class="g0_152"/>
<path fill-rule="evenodd" d="M446.5,809H686V793.9H446.5V809Z" class="g0_152"/>
<path fill-rule="evenodd" d="M446.9,824H686V809H446.9v15Z" class="g0_152"/>
<path fill-rule="evenodd" d="M446.9,839.1H686V824H446.9v15.1Z" class="g0_152"/>
<path fill-rule="evenodd" d="M446.1,854.1H686.4v-15H446.1v15Z" class="g0_152"/>
<path fill-rule="evenodd" d="M446.1,869.2H686.4V854.1H446.1v15.1Z" class="g0_152"/>
<path fill-rule="evenodd" d="M446.1,884.4H686.4V869.2H446.1v15.2Z" class="g0_152"/>
<path fill-rule="evenodd" d="M446.1,899.4H686.4v-15H446.1v15Z" class="g0_152"/>
</svg>