<?xml version="1.0" encoding="UTF-8" standalone="no"?>
<!DOCTYPE svg PUBLIC "-//W3C//DTD SVG 1.1//EN"
"http://www.w3.org/Graphics/SVG/1.1/DTD/svg11.dtd">
<svg viewBox="0 0 909 1285" version="1.1" xmlns="http://www.w3.org/2000/svg" xmlns:xlink="http://www.w3.org/1999/xlink">
<defs>
<style type="text/css"><![CDATA[
.g0_221{
fill: #FFFFFF;
}
.g1_221{
fill: none;
stroke: #000000;
stroke-width: 0.381;
stroke-linecap: butt;
stroke-linejoin: round;
}
.g2_221{
fill: none;
stroke: #000000;
stroke-width: 0.763;
stroke-linecap: butt;
stroke-linejoin: round;
}
]]></style>
</defs>
<path fill-rule="evenodd" d="M265.5,125.8H762.8V110H265.5v15.8Z" class="g0_221"/>
<path fill-rule="evenodd" d="M265.1,161.4H504.3V146.3H265.1v15.1Z" class="g0_221"/>
<path fill-rule="evenodd" d="M265.1,176.4H504.3v-15H265.1v15Z" class="g0_221"/>
<path fill-rule="evenodd" d="M265.1,191.6H504.3V176.4H265.1v15.2Z" class="g0_221"/>
<path fill-rule="evenodd" d="M265.1,206.6H504.3v-15H265.1v15Z" class="g0_221"/>
<path fill-rule="evenodd" d="M265.1,221.7H503.9V206.6H265.1v15.1Z" class="g0_221"/>
<path fill-rule="evenodd" d="M265.1,236.7H503.9v-15H265.1v15Z" class="g0_221"/>
<path fill-rule="evenodd" d="M264.8,251.7H503.9v-15H264.8v15Z" class="g0_221"/>
<path fill-rule="evenodd" d="M264.8,266.8H503.9V251.7H264.8v15.1Z" class="g0_221"/>
<path fill-rule="evenodd" d="M265.1,281.8H504.3v-15H265.1v15Z" class="g0_221"/>
<path fill-rule="evenodd" d="M265.1,296.8H504.3v-15H265.1v15Z" class="g0_221"/>
<path fill-rule="evenodd" d="M265.1,311.9H504.3V296.8H265.1v15.1Z" class="g0_221"/>
<path fill-rule="evenodd" d="M264.8,326.9H503.9v-15H264.8v15Z" class="g0_221"/>
<path fill-rule="evenodd" d="M264.8,341.9H503.9v-15H264.8v15Z" class="g0_221"/>
<path fill-rule="evenodd" d="M264.8,357.2H503.9V342H264.8v15.2Z" class="g0_221"/>
<path fill-rule="evenodd" d="M264.8,372.2H503.2v-15H264.8v15Z" class="g0_221"/>
<path fill-rule="evenodd" d="M264.8,387.3H503.2V372.2H264.8v15.1Z" class="g0_221"/>
<path fill-rule="evenodd" d="M264.4,402.3H502.8v-15H264.4v15Z" class="g0_221"/>
<path fill-rule="evenodd" d="M264.4,417.3H502.8v-15H264.4v15Z" class="g0_221"/>
<path fill-rule="evenodd" d="M264.4,432.4H502.8V417.3H264.4v15.1Z" class="g0_221"/>
<path fill-rule="evenodd" d="M264.4,447.4H502.8v-15H264.4v15Z" class="g0_221"/>
<path fill-rule="evenodd" d="M264.8,462.4H503.2v-15H264.8v15Z" class="g0_221"/>
<path fill-rule="evenodd" d="M264.8,477.5H503.2V462.4H264.8v15.1Z" class="g0_221"/>
<path fill-rule="evenodd" d="M264.4,492.5H503.2v-15H264.4v15Z" class="g0_221"/>
<path fill-rule="evenodd" d="M264.4,507.5H503.2v-15H264.4v15Z" class="g0_221"/>
<path fill-rule="evenodd" d="M264.4,522.6H503.2V507.5H264.4v15.1Z" class="g0_221"/>
<path fill-rule="evenodd" d="M264,537.8H502.8V522.6H264v15.2Z" class="g0_221"/>
<path fill-rule="evenodd" d="M264,552.8H502.8v-15H264v15Z" class="g0_221"/>
<path fill-rule="evenodd" d="M264,567.9H502.8V552.8H264v15.1Z" class="g0_221"/>
<path fill-rule="evenodd" d="M264,582.9H502.8v-15H264v15Z" class="g0_221"/>
<path fill-rule="evenodd" d="M264,598H502.8V582.9H264V598Z" class="g0_221"/>
<path fill-rule="evenodd" d="M264,613H502.8V598H264v15Z" class="g0_221"/>
<path fill-rule="evenodd" d="M264,628H502.8V613H264v15Z" class="g0_221"/>
<path fill-rule="evenodd" d="M263.7,643.1H502.4V628H263.7v15.1Z" class="g0_221"/>
<path fill-rule="evenodd" d="M263.7,658.1H502.4v-15H263.7v15Z" class="g0_221"/>
<path fill-rule="evenodd" d="M263.7,673.1H502.4v-15H263.7v15Z" class="g0_221"/>
<path fill-rule="evenodd" d="M263.3,688.2H502.4V673.1H263.3v15.1Z" class="g0_221"/>
<path fill-rule="evenodd" d="M263.3,703.2H502.4v-15H263.3v15Z" class="g0_221"/>
<path fill-rule="evenodd" d="M263.3,718.4H502.4V703.2H263.3v15.2Z" class="g0_221"/>
<path fill-rule="evenodd" d="M263.3,733.4H502.4v-15H263.3v15Z" class="g0_221"/>
<path fill-rule="evenodd" d="M263.3,748.5H502.4V733.4H263.3v15.1Z" class="g0_221"/>
<path fill-rule="evenodd" d="M263.3,763.5H502.4v-15H263.3v15Z" class="g0_221"/>
<path fill-rule="evenodd" d="M263.3,778.5H502.4v-15H263.3v15Z" class="g0_221"/>
<path fill-rule="evenodd" d="M263.3,793.6H502.4V778.5H263.3v15.1Z" class="g0_221"/>
<path fill-rule="evenodd" d="M263.3,808.6H502.4v-15H263.3v15Z" class="g0_221"/>
<path fill-rule="evenodd" d="M262.9,824H502.1V809H262.9v15Z" class="g0_221"/>
<path fill-rule="evenodd" d="M262.9,839.1H502.1V824H262.9v15.1Z" class="g0_221"/>
<path fill-rule="evenodd" d="M262.9,854.1H502.1v-15H262.9v15Z" class="g0_221"/>
<path fill-rule="evenodd" d="M262.9,869.2H502.1V854.1H262.9v15.1Z" class="g0_221"/>
<path fill-rule="evenodd" d="M262.2,884.4H501.7V869.2H262.2v15.2Z" class="g0_221"/>
<path fill-rule="evenodd" d="M262.2,899.4H501.7v-15H262.2v15Z" class="g0_221"/>
<path fill-rule="evenodd" d="M265.1,914.1H504.3V899.4H265.1v14.7Z" class="g0_221"/>
<path fill-rule="evenodd" d="M524.6,161.4h238V146.7h-238v14.7Z" class="g0_221"/>
<path fill-rule="evenodd" d="M524.6,176h238V161.4h-238V176Z" class="g0_221"/>
<path fill-rule="evenodd" d="M523.9,190.7H762.6V176H523.9v14.7Z" class="g0_221"/>
<path fill-rule="evenodd" d="M523.9,205.4H762.6V190.7H523.9v14.7Z" class="g0_221"/>
<path fill-rule="evenodd" d="M523.9,220H762.6V205.4H523.9V220Z" class="g0_221"/>
<path fill-rule="evenodd" d="M523.9,234.7H762.6V220H523.9v14.7Z" class="g0_221"/>
<path fill-rule="evenodd" d="M523.9,249.4H762.6V234.7H523.9v14.7Z" class="g0_221"/>
<path fill-rule="evenodd" d="M523.9,264H762.6V249.4H523.9V264Z" class="g0_221"/>
<path fill-rule="evenodd" d="M523.5,279.1H762.3V264.4H523.5v14.7Z" class="g0_221"/>
<path fill-rule="evenodd" d="M523.5,293.9H762.3V279.1H523.5v14.8Z" class="g0_221"/>
<path fill-rule="evenodd" d="M523.5,308.6H762.3V293.9H523.5v14.7Z" class="g0_221"/>
<path fill-rule="evenodd" d="M523.5,323.2H762.3V308.6H523.5v14.6Z" class="g0_221"/>
<path fill-rule="evenodd" d="M523.5,337.9H762.3V323.2H523.5v14.7Z" class="g0_221"/>
<path fill-rule="evenodd" d="M523.5,352.6H762.3V337.9H523.5v14.7Z" class="g0_221"/>
<path fill-rule="evenodd" d="M523.5,367.3H762.3V352.6H523.5v14.7Z" class="g0_221"/>
<path fill-rule="evenodd" d="M523.5,382H762.3V367.3H523.5V382Z" class="g0_221"/>
<path fill-rule="evenodd" d="M523.5,397h238V382.3h-238V397Z" class="g0_221"/>
<path fill-rule="evenodd" d="M523.5,411.7h238V397h-238v14.7Z" class="g0_221"/>
<path fill-rule="evenodd" d="M523.5,426.7h238v-15h-238v15Z" class="g0_221"/>
<path fill-rule="evenodd" d="M523.5,441.4h238V426.7h-238v14.7Z" class="g0_221"/>
<path fill-rule="evenodd" d="M523.2,456.4H761.5V441.7H523.2v14.7Z" class="g0_221"/>
<path fill-rule="evenodd" d="M523.2,471.1H761.5V456.4H523.2v14.7Z" class="g0_221"/>
<path fill-rule="evenodd" d="M522.8,486.1H761.5V471.4H522.8v14.7Z" class="g0_221"/>
<path fill-rule="evenodd" d="M522.8,500.8H761.5V486.1H522.8v14.7Z" class="g0_221"/>
<path fill-rule="evenodd" d="M522.8,515.8H761.5v-15H522.8v15Z" class="g0_221"/>
<path fill-rule="evenodd" d="M522.8,530.5H761.5V515.8H522.8v14.7Z" class="g0_221"/>
<path fill-rule="evenodd" d="M522.8,545.5H761.5v-15H522.8v15Z" class="g0_221"/>
<path fill-rule="evenodd" d="M522.8,560.2H761.5V545.5H522.8v14.7Z" class="g0_221"/>
<path fill-rule="evenodd" d="M522.4,575.2H761.5V560.5H522.4v14.7Z" class="g0_221"/>
<path fill-rule="evenodd" d="M522.4,589.9H761.5V575.2H522.4v14.7Z" class="g0_221"/>
<path fill-rule="evenodd" d="M522.4,604.6H761.5V589.9H522.4v14.7Z" class="g0_221"/>
<path fill-rule="evenodd" d="M522.4,619.2H761.5V604.6H522.4v14.6Z" class="g0_221"/>
<path fill-rule="evenodd" d="M522.4,633.9H761.5V619.2H522.4v14.7Z" class="g0_221"/>
<path fill-rule="evenodd" d="M522.4,648.6H761.5V633.9H522.4v14.7Z" class="g0_221"/>
<path fill-rule="evenodd" d="M522.4,663.2H761.5V648.6H522.4v14.6Z" class="g0_221"/>
<path fill-rule="evenodd" d="M522.4,678.6H760.8V664H522.4v14.6Z" class="g0_221"/>
<path fill-rule="evenodd" d="M522.4,693.3H760.8V678.6H522.4v14.7Z" class="g0_221"/>
<path fill-rule="evenodd" d="M540.4,708.3H762.6V693.7H540.4v14.6Z" class="g0_221"/>
<path fill-rule="evenodd" d="M522.8,723.4H760.4V708.7H522.8v14.7Z" class="g0_221"/>
<path fill-rule="evenodd" d="M522.8,738H760.4V723.4H522.8V738Z" class="g0_221"/>
<path fill-rule="evenodd" d="M522.1,752.7H760.8V738H522.1v14.7Z" class="g0_221"/>
<path fill-rule="evenodd" d="M522.1,767.4H760.8V752.7H522.1v14.7Z" class="g0_221"/>
<path fill-rule="evenodd" d="M522.1,782H760.8V767.4H522.1V782Z" class="g0_221"/>
<path fill-rule="evenodd" d="M522.4,797.6H760.8V782.8H522.4v14.8Z" class="g0_221"/>
<path fill-rule="evenodd" d="M522.4,812.3H760.8V797.6H522.4v14.7Z" class="g0_221"/>
<path fill-rule="evenodd" d="M521.7,827.7H761.2V813H521.7v14.7Z" class="g0_221"/>
<path fill-rule="evenodd" d="M521.7,842.4H761.2V827.7H521.7v14.7Z" class="g0_221"/>
<path fill-rule="evenodd" d="M521.7,857.1H761.2V842.4H521.7v14.7Z" class="g0_221"/>
<path fill-rule="evenodd" d="M522.1,871.7H760.8V857.1H522.1v14.6Z" class="g0_221"/>
<path fill-rule="evenodd" d="M522.1,886.4H760.8V871.7H522.1v14.7Z" class="g0_221"/>
<path fill-rule="evenodd" d="M498.8,932h264V914.4h-264V932Z" class="g0_221"/>
<path d="M199.8,485.9V942.4" class="g1_221"/>
<path d="M205.6,730.8V941.6" class="g2_221"/>
<path d="M511.8,147.8V916.4" class="g1_221"/>
</svg>