<?xml version="1.0" encoding="UTF-8" standalone="no"?>
<!DOCTYPE svg PUBLIC "-//W3C//DTD SVG 1.1//EN"
"http://www.w3.org/Graphics/SVG/1.1/DTD/svg11.dtd">
<svg viewBox="0 0 909 1285" version="1.1" xmlns="http://www.w3.org/2000/svg" xmlns:xlink="http://www.w3.org/1999/xlink">
<defs>
<style type="text/css"><![CDATA[
.g0_304{
fill: #FFFFFF;
}
.g1_304{
fill: none;
stroke: #000000;
stroke-width: 0.381;
stroke-linecap: butt;
stroke-linejoin: round;
}
]]></style>
</defs>
<path fill-rule="evenodd" d="M609.5,125.8h91.3V110H609.5v15.8Z" class="g0_304"/>
<path fill-rule="evenodd" d="M202.4,161.4H441.5V146.7H202.4v14.7Z" class="g0_304"/>
<path fill-rule="evenodd" d="M202.4,176H441.5V161.4H202.4V176Z" class="g0_304"/>
<path fill-rule="evenodd" d="M202.4,190.7H441.5V176H202.4v14.7Z" class="g0_304"/>
<path fill-rule="evenodd" d="M202.4,205.4H441.5V190.7H202.4v14.7Z" class="g0_304"/>
<path fill-rule="evenodd" d="M202.4,220H441.5V205.4H202.4V220Z" class="g0_304"/>
<path fill-rule="evenodd" d="M202.8,234.7H441.5V220H202.8v14.7Z" class="g0_304"/>
<path fill-rule="evenodd" d="M202.8,249.4H441.5V234.7H202.8v14.7Z" class="g0_304"/>
<path fill-rule="evenodd" d="M202.1,264H441.5V249.4H202.1V264Z" class="g0_304"/>
<path fill-rule="evenodd" d="M202.1,278.7H441.5V264H202.1v14.7Z" class="g0_304"/>
<path fill-rule="evenodd" d="M202.1,293.4H441.5V278.7H202.1v14.7Z" class="g0_304"/>
<path fill-rule="evenodd" d="M202.1,308H441.5V293.4H202.1V308Z" class="g0_304"/>
<path fill-rule="evenodd" d="M202.1,322.7H441.5V308H202.1v14.7Z" class="g0_304"/>
<path fill-rule="evenodd" d="M220.4,337.9H441.5V323.1H220.4v14.8Z" class="g0_304"/>
<path fill-rule="evenodd" d="M202.1,352.6H441.5V337.9H202.1v14.7Z" class="g0_304"/>
<path fill-rule="evenodd" d="M202.1,367.3H441.5V352.6H202.1v14.7Z" class="g0_304"/>
<path fill-rule="evenodd" d="M202.1,382H441.5V367.3H202.1V382Z" class="g0_304"/>
<path fill-rule="evenodd" d="M202.1,396.6H441.5V382H202.1v14.6Z" class="g0_304"/>
<path fill-rule="evenodd" d="M202.1,411.3H441.5V396.6H202.1v14.7Z" class="g0_304"/>
<path fill-rule="evenodd" d="M202.1,426H441.5V411.3H202.1V426Z" class="g0_304"/>
<path fill-rule="evenodd" d="M201.3,441H440.4V426.3H201.3V441Z" class="g0_304"/>
<path fill-rule="evenodd" d="M201.3,455.7H440.4V441H201.3v14.7Z" class="g0_304"/>
<path fill-rule="evenodd" d="M201.3,470.3H440.4V455.7H201.3v14.6Z" class="g0_304"/>
<path fill-rule="evenodd" d="M201.3,485H440.4V470.3H201.3V485Z" class="g0_304"/>
<path fill-rule="evenodd" d="M201.3,499.7H440.4V485H201.3v14.7Z" class="g0_304"/>
<path fill-rule="evenodd" d="M201.3,514.3H440.4V499.7H201.3v14.6Z" class="g0_304"/>
<path fill-rule="evenodd" d="M201.3,529H440.4V514.3H201.3V529Z" class="g0_304"/>
<path fill-rule="evenodd" d="M200.6,543.7H439.7V529H200.6v14.7Z" class="g0_304"/>
<path fill-rule="evenodd" d="M200.6,558.3H439.7V543.7H200.6v14.6Z" class="g0_304"/>
<path fill-rule="evenodd" d="M200.6,573H439.7V558.3H200.6V573Z" class="g0_304"/>
<path fill-rule="evenodd" d="M200.6,587.7H439.7V573H200.6v14.7Z" class="g0_304"/>
<path fill-rule="evenodd" d="M200.6,602.4H439.7V587.7H200.6v14.7Z" class="g0_304"/>
<path fill-rule="evenodd" d="M200.6,617H439.7V602.4H200.6V617Z" class="g0_304"/>
<path fill-rule="evenodd" d="M200.6,631.7H439.7V617H200.6v14.7Z" class="g0_304"/>
<path fill-rule="evenodd" d="M200.6,646.4H439.7V631.7H200.6v14.7Z" class="g0_304"/>
<path fill-rule="evenodd" d="M200.6,661H439.7V646.4H200.6V661Z" class="g0_304"/>
<path fill-rule="evenodd" d="M200.2,676.1H441.5V661.4H200.2v14.7Z" class="g0_304"/>
<path fill-rule="evenodd" d="M200.2,690.7H441.5V676.1H200.2v14.6Z" class="g0_304"/>
<path fill-rule="evenodd" d="M200.2,705.4H441.5V690.7H200.2v14.7Z" class="g0_304"/>
<path fill-rule="evenodd" d="M200.2,720.1H441.5V705.4H200.2v14.7Z" class="g0_304"/>
<path fill-rule="evenodd" d="M200.2,734.7H441.5V720.1H200.2v14.6Z" class="g0_304"/>
<path fill-rule="evenodd" d="M199.5,749.4H439.3V734.7H199.5v14.7Z" class="g0_304"/>
<path fill-rule="evenodd" d="M199.5,764.1H439.3V749.4H199.5v14.7Z" class="g0_304"/>
<path fill-rule="evenodd" d="M199.5,778.7H439.3V764.1H199.5v14.6Z" class="g0_304"/>
<path fill-rule="evenodd" d="M199.5,793.4H439.3V778.7H199.5v14.7Z" class="g0_304"/>
<path fill-rule="evenodd" d="M199.5,808.1H439.3V793.4H199.5v14.7Z" class="g0_304"/>
<path fill-rule="evenodd" d="M199.5,822.7H439.3V808.1H199.5v14.6Z" class="g0_304"/>
<path fill-rule="evenodd" d="M199.5,837.4H439.3V822.7H199.5v14.7Z" class="g0_304"/>
<path fill-rule="evenodd" d="M199.5,852.1H439.3V837.4H199.5v14.7Z" class="g0_304"/>
<path fill-rule="evenodd" d="M199.5,866.8H439.3V852.1H199.5v14.7Z" class="g0_304"/>
<path fill-rule="evenodd" d="M199.5,881.4H439.3V866.8H199.5v14.6Z" class="g0_304"/>
<path fill-rule="evenodd" d="M201.7,896.1H441.5V881.4H201.7v14.7Z" class="g0_304"/>
<path fill-rule="evenodd" d="M461.4,161.7H700.8V147.1H461.4v14.6Z" class="g0_304"/>
<path fill-rule="evenodd" d="M461.4,176.4H700.8V161.7H461.4v14.7Z" class="g0_304"/>
<path fill-rule="evenodd" d="M461.4,191.1H700.8V176.4H461.4v14.7Z" class="g0_304"/>
<path fill-rule="evenodd" d="M461.4,205.7H700.8V191.1H461.4v14.6Z" class="g0_304"/>
<path fill-rule="evenodd" d="M461.4,220.4H700.8V205.7H461.4v14.7Z" class="g0_304"/>
<path fill-rule="evenodd" d="M461.4,235.1H700.8V220.4H461.4v14.7Z" class="g0_304"/>
<path fill-rule="evenodd" d="M461.4,249.7H700.8V235.1H461.4v14.6Z" class="g0_304"/>
<path fill-rule="evenodd" d="M461.4,264.4H700.8V249.7H461.4v14.7Z" class="g0_304"/>
<path fill-rule="evenodd" d="M461.4,279.1H700.8V264.4H461.4v14.7Z" class="g0_304"/>
<path fill-rule="evenodd" d="M461.4,293.9H700.8V279.1H461.4v14.8Z" class="g0_304"/>
<path fill-rule="evenodd" d="M461.4,308.6H700.1V293.9H461.4v14.7Z" class="g0_304"/>
<path fill-rule="evenodd" d="M461.4,323.2H700.1V308.6H461.4v14.6Z" class="g0_304"/>
<path fill-rule="evenodd" d="M461.4,337.9H700.1V323.2H461.4v14.7Z" class="g0_304"/>
<path fill-rule="evenodd" d="M461.4,352.6H700.1V337.9H461.4v14.7Z" class="g0_304"/>
<path fill-rule="evenodd" d="M461.4,367.3H700.1V352.6H461.4v14.7Z" class="g0_304"/>
<path fill-rule="evenodd" d="M461.4,382.3H645.1V367.7H461.4v14.6Z" class="g0_304"/>
<path fill-rule="evenodd" d="M461.4,397H645.1V382.3H461.4V397Z" class="g0_304"/>
<path fill-rule="evenodd" d="M460.3,411.7H700.8V397H460.3v14.7Z" class="g0_304"/>
<path fill-rule="evenodd" d="M460.3,426.3H700.8V411.7H460.3v14.6Z" class="g0_304"/>
<path fill-rule="evenodd" d="M460.3,441H700.8V426.3H460.3V441Z" class="g0_304"/>
<path fill-rule="evenodd" d="M460.3,455.7H700.8V441H460.3v14.7Z" class="g0_304"/>
<path fill-rule="evenodd" d="M460.3,470.3H700.8V455.7H460.3v14.6Z" class="g0_304"/>
<path fill-rule="evenodd" d="M460.3,485H699.4V470.3H460.3V485Z" class="g0_304"/>
<path fill-rule="evenodd" d="M460.3,499.7H699.4V485H460.3v14.7Z" class="g0_304"/>
<path fill-rule="evenodd" d="M460.3,514.3H699.4V499.7H460.3v14.6Z" class="g0_304"/>
<path fill-rule="evenodd" d="M460.3,529H699.4V514.3H460.3V529Z" class="g0_304"/>
<path fill-rule="evenodd" d="M460.3,543.7H699.4V529H460.3v14.7Z" class="g0_304"/>
<path fill-rule="evenodd" d="M460.3,558.3H699.4V543.7H460.3v14.6Z" class="g0_304"/>
<path fill-rule="evenodd" d="M460.6,573H645.1V558.3H460.6V573Z" class="g0_304"/>
<path fill-rule="evenodd" d="M460.6,587.7H645.1V573H460.6v14.7Z" class="g0_304"/>
<path fill-rule="evenodd" d="M459.5,602.7H700.8V588H459.5v14.7Z" class="g0_304"/>
<path fill-rule="evenodd" d="M459.5,617.4H700.8V602.7H459.5v14.7Z" class="g0_304"/>
<path fill-rule="evenodd" d="M459.5,632.1H700.8V617.4H459.5v14.7Z" class="g0_304"/>
<path fill-rule="evenodd" d="M459.5,646.7H700.8V632.1H459.5v14.6Z" class="g0_304"/>
<path fill-rule="evenodd" d="M459.5,661.4H700.8V646.7H459.5v14.7Z" class="g0_304"/>
<path fill-rule="evenodd" d="M459.5,676.1H700.8V661.4H459.5v14.7Z" class="g0_304"/>
<path fill-rule="evenodd" d="M459.2,690.7H698.3V676.1H459.2v14.6Z" class="g0_304"/>
<path fill-rule="evenodd" d="M459.2,705.4H698.3V690.7H459.2v14.7Z" class="g0_304"/>
<path fill-rule="evenodd" d="M459.2,720.1H698.3V705.4H459.2v14.7Z" class="g0_304"/>
<path fill-rule="evenodd" d="M459.2,734.7H698.3V720.1H459.2v14.6Z" class="g0_304"/>
<path fill-rule="evenodd" d="M459.2,749.4H698.3V734.7H459.2v14.7Z" class="g0_304"/>
<path fill-rule="evenodd" d="M459.2,764.1H698.3V749.4H459.2v14.7Z" class="g0_304"/>
<path fill-rule="evenodd" d="M459.2,778.7H698.3V764.1H459.2v14.6Z" class="g0_304"/>
<path fill-rule="evenodd" d="M459.2,793.4H698.6V778.7H459.2v14.7Z" class="g0_304"/>
<path fill-rule="evenodd" d="M459.2,808.1H698.6V793.4H459.2v14.7Z" class="g0_304"/>
<path fill-rule="evenodd" d="M459.2,822.7H698.6V808.1H459.2v14.6Z" class="g0_304"/>
<path fill-rule="evenodd" d="M459.2,837.4H698.6V822.7H459.2v14.7Z" class="g0_304"/>
<path fill-rule="evenodd" d="M459.2,852.1H698.6V837.4H459.2v14.7Z" class="g0_304"/>
<path fill-rule="evenodd" d="M459.2,866.8H698.6V852.1H459.2v14.7Z" class="g0_304"/>
<path d="M448.4,146V916" class="g1_304"/>
</svg>