<?xml version="1.0" encoding="UTF-8" standalone="no"?>
<!DOCTYPE svg PUBLIC "-//W3C//DTD SVG 1.1//EN"
"http://www.w3.org/Graphics/SVG/1.1/DTD/svg11.dtd">
<svg viewBox="0 0 909 1285" version="1.1" xmlns="http://www.w3.org/2000/svg" xmlns:xlink="http://www.w3.org/1999/xlink">
<defs>
<style type="text/css"><![CDATA[
.g0_117{
fill: #FFFFFF;
}
.g1_117{
fill: none;
stroke: #000000;
stroke-width: 0.381;
stroke-linecap: butt;
stroke-linejoin: round;
}
.g2_117{
fill: none;
stroke: #000000;
stroke-width: 6.569;
stroke-linecap: butt;
stroke-linejoin: round;
}
]]></style>
</defs>
<path fill-rule="evenodd" d="M256.9,131.1H757.5V110H256.9v21.1Z" class="g0_117"/>
<path fill-rule="evenodd" d="M256.5,167h241V152h-241v15Z" class="g0_117"/>
<path fill-rule="evenodd" d="M256.5,182.3h241V167h-241v15.3Z" class="g0_117"/>
<path fill-rule="evenodd" d="M256.5,197.3h241v-15h-241v15Z" class="g0_117"/>
<path fill-rule="evenodd" d="M256.5,212.3h241v-15h-241v15Z" class="g0_117"/>
<path fill-rule="evenodd" d="M256.5,227.4h241V212.3h-241v15.1Z" class="g0_117"/>
<path fill-rule="evenodd" d="M256.5,242.4h241v-15h-241v15Z" class="g0_117"/>
<path fill-rule="evenodd" d="M256.5,257.4h241v-15h-241v15Z" class="g0_117"/>
<path fill-rule="evenodd" d="M256.5,272.5h241V257.4h-241v15.1Z" class="g0_117"/>
<path fill-rule="evenodd" d="M256.5,287.9H469.6V272.8H256.5v15.1Z" class="g0_117"/>
<path fill-rule="evenodd" d="M256.5,302.9H469.6v-15H256.5v15Z" class="g0_117"/>
<path fill-rule="evenodd" d="M256.1,317.9H497.5v-15H256.1v15Z" class="g0_117"/>
<path fill-rule="evenodd" d="M256.1,333.1H497.5V317.9H256.1v15.2Z" class="g0_117"/>
<path fill-rule="evenodd" d="M256.1,348.2H497.5V333.1H256.1v15.1Z" class="g0_117"/>
<path fill-rule="evenodd" d="M256.1,363.3H497.5V348.2H256.1v15.1Z" class="g0_117"/>
<path fill-rule="evenodd" d="M256.1,378.3H497.5v-15H256.1v15Z" class="g0_117"/>
<path fill-rule="evenodd" d="M255.8,393.3H497.5v-15H255.8v15Z" class="g0_117"/>
<path fill-rule="evenodd" d="M255.8,408.4H497.5V393.3H255.8v15.1Z" class="g0_117"/>
<path fill-rule="evenodd" d="M255.8,423.4H497.5v-15H255.8v15Z" class="g0_117"/>
<path fill-rule="evenodd" d="M255.8,438.4H497.5v-15H255.8v15Z" class="g0_117"/>
<path fill-rule="evenodd" d="M255.8,453.5H497.5V438.4H255.8v15.1Z" class="g0_117"/>
<path fill-rule="evenodd" d="M255.8,468.5H496.4v-15H255.8v15Z" class="g0_117"/>
<path fill-rule="evenodd" d="M255.8,483.5H496.4v-15H255.8v15Z" class="g0_117"/>
<path fill-rule="evenodd" d="M255.8,498.6H496.4V483.5H255.8v15.1Z" class="g0_117"/>
<path fill-rule="evenodd" d="M255.8,513.8H496.4V498.6H255.8v15.2Z" class="g0_117"/>
<path fill-rule="evenodd" d="M255.8,528.8H496.4v-15H255.8v15Z" class="g0_117"/>
<path fill-rule="evenodd" d="M255.4,543.8H495.7v-15H255.4v15Z" class="g0_117"/>
<path fill-rule="evenodd" d="M255.4,558.9H495.7V543.8H255.4v15.1Z" class="g0_117"/>
<path fill-rule="evenodd" d="M255.4,573.9H495.7v-15H255.4v15Z" class="g0_117"/>
<path fill-rule="evenodd" d="M274.2,588.9H497.5v-15H274.2v15Z" class="g0_117"/>
<path fill-rule="evenodd" d="M274.2,604H497.5V588.9H274.2V604Z" class="g0_117"/>
<path fill-rule="evenodd" d="M274.2,619H497.5V604H274.2v15Z" class="g0_117"/>
<path fill-rule="evenodd" d="M255,634.1H495.3V619H255v15.1Z" class="g0_117"/>
<path fill-rule="evenodd" d="M255,649.1H495.3v-15H255v15Z" class="g0_117"/>
<path fill-rule="evenodd" d="M255,664.1H495.3v-15H255v15Z" class="g0_117"/>
<path fill-rule="evenodd" d="M255,679.2H495.3V664.1H255v15.1Z" class="g0_117"/>
<path fill-rule="evenodd" d="M255.4,694.4H496V679.2H255.4v15.2Z" class="g0_117"/>
<path fill-rule="evenodd" d="M255.4,709.4H496v-15H255.4v15Z" class="g0_117"/>
<path fill-rule="evenodd" d="M255.4,724.5H496V709.4H255.4v15.1Z" class="g0_117"/>
<path fill-rule="evenodd" d="M254.7,739.5h241v-15h-241v15Z" class="g0_117"/>
<path fill-rule="evenodd" d="M254.7,754.5h241v-15h-241v15Z" class="g0_117"/>
<path fill-rule="evenodd" d="M254.7,769.6h241V754.5h-241v15.1Z" class="g0_117"/>
<path fill-rule="evenodd" d="M254.7,784.6h241v-15h-241v15Z" class="g0_117"/>
<path fill-rule="evenodd" d="M254.7,799.6h241v-15h-241v15Z" class="g0_117"/>
<path fill-rule="evenodd" d="M254.7,814.7h241V799.6h-241v15.1Z" class="g0_117"/>
<path fill-rule="evenodd" d="M254.7,829.7h241v-15h-241v15Z" class="g0_117"/>
<path fill-rule="evenodd" d="M255,844.8H495.3V829.7H255v15.1Z" class="g0_117"/>
<path fill-rule="evenodd" d="M255,859.8H495.3v-15H255v15Z" class="g0_117"/>
<path fill-rule="evenodd" d="M254.7,875H495.3V859.8H254.7V875Z" class="g0_117"/>
<path fill-rule="evenodd" d="M254.7,890.1H495.3V875H254.7v15.1Z" class="g0_117"/>
<path fill-rule="evenodd" d="M254.7,905.1H495.3v-15H254.7v15Z" class="g0_117"/>
<path fill-rule="evenodd" d="M256.5,919.8H496V905.1H256.5v14.7Z" class="g0_117"/>
<path fill-rule="evenodd" d="M517.7,167H756V152.4H517.7V167Z" class="g0_117"/>
<path fill-rule="evenodd" d="M517.7,181.7H756V167H517.7v14.7Z" class="g0_117"/>
<path fill-rule="evenodd" d="M517.3,196.9H757.5V182.1H517.3v14.8Z" class="g0_117"/>
<path fill-rule="evenodd" d="M517.3,211.6H757.5V196.9H517.3v14.7Z" class="g0_117"/>
<path fill-rule="evenodd" d="M517.3,226.3H757.5V211.6H517.3v14.7Z" class="g0_117"/>
<path fill-rule="evenodd" d="M517.3,240.9H757.5V226.3H517.3v14.6Z" class="g0_117"/>
<path fill-rule="evenodd" d="M517.3,255.6H757.5V240.9H517.3v14.7Z" class="g0_117"/>
<path fill-rule="evenodd" d="M517.3,270.3H757.5V255.6H517.3v14.7Z" class="g0_117"/>
<path fill-rule="evenodd" d="M517.3,284.9H757.5V270.3H517.3v14.6Z" class="g0_117"/>
<path fill-rule="evenodd" d="M517.3,299.6H757.5V284.9H517.3v14.7Z" class="g0_117"/>
<path fill-rule="evenodd" d="M516.6,314.3H757.5V299.6H516.6v14.7Z" class="g0_117"/>
<path fill-rule="evenodd" d="M516.6,328.9H757.5V314.3H516.6v14.6Z" class="g0_117"/>
<path fill-rule="evenodd" d="M516.6,343.6H757.5V328.9H516.6v14.7Z" class="g0_117"/>
<path fill-rule="evenodd" d="M516.6,358.3H757.5V343.6H516.6v14.7Z" class="g0_117"/>
<path fill-rule="evenodd" d="M516.6,373H757.5V358.3H516.6V373Z" class="g0_117"/>
<path fill-rule="evenodd" d="M516.6,387.6H757.5V373H516.6v14.6Z" class="g0_117"/>
<path fill-rule="evenodd" d="M516.2,402.3H757.5V387.6H516.2v14.7Z" class="g0_117"/>
<path fill-rule="evenodd" d="M516.2,417H757.5V402.3H516.2V417Z" class="g0_117"/>
<path fill-rule="evenodd" d="M516.2,431.6H757.5V417H516.2v14.6Z" class="g0_117"/>
<path fill-rule="evenodd" d="M516.2,446.3H757.5V431.6H516.2v14.7Z" class="g0_117"/>
<path fill-rule="evenodd" d="M516.2,461H757.5V446.3H516.2V461Z" class="g0_117"/>
<path fill-rule="evenodd" d="M516.2,475.6H757.5V461H516.2v14.6Z" class="g0_117"/>
<path fill-rule="evenodd" d="M515.8,490.3H755.7V475.6H515.8v14.7Z" class="g0_117"/>
<path fill-rule="evenodd" d="M515.8,505H755.7V490.3H515.8V505Z" class="g0_117"/>
<path fill-rule="evenodd" d="M515.8,519.6H755.7V505H515.8v14.6Z" class="g0_117"/>
<path fill-rule="evenodd" d="M515.8,534.3H755.7V519.6H515.8v14.7Z" class="g0_117"/>
<path fill-rule="evenodd" d="M515.8,549H755.7V534.3H515.8V549Z" class="g0_117"/>
<path fill-rule="evenodd" d="M515.8,563.6H755.7V549H515.8v14.6Z" class="g0_117"/>
<path fill-rule="evenodd" d="M515.8,578.3H755.7V563.6H515.8v14.7Z" class="g0_117"/>
<path fill-rule="evenodd" d="M515.8,593.4H756V578.7H515.8v14.7Z" class="g0_117"/>
<path fill-rule="evenodd" d="M515.8,608H756V593.4H515.8V608Z" class="g0_117"/>
<path fill-rule="evenodd" d="M515.8,622.7H756V608H515.8v14.7Z" class="g0_117"/>
<path fill-rule="evenodd" d="M515.8,637.4H756V622.7H515.8v14.7Z" class="g0_117"/>
<path fill-rule="evenodd" d="M515.8,652H756V637.4H515.8V652Z" class="g0_117"/>
<path fill-rule="evenodd" d="M515.8,666.7H756V652H515.8v14.7Z" class="g0_117"/>
<path fill-rule="evenodd" d="M515.8,681.4H756V666.7H515.8v14.7Z" class="g0_117"/>
<path fill-rule="evenodd" d="M515.8,696H756V681.4H515.8V696Z" class="g0_117"/>
<path fill-rule="evenodd" d="M515.8,710.7H756V696H515.8v14.7Z" class="g0_117"/>
<path fill-rule="evenodd" d="M515.8,725.4H756V710.7H515.8v14.7Z" class="g0_117"/>
<path fill-rule="evenodd" d="M515.8,740H756V725.4H515.8V740Z" class="g0_117"/>
<path fill-rule="evenodd" d="M515.8,754.7H756V740H515.8v14.7Z" class="g0_117"/>
<path fill-rule="evenodd" d="M515.8,769.4H756V754.7H515.8v14.7Z" class="g0_117"/>
<path fill-rule="evenodd" d="M515.8,784H756V769.4H515.8V784Z" class="g0_117"/>
<path fill-rule="evenodd" d="M515.8,799.1H755.3V784.4H515.8v14.7Z" class="g0_117"/>
<path fill-rule="evenodd" d="M515.8,813.7H755.3V799.1H515.8v14.6Z" class="g0_117"/>
<path fill-rule="evenodd" d="M515.8,828.4H755.3V813.7H515.8v14.7Z" class="g0_117"/>
<path fill-rule="evenodd" d="M515.8,843.1H755.3V828.4H515.8v14.7Z" class="g0_117"/>
<path fill-rule="evenodd" d="M534.5,857.8h223V843.1h-223v14.7Z" class="g0_117"/>
<path fill-rule="evenodd" d="M515.8,872.5H755.3V857.8H515.8v14.7Z" class="g0_117"/>
<path fill-rule="evenodd" d="M515.8,887.1H755.3V872.5H515.8v14.6Z" class="g0_117"/>
<path fill-rule="evenodd" d="M515.8,901.8H755.3V887.1H515.8v14.7Z" class="g0_117"/>
<path fill-rule="evenodd" d="M493.5,937.9h264V918.7h-264v19.2Z" class="g0_117"/>
<path d="M188.3,884.7v121.7m4.4,-794.2V550.6M505.5,153.2V922.1" class="g1_117"/>
<path d="M779.8,407.3v132" class="g2_117"/>
</svg>