<?xml version="1.0" encoding="UTF-8" standalone="no"?>
<!DOCTYPE svg PUBLIC "-//W3C//DTD SVG 1.1//EN"
"http://www.w3.org/Graphics/SVG/1.1/DTD/svg11.dtd">
<svg viewBox="0 0 909 1285" version="1.1" xmlns="http://www.w3.org/2000/svg" xmlns:xlink="http://www.w3.org/1999/xlink">
<defs>
<style type="text/css"><![CDATA[
.g0_54{
fill: #FFFFFF;
}
.g1_54{
fill: none;
stroke: #000000;
stroke-width: 0.381;
stroke-linecap: butt;
stroke-linejoin: round;
}
]]></style>
</defs>
<path fill-rule="evenodd" d="M627.3,125.8h66.4V110H627.3v15.8Z" class="g0_54"/>
<path fill-rule="evenodd" d="M192.7,161.7H432.5V147.1H192.7v14.6Z" class="g0_54"/>
<path fill-rule="evenodd" d="M192.7,176.4H432.5V161.7H192.7v14.7Z" class="g0_54"/>
<path fill-rule="evenodd" d="M210.7,191.1H432.5V176.4H210.7v14.7Z" class="g0_54"/>
<path fill-rule="evenodd" d="M210.3,206.1H432.5V191.4H210.3v14.7Z" class="g0_54"/>
<path fill-rule="evenodd" d="M210.7,220.8H432.5V206.1H210.7v14.7Z" class="g0_54"/>
<path fill-rule="evenodd" d="M210.7,235.4H432.5V220.8H210.7v14.6Z" class="g0_54"/>
<path fill-rule="evenodd" d="M192,250.5H431.8V235.8H192v14.7Z" class="g0_54"/>
<path fill-rule="evenodd" d="M192,265.1H431.8V250.5H192v14.6Z" class="g0_54"/>
<path fill-rule="evenodd" d="M192,279.8H431.8V265.1H192v14.7Z" class="g0_54"/>
<path fill-rule="evenodd" d="M192,294.5H432.2V279.8H192v14.7Z" class="g0_54"/>
<path fill-rule="evenodd" d="M192,309.1H432.2V294.5H192v14.6Z" class="g0_54"/>
<path fill-rule="evenodd" d="M192,323.8H432.2V309.1H192v14.7Z" class="g0_54"/>
<path fill-rule="evenodd" d="M210.3,338.5H432.5V323.8H210.3v14.7Z" class="g0_54"/>
<path fill-rule="evenodd" d="M191.6,353.5H431.8V338.8H191.6v14.7Z" class="g0_54"/>
<path fill-rule="evenodd" d="M191.6,368.2H431.8V353.5H191.6v14.7Z" class="g0_54"/>
<path fill-rule="evenodd" d="M191.6,382.9H431.8V368.2H191.6v14.7Z" class="g0_54"/>
<path fill-rule="evenodd" d="M191.6,397.5H431.8V382.9H191.6v14.6Z" class="g0_54"/>
<path fill-rule="evenodd" d="M191.6,412.2H431.8V397.5H191.6v14.7Z" class="g0_54"/>
<path fill-rule="evenodd" d="M192,426.9H431.8V412.2H192v14.7Z" class="g0_54"/>
<path fill-rule="evenodd" d="M192,441.5H431.8V426.9H192v14.6Z" class="g0_54"/>
<path fill-rule="evenodd" d="M191.6,456.6H431.4V441.9H191.6v14.7Z" class="g0_54"/>
<path fill-rule="evenodd" d="M191.6,471.2H431.4V456.6H191.6v14.6Z" class="g0_54"/>
<path fill-rule="evenodd" d="M191.2,485.9H431.1V471.2H191.2v14.7Z" class="g0_54"/>
<path fill-rule="evenodd" d="M191.2,500.6H431.1V485.9H191.2v14.7Z" class="g0_54"/>
<path fill-rule="evenodd" d="M191.2,515.2H431.1V500.6H191.2v14.6Z" class="g0_54"/>
<path fill-rule="evenodd" d="M191.2,529.9H431.1V515.2H191.2v14.7Z" class="g0_54"/>
<path fill-rule="evenodd" d="M191.2,544.6H431.1V529.9H191.2v14.7Z" class="g0_54"/>
<path fill-rule="evenodd" d="M191.2,559.8H430.7V544.9H191.2v14.9Z" class="g0_54"/>
<path fill-rule="evenodd" d="M191.2,574.5H430.7V559.8H191.2v14.7Z" class="g0_54"/>
<path fill-rule="evenodd" d="M191.2,589.5H431.1V574.8H191.2v14.7Z" class="g0_54"/>
<path fill-rule="evenodd" d="M191.2,604.2H431.1V589.5H191.2v14.7Z" class="g0_54"/>
<path fill-rule="evenodd" d="M191.2,618.9H431.1V604.2H191.2v14.7Z" class="g0_54"/>
<path fill-rule="evenodd" d="M190.9,633.5H430.7V618.9H190.9v14.6Z" class="g0_54"/>
<path fill-rule="evenodd" d="M190.9,648.2H430.7V633.5H190.9v14.7Z" class="g0_54"/>
<path fill-rule="evenodd" d="M190.9,662.9H430.7V648.2H190.9v14.7Z" class="g0_54"/>
<path fill-rule="evenodd" d="M190.5,677.5H430.7V662.9H190.5v14.6Z" class="g0_54"/>
<path fill-rule="evenodd" d="M190.5,692.2H430.7V677.5H190.5v14.7Z" class="g0_54"/>
<path fill-rule="evenodd" d="M190.5,706.9H430.7V692.2H190.5v14.7Z" class="g0_54"/>
<path fill-rule="evenodd" d="M190.5,721.5H430.7V706.9H190.5v14.6Z" class="g0_54"/>
<path fill-rule="evenodd" d="M190.5,736.2H430.7V721.5H190.5v14.7Z" class="g0_54"/>
<path fill-rule="evenodd" d="M190.5,750.9H430.7V736.2H190.5v14.7Z" class="g0_54"/>
<path fill-rule="evenodd" d="M190.1,765.9H430V751.2H190.1v14.7Z" class="g0_54"/>
<path fill-rule="evenodd" d="M190.1,780.6H430V765.9H190.1v14.7Z" class="g0_54"/>
<path fill-rule="evenodd" d="M190.1,795.6H430.3V780.9H190.1v14.7Z" class="g0_54"/>
<path fill-rule="evenodd" d="M190.1,810.3H430.3V795.6H190.1v14.7Z" class="g0_54"/>
<path fill-rule="evenodd" d="M190.1,824.9H430.3V810.3H190.1v14.6Z" class="g0_54"/>
<path fill-rule="evenodd" d="M190.5,839.6H430V824.9H190.5v14.7Z" class="g0_54"/>
<path fill-rule="evenodd" d="M190.5,854.3H430V839.6H190.5v14.7Z" class="g0_54"/>
<path fill-rule="evenodd" d="M190.1,869.3H430V854.7H190.1v14.6Z" class="g0_54"/>
<path fill-rule="evenodd" d="M190.1,884H430V869.3H190.1V884Z" class="g0_54"/>
<path fill-rule="evenodd" d="M190.1,898.7H430V884H190.1v14.7Z" class="g0_54"/>
<path fill-rule="evenodd" d="M192.3,913.3H432.5V898.7H192.3v14.6Z" class="g0_54"/>
<path fill-rule="evenodd" d="M452.8,161.7H693.3V147.1H452.8v14.6Z" class="g0_54"/>
<path fill-rule="evenodd" d="M452.8,176.4H693.3V161.7H452.8v14.7Z" class="g0_54"/>
<path fill-rule="evenodd" d="M452.8,191.1H693.3V176.4H452.8v14.7Z" class="g0_54"/>
<path fill-rule="evenodd" d="M453.1,206.1H693.3V191.4H453.1v14.7Z" class="g0_54"/>
<path fill-rule="evenodd" d="M453.1,220.8H693.3V206.1H453.1v14.7Z" class="g0_54"/>
<path fill-rule="evenodd" d="M471.5,235.8H693.3V221.1H471.5v14.7Z" class="g0_54"/>
<path fill-rule="evenodd" d="M471.1,250.5H693.3V235.8H471.1v14.7Z" class="g0_54"/>
<path fill-rule="evenodd" d="M471.1,265.5H693.3v-15H471.1v15Z" class="g0_54"/>
<path fill-rule="evenodd" d="M452.4,280.2H693.3V265.5H452.4v14.7Z" class="g0_54"/>
<path fill-rule="evenodd" d="M452.4,294.8H693.3V280.2H452.4v14.6Z" class="g0_54"/>
<path fill-rule="evenodd" d="M452.4,309.5H693.3V294.8H452.4v14.7Z" class="g0_54"/>
<path fill-rule="evenodd" d="M452.4,324.2H693.3V309.5H452.4v14.7Z" class="g0_54"/>
<path fill-rule="evenodd" d="M452.4,338.8H693.3V324.2H452.4v14.6Z" class="g0_54"/>
<path fill-rule="evenodd" d="M452.4,353.5H693.3V338.8H452.4v14.7Z" class="g0_54"/>
<path fill-rule="evenodd" d="M452.4,368.2H693.3V353.5H452.4v14.7Z" class="g0_54"/>
<path fill-rule="evenodd" d="M470.7,383.2H693.3V368.6H470.7v14.6Z" class="g0_54"/>
<path fill-rule="evenodd" d="M452,398.5H692.6V383.6H452v14.9Z" class="g0_54"/>
<path fill-rule="evenodd" d="M452,413.1H692.6V398.5H452v14.6Z" class="g0_54"/>
<path fill-rule="evenodd" d="M452,428.2H692.2V413.5H452v14.7Z" class="g0_54"/>
<path fill-rule="evenodd" d="M452,442.8H692.2V428.2H452v14.6Z" class="g0_54"/>
<path fill-rule="evenodd" d="M452,457.5H692.2V442.8H452v14.7Z" class="g0_54"/>
<path fill-rule="evenodd" d="M452,472.2H692.2V457.5H452v14.7Z" class="g0_54"/>
<path fill-rule="evenodd" d="M452,486.8H691.9V472.2H452v14.6Z" class="g0_54"/>
<path fill-rule="evenodd" d="M452,501.5H691.9V486.8H452v14.7Z" class="g0_54"/>
<path fill-rule="evenodd" d="M451.3,516.5H691.9V501.9H451.3v14.6Z" class="g0_54"/>
<path fill-rule="evenodd" d="M451.3,531.2H691.9V516.5H451.3v14.7Z" class="g0_54"/>
<path fill-rule="evenodd" d="M451.3,545.9H691.9V531.2H451.3v14.7Z" class="g0_54"/>
<path fill-rule="evenodd" d="M451.3,560.5H691.9V545.9H451.3v14.6Z" class="g0_54"/>
<path fill-rule="evenodd" d="M451.3,575.2H691.9V560.5H451.3v14.7Z" class="g0_54"/>
<path fill-rule="evenodd" d="M451.7,590.2H691.5V575.6H451.7v14.6Z" class="g0_54"/>
<path fill-rule="evenodd" d="M451.7,604.9H691.5V590.2H451.7v14.7Z" class="g0_54"/>
<path fill-rule="evenodd" d="M451.7,619.6H691.1V604.9H451.7v14.7Z" class="g0_54"/>
<path fill-rule="evenodd" d="M451.7,634.3H691.1V619.6H451.7v14.7Z" class="g0_54"/>
<path fill-rule="evenodd" d="M451.3,649.7H691.1V635H451.3v14.7Z" class="g0_54"/>
<path fill-rule="evenodd" d="M451.3,664.3H691.1V649.7H451.3v14.6Z" class="g0_54"/>
<path fill-rule="evenodd" d="M451.3,679H691.1V664.3H451.3V679Z" class="g0_54"/>
<path fill-rule="evenodd" d="M451.3,693.7H691.9V679H451.3v14.7Z" class="g0_54"/>
<path fill-rule="evenodd" d="M451.3,708.3H691.9V693.7H451.3v14.6Z" class="g0_54"/>
<path fill-rule="evenodd" d="M451.3,723H691.9V708.3H451.3V723Z" class="g0_54"/>
<path fill-rule="evenodd" d="M469.3,738h224V723.4h-224V738Z" class="g0_54"/>
<path fill-rule="evenodd" d="M469.6,752.7H693.3V738H469.6v14.7Z" class="g0_54"/>
<path fill-rule="evenodd" d="M450.9,767.4H690.8V752.7H450.9v14.7Z" class="g0_54"/>
<path fill-rule="evenodd" d="M450.9,782.4H690.8v-15H450.9v15Z" class="g0_54"/>
<path fill-rule="evenodd" d="M450.9,797.1H690.8V782.4H450.9v14.7Z" class="g0_54"/>
<path fill-rule="evenodd" d="M450.9,811.7H690.8V797.1H450.9v14.6Z" class="g0_54"/>
<path fill-rule="evenodd" d="M450.6,826.8H690.8V812.1H450.6v14.7Z" class="g0_54"/>
<path fill-rule="evenodd" d="M450.6,841.5H690.8V826.8H450.6v14.7Z" class="g0_54"/>
<path fill-rule="evenodd" d="M450.6,856.1H690.8V841.5H450.6v14.6Z" class="g0_54"/>
<path fill-rule="evenodd" d="M450.9,871.5H690.4V856.9H450.9v14.6Z" class="g0_54"/>
<path fill-rule="evenodd" d="M450.9,886.2H690.4V871.5H450.9v14.7Z" class="g0_54"/>
<path fill-rule="evenodd" d="M430.7,930.6h263V913h-263v17.6Z" class="g0_54"/>
<path d="M439.4,146.3V915.2" class="g1_54"/>
</svg>