<?xml version="1.0" encoding="UTF-8" standalone="no"?>
<!DOCTYPE svg PUBLIC "-//W3C//DTD SVG 1.1//EN"
"http://www.w3.org/Graphics/SVG/1.1/DTD/svg11.dtd">
<svg viewBox="0 0 909 1285" version="1.1" xmlns="http://www.w3.org/2000/svg" xmlns:xlink="http://www.w3.org/1999/xlink">
<defs>
<style type="text/css"><![CDATA[
.g0_212{
fill: #FFFFFF;
}
.g1_212{
fill: none;
stroke: #000000;
stroke-width: 0.381;
stroke-linecap: butt;
stroke-linejoin: round;
}
]]></style>
</defs>
<path fill-rule="evenodd" d="M608,127.6h69V110H608v17.6Z" class="g0_212"/>
<path fill-rule="evenodd" d="M179.3,163.2H417V148.5H179.3v14.7Z" class="g0_212"/>
<path fill-rule="evenodd" d="M179.3,177.9H417V163.2H179.3v14.7Z" class="g0_212"/>
<path fill-rule="evenodd" d="M196.9,192.5H417V177.9H196.9v14.6Z" class="g0_212"/>
<path fill-rule="evenodd" d="M179,207.2H416.6V192.5H179v14.7Z" class="g0_212"/>
<path fill-rule="evenodd" d="M179,221.9H416.6V207.2H179v14.7Z" class="g0_212"/>
<path fill-rule="evenodd" d="M196.9,236.5H417V221.9H196.9v14.6Z" class="g0_212"/>
<path fill-rule="evenodd" d="M179,251.6H416.6V236.9H179v14.7Z" class="g0_212"/>
<path fill-rule="evenodd" d="M179,266.2H416.6V251.6H179v14.6Z" class="g0_212"/>
<path fill-rule="evenodd" d="M179,280.9H416.6V266.2H179v14.7Z" class="g0_212"/>
<path fill-rule="evenodd" d="M179.3,295.6H416.6V280.9H179.3v14.7Z" class="g0_212"/>
<path fill-rule="evenodd" d="M179.3,310.2H416.6V295.6H179.3v14.6Z" class="g0_212"/>
<path fill-rule="evenodd" d="M179,325.3H416.6V310.6H179v14.7Z" class="g0_212"/>
<path fill-rule="evenodd" d="M179,339.9H416.6V325.3H179v14.6Z" class="g0_212"/>
<path fill-rule="evenodd" d="M177.9,355H417V340.3H177.9V355Z" class="g0_212"/>
<path fill-rule="evenodd" d="M177.9,369.7H417V355H177.9v14.7Z" class="g0_212"/>
<path fill-rule="evenodd" d="M177.9,384.3H417V369.7H177.9v14.6Z" class="g0_212"/>
<path fill-rule="evenodd" d="M177.9,399H417V384.3H177.9V399Z" class="g0_212"/>
<path fill-rule="evenodd" d="M177.9,413.7H417V399H177.9v14.7Z" class="g0_212"/>
<path fill-rule="evenodd" d="M177.9,428.3H417V413.7H177.9v14.6Z" class="g0_212"/>
<path fill-rule="evenodd" d="M177.9,443H417V428.3H177.9V443Z" class="g0_212"/>
<path fill-rule="evenodd" d="M177.9,457.7H417V443H177.9v14.7Z" class="g0_212"/>
<path fill-rule="evenodd" d="M177.9,472.3H417V457.7H177.9v14.6Z" class="g0_212"/>
<path fill-rule="evenodd" d="M177.9,487H417V472.3H177.9V487Z" class="g0_212"/>
<path fill-rule="evenodd" d="M177.9,501.7H417V487H177.9v14.7Z" class="g0_212"/>
<path fill-rule="evenodd" d="M178.2,516.7H415.5V502H178.2v14.7Z" class="g0_212"/>
<path fill-rule="evenodd" d="M178.2,531.4H415.5V516.7H178.2v14.7Z" class="g0_212"/>
<path fill-rule="evenodd" d="M176.4,546H416.2V531.4H176.4V546Z" class="g0_212"/>
<path fill-rule="evenodd" d="M176.4,560.7H416.2V546H176.4v14.7Z" class="g0_212"/>
<path fill-rule="evenodd" d="M176.4,575.4H416.2V560.7H176.4v14.7Z" class="g0_212"/>
<path fill-rule="evenodd" d="M176.4,590H416.2V575.4H176.4V590Z" class="g0_212"/>
<path fill-rule="evenodd" d="M177.5,604.7H415.9V590H177.5v14.7Z" class="g0_212"/>
<path fill-rule="evenodd" d="M177.5,619.4H415.9V604.7H177.5v14.7Z" class="g0_212"/>
<path fill-rule="evenodd" d="M177.5,634.1H415.9V619.4H177.5v14.7Z" class="g0_212"/>
<path fill-rule="evenodd" d="M176.8,649.1H415.5V634.4H176.8v14.7Z" class="g0_212"/>
<path fill-rule="evenodd" d="M176.8,663.8H415.5V649.1H176.8v14.7Z" class="g0_212"/>
<path fill-rule="evenodd" d="M176.8,678.4H415.5V663.8H176.8v14.6Z" class="g0_212"/>
<path fill-rule="evenodd" d="M176.8,693.1H415.5V678.4H176.8v14.7Z" class="g0_212"/>
<path fill-rule="evenodd" d="M177.1,708.3H415.5V693.5H177.1v14.8Z" class="g0_212"/>
<path fill-rule="evenodd" d="M177.1,723H415.5V708.3H177.1V723Z" class="g0_212"/>
<path fill-rule="evenodd" d="M176.8,737.7H415.1V723H176.8v14.7Z" class="g0_212"/>
<path fill-rule="evenodd" d="M176.8,752.3H415.1V737.7H176.8v14.6Z" class="g0_212"/>
<path fill-rule="evenodd" d="M195.1,767.4H417V752.7H195.1v14.7Z" class="g0_212"/>
<path fill-rule="evenodd" d="M195.1,782.4H417v-15H195.1v15Z" class="g0_212"/>
<path fill-rule="evenodd" d="M195.1,797.1H417V782.4H195.1v14.7Z" class="g0_212"/>
<path fill-rule="evenodd" d="M176.4,812.1H415.1V797.4H176.4v14.7Z" class="g0_212"/>
<path fill-rule="evenodd" d="M176.4,826.8H415.1V812.1H176.4v14.7Z" class="g0_212"/>
<path fill-rule="evenodd" d="M176.4,841.5H415.1V826.8H176.4v14.7Z" class="g0_212"/>
<path fill-rule="evenodd" d="M176.4,856.1H415.1V841.5H176.4v14.6Z" class="g0_212"/>
<path fill-rule="evenodd" d="M176.4,870.8H415.1V856.1H176.4v14.7Z" class="g0_212"/>
<path fill-rule="evenodd" d="M178.2,885.5h238V870.8h-238v14.7Z" class="g0_212"/>
<path fill-rule="evenodd" d="M437.1,162.8H675.9V148.2H437.1v14.6Z" class="g0_212"/>
<path fill-rule="evenodd" d="M437.1,177.5H675.9V162.8H437.1v14.7Z" class="g0_212"/>
<path fill-rule="evenodd" d="M437.1,192.2H676.7V177.5H437.1v14.7Z" class="g0_212"/>
<path fill-rule="evenodd" d="M437.1,206.8H676.7V192.2H437.1v14.6Z" class="g0_212"/>
<path fill-rule="evenodd" d="M437.1,221.5H676.7V206.8H437.1v14.7Z" class="g0_212"/>
<path fill-rule="evenodd" d="M437.1,236.2H676.7V221.5H437.1v14.7Z" class="g0_212"/>
<path fill-rule="evenodd" d="M437.1,250.8H676.7V236.2H437.1v14.6Z" class="g0_212"/>
<path fill-rule="evenodd" d="M437.1,265.5H676.7V250.8H437.1v14.7Z" class="g0_212"/>
<path fill-rule="evenodd" d="M437.1,280.2H676.7V265.5H437.1v14.7Z" class="g0_212"/>
<path fill-rule="evenodd" d="M437.1,294.8H675.9V280.2H437.1v14.6Z" class="g0_212"/>
<path fill-rule="evenodd" d="M437.1,309.5H675.9V294.8H437.1v14.7Z" class="g0_212"/>
<path fill-rule="evenodd" d="M437.1,324.2H675.9V309.5H437.1v14.7Z" class="g0_212"/>
<path fill-rule="evenodd" d="M437.1,338.8H675.9V324.2H437.1v14.6Z" class="g0_212"/>
<path fill-rule="evenodd" d="M437.5,353.5H675.9V338.8H437.5v14.7Z" class="g0_212"/>
<path fill-rule="evenodd" d="M437.5,368.2H675.9V353.5H437.5v14.7Z" class="g0_212"/>
<path fill-rule="evenodd" d="M437.5,382.9H675.9V368.2H437.5v14.7Z" class="g0_212"/>
<path fill-rule="evenodd" d="M437.5,397.5H675.9V382.9H437.5v14.6Z" class="g0_212"/>
<path fill-rule="evenodd" d="M437.5,412.2H675.9V397.5H437.5v14.7Z" class="g0_212"/>
<path fill-rule="evenodd" d="M437.5,426.9H675.9V412.2H437.5v14.7Z" class="g0_212"/>
<path fill-rule="evenodd" d="M437.1,441.5H675.6V426.9H437.1v14.6Z" class="g0_212"/>
<path fill-rule="evenodd" d="M437.1,456.2H675.6V441.5H437.1v14.7Z" class="g0_212"/>
<path fill-rule="evenodd" d="M436.8,470.9H675.9V456.2H436.8v14.7Z" class="g0_212"/>
<path fill-rule="evenodd" d="M436.8,485.5H675.9V470.9H436.8v14.6Z" class="g0_212"/>
<path fill-rule="evenodd" d="M436.8,500.2H675.9V485.5H436.8v14.7Z" class="g0_212"/>
<path fill-rule="evenodd" d="M436.8,514.9H675.9V500.2H436.8v14.7Z" class="g0_212"/>
<path fill-rule="evenodd" d="M436.8,529.5H675.9V514.9H436.8v14.6Z" class="g0_212"/>
<path fill-rule="evenodd" d="M436.8,544.2H675.9V529.5H436.8v14.7Z" class="g0_212"/>
<path fill-rule="evenodd" d="M436.8,559.6H675.6V544.9H436.8v14.7Z" class="g0_212"/>
<path fill-rule="evenodd" d="M436.8,574.3H675.6V559.6H436.8v14.7Z" class="g0_212"/>
<path fill-rule="evenodd" d="M436.8,588.9H675.6V574.3H436.8v14.6Z" class="g0_212"/>
<path fill-rule="evenodd" d="M436.4,603.6H674.8V588.9H436.4v14.7Z" class="g0_212"/>
<path fill-rule="evenodd" d="M436.4,618.3H674.8V603.6H436.4v14.7Z" class="g0_212"/>
<path fill-rule="evenodd" d="M436.4,633H674.8V618.3H436.4V633Z" class="g0_212"/>
<path fill-rule="evenodd" d="M436.8,647.6H675.2V633H436.8v14.6Z" class="g0_212"/>
<path fill-rule="evenodd" d="M436.8,662.3H675.2V647.6H436.8v14.7Z" class="g0_212"/>
<path fill-rule="evenodd" d="M436.8,677H674.5V662.3H436.8V677Z" class="g0_212"/>
<path fill-rule="evenodd" d="M436.8,691.6H674.5V677H436.8v14.6Z" class="g0_212"/>
<path fill-rule="evenodd" d="M436.4,706.3H674.5V691.6H436.4v14.7Z" class="g0_212"/>
<path fill-rule="evenodd" d="M436.4,721H674.5V706.3H436.4V721Z" class="g0_212"/>
<path fill-rule="evenodd" d="M436.4,735.6H675.2V721H436.4v14.6Z" class="g0_212"/>
<path fill-rule="evenodd" d="M436.4,750.3H675.2V735.6H436.4v14.7Z" class="g0_212"/>
<path fill-rule="evenodd" d="M436,765H674.5V750.3H436V765Z" class="g0_212"/>
<path fill-rule="evenodd" d="M436,779.6H674.5V765H436v14.6Z" class="g0_212"/>
<path fill-rule="evenodd" d="M436,794.3H674.5V779.6H436v14.7Z" class="g0_212"/>
<path fill-rule="evenodd" d="M436,809H674.8V794.3H436V809Z" class="g0_212"/>
<path fill-rule="evenodd" d="M436,823.6H674.8V809H436v14.6Z" class="g0_212"/>
<path fill-rule="evenodd" d="M436,838.4H674.8V823.6H436v14.8Z" class="g0_212"/>
<path fill-rule="evenodd" d="M435.3,853.4H675.2V838.7H435.3v14.7Z" class="g0_212"/>
<path fill-rule="evenodd" d="M435.3,868.1H675.2V853.4H435.3v14.7Z" class="g0_212"/>
<path fill-rule="evenodd" d="M435.3,882.7H675.2V868.1H435.3v14.6Z" class="g0_212"/>
<path fill-rule="evenodd" d="M176.8,910h59.4V896.1H176.8V910Z" class="g0_212"/>
<path fill-rule="evenodd" d="M176.8,927.6h59.4V910H176.8v17.6Z" class="g0_212"/>
<path fill-rule="evenodd" d="M412.2,915.5h59.4V897.9H412.2v17.6Z" class="g0_212"/>
<path d="M425,147.4V916.3" class="g1_212"/>
</svg>