<?xml version="1.0" encoding="UTF-8" standalone="no"?>
<!DOCTYPE svg PUBLIC "-//W3C//DTD SVG 1.1//EN"
"http://www.w3.org/Graphics/SVG/1.1/DTD/svg11.dtd">
<svg viewBox="0 0 909 1285" version="1.1" xmlns="http://www.w3.org/2000/svg" xmlns:xlink="http://www.w3.org/1999/xlink">
<defs>
<style type="text/css"><![CDATA[
.g0_271{
fill: #FFFFFF;
}
.g1_271{
fill: none;
stroke: #000000;
stroke-width: 0.381;
stroke-linecap: butt;
stroke-linejoin: round;
}
]]></style>
</defs>
<path fill-rule="evenodd" d="M263.1,125.8H763V110H263.1v15.8Z" class="g0_271"/>
<path fill-rule="evenodd" d="M261.6,177.5H529V152.6H261.6v24.9Z" class="g0_271"/>
<path fill-rule="evenodd" d="M263.1,212.7H503v-15H263.1v15Z" class="g0_271"/>
<path fill-rule="evenodd" d="M263.1,227.7H503v-15H263.1v15Z" class="g0_271"/>
<path fill-rule="evenodd" d="M281.1,242.8H503V227.7H281.1v15.1Z" class="g0_271"/>
<path fill-rule="evenodd" d="M262.4,257.8H502.6v-15H262.4v15Z" class="g0_271"/>
<path fill-rule="evenodd" d="M262.4,272.8H502.6v-15H262.4v15Z" class="g0_271"/>
<path fill-rule="evenodd" d="M262.4,287.9H502.6V272.8H262.4v15.1Z" class="g0_271"/>
<path fill-rule="evenodd" d="M262.4,302.9H502.6v-15H262.4v15Z" class="g0_271"/>
<path fill-rule="evenodd" d="M262.7,318.1h161V302.9h-161v15.2Z" class="g0_271"/>
<path fill-rule="evenodd" d="M262.7,333.1h161v-15h-161v15Z" class="g0_271"/>
<path fill-rule="evenodd" d="M262,348.2H502.6V333.1H262v15.1Z" class="g0_271"/>
<path fill-rule="evenodd" d="M262,363.3H502.6V348.2H262v15.1Z" class="g0_271"/>
<path fill-rule="evenodd" d="M262,378.3H502.6v-15H262v15Z" class="g0_271"/>
<path fill-rule="evenodd" d="M262,393.3H502.6v-15H262v15Z" class="g0_271"/>
<path fill-rule="evenodd" d="M262,408.4H502.6V393.3H262v15.1Z" class="g0_271"/>
<path fill-rule="evenodd" d="M262,423.4H502.6v-15H262v15Z" class="g0_271"/>
<path fill-rule="evenodd" d="M262,438.4H502.6v-15H262v15Z" class="g0_271"/>
<path fill-rule="evenodd" d="M262,453.5H502.6V438.4H262v15.1Z" class="g0_271"/>
<path fill-rule="evenodd" d="M261.6,468.5H503v-15H261.6v15Z" class="g0_271"/>
<path fill-rule="evenodd" d="M261.6,483.7H503V468.5H261.6v15.2Z" class="g0_271"/>
<path fill-rule="evenodd" d="M261.6,498.7H503v-15H261.6v15Z" class="g0_271"/>
<path fill-rule="evenodd" d="M261.6,513.8H503V498.7H261.6v15.1Z" class="g0_271"/>
<path fill-rule="evenodd" d="M262,528.8H501.9v-15H262v15Z" class="g0_271"/>
<path fill-rule="evenodd" d="M262,543.8H501.9v-15H262v15Z" class="g0_271"/>
<path fill-rule="evenodd" d="M262,558.9H501.9V543.8H262v15.1Z" class="g0_271"/>
<path fill-rule="evenodd" d="M262,573.9H501.9v-15H262v15Z" class="g0_271"/>
<path fill-rule="evenodd" d="M262.4,588.9H450.2v-15H262.4v15Z" class="g0_271"/>
<path fill-rule="evenodd" d="M262.4,604H450.2V588.9H262.4V604Z" class="g0_271"/>
<path fill-rule="evenodd" d="M262,619H501.9V604H262v15Z" class="g0_271"/>
<path fill-rule="evenodd" d="M262,634.1H501.9V619H262v15.1Z" class="g0_271"/>
<path fill-rule="evenodd" d="M262,649.1H501.9v-15H262v15Z" class="g0_271"/>
<path fill-rule="evenodd" d="M262,664.3H501.9V649.1H262v15.2Z" class="g0_271"/>
<path fill-rule="evenodd" d="M262,679.4H501.9V664.3H262v15.1Z" class="g0_271"/>
<path fill-rule="evenodd" d="M262,694.4H501.9v-15H262v15Z" class="g0_271"/>
<path fill-rule="evenodd" d="M262,709.4H501.9v-15H262v15Z" class="g0_271"/>
<path fill-rule="evenodd" d="M261.6,724.5H503V709.4H261.6v15.1Z" class="g0_271"/>
<path fill-rule="evenodd" d="M261.6,739.5H503v-15H261.6v15Z" class="g0_271"/>
<path fill-rule="evenodd" d="M261.6,754.5H503v-15H261.6v15Z" class="g0_271"/>
<path fill-rule="evenodd" d="M261.6,769.6H503V754.5H261.6v15.1Z" class="g0_271"/>
<path fill-rule="evenodd" d="M261.6,784.6H501.9v-15H261.6v15Z" class="g0_271"/>
<path fill-rule="evenodd" d="M261.6,799.6H501.9v-15H261.6v15Z" class="g0_271"/>
<path fill-rule="evenodd" d="M261.6,814.7H501.9V799.6H261.6v15.1Z" class="g0_271"/>
<path fill-rule="evenodd" d="M261.6,829.7H501.9v-15H261.6v15Z" class="g0_271"/>
<path fill-rule="evenodd" d="M261.6,845.3H423.7V830.1H261.6v15.2Z" class="g0_271"/>
<path fill-rule="evenodd" d="M261.6,860.4H423.7V845.3H261.6v15.1Z" class="g0_271"/>
<path fill-rule="evenodd" d="M262.4,875.4H503v-15H262.4v15Z" class="g0_271"/>
<path fill-rule="evenodd" d="M522.6,212.7H762.8v-15H522.6v15Z" class="g0_271"/>
<path fill-rule="evenodd" d="M522.6,227.7H762.8v-15H522.6v15Z" class="g0_271"/>
<path fill-rule="evenodd" d="M522.6,242.8H762.8V227.7H522.6v15.1Z" class="g0_271"/>
<path fill-rule="evenodd" d="M522.6,257.8H762.8v-15H522.6v15Z" class="g0_271"/>
<path fill-rule="evenodd" d="M522.6,272.8H762.8v-15H522.6v15Z" class="g0_271"/>
<path fill-rule="evenodd" d="M522.6,287.9H762.8V272.8H522.6v15.1Z" class="g0_271"/>
<path fill-rule="evenodd" d="M522.6,302.9H762.8v-15H522.6v15Z" class="g0_271"/>
<path fill-rule="evenodd" d="M522.6,318.1H762.8V302.9H522.6v15.2Z" class="g0_271"/>
<path fill-rule="evenodd" d="M522.6,333.1H762.8v-15H522.6v15Z" class="g0_271"/>
<path fill-rule="evenodd" d="M522.6,348.2H762.8V333.1H522.6v15.1Z" class="g0_271"/>
<path fill-rule="evenodd" d="M522.6,363.3H762.8V348.2H522.6v15.1Z" class="g0_271"/>
<path fill-rule="evenodd" d="M522.6,378.3H762.8v-15H522.6v15Z" class="g0_271"/>
<path fill-rule="evenodd" d="M522.2,393.3H762.4v-15H522.2v15Z" class="g0_271"/>
<path fill-rule="evenodd" d="M522.2,408.4H762.4V393.3H522.2v15.1Z" class="g0_271"/>
<path fill-rule="evenodd" d="M522.2,423.4H762.4v-15H522.2v15Z" class="g0_271"/>
<path fill-rule="evenodd" d="M522.6,438.4H679.2v-15H522.6v15Z" class="g0_271"/>
<path fill-rule="evenodd" d="M522.6,453.5H679.2V438.4H522.6v15.1Z" class="g0_271"/>
<path fill-rule="evenodd" d="M522.2,468.5H762.1v-15H522.2v15Z" class="g0_271"/>
<path fill-rule="evenodd" d="M522.2,483.7H762.1V468.5H522.2v15.2Z" class="g0_271"/>
<path fill-rule="evenodd" d="M522.2,498.7H762.1v-15H522.2v15Z" class="g0_271"/>
<path fill-rule="evenodd" d="M522.2,513.8h157V498.7h-157v15.1Z" class="g0_271"/>
<path fill-rule="evenodd" d="M522.2,528.8h157v-15h-157v15Z" class="g0_271"/>
<path fill-rule="evenodd" d="M521.9,543.8H762.4v-15H521.9v15Z" class="g0_271"/>
<path fill-rule="evenodd" d="M521.9,558.9H762.4V543.8H521.9v15.1Z" class="g0_271"/>
<path fill-rule="evenodd" d="M521.9,573.9H762.4v-15H521.9v15Z" class="g0_271"/>
<path fill-rule="evenodd" d="M521.9,588.9H762.4v-15H521.9v15Z" class="g0_271"/>
<path fill-rule="evenodd" d="M522.2,604H707.1V588.9H522.2V604Z" class="g0_271"/>
<path fill-rule="evenodd" d="M522.2,619H707.1V604H522.2v15Z" class="g0_271"/>
<path fill-rule="evenodd" d="M521.9,634.1H762.8V619H521.9v15.1Z" class="g0_271"/>
<path fill-rule="evenodd" d="M521.9,649.1H762.8v-15H521.9v15Z" class="g0_271"/>
<path fill-rule="evenodd" d="M521.9,664.3H762.8V649.1H521.9v15.2Z" class="g0_271"/>
<path fill-rule="evenodd" d="M521.9,679.4H762.8V664.3H521.9v15.1Z" class="g0_271"/>
<path fill-rule="evenodd" d="M521.9,694.4H762.8v-15H521.9v15Z" class="g0_271"/>
<path fill-rule="evenodd" d="M522.2,709.4H762.8v-15H522.2v15Z" class="g0_271"/>
<path fill-rule="evenodd" d="M522.2,724.5H762.8V709.4H522.2v15.1Z" class="g0_271"/>
<path fill-rule="evenodd" d="M522.2,739.5H762.8v-15H522.2v15Z" class="g0_271"/>
<path fill-rule="evenodd" d="M522.2,754.5H762.8v-15H522.2v15Z" class="g0_271"/>
<path fill-rule="evenodd" d="M522.2,769.6H762.8V754.5H522.2v15.1Z" class="g0_271"/>
<path fill-rule="evenodd" d="M521.9,784.6H762.1v-15H521.9v15Z" class="g0_271"/>
<path fill-rule="evenodd" d="M521.9,799.6H762.1v-15H521.9v15Z" class="g0_271"/>
<path fill-rule="evenodd" d="M521.9,814.7H762.1V799.6H521.9v15.1Z" class="g0_271"/>
<path fill-rule="evenodd" d="M521.9,829.7H762.1v-15H521.9v15Z" class="g0_271"/>
<path fill-rule="evenodd" d="M521.9,845H762.1V829.7H521.9V845Z" class="g0_271"/>
<path fill-rule="evenodd" d="M521.9,860H762.1V845H521.9v15Z" class="g0_271"/>
<path fill-rule="evenodd" d="M521.9,875H762.1V860H521.9v15Z" class="g0_271"/>
<path fill-rule="evenodd" d="M498.6,908H763V890.4H498.6V908Z" class="g0_271"/>
<path d="M191.2,134.9v86.2m11.3,-4.8V825.8M204,89.8V995.5M511.7,196.9V915.1" class="g1_271"/>
</svg>