<?xml version="1.0" encoding="UTF-8" standalone="no"?>
<!DOCTYPE svg PUBLIC "-//W3C//DTD SVG 1.1//EN"
"http://www.w3.org/Graphics/SVG/1.1/DTD/svg11.dtd">
<svg viewBox="0 0 909 1285" version="1.1" xmlns="http://www.w3.org/2000/svg" xmlns:xlink="http://www.w3.org/1999/xlink">
<defs>
<style type="text/css"><![CDATA[
.g0_316{
fill: #FFFFFF;
}
.g1_316{
fill: none;
stroke: #000000;
stroke-width: 0.381;
stroke-linecap: butt;
stroke-linejoin: round;
}
]]></style>
</defs>
<path fill-rule="evenodd" d="M632.7,125.8h59.4V110H632.7v15.8Z" class="g0_316"/>
<path fill-rule="evenodd" d="M189.6,161.7h238v-15h-238v15Z" class="g0_316"/>
<path fill-rule="evenodd" d="M189.6,176.9h238V161.7h-238v15.2Z" class="g0_316"/>
<path fill-rule="evenodd" d="M189.2,192H428V176.9H189.2V192Z" class="g0_316"/>
<path fill-rule="evenodd" d="M189.2,207H428V192H189.2v15Z" class="g0_316"/>
<path fill-rule="evenodd" d="M189.2,222H428V207H189.2v15Z" class="g0_316"/>
<path fill-rule="evenodd" d="M189.2,237.1H428V222H189.2v15.1Z" class="g0_316"/>
<path fill-rule="evenodd" d="M189.2,252.1H427.6v-15H189.2v15Z" class="g0_316"/>
<path fill-rule="evenodd" d="M189.2,267.1H427.6v-15H189.2v15Z" class="g0_316"/>
<path fill-rule="evenodd" d="M188.9,282.2H428V267.1H188.9v15.1Z" class="g0_316"/>
<path fill-rule="evenodd" d="M188.9,297.2H428v-15H188.9v15Z" class="g0_316"/>
<path fill-rule="evenodd" d="M188.9,312.2H428v-15H188.9v15Z" class="g0_316"/>
<path fill-rule="evenodd" d="M188.9,327.3H428V312.2H188.9v15.1Z" class="g0_316"/>
<path fill-rule="evenodd" d="M189.2,342.5h238V327.3h-238v15.2Z" class="g0_316"/>
<path fill-rule="evenodd" d="M189.2,357.6h238V342.5h-238v15.1Z" class="g0_316"/>
<path fill-rule="evenodd" d="M189.2,372.6h238v-15h-238v15Z" class="g0_316"/>
<path fill-rule="evenodd" d="M189.2,387.6h238v-15h-238v15Z" class="g0_316"/>
<path fill-rule="evenodd" d="M187.8,402.7H426.9V387.6H187.8v15.1Z" class="g0_316"/>
<path fill-rule="evenodd" d="M187.8,417.7H426.9v-15H187.8v15Z" class="g0_316"/>
<path fill-rule="evenodd" d="M187.8,432.7H426.9v-15H187.8v15Z" class="g0_316"/>
<path fill-rule="evenodd" d="M188.1,447.8H427.6V432.7H188.1v15.1Z" class="g0_316"/>
<path fill-rule="evenodd" d="M188.1,462.8H427.6v-15H188.1v15Z" class="g0_316"/>
<path fill-rule="evenodd" d="M188.1,477.8H427.6v-15H188.1v15Z" class="g0_316"/>
<path fill-rule="evenodd" d="M206.1,492.9H428V477.8H206.1v15.1Z" class="g0_316"/>
<path fill-rule="evenodd" d="M206.5,507.9H428v-15H206.5v15Z" class="g0_316"/>
<path fill-rule="evenodd" d="M188.1,523.1H427.2V507.9H188.1v15.2Z" class="g0_316"/>
<path fill-rule="evenodd" d="M188.1,538.2H427.2V523.1H188.1v15.1Z" class="g0_316"/>
<path fill-rule="evenodd" d="M188.5,553.6H428V538.5H188.5v15.1Z" class="g0_316"/>
<path fill-rule="evenodd" d="M187.8,568.6H427.2v-15H187.8v15Z" class="g0_316"/>
<path fill-rule="evenodd" d="M187.8,583.6H427.2v-15H187.8v15Z" class="g0_316"/>
<path fill-rule="evenodd" d="M187.8,598.7H427.2V583.6H187.8v15.1Z" class="g0_316"/>
<path fill-rule="evenodd" d="M206.1,613.7H428v-15H206.1v15Z" class="g0_316"/>
<path fill-rule="evenodd" d="M187.4,628.8H426.5V613.7H187.4v15.1Z" class="g0_316"/>
<path fill-rule="evenodd" d="M187.4,643.8H426.5v-15H187.4v15Z" class="g0_316"/>
<path fill-rule="evenodd" d="M187.4,658.8H426.5v-15H187.4v15Z" class="g0_316"/>
<path fill-rule="evenodd" d="M187.4,673.9H426.5V658.8H187.4v15.1Z" class="g0_316"/>
<path fill-rule="evenodd" d="M187.4,689.1H426.1V673.9H187.4v15.2Z" class="g0_316"/>
<path fill-rule="evenodd" d="M187.4,704.1H426.1v-15H187.4v15Z" class="g0_316"/>
<path fill-rule="evenodd" d="M187,719.1H426.1v-15H187v15Z" class="g0_316"/>
<path fill-rule="evenodd" d="M187,734.2H426.1V719.1H187v15.1Z" class="g0_316"/>
<path fill-rule="evenodd" d="M187,749.2H426.1v-15H187v15Z" class="g0_316"/>
<path fill-rule="evenodd" d="M187,764.2H426.1v-15H187v15Z" class="g0_316"/>
<path fill-rule="evenodd" d="M186.7,779.3H426.1V764.2H186.7v15.1Z" class="g0_316"/>
<path fill-rule="evenodd" d="M186.7,794.3H426.1v-15H186.7v15Z" class="g0_316"/>
<path fill-rule="evenodd" d="M186.7,809.3H426.1v-15H186.7v15Z" class="g0_316"/>
<path fill-rule="evenodd" d="M186.7,824.4H426.1V809.3H186.7v15.1Z" class="g0_316"/>
<path fill-rule="evenodd" d="M186.7,839.5H426.1V824.4H186.7v15.1Z" class="g0_316"/>
<path fill-rule="evenodd" d="M186.7,854.5H426.1v-15H186.7v15Z" class="g0_316"/>
<path fill-rule="evenodd" d="M187,869.7H425.4V854.5H187v15.2Z" class="g0_316"/>
<path fill-rule="evenodd" d="M187,884.7H425.4v-15H187v15Z" class="g0_316"/>
<path fill-rule="evenodd" d="M189.6,899.8H428V884.7H189.6v15.1Z" class="g0_316"/>
<path fill-rule="evenodd" d="M448.5,161.7H686.9v-15H448.5v15Z" class="g0_316"/>
<path fill-rule="evenodd" d="M448.5,176.9H686.9V161.7H448.5v15.2Z" class="g0_316"/>
<path fill-rule="evenodd" d="M448.5,192H686.9V176.9H448.5V192Z" class="g0_316"/>
<path fill-rule="evenodd" d="M448.1,207H686.9V192H448.1v15Z" class="g0_316"/>
<path fill-rule="evenodd" d="M448.1,222H686.9V207H448.1v15Z" class="g0_316"/>
<path fill-rule="evenodd" d="M447.8,237.1H686.6V222H447.8v15.1Z" class="g0_316"/>
<path fill-rule="evenodd" d="M447.8,252.1H686.6v-15H447.8v15Z" class="g0_316"/>
<path fill-rule="evenodd" d="M447.8,267.1H686.6v-15H447.8v15Z" class="g0_316"/>
<path fill-rule="evenodd" d="M447.8,282.2H686.9V267.1H447.8v15.1Z" class="g0_316"/>
<path fill-rule="evenodd" d="M447.8,297.2H686.9v-15H447.8v15Z" class="g0_316"/>
<path fill-rule="evenodd" d="M447.8,312.2H686.9v-15H447.8v15Z" class="g0_316"/>
<path fill-rule="evenodd" d="M447.4,327.3H686.2V312.2H447.4v15.1Z" class="g0_316"/>
<path fill-rule="evenodd" d="M447.4,342.5H686.2V327.3H447.4v15.2Z" class="g0_316"/>
<path fill-rule="evenodd" d="M447.8,357.6H686.2V342.5H447.8v15.1Z" class="g0_316"/>
<path fill-rule="evenodd" d="M447.8,372.6H686.2v-15H447.8v15Z" class="g0_316"/>
<path fill-rule="evenodd" d="M466.1,387.6H686.9v-15H466.1v15Z" class="g0_316"/>
<path fill-rule="evenodd" d="M466.1,402.7H686.9V387.6H466.1v15.1Z" class="g0_316"/>
<path fill-rule="evenodd" d="M447,417.7H686.6v-15H447v15Z" class="g0_316"/>
<path fill-rule="evenodd" d="M447,432.7H686.6v-15H447v15Z" class="g0_316"/>
<path fill-rule="evenodd" d="M447,447.8H686.6V432.7H447v15.1Z" class="g0_316"/>
<path fill-rule="evenodd" d="M447,462.8H686.6v-15H447v15Z" class="g0_316"/>
<path fill-rule="evenodd" d="M447,477.8H686.6v-15H447v15Z" class="g0_316"/>
<path fill-rule="evenodd" d="M447,492.9H686.6V477.8H447v15.1Z" class="g0_316"/>
<path fill-rule="evenodd" d="M447,507.9H686.6v-15H447v15Z" class="g0_316"/>
<path fill-rule="evenodd" d="M447,523.1H686.6V507.9H447v15.2Z" class="g0_316"/>
<path fill-rule="evenodd" d="M447,538.2H686.6V523.1H447v15.1Z" class="g0_316"/>
<path fill-rule="evenodd" d="M447,553.2H686.6v-15H447v15Z" class="g0_316"/>
<path fill-rule="evenodd" d="M465.8,568.2H686.9v-15H465.8v15Z" class="g0_316"/>
<path fill-rule="evenodd" d="M445.9,583.3H686.2V568.2H445.9v15.1Z" class="g0_316"/>
<path fill-rule="evenodd" d="M445.9,598.3H686.2v-15H445.9v15Z" class="g0_316"/>
<path fill-rule="evenodd" d="M445.9,613.4H686.2V598.3H445.9v15.1Z" class="g0_316"/>
<path fill-rule="evenodd" d="M445.9,628.4H686.2v-15H445.9v15Z" class="g0_316"/>
<path fill-rule="evenodd" d="M445.9,643.4H686.2v-15H445.9v15Z" class="g0_316"/>
<path fill-rule="evenodd" d="M446.7,658.5H685.5V643.4H446.7v15.1Z" class="g0_316"/>
<path fill-rule="evenodd" d="M446.7,673.5H685.5v-15H446.7v15Z" class="g0_316"/>
<path fill-rule="evenodd" d="M446.7,688.5H685.5v-15H446.7v15Z" class="g0_316"/>
<path fill-rule="evenodd" d="M446.7,703.7H685.5V688.5H446.7v15.2Z" class="g0_316"/>
<path fill-rule="evenodd" d="M446.7,720.2H685.1V703.7H446.7v16.5Z" class="g0_316"/>
<path fill-rule="evenodd" d="M446.7,736.7H685.1V720.2H446.7v16.5Z" class="g0_316"/>
<path fill-rule="evenodd" d="M445.6,753.2H686.2V736.7H445.6v16.5Z" class="g0_316"/>
<path fill-rule="evenodd" d="M445.6,769.7H686.2V753.2H445.6v16.5Z" class="g0_316"/>
<path fill-rule="evenodd" d="M445.6,786.2H686.2V769.7H445.6v16.5Z" class="g0_316"/>
<path fill-rule="evenodd" d="M445.6,802.7H686.2V786.2H445.6v16.5Z" class="g0_316"/>
<path fill-rule="evenodd" d="M446.3,819.2H685.8V802.7H446.3v16.5Z" class="g0_316"/>
<path fill-rule="evenodd" d="M446.3,835.8H685.8V819.2H446.3v16.6Z" class="g0_316"/>
<path fill-rule="evenodd" d="M446.3,852.3H685.8V835.8H446.3v16.5Z" class="g0_316"/>
<path fill-rule="evenodd" d="M446.3,868.8H685.8V852.3H446.3v16.5Z" class="g0_316"/>
<path fill-rule="evenodd" d="M446.3,885.7H684.7V869.2H446.3v16.5Z" class="g0_316"/>
<path fill-rule="evenodd" d="M446.3,902.2H684.7V885.7H446.3v16.5Z" class="g0_316"/>
<path fill-rule="evenodd" d="M422.8,934.2H692.1V916.8H422.8v17.4Z" class="g0_316"/>
<path d="M435.3,146.4V915.3" class="g1_316"/>
</svg>