<?xml version="1.0" encoding="UTF-8" standalone="no"?>
<!DOCTYPE svg PUBLIC "-//W3C//DTD SVG 1.1//EN"
"http://www.w3.org/Graphics/SVG/1.1/DTD/svg11.dtd">
<svg viewBox="0 0 909 1285" version="1.1" xmlns="http://www.w3.org/2000/svg" xmlns:xlink="http://www.w3.org/1999/xlink">
<defs>
<style type="text/css"><![CDATA[
.g0_96{
fill: #FFFFFF;
}
]]></style>
</defs>
<path fill-rule="evenodd" d="M565.9,127.6H681.8V110H565.9v17.6Z" class="g0_96"/>
<path fill-rule="evenodd" d="M155.1,165.8h59.4V148.2H155.1v17.6Z" class="g0_96"/>
<path fill-rule="evenodd" d="M157,180.8h56.8v-15H157v15Z" class="g0_96"/>
<path fill-rule="evenodd" d="M212,163.2H450v-15H212v15Z" class="g0_96"/>
<path fill-rule="evenodd" d="M212,178.2H450v-15H212v15Z" class="g0_96"/>
<path fill-rule="evenodd" d="M212,193.3H450V178.2H212v15.1Z" class="g0_96"/>
<path fill-rule="evenodd" d="M211.6,208.3H450.7v-15H211.6v15Z" class="g0_96"/>
<path fill-rule="evenodd" d="M211.6,223.3H450.7v-15H211.6v15Z" class="g0_96"/>
<path fill-rule="evenodd" d="M211.6,238.4H450.7V223.3H211.6v15.1Z" class="g0_96"/>
<path fill-rule="evenodd" d="M211.6,253.4H450.7v-15H211.6v15Z" class="g0_96"/>
<path fill-rule="evenodd" d="M211.6,268.6H450V253.4H211.6v15.2Z" class="g0_96"/>
<path fill-rule="evenodd" d="M211.6,283.6H450v-15H211.6v15Z" class="g0_96"/>
<path fill-rule="evenodd" d="M211.6,298.7H450V283.6H211.6v15.1Z" class="g0_96"/>
<path fill-rule="evenodd" d="M211.2,313.7H449.6v-15H211.2v15Z" class="g0_96"/>
<path fill-rule="evenodd" d="M211.2,328.7H449.6v-15H211.2v15Z" class="g0_96"/>
<path fill-rule="evenodd" d="M211.2,343.8H449.6V328.7H211.2v15.1Z" class="g0_96"/>
<path fill-rule="evenodd" d="M211.2,358.9H449.6V343.8H211.2v15.1Z" class="g0_96"/>
<path fill-rule="evenodd" d="M211.2,373.9H449.6v-15H211.2v15Z" class="g0_96"/>
<path fill-rule="evenodd" d="M211.6,388.9h238v-15h-238v15Z" class="g0_96"/>
<path fill-rule="evenodd" d="M211.6,404h238V388.9h-238V404Z" class="g0_96"/>
<path fill-rule="evenodd" d="M211.6,419h238V404h-238v15Z" class="g0_96"/>
<path fill-rule="evenodd" d="M211.6,434.2h238V419h-238v15.2Z" class="g0_96"/>
<path fill-rule="evenodd" d="M211.6,449.2h238v-15h-238v15Z" class="g0_96"/>
<path fill-rule="evenodd" d="M211.6,464.3h238V449.2h-238v15.1Z" class="g0_96"/>
<path fill-rule="evenodd" d="M211.6,479.3h238v-15h-238v15Z" class="g0_96"/>
<path fill-rule="evenodd" d="M210.1,494.3H449.6v-15H210.1v15Z" class="g0_96"/>
<path fill-rule="evenodd" d="M210.1,509.4H449.6V494.3H210.1v15.1Z" class="g0_96"/>
<path fill-rule="evenodd" d="M210.1,524.4H449.6v-15H210.1v15Z" class="g0_96"/>
<path fill-rule="evenodd" d="M210.1,539.4H449.6v-15H210.1v15Z" class="g0_96"/>
<path fill-rule="evenodd" d="M210.1,554.5H449.6V539.4H210.1v15.1Z" class="g0_96"/>
<path fill-rule="evenodd" d="M210.1,569.5H449.6v-15H210.1v15Z" class="g0_96"/>
<path fill-rule="evenodd" d="M210.1,584.5H449.6v-15H210.1v15Z" class="g0_96"/>
<path fill-rule="evenodd" d="M210.1,599.6H449.6V584.5H210.1v15.1Z" class="g0_96"/>
<path fill-rule="evenodd" d="M210.1,614.8H449.6V599.6H210.1v15.2Z" class="g0_96"/>
<path fill-rule="evenodd" d="M210.1,629.9H449.6V614.8H210.1v15.1Z" class="g0_96"/>
<path fill-rule="evenodd" d="M210.9,644.9H448.5v-15H210.9v15Z" class="g0_96"/>
<path fill-rule="evenodd" d="M210.9,659.9H448.5v-15H210.9v15Z" class="g0_96"/>
<path fill-rule="evenodd" d="M210.9,675H448.5V659.9H210.9V675Z" class="g0_96"/>
<path fill-rule="evenodd" d="M210.1,690h238V675h-238v15Z" class="g0_96"/>
<path fill-rule="evenodd" d="M210.1,705h238V690h-238v15Z" class="g0_96"/>
<path fill-rule="evenodd" d="M210.1,720.1h238V705h-238v15.1Z" class="g0_96"/>
<path fill-rule="evenodd" d="M210.1,735.1h238v-15h-238v15Z" class="g0_96"/>
<path fill-rule="evenodd" d="M210.1,750.1h238v-15h-238v15Z" class="g0_96"/>
<path fill-rule="evenodd" d="M210.1,765.2h238V750.1h-238v15.1Z" class="g0_96"/>
<path fill-rule="evenodd" d="M210.1,780.2h238v-15h-238v15Z" class="g0_96"/>
<path fill-rule="evenodd" d="M210.1,795.4h238V780.2h-238v15.2Z" class="g0_96"/>
<path fill-rule="evenodd" d="M210.1,810.4H447.8v-15H210.1v15Z" class="g0_96"/>
<path fill-rule="evenodd" d="M210.1,825.5H447.8V810.4H210.1v15.1Z" class="g0_96"/>
<path fill-rule="evenodd" d="M228.1,840.6H450.7V825.5H228.1v15.1Z" class="g0_96"/>
<path fill-rule="evenodd" d="M228.1,855.6H450.7v-15H228.1v15Z" class="g0_96"/>
<path fill-rule="evenodd" d="M210.1,870.6H447.8v-15H210.1v15Z" class="g0_96"/>
<path fill-rule="evenodd" d="M210.1,885.7H447.8V870.6H210.1v15.1Z" class="g0_96"/>
<path fill-rule="evenodd" d="M210.1,900.7H447.8v-15H210.1v15Z" class="g0_96"/>
<path fill-rule="evenodd" d="M211.6,915.4H450.7V900.7H211.6v14.7Z" class="g0_96"/>
<path fill-rule="evenodd" d="M470.2,162.8H710V148.2H470.2v14.6Z" class="g0_96"/>
<path fill-rule="evenodd" d="M470.2,177.5H710V162.8H470.2v14.7Z" class="g0_96"/>
<path fill-rule="evenodd" d="M470.2,192.2H710V177.5H470.2v14.7Z" class="g0_96"/>
<path fill-rule="evenodd" d="M470.2,206.8H710V192.2H470.2v14.6Z" class="g0_96"/>
<path fill-rule="evenodd" d="M470.2,221.5H710V206.8H470.2v14.7Z" class="g0_96"/>
<path fill-rule="evenodd" d="M470.2,236.2H710V221.5H470.2v14.7Z" class="g0_96"/>
<path fill-rule="evenodd" d="M470.2,250.8H710V236.2H470.2v14.6Z" class="g0_96"/>
<path fill-rule="evenodd" d="M470.2,265.5H710V250.8H470.2v14.7Z" class="g0_96"/>
<path fill-rule="evenodd" d="M470.2,280.2H710V265.5H470.2v14.7Z" class="g0_96"/>
<path fill-rule="evenodd" d="M470.2,294.8H710V280.2H470.2v14.6Z" class="g0_96"/>
<path fill-rule="evenodd" d="M470.2,309.5H710V294.8H470.2v14.7Z" class="g0_96"/>
<path fill-rule="evenodd" d="M470.2,324.2H710V309.5H470.2v14.7Z" class="g0_96"/>
<path fill-rule="evenodd" d="M470.2,338.8H710V324.2H470.2v14.6Z" class="g0_96"/>
<path fill-rule="evenodd" d="M470.2,353.5H708.9V338.8H470.2v14.7Z" class="g0_96"/>
<path fill-rule="evenodd" d="M470.2,368.2H708.9V353.5H470.2v14.7Z" class="g0_96"/>
<path fill-rule="evenodd" d="M470.2,382.9H708.9V368.2H470.2v14.7Z" class="g0_96"/>
<path fill-rule="evenodd" d="M470.2,397.5H708.9V382.9H470.2v14.6Z" class="g0_96"/>
<path fill-rule="evenodd" d="M470.2,412.2H709.3V397.5H470.2v14.7Z" class="g0_96"/>
<path fill-rule="evenodd" d="M470.2,426.9H709.3V412.2H470.2v14.7Z" class="g0_96"/>
<path fill-rule="evenodd" d="M470.2,441.5H709.3V426.9H470.2v14.6Z" class="g0_96"/>
<path fill-rule="evenodd" d="M469.4,456.2H708.9V441.5H469.4v14.7Z" class="g0_96"/>
<path fill-rule="evenodd" d="M469.4,470.9H708.9V456.2H469.4v14.7Z" class="g0_96"/>
<path fill-rule="evenodd" d="M469.4,485.5H708.9V470.9H469.4v14.6Z" class="g0_96"/>
<path fill-rule="evenodd" d="M469.4,500.2H708.9V485.5H469.4v14.7Z" class="g0_96"/>
<path fill-rule="evenodd" d="M469.4,514.9H708.9V500.2H469.4v14.7Z" class="g0_96"/>
<path fill-rule="evenodd" d="M469.4,529.5H708.9V514.9H469.4v14.6Z" class="g0_96"/>
<path fill-rule="evenodd" d="M487.8,544.2H710V529.5H487.8v14.7Z" class="g0_96"/>
<path fill-rule="evenodd" d="M469.4,558.9H708.5V544.2H469.4v14.7Z" class="g0_96"/>
<path fill-rule="evenodd" d="M469.4,573.5H708.5V558.9H469.4v14.6Z" class="g0_96"/>
<path fill-rule="evenodd" d="M468.7,588.2H708.5V573.5H468.7v14.7Z" class="g0_96"/>
<path fill-rule="evenodd" d="M468.7,602.9H708.5V588.2H468.7v14.7Z" class="g0_96"/>
<path fill-rule="evenodd" d="M468.7,617.6H708.5V602.9H468.7v14.7Z" class="g0_96"/>
<path fill-rule="evenodd" d="M468.7,632.2H708.5V617.6H468.7v14.6Z" class="g0_96"/>
<path fill-rule="evenodd" d="M468.7,646.9H708.5V632.2H468.7v14.7Z" class="g0_96"/>
<path fill-rule="evenodd" d="M468.7,661.6H708.5V646.9H468.7v14.7Z" class="g0_96"/>
<path fill-rule="evenodd" d="M487.4,676.2H710V661.6H487.4v14.6Z" class="g0_96"/>
<path fill-rule="evenodd" d="M469.1,690.9H707.8V676.2H469.1v14.7Z" class="g0_96"/>
<path fill-rule="evenodd" d="M469.1,705.6H707.8V690.9H469.1v14.7Z" class="g0_96"/>
<path fill-rule="evenodd" d="M468.7,720.2H708.2V705.6H468.7v14.6Z" class="g0_96"/>
<path fill-rule="evenodd" d="M468.7,734.9H708.2V720.2H468.7v14.7Z" class="g0_96"/>
<path fill-rule="evenodd" d="M468.7,749.6H708.2V734.9H468.7v14.7Z" class="g0_96"/>
<path fill-rule="evenodd" d="M468.7,764.2H708.2V749.6H468.7v14.6Z" class="g0_96"/>
<path fill-rule="evenodd" d="M468.7,778.9H708.2V764.2H468.7v14.7Z" class="g0_96"/>
<path fill-rule="evenodd" d="M468.7,793.6H708.2V778.9H468.7v14.7Z" class="g0_96"/>
<path fill-rule="evenodd" d="M468.7,808.2H707.8V793.6H468.7v14.6Z" class="g0_96"/>
<path fill-rule="evenodd" d="M468.7,822.9H707.8V808.2H468.7v14.7Z" class="g0_96"/>
<path fill-rule="evenodd" d="M468.7,837.6H707.8V822.9H468.7v14.7Z" class="g0_96"/>
<path fill-rule="evenodd" d="M468.7,852.3H708.2V837.6H468.7v14.7Z" class="g0_96"/>
<path fill-rule="evenodd" d="M468.7,867H708.2V852.3H468.7V867Z" class="g0_96"/>
<path fill-rule="evenodd" d="M468.7,881.6H708.2V867H468.7v14.6Z" class="g0_96"/>
<path fill-rule="evenodd" d="M468.7,896.3H708.2V881.6H468.7v14.7Z" class="g0_96"/>
<path fill-rule="evenodd" d="M181.2,929.1h59.4V915H181.2v14.1Z" class="g0_96"/>
<path fill-rule="evenodd" d="M181.2,946.7h59.4V929.1H181.2v17.6Z" class="g0_96"/>
<path fill-rule="evenodd" d="M422.1,933h59.4V915.4H422.1V933Z" class="g0_96"/>
</svg>