<?xml version="1.0" encoding="UTF-8" standalone="no"?>
<!DOCTYPE svg PUBLIC "-//W3C//DTD SVG 1.1//EN"
"http://www.w3.org/Graphics/SVG/1.1/DTD/svg11.dtd">
<svg viewBox="0 0 909 1285" version="1.1" xmlns="http://www.w3.org/2000/svg" xmlns:xlink="http://www.w3.org/1999/xlink">
<defs>
<style type="text/css"><![CDATA[
.g0_203{
fill: #FFFFFF;
}
.g1_203{
fill: none;
stroke: #000000;
stroke-width: 0.763;
stroke-linecap: butt;
stroke-linejoin: round;
}
.g2_203{
fill: none;
stroke: #000000;
stroke-width: 0.381;
stroke-linecap: butt;
stroke-linejoin: round;
}
]]></style>
</defs>
<path fill-rule="evenodd" d="M265.5,125.8h498V110h-498v15.8Z" class="g0_203"/>
<path fill-rule="evenodd" d="M283.9,161.4H505V146.3H283.9v15.1Z" class="g0_203"/>
<path fill-rule="evenodd" d="M265.5,176.4H505v-15H265.5v15Z" class="g0_203"/>
<path fill-rule="evenodd" d="M265.5,191.6H505V176.4H265.5v15.2Z" class="g0_203"/>
<path fill-rule="evenodd" d="M265.5,206.6H505v-15H265.5v15Z" class="g0_203"/>
<path fill-rule="evenodd" d="M265.5,221.7H505V206.6H265.5v15.1Z" class="g0_203"/>
<path fill-rule="evenodd" d="M265.5,236.7H505v-15H265.5v15Z" class="g0_203"/>
<path fill-rule="evenodd" d="M283.5,251.7H505v-15H283.5v15Z" class="g0_203"/>
<path fill-rule="evenodd" d="M283.5,266.8H505V251.7H283.5v15.1Z" class="g0_203"/>
<path fill-rule="evenodd" d="M265.5,281.8H504.6v-15H265.5v15Z" class="g0_203"/>
<path fill-rule="evenodd" d="M265.5,296.8H504.6v-15H265.5v15Z" class="g0_203"/>
<path fill-rule="evenodd" d="M264.8,311.9H504.3V296.8H264.8v15.1Z" class="g0_203"/>
<path fill-rule="evenodd" d="M264.8,326.9H504.3v-15H264.8v15Z" class="g0_203"/>
<path fill-rule="evenodd" d="M264.8,341.9H504.3v-15H264.8v15Z" class="g0_203"/>
<path fill-rule="evenodd" d="M264.8,357.2H504.3V342H264.8v15.2Z" class="g0_203"/>
<path fill-rule="evenodd" d="M264.8,372.2H504.3v-15H264.8v15Z" class="g0_203"/>
<path fill-rule="evenodd" d="M264.8,387.3H504.3V372.2H264.8v15.1Z" class="g0_203"/>
<path fill-rule="evenodd" d="M264.8,402.3H504.3v-15H264.8v15Z" class="g0_203"/>
<path fill-rule="evenodd" d="M264.8,417.3H504.3v-15H264.8v15Z" class="g0_203"/>
<path fill-rule="evenodd" d="M264.8,432.4H503.2V417.3H264.8v15.1Z" class="g0_203"/>
<path fill-rule="evenodd" d="M264.8,447.4H503.2v-15H264.8v15Z" class="g0_203"/>
<path fill-rule="evenodd" d="M264.8,462.4H503.2v-15H264.8v15Z" class="g0_203"/>
<path fill-rule="evenodd" d="M282.4,477.5H505V462.4H282.4v15.1Z" class="g0_203"/>
<path fill-rule="evenodd" d="M264.8,492.5h238v-15h-238v15Z" class="g0_203"/>
<path fill-rule="evenodd" d="M264.8,507.5h238v-15h-238v15Z" class="g0_203"/>
<path fill-rule="evenodd" d="M263.7,522.6H503.2V507.5H263.7v15.1Z" class="g0_203"/>
<path fill-rule="evenodd" d="M263.7,537.8H503.2V522.6H263.7v15.2Z" class="g0_203"/>
<path fill-rule="evenodd" d="M263.7,552.8H503.2v-15H263.7v15Z" class="g0_203"/>
<path fill-rule="evenodd" d="M263.7,567.9H503.2V552.8H263.7v15.1Z" class="g0_203"/>
<path fill-rule="evenodd" d="M263.7,582.9H503.2v-15H263.7v15Z" class="g0_203"/>
<path fill-rule="evenodd" d="M263.7,598H503.2V582.9H263.7V598Z" class="g0_203"/>
<path fill-rule="evenodd" d="M263.7,613H503.2V598H263.7v15Z" class="g0_203"/>
<path fill-rule="evenodd" d="M264,628H502.8V613H264v15Z" class="g0_203"/>
<path fill-rule="evenodd" d="M264,643.1H502.8V628H264v15.1Z" class="g0_203"/>
<path fill-rule="evenodd" d="M264,658.1H502.8v-15H264v15Z" class="g0_203"/>
<path fill-rule="evenodd" d="M263.7,673.1H502.4v-15H263.7v15Z" class="g0_203"/>
<path fill-rule="evenodd" d="M263.7,688.2H502.4V673.1H263.7v15.1Z" class="g0_203"/>
<path fill-rule="evenodd" d="M263.7,703.2H502.4v-15H263.7v15Z" class="g0_203"/>
<path fill-rule="evenodd" d="M263.7,718.4H502.4V703.2H263.7v15.2Z" class="g0_203"/>
<path fill-rule="evenodd" d="M282,733.4H505v-15H282v15Z" class="g0_203"/>
<path fill-rule="evenodd" d="M281.7,748.5H505V733.4H281.7v15.1Z" class="g0_203"/>
<path fill-rule="evenodd" d="M263.7,763.5h238v-15h-238v15Z" class="g0_203"/>
<path fill-rule="evenodd" d="M263.7,778.5h238v-15h-238v15Z" class="g0_203"/>
<path fill-rule="evenodd" d="M281.7,793.6H505V778.5H281.7v15.1Z" class="g0_203"/>
<path fill-rule="evenodd" d="M281.3,808.6H505v-15H281.3v15Z" class="g0_203"/>
<path fill-rule="evenodd" d="M262.6,823.6H501.7v-15H262.6v15Z" class="g0_203"/>
<path fill-rule="evenodd" d="M262.6,838.7H501.7V823.6H262.6v15.1Z" class="g0_203"/>
<path fill-rule="evenodd" d="M262.6,853.8H501.7V838.7H262.6v15.1Z" class="g0_203"/>
<path fill-rule="evenodd" d="M262.6,868.8H501.7v-15H262.6v15Z" class="g0_203"/>
<path fill-rule="evenodd" d="M262.6,883.8H501.7v-15H262.6v15Z" class="g0_203"/>
<path fill-rule="evenodd" d="M284.2,899H505V883.8H284.2V899Z" class="g0_203"/>
<path fill-rule="evenodd" d="M543.3,161.7H763.4v-15H543.3v15Z" class="g0_203"/>
<path fill-rule="evenodd" d="M524.6,176.9H763.4V161.7H524.6v15.2Z" class="g0_203"/>
<path fill-rule="evenodd" d="M524.6,192H763.4V176.9H524.6V192Z" class="g0_203"/>
<path fill-rule="evenodd" d="M524.6,207H763.4V192H524.6v15Z" class="g0_203"/>
<path fill-rule="evenodd" d="M524.6,222H763.4V207H524.6v15Z" class="g0_203"/>
<path fill-rule="evenodd" d="M543,237.4H710.9v-15H543v15Z" class="g0_203"/>
<path fill-rule="evenodd" d="M524.6,252.5H710.9V237.4H524.6v15.1Z" class="g0_203"/>
<path fill-rule="evenodd" d="M524.6,267.5H710.9v-15H524.6v15Z" class="g0_203"/>
<path fill-rule="evenodd" d="M542.2,282.9H723.4v-15H542.2v15Z" class="g0_203"/>
<path fill-rule="evenodd" d="M523.9,297.9H723.4v-15H523.9v15Z" class="g0_203"/>
<path fill-rule="evenodd" d="M523.9,313.2H763.4V297.9H523.9v15.3Z" class="g0_203"/>
<path fill-rule="evenodd" d="M523.9,328.2H763.4v-15H523.9v15Z" class="g0_203"/>
<path fill-rule="evenodd" d="M523.9,343.2H763.4v-15H523.9v15Z" class="g0_203"/>
<path fill-rule="evenodd" d="M523.9,358.3H763.4V343.2H523.9v15.1Z" class="g0_203"/>
<path fill-rule="evenodd" d="M523.9,373.3H763.4v-15H523.9v15Z" class="g0_203"/>
<path fill-rule="evenodd" d="M523.9,388.4H763.4V373.3H523.9v15.1Z" class="g0_203"/>
<path fill-rule="evenodd" d="M523.9,403.4H763.4v-15H523.9v15Z" class="g0_203"/>
<path fill-rule="evenodd" d="M523.9,418.4H762.3v-15H523.9v15Z" class="g0_203"/>
<path fill-rule="evenodd" d="M523.9,433.5H762.3V418.4H523.9v15.1Z" class="g0_203"/>
<path fill-rule="evenodd" d="M523.9,448.5H762.3v-15H523.9v15Z" class="g0_203"/>
<path fill-rule="evenodd" d="M523.9,463.5H762.3v-15H523.9v15Z" class="g0_203"/>
<path fill-rule="evenodd" d="M523.5,479.1H762.6V463.9H523.5v15.2Z" class="g0_203"/>
<path fill-rule="evenodd" d="M523.5,494.2H762.6V479.1H523.5v15.1Z" class="g0_203"/>
<path fill-rule="evenodd" d="M523.5,509.2H762.6v-15H523.5v15Z" class="g0_203"/>
<path fill-rule="evenodd" d="M523.5,524.2H762.6v-15H523.5v15Z" class="g0_203"/>
<path fill-rule="evenodd" d="M541.5,539.3H719.7V524.2H541.5v15.1Z" class="g0_203"/>
<path fill-rule="evenodd" d="M523.5,554.3H719.7v-15H523.5v15Z" class="g0_203"/>
<path fill-rule="evenodd" d="M523.5,569.3H719.7v-15H523.5v15Z" class="g0_203"/>
<path fill-rule="evenodd" d="M523.5,584.4H737V569.3H523.5v15.1Z" class="g0_203"/>
<path fill-rule="evenodd" d="M522.4,599.4H761.9v-15H522.4v15Z" class="g0_203"/>
<path fill-rule="evenodd" d="M522.4,614.5H761.9V599.4H522.4v15.1Z" class="g0_203"/>
<path fill-rule="evenodd" d="M522.8,629.5H761.5v-15H522.8v15Z" class="g0_203"/>
<path fill-rule="evenodd" d="M522.8,644.5H761.5v-15H522.8v15Z" class="g0_203"/>
<path fill-rule="evenodd" d="M522.8,659.7H761.5V644.5H522.8v15.2Z" class="g0_203"/>
<path fill-rule="evenodd" d="M540.8,675.1H763.4v-15H540.8v15Z" class="g0_203"/>
<path fill-rule="evenodd" d="M522.8,690.2H763.4V675.1H522.8v15.1Z" class="g0_203"/>
<path fill-rule="evenodd" d="M540.8,705.6H763.4V690.5H540.8v15.1Z" class="g0_203"/>
<path fill-rule="evenodd" d="M522.8,720.6H761.5v-15H522.8v15Z" class="g0_203"/>
<path fill-rule="evenodd" d="M522.8,735.6H761.5v-15H522.8v15Z" class="g0_203"/>
<path fill-rule="evenodd" d="M522.8,750.7H761.5V735.6H522.8v15.1Z" class="g0_203"/>
<path fill-rule="evenodd" d="M522.4,765.7H761.2v-15H522.4v15Z" class="g0_203"/>
<path fill-rule="evenodd" d="M522.4,780.7H761.2v-15H522.4v15Z" class="g0_203"/>
<path fill-rule="evenodd" d="M522.4,795.8H761.2V780.7H522.4v15.1Z" class="g0_203"/>
<path fill-rule="evenodd" d="M522.4,811H761.5V795.8H522.4V811Z" class="g0_203"/>
<path fill-rule="evenodd" d="M522.4,826H761.5V811H522.4v15Z" class="g0_203"/>
<path fill-rule="evenodd" d="M522.1,841.1H761.5V826H522.1v15.1Z" class="g0_203"/>
<path fill-rule="evenodd" d="M522.1,856.1H761.5v-15H522.1v15Z" class="g0_203"/>
<path fill-rule="evenodd" d="M521.7,871.2H760.4V856.1H521.7v15.1Z" class="g0_203"/>
<path fill-rule="evenodd" d="M521.7,886.2H760.4v-15H521.7v15Z" class="g0_203"/>
<path fill-rule="evenodd" d="M498.4,918.8H763.5V901.2H498.4v17.6Z" class="g0_203"/>
<path fill-rule="evenodd" d="M709.7,253h51.5V236.7H709.7V253Z" class="g0_203"/>
<path fill-rule="evenodd" d="M722.1,296.3h41.1V280.2H722.1v16.1Z" class="g0_203"/>
<path fill-rule="evenodd" d="M718.8,551.9h43.3V536.3H718.8v15.6Z" class="g0_203"/>
<path fill-rule="evenodd" d="M718.8,567.5h43.3V551.9H718.8v15.6Z" class="g0_203"/>
<path d="M189.5,249.8v83.9" class="g1_203"/>
<path d="M207.9,99.1v66m303.9,7.7V916.7" class="g2_203"/>
</svg>