<?xml version="1.0" encoding="UTF-8" standalone="no"?>
<!DOCTYPE svg PUBLIC "-//W3C//DTD SVG 1.1//EN"
"http://www.w3.org/Graphics/SVG/1.1/DTD/svg11.dtd">
<svg viewBox="0 0 909 1285" version="1.1" xmlns="http://www.w3.org/2000/svg" xmlns:xlink="http://www.w3.org/1999/xlink">
<defs>
<style type="text/css"><![CDATA[
.g0_193{
fill: #FFFFFF;
}
.g1_193{
fill: none;
stroke: #000000;
stroke-width: 2.902;
stroke-linecap: butt;
stroke-linejoin: round;
}
.g2_193{
fill: none;
stroke: #000000;
stroke-width: 0.763;
stroke-linecap: butt;
stroke-linejoin: round;
}
.g3_193{
fill: none;
stroke: #000000;
stroke-width: 0.381;
stroke-linecap: butt;
stroke-linejoin: round;
}
]]></style>
</defs>
<path fill-rule="evenodd" d="M271.6,125.8H768.1V110H271.6v15.8Z" class="g0_193"/>
<path fill-rule="evenodd" d="M289.9,161.7H509.6v-15H289.9v15Z" class="g0_193"/>
<path fill-rule="evenodd" d="M271.2,176.9H509.6V161.7H271.2v15.2Z" class="g0_193"/>
<path fill-rule="evenodd" d="M271.2,192H509.6V176.9H271.2V192Z" class="g0_193"/>
<path fill-rule="evenodd" d="M289.6,207h220V192h-220v15Z" class="g0_193"/>
<path fill-rule="evenodd" d="M289.6,222h220V207h-220v15Z" class="g0_193"/>
<path fill-rule="evenodd" d="M271.2,237.1H508.9V222H271.2v15.1Z" class="g0_193"/>
<path fill-rule="evenodd" d="M271.2,252.1H508.9v-15H271.2v15Z" class="g0_193"/>
<path fill-rule="evenodd" d="M289.9,267.5H509.6v-15H289.9v15Z" class="g0_193"/>
<path fill-rule="evenodd" d="M270.9,282.5H509.2v-15H270.9v15Z" class="g0_193"/>
<path fill-rule="evenodd" d="M270.9,297.6H509.2V282.5H270.9v15.1Z" class="g0_193"/>
<path fill-rule="evenodd" d="M270.9,312.6H509.2v-15H270.9v15Z" class="g0_193"/>
<path fill-rule="evenodd" d="M270.9,327.8H509.2V312.6H270.9v15.2Z" class="g0_193"/>
<path fill-rule="evenodd" d="M289.2,342.9H509.6V327.8H289.2v15.1Z" class="g0_193"/>
<path fill-rule="evenodd" d="M270.5,357.9H509.2v-15H270.5v15Z" class="g0_193"/>
<path fill-rule="evenodd" d="M270.5,373H509.2V357.9H270.5V373Z" class="g0_193"/>
<path fill-rule="evenodd" d="M270.5,388H509.2V373H270.5v15Z" class="g0_193"/>
<path fill-rule="evenodd" d="M270.1,403H509.2V388H270.1v15Z" class="g0_193"/>
<path fill-rule="evenodd" d="M270.1,418.1H509.2V403H270.1v15.1Z" class="g0_193"/>
<path fill-rule="evenodd" d="M270.1,433.1H509.2v-15H270.1v15Z" class="g0_193"/>
<path fill-rule="evenodd" d="M270.1,448.1H508.5v-15H270.1v15Z" class="g0_193"/>
<path fill-rule="evenodd" d="M270.1,463.2H508.5V448.1H270.1v15.1Z" class="g0_193"/>
<path fill-rule="evenodd" d="M270.1,478.2H508.5v-15H270.1v15Z" class="g0_193"/>
<path fill-rule="evenodd" d="M270.1,493.2H508.5v-15H270.1v15Z" class="g0_193"/>
<path fill-rule="evenodd" d="M270.1,508.5H508.5V493.2H270.1v15.3Z" class="g0_193"/>
<path fill-rule="evenodd" d="M269.8,523.5H508.5v-15H269.8v15Z" class="g0_193"/>
<path fill-rule="evenodd" d="M269.8,538.5H508.5v-15H269.8v15Z" class="g0_193"/>
<path fill-rule="evenodd" d="M269.8,553.6H508.5V538.5H269.8v15.1Z" class="g0_193"/>
<path fill-rule="evenodd" d="M269.8,568.6H508.5v-15H269.8v15Z" class="g0_193"/>
<path fill-rule="evenodd" d="M269.8,583.6H508.5v-15H269.8v15Z" class="g0_193"/>
<path fill-rule="evenodd" d="M269.4,598.7H508.1V583.6H269.4v15.1Z" class="g0_193"/>
<path fill-rule="evenodd" d="M269.4,613.7H508.1v-15H269.4v15Z" class="g0_193"/>
<path fill-rule="evenodd" d="M269.4,628.8H508.1V613.7H269.4v15.1Z" class="g0_193"/>
<path fill-rule="evenodd" d="M269.4,643.8H508.5v-15H269.4v15Z" class="g0_193"/>
<path fill-rule="evenodd" d="M269.4,658.8H508.5v-15H269.4v15Z" class="g0_193"/>
<path fill-rule="evenodd" d="M269.4,673.9H508.5V658.8H269.4v15.1Z" class="g0_193"/>
<path fill-rule="evenodd" d="M269.4,689.1H507.8V673.9H269.4v15.2Z" class="g0_193"/>
<path fill-rule="evenodd" d="M269.4,704.1H507.8v-15H269.4v15Z" class="g0_193"/>
<path fill-rule="evenodd" d="M269.4,719.1H507.8v-15H269.4v15Z" class="g0_193"/>
<path fill-rule="evenodd" d="M268.7,734.2H507.4V719.1H268.7v15.1Z" class="g0_193"/>
<path fill-rule="evenodd" d="M268.7,749.2H507.4v-15H268.7v15Z" class="g0_193"/>
<path fill-rule="evenodd" d="M268.7,764.2H507.4v-15H268.7v15Z" class="g0_193"/>
<path fill-rule="evenodd" d="M267.9,779.3H507.4V764.2H267.9v15.1Z" class="g0_193"/>
<path fill-rule="evenodd" d="M267.9,794.3H507.4v-15H267.9v15Z" class="g0_193"/>
<path fill-rule="evenodd" d="M267.9,809.3H507.4v-15H267.9v15Z" class="g0_193"/>
<path fill-rule="evenodd" d="M268.3,824.7H507.4v-15H268.3v15Z" class="g0_193"/>
<path fill-rule="evenodd" d="M268.3,839.8H507.4V824.7H268.3v15.1Z" class="g0_193"/>
<path fill-rule="evenodd" d="M268.3,855H507.4V839.8H268.3V855Z" class="g0_193"/>
<path fill-rule="evenodd" d="M268.3,870.1H507.4V855H268.3v15.1Z" class="g0_193"/>
<path fill-rule="evenodd" d="M269,885.1H506.7v-15H269v15Z" class="g0_193"/>
<path fill-rule="evenodd" d="M269,900.1H506.7v-15H269v15Z" class="g0_193"/>
<path fill-rule="evenodd" d="M270.9,915.2H509.2V900.1H270.9v15.1Z" class="g0_193"/>
<path fill-rule="evenodd" d="M530.5,161.7H767.8v-15H530.5v15Z" class="g0_193"/>
<path fill-rule="evenodd" d="M530.5,176.9H767.8V161.7H530.5v15.2Z" class="g0_193"/>
<path fill-rule="evenodd" d="M530.1,192H767.8V176.9H530.1V192Z" class="g0_193"/>
<path fill-rule="evenodd" d="M530.1,207H767.8V192H530.1v15Z" class="g0_193"/>
<path fill-rule="evenodd" d="M530.1,222H767.8V207H530.1v15Z" class="g0_193"/>
<path fill-rule="evenodd" d="M529.8,237.1H768.1V222H529.8v15.1Z" class="g0_193"/>
<path fill-rule="evenodd" d="M529.8,252.1H768.1v-15H529.8v15Z" class="g0_193"/>
<path fill-rule="evenodd" d="M529.8,267.1H768.1v-15H529.8v15Z" class="g0_193"/>
<path fill-rule="evenodd" d="M530.1,282.5h238v-15h-238v15Z" class="g0_193"/>
<path fill-rule="evenodd" d="M530.1,297.6h238V282.5h-238v15.1Z" class="g0_193"/>
<path fill-rule="evenodd" d="M530.1,312.6h238v-15h-238v15Z" class="g0_193"/>
<path fill-rule="evenodd" d="M529.8,328.2h238V313h-238v15.2Z" class="g0_193"/>
<path fill-rule="evenodd" d="M529.8,343.2h238v-15h-238v15Z" class="g0_193"/>
<path fill-rule="evenodd" d="M529,358.3H767.8V343.2H529v15.1Z" class="g0_193"/>
<path fill-rule="evenodd" d="M529,373.3H767.8v-15H529v15Z" class="g0_193"/>
<path fill-rule="evenodd" d="M529,388.4H767.8V373.3H529v15.1Z" class="g0_193"/>
<path fill-rule="evenodd" d="M529,403.4H767.8v-15H529v15Z" class="g0_193"/>
<path fill-rule="evenodd" d="M529.4,418.8h238v-15h-238v15Z" class="g0_193"/>
<path fill-rule="evenodd" d="M529.4,433.8h238v-15h-238v15Z" class="g0_193"/>
<path fill-rule="evenodd" d="M529.4,448.9h238V433.8h-238v15.1Z" class="g0_193"/>
<path fill-rule="evenodd" d="M529.4,463.9h238v-15h-238v15Z" class="g0_193"/>
<path fill-rule="evenodd" d="M529,479.1H767.4V463.9H529v15.2Z" class="g0_193"/>
<path fill-rule="evenodd" d="M529,494.2H767.4V479.1H529v15.1Z" class="g0_193"/>
<path fill-rule="evenodd" d="M529,509.6H767V494.5H529v15.1Z" class="g0_193"/>
<path fill-rule="evenodd" d="M529,524.6H767v-15H529v15Z" class="g0_193"/>
<path fill-rule="evenodd" d="M529,539.6H767v-15H529v15Z" class="g0_193"/>
<path fill-rule="evenodd" d="M529,554.7H767V539.6H529v15.1Z" class="g0_193"/>
<path fill-rule="evenodd" d="M528.7,569.7H767v-15H528.7v15Z" class="g0_193"/>
<path fill-rule="evenodd" d="M528.7,584.7H767v-15H528.7v15Z" class="g0_193"/>
<path fill-rule="evenodd" d="M528.7,599.8H767V584.7H528.7v15.1Z" class="g0_193"/>
<path fill-rule="evenodd" d="M528.7,614.8H767v-15H528.7v15Z" class="g0_193"/>
<path fill-rule="evenodd" d="M528.7,629.9H767V614.8H528.7v15.1Z" class="g0_193"/>
<path fill-rule="evenodd" d="M528.3,645.1H766.7V629.9H528.3v15.2Z" class="g0_193"/>
<path fill-rule="evenodd" d="M528.3,660.1H766.7v-15H528.3v15Z" class="g0_193"/>
<path fill-rule="evenodd" d="M528.3,675.1H767.4v-15H528.3v15Z" class="g0_193"/>
<path fill-rule="evenodd" d="M528.3,690.2H767.4V675.1H528.3v15.1Z" class="g0_193"/>
<path fill-rule="evenodd" d="M527.9,705.2H766.7v-15H527.9v15Z" class="g0_193"/>
<path fill-rule="evenodd" d="M527.9,720.2H766.7v-15H527.9v15Z" class="g0_193"/>
<path fill-rule="evenodd" d="M527.9,735.3H766.7V720.2H527.9v15.1Z" class="g0_193"/>
<path fill-rule="evenodd" d="M527.9,750.3H766.7v-15H527.9v15Z" class="g0_193"/>
<path fill-rule="evenodd" d="M546.3,765.3H768.1v-15H546.3v15Z" class="g0_193"/>
<path fill-rule="evenodd" d="M527.9,780.4H766.7V765.3H527.9v15.1Z" class="g0_193"/>
<path fill-rule="evenodd" d="M527.9,795.4H766.7v-15H527.9v15Z" class="g0_193"/>
<path fill-rule="evenodd" d="M527.6,810.4H765.9v-15H527.6v15Z" class="g0_193"/>
<path fill-rule="evenodd" d="M527.6,825.7H765.9V810.4H527.6v15.3Z" class="g0_193"/>
<path fill-rule="evenodd" d="M527.6,840.7H766.7v-15H527.6v15Z" class="g0_193"/>
<path fill-rule="evenodd" d="M527.6,855.8H766.7V840.7H527.6v15.1Z" class="g0_193"/>
<path fill-rule="evenodd" d="M527.6,870.8H766.7v-15H527.6v15Z" class="g0_193"/>
<path fill-rule="evenodd" d="M527.6,885.8H766.3v-15H527.6v15Z" class="g0_193"/>
<path fill-rule="evenodd" d="M527.6,900.9H766.3V885.8H527.6v15.1Z" class="g0_193"/>
<path fill-rule="evenodd" d="M504.1,932h264V916.3h-264V932Z" class="g0_193"/>
<path d="M188.3,271.8V531.1" class="g1_193"/>
<path d="M196.3,336.6V534.3" class="g2_193"/>
<path d="M206.9,205V596.3m.4,-438.6V275.8m1.5,-82.2v71.9M517.2,147.8V916.4" class="g3_193"/>
</svg>