<?xml version="1.0" encoding="UTF-8" standalone="no"?>
<!DOCTYPE svg PUBLIC "-//W3C//DTD SVG 1.1//EN"
"http://www.w3.org/Graphics/SVG/1.1/DTD/svg11.dtd">
<svg viewBox="0 0 909 1285" version="1.1" xmlns="http://www.w3.org/2000/svg" xmlns:xlink="http://www.w3.org/1999/xlink">
<defs>
<style type="text/css"><![CDATA[
.g0_186{
fill: #FFFFFF;
}
.g1_186{
fill: none;
stroke: #000000;
stroke-width: 0.381;
stroke-linecap: butt;
stroke-linejoin: round;
}
]]></style>
</defs>
<path fill-rule="evenodd" d="M629.1,125.8h59.5V110H629.1v15.8Z" class="g0_186"/>
<path fill-rule="evenodd" d="M190.5,161.4H427.4V146.3H190.5v15.1Z" class="g0_186"/>
<path fill-rule="evenodd" d="M190.5,176.4H427.4v-15H190.5v15Z" class="g0_186"/>
<path fill-rule="evenodd" d="M190.1,191.6H428.5V176.4H190.1v15.2Z" class="g0_186"/>
<path fill-rule="evenodd" d="M190.1,206.6H428.5v-15H190.1v15Z" class="g0_186"/>
<path fill-rule="evenodd" d="M190.1,221.7H428.5V206.6H190.1v15.1Z" class="g0_186"/>
<path fill-rule="evenodd" d="M190.1,236.7H428.5v-15H190.1v15Z" class="g0_186"/>
<path fill-rule="evenodd" d="M190.1,251.7H428.5v-15H190.1v15Z" class="g0_186"/>
<path fill-rule="evenodd" d="M190.1,266.8H428.5V251.7H190.1v15.1Z" class="g0_186"/>
<path fill-rule="evenodd" d="M189.4,281.8H428.1v-15H189.4v15Z" class="g0_186"/>
<path fill-rule="evenodd" d="M189.4,296.8H428.1v-15H189.4v15Z" class="g0_186"/>
<path fill-rule="evenodd" d="M189.4,311.9H428.1V296.8H189.4v15.1Z" class="g0_186"/>
<path fill-rule="evenodd" d="M189.4,326.9H428.1v-15H189.4v15Z" class="g0_186"/>
<path fill-rule="evenodd" d="M189.4,341.9H428.1v-15H189.4v15Z" class="g0_186"/>
<path fill-rule="evenodd" d="M189.4,357.2H428.1V342H189.4v15.2Z" class="g0_186"/>
<path fill-rule="evenodd" d="M189.4,372.2H428.1v-15H189.4v15Z" class="g0_186"/>
<path fill-rule="evenodd" d="M189.4,387.3H428.1V372.2H189.4v15.1Z" class="g0_186"/>
<path fill-rule="evenodd" d="M189.4,402.3H428.1v-15H189.4v15Z" class="g0_186"/>
<path fill-rule="evenodd" d="M189.4,417.3H428.1v-15H189.4v15Z" class="g0_186"/>
<path fill-rule="evenodd" d="M189,432.4H427.8V417.3H189v15.1Z" class="g0_186"/>
<path fill-rule="evenodd" d="M189,447.4H427.8v-15H189v15Z" class="g0_186"/>
<path fill-rule="evenodd" d="M189,462.4H427.8v-15H189v15Z" class="g0_186"/>
<path fill-rule="evenodd" d="M189,477.5H427.4V462.4H189v15.1Z" class="g0_186"/>
<path fill-rule="evenodd" d="M189,492.5H427.4v-15H189v15Z" class="g0_186"/>
<path fill-rule="evenodd" d="M188.7,507.5H427.4v-15H188.7v15Z" class="g0_186"/>
<path fill-rule="evenodd" d="M188.7,522.6H427.4V507.5H188.7v15.1Z" class="g0_186"/>
<path fill-rule="evenodd" d="M188.7,537.8H427.4V522.6H188.7v15.2Z" class="g0_186"/>
<path fill-rule="evenodd" d="M188.7,552.8H427.4v-15H188.7v15Z" class="g0_186"/>
<path fill-rule="evenodd" d="M188.7,567.9H427.4V552.8H188.7v15.1Z" class="g0_186"/>
<path fill-rule="evenodd" d="M188.3,582.9H427.4v-15H188.3v15Z" class="g0_186"/>
<path fill-rule="evenodd" d="M188.3,598H427.4V582.9H188.3V598Z" class="g0_186"/>
<path fill-rule="evenodd" d="M188.3,613H427.4V598H188.3v15Z" class="g0_186"/>
<path fill-rule="evenodd" d="M188.3,628H427.4V613H188.3v15Z" class="g0_186"/>
<path fill-rule="evenodd" d="M187.9,643.1H427.4V628H187.9v15.1Z" class="g0_186"/>
<path fill-rule="evenodd" d="M187.9,658.1H427.4v-15H187.9v15Z" class="g0_186"/>
<path fill-rule="evenodd" d="M187.9,673.1H427.4v-15H187.9v15Z" class="g0_186"/>
<path fill-rule="evenodd" d="M187.9,688.2H427.4V673.1H187.9v15.1Z" class="g0_186"/>
<path fill-rule="evenodd" d="M187.9,703.2H426.7v-15H187.9v15Z" class="g0_186"/>
<path fill-rule="evenodd" d="M187.9,718.4H426.7V703.2H187.9v15.2Z" class="g0_186"/>
<path fill-rule="evenodd" d="M187.9,733.4H426.7v-15H187.9v15Z" class="g0_186"/>
<path fill-rule="evenodd" d="M187.6,748.5H427V733.4H187.6v15.1Z" class="g0_186"/>
<path fill-rule="evenodd" d="M187.6,763.5H427v-15H187.6v15Z" class="g0_186"/>
<path fill-rule="evenodd" d="M187.6,778.5H427v-15H187.6v15Z" class="g0_186"/>
<path fill-rule="evenodd" d="M187.6,793.6H427V778.5H187.6v15.1Z" class="g0_186"/>
<path fill-rule="evenodd" d="M187.6,808.6H427v-15H187.6v15Z" class="g0_186"/>
<path fill-rule="evenodd" d="M187.6,823.6H427v-15H187.6v15Z" class="g0_186"/>
<path fill-rule="evenodd" d="M187.9,838.7H427V823.6H187.9v15.1Z" class="g0_186"/>
<path fill-rule="evenodd" d="M187.9,853.8H427V838.7H187.9v15.1Z" class="g0_186"/>
<path fill-rule="evenodd" d="M187.9,868.8H427v-15H187.9v15Z" class="g0_186"/>
<path fill-rule="evenodd" d="M187.6,883.8H426.7v-15H187.6v15Z" class="g0_186"/>
<path fill-rule="evenodd" d="M187.6,899H426.7V883.8H187.6V899Z" class="g0_186"/>
<path fill-rule="evenodd" d="M189,914.1H427.8V899H189v15.1Z" class="g0_186"/>
<path fill-rule="evenodd" d="M448.5,161.4H686.6V146.3H448.5v15.1Z" class="g0_186"/>
<path fill-rule="evenodd" d="M448.5,176.4H686.6v-15H448.5v15Z" class="g0_186"/>
<path fill-rule="evenodd" d="M448.1,191.6H686.9V176.4H448.1v15.2Z" class="g0_186"/>
<path fill-rule="evenodd" d="M448.1,206.6H686.9v-15H448.1v15Z" class="g0_186"/>
<path fill-rule="evenodd" d="M448.1,221.7H686.9V206.6H448.1v15.1Z" class="g0_186"/>
<path fill-rule="evenodd" d="M448.1,236.7H686.9v-15H448.1v15Z" class="g0_186"/>
<path fill-rule="evenodd" d="M448.1,251.7H687.3v-15H448.1v15Z" class="g0_186"/>
<path fill-rule="evenodd" d="M448.1,266.8H687.3V251.7H448.1v15.1Z" class="g0_186"/>
<path fill-rule="evenodd" d="M448.1,281.8H687.3v-15H448.1v15Z" class="g0_186"/>
<path fill-rule="evenodd" d="M448.1,296.8H687.3v-15H448.1v15Z" class="g0_186"/>
<path fill-rule="evenodd" d="M448.1,311.9H687.3V296.8H448.1v15.1Z" class="g0_186"/>
<path fill-rule="evenodd" d="M448.1,326.9H686.9v-15H448.1v15Z" class="g0_186"/>
<path fill-rule="evenodd" d="M448.1,341.9H686.9v-15H448.1v15Z" class="g0_186"/>
<path fill-rule="evenodd" d="M448.1,357.2H686.9V342H448.1v15.2Z" class="g0_186"/>
<path fill-rule="evenodd" d="M448.1,372.2H686.9v-15H448.1v15Z" class="g0_186"/>
<path fill-rule="evenodd" d="M448.1,387.3H686.6V372.2H448.1v15.1Z" class="g0_186"/>
<path fill-rule="evenodd" d="M448.1,402.3H686.6v-15H448.1v15Z" class="g0_186"/>
<path fill-rule="evenodd" d="M448.1,417.3H686.6v-15H448.1v15Z" class="g0_186"/>
<path fill-rule="evenodd" d="M447.8,432.4H686.6V417.3H447.8v15.1Z" class="g0_186"/>
<path fill-rule="evenodd" d="M447.8,447.4H686.6v-15H447.8v15Z" class="g0_186"/>
<path fill-rule="evenodd" d="M447.8,462.8H686.6V447.4H447.8v15.4Z" class="g0_186"/>
<path fill-rule="evenodd" d="M447.8,477.8H686.6v-15H447.8v15Z" class="g0_186"/>
<path fill-rule="evenodd" d="M447.8,492.9H686.6V477.8H447.8v15.1Z" class="g0_186"/>
<path fill-rule="evenodd" d="M447.8,507.9H686.6v-15H447.8v15Z" class="g0_186"/>
<path fill-rule="evenodd" d="M447.8,523.1H686.6V507.9H447.8v15.2Z" class="g0_186"/>
<path fill-rule="evenodd" d="M447.8,538.2H686.6V523.1H447.8v15.1Z" class="g0_186"/>
<path fill-rule="evenodd" d="M447.4,553.2H686.2v-15H447.4v15Z" class="g0_186"/>
<path fill-rule="evenodd" d="M447.4,568.2H686.2v-15H447.4v15Z" class="g0_186"/>
<path fill-rule="evenodd" d="M447.4,583.3H686.2V568.2H447.4v15.1Z" class="g0_186"/>
<path fill-rule="evenodd" d="M447.4,598.3H686.2v-15H447.4v15Z" class="g0_186"/>
<path fill-rule="evenodd" d="M447,613.4H686.2V598.3H447v15.1Z" class="g0_186"/>
<path fill-rule="evenodd" d="M447,628.4H686.2v-15H447v15Z" class="g0_186"/>
<path fill-rule="evenodd" d="M447,643.4H686.2v-15H447v15Z" class="g0_186"/>
<path fill-rule="evenodd" d="M447,658.5H686.2V643.4H447v15.1Z" class="g0_186"/>
<path fill-rule="evenodd" d="M447,673.5H686.2v-15H447v15Z" class="g0_186"/>
<path fill-rule="evenodd" d="M447,688.5H686.2v-15H447v15Z" class="g0_186"/>
<path fill-rule="evenodd" d="M447,703.7H686.2V688.5H447v15.2Z" class="g0_186"/>
<path fill-rule="evenodd" d="M447,718.8H686.2V703.7H447v15.1Z" class="g0_186"/>
<path fill-rule="evenodd" d="M447,733.8H686.2v-15H447v15Z" class="g0_186"/>
<path fill-rule="evenodd" d="M447,748.8H686.2v-15H447v15Z" class="g0_186"/>
<path fill-rule="evenodd" d="M447,763.9H686.2V748.8H447v15.1Z" class="g0_186"/>
<path fill-rule="evenodd" d="M465.4,778.9H687.3v-15H465.4v15Z" class="g0_186"/>
<path fill-rule="evenodd" d="M447,793.9H685.5v-15H447v15Z" class="g0_186"/>
<path fill-rule="evenodd" d="M447,809H685.5V793.9H447V809Z" class="g0_186"/>
<path fill-rule="evenodd" d="M447,824H686.2V809H447v15Z" class="g0_186"/>
<path fill-rule="evenodd" d="M447,839.1H686.2V824H447v15.1Z" class="g0_186"/>
<path fill-rule="evenodd" d="M447,854.1H686.2v-15H447v15Z" class="g0_186"/>
<path fill-rule="evenodd" d="M447,869.2H686.2V854.1H447v15.1Z" class="g0_186"/>
<path fill-rule="evenodd" d="M447,884.4H686.2V869.2H447v15.2Z" class="g0_186"/>
<path fill-rule="evenodd" d="M447,899.4H686.2v-15H447v15Z" class="g0_186"/>
<path d="M436.4,146V914.9" class="g1_186"/>
</svg>