<?xml version="1.0" encoding="UTF-8" standalone="no"?>
<!DOCTYPE svg PUBLIC "-//W3C//DTD SVG 1.1//EN"
"http://www.w3.org/Graphics/SVG/1.1/DTD/svg11.dtd">
<svg viewBox="0 0 909 1285" version="1.1" xmlns="http://www.w3.org/2000/svg" xmlns:xlink="http://www.w3.org/1999/xlink">
<defs>
<style type="text/css"><![CDATA[
.g0_319{
fill: #FFFFFF;
}
.g1_319{
fill: none;
stroke: #000000;
stroke-width: 4.048;
stroke-linecap: butt;
stroke-linejoin: round;
}
.g2_319{
fill: none;
stroke: #000000;
stroke-width: 1.069;
stroke-linecap: butt;
stroke-linejoin: round;
}
.g3_319{
fill: none;
stroke: #000000;
stroke-width: 0.381;
stroke-linecap: butt;
stroke-linejoin: round;
}
.g4_319{
fill: none;
stroke: #000000;
stroke-width: 0.763;
stroke-linecap: butt;
stroke-linejoin: round;
}
]]></style>
</defs>
<path fill-rule="evenodd" d="M262.9,125.8H761.3V110H262.9v15.8Z" class="g0_319"/>
<path fill-rule="evenodd" d="M262.9,161.7H501v-15H262.9v15Z" class="g0_319"/>
<path fill-rule="evenodd" d="M262.9,176.9H501V161.7H262.9v15.2Z" class="g0_319"/>
<path fill-rule="evenodd" d="M262.2,192H501.7V176.9H262.2V192Z" class="g0_319"/>
<path fill-rule="evenodd" d="M262.2,207H501.7V192H262.2v15Z" class="g0_319"/>
<path fill-rule="evenodd" d="M262.2,222H501.7V207H262.2v15Z" class="g0_319"/>
<path fill-rule="evenodd" d="M262.2,237.1H501.7V222H262.2v15.1Z" class="g0_319"/>
<path fill-rule="evenodd" d="M262.6,252.1H501.3v-15H262.6v15Z" class="g0_319"/>
<path fill-rule="evenodd" d="M262.6,267.1H501.3v-15H262.6v15Z" class="g0_319"/>
<path fill-rule="evenodd" d="M262.6,282.2H501.3V267.1H262.6v15.1Z" class="g0_319"/>
<path fill-rule="evenodd" d="M262.2,297.2H501.3v-15H262.2v15Z" class="g0_319"/>
<path fill-rule="evenodd" d="M262.2,312.2H501.3v-15H262.2v15Z" class="g0_319"/>
<path fill-rule="evenodd" d="M281.3,327.3H501.7V312.2H281.3v15.1Z" class="g0_319"/>
<path fill-rule="evenodd" d="M262.6,342.5H501.7V327.3H262.6v15.2Z" class="g0_319"/>
<path fill-rule="evenodd" d="M262.6,357.6H501.7V342.5H262.6v15.1Z" class="g0_319"/>
<path fill-rule="evenodd" d="M262.6,372.6h238v-15h-238v15Z" class="g0_319"/>
<path fill-rule="evenodd" d="M262.6,387.6h238v-15h-238v15Z" class="g0_319"/>
<path fill-rule="evenodd" d="M261.5,402.7H501V387.6H261.5v15.1Z" class="g0_319"/>
<path fill-rule="evenodd" d="M261.5,417.7H501v-15H261.5v15Z" class="g0_319"/>
<path fill-rule="evenodd" d="M261.5,432.7H501v-15H261.5v15Z" class="g0_319"/>
<path fill-rule="evenodd" d="M261.5,447.8H501V432.7H261.5v15.1Z" class="g0_319"/>
<path fill-rule="evenodd" d="M261.5,462.8H501v-15H261.5v15Z" class="g0_319"/>
<path fill-rule="evenodd" d="M261.5,477.8H501v-15H261.5v15Z" class="g0_319"/>
<path fill-rule="evenodd" d="M261.5,492.9H501V477.8H261.5v15.1Z" class="g0_319"/>
<path fill-rule="evenodd" d="M261.5,507.9H501v-15H261.5v15Z" class="g0_319"/>
<path fill-rule="evenodd" d="M261.5,523.1H501V507.9H261.5v15.2Z" class="g0_319"/>
<path fill-rule="evenodd" d="M261.5,538.2H501V523.1H261.5v15.1Z" class="g0_319"/>
<path fill-rule="evenodd" d="M261.5,553.2H501v-15H261.5v15Z" class="g0_319"/>
<path fill-rule="evenodd" d="M261.5,568.2H501v-15H261.5v15Z" class="g0_319"/>
<path fill-rule="evenodd" d="M261.5,583.3H501V568.2H261.5v15.1Z" class="g0_319"/>
<path fill-rule="evenodd" d="M261.5,598.3H501v-15H261.5v15Z" class="g0_319"/>
<path fill-rule="evenodd" d="M261.5,613.4H501V598.3H261.5v15.1Z" class="g0_319"/>
<path fill-rule="evenodd" d="M261.5,628.4H501v-15H261.5v15Z" class="g0_319"/>
<path fill-rule="evenodd" d="M261.5,643.4H499.9v-15H261.5v15Z" class="g0_319"/>
<path fill-rule="evenodd" d="M261.5,658.5H499.9V643.4H261.5v15.1Z" class="g0_319"/>
<path fill-rule="evenodd" d="M261.5,673.5H499.9v-15H261.5v15Z" class="g0_319"/>
<path fill-rule="evenodd" d="M261.5,688.5H499.9v-15H261.5v15Z" class="g0_319"/>
<path fill-rule="evenodd" d="M261.5,703.7H499.9V688.5H261.5v15.2Z" class="g0_319"/>
<path fill-rule="evenodd" d="M260.7,718.8H500.2V703.7H260.7v15.1Z" class="g0_319"/>
<path fill-rule="evenodd" d="M260.7,733.8H500.2v-15H260.7v15Z" class="g0_319"/>
<path fill-rule="evenodd" d="M260.7,748.8H500.2v-15H260.7v15Z" class="g0_319"/>
<path fill-rule="evenodd" d="M260.7,763.9H500.2V748.8H260.7v15.1Z" class="g0_319"/>
<path fill-rule="evenodd" d="M261.5,778.9H501.7v-15H261.5v15Z" class="g0_319"/>
<path fill-rule="evenodd" d="M521.5,162.3H761.3V147.1H521.5v15.2Z" class="g0_319"/>
<path fill-rule="evenodd" d="M521.5,177.3H761.3v-15H521.5v15Z" class="g0_319"/>
<path fill-rule="evenodd" d="M521.5,192.3H761.3v-15H521.5v15Z" class="g0_319"/>
<path fill-rule="evenodd" d="M521.5,207.4H761.3V192.3H521.5v15.1Z" class="g0_319"/>
<path fill-rule="evenodd" d="M522.2,222.4H761.3v-15H522.2v15Z" class="g0_319"/>
<path fill-rule="evenodd" d="M522.2,237.4H761.3v-15H522.2v15Z" class="g0_319"/>
<path fill-rule="evenodd" d="M522.2,252.5h238V237.4h-238v15.1Z" class="g0_319"/>
<path fill-rule="evenodd" d="M522.2,267.5h238v-15h-238v15Z" class="g0_319"/>
<path fill-rule="evenodd" d="M521.9,282.5H761v-15H521.9v15Z" class="g0_319"/>
<path fill-rule="evenodd" d="M521.9,297.6H761V282.5H521.9v15.1Z" class="g0_319"/>
<path fill-rule="evenodd" d="M521.9,312.6H761v-15H521.9v15Z" class="g0_319"/>
<path fill-rule="evenodd" d="M521.9,327.8H761V312.6H521.9v15.2Z" class="g0_319"/>
<path fill-rule="evenodd" d="M521.9,342.9H761V327.8H521.9v15.1Z" class="g0_319"/>
<path fill-rule="evenodd" d="M521.9,357.9H761v-15H521.9v15Z" class="g0_319"/>
<path fill-rule="evenodd" d="M521.9,373H761V357.9H521.9V373Z" class="g0_319"/>
<path fill-rule="evenodd" d="M540.2,388H761.3V373H540.2v15Z" class="g0_319"/>
<path fill-rule="evenodd" d="M521.5,403H761V388H521.5v15Z" class="g0_319"/>
<path fill-rule="evenodd" d="M521.5,418.1H761V403H521.5v15.1Z" class="g0_319"/>
<path fill-rule="evenodd" d="M521.5,433.1H761v-15H521.5v15Z" class="g0_319"/>
<path fill-rule="evenodd" d="M521.1,448.1H760.6v-15H521.1v15Z" class="g0_319"/>
<path fill-rule="evenodd" d="M521.1,463.2H760.6V448.1H521.1v15.1Z" class="g0_319"/>
<path fill-rule="evenodd" d="M521.1,478.2H760.6v-15H521.1v15Z" class="g0_319"/>
<path fill-rule="evenodd" d="M521.9,493.2H760.2v-15H521.9v15Z" class="g0_319"/>
<path fill-rule="evenodd" d="M521.9,508.5H760.2V493.2H521.9v15.3Z" class="g0_319"/>
<path fill-rule="evenodd" d="M521.9,523.5H760.2v-15H521.9v15Z" class="g0_319"/>
<path fill-rule="evenodd" d="M521.1,538.5H759.9v-15H521.1v15Z" class="g0_319"/>
<path fill-rule="evenodd" d="M521.1,553.6H759.9V538.5H521.1v15.1Z" class="g0_319"/>
<path fill-rule="evenodd" d="M539.8,568.6H761.3v-15H539.8v15Z" class="g0_319"/>
<path fill-rule="evenodd" d="M521.9,583.6h238v-15h-238v15Z" class="g0_319"/>
<path fill-rule="evenodd" d="M521.9,598.7h238V583.6h-238v15.1Z" class="g0_319"/>
<path fill-rule="evenodd" d="M521.1,613.7H759.5v-15H521.1v15Z" class="g0_319"/>
<path fill-rule="evenodd" d="M521.1,628.8H759.5V613.7H521.1v15.1Z" class="g0_319"/>
<path fill-rule="evenodd" d="M521.1,643.8H759.5v-15H521.1v15Z" class="g0_319"/>
<path fill-rule="evenodd" d="M521.1,659.2H759.9v-15H521.1v15Z" class="g0_319"/>
<path fill-rule="evenodd" d="M521.1,674.4H759.9V659.2H521.1v15.2Z" class="g0_319"/>
<path fill-rule="evenodd" d="M521.1,689.4H759.5v-15H521.1v15Z" class="g0_319"/>
<path fill-rule="evenodd" d="M521.1,704.5H759.5V689.4H521.1v15.1Z" class="g0_319"/>
<path fill-rule="evenodd" d="M521.1,719.5H759.5v-15H521.1v15Z" class="g0_319"/>
<path fill-rule="evenodd" d="M539.1,734.5H761.3v-15H539.1v15Z" class="g0_319"/>
<path fill-rule="evenodd" d="M520.8,749.6H759.1V734.5H520.8v15.1Z" class="g0_319"/>
<path fill-rule="evenodd" d="M520.8,764.6H759.1v-15H520.8v15Z" class="g0_319"/>
<path fill-rule="evenodd" d="M496.9,924.5H761.3V908.8H496.9v15.7Z" class="g0_319"/>
<path d="M191,119.2V352.4" class="g1_319"/>
<path d="M204.6,92V581.2" class="g2_319"/>
<path d="M210.1,92V306.5m-9.2,224.9v85.4M201.3,348v53.2" class="g3_319"/>
<path d="M208.6,648v93.9" class="g4_319"/>
<path d="M209.3,253.8V994.1m2.6,-609.4V667.4M510.4,148.2V788" class="g3_319"/>
</svg>