<?xml version="1.0" encoding="UTF-8" standalone="no"?>
<!DOCTYPE svg PUBLIC "-//W3C//DTD SVG 1.1//EN"
"http://www.w3.org/Graphics/SVG/1.1/DTD/svg11.dtd">
<svg viewBox="0 0 909 1285" version="1.1" xmlns="http://www.w3.org/2000/svg" xmlns:xlink="http://www.w3.org/1999/xlink">
<defs>
<style type="text/css"><![CDATA[
.g0_70{
fill: #FFFFFF;
}
]]></style>
</defs>
<path fill-rule="evenodd" d="M613.5,125.8h82.2V110H613.5v15.8Z" class="g0_70"/>
<path fill-rule="evenodd" d="M195.1,161.7H434.6v-15H195.1v15Z" class="g0_70"/>
<path fill-rule="evenodd" d="M195.1,176.9H434.6V161.7H195.1v15.2Z" class="g0_70"/>
<path fill-rule="evenodd" d="M195.1,192H434.9V176.9H195.1V192Z" class="g0_70"/>
<path fill-rule="evenodd" d="M195.1,207H434.9V192H195.1v15Z" class="g0_70"/>
<path fill-rule="evenodd" d="M195.1,222H434.9V207H195.1v15Z" class="g0_70"/>
<path fill-rule="evenodd" d="M194.7,237.1H434.9V222H194.7v15.1Z" class="g0_70"/>
<path fill-rule="evenodd" d="M194.7,252.1H434.9v-15H194.7v15Z" class="g0_70"/>
<path fill-rule="evenodd" d="M194.7,267.1H434.9v-15H194.7v15Z" class="g0_70"/>
<path fill-rule="evenodd" d="M194,282.2H434.6V267.1H194v15.1Z" class="g0_70"/>
<path fill-rule="evenodd" d="M194,297.2H434.6v-15H194v15Z" class="g0_70"/>
<path fill-rule="evenodd" d="M194,312.2H434.6v-15H194v15Z" class="g0_70"/>
<path fill-rule="evenodd" d="M194,327.3H434.6V312.2H194v15.1Z" class="g0_70"/>
<path fill-rule="evenodd" d="M194,342.5H434.6V327.3H194v15.2Z" class="g0_70"/>
<path fill-rule="evenodd" d="M194,357.6H434.6V342.5H194v15.1Z" class="g0_70"/>
<path fill-rule="evenodd" d="M213.1,372.6H451.8v-15H213.1v15Z" class="g0_70"/>
<path fill-rule="evenodd" d="M194.7,387.6H451.8v-15H194.7v15Z" class="g0_70"/>
<path fill-rule="evenodd" d="M194,402.7H433.8V387.6H194v15.1Z" class="g0_70"/>
<path fill-rule="evenodd" d="M194,417.7H433.8v-15H194v15Z" class="g0_70"/>
<path fill-rule="evenodd" d="M194,432.7H433.8v-15H194v15Z" class="g0_70"/>
<path fill-rule="evenodd" d="M194,447.8H434.2V432.7H194v15.1Z" class="g0_70"/>
<path fill-rule="evenodd" d="M194,462.8H434.2v-15H194v15Z" class="g0_70"/>
<path fill-rule="evenodd" d="M194,477.8H434.2v-15H194v15Z" class="g0_70"/>
<path fill-rule="evenodd" d="M212.3,492.9H451.8V477.8H212.3v15.1Z" class="g0_70"/>
<path fill-rule="evenodd" d="M212.3,507.9H451.8v-15H212.3v15Z" class="g0_70"/>
<path fill-rule="evenodd" d="M212.3,523.1H451.8V507.9H212.3v15.2Z" class="g0_70"/>
<path fill-rule="evenodd" d="M193.6,538.2H433.8V523.1H193.6v15.1Z" class="g0_70"/>
<path fill-rule="evenodd" d="M193.6,553.2H433.8v-15H193.6v15Z" class="g0_70"/>
<path fill-rule="evenodd" d="M193.6,568.2H433.8v-15H193.6v15Z" class="g0_70"/>
<path fill-rule="evenodd" d="M193.6,583.3H433.8V568.2H193.6v15.1Z" class="g0_70"/>
<path fill-rule="evenodd" d="M193.6,598.3H433.8v-15H193.6v15Z" class="g0_70"/>
<path fill-rule="evenodd" d="M193.6,613.4H433.8V598.3H193.6v15.1Z" class="g0_70"/>
<path fill-rule="evenodd" d="M193.6,628.4H433.5v-15H193.6v15Z" class="g0_70"/>
<path fill-rule="evenodd" d="M193.6,643.4H433.5v-15H193.6v15Z" class="g0_70"/>
<path fill-rule="evenodd" d="M212,658.5H451.8V643.4H212v15.1Z" class="g0_70"/>
<path fill-rule="evenodd" d="M212,673.5H451.8v-15H212v15Z" class="g0_70"/>
<path fill-rule="evenodd" d="M212,688.5H451.8v-15H212v15Z" class="g0_70"/>
<path fill-rule="evenodd" d="M193.6,703.7H433.5V688.5H193.6v15.2Z" class="g0_70"/>
<path fill-rule="evenodd" d="M193.6,718.8H433.5V703.7H193.6v15.1Z" class="g0_70"/>
<path fill-rule="evenodd" d="M193.6,733.8H433.5v-15H193.6v15Z" class="g0_70"/>
<path fill-rule="evenodd" d="M193.6,748.8H433.5v-15H193.6v15Z" class="g0_70"/>
<path fill-rule="evenodd" d="M193.6,763.9H433.5V748.8H193.6v15.1Z" class="g0_70"/>
<path fill-rule="evenodd" d="M194,778.9H433.1v-15H194v15Z" class="g0_70"/>
<path fill-rule="evenodd" d="M194,793.9H433.1v-15H194v15Z" class="g0_70"/>
<path fill-rule="evenodd" d="M211.6,809H451.8V793.9H211.6V809Z" class="g0_70"/>
<path fill-rule="evenodd" d="M193.6,824H432.7V809H193.6v15Z" class="g0_70"/>
<path fill-rule="evenodd" d="M193.6,839.1H432.7V824H193.6v15.1Z" class="g0_70"/>
<path fill-rule="evenodd" d="M193.6,854.1H432.7v-15H193.6v15Z" class="g0_70"/>
<path fill-rule="evenodd" d="M193.6,869.2H432.7V854.1H193.6v15.1Z" class="g0_70"/>
<path fill-rule="evenodd" d="M193.6,901.2H451.8V885.3H193.6v15.9Z" class="g0_70"/>
<path fill-rule="evenodd" d="M195.8,916.3h256V901.2h-256v15.1Z" class="g0_70"/>
<path fill-rule="evenodd" d="M455.5,161.7H695.7v-15H455.5v15Z" class="g0_70"/>
<path fill-rule="evenodd" d="M455.5,176.9H695.7V161.7H455.5v15.2Z" class="g0_70"/>
<path fill-rule="evenodd" d="M455.1,192H695.7V176.9H455.1V192Z" class="g0_70"/>
<path fill-rule="evenodd" d="M455.1,207H695.7V192H455.1v15Z" class="g0_70"/>
<path fill-rule="evenodd" d="M455.5,222H695.3V207H455.5v15Z" class="g0_70"/>
<path fill-rule="evenodd" d="M455.5,237.1H695.3V222H455.5v15.1Z" class="g0_70"/>
<path fill-rule="evenodd" d="M455.5,252.1H695.3v-15H455.5v15Z" class="g0_70"/>
<path fill-rule="evenodd" d="M455.1,267.1H695v-15H455.1v15Z" class="g0_70"/>
<path fill-rule="evenodd" d="M455.1,282.2H695V267.1H455.1v15.1Z" class="g0_70"/>
<path fill-rule="evenodd" d="M455.1,297.2H695.3v-15H455.1v15Z" class="g0_70"/>
<path fill-rule="evenodd" d="M455.1,312.2H695.3v-15H455.1v15Z" class="g0_70"/>
<path fill-rule="evenodd" d="M473.5,327.3H695.7V312.2H473.5v15.1Z" class="g0_70"/>
<path fill-rule="evenodd" d="M455.1,342.9H695.7V327.6H455.1v15.3Z" class="g0_70"/>
<path fill-rule="evenodd" d="M454.8,357.9H695v-15H454.8v15Z" class="g0_70"/>
<path fill-rule="evenodd" d="M454.8,373H695V357.9H454.8V373Z" class="g0_70"/>
<path fill-rule="evenodd" d="M454.8,388H695V373H454.8v15Z" class="g0_70"/>
<path fill-rule="evenodd" d="M454.8,403H695V388H454.8v15Z" class="g0_70"/>
<path fill-rule="evenodd" d="M454.8,418.1H695V403H454.8v15.1Z" class="g0_70"/>
<path fill-rule="evenodd" d="M454.8,433.1H694.6v-15H454.8v15Z" class="g0_70"/>
<path fill-rule="evenodd" d="M454.8,448.1H694.6v-15H454.8v15Z" class="g0_70"/>
<path fill-rule="evenodd" d="M454.8,463.2H694.6V448.1H454.8v15.1Z" class="g0_70"/>
<path fill-rule="evenodd" d="M454.4,478.2H694.2v-15H454.4v15Z" class="g0_70"/>
<path fill-rule="evenodd" d="M454.4,493.2H694.2v-15H454.4v15Z" class="g0_70"/>
<path fill-rule="evenodd" d="M454,508.5H694.6V493.2H454v15.3Z" class="g0_70"/>
<path fill-rule="evenodd" d="M454,523.5H694.6v-15H454v15Z" class="g0_70"/>
<path fill-rule="evenodd" d="M454,538.5H694.6v-15H454v15Z" class="g0_70"/>
<path fill-rule="evenodd" d="M454,553.6H694.6V538.5H454v15.1Z" class="g0_70"/>
<path fill-rule="evenodd" d="M454,568.6H694.6v-15H454v15Z" class="g0_70"/>
<path fill-rule="evenodd" d="M454,583.6H694.6v-15H454v15Z" class="g0_70"/>
<path fill-rule="evenodd" d="M454,598.7H694.6V583.6H454v15.1Z" class="g0_70"/>
<path fill-rule="evenodd" d="M454,613.7H694.6v-15H454v15Z" class="g0_70"/>
<path fill-rule="evenodd" d="M454,628.8H694.6V613.7H454v15.1Z" class="g0_70"/>
<path fill-rule="evenodd" d="M454,643.8H694.6v-15H454v15Z" class="g0_70"/>
<path fill-rule="evenodd" d="M472.4,659.2H695.7v-15H472.4v15Z" class="g0_70"/>
<path fill-rule="evenodd" d="M454,674.4H694.2V659.2H454v15.2Z" class="g0_70"/>
<path fill-rule="evenodd" d="M454,689.4H694.2v-15H454v15Z" class="g0_70"/>
<path fill-rule="evenodd" d="M454,704.5H694.2V689.4H454v15.1Z" class="g0_70"/>
<path fill-rule="evenodd" d="M453.7,719.5H693.9v-15H453.7v15Z" class="g0_70"/>
<path fill-rule="evenodd" d="M453.7,734.5H693.9v-15H453.7v15Z" class="g0_70"/>
<path fill-rule="evenodd" d="M453.3,749.6H693.9V734.5H453.3v15.1Z" class="g0_70"/>
<path fill-rule="evenodd" d="M453.3,764.6H693.9v-15H453.3v15Z" class="g0_70"/>
<path fill-rule="evenodd" d="M453.3,779.6H693.9v-15H453.3v15Z" class="g0_70"/>
<path fill-rule="evenodd" d="M454.4,794.7H693.5V779.6H454.4v15.1Z" class="g0_70"/>
<path fill-rule="evenodd" d="M454.4,809.7H693.5v-15H454.4v15Z" class="g0_70"/>
<path fill-rule="evenodd" d="M453.3,824.7H694.2v-15H453.3v15Z" class="g0_70"/>
<path fill-rule="evenodd" d="M453.3,839.8H694.2V824.7H453.3v15.1Z" class="g0_70"/>
<path fill-rule="evenodd" d="M453.7,855H693.9V839.8H453.7V855Z" class="g0_70"/>
<path fill-rule="evenodd" d="M453.7,870.1H693.9V855H453.7v15.1Z" class="g0_70"/>
<path fill-rule="evenodd" d="M453.7,885.1H693.9v-15H453.7v15Z" class="g0_70"/>
</svg>