<?xml version="1.0" encoding="UTF-8" standalone="no"?>
<!DOCTYPE svg PUBLIC "-//W3C//DTD SVG 1.1//EN"
"http://www.w3.org/Graphics/SVG/1.1/DTD/svg11.dtd">
<svg viewBox="0 0 909 1285" version="1.1" xmlns="http://www.w3.org/2000/svg" xmlns:xlink="http://www.w3.org/1999/xlink">
<defs>
<style type="text/css"><![CDATA[
.g0_49{
fill: #FFFFFF;
}
.g1_49{
fill: none;
stroke: #000000;
stroke-width: 0.381;
stroke-linecap: butt;
stroke-linejoin: round;
}
]]></style>
</defs>
<path fill-rule="evenodd" d="M237.8,125.8H776.9V110H237.8v15.8Z" class="g0_49"/>
<path fill-rule="evenodd" d="M236.7,161.7H494.9v-15H236.7v15Z" class="g0_49"/>
<path fill-rule="evenodd" d="M236.7,176.9H494.9V161.7H236.7v15.2Z" class="g0_49"/>
<path fill-rule="evenodd" d="M236.7,192H494.9V176.9H236.7V192Z" class="g0_49"/>
<path fill-rule="evenodd" d="M236.7,207H494.9V192H236.7v15Z" class="g0_49"/>
<path fill-rule="evenodd" d="M236.7,222H494.9V207H236.7v15Z" class="g0_49"/>
<path fill-rule="evenodd" d="M236.7,237.1H494.9V222H236.7v15.1Z" class="g0_49"/>
<path fill-rule="evenodd" d="M236.7,252.1H494.9v-15H236.7v15Z" class="g0_49"/>
<path fill-rule="evenodd" d="M236.7,267.1H494.9v-15H236.7v15Z" class="g0_49"/>
<path fill-rule="evenodd" d="M236.7,282.2H494.9V267.1H236.7v15.1Z" class="g0_49"/>
<path fill-rule="evenodd" d="M236.7,297.2H494.9v-15H236.7v15Z" class="g0_49"/>
<path fill-rule="evenodd" d="M236.7,312.2H494.9v-15H236.7v15Z" class="g0_49"/>
<path fill-rule="evenodd" d="M236.7,327.3H494.9V312.2H236.7v15.1Z" class="g0_49"/>
<path fill-rule="evenodd" d="M236.7,342.5H494.9V327.3H236.7v15.2Z" class="g0_49"/>
<path fill-rule="evenodd" d="M236.7,357.6H494.9V342.5H236.7v15.1Z" class="g0_49"/>
<path fill-rule="evenodd" d="M236,372.6H492.7v-15H236v15Z" class="g0_49"/>
<path fill-rule="evenodd" d="M236,387.6H492.7v-15H236v15Z" class="g0_49"/>
<path fill-rule="evenodd" d="M236,402.7H492.7V387.6H236v15.1Z" class="g0_49"/>
<path fill-rule="evenodd" d="M236,417.7H492.7v-15H236v15Z" class="g0_49"/>
<path fill-rule="evenodd" d="M236,432.7H492.7v-15H236v15Z" class="g0_49"/>
<path fill-rule="evenodd" d="M236.3,447.8H492V432.7H236.3v15.1Z" class="g0_49"/>
<path fill-rule="evenodd" d="M236.3,462.8H492v-15H236.3v15Z" class="g0_49"/>
<path fill-rule="evenodd" d="M236.3,477.8H492v-15H236.3v15Z" class="g0_49"/>
<path fill-rule="evenodd" d="M236,492.9H491.3V477.8H236v15.1Z" class="g0_49"/>
<path fill-rule="evenodd" d="M236,507.9H491.3v-15H236v15Z" class="g0_49"/>
<path fill-rule="evenodd" d="M236,523.1H491.3V507.9H236v15.2Z" class="g0_49"/>
<path fill-rule="evenodd" d="M236,538.2H491.3V523.1H236v15.1Z" class="g0_49"/>
<path fill-rule="evenodd" d="M236,553.2H490.2v-15H236v15Z" class="g0_49"/>
<path fill-rule="evenodd" d="M236,568.2H490.2v-15H236v15Z" class="g0_49"/>
<path fill-rule="evenodd" d="M236.3,583.3H490.2V568.2H236.3v15.1Z" class="g0_49"/>
<path fill-rule="evenodd" d="M236.3,598.3H490.2v-15H236.3v15Z" class="g0_49"/>
<path fill-rule="evenodd" d="M235.6,613.4H488.7V598.3H235.6v15.1Z" class="g0_49"/>
<path fill-rule="evenodd" d="M235.6,628.4H488.7v-15H235.6v15Z" class="g0_49"/>
<path fill-rule="evenodd" d="M236,643.4H488v-15H236v15Z" class="g0_49"/>
<path fill-rule="evenodd" d="M236,658.5H488V643.4H236v15.1Z" class="g0_49"/>
<path fill-rule="evenodd" d="M236,673.5H488v-15H236v15Z" class="g0_49"/>
<path fill-rule="evenodd" d="M236,688.5H488v-15H236v15Z" class="g0_49"/>
<path fill-rule="evenodd" d="M236,703.7H488V688.5H236v15.2Z" class="g0_49"/>
<path fill-rule="evenodd" d="M235.6,718.8H486.9V703.7H235.6v15.1Z" class="g0_49"/>
<path fill-rule="evenodd" d="M235.6,733.8H486.9v-15H235.6v15Z" class="g0_49"/>
<path fill-rule="evenodd" d="M235.6,748.8H486.9v-15H235.6v15Z" class="g0_49"/>
<path fill-rule="evenodd" d="M235.6,763.9H486.9V748.8H235.6v15.1Z" class="g0_49"/>
<path fill-rule="evenodd" d="M235.6,778.9H486.1v-15H235.6v15Z" class="g0_49"/>
<path fill-rule="evenodd" d="M235.6,793.9H486.1v-15H235.6v15Z" class="g0_49"/>
<path fill-rule="evenodd" d="M235.6,809H486.1V793.9H235.6V809Z" class="g0_49"/>
<path fill-rule="evenodd" d="M235.6,824H486.1V809H235.6v15Z" class="g0_49"/>
<path fill-rule="evenodd" d="M235.6,839.1H486.1V824H235.6v15.1Z" class="g0_49"/>
<path fill-rule="evenodd" d="M235.6,854.1H484.7v-15H235.6v15Z" class="g0_49"/>
<path fill-rule="evenodd" d="M235.6,869.2H484.7V854.1H235.6v15.1Z" class="g0_49"/>
<path fill-rule="evenodd" d="M242.2,884.4H494.9V869.2H242.2v15.2Z" class="g0_49"/>
<path fill-rule="evenodd" d="M519.1,161.4H776.9V146.3H519.1v15.1Z" class="g0_49"/>
<path fill-rule="evenodd" d="M519.1,176.4H776.9v-15H519.1v15Z" class="g0_49"/>
<path fill-rule="evenodd" d="M519.1,191.6H776.9V176.4H519.1v15.2Z" class="g0_49"/>
<path fill-rule="evenodd" d="M519.1,206.6H776.9v-15H519.1v15Z" class="g0_49"/>
<path fill-rule="evenodd" d="M519.1,221.7H776.9V206.6H519.1v15.1Z" class="g0_49"/>
<path fill-rule="evenodd" d="M519.1,236.7H776.9v-15H519.1v15Z" class="g0_49"/>
<path fill-rule="evenodd" d="M519.1,251.7H776.9v-15H519.1v15Z" class="g0_49"/>
<path fill-rule="evenodd" d="M519.1,266.8H776.9V251.7H519.1v15.1Z" class="g0_49"/>
<path fill-rule="evenodd" d="M518.8,281.8H776.6v-15H518.8v15Z" class="g0_49"/>
<path fill-rule="evenodd" d="M518.8,296.8H776.6v-15H518.8v15Z" class="g0_49"/>
<path fill-rule="evenodd" d="M518.8,311.9H776.6V296.8H518.8v15.1Z" class="g0_49"/>
<path fill-rule="evenodd" d="M518,326.9H776.2v-15H518v15Z" class="g0_49"/>
<path fill-rule="evenodd" d="M518,341.9H776.2v-15H518v15Z" class="g0_49"/>
<path fill-rule="evenodd" d="M518,357.2H776.2V342H518v15.2Z" class="g0_49"/>
<path fill-rule="evenodd" d="M516.6,372.2h260v-15h-260v15Z" class="g0_49"/>
<path fill-rule="evenodd" d="M516.6,387.3h260V372.2h-260v15.1Z" class="g0_49"/>
<path fill-rule="evenodd" d="M516.6,402.3h260v-15h-260v15Z" class="g0_49"/>
<path fill-rule="evenodd" d="M516.6,417.3h260v-15h-260v15Z" class="g0_49"/>
<path fill-rule="evenodd" d="M516.6,432.4h260V417.3h-260v15.1Z" class="g0_49"/>
<path fill-rule="evenodd" d="M515.5,447.4h260v-15h-260v15Z" class="g0_49"/>
<path fill-rule="evenodd" d="M515.5,462.4h260v-15h-260v15Z" class="g0_49"/>
<path fill-rule="evenodd" d="M515.5,477.5h260V462.4h-260v15.1Z" class="g0_49"/>
<path fill-rule="evenodd" d="M515.5,492.5h260v-15h-260v15Z" class="g0_49"/>
<path fill-rule="evenodd" d="M515.5,507.5h260v-15h-260v15Z" class="g0_49"/>
<path fill-rule="evenodd" d="M515.5,522.6H774.7V507.5H515.5v15.1Z" class="g0_49"/>
<path fill-rule="evenodd" d="M515.5,537.8H774.7V522.6H515.5v15.2Z" class="g0_49"/>
<path fill-rule="evenodd" d="M514.7,552.8h260v-15h-260v15Z" class="g0_49"/>
<path fill-rule="evenodd" d="M514.7,567.9h260V552.8h-260v15.1Z" class="g0_49"/>
<path fill-rule="evenodd" d="M514.7,582.9h260v-15h-260v15Z" class="g0_49"/>
<path fill-rule="evenodd" d="M514,598.3H774.7v-15H514v15Z" class="g0_49"/>
<path fill-rule="evenodd" d="M514,613.4H774.7V598.3H514v15.1Z" class="g0_49"/>
<path fill-rule="evenodd" d="M514,628.4H774.7v-15H514v15Z" class="g0_49"/>
<path fill-rule="evenodd" d="M514,643.4H774.7v-15H514v15Z" class="g0_49"/>
<path fill-rule="evenodd" d="M514,658.5H774.7V643.4H514v15.1Z" class="g0_49"/>
<path fill-rule="evenodd" d="M514,673.5H774v-15H514v15Z" class="g0_49"/>
<path fill-rule="evenodd" d="M514,688.5H774v-15H514v15Z" class="g0_49"/>
<path fill-rule="evenodd" d="M514,703.7H774V688.5H514v15.2Z" class="g0_49"/>
<path fill-rule="evenodd" d="M514,718.8H774V703.7H514v15.1Z" class="g0_49"/>
<path fill-rule="evenodd" d="M513.6,733.8h260v-15h-260v15Z" class="g0_49"/>
<path fill-rule="evenodd" d="M512.5,748.8H774v-15H512.5v15Z" class="g0_49"/>
<path fill-rule="evenodd" d="M512.5,763.9H774V748.8H512.5v15.1Z" class="g0_49"/>
<path fill-rule="evenodd" d="M512.5,778.9H774v-15H512.5v15Z" class="g0_49"/>
<path fill-rule="evenodd" d="M512.5,793.9H773.6v-15H512.5v15Z" class="g0_49"/>
<path fill-rule="evenodd" d="M512.5,809H773.6V793.9H512.5V809Z" class="g0_49"/>
<path fill-rule="evenodd" d="M487.2,900.9H776.9v-16H487.2v16Z" class="g0_49"/>
<path d="M174,230.7V691.2M501,147.8V916.7" class="g1_49"/>
</svg>