<?xml version="1.0" encoding="UTF-8" standalone="no"?>
<!DOCTYPE svg PUBLIC "-//W3C//DTD SVG 1.1//EN"
"http://www.w3.org/Graphics/SVG/1.1/DTD/svg11.dtd">
<svg viewBox="0 0 909 1285" version="1.1" xmlns="http://www.w3.org/2000/svg" xmlns:xlink="http://www.w3.org/1999/xlink">
<defs>
<style type="text/css"><![CDATA[
.g0_163{
fill: #FFFFFF;
}
.g1_163{
fill: none;
stroke: #000000;
stroke-width: 0.381;
stroke-linecap: butt;
stroke-linejoin: round;
}
]]></style>
</defs>
<path fill-rule="evenodd" d="M640.2,134.6h59.4V110H640.2v24.6Z" class="g0_163"/>
<path fill-rule="evenodd" d="M193.8,168.7H432.5v-15H193.8v15Z" class="g0_163"/>
<path fill-rule="evenodd" d="M193.8,183.7H432.5v-15H193.8v15Z" class="g0_163"/>
<path fill-rule="evenodd" d="M193.8,198.9H432.5V183.7H193.8v15.2Z" class="g0_163"/>
<path fill-rule="evenodd" d="M193.8,214H432.9V198.9H193.8V214Z" class="g0_163"/>
<path fill-rule="evenodd" d="M193.8,229H432.9V214H193.8v15Z" class="g0_163"/>
<path fill-rule="evenodd" d="M193.8,244H432.9V229H193.8v15Z" class="g0_163"/>
<path fill-rule="evenodd" d="M193.4,259.1H432.2V244H193.4v15.1Z" class="g0_163"/>
<path fill-rule="evenodd" d="M193.4,274.1H432.2v-15H193.4v15Z" class="g0_163"/>
<path fill-rule="evenodd" d="M193.1,289.1H432.5v-15H193.1v15Z" class="g0_163"/>
<path fill-rule="evenodd" d="M193.1,304.2H432.5V289.1H193.1v15.1Z" class="g0_163"/>
<path fill-rule="evenodd" d="M193.1,319.2H432.5v-15H193.1v15Z" class="g0_163"/>
<path fill-rule="evenodd" d="M193.1,334.2H432.5v-15H193.1v15Z" class="g0_163"/>
<path fill-rule="evenodd" d="M193.1,349.3H432.9V334.2H193.1v15.1Z" class="g0_163"/>
<path fill-rule="evenodd" d="M193.1,364.5H432.9V349.3H193.1v15.2Z" class="g0_163"/>
<path fill-rule="evenodd" d="M193.1,379.6H432.9V364.5H193.1v15.1Z" class="g0_163"/>
<path fill-rule="evenodd" d="M193.1,394.6H432.9v-15H193.1v15Z" class="g0_163"/>
<path fill-rule="evenodd" d="M193.1,409.6H432.9v-15H193.1v15Z" class="g0_163"/>
<path fill-rule="evenodd" d="M192.7,424.7H432.2V409.6H192.7v15.1Z" class="g0_163"/>
<path fill-rule="evenodd" d="M192.7,439.7H432.2v-15H192.7v15Z" class="g0_163"/>
<path fill-rule="evenodd" d="M192.7,454.7H432.2v-15H192.7v15Z" class="g0_163"/>
<path fill-rule="evenodd" d="M192.7,469.8H432.2V454.7H192.7v15.1Z" class="g0_163"/>
<path fill-rule="evenodd" d="M210.7,484.8H432.9v-15H210.7v15Z" class="g0_163"/>
<path fill-rule="evenodd" d="M193.1,499.8H431.4v-15H193.1v15Z" class="g0_163"/>
<path fill-rule="evenodd" d="M193.1,514.9H431.4V499.8H193.1v15.1Z" class="g0_163"/>
<path fill-rule="evenodd" d="M192.3,529.9H431.4v-15H192.3v15Z" class="g0_163"/>
<path fill-rule="evenodd" d="M192.3,545.1H431.4V529.9H192.3v15.2Z" class="g0_163"/>
<path fill-rule="evenodd" d="M210.3,560.2H432.9V545.1H210.3v15.1Z" class="g0_163"/>
<path fill-rule="evenodd" d="M192.3,575.2H431.8v-15H192.3v15Z" class="g0_163"/>
<path fill-rule="evenodd" d="M192.3,590.2H431.8v-15H192.3v15Z" class="g0_163"/>
<path fill-rule="evenodd" d="M192.3,605.3H431.8V590.2H192.3v15.1Z" class="g0_163"/>
<path fill-rule="evenodd" d="M191.6,620.3H431.4v-15H191.6v15Z" class="g0_163"/>
<path fill-rule="evenodd" d="M191.6,635.4H431.4V620.3H191.6v15.1Z" class="g0_163"/>
<path fill-rule="evenodd" d="M191.6,650.4H431.4v-15H191.6v15Z" class="g0_163"/>
<path fill-rule="evenodd" d="M191.6,665.4H431.4v-15H191.6v15Z" class="g0_163"/>
<path fill-rule="evenodd" d="M191.6,680.5H431.4V665.4H191.6v15.1Z" class="g0_163"/>
<path fill-rule="evenodd" d="M191.6,695.5H431.4v-15H191.6v15Z" class="g0_163"/>
<path fill-rule="evenodd" d="M191.6,710.5H431.4v-15H191.6v15Z" class="g0_163"/>
<path fill-rule="evenodd" d="M191.6,725.7H431.4V710.5H191.6v15.2Z" class="g0_163"/>
<path fill-rule="evenodd" d="M191.6,740.8H431.4V725.7H191.6v15.1Z" class="g0_163"/>
<path fill-rule="evenodd" d="M191.2,755.8H431.8v-15H191.2v15Z" class="g0_163"/>
<path fill-rule="evenodd" d="M191.2,770.8H431.8v-15H191.2v15Z" class="g0_163"/>
<path fill-rule="evenodd" d="M191.2,785.9H431.8V770.8H191.2v15.1Z" class="g0_163"/>
<path fill-rule="evenodd" d="M191.2,800.9H431.8v-15H191.2v15Z" class="g0_163"/>
<path fill-rule="evenodd" d="M191.2,815.9H431.8v-15H191.2v15Z" class="g0_163"/>
<path fill-rule="evenodd" d="M192,831H431.1V815.9H192V831Z" class="g0_163"/>
<path fill-rule="evenodd" d="M192,846.1H431.1V831H192v15.1Z" class="g0_163"/>
<path fill-rule="evenodd" d="M191.6,861.1H431.1v-15H191.6v15Z" class="g0_163"/>
<path fill-rule="evenodd" d="M191.6,876.1H431.1v-15H191.6v15Z" class="g0_163"/>
<path fill-rule="evenodd" d="M192,891.7H430.7V876.5H192v15.2Z" class="g0_163"/>
<path fill-rule="evenodd" d="M192,906.7H430.7v-15H192v15Z" class="g0_163"/>
<path fill-rule="evenodd" d="M193.1,921.8H432.9V906.7H193.1v15.1Z" class="g0_163"/>
<path fill-rule="evenodd" d="M453.1,168.7H693.3v-15H453.1v15Z" class="g0_163"/>
<path fill-rule="evenodd" d="M453.1,183.7H693.3v-15H453.1v15Z" class="g0_163"/>
<path fill-rule="evenodd" d="M453.1,198.9H693.3V183.7H453.1v15.2Z" class="g0_163"/>
<path fill-rule="evenodd" d="M453.1,214H693.3V198.9H453.1V214Z" class="g0_163"/>
<path fill-rule="evenodd" d="M453.1,229H693.3V214H453.1v15Z" class="g0_163"/>
<path fill-rule="evenodd" d="M453.1,244H693.3V229H453.1v15Z" class="g0_163"/>
<path fill-rule="evenodd" d="M453.1,259.1H693.3V244H453.1v15.1Z" class="g0_163"/>
<path fill-rule="evenodd" d="M453.1,274.1H693.3v-15H453.1v15Z" class="g0_163"/>
<path fill-rule="evenodd" d="M453.1,289.1H693.3v-15H453.1v15Z" class="g0_163"/>
<path fill-rule="evenodd" d="M453.1,304.2H693.3V289.1H453.1v15.1Z" class="g0_163"/>
<path fill-rule="evenodd" d="M453.1,319.2H693.3v-15H453.1v15Z" class="g0_163"/>
<path fill-rule="evenodd" d="M453.1,334.2H693.3v-15H453.1v15Z" class="g0_163"/>
<path fill-rule="evenodd" d="M453.1,349.3H693.3V334.2H453.1v15.1Z" class="g0_163"/>
<path fill-rule="evenodd" d="M453.1,364.5H693.3V349.3H453.1v15.2Z" class="g0_163"/>
<path fill-rule="evenodd" d="M453.1,379.6H693.3V364.5H453.1v15.1Z" class="g0_163"/>
<path fill-rule="evenodd" d="M453.1,394.6H693.3v-15H453.1v15Z" class="g0_163"/>
<path fill-rule="evenodd" d="M453.1,409.6H693.3v-15H453.1v15Z" class="g0_163"/>
<path fill-rule="evenodd" d="M452.8,424.7H693V409.6H452.8v15.1Z" class="g0_163"/>
<path fill-rule="evenodd" d="M452.8,439.7H693v-15H452.8v15Z" class="g0_163"/>
<path fill-rule="evenodd" d="M452.8,454.7H693v-15H452.8v15Z" class="g0_163"/>
<path fill-rule="evenodd" d="M452.8,469.8H693V454.7H452.8v15.1Z" class="g0_163"/>
<path fill-rule="evenodd" d="M452.8,484.8H693v-15H452.8v15Z" class="g0_163"/>
<path fill-rule="evenodd" d="M452.8,499.8H693v-15H452.8v15Z" class="g0_163"/>
<path fill-rule="evenodd" d="M452.8,514.9H693V499.8H452.8v15.1Z" class="g0_163"/>
<path fill-rule="evenodd" d="M452.4,529.9H692.2v-15H452.4v15Z" class="g0_163"/>
<path fill-rule="evenodd" d="M452.4,545.1H692.2V529.9H452.4v15.2Z" class="g0_163"/>
<path fill-rule="evenodd" d="M452.4,560.2H692.2V545.1H452.4v15.1Z" class="g0_163"/>
<path fill-rule="evenodd" d="M451.7,575.2H692.6v-15H451.7v15Z" class="g0_163"/>
<path fill-rule="evenodd" d="M451.7,590.2H692.6v-15H451.7v15Z" class="g0_163"/>
<path fill-rule="evenodd" d="M451.7,605.3H692.6V590.2H451.7v15.1Z" class="g0_163"/>
<path fill-rule="evenodd" d="M451.7,620.3H692.6v-15H451.7v15Z" class="g0_163"/>
<path fill-rule="evenodd" d="M452,635.4H618.5V620.3H452v15.1Z" class="g0_163"/>
<path fill-rule="evenodd" d="M452,650.4H618.5v-15H452v15Z" class="g0_163"/>
<path fill-rule="evenodd" d="M452.4,665.4H691.5v-15H452.4v15Z" class="g0_163"/>
<path fill-rule="evenodd" d="M452.4,680.5H691.5V665.4H452.4v15.1Z" class="g0_163"/>
<path fill-rule="evenodd" d="M451.3,695.5H692.2v-15H451.3v15Z" class="g0_163"/>
<path fill-rule="evenodd" d="M451.3,710.5H692.2v-15H451.3v15Z" class="g0_163"/>
<path fill-rule="evenodd" d="M451.3,725.7H692.2V710.5H451.3v15.2Z" class="g0_163"/>
<path fill-rule="evenodd" d="M451.3,740.8H692.2V725.7H451.3v15.1Z" class="g0_163"/>
<path fill-rule="evenodd" d="M451.3,755.8H692.2v-15H451.3v15Z" class="g0_163"/>
<path fill-rule="evenodd" d="M451.3,770.8H692.2v-15H451.3v15Z" class="g0_163"/>
<path fill-rule="evenodd" d="M451.3,785.9H692.2V770.8H451.3v15.1Z" class="g0_163"/>
<path fill-rule="evenodd" d="M451.3,800.9H692.2v-15H451.3v15Z" class="g0_163"/>
<path fill-rule="evenodd" d="M451.3,815.9H692.2v-15H451.3v15Z" class="g0_163"/>
<path fill-rule="evenodd" d="M451.3,831H692.2V815.9H451.3V831Z" class="g0_163"/>
<path fill-rule="evenodd" d="M451.3,846.1H692.2V831H451.3v15.1Z" class="g0_163"/>
<path fill-rule="evenodd" d="M451.3,861.1H692.2v-15H451.3v15Z" class="g0_163"/>
<path fill-rule="evenodd" d="M451.3,876.1H692.2v-15H451.3v15Z" class="g0_163"/>
<path fill-rule="evenodd" d="M451.3,891.2H692.2V876.1H451.3v15.1Z" class="g0_163"/>
<path fill-rule="evenodd" d="M451.3,906.4H692.2V891.2H451.3v15.2Z" class="g0_163"/>
<path fill-rule="evenodd" d="M428.9,939.7H699.6V922.1H428.9v17.6Z" class="g0_163"/>
<path d="M440.5,152.9v769" class="g1_163"/>
</svg>