<?xml version="1.0" encoding="UTF-8" standalone="no"?>
<!DOCTYPE svg PUBLIC "-//W3C//DTD SVG 1.1//EN"
"http://www.w3.org/Graphics/SVG/1.1/DTD/svg11.dtd">
<svg viewBox="0 0 909 1285" version="1.1" xmlns="http://www.w3.org/2000/svg" xmlns:xlink="http://www.w3.org/1999/xlink">
<defs>
<style type="text/css"><![CDATA[
.g0_121{
fill: #FFFFFF;
}
.g1_121{
fill: none;
stroke: #000000;
stroke-width: 0.381;
stroke-linecap: butt;
stroke-linejoin: round;
}
]]></style>
</defs>
<path fill-rule="evenodd" d="M604.2,125.8h82.5V110H604.2v15.8Z" class="g0_121"/>
<path fill-rule="evenodd" d="M185.4,161.7H425.2v-15H185.4v15Z" class="g0_121"/>
<path fill-rule="evenodd" d="M185.4,176.9H425.2V161.7H185.4v15.2Z" class="g0_121"/>
<path fill-rule="evenodd" d="M185.4,192H425.2V176.9H185.4V192Z" class="g0_121"/>
<path fill-rule="evenodd" d="M185.4,207H425.2V192H185.4v15Z" class="g0_121"/>
<path fill-rule="evenodd" d="M185.4,222H425.2V207H185.4v15Z" class="g0_121"/>
<path fill-rule="evenodd" d="M185.4,237.1H425.2V222H185.4v15.1Z" class="g0_121"/>
<path fill-rule="evenodd" d="M185.4,252.1H425.2v-15H185.4v15Z" class="g0_121"/>
<path fill-rule="evenodd" d="M203.7,267.1H425.2v-15H203.7v15Z" class="g0_121"/>
<path fill-rule="evenodd" d="M185.4,282.5H424.8v-15H185.4v15Z" class="g0_121"/>
<path fill-rule="evenodd" d="M185.4,297.6H424.8V282.5H185.4v15.1Z" class="g0_121"/>
<path fill-rule="evenodd" d="M203.7,312.6H425.2v-15H203.7v15Z" class="g0_121"/>
<path fill-rule="evenodd" d="M185.4,327.8H425.2V312.6H185.4v15.2Z" class="g0_121"/>
<path fill-rule="evenodd" d="M185.4,342.9H425.2V327.8H185.4v15.1Z" class="g0_121"/>
<path fill-rule="evenodd" d="M185.4,357.9H425.2v-15H185.4v15Z" class="g0_121"/>
<path fill-rule="evenodd" d="M185.4,373H425.2V357.9H185.4V373Z" class="g0_121"/>
<path fill-rule="evenodd" d="M185.4,388H425.2V373H185.4v15Z" class="g0_121"/>
<path fill-rule="evenodd" d="M185.4,403H425.2V388H185.4v15Z" class="g0_121"/>
<path fill-rule="evenodd" d="M185,418.1H425.2V403H185v15.1Z" class="g0_121"/>
<path fill-rule="evenodd" d="M185,433.1H425.2v-15H185v15Z" class="g0_121"/>
<path fill-rule="evenodd" d="M185,448.1H425.2v-15H185v15Z" class="g0_121"/>
<path fill-rule="evenodd" d="M185,463.2H425.2V448.1H185v15.1Z" class="g0_121"/>
<path fill-rule="evenodd" d="M185,478.2H425.2v-15H185v15Z" class="g0_121"/>
<path fill-rule="evenodd" d="M185,493.2H425.2v-15H185v15Z" class="g0_121"/>
<path fill-rule="evenodd" d="M185,508.5H424.1V493.2H185v15.3Z" class="g0_121"/>
<path fill-rule="evenodd" d="M185,523.5H424.1v-15H185v15Z" class="g0_121"/>
<path fill-rule="evenodd" d="M184.6,538.5H424.5v-15H184.6v15Z" class="g0_121"/>
<path fill-rule="evenodd" d="M184.6,553.6H424.5V538.5H184.6v15.1Z" class="g0_121"/>
<path fill-rule="evenodd" d="M184.6,568.6H424.5v-15H184.6v15Z" class="g0_121"/>
<path fill-rule="evenodd" d="M184.6,583.6H424.1v-15H184.6v15Z" class="g0_121"/>
<path fill-rule="evenodd" d="M184.6,598.7H424.1V583.6H184.6v15.1Z" class="g0_121"/>
<path fill-rule="evenodd" d="M184.6,613.7H424.5v-15H184.6v15Z" class="g0_121"/>
<path fill-rule="evenodd" d="M184.6,628.8H424.5V613.7H184.6v15.1Z" class="g0_121"/>
<path fill-rule="evenodd" d="M184.6,643.8H424.5v-15H184.6v15Z" class="g0_121"/>
<path fill-rule="evenodd" d="M184.6,658.8H424.1v-15H184.6v15Z" class="g0_121"/>
<path fill-rule="evenodd" d="M184.6,673.9H424.1V658.8H184.6v15.1Z" class="g0_121"/>
<path fill-rule="evenodd" d="M184.6,689.4H425.2V674.2H184.6v15.2Z" class="g0_121"/>
<path fill-rule="evenodd" d="M184.6,704.5H425.2V689.4H184.6v15.1Z" class="g0_121"/>
<path fill-rule="evenodd" d="M184.6,719.5H425.2v-15H184.6v15Z" class="g0_121"/>
<path fill-rule="evenodd" d="M184.6,734.5H425.2v-15H184.6v15Z" class="g0_121"/>
<path fill-rule="evenodd" d="M184.6,749.6H425.2V734.5H184.6v15.1Z" class="g0_121"/>
<path fill-rule="evenodd" d="M184.6,764.6H425.2v-15H184.6v15Z" class="g0_121"/>
<path fill-rule="evenodd" d="M184.3,779.6H423.7v-15H184.3v15Z" class="g0_121"/>
<path fill-rule="evenodd" d="M184.3,794.7H423.7V779.6H184.3v15.1Z" class="g0_121"/>
<path fill-rule="evenodd" d="M184.3,809.7H423.7v-15H184.3v15Z" class="g0_121"/>
<path fill-rule="evenodd" d="M183.9,824.7H423.7v-15H183.9v15Z" class="g0_121"/>
<path fill-rule="evenodd" d="M183.9,839.8H423.7V824.7H183.9v15.1Z" class="g0_121"/>
<path fill-rule="evenodd" d="M183.9,855H423.7V839.8H183.9V855Z" class="g0_121"/>
<path fill-rule="evenodd" d="M183.9,870.1H423.7V855H183.9v15.1Z" class="g0_121"/>
<path fill-rule="evenodd" d="M183.9,885.1H423.7v-15H183.9v15Z" class="g0_121"/>
<path fill-rule="evenodd" d="M183.9,900.1H425.2v-15H183.9v15Z" class="g0_121"/>
<path fill-rule="evenodd" d="M444.7,161.4H686.4V146.3H444.7v15.1Z" class="g0_121"/>
<path fill-rule="evenodd" d="M444.7,176.4H686.4v-15H444.7v15Z" class="g0_121"/>
<path fill-rule="evenodd" d="M444.7,191.6H686.4V176.4H444.7v15.2Z" class="g0_121"/>
<path fill-rule="evenodd" d="M444.7,206.6H686.4v-15H444.7v15Z" class="g0_121"/>
<path fill-rule="evenodd" d="M444.7,221.7H686.4V206.6H444.7v15.1Z" class="g0_121"/>
<path fill-rule="evenodd" d="M444.7,236.7H686.4v-15H444.7v15Z" class="g0_121"/>
<path fill-rule="evenodd" d="M444.7,251.7H686.4v-15H444.7v15Z" class="g0_121"/>
<path fill-rule="evenodd" d="M445.4,266.8h241V251.7h-241v15.1Z" class="g0_121"/>
<path fill-rule="evenodd" d="M445.4,281.8h241v-15h-241v15Z" class="g0_121"/>
<path fill-rule="evenodd" d="M445.4,296.8h241v-15h-241v15Z" class="g0_121"/>
<path fill-rule="evenodd" d="M445.4,311.9h241V296.8h-241v15.1Z" class="g0_121"/>
<path fill-rule="evenodd" d="M445.4,326.9h241v-15h-241v15Z" class="g0_121"/>
<path fill-rule="evenodd" d="M445.4,341.9h241v-15h-241v15Z" class="g0_121"/>
<path fill-rule="evenodd" d="M445.4,357.2h241V342h-241v15.2Z" class="g0_121"/>
<path fill-rule="evenodd" d="M445.4,372.2h241v-15h-241v15Z" class="g0_121"/>
<path fill-rule="evenodd" d="M445.4,387.3h241V372.2h-241v15.1Z" class="g0_121"/>
<path fill-rule="evenodd" d="M445.4,402.3h241v-15h-241v15Z" class="g0_121"/>
<path fill-rule="evenodd" d="M445.4,417.3h241v-15h-241v15Z" class="g0_121"/>
<path fill-rule="evenodd" d="M445.4,432.4h241V417.3h-241v15.1Z" class="g0_121"/>
<path fill-rule="evenodd" d="M445,447.4H686v-15H445v15Z" class="g0_121"/>
<path fill-rule="evenodd" d="M445,462.4H686v-15H445v15Z" class="g0_121"/>
<path fill-rule="evenodd" d="M445,477.5H686V462.4H445v15.1Z" class="g0_121"/>
<path fill-rule="evenodd" d="M445,492.5H686v-15H445v15Z" class="g0_121"/>
<path fill-rule="evenodd" d="M445,507.5H686v-15H445v15Z" class="g0_121"/>
<path fill-rule="evenodd" d="M445,522.6H685.6V507.5H445v15.1Z" class="g0_121"/>
<path fill-rule="evenodd" d="M445,537.8H685.6V522.6H445v15.2Z" class="g0_121"/>
<path fill-rule="evenodd" d="M445,552.8H685.6v-15H445v15Z" class="g0_121"/>
<path fill-rule="evenodd" d="M445,567.9H685.3V552.8H445v15.1Z" class="g0_121"/>
<path fill-rule="evenodd" d="M445,582.9H685.3v-15H445v15Z" class="g0_121"/>
<path fill-rule="evenodd" d="M445,598H685.3V582.9H445V598Z" class="g0_121"/>
<path fill-rule="evenodd" d="M445,613H685.6V598H445v15Z" class="g0_121"/>
<path fill-rule="evenodd" d="M445,628H685.6V613H445v15Z" class="g0_121"/>
<path fill-rule="evenodd" d="M445,643.1H685.6V628H445v15.1Z" class="g0_121"/>
<path fill-rule="evenodd" d="M444.7,658.1H685.3v-15H444.7v15Z" class="g0_121"/>
<path fill-rule="evenodd" d="M444.7,673.1H685.3v-15H444.7v15Z" class="g0_121"/>
<path fill-rule="evenodd" d="M444.7,688.2H685.3V673.1H444.7v15.1Z" class="g0_121"/>
<path fill-rule="evenodd" d="M444.7,703.2H685.3v-15H444.7v15Z" class="g0_121"/>
<path fill-rule="evenodd" d="M445,718.4H684.5V703.2H445v15.2Z" class="g0_121"/>
<path fill-rule="evenodd" d="M445,733.4H684.5v-15H445v15Z" class="g0_121"/>
<path fill-rule="evenodd" d="M444.7,748.5H684.9V733.4H444.7v15.1Z" class="g0_121"/>
<path fill-rule="evenodd" d="M444.7,763.5H684.9v-15H444.7v15Z" class="g0_121"/>
<path fill-rule="evenodd" d="M444.7,778.5H684.9v-15H444.7v15Z" class="g0_121"/>
<path fill-rule="evenodd" d="M444.7,793.6H685.3V778.5H444.7v15.1Z" class="g0_121"/>
<path fill-rule="evenodd" d="M444.7,808.6H685.3v-15H444.7v15Z" class="g0_121"/>
<path fill-rule="evenodd" d="M444.7,823.6H685.3v-15H444.7v15Z" class="g0_121"/>
<path fill-rule="evenodd" d="M444.7,838.7H684.9V823.6H444.7v15.1Z" class="g0_121"/>
<path fill-rule="evenodd" d="M444.7,853.8H684.9V838.7H444.7v15.1Z" class="g0_121"/>
<path fill-rule="evenodd" d="M462.7,868.8H686.4v-15H462.7v15Z" class="g0_121"/>
<path fill-rule="evenodd" d="M421.9,917.7H686.7V900.1H421.9v17.6Z" class="g0_121"/>
<path d="M433.6,146.4V914.5" class="g1_121"/>
</svg>