<?xml version="1.0" encoding="UTF-8" standalone="no"?>
<!DOCTYPE svg PUBLIC "-//W3C//DTD SVG 1.1//EN"
"http://www.w3.org/Graphics/SVG/1.1/DTD/svg11.dtd">
<svg viewBox="0 0 909 1285" version="1.1" xmlns="http://www.w3.org/2000/svg" xmlns:xlink="http://www.w3.org/1999/xlink">
<defs>
<style type="text/css"><![CDATA[
.g0_79{
fill: #FFFFFF;
}
.g1_79{
fill: none;
stroke: #000000;
stroke-width: 0.381;
stroke-linecap: butt;
stroke-linejoin: round;
}
]]></style>
</defs>
<path fill-rule="evenodd" d="M281.9,125.8H779.5V110H281.9v15.8Z" class="g0_79"/>
<path fill-rule="evenodd" d="M281.1,161.7H520.2v-15H281.1v15Z" class="g0_79"/>
<path fill-rule="evenodd" d="M281.1,176.9H520.2V161.7H281.1v15.2Z" class="g0_79"/>
<path fill-rule="evenodd" d="M281.1,192H520.2V176.9H281.1V192Z" class="g0_79"/>
<path fill-rule="evenodd" d="M281.1,207H520.2V192H281.1v15Z" class="g0_79"/>
<path fill-rule="evenodd" d="M281.1,222H520.2V207H281.1v15Z" class="g0_79"/>
<path fill-rule="evenodd" d="M280.8,237.1H519.9V222H280.8v15.1Z" class="g0_79"/>
<path fill-rule="evenodd" d="M280.8,252.1H519.9v-15H280.8v15Z" class="g0_79"/>
<path fill-rule="evenodd" d="M280.8,267.1H519.9v-15H280.8v15Z" class="g0_79"/>
<path fill-rule="evenodd" d="M280.8,282.2H519.9V267.1H280.8v15.1Z" class="g0_79"/>
<path fill-rule="evenodd" d="M280.8,297.2H519.9v-15H280.8v15Z" class="g0_79"/>
<path fill-rule="evenodd" d="M280.8,312.2H519.9v-15H280.8v15Z" class="g0_79"/>
<path fill-rule="evenodd" d="M280.4,327.3H519.1V312.2H280.4v15.1Z" class="g0_79"/>
<path fill-rule="evenodd" d="M280.4,342.5H519.1V327.3H280.4v15.2Z" class="g0_79"/>
<path fill-rule="evenodd" d="M280.4,357.6H519.1V342.5H280.4v15.1Z" class="g0_79"/>
<path fill-rule="evenodd" d="M280.4,372.6H519.1v-15H280.4v15Z" class="g0_79"/>
<path fill-rule="evenodd" d="M280,387.6H519.1v-15H280v15Z" class="g0_79"/>
<path fill-rule="evenodd" d="M280,402.7H519.1V387.6H280v15.1Z" class="g0_79"/>
<path fill-rule="evenodd" d="M280,418.1H519.1V402.7H280v15.4Z" class="g0_79"/>
<path fill-rule="evenodd" d="M280,433.1H519.1v-15H280v15Z" class="g0_79"/>
<path fill-rule="evenodd" d="M280,448.1H519.1v-15H280v15Z" class="g0_79"/>
<path fill-rule="evenodd" d="M280,463.2H519.1V448.1H280v15.1Z" class="g0_79"/>
<path fill-rule="evenodd" d="M280,478.2H519.1v-15H280v15Z" class="g0_79"/>
<path fill-rule="evenodd" d="M279.7,493.2H518v-15H279.7v15Z" class="g0_79"/>
<path fill-rule="evenodd" d="M279.7,508.5H518V493.2H279.7v15.3Z" class="g0_79"/>
<path fill-rule="evenodd" d="M279.7,523.5H518.4v-15H279.7v15Z" class="g0_79"/>
<path fill-rule="evenodd" d="M279.7,538.5H518.4v-15H279.7v15Z" class="g0_79"/>
<path fill-rule="evenodd" d="M279.3,553.6H518.4V538.5H279.3v15.1Z" class="g0_79"/>
<path fill-rule="evenodd" d="M279.3,568.6H518.4v-15H279.3v15Z" class="g0_79"/>
<path fill-rule="evenodd" d="M279.3,583.6H518v-15H279.3v15Z" class="g0_79"/>
<path fill-rule="evenodd" d="M279.3,598.7H518V583.6H279.3v15.1Z" class="g0_79"/>
<path fill-rule="evenodd" d="M279.3,613.7H518v-15H279.3v15Z" class="g0_79"/>
<path fill-rule="evenodd" d="M279.3,628.8H518V613.7H279.3v15.1Z" class="g0_79"/>
<path fill-rule="evenodd" d="M278.9,643.8H517.7v-15H278.9v15Z" class="g0_79"/>
<path fill-rule="evenodd" d="M278.9,658.8H517.7v-15H278.9v15Z" class="g0_79"/>
<path fill-rule="evenodd" d="M278.9,674.4H517.7V658.8H278.9v15.6Z" class="g0_79"/>
<path fill-rule="evenodd" d="M278.9,689.4H517.7v-15H278.9v15Z" class="g0_79"/>
<path fill-rule="evenodd" d="M278.9,704.5H517.7V689.4H278.9v15.1Z" class="g0_79"/>
<path fill-rule="evenodd" d="M278.9,719.5H517.7v-15H278.9v15Z" class="g0_79"/>
<path fill-rule="evenodd" d="M278.6,734.5H517.7v-15H278.6v15Z" class="g0_79"/>
<path fill-rule="evenodd" d="M278.6,749.6H517.7V734.5H278.6v15.1Z" class="g0_79"/>
<path fill-rule="evenodd" d="M278.6,764.6H517.7v-15H278.6v15Z" class="g0_79"/>
<path fill-rule="evenodd" d="M278.6,779.6H517.7v-15H278.6v15Z" class="g0_79"/>
<path fill-rule="evenodd" d="M278.6,794.7H517.7V779.6H278.6v15.1Z" class="g0_79"/>
<path fill-rule="evenodd" d="M278.2,809.7H516.9v-15H278.2v15Z" class="g0_79"/>
<path fill-rule="evenodd" d="M278.2,824.7H516.9v-15H278.2v15Z" class="g0_79"/>
<path fill-rule="evenodd" d="M278.2,839.8H516.9V824.7H278.2v15.1Z" class="g0_79"/>
<path fill-rule="evenodd" d="M278.2,855H516.9V839.8H278.2V855Z" class="g0_79"/>
<path fill-rule="evenodd" d="M278.2,870.1H516.9V855H278.2v15.1Z" class="g0_79"/>
<path fill-rule="evenodd" d="M281.1,885.1H519.9v-15H281.1v15Z" class="g0_79"/>
<path fill-rule="evenodd" d="M540.4,161.7H779.1v-15H540.4v15Z" class="g0_79"/>
<path fill-rule="evenodd" d="M540.4,176.9H779.1V161.7H540.4v15.2Z" class="g0_79"/>
<path fill-rule="evenodd" d="M540.4,192H779.1V176.9H540.4V192Z" class="g0_79"/>
<path fill-rule="evenodd" d="M540.4,207H779.5V192H540.4v15Z" class="g0_79"/>
<path fill-rule="evenodd" d="M540.4,222H779.5V207H540.4v15Z" class="g0_79"/>
<path fill-rule="evenodd" d="M540.4,237.1H779.5V222H540.4v15.1Z" class="g0_79"/>
<path fill-rule="evenodd" d="M540,252.1H779.1v-15H540v15Z" class="g0_79"/>
<path fill-rule="evenodd" d="M540,267.1H779.1v-15H540v15Z" class="g0_79"/>
<path fill-rule="evenodd" d="M540,282.2H779.1V267.1H540v15.1Z" class="g0_79"/>
<path fill-rule="evenodd" d="M539.7,297.2H778.8v-15H539.7v15Z" class="g0_79"/>
<path fill-rule="evenodd" d="M539.7,312.2H778.8v-15H539.7v15Z" class="g0_79"/>
<path fill-rule="evenodd" d="M539.7,327.3H778.4V312.2H539.7v15.1Z" class="g0_79"/>
<path fill-rule="evenodd" d="M539.7,342.5H778.4V327.3H539.7v15.2Z" class="g0_79"/>
<path fill-rule="evenodd" d="M539.7,357.6H778.8V342.5H539.7v15.1Z" class="g0_79"/>
<path fill-rule="evenodd" d="M539.7,372.6H778.8v-15H539.7v15Z" class="g0_79"/>
<path fill-rule="evenodd" d="M539.7,387.6H778.8v-15H539.7v15Z" class="g0_79"/>
<path fill-rule="evenodd" d="M538.9,402.7H778.4V387.6H538.9v15.1Z" class="g0_79"/>
<path fill-rule="evenodd" d="M538.9,417.7H778.4v-15H538.9v15Z" class="g0_79"/>
<path fill-rule="evenodd" d="M538.9,432.7H778.4v-15H538.9v15Z" class="g0_79"/>
<path fill-rule="evenodd" d="M538.9,447.8H778.4V432.7H538.9v15.1Z" class="g0_79"/>
<path fill-rule="evenodd" d="M538.9,462.8H778.4v-15H538.9v15Z" class="g0_79"/>
<path fill-rule="evenodd" d="M538.9,477.8H778.4v-15H538.9v15Z" class="g0_79"/>
<path fill-rule="evenodd" d="M538.9,492.9H778.4V477.8H538.9v15.1Z" class="g0_79"/>
<path fill-rule="evenodd" d="M538.9,507.9H778.4v-15H538.9v15Z" class="g0_79"/>
<path fill-rule="evenodd" d="M538.9,523.1H778.4V507.9H538.9v15.2Z" class="g0_79"/>
<path fill-rule="evenodd" d="M538.9,538.2H778.4V523.1H538.9v15.1Z" class="g0_79"/>
<path fill-rule="evenodd" d="M538.9,553.2H778v-15H538.9v15Z" class="g0_79"/>
<path fill-rule="evenodd" d="M538.9,568.2H778v-15H538.9v15Z" class="g0_79"/>
<path fill-rule="evenodd" d="M538.6,583.3H777.7V568.2H538.6v15.1Z" class="g0_79"/>
<path fill-rule="evenodd" d="M538.6,598.3H777.7v-15H538.6v15Z" class="g0_79"/>
<path fill-rule="evenodd" d="M538.6,613.4H777.7V598.3H538.6v15.1Z" class="g0_79"/>
<path fill-rule="evenodd" d="M538.6,628.4H777.7v-15H538.6v15Z" class="g0_79"/>
<path fill-rule="evenodd" d="M538.6,643.4H777.7v-15H538.6v15Z" class="g0_79"/>
<path fill-rule="evenodd" d="M538.2,658.5H777.7V643.4H538.2v15.1Z" class="g0_79"/>
<path fill-rule="evenodd" d="M538.2,673.5H777.7v-15H538.2v15Z" class="g0_79"/>
<path fill-rule="evenodd" d="M538.2,688.5H777.7v-15H538.2v15Z" class="g0_79"/>
<path fill-rule="evenodd" d="M538.2,703.7H777.7V688.5H538.2v15.2Z" class="g0_79"/>
<path fill-rule="evenodd" d="M538.2,718.8H777.7V703.7H538.2v15.1Z" class="g0_79"/>
<path fill-rule="evenodd" d="M538.2,733.8H777.7v-15H538.2v15Z" class="g0_79"/>
<path fill-rule="evenodd" d="M538.2,748.8H777.7v-15H538.2v15Z" class="g0_79"/>
<path fill-rule="evenodd" d="M538.2,763.9H777.3V748.8H538.2v15.1Z" class="g0_79"/>
<path fill-rule="evenodd" d="M538.2,778.9H777.3v-15H538.2v15Z" class="g0_79"/>
<path fill-rule="evenodd" d="M537.5,793.9H777.3v-15H537.5v15Z" class="g0_79"/>
<path fill-rule="evenodd" d="M537.5,809H777.3V793.9H537.5V809Z" class="g0_79"/>
<path fill-rule="evenodd" d="M537.5,824H777.3V809H537.5v15Z" class="g0_79"/>
<path fill-rule="evenodd" d="M537.5,839.1H777.3V824H537.5v15.1Z" class="g0_79"/>
<path fill-rule="evenodd" d="M537.5,854.1H777.3v-15H537.5v15Z" class="g0_79"/>
<path fill-rule="evenodd" d="M555.8,869.2H779.5V854.1H555.8v15.1Z" class="g0_79"/>
<path fill-rule="evenodd" d="M555.8,884.4H779.5V869.2H555.8v15.2Z" class="g0_79"/>
<path fill-rule="evenodd" d="M518.8,916.1H779.5V898.7H518.8v17.4Z" class="g0_79"/>
<path d="M220.6,86.9V594.4m2.5,-.3V996M527.5,147.8V916" class="g1_79"/>
</svg>