<?xml version="1.0" encoding="UTF-8" standalone="no"?>
<!DOCTYPE svg PUBLIC "-//W3C//DTD SVG 1.1//EN"
"http://www.w3.org/Graphics/SVG/1.1/DTD/svg11.dtd">
<svg viewBox="0 0 909 1285" version="1.1" xmlns="http://www.w3.org/2000/svg" xmlns:xlink="http://www.w3.org/1999/xlink">
<defs>
<style type="text/css"><![CDATA[
.g0_194{
fill: #FFFFFF;
}
.g1_194{
fill: none;
stroke: #000000;
stroke-width: 0.381;
stroke-linecap: butt;
stroke-linejoin: round;
}
.g2_194{
fill: none;
stroke: #000000;
stroke-width: 0.763;
stroke-linecap: butt;
stroke-linejoin: round;
}
]]></style>
</defs>
<path fill-rule="evenodd" d="M637.8,125.8h59.4V110H637.8v15.8Z" class="g0_194"/>
<path fill-rule="evenodd" d="M198.4,161.4H436.8V146.3H198.4v15.1Z" class="g0_194"/>
<path fill-rule="evenodd" d="M198.4,176.4H436.8v-15H198.4v15Z" class="g0_194"/>
<path fill-rule="evenodd" d="M198.4,191.6H436.8V176.4H198.4v15.2Z" class="g0_194"/>
<path fill-rule="evenodd" d="M198.4,206.6H436.8v-15H198.4v15Z" class="g0_194"/>
<path fill-rule="evenodd" d="M198,221.7H436.8V206.6H198v15.1Z" class="g0_194"/>
<path fill-rule="evenodd" d="M198,236.7H436.8v-15H198v15Z" class="g0_194"/>
<path fill-rule="evenodd" d="M198,251.7H436.8v-15H198v15Z" class="g0_194"/>
<path fill-rule="evenodd" d="M216.4,266.8H436.8V251.7H216.4v15.1Z" class="g0_194"/>
<path fill-rule="evenodd" d="M216.7,281.8H436.8v-15H216.7v15Z" class="g0_194"/>
<path fill-rule="evenodd" d="M198,296.8H436.8v-15H198v15Z" class="g0_194"/>
<path fill-rule="evenodd" d="M198,311.9H436.8V296.8H198v15.1Z" class="g0_194"/>
<path fill-rule="evenodd" d="M198,326.9H436.8v-15H198v15Z" class="g0_194"/>
<path fill-rule="evenodd" d="M198,341.9H436.8v-15H198v15Z" class="g0_194"/>
<path fill-rule="evenodd" d="M216.4,357.2H436.8V342H216.4v15.2Z" class="g0_194"/>
<path fill-rule="evenodd" d="M198,372.2H436.8v-15H198v15Z" class="g0_194"/>
<path fill-rule="evenodd" d="M198,387.3H436V372.2H198v15.1Z" class="g0_194"/>
<path fill-rule="evenodd" d="M198,402.3H436v-15H198v15Z" class="g0_194"/>
<path fill-rule="evenodd" d="M197.7,417.3h238v-15h-238v15Z" class="g0_194"/>
<path fill-rule="evenodd" d="M197.7,432.4h238V417.3h-238v15.1Z" class="g0_194"/>
<path fill-rule="evenodd" d="M197.3,447.4H436.8v-15H197.3v15Z" class="g0_194"/>
<path fill-rule="evenodd" d="M197.3,462.4H436.8v-15H197.3v15Z" class="g0_194"/>
<path fill-rule="evenodd" d="M197.3,477.5H436.8V462.4H197.3v15.1Z" class="g0_194"/>
<path fill-rule="evenodd" d="M198,492.5H436.8v-15H198v15Z" class="g0_194"/>
<path fill-rule="evenodd" d="M457,161.4H696.1V146.3H457v15.1Z" class="g0_194"/>
<path fill-rule="evenodd" d="M457,176.4H696.1v-15H457v15Z" class="g0_194"/>
<path fill-rule="evenodd" d="M457,191.6H696.1V176.4H457v15.2Z" class="g0_194"/>
<path fill-rule="evenodd" d="M457,206.6H696.1v-15H457v15Z" class="g0_194"/>
<path fill-rule="evenodd" d="M457,221.7H696.1V206.6H457v15.1Z" class="g0_194"/>
<path fill-rule="evenodd" d="M457,236.7H696.1v-15H457v15Z" class="g0_194"/>
<path fill-rule="evenodd" d="M475.3,251.7H696.1v-15H475.3v15Z" class="g0_194"/>
<path fill-rule="evenodd" d="M456.6,266.8H696.1V251.7H456.6v15.1Z" class="g0_194"/>
<path fill-rule="evenodd" d="M456.6,281.8H696.1v-15H456.6v15Z" class="g0_194"/>
<path fill-rule="evenodd" d="M456.6,296.8H696.1v-15H456.6v15Z" class="g0_194"/>
<path fill-rule="evenodd" d="M456.6,311.9H695.7V296.8H456.6v15.1Z" class="g0_194"/>
<path fill-rule="evenodd" d="M456.6,326.9H695.7v-15H456.6v15Z" class="g0_194"/>
<path fill-rule="evenodd" d="M457,341.9H695.7v-15H457v15Z" class="g0_194"/>
<path fill-rule="evenodd" d="M457,357.2H695.7V342H457v15.2Z" class="g0_194"/>
<path fill-rule="evenodd" d="M456.2,372.2H695.3v-15H456.2v15Z" class="g0_194"/>
<path fill-rule="evenodd" d="M456.2,387.3H695.3V372.2H456.2v15.1Z" class="g0_194"/>
<path fill-rule="evenodd" d="M456.2,402.3H695.3v-15H456.2v15Z" class="g0_194"/>
<path fill-rule="evenodd" d="M456.2,417.3H695.3v-15H456.2v15Z" class="g0_194"/>
<path fill-rule="evenodd" d="M456.2,432.4H695V417.3H456.2v15.1Z" class="g0_194"/>
<path fill-rule="evenodd" d="M456.2,447.4H695v-15H456.2v15Z" class="g0_194"/>
<path fill-rule="evenodd" d="M456.2,462.4H694.6v-15H456.2v15Z" class="g0_194"/>
<path fill-rule="evenodd" d="M456.2,477.5H694.6V462.4H456.2v15.1Z" class="g0_194"/>
<path fill-rule="evenodd" d="M421.4,551.9H697.2V527H421.4v24.9Z" class="g0_194"/>
<path fill-rule="evenodd" d="M196.9,588.2H438.6v-15H196.9v15Z" class="g0_194"/>
<path fill-rule="evenodd" d="M196.9,603.3H438.6V588.2H196.9v15.1Z" class="g0_194"/>
<path fill-rule="evenodd" d="M196.9,618.3H438.6v-15H196.9v15Z" class="g0_194"/>
<path fill-rule="evenodd" d="M196.6,633.7H438.2v-15H196.6v15Z" class="g0_194"/>
<path fill-rule="evenodd" d="M196.6,648.7H438.2v-15H196.6v15Z" class="g0_194"/>
<path fill-rule="evenodd" d="M196.6,663.8H438.2V648.7H196.6v15.1Z" class="g0_194"/>
<path fill-rule="evenodd" d="M196.6,679H438.2V663.8H196.6V679Z" class="g0_194"/>
<path fill-rule="evenodd" d="M195.8,694H437.9V679H195.8v15Z" class="g0_194"/>
<path fill-rule="evenodd" d="M195.8,709.1H437.9V694H195.8v15.1Z" class="g0_194"/>
<path fill-rule="evenodd" d="M195.8,724.1H437.9v-15H195.8v15Z" class="g0_194"/>
<path fill-rule="evenodd" d="M195.8,739.1H437.9v-15H195.8v15Z" class="g0_194"/>
<path fill-rule="evenodd" d="M195.8,754.2H437.9V739.1H195.8v15.1Z" class="g0_194"/>
<path fill-rule="evenodd" d="M195.8,769.2H437.9v-15H195.8v15Z" class="g0_194"/>
<path fill-rule="evenodd" d="M195.8,784.2H437.9v-15H195.8v15Z" class="g0_194"/>
<path fill-rule="evenodd" d="M195.8,799.3H437.9V784.2H195.8v15.1Z" class="g0_194"/>
<path fill-rule="evenodd" d="M214.2,814.3H438.6v-15H214.2v15Z" class="g0_194"/>
<path fill-rule="evenodd" d="M195.8,829.3H437.1v-15H195.8v15Z" class="g0_194"/>
<path fill-rule="evenodd" d="M213.8,844.4H438.6V829.3H213.8v15.1Z" class="g0_194"/>
<path fill-rule="evenodd" d="M214.2,859.6H438.6V844.4H214.2v15.2Z" class="g0_194"/>
<path fill-rule="evenodd" d="M197.7,874.7H438.6V859.6H197.7v15.1Z" class="g0_194"/>
<path fill-rule="evenodd" d="M452.6,588.2H695v-15H452.6v15Z" class="g0_194"/>
<path fill-rule="evenodd" d="M452.6,603.3H695V588.2H452.6v15.1Z" class="g0_194"/>
<path fill-rule="evenodd" d="M452.6,618.3H695v-15H452.6v15Z" class="g0_194"/>
<path fill-rule="evenodd" d="M452.6,634.1H694.2V619H452.6v15.1Z" class="g0_194"/>
<path fill-rule="evenodd" d="M452.6,649.1H694.2v-15H452.6v15Z" class="g0_194"/>
<path fill-rule="evenodd" d="M450.7,664.3H694.2V649.1H450.7v15.2Z" class="g0_194"/>
<path fill-rule="evenodd" d="M450.7,679.4H694.2V664.3H450.7v15.1Z" class="g0_194"/>
<path fill-rule="evenodd" d="M450.7,694.4H694.2v-15H450.7v15Z" class="g0_194"/>
<path fill-rule="evenodd" d="M450.7,709.4H694.2v-15H450.7v15Z" class="g0_194"/>
<path fill-rule="evenodd" d="M450.7,724.5H694.2V709.4H450.7v15.1Z" class="g0_194"/>
<path fill-rule="evenodd" d="M450.7,739.5H694.2v-15H450.7v15Z" class="g0_194"/>
<path fill-rule="evenodd" d="M450.7,754.5H694.2v-15H450.7v15Z" class="g0_194"/>
<path fill-rule="evenodd" d="M452.2,769.6H693.9V754.5H452.2v15.1Z" class="g0_194"/>
<path fill-rule="evenodd" d="M452.2,784.6H693.9v-15H452.2v15Z" class="g0_194"/>
<path fill-rule="evenodd" d="M451.5,799.6H694.2v-15H451.5v15Z" class="g0_194"/>
<path fill-rule="evenodd" d="M451.5,814.7H694.2V799.6H451.5v15.1Z" class="g0_194"/>
<path fill-rule="evenodd" d="M451.5,829.7H694.2v-15H451.5v15Z" class="g0_194"/>
<path fill-rule="evenodd" d="M470.2,845H695V829.7H470.2V845Z" class="g0_194"/>
<path fill-rule="evenodd" d="M451.8,860H694.2V845H451.8v15Z" class="g0_194"/>
<path fill-rule="evenodd" d="M451.8,875H694.2V860H451.8v15Z" class="g0_194"/>
<path fill-rule="evenodd" d="M431.3,908H697.2V890.4H431.3V908Z" class="g0_194"/>
<path d="M445.5,146V499" class="g1_194"/>
<path d="M442.9,572.3V897.2" class="g2_194"/>
</svg>