<?xml version="1.0" encoding="UTF-8" standalone="no"?>
<!DOCTYPE svg PUBLIC "-//W3C//DTD SVG 1.1//EN"
"http://www.w3.org/Graphics/SVG/1.1/DTD/svg11.dtd">
<svg viewBox="0 0 909 1285" version="1.1" xmlns="http://www.w3.org/2000/svg" xmlns:xlink="http://www.w3.org/1999/xlink">
<defs>
<style type="text/css"><![CDATA[
.g0_211{
fill: #FFFFFF;
}
.g1_211{
fill: none;
stroke: #000000;
stroke-width: 0.763;
stroke-linecap: butt;
stroke-linejoin: round;
}
.g2_211{
fill: none;
stroke: #000000;
stroke-width: 0.381;
stroke-linecap: butt;
stroke-linejoin: round;
}
]]></style>
</defs>
<path fill-rule="evenodd" d="M279.8,125.8h497V110h-497v15.8Z" class="g0_211"/>
<path fill-rule="evenodd" d="M279.8,162.1H518.6v-15H279.8v15Z" class="g0_211"/>
<path fill-rule="evenodd" d="M279.8,177.1H518.6v-15H279.8v15Z" class="g0_211"/>
<path fill-rule="evenodd" d="M279.8,192.2H518.6V177.1H279.8v15.1Z" class="g0_211"/>
<path fill-rule="evenodd" d="M279.5,207.2H518.2v-15H279.5v15Z" class="g0_211"/>
<path fill-rule="evenodd" d="M279.5,222.2H518.2v-15H279.5v15Z" class="g0_211"/>
<path fill-rule="evenodd" d="M279.5,237.4H518.2V222.2H279.5v15.2Z" class="g0_211"/>
<path fill-rule="evenodd" d="M279.5,252.5H518.2V237.4H279.5v15.1Z" class="g0_211"/>
<path fill-rule="evenodd" d="M279.5,267.5H518.2v-15H279.5v15Z" class="g0_211"/>
<path fill-rule="evenodd" d="M279.5,282.5H518.2v-15H279.5v15Z" class="g0_211"/>
<path fill-rule="evenodd" d="M279.1,297.6H517.8V282.5H279.1v15.1Z" class="g0_211"/>
<path fill-rule="evenodd" d="M279.1,312.6H517.8v-15H279.1v15Z" class="g0_211"/>
<path fill-rule="evenodd" d="M279.1,327.6H517.8v-15H279.1v15Z" class="g0_211"/>
<path fill-rule="evenodd" d="M279.1,342.7H517.8V327.6H279.1v15.1Z" class="g0_211"/>
<path fill-rule="evenodd" d="M278.7,357.8H517.8V342.7H278.7v15.1Z" class="g0_211"/>
<path fill-rule="evenodd" d="M278.7,372.8H517.8v-15H278.7v15Z" class="g0_211"/>
<path fill-rule="evenodd" d="M278.7,387.8H517.5v-15H278.7v15Z" class="g0_211"/>
<path fill-rule="evenodd" d="M278.7,403H517.5V387.8H278.7V403Z" class="g0_211"/>
<path fill-rule="evenodd" d="M278.7,418.1H517.5V403H278.7v15.1Z" class="g0_211"/>
<path fill-rule="evenodd" d="M278.7,433.1H517.5v-15H278.7v15Z" class="g0_211"/>
<path fill-rule="evenodd" d="M278.4,448.1H517.1v-15H278.4v15Z" class="g0_211"/>
<path fill-rule="evenodd" d="M278.4,463.2H517.1V448.1H278.4v15.1Z" class="g0_211"/>
<path fill-rule="evenodd" d="M278,478.2H516.7v-15H278v15Z" class="g0_211"/>
<path fill-rule="evenodd" d="M278,493.2H516.7v-15H278v15Z" class="g0_211"/>
<path fill-rule="evenodd" d="M296.3,508.3H518.6V493.2H296.3v15.1Z" class="g0_211"/>
<path fill-rule="evenodd" d="M278,523.3H516.7v-15H278v15Z" class="g0_211"/>
<path fill-rule="evenodd" d="M278,538.3H516.7v-15H278v15Z" class="g0_211"/>
<path fill-rule="evenodd" d="M278,553.4H516.7V538.3H278v15.1Z" class="g0_211"/>
<path fill-rule="evenodd" d="M277.6,568.4H516.7v-15H277.6v15Z" class="g0_211"/>
<path fill-rule="evenodd" d="M277.6,583.6H516.7V568.4H277.6v15.2Z" class="g0_211"/>
<path fill-rule="evenodd" d="M277.6,598.7H516.4V583.6H277.6v15.1Z" class="g0_211"/>
<path fill-rule="evenodd" d="M277.6,613.7H516.4v-15H277.6v15Z" class="g0_211"/>
<path fill-rule="evenodd" d="M277.3,628.8H516.4V613.7H277.3v15.1Z" class="g0_211"/>
<path fill-rule="evenodd" d="M277.3,643.8H516.4v-15H277.3v15Z" class="g0_211"/>
<path fill-rule="evenodd" d="M277.3,658.8H516.4v-15H277.3v15Z" class="g0_211"/>
<path fill-rule="evenodd" d="M277.3,673.9H516.4V658.8H277.3v15.1Z" class="g0_211"/>
<path fill-rule="evenodd" d="M277.3,688.9H516.4v-15H277.3v15Z" class="g0_211"/>
<path fill-rule="evenodd" d="M277.3,704.3H515.6v-15H277.3v15Z" class="g0_211"/>
<path fill-rule="evenodd" d="M277.3,719.3H515.6v-15H277.3v15Z" class="g0_211"/>
<path fill-rule="evenodd" d="M277.3,734.4H515.6V719.3H277.3v15.1Z" class="g0_211"/>
<path fill-rule="evenodd" d="M276.9,749.6H515.3V734.4H276.9v15.2Z" class="g0_211"/>
<path fill-rule="evenodd" d="M276.9,764.6H515.3v-15H276.9v15Z" class="g0_211"/>
<path fill-rule="evenodd" d="M276.5,779.6H515.3v-15H276.5v15Z" class="g0_211"/>
<path fill-rule="evenodd" d="M276.5,794.7H515.3V779.6H276.5v15.1Z" class="g0_211"/>
<path fill-rule="evenodd" d="M276.5,809.7H515.3v-15H276.5v15Z" class="g0_211"/>
<path fill-rule="evenodd" d="M276.5,824.7H515.3v-15H276.5v15Z" class="g0_211"/>
<path fill-rule="evenodd" d="M276.5,839.8H515.3V824.7H276.5v15.1Z" class="g0_211"/>
<path fill-rule="evenodd" d="M276.2,854.9H515.3V839.8H276.2v15.1Z" class="g0_211"/>
<path fill-rule="evenodd" d="M276.2,869.9H515.3v-15H276.2v15Z" class="g0_211"/>
<path fill-rule="evenodd" d="M279.8,884.9H518.6v-15H279.8v15Z" class="g0_211"/>
<path fill-rule="evenodd" d="M539.5,162.1H776.7v-15H539.5v15Z" class="g0_211"/>
<path fill-rule="evenodd" d="M539.5,177.1H776.7v-15H539.5v15Z" class="g0_211"/>
<path fill-rule="evenodd" d="M538.7,192.2H776.4V177.1H538.7v15.1Z" class="g0_211"/>
<path fill-rule="evenodd" d="M538.7,207.2H776.4v-15H538.7v15Z" class="g0_211"/>
<path fill-rule="evenodd" d="M538.7,222.2H776.4v-15H538.7v15Z" class="g0_211"/>
<path fill-rule="evenodd" d="M538.7,237.4H776.4V222.2H538.7v15.2Z" class="g0_211"/>
<path fill-rule="evenodd" d="M539.1,252.5H775.6V237.4H539.1v15.1Z" class="g0_211"/>
<path fill-rule="evenodd" d="M539.1,267.5H775.6v-15H539.1v15Z" class="g0_211"/>
<path fill-rule="evenodd" d="M556.7,282.5h220v-15h-220v15Z" class="g0_211"/>
<path fill-rule="evenodd" d="M556.7,297.6h220V282.5h-220v15.1Z" class="g0_211"/>
<path fill-rule="evenodd" d="M538.7,312.6H775.6v-15H538.7v15Z" class="g0_211"/>
<path fill-rule="evenodd" d="M538.7,327.6H775.6v-15H538.7v15Z" class="g0_211"/>
<path fill-rule="evenodd" d="M556.3,342.7H776.7V327.6H556.3v15.1Z" class="g0_211"/>
<path fill-rule="evenodd" d="M538.7,357.8H775.6V342.7H538.7v15.1Z" class="g0_211"/>
<path fill-rule="evenodd" d="M538.7,372.8H775.6v-15H538.7v15Z" class="g0_211"/>
<path fill-rule="evenodd" d="M538.4,387.8H776v-15H538.4v15Z" class="g0_211"/>
<path fill-rule="evenodd" d="M538.4,403H776V387.8H538.4V403Z" class="g0_211"/>
<path fill-rule="evenodd" d="M538.4,418.1H776V403H538.4v15.1Z" class="g0_211"/>
<path fill-rule="evenodd" d="M537.6,433.1H776v-15H537.6v15Z" class="g0_211"/>
<path fill-rule="evenodd" d="M537.6,448.1H776v-15H537.6v15Z" class="g0_211"/>
<path fill-rule="evenodd" d="M537.6,463.2H776V448.1H537.6v15.1Z" class="g0_211"/>
<path fill-rule="evenodd" d="M537.3,478.2H775.6v-15H537.3v15Z" class="g0_211"/>
<path fill-rule="evenodd" d="M537.3,493.2H775.6v-15H537.3v15Z" class="g0_211"/>
<path fill-rule="evenodd" d="M537.3,508.3H775.6V493.2H537.3v15.1Z" class="g0_211"/>
<path fill-rule="evenodd" d="M536.9,523.3H776v-15H536.9v15Z" class="g0_211"/>
<path fill-rule="evenodd" d="M536.9,538.3H776v-15H536.9v15Z" class="g0_211"/>
<path fill-rule="evenodd" d="M536.9,553.4H776V538.3H536.9v15.1Z" class="g0_211"/>
<path fill-rule="evenodd" d="M536.9,568.4H776v-15H536.9v15Z" class="g0_211"/>
<path fill-rule="evenodd" d="M536.9,583.6H776V568.4H536.9v15.2Z" class="g0_211"/>
<path fill-rule="evenodd" d="M536.9,598.7H776V583.6H536.9v15.1Z" class="g0_211"/>
<path fill-rule="evenodd" d="M536.9,613.7H776v-15H536.9v15Z" class="g0_211"/>
<path fill-rule="evenodd" d="M536.9,628.8H776V613.7H536.9v15.1Z" class="g0_211"/>
<path fill-rule="evenodd" d="M536.2,643.8H775.6v-15H536.2v15Z" class="g0_211"/>
<path fill-rule="evenodd" d="M536.2,658.8H775.6v-15H536.2v15Z" class="g0_211"/>
<path fill-rule="evenodd" d="M536.2,673.9H775.6V658.8H536.2v15.1Z" class="g0_211"/>
<path fill-rule="evenodd" d="M536.2,688.9H775.6v-15H536.2v15Z" class="g0_211"/>
<path fill-rule="evenodd" d="M536.2,703.9H775.6v-15H536.2v15Z" class="g0_211"/>
<path fill-rule="evenodd" d="M536.2,719H775.6V703.9H536.2V719Z" class="g0_211"/>
<path fill-rule="evenodd" d="M536.2,734H775.3V719H536.2v15Z" class="g0_211"/>
<path fill-rule="evenodd" d="M536.2,749H775.3V734H536.2v15Z" class="g0_211"/>
<path fill-rule="evenodd" d="M536.2,764.2H775.3V749H536.2v15.2Z" class="g0_211"/>
<path fill-rule="evenodd" d="M536.2,779.3H775.3V764.2H536.2v15.1Z" class="g0_211"/>
<path fill-rule="evenodd" d="M535.8,794.3H775.3v-15H535.8v15Z" class="g0_211"/>
<path fill-rule="evenodd" d="M535.8,809.3H775.3v-15H535.8v15Z" class="g0_211"/>
<path fill-rule="evenodd" d="M536.2,824.4H775.3V809.3H536.2v15.1Z" class="g0_211"/>
<path fill-rule="evenodd" d="M536.2,839.5H775.3V824.4H536.2v15.1Z" class="g0_211"/>
<path fill-rule="evenodd" d="M536.2,854.5H775.3v-15H536.2v15Z" class="g0_211"/>
<path fill-rule="evenodd" d="M536.2,869.5H775.3v-15H536.2v15Z" class="g0_211"/>
<path fill-rule="evenodd" d="M536.2,884.6H775.3V869.5H536.2v15.1Z" class="g0_211"/>
<path fill-rule="evenodd" d="M512,916.8H776.7V899.2H512v17.6Z" class="g0_211"/>
<path d="M204.2,123.9v82.5" class="g1_211"/>
<path d="M219.6,118.8v81.4M203.9,484.8V651.6m5.8,-200.2V705.5m11,-269.9v527M525.4,148.1V917" class="g2_211"/>
</svg>