<?xml version="1.0" encoding="UTF-8" standalone="no"?>
<!DOCTYPE svg PUBLIC "-//W3C//DTD SVG 1.1//EN"
"http://www.w3.org/Graphics/SVG/1.1/DTD/svg11.dtd">
<svg viewBox="0 0 909 1285" version="1.1" xmlns="http://www.w3.org/2000/svg" xmlns:xlink="http://www.w3.org/1999/xlink">
<defs>
<style type="text/css"><![CDATA[
.g0_262{
fill: #FFFFFF;
}
.g1_262{
fill: none;
stroke: #000000;
stroke-width: 0.381;
stroke-linecap: butt;
stroke-linejoin: round;
}
]]></style>
</defs>
<path fill-rule="evenodd" d="M666.6,134.6H726V110H666.6v24.6Z" class="g0_262"/>
<path fill-rule="evenodd" d="M200,169.4H438.8V154.8H200v14.6Z" class="g0_262"/>
<path fill-rule="evenodd" d="M200,184.1H438.8V169.4H200v14.7Z" class="g0_262"/>
<path fill-rule="evenodd" d="M200,198.8H439.5V184.1H200v14.7Z" class="g0_262"/>
<path fill-rule="evenodd" d="M200,213.4H439.5V198.8H200v14.6Z" class="g0_262"/>
<path fill-rule="evenodd" d="M200,228.1H439.5V213.4H200v14.7Z" class="g0_262"/>
<path fill-rule="evenodd" d="M200,242.8H439.5V228.1H200v14.7Z" class="g0_262"/>
<path fill-rule="evenodd" d="M200,257.4H439.5V242.8H200v14.6Z" class="g0_262"/>
<path fill-rule="evenodd" d="M200,272.1H439.5V257.4H200v14.7Z" class="g0_262"/>
<path fill-rule="evenodd" d="M199.7,286.8H439.1V272.1H199.7v14.7Z" class="g0_262"/>
<path fill-rule="evenodd" d="M199.7,301.4H439.1V286.8H199.7v14.6Z" class="g0_262"/>
<path fill-rule="evenodd" d="M199.7,316.1H439.1V301.4H199.7v14.7Z" class="g0_262"/>
<path fill-rule="evenodd" d="M199.7,330.8H439.1V316.1H199.7v14.7Z" class="g0_262"/>
<path fill-rule="evenodd" d="M199.7,345.4H438.8V330.8H199.7v14.6Z" class="g0_262"/>
<path fill-rule="evenodd" d="M199.7,360.1H438.8V345.4H199.7v14.7Z" class="g0_262"/>
<path fill-rule="evenodd" d="M218,375.2H439.5V360.5H218v14.7Z" class="g0_262"/>
<path fill-rule="evenodd" d="M199.7,390.2H438.4V375.5H199.7v14.7Z" class="g0_262"/>
<path fill-rule="evenodd" d="M199.7,404.9H438.4V390.2H199.7v14.7Z" class="g0_262"/>
<path fill-rule="evenodd" d="M199.7,419.5H438.4V404.9H199.7v14.6Z" class="g0_262"/>
<path fill-rule="evenodd" d="M199.7,434.2H438.4V419.5H199.7v14.7Z" class="g0_262"/>
<path fill-rule="evenodd" d="M199.3,448.9H438.4V434.2H199.3v14.7Z" class="g0_262"/>
<path fill-rule="evenodd" d="M199.3,463.5H438.4V448.9H199.3v14.6Z" class="g0_262"/>
<path fill-rule="evenodd" d="M199.3,478.2H438.4V463.5H199.3v14.7Z" class="g0_262"/>
<path fill-rule="evenodd" d="M199.3,492.9H438.4V478.2H199.3v14.7Z" class="g0_262"/>
<path fill-rule="evenodd" d="M199.3,507.5H438.4V492.9H199.3v14.6Z" class="g0_262"/>
<path fill-rule="evenodd" d="M199.3,522.2H438.4V507.5H199.3v14.7Z" class="g0_262"/>
<path fill-rule="evenodd" d="M199.3,536.9H438.4V522.2H199.3v14.7Z" class="g0_262"/>
<path fill-rule="evenodd" d="M198.6,551.5H438.4V536.9H198.6v14.6Z" class="g0_262"/>
<path fill-rule="evenodd" d="M198.6,566.2H438.4V551.5H198.6v14.7Z" class="g0_262"/>
<path fill-rule="evenodd" d="M198.6,580.9H438.4V566.2H198.6v14.7Z" class="g0_262"/>
<path fill-rule="evenodd" d="M198.6,595.6H438.4V580.9H198.6v14.7Z" class="g0_262"/>
<path fill-rule="evenodd" d="M216.9,610.2H439.5V595.6H216.9v14.6Z" class="g0_262"/>
<path fill-rule="evenodd" d="M198.9,624.9H438V610.2H198.9v14.7Z" class="g0_262"/>
<path fill-rule="evenodd" d="M198.9,639.6H438V624.9H198.9v14.7Z" class="g0_262"/>
<path fill-rule="evenodd" d="M198.9,654.2H438V639.6H198.9v14.6Z" class="g0_262"/>
<path fill-rule="evenodd" d="M216.9,668.9H439.5V654.2H216.9v14.7Z" class="g0_262"/>
<path fill-rule="evenodd" d="M198.6,683.6H438V668.9H198.6v14.7Z" class="g0_262"/>
<path fill-rule="evenodd" d="M198.6,698.2H438V683.6H198.6v14.6Z" class="g0_262"/>
<path fill-rule="evenodd" d="M198.6,712.9H438V698.2H198.6v14.7Z" class="g0_262"/>
<path fill-rule="evenodd" d="M198.6,727.6H437.7V712.9H198.6v14.7Z" class="g0_262"/>
<path fill-rule="evenodd" d="M198.6,742.2H437.7V727.6H198.6v14.6Z" class="g0_262"/>
<path fill-rule="evenodd" d="M198.6,756.9H438V742.2H198.6v14.7Z" class="g0_262"/>
<path fill-rule="evenodd" d="M198.6,771.6H438V756.9H198.6v14.7Z" class="g0_262"/>
<path fill-rule="evenodd" d="M198.6,786.2H438V771.6H198.6v14.6Z" class="g0_262"/>
<path fill-rule="evenodd" d="M198.6,801.3H438V786.2H198.6v15.1Z" class="g0_262"/>
<path fill-rule="evenodd" d="M198.6,815.9H438V801.3H198.6v14.6Z" class="g0_262"/>
<path fill-rule="evenodd" d="M198.6,830.6H438V815.9H198.6v14.7Z" class="g0_262"/>
<path fill-rule="evenodd" d="M198.6,845.3H438V830.6H198.6v14.7Z" class="g0_262"/>
<path fill-rule="evenodd" d="M198.6,860H437.3V845.3H198.6V860Z" class="g0_262"/>
<path fill-rule="evenodd" d="M198.6,874.7H437.3V860H198.6v14.7Z" class="g0_262"/>
<path fill-rule="evenodd" d="M198.6,889.3H437.3V874.7H198.6v14.6Z" class="g0_262"/>
<path fill-rule="evenodd" d="M218.4,904H439.5V889.3H218.4V904Z" class="g0_262"/>
<path fill-rule="evenodd" d="M478.1,169.1H700.3V154.4H478.1v14.7Z" class="g0_262"/>
<path fill-rule="evenodd" d="M460.5,184.1H700.3V169.4H460.5v14.7Z" class="g0_262"/>
<path fill-rule="evenodd" d="M460.5,198.8H700.3V184.1H460.5v14.7Z" class="g0_262"/>
<path fill-rule="evenodd" d="M460.5,213.4H700.3V198.8H460.5v14.6Z" class="g0_262"/>
<path fill-rule="evenodd" d="M460.1,228.1H700.3V213.4H460.1v14.7Z" class="g0_262"/>
<path fill-rule="evenodd" d="M460.1,242.8H700.3V228.1H460.1v14.7Z" class="g0_262"/>
<path fill-rule="evenodd" d="M460.1,257.4H700.3V242.8H460.1v14.6Z" class="g0_262"/>
<path fill-rule="evenodd" d="M459.7,272.5H700.3V257.8H459.7v14.7Z" class="g0_262"/>
<path fill-rule="evenodd" d="M459.7,287.1H700.3V272.5H459.7v14.6Z" class="g0_262"/>
<path fill-rule="evenodd" d="M459.7,301.8H700.3V287.1H459.7v14.7Z" class="g0_262"/>
<path fill-rule="evenodd" d="M459.7,316.5H700.3V301.8H459.7v14.7Z" class="g0_262"/>
<path fill-rule="evenodd" d="M459.7,331.1H700.3V316.5H459.7v14.6Z" class="g0_262"/>
<path fill-rule="evenodd" d="M459.7,345.8H700.3V331.1H459.7v14.7Z" class="g0_262"/>
<path fill-rule="evenodd" d="M459.7,360.5H700.3V345.8H459.7v14.7Z" class="g0_262"/>
<path fill-rule="evenodd" d="M459.7,375.2H700.3V360.5H459.7v14.7Z" class="g0_262"/>
<path fill-rule="evenodd" d="M459.7,389.8H700.3V375.2H459.7v14.6Z" class="g0_262"/>
<path fill-rule="evenodd" d="M459.4,404.5H699.9V389.8H459.4v14.7Z" class="g0_262"/>
<path fill-rule="evenodd" d="M459.4,419.2H699.9V404.5H459.4v14.7Z" class="g0_262"/>
<path fill-rule="evenodd" d="M459.4,433.8H699.9V419.2H459.4v14.6Z" class="g0_262"/>
<path fill-rule="evenodd" d="M459.4,448.5H699.9V433.8H459.4v14.7Z" class="g0_262"/>
<path fill-rule="evenodd" d="M459.4,463.2H699.9V448.5H459.4v14.7Z" class="g0_262"/>
<path fill-rule="evenodd" d="M459.4,477.8H699.9V463.2H459.4v14.6Z" class="g0_262"/>
<path fill-rule="evenodd" d="M459,492.9H699.6V478.2H459v14.7Z" class="g0_262"/>
<path fill-rule="evenodd" d="M459,507.5H699.6V492.9H459v14.6Z" class="g0_262"/>
<path fill-rule="evenodd" d="M459,522.2H699.6V507.5H459v14.7Z" class="g0_262"/>
<path fill-rule="evenodd" d="M459,536.9H699.6V522.2H459v14.7Z" class="g0_262"/>
<path fill-rule="evenodd" d="M477,551.5H700.3V536.9H477v14.6Z" class="g0_262"/>
<path fill-rule="evenodd" d="M477,566.6H700.3V551.5H477v15.1Z" class="g0_262"/>
<path fill-rule="evenodd" d="M459,581.8H699.2V566.9H459v14.9Z" class="g0_262"/>
<path fill-rule="evenodd" d="M459,596.5H699.2V581.8H459v14.7Z" class="g0_262"/>
<path fill-rule="evenodd" d="M459,611.2H699.2V596.5H459v14.7Z" class="g0_262"/>
<path fill-rule="evenodd" d="M458.6,625.8H698.5V611.2H458.6v14.6Z" class="g0_262"/>
<path fill-rule="evenodd" d="M458.6,640.5H698.5V625.8H458.6v14.7Z" class="g0_262"/>
<path fill-rule="evenodd" d="M458.6,655.2H698.5V640.5H458.6v14.7Z" class="g0_262"/>
<path fill-rule="evenodd" d="M458.6,669.8H698.5V655.2H458.6v14.6Z" class="g0_262"/>
<path fill-rule="evenodd" d="M458.6,684.5H698.8V669.8H458.6v14.7Z" class="g0_262"/>
<path fill-rule="evenodd" d="M458.6,699.2H698.8V684.5H458.6v14.7Z" class="g0_262"/>
<path fill-rule="evenodd" d="M458.6,713.8H698.8V699.2H458.6v14.6Z" class="g0_262"/>
<path fill-rule="evenodd" d="M458.6,729.2H698.5V714.6H458.6v14.6Z" class="g0_262"/>
<path fill-rule="evenodd" d="M458.6,743.9H698.5V729.2H458.6v14.7Z" class="g0_262"/>
<path fill-rule="evenodd" d="M458.3,758.6H698.5V743.9H458.3v14.7Z" class="g0_262"/>
<path fill-rule="evenodd" d="M458.3,773.2H698.5V758.6H458.3v14.6Z" class="g0_262"/>
<path fill-rule="evenodd" d="M458.3,787.9H698.5V773.2H458.3v14.7Z" class="g0_262"/>
<path fill-rule="evenodd" d="M458.3,802.9H698.1V788.3H458.3v14.6Z" class="g0_262"/>
<path fill-rule="evenodd" d="M458.3,817.6H698.1V802.9H458.3v14.7Z" class="g0_262"/>
<path fill-rule="evenodd" d="M458.6,832.3H698.5V817.6H458.6v14.7Z" class="g0_262"/>
<path fill-rule="evenodd" d="M458.6,847H698.5V832.3H458.6V847Z" class="g0_262"/>
<path fill-rule="evenodd" d="M458.3,861.6H698.8V847H458.3v14.6Z" class="g0_262"/>
<path fill-rule="evenodd" d="M458.3,876.3H698.8V861.6H458.3v14.7Z" class="g0_262"/>
<path fill-rule="evenodd" d="M458.3,891H698.8V876.3H458.3V891Z" class="g0_262"/>
<path fill-rule="evenodd" d="M434.4,923.2H726V905.6H434.4v17.6Z" class="g0_262"/>
<path d="M447.2,154V920.7" class="g1_262"/>
</svg>