<?xml version="1.0" encoding="UTF-8" standalone="no"?>
<!DOCTYPE svg PUBLIC "-//W3C//DTD SVG 1.1//EN"
"http://www.w3.org/Graphics/SVG/1.1/DTD/svg11.dtd">
<svg viewBox="0 0 909 1285" version="1.1" xmlns="http://www.w3.org/2000/svg" xmlns:xlink="http://www.w3.org/1999/xlink">
<defs>
<style type="text/css"><![CDATA[
.g0_78{
fill: #FFFFFF;
}
.g1_78{
fill: none;
stroke: #000000;
stroke-width: 0.381;
stroke-linecap: butt;
stroke-linejoin: round;
}
]]></style>
</defs>
<path fill-rule="evenodd" d="M630,125.8h59.5V110H630v15.8Z" class="g0_78"/>
<path fill-rule="evenodd" d="M188.5,161.7H428v-15H188.5v15Z" class="g0_78"/>
<path fill-rule="evenodd" d="M188.5,176.9H428V161.7H188.5v15.2Z" class="g0_78"/>
<path fill-rule="evenodd" d="M188.1,192H428V176.9H188.1V192Z" class="g0_78"/>
<path fill-rule="evenodd" d="M188.1,207H428V192H188.1v15Z" class="g0_78"/>
<path fill-rule="evenodd" d="M188.1,222H428V207H188.1v15Z" class="g0_78"/>
<path fill-rule="evenodd" d="M188.1,237.1H428.3V222H188.1v15.1Z" class="g0_78"/>
<path fill-rule="evenodd" d="M188.1,252.1H428.3v-15H188.1v15Z" class="g0_78"/>
<path fill-rule="evenodd" d="M187.8,267.5H427.6v-15H187.8v15Z" class="g0_78"/>
<path fill-rule="evenodd" d="M187.8,282.5H427.6v-15H187.8v15Z" class="g0_78"/>
<path fill-rule="evenodd" d="M187.8,297.6H427.6V282.5H187.8v15.1Z" class="g0_78"/>
<path fill-rule="evenodd" d="M187.8,312.6H427.6v-15H187.8v15Z" class="g0_78"/>
<path fill-rule="evenodd" d="M187.8,327.8H427.2V312.6H187.8v15.2Z" class="g0_78"/>
<path fill-rule="evenodd" d="M187.8,342.9H427.2V327.8H187.8v15.1Z" class="g0_78"/>
<path fill-rule="evenodd" d="M187.4,357.9H427.6v-15H187.4v15Z" class="g0_78"/>
<path fill-rule="evenodd" d="M187.4,373H427.6V357.9H187.4V373Z" class="g0_78"/>
<path fill-rule="evenodd" d="M187.4,388H427.6V373H187.4v15Z" class="g0_78"/>
<path fill-rule="evenodd" d="M187.4,403H427.6V388H187.4v15Z" class="g0_78"/>
<path fill-rule="evenodd" d="M187.4,418.1H427.6V403H187.4v15.1Z" class="g0_78"/>
<path fill-rule="evenodd" d="M187.4,433.1H427.6v-15H187.4v15Z" class="g0_78"/>
<path fill-rule="evenodd" d="M187.4,448.5H427.2v-15H187.4v15Z" class="g0_78"/>
<path fill-rule="evenodd" d="M187.4,463.5H427.2v-15H187.4v15Z" class="g0_78"/>
<path fill-rule="evenodd" d="M187.4,478.6H427.2V463.5H187.4v15.1Z" class="g0_78"/>
<path fill-rule="evenodd" d="M187,493.8H427.2V478.6H187v15.2Z" class="g0_78"/>
<path fill-rule="evenodd" d="M187,508.8H427.2v-15H187v15Z" class="g0_78"/>
<path fill-rule="evenodd" d="M187,523.9H427.2V508.8H187v15.1Z" class="g0_78"/>
<path fill-rule="evenodd" d="M187,538.9H427.2v-15H187v15Z" class="g0_78"/>
<path fill-rule="evenodd" d="M187,553.9H427.2v-15H187v15Z" class="g0_78"/>
<path fill-rule="evenodd" d="M187,569H427.2V553.9H187V569Z" class="g0_78"/>
<path fill-rule="evenodd" d="M187,584H427.2V569H187v15Z" class="g0_78"/>
<path fill-rule="evenodd" d="M187,599.1H427.2V584H187v15.1Z" class="g0_78"/>
<path fill-rule="evenodd" d="M187,614.1H427.2v-15H187v15Z" class="g0_78"/>
<path fill-rule="evenodd" d="M187,629.1H427.2v-15H187v15Z" class="g0_78"/>
<path fill-rule="evenodd" d="M187,644.2H427.2V629.1H187v15.1Z" class="g0_78"/>
<path fill-rule="evenodd" d="M187,659.2H427.2v-15H187v15Z" class="g0_78"/>
<path fill-rule="evenodd" d="M187,674.4H427.2V659.2H187v15.2Z" class="g0_78"/>
<path fill-rule="evenodd" d="M187,689.4H427.2v-15H187v15Z" class="g0_78"/>
<path fill-rule="evenodd" d="M187,704.5H427.2V689.4H187v15.1Z" class="g0_78"/>
<path fill-rule="evenodd" d="M187,719.5H427.2v-15H187v15Z" class="g0_78"/>
<path fill-rule="evenodd" d="M187,734.5H427.2v-15H187v15Z" class="g0_78"/>
<path fill-rule="evenodd" d="M187,749.6H427.2V734.5H187v15.1Z" class="g0_78"/>
<path fill-rule="evenodd" d="M187,764.6H427.2v-15H187v15Z" class="g0_78"/>
<path fill-rule="evenodd" d="M187,779.6H427.2v-15H187v15Z" class="g0_78"/>
<path fill-rule="evenodd" d="M187,794.7H427.2V779.6H187v15.1Z" class="g0_78"/>
<path fill-rule="evenodd" d="M187,809.7H427.2v-15H187v15Z" class="g0_78"/>
<path fill-rule="evenodd" d="M187,824.7H427.2v-15H187v15Z" class="g0_78"/>
<path fill-rule="evenodd" d="M187,839.8H427.2V824.7H187v15.1Z" class="g0_78"/>
<path fill-rule="evenodd" d="M187,855H427.2V839.8H187V855Z" class="g0_78"/>
<path fill-rule="evenodd" d="M187.4,870.1H426.5V855H187.4v15.1Z" class="g0_78"/>
<path fill-rule="evenodd" d="M187.4,885.1H426.5v-15H187.4v15Z" class="g0_78"/>
<path fill-rule="evenodd" d="M188.5,900.1H428.3v-15H188.5v15Z" class="g0_78"/>
<path fill-rule="evenodd" d="M448.5,161.7H689.1v-15H448.5v15Z" class="g0_78"/>
<path fill-rule="evenodd" d="M448.5,176.9H689.1V161.7H448.5v15.2Z" class="g0_78"/>
<path fill-rule="evenodd" d="M448.5,192H689.1V176.9H448.5V192Z" class="g0_78"/>
<path fill-rule="evenodd" d="M448.5,207H689.1V192H448.5v15Z" class="g0_78"/>
<path fill-rule="evenodd" d="M448.5,222H689.1V207H448.5v15Z" class="g0_78"/>
<path fill-rule="evenodd" d="M448.5,237.1H689.1V222H448.5v15.1Z" class="g0_78"/>
<path fill-rule="evenodd" d="M448.5,252.1H689.1v-15H448.5v15Z" class="g0_78"/>
<path fill-rule="evenodd" d="M448.5,267.1H689.1v-15H448.5v15Z" class="g0_78"/>
<path fill-rule="evenodd" d="M447.8,282.2H689.1V267.1H447.8v15.1Z" class="g0_78"/>
<path fill-rule="evenodd" d="M447.8,297.2H689.1v-15H447.8v15Z" class="g0_78"/>
<path fill-rule="evenodd" d="M447.8,312.2H689.1v-15H447.8v15Z" class="g0_78"/>
<path fill-rule="evenodd" d="M447.8,327.3H689.1V312.2H447.8v15.1Z" class="g0_78"/>
<path fill-rule="evenodd" d="M447.8,342.5H689.1V327.3H447.8v15.2Z" class="g0_78"/>
<path fill-rule="evenodd" d="M447.8,357.6H689.1V342.5H447.8v15.1Z" class="g0_78"/>
<path fill-rule="evenodd" d="M447.8,372.6H689.1v-15H447.8v15Z" class="g0_78"/>
<path fill-rule="evenodd" d="M447.8,387.6H689.1v-15H447.8v15Z" class="g0_78"/>
<path fill-rule="evenodd" d="M447.8,402.7H689.1V387.6H447.8v15.1Z" class="g0_78"/>
<path fill-rule="evenodd" d="M447.8,417.7H689.1v-15H447.8v15Z" class="g0_78"/>
<path fill-rule="evenodd" d="M447.8,432.7H689.1v-15H447.8v15Z" class="g0_78"/>
<path fill-rule="evenodd" d="M447.8,447.8H689.1V432.7H447.8v15.1Z" class="g0_78"/>
<path fill-rule="evenodd" d="M447.4,462.8h241v-15h-241v15Z" class="g0_78"/>
<path fill-rule="evenodd" d="M447.4,477.8h241v-15h-241v15Z" class="g0_78"/>
<path fill-rule="evenodd" d="M447.4,492.9h241V477.8h-241v15.1Z" class="g0_78"/>
<path fill-rule="evenodd" d="M447.4,507.9h241v-15h-241v15Z" class="g0_78"/>
<path fill-rule="evenodd" d="M447.4,523.1h241V507.9h-241v15.2Z" class="g0_78"/>
<path fill-rule="evenodd" d="M447.4,538.2h241V523.1h-241v15.1Z" class="g0_78"/>
<path fill-rule="evenodd" d="M447.4,553.2h241v-15h-241v15Z" class="g0_78"/>
<path fill-rule="evenodd" d="M447.4,568.2h241v-15h-241v15Z" class="g0_78"/>
<path fill-rule="evenodd" d="M447.4,583.3h241V568.2h-241v15.1Z" class="g0_78"/>
<path fill-rule="evenodd" d="M447.4,598.3h241v-15h-241v15Z" class="g0_78"/>
<path fill-rule="evenodd" d="M447.4,613.4h241V598.3h-241v15.1Z" class="g0_78"/>
<path fill-rule="evenodd" d="M447.4,628.4h241v-15h-241v15Z" class="g0_78"/>
<path fill-rule="evenodd" d="M447.8,643.4H688.4v-15H447.8v15Z" class="g0_78"/>
<path fill-rule="evenodd" d="M447.8,658.5H688.4V643.4H447.8v15.1Z" class="g0_78"/>
<path fill-rule="evenodd" d="M447.4,673.5H689.1v-15H447.4v15Z" class="g0_78"/>
<path fill-rule="evenodd" d="M447.4,688.5H687.7v-15H447.4v15Z" class="g0_78"/>
<path fill-rule="evenodd" d="M447.4,703.7H687.7V688.5H447.4v15.2Z" class="g0_78"/>
<path fill-rule="evenodd" d="M447,718.8H688V703.7H447v15.1Z" class="g0_78"/>
<path fill-rule="evenodd" d="M447,733.8H688v-15H447v15Z" class="g0_78"/>
<path fill-rule="evenodd" d="M447,748.8H688v-15H447v15Z" class="g0_78"/>
<path fill-rule="evenodd" d="M447,763.9H688V748.8H447v15.1Z" class="g0_78"/>
<path fill-rule="evenodd" d="M447,778.9H688v-15H447v15Z" class="g0_78"/>
<path fill-rule="evenodd" d="M447,793.9H688v-15H447v15Z" class="g0_78"/>
<path fill-rule="evenodd" d="M447,809H688V793.9H447V809Z" class="g0_78"/>
<path fill-rule="evenodd" d="M447,824H688V809H447v15Z" class="g0_78"/>
<path fill-rule="evenodd" d="M447,839.1H688V824H447v15.1Z" class="g0_78"/>
<path fill-rule="evenodd" d="M447,854.1H688v-15H447v15Z" class="g0_78"/>
<path fill-rule="evenodd" d="M447.4,869.2H687.7V854.1H447.4v15.1Z" class="g0_78"/>
<path fill-rule="evenodd" d="M447.4,884.4H687.7V869.2H447.4v15.2Z" class="g0_78"/>
<path d="M436.3,146.4V914.5" class="g1_78"/>
</svg>