<?xml version="1.0" encoding="UTF-8" standalone="no"?>
<!DOCTYPE svg PUBLIC "-//W3C//DTD SVG 1.1//EN"
"http://www.w3.org/Graphics/SVG/1.1/DTD/svg11.dtd">
<svg viewBox="0 0 909 1285" version="1.1" xmlns="http://www.w3.org/2000/svg" xmlns:xlink="http://www.w3.org/1999/xlink">
<defs>
<style type="text/css"><![CDATA[
.g0_86{
fill: #FFFFFF;
}
.g1_86{
fill: none;
stroke: #000000;
stroke-width: 0.381;
stroke-linecap: butt;
stroke-linejoin: round;
}
]]></style>
</defs>
<path fill-rule="evenodd" d="M599.6,125.8h81.1V110H599.6v15.8Z" class="g0_86"/>
<path fill-rule="evenodd" d="M179.7,160.6H419.2v-15H179.7v15Z" class="g0_86"/>
<path fill-rule="evenodd" d="M179.7,175.7H419.2V160.6H179.7v15.1Z" class="g0_86"/>
<path fill-rule="evenodd" d="M179,190.7H419.2v-15H179v15Z" class="g0_86"/>
<path fill-rule="evenodd" d="M178.6,205.7H419.2v-15H178.6v15Z" class="g0_86"/>
<path fill-rule="evenodd" d="M178.6,220.9H419.2V205.7H178.6v15.2Z" class="g0_86"/>
<path fill-rule="evenodd" d="M178.6,236H419.2V220.9H178.6V236Z" class="g0_86"/>
<path fill-rule="evenodd" d="M178.6,251H419.2V236H178.6v15Z" class="g0_86"/>
<path fill-rule="evenodd" d="M179,266H419.2V251H179v15Z" class="g0_86"/>
<path fill-rule="evenodd" d="M179,281.1H419.2V266H179v15.1Z" class="g0_86"/>
<path fill-rule="evenodd" d="M179,296.1H419.2v-15H179v15Z" class="g0_86"/>
<path fill-rule="evenodd" d="M179,311.1H419.2v-15H179v15Z" class="g0_86"/>
<path fill-rule="evenodd" d="M179,326.2H419.2V311.1H179v15.1Z" class="g0_86"/>
<path fill-rule="evenodd" d="M179.3,341.2H418.4v-15H179.3v15Z" class="g0_86"/>
<path fill-rule="evenodd" d="M179.3,356.3H418.4V341.2H179.3v15.1Z" class="g0_86"/>
<path fill-rule="evenodd" d="M179,371.3H418.4v-15H179v15Z" class="g0_86"/>
<path fill-rule="evenodd" d="M179,386.5H418.4V371.3H179v15.2Z" class="g0_86"/>
<path fill-rule="evenodd" d="M197.3,401.6H419.2V386.5H197.3v15.1Z" class="g0_86"/>
<path fill-rule="evenodd" d="M197.3,416.6H419.2v-15H197.3v15Z" class="g0_86"/>
<path fill-rule="evenodd" d="M179,431.6H418.1v-15H179v15Z" class="g0_86"/>
<path fill-rule="evenodd" d="M179,446.7H418.1V431.6H179v15.1Z" class="g0_86"/>
<path fill-rule="evenodd" d="M177.9,461.7H418.4v-15H177.9v15Z" class="g0_86"/>
<path fill-rule="evenodd" d="M177.9,476.7H418.4v-15H177.9v15Z" class="g0_86"/>
<path fill-rule="evenodd" d="M177.9,491.8H418.4V476.7H177.9v15.1Z" class="g0_86"/>
<path fill-rule="evenodd" d="M177.9,506.8H418.4v-15H177.9v15Z" class="g0_86"/>
<path fill-rule="evenodd" d="M177.9,521.8H418.4v-15H177.9v15Z" class="g0_86"/>
<path fill-rule="evenodd" d="M177.9,536.9H418.4V521.8H177.9v15.1Z" class="g0_86"/>
<path fill-rule="evenodd" d="M177.9,551.9H418.4v-15H177.9v15Z" class="g0_86"/>
<path fill-rule="evenodd" d="M177.9,567.1H418.4V551.9H177.9v15.2Z" class="g0_86"/>
<path fill-rule="evenodd" d="M177.9,582.2H418.4V567.1H177.9v15.1Z" class="g0_86"/>
<path fill-rule="evenodd" d="M178.6,597.2H417.3v-15H178.6v15Z" class="g0_86"/>
<path fill-rule="evenodd" d="M178.6,612.3H417.3V597.2H178.6v15.1Z" class="g0_86"/>
<path fill-rule="evenodd" d="M177.9,627.7H417.7V612.6H177.9v15.1Z" class="g0_86"/>
<path fill-rule="evenodd" d="M177.9,642.7H417.7v-15H177.9v15Z" class="g0_86"/>
<path fill-rule="evenodd" d="M177.9,657.7H417.7v-15H177.9v15Z" class="g0_86"/>
<path fill-rule="evenodd" d="M178.6,672.8H417V657.7H178.6v15.1Z" class="g0_86"/>
<path fill-rule="evenodd" d="M178.6,687.8H417v-15H178.6v15Z" class="g0_86"/>
<path fill-rule="evenodd" d="M196.2,702.8h223v-15h-223v15Z" class="g0_86"/>
<path fill-rule="evenodd" d="M178.2,717.9H417.3V702.8H178.2v15.1Z" class="g0_86"/>
<path fill-rule="evenodd" d="M178.2,733.1H417.3V717.9H178.2v15.2Z" class="g0_86"/>
<path fill-rule="evenodd" d="M178.2,748.1H417.3v-15H178.2v15Z" class="g0_86"/>
<path fill-rule="evenodd" d="M178.2,763.1H417.3v-15H178.2v15Z" class="g0_86"/>
<path fill-rule="evenodd" d="M178.2,778.2H417.3V763.1H178.2v15.1Z" class="g0_86"/>
<path fill-rule="evenodd" d="M178.2,793.2H417.3v-15H178.2v15Z" class="g0_86"/>
<path fill-rule="evenodd" d="M178.2,808.2H417.3v-15H178.2v15Z" class="g0_86"/>
<path fill-rule="evenodd" d="M178.2,823.3H417.3V808.2H178.2v15.1Z" class="g0_86"/>
<path fill-rule="evenodd" d="M178.2,838.4H417.3V823.3H178.2v15.1Z" class="g0_86"/>
<path fill-rule="evenodd" d="M178.2,853.4H417.3v-15H178.2v15Z" class="g0_86"/>
<path fill-rule="evenodd" d="M180.1,868.4H417v-15H180.1v15Z" class="g0_86"/>
<path fill-rule="evenodd" d="M180.1,883.5H417V868.4H180.1v15.1Z" class="g0_86"/>
<path fill-rule="evenodd" d="M180.4,898.5H418.8v-15H180.4v15Z" class="g0_86"/>
<path fill-rule="evenodd" d="M439.3,160.6H680v-15H439.3v15Z" class="g0_86"/>
<path fill-rule="evenodd" d="M439.3,175.7H680V160.6H439.3v15.1Z" class="g0_86"/>
<path fill-rule="evenodd" d="M439,190.7H680.3v-15H439v15Z" class="g0_86"/>
<path fill-rule="evenodd" d="M439,205.7H680.3v-15H439v15Z" class="g0_86"/>
<path fill-rule="evenodd" d="M439,220.9H680.3V205.7H439v15.2Z" class="g0_86"/>
<path fill-rule="evenodd" d="M439.7,236H680V220.9H439.7V236Z" class="g0_86"/>
<path fill-rule="evenodd" d="M439.7,251H680V236H439.7v15Z" class="g0_86"/>
<path fill-rule="evenodd" d="M439.3,266H680V251H439.3v15Z" class="g0_86"/>
<path fill-rule="evenodd" d="M439.3,281.1H680V266H439.3v15.1Z" class="g0_86"/>
<path fill-rule="evenodd" d="M439.3,296.1H680v-15H439.3v15Z" class="g0_86"/>
<path fill-rule="evenodd" d="M458.1,311.1H680.3v-15H458.1v15Z" class="g0_86"/>
<path fill-rule="evenodd" d="M439.3,326.2H680V311.1H439.3v15.1Z" class="g0_86"/>
<path fill-rule="evenodd" d="M439.3,341.2H680v-15H439.3v15Z" class="g0_86"/>
<path fill-rule="evenodd" d="M439.3,356.3H680V341.2H439.3v15.1Z" class="g0_86"/>
<path fill-rule="evenodd" d="M439.3,371.3H680v-15H439.3v15Z" class="g0_86"/>
<path fill-rule="evenodd" d="M457,386.5H680.3V371.3H457v15.2Z" class="g0_86"/>
<path fill-rule="evenodd" d="M439,401.6H679.6V386.5H439v15.1Z" class="g0_86"/>
<path fill-rule="evenodd" d="M439,416.6H679.6v-15H439v15Z" class="g0_86"/>
<path fill-rule="evenodd" d="M439,431.6H679.6v-15H439v15Z" class="g0_86"/>
<path fill-rule="evenodd" d="M439,446.7H679.6V431.6H439v15.1Z" class="g0_86"/>
<path fill-rule="evenodd" d="M439,461.7H679.6v-15H439v15Z" class="g0_86"/>
<path fill-rule="evenodd" d="M439,476.7H679.2v-15H439v15Z" class="g0_86"/>
<path fill-rule="evenodd" d="M439,491.8H679.2V476.7H439v15.1Z" class="g0_86"/>
<path fill-rule="evenodd" d="M439,506.8H679.2v-15H439v15Z" class="g0_86"/>
<path fill-rule="evenodd" d="M438.6,521.8H678.5v-15H438.6v15Z" class="g0_86"/>
<path fill-rule="evenodd" d="M438.6,536.9H678.5V521.8H438.6v15.1Z" class="g0_86"/>
<path fill-rule="evenodd" d="M438.6,551.9H678.9v-15H438.6v15Z" class="g0_86"/>
<path fill-rule="evenodd" d="M438.6,567.1H678.9V551.9H438.6v15.2Z" class="g0_86"/>
<path fill-rule="evenodd" d="M438.6,582.2H678.5V567.1H438.6v15.1Z" class="g0_86"/>
<path fill-rule="evenodd" d="M438.6,597.2H678.5v-15H438.6v15Z" class="g0_86"/>
<path fill-rule="evenodd" d="M456.2,612.3H680.3V597.2H456.2v15.1Z" class="g0_86"/>
<path fill-rule="evenodd" d="M456.6,627.3H680.3v-15H456.6v15Z" class="g0_86"/>
<path fill-rule="evenodd" d="M456.6,642.7H680.3V627.3H456.6v15.4Z" class="g0_86"/>
<path fill-rule="evenodd" d="M438.2,657.7H678.1v-15H438.2v15Z" class="g0_86"/>
<path fill-rule="evenodd" d="M438.2,672.8H678.1V657.7H438.2v15.1Z" class="g0_86"/>
<path fill-rule="evenodd" d="M456.6,687.8H680.3v-15H456.6v15Z" class="g0_86"/>
<path fill-rule="evenodd" d="M438.6,702.8H678.5v-15H438.6v15Z" class="g0_86"/>
<path fill-rule="evenodd" d="M438.6,717.9H678.5V702.8H438.6v15.1Z" class="g0_86"/>
<path fill-rule="evenodd" d="M437.9,733.1h241V717.9h-241v15.2Z" class="g0_86"/>
<path fill-rule="evenodd" d="M437.9,748.1h241v-15h-241v15Z" class="g0_86"/>
<path fill-rule="evenodd" d="M437.9,763.5H678.1v-15H437.9v15Z" class="g0_86"/>
<path fill-rule="evenodd" d="M437.9,778.5H678.1v-15H437.9v15Z" class="g0_86"/>
<path fill-rule="evenodd" d="M437.9,793.6H678.1V778.5H437.9v15.1Z" class="g0_86"/>
<path fill-rule="evenodd" d="M437.9,808.6H678.1v-15H437.9v15Z" class="g0_86"/>
<path fill-rule="evenodd" d="M438.2,823.6H678.5v-15H438.2v15Z" class="g0_86"/>
<path fill-rule="evenodd" d="M438.2,838.7H678.5V823.6H438.2v15.1Z" class="g0_86"/>
<path fill-rule="evenodd" d="M436.8,853.8H678.1V838.7H436.8v15.1Z" class="g0_86"/>
<path fill-rule="evenodd" d="M436.8,868.8H678.1v-15H436.8v15Z" class="g0_86"/>
<path fill-rule="evenodd" d="M436.8,883.8H678.1v-15H436.8v15Z" class="g0_86"/>
<path d="M426.8,146V913.8" class="g1_86"/>
</svg>