<?xml version="1.0" encoding="UTF-8" standalone="no"?>
<!DOCTYPE svg PUBLIC "-//W3C//DTD SVG 1.1//EN"
"http://www.w3.org/Graphics/SVG/1.1/DTD/svg11.dtd">
<svg viewBox="0 0 909 1285" version="1.1" xmlns="http://www.w3.org/2000/svg" xmlns:xlink="http://www.w3.org/1999/xlink">
<defs>
<style type="text/css"><![CDATA[
.g0_45{
fill: #FFFFFF;
}
.g1_45{
fill: none;
stroke: #000000;
stroke-width: 0.381;
stroke-linecap: butt;
stroke-linejoin: round;
}
]]></style>
</defs>
<path fill-rule="evenodd" d="M256.9,125.8H756.8V110H256.9v15.8Z" class="g0_45"/>
<path fill-rule="evenodd" d="M256.5,162.1H412.7v-15H256.5v15Z" class="g0_45"/>
<path fill-rule="evenodd" d="M256.5,177.1H412.7v-15H256.5v15Z" class="g0_45"/>
<path fill-rule="evenodd" d="M256.5,192.2H496.4V177.1H256.5v15.1Z" class="g0_45"/>
<path fill-rule="evenodd" d="M256.5,207.2H496.4v-15H256.5v15Z" class="g0_45"/>
<path fill-rule="evenodd" d="M256.5,222.2H496.4v-15H256.5v15Z" class="g0_45"/>
<path fill-rule="evenodd" d="M256.5,237.4H496.4V222.2H256.5v15.2Z" class="g0_45"/>
<path fill-rule="evenodd" d="M256.5,252.5H496.4V237.4H256.5v15.1Z" class="g0_45"/>
<path fill-rule="evenodd" d="M256.1,267.9H496.4V252.8H256.1v15.1Z" class="g0_45"/>
<path fill-rule="evenodd" d="M256.1,282.9H496.4v-15H256.1v15Z" class="g0_45"/>
<path fill-rule="evenodd" d="M256.1,297.9H496.4v-15H256.1v15Z" class="g0_45"/>
<path fill-rule="evenodd" d="M256.1,313H496.4V297.9H256.1V313Z" class="g0_45"/>
<path fill-rule="evenodd" d="M256.1,328H495.7V313H256.1v15Z" class="g0_45"/>
<path fill-rule="evenodd" d="M256.1,343H495.7V328H256.1v15Z" class="g0_45"/>
<path fill-rule="evenodd" d="M256.1,358.1H495.7v-15H256.1v15Z" class="g0_45"/>
<path fill-rule="evenodd" d="M255,373.2H495.3V358.1H255v15.1Z" class="g0_45"/>
<path fill-rule="evenodd" d="M255,388.4H495.3V373.2H255v15.2Z" class="g0_45"/>
<path fill-rule="evenodd" d="M255,403.4H495.3v-15H255v15Z" class="g0_45"/>
<path fill-rule="evenodd" d="M255,418.4H495.3v-15H255v15Z" class="g0_45"/>
<path fill-rule="evenodd" d="M255,433.5H495.3V418.4H255v15.1Z" class="g0_45"/>
<path fill-rule="evenodd" d="M255,448.5H495.3v-15H255v15Z" class="g0_45"/>
<path fill-rule="evenodd" d="M255,463.5H495.3v-15H255v15Z" class="g0_45"/>
<path fill-rule="evenodd" d="M255,478.6H495.3V463.5H255v15.1Z" class="g0_45"/>
<path fill-rule="evenodd" d="M255,493.6H495.3v-15H255v15Z" class="g0_45"/>
<path fill-rule="evenodd" d="M255,508.6H495.3v-15H255v15Z" class="g0_45"/>
<path fill-rule="evenodd" d="M254.7,524H494.6V509H254.7v15Z" class="g0_45"/>
<path fill-rule="evenodd" d="M254.7,539.1H494.6V524H254.7v15.1Z" class="g0_45"/>
<path fill-rule="evenodd" d="M254.7,554.3H494.6V539.1H254.7v15.2Z" class="g0_45"/>
<path fill-rule="evenodd" d="M254.7,569.3H494.6v-15H254.7v15Z" class="g0_45"/>
<path fill-rule="evenodd" d="M255,584.4H494.2V569.3H255v15.1Z" class="g0_45"/>
<path fill-rule="evenodd" d="M255,599.4H494.2v-15H255v15Z" class="g0_45"/>
<path fill-rule="evenodd" d="M255,614.5H494.2V599.4H255v15.1Z" class="g0_45"/>
<path fill-rule="evenodd" d="M254.3,629.5H493.8v-15H254.3v15Z" class="g0_45"/>
<path fill-rule="evenodd" d="M254.3,644.5H493.8v-15H254.3v15Z" class="g0_45"/>
<path fill-rule="evenodd" d="M253.9,659.6H494.2V644.5H253.9v15.1Z" class="g0_45"/>
<path fill-rule="evenodd" d="M253.9,674.6H494.2v-15H253.9v15Z" class="g0_45"/>
<path fill-rule="evenodd" d="M253.9,689.6H494.2v-15H253.9v15Z" class="g0_45"/>
<path fill-rule="evenodd" d="M253.9,704.7H494.2V689.6H253.9v15.1Z" class="g0_45"/>
<path fill-rule="evenodd" d="M253.9,719.7H494.2v-15H253.9v15Z" class="g0_45"/>
<path fill-rule="evenodd" d="M253.9,734.9H494.2V719.7H253.9v15.2Z" class="g0_45"/>
<path fill-rule="evenodd" d="M253.9,749.9H493.8v-15H253.9v15Z" class="g0_45"/>
<path fill-rule="evenodd" d="M253.9,765H493.8V749.9H253.9V765Z" class="g0_45"/>
<path fill-rule="evenodd" d="M253.9,780H493.8V765H253.9v15Z" class="g0_45"/>
<path fill-rule="evenodd" d="M253.9,795H493.8V780H253.9v15Z" class="g0_45"/>
<path fill-rule="evenodd" d="M253.9,810.1H493.8V795H253.9v15.1Z" class="g0_45"/>
<path fill-rule="evenodd" d="M253.9,825.1H493.8v-15H253.9v15Z" class="g0_45"/>
<path fill-rule="evenodd" d="M253.9,840.2H493.8V825.1H253.9v15.1Z" class="g0_45"/>
<path fill-rule="evenodd" d="M253.6,855.2H493.1v-15H253.6v15Z" class="g0_45"/>
<path fill-rule="evenodd" d="M253.6,870.3H493.1V855.2H253.6v15.1Z" class="g0_45"/>
<path fill-rule="evenodd" d="M253.6,885.3H493.1v-15H253.6v15Z" class="g0_45"/>
<path fill-rule="evenodd" d="M256.5,900H496.4V885.3H256.5V900Z" class="g0_45"/>
<path fill-rule="evenodd" d="M516.6,162.8H756.8V148.2H516.6v14.6Z" class="g0_45"/>
<path fill-rule="evenodd" d="M516.6,177.5H756.8V162.8H516.6v14.7Z" class="g0_45"/>
<path fill-rule="evenodd" d="M516.6,192.5H756.4V177.9H516.6v14.6Z" class="g0_45"/>
<path fill-rule="evenodd" d="M516.6,207.2H756.4V192.5H516.6v14.7Z" class="g0_45"/>
<path fill-rule="evenodd" d="M516.6,221.9H756.4V207.2H516.6v14.7Z" class="g0_45"/>
<path fill-rule="evenodd" d="M516.2,238.4H756.4V223.3H516.2v15.1Z" class="g0_45"/>
<path fill-rule="evenodd" d="M516.2,253.4H756.4v-15H516.2v15Z" class="g0_45"/>
<path fill-rule="evenodd" d="M516.2,268.4H756.4v-15H516.2v15Z" class="g0_45"/>
<path fill-rule="evenodd" d="M516.2,283.5H756.4V268.4H516.2v15.1Z" class="g0_45"/>
<path fill-rule="evenodd" d="M516.2,298.5H756.4v-15H516.2v15Z" class="g0_45"/>
<path fill-rule="evenodd" d="M516.2,313.5H756.4v-15H516.2v15Z" class="g0_45"/>
<path fill-rule="evenodd" d="M516.2,328.7H756.4V313.5H516.2v15.2Z" class="g0_45"/>
<path fill-rule="evenodd" d="M516.2,343.8H756.4V328.7H516.2v15.1Z" class="g0_45"/>
<path fill-rule="evenodd" d="M515.8,359.2h240v-15h-240v15Z" class="g0_45"/>
<path fill-rule="evenodd" d="M515.8,374.3h240V359.2h-240v15.1Z" class="g0_45"/>
<path fill-rule="evenodd" d="M515.1,389.3H755.7v-15H515.1v15Z" class="g0_45"/>
<path fill-rule="evenodd" d="M515.1,404.3H755.7v-15H515.1v15Z" class="g0_45"/>
<path fill-rule="evenodd" d="M515.1,419.4H755.7V404.3H515.1v15.1Z" class="g0_45"/>
<path fill-rule="evenodd" d="M515.1,434.4H755.7v-15H515.1v15Z" class="g0_45"/>
<path fill-rule="evenodd" d="M515.1,449.4H755.7v-15H515.1v15Z" class="g0_45"/>
<path fill-rule="evenodd" d="M514.7,464.5h241V449.4h-241v15.1Z" class="g0_45"/>
<path fill-rule="evenodd" d="M514.7,479.5h241v-15h-241v15Z" class="g0_45"/>
<path fill-rule="evenodd" d="M514.7,494.7h241V479.5h-241v15.2Z" class="g0_45"/>
<path fill-rule="evenodd" d="M514.7,509.7h241v-15h-241v15Z" class="g0_45"/>
<path fill-rule="evenodd" d="M514.7,524.8h241V509.7h-241v15.1Z" class="g0_45"/>
<path fill-rule="evenodd" d="M514.7,539.8h241v-15h-241v15Z" class="g0_45"/>
<path fill-rule="evenodd" d="M514.4,554.8H754.9v-15H514.4v15Z" class="g0_45"/>
<path fill-rule="evenodd" d="M514.4,569.9H754.9V554.8H514.4v15.1Z" class="g0_45"/>
<path fill-rule="evenodd" d="M514.4,584.9H754.9v-15H514.4v15Z" class="g0_45"/>
<path fill-rule="evenodd" d="M514.4,600H754.9V584.9H514.4V600Z" class="g0_45"/>
<path fill-rule="evenodd" d="M515.1,615H754.9V600H515.1v15Z" class="g0_45"/>
<path fill-rule="evenodd" d="M515.1,630H754.9V615H515.1v15Z" class="g0_45"/>
<path fill-rule="evenodd" d="M533.1,645.1H756.8V630H533.1v15.1Z" class="g0_45"/>
<path fill-rule="evenodd" d="M533.1,660.1H756.8v-15H533.1v15Z" class="g0_45"/>
<path fill-rule="evenodd" d="M514.7,675.3H755.3V660.1H514.7v15.2Z" class="g0_45"/>
<path fill-rule="evenodd" d="M514.7,690.4H755.3V675.3H514.7v15.1Z" class="g0_45"/>
<path fill-rule="evenodd" d="M514.7,705.4H755.3v-15H514.7v15Z" class="g0_45"/>
<path fill-rule="evenodd" d="M514.4,720.8H754.6v-15H514.4v15Z" class="g0_45"/>
<path fill-rule="evenodd" d="M514.4,735.8H754.6v-15H514.4v15Z" class="g0_45"/>
<path fill-rule="evenodd" d="M514.4,750.9H754.6V735.8H514.4v15.1Z" class="g0_45"/>
<path fill-rule="evenodd" d="M514.4,765.9H754.6v-15H514.4v15Z" class="g0_45"/>
<path fill-rule="evenodd" d="M513.6,781.3H754.9v-15H513.6v15Z" class="g0_45"/>
<path fill-rule="evenodd" d="M513.6,796.3H754.9v-15H513.6v15Z" class="g0_45"/>
<path fill-rule="evenodd" d="M513.6,811.4H754.9V796.3H513.6v15.1Z" class="g0_45"/>
<path fill-rule="evenodd" d="M513.6,826.6H754.9V811.4H513.6v15.2Z" class="g0_45"/>
<path fill-rule="evenodd" d="M513.6,841.7H754.9V826.6H513.6v15.1Z" class="g0_45"/>
<path fill-rule="evenodd" d="M513.6,856.7H754.9v-15H513.6v15Z" class="g0_45"/>
<path fill-rule="evenodd" d="M514,872.1H754.2v-15H514v15Z" class="g0_45"/>
<path fill-rule="evenodd" d="M514,887.1H754.2v-15H514v15Z" class="g0_45"/>
<path fill-rule="evenodd" d="M514,902.2H754.2V887.1H514v15.1Z" class="g0_45"/>
<path d="M196.7,118.4V205m1.8,114.8v40.3M503.6,148.5V917.4" class="g1_45"/>
</svg>