<?xml version="1.0" encoding="UTF-8" standalone="no"?>
<!DOCTYPE svg PUBLIC "-//W3C//DTD SVG 1.1//EN"
"http://www.w3.org/Graphics/SVG/1.1/DTD/svg11.dtd">
<svg viewBox="0 0 909 1285" version="1.1" xmlns="http://www.w3.org/2000/svg" xmlns:xlink="http://www.w3.org/1999/xlink">
<defs>
<style type="text/css"><![CDATA[
.g0_93{
fill: #FFFFFF;
}
.g1_93{
fill: none;
stroke: #000000;
stroke-width: 0.381;
stroke-linecap: butt;
stroke-linejoin: round;
}
]]></style>
</defs>
<path fill-rule="evenodd" d="M260.5,125.8H761.9V110H260.5v15.8Z" class="g0_93"/>
<path fill-rule="evenodd" d="M278.9,162.1H500.4v-15H278.9v15Z" class="g0_93"/>
<path fill-rule="evenodd" d="M259.8,177.1H500.4v-15H259.8v15Z" class="g0_93"/>
<path fill-rule="evenodd" d="M259.8,192.2H500.4V177.1H259.8v15.1Z" class="g0_93"/>
<path fill-rule="evenodd" d="M259.8,207.2H500.4v-15H259.8v15Z" class="g0_93"/>
<path fill-rule="evenodd" d="M259.8,222.2H500.4v-15H259.8v15Z" class="g0_93"/>
<path fill-rule="evenodd" d="M259.8,237.4H500.4V222.2H259.8v15.2Z" class="g0_93"/>
<path fill-rule="evenodd" d="M259.8,252.5H500.4V237.4H259.8v15.1Z" class="g0_93"/>
<path fill-rule="evenodd" d="M259.8,267.5H500.4v-15H259.8v15Z" class="g0_93"/>
<path fill-rule="evenodd" d="M259.8,282.5H500.4v-15H259.8v15Z" class="g0_93"/>
<path fill-rule="evenodd" d="M260.2,297.6H500.4V282.5H260.2v15.1Z" class="g0_93"/>
<path fill-rule="evenodd" d="M260.2,312.6H500.4v-15H260.2v15Z" class="g0_93"/>
<path fill-rule="evenodd" d="M259.8,327.6H500.1v-15H259.8v15Z" class="g0_93"/>
<path fill-rule="evenodd" d="M259.8,342.7H500.1V327.6H259.8v15.1Z" class="g0_93"/>
<path fill-rule="evenodd" d="M259.4,357.8h241V342.7h-241v15.1Z" class="g0_93"/>
<path fill-rule="evenodd" d="M259.4,372.8h241v-15h-241v15Z" class="g0_93"/>
<path fill-rule="evenodd" d="M278.2,387.8H500.4v-15H278.2v15Z" class="g0_93"/>
<path fill-rule="evenodd" d="M259.4,403H499.7V387.8H259.4V403Z" class="g0_93"/>
<path fill-rule="evenodd" d="M259.4,418.1H499.7V403H259.4v15.1Z" class="g0_93"/>
<path fill-rule="evenodd" d="M259.1,433.1H499.7v-15H259.1v15Z" class="g0_93"/>
<path fill-rule="evenodd" d="M259.1,448.1H499.7v-15H259.1v15Z" class="g0_93"/>
<path fill-rule="evenodd" d="M259.1,463.2H499.7V448.1H259.1v15.1Z" class="g0_93"/>
<path fill-rule="evenodd" d="M259.1,478.2H500.4v-15H259.1v15Z" class="g0_93"/>
<path fill-rule="evenodd" d="M259.1,493.2H500.4v-15H259.1v15Z" class="g0_93"/>
<path fill-rule="evenodd" d="M259.1,508.3H500.4V493.2H259.1v15.1Z" class="g0_93"/>
<path fill-rule="evenodd" d="M259.1,523.3H500.4v-15H259.1v15Z" class="g0_93"/>
<path fill-rule="evenodd" d="M259.1,538.3H500.4v-15H259.1v15Z" class="g0_93"/>
<path fill-rule="evenodd" d="M259.1,553.7H499.3v-15H259.1v15Z" class="g0_93"/>
<path fill-rule="evenodd" d="M259.1,569H499.3V553.7H259.1V569Z" class="g0_93"/>
<path fill-rule="evenodd" d="M259.1,584H499.7V569H259.1v15Z" class="g0_93"/>
<path fill-rule="evenodd" d="M259.1,599.1H499.7V584H259.1v15.1Z" class="g0_93"/>
<path fill-rule="evenodd" d="M259.1,614.1H499.7v-15H259.1v15Z" class="g0_93"/>
<path fill-rule="evenodd" d="M259.1,629.1H499.3v-15H259.1v15Z" class="g0_93"/>
<path fill-rule="evenodd" d="M259.1,644.2H499.3V629.1H259.1v15.1Z" class="g0_93"/>
<path fill-rule="evenodd" d="M259.1,659.2H499.3v-15H259.1v15Z" class="g0_93"/>
<path fill-rule="evenodd" d="M258.7,674.2H499v-15H258.7v15Z" class="g0_93"/>
<path fill-rule="evenodd" d="M258.7,689.3H499V674.2H258.7v15.1Z" class="g0_93"/>
<path fill-rule="evenodd" d="M258.7,704.3H499v-15H258.7v15Z" class="g0_93"/>
<path fill-rule="evenodd" d="M258.7,719.3H499v-15H258.7v15Z" class="g0_93"/>
<path fill-rule="evenodd" d="M258.3,734.4h241V719.3h-241v15.1Z" class="g0_93"/>
<path fill-rule="evenodd" d="M258.3,749.6h241V734.4h-241v15.2Z" class="g0_93"/>
<path fill-rule="evenodd" d="M258.3,764.6h241v-15h-241v15Z" class="g0_93"/>
<path fill-rule="evenodd" d="M258.3,779.6h241v-15h-241v15Z" class="g0_93"/>
<path fill-rule="evenodd" d="M258.3,794.7h241V779.6h-241v15.1Z" class="g0_93"/>
<path fill-rule="evenodd" d="M258.3,809.7h241v-15h-241v15Z" class="g0_93"/>
<path fill-rule="evenodd" d="M258.7,824.7H499v-15H258.7v15Z" class="g0_93"/>
<path fill-rule="evenodd" d="M258.7,839.8H499V824.7H258.7v15.1Z" class="g0_93"/>
<path fill-rule="evenodd" d="M258.7,854.9H498.6V839.8H258.7v15.1Z" class="g0_93"/>
<path fill-rule="evenodd" d="M258.7,869.9H498.6v-15H258.7v15Z" class="g0_93"/>
<path fill-rule="evenodd" d="M260.2,884.9H500.4v-15H260.2v15Z" class="g0_93"/>
<path fill-rule="evenodd" d="M521.3,162.5H761.9V147.4H521.3v15.1Z" class="g0_93"/>
<path fill-rule="evenodd" d="M521.3,177.5H761.9v-15H521.3v15Z" class="g0_93"/>
<path fill-rule="evenodd" d="M521.3,192.5H760.8v-15H521.3v15Z" class="g0_93"/>
<path fill-rule="evenodd" d="M521.3,207.6H760.8V192.5H521.3v15.1Z" class="g0_93"/>
<path fill-rule="evenodd" d="M521,222.8H761.2V207.6H521v15.2Z" class="g0_93"/>
<path fill-rule="evenodd" d="M521,237.8H761.2v-15H521v15Z" class="g0_93"/>
<path fill-rule="evenodd" d="M521,252.8H760.8v-15H521v15Z" class="g0_93"/>
<path fill-rule="evenodd" d="M521,267.9H760.8V252.8H521v15.1Z" class="g0_93"/>
<path fill-rule="evenodd" d="M520.6,283.3H761.9V268.2H520.6v15.1Z" class="g0_93"/>
<path fill-rule="evenodd" d="M520.6,298.3H761.9v-15H520.6v15Z" class="g0_93"/>
<path fill-rule="evenodd" d="M520.6,313.3H761.9v-15H520.6v15Z" class="g0_93"/>
<path fill-rule="evenodd" d="M538.9,328.4h223V313.3h-223v15.1Z" class="g0_93"/>
<path fill-rule="evenodd" d="M539.3,343.4H761.9v-15H539.3v15Z" class="g0_93"/>
<path fill-rule="evenodd" d="M539.3,358.5H761.9V343.4H539.3v15.1Z" class="g0_93"/>
<path fill-rule="evenodd" d="M539.3,373.7H761.9V358.5H539.3v15.2Z" class="g0_93"/>
<path fill-rule="evenodd" d="M520.2,388.7H760.8v-15H520.2v15Z" class="g0_93"/>
<path fill-rule="evenodd" d="M520.2,403.8H760.8V388.7H520.2v15.1Z" class="g0_93"/>
<path fill-rule="evenodd" d="M520.2,418.8H760.8v-15H520.2v15Z" class="g0_93"/>
<path fill-rule="evenodd" d="M520.2,433.8H760.8v-15H520.2v15Z" class="g0_93"/>
<path fill-rule="evenodd" d="M520.2,448.9H760.8V433.8H520.2v15.1Z" class="g0_93"/>
<path fill-rule="evenodd" d="M520.2,463.9H760.8v-15H520.2v15Z" class="g0_93"/>
<path fill-rule="evenodd" d="M520.2,478.9H760.8v-15H520.2v15Z" class="g0_93"/>
<path fill-rule="evenodd" d="M538.6,494H761.9V478.9H538.6V494Z" class="g0_93"/>
<path fill-rule="evenodd" d="M519.9,509H759.7V494H519.9v15Z" class="g0_93"/>
<path fill-rule="evenodd" d="M519.9,524H759.7V509H519.9v15Z" class="g0_93"/>
<path fill-rule="evenodd" d="M520.2,539.1H760.4V524H520.2v15.1Z" class="g0_93"/>
<path fill-rule="evenodd" d="M520.2,554.3H760.4V539.1H520.2v15.2Z" class="g0_93"/>
<path fill-rule="evenodd" d="M520.2,569.3H760.4v-15H520.2v15Z" class="g0_93"/>
<path fill-rule="evenodd" d="M519.9,584.4H760.1V569.3H519.9v15.1Z" class="g0_93"/>
<path fill-rule="evenodd" d="M519.9,599.4H760.1v-15H519.9v15Z" class="g0_93"/>
<path fill-rule="evenodd" d="M519.9,614.5H760.1V599.4H519.9v15.1Z" class="g0_93"/>
<path fill-rule="evenodd" d="M519.9,629.5H760.1v-15H519.9v15Z" class="g0_93"/>
<path fill-rule="evenodd" d="M519.9,644.5H760.1v-15H519.9v15Z" class="g0_93"/>
<path fill-rule="evenodd" d="M519.9,659.6H760.1V644.5H519.9v15.1Z" class="g0_93"/>
<path fill-rule="evenodd" d="M519.9,674.6H760.1v-15H519.9v15Z" class="g0_93"/>
<path fill-rule="evenodd" d="M519.9,689.6H759.7v-15H519.9v15Z" class="g0_93"/>
<path fill-rule="evenodd" d="M519.9,704.7H759.7V689.6H519.9v15.1Z" class="g0_93"/>
<path fill-rule="evenodd" d="M519.5,719.7H759.7v-15H519.5v15Z" class="g0_93"/>
<path fill-rule="evenodd" d="M519.5,734.9H759.7V719.7H519.5v15.2Z" class="g0_93"/>
<path fill-rule="evenodd" d="M519.5,749.9H759.7v-15H519.5v15Z" class="g0_93"/>
<path fill-rule="evenodd" d="M519.5,765H759.7V749.9H519.5V765Z" class="g0_93"/>
<path fill-rule="evenodd" d="M519.5,780H759.7V765H519.5v15Z" class="g0_93"/>
<path fill-rule="evenodd" d="M519.5,795H759.3V780H519.5v15Z" class="g0_93"/>
<path fill-rule="evenodd" d="M519.5,810.1H759.3V795H519.5v15.1Z" class="g0_93"/>
<path fill-rule="evenodd" d="M537.8,825.1H761.9v-15H537.8v15Z" class="g0_93"/>
<path fill-rule="evenodd" d="M538.2,840.2H761.9V825.1H538.2v15.1Z" class="g0_93"/>
<path fill-rule="evenodd" d="M519.5,855.2H759.3v-15H519.5v15Z" class="g0_93"/>
<path fill-rule="evenodd" d="M519.5,870.3H759.3V855.2H519.5v15.1Z" class="g0_93"/>
<path fill-rule="evenodd" d="M519.5,885.3H759.7v-15H519.5v15Z" class="g0_93"/>
<path fill-rule="evenodd" d="M519.5,900.3H759.7v-15H519.5v15Z" class="g0_93"/>
<path fill-rule="evenodd" d="M499.7,932.6H761.9V915H499.7v17.6Z" class="g0_93"/>
<path d="M187.9,97.5v36m.3,46.2v30.1M509.1,148.1V916.3" class="g1_93"/>
</svg>