<?xml version="1.0" encoding="UTF-8" standalone="no"?>
<!DOCTYPE svg PUBLIC "-//W3C//DTD SVG 1.1//EN"
"http://www.w3.org/Graphics/SVG/1.1/DTD/svg11.dtd">
<svg viewBox="0 0 909 1285" version="1.1" xmlns="http://www.w3.org/2000/svg" xmlns:xlink="http://www.w3.org/1999/xlink">
<defs>
<style type="text/css"><![CDATA[
.g0_47{
fill: #FFFFFF;
}
.g1_47{
fill: none;
stroke: #000000;
stroke-width: 0.381;
stroke-linecap: butt;
stroke-linejoin: round;
}
]]></style>
</defs>
<path fill-rule="evenodd" d="M273.8,125.8H774.4V110H273.8v15.8Z" class="g0_47"/>
<path fill-rule="evenodd" d="M273.8,161.4H512.9V146.3H273.8v15.1Z" class="g0_47"/>
<path fill-rule="evenodd" d="M273.8,176.4H512.9v-15H273.8v15Z" class="g0_47"/>
<path fill-rule="evenodd" d="M273.8,191.6H512.9V176.4H273.8v15.2Z" class="g0_47"/>
<path fill-rule="evenodd" d="M273.8,206.6H512.9v-15H273.8v15Z" class="g0_47"/>
<path fill-rule="evenodd" d="M273.8,221.7H512.5V206.6H273.8v15.1Z" class="g0_47"/>
<path fill-rule="evenodd" d="M273.8,236.7H512.5v-15H273.8v15Z" class="g0_47"/>
<path fill-rule="evenodd" d="M273.8,251.7H512.5v-15H273.8v15Z" class="g0_47"/>
<path fill-rule="evenodd" d="M273.4,266.8H512.5V251.7H273.4v15.1Z" class="g0_47"/>
<path fill-rule="evenodd" d="M273.4,281.8H512.5v-15H273.4v15Z" class="g0_47"/>
<path fill-rule="evenodd" d="M273.4,296.8H512.5v-15H273.4v15Z" class="g0_47"/>
<path fill-rule="evenodd" d="M273.4,311.9H512.5V296.8H273.4v15.1Z" class="g0_47"/>
<path fill-rule="evenodd" d="M273.4,326.9H512.5v-15H273.4v15Z" class="g0_47"/>
<path fill-rule="evenodd" d="M273.4,341.9H512.5v-15H273.4v15Z" class="g0_47"/>
<path fill-rule="evenodd" d="M273.1,357.2H512.5V342H273.1v15.2Z" class="g0_47"/>
<path fill-rule="evenodd" d="M273.1,372.2H512.5v-15H273.1v15Z" class="g0_47"/>
<path fill-rule="evenodd" d="M273.1,387.3H512.5V372.2H273.1v15.1Z" class="g0_47"/>
<path fill-rule="evenodd" d="M272.7,402.3H511.8v-15H272.7v15Z" class="g0_47"/>
<path fill-rule="evenodd" d="M272.7,417.3H511.8v-15H272.7v15Z" class="g0_47"/>
<path fill-rule="evenodd" d="M272.7,432.4H511.8V417.3H272.7v15.1Z" class="g0_47"/>
<path fill-rule="evenodd" d="M272.7,447.4H511.8v-15H272.7v15Z" class="g0_47"/>
<path fill-rule="evenodd" d="M272.7,462.4H511.8v-15H272.7v15Z" class="g0_47"/>
<path fill-rule="evenodd" d="M272.3,477.5H511.8V462.4H272.3v15.1Z" class="g0_47"/>
<path fill-rule="evenodd" d="M272.3,492.5H511.8v-15H272.3v15Z" class="g0_47"/>
<path fill-rule="evenodd" d="M272.3,507.5H511.8v-15H272.3v15Z" class="g0_47"/>
<path fill-rule="evenodd" d="M272.3,522.6H511.8V507.5H272.3v15.1Z" class="g0_47"/>
<path fill-rule="evenodd" d="M272.3,537.8H511.8V522.6H272.3v15.2Z" class="g0_47"/>
<path fill-rule="evenodd" d="M272.3,552.8H510.7v-15H272.3v15Z" class="g0_47"/>
<path fill-rule="evenodd" d="M272.3,567.9H510.7V552.8H272.3v15.1Z" class="g0_47"/>
<path fill-rule="evenodd" d="M272.3,582.9H510.7v-15H272.3v15Z" class="g0_47"/>
<path fill-rule="evenodd" d="M272,598H511.1V582.9H272V598Z" class="g0_47"/>
<path fill-rule="evenodd" d="M272,613H511.1V598H272v15Z" class="g0_47"/>
<path fill-rule="evenodd" d="M272,628H511.1V613H272v15Z" class="g0_47"/>
<path fill-rule="evenodd" d="M272,643.1H510.3V628H272v15.1Z" class="g0_47"/>
<path fill-rule="evenodd" d="M272,658.1H510.3v-15H272v15Z" class="g0_47"/>
<path fill-rule="evenodd" d="M272,673.1H510.3v-15H272v15Z" class="g0_47"/>
<path fill-rule="evenodd" d="M272,688.2H510.3V673.1H272v15.1Z" class="g0_47"/>
<path fill-rule="evenodd" d="M271.6,703.2H510.7v-15H271.6v15Z" class="g0_47"/>
<path fill-rule="evenodd" d="M271.6,718.4H510.7V703.2H271.6v15.2Z" class="g0_47"/>
<path fill-rule="evenodd" d="M271.6,733.4H510.7v-15H271.6v15Z" class="g0_47"/>
<path fill-rule="evenodd" d="M271.6,748.5H510.7V733.4H271.6v15.1Z" class="g0_47"/>
<path fill-rule="evenodd" d="M271.6,763.5H510.7v-15H271.6v15Z" class="g0_47"/>
<path fill-rule="evenodd" d="M271.6,778.5H510.7v-15H271.6v15Z" class="g0_47"/>
<path fill-rule="evenodd" d="M271.2,793.6H510.3V778.5H271.2v15.1Z" class="g0_47"/>
<path fill-rule="evenodd" d="M271.2,808.6H510.3v-15H271.2v15Z" class="g0_47"/>
<path fill-rule="evenodd" d="M271.2,823.6H510.3v-15H271.2v15Z" class="g0_47"/>
<path fill-rule="evenodd" d="M271.2,838.7H510V823.6H271.2v15.1Z" class="g0_47"/>
<path fill-rule="evenodd" d="M271.2,853.8H510V838.7H271.2v15.1Z" class="g0_47"/>
<path fill-rule="evenodd" d="M271.2,868.8H510v-15H271.2v15Z" class="g0_47"/>
<path fill-rule="evenodd" d="M271.2,883.8H510v-15H271.2v15Z" class="g0_47"/>
<path fill-rule="evenodd" d="M271.2,899H510V883.8H271.2V899Z" class="g0_47"/>
<path fill-rule="evenodd" d="M274.9,914.1H512.5V899H274.9v15.1Z" class="g0_47"/>
<path fill-rule="evenodd" d="M533.6,161H773.8V146H533.6v15Z" class="g0_47"/>
<path fill-rule="evenodd" d="M533.6,176H773.8V161H533.6v15Z" class="g0_47"/>
<path fill-rule="evenodd" d="M533.2,191.1h241V176h-241v15.1Z" class="g0_47"/>
<path fill-rule="evenodd" d="M533.2,206.3h241V191.1h-241v15.2Z" class="g0_47"/>
<path fill-rule="evenodd" d="M532.9,221.3H773.1v-15H532.9v15Z" class="g0_47"/>
<path fill-rule="evenodd" d="M532.9,236.3H773.1v-15H532.9v15Z" class="g0_47"/>
<path fill-rule="evenodd" d="M532.9,251.4H773.1V236.3H532.9v15.1Z" class="g0_47"/>
<path fill-rule="evenodd" d="M532.9,266.4H773.1v-15H532.9v15Z" class="g0_47"/>
<path fill-rule="evenodd" d="M532.5,281.4H773.1v-15H532.5v15Z" class="g0_47"/>
<path fill-rule="evenodd" d="M532.5,296.5H773.1V281.4H532.5v15.1Z" class="g0_47"/>
<path fill-rule="evenodd" d="M532.5,311.5H773.1v-15H532.5v15Z" class="g0_47"/>
<path fill-rule="evenodd" d="M532.5,326.5H773.1v-15H532.5v15Z" class="g0_47"/>
<path fill-rule="evenodd" d="M532.1,341.6H772.7V326.5H532.1v15.1Z" class="g0_47"/>
<path fill-rule="evenodd" d="M532.1,356.7H772.7V341.6H532.1v15.1Z" class="g0_47"/>
<path fill-rule="evenodd" d="M532.1,371.9H772.7V356.7H532.1v15.2Z" class="g0_47"/>
<path fill-rule="evenodd" d="M532.1,386.9H772.7v-15H532.1v15Z" class="g0_47"/>
<path fill-rule="evenodd" d="M532.1,401.9H772.7v-15H532.1v15Z" class="g0_47"/>
<path fill-rule="evenodd" d="M532.1,417H772.7V401.9H532.1V417Z" class="g0_47"/>
<path fill-rule="evenodd" d="M531.8,432H771.2V417H531.8v15Z" class="g0_47"/>
<path fill-rule="evenodd" d="M531.8,447H771.2V432H531.8v15Z" class="g0_47"/>
<path fill-rule="evenodd" d="M550.1,462.1H774.2V447H550.1v15.1Z" class="g0_47"/>
<path fill-rule="evenodd" d="M549.7,477.1H774.2v-15H549.7v15Z" class="g0_47"/>
<path fill-rule="evenodd" d="M531.8,492.1H770.9v-15H531.8v15Z" class="g0_47"/>
<path fill-rule="evenodd" d="M531.8,507.2H770.9V492.1H531.8v15.1Z" class="g0_47"/>
<path fill-rule="evenodd" d="M531.4,522.2H770.9v-15H531.4v15Z" class="g0_47"/>
<path fill-rule="evenodd" d="M531.4,537.2H770.9v-15H531.4v15Z" class="g0_47"/>
<path fill-rule="evenodd" d="M531.4,552.5H770.9V537.2H531.4v15.3Z" class="g0_47"/>
<path fill-rule="evenodd" d="M531.4,567.5H770.9v-15H531.4v15Z" class="g0_47"/>
<path fill-rule="evenodd" d="M531,582.5H770.9v-15H531v15Z" class="g0_47"/>
<path fill-rule="evenodd" d="M531,597.6H770.9V582.5H531v15.1Z" class="g0_47"/>
<path fill-rule="evenodd" d="M531,612.6H770.9v-15H531v15Z" class="g0_47"/>
<path fill-rule="evenodd" d="M531,627.7H770.9V612.6H531v15.1Z" class="g0_47"/>
<path fill-rule="evenodd" d="M531,642.7H770.9v-15H531v15Z" class="g0_47"/>
<path fill-rule="evenodd" d="M531,657.7H770.9v-15H531v15Z" class="g0_47"/>
<path fill-rule="evenodd" d="M531,672.8H770.9V657.7H531v15.1Z" class="g0_47"/>
<path fill-rule="evenodd" d="M531,687.8H770.9v-15H531v15Z" class="g0_47"/>
<path fill-rule="evenodd" d="M530.3,702.8H769.4v-15H530.3v15Z" class="g0_47"/>
<path fill-rule="evenodd" d="M530.3,717.9H769.4V702.8H530.3v15.1Z" class="g0_47"/>
<path fill-rule="evenodd" d="M530.3,733.1H769.4V717.9H530.3v15.2Z" class="g0_47"/>
<path fill-rule="evenodd" d="M530.3,748.1H769.4v-15H530.3v15Z" class="g0_47"/>
<path fill-rule="evenodd" d="M530.3,763.1H769.4v-15H530.3v15Z" class="g0_47"/>
<path fill-rule="evenodd" d="M530.3,778.2H769.4V763.1H530.3v15.1Z" class="g0_47"/>
<path fill-rule="evenodd" d="M530.3,793.2H769.4v-15H530.3v15Z" class="g0_47"/>
<path fill-rule="evenodd" d="M530.7,808.2H768.3v-15H530.7v15Z" class="g0_47"/>
<path fill-rule="evenodd" d="M530.7,823.3H768.3V808.2H530.7v15.1Z" class="g0_47"/>
<path fill-rule="evenodd" d="M529.9,838.4h238V823.3h-238v15.1Z" class="g0_47"/>
<path fill-rule="evenodd" d="M529.9,853.4h238v-15h-238v15Z" class="g0_47"/>
<path fill-rule="evenodd" d="M529.9,868.4h238v-15h-238v15Z" class="g0_47"/>
<path fill-rule="evenodd" d="M529.9,883.5h238V868.4h-238v15.1Z" class="g0_47"/>
<path fill-rule="evenodd" d="M529.9,898.5h238v-15h-238v15Z" class="g0_47"/>
<path fill-rule="evenodd" d="M510.3,931.5H774.4V914.1H510.3v17.4Z" class="g0_47"/>
<path d="M215.4,98.2V700.3m2.9,-.3v305.1M199.6,893.6v32.6M519.8,147.4v769" class="g1_47"/>
</svg>