<?xml version="1.0" encoding="UTF-8" standalone="no"?>
<!DOCTYPE svg PUBLIC "-//W3C//DTD SVG 1.1//EN"
"http://www.w3.org/Graphics/SVG/1.1/DTD/svg11.dtd">
<svg viewBox="0 0 909 1285" version="1.1" xmlns="http://www.w3.org/2000/svg" xmlns:xlink="http://www.w3.org/1999/xlink">
<defs>
<style type="text/css"><![CDATA[
.g0_281{
fill: #FFFFFF;
}
.g1_281{
fill: none;
stroke: #000000;
stroke-width: 0.381;
stroke-linecap: butt;
stroke-linejoin: round;
}
]]></style>
</defs>
<path fill-rule="evenodd" d="M501.2,125.8H694.1V110H501.2v15.8Z" class="g0_281"/>
<path fill-rule="evenodd" d="M196.7,162.1H433.6V147.4H196.7v14.7Z" class="g0_281"/>
<path fill-rule="evenodd" d="M196.7,176.8H433.6V162.1H196.7v14.7Z" class="g0_281"/>
<path fill-rule="evenodd" d="M196.4,191.4h238V176.8h-238v14.6Z" class="g0_281"/>
<path fill-rule="evenodd" d="M196.4,206.1h238V191.4h-238v14.7Z" class="g0_281"/>
<path fill-rule="evenodd" d="M196.4,220.8h238V206.1h-238v14.7Z" class="g0_281"/>
<path fill-rule="evenodd" d="M196,235.4H434.4V220.8H196v14.6Z" class="g0_281"/>
<path fill-rule="evenodd" d="M196,250.1H434.4V235.4H196v14.7Z" class="g0_281"/>
<path fill-rule="evenodd" d="M196,264.8H434.4V250.1H196v14.7Z" class="g0_281"/>
<path fill-rule="evenodd" d="M196,279.4H434.4V264.8H196v14.6Z" class="g0_281"/>
<path fill-rule="evenodd" d="M196,294.1H434.4V279.4H196v14.7Z" class="g0_281"/>
<path fill-rule="evenodd" d="M196,308.8H434.4V294.1H196v14.7Z" class="g0_281"/>
<path fill-rule="evenodd" d="M196,323.4H434.4V308.8H196v14.6Z" class="g0_281"/>
<path fill-rule="evenodd" d="M196,338.1H434.4V323.4H196v14.7Z" class="g0_281"/>
<path fill-rule="evenodd" d="M196,353.2H434.4V338.1H196v15.1Z" class="g0_281"/>
<path fill-rule="evenodd" d="M196,367.8H434.4V353.2H196v14.6Z" class="g0_281"/>
<path fill-rule="evenodd" d="M196,382.5H434.4V367.8H196v14.7Z" class="g0_281"/>
<path fill-rule="evenodd" d="M196.4,397.2h238V382.5h-238v14.7Z" class="g0_281"/>
<path fill-rule="evenodd" d="M455,162.1H694.1V147.4H455v14.7Z" class="g0_281"/>
<path fill-rule="evenodd" d="M455,176.8H694.1V162.1H455v14.7Z" class="g0_281"/>
<path fill-rule="evenodd" d="M455,191.4H694.1V176.8H455v14.6Z" class="g0_281"/>
<path fill-rule="evenodd" d="M454.6,206.8H693.3V192.2H454.6v14.6Z" class="g0_281"/>
<path fill-rule="evenodd" d="M454.6,221.5H693.3V206.8H454.6v14.7Z" class="g0_281"/>
<path fill-rule="evenodd" d="M454.6,236.2H693.3V221.5H454.6v14.7Z" class="g0_281"/>
<path fill-rule="evenodd" d="M454.6,250.8H693.7V236.2H454.6v14.6Z" class="g0_281"/>
<path fill-rule="evenodd" d="M454.6,265.5H693.7V250.8H454.6v14.7Z" class="g0_281"/>
<path fill-rule="evenodd" d="M455,280.2H694.1V265.5H455v14.7Z" class="g0_281"/>
<path fill-rule="evenodd" d="M455,294.8H694.1V280.2H455v14.6Z" class="g0_281"/>
<path fill-rule="evenodd" d="M455,309.5H694.1V294.8H455v14.7Z" class="g0_281"/>
<path fill-rule="evenodd" d="M455,324.2H694.1V309.5H455v14.7Z" class="g0_281"/>
<path fill-rule="evenodd" d="M455.3,338.8h238V324.2h-238v14.6Z" class="g0_281"/>
<path fill-rule="evenodd" d="M455.3,353.5h238V338.8h-238v14.7Z" class="g0_281"/>
<path fill-rule="evenodd" d="M420.5,454H694.1V429.4H420.5V454Z" class="g0_281"/>
<path fill-rule="evenodd" d="M195.3,488.8H434.4V474.2H195.3v14.6Z" class="g0_281"/>
<path fill-rule="evenodd" d="M195.3,503.5H434.4V488.8H195.3v14.7Z" class="g0_281"/>
<path fill-rule="evenodd" d="M195.3,518.2H434.4V503.5H195.3v14.7Z" class="g0_281"/>
<path fill-rule="evenodd" d="M195.3,532.8H434.4V518.2H195.3v14.6Z" class="g0_281"/>
<path fill-rule="evenodd" d="M195.3,547.5H434.4V532.8H195.3v14.7Z" class="g0_281"/>
<path fill-rule="evenodd" d="M195.3,562.2H434.4V547.5H195.3v14.7Z" class="g0_281"/>
<path fill-rule="evenodd" d="M195.3,576.8H434.4V562.2H195.3v14.6Z" class="g0_281"/>
<path fill-rule="evenodd" d="M194.9,591.5H434V576.8H194.9v14.7Z" class="g0_281"/>
<path fill-rule="evenodd" d="M194.9,606.2H434V591.5H194.9v14.7Z" class="g0_281"/>
<path fill-rule="evenodd" d="M194.9,620.9H434V606.2H194.9v14.7Z" class="g0_281"/>
<path fill-rule="evenodd" d="M194.9,635.5H434V620.9H194.9v14.6Z" class="g0_281"/>
<path fill-rule="evenodd" d="M194.9,650.2H434V635.5H194.9v14.7Z" class="g0_281"/>
<path fill-rule="evenodd" d="M194.9,664.9H434V650.2H194.9v14.7Z" class="g0_281"/>
<path fill-rule="evenodd" d="M194.9,679.5H434V664.9H194.9v14.6Z" class="g0_281"/>
<path fill-rule="evenodd" d="M194.9,694.2H434V679.5H194.9v14.7Z" class="g0_281"/>
<path fill-rule="evenodd" d="M194.9,708.9H434V694.2H194.9v14.7Z" class="g0_281"/>
<path fill-rule="evenodd" d="M194.9,723.5H434V708.9H194.9v14.6Z" class="g0_281"/>
<path fill-rule="evenodd" d="M194.9,738.2H434V723.5H194.9v14.7Z" class="g0_281"/>
<path fill-rule="evenodd" d="M194.9,752.9H434V738.2H194.9v14.7Z" class="g0_281"/>
<path fill-rule="evenodd" d="M194.2,767.5H433.6V752.9H194.2v14.6Z" class="g0_281"/>
<path fill-rule="evenodd" d="M194.2,782.2H433.6V767.5H194.2v14.7Z" class="g0_281"/>
<path fill-rule="evenodd" d="M194.2,796.9H433.6V782.2H194.2v14.7Z" class="g0_281"/>
<path fill-rule="evenodd" d="M194.2,811.5H433.6V796.9H194.2v14.6Z" class="g0_281"/>
<path fill-rule="evenodd" d="M194.2,826.2H433.6V811.5H194.2v14.7Z" class="g0_281"/>
<path fill-rule="evenodd" d="M194.2,840.9H433.6V826.2H194.2v14.7Z" class="g0_281"/>
<path fill-rule="evenodd" d="M194.2,855.6H433.6V840.9H194.2v14.7Z" class="g0_281"/>
<path fill-rule="evenodd" d="M194.2,870.3H433.6V855.6H194.2v14.7Z" class="g0_281"/>
<path fill-rule="evenodd" d="M194.2,884.9H433.6V870.3H194.2v14.6Z" class="g0_281"/>
<path fill-rule="evenodd" d="M194.2,899.6H433.6V884.9H194.2v14.7Z" class="g0_281"/>
<path fill-rule="evenodd" d="M195.3,914.3H368.4V899.6H195.3v14.7Z" class="g0_281"/>
<path fill-rule="evenodd" d="M454.6,488.8H627.3V474.2H454.6v14.6Z" class="g0_281"/>
<path fill-rule="evenodd" d="M454.6,503.5H627.3V488.8H454.6v14.7Z" class="g0_281"/>
<path fill-rule="evenodd" d="M454.6,518.2H627.3V503.5H454.6v14.7Z" class="g0_281"/>
<path fill-rule="evenodd" d="M453.9,532.8H693.3V518.2H453.9v14.6Z" class="g0_281"/>
<path fill-rule="evenodd" d="M453.9,547.5H693.3V532.8H453.9v14.7Z" class="g0_281"/>
<path fill-rule="evenodd" d="M453.9,562.2H693.3V547.5H453.9v14.7Z" class="g0_281"/>
<path fill-rule="evenodd" d="M453.9,576.8H693.3V562.2H453.9v14.6Z" class="g0_281"/>
<path fill-rule="evenodd" d="M453.9,591.5H693.3V576.8H453.9v14.7Z" class="g0_281"/>
<path fill-rule="evenodd" d="M453.9,606.2H693.3V591.5H453.9v14.7Z" class="g0_281"/>
<path fill-rule="evenodd" d="M453.9,620.9H693.3V606.2H453.9v14.7Z" class="g0_281"/>
<path fill-rule="evenodd" d="M454.6,635.9h238V621.2h-238v14.7Z" class="g0_281"/>
<path fill-rule="evenodd" d="M454.6,650.6h238V635.9h-238v14.7Z" class="g0_281"/>
<path fill-rule="evenodd" d="M453.9,665.6H693V650.9H453.9v14.7Z" class="g0_281"/>
<path fill-rule="evenodd" d="M453.9,680.3H693V665.6H453.9v14.7Z" class="g0_281"/>
<path fill-rule="evenodd" d="M453.9,694.9H693V680.3H453.9v14.6Z" class="g0_281"/>
<path fill-rule="evenodd" d="M453.9,709.6H693V694.9H453.9v14.7Z" class="g0_281"/>
<path fill-rule="evenodd" d="M453.9,724.3H693.3V709.6H453.9v14.7Z" class="g0_281"/>
<path fill-rule="evenodd" d="M453.9,738.9H693.3V724.3H453.9v14.6Z" class="g0_281"/>
<path fill-rule="evenodd" d="M453.9,753.6H693.3V738.9H453.9v14.7Z" class="g0_281"/>
<path fill-rule="evenodd" d="M453.9,768.3H693.3V753.6H453.9v14.7Z" class="g0_281"/>
<path fill-rule="evenodd" d="M453.9,782.9H693.3V768.3H453.9v14.6Z" class="g0_281"/>
<path fill-rule="evenodd" d="M453.5,797.6H693.3V782.9H453.5v14.7Z" class="g0_281"/>
<path fill-rule="evenodd" d="M453.5,812.3H693.3V797.6H453.5v14.7Z" class="g0_281"/>
<path fill-rule="evenodd" d="M453.5,826.9H693.3V812.3H453.5v14.6Z" class="g0_281"/>
<path fill-rule="evenodd" d="M453.5,841.7H693.3V826.9H453.5v14.8Z" class="g0_281"/>
<path fill-rule="evenodd" d="M453.5,856.3H693.3V841.7H453.5v14.6Z" class="g0_281"/>
<path fill-rule="evenodd" d="M453.5,871H692.6V856.3H453.5V871Z" class="g0_281"/>
<path fill-rule="evenodd" d="M453.5,885.7H692.6V871H453.5v14.7Z" class="g0_281"/>
<path fill-rule="evenodd" d="M453.5,900.3H692.6V885.7H453.5v14.6Z" class="g0_281"/>
<path fill-rule="evenodd" d="M430.4,930.4H694.1V912.8H430.4v17.6Z" class="g0_281"/>
<path d="M443.9,146.7V389.4m-1.8,84V910.5" class="g1_281"/>
</svg>