<?xml version="1.0" encoding="UTF-8" standalone="no"?>
<!DOCTYPE svg PUBLIC "-//W3C//DTD SVG 1.1//EN"
"http://www.w3.org/Graphics/SVG/1.1/DTD/svg11.dtd">
<svg viewBox="0 0 909 1285" version="1.1" xmlns="http://www.w3.org/2000/svg" xmlns:xlink="http://www.w3.org/1999/xlink">
<defs>
<style type="text/css"><![CDATA[
.g0_218{
fill: #FFFFFF;
}
.g1_218{
fill: none;
stroke: #000000;
stroke-width: 0.381;
stroke-linecap: butt;
stroke-linejoin: round;
}
.g2_218{
fill: none;
stroke: #000000;
stroke-width: 6.263;
stroke-linecap: butt;
stroke-linejoin: round;
}
.g3_218{
fill: none;
stroke: #000000;
stroke-width: 0.763;
stroke-linecap: butt;
stroke-linejoin: round;
}
]]></style>
</defs>
<path fill-rule="evenodd" d="M268.7,125.8H765.9V110H268.7v15.8Z" class="g0_218"/>
<path fill-rule="evenodd" d="M268.3,161.7H507.4v-15H268.3v15Z" class="g0_218"/>
<path fill-rule="evenodd" d="M268.3,176.9H507.4V161.7H268.3v15.2Z" class="g0_218"/>
<path fill-rule="evenodd" d="M268.3,192H507.4V176.9H268.3V192Z" class="g0_218"/>
<path fill-rule="evenodd" d="M268.3,207H507.4V192H268.3v15Z" class="g0_218"/>
<path fill-rule="evenodd" d="M268.3,222H507.4V207H268.3v15Z" class="g0_218"/>
<path fill-rule="evenodd" d="M268.3,237.1H507.4V222H268.3v15.1Z" class="g0_218"/>
<path fill-rule="evenodd" d="M268.3,252.1H507.4v-15H268.3v15Z" class="g0_218"/>
<path fill-rule="evenodd" d="M268.3,267.1H507.4v-15H268.3v15Z" class="g0_218"/>
<path fill-rule="evenodd" d="M268.3,282.2H507.4V267.1H268.3v15.1Z" class="g0_218"/>
<path fill-rule="evenodd" d="M268.7,297.2h238v-15h-238v15Z" class="g0_218"/>
<path fill-rule="evenodd" d="M268.7,312.2h238v-15h-238v15Z" class="g0_218"/>
<path fill-rule="evenodd" d="M268.7,327.3h238V312.2h-238v15.1Z" class="g0_218"/>
<path fill-rule="evenodd" d="M268.7,342.5H507V327.3H268.7v15.2Z" class="g0_218"/>
<path fill-rule="evenodd" d="M268.7,357.6H507V342.5H268.7v15.1Z" class="g0_218"/>
<path fill-rule="evenodd" d="M267.9,372.6H507v-15H267.9v15Z" class="g0_218"/>
<path fill-rule="evenodd" d="M267.9,387.6H507v-15H267.9v15Z" class="g0_218"/>
<path fill-rule="evenodd" d="M267.9,402.7H507V387.6H267.9v15.1Z" class="g0_218"/>
<path fill-rule="evenodd" d="M267.9,417.7H507v-15H267.9v15Z" class="g0_218"/>
<path fill-rule="evenodd" d="M267.9,432.7H507v-15H267.9v15Z" class="g0_218"/>
<path fill-rule="evenodd" d="M267.9,447.8H507V432.7H267.9v15.1Z" class="g0_218"/>
<path fill-rule="evenodd" d="M268.3,462.8h238v-15h-238v15Z" class="g0_218"/>
<path fill-rule="evenodd" d="M268.3,477.8h238v-15h-238v15Z" class="g0_218"/>
<path fill-rule="evenodd" d="M267.9,492.9H506.3V477.8H267.9v15.1Z" class="g0_218"/>
<path fill-rule="evenodd" d="M267.9,507.9H506.3v-15H267.9v15Z" class="g0_218"/>
<path fill-rule="evenodd" d="M267.9,523.1H506.3V507.9H267.9v15.2Z" class="g0_218"/>
<path fill-rule="evenodd" d="M267.9,538.2H506.3V523.1H267.9v15.1Z" class="g0_218"/>
<path fill-rule="evenodd" d="M267.9,553.2h238v-15h-238v15Z" class="g0_218"/>
<path fill-rule="evenodd" d="M267.9,568.2h238v-15h-238v15Z" class="g0_218"/>
<path fill-rule="evenodd" d="M267.1,583.3H506.3V568.2H267.1v15.1Z" class="g0_218"/>
<path fill-rule="evenodd" d="M267.1,598.3H506.3v-15H267.1v15Z" class="g0_218"/>
<path fill-rule="evenodd" d="M267.1,613.4H506.3V598.3H267.1v15.1Z" class="g0_218"/>
<path fill-rule="evenodd" d="M267.1,628.4H506.3v-15H267.1v15Z" class="g0_218"/>
<path fill-rule="evenodd" d="M267.6,643.4H505.9v-15H267.6v15Z" class="g0_218"/>
<path fill-rule="evenodd" d="M267.6,658.5H505.9V643.4H267.6v15.1Z" class="g0_218"/>
<path fill-rule="evenodd" d="M267.6,673.5H505.9v-15H267.6v15Z" class="g0_218"/>
<path fill-rule="evenodd" d="M267.6,688.5H505.9v-15H267.6v15Z" class="g0_218"/>
<path fill-rule="evenodd" d="M285.9,703.7H507.4V688.5H285.9v15.2Z" class="g0_218"/>
<path fill-rule="evenodd" d="M266,718.8H505.9V703.7H266v15.1Z" class="g0_218"/>
<path fill-rule="evenodd" d="M266,733.8H505.9v-15H266v15Z" class="g0_218"/>
<path fill-rule="evenodd" d="M266,748.8H505.9v-15H266v15Z" class="g0_218"/>
<path fill-rule="evenodd" d="M266,763.9H505.9V748.8H266v15.1Z" class="g0_218"/>
<path fill-rule="evenodd" d="M266.8,778.9H505.2v-15H266.8v15Z" class="g0_218"/>
<path fill-rule="evenodd" d="M266.8,793.9H505.2v-15H266.8v15Z" class="g0_218"/>
<path fill-rule="evenodd" d="M266.8,809H505.2V793.9H266.8V809Z" class="g0_218"/>
<path fill-rule="evenodd" d="M266.8,824H505.2V809H266.8v15Z" class="g0_218"/>
<path fill-rule="evenodd" d="M266.8,839.1H505.2V824H266.8v15.1Z" class="g0_218"/>
<path fill-rule="evenodd" d="M266.8,854.1H505.2v-15H266.8v15Z" class="g0_218"/>
<path fill-rule="evenodd" d="M266.8,869.2H505.2V854.1H266.8v15.1Z" class="g0_218"/>
<path fill-rule="evenodd" d="M266.8,884.4H505.2V869.2H266.8v15.2Z" class="g0_218"/>
<path fill-rule="evenodd" d="M267.9,899.4H507.4v-15H267.9v15Z" class="g0_218"/>
<path fill-rule="evenodd" d="M527.6,161.7H765.9v-15H527.6v15Z" class="g0_218"/>
<path fill-rule="evenodd" d="M527.6,176.9H765.9V161.7H527.6v15.2Z" class="g0_218"/>
<path fill-rule="evenodd" d="M527.6,192H765.9V176.9H527.6V192Z" class="g0_218"/>
<path fill-rule="evenodd" d="M527.6,207H765.9V192H527.6v15Z" class="g0_218"/>
<path fill-rule="evenodd" d="M527.6,222H765.9V207H527.6v15Z" class="g0_218"/>
<path fill-rule="evenodd" d="M527.6,237.1H765.9V222H527.6v15.1Z" class="g0_218"/>
<path fill-rule="evenodd" d="M527.6,252.1H765.9v-15H527.6v15Z" class="g0_218"/>
<path fill-rule="evenodd" d="M527.6,267.1H765.9v-15H527.6v15Z" class="g0_218"/>
<path fill-rule="evenodd" d="M527.6,282.2H765.9V267.1H527.6v15.1Z" class="g0_218"/>
<path fill-rule="evenodd" d="M527.2,297.2H765.9v-15H527.2v15Z" class="g0_218"/>
<path fill-rule="evenodd" d="M527.2,312.2H765.9v-15H527.2v15Z" class="g0_218"/>
<path fill-rule="evenodd" d="M527.2,327.3H765.9V312.2H527.2v15.1Z" class="g0_218"/>
<path fill-rule="evenodd" d="M527.2,342.5H765.9V327.3H527.2v15.2Z" class="g0_218"/>
<path fill-rule="evenodd" d="M527.2,357.6H765.9V342.5H527.2v15.1Z" class="g0_218"/>
<path fill-rule="evenodd" d="M527.2,372.6H765.9v-15H527.2v15Z" class="g0_218"/>
<path fill-rule="evenodd" d="M527.2,387.6H765.6v-15H527.2v15Z" class="g0_218"/>
<path fill-rule="evenodd" d="M527.2,402.7H765.6V387.6H527.2v15.1Z" class="g0_218"/>
<path fill-rule="evenodd" d="M527.2,417.7H765.6v-15H527.2v15Z" class="g0_218"/>
<path fill-rule="evenodd" d="M526.8,432.7H765.2v-15H526.8v15Z" class="g0_218"/>
<path fill-rule="evenodd" d="M526.8,447.8H765.2V432.7H526.8v15.1Z" class="g0_218"/>
<path fill-rule="evenodd" d="M526.8,462.8H765.6v-15H526.8v15Z" class="g0_218"/>
<path fill-rule="evenodd" d="M526.8,477.8H765.6v-15H526.8v15Z" class="g0_218"/>
<path fill-rule="evenodd" d="M526.8,492.9H765.6V477.8H526.8v15.1Z" class="g0_218"/>
<path fill-rule="evenodd" d="M527.2,508.5h238V493.2h-238v15.3Z" class="g0_218"/>
<path fill-rule="evenodd" d="M527.2,523.5h238v-15h-238v15Z" class="g0_218"/>
<path fill-rule="evenodd" d="M527.2,538.5h238v-15h-238v15Z" class="g0_218"/>
<path fill-rule="evenodd" d="M526.8,553.6H765.6V538.5H526.8v15.1Z" class="g0_218"/>
<path fill-rule="evenodd" d="M526.8,568.6H765.6v-15H526.8v15Z" class="g0_218"/>
<path fill-rule="evenodd" d="M526.8,583.6H765.6v-15H526.8v15Z" class="g0_218"/>
<path fill-rule="evenodd" d="M526.5,598.7H765.2V583.6H526.5v15.1Z" class="g0_218"/>
<path fill-rule="evenodd" d="M526.5,613.7H765.2v-15H526.5v15Z" class="g0_218"/>
<path fill-rule="evenodd" d="M526.5,628.8H765.2V613.7H526.5v15.1Z" class="g0_218"/>
<path fill-rule="evenodd" d="M526.1,643.8H764.8v-15H526.1v15Z" class="g0_218"/>
<path fill-rule="evenodd" d="M526.1,658.8H764.8v-15H526.1v15Z" class="g0_218"/>
<path fill-rule="evenodd" d="M526.1,673.9H764.8V658.8H526.1v15.1Z" class="g0_218"/>
<path fill-rule="evenodd" d="M526.1,689.1H764.8V673.9H526.1v15.2Z" class="g0_218"/>
<path fill-rule="evenodd" d="M526.1,704.1H764.5v-15H526.1v15Z" class="g0_218"/>
<path fill-rule="evenodd" d="M526.1,719.1H764.5v-15H526.1v15Z" class="g0_218"/>
<path fill-rule="evenodd" d="M526.1,734.2H764.8V719.1H526.1v15.1Z" class="g0_218"/>
<path fill-rule="evenodd" d="M526.1,749.2H764.8v-15H526.1v15Z" class="g0_218"/>
<path fill-rule="evenodd" d="M526.1,764.2H764.8v-15H526.1v15Z" class="g0_218"/>
<path fill-rule="evenodd" d="M525.7,779.3H764.5V764.2H525.7v15.1Z" class="g0_218"/>
<path fill-rule="evenodd" d="M525.7,794.3H764.5v-15H525.7v15Z" class="g0_218"/>
<path fill-rule="evenodd" d="M544.1,809.3H765.9v-15H544.1v15Z" class="g0_218"/>
<path fill-rule="evenodd" d="M525.7,824.4H765.2V809.3H525.7v15.1Z" class="g0_218"/>
<path fill-rule="evenodd" d="M525.7,839.5H765.2V824.4H525.7v15.1Z" class="g0_218"/>
<path fill-rule="evenodd" d="M525.7,854.5H765.2v-15H525.7v15Z" class="g0_218"/>
<path fill-rule="evenodd" d="M525.7,869.7H764.5V854.5H525.7v15.2Z" class="g0_218"/>
<path fill-rule="evenodd" d="M525.7,884.7H764.5v-15H525.7v15Z" class="g0_218"/>
<path fill-rule="evenodd" d="M502.3,916.8H765.9V899.4H502.3v17.4Z" class="g0_218"/>
<path d="M194.9,101.2v90.6m13.2,-67.1v53.9m3.7,-53.9v57.6" class="g1_218"/>
<path d="M184.9,700.4V994.1" class="g2_218"/>
<path d="M203.7,705.9V996.6" class="g1_218"/>
<path d="M209.9,755.8V996.7" class="g3_218"/>
<path d="M515.7,147.8V917.4" class="g1_218"/>
</svg>