<?xml version="1.0" encoding="UTF-8" standalone="no"?>
<!DOCTYPE svg PUBLIC "-//W3C//DTD SVG 1.1//EN"
"http://www.w3.org/Graphics/SVG/1.1/DTD/svg11.dtd">
<svg viewBox="0 0 909 1285" version="1.1" xmlns="http://www.w3.org/2000/svg" xmlns:xlink="http://www.w3.org/1999/xlink">
<defs>
<style type="text/css"><![CDATA[
.g0_207{
fill: #FFFFFF;
}
.g1_207{
fill: none;
stroke: #000000;
stroke-width: 0.381;
stroke-linecap: butt;
stroke-linejoin: round;
}
.g2_207{
fill: none;
stroke: #000000;
stroke-width: 6.569;
stroke-linecap: butt;
stroke-linejoin: round;
}
.g3_207{
fill: none;
stroke: #000000;
stroke-width: 0.763;
stroke-linecap: butt;
stroke-linejoin: round;
}
]]></style>
</defs>
<path fill-rule="evenodd" d="M273.1,125.8h498V110h-498v15.8Z" class="g0_207"/>
<path fill-rule="evenodd" d="M273.1,161.4H511.8V146.3H273.1v15.1Z" class="g0_207"/>
<path fill-rule="evenodd" d="M273.1,176.4H511.8v-15H273.1v15Z" class="g0_207"/>
<path fill-rule="evenodd" d="M273.1,191.6H511.8V176.4H273.1v15.2Z" class="g0_207"/>
<path fill-rule="evenodd" d="M273.1,206.6H511.4v-15H273.1v15Z" class="g0_207"/>
<path fill-rule="evenodd" d="M273.1,221.7H511.4V206.6H273.1v15.1Z" class="g0_207"/>
<path fill-rule="evenodd" d="M273.1,236.7H511.8v-15H273.1v15Z" class="g0_207"/>
<path fill-rule="evenodd" d="M273.1,251.7H511.8v-15H273.1v15Z" class="g0_207"/>
<path fill-rule="evenodd" d="M273.1,266.8H511.8V251.7H273.1v15.1Z" class="g0_207"/>
<path fill-rule="evenodd" d="M291,281.8H511.8v-15H291v15Z" class="g0_207"/>
<path fill-rule="evenodd" d="M272.7,296.8H511.8v-15H272.7v15Z" class="g0_207"/>
<path fill-rule="evenodd" d="M272.7,311.9H511.8V296.8H272.7v15.1Z" class="g0_207"/>
<path fill-rule="evenodd" d="M272.7,326.9H511.8v-15H272.7v15Z" class="g0_207"/>
<path fill-rule="evenodd" d="M291,341.9H511.8v-15H291v15Z" class="g0_207"/>
<path fill-rule="evenodd" d="M290.7,357.2H511.8V342H290.7v15.2Z" class="g0_207"/>
<path fill-rule="evenodd" d="M272.3,372.2H511.4v-15H272.3v15Z" class="g0_207"/>
<path fill-rule="evenodd" d="M272.3,387.3H511.4V372.2H272.3v15.1Z" class="g0_207"/>
<path fill-rule="evenodd" d="M272.3,402.3H511.4v-15H272.3v15Z" class="g0_207"/>
<path fill-rule="evenodd" d="M272.3,417.3H511.4v-15H272.3v15Z" class="g0_207"/>
<path fill-rule="evenodd" d="M272.3,432.4H511.4V417.3H272.3v15.1Z" class="g0_207"/>
<path fill-rule="evenodd" d="M272,447.4H511.4v-15H272v15Z" class="g0_207"/>
<path fill-rule="evenodd" d="M272,462.4H511.4v-15H272v15Z" class="g0_207"/>
<path fill-rule="evenodd" d="M272,477.5H511.4V462.4H272v15.1Z" class="g0_207"/>
<path fill-rule="evenodd" d="M272.3,492.5H510.7v-15H272.3v15Z" class="g0_207"/>
<path fill-rule="evenodd" d="M272.3,507.5H510.7v-15H272.3v15Z" class="g0_207"/>
<path fill-rule="evenodd" d="M272.3,522.6H510.7V507.5H272.3v15.1Z" class="g0_207"/>
<path fill-rule="evenodd" d="M272.3,537.8H510.7V522.6H272.3v15.2Z" class="g0_207"/>
<path fill-rule="evenodd" d="M272,552.8H511.4v-15H272v15Z" class="g0_207"/>
<path fill-rule="evenodd" d="M272,567.9H511.4V552.8H272v15.1Z" class="g0_207"/>
<path fill-rule="evenodd" d="M272,582.9H511.4v-15H272v15Z" class="g0_207"/>
<path fill-rule="evenodd" d="M272,598H511.4V582.9H272V598Z" class="g0_207"/>
<path fill-rule="evenodd" d="M273.4,613h238V598h-238v15Z" class="g0_207"/>
<path fill-rule="evenodd" d="M532.3,161.4H770.7V146.3H532.3v15.1Z" class="g0_207"/>
<path fill-rule="evenodd" d="M532.3,176.4H770.7v-15H532.3v15Z" class="g0_207"/>
<path fill-rule="evenodd" d="M532.3,191.6h238V176.4h-238v15.2Z" class="g0_207"/>
<path fill-rule="evenodd" d="M532.3,206.6h238v-15h-238v15Z" class="g0_207"/>
<path fill-rule="evenodd" d="M532.3,221.7h238V206.6h-238v15.1Z" class="g0_207"/>
<path fill-rule="evenodd" d="M532.7,236.7H770.3v-15H532.7v15Z" class="g0_207"/>
<path fill-rule="evenodd" d="M532.7,251.7H770.3v-15H532.7v15Z" class="g0_207"/>
<path fill-rule="evenodd" d="M532.3,266.8H770V251.7H532.3v15.1Z" class="g0_207"/>
<path fill-rule="evenodd" d="M532.3,281.8H770v-15H532.3v15Z" class="g0_207"/>
<path fill-rule="evenodd" d="M532.3,296.8h238v-15h-238v15Z" class="g0_207"/>
<path fill-rule="evenodd" d="M532.3,311.9h238V296.8h-238v15.1Z" class="g0_207"/>
<path fill-rule="evenodd" d="M532,326.9H771.1v-15H532v15Z" class="g0_207"/>
<path fill-rule="evenodd" d="M532,341.9H771.1v-15H532v15Z" class="g0_207"/>
<path fill-rule="evenodd" d="M532,357.2H771.1V342H532v15.2Z" class="g0_207"/>
<path fill-rule="evenodd" d="M531.6,372.2H770v-15H531.6v15Z" class="g0_207"/>
<path fill-rule="evenodd" d="M531.6,387.3H770V372.2H531.6v15.1Z" class="g0_207"/>
<path fill-rule="evenodd" d="M532,402.3H770v-15H532v15Z" class="g0_207"/>
<path fill-rule="evenodd" d="M532,417.3H770v-15H532v15Z" class="g0_207"/>
<path fill-rule="evenodd" d="M549.9,432.4H771.1V417.3H549.9v15.1Z" class="g0_207"/>
<path fill-rule="evenodd" d="M530.9,447.4H770.3v-15H530.9v15Z" class="g0_207"/>
<path fill-rule="evenodd" d="M530.9,462.4H770.3v-15H530.9v15Z" class="g0_207"/>
<path fill-rule="evenodd" d="M530.9,477.5H770.3V462.4H530.9v15.1Z" class="g0_207"/>
<path fill-rule="evenodd" d="M530.9,492.5H770.3v-15H530.9v15Z" class="g0_207"/>
<path fill-rule="evenodd" d="M530.9,507.5H770.3v-15H530.9v15Z" class="g0_207"/>
<path fill-rule="evenodd" d="M530.9,522.6H770.3V507.5H530.9v15.1Z" class="g0_207"/>
<path fill-rule="evenodd" d="M530.9,537.8H770.3V522.6H530.9v15.2Z" class="g0_207"/>
<path fill-rule="evenodd" d="M530.9,552.8H770.3v-15H530.9v15Z" class="g0_207"/>
<path fill-rule="evenodd" d="M530.9,567.9H770.3V552.8H530.9v15.1Z" class="g0_207"/>
<path fill-rule="evenodd" d="M530.9,582.9H770.3v-15H530.9v15Z" class="g0_207"/>
<path fill-rule="evenodd" d="M530.9,598H770.3V582.9H530.9V598Z" class="g0_207"/>
<path fill-rule="evenodd" d="M502.6,673.9H771.1V650H502.6v23.9Z" class="g0_207"/>
<path fill-rule="evenodd" d="M299.1,711.3H513.6V696.2H299.1v15.1Z" class="g0_207"/>
<path fill-rule="evenodd" d="M271.6,726.3h242v-15h-242v15Z" class="g0_207"/>
<path fill-rule="evenodd" d="M271.6,741.3h242v-15h-242v15Z" class="g0_207"/>
<path fill-rule="evenodd" d="M271.6,756.4h242V741.3h-242v15.1Z" class="g0_207"/>
<path fill-rule="evenodd" d="M271.6,771.6h242V756.4h-242v15.2Z" class="g0_207"/>
<path fill-rule="evenodd" d="M271.6,786.6h242v-15h-242v15Z" class="g0_207"/>
<path fill-rule="evenodd" d="M298.7,801.6H513.6v-15H298.7v15Z" class="g0_207"/>
<path fill-rule="evenodd" d="M271.2,816.7H512.9V801.6H271.2v15.1Z" class="g0_207"/>
<path fill-rule="evenodd" d="M271.2,831.7H512.9v-15H271.2v15Z" class="g0_207"/>
<path fill-rule="evenodd" d="M271.2,846.8H512.9V831.7H271.2v15.1Z" class="g0_207"/>
<path fill-rule="evenodd" d="M271.2,861.8H512.9v-15H271.2v15Z" class="g0_207"/>
<path fill-rule="evenodd" d="M271.2,876.9H513.3V861.8H271.2v15.1Z" class="g0_207"/>
<path fill-rule="evenodd" d="M271.2,891.9H513.3v-15H271.2v15Z" class="g0_207"/>
<path fill-rule="evenodd" d="M272,906.9H513.6v-15H272v15Z" class="g0_207"/>
<path fill-rule="evenodd" d="M527.6,711.3h242V696.2h-242v15.1Z" class="g0_207"/>
<path fill-rule="evenodd" d="M527.6,726.3h242v-15h-242v15Z" class="g0_207"/>
<path fill-rule="evenodd" d="M527.9,741.3H769.2v-15H527.9v15Z" class="g0_207"/>
<path fill-rule="evenodd" d="M527.9,756.4H769.2V741.3H527.9v15.1Z" class="g0_207"/>
<path fill-rule="evenodd" d="M527.6,771.6H769.2V756.4H527.6v15.2Z" class="g0_207"/>
<path fill-rule="evenodd" d="M527.6,786.6H769.2v-15H527.6v15Z" class="g0_207"/>
<path fill-rule="evenodd" d="M527.6,801.6H769.2v-15H527.6v15Z" class="g0_207"/>
<path fill-rule="evenodd" d="M527.2,816.7H768.9V801.6H527.2v15.1Z" class="g0_207"/>
<path fill-rule="evenodd" d="M527.2,831.7H768.9v-15H527.2v15Z" class="g0_207"/>
<path fill-rule="evenodd" d="M527.2,846.8H769.6V831.7H527.2v15.1Z" class="g0_207"/>
<path fill-rule="evenodd" d="M527.2,861.8H769.6v-15H527.2v15Z" class="g0_207"/>
<path fill-rule="evenodd" d="M526.8,876.9H768.9V861.8H526.8v15.1Z" class="g0_207"/>
<path fill-rule="evenodd" d="M526.8,891.9H768.9v-15H526.8v15Z" class="g0_207"/>
<path fill-rule="evenodd" d="M526.8,906.9H768.9v-15H526.8v15Z" class="g0_207"/>
<path fill-rule="evenodd" d="M506.7,939.2H771.1V921.6H506.7v17.6Z" class="g0_207"/>
<path d="M202.6,101.9v55.8" class="g1_207"/>
<path d="M186.5,426.1V617.5" class="g2_207"/>
<path d="M203,183.8v52.4" class="g3_207"/>
<path d="M520.8,147.4V597m-.7,98.4V912.8" class="g1_207"/>
</svg>