<?xml version="1.0" encoding="UTF-8" standalone="no"?>
<!DOCTYPE svg PUBLIC "-//W3C//DTD SVG 1.1//EN"
"http://www.w3.org/Graphics/SVG/1.1/DTD/svg11.dtd">
<svg viewBox="0 0 909 1285" version="1.1" xmlns="http://www.w3.org/2000/svg" xmlns:xlink="http://www.w3.org/1999/xlink">
<defs>
<style type="text/css"><![CDATA[
.g0_327{
fill: #FFFFFF;
}
.g1_327{
fill: none;
stroke: #000000;
stroke-width: 0.763;
stroke-linecap: butt;
stroke-linejoin: round;
}
.g2_327{
fill: none;
stroke: #000000;
stroke-width: 0.381;
stroke-linecap: butt;
stroke-linejoin: round;
}
]]></style>
</defs>
<path fill-rule="evenodd" d="M274.3,125.8H772.7V110H274.3v15.8Z" class="g0_327"/>
<path fill-rule="evenodd" d="M274.3,161.7H513.4V147.1H274.3v14.6Z" class="g0_327"/>
<path fill-rule="evenodd" d="M274.3,176.4H513.4V161.7H274.3v14.7Z" class="g0_327"/>
<path fill-rule="evenodd" d="M274.3,191.1H513.1V176.4H274.3v14.7Z" class="g0_327"/>
<path fill-rule="evenodd" d="M274.3,205.7H513.1V191.1H274.3v14.6Z" class="g0_327"/>
<path fill-rule="evenodd" d="M274.3,220.4H513.1V205.7H274.3v14.7Z" class="g0_327"/>
<path fill-rule="evenodd" d="M292.7,235.4H513.4V220.8H292.7v14.6Z" class="g0_327"/>
<path fill-rule="evenodd" d="M274.3,250.1H513.4V235.4H274.3v14.7Z" class="g0_327"/>
<path fill-rule="evenodd" d="M274.3,264.8H513.4V250.1H274.3v14.7Z" class="g0_327"/>
<path fill-rule="evenodd" d="M274.3,279.4H513.4V264.8H274.3v14.6Z" class="g0_327"/>
<path fill-rule="evenodd" d="M274.3,294.1H512.7V279.4H274.3v14.7Z" class="g0_327"/>
<path fill-rule="evenodd" d="M274.3,308.8H512.7V294.1H274.3v14.7Z" class="g0_327"/>
<path fill-rule="evenodd" d="M274.3,323.4H512.7V308.8H274.3v14.6Z" class="g0_327"/>
<path fill-rule="evenodd" d="M274.3,338.1H512.7V323.4H274.3v14.7Z" class="g0_327"/>
<path fill-rule="evenodd" d="M274,353.2H513.1V338.5H274v14.7Z" class="g0_327"/>
<path fill-rule="evenodd" d="M274,367.8H513.1V353.2H274v14.6Z" class="g0_327"/>
<path fill-rule="evenodd" d="M273.6,382.5H513.4V367.8H273.6v14.7Z" class="g0_327"/>
<path fill-rule="evenodd" d="M273.6,397.2H513.4V382.5H273.6v14.7Z" class="g0_327"/>
<path fill-rule="evenodd" d="M273.6,411.8H513.4V397.2H273.6v14.6Z" class="g0_327"/>
<path fill-rule="evenodd" d="M274,426.9H513.1V412.2H274v14.7Z" class="g0_327"/>
<path fill-rule="evenodd" d="M274,441.5H513.1V426.9H274v14.6Z" class="g0_327"/>
<path fill-rule="evenodd" d="M274.7,456.6H513.1V441.9H274.7v14.7Z" class="g0_327"/>
<path fill-rule="evenodd" d="M274.7,471.2H513.1V456.6H274.7v14.6Z" class="g0_327"/>
<path fill-rule="evenodd" d="M292.7,485.9H513.4V471.2H292.7v14.7Z" class="g0_327"/>
<path fill-rule="evenodd" d="M274,501.1H513.4V486.3H274v14.8Z" class="g0_327"/>
<path fill-rule="evenodd" d="M274,515.8H513.4V501.1H274v14.7Z" class="g0_327"/>
<path fill-rule="evenodd" d="M274,530.5H513.4V515.8H274v14.7Z" class="g0_327"/>
<path fill-rule="evenodd" d="M274,545.1H513.4V530.5H274v14.6Z" class="g0_327"/>
<path fill-rule="evenodd" d="M274,559.8H513.4V545.1H274v14.7Z" class="g0_327"/>
<path fill-rule="evenodd" d="M292.3,575.2H513.4V560.5H292.3v14.7Z" class="g0_327"/>
<path fill-rule="evenodd" d="M274.7,589.9h238V575.2h-238v14.7Z" class="g0_327"/>
<path fill-rule="evenodd" d="M274.7,604.6h238V589.9h-238v14.7Z" class="g0_327"/>
<path fill-rule="evenodd" d="M274,619.2H512.3V604.6H274v14.6Z" class="g0_327"/>
<path fill-rule="evenodd" d="M274,633.9H512.3V619.2H274v14.7Z" class="g0_327"/>
<path fill-rule="evenodd" d="M274,648.6H512.7V633.9H274v14.7Z" class="g0_327"/>
<path fill-rule="evenodd" d="M274,663.2H512.7V648.6H274v14.6Z" class="g0_327"/>
<path fill-rule="evenodd" d="M274,677.9H512.7V663.2H274v14.7Z" class="g0_327"/>
<path fill-rule="evenodd" d="M274,692.6H512.7V677.9H274v14.7Z" class="g0_327"/>
<path fill-rule="evenodd" d="M292.3,707.2H513.4V692.6H292.3v14.6Z" class="g0_327"/>
<path fill-rule="evenodd" d="M274,721.9H513.1V707.2H274v14.7Z" class="g0_327"/>
<path fill-rule="evenodd" d="M274,736.6H513.1V721.9H274v14.7Z" class="g0_327"/>
<path fill-rule="evenodd" d="M273.6,751.2H512.7V736.6H273.6v14.6Z" class="g0_327"/>
<path fill-rule="evenodd" d="M273.6,765.9H512.7V751.2H273.6v14.7Z" class="g0_327"/>
<path fill-rule="evenodd" d="M274,780.9H512.7V766.3H274v14.6Z" class="g0_327"/>
<path fill-rule="evenodd" d="M274,795.6H512.7V780.9H274v14.7Z" class="g0_327"/>
<path fill-rule="evenodd" d="M274,810.3H512.7V795.6H274v14.7Z" class="g0_327"/>
<path fill-rule="evenodd" d="M273.6,824.9H512.7V810.3H273.6v14.6Z" class="g0_327"/>
<path fill-rule="evenodd" d="M273.6,839.6H512.7V824.9H273.6v14.7Z" class="g0_327"/>
<path fill-rule="evenodd" d="M273.6,854.3H512.7V839.6H273.6v14.7Z" class="g0_327"/>
<path fill-rule="evenodd" d="M273.6,869.3H512.7v-15H273.6v15Z" class="g0_327"/>
<path fill-rule="evenodd" d="M273.6,884H512.7V869.3H273.6V884Z" class="g0_327"/>
<path fill-rule="evenodd" d="M274.3,898.7H512V884H274.3v14.7Z" class="g0_327"/>
<path fill-rule="evenodd" d="M533.6,161.7H771.2V147.1H533.6v14.6Z" class="g0_327"/>
<path fill-rule="evenodd" d="M533.6,176.4H771.2V161.7H533.6v14.7Z" class="g0_327"/>
<path fill-rule="evenodd" d="M533.6,191.1H771.2V176.4H533.6v14.7Z" class="g0_327"/>
<path fill-rule="evenodd" d="M534,206.5H771.6V191.8H534v14.7Z" class="g0_327"/>
<path fill-rule="evenodd" d="M534,221.1H771.6V206.5H534v14.6Z" class="g0_327"/>
<path fill-rule="evenodd" d="M534,235.8H771.6V221.1H534v14.7Z" class="g0_327"/>
<path fill-rule="evenodd" d="M534,250.5H771.6V235.8H534v14.7Z" class="g0_327"/>
<path fill-rule="evenodd" d="M534.3,265.5H771.6V250.8H534.3v14.7Z" class="g0_327"/>
<path fill-rule="evenodd" d="M534.3,280.2H771.6V265.5H534.3v14.7Z" class="g0_327"/>
<path fill-rule="evenodd" d="M534,295.2H772V280.5H534v14.7Z" class="g0_327"/>
<path fill-rule="evenodd" d="M534,309.9H772V295.2H534v14.7Z" class="g0_327"/>
<path fill-rule="evenodd" d="M534,324.5H772V309.9H534v14.6Z" class="g0_327"/>
<path fill-rule="evenodd" d="M534,339.2H772V324.5H534v14.7Z" class="g0_327"/>
<path fill-rule="evenodd" d="M534,353.9H772V339.2H534v14.7Z" class="g0_327"/>
<path fill-rule="evenodd" d="M551.9,369.1H772.7V354.3H551.9v14.8Z" class="g0_327"/>
<path fill-rule="evenodd" d="M534.3,383.8H772.7V369.1H534.3v14.7Z" class="g0_327"/>
<path fill-rule="evenodd" d="M534.3,398.5H772.7V383.8H534.3v14.7Z" class="g0_327"/>
<path fill-rule="evenodd" d="M534.3,413.1H772.7V398.5H534.3v14.6Z" class="g0_327"/>
<path fill-rule="evenodd" d="M533.6,427.8H772.3V413.1H533.6v14.7Z" class="g0_327"/>
<path fill-rule="evenodd" d="M533.6,442.5H772.3V427.8H533.6v14.7Z" class="g0_327"/>
<path fill-rule="evenodd" d="M533.6,457.1H772.3V442.5H533.6v14.6Z" class="g0_327"/>
<path fill-rule="evenodd" d="M533.6,471.8H772.3V457.1H533.6v14.7Z" class="g0_327"/>
<path fill-rule="evenodd" d="M533.6,486.5H772V471.8H533.6v14.7Z" class="g0_327"/>
<path fill-rule="evenodd" d="M533.6,501.1H772V486.5H533.6v14.6Z" class="g0_327"/>
<path fill-rule="evenodd" d="M533.6,515.8H772V501.1H533.6v14.7Z" class="g0_327"/>
<path fill-rule="evenodd" d="M534,531.2H772V516.5H534v14.7Z" class="g0_327"/>
<path fill-rule="evenodd" d="M534,545.9H772V531.2H534v14.7Z" class="g0_327"/>
<path fill-rule="evenodd" d="M534,560.5H772V545.9H534v14.6Z" class="g0_327"/>
<path fill-rule="evenodd" d="M534,575.2H772V560.5H534v14.7Z" class="g0_327"/>
<path fill-rule="evenodd" d="M533.6,589.9h238V575.2h-238v14.7Z" class="g0_327"/>
<path fill-rule="evenodd" d="M533.6,604.6h238V589.9h-238v14.7Z" class="g0_327"/>
<path fill-rule="evenodd" d="M533.6,620H772V605.3H533.6V620Z" class="g0_327"/>
<path fill-rule="evenodd" d="M533.6,634.6H772V620H533.6v14.6Z" class="g0_327"/>
<path fill-rule="evenodd" d="M532.9,650H772V635.4H532.9V650Z" class="g0_327"/>
<path fill-rule="evenodd" d="M532.9,664.7H772V650H532.9v14.7Z" class="g0_327"/>
<path fill-rule="evenodd" d="M532.9,679.4H772V664.7H532.9v14.7Z" class="g0_327"/>
<path fill-rule="evenodd" d="M532.9,694H772V679.4H532.9V694Z" class="g0_327"/>
<path fill-rule="evenodd" d="M533.2,709.1H771.6V694.4H533.2v14.7Z" class="g0_327"/>
<path fill-rule="evenodd" d="M533.2,723.7H771.6V709.1H533.2v14.6Z" class="g0_327"/>
<path fill-rule="evenodd" d="M533.6,738.4H772.3V723.7H533.6v14.7Z" class="g0_327"/>
<path fill-rule="evenodd" d="M533.6,753.1H772.3V738.4H533.6v14.7Z" class="g0_327"/>
<path fill-rule="evenodd" d="M533.6,767.7H772.3V753.1H533.6v14.6Z" class="g0_327"/>
<path fill-rule="evenodd" d="M533.6,782.4H772.3V767.7H533.6v14.7Z" class="g0_327"/>
<path fill-rule="evenodd" d="M533.6,797.1H772.3V782.4H533.6v14.7Z" class="g0_327"/>
<path fill-rule="evenodd" d="M533.6,811.7H772.7V797.1H533.6v14.6Z" class="g0_327"/>
<path fill-rule="evenodd" d="M533.6,826.4H772.7V811.7H533.6v14.7Z" class="g0_327"/>
<path fill-rule="evenodd" d="M533.6,841.1H772.7V826.4H533.6v14.7Z" class="g0_327"/>
<path fill-rule="evenodd" d="M533.6,855.8H772.7V841.1H533.6v14.7Z" class="g0_327"/>
<path fill-rule="evenodd" d="M533.2,870.4H772.3V855.8H533.2v14.6Z" class="g0_327"/>
<path fill-rule="evenodd" d="M533.2,885.1H772.3V870.4H533.2v14.7Z" class="g0_327"/>
<path fill-rule="evenodd" d="M533.2,899.8H772.3V885.1H533.2v14.7Z" class="g0_327"/>
<path fill-rule="evenodd" d="M509.8,932.4H772.7V914.8H509.8v17.6Z" class="g0_327"/>
<path d="M196.5,832v44.3" class="g1_327"/>
<path d="M201.4,332.2V971.7m5.1,-518.9V971.7M522.9,147.8V917" class="g2_327"/>
</svg>