<?xml version="1.0" encoding="UTF-8" standalone="no"?>
<!DOCTYPE svg PUBLIC "-//W3C//DTD SVG 1.1//EN"
"http://www.w3.org/Graphics/SVG/1.1/DTD/svg11.dtd">
<svg viewBox="0 0 909 1285" version="1.1" xmlns="http://www.w3.org/2000/svg" xmlns:xlink="http://www.w3.org/1999/xlink">
<defs>
<style type="text/css"><![CDATA[
.g0_143{
fill: #FFFFFF;
}
.g1_143{
fill: none;
stroke: #000000;
stroke-width: 0.381;
stroke-linecap: butt;
stroke-linejoin: round;
}
.g2_143{
fill: none;
stroke: #000000;
stroke-width: 0.763;
stroke-linecap: butt;
stroke-linejoin: round;
}
]]></style>
</defs>
<path fill-rule="evenodd" d="M255.4,127.6H757.1V110H255.4v17.6Z" class="g0_143"/>
<path fill-rule="evenodd" d="M255.8,163.2H496v-15H255.8v15Z" class="g0_143"/>
<path fill-rule="evenodd" d="M255.8,178.2H496v-15H255.8v15Z" class="g0_143"/>
<path fill-rule="evenodd" d="M274.2,193.3H496.4V178.2H274.2v15.1Z" class="g0_143"/>
<path fill-rule="evenodd" d="M274.2,208.3H496.4v-15H274.2v15Z" class="g0_143"/>
<path fill-rule="evenodd" d="M255.8,223.3H495.7v-15H255.8v15Z" class="g0_143"/>
<path fill-rule="evenodd" d="M255.8,238.4H495.7V223.3H255.8v15.1Z" class="g0_143"/>
<path fill-rule="evenodd" d="M255.4,253.4H496v-15H255.4v15Z" class="g0_143"/>
<path fill-rule="evenodd" d="M255.4,268.6H496V253.4H255.4v15.2Z" class="g0_143"/>
<path fill-rule="evenodd" d="M255.4,283.6h241v-15h-241v15Z" class="g0_143"/>
<path fill-rule="evenodd" d="M255.4,298.7h241V283.6h-241v15.1Z" class="g0_143"/>
<path fill-rule="evenodd" d="M255.4,313.7h241v-15h-241v15Z" class="g0_143"/>
<path fill-rule="evenodd" d="M273.8,328.7H496.4v-15H273.8v15Z" class="g0_143"/>
<path fill-rule="evenodd" d="M255.4,343.8H495.7V328.7H255.4v15.1Z" class="g0_143"/>
<path fill-rule="evenodd" d="M255.4,358.9H495.7V343.8H255.4v15.1Z" class="g0_143"/>
<path fill-rule="evenodd" d="M255,373.9H495.7v-15H255v15Z" class="g0_143"/>
<path fill-rule="evenodd" d="M255,388.9H495.7v-15H255v15Z" class="g0_143"/>
<path fill-rule="evenodd" d="M255.4,404H495.3V388.9H255.4V404Z" class="g0_143"/>
<path fill-rule="evenodd" d="M255.4,419H495.3V404H255.4v15Z" class="g0_143"/>
<path fill-rule="evenodd" d="M255,434.2H494.9V419H255v15.2Z" class="g0_143"/>
<path fill-rule="evenodd" d="M255,449.2H494.9v-15H255v15Z" class="g0_143"/>
<path fill-rule="evenodd" d="M254.3,464.3h241V449.2h-241v15.1Z" class="g0_143"/>
<path fill-rule="evenodd" d="M254.3,479.3h241v-15h-241v15Z" class="g0_143"/>
<path fill-rule="evenodd" d="M254.3,494.3h241v-15h-241v15Z" class="g0_143"/>
<path fill-rule="evenodd" d="M254.3,509.4h241V494.3h-241v15.1Z" class="g0_143"/>
<path fill-rule="evenodd" d="M254.3,524.4h241v-15h-241v15Z" class="g0_143"/>
<path fill-rule="evenodd" d="M254.3,539.4h241v-15h-241v15Z" class="g0_143"/>
<path fill-rule="evenodd" d="M254.3,554.5h241V539.4h-241v15.1Z" class="g0_143"/>
<path fill-rule="evenodd" d="M254.3,569.5h241v-15h-241v15Z" class="g0_143"/>
<path fill-rule="evenodd" d="M254.3,584.5h241v-15h-241v15Z" class="g0_143"/>
<path fill-rule="evenodd" d="M254.3,599.6h241V584.5h-241v15.1Z" class="g0_143"/>
<path fill-rule="evenodd" d="M254.3,614.8H496.4V599.6H254.3v15.2Z" class="g0_143"/>
<path fill-rule="evenodd" d="M254.3,629.9H496.4V614.8H254.3v15.1Z" class="g0_143"/>
<path fill-rule="evenodd" d="M254.3,644.9H496.4v-15H254.3v15Z" class="g0_143"/>
<path fill-rule="evenodd" d="M254.3,659.9H496.4v-15H254.3v15Z" class="g0_143"/>
<path fill-rule="evenodd" d="M254.3,675H496.4V659.9H254.3V675Z" class="g0_143"/>
<path fill-rule="evenodd" d="M253.6,690H494.9V675H253.6v15Z" class="g0_143"/>
<path fill-rule="evenodd" d="M253.6,705H494.9V690H253.6v15Z" class="g0_143"/>
<path fill-rule="evenodd" d="M253.6,720.1H494.9V705H253.6v15.1Z" class="g0_143"/>
<path fill-rule="evenodd" d="M253.6,735.1H494.9v-15H253.6v15Z" class="g0_143"/>
<path fill-rule="evenodd" d="M253.6,750.1H494.9v-15H253.6v15Z" class="g0_143"/>
<path fill-rule="evenodd" d="M253.6,765.2H494.9V750.1H253.6v15.1Z" class="g0_143"/>
<path fill-rule="evenodd" d="M253.6,780.2H494.9v-15H253.6v15Z" class="g0_143"/>
<path fill-rule="evenodd" d="M253.6,795.4H494.9V780.2H253.6v15.2Z" class="g0_143"/>
<path fill-rule="evenodd" d="M253.6,810.4H494.9v-15H253.6v15Z" class="g0_143"/>
<path fill-rule="evenodd" d="M253.9,825.5H443.5V810.4H253.9v15.1Z" class="g0_143"/>
<path fill-rule="evenodd" d="M253.9,840.6H443.5V825.5H253.9v15.1Z" class="g0_143"/>
<path fill-rule="evenodd" d="M253.6,855.6h241v-15h-241v15Z" class="g0_143"/>
<path fill-rule="evenodd" d="M253.6,870.6h241v-15h-241v15Z" class="g0_143"/>
<path fill-rule="evenodd" d="M253.6,885.7h241V870.6h-241v15.1Z" class="g0_143"/>
<path fill-rule="evenodd" d="M253.6,900.7h241v-15h-241v15Z" class="g0_143"/>
<path fill-rule="evenodd" d="M256.5,915.7H440.6v-15H256.5v15Z" class="g0_143"/>
<path fill-rule="evenodd" d="M516.9,163.2H701.2v-15H516.9v15Z" class="g0_143"/>
<path fill-rule="evenodd" d="M516.9,178.2H701.2v-15H516.9v15Z" class="g0_143"/>
<path fill-rule="evenodd" d="M516.2,193.3H757.1V178.2H516.2v15.1Z" class="g0_143"/>
<path fill-rule="evenodd" d="M516.2,208.3H757.1v-15H516.2v15Z" class="g0_143"/>
<path fill-rule="evenodd" d="M516.2,223.3H757.1v-15H516.2v15Z" class="g0_143"/>
<path fill-rule="evenodd" d="M516.2,238.4H757.1V223.3H516.2v15.1Z" class="g0_143"/>
<path fill-rule="evenodd" d="M516.2,253.4H757.1v-15H516.2v15Z" class="g0_143"/>
<path fill-rule="evenodd" d="M516.2,268.6H756.8V253.4H516.2v15.2Z" class="g0_143"/>
<path fill-rule="evenodd" d="M516.2,283.6H756.8v-15H516.2v15Z" class="g0_143"/>
<path fill-rule="evenodd" d="M516.2,298.7H756.8V283.6H516.2v15.1Z" class="g0_143"/>
<path fill-rule="evenodd" d="M516.2,313.7H673.5v-15H516.2v15Z" class="g0_143"/>
<path fill-rule="evenodd" d="M516.2,328.7H673.5v-15H516.2v15Z" class="g0_143"/>
<path fill-rule="evenodd" d="M515.8,343.8H757.1V328.7H515.8v15.1Z" class="g0_143"/>
<path fill-rule="evenodd" d="M515.8,358.9H757.1V343.8H515.8v15.1Z" class="g0_143"/>
<path fill-rule="evenodd" d="M515.8,373.9H757.1v-15H515.8v15Z" class="g0_143"/>
<path fill-rule="evenodd" d="M515.8,388.9H757.1v-15H515.8v15Z" class="g0_143"/>
<path fill-rule="evenodd" d="M515.8,404H757.1V388.9H515.8V404Z" class="g0_143"/>
<path fill-rule="evenodd" d="M516.2,419h240V404h-240v15Z" class="g0_143"/>
<path fill-rule="evenodd" d="M516.2,434.2h240V419h-240v15.2Z" class="g0_143"/>
<path fill-rule="evenodd" d="M516.2,449.2h240v-15h-240v15Z" class="g0_143"/>
<path fill-rule="evenodd" d="M515.5,464.3H701.2V449.2H515.5v15.1Z" class="g0_143"/>
<path fill-rule="evenodd" d="M515.5,479.3H701.2v-15H515.5v15Z" class="g0_143"/>
<path fill-rule="evenodd" d="M515.5,494.3H755.3v-15H515.5v15Z" class="g0_143"/>
<path fill-rule="evenodd" d="M515.5,509.4H755.3V494.3H515.5v15.1Z" class="g0_143"/>
<path fill-rule="evenodd" d="M515.1,524.4H755.7v-15H515.1v15Z" class="g0_143"/>
<path fill-rule="evenodd" d="M515.1,539.4H755.7v-15H515.1v15Z" class="g0_143"/>
<path fill-rule="evenodd" d="M515.1,554.5H755.7V539.4H515.1v15.1Z" class="g0_143"/>
<path fill-rule="evenodd" d="M515.1,569.5H755.7v-15H515.1v15Z" class="g0_143"/>
<path fill-rule="evenodd" d="M515.1,584.5H755.7v-15H515.1v15Z" class="g0_143"/>
<path fill-rule="evenodd" d="M515.1,599.6H755.7V584.5H515.1v15.1Z" class="g0_143"/>
<path fill-rule="evenodd" d="M515.1,614.8H754.9V599.6H515.1v15.2Z" class="g0_143"/>
<path fill-rule="evenodd" d="M515.1,629.9H754.9V614.8H515.1v15.1Z" class="g0_143"/>
<path fill-rule="evenodd" d="M515.1,644.9H755.7v-15H515.1v15Z" class="g0_143"/>
<path fill-rule="evenodd" d="M515.1,659.9H755.7v-15H515.1v15Z" class="g0_143"/>
<path fill-rule="evenodd" d="M515.1,675H755.7V659.9H515.1V675Z" class="g0_143"/>
<path fill-rule="evenodd" d="M515.1,690H754.6V675H515.1v15Z" class="g0_143"/>
<path fill-rule="evenodd" d="M515.1,705H754.6V690H515.1v15Z" class="g0_143"/>
<path fill-rule="evenodd" d="M514,720.1H754.9V705H514v15.1Z" class="g0_143"/>
<path fill-rule="evenodd" d="M514,735.1H754.9v-15H514v15Z" class="g0_143"/>
<path fill-rule="evenodd" d="M514,750.1H754.9v-15H514v15Z" class="g0_143"/>
<path fill-rule="evenodd" d="M514,765.2H754.9V750.1H514v15.1Z" class="g0_143"/>
<path fill-rule="evenodd" d="M514,780.2H754.9v-15H514v15Z" class="g0_143"/>
<path fill-rule="evenodd" d="M514,795.4H754.9V780.2H514v15.2Z" class="g0_143"/>
<path fill-rule="evenodd" d="M514.7,810.8H757.1v-15H514.7v15Z" class="g0_143"/>
<path fill-rule="evenodd" d="M514.7,825.8H757.1v-15H514.7v15Z" class="g0_143"/>
<path fill-rule="evenodd" d="M514.7,840.9H754.9V825.8H514.7v15.1Z" class="g0_143"/>
<path fill-rule="evenodd" d="M514.7,856H754.9V840.9H514.7V856Z" class="g0_143"/>
<path fill-rule="evenodd" d="M514.7,871H754.9V856H514.7v15Z" class="g0_143"/>
<path fill-rule="evenodd" d="M514.7,886H754.9V871H514.7v15Z" class="g0_143"/>
<path fill-rule="evenodd" d="M514.7,901.1H754.9V886H514.7v15.1Z" class="g0_143"/>
<path d="M187.9,96.1v30.1M189,83.3V335.5" class="g1_143"/>
<path d="M504.3,148.9V917" class="g2_143"/>
</svg>