<?xml version="1.0" encoding="UTF-8" standalone="no"?>
<!DOCTYPE svg PUBLIC "-//W3C//DTD SVG 1.1//EN"
"http://www.w3.org/Graphics/SVG/1.1/DTD/svg11.dtd">
<svg viewBox="0 0 909 1285" version="1.1" xmlns="http://www.w3.org/2000/svg" xmlns:xlink="http://www.w3.org/1999/xlink">
<defs>
<style type="text/css"><![CDATA[
.g0_166{
fill: #FFFFFF;
}
.g1_166{
fill: none;
stroke: #000000;
stroke-width: 0.381;
stroke-linecap: butt;
stroke-linejoin: round;
}
]]></style>
</defs>
<path fill-rule="evenodd" d="M594.3,125.8h94.6V110H594.3v15.8Z" class="g0_166"/>
<path fill-rule="evenodd" d="M188.7,161.7H427.4v-15H188.7v15Z" class="g0_166"/>
<path fill-rule="evenodd" d="M188.7,176.9H427.4V161.7H188.7v15.2Z" class="g0_166"/>
<path fill-rule="evenodd" d="M188.7,192H427.4V176.9H188.7V192Z" class="g0_166"/>
<path fill-rule="evenodd" d="M189,207H401V192H189v15Z" class="g0_166"/>
<path fill-rule="evenodd" d="M189,222H401V207H189v15Z" class="g0_166"/>
<path fill-rule="evenodd" d="M206.3,237.1H427.4V222H206.3v15.1Z" class="g0_166"/>
<path fill-rule="evenodd" d="M187.9,252.1H427.4v-15H187.9v15Z" class="g0_166"/>
<path fill-rule="evenodd" d="M187.9,267.1H427.4v-15H187.9v15Z" class="g0_166"/>
<path fill-rule="evenodd" d="M187.9,282.2H427.4V267.1H187.9v15.1Z" class="g0_166"/>
<path fill-rule="evenodd" d="M187.9,297.2H427.4v-15H187.9v15Z" class="g0_166"/>
<path fill-rule="evenodd" d="M187.9,312.2H426.7v-15H187.9v15Z" class="g0_166"/>
<path fill-rule="evenodd" d="M187.9,327.3H426.7V312.2H187.9v15.1Z" class="g0_166"/>
<path fill-rule="evenodd" d="M187.9,342.5H427V327.3H187.9v15.2Z" class="g0_166"/>
<path fill-rule="evenodd" d="M187.9,357.6H427V342.5H187.9v15.1Z" class="g0_166"/>
<path fill-rule="evenodd" d="M187.9,372.6H427v-15H187.9v15Z" class="g0_166"/>
<path fill-rule="evenodd" d="M186.8,387.6H426.7v-15H186.8v15Z" class="g0_166"/>
<path fill-rule="evenodd" d="M186.8,402.7H426.7V387.6H186.8v15.1Z" class="g0_166"/>
<path fill-rule="evenodd" d="M186.8,417.7H426.7v-15H186.8v15Z" class="g0_166"/>
<path fill-rule="evenodd" d="M186.8,432.7H426.7v-15H186.8v15Z" class="g0_166"/>
<path fill-rule="evenodd" d="M186.8,447.8H426.7V432.7H186.8v15.1Z" class="g0_166"/>
<path fill-rule="evenodd" d="M186.8,462.8H426.7v-15H186.8v15Z" class="g0_166"/>
<path fill-rule="evenodd" d="M187.2,477.8H426.7v-15H187.2v15Z" class="g0_166"/>
<path fill-rule="evenodd" d="M187.2,492.9H426.7V477.8H187.2v15.1Z" class="g0_166"/>
<path fill-rule="evenodd" d="M187.2,507.9H426.7v-15H187.2v15Z" class="g0_166"/>
<path fill-rule="evenodd" d="M187.2,523.1H426.3V507.9H187.2v15.2Z" class="g0_166"/>
<path fill-rule="evenodd" d="M187.2,538.2H426.3V523.1H187.2v15.1Z" class="g0_166"/>
<path fill-rule="evenodd" d="M187.2,553.2H426.3v-15H187.2v15Z" class="g0_166"/>
<path fill-rule="evenodd" d="M187.2,568.2H426.3v-15H187.2v15Z" class="g0_166"/>
<path fill-rule="evenodd" d="M186.8,583.3H426.3V568.2H186.8v15.1Z" class="g0_166"/>
<path fill-rule="evenodd" d="M186.8,598.3H426.3v-15H186.8v15Z" class="g0_166"/>
<path fill-rule="evenodd" d="M186.8,613.4H426.3V598.3H186.8v15.1Z" class="g0_166"/>
<path fill-rule="evenodd" d="M186.8,628.4H426.3v-15H186.8v15Z" class="g0_166"/>
<path fill-rule="evenodd" d="M186.8,643.4H426.3v-15H186.8v15Z" class="g0_166"/>
<path fill-rule="evenodd" d="M186.8,658.5H426.3V643.4H186.8v15.1Z" class="g0_166"/>
<path fill-rule="evenodd" d="M186.8,673.5H425.9v-15H186.8v15Z" class="g0_166"/>
<path fill-rule="evenodd" d="M186.8,688.5H425.9v-15H186.8v15Z" class="g0_166"/>
<path fill-rule="evenodd" d="M186.8,703.7H425.9V688.5H186.8v15.2Z" class="g0_166"/>
<path fill-rule="evenodd" d="M186.8,718.8H426.3V703.7H186.8v15.1Z" class="g0_166"/>
<path fill-rule="evenodd" d="M186.8,733.8H426.3v-15H186.8v15Z" class="g0_166"/>
<path fill-rule="evenodd" d="M186.8,748.8H426.3v-15H186.8v15Z" class="g0_166"/>
<path fill-rule="evenodd" d="M186.8,763.9H426.3V748.8H186.8v15.1Z" class="g0_166"/>
<path fill-rule="evenodd" d="M186.8,778.9H425.9v-15H186.8v15Z" class="g0_166"/>
<path fill-rule="evenodd" d="M186.8,793.9H425.9v-15H186.8v15Z" class="g0_166"/>
<path fill-rule="evenodd" d="M186.8,809H425.9V793.9H186.8V809Z" class="g0_166"/>
<path fill-rule="evenodd" d="M186.8,824H425.9V809H186.8v15Z" class="g0_166"/>
<path fill-rule="evenodd" d="M186.8,839.1H425.9V824H186.8v15.1Z" class="g0_166"/>
<path fill-rule="evenodd" d="M204.8,854.1H427.4v-15H204.8v15Z" class="g0_166"/>
<path fill-rule="evenodd" d="M204.8,869.7H427.4V854.1H204.8v15.6Z" class="g0_166"/>
<path fill-rule="evenodd" d="M189,884.7H427v-15H189v15Z" class="g0_166"/>
<path fill-rule="evenodd" d="M448.3,161.7H688.6v-15H448.3v15Z" class="g0_166"/>
<path fill-rule="evenodd" d="M448.3,176.9H688.6V161.7H448.3v15.2Z" class="g0_166"/>
<path fill-rule="evenodd" d="M448.7,192H688.6V176.9H448.7V192Z" class="g0_166"/>
<path fill-rule="evenodd" d="M448.7,207H688.6V192H448.7v15Z" class="g0_166"/>
<path fill-rule="evenodd" d="M448.7,222H688.9V207H448.7v15Z" class="g0_166"/>
<path fill-rule="evenodd" d="M448.7,237.1H688.9V222H448.7v15.1Z" class="g0_166"/>
<path fill-rule="evenodd" d="M448,252.1H688.9v-15H448v15Z" class="g0_166"/>
<path fill-rule="evenodd" d="M448,267.1H688.9v-15H448v15Z" class="g0_166"/>
<path fill-rule="evenodd" d="M448,282.2H688.2V267.1H448v15.1Z" class="g0_166"/>
<path fill-rule="evenodd" d="M448,297.2H688.2v-15H448v15Z" class="g0_166"/>
<path fill-rule="evenodd" d="M448,312.2H688.2v-15H448v15Z" class="g0_166"/>
<path fill-rule="evenodd" d="M448,327.3H688.2V312.2H448v15.1Z" class="g0_166"/>
<path fill-rule="evenodd" d="M448,342.5H688.2V327.3H448v15.2Z" class="g0_166"/>
<path fill-rule="evenodd" d="M447.2,357.6H688.6V342.5H447.2v15.1Z" class="g0_166"/>
<path fill-rule="evenodd" d="M447.2,372.6H688.6v-15H447.2v15Z" class="g0_166"/>
<path fill-rule="evenodd" d="M447.2,387.6H688.6v-15H447.2v15Z" class="g0_166"/>
<path fill-rule="evenodd" d="M447.2,402.7H688.6V387.6H447.2v15.1Z" class="g0_166"/>
<path fill-rule="evenodd" d="M446.9,417.7H687.8v-15H446.9v15Z" class="g0_166"/>
<path fill-rule="evenodd" d="M446.9,432.7H687.8v-15H446.9v15Z" class="g0_166"/>
<path fill-rule="evenodd" d="M446.9,447.8H687.8V432.7H446.9v15.1Z" class="g0_166"/>
<path fill-rule="evenodd" d="M446.9,462.8H687.8v-15H446.9v15Z" class="g0_166"/>
<path fill-rule="evenodd" d="M446.9,477.8H687.8v-15H446.9v15Z" class="g0_166"/>
<path fill-rule="evenodd" d="M446.9,492.9H687.8V477.8H446.9v15.1Z" class="g0_166"/>
<path fill-rule="evenodd" d="M446.9,507.9H687.8v-15H446.9v15Z" class="g0_166"/>
<path fill-rule="evenodd" d="M446.9,523.1H687.8V507.9H446.9v15.2Z" class="g0_166"/>
<path fill-rule="evenodd" d="M446.9,538.2H687.8V523.1H446.9v15.1Z" class="g0_166"/>
<path fill-rule="evenodd" d="M447.2,553.2H687.5v-15H447.2v15Z" class="g0_166"/>
<path fill-rule="evenodd" d="M447.2,568.2H687.5v-15H447.2v15Z" class="g0_166"/>
<path fill-rule="evenodd" d="M447.2,583.3H687.5V568.2H447.2v15.1Z" class="g0_166"/>
<path fill-rule="evenodd" d="M446.5,598.3h241v-15h-241v15Z" class="g0_166"/>
<path fill-rule="evenodd" d="M446.5,613.4h241V598.3h-241v15.1Z" class="g0_166"/>
<path fill-rule="evenodd" d="M446.5,628.4h241v-15h-241v15Z" class="g0_166"/>
<path fill-rule="evenodd" d="M446.9,643.4H687.1v-15H446.9v15Z" class="g0_166"/>
<path fill-rule="evenodd" d="M446.9,658.5H687.1V643.4H446.9v15.1Z" class="g0_166"/>
<path fill-rule="evenodd" d="M464.9,673.5h224v-15h-224v15Z" class="g0_166"/>
<path fill-rule="evenodd" d="M464.9,688.5h224v-15h-224v15Z" class="g0_166"/>
<path fill-rule="evenodd" d="M446.9,704.1h242V688.9h-242v15.2Z" class="g0_166"/>
<path fill-rule="evenodd" d="M446.9,719.1H686.7v-15H446.9v15Z" class="g0_166"/>
<path fill-rule="evenodd" d="M446.9,734.2H686.7V719.1H446.9v15.1Z" class="g0_166"/>
<path fill-rule="evenodd" d="M446.9,749.2H686.7v-15H446.9v15Z" class="g0_166"/>
<path fill-rule="evenodd" d="M446.9,764.2H686.7v-15H446.9v15Z" class="g0_166"/>
<path fill-rule="evenodd" d="M446.9,779.3H686.7V764.2H446.9v15.1Z" class="g0_166"/>
<path fill-rule="evenodd" d="M464.9,794.3h224v-15h-224v15Z" class="g0_166"/>
<path fill-rule="evenodd" d="M446.1,809.3H686.7v-15H446.1v15Z" class="g0_166"/>
<path fill-rule="evenodd" d="M446.1,824.4H686.7V809.3H446.1v15.1Z" class="g0_166"/>
<path fill-rule="evenodd" d="M446.1,839.5H686.7V824.4H446.1v15.1Z" class="g0_166"/>
<path fill-rule="evenodd" d="M446.1,854.5H686.7v-15H446.1v15Z" class="g0_166"/>
<path fill-rule="evenodd" d="M446.5,869.7H686.7V854.5H446.5v15.2Z" class="g0_166"/>
<path fill-rule="evenodd" d="M446.5,884.7H686.7v-15H446.5v15Z" class="g0_166"/>
<path d="M174.3,116.3v13.2m261.1,16.9V914.9" class="g1_166"/>
</svg>