<?xml version="1.0" encoding="UTF-8" standalone="no"?>
<!DOCTYPE svg PUBLIC "-//W3C//DTD SVG 1.1//EN"
"http://www.w3.org/Graphics/SVG/1.1/DTD/svg11.dtd">
<svg viewBox="0 0 909 1285" version="1.1" xmlns="http://www.w3.org/2000/svg" xmlns:xlink="http://www.w3.org/1999/xlink">
<defs>
<style type="text/css"><![CDATA[
.g0_126{
fill: #FFFFFF;
}
.g1_126{
fill: none;
stroke: #000000;
stroke-width: 0.381;
stroke-linecap: butt;
stroke-linejoin: round;
}
]]></style>
</defs>
<path fill-rule="evenodd" d="M452.9,131.1H683.6V110H452.9v21.1Z" class="g0_126"/>
<path fill-rule="evenodd" d="M184.5,166.7H423.9V151.6H184.5v15.1Z" class="g0_126"/>
<path fill-rule="evenodd" d="M184.5,181.7H423.9v-15H184.5v15Z" class="g0_126"/>
<path fill-rule="evenodd" d="M184.5,196.9H423.9V181.7H184.5v15.2Z" class="g0_126"/>
<path fill-rule="evenodd" d="M184.5,212H423.9V196.9H184.5V212Z" class="g0_126"/>
<path fill-rule="evenodd" d="M184.5,227H423.9V212H184.5v15Z" class="g0_126"/>
<path fill-rule="evenodd" d="M184.5,242H423.9V227H184.5v15Z" class="g0_126"/>
<path fill-rule="evenodd" d="M184.5,257.1H423.9V242H184.5v15.1Z" class="g0_126"/>
<path fill-rule="evenodd" d="M184.5,272.1H423.6v-15H184.5v15Z" class="g0_126"/>
<path fill-rule="evenodd" d="M184.5,287.1H423.6v-15H184.5v15Z" class="g0_126"/>
<path fill-rule="evenodd" d="M184.5,302.2H423.6V287.1H184.5v15.1Z" class="g0_126"/>
<path fill-rule="evenodd" d="M184.5,317.2H423.6v-15H184.5v15Z" class="g0_126"/>
<path fill-rule="evenodd" d="M184.5,332.2H423.6v-15H184.5v15Z" class="g0_126"/>
<path fill-rule="evenodd" d="M184.5,347.3H423.6V332.2H184.5v15.1Z" class="g0_126"/>
<path fill-rule="evenodd" d="M184.5,362.5H423.6V347.3H184.5v15.2Z" class="g0_126"/>
<path fill-rule="evenodd" d="M184.5,377.6H423.6V362.5H184.5v15.1Z" class="g0_126"/>
<path fill-rule="evenodd" d="M184.5,392.6H423.6v-15H184.5v15Z" class="g0_126"/>
<path fill-rule="evenodd" d="M184.5,407.6H423.2v-15H184.5v15Z" class="g0_126"/>
<path fill-rule="evenodd" d="M184.5,422.7H423.2V407.6H184.5v15.1Z" class="g0_126"/>
<path fill-rule="evenodd" d="M184.5,437.7H423.2v-15H184.5v15Z" class="g0_126"/>
<path fill-rule="evenodd" d="M184.5,452.7H423.2v-15H184.5v15Z" class="g0_126"/>
<path fill-rule="evenodd" d="M184.1,468.1H423.9v-15H184.1v15Z" class="g0_126"/>
<path fill-rule="evenodd" d="M184.1,483.2H423.9V468.1H184.1v15.1Z" class="g0_126"/>
<path fill-rule="evenodd" d="M183.7,498.2H422.8v-15H183.7v15Z" class="g0_126"/>
<path fill-rule="evenodd" d="M183.7,513.2H422.8v-15H183.7v15Z" class="g0_126"/>
<path fill-rule="evenodd" d="M183.7,528.4H422.8V513.2H183.7v15.2Z" class="g0_126"/>
<path fill-rule="evenodd" d="M183,543.5H423.9V528.4H183v15.1Z" class="g0_126"/>
<path fill-rule="evenodd" d="M183,558.5H423.9v-15H183v15Z" class="g0_126"/>
<path fill-rule="evenodd" d="M183,573.5H423.9v-15H183v15Z" class="g0_126"/>
<path fill-rule="evenodd" d="M183,588.6H423.9V573.5H183v15.1Z" class="g0_126"/>
<path fill-rule="evenodd" d="M183,603.6H423.9v-15H183v15Z" class="g0_126"/>
<path fill-rule="evenodd" d="M183,618.7H422.5V603.6H183v15.1Z" class="g0_126"/>
<path fill-rule="evenodd" d="M183,633.7H422.5v-15H183v15Z" class="g0_126"/>
<path fill-rule="evenodd" d="M183,648.7H422.5v-15H183v15Z" class="g0_126"/>
<path fill-rule="evenodd" d="M183,663.8H422.5V648.7H183v15.1Z" class="g0_126"/>
<path fill-rule="evenodd" d="M183,678.8H422.5v-15H183v15Z" class="g0_126"/>
<path fill-rule="evenodd" d="M183,693.8H422.5v-15H183v15Z" class="g0_126"/>
<path fill-rule="evenodd" d="M183,709.1H422.5V693.8H183v15.3Z" class="g0_126"/>
<path fill-rule="evenodd" d="M182.6,724.1H423.9v-15H182.6v15Z" class="g0_126"/>
<path fill-rule="evenodd" d="M182.6,739.1H423.9v-15H182.6v15Z" class="g0_126"/>
<path fill-rule="evenodd" d="M182.6,754.2H423.9V739.1H182.6v15.1Z" class="g0_126"/>
<path fill-rule="evenodd" d="M182.6,769.2H423.9v-15H182.6v15Z" class="g0_126"/>
<path fill-rule="evenodd" d="M182.6,784.2H423.9v-15H182.6v15Z" class="g0_126"/>
<path fill-rule="evenodd" d="M182.6,799.3H423.9V784.2H182.6v15.1Z" class="g0_126"/>
<path fill-rule="evenodd" d="M181.9,814.3H421.7v-15H181.9v15Z" class="g0_126"/>
<path fill-rule="evenodd" d="M181.9,829.3H421.7v-15H181.9v15Z" class="g0_126"/>
<path fill-rule="evenodd" d="M181.9,844.4H421.7V829.3H181.9v15.1Z" class="g0_126"/>
<path fill-rule="evenodd" d="M181.9,859.4H421.7v-15H181.9v15Z" class="g0_126"/>
<path fill-rule="evenodd" d="M181.9,875H396.1V859.8H181.9V875Z" class="g0_126"/>
<path fill-rule="evenodd" d="M181.9,890.1H396.1V875H181.9v15.1Z" class="g0_126"/>
<path fill-rule="evenodd" d="M184.5,905.1H423.9v-15H184.5v15Z" class="g0_126"/>
<path fill-rule="evenodd" d="M444.5,167H683.6V152H444.5v15Z" class="g0_126"/>
<path fill-rule="evenodd" d="M444.5,182.3H683.6V167H444.5v15.3Z" class="g0_126"/>
<path fill-rule="evenodd" d="M444.5,197.3H683.6v-15H444.5v15Z" class="g0_126"/>
<path fill-rule="evenodd" d="M444.5,212.3H683.6v-15H444.5v15Z" class="g0_126"/>
<path fill-rule="evenodd" d="M444.1,227.4H683.3V212.3H444.1v15.1Z" class="g0_126"/>
<path fill-rule="evenodd" d="M444.1,242.4H683.3v-15H444.1v15Z" class="g0_126"/>
<path fill-rule="evenodd" d="M462.8,257.4H683.6v-15H462.8v15Z" class="g0_126"/>
<path fill-rule="evenodd" d="M444.1,272.5H683.6V257.4H444.1v15.1Z" class="g0_126"/>
<path fill-rule="evenodd" d="M444.1,287.5H683.6v-15H444.1v15Z" class="g0_126"/>
<path fill-rule="evenodd" d="M443.7,302.5H682.9v-15H443.7v15Z" class="g0_126"/>
<path fill-rule="evenodd" d="M443.7,317.6H682.9V302.5H443.7v15.1Z" class="g0_126"/>
<path fill-rule="evenodd" d="M443.7,332.6H682.9v-15H443.7v15Z" class="g0_126"/>
<path fill-rule="evenodd" d="M443.7,347.8H682.9V332.6H443.7v15.2Z" class="g0_126"/>
<path fill-rule="evenodd" d="M443.7,362.9H682.9V347.8H443.7v15.1Z" class="g0_126"/>
<path fill-rule="evenodd" d="M443.7,378.3H682.5v-15H443.7v15Z" class="g0_126"/>
<path fill-rule="evenodd" d="M443.7,393.3H682.5v-15H443.7v15Z" class="g0_126"/>
<path fill-rule="evenodd" d="M444.1,408.4H682.9V393.3H444.1v15.1Z" class="g0_126"/>
<path fill-rule="evenodd" d="M444.1,423.4H682.9v-15H444.1v15Z" class="g0_126"/>
<path fill-rule="evenodd" d="M443.7,438.4H682.2v-15H443.7v15Z" class="g0_126"/>
<path fill-rule="evenodd" d="M443.7,453.5H682.2V438.4H443.7v15.1Z" class="g0_126"/>
<path fill-rule="evenodd" d="M443.7,468.5H682.2v-15H443.7v15Z" class="g0_126"/>
<path fill-rule="evenodd" d="M443.7,483.5H682.2v-15H443.7v15Z" class="g0_126"/>
<path fill-rule="evenodd" d="M443.7,498.6H682.2V483.5H443.7v15.1Z" class="g0_126"/>
<path fill-rule="evenodd" d="M442.6,513.8H682.5V498.6H442.6v15.2Z" class="g0_126"/>
<path fill-rule="evenodd" d="M442.6,528.8H682.5v-15H442.6v15Z" class="g0_126"/>
<path fill-rule="evenodd" d="M442.6,543.8H682.5v-15H442.6v15Z" class="g0_126"/>
<path fill-rule="evenodd" d="M442.6,558.9H682.5V543.8H442.6v15.1Z" class="g0_126"/>
<path fill-rule="evenodd" d="M443.4,573.9H683.6v-15H443.4v15Z" class="g0_126"/>
<path fill-rule="evenodd" d="M443.4,588.9H683.6v-15H443.4v15Z" class="g0_126"/>
<path fill-rule="evenodd" d="M442.6,604H681.8V588.9H442.6V604Z" class="g0_126"/>
<path fill-rule="evenodd" d="M442.6,619H681.8V604H442.6v15Z" class="g0_126"/>
<path fill-rule="evenodd" d="M442.6,634.1H681.8V619H442.6v15.1Z" class="g0_126"/>
<path fill-rule="evenodd" d="M442.6,649.1H681.8v-15H442.6v15Z" class="g0_126"/>
<path fill-rule="evenodd" d="M442.6,664.1H681.8v-15H442.6v15Z" class="g0_126"/>
<path fill-rule="evenodd" d="M442.6,679.2H681.8V664.1H442.6v15.1Z" class="g0_126"/>
<path fill-rule="evenodd" d="M442.6,694.4H681.8V679.2H442.6v15.2Z" class="g0_126"/>
<path fill-rule="evenodd" d="M442.6,709.4H681.8v-15H442.6v15Z" class="g0_126"/>
<path fill-rule="evenodd" d="M441.9,724.5H683.6V709.4H441.9v15.1Z" class="g0_126"/>
<path fill-rule="evenodd" d="M441.9,739.5H683.6v-15H441.9v15Z" class="g0_126"/>
<path fill-rule="evenodd" d="M441.9,754.5H683.6v-15H441.9v15Z" class="g0_126"/>
<path fill-rule="evenodd" d="M441.9,769.6H683.6V754.5H441.9v15.1Z" class="g0_126"/>
<path fill-rule="evenodd" d="M441.9,784.6H683.6v-15H441.9v15Z" class="g0_126"/>
<path fill-rule="evenodd" d="M441.9,799.6H683.6v-15H441.9v15Z" class="g0_126"/>
<path fill-rule="evenodd" d="M441.9,814.7H681.8V799.6H441.9v15.1Z" class="g0_126"/>
<path fill-rule="evenodd" d="M441.9,829.7H681.8v-15H441.9v15Z" class="g0_126"/>
<path fill-rule="evenodd" d="M441.9,844.8H681.8V829.7H441.9v15.1Z" class="g0_126"/>
<path fill-rule="evenodd" d="M441.9,859.8H681.8v-15H441.9v15Z" class="g0_126"/>
<path fill-rule="evenodd" d="M441.9,875H681.8V859.8H441.9V875Z" class="g0_126"/>
<path fill-rule="evenodd" d="M441.9,890.1H681.8V875H441.9v15.1Z" class="g0_126"/>
<path fill-rule="evenodd" d="M441.9,905.1H681.8v-15H441.9v15Z" class="g0_126"/>
<path fill-rule="evenodd" d="M182.3,936.4h59.4V920.5H182.3v15.9Z" class="g0_126"/>
<path fill-rule="evenodd" d="M182.3,953.9h59.4V936.4H182.3v17.5Z" class="g0_126"/>
<path fill-rule="evenodd" d="M421.4,937.7h59.4V918.3H421.4v19.4Z" class="g0_126"/>
<path d="M431.1,151.3v769" class="g1_126"/>
</svg>