<?xml version="1.0" encoding="UTF-8" standalone="no"?>
<!DOCTYPE svg PUBLIC "-//W3C//DTD SVG 1.1//EN"
"http://www.w3.org/Graphics/SVG/1.1/DTD/svg11.dtd">
<svg viewBox="0 0 909 1285" version="1.1" xmlns="http://www.w3.org/2000/svg" xmlns:xlink="http://www.w3.org/1999/xlink">
<defs>
<style type="text/css"><![CDATA[
.g0_116{
fill: #FFFFFF;
}
.g1_116{
fill: none;
stroke: #000000;
stroke-width: 0.381;
stroke-linecap: butt;
stroke-linejoin: round;
}
]]></style>
</defs>
<path fill-rule="evenodd" d="M528.7,125.8H673.9V110H528.7v15.8Z" class="g0_116"/>
<path fill-rule="evenodd" d="M174.7,161.7H413.8V147.1H174.7v14.6Z" class="g0_116"/>
<path fill-rule="evenodd" d="M174.7,176.4H413.8V161.7H174.7v14.7Z" class="g0_116"/>
<path fill-rule="evenodd" d="M174.7,191.1H413.8V176.4H174.7v14.7Z" class="g0_116"/>
<path fill-rule="evenodd" d="M174.7,205.7H413.8V191.1H174.7v14.6Z" class="g0_116"/>
<path fill-rule="evenodd" d="M174.7,220.4H413.8V205.7H174.7v14.7Z" class="g0_116"/>
<path fill-rule="evenodd" d="M174.7,235.1H413.1V220.4H174.7v14.7Z" class="g0_116"/>
<path fill-rule="evenodd" d="M174.7,249.7H413.1V235.1H174.7v14.6Z" class="g0_116"/>
<path fill-rule="evenodd" d="M175.1,264.4h238V249.7h-238v14.7Z" class="g0_116"/>
<path fill-rule="evenodd" d="M175.1,279.1h238V264.4h-238v14.7Z" class="g0_116"/>
<path fill-rule="evenodd" d="M193.4,293.7H413.8V279.1H193.4v14.6Z" class="g0_116"/>
<path fill-rule="evenodd" d="M174.7,308.4H413.5V293.7H174.7v14.7Z" class="g0_116"/>
<path fill-rule="evenodd" d="M174.7,323.1H413.5V308.4H174.7v14.7Z" class="g0_116"/>
<path fill-rule="evenodd" d="M174.7,337.7H413.5V323.1H174.7v14.6Z" class="g0_116"/>
<path fill-rule="evenodd" d="M174.7,352.4H413.5V337.7H174.7v14.7Z" class="g0_116"/>
<path fill-rule="evenodd" d="M174.7,367.1H413.5V352.4H174.7v14.7Z" class="g0_116"/>
<path fill-rule="evenodd" d="M174.7,381.8H413.5V367.1H174.7v14.7Z" class="g0_116"/>
<path fill-rule="evenodd" d="M174.7,396.4H413.5V381.8H174.7v14.6Z" class="g0_116"/>
<path fill-rule="evenodd" d="M175.1,411.1h238V396.4h-238v14.7Z" class="g0_116"/>
<path fill-rule="evenodd" d="M175.1,425.8h238V411.1h-238v14.7Z" class="g0_116"/>
<path fill-rule="evenodd" d="M175.1,440.4H413.5V425.8H175.1v14.6Z" class="g0_116"/>
<path fill-rule="evenodd" d="M175.1,455.1H413.5V440.4H175.1v14.7Z" class="g0_116"/>
<path fill-rule="evenodd" d="M174.4,470.1H413.1V455.5H174.4v14.6Z" class="g0_116"/>
<path fill-rule="evenodd" d="M174.4,484.8H413.1V470.1H174.4v14.7Z" class="g0_116"/>
<path fill-rule="evenodd" d="M193.1,499.5H413.8V484.8H193.1v14.7Z" class="g0_116"/>
<path fill-rule="evenodd" d="M192.7,514.5H413.8V499.8H192.7v14.7Z" class="g0_116"/>
<path fill-rule="evenodd" d="M174.4,529.2H412.7V514.5H174.4v14.7Z" class="g0_116"/>
<path fill-rule="evenodd" d="M174.4,543.8H412.7V529.2H174.4v14.6Z" class="g0_116"/>
<path fill-rule="evenodd" d="M174.4,558.5H412.7V543.8H174.4v14.7Z" class="g0_116"/>
<path fill-rule="evenodd" d="M174.4,573.2H412.7V558.5H174.4v14.7Z" class="g0_116"/>
<path fill-rule="evenodd" d="M192.7,587.8H413.8V573.2H192.7v14.6Z" class="g0_116"/>
<path fill-rule="evenodd" d="M174.4,602.5H412V587.8H174.4v14.7Z" class="g0_116"/>
<path fill-rule="evenodd" d="M174.4,617.2H412V602.5H174.4v14.7Z" class="g0_116"/>
<path fill-rule="evenodd" d="M174.4,631.9H412.7V617.2H174.4v14.7Z" class="g0_116"/>
<path fill-rule="evenodd" d="M174.4,646.5H412.7V631.9H174.4v14.6Z" class="g0_116"/>
<path fill-rule="evenodd" d="M174.4,661.6H413.1V646.9H174.4v14.7Z" class="g0_116"/>
<path fill-rule="evenodd" d="M174.4,676.2H413.1V661.6H174.4v14.6Z" class="g0_116"/>
<path fill-rule="evenodd" d="M174.4,690.9H413.1V676.2H174.4v14.7Z" class="g0_116"/>
<path fill-rule="evenodd" d="M174.4,705.6H413.1V690.9H174.4v14.7Z" class="g0_116"/>
<path fill-rule="evenodd" d="M174.4,720.2H413.1V705.6H174.4v14.6Z" class="g0_116"/>
<path fill-rule="evenodd" d="M192.3,735.3H413.8V720.6H192.3v14.7Z" class="g0_116"/>
<path fill-rule="evenodd" d="M173.6,749.9H412.4V735.3H173.6v14.6Z" class="g0_116"/>
<path fill-rule="evenodd" d="M173.6,764.6H412.4V749.9H173.6v14.7Z" class="g0_116"/>
<path fill-rule="evenodd" d="M173.6,779.3H412.4V764.6H173.6v14.7Z" class="g0_116"/>
<path fill-rule="evenodd" d="M173.6,793.9H412.4V779.3H173.6v14.6Z" class="g0_116"/>
<path fill-rule="evenodd" d="M173.6,808.6H412.4V793.9H173.6v14.7Z" class="g0_116"/>
<path fill-rule="evenodd" d="M173.6,823.3H412.7V808.6H173.6v14.7Z" class="g0_116"/>
<path fill-rule="evenodd" d="M173.6,838H412.7V823.3H173.6V838Z" class="g0_116"/>
<path fill-rule="evenodd" d="M173.6,852.7H412.7V838H173.6v14.7Z" class="g0_116"/>
<path fill-rule="evenodd" d="M173.6,867.3H412.7V852.7H173.6v14.6Z" class="g0_116"/>
<path fill-rule="evenodd" d="M173.6,882H412.7V867.3H173.6V882Z" class="g0_116"/>
<path fill-rule="evenodd" d="M174.7,896.7H413.8V882H174.7v14.7Z" class="g0_116"/>
<path fill-rule="evenodd" d="M433.5,161.7H673.7V147.1H433.5v14.6Z" class="g0_116"/>
<path fill-rule="evenodd" d="M433.5,176.4H673.7V161.7H433.5v14.7Z" class="g0_116"/>
<path fill-rule="evenodd" d="M433.5,191.1H673.7V176.4H433.5v14.7Z" class="g0_116"/>
<path fill-rule="evenodd" d="M433.5,205.7H673.7V191.1H433.5v14.6Z" class="g0_116"/>
<path fill-rule="evenodd" d="M433.5,220.4H673.7V205.7H433.5v14.7Z" class="g0_116"/>
<path fill-rule="evenodd" d="M433.5,235.1H673.7V220.4H433.5v14.7Z" class="g0_116"/>
<path fill-rule="evenodd" d="M433.8,249.7H647.1V235.1H433.8v14.6Z" class="g0_116"/>
<path fill-rule="evenodd" d="M433.8,264.4H647.1V249.7H433.8v14.7Z" class="g0_116"/>
<path fill-rule="evenodd" d="M451.8,285.5H673.7V264.4H451.8v21.1Z" class="g0_116"/>
<path fill-rule="evenodd" d="M433.5,302.3H673V287.7H433.5v14.6Z" class="g0_116"/>
<path fill-rule="evenodd" d="M433.5,317H673V302.3H433.5V317Z" class="g0_116"/>
<path fill-rule="evenodd" d="M433.5,331.7H673V317H433.5v14.7Z" class="g0_116"/>
<path fill-rule="evenodd" d="M433.5,346.3H673V331.7H433.5v14.6Z" class="g0_116"/>
<path fill-rule="evenodd" d="M433.8,361.1H673.7V346.4H433.8v14.7Z" class="g0_116"/>
<path fill-rule="evenodd" d="M433.8,375.7H673.7V361.1H433.8v14.6Z" class="g0_116"/>
<path fill-rule="evenodd" d="M433.5,390.4H673.4V375.7H433.5v14.7Z" class="g0_116"/>
<path fill-rule="evenodd" d="M433.5,405.1H673.4V390.4H433.5v14.7Z" class="g0_116"/>
<path fill-rule="evenodd" d="M433.5,419.7H673.4V405.1H433.5v14.6Z" class="g0_116"/>
<path fill-rule="evenodd" d="M433.5,434.4H672.6V419.7H433.5v14.7Z" class="g0_116"/>
<path fill-rule="evenodd" d="M433.5,449.1H672.6V434.4H433.5v14.7Z" class="g0_116"/>
<path fill-rule="evenodd" d="M432.4,463.7H673V449.1H432.4v14.6Z" class="g0_116"/>
<path fill-rule="evenodd" d="M432.4,478.4H673V463.7H432.4v14.7Z" class="g0_116"/>
<path fill-rule="evenodd" d="M432.4,493.1H673V478.4H432.4v14.7Z" class="g0_116"/>
<path fill-rule="evenodd" d="M432.4,507.7H673V493.1H432.4v14.6Z" class="g0_116"/>
<path fill-rule="evenodd" d="M432.4,522.4H673V507.7H432.4v14.7Z" class="g0_116"/>
<path fill-rule="evenodd" d="M432.4,537.1H673V522.4H432.4v14.7Z" class="g0_116"/>
<path fill-rule="evenodd" d="M432.4,551.7H673V537.1H432.4v14.6Z" class="g0_116"/>
<path fill-rule="evenodd" d="M432.4,566.4H673V551.7H432.4v14.7Z" class="g0_116"/>
<path fill-rule="evenodd" d="M432.4,581.1H673V566.4H432.4v14.7Z" class="g0_116"/>
<path fill-rule="evenodd" d="M432.4,595.8H673V581.1H432.4v14.7Z" class="g0_116"/>
<path fill-rule="evenodd" d="M432.4,610.4H673V595.8H432.4v14.6Z" class="g0_116"/>
<path fill-rule="evenodd" d="M432.4,625.1H673V610.4H432.4v14.7Z" class="g0_116"/>
<path fill-rule="evenodd" d="M432.4,639.8H673V625.1H432.4v14.7Z" class="g0_116"/>
<path fill-rule="evenodd" d="M432.4,654.4H673V639.8H432.4v14.6Z" class="g0_116"/>
<path fill-rule="evenodd" d="M432.4,669.1H673V654.4H432.4v14.7Z" class="g0_116"/>
<path fill-rule="evenodd" d="M432.4,683.8H673V669.1H432.4v14.7Z" class="g0_116"/>
<path fill-rule="evenodd" d="M432.4,698.4H673V683.8H432.4v14.6Z" class="g0_116"/>
<path fill-rule="evenodd" d="M432.4,713.1H673V698.4H432.4v14.7Z" class="g0_116"/>
<path fill-rule="evenodd" d="M432.4,727.8H673V713.1H432.4v14.7Z" class="g0_116"/>
<path fill-rule="evenodd" d="M432.4,742.4H673V727.8H432.4v14.6Z" class="g0_116"/>
<path fill-rule="evenodd" d="M432.4,757.1H673V742.4H432.4v14.7Z" class="g0_116"/>
<path fill-rule="evenodd" d="M433.1,771.8H620.9V757.1H433.1v14.7Z" class="g0_116"/>
<path fill-rule="evenodd" d="M433.1,786.4H620.9V771.8H433.1v14.6Z" class="g0_116"/>
<path fill-rule="evenodd" d="M432.4,801.6H672.6V786.8H432.4v14.8Z" class="g0_116"/>
<path fill-rule="evenodd" d="M432.4,816.3H672.6V801.6H432.4v14.7Z" class="g0_116"/>
<path fill-rule="evenodd" d="M432.4,831H672.6V816.3H432.4V831Z" class="g0_116"/>
<path fill-rule="evenodd" d="M432.4,845.7H672.6V831H432.4v14.7Z" class="g0_116"/>
<path fill-rule="evenodd" d="M432.4,860.4H672.6V845.7H432.4v14.7Z" class="g0_116"/>
<path fill-rule="evenodd" d="M432.7,875.4H672.3V860.7H432.7v14.7Z" class="g0_116"/>
<path fill-rule="evenodd" d="M432.7,890.1H672.3V875.4H432.7v14.7Z" class="g0_116"/>
<path fill-rule="evenodd" d="M410.6,922.1H673.9V904.7H410.6v17.4Z" class="g0_116"/>
<path d="M421.8,146.3V914.8" class="g1_116"/>
</svg>