<?xml version="1.0" encoding="UTF-8" standalone="no"?>
<!DOCTYPE svg PUBLIC "-//W3C//DTD SVG 1.1//EN"
"http://www.w3.org/Graphics/SVG/1.1/DTD/svg11.dtd">
<svg viewBox="0 0 909 1285" version="1.1" xmlns="http://www.w3.org/2000/svg" xmlns:xlink="http://www.w3.org/1999/xlink">
<defs>
<style type="text/css"><![CDATA[
.g0_322{
fill: #FFFFFF;
}
.g1_322{
fill: none;
stroke: #000000;
stroke-width: 0.381;
stroke-linecap: butt;
stroke-linejoin: round;
}
]]></style>
</defs>
<path fill-rule="evenodd" d="M616.5,127.6h62.7V110H616.5v17.6Z" class="g0_322"/>
<path fill-rule="evenodd" d="M179.3,164.7H418.4V149.6H179.3v15.1Z" class="g0_322"/>
<path fill-rule="evenodd" d="M179.3,179.7H418.4v-15H179.3v15Z" class="g0_322"/>
<path fill-rule="evenodd" d="M179,194.7H418.1v-15H179v15Z" class="g0_322"/>
<path fill-rule="evenodd" d="M179,209.8H418.1V194.7H179v15.1Z" class="g0_322"/>
<path fill-rule="evenodd" d="M179,224.8H418.1v-15H179v15Z" class="g0_322"/>
<path fill-rule="evenodd" d="M179,239.8H418.1v-15H179v15Z" class="g0_322"/>
<path fill-rule="evenodd" d="M179.3,254.9H418.1V239.8H179.3v15.1Z" class="g0_322"/>
<path fill-rule="evenodd" d="M179.3,269.9H418.1v-15H179.3v15Z" class="g0_322"/>
<path fill-rule="evenodd" d="M179.3,285.1H418.1V269.9H179.3v15.2Z" class="g0_322"/>
<path fill-rule="evenodd" d="M179.3,300.1H418.1v-15H179.3v15Z" class="g0_322"/>
<path fill-rule="evenodd" d="M179.3,315.2H418.1V300.1H179.3v15.1Z" class="g0_322"/>
<path fill-rule="evenodd" d="M178.6,330.2H417.7v-15H178.6v15Z" class="g0_322"/>
<path fill-rule="evenodd" d="M178.6,345.2H417.7v-15H178.6v15Z" class="g0_322"/>
<path fill-rule="evenodd" d="M178.6,360.3H417v-15H178.6v15Z" class="g0_322"/>
<path fill-rule="evenodd" d="M178.6,375.4H417V360.3H178.6v15.1Z" class="g0_322"/>
<path fill-rule="evenodd" d="M178.2,390.4H416.6v-15H178.2v15Z" class="g0_322"/>
<path fill-rule="evenodd" d="M178.2,405.4H416.6v-15H178.2v15Z" class="g0_322"/>
<path fill-rule="evenodd" d="M177.5,420.5H417.3V405.4H177.5v15.1Z" class="g0_322"/>
<path fill-rule="evenodd" d="M177.5,435.5H417.3v-15H177.5v15Z" class="g0_322"/>
<path fill-rule="evenodd" d="M177.5,450.7H417.3V435.5H177.5v15.2Z" class="g0_322"/>
<path fill-rule="evenodd" d="M177.5,465.7H417.3v-15H177.5v15Z" class="g0_322"/>
<path fill-rule="evenodd" d="M177.5,480.8H417.3V465.7H177.5v15.1Z" class="g0_322"/>
<path fill-rule="evenodd" d="M178.2,495.8H418.4v-15H178.2v15Z" class="g0_322"/>
<path fill-rule="evenodd" d="M178.2,510.8H418.4v-15H178.2v15Z" class="g0_322"/>
<path fill-rule="evenodd" d="M177.5,525.9H418.4V510.8H177.5v15.1Z" class="g0_322"/>
<path fill-rule="evenodd" d="M177.5,540.9H418.4v-15H177.5v15Z" class="g0_322"/>
<path fill-rule="evenodd" d="M177.5,555.9H418.4v-15H177.5v15Z" class="g0_322"/>
<path fill-rule="evenodd" d="M177.5,571H418.4V555.9H177.5V571Z" class="g0_322"/>
<path fill-rule="evenodd" d="M177.5,586H418.4V571H177.5v15Z" class="g0_322"/>
<path fill-rule="evenodd" d="M177.5,601.1H418.4V586H177.5v15.1Z" class="g0_322"/>
<path fill-rule="evenodd" d="M176.8,616.1H416.6v-15H176.8v15Z" class="g0_322"/>
<path fill-rule="evenodd" d="M176.8,631.3H416.6V616.1H176.8v15.2Z" class="g0_322"/>
<path fill-rule="evenodd" d="M176.8,646.4H416.6V631.3H176.8v15.1Z" class="g0_322"/>
<path fill-rule="evenodd" d="M176.8,661.4H416.6v-15H176.8v15Z" class="g0_322"/>
<path fill-rule="evenodd" d="M176.8,676.4H416.6v-15H176.8v15Z" class="g0_322"/>
<path fill-rule="evenodd" d="M176.8,691.5H416.6V676.4H176.8v15.1Z" class="g0_322"/>
<path fill-rule="evenodd" d="M195.5,706.5H418.4v-15H195.5v15Z" class="g0_322"/>
<path fill-rule="evenodd" d="M178.6,721.5H418.1v-15H178.6v15Z" class="g0_322"/>
<path fill-rule="evenodd" d="M438.8,163.2H678.7v-15H438.8v15Z" class="g0_322"/>
<path fill-rule="evenodd" d="M438.8,178.2H678.7v-15H438.8v15Z" class="g0_322"/>
<path fill-rule="evenodd" d="M438.4,193.3H679V178.2H438.4v15.1Z" class="g0_322"/>
<path fill-rule="evenodd" d="M438.4,208.3H679v-15H438.4v15Z" class="g0_322"/>
<path fill-rule="evenodd" d="M438.4,223.3H679v-15H438.4v15Z" class="g0_322"/>
<path fill-rule="evenodd" d="M438.4,238.4H679V223.3H438.4v15.1Z" class="g0_322"/>
<path fill-rule="evenodd" d="M438.4,253.4H679v-15H438.4v15Z" class="g0_322"/>
<path fill-rule="evenodd" d="M438.4,268.6H678.7V253.4H438.4v15.2Z" class="g0_322"/>
<path fill-rule="evenodd" d="M438.4,283.6H678.7v-15H438.4v15Z" class="g0_322"/>
<path fill-rule="evenodd" d="M456.8,298.7H679V283.6H456.8v15.1Z" class="g0_322"/>
<path fill-rule="evenodd" d="M438.4,313.7H678.3v-15H438.4v15Z" class="g0_322"/>
<path fill-rule="evenodd" d="M438.4,328.7H678.3v-15H438.4v15Z" class="g0_322"/>
<path fill-rule="evenodd" d="M437.7,343.8h241V328.7h-241v15.1Z" class="g0_322"/>
<path fill-rule="evenodd" d="M437.7,358.9h241V343.8h-241v15.1Z" class="g0_322"/>
<path fill-rule="evenodd" d="M437.7,373.9h241v-15h-241v15Z" class="g0_322"/>
<path fill-rule="evenodd" d="M437.7,388.9h241v-15h-241v15Z" class="g0_322"/>
<path fill-rule="evenodd" d="M437.7,404h241V388.9h-241V404Z" class="g0_322"/>
<path fill-rule="evenodd" d="M437.7,419h241V404h-241v15Z" class="g0_322"/>
<path fill-rule="evenodd" d="M437.7,434.2H677.9V419H437.7v15.2Z" class="g0_322"/>
<path fill-rule="evenodd" d="M437.7,449.2H677.9v-15H437.7v15Z" class="g0_322"/>
<path fill-rule="evenodd" d="M437.7,464.3H677.9V449.2H437.7v15.1Z" class="g0_322"/>
<path fill-rule="evenodd" d="M437.7,479.3H677.9v-15H437.7v15Z" class="g0_322"/>
<path fill-rule="evenodd" d="M456.4,494.3H679v-15H456.4v15Z" class="g0_322"/>
<path fill-rule="evenodd" d="M437,509.4H677.9V494.3H437v15.1Z" class="g0_322"/>
<path fill-rule="evenodd" d="M437,524.4H677.9v-15H437v15Z" class="g0_322"/>
<path fill-rule="evenodd" d="M437,539.4H677.9v-15H437v15Z" class="g0_322"/>
<path fill-rule="evenodd" d="M437,554.5H677.9V539.4H437v15.1Z" class="g0_322"/>
<path fill-rule="evenodd" d="M437.3,569.5H652.6v-15H437.3v15Z" class="g0_322"/>
<path fill-rule="evenodd" d="M437.3,584.5H652.6v-15H437.3v15Z" class="g0_322"/>
<path fill-rule="evenodd" d="M437,599.6H677.6V584.5H437v15.1Z" class="g0_322"/>
<path fill-rule="evenodd" d="M437,614.8H677.6V599.6H437v15.2Z" class="g0_322"/>
<path fill-rule="evenodd" d="M437,629.9H677.6V614.8H437v15.1Z" class="g0_322"/>
<path fill-rule="evenodd" d="M437,644.9H677.2v-15H437v15Z" class="g0_322"/>
<path fill-rule="evenodd" d="M437,659.9H677.2v-15H437v15Z" class="g0_322"/>
<path fill-rule="evenodd" d="M437,675H677.2V659.9H437V675Z" class="g0_322"/>
<path fill-rule="evenodd" d="M437,690H677.6V675H437v15Z" class="g0_322"/>
<path fill-rule="evenodd" d="M437,705H677.6V690H437v15Z" class="g0_322"/>
<path fill-rule="evenodd" d="M437,720.1H677.6V705H437v15.1Z" class="g0_322"/>
<path fill-rule="evenodd" d="M407.4,784.6H679.2V760.8H407.4v23.8Z" class="g0_322"/>
<path fill-rule="evenodd" d="M176.8,820.2H415.9V803.7H176.8v16.5Z" class="g0_322"/>
<path fill-rule="evenodd" d="M176.8,836.7H415.9V820.2H176.8v16.5Z" class="g0_322"/>
<path fill-rule="evenodd" d="M176.8,853.2H415.9V836.7H176.8v16.5Z" class="g0_322"/>
<path fill-rule="evenodd" d="M176.8,869.7H415.9V853.2H176.8v16.5Z" class="g0_322"/>
<path fill-rule="evenodd" d="M176.8,885.8H415.9V869.7H176.8v16.1Z" class="g0_322"/>
<path fill-rule="evenodd" d="M436.8,821.3h241V805.1h-241v16.2Z" class="g0_322"/>
<path fill-rule="evenodd" d="M436.8,837.4h241V821.3h-241v16.1Z" class="g0_322"/>
<path fill-rule="evenodd" d="M436.8,853.6h241V837.4h-241v16.2Z" class="g0_322"/>
<path fill-rule="evenodd" d="M436.8,869.7h241V853.6h-241v16.1Z" class="g0_322"/>
<path fill-rule="evenodd" d="M436.8,885.8h241V869.7h-241v16.1Z" class="g0_322"/>
<path fill-rule="evenodd" d="M413.3,924H679.2V906.4H413.3V924Z" class="g0_322"/>
<path d="M426,148.1V736.2m0,67v93.9" class="g1_322"/>
</svg>