<?xml version="1.0" encoding="UTF-8" standalone="no"?>
<!DOCTYPE svg PUBLIC "-//W3C//DTD SVG 1.1//EN"
"http://www.w3.org/Graphics/SVG/1.1/DTD/svg11.dtd">
<svg viewBox="0 0 909 1285" version="1.1" xmlns="http://www.w3.org/2000/svg" xmlns:xlink="http://www.w3.org/1999/xlink">
<defs>
<style type="text/css"><![CDATA[
.g0_53{
fill: #FFFFFF;
}
.g1_53{
fill: none;
stroke: #000000;
stroke-width: 2.597;
stroke-linecap: butt;
stroke-linejoin: round;
}
.g2_53{
fill: none;
stroke: #000000;
stroke-width: 0.381;
stroke-linecap: butt;
stroke-linejoin: round;
}
]]></style>
</defs>
<path fill-rule="evenodd" d="M278.6,125.8H771.8V110H278.6v15.8Z" class="g0_53"/>
<path fill-rule="evenodd" d="M276.7,155.5H509.2V144.9H276.7v10.6Z" class="g0_53"/>
<path fill-rule="evenodd" d="M276.7,166.1H509.2V155.5H276.7v10.6Z" class="g0_53"/>
<path fill-rule="evenodd" d="M276,183.4H453.5V168.7H276v14.7Z" class="g0_53"/>
<path fill-rule="evenodd" d="M276,198H453.5V183.4H276V198Z" class="g0_53"/>
<path fill-rule="evenodd" d="M273.4,212.7H509.2V198H273.4v14.7Z" class="g0_53"/>
<path fill-rule="evenodd" d="M273.4,227.4H509.2V212.7H273.4v14.7Z" class="g0_53"/>
<path fill-rule="evenodd" d="M273.4,242H509.2V227.4H273.4V242Z" class="g0_53"/>
<path fill-rule="evenodd" d="M273.4,256.7H509.2V242H273.4v14.7Z" class="g0_53"/>
<path fill-rule="evenodd" d="M273.4,271.4H509.2V256.7H273.4v14.7Z" class="g0_53"/>
<path fill-rule="evenodd" d="M272.7,286H509.2V271.4H272.7V286Z" class="g0_53"/>
<path fill-rule="evenodd" d="M272.7,300.7H509.2V286H272.7v14.7Z" class="g0_53"/>
<path fill-rule="evenodd" d="M264.6,315.7H509.2v-15H264.6v15Z" class="g0_53"/>
<path fill-rule="evenodd" d="M264.6,330.9H509.2V315.7H264.6v15.2Z" class="g0_53"/>
<path fill-rule="evenodd" d="M264.6,346H509.2V330.9H264.6V346Z" class="g0_53"/>
<path fill-rule="evenodd" d="M264.6,361.1H509.2V346H264.6v15.1Z" class="g0_53"/>
<path fill-rule="evenodd" d="M264.6,376.1H509.2v-15H264.6v15Z" class="g0_53"/>
<path fill-rule="evenodd" d="M264.6,391.1H509.2v-15H264.6v15Z" class="g0_53"/>
<path fill-rule="evenodd" d="M264.6,406.2H509.2V391.1H264.6v15.1Z" class="g0_53"/>
<path fill-rule="evenodd" d="M264.6,421.2H509.2v-15H264.6v15Z" class="g0_53"/>
<path fill-rule="evenodd" d="M264.6,436.2H509.2v-15H264.6v15Z" class="g0_53"/>
<path fill-rule="evenodd" d="M264.6,451.3H509.2V436.2H264.6v15.1Z" class="g0_53"/>
<path fill-rule="evenodd" d="M264.6,466.3H509.2v-15H264.6v15Z" class="g0_53"/>
<path fill-rule="evenodd" d="M264.6,481.3H509.2v-15H264.6v15Z" class="g0_53"/>
<path fill-rule="evenodd" d="M264.6,496.5H509.2V481.3H264.6v15.2Z" class="g0_53"/>
<path fill-rule="evenodd" d="M264.6,511.6H509.2V496.5H264.6v15.1Z" class="g0_53"/>
<path fill-rule="evenodd" d="M264.6,526.6H509.2v-15H264.6v15Z" class="g0_53"/>
<path fill-rule="evenodd" d="M262,539.8H509.2V526.6H262v13.2Z" class="g0_53"/>
<path fill-rule="evenodd" d="M262,553H509.2V539.8H262V553Z" class="g0_53"/>
<path fill-rule="evenodd" d="M259.1,568.4H501.2V553.7H259.1v14.7Z" class="g0_53"/>
<path fill-rule="evenodd" d="M259.1,583.1H501.2V568.4H259.1v14.7Z" class="g0_53"/>
<path fill-rule="evenodd" d="M259.1,597.8H501.2V583.1H259.1v14.7Z" class="g0_53"/>
<path fill-rule="evenodd" d="M259.1,612.4H501.2V597.8H259.1v14.6Z" class="g0_53"/>
<path fill-rule="evenodd" d="M259.1,627.1H501.2V612.4H259.1v14.7Z" class="g0_53"/>
<path fill-rule="evenodd" d="M259.1,641.8H501.2V627.1H259.1v14.7Z" class="g0_53"/>
<path fill-rule="evenodd" d="M259.1,656.4H501.2V641.8H259.1v14.6Z" class="g0_53"/>
<path fill-rule="evenodd" d="M259.1,671.1H501.2V656.4H259.1v14.7Z" class="g0_53"/>
<path fill-rule="evenodd" d="M259.1,685.8H501.2V671.1H259.1v14.7Z" class="g0_53"/>
<path fill-rule="evenodd" d="M256.9,700.4H509.2V686.5H256.9v13.9Z" class="g0_53"/>
<path fill-rule="evenodd" d="M256.9,714.4H509.2v-14H256.9v14Z" class="g0_53"/>
<path fill-rule="evenodd" d="M256.9,728.3H509.2V714.4H256.9v13.9Z" class="g0_53"/>
<path fill-rule="evenodd" d="M255.4,745.2H496.8V730.1H255.4v15.1Z" class="g0_53"/>
<path fill-rule="evenodd" d="M255.4,760.2H496.8v-15H255.4v15Z" class="g0_53"/>
<path fill-rule="evenodd" d="M255.4,775.2H496.8v-15H255.4v15Z" class="g0_53"/>
<path fill-rule="evenodd" d="M254.3,787H495.7V775.2H254.3V787Z" class="g0_53"/>
<path fill-rule="evenodd" d="M254.3,798.7H495.7V787H254.3v11.7Z" class="g0_53"/>
<path fill-rule="evenodd" d="M252.8,815.6H495.3V800.9H252.8v14.7Z" class="g0_53"/>
<path fill-rule="evenodd" d="M252.8,830.2H495.3V815.6H252.8v14.6Z" class="g0_53"/>
<path fill-rule="evenodd" d="M264.9,845.3H509.2V830.2H264.9v15.1Z" class="g0_53"/>
<path fill-rule="evenodd" d="M527.4,167.2H771.6v-15H527.4v15Z" class="g0_53"/>
<path fill-rule="evenodd" d="M527.4,182.4H771.6V167.2H527.4v15.2Z" class="g0_53"/>
<path fill-rule="evenodd" d="M527.4,197.5H771.6V182.4H527.4v15.1Z" class="g0_53"/>
<path fill-rule="evenodd" d="M527.4,212.5H771.6v-15H527.4v15Z" class="g0_53"/>
<path fill-rule="evenodd" d="M527.4,227.5H771.6v-15H527.4v15Z" class="g0_53"/>
<path fill-rule="evenodd" d="M527.4,242.6H771.6V227.5H527.4v15.1Z" class="g0_53"/>
<path fill-rule="evenodd" d="M527.4,257.6H771.6v-15H527.4v15Z" class="g0_53"/>
<path fill-rule="evenodd" d="M527.4,272.6H771.6v-15H527.4v15Z" class="g0_53"/>
<path fill-rule="evenodd" d="M527.4,287.7H771.6V272.6H527.4v15.1Z" class="g0_53"/>
<path fill-rule="evenodd" d="M527.4,302.7H771.6v-15H527.4v15Z" class="g0_53"/>
<path fill-rule="evenodd" d="M527.4,317.7H771.6v-15H527.4v15Z" class="g0_53"/>
<path fill-rule="evenodd" d="M527.4,332.8H771.6V317.7H527.4v15.1Z" class="g0_53"/>
<path fill-rule="evenodd" d="M527,346.5H771.6V333.1H527v13.4Z" class="g0_53"/>
<path fill-rule="evenodd" d="M527,359.8H771.6V346.5H527v13.3Z" class="g0_53"/>
<path fill-rule="evenodd" d="M525.2,376.3H771.6V361.2H525.2v15.1Z" class="g0_53"/>
<path fill-rule="evenodd" d="M525.2,391.3H771.6v-15H525.2v15Z" class="g0_53"/>
<path fill-rule="evenodd" d="M525.2,406.3H771.6v-15H525.2v15Z" class="g0_53"/>
<path fill-rule="evenodd" d="M525.2,421.4H771.6V406.3H525.2v15.1Z" class="g0_53"/>
<path fill-rule="evenodd" d="M523.7,436.4H771.6v-15H523.7v15Z" class="g0_53"/>
<path fill-rule="evenodd" d="M523.7,451.4H771.6v-15H523.7v15Z" class="g0_53"/>
<path fill-rule="evenodd" d="M523.7,466.5H771.6V451.4H523.7v15.1Z" class="g0_53"/>
<path fill-rule="evenodd" d="M523.7,481.5H771.6v-15H523.7v15Z" class="g0_53"/>
<path fill-rule="evenodd" d="M523.7,496.5H771.6v-15H523.7v15Z" class="g0_53"/>
<path fill-rule="evenodd" d="M523,511.6H762.1V496.5H523v15.1Z" class="g0_53"/>
<path fill-rule="evenodd" d="M523,526.8H762.1V511.6H523v15.2Z" class="g0_53"/>
<path fill-rule="evenodd" d="M519.3,541.8H762.1v-15H519.3v15Z" class="g0_53"/>
<path fill-rule="evenodd" d="M519.3,556.9H762.1V541.8H519.3v15.1Z" class="g0_53"/>
<path fill-rule="evenodd" d="M519.3,571.9H762.1v-15H519.3v15Z" class="g0_53"/>
<path fill-rule="evenodd" d="M519.3,586.9H762.1v-15H519.3v15Z" class="g0_53"/>
<path fill-rule="evenodd" d="M519.3,602H762.1V586.9H519.3V602Z" class="g0_53"/>
<path fill-rule="evenodd" d="M519.3,617H762.1V602H519.3v15Z" class="g0_53"/>
<path fill-rule="evenodd" d="M519.3,632.1H762.1V617H519.3v15.1Z" class="g0_53"/>
<path fill-rule="evenodd" d="M519.3,647.1H762.1v-15H519.3v15Z" class="g0_53"/>
<path fill-rule="evenodd" d="M519.3,662.1H762.1v-15H519.3v15Z" class="g0_53"/>
<path fill-rule="evenodd" d="M519.3,677.2H762.1V662.1H519.3v15.1Z" class="g0_53"/>
<path fill-rule="evenodd" d="M519.3,692.2H762.1v-15H519.3v15Z" class="g0_53"/>
<path fill-rule="evenodd" d="M517.8,707.4H758.4V692.2H517.8v15.2Z" class="g0_53"/>
<path fill-rule="evenodd" d="M517.8,722.4H758.4v-15H517.8v15Z" class="g0_53"/>
<path fill-rule="evenodd" d="M517.8,737.5H758.4V722.4H517.8v15.1Z" class="g0_53"/>
<path fill-rule="evenodd" d="M517.8,752.5H758.4v-15H517.8v15Z" class="g0_53"/>
<path fill-rule="evenodd" d="M517.5,768.6H692.4v-15H517.5v15Z" class="g0_53"/>
<path fill-rule="evenodd" d="M517.5,783.7H692.4V768.6H517.5v15.1Z" class="g0_53"/>
<path fill-rule="evenodd" d="M516,798.7H756.2v-15H516v15Z" class="g0_53"/>
<path fill-rule="evenodd" d="M516,813.7H756.2v-15H516v15Z" class="g0_53"/>
<path fill-rule="evenodd" d="M516,828.8H756.2V813.7H516v15.1Z" class="g0_53"/>
<path fill-rule="evenodd" d="M516,843.9H756.2V828.8H516v15.1Z" class="g0_53"/>
<path fill-rule="evenodd" d="M515.3,860H692.4V845H515.3v15Z" class="g0_53"/>
<path fill-rule="evenodd" d="M515.3,875H692.4V860H515.3v15Z" class="g0_53"/>
<path fill-rule="evenodd" d="M495.3,902.9H771.8V885.3H495.3v17.6Z" class="g0_53"/>
<path d="M181.7,152.2V444.8" class="g1_53"/>
<path d="M186.8,274V974.3m2.9,-414.7V601m9.9,-460.8V388.4m3,-92.1V687.6m2.9,-529.9v472M506.9,275.8V831.3" class="g2_53"/>
</svg>