<?xml version="1.0" encoding="UTF-8" standalone="no"?>
<!DOCTYPE svg PUBLIC "-//W3C//DTD SVG 1.1//EN"
"http://www.w3.org/Graphics/SVG/1.1/DTD/svg11.dtd">
<svg viewBox="0 0 909 1285" version="1.1" xmlns="http://www.w3.org/2000/svg" xmlns:xlink="http://www.w3.org/1999/xlink">
<defs>
<style type="text/css"><![CDATA[
.g0_260{
fill: #FFFFFF;
}
.g1_260{
fill: none;
stroke: #000000;
stroke-width: 0.763;
stroke-linecap: butt;
stroke-linejoin: round;
}
]]></style>
</defs>
<path fill-rule="evenodd" d="M643.8,125.8h59.4V110H643.8v15.8Z" class="g0_260"/>
<path fill-rule="evenodd" d="M200,161.7H438v-15H200v15Z" class="g0_260"/>
<path fill-rule="evenodd" d="M200,176.9H438V161.7H200v15.2Z" class="g0_260"/>
<path fill-rule="evenodd" d="M218,192H438.8V176.9H218V192Z" class="g0_260"/>
<path fill-rule="evenodd" d="M200,207H438V192H200v15Z" class="g0_260"/>
<path fill-rule="evenodd" d="M200,222H438V207H200v15Z" class="g0_260"/>
<path fill-rule="evenodd" d="M217.6,237.1H438.8V222H217.6v15.1Z" class="g0_260"/>
<path fill-rule="evenodd" d="M199.3,252.1H438v-15H199.3v15Z" class="g0_260"/>
<path fill-rule="evenodd" d="M199.3,267.1H438v-15H199.3v15Z" class="g0_260"/>
<path fill-rule="evenodd" d="M218,282.2H438.8V267.1H218v15.1Z" class="g0_260"/>
<path fill-rule="evenodd" d="M199.7,297.2H438.8v-15H199.7v15Z" class="g0_260"/>
<path fill-rule="evenodd" d="M199.7,312.2H438.8v-15H199.7v15Z" class="g0_260"/>
<path fill-rule="evenodd" d="M199.7,327.3H438.8V312.2H199.7v15.1Z" class="g0_260"/>
<path fill-rule="evenodd" d="M199.7,342.5H438.8V327.3H199.7v15.2Z" class="g0_260"/>
<path fill-rule="evenodd" d="M199.7,357.6H438.8V342.5H199.7v15.1Z" class="g0_260"/>
<path fill-rule="evenodd" d="M199.7,372.6H438.8v-15H199.7v15Z" class="g0_260"/>
<path fill-rule="evenodd" d="M199.7,387.6H438.8v-15H199.7v15Z" class="g0_260"/>
<path fill-rule="evenodd" d="M199.7,402.7H438.8V387.6H199.7v15.1Z" class="g0_260"/>
<path fill-rule="evenodd" d="M199.7,417.7H438.8v-15H199.7v15Z" class="g0_260"/>
<path fill-rule="evenodd" d="M199.7,432.7H438.8v-15H199.7v15Z" class="g0_260"/>
<path fill-rule="evenodd" d="M199.3,447.8H438.8V432.7H199.3v15.1Z" class="g0_260"/>
<path fill-rule="evenodd" d="M199.3,462.8H438.8v-15H199.3v15Z" class="g0_260"/>
<path fill-rule="evenodd" d="M199.3,477.8H438.8v-15H199.3v15Z" class="g0_260"/>
<path fill-rule="evenodd" d="M198.9,492.9H438.4V477.8H198.9v15.1Z" class="g0_260"/>
<path fill-rule="evenodd" d="M198.9,507.9H438.4v-15H198.9v15Z" class="g0_260"/>
<path fill-rule="evenodd" d="M198.9,523.1H438V507.9H198.9v15.2Z" class="g0_260"/>
<path fill-rule="evenodd" d="M198.9,538.2H438V523.1H198.9v15.1Z" class="g0_260"/>
<path fill-rule="evenodd" d="M198.9,553.2H438v-15H198.9v15Z" class="g0_260"/>
<path fill-rule="evenodd" d="M198.9,568.2H438v-15H198.9v15Z" class="g0_260"/>
<path fill-rule="evenodd" d="M198.9,583.3H438V568.2H198.9v15.1Z" class="g0_260"/>
<path fill-rule="evenodd" d="M199.3,598.3H438v-15H199.3v15Z" class="g0_260"/>
<path fill-rule="evenodd" d="M199.3,613.4H438V598.3H199.3v15.1Z" class="g0_260"/>
<path fill-rule="evenodd" d="M199.3,628.4H438v-15H199.3v15Z" class="g0_260"/>
<path fill-rule="evenodd" d="M198.9,643.4H437.3v-15H198.9v15Z" class="g0_260"/>
<path fill-rule="evenodd" d="M198.9,658.5H437.3V643.4H198.9v15.1Z" class="g0_260"/>
<path fill-rule="evenodd" d="M198.9,673.5H437.3v-15H198.9v15Z" class="g0_260"/>
<path fill-rule="evenodd" d="M198.9,688.5H437.3v-15H198.9v15Z" class="g0_260"/>
<path fill-rule="evenodd" d="M198.6,703.7H437.7V688.5H198.6v15.2Z" class="g0_260"/>
<path fill-rule="evenodd" d="M198.6,718.8H437.7V703.7H198.6v15.1Z" class="g0_260"/>
<path fill-rule="evenodd" d="M198.6,733.8H437.7v-15H198.6v15Z" class="g0_260"/>
<path fill-rule="evenodd" d="M198.6,748.8H437.7v-15H198.6v15Z" class="g0_260"/>
<path fill-rule="evenodd" d="M198.6,763.9H437.7V748.8H198.6v15.1Z" class="g0_260"/>
<path fill-rule="evenodd" d="M198.6,778.9H437.7v-15H198.6v15Z" class="g0_260"/>
<path fill-rule="evenodd" d="M198.6,793.9H437.7v-15H198.6v15Z" class="g0_260"/>
<path fill-rule="evenodd" d="M198.9,809H438.4V793.9H198.9V809Z" class="g0_260"/>
<path fill-rule="evenodd" d="M198.9,824H438.4V809H198.9v15Z" class="g0_260"/>
<path fill-rule="evenodd" d="M198.9,839.1H438.4V824H198.9v15.1Z" class="g0_260"/>
<path fill-rule="evenodd" d="M198.9,854.1H438.4v-15H198.9v15Z" class="g0_260"/>
<path fill-rule="evenodd" d="M216.9,869.2H438.8V854.1H216.9v15.1Z" class="g0_260"/>
<path fill-rule="evenodd" d="M216.9,884.4H438.8V869.2H216.9v15.2Z" class="g0_260"/>
<path fill-rule="evenodd" d="M200,899.4H438.8v-15H200v15Z" class="g0_260"/>
<path fill-rule="evenodd" d="M459,161.7H698.1v-15H459v15Z" class="g0_260"/>
<path fill-rule="evenodd" d="M459,176.9H698.1V161.7H459v15.2Z" class="g0_260"/>
<path fill-rule="evenodd" d="M459,192H698.1V176.9H459V192Z" class="g0_260"/>
<path fill-rule="evenodd" d="M458.6,207H697.7V192H458.6v15Z" class="g0_260"/>
<path fill-rule="evenodd" d="M476.2,222H698.1V207H476.2v15Z" class="g0_260"/>
<path fill-rule="evenodd" d="M459,237.1H698.1V222H459v15.1Z" class="g0_260"/>
<path fill-rule="evenodd" d="M459,252.1H698.1v-15H459v15Z" class="g0_260"/>
<path fill-rule="evenodd" d="M458.3,267.1H698.1v-15H458.3v15Z" class="g0_260"/>
<path fill-rule="evenodd" d="M458.3,282.2H698.1V267.1H458.3v15.1Z" class="g0_260"/>
<path fill-rule="evenodd" d="M458.3,297.2H698.1v-15H458.3v15Z" class="g0_260"/>
<path fill-rule="evenodd" d="M458.6,312.2H697.7v-15H458.6v15Z" class="g0_260"/>
<path fill-rule="evenodd" d="M458.6,327.3H697.7V312.2H458.6v15.1Z" class="g0_260"/>
<path fill-rule="evenodd" d="M476.2,342.5H698.1V327.3H476.2v15.2Z" class="g0_260"/>
<path fill-rule="evenodd" d="M458.6,357.9H698.1v-15H458.6v15Z" class="g0_260"/>
<path fill-rule="evenodd" d="M458.6,373H698.1V357.9H458.6V373Z" class="g0_260"/>
<path fill-rule="evenodd" d="M458.6,388H698.1V373H458.6v15Z" class="g0_260"/>
<path fill-rule="evenodd" d="M458.6,403H698.1V388H458.6v15Z" class="g0_260"/>
<path fill-rule="evenodd" d="M458.6,418.1H698.1V403H458.6v15.1Z" class="g0_260"/>
<path fill-rule="evenodd" d="M458.6,433.1H698.1v-15H458.6v15Z" class="g0_260"/>
<path fill-rule="evenodd" d="M457.9,448.1H697.7v-15H457.9v15Z" class="g0_260"/>
<path fill-rule="evenodd" d="M457.9,463.2H697.7V448.1H457.9v15.1Z" class="g0_260"/>
<path fill-rule="evenodd" d="M457.9,478.2H697.7v-15H457.9v15Z" class="g0_260"/>
<path fill-rule="evenodd" d="M457.9,493.2H697.7v-15H457.9v15Z" class="g0_260"/>
<path fill-rule="evenodd" d="M457.9,508.5H697.7V493.2H457.9v15.3Z" class="g0_260"/>
<path fill-rule="evenodd" d="M457.9,523.5H697.7v-15H457.9v15Z" class="g0_260"/>
<path fill-rule="evenodd" d="M457.9,538.5H697.7v-15H457.9v15Z" class="g0_260"/>
<path fill-rule="evenodd" d="M457.9,553.6H697V538.5H457.9v15.1Z" class="g0_260"/>
<path fill-rule="evenodd" d="M457.9,568.6H697v-15H457.9v15Z" class="g0_260"/>
<path fill-rule="evenodd" d="M458.3,583.6H697.4v-15H458.3v15Z" class="g0_260"/>
<path fill-rule="evenodd" d="M458.3,598.7H697.4V583.6H458.3v15.1Z" class="g0_260"/>
<path fill-rule="evenodd" d="M458.3,613.7H697.4v-15H458.3v15Z" class="g0_260"/>
<path fill-rule="evenodd" d="M457.9,628.8H697.4V613.7H457.9v15.1Z" class="g0_260"/>
<path fill-rule="evenodd" d="M457.9,643.8H697.4v-15H457.9v15Z" class="g0_260"/>
<path fill-rule="evenodd" d="M457.5,658.8H697.7v-15H457.5v15Z" class="g0_260"/>
<path fill-rule="evenodd" d="M457.5,673.9H697.7V658.8H457.5v15.1Z" class="g0_260"/>
<path fill-rule="evenodd" d="M457.5,689.1H697.7V673.9H457.5v15.2Z" class="g0_260"/>
<path fill-rule="evenodd" d="M457.5,704.1H697.7v-15H457.5v15Z" class="g0_260"/>
<path fill-rule="evenodd" d="M457.5,719.1H697.7v-15H457.5v15Z" class="g0_260"/>
<path fill-rule="evenodd" d="M457.5,734.2H697.7V719.1H457.5v15.1Z" class="g0_260"/>
<path fill-rule="evenodd" d="M457.9,749.2H697v-15H457.9v15Z" class="g0_260"/>
<path fill-rule="evenodd" d="M457.9,764.2H697v-15H457.9v15Z" class="g0_260"/>
<path fill-rule="evenodd" d="M457.9,779.3H697V764.2H457.9v15.1Z" class="g0_260"/>
<path fill-rule="evenodd" d="M475.5,794.3H698.1v-15H475.5v15Z" class="g0_260"/>
<path fill-rule="evenodd" d="M476.2,809.3H698.1v-15H476.2v15Z" class="g0_260"/>
<path fill-rule="evenodd" d="M457.9,824.4H697.4V809.3H457.9v15.1Z" class="g0_260"/>
<path fill-rule="evenodd" d="M457.9,839.5H697.4V824.4H457.9v15.1Z" class="g0_260"/>
<path fill-rule="evenodd" d="M457.9,854.5H697.4v-15H457.9v15Z" class="g0_260"/>
<path d="M447.2,146V914.1" class="g1_260"/>
</svg>