<?xml version="1.0" encoding="UTF-8" standalone="no"?>
<!DOCTYPE svg PUBLIC "-//W3C//DTD SVG 1.1//EN"
"http://www.w3.org/Graphics/SVG/1.1/DTD/svg11.dtd">
<svg viewBox="0 0 909 1285" version="1.1" xmlns="http://www.w3.org/2000/svg" xmlns:xlink="http://www.w3.org/1999/xlink">
<defs>
<style type="text/css"><![CDATA[
.g0_206{
fill: #FFFFFF;
}
.g1_206{
fill: none;
stroke: #000000;
stroke-width: 0.381;
stroke-linecap: butt;
stroke-linejoin: round;
}
]]></style>
</defs>
<path fill-rule="evenodd" d="M634.5,125.8h59.4V110H634.5v15.8Z" class="g0_206"/>
<path fill-rule="evenodd" d="M190.3,161.7H429.4v-15H190.3v15Z" class="g0_206"/>
<path fill-rule="evenodd" d="M190.3,176.9H429.4V161.7H190.3v15.2Z" class="g0_206"/>
<path fill-rule="evenodd" d="M190.3,192H429.8V176.9H190.3V192Z" class="g0_206"/>
<path fill-rule="evenodd" d="M190.3,207H429.8V192H190.3v15Z" class="g0_206"/>
<path fill-rule="evenodd" d="M190.3,222H429.8V207H190.3v15Z" class="g0_206"/>
<path fill-rule="evenodd" d="M190.3,237.1H429.8V222H190.3v15.1Z" class="g0_206"/>
<path fill-rule="evenodd" d="M190.3,252.1H429.8v-15H190.3v15Z" class="g0_206"/>
<path fill-rule="evenodd" d="M190.3,267.1H429.8v-15H190.3v15Z" class="g0_206"/>
<path fill-rule="evenodd" d="M190.3,282.2H429.8V267.1H190.3v15.1Z" class="g0_206"/>
<path fill-rule="evenodd" d="M190.3,297.2H429.8v-15H190.3v15Z" class="g0_206"/>
<path fill-rule="evenodd" d="M190.3,312.2H429.8v-15H190.3v15Z" class="g0_206"/>
<path fill-rule="evenodd" d="M190,327.3H429.1V312.2H190v15.1Z" class="g0_206"/>
<path fill-rule="evenodd" d="M190,342.5H429.1V327.3H190v15.2Z" class="g0_206"/>
<path fill-rule="evenodd" d="M190,357.6H428.7V342.5H190v15.1Z" class="g0_206"/>
<path fill-rule="evenodd" d="M190,372.6H428.7v-15H190v15Z" class="g0_206"/>
<path fill-rule="evenodd" d="M190,387.6H429.1v-15H190v15Z" class="g0_206"/>
<path fill-rule="evenodd" d="M190,402.7H429.1V387.6H190v15.1Z" class="g0_206"/>
<path fill-rule="evenodd" d="M207.9,417.7H429.8v-15H207.9v15Z" class="g0_206"/>
<path fill-rule="evenodd" d="M189.2,432.7H429.8v-15H189.2v15Z" class="g0_206"/>
<path fill-rule="evenodd" d="M189.2,447.8H429.8V432.7H189.2v15.1Z" class="g0_206"/>
<path fill-rule="evenodd" d="M189.2,462.8H429.8v-15H189.2v15Z" class="g0_206"/>
<path fill-rule="evenodd" d="M189.2,477.8H429.8v-15H189.2v15Z" class="g0_206"/>
<path fill-rule="evenodd" d="M188.9,492.9H428.7V477.8H188.9v15.1Z" class="g0_206"/>
<path fill-rule="evenodd" d="M188.9,507.9H428.7v-15H188.9v15Z" class="g0_206"/>
<path fill-rule="evenodd" d="M188.9,523.1H428.7V507.9H188.9v15.2Z" class="g0_206"/>
<path fill-rule="evenodd" d="M188.9,538.2H428.7V523.1H188.9v15.1Z" class="g0_206"/>
<path fill-rule="evenodd" d="M189.2,553.2H428.7v-15H189.2v15Z" class="g0_206"/>
<path fill-rule="evenodd" d="M189.2,568.2H428.7v-15H189.2v15Z" class="g0_206"/>
<path fill-rule="evenodd" d="M188.9,583.3H428.3V568.2H188.9v15.1Z" class="g0_206"/>
<path fill-rule="evenodd" d="M188.9,598.3H428.3v-15H188.9v15Z" class="g0_206"/>
<path fill-rule="evenodd" d="M188.9,613.4H428.3V598.3H188.9v15.1Z" class="g0_206"/>
<path fill-rule="evenodd" d="M188.9,628.4H428.3v-15H188.9v15Z" class="g0_206"/>
<path fill-rule="evenodd" d="M188.5,643.4H428.3v-15H188.5v15Z" class="g0_206"/>
<path fill-rule="evenodd" d="M188.5,658.5H428.3V643.4H188.5v15.1Z" class="g0_206"/>
<path fill-rule="evenodd" d="M188.5,673.5H428.3v-15H188.5v15Z" class="g0_206"/>
<path fill-rule="evenodd" d="M188.5,688.5H428.3v-15H188.5v15Z" class="g0_206"/>
<path fill-rule="evenodd" d="M188.5,703.7H428.3V688.5H188.5v15.2Z" class="g0_206"/>
<path fill-rule="evenodd" d="M188.1,718.8H428.3V703.7H188.1v15.1Z" class="g0_206"/>
<path fill-rule="evenodd" d="M188.1,733.8H428.3v-15H188.1v15Z" class="g0_206"/>
<path fill-rule="evenodd" d="M188.1,748.8H428.3v-15H188.1v15Z" class="g0_206"/>
<path fill-rule="evenodd" d="M188.1,763.9H428.3V748.8H188.1v15.1Z" class="g0_206"/>
<path fill-rule="evenodd" d="M188.1,778.9H428.3v-15H188.1v15Z" class="g0_206"/>
<path fill-rule="evenodd" d="M188.1,793.9H428.3v-15H188.1v15Z" class="g0_206"/>
<path fill-rule="evenodd" d="M188.1,809H428.3V793.9H188.1V809Z" class="g0_206"/>
<path fill-rule="evenodd" d="M188.1,824H428.3V809H188.1v15Z" class="g0_206"/>
<path fill-rule="evenodd" d="M188.1,839.1H428.3V824H188.1v15.1Z" class="g0_206"/>
<path fill-rule="evenodd" d="M188.1,854.1H427.6v-15H188.1v15Z" class="g0_206"/>
<path fill-rule="evenodd" d="M188.1,869.2H427.6V854.1H188.1v15.1Z" class="g0_206"/>
<path fill-rule="evenodd" d="M188.5,884.4H427.6V869.2H188.5v15.2Z" class="g0_206"/>
<path fill-rule="evenodd" d="M188.5,899.4H427.6v-15H188.5v15Z" class="g0_206"/>
<path fill-rule="evenodd" d="M188.9,914.4H429.8v-15H188.9v15Z" class="g0_206"/>
<path fill-rule="evenodd" d="M449.6,161.7H690.9v-15H449.6v15Z" class="g0_206"/>
<path fill-rule="evenodd" d="M449.6,176.9H690.9V161.7H449.6v15.2Z" class="g0_206"/>
<path fill-rule="evenodd" d="M449.6,192H690.9V176.9H449.6V192Z" class="g0_206"/>
<path fill-rule="evenodd" d="M449.6,207H690.9V192H449.6v15Z" class="g0_206"/>
<path fill-rule="evenodd" d="M449.6,222H690.9V207H449.6v15Z" class="g0_206"/>
<path fill-rule="evenodd" d="M449.6,237.1H690.9V222H449.6v15.1Z" class="g0_206"/>
<path fill-rule="evenodd" d="M449.6,252.1H690.9v-15H449.6v15Z" class="g0_206"/>
<path fill-rule="evenodd" d="M450,267.1H690.9v-15H450v15Z" class="g0_206"/>
<path fill-rule="evenodd" d="M450,282.2H690.9V267.1H450v15.1Z" class="g0_206"/>
<path fill-rule="evenodd" d="M450,297.2H690.9v-15H450v15Z" class="g0_206"/>
<path fill-rule="evenodd" d="M450,312.2H690.9v-15H450v15Z" class="g0_206"/>
<path fill-rule="evenodd" d="M450,327.3H690.9V312.2H450v15.1Z" class="g0_206"/>
<path fill-rule="evenodd" d="M450,342.5H690.2V327.3H450v15.2Z" class="g0_206"/>
<path fill-rule="evenodd" d="M450,357.6H690.2V342.5H450v15.1Z" class="g0_206"/>
<path fill-rule="evenodd" d="M450,372.6H690.2v-15H450v15Z" class="g0_206"/>
<path fill-rule="evenodd" d="M468.3,387.6H690.9v-15H468.3v15Z" class="g0_206"/>
<path fill-rule="evenodd" d="M468.3,402.7H690.9V387.6H468.3v15.1Z" class="g0_206"/>
<path fill-rule="evenodd" d="M450,417.7H689.8v-15H450v15Z" class="g0_206"/>
<path fill-rule="evenodd" d="M450,432.7H689.8v-15H450v15Z" class="g0_206"/>
<path fill-rule="evenodd" d="M449.6,447.8H689.8V432.7H449.6v15.1Z" class="g0_206"/>
<path fill-rule="evenodd" d="M449.6,462.8H689.8v-15H449.6v15Z" class="g0_206"/>
<path fill-rule="evenodd" d="M449.6,477.8H689.8v-15H449.6v15Z" class="g0_206"/>
<path fill-rule="evenodd" d="M449.6,492.9H689.8V477.8H449.6v15.1Z" class="g0_206"/>
<path fill-rule="evenodd" d="M449.6,507.9H689.8v-15H449.6v15Z" class="g0_206"/>
<path fill-rule="evenodd" d="M449.3,523.1H689.8V507.9H449.3v15.2Z" class="g0_206"/>
<path fill-rule="evenodd" d="M449.3,538.2H689.8V523.1H449.3v15.1Z" class="g0_206"/>
<path fill-rule="evenodd" d="M449.3,553.2H689.8v-15H449.3v15Z" class="g0_206"/>
<path fill-rule="evenodd" d="M449.3,568.2H689.8v-15H449.3v15Z" class="g0_206"/>
<path fill-rule="evenodd" d="M449.3,583.3H689.8V568.2H449.3v15.1Z" class="g0_206"/>
<path fill-rule="evenodd" d="M449.3,598.3H689.8v-15H449.3v15Z" class="g0_206"/>
<path fill-rule="evenodd" d="M449.3,613.4H689.8V598.3H449.3v15.1Z" class="g0_206"/>
<path fill-rule="evenodd" d="M449.3,628.4H689.8v-15H449.3v15Z" class="g0_206"/>
<path fill-rule="evenodd" d="M449.3,643.4H689.1v-15H449.3v15Z" class="g0_206"/>
<path fill-rule="evenodd" d="M449.3,658.5H689.1V643.4H449.3v15.1Z" class="g0_206"/>
<path fill-rule="evenodd" d="M448.9,673.5H689.1v-15H448.9v15Z" class="g0_206"/>
<path fill-rule="evenodd" d="M448.9,688.5H689.1v-15H448.9v15Z" class="g0_206"/>
<path fill-rule="evenodd" d="M448.9,703.7H689.1V688.5H448.9v15.2Z" class="g0_206"/>
<path fill-rule="evenodd" d="M448.9,718.8H689.1V703.7H448.9v15.1Z" class="g0_206"/>
<path fill-rule="evenodd" d="M448.9,734.2H688.8V719.1H448.9v15.1Z" class="g0_206"/>
<path fill-rule="evenodd" d="M448.9,749.2H688.8v-15H448.9v15Z" class="g0_206"/>
<path fill-rule="evenodd" d="M448.9,764.2H688.8v-15H448.9v15Z" class="g0_206"/>
<path fill-rule="evenodd" d="M448.9,779.3H688.8V764.2H448.9v15.1Z" class="g0_206"/>
<path fill-rule="evenodd" d="M448.9,794.3H688.8v-15H448.9v15Z" class="g0_206"/>
<path fill-rule="evenodd" d="M448.9,809.3H688.8v-15H448.9v15Z" class="g0_206"/>
<path fill-rule="evenodd" d="M448.9,824.4H688.8V809.3H448.9v15.1Z" class="g0_206"/>
<path fill-rule="evenodd" d="M448.9,839.5H688.8V824.4H448.9v15.1Z" class="g0_206"/>
<path fill-rule="evenodd" d="M448.9,854.5H688.8v-15H448.9v15Z" class="g0_206"/>
<path fill-rule="evenodd" d="M448.9,869.7H688.8V854.5H448.9v15.2Z" class="g0_206"/>
<path fill-rule="evenodd" d="M448.9,884.7H688.8v-15H448.9v15Z" class="g0_206"/>
<path fill-rule="evenodd" d="M466.5,899.8H690.9V884.7H466.5v15.1Z" class="g0_206"/>
<path fill-rule="evenodd" d="M424.7,931.5H693.9V914.1H424.7v17.4Z" class="g0_206"/>
<path d="M437.4,146.4V915.3" class="g1_206"/>
</svg>