<?xml version="1.0" encoding="UTF-8" standalone="no"?>
<!DOCTYPE svg PUBLIC "-//W3C//DTD SVG 1.1//EN"
"http://www.w3.org/Graphics/SVG/1.1/DTD/svg11.dtd">
<svg viewBox="0 0 909 1285" version="1.1" xmlns="http://www.w3.org/2000/svg" xmlns:xlink="http://www.w3.org/1999/xlink">
<defs>
<style type="text/css"><![CDATA[
.g0_311{
fill: #FFFFFF;
}
.g1_311{
fill: none;
stroke: #000000;
stroke-width: 2.597;
stroke-linecap: butt;
stroke-linejoin: round;
}
.g2_311{
fill: none;
stroke: #000000;
stroke-width: 0.381;
stroke-linecap: butt;
stroke-linejoin: round;
}
.g3_311{
fill: none;
stroke: #000000;
stroke-width: 0.763;
stroke-linecap: butt;
stroke-linejoin: round;
}
]]></style>
</defs>
<path fill-rule="evenodd" d="M266.6,131.1H768.3V110H266.6v21.1Z" class="g0_311"/>
<path fill-rule="evenodd" d="M266.2,166.7h241V151.6h-241v15.1Z" class="g0_311"/>
<path fill-rule="evenodd" d="M266.2,181.7h241v-15h-241v15Z" class="g0_311"/>
<path fill-rule="evenodd" d="M266.2,196.9h241V181.7h-241v15.2Z" class="g0_311"/>
<path fill-rule="evenodd" d="M266.2,212h241V196.9h-241V212Z" class="g0_311"/>
<path fill-rule="evenodd" d="M266.2,227h241V212h-241v15Z" class="g0_311"/>
<path fill-rule="evenodd" d="M266.2,242h241V227h-241v15Z" class="g0_311"/>
<path fill-rule="evenodd" d="M285.3,257.1H507.2V242H285.3v15.1Z" class="g0_311"/>
<path fill-rule="evenodd" d="M285.3,272.1H507.2v-15H285.3v15Z" class="g0_311"/>
<path fill-rule="evenodd" d="M267,287.1H506.8v-15H267v15Z" class="g0_311"/>
<path fill-rule="evenodd" d="M267,302.2H506.8V287.1H267v15.1Z" class="g0_311"/>
<path fill-rule="evenodd" d="M266.2,317.2H506.8v-15H266.2v15Z" class="g0_311"/>
<path fill-rule="evenodd" d="M266.2,332.2H506.8v-15H266.2v15Z" class="g0_311"/>
<path fill-rule="evenodd" d="M266.2,347.3H506.8V332.2H266.2v15.1Z" class="g0_311"/>
<path fill-rule="evenodd" d="M266.2,362.5H506.8V347.3H266.2v15.2Z" class="g0_311"/>
<path fill-rule="evenodd" d="M266.2,377.6H506.8V362.5H266.2v15.1Z" class="g0_311"/>
<path fill-rule="evenodd" d="M285,392.6H507.2v-15H285v15Z" class="g0_311"/>
<path fill-rule="evenodd" d="M285,407.6H507.2v-15H285v15Z" class="g0_311"/>
<path fill-rule="evenodd" d="M266.2,422.7H505.7V407.6H266.2v15.1Z" class="g0_311"/>
<path fill-rule="evenodd" d="M266.2,437.7H505.7v-15H266.2v15Z" class="g0_311"/>
<path fill-rule="evenodd" d="M265.9,452.7H505.7v-15H265.9v15Z" class="g0_311"/>
<path fill-rule="evenodd" d="M265.9,467.8H505.7V452.7H265.9v15.1Z" class="g0_311"/>
<path fill-rule="evenodd" d="M265.9,482.8H505.7v-15H265.9v15Z" class="g0_311"/>
<path fill-rule="evenodd" d="M265.9,497.8H505.7v-15H265.9v15Z" class="g0_311"/>
<path fill-rule="evenodd" d="M265.5,512.9H506.1V497.8H265.5v15.1Z" class="g0_311"/>
<path fill-rule="evenodd" d="M265.5,527.9H506.1v-15H265.5v15Z" class="g0_311"/>
<path fill-rule="evenodd" d="M265.5,543.1H506.1V527.9H265.5v15.2Z" class="g0_311"/>
<path fill-rule="evenodd" d="M284.6,558.1H507.2v-15H284.6v15Z" class="g0_311"/>
<path fill-rule="evenodd" d="M265.5,573.2H505.7V558.1H265.5v15.1Z" class="g0_311"/>
<path fill-rule="evenodd" d="M265.5,588.2H505.7v-15H265.5v15Z" class="g0_311"/>
<path fill-rule="evenodd" d="M265.5,603.3H505.7V588.2H265.5v15.1Z" class="g0_311"/>
<path fill-rule="evenodd" d="M265.5,618.3H505.7v-15H265.5v15Z" class="g0_311"/>
<path fill-rule="evenodd" d="M265.5,633.3H505.7v-15H265.5v15Z" class="g0_311"/>
<path fill-rule="evenodd" d="M265.5,648.4H505.7V633.3H265.5v15.1Z" class="g0_311"/>
<path fill-rule="evenodd" d="M265.5,663.4H505.4v-15H265.5v15Z" class="g0_311"/>
<path fill-rule="evenodd" d="M265.5,678.4H505.4v-15H265.5v15Z" class="g0_311"/>
<path fill-rule="evenodd" d="M265.1,693.8H505.4v-15H265.1v15Z" class="g0_311"/>
<path fill-rule="evenodd" d="M265.1,709.1H505.4V693.8H265.1v15.3Z" class="g0_311"/>
<path fill-rule="evenodd" d="M265.5,724.1H505.4v-15H265.5v15Z" class="g0_311"/>
<path fill-rule="evenodd" d="M265.5,739.1H505.4v-15H265.5v15Z" class="g0_311"/>
<path fill-rule="evenodd" d="M265.5,754.2H505.4V739.1H265.5v15.1Z" class="g0_311"/>
<path fill-rule="evenodd" d="M283.9,769.2H507.2v-15H283.9v15Z" class="g0_311"/>
<path fill-rule="evenodd" d="M265.5,784.2H505v-15H265.5v15Z" class="g0_311"/>
<path fill-rule="evenodd" d="M265.5,799.3H505V784.2H265.5v15.1Z" class="g0_311"/>
<path fill-rule="evenodd" d="M283.9,814.3H507.2v-15H283.9v15Z" class="g0_311"/>
<path fill-rule="evenodd" d="M265.5,829.3H505v-15H265.5v15Z" class="g0_311"/>
<path fill-rule="evenodd" d="M265.5,844.4H505V829.3H265.5v15.1Z" class="g0_311"/>
<path fill-rule="evenodd" d="M265.1,859.4H505.4v-15H265.1v15Z" class="g0_311"/>
<path fill-rule="evenodd" d="M265.1,874.5H505.4V859.4H265.1v15.1Z" class="g0_311"/>
<path fill-rule="evenodd" d="M265.1,889.7H505.4V874.5H265.1v15.2Z" class="g0_311"/>
<path fill-rule="evenodd" d="M266.2,904.7h241v-15h-241v15Z" class="g0_311"/>
<path fill-rule="evenodd" d="M526.6,166.7H768.3V151.6H526.6v15.1Z" class="g0_311"/>
<path fill-rule="evenodd" d="M526.6,181.7H768.3v-15H526.6v15Z" class="g0_311"/>
<path fill-rule="evenodd" d="M526.6,196.9H768.3V181.7H526.6v15.2Z" class="g0_311"/>
<path fill-rule="evenodd" d="M526.6,212H768.3V196.9H526.6V212Z" class="g0_311"/>
<path fill-rule="evenodd" d="M526.6,227H768.3V212H526.6v15Z" class="g0_311"/>
<path fill-rule="evenodd" d="M545.3,242h223V227h-223v15Z" class="g0_311"/>
<path fill-rule="evenodd" d="M526.6,257.1h241V242h-241v15.1Z" class="g0_311"/>
<path fill-rule="evenodd" d="M526.6,272.1h241v-15h-241v15Z" class="g0_311"/>
<path fill-rule="evenodd" d="M526.6,287.1h241v-15h-241v15Z" class="g0_311"/>
<path fill-rule="evenodd" d="M526.6,302.2h241V287.1h-241v15.1Z" class="g0_311"/>
<path fill-rule="evenodd" d="M526.6,317.2h241v-15h-241v15Z" class="g0_311"/>
<path fill-rule="evenodd" d="M526.6,332.2h241v-15h-241v15Z" class="g0_311"/>
<path fill-rule="evenodd" d="M526.6,347.3H767.2V332.2H526.6v15.1Z" class="g0_311"/>
<path fill-rule="evenodd" d="M526.6,362.5H767.2V347.3H526.6v15.2Z" class="g0_311"/>
<path fill-rule="evenodd" d="M545,377.6H768.3V362.5H545v15.1Z" class="g0_311"/>
<path fill-rule="evenodd" d="M527.4,392.6H766.8v-15H527.4v15Z" class="g0_311"/>
<path fill-rule="evenodd" d="M527.4,407.6H766.8v-15H527.4v15Z" class="g0_311"/>
<path fill-rule="evenodd" d="M526.3,422.7H766.8V407.6H526.3v15.1Z" class="g0_311"/>
<path fill-rule="evenodd" d="M526.3,437.7H766.8v-15H526.3v15Z" class="g0_311"/>
<path fill-rule="evenodd" d="M526.3,452.7H766.8v-15H526.3v15Z" class="g0_311"/>
<path fill-rule="evenodd" d="M526.3,467.8H766.8V452.7H526.3v15.1Z" class="g0_311"/>
<path fill-rule="evenodd" d="M526.3,482.8H766.8v-15H526.3v15Z" class="g0_311"/>
<path fill-rule="evenodd" d="M526.3,497.8H766.8v-15H526.3v15Z" class="g0_311"/>
<path fill-rule="evenodd" d="M544.6,512.9H768.3V497.8H544.6v15.1Z" class="g0_311"/>
<path fill-rule="evenodd" d="M525.5,527.9H765.7v-15H525.5v15Z" class="g0_311"/>
<path fill-rule="evenodd" d="M525.5,543.1H765.7V527.9H525.5v15.2Z" class="g0_311"/>
<path fill-rule="evenodd" d="M525.5,558.1H765.7v-15H525.5v15Z" class="g0_311"/>
<path fill-rule="evenodd" d="M525.5,573.2H765.7V558.1H525.5v15.1Z" class="g0_311"/>
<path fill-rule="evenodd" d="M525.5,588.2H765.7v-15H525.5v15Z" class="g0_311"/>
<path fill-rule="evenodd" d="M525.5,603.3H765.7V588.2H525.5v15.1Z" class="g0_311"/>
<path fill-rule="evenodd" d="M525.5,618.3H765.7v-15H525.5v15Z" class="g0_311"/>
<path fill-rule="evenodd" d="M525.5,633.3H765.7v-15H525.5v15Z" class="g0_311"/>
<path fill-rule="evenodd" d="M525.9,648.4H766.1V633.3H525.9v15.1Z" class="g0_311"/>
<path fill-rule="evenodd" d="M525.9,663.4H766.1v-15H525.9v15Z" class="g0_311"/>
<path fill-rule="evenodd" d="M544.2,678.4H768.3v-15H544.2v15Z" class="g0_311"/>
<path fill-rule="evenodd" d="M525.9,693.5H766.1V678.4H525.9v15.1Z" class="g0_311"/>
<path fill-rule="evenodd" d="M525.9,708.5H766.1v-15H525.9v15Z" class="g0_311"/>
<path fill-rule="evenodd" d="M525.9,723.7H766.1V708.5H525.9v15.2Z" class="g0_311"/>
<path fill-rule="evenodd" d="M525.9,738.8H766.1V723.7H525.9v15.1Z" class="g0_311"/>
<path fill-rule="evenodd" d="M525.9,753.8H765.4v-15H525.9v15Z" class="g0_311"/>
<path fill-rule="evenodd" d="M525.9,768.8H765.4v-15H525.9v15Z" class="g0_311"/>
<path fill-rule="evenodd" d="M525.5,783.9H766.1V768.8H525.5v15.1Z" class="g0_311"/>
<path fill-rule="evenodd" d="M525.5,798.9H766.1v-15H525.5v15Z" class="g0_311"/>
<path fill-rule="evenodd" d="M525.5,813.9H766.1v-15H525.5v15Z" class="g0_311"/>
<path fill-rule="evenodd" d="M525.5,829H766.1V813.9H525.5V829Z" class="g0_311"/>
<path fill-rule="evenodd" d="M525.5,844H766.1V829H525.5v15Z" class="g0_311"/>
<path fill-rule="evenodd" d="M525.5,859.1H766.1V844H525.5v15.1Z" class="g0_311"/>
<path fill-rule="evenodd" d="M525.5,874.1H766.1v-15H525.5v15Z" class="g0_311"/>
<path fill-rule="evenodd" d="M525.5,889.1H766.1v-15H525.5v15Z" class="g0_311"/>
<path fill-rule="evenodd" d="M525.5,904.4H766.1V889.1H525.5v15.3Z" class="g0_311"/>
<path fill-rule="evenodd" d="M502.4,936.1H768.3V918.7H502.4v17.4Z" class="g0_311"/>
<path d="M199.5,87.6V755.3" class="g1_311"/>
<path d="M221.5,98.6v31.9m2.2,-40.3v74.1M213.7,110V212.3" class="g2_311"/>
<path d="M206.4,689.3v80.6" class="g3_311"/>
<path d="M221.1,155V763.7M515.2,152.8V922.4" class="g2_311"/>
</svg>