<?xml version="1.0" encoding="UTF-8" standalone="no"?>
<!DOCTYPE svg PUBLIC "-//W3C//DTD SVG 1.1//EN"
"http://www.w3.org/Graphics/SVG/1.1/DTD/svg11.dtd">
<svg viewBox="0 0 909 1285" version="1.1" xmlns="http://www.w3.org/2000/svg" xmlns:xlink="http://www.w3.org/1999/xlink">
<defs>
<style type="text/css"><![CDATA[
.g0_191{
fill: #FFFFFF;
}
.g1_191{
fill: none;
stroke: #000000;
stroke-width: 0.381;
stroke-linecap: butt;
stroke-linejoin: round;
}
.g2_191{
fill: none;
stroke: #000000;
stroke-width: 4.736;
stroke-linecap: butt;
stroke-linejoin: round;
}
]]></style>
</defs>
<path fill-rule="evenodd" d="M276.5,127.6H776.4V110H276.5v17.6Z" class="g0_191"/>
<path fill-rule="evenodd" d="M276.2,162.5H516.4V147.4H276.2v15.1Z" class="g0_191"/>
<path fill-rule="evenodd" d="M276.2,177.5H516.4v-15H276.2v15Z" class="g0_191"/>
<path fill-rule="evenodd" d="M276.2,192.5H516.4v-15H276.2v15Z" class="g0_191"/>
<path fill-rule="evenodd" d="M276.2,207.6H516.4V192.5H276.2v15.1Z" class="g0_191"/>
<path fill-rule="evenodd" d="M276.2,222.6H516.4v-15H276.2v15Z" class="g0_191"/>
<path fill-rule="evenodd" d="M276.2,237.6H516.4v-15H276.2v15Z" class="g0_191"/>
<path fill-rule="evenodd" d="M275.8,252.7H516V237.6H275.8v15.1Z" class="g0_191"/>
<path fill-rule="evenodd" d="M275.8,267.7H516v-15H275.8v15Z" class="g0_191"/>
<path fill-rule="evenodd" d="M275.8,282.7H516v-15H275.8v15Z" class="g0_191"/>
<path fill-rule="evenodd" d="M275.8,297.9H516V282.7H275.8v15.2Z" class="g0_191"/>
<path fill-rule="evenodd" d="M275.8,313H516V297.9H275.8V313Z" class="g0_191"/>
<path fill-rule="evenodd" d="M275.1,328H516V313H275.1v15Z" class="g0_191"/>
<path fill-rule="evenodd" d="M275.1,343H516V328H275.1v15Z" class="g0_191"/>
<path fill-rule="evenodd" d="M275.1,358.1H516v-15H275.1v15Z" class="g0_191"/>
<path fill-rule="evenodd" d="M275.1,373.2H516V358.1H275.1v15.1Z" class="g0_191"/>
<path fill-rule="evenodd" d="M275.1,388.2H516v-15H275.1v15Z" class="g0_191"/>
<path fill-rule="evenodd" d="M275.1,403.2H516v-15H275.1v15Z" class="g0_191"/>
<path fill-rule="evenodd" d="M275.1,418.3H516V403.2H275.1v15.1Z" class="g0_191"/>
<path fill-rule="evenodd" d="M275.1,433.3H516v-15H275.1v15Z" class="g0_191"/>
<path fill-rule="evenodd" d="M275.1,448.3H515.3v-15H275.1v15Z" class="g0_191"/>
<path fill-rule="evenodd" d="M275.1,463.5H515.3V448.3H275.1v15.2Z" class="g0_191"/>
<path fill-rule="evenodd" d="M275.1,478.6H515.3V463.5H275.1v15.1Z" class="g0_191"/>
<path fill-rule="evenodd" d="M275.1,493.6H515.3v-15H275.1v15Z" class="g0_191"/>
<path fill-rule="evenodd" d="M275.1,508.6H515.3v-15H275.1v15Z" class="g0_191"/>
<path fill-rule="evenodd" d="M274.7,523.7H514.9V508.6H274.7v15.1Z" class="g0_191"/>
<path fill-rule="evenodd" d="M274.7,538.7H514.9v-15H274.7v15Z" class="g0_191"/>
<path fill-rule="evenodd" d="M274.7,553.7H514.9v-15H274.7v15Z" class="g0_191"/>
<path fill-rule="evenodd" d="M274.7,568.8H514.9V553.7H274.7v15.1Z" class="g0_191"/>
<path fill-rule="evenodd" d="M275.1,583.8H514.5v-15H275.1v15Z" class="g0_191"/>
<path fill-rule="evenodd" d="M275.1,598.9H514.5V583.8H275.1v15.1Z" class="g0_191"/>
<path fill-rule="evenodd" d="M275.1,613.9H514.5v-15H275.1v15Z" class="g0_191"/>
<path fill-rule="evenodd" d="M274.7,628.9H514.5v-15H274.7v15Z" class="g0_191"/>
<path fill-rule="evenodd" d="M274.7,644.2H514.5V628.9H274.7v15.3Z" class="g0_191"/>
<path fill-rule="evenodd" d="M274.7,659.2H514.5v-15H274.7v15Z" class="g0_191"/>
<path fill-rule="evenodd" d="M274.7,674.2H514.5v-15H274.7v15Z" class="g0_191"/>
<path fill-rule="evenodd" d="M274.7,689.3H514.5V674.2H274.7v15.1Z" class="g0_191"/>
<path fill-rule="evenodd" d="M274.7,704.3H514.5v-15H274.7v15Z" class="g0_191"/>
<path fill-rule="evenodd" d="M274.3,719.3H514.9v-15H274.3v15Z" class="g0_191"/>
<path fill-rule="evenodd" d="M274.3,734.4H514.9V719.3H274.3v15.1Z" class="g0_191"/>
<path fill-rule="evenodd" d="M274.3,749.4H514.9v-15H274.3v15Z" class="g0_191"/>
<path fill-rule="evenodd" d="M274.3,764.4H514.9v-15H274.3v15Z" class="g0_191"/>
<path fill-rule="evenodd" d="M274.3,779.5H514.9V764.4H274.3v15.1Z" class="g0_191"/>
<path fill-rule="evenodd" d="M274.3,794.5H514.9v-15H274.3v15Z" class="g0_191"/>
<path fill-rule="evenodd" d="M274.3,809.5H514.9v-15H274.3v15Z" class="g0_191"/>
<path fill-rule="evenodd" d="M274.3,824.7H514.9V809.5H274.3v15.2Z" class="g0_191"/>
<path fill-rule="evenodd" d="M274.3,839.8H514.9V824.7H274.3v15.1Z" class="g0_191"/>
<path fill-rule="evenodd" d="M274.3,854.9H514.9V839.8H274.3v15.1Z" class="g0_191"/>
<path fill-rule="evenodd" d="M274.3,869.9H514.9v-15H274.3v15Z" class="g0_191"/>
<path fill-rule="evenodd" d="M274.3,884.9H514.9v-15H274.3v15Z" class="g0_191"/>
<path fill-rule="evenodd" d="M274.3,900H514.9V884.9H274.3V900Z" class="g0_191"/>
<path fill-rule="evenodd" d="M275.8,915H516.4V900H275.8v15Z" class="g0_191"/>
<path fill-rule="evenodd" d="M536.2,162.5H776.4V147.4H536.2v15.1Z" class="g0_191"/>
<path fill-rule="evenodd" d="M536.2,177.5H776.4v-15H536.2v15Z" class="g0_191"/>
<path fill-rule="evenodd" d="M536.2,192.5H776.4v-15H536.2v15Z" class="g0_191"/>
<path fill-rule="evenodd" d="M536.2,207.6H776.4V192.5H536.2v15.1Z" class="g0_191"/>
<path fill-rule="evenodd" d="M536.2,222.6H776.4v-15H536.2v15Z" class="g0_191"/>
<path fill-rule="evenodd" d="M536.5,237.6H776v-15H536.5v15Z" class="g0_191"/>
<path fill-rule="evenodd" d="M536.5,252.7H776V237.6H536.5v15.1Z" class="g0_191"/>
<path fill-rule="evenodd" d="M536.5,267.7H776v-15H536.5v15Z" class="g0_191"/>
<path fill-rule="evenodd" d="M536.5,282.7H775.6v-15H536.5v15Z" class="g0_191"/>
<path fill-rule="evenodd" d="M536.5,297.9H775.6V282.7H536.5v15.2Z" class="g0_191"/>
<path fill-rule="evenodd" d="M536.2,313H775.6V297.9H536.2V313Z" class="g0_191"/>
<path fill-rule="evenodd" d="M536.2,328H775.6V313H536.2v15Z" class="g0_191"/>
<path fill-rule="evenodd" d="M536.2,343H775.6V328H536.2v15Z" class="g0_191"/>
<path fill-rule="evenodd" d="M536.2,358.1H775.6v-15H536.2v15Z" class="g0_191"/>
<path fill-rule="evenodd" d="M536.2,373.2H775.6V358.1H536.2v15.1Z" class="g0_191"/>
<path fill-rule="evenodd" d="M535.4,388.2H775.6v-15H535.4v15Z" class="g0_191"/>
<path fill-rule="evenodd" d="M535.4,403.2H775.6v-15H535.4v15Z" class="g0_191"/>
<path fill-rule="evenodd" d="M535.4,418.3H775.6V403.2H535.4v15.1Z" class="g0_191"/>
<path fill-rule="evenodd" d="M535.4,433.3H775.6v-15H535.4v15Z" class="g0_191"/>
<path fill-rule="evenodd" d="M535.4,448.3H775.6v-15H535.4v15Z" class="g0_191"/>
<path fill-rule="evenodd" d="M535.4,463.5H775.6V448.3H535.4v15.2Z" class="g0_191"/>
<path fill-rule="evenodd" d="M535.8,478.6H774.9V463.5H535.8v15.1Z" class="g0_191"/>
<path fill-rule="evenodd" d="M535.8,493.6H774.9v-15H535.8v15Z" class="g0_191"/>
<path fill-rule="evenodd" d="M535.4,508.6H774.9v-15H535.4v15Z" class="g0_191"/>
<path fill-rule="evenodd" d="M535.4,523.7H774.9V508.6H535.4v15.1Z" class="g0_191"/>
<path fill-rule="evenodd" d="M535.4,538.7H774.9v-15H535.4v15Z" class="g0_191"/>
<path fill-rule="evenodd" d="M535.4,553.7H774.9v-15H535.4v15Z" class="g0_191"/>
<path fill-rule="evenodd" d="M535.1,568.8H775.3V553.7H535.1v15.1Z" class="g0_191"/>
<path fill-rule="evenodd" d="M535.1,583.8H775.3v-15H535.1v15Z" class="g0_191"/>
<path fill-rule="evenodd" d="M535.1,598.9H775.3V583.8H535.1v15.1Z" class="g0_191"/>
<path fill-rule="evenodd" d="M534.7,613.9H775.3v-15H534.7v15Z" class="g0_191"/>
<path fill-rule="evenodd" d="M534.7,628.9H775.3v-15H534.7v15Z" class="g0_191"/>
<path fill-rule="evenodd" d="M534.7,644.2H775.6V628.9H534.7v15.3Z" class="g0_191"/>
<path fill-rule="evenodd" d="M534.7,659.2H775.6v-15H534.7v15Z" class="g0_191"/>
<path fill-rule="evenodd" d="M534.7,674.2H775.6v-15H534.7v15Z" class="g0_191"/>
<path fill-rule="evenodd" d="M534.7,689.3H775.6V674.2H534.7v15.1Z" class="g0_191"/>
<path fill-rule="evenodd" d="M534.7,704.3H775.6v-15H534.7v15Z" class="g0_191"/>
<path fill-rule="evenodd" d="M534.7,719.3H775.6v-15H534.7v15Z" class="g0_191"/>
<path fill-rule="evenodd" d="M534.7,734.4H775.6V719.3H534.7v15.1Z" class="g0_191"/>
<path fill-rule="evenodd" d="M534.7,749.4H775.6v-15H534.7v15Z" class="g0_191"/>
<path fill-rule="evenodd" d="M535.1,764.4H774.2v-15H535.1v15Z" class="g0_191"/>
<path fill-rule="evenodd" d="M535.1,779.5H774.2V764.4H535.1v15.1Z" class="g0_191"/>
<path fill-rule="evenodd" d="M535.1,794.5H774.2v-15H535.1v15Z" class="g0_191"/>
<path fill-rule="evenodd" d="M535.1,809.5H774.5v-15H535.1v15Z" class="g0_191"/>
<path fill-rule="evenodd" d="M535.1,824.7H774.5V809.5H535.1v15.2Z" class="g0_191"/>
<path fill-rule="evenodd" d="M535.1,839.8H774.5V824.7H535.1v15.1Z" class="g0_191"/>
<path fill-rule="evenodd" d="M535.1,854.9H774.9V839.8H535.1v15.1Z" class="g0_191"/>
<path fill-rule="evenodd" d="M535.1,869.9H774.9v-15H535.1v15Z" class="g0_191"/>
<path fill-rule="evenodd" d="M534.7,884.9H774.5v-15H534.7v15Z" class="g0_191"/>
<path fill-rule="evenodd" d="M534.7,900H774.5V884.9H534.7V900Z" class="g0_191"/>
<path fill-rule="evenodd" d="M510.9,932.2H776.4V914.6H510.9v17.6Z" class="g0_191"/>
<path d="M214.9,126.5V275.4m1.8,-163.9V183m2.2,-91.3v43.6" class="g1_191"/>
<path d="M789.8,82.5V332.9" class="g2_191"/>
<path d="M216.3,208.2V322.7M524,148.1V916.7" class="g1_191"/>
</svg>