<?xml version="1.0" encoding="UTF-8" standalone="no"?>
<!DOCTYPE svg PUBLIC "-//W3C//DTD SVG 1.1//EN"
"http://www.w3.org/Graphics/SVG/1.1/DTD/svg11.dtd">
<svg viewBox="0 0 909 1285" version="1.1" xmlns="http://www.w3.org/2000/svg" xmlns:xlink="http://www.w3.org/1999/xlink">
<defs>
<style type="text/css"><![CDATA[
.g0_95{
fill: #FFFFFF;
}
.g1_95{
fill: none;
stroke: #000000;
stroke-width: 0.381;
stroke-linecap: butt;
stroke-linejoin: round;
}
.g2_95{
fill: none;
stroke: #000000;
stroke-width: 4.43;
stroke-linecap: butt;
stroke-linejoin: round;
}
]]></style>
</defs>
<path fill-rule="evenodd" d="M274.5,125.8H775.1V110H274.5v15.8Z" class="g0_95"/>
<path fill-rule="evenodd" d="M273.8,161.4H514V146.7H273.8v14.7Z" class="g0_95"/>
<path fill-rule="evenodd" d="M273.8,176H514V161.4H273.8V176Z" class="g0_95"/>
<path fill-rule="evenodd" d="M273.8,190.7H514V176H273.8v14.7Z" class="g0_95"/>
<path fill-rule="evenodd" d="M273.4,205.4H513.6V190.7H273.4v14.7Z" class="g0_95"/>
<path fill-rule="evenodd" d="M273.4,220H513.6V205.4H273.4V220Z" class="g0_95"/>
<path fill-rule="evenodd" d="M273.4,234.7H513.6V220H273.4v14.7Z" class="g0_95"/>
<path fill-rule="evenodd" d="M273.4,249.4H513.6V234.7H273.4v14.7Z" class="g0_95"/>
<path fill-rule="evenodd" d="M273.8,264.4H512.9V249.7H273.8v14.7Z" class="g0_95"/>
<path fill-rule="evenodd" d="M273.8,279.1H512.9V264.4H273.8v14.7Z" class="g0_95"/>
<path fill-rule="evenodd" d="M273.1,293.9H513.3V279.1H273.1v14.8Z" class="g0_95"/>
<path fill-rule="evenodd" d="M273.1,308.6H513.3V293.9H273.1v14.7Z" class="g0_95"/>
<path fill-rule="evenodd" d="M273.1,323.2H513.3V308.6H273.1v14.6Z" class="g0_95"/>
<path fill-rule="evenodd" d="M273.1,337.9H512.2V323.2H273.1v14.7Z" class="g0_95"/>
<path fill-rule="evenodd" d="M273.1,352.6H512.2V337.9H273.1v14.7Z" class="g0_95"/>
<path fill-rule="evenodd" d="M272.7,367.3H512.5V352.6H272.7v14.7Z" class="g0_95"/>
<path fill-rule="evenodd" d="M272.7,382H512.5V367.3H272.7V382Z" class="g0_95"/>
<path fill-rule="evenodd" d="M272.7,396.6H512.5V382H272.7v14.6Z" class="g0_95"/>
<path fill-rule="evenodd" d="M272.7,411.7H512.2V397H272.7v14.7Z" class="g0_95"/>
<path fill-rule="evenodd" d="M272.7,426.3H512.2V411.7H272.7v14.6Z" class="g0_95"/>
<path fill-rule="evenodd" d="M272.7,441H512.2V426.3H272.7V441Z" class="g0_95"/>
<path fill-rule="evenodd" d="M272,455.7H512.2V441H272v14.7Z" class="g0_95"/>
<path fill-rule="evenodd" d="M272,470.3H512.2V455.7H272v14.6Z" class="g0_95"/>
<path fill-rule="evenodd" d="M272,485H512.2V470.3H272V485Z" class="g0_95"/>
<path fill-rule="evenodd" d="M272,499.7H512.2V485H272v14.7Z" class="g0_95"/>
<path fill-rule="evenodd" d="M272,514.3H512.2V499.7H272v14.6Z" class="g0_95"/>
<path fill-rule="evenodd" d="M272.3,529.4H511.8V514.7H272.3v14.7Z" class="g0_95"/>
<path fill-rule="evenodd" d="M272.3,544H511.8V529.4H272.3V544Z" class="g0_95"/>
<path fill-rule="evenodd" d="M272.3,558.7H511.8V544H272.3v14.7Z" class="g0_95"/>
<path fill-rule="evenodd" d="M272,573.7H511.4V559.1H272v14.6Z" class="g0_95"/>
<path fill-rule="evenodd" d="M272,588.4H511.4V573.7H272v14.7Z" class="g0_95"/>
<path fill-rule="evenodd" d="M272,603.1H511.4V588.4H272v14.7Z" class="g0_95"/>
<path fill-rule="evenodd" d="M271.6,618.1H511.1V603.5H271.6v14.6Z" class="g0_95"/>
<path fill-rule="evenodd" d="M271.6,632.8H511.1V618.1H271.6v14.7Z" class="g0_95"/>
<path fill-rule="evenodd" d="M271.6,647.5H511.1V632.8H271.6v14.7Z" class="g0_95"/>
<path fill-rule="evenodd" d="M272,662.5H511.4V647.8H272v14.7Z" class="g0_95"/>
<path fill-rule="evenodd" d="M272,677.2H511.4V662.5H272v14.7Z" class="g0_95"/>
<path fill-rule="evenodd" d="M272,691.8H511.4V677.2H272v14.6Z" class="g0_95"/>
<path fill-rule="evenodd" d="M271.6,706.9H510.7V692.2H271.6v14.7Z" class="g0_95"/>
<path fill-rule="evenodd" d="M271.6,721.5H510.7V706.9H271.6v14.6Z" class="g0_95"/>
<path fill-rule="evenodd" d="M271.6,736.2H510.7V721.5H271.6v14.7Z" class="g0_95"/>
<path fill-rule="evenodd" d="M271.2,750.9H510.3V736.2H271.2v14.7Z" class="g0_95"/>
<path fill-rule="evenodd" d="M271.2,765.5H510.3V750.9H271.2v14.6Z" class="g0_95"/>
<path fill-rule="evenodd" d="M290.3,780.2H514V765.5H290.3v14.7Z" class="g0_95"/>
<path fill-rule="evenodd" d="M271.2,795.6H511.1V780.9H271.2v14.7Z" class="g0_95"/>
<path fill-rule="evenodd" d="M271.2,810.3H511.1V795.6H271.2v14.7Z" class="g0_95"/>
<path fill-rule="evenodd" d="M271.2,824.9H510.3V810.3H271.2v14.6Z" class="g0_95"/>
<path fill-rule="evenodd" d="M271.2,839.6H510.3V824.9H271.2v14.7Z" class="g0_95"/>
<path fill-rule="evenodd" d="M271.2,854.3H510.3V839.6H271.2v14.7Z" class="g0_95"/>
<path fill-rule="evenodd" d="M271.2,869.3H510.3v-15H271.2v15Z" class="g0_95"/>
<path fill-rule="evenodd" d="M271.2,884H510.3V869.3H271.2V884Z" class="g0_95"/>
<path fill-rule="evenodd" d="M271.2,898.7H510.3V884H271.2v14.7Z" class="g0_95"/>
<path fill-rule="evenodd" d="M293.2,913.3H514V898.7H293.2v14.6Z" class="g0_95"/>
<path fill-rule="evenodd" d="M552.9,161.7H775.1V147.1H552.9v14.6Z" class="g0_95"/>
<path fill-rule="evenodd" d="M533.8,176.9H773.3V162.1H533.8v14.8Z" class="g0_95"/>
<path fill-rule="evenodd" d="M533.8,191.6H773.3V176.9H533.8v14.7Z" class="g0_95"/>
<path fill-rule="evenodd" d="M533.8,206.3H773.3V191.6H533.8v14.7Z" class="g0_95"/>
<path fill-rule="evenodd" d="M533.8,220.9H773.3V206.3H533.8v14.6Z" class="g0_95"/>
<path fill-rule="evenodd" d="M533.8,235.6H773.3V220.9H533.8v14.7Z" class="g0_95"/>
<path fill-rule="evenodd" d="M533.8,250.3H773.3V235.6H533.8v14.7Z" class="g0_95"/>
<path fill-rule="evenodd" d="M533.4,265.3H771.8V250.6H533.4v14.7Z" class="g0_95"/>
<path fill-rule="evenodd" d="M533.4,280H771.8V265.3H533.4V280Z" class="g0_95"/>
<path fill-rule="evenodd" d="M533.8,295h238V280.3h-238V295Z" class="g0_95"/>
<path fill-rule="evenodd" d="M533.8,309.7h238V295h-238v14.7Z" class="g0_95"/>
<path fill-rule="evenodd" d="M533.4,325.1H772.2V310.4H533.4v14.7Z" class="g0_95"/>
<path fill-rule="evenodd" d="M533.4,339.7H772.2V325.1H533.4v14.6Z" class="g0_95"/>
<path fill-rule="evenodd" d="M533.4,354.5H771.8V339.8H533.4v14.7Z" class="g0_95"/>
<path fill-rule="evenodd" d="M533.4,369.1H771.8V354.5H533.4v14.6Z" class="g0_95"/>
<path fill-rule="evenodd" d="M532.7,383.8H771.8V369.1H532.7v14.7Z" class="g0_95"/>
<path fill-rule="evenodd" d="M532.7,398.5H771.8V383.8H532.7v14.7Z" class="g0_95"/>
<path fill-rule="evenodd" d="M532.7,413.1H771.8V398.5H532.7v14.6Z" class="g0_95"/>
<path fill-rule="evenodd" d="M532.7,427.8H771.8V413.1H532.7v14.7Z" class="g0_95"/>
<path fill-rule="evenodd" d="M532.3,442.5H770.7V427.8H532.3v14.7Z" class="g0_95"/>
<path fill-rule="evenodd" d="M532.3,457.1H770.7V442.5H532.3v14.6Z" class="g0_95"/>
<path fill-rule="evenodd" d="M531.6,472.2H771.1V457.5H531.6v14.7Z" class="g0_95"/>
<path fill-rule="evenodd" d="M531.6,486.8H771.1V472.2H531.6v14.6Z" class="g0_95"/>
<path fill-rule="evenodd" d="M531.6,501.5H771.1V486.8H531.6v14.7Z" class="g0_95"/>
<path fill-rule="evenodd" d="M531.6,516.2H775.1V501.5H531.6v14.7Z" class="g0_95"/>
<path fill-rule="evenodd" d="M531.6,530.8H775.1V516.2H531.6v14.6Z" class="g0_95"/>
<path fill-rule="evenodd" d="M531.6,545.5H775.1V530.8H531.6v14.7Z" class="g0_95"/>
<path fill-rule="evenodd" d="M531.6,560.2H775.1V545.5H531.6v14.7Z" class="g0_95"/>
<path fill-rule="evenodd" d="M531.6,574.8H775.1V560.2H531.6v14.6Z" class="g0_95"/>
<path fill-rule="evenodd" d="M531.6,589.5H775.1V574.8H531.6v14.7Z" class="g0_95"/>
<path fill-rule="evenodd" d="M531.6,604.2H775.1V589.5H531.6v14.7Z" class="g0_95"/>
<path fill-rule="evenodd" d="M531.6,618.9H775.1V604.2H531.6v14.7Z" class="g0_95"/>
<path fill-rule="evenodd" d="M531.6,633.5H775.1V618.9H531.6v14.6Z" class="g0_95"/>
<path fill-rule="evenodd" d="M531.6,648.2H775.1V633.5H531.6v14.7Z" class="g0_95"/>
<path fill-rule="evenodd" d="M531.6,662.9H775.1V648.2H531.6v14.7Z" class="g0_95"/>
<path fill-rule="evenodd" d="M531.6,677.5H775.1V662.9H531.6v14.6Z" class="g0_95"/>
<path fill-rule="evenodd" d="M532,692.6H770.7V677.9H532v14.7Z" class="g0_95"/>
<path fill-rule="evenodd" d="M532,707.2H770.7V692.6H532v14.6Z" class="g0_95"/>
<path fill-rule="evenodd" d="M531.2,721.9H770.3V707.2H531.2v14.7Z" class="g0_95"/>
<path fill-rule="evenodd" d="M531.2,736.6H770.3V721.9H531.2v14.7Z" class="g0_95"/>
<path fill-rule="evenodd" d="M531.2,751.2H770.3V736.6H531.2v14.6Z" class="g0_95"/>
<path fill-rule="evenodd" d="M531.2,765.9H770.3V751.2H531.2v14.7Z" class="g0_95"/>
<path fill-rule="evenodd" d="M530.9,781.3H770.3V766.6H530.9v14.7Z" class="g0_95"/>
<path fill-rule="evenodd" d="M530.9,796H770.3V781.3H530.9V796Z" class="g0_95"/>
<path fill-rule="evenodd" d="M530.9,810.6H770.3V796H530.9v14.6Z" class="g0_95"/>
<path fill-rule="evenodd" d="M530.9,825.3H770.3V810.6H530.9v14.7Z" class="g0_95"/>
<path fill-rule="evenodd" d="M530.9,840H770.3V825.3H530.9V840Z" class="g0_95"/>
<path fill-rule="evenodd" d="M531.2,855.4H770.7V840.7H531.2v14.7Z" class="g0_95"/>
<path fill-rule="evenodd" d="M531.2,870.1H770.7V855.4H531.2v14.7Z" class="g0_95"/>
<path fill-rule="evenodd" d="M531.2,884.7H770.7V870.1H531.2v14.6Z" class="g0_95"/>
<path fill-rule="evenodd" d="M531.2,899.4H770.7V884.7H531.2v14.7Z" class="g0_95"/>
<path fill-rule="evenodd" d="M511.4,931.7H775.1V914.1H511.4v17.6Z" class="g0_95"/>
<path d="M212.1,103.8V960.4M520.8,147.8V916.4m264,-661.9v28.3" class="g1_95"/>
<path d="M789.9,497.3V615.4" class="g2_95"/>
</svg>