<?xml version="1.0" encoding="UTF-8" standalone="no"?>
<!DOCTYPE svg PUBLIC "-//W3C//DTD SVG 1.1//EN"
"http://www.w3.org/Graphics/SVG/1.1/DTD/svg11.dtd">
<svg viewBox="0 0 909 1285" version="1.1" xmlns="http://www.w3.org/2000/svg" xmlns:xlink="http://www.w3.org/1999/xlink">
<defs>
<style type="text/css"><![CDATA[
.g0_179{
fill: #FFFFFF;
}
.g1_179{
fill: none;
stroke: #000000;
stroke-width: 0.381;
stroke-linecap: butt;
stroke-linejoin: round;
}
]]></style>
</defs>
<path fill-rule="evenodd" d="M263.5,125.8H763.7V110H263.5v15.8Z" class="g0_179"/>
<path fill-rule="evenodd" d="M263.5,161.7H503.4v-15H263.5v15Z" class="g0_179"/>
<path fill-rule="evenodd" d="M263.5,176.9H503.4V161.7H263.5v15.2Z" class="g0_179"/>
<path fill-rule="evenodd" d="M263.1,192H503.4V176.9H263.1V192Z" class="g0_179"/>
<path fill-rule="evenodd" d="M263.1,207H503.4V192H263.1v15Z" class="g0_179"/>
<path fill-rule="evenodd" d="M263.1,222H503.4V207H263.1v15Z" class="g0_179"/>
<path fill-rule="evenodd" d="M263.1,237.1H503.4V222H263.1v15.1Z" class="g0_179"/>
<path fill-rule="evenodd" d="M263.1,252.1H503v-15H263.1v15Z" class="g0_179"/>
<path fill-rule="evenodd" d="M263.1,267.1H503v-15H263.1v15Z" class="g0_179"/>
<path fill-rule="evenodd" d="M263.5,282.2H503.4V267.1H263.5v15.1Z" class="g0_179"/>
<path fill-rule="evenodd" d="M263.5,297.2H503.4v-15H263.5v15Z" class="g0_179"/>
<path fill-rule="evenodd" d="M263.1,312.2H502.6v-15H263.1v15Z" class="g0_179"/>
<path fill-rule="evenodd" d="M263.1,327.3H502.6V312.2H263.1v15.1Z" class="g0_179"/>
<path fill-rule="evenodd" d="M281.5,342.5H503.4V327.3H281.5v15.2Z" class="g0_179"/>
<path fill-rule="evenodd" d="M281.5,357.6H503.4V342.5H281.5v15.1Z" class="g0_179"/>
<path fill-rule="evenodd" d="M262.4,372.6H503v-15H262.4v15Z" class="g0_179"/>
<path fill-rule="evenodd" d="M262.4,387.6H503v-15H262.4v15Z" class="g0_179"/>
<path fill-rule="evenodd" d="M262.4,402.7H503V387.6H262.4v15.1Z" class="g0_179"/>
<path fill-rule="evenodd" d="M262.4,417.7H503v-15H262.4v15Z" class="g0_179"/>
<path fill-rule="evenodd" d="M262.4,432.7H503v-15H262.4v15Z" class="g0_179"/>
<path fill-rule="evenodd" d="M262.4,447.8H503V432.7H262.4v15.1Z" class="g0_179"/>
<path fill-rule="evenodd" d="M262.4,462.8H503v-15H262.4v15Z" class="g0_179"/>
<path fill-rule="evenodd" d="M262.4,477.8H503v-15H262.4v15Z" class="g0_179"/>
<path fill-rule="evenodd" d="M262.4,492.9H503V477.8H262.4v15.1Z" class="g0_179"/>
<path fill-rule="evenodd" d="M262,507.9H501.9v-15H262v15Z" class="g0_179"/>
<path fill-rule="evenodd" d="M262,523.1H501.9V507.9H262v15.2Z" class="g0_179"/>
<path fill-rule="evenodd" d="M262,538.2H501.9V523.1H262v15.1Z" class="g0_179"/>
<path fill-rule="evenodd" d="M262,553.2H501.9v-15H262v15Z" class="g0_179"/>
<path fill-rule="evenodd" d="M262,568.2H501.9v-15H262v15Z" class="g0_179"/>
<path fill-rule="evenodd" d="M262,583.3H501.9V568.2H262v15.1Z" class="g0_179"/>
<path fill-rule="evenodd" d="M262,598.3H501.9v-15H262v15Z" class="g0_179"/>
<path fill-rule="evenodd" d="M261.6,613.4H501.5V598.3H261.6v15.1Z" class="g0_179"/>
<path fill-rule="evenodd" d="M261.6,628.4H501.5v-15H261.6v15Z" class="g0_179"/>
<path fill-rule="evenodd" d="M261.6,643.4H501.5v-15H261.6v15Z" class="g0_179"/>
<path fill-rule="evenodd" d="M261.3,658.5H501.5V643.4H261.3v15.1Z" class="g0_179"/>
<path fill-rule="evenodd" d="M261.3,673.5H501.5v-15H261.3v15Z" class="g0_179"/>
<path fill-rule="evenodd" d="M262,688.5H501.2v-15H262v15Z" class="g0_179"/>
<path fill-rule="evenodd" d="M262,703.7H501.2V688.5H262v15.2Z" class="g0_179"/>
<path fill-rule="evenodd" d="M280.4,718.8h223V703.7h-223v15.1Z" class="g0_179"/>
<path fill-rule="evenodd" d="M261.6,733.8H501.9v-15H261.6v15Z" class="g0_179"/>
<path fill-rule="evenodd" d="M261.6,748.8H501.9v-15H261.6v15Z" class="g0_179"/>
<path fill-rule="evenodd" d="M261.6,763.9H501.9V748.8H261.6v15.1Z" class="g0_179"/>
<path fill-rule="evenodd" d="M261.6,779.3H500.8V764.2H261.6v15.1Z" class="g0_179"/>
<path fill-rule="evenodd" d="M261.6,794.3H500.8v-15H261.6v15Z" class="g0_179"/>
<path fill-rule="evenodd" d="M280,809.3H503.4v-15H280v15Z" class="g0_179"/>
<path fill-rule="evenodd" d="M261.6,824.4H501.5V809.3H261.6v15.1Z" class="g0_179"/>
<path fill-rule="evenodd" d="M261.6,839.5H501.5V824.4H261.6v15.1Z" class="g0_179"/>
<path fill-rule="evenodd" d="M261.3,854.5H501.2v-15H261.3v15Z" class="g0_179"/>
<path fill-rule="evenodd" d="M261.3,869.7H501.2V854.5H261.3v15.2Z" class="g0_179"/>
<path fill-rule="evenodd" d="M263.8,884.7H502.6v-15H263.8v15Z" class="g0_179"/>
<path fill-rule="evenodd" d="M524.3,162.3H763V147.1H524.3v15.2Z" class="g0_179"/>
<path fill-rule="evenodd" d="M524.3,177.3H763v-15H524.3v15Z" class="g0_179"/>
<path fill-rule="evenodd" d="M522.8,192.7H763.4v-15H522.8v15Z" class="g0_179"/>
<path fill-rule="evenodd" d="M522.8,207.7H763.4v-15H522.8v15Z" class="g0_179"/>
<path fill-rule="evenodd" d="M523.9,222.8H763.4V207.7H523.9v15.1Z" class="g0_179"/>
<path fill-rule="evenodd" d="M523.9,237.8H763.4v-15H523.9v15Z" class="g0_179"/>
<path fill-rule="evenodd" d="M523.9,252.8H763.4v-15H523.9v15Z" class="g0_179"/>
<path fill-rule="evenodd" d="M542.2,267.9H763.7V252.8H542.2v15.1Z" class="g0_179"/>
<path fill-rule="evenodd" d="M523.5,283.3H763.7V268.2H523.5v15.1Z" class="g0_179"/>
<path fill-rule="evenodd" d="M523.5,298.5H763.7V283.3H523.5v15.2Z" class="g0_179"/>
<path fill-rule="evenodd" d="M523.5,313.5H763.7v-15H523.5v15Z" class="g0_179"/>
<path fill-rule="evenodd" d="M523.5,328.6H763.7V313.5H523.5v15.1Z" class="g0_179"/>
<path fill-rule="evenodd" d="M523.5,343.6H763.7v-15H523.5v15Z" class="g0_179"/>
<path fill-rule="evenodd" d="M522.8,358.7H763.7V343.6H522.8v15.1Z" class="g0_179"/>
<path fill-rule="evenodd" d="M522.8,373.7H763.7v-15H522.8v15Z" class="g0_179"/>
<path fill-rule="evenodd" d="M522.8,388.7H763.7v-15H522.8v15Z" class="g0_179"/>
<path fill-rule="evenodd" d="M541.5,403.8H763.7V388.7H541.5v15.1Z" class="g0_179"/>
<path fill-rule="evenodd" d="M522.8,418.8H763v-15H522.8v15Z" class="g0_179"/>
<path fill-rule="evenodd" d="M522.8,433.8H763v-15H522.8v15Z" class="g0_179"/>
<path fill-rule="evenodd" d="M522.8,448.9H763V433.8H522.8v15.1Z" class="g0_179"/>
<path fill-rule="evenodd" d="M522.8,463.9H763v-15H522.8v15Z" class="g0_179"/>
<path fill-rule="evenodd" d="M522.8,479.1H763V463.9H522.8v15.2Z" class="g0_179"/>
<path fill-rule="evenodd" d="M541.1,494.5H763.7v-15H541.1v15Z" class="g0_179"/>
<path fill-rule="evenodd" d="M522.1,509.6H763V494.5H522.1v15.1Z" class="g0_179"/>
<path fill-rule="evenodd" d="M522.1,524.6H763v-15H522.1v15Z" class="g0_179"/>
<path fill-rule="evenodd" d="M540.8,539.6H763.7v-15H540.8v15Z" class="g0_179"/>
<path fill-rule="evenodd" d="M522.4,554.7H763V539.6H522.4v15.1Z" class="g0_179"/>
<path fill-rule="evenodd" d="M522.4,569.7H763v-15H522.4v15Z" class="g0_179"/>
<path fill-rule="evenodd" d="M522.1,584.7H763v-15H522.1v15Z" class="g0_179"/>
<path fill-rule="evenodd" d="M522.1,599.8H763V584.7H522.1v15.1Z" class="g0_179"/>
<path fill-rule="evenodd" d="M522.1,614.8H763v-15H522.1v15Z" class="g0_179"/>
<path fill-rule="evenodd" d="M522.1,629.9H763V614.8H522.1v15.1Z" class="g0_179"/>
<path fill-rule="evenodd" d="M522.1,645.1H762.6V629.9H522.1v15.2Z" class="g0_179"/>
<path fill-rule="evenodd" d="M522.1,660.1H762.6v-15H522.1v15Z" class="g0_179"/>
<path fill-rule="evenodd" d="M521.7,675.1H762.3v-15H521.7v15Z" class="g0_179"/>
<path fill-rule="evenodd" d="M521.7,690.2H762.3V675.1H521.7v15.1Z" class="g0_179"/>
<path fill-rule="evenodd" d="M521.7,705.2H762.3v-15H521.7v15Z" class="g0_179"/>
<path fill-rule="evenodd" d="M540.4,720.2H763.7v-15H540.4v15Z" class="g0_179"/>
<path fill-rule="evenodd" d="M540.8,735.3H763.7V720.2H540.8v15.1Z" class="g0_179"/>
<path fill-rule="evenodd" d="M521.7,750.3H761.9v-15H521.7v15Z" class="g0_179"/>
<path fill-rule="evenodd" d="M521.7,765.3H761.9v-15H521.7v15Z" class="g0_179"/>
<path fill-rule="evenodd" d="M522.1,780.4H762.3V765.3H522.1v15.1Z" class="g0_179"/>
<path fill-rule="evenodd" d="M522.1,795.4H762.3v-15H522.1v15Z" class="g0_179"/>
<path fill-rule="evenodd" d="M522.1,810.4H762.3v-15H522.1v15Z" class="g0_179"/>
<path fill-rule="evenodd" d="M521.7,825.7H762.3V810.4H521.7v15.3Z" class="g0_179"/>
<path fill-rule="evenodd" d="M521.7,840.7H762.3v-15H521.7v15Z" class="g0_179"/>
<path fill-rule="evenodd" d="M522.1,855.8H762.3V840.7H522.1v15.1Z" class="g0_179"/>
<path fill-rule="evenodd" d="M522.1,870.8H762.3v-15H522.1v15Z" class="g0_179"/>
<path d="M511.7,147.8V916" class="g1_179"/>
</svg>