<?xml version="1.0" encoding="UTF-8" standalone="no"?>
<!DOCTYPE svg PUBLIC "-//W3C//DTD SVG 1.1//EN"
"http://www.w3.org/Graphics/SVG/1.1/DTD/svg11.dtd">
<svg viewBox="0 0 909 1285" version="1.1" xmlns="http://www.w3.org/2000/svg" xmlns:xlink="http://www.w3.org/1999/xlink">
<defs>
<style type="text/css"><![CDATA[
.g0_148{
fill: #FFFFFF;
}
.g1_148{
fill: none;
stroke: #000000;
stroke-width: 0.381;
stroke-linecap: butt;
stroke-linejoin: round;
}
]]></style>
</defs>
<path fill-rule="evenodd" d="M190.7,125.8H692V110H190.7v15.8Z" class="g0_148"/>
<path fill-rule="evenodd" d="M421.7,178.2H692.8V153.3H421.7v24.9Z" class="g0_148"/>
<path fill-rule="evenodd" d="M191.8,217.1H432v-15H191.8v15Z" class="g0_148"/>
<path fill-rule="evenodd" d="M191.8,232.1H432v-15H191.8v15Z" class="g0_148"/>
<path fill-rule="evenodd" d="M191.8,247.2H432V232.1H191.8v15.1Z" class="g0_148"/>
<path fill-rule="evenodd" d="M191.8,262.2H432v-15H191.8v15Z" class="g0_148"/>
<path fill-rule="evenodd" d="M191.8,277.2H432v-15H191.8v15Z" class="g0_148"/>
<path fill-rule="evenodd" d="M192.2,292.4H376.3V277.2H192.2v15.2Z" class="g0_148"/>
<path fill-rule="evenodd" d="M192.2,307.5H376.3V292.4H192.2v15.1Z" class="g0_148"/>
<path fill-rule="evenodd" d="M191.8,322.5H431.6v-15H191.8v15Z" class="g0_148"/>
<path fill-rule="evenodd" d="M191.8,337.5H431.6v-15H191.8v15Z" class="g0_148"/>
<path fill-rule="evenodd" d="M191.8,352.6H431.3v-15H191.8v15Z" class="g0_148"/>
<path fill-rule="evenodd" d="M191.8,367.7H431.3V352.6H191.8v15.1Z" class="g0_148"/>
<path fill-rule="evenodd" d="M191.4,382.7H431.6v-15H191.4v15Z" class="g0_148"/>
<path fill-rule="evenodd" d="M191.4,397.7H431.6v-15H191.4v15Z" class="g0_148"/>
<path fill-rule="evenodd" d="M191.4,412.8H431.6V397.7H191.4v15.1Z" class="g0_148"/>
<path fill-rule="evenodd" d="M191.4,427.8H431.6v-15H191.4v15Z" class="g0_148"/>
<path fill-rule="evenodd" d="M191.4,442.8H431.6v-15H191.4v15Z" class="g0_148"/>
<path fill-rule="evenodd" d="M191.4,458H431.6V442.8H191.4V458Z" class="g0_148"/>
<path fill-rule="evenodd" d="M191.4,473.1H431.6V458H191.4v15.1Z" class="g0_148"/>
<path fill-rule="evenodd" d="M191.4,488.1H430.9v-15H191.4v15Z" class="g0_148"/>
<path fill-rule="evenodd" d="M191.4,503.1H430.9v-15H191.4v15Z" class="g0_148"/>
<path fill-rule="evenodd" d="M191.4,518.2H430.9V503.1H191.4v15.1Z" class="g0_148"/>
<path fill-rule="evenodd" d="M191.4,533.2H430.9v-15H191.4v15Z" class="g0_148"/>
<path fill-rule="evenodd" d="M191.4,548.2H430.9v-15H191.4v15Z" class="g0_148"/>
<path fill-rule="evenodd" d="M191.4,563.3H430.9V548.2H191.4v15.1Z" class="g0_148"/>
<path fill-rule="evenodd" d="M191.4,578.3H430.5v-15H191.4v15Z" class="g0_148"/>
<path fill-rule="evenodd" d="M191.4,593.4H430.5V578.3H191.4v15.1Z" class="g0_148"/>
<path fill-rule="evenodd" d="M191.4,608.4H430.5v-15H191.4v15Z" class="g0_148"/>
<path fill-rule="evenodd" d="M191.4,623.4H430.5v-15H191.4v15Z" class="g0_148"/>
<path fill-rule="evenodd" d="M190.7,639H430.5V623.8H190.7V639Z" class="g0_148"/>
<path fill-rule="evenodd" d="M190.7,654.1H430.5V639H190.7v15.1Z" class="g0_148"/>
<path fill-rule="evenodd" d="M190.7,669.1H430.5v-15H190.7v15Z" class="g0_148"/>
<path fill-rule="evenodd" d="M190.7,684.1H430.9v-15H190.7v15Z" class="g0_148"/>
<path fill-rule="evenodd" d="M190.7,699.2H430.9V684.1H190.7v15.1Z" class="g0_148"/>
<path fill-rule="evenodd" d="M190.7,714.2H430.5v-15H190.7v15Z" class="g0_148"/>
<path fill-rule="evenodd" d="M190.7,729.2H430.5v-15H190.7v15Z" class="g0_148"/>
<path fill-rule="evenodd" d="M190.7,744.3H430.5V729.2H190.7v15.1Z" class="g0_148"/>
<path fill-rule="evenodd" d="M190.7,759.3H430.5v-15H190.7v15Z" class="g0_148"/>
<path fill-rule="evenodd" d="M190.7,774.3H430.2v-15H190.7v15Z" class="g0_148"/>
<path fill-rule="evenodd" d="M190.7,789.4H430.2V774.3H190.7v15.1Z" class="g0_148"/>
<path fill-rule="evenodd" d="M190.7,804.6H430.2V789.4H190.7v15.2Z" class="g0_148"/>
<path fill-rule="evenodd" d="M190.7,819.6H430.2v-15H190.7v15Z" class="g0_148"/>
<path fill-rule="evenodd" d="M190.7,834.7H430.2V819.6H190.7v15.1Z" class="g0_148"/>
<path fill-rule="evenodd" d="M190.7,849.7H430.2v-15H190.7v15Z" class="g0_148"/>
<path fill-rule="evenodd" d="M190.7,864.8H430.2V849.7H190.7v15.1Z" class="g0_148"/>
<path fill-rule="evenodd" d="M191.1,879.8H429.8v-15H191.1v15Z" class="g0_148"/>
<path fill-rule="evenodd" d="M191.1,894.8H429.8v-15H191.1v15Z" class="g0_148"/>
<path fill-rule="evenodd" d="M192.2,909.9H431.6V894.8H192.2v15.1Z" class="g0_148"/>
<path fill-rule="evenodd" d="M452.2,215.6H692.4v-15H452.2v15Z" class="g0_148"/>
<path fill-rule="evenodd" d="M452.2,230.7H692.4V215.6H452.2v15.1Z" class="g0_148"/>
<path fill-rule="evenodd" d="M452.2,245.7H692.8v-15H452.2v15Z" class="g0_148"/>
<path fill-rule="evenodd" d="M452.2,260.7H692.8v-15H452.2v15Z" class="g0_148"/>
<path fill-rule="evenodd" d="M452.2,275.9H692.8V260.7H452.2v15.2Z" class="g0_148"/>
<path fill-rule="evenodd" d="M452.2,291H692.8V275.9H452.2V291Z" class="g0_148"/>
<path fill-rule="evenodd" d="M452.2,306H692.4V291H452.2v15Z" class="g0_148"/>
<path fill-rule="evenodd" d="M452.2,321H692.4V306H452.2v15Z" class="g0_148"/>
<path fill-rule="evenodd" d="M452.2,336.1H692.4V321H452.2v15.1Z" class="g0_148"/>
<path fill-rule="evenodd" d="M452.2,351.1H692.4v-15H452.2v15Z" class="g0_148"/>
<path fill-rule="evenodd" d="M452.2,366.2H692.4V351.1H452.2v15.1Z" class="g0_148"/>
<path fill-rule="evenodd" d="M452.2,381.2H692.4v-15H452.2v15Z" class="g0_148"/>
<path fill-rule="evenodd" d="M452.2,396.3H692.4V381.2H452.2v15.1Z" class="g0_148"/>
<path fill-rule="evenodd" d="M451.8,411.3H692v-15H451.8v15Z" class="g0_148"/>
<path fill-rule="evenodd" d="M451.8,426.3H692v-15H451.8v15Z" class="g0_148"/>
<path fill-rule="evenodd" d="M451.8,441.5H692.4V426.3H451.8v15.2Z" class="g0_148"/>
<path fill-rule="evenodd" d="M451.8,456.6H692.4V441.5H451.8v15.1Z" class="g0_148"/>
<path fill-rule="evenodd" d="M451.8,471.6H692.4v-15H451.8v15Z" class="g0_148"/>
<path fill-rule="evenodd" d="M451.8,486.6H692.4v-15H451.8v15Z" class="g0_148"/>
<path fill-rule="evenodd" d="M451.8,501.7H691.7V486.6H451.8v15.1Z" class="g0_148"/>
<path fill-rule="evenodd" d="M451.8,516.7H691.7v-15H451.8v15Z" class="g0_148"/>
<path fill-rule="evenodd" d="M451.5,531.7H691.7v-15H451.5v15Z" class="g0_148"/>
<path fill-rule="evenodd" d="M451.5,546.8H691.7V531.7H451.5v15.1Z" class="g0_148"/>
<path fill-rule="evenodd" d="M451.5,561.8H691.7v-15H451.5v15Z" class="g0_148"/>
<path fill-rule="evenodd" d="M451.5,576.8H691.7v-15H451.5v15Z" class="g0_148"/>
<path fill-rule="evenodd" d="M451.8,591.9H691.7V576.8H451.8v15.1Z" class="g0_148"/>
<path fill-rule="evenodd" d="M451.8,606.9H691.7v-15H451.8v15Z" class="g0_148"/>
<path fill-rule="evenodd" d="M451.5,622.2H691.3V606.9H451.5v15.3Z" class="g0_148"/>
<path fill-rule="evenodd" d="M451.5,637.2H691.3v-15H451.5v15Z" class="g0_148"/>
<path fill-rule="evenodd" d="M451.5,652.2H691.3v-15H451.5v15Z" class="g0_148"/>
<path fill-rule="evenodd" d="M451.5,667.3H691.7V652.2H451.5v15.1Z" class="g0_148"/>
<path fill-rule="evenodd" d="M451.5,682.3H691.7v-15H451.5v15Z" class="g0_148"/>
<path fill-rule="evenodd" d="M451.5,697.3H690.9v-15H451.5v15Z" class="g0_148"/>
<path fill-rule="evenodd" d="M451.5,712.4H690.9V697.3H451.5v15.1Z" class="g0_148"/>
<path fill-rule="evenodd" d="M469.4,727.4H692.8v-15H469.4v15Z" class="g0_148"/>
<path fill-rule="evenodd" d="M469.4,742.4H692.8v-15H469.4v15Z" class="g0_148"/>
<path fill-rule="evenodd" d="M451.1,757.5H691.7V742.4H451.1v15.1Z" class="g0_148"/>
<path fill-rule="evenodd" d="M451.1,772.5H691.7v-15H451.1v15Z" class="g0_148"/>
<path fill-rule="evenodd" d="M451.1,787.5H691.7v-15H451.1v15Z" class="g0_148"/>
<path fill-rule="evenodd" d="M451.1,802.7H691.3V787.5H451.1v15.2Z" class="g0_148"/>
<path fill-rule="evenodd" d="M451.1,817.8H691.3V802.7H451.1v15.1Z" class="g0_148"/>
<path fill-rule="evenodd" d="M451.1,832.9H691.3V817.8H451.1v15.1Z" class="g0_148"/>
<path fill-rule="evenodd" d="M451.1,847.9H691.3v-15H451.1v15Z" class="g0_148"/>
<path fill-rule="evenodd" d="M450.7,862.9H691.3v-15H450.7v15Z" class="g0_148"/>
<path fill-rule="evenodd" d="M450.7,878H691.3V862.9H450.7V878Z" class="g0_148"/>
<path fill-rule="evenodd" d="M450.7,893H691.3V878H450.7v15Z" class="g0_148"/>
<path fill-rule="evenodd" d="M428.3,925.6H692.8V908H428.3v17.6Z" class="g0_148"/>
<path d="M439.6,200.2V914.5" class="g1_148"/>
</svg>