<?xml version="1.0" encoding="UTF-8" standalone="no"?>
<!DOCTYPE svg PUBLIC "-//W3C//DTD SVG 1.1//EN"
"http://www.w3.org/Graphics/SVG/1.1/DTD/svg11.dtd">
<svg viewBox="0 0 909 1285" version="1.1" xmlns="http://www.w3.org/2000/svg" xmlns:xlink="http://www.w3.org/1999/xlink">
<defs>
<style type="text/css"><![CDATA[
.g0_107{
fill: #FFFFFF;
}
.g1_107{
fill: none;
stroke: #000000;
stroke-width: 0.381;
stroke-linecap: butt;
stroke-linejoin: round;
}
.g2_107{
fill: none;
stroke: #000000;
stroke-width: 2.215;
stroke-linecap: butt;
stroke-linejoin: round;
}
]]></style>
</defs>
<path fill-rule="evenodd" d="M260.5,125.8H758.2V110H260.5v15.8Z" class="g0_107"/>
<path fill-rule="evenodd" d="M260.5,159.9H499.3V145.2H260.5v14.7Z" class="g0_107"/>
<path fill-rule="evenodd" d="M260.5,174.6H499.3V159.9H260.5v14.7Z" class="g0_107"/>
<path fill-rule="evenodd" d="M260.2,189.6h238V174.9h-238v14.7Z" class="g0_107"/>
<path fill-rule="evenodd" d="M260.2,204.3h238V189.6h-238v14.7Z" class="g0_107"/>
<path fill-rule="evenodd" d="M260.2,218.9H499V204.3H260.2v14.6Z" class="g0_107"/>
<path fill-rule="evenodd" d="M260.2,233.6H499V218.9H260.2v14.7Z" class="g0_107"/>
<path fill-rule="evenodd" d="M259.8,248.6H498.6V234H259.8v14.6Z" class="g0_107"/>
<path fill-rule="evenodd" d="M259.8,263.3H498.6V248.6H259.8v14.7Z" class="g0_107"/>
<path fill-rule="evenodd" d="M259.8,278H498.6V263.3H259.8V278Z" class="g0_107"/>
<path fill-rule="evenodd" d="M259.8,292.6H498.6V278H259.8v14.6Z" class="g0_107"/>
<path fill-rule="evenodd" d="M259.4,307.7H498.6V293H259.4v14.7Z" class="g0_107"/>
<path fill-rule="evenodd" d="M259.4,322.3H498.6V307.7H259.4v14.6Z" class="g0_107"/>
<path fill-rule="evenodd" d="M259.4,337H498.6V322.3H259.4V337Z" class="g0_107"/>
<path fill-rule="evenodd" d="M259.4,351.7H498.6V337H259.4v14.7Z" class="g0_107"/>
<path fill-rule="evenodd" d="M259.4,366.4H498.6V351.7H259.4v14.7Z" class="g0_107"/>
<path fill-rule="evenodd" d="M259.4,381.4H498.6v-15H259.4v15Z" class="g0_107"/>
<path fill-rule="evenodd" d="M259.4,396.1H498.6V381.4H259.4v14.7Z" class="g0_107"/>
<path fill-rule="evenodd" d="M259.4,410.7H498.6V396.1H259.4v14.6Z" class="g0_107"/>
<path fill-rule="evenodd" d="M259.4,426H498.6V410.7H259.4V426Z" class="g0_107"/>
<path fill-rule="evenodd" d="M259.4,440.6H498.6V426H259.4v14.6Z" class="g0_107"/>
<path fill-rule="evenodd" d="M259.4,455.3H498.6V440.6H259.4v14.7Z" class="g0_107"/>
<path fill-rule="evenodd" d="M259.4,470H498.6V455.3H259.4V470Z" class="g0_107"/>
<path fill-rule="evenodd" d="M259.1,485H498.2V470.3H259.1V485Z" class="g0_107"/>
<path fill-rule="evenodd" d="M259.1,499.7H498.2V485H259.1v14.7Z" class="g0_107"/>
<path fill-rule="evenodd" d="M259.1,514.3H498.2V499.7H259.1v14.6Z" class="g0_107"/>
<path fill-rule="evenodd" d="M259.1,529H498.2V514.3H259.1V529Z" class="g0_107"/>
<path fill-rule="evenodd" d="M259.8,544H497.9V529.4H259.8V544Z" class="g0_107"/>
<path fill-rule="evenodd" d="M259.8,558.7H497.9V544H259.8v14.7Z" class="g0_107"/>
<path fill-rule="evenodd" d="M258.7,573.4H498.2V558.7H258.7v14.7Z" class="g0_107"/>
<path fill-rule="evenodd" d="M258.7,588H498.2V573.4H258.7V588Z" class="g0_107"/>
<path fill-rule="evenodd" d="M258.3,602.7H497.9V588H258.3v14.7Z" class="g0_107"/>
<path fill-rule="evenodd" d="M258.3,617.4H497.9V602.7H258.3v14.7Z" class="g0_107"/>
<path fill-rule="evenodd" d="M258.3,632.1H497.9V617.4H258.3v14.7Z" class="g0_107"/>
<path fill-rule="evenodd" d="M258.3,646.7H497.9V632.1H258.3v14.6Z" class="g0_107"/>
<path fill-rule="evenodd" d="M277.1,661.8H499.3V647.1H277.1v14.7Z" class="g0_107"/>
<path fill-rule="evenodd" d="M258.3,676.8H497.5V662.1H258.3v14.7Z" class="g0_107"/>
<path fill-rule="evenodd" d="M258.3,691.5H497.5V676.8H258.3v14.7Z" class="g0_107"/>
<path fill-rule="evenodd" d="M258.3,706.1H497.5V691.5H258.3v14.6Z" class="g0_107"/>
<path fill-rule="evenodd" d="M258.3,720.8H497.5V706.1H258.3v14.7Z" class="g0_107"/>
<path fill-rule="evenodd" d="M258.3,735.5H497.5V720.8H258.3v14.7Z" class="g0_107"/>
<path fill-rule="evenodd" d="M258.3,750.1H497.5V735.5H258.3v14.6Z" class="g0_107"/>
<path fill-rule="evenodd" d="M258.3,765.2H497.5V750.1H258.3v15.1Z" class="g0_107"/>
<path fill-rule="evenodd" d="M258.3,779.8H497.5V765.2H258.3v14.6Z" class="g0_107"/>
<path fill-rule="evenodd" d="M258.3,794.9H497.1V780.2H258.3v14.7Z" class="g0_107"/>
<path fill-rule="evenodd" d="M258.3,809.5H497.1V794.9H258.3v14.6Z" class="g0_107"/>
<path fill-rule="evenodd" d="M258.3,824.2H497.1V809.5H258.3v14.7Z" class="g0_107"/>
<path fill-rule="evenodd" d="M258,838.9H497.5V824.2H258v14.7Z" class="g0_107"/>
<path fill-rule="evenodd" d="M258,853.6H497.5V838.9H258v14.7Z" class="g0_107"/>
<path fill-rule="evenodd" d="M258,868.2H497.5V853.6H258v14.6Z" class="g0_107"/>
<path fill-rule="evenodd" d="M258,882.9H497.5V868.2H258v14.7Z" class="g0_107"/>
<path fill-rule="evenodd" d="M260.9,897.6H499.3V882.9H260.9v14.7Z" class="g0_107"/>
<path fill-rule="evenodd" d="M519.1,160.3H758.2V145.6H519.1v14.7Z" class="g0_107"/>
<path fill-rule="evenodd" d="M519.1,174.9H758.2V160.3H519.1v14.6Z" class="g0_107"/>
<path fill-rule="evenodd" d="M519.1,189.6H758.2V174.9H519.1v14.7Z" class="g0_107"/>
<path fill-rule="evenodd" d="M519.1,204.3H758.2V189.6H519.1v14.7Z" class="g0_107"/>
<path fill-rule="evenodd" d="M519.1,218.9H758.2V204.3H519.1v14.6Z" class="g0_107"/>
<path fill-rule="evenodd" d="M519.1,233.6H757.9V218.9H519.1v14.7Z" class="g0_107"/>
<path fill-rule="evenodd" d="M519.1,248.3H757.9V233.6H519.1v14.7Z" class="g0_107"/>
<path fill-rule="evenodd" d="M519.1,262.9H757.9V248.3H519.1v14.6Z" class="g0_107"/>
<path fill-rule="evenodd" d="M537.1,278H758.2V263.3H537.1V278Z" class="g0_107"/>
<path fill-rule="evenodd" d="M518.8,293H757.5V278.3H518.8V293Z" class="g0_107"/>
<path fill-rule="evenodd" d="M518.8,307.7H757.5V293H518.8v14.7Z" class="g0_107"/>
<path fill-rule="evenodd" d="M518.8,322.3H757.5V307.7H518.8v14.6Z" class="g0_107"/>
<path fill-rule="evenodd" d="M519.1,337h238V322.3h-238V337Z" class="g0_107"/>
<path fill-rule="evenodd" d="M519.1,351.7h238V337h-238v14.7Z" class="g0_107"/>
<path fill-rule="evenodd" d="M518.4,366.7H757.5V352H518.4v14.7Z" class="g0_107"/>
<path fill-rule="evenodd" d="M518.4,381.4H757.5V366.7H518.4v14.7Z" class="g0_107"/>
<path fill-rule="evenodd" d="M518.4,396.1H757.5V381.4H518.4v14.7Z" class="g0_107"/>
<path fill-rule="evenodd" d="M537.1,411.3H758.2V396.4H537.1v14.9Z" class="g0_107"/>
<path fill-rule="evenodd" d="M518.4,426H757.5V411.3H518.4V426Z" class="g0_107"/>
<path fill-rule="evenodd" d="M518.4,440.6H757.5V426H518.4v14.6Z" class="g0_107"/>
<path fill-rule="evenodd" d="M519.1,455.3H756.8V440.6H519.1v14.7Z" class="g0_107"/>
<path fill-rule="evenodd" d="M519.1,470H756.8V455.3H519.1V470Z" class="g0_107"/>
<path fill-rule="evenodd" d="M518,484.6H757.5V470H518v14.6Z" class="g0_107"/>
<path fill-rule="evenodd" d="M518,499.3H757.5V484.6H518v14.7Z" class="g0_107"/>
<path fill-rule="evenodd" d="M518,514H757.5V499.3H518V514Z" class="g0_107"/>
<path fill-rule="evenodd" d="M518,528.6H757.5V514H518v14.6Z" class="g0_107"/>
<path fill-rule="evenodd" d="M518,543.3H757.5V528.6H518v14.7Z" class="g0_107"/>
<path fill-rule="evenodd" d="M518,558H757.5V543.3H518V558Z" class="g0_107"/>
<path fill-rule="evenodd" d="M518,572.6H757.5V558H518v14.6Z" class="g0_107"/>
<path fill-rule="evenodd" d="M518,587.3H757.5V572.6H518v14.7Z" class="g0_107"/>
<path fill-rule="evenodd" d="M518.4,602.4H756V587.7H518.4v14.7Z" class="g0_107"/>
<path fill-rule="evenodd" d="M518.4,617H756V602.4H518.4V617Z" class="g0_107"/>
<path fill-rule="evenodd" d="M518,631.7H756.4V617H518v14.7Z" class="g0_107"/>
<path fill-rule="evenodd" d="M518,646.4H756.4V631.7H518v14.7Z" class="g0_107"/>
<path fill-rule="evenodd" d="M517.7,661.4H756.8V646.7H517.7v14.7Z" class="g0_107"/>
<path fill-rule="evenodd" d="M517.7,676.1H756.8V661.4H517.7v14.7Z" class="g0_107"/>
<path fill-rule="evenodd" d="M517.7,690.7H756.8V676.1H517.7v14.6Z" class="g0_107"/>
<path fill-rule="evenodd" d="M517.7,705.8H756.8V690.7H517.7v15.1Z" class="g0_107"/>
<path fill-rule="evenodd" d="M517.7,720.4H756.8V705.8H517.7v14.6Z" class="g0_107"/>
<path fill-rule="evenodd" d="M517.7,735.1H756.8V720.4H517.7v14.7Z" class="g0_107"/>
<path fill-rule="evenodd" d="M517.3,750.1H756.4V735.5H517.3v14.6Z" class="g0_107"/>
<path fill-rule="evenodd" d="M517.3,764.8H756.4V750.1H517.3v14.7Z" class="g0_107"/>
<path fill-rule="evenodd" d="M517.3,779.5H756.4V764.8H517.3v14.7Z" class="g0_107"/>
<path fill-rule="evenodd" d="M517.3,794.1H756.4V779.5H517.3v14.6Z" class="g0_107"/>
<path fill-rule="evenodd" d="M516.2,809.2H756.4V794.5H516.2v14.7Z" class="g0_107"/>
<path fill-rule="evenodd" d="M516.2,823.8H756.4V809.2H516.2v14.6Z" class="g0_107"/>
<path fill-rule="evenodd" d="M516.2,838.5H756.4V823.8H516.2v14.7Z" class="g0_107"/>
<path fill-rule="evenodd" d="M517.3,853.6H756.4V838.9H517.3v14.7Z" class="g0_107"/>
<path fill-rule="evenodd" d="M517.3,868.2H756.4V853.6H517.3v14.6Z" class="g0_107"/>
<path fill-rule="evenodd" d="M517.3,882.9H756.4V868.2H517.3v14.7Z" class="g0_107"/>
<path fill-rule="evenodd" d="M517.3,897.6H756.4V882.9H517.3v14.7Z" class="g0_107"/>
<path fill-rule="evenodd" d="M495.3,929.5H758.2V911.9H495.3v17.6Z" class="g0_107"/>
<path d="M190.1,117.7v33.8m9.2,-38.2V460.5m2.6,-347.6V421.7" class="g1_107"/>
<path d="M178.4,135V344.7" class="g2_107"/>
<path d="M190.1,212V345.8m10.3,-50.3V619.7m1.1,171.9V961.4m.4,-456.1V610.9m305,-464.6V914.5" class="g1_107"/>
</svg>