<?xml version="1.0" encoding="UTF-8" standalone="no"?>
<!DOCTYPE svg PUBLIC "-//W3C//DTD SVG 1.1//EN"
"http://www.w3.org/Graphics/SVG/1.1/DTD/svg11.dtd">
<svg viewBox="0 0 909 1285" version="1.1" xmlns="http://www.w3.org/2000/svg" xmlns:xlink="http://www.w3.org/1999/xlink">
<defs>
<style type="text/css"><![CDATA[
.g0_270{
fill: #FFFFFF;
}
.g1_270{
fill: none;
stroke: #000000;
stroke-width: 0.381;
stroke-linecap: butt;
stroke-linejoin: round;
}
]]></style>
</defs>
<path fill-rule="evenodd" d="M527.2,125.8H683.1V110H527.2v15.8Z" class="g0_270"/>
<path fill-rule="evenodd" d="M185.4,160.3H370.9V145.2H185.4v15.1Z" class="g0_270"/>
<path fill-rule="evenodd" d="M185.4,175.3H370.9v-15H185.4v15Z" class="g0_270"/>
<path fill-rule="evenodd" d="M185,190.3H423.7v-15H185v15Z" class="g0_270"/>
<path fill-rule="evenodd" d="M185,205.4H423.7V190.3H185v15.1Z" class="g0_270"/>
<path fill-rule="evenodd" d="M185,220.4H423.7v-15H185v15Z" class="g0_270"/>
<path fill-rule="evenodd" d="M185,235.6H423.7V220.4H185v15.2Z" class="g0_270"/>
<path fill-rule="evenodd" d="M185,250.6H423.7v-15H185v15Z" class="g0_270"/>
<path fill-rule="evenodd" d="M185,265.7H423.7V250.6H185v15.1Z" class="g0_270"/>
<path fill-rule="evenodd" d="M185,280.7H423.4v-15H185v15Z" class="g0_270"/>
<path fill-rule="evenodd" d="M185,295.7H423.4v-15H185v15Z" class="g0_270"/>
<path fill-rule="evenodd" d="M185,310.8H423.4V295.7H185v15.1Z" class="g0_270"/>
<path fill-rule="evenodd" d="M185,325.8H423.4v-15H185v15Z" class="g0_270"/>
<path fill-rule="evenodd" d="M185,340.8H423.4v-15H185v15Z" class="g0_270"/>
<path fill-rule="evenodd" d="M185,355.9H423.4v-15H185v15Z" class="g0_270"/>
<path fill-rule="evenodd" d="M185,371H423.4V355.9H185V371Z" class="g0_270"/>
<path fill-rule="evenodd" d="M185,386H423.4V371H185v15Z" class="g0_270"/>
<path fill-rule="evenodd" d="M185,401.2H423.4V386H185v15.2Z" class="g0_270"/>
<path fill-rule="evenodd" d="M184.3,416.2H423v-15H184.3v15Z" class="g0_270"/>
<path fill-rule="evenodd" d="M184.3,431.3H423V416.2H184.3v15.1Z" class="g0_270"/>
<path fill-rule="evenodd" d="M184.3,446.3H423v-15H184.3v15Z" class="g0_270"/>
<path fill-rule="evenodd" d="M184.3,461.3H423v-15H184.3v15Z" class="g0_270"/>
<path fill-rule="evenodd" d="M184.3,476.4H423V461.3H184.3v15.1Z" class="g0_270"/>
<path fill-rule="evenodd" d="M184.3,491.4H423v-15H184.3v15Z" class="g0_270"/>
<path fill-rule="evenodd" d="M184.3,506.4H423v-15H184.3v15Z" class="g0_270"/>
<path fill-rule="evenodd" d="M184.3,521.5H423V506.4H184.3v15.1Z" class="g0_270"/>
<path fill-rule="evenodd" d="M183.9,536.5H423.7v-15H183.9v15Z" class="g0_270"/>
<path fill-rule="evenodd" d="M183.9,551.5H423.7v-15H183.9v15Z" class="g0_270"/>
<path fill-rule="evenodd" d="M183.9,566.6H423.7V551.5H183.9v15.1Z" class="g0_270"/>
<path fill-rule="evenodd" d="M183.9,581.8H423.7V566.6H183.9v15.2Z" class="g0_270"/>
<path fill-rule="evenodd" d="M183.9,596.9H423.7V581.8H183.9v15.1Z" class="g0_270"/>
<path fill-rule="evenodd" d="M183.9,611.9H423.7v-15H183.9v15Z" class="g0_270"/>
<path fill-rule="evenodd" d="M183.9,626.9H423.7v-15H183.9v15Z" class="g0_270"/>
<path fill-rule="evenodd" d="M183.5,642H423.7V626.9H183.5V642Z" class="g0_270"/>
<path fill-rule="evenodd" d="M183.5,657H423.7V642H183.5v15Z" class="g0_270"/>
<path fill-rule="evenodd" d="M183.5,672H423.7V657H183.5v15Z" class="g0_270"/>
<path fill-rule="evenodd" d="M183.5,687.1H423.7V672H183.5v15.1Z" class="g0_270"/>
<path fill-rule="evenodd" d="M183.5,702.1H423.7v-15H183.5v15Z" class="g0_270"/>
<path fill-rule="evenodd" d="M183.5,717.1H423.7v-15H183.5v15Z" class="g0_270"/>
<path fill-rule="evenodd" d="M183.2,732.2H421.9V717.1H183.2v15.1Z" class="g0_270"/>
<path fill-rule="evenodd" d="M183.2,747.2H421.9v-15H183.2v15Z" class="g0_270"/>
<path fill-rule="evenodd" d="M183.2,762.4H421.9V747.2H183.2v15.2Z" class="g0_270"/>
<path fill-rule="evenodd" d="M183.2,777.4H421.9v-15H183.2v15Z" class="g0_270"/>
<path fill-rule="evenodd" d="M183.2,792.5H421.9V777.4H183.2v15.1Z" class="g0_270"/>
<path fill-rule="evenodd" d="M183.2,807.5H421.9v-15H183.2v15Z" class="g0_270"/>
<path fill-rule="evenodd" d="M183.2,822.5H421.9v-15H183.2v15Z" class="g0_270"/>
<path fill-rule="evenodd" d="M182.8,837.6H421.5V822.5H182.8v15.1Z" class="g0_270"/>
<path fill-rule="evenodd" d="M182.8,852.7H421.5V837.6H182.8v15.1Z" class="g0_270"/>
<path fill-rule="evenodd" d="M182.8,867.7H421.5v-15H182.8v15Z" class="g0_270"/>
<path fill-rule="evenodd" d="M185.4,882.4H344.5V867.7H185.4v14.7Z" class="g0_270"/>
<path fill-rule="evenodd" d="M444.3,160.3H603.5V145.6H444.3v14.7Z" class="g0_270"/>
<path fill-rule="evenodd" d="M444.3,174.9H603.5V160.3H444.3v14.6Z" class="g0_270"/>
<path fill-rule="evenodd" d="M444.3,190H682.7V175.3H444.3V190Z" class="g0_270"/>
<path fill-rule="evenodd" d="M444.3,204.6H682.7V190H444.3v14.6Z" class="g0_270"/>
<path fill-rule="evenodd" d="M444.3,219.3H603.5V204.6H444.3v14.7Z" class="g0_270"/>
<path fill-rule="evenodd" d="M444.3,234H603.5V219.3H444.3V234Z" class="g0_270"/>
<path fill-rule="evenodd" d="M442.5,248.6H682.7V234H442.5v14.6Z" class="g0_270"/>
<path fill-rule="evenodd" d="M442.5,263.3H682.7V248.6H442.5v14.7Z" class="g0_270"/>
<path fill-rule="evenodd" d="M442.5,278H682.7V263.3H442.5V278Z" class="g0_270"/>
<path fill-rule="evenodd" d="M442.5,292.6H682.7V278H442.5v14.6Z" class="g0_270"/>
<path fill-rule="evenodd" d="M442.5,307.3H682.7V292.6H442.5v14.7Z" class="g0_270"/>
<path fill-rule="evenodd" d="M442.5,322H682.7V307.3H442.5V322Z" class="g0_270"/>
<path fill-rule="evenodd" d="M442.5,336.6H682.7V322H442.5v14.6Z" class="g0_270"/>
<path fill-rule="evenodd" d="M443.6,351.7H603.5V337H443.6v14.7Z" class="g0_270"/>
<path fill-rule="evenodd" d="M443.6,366.4H603.5V351.7H443.6v14.7Z" class="g0_270"/>
<path fill-rule="evenodd" d="M442.8,381H682.3V366.4H442.8V381Z" class="g0_270"/>
<path fill-rule="evenodd" d="M442.8,395.7H682.3V381H442.8v14.7Z" class="g0_270"/>
<path fill-rule="evenodd" d="M442.8,410.4H682.3V395.7H442.8v14.7Z" class="g0_270"/>
<path fill-rule="evenodd" d="M443.2,425.4H603.5V410.7H443.2v14.7Z" class="g0_270"/>
<path fill-rule="evenodd" d="M443.2,440.1H603.5V425.4H443.2v14.7Z" class="g0_270"/>
<path fill-rule="evenodd" d="M443.2,455.3H682.7V440.4H443.2v14.9Z" class="g0_270"/>
<path fill-rule="evenodd" d="M443.2,470H682.7V455.3H443.2V470Z" class="g0_270"/>
<path fill-rule="evenodd" d="M443.2,484.6H682.7V470H443.2v14.6Z" class="g0_270"/>
<path fill-rule="evenodd" d="M443.2,499.3H682.7V484.6H443.2v14.7Z" class="g0_270"/>
<path fill-rule="evenodd" d="M442.8,514H682.7V499.3H442.8V514Z" class="g0_270"/>
<path fill-rule="evenodd" d="M442.8,528.6H682.7V514H442.8v14.6Z" class="g0_270"/>
<path fill-rule="evenodd" d="M442.8,543.3H682.7V528.6H442.8v14.7Z" class="g0_270"/>
<path fill-rule="evenodd" d="M442.8,558H682.7V543.3H442.8V558Z" class="g0_270"/>
<path fill-rule="evenodd" d="M441.7,572.6H681.2V558H441.7v14.6Z" class="g0_270"/>
<path fill-rule="evenodd" d="M441.7,587.3H681.2V572.6H441.7v14.7Z" class="g0_270"/>
<path fill-rule="evenodd" d="M441.7,602H681.2V587.3H441.7V602Z" class="g0_270"/>
<path fill-rule="evenodd" d="M441.7,616.7H681.2V602H441.7v14.7Z" class="g0_270"/>
<path fill-rule="evenodd" d="M442.5,632.1h161V617.4h-161v14.7Z" class="g0_270"/>
<path fill-rule="evenodd" d="M442.5,646.7h161V632.1h-161v14.6Z" class="g0_270"/>
<path fill-rule="evenodd" d="M442.1,661.4H682.7V646.7H442.1v14.7Z" class="g0_270"/>
<path fill-rule="evenodd" d="M442.1,676.1H682.7V661.4H442.1v14.7Z" class="g0_270"/>
<path fill-rule="evenodd" d="M442.1,690.7H682.7V676.1H442.1v14.6Z" class="g0_270"/>
<path fill-rule="evenodd" d="M442.1,705.4H682.7V690.7H442.1v14.7Z" class="g0_270"/>
<path fill-rule="evenodd" d="M442.1,720.1H682.7V705.4H442.1v14.7Z" class="g0_270"/>
<path fill-rule="evenodd" d="M442.1,734.7H682.7V720.1H442.1v14.6Z" class="g0_270"/>
<path fill-rule="evenodd" d="M441.7,749.4H681.2V734.7H441.7v14.7Z" class="g0_270"/>
<path fill-rule="evenodd" d="M441.7,764.1H681.2V749.4H441.7v14.7Z" class="g0_270"/>
<path fill-rule="evenodd" d="M441.7,778.7H681.2V764.1H441.7v14.6Z" class="g0_270"/>
<path fill-rule="evenodd" d="M441.7,793.4H681.2V778.7H441.7v14.7Z" class="g0_270"/>
<path fill-rule="evenodd" d="M441.7,808.1H681.2V793.4H441.7v14.7Z" class="g0_270"/>
<path fill-rule="evenodd" d="M442.1,823.5H629.9V808.8H442.1v14.7Z" class="g0_270"/>
<path fill-rule="evenodd" d="M442.1,838.2H629.9V823.5H442.1v14.7Z" class="g0_270"/>
<path fill-rule="evenodd" d="M185.4,894.5h59.4V882H185.4v12.5Z" class="g0_270"/>
<path fill-rule="evenodd" d="M185.4,911.9h59.4V894.5H185.4v17.4Z" class="g0_270"/>
<path fill-rule="evenodd" d="M418.6,900h59.5V882.4H418.6V900Z" class="g0_270"/>
<path d="M431,144.5V913.4" class="g1_270"/>
</svg>