<?xml version="1.0" encoding="UTF-8" standalone="no"?>
<!DOCTYPE svg PUBLIC "-//W3C//DTD SVG 1.1//EN"
"http://www.w3.org/Graphics/SVG/1.1/DTD/svg11.dtd">
<svg viewBox="0 0 909 1285" version="1.1" xmlns="http://www.w3.org/2000/svg" xmlns:xlink="http://www.w3.org/1999/xlink">
<defs>
<style type="text/css"><![CDATA[
.g0_329{
fill: #FFFFFF;
}
.g1_329{
fill: none;
stroke: #000000;
stroke-width: 3.284;
stroke-linecap: butt;
stroke-linejoin: round;
}
.g2_329{
fill: none;
stroke: #000000;
stroke-width: 0.381;
stroke-linecap: butt;
stroke-linejoin: round;
}
]]></style>
</defs>
<path fill-rule="evenodd" d="M263.7,125.8H765V110H263.7v15.8Z" class="g0_329"/>
<path fill-rule="evenodd" d="M263.3,161.7h241v-15h-241v15Z" class="g0_329"/>
<path fill-rule="evenodd" d="M263.3,176.9h241V161.7h-241v15.2Z" class="g0_329"/>
<path fill-rule="evenodd" d="M263.3,192h241V176.9h-241V192Z" class="g0_329"/>
<path fill-rule="evenodd" d="M263.3,207h241V192h-241v15Z" class="g0_329"/>
<path fill-rule="evenodd" d="M263.3,222h241V207h-241v15Z" class="g0_329"/>
<path fill-rule="evenodd" d="M263.7,237.1H503.9V222H263.7v15.1Z" class="g0_329"/>
<path fill-rule="evenodd" d="M263.7,252.1H503.9v-15H263.7v15Z" class="g0_329"/>
<path fill-rule="evenodd" d="M263.3,267.1H503.5v-15H263.3v15Z" class="g0_329"/>
<path fill-rule="evenodd" d="M263.3,282.2H503.5V267.1H263.3v15.1Z" class="g0_329"/>
<path fill-rule="evenodd" d="M263.3,297.2H503.5v-15H263.3v15Z" class="g0_329"/>
<path fill-rule="evenodd" d="M263.3,312.2H503.5v-15H263.3v15Z" class="g0_329"/>
<path fill-rule="evenodd" d="M263.3,327.3H503.9V312.2H263.3v15.1Z" class="g0_329"/>
<path fill-rule="evenodd" d="M263.3,342.5H503.9V327.3H263.3v15.2Z" class="g0_329"/>
<path fill-rule="evenodd" d="M263.3,357.6H503.5V342.5H263.3v15.1Z" class="g0_329"/>
<path fill-rule="evenodd" d="M263.3,372.6H503.5v-15H263.3v15Z" class="g0_329"/>
<path fill-rule="evenodd" d="M263.3,387.6H503.5v-15H263.3v15Z" class="g0_329"/>
<path fill-rule="evenodd" d="M263.3,402.7H503.5V387.6H263.3v15.1Z" class="g0_329"/>
<path fill-rule="evenodd" d="M263.3,417.7H503.2v-15H263.3v15Z" class="g0_329"/>
<path fill-rule="evenodd" d="M263.3,432.7H503.2v-15H263.3v15Z" class="g0_329"/>
<path fill-rule="evenodd" d="M262.9,447.8H503.2V432.7H262.9v15.1Z" class="g0_329"/>
<path fill-rule="evenodd" d="M262.9,462.8H503.2v-15H262.9v15Z" class="g0_329"/>
<path fill-rule="evenodd" d="M262.9,477.8H503.2v-15H262.9v15Z" class="g0_329"/>
<path fill-rule="evenodd" d="M262.9,492.9H503.2V477.8H262.9v15.1Z" class="g0_329"/>
<path fill-rule="evenodd" d="M262.9,507.9H503.2v-15H262.9v15Z" class="g0_329"/>
<path fill-rule="evenodd" d="M261.8,523.1H503.2V507.9H261.8v15.2Z" class="g0_329"/>
<path fill-rule="evenodd" d="M261.8,538.2H503.2V523.1H261.8v15.1Z" class="g0_329"/>
<path fill-rule="evenodd" d="M261.8,553.2H503.2v-15H261.8v15Z" class="g0_329"/>
<path fill-rule="evenodd" d="M261.8,568.2H503.2v-15H261.8v15Z" class="g0_329"/>
<path fill-rule="evenodd" d="M261.8,583.3H503.2V568.2H261.8v15.1Z" class="g0_329"/>
<path fill-rule="evenodd" d="M261.8,598.3H503.2v-15H261.8v15Z" class="g0_329"/>
<path fill-rule="evenodd" d="M261.8,613.4H503.2V598.3H261.8v15.1Z" class="g0_329"/>
<path fill-rule="evenodd" d="M261.8,628.4H503.2v-15H261.8v15Z" class="g0_329"/>
<path fill-rule="evenodd" d="M262.2,643.4H502.8v-15H262.2v15Z" class="g0_329"/>
<path fill-rule="evenodd" d="M262.2,658.5H502.8V643.4H262.2v15.1Z" class="g0_329"/>
<path fill-rule="evenodd" d="M262.2,673.5H502.8v-15H262.2v15Z" class="g0_329"/>
<path fill-rule="evenodd" d="M262.2,688.5H502.8v-15H262.2v15Z" class="g0_329"/>
<path fill-rule="evenodd" d="M262.2,703.7H502.8V688.5H262.2v15.2Z" class="g0_329"/>
<path fill-rule="evenodd" d="M262.2,718.8H502.8V703.7H262.2v15.1Z" class="g0_329"/>
<path fill-rule="evenodd" d="M262.2,733.8H502.8v-15H262.2v15Z" class="g0_329"/>
<path fill-rule="evenodd" d="M262.2,748.8H502.8v-15H262.2v15Z" class="g0_329"/>
<path fill-rule="evenodd" d="M262.2,763.9H502.8V748.8H262.2v15.1Z" class="g0_329"/>
<path fill-rule="evenodd" d="M262.2,778.9H502.8v-15H262.2v15Z" class="g0_329"/>
<path fill-rule="evenodd" d="M262.2,793.9H502.8v-15H262.2v15Z" class="g0_329"/>
<path fill-rule="evenodd" d="M262.2,809H502.8V793.9H262.2V809Z" class="g0_329"/>
<path fill-rule="evenodd" d="M261.8,824H502.4V809H261.8v15Z" class="g0_329"/>
<path fill-rule="evenodd" d="M261.8,839.1H502.4V824H261.8v15.1Z" class="g0_329"/>
<path fill-rule="evenodd" d="M261.8,854.1H502.4v-15H261.8v15Z" class="g0_329"/>
<path fill-rule="evenodd" d="M261.8,869.2H502.4V854.1H261.8v15.1Z" class="g0_329"/>
<path fill-rule="evenodd" d="M261.8,884.4H502.4V869.2H261.8v15.2Z" class="g0_329"/>
<path fill-rule="evenodd" d="M265.1,899.4H503.5v-15H265.1v15Z" class="g0_329"/>
<path fill-rule="evenodd" d="M524.8,161.7H764.3v-15H524.8v15Z" class="g0_329"/>
<path fill-rule="evenodd" d="M524.8,176.9H764.3V161.7H524.8v15.2Z" class="g0_329"/>
<path fill-rule="evenodd" d="M524.8,192H764.3V176.9H524.8V192Z" class="g0_329"/>
<path fill-rule="evenodd" d="M524.4,207.4H764.3V192.3H524.4v15.1Z" class="g0_329"/>
<path fill-rule="evenodd" d="M524.4,222.4H764.3v-15H524.4v15Z" class="g0_329"/>
<path fill-rule="evenodd" d="M524.4,237.4H764.6v-15H524.4v15Z" class="g0_329"/>
<path fill-rule="evenodd" d="M524.4,252.5H764.6V237.4H524.4v15.1Z" class="g0_329"/>
<path fill-rule="evenodd" d="M524.1,267.5H763.9v-15H524.1v15Z" class="g0_329"/>
<path fill-rule="evenodd" d="M524.1,282.5H763.9v-15H524.1v15Z" class="g0_329"/>
<path fill-rule="evenodd" d="M524.1,297.6H765V282.5H524.1v15.1Z" class="g0_329"/>
<path fill-rule="evenodd" d="M524.1,312.6H765v-15H524.1v15Z" class="g0_329"/>
<path fill-rule="evenodd" d="M523.7,327.8H763.9V312.6H523.7v15.2Z" class="g0_329"/>
<path fill-rule="evenodd" d="M523.7,342.9H763.9V327.8H523.7v15.1Z" class="g0_329"/>
<path fill-rule="evenodd" d="M523.7,357.9H763.9v-15H523.7v15Z" class="g0_329"/>
<path fill-rule="evenodd" d="M523.7,373.3H763.9V357.9H523.7v15.4Z" class="g0_329"/>
<path fill-rule="evenodd" d="M523.7,388.4H763.9V373.3H523.7v15.1Z" class="g0_329"/>
<path fill-rule="evenodd" d="M523.3,403.4h241v-15h-241v15Z" class="g0_329"/>
<path fill-rule="evenodd" d="M523.3,418.4h241v-15h-241v15Z" class="g0_329"/>
<path fill-rule="evenodd" d="M523.3,433.5h241V418.4h-241v15.1Z" class="g0_329"/>
<path fill-rule="evenodd" d="M523.7,448.5H763.9v-15H523.7v15Z" class="g0_329"/>
<path fill-rule="evenodd" d="M523.7,463.5H763.9v-15H523.7v15Z" class="g0_329"/>
<path fill-rule="evenodd" d="M523.3,478.6H763.5V463.5H523.3v15.1Z" class="g0_329"/>
<path fill-rule="evenodd" d="M523.3,493.8H763.5V478.6H523.3v15.2Z" class="g0_329"/>
<path fill-rule="evenodd" d="M523.3,508.8H763.5v-15H523.3v15Z" class="g0_329"/>
<path fill-rule="evenodd" d="M523.3,523.9H763.5V508.8H523.3v15.1Z" class="g0_329"/>
<path fill-rule="evenodd" d="M523,538.9H763.2v-15H523v15Z" class="g0_329"/>
<path fill-rule="evenodd" d="M523,553.9H763.2v-15H523v15Z" class="g0_329"/>
<path fill-rule="evenodd" d="M522.6,569H763.5V553.9H522.6V569Z" class="g0_329"/>
<path fill-rule="evenodd" d="M522.6,584H763.5V569H522.6v15Z" class="g0_329"/>
<path fill-rule="evenodd" d="M522.6,599.1H763.5V584H522.6v15.1Z" class="g0_329"/>
<path fill-rule="evenodd" d="M522.6,614.1H763.5v-15H522.6v15Z" class="g0_329"/>
<path fill-rule="evenodd" d="M522.6,629.1H763.5v-15H522.6v15Z" class="g0_329"/>
<path fill-rule="evenodd" d="M522.6,644.2H763.5V629.1H522.6v15.1Z" class="g0_329"/>
<path fill-rule="evenodd" d="M522.6,659.2H763.5v-15H522.6v15Z" class="g0_329"/>
<path fill-rule="evenodd" d="M522.6,674.4H763.5V659.2H522.6v15.2Z" class="g0_329"/>
<path fill-rule="evenodd" d="M522.6,689.4H763.5v-15H522.6v15Z" class="g0_329"/>
<path fill-rule="evenodd" d="M522.2,704.5h241V689.4h-241v15.1Z" class="g0_329"/>
<path fill-rule="evenodd" d="M522.2,719.5h241v-15h-241v15Z" class="g0_329"/>
<path fill-rule="evenodd" d="M522.2,734.5h241v-15h-241v15Z" class="g0_329"/>
<path fill-rule="evenodd" d="M522.2,749.6h241V734.5h-241v15.1Z" class="g0_329"/>
<path fill-rule="evenodd" d="M522.6,764.6H763.2v-15H522.6v15Z" class="g0_329"/>
<path fill-rule="evenodd" d="M522.6,779.6H763.2v-15H522.6v15Z" class="g0_329"/>
<path fill-rule="evenodd" d="M522.6,794.7H763.2V779.6H522.6v15.1Z" class="g0_329"/>
<path fill-rule="evenodd" d="M522.6,809.7H763.2v-15H522.6v15Z" class="g0_329"/>
<path fill-rule="evenodd" d="M521.5,824.7H762.8v-15H521.5v15Z" class="g0_329"/>
<path fill-rule="evenodd" d="M521.5,839.8H762.8V824.7H521.5v15.1Z" class="g0_329"/>
<path fill-rule="evenodd" d="M521.5,855H762.8V839.8H521.5V855Z" class="g0_329"/>
<path fill-rule="evenodd" d="M521.9,870.1H763.2V855H521.9v15.1Z" class="g0_329"/>
<path fill-rule="evenodd" d="M521.9,885.1H763.2v-15H521.9v15Z" class="g0_329"/>
<path fill-rule="evenodd" d="M521.9,900.1H763.2v-15H521.9v15Z" class="g0_329"/>
<path fill-rule="evenodd" d="M499.1,932.8H765V915.2H499.1v17.6Z" class="g0_329"/>
<path d="M185.9,126.6v95.7" class="g1_329"/>
<path d="M512.3,147.8V916.7" class="g2_329"/>
</svg>