<?xml version="1.0" encoding="UTF-8" standalone="no"?>
<!DOCTYPE svg PUBLIC "-//W3C//DTD SVG 1.1//EN"
"http://www.w3.org/Graphics/SVG/1.1/DTD/svg11.dtd">
<svg viewBox="0 0 909 1285" version="1.1" xmlns="http://www.w3.org/2000/svg" xmlns:xlink="http://www.w3.org/1999/xlink">
<defs>
<style type="text/css"><![CDATA[
.g0_279{
fill: #FFFFFF;
}
.g1_279{
fill: none;
stroke: #000000;
stroke-width: 0.381;
stroke-linecap: butt;
stroke-linejoin: round;
}
]]></style>
</defs>
<path fill-rule="evenodd" d="M662.7,125.8h59.4V110H662.7v15.8Z" class="g0_279"/>
<path fill-rule="evenodd" d="M186.7,161.7H426.5v-15H186.7v15Z" class="g0_279"/>
<path fill-rule="evenodd" d="M186.7,176.9H426.5V161.7H186.7v15.2Z" class="g0_279"/>
<path fill-rule="evenodd" d="M186.7,192H426.5V176.9H186.7V192Z" class="g0_279"/>
<path fill-rule="evenodd" d="M186.7,207H426.5V192H186.7v15Z" class="g0_279"/>
<path fill-rule="evenodd" d="M186.7,222H426.5V207H186.7v15Z" class="g0_279"/>
<path fill-rule="evenodd" d="M186.7,237.1H426.5V222H186.7v15.1Z" class="g0_279"/>
<path fill-rule="evenodd" d="M186.7,252.1H426.5v-15H186.7v15Z" class="g0_279"/>
<path fill-rule="evenodd" d="M205,267.1H426.5v-15H205v15Z" class="g0_279"/>
<path fill-rule="evenodd" d="M186.7,282.2H426.1V267.1H186.7v15.1Z" class="g0_279"/>
<path fill-rule="evenodd" d="M186.7,297.2H426.1v-15H186.7v15Z" class="g0_279"/>
<path fill-rule="evenodd" d="M186.3,312.2H426.5v-15H186.3v15Z" class="g0_279"/>
<path fill-rule="evenodd" d="M186.3,327.3H426.5V312.2H186.3v15.1Z" class="g0_279"/>
<path fill-rule="evenodd" d="M186.3,342.5H426.5V327.3H186.3v15.2Z" class="g0_279"/>
<path fill-rule="evenodd" d="M186.3,357.6H426.5V342.5H186.3v15.1Z" class="g0_279"/>
<path fill-rule="evenodd" d="M186.3,372.6H426.5v-15H186.3v15Z" class="g0_279"/>
<path fill-rule="evenodd" d="M186.7,387.6H425.8v-15H186.7v15Z" class="g0_279"/>
<path fill-rule="evenodd" d="M186.7,402.7H425.8V387.6H186.7v15.1Z" class="g0_279"/>
<path fill-rule="evenodd" d="M204.6,417.7H426.5v-15H204.6v15Z" class="g0_279"/>
<path fill-rule="evenodd" d="M185.9,432.7H425.8v-15H185.9v15Z" class="g0_279"/>
<path fill-rule="evenodd" d="M185.9,447.8H425.8V432.7H185.9v15.1Z" class="g0_279"/>
<path fill-rule="evenodd" d="M185.9,462.8H425.8v-15H185.9v15Z" class="g0_279"/>
<path fill-rule="evenodd" d="M185.9,477.8H425.8v-15H185.9v15Z" class="g0_279"/>
<path fill-rule="evenodd" d="M185.9,492.9H425.8V477.8H185.9v15.1Z" class="g0_279"/>
<path fill-rule="evenodd" d="M185.9,507.9H425.8v-15H185.9v15Z" class="g0_279"/>
<path fill-rule="evenodd" d="M185.9,523.1H425.8V507.9H185.9v15.2Z" class="g0_279"/>
<path fill-rule="evenodd" d="M185.9,538.2H425.8V523.1H185.9v15.1Z" class="g0_279"/>
<path fill-rule="evenodd" d="M185.9,553.2H425.8v-15H185.9v15Z" class="g0_279"/>
<path fill-rule="evenodd" d="M185.9,568.2H425.8v-15H185.9v15Z" class="g0_279"/>
<path fill-rule="evenodd" d="M185.9,583.3H425.8V568.2H185.9v15.1Z" class="g0_279"/>
<path fill-rule="evenodd" d="M185.6,598.7H425.4V583.6H185.6v15.1Z" class="g0_279"/>
<path fill-rule="evenodd" d="M185.6,613.7H425.4v-15H185.6v15Z" class="g0_279"/>
<path fill-rule="evenodd" d="M185.2,628.8H425V613.7H185.2v15.1Z" class="g0_279"/>
<path fill-rule="evenodd" d="M185.2,643.8H425v-15H185.2v15Z" class="g0_279"/>
<path fill-rule="evenodd" d="M185.2,658.8H425v-15H185.2v15Z" class="g0_279"/>
<path fill-rule="evenodd" d="M185.2,673.9H425V658.8H185.2v15.1Z" class="g0_279"/>
<path fill-rule="evenodd" d="M185.2,689.1H425V673.9H185.2v15.2Z" class="g0_279"/>
<path fill-rule="evenodd" d="M203.9,704.1H426.5v-15H203.9v15Z" class="g0_279"/>
<path fill-rule="evenodd" d="M185.2,719.1H425.4v-15H185.2v15Z" class="g0_279"/>
<path fill-rule="evenodd" d="M185.2,734.2H425.4V719.1H185.2v15.1Z" class="g0_279"/>
<path fill-rule="evenodd" d="M185.2,749.2H425.4v-15H185.2v15Z" class="g0_279"/>
<path fill-rule="evenodd" d="M185.2,764.2H425.4v-15H185.2v15Z" class="g0_279"/>
<path fill-rule="evenodd" d="M185.2,779.3H425.4V764.2H185.2v15.1Z" class="g0_279"/>
<path fill-rule="evenodd" d="M185.2,794.3H425.4v-15H185.2v15Z" class="g0_279"/>
<path fill-rule="evenodd" d="M203.9,809.3H426.5v-15H203.9v15Z" class="g0_279"/>
<path fill-rule="evenodd" d="M185.2,824.4H425.4V809.3H185.2v15.1Z" class="g0_279"/>
<path fill-rule="evenodd" d="M185.2,839.5H425.4V824.4H185.2v15.1Z" class="g0_279"/>
<path fill-rule="evenodd" d="M185.2,854.5H425.4v-15H185.2v15Z" class="g0_279"/>
<path fill-rule="evenodd" d="M185.2,869.7H425.4V854.5H185.2v15.2Z" class="g0_279"/>
<path fill-rule="evenodd" d="M185.2,884.7H425.4v-15H185.2v15Z" class="g0_279"/>
<path fill-rule="evenodd" d="M185.2,899.8H425.4V884.7H185.2v15.1Z" class="g0_279"/>
<path fill-rule="evenodd" d="M187,914.8H426.5v-15H187v15Z" class="g0_279"/>
<path fill-rule="evenodd" d="M447,161.4H687.3V146.3H447v15.1Z" class="g0_279"/>
<path fill-rule="evenodd" d="M447,176.4H687.3v-15H447v15Z" class="g0_279"/>
<path fill-rule="evenodd" d="M447,191.6H687.3V176.4H447v15.2Z" class="g0_279"/>
<path fill-rule="evenodd" d="M447,206.6H687.3v-15H447v15Z" class="g0_279"/>
<path fill-rule="evenodd" d="M447,221.7H687.3V206.6H447v15.1Z" class="g0_279"/>
<path fill-rule="evenodd" d="M447,236.7H687.3v-15H447v15Z" class="g0_279"/>
<path fill-rule="evenodd" d="M447,251.7H687.3v-15H447v15Z" class="g0_279"/>
<path fill-rule="evenodd" d="M446.7,266.8H686.9V251.7H446.7v15.1Z" class="g0_279"/>
<path fill-rule="evenodd" d="M446.7,281.8H686.9v-15H446.7v15Z" class="g0_279"/>
<path fill-rule="evenodd" d="M446.7,296.8H686.9v-15H446.7v15Z" class="g0_279"/>
<path fill-rule="evenodd" d="M446.7,311.9H686.9V296.8H446.7v15.1Z" class="g0_279"/>
<path fill-rule="evenodd" d="M446.7,326.9H686.9v-15H446.7v15Z" class="g0_279"/>
<path fill-rule="evenodd" d="M446.7,341.9H687.3v-15H446.7v15Z" class="g0_279"/>
<path fill-rule="evenodd" d="M446.7,357.2H687.3V342H446.7v15.2Z" class="g0_279"/>
<path fill-rule="evenodd" d="M446.7,372.2H687.3v-15H446.7v15Z" class="g0_279"/>
<path fill-rule="evenodd" d="M446.7,387.3H687.3V372.2H446.7v15.1Z" class="g0_279"/>
<path fill-rule="evenodd" d="M446.7,402.3H687.3v-15H446.7v15Z" class="g0_279"/>
<path fill-rule="evenodd" d="M446.3,417.3H686.6v-15H446.3v15Z" class="g0_279"/>
<path fill-rule="evenodd" d="M446.3,432.4H686.6V417.3H446.3v15.1Z" class="g0_279"/>
<path fill-rule="evenodd" d="M446.3,447.4H686.6v-15H446.3v15Z" class="g0_279"/>
<path fill-rule="evenodd" d="M446.3,462.4H686.6v-15H446.3v15Z" class="g0_279"/>
<path fill-rule="evenodd" d="M446.3,477.5H686.6V462.4H446.3v15.1Z" class="g0_279"/>
<path fill-rule="evenodd" d="M446.3,492.5H686.6v-15H446.3v15Z" class="g0_279"/>
<path fill-rule="evenodd" d="M446.3,507.5H685.8v-15H446.3v15Z" class="g0_279"/>
<path fill-rule="evenodd" d="M446.3,522.6H685.8V507.5H446.3v15.1Z" class="g0_279"/>
<path fill-rule="evenodd" d="M446.3,537.8H685.8V522.6H446.3v15.2Z" class="g0_279"/>
<path fill-rule="evenodd" d="M446.3,552.8H685.8v-15H446.3v15Z" class="g0_279"/>
<path fill-rule="evenodd" d="M446.3,567.9H685.8V552.8H446.3v15.1Z" class="g0_279"/>
<path fill-rule="evenodd" d="M446.3,582.9H685.8v-15H446.3v15Z" class="g0_279"/>
<path fill-rule="evenodd" d="M445.6,598H686.2V582.9H445.6V598Z" class="g0_279"/>
<path fill-rule="evenodd" d="M445.6,613H686.2V598H445.6v15Z" class="g0_279"/>
<path fill-rule="evenodd" d="M445.6,628H686.2V613H445.6v15Z" class="g0_279"/>
<path fill-rule="evenodd" d="M445.6,643.1H686.2V628H445.6v15.1Z" class="g0_279"/>
<path fill-rule="evenodd" d="M445.6,658.1H686.2v-15H445.6v15Z" class="g0_279"/>
<path fill-rule="evenodd" d="M445.6,673.1H686.2v-15H445.6v15Z" class="g0_279"/>
<path fill-rule="evenodd" d="M445.6,688.2H686.2V673.1H445.6v15.1Z" class="g0_279"/>
<path fill-rule="evenodd" d="M445.6,703.2H686.2v-15H445.6v15Z" class="g0_279"/>
<path fill-rule="evenodd" d="M445.6,718.4H686.2V703.2H445.6v15.2Z" class="g0_279"/>
<path fill-rule="evenodd" d="M445.6,733.4H686.2v-15H445.6v15Z" class="g0_279"/>
<path fill-rule="evenodd" d="M445.6,748.5H686.2V733.4H445.6v15.1Z" class="g0_279"/>
<path fill-rule="evenodd" d="M445.6,763.5H685.8v-15H445.6v15Z" class="g0_279"/>
<path fill-rule="evenodd" d="M445.6,778.5H685.8v-15H445.6v15Z" class="g0_279"/>
<path fill-rule="evenodd" d="M445.6,793.6H685.8V778.5H445.6v15.1Z" class="g0_279"/>
<path fill-rule="evenodd" d="M445.6,808.6H685.8v-15H445.6v15Z" class="g0_279"/>
<path fill-rule="evenodd" d="M445.2,823.6H685.5v-15H445.2v15Z" class="g0_279"/>
<path fill-rule="evenodd" d="M445.2,838.7H685.5V823.6H445.2v15.1Z" class="g0_279"/>
<path fill-rule="evenodd" d="M445.2,853.8H685.5V838.7H445.2v15.1Z" class="g0_279"/>
<path fill-rule="evenodd" d="M445.2,868.8H685.5v-15H445.2v15Z" class="g0_279"/>
<path fill-rule="evenodd" d="M445.2,883.8H685.5v-15H445.2v15Z" class="g0_279"/>
<path fill-rule="evenodd" d="M445.2,899H685.5V883.8H445.2V899Z" class="g0_279"/>
<path fill-rule="evenodd" d="M422.1,932h300V914.4h-300V932Z" class="g0_279"/>
<path d="M434.5,146.4V914.1" class="g1_279"/>
</svg>