<?xml version="1.0" encoding="UTF-8" standalone="no"?>
<!DOCTYPE svg PUBLIC "-//W3C//DTD SVG 1.1//EN"
"http://www.w3.org/Graphics/SVG/1.1/DTD/svg11.dtd">
<svg viewBox="0 0 909 1285" version="1.1" xmlns="http://www.w3.org/2000/svg" xmlns:xlink="http://www.w3.org/1999/xlink">
<defs>
<style type="text/css"><![CDATA[
.g0_165{
fill: #FFFFFF;
}
.g1_165{
fill: none;
stroke: #000000;
stroke-width: 0.381;
stroke-linecap: butt;
stroke-linejoin: round;
}
]]></style>
</defs>
<path fill-rule="evenodd" d="M628.6,134.6h68.9V110H628.6v24.6Z" class="g0_165"/>
<path fill-rule="evenodd" d="M199.9,168.7H382.1v-15H199.9v15Z" class="g0_165"/>
<path fill-rule="evenodd" d="M199.9,183.7H382.1v-15H199.9v15Z" class="g0_165"/>
<path fill-rule="evenodd" d="M199.9,198.9h238V183.7h-238v15.2Z" class="g0_165"/>
<path fill-rule="evenodd" d="M199.9,214h238V198.9h-238V214Z" class="g0_165"/>
<path fill-rule="evenodd" d="M199.9,229h238V214h-238v15Z" class="g0_165"/>
<path fill-rule="evenodd" d="M199.9,244h238V229h-238v15Z" class="g0_165"/>
<path fill-rule="evenodd" d="M199.9,259.1h238V244h-238v15.1Z" class="g0_165"/>
<path fill-rule="evenodd" d="M199.5,274.1h238v-15h-238v15Z" class="g0_165"/>
<path fill-rule="evenodd" d="M199.5,289.1h238v-15h-238v15Z" class="g0_165"/>
<path fill-rule="evenodd" d="M199.5,304.2h238V289.1h-238v15.1Z" class="g0_165"/>
<path fill-rule="evenodd" d="M199.5,319.2h238v-15h-238v15Z" class="g0_165"/>
<path fill-rule="evenodd" d="M199.5,334.2H382.1v-15H199.5v15Z" class="g0_165"/>
<path fill-rule="evenodd" d="M199.5,349.3H382.1V334.2H199.5v15.1Z" class="g0_165"/>
<path fill-rule="evenodd" d="M217.8,364.5H437.9V349.3H217.8v15.2Z" class="g0_165"/>
<path fill-rule="evenodd" d="M199.5,379.6h238V364.5h-238v15.1Z" class="g0_165"/>
<path fill-rule="evenodd" d="M199.5,394.6h238v-15h-238v15Z" class="g0_165"/>
<path fill-rule="evenodd" d="M199.1,409.6H437.5v-15H199.1v15Z" class="g0_165"/>
<path fill-rule="evenodd" d="M199.1,424.7H437.5V409.6H199.1v15.1Z" class="g0_165"/>
<path fill-rule="evenodd" d="M199.1,439.7H437.5v-15H199.1v15Z" class="g0_165"/>
<path fill-rule="evenodd" d="M198.8,454.7H437.9v-15H198.8v15Z" class="g0_165"/>
<path fill-rule="evenodd" d="M198.8,469.8H437.9V454.7H198.8v15.1Z" class="g0_165"/>
<path fill-rule="evenodd" d="M198.8,484.8H437.9v-15H198.8v15Z" class="g0_165"/>
<path fill-rule="evenodd" d="M198.8,499.8H437.9v-15H198.8v15Z" class="g0_165"/>
<path fill-rule="evenodd" d="M198.8,514.9H437.9V499.8H198.8v15.1Z" class="g0_165"/>
<path fill-rule="evenodd" d="M198.4,529.9H437.5v-15H198.4v15Z" class="g0_165"/>
<path fill-rule="evenodd" d="M198.4,545.1H437.5V529.9H198.4v15.2Z" class="g0_165"/>
<path fill-rule="evenodd" d="M198.4,560.2H437.5V545.1H198.4v15.1Z" class="g0_165"/>
<path fill-rule="evenodd" d="M198.4,575.2H437.5v-15H198.4v15Z" class="g0_165"/>
<path fill-rule="evenodd" d="M198.4,590.2H437.5v-15H198.4v15Z" class="g0_165"/>
<path fill-rule="evenodd" d="M198.4,605.3H437.5V590.2H198.4v15.1Z" class="g0_165"/>
<path fill-rule="evenodd" d="M198.4,620.3H437.5v-15H198.4v15Z" class="g0_165"/>
<path fill-rule="evenodd" d="M198.4,635.4H437.5V620.3H198.4v15.1Z" class="g0_165"/>
<path fill-rule="evenodd" d="M198.4,650.4H437.5v-15H198.4v15Z" class="g0_165"/>
<path fill-rule="evenodd" d="M198,665.4H436.4v-15H198v15Z" class="g0_165"/>
<path fill-rule="evenodd" d="M198,680.5H436.4V665.4H198v15.1Z" class="g0_165"/>
<path fill-rule="evenodd" d="M198,695.5H436.4v-15H198v15Z" class="g0_165"/>
<path fill-rule="evenodd" d="M198,711.1H382.1V695.9H198v15.2Z" class="g0_165"/>
<path fill-rule="evenodd" d="M198,726.1H382.1v-15H198v15Z" class="g0_165"/>
<path fill-rule="evenodd" d="M197.7,741.1H436.4v-15H197.7v15Z" class="g0_165"/>
<path fill-rule="evenodd" d="M197.7,756.2H436.4V741.1H197.7v15.1Z" class="g0_165"/>
<path fill-rule="evenodd" d="M197.7,771.2H436.4v-15H197.7v15Z" class="g0_165"/>
<path fill-rule="evenodd" d="M197.7,786.2H436.4v-15H197.7v15Z" class="g0_165"/>
<path fill-rule="evenodd" d="M197.7,801.3H436.4V786.2H197.7v15.1Z" class="g0_165"/>
<path fill-rule="evenodd" d="M197.7,816.3H436.4v-15H197.7v15Z" class="g0_165"/>
<path fill-rule="evenodd" d="M197.7,831.3H436.4v-15H197.7v15Z" class="g0_165"/>
<path fill-rule="evenodd" d="M198,846.4H436V831.3H198v15.1Z" class="g0_165"/>
<path fill-rule="evenodd" d="M198,861.5H436V846.4H198v15.1Z" class="g0_165"/>
<path fill-rule="evenodd" d="M196.9,876.5H436v-15H196.9v15Z" class="g0_165"/>
<path fill-rule="evenodd" d="M196.9,891.7H436V876.5H196.9v15.2Z" class="g0_165"/>
<path fill-rule="evenodd" d="M196.9,906.7H436v-15H196.9v15Z" class="g0_165"/>
<path fill-rule="evenodd" d="M198.8,921.8H437.9V906.7H198.8v15.1Z" class="g0_165"/>
<path fill-rule="evenodd" d="M458.4,168.7H697.5v-15H458.4v15Z" class="g0_165"/>
<path fill-rule="evenodd" d="M458.4,183.7H697.5v-15H458.4v15Z" class="g0_165"/>
<path fill-rule="evenodd" d="M458.4,198.9H697.5V183.7H458.4v15.2Z" class="g0_165"/>
<path fill-rule="evenodd" d="M458.4,214H697.5V198.9H458.4V214Z" class="g0_165"/>
<path fill-rule="evenodd" d="M458.4,229H697.5V214H458.4v15Z" class="g0_165"/>
<path fill-rule="evenodd" d="M458.1,244H697.5V229H458.1v15Z" class="g0_165"/>
<path fill-rule="evenodd" d="M458.1,259.1H697.5V244H458.1v15.1Z" class="g0_165"/>
<path fill-rule="evenodd" d="M458.1,274.1H697.5v-15H458.1v15Z" class="g0_165"/>
<path fill-rule="evenodd" d="M458.1,289.1H697.5v-15H458.1v15Z" class="g0_165"/>
<path fill-rule="evenodd" d="M458.1,304.2H697.5V289.1H458.1v15.1Z" class="g0_165"/>
<path fill-rule="evenodd" d="M458.1,319.2H697.5v-15H458.1v15Z" class="g0_165"/>
<path fill-rule="evenodd" d="M458.1,334.2H697.5v-15H458.1v15Z" class="g0_165"/>
<path fill-rule="evenodd" d="M457.7,349.3H697.2V334.2H457.7v15.1Z" class="g0_165"/>
<path fill-rule="evenodd" d="M457.7,364.5H697.2V349.3H457.7v15.2Z" class="g0_165"/>
<path fill-rule="evenodd" d="M457.7,379.6H697.2V364.5H457.7v15.1Z" class="g0_165"/>
<path fill-rule="evenodd" d="M457.7,394.6H697.2v-15H457.7v15Z" class="g0_165"/>
<path fill-rule="evenodd" d="M457.7,409.6H697.2v-15H457.7v15Z" class="g0_165"/>
<path fill-rule="evenodd" d="M457.7,424.7H697.2V409.6H457.7v15.1Z" class="g0_165"/>
<path fill-rule="evenodd" d="M457.7,439.7H697.2v-15H457.7v15Z" class="g0_165"/>
<path fill-rule="evenodd" d="M457.7,454.7H697.2v-15H457.7v15Z" class="g0_165"/>
<path fill-rule="evenodd" d="M457.7,469.8H697.2V454.7H457.7v15.1Z" class="g0_165"/>
<path fill-rule="evenodd" d="M457.7,484.8H697.2v-15H457.7v15Z" class="g0_165"/>
<path fill-rule="evenodd" d="M457.7,499.8H697.2v-15H457.7v15Z" class="g0_165"/>
<path fill-rule="evenodd" d="M457.3,514.9H696.8V499.8H457.3v15.1Z" class="g0_165"/>
<path fill-rule="evenodd" d="M457.3,529.9H696.8v-15H457.3v15Z" class="g0_165"/>
<path fill-rule="evenodd" d="M457.3,545.1H696.8V529.9H457.3v15.2Z" class="g0_165"/>
<path fill-rule="evenodd" d="M457.3,560.2H696.8V545.1H457.3v15.1Z" class="g0_165"/>
<path fill-rule="evenodd" d="M457.3,575.2H696.8v-15H457.3v15Z" class="g0_165"/>
<path fill-rule="evenodd" d="M457.3,590.2H696.8v-15H457.3v15Z" class="g0_165"/>
<path fill-rule="evenodd" d="M457.7,605.3H638.9V590.2H457.7v15.1Z" class="g0_165"/>
<path fill-rule="evenodd" d="M457.7,620.3H638.9v-15H457.7v15Z" class="g0_165"/>
<path fill-rule="evenodd" d="M456.6,635.4H696.4V620.3H456.6v15.1Z" class="g0_165"/>
<path fill-rule="evenodd" d="M456.6,650.4H696.4v-15H456.6v15Z" class="g0_165"/>
<path fill-rule="evenodd" d="M456.6,665.4H696.4v-15H456.6v15Z" class="g0_165"/>
<path fill-rule="evenodd" d="M456.6,680.5H696.4V665.4H456.6v15.1Z" class="g0_165"/>
<path fill-rule="evenodd" d="M456.6,695.5H696.4v-15H456.6v15Z" class="g0_165"/>
<path fill-rule="evenodd" d="M456.6,710.5H696.4v-15H456.6v15Z" class="g0_165"/>
<path fill-rule="evenodd" d="M456.6,725.7H696.4V710.5H456.6v15.2Z" class="g0_165"/>
<path fill-rule="evenodd" d="M457,740.8H695.7V725.7H457v15.1Z" class="g0_165"/>
<path fill-rule="evenodd" d="M457,755.8H695.7v-15H457v15Z" class="g0_165"/>
<path fill-rule="evenodd" d="M457,770.8H695.7v-15H457v15Z" class="g0_165"/>
<path fill-rule="evenodd" d="M456.6,785.9H695.7V770.8H456.6v15.1Z" class="g0_165"/>
<path fill-rule="evenodd" d="M456.6,800.9H695.7v-15H456.6v15Z" class="g0_165"/>
<path fill-rule="evenodd" d="M456.6,815.9H695.7v-15H456.6v15Z" class="g0_165"/>
<path fill-rule="evenodd" d="M456.6,831H695.7V815.9H456.6V831Z" class="g0_165"/>
<path fill-rule="evenodd" d="M456.6,846.1H695.7V831H456.6v15.1Z" class="g0_165"/>
<path fill-rule="evenodd" d="M457,861.1H695.7v-15H457v15Z" class="g0_165"/>
<path fill-rule="evenodd" d="M457,876.1H695.7v-15H457v15Z" class="g0_165"/>
<path fill-rule="evenodd" d="M434.2,939.6H697.6V920.3H434.2v19.3Z" class="g0_165"/>
<path d="M445.8,152.9V922.2" class="g1_165"/>
</svg>