<?xml version="1.0" encoding="UTF-8" standalone="no"?>
<!DOCTYPE svg PUBLIC "-//W3C//DTD SVG 1.1//EN"
"http://www.w3.org/Graphics/SVG/1.1/DTD/svg11.dtd">
<svg viewBox="0 0 909 1285" version="1.1" xmlns="http://www.w3.org/2000/svg" xmlns:xlink="http://www.w3.org/1999/xlink">
<defs>
<style type="text/css"><![CDATA[
.g0_159{
fill: #FFFFFF;
}
.g1_159{
fill: none;
stroke: #000000;
stroke-width: 0.381;
stroke-linecap: butt;
stroke-linejoin: round;
}
]]></style>
</defs>
<path fill-rule="evenodd" d="M282.8,125.8H782.6V110H282.8v15.8Z" class="g0_159"/>
<path fill-rule="evenodd" d="M282.4,161.4H522.2V146.7H282.4v14.7Z" class="g0_159"/>
<path fill-rule="evenodd" d="M282.4,176H522.2V161.4H282.4V176Z" class="g0_159"/>
<path fill-rule="evenodd" d="M282.4,190.7H522.2V176H282.4v14.7Z" class="g0_159"/>
<path fill-rule="evenodd" d="M301.1,205.4H522.2V190.7H301.1v14.7Z" class="g0_159"/>
<path fill-rule="evenodd" d="M283.1,220H522.2V205.4H283.1V220Z" class="g0_159"/>
<path fill-rule="evenodd" d="M283.1,234.7H522.2V220H283.1v14.7Z" class="g0_159"/>
<path fill-rule="evenodd" d="M282.4,249.4H521.9V234.7H282.4v14.7Z" class="g0_159"/>
<path fill-rule="evenodd" d="M282.4,264H521.9V249.4H282.4V264Z" class="g0_159"/>
<path fill-rule="evenodd" d="M282.4,278.7H521.9V264H282.4v14.7Z" class="g0_159"/>
<path fill-rule="evenodd" d="M282.8,293.9H521.5V279.1H282.8v14.8Z" class="g0_159"/>
<path fill-rule="evenodd" d="M282.8,308.6H521.5V293.9H282.8v14.7Z" class="g0_159"/>
<path fill-rule="evenodd" d="M282.4,323.2H521.9V308.6H282.4v14.6Z" class="g0_159"/>
<path fill-rule="evenodd" d="M282.4,337.9H521.9V323.2H282.4v14.7Z" class="g0_159"/>
<path fill-rule="evenodd" d="M282.4,352.6H521.9V337.9H282.4v14.7Z" class="g0_159"/>
<path fill-rule="evenodd" d="M282.4,367.3H521.9V352.6H282.4v14.7Z" class="g0_159"/>
<path fill-rule="evenodd" d="M281.7,382.3H521.5V367.7H281.7v14.6Z" class="g0_159"/>
<path fill-rule="evenodd" d="M281.7,397H521.5V382.3H281.7V397Z" class="g0_159"/>
<path fill-rule="evenodd" d="M281.7,411.7H521.5V397H281.7v14.7Z" class="g0_159"/>
<path fill-rule="evenodd" d="M281.7,426.3H521.5V411.7H281.7v14.6Z" class="g0_159"/>
<path fill-rule="evenodd" d="M281.7,441H521.5V426.3H281.7V441Z" class="g0_159"/>
<path fill-rule="evenodd" d="M281.7,455.7H521.5V441H281.7v14.7Z" class="g0_159"/>
<path fill-rule="evenodd" d="M282,470.3H521.5V455.7H282v14.6Z" class="g0_159"/>
<path fill-rule="evenodd" d="M282,485H521.5V470.3H282V485Z" class="g0_159"/>
<path fill-rule="evenodd" d="M282,499.7H521.5V485H282v14.7Z" class="g0_159"/>
<path fill-rule="evenodd" d="M300.4,514.3H522.2V499.7H300.4v14.6Z" class="g0_159"/>
<path fill-rule="evenodd" d="M281.3,529.4H520.8V514.7H281.3v14.7Z" class="g0_159"/>
<path fill-rule="evenodd" d="M281.3,544H520.8V529.4H281.3V544Z" class="g0_159"/>
<path fill-rule="evenodd" d="M281.3,558.7H520.8V544H281.3v14.7Z" class="g0_159"/>
<path fill-rule="evenodd" d="M281.7,573.4H520.8V558.7H281.7v14.7Z" class="g0_159"/>
<path fill-rule="evenodd" d="M281.7,588H520.8V573.4H281.7V588Z" class="g0_159"/>
<path fill-rule="evenodd" d="M281.7,602.7H520.8V588H281.7v14.7Z" class="g0_159"/>
<path fill-rule="evenodd" d="M281.7,617.8H520.8V602.7H281.7v15.1Z" class="g0_159"/>
<path fill-rule="evenodd" d="M281.7,632.4H520.8V617.8H281.7v14.6Z" class="g0_159"/>
<path fill-rule="evenodd" d="M281.7,647.1H520.8V632.4H281.7v14.7Z" class="g0_159"/>
<path fill-rule="evenodd" d="M281.3,661.8H495.7V647.1H281.3v14.7Z" class="g0_159"/>
<path fill-rule="evenodd" d="M281.3,676.4H495.7V661.8H281.3v14.6Z" class="g0_159"/>
<path fill-rule="evenodd" d="M281.3,691.5H521.1V676.8H281.3v14.7Z" class="g0_159"/>
<path fill-rule="evenodd" d="M281.3,706.1H521.1V691.5H281.3v14.6Z" class="g0_159"/>
<path fill-rule="evenodd" d="M281.3,720.8H521.1V706.1H281.3v14.7Z" class="g0_159"/>
<path fill-rule="evenodd" d="M281.3,735.5H521.1V720.8H281.3v14.7Z" class="g0_159"/>
<path fill-rule="evenodd" d="M281.3,750.1H521.1V735.5H281.3v14.6Z" class="g0_159"/>
<path fill-rule="evenodd" d="M281.3,764.8H521.1V750.1H281.3v14.7Z" class="g0_159"/>
<path fill-rule="evenodd" d="M300,779.5H522.2V764.8H300v14.7Z" class="g0_159"/>
<path fill-rule="evenodd" d="M300,794.5H522.2v-15H300v15Z" class="g0_159"/>
<path fill-rule="evenodd" d="M280.9,809.5H521.1V794.9H280.9v14.6Z" class="g0_159"/>
<path fill-rule="evenodd" d="M280.9,824.2H521.1V809.5H280.9v14.7Z" class="g0_159"/>
<path fill-rule="evenodd" d="M280.9,838.9H521.1V824.2H280.9v14.7Z" class="g0_159"/>
<path fill-rule="evenodd" d="M280.9,853.6H521.1V838.9H280.9v14.7Z" class="g0_159"/>
<path fill-rule="evenodd" d="M280.9,868.2H521.1V853.6H280.9v14.6Z" class="g0_159"/>
<path fill-rule="evenodd" d="M280.9,882.9H521.1V868.2H280.9v14.7Z" class="g0_159"/>
<path fill-rule="evenodd" d="M283.1,897.9H522.2v-15H283.1v15Z" class="g0_159"/>
<path fill-rule="evenodd" d="M543.1,161H782.6V146H543.1v15Z" class="g0_159"/>
<path fill-rule="evenodd" d="M543.1,176H782.6V161H543.1v15Z" class="g0_159"/>
<path fill-rule="evenodd" d="M542.8,191.1H782.6V176H542.8v15.1Z" class="g0_159"/>
<path fill-rule="evenodd" d="M542.4,206.3H782.6V191.1H542.4v15.2Z" class="g0_159"/>
<path fill-rule="evenodd" d="M542.4,221.3H782.6v-15H542.4v15Z" class="g0_159"/>
<path fill-rule="evenodd" d="M542.4,236.3H782.6v-15H542.4v15Z" class="g0_159"/>
<path fill-rule="evenodd" d="M542.4,251.4H782.6V236.3H542.4v15.1Z" class="g0_159"/>
<path fill-rule="evenodd" d="M542.8,266.4H782.2v-15H542.8v15Z" class="g0_159"/>
<path fill-rule="evenodd" d="M542.8,281.4H782.2v-15H542.8v15Z" class="g0_159"/>
<path fill-rule="evenodd" d="M542.8,296.5H782.6V281.4H542.8v15.1Z" class="g0_159"/>
<path fill-rule="evenodd" d="M542.8,311.5H782.6v-15H542.8v15Z" class="g0_159"/>
<path fill-rule="evenodd" d="M542,326.5H782.2v-15H542v15Z" class="g0_159"/>
<path fill-rule="evenodd" d="M542,341.6H782.2V326.5H542v15.1Z" class="g0_159"/>
<path fill-rule="evenodd" d="M542,356.7H782.2V341.6H542v15.1Z" class="g0_159"/>
<path fill-rule="evenodd" d="M542.4,371.9H782.2V356.7H542.4v15.2Z" class="g0_159"/>
<path fill-rule="evenodd" d="M542.4,386.9H782.2v-15H542.4v15Z" class="g0_159"/>
<path fill-rule="evenodd" d="M542,401.9H781.9v-15H542v15Z" class="g0_159"/>
<path fill-rule="evenodd" d="M542,417H781.9V401.9H542V417Z" class="g0_159"/>
<path fill-rule="evenodd" d="M542,432H781.5V417H542v15Z" class="g0_159"/>
<path fill-rule="evenodd" d="M542,447H781.5V432H542v15Z" class="g0_159"/>
<path fill-rule="evenodd" d="M560.7,462.1H782.6V447H560.7v15.1Z" class="g0_159"/>
<path fill-rule="evenodd" d="M560.7,477.1H782.6v-15H560.7v15Z" class="g0_159"/>
<path fill-rule="evenodd" d="M541.3,492.1H781.5v-15H541.3v15Z" class="g0_159"/>
<path fill-rule="evenodd" d="M541.3,507.2H781.5V492.1H541.3v15.1Z" class="g0_159"/>
<path fill-rule="evenodd" d="M541.3,522.2H781.5v-15H541.3v15Z" class="g0_159"/>
<path fill-rule="evenodd" d="M541.3,537.2H781.5v-15H541.3v15Z" class="g0_159"/>
<path fill-rule="evenodd" d="M541.3,552.5H781.5V537.2H541.3v15.3Z" class="g0_159"/>
<path fill-rule="evenodd" d="M542,567.5H781.5v-15H542v15Z" class="g0_159"/>
<path fill-rule="evenodd" d="M542,582.5H781.5v-15H542v15Z" class="g0_159"/>
<path fill-rule="evenodd" d="M542,597.6H781.5V582.5H542v15.1Z" class="g0_159"/>
<path fill-rule="evenodd" d="M541.7,612.6H781.5v-15H541.7v15Z" class="g0_159"/>
<path fill-rule="evenodd" d="M541.7,627.7H781.5V612.6H541.7v15.1Z" class="g0_159"/>
<path fill-rule="evenodd" d="M540.9,642.7h241v-15h-241v15Z" class="g0_159"/>
<path fill-rule="evenodd" d="M540.9,657.7h241v-15h-241v15Z" class="g0_159"/>
<path fill-rule="evenodd" d="M540.9,672.8h241V657.7h-241v15.1Z" class="g0_159"/>
<path fill-rule="evenodd" d="M540.9,687.8h241v-15h-241v15Z" class="g0_159"/>
<path fill-rule="evenodd" d="M540.9,702.8h241v-15h-241v15Z" class="g0_159"/>
<path fill-rule="evenodd" d="M540.9,717.9h241V702.8h-241v15.1Z" class="g0_159"/>
<path fill-rule="evenodd" d="M540.9,733.1h241V717.9h-241v15.2Z" class="g0_159"/>
<path fill-rule="evenodd" d="M541.7,748.1H781.1v-15H541.7v15Z" class="g0_159"/>
<path fill-rule="evenodd" d="M541.7,763.1H781.1v-15H541.7v15Z" class="g0_159"/>
<path fill-rule="evenodd" d="M541.3,778.2H781.1V763.1H541.3v15.1Z" class="g0_159"/>
<path fill-rule="evenodd" d="M541.3,793.2H781.1v-15H541.3v15Z" class="g0_159"/>
<path fill-rule="evenodd" d="M540.9,808.2H781.5v-15H540.9v15Z" class="g0_159"/>
<path fill-rule="evenodd" d="M540.9,823.3H781.5V808.2H540.9v15.1Z" class="g0_159"/>
<path fill-rule="evenodd" d="M540.9,838.4H781.5V823.3H540.9v15.1Z" class="g0_159"/>
<path fill-rule="evenodd" d="M540.9,853.4H781.5v-15H540.9v15Z" class="g0_159"/>
<path fill-rule="evenodd" d="M540.9,868.4H781.5v-15H540.9v15Z" class="g0_159"/>
<path fill-rule="evenodd" d="M540.9,883.5H781.5V868.4H540.9v15.1Z" class="g0_159"/>
<path fill-rule="evenodd" d="M540.9,898.5H781.5v-15H540.9v15Z" class="g0_159"/>
<path fill-rule="evenodd" d="M518.9,930.8H782.6V913.2H518.9v17.6Z" class="g0_159"/>
<path d="M199.5,482.2V873.5m2.9,-449.6V851m2.2,-735.4V262.2M215.6,80V989.3m2.3,-412.9V989.3m1,-715.8V989.3M222.2,80V848.9M531,147V916" class="g1_159"/>
</svg>