<?xml version="1.0" encoding="UTF-8" standalone="no"?>
<!DOCTYPE svg PUBLIC "-//W3C//DTD SVG 1.1//EN"
"http://www.w3.org/Graphics/SVG/1.1/DTD/svg11.dtd">
<svg viewBox="0 0 909 1285" version="1.1" xmlns="http://www.w3.org/2000/svg" xmlns:xlink="http://www.w3.org/1999/xlink">
<defs>
<style type="text/css"><![CDATA[
.g0_246{
fill: #FFFFFF;
}
.g1_246{
fill: none;
stroke: #000000;
stroke-width: 3.284;
stroke-linecap: butt;
stroke-linejoin: round;
}
.g2_246{
fill: none;
stroke: #000000;
stroke-width: 0.381;
stroke-linecap: butt;
stroke-linejoin: round;
}
.g3_246{
fill: none;
stroke: #000000;
stroke-width: 0.763;
stroke-linecap: butt;
stroke-linejoin: round;
}
]]></style>
</defs>
<path fill-rule="evenodd" d="M263.1,125.8H762.3V110H263.1v15.8Z" class="g0_246"/>
<path fill-rule="evenodd" d="M281.5,162.1H503.4v-15H281.5v15Z" class="g0_246"/>
<path fill-rule="evenodd" d="M281.5,177.1H503.4v-15H281.5v15Z" class="g0_246"/>
<path fill-rule="evenodd" d="M262.7,192.5H503.4v-15H262.7v15Z" class="g0_246"/>
<path fill-rule="evenodd" d="M262.7,207.6H503.4V192.5H262.7v15.1Z" class="g0_246"/>
<path fill-rule="evenodd" d="M262.7,222.8H503.4V207.6H262.7v15.2Z" class="g0_246"/>
<path fill-rule="evenodd" d="M262.7,237.8H503.4v-15H262.7v15Z" class="g0_246"/>
<path fill-rule="evenodd" d="M262.7,252.8H503.4v-15H262.7v15Z" class="g0_246"/>
<path fill-rule="evenodd" d="M262.7,267.9H503.4V252.8H262.7v15.1Z" class="g0_246"/>
<path fill-rule="evenodd" d="M262.7,282.9H503.4v-15H262.7v15Z" class="g0_246"/>
<path fill-rule="evenodd" d="M262.7,297.9H503.4v-15H262.7v15Z" class="g0_246"/>
<path fill-rule="evenodd" d="M262.4,313H503V297.9H262.4V313Z" class="g0_246"/>
<path fill-rule="evenodd" d="M262.4,328H503V313H262.4v15Z" class="g0_246"/>
<path fill-rule="evenodd" d="M262.4,343H503V328H262.4v15Z" class="g0_246"/>
<path fill-rule="evenodd" d="M262.7,358.1H503v-15H262.7v15Z" class="g0_246"/>
<path fill-rule="evenodd" d="M262.7,373.2H503V358.1H262.7v15.1Z" class="g0_246"/>
<path fill-rule="evenodd" d="M281.1,388.4H503.4V373.2H281.1v15.2Z" class="g0_246"/>
<path fill-rule="evenodd" d="M262.4,403.4H501.9v-15H262.4v15Z" class="g0_246"/>
<path fill-rule="evenodd" d="M262.4,418.4H501.9v-15H262.4v15Z" class="g0_246"/>
<path fill-rule="evenodd" d="M281.1,433.5H503.4V418.4H281.1v15.1Z" class="g0_246"/>
<path fill-rule="evenodd" d="M261.6,448.5h241v-15h-241v15Z" class="g0_246"/>
<path fill-rule="evenodd" d="M261.6,463.5h241v-15h-241v15Z" class="g0_246"/>
<path fill-rule="evenodd" d="M261.6,478.6h241V463.5h-241v15.1Z" class="g0_246"/>
<path fill-rule="evenodd" d="M261.6,493.6h241v-15h-241v15Z" class="g0_246"/>
<path fill-rule="evenodd" d="M280.8,508.6H503.4v-15H280.8v15Z" class="g0_246"/>
<path fill-rule="evenodd" d="M262,523.7H501.9V508.6H262v15.1Z" class="g0_246"/>
<path fill-rule="evenodd" d="M262,538.7H501.9v-15H262v15Z" class="g0_246"/>
<path fill-rule="evenodd" d="M262,553.7H501.9v-15H262v15Z" class="g0_246"/>
<path fill-rule="evenodd" d="M262,569H501.9V553.7H262V569Z" class="g0_246"/>
<path fill-rule="evenodd" d="M262,584H502.3V569H262v15Z" class="g0_246"/>
<path fill-rule="evenodd" d="M262,599.1H502.3V584H262v15.1Z" class="g0_246"/>
<path fill-rule="evenodd" d="M262,614.1H501.9v-15H262v15Z" class="g0_246"/>
<path fill-rule="evenodd" d="M262,629.1H501.9v-15H262v15Z" class="g0_246"/>
<path fill-rule="evenodd" d="M262,644.2H501.9V629.1H262v15.1Z" class="g0_246"/>
<path fill-rule="evenodd" d="M262,659.2H501.9v-15H262v15Z" class="g0_246"/>
<path fill-rule="evenodd" d="M262,674.2H501.9v-15H262v15Z" class="g0_246"/>
<path fill-rule="evenodd" d="M280.4,689.3h223V674.2h-223v15.1Z" class="g0_246"/>
<path fill-rule="evenodd" d="M260.9,704.3H501.5v-15H260.9v15Z" class="g0_246"/>
<path fill-rule="evenodd" d="M260.9,719.3H501.5v-15H260.9v15Z" class="g0_246"/>
<path fill-rule="evenodd" d="M260.9,734.4H501.5V719.3H260.9v15.1Z" class="g0_246"/>
<path fill-rule="evenodd" d="M260.9,749.6H501.5V734.4H260.9v15.2Z" class="g0_246"/>
<path fill-rule="evenodd" d="M260.9,764.6H501.5v-15H260.9v15Z" class="g0_246"/>
<path fill-rule="evenodd" d="M262,779.6H501.5v-15H262v15Z" class="g0_246"/>
<path fill-rule="evenodd" d="M262,794.7H501.5V779.6H262v15.1Z" class="g0_246"/>
<path fill-rule="evenodd" d="M262,809.7H501.5v-15H262v15Z" class="g0_246"/>
<path fill-rule="evenodd" d="M261.6,824.7H501.9v-15H261.6v15Z" class="g0_246"/>
<path fill-rule="evenodd" d="M261.6,839.8H501.9V824.7H261.6v15.1Z" class="g0_246"/>
<path fill-rule="evenodd" d="M261.6,854.9H501.9V839.8H261.6v15.1Z" class="g0_246"/>
<path fill-rule="evenodd" d="M261.6,869.9H501.9v-15H261.6v15Z" class="g0_246"/>
<path fill-rule="evenodd" d="M261.6,884.9H501.9v-15H261.6v15Z" class="g0_246"/>
<path fill-rule="evenodd" d="M261.6,900H501.9V884.9H261.6V900Z" class="g0_246"/>
<path fill-rule="evenodd" d="M262.7,915H502.3V900H262.7v15Z" class="g0_246"/>
<path fill-rule="evenodd" d="M523.2,162.1h238v-15h-238v15Z" class="g0_246"/>
<path fill-rule="evenodd" d="M523.2,177.1h238v-15h-238v15Z" class="g0_246"/>
<path fill-rule="evenodd" d="M522.8,192.2H761.5V177.1H522.8v15.1Z" class="g0_246"/>
<path fill-rule="evenodd" d="M522.8,207.2H761.5v-15H522.8v15Z" class="g0_246"/>
<path fill-rule="evenodd" d="M541.5,222.2H762.3v-15H541.5v15Z" class="g0_246"/>
<path fill-rule="evenodd" d="M541.5,237.4H762.3V222.2H541.5v15.2Z" class="g0_246"/>
<path fill-rule="evenodd" d="M541.5,252.5H762.3V237.4H541.5v15.1Z" class="g0_246"/>
<path fill-rule="evenodd" d="M522.8,267.5H762.3v-15H522.8v15Z" class="g0_246"/>
<path fill-rule="evenodd" d="M522.8,282.5H762.3v-15H522.8v15Z" class="g0_246"/>
<path fill-rule="evenodd" d="M523.5,297.6h238V282.5h-238v15.1Z" class="g0_246"/>
<path fill-rule="evenodd" d="M523.5,312.6h238v-15h-238v15Z" class="g0_246"/>
<path fill-rule="evenodd" d="M522.4,327.6H762.3v-15H522.4v15Z" class="g0_246"/>
<path fill-rule="evenodd" d="M522.4,342.7H762.3V327.6H522.4v15.1Z" class="g0_246"/>
<path fill-rule="evenodd" d="M522.4,357.8H762.3V342.7H522.4v15.1Z" class="g0_246"/>
<path fill-rule="evenodd" d="M522.4,372.8H762.3v-15H522.4v15Z" class="g0_246"/>
<path fill-rule="evenodd" d="M522.4,387.8H762.3v-15H522.4v15Z" class="g0_246"/>
<path fill-rule="evenodd" d="M522.4,403H762.3V387.8H522.4V403Z" class="g0_246"/>
<path fill-rule="evenodd" d="M522.4,418.1H762.3V403H522.4v15.1Z" class="g0_246"/>
<path fill-rule="evenodd" d="M522.4,433.1H762.3v-15H522.4v15Z" class="g0_246"/>
<path fill-rule="evenodd" d="M522.4,448.1H762.3v-15H522.4v15Z" class="g0_246"/>
<path fill-rule="evenodd" d="M522.1,463.2H761.9V448.1H522.1v15.1Z" class="g0_246"/>
<path fill-rule="evenodd" d="M522.1,478.2H761.9v-15H522.1v15Z" class="g0_246"/>
<path fill-rule="evenodd" d="M540.8,493.2H762.3v-15H540.8v15Z" class="g0_246"/>
<path fill-rule="evenodd" d="M522.1,508.3H761.9V493.2H522.1v15.1Z" class="g0_246"/>
<path fill-rule="evenodd" d="M522.1,523.3H761.9v-15H522.1v15Z" class="g0_246"/>
<path fill-rule="evenodd" d="M522.1,538.3H761.9v-15H522.1v15Z" class="g0_246"/>
<path fill-rule="evenodd" d="M540,553.4H762.3V538.3H540v15.1Z" class="g0_246"/>
<path fill-rule="evenodd" d="M522.1,568.4H761.5v-15H522.1v15Z" class="g0_246"/>
<path fill-rule="evenodd" d="M522.1,583.6H761.5V568.4H522.1v15.2Z" class="g0_246"/>
<path fill-rule="evenodd" d="M540.4,598.7H762.3V583.6H540.4v15.1Z" class="g0_246"/>
<path fill-rule="evenodd" d="M540,613.7H762.3v-15H540v15Z" class="g0_246"/>
<path fill-rule="evenodd" d="M540.4,628.8H762.3V613.7H540.4v15.1Z" class="g0_246"/>
<path fill-rule="evenodd" d="M522.4,643.8H761.5v-15H522.4v15Z" class="g0_246"/>
<path fill-rule="evenodd" d="M522.4,658.8H761.5v-15H522.4v15Z" class="g0_246"/>
<path fill-rule="evenodd" d="M521.3,673.9H761.5V658.8H521.3v15.1Z" class="g0_246"/>
<path fill-rule="evenodd" d="M521.3,688.9H761.5v-15H521.3v15Z" class="g0_246"/>
<path fill-rule="evenodd" d="M521.3,703.9H761.5v-15H521.3v15Z" class="g0_246"/>
<path fill-rule="evenodd" d="M521.3,719H761.5V703.9H521.3V719Z" class="g0_246"/>
<path fill-rule="evenodd" d="M522.4,734H761.9V719H522.4v15Z" class="g0_246"/>
<path fill-rule="evenodd" d="M522.4,749H761.9V734H522.4v15Z" class="g0_246"/>
<path fill-rule="evenodd" d="M522.1,764.2H761.5V749H522.1v15.2Z" class="g0_246"/>
<path fill-rule="evenodd" d="M522.1,779.3H761.5V764.2H522.1v15.1Z" class="g0_246"/>
<path fill-rule="evenodd" d="M522.1,794.3H761.9v-15H522.1v15Z" class="g0_246"/>
<path fill-rule="evenodd" d="M522.1,809.3H761.9v-15H522.1v15Z" class="g0_246"/>
<path fill-rule="evenodd" d="M522.1,824.4H761.9V809.3H522.1v15.1Z" class="g0_246"/>
<path fill-rule="evenodd" d="M522.1,839.5H761.9V824.4H522.1v15.1Z" class="g0_246"/>
<path fill-rule="evenodd" d="M522.1,854.5H761.9v-15H522.1v15Z" class="g0_246"/>
<path fill-rule="evenodd" d="M522.1,869.5H761.9v-15H522.1v15Z" class="g0_246"/>
<path fill-rule="evenodd" d="M522.1,884.6H761.9V869.5H522.1v15.1Z" class="g0_246"/>
<path d="M192.3,457.3V924" class="g1_246"/>
<path d="M199.7,272.1V726.8m3.6,-209V903.1M204,461.6v65.3m.8,361.9V924M201.1,187.4v89.4" class="g2_246"/>
<path d="M511.7,147.8V916.4" class="g3_246"/>
</svg>