<?xml version="1.0" encoding="UTF-8" standalone="no"?>
<!DOCTYPE svg PUBLIC "-//W3C//DTD SVG 1.1//EN"
"http://www.w3.org/Graphics/SVG/1.1/DTD/svg11.dtd">
<svg viewBox="0 0 909 1285" version="1.1" xmlns="http://www.w3.org/2000/svg" xmlns:xlink="http://www.w3.org/1999/xlink">
<defs>
<style type="text/css"><![CDATA[
.g0_151{
fill: #FFFFFF;
}
.g1_151{
fill: none;
stroke: #000000;
stroke-width: 0.381;
stroke-linecap: butt;
stroke-linejoin: round;
}
]]></style>
</defs>
<path fill-rule="evenodd" d="M257.8,125.8H758V110H257.8v15.8Z" class="g0_151"/>
<path fill-rule="evenodd" d="M257.4,161.4H497.7V146.3H257.4v15.1Z" class="g0_151"/>
<path fill-rule="evenodd" d="M257.1,176.4H497.3v-15H257.1v15Z" class="g0_151"/>
<path fill-rule="evenodd" d="M257.1,191.6H497.3V176.4H257.1v15.2Z" class="g0_151"/>
<path fill-rule="evenodd" d="M257.1,206.6H497.3v-15H257.1v15Z" class="g0_151"/>
<path fill-rule="evenodd" d="M257.1,221.7H497.7V206.6H257.1v15.1Z" class="g0_151"/>
<path fill-rule="evenodd" d="M257.1,236.7H497.7v-15H257.1v15Z" class="g0_151"/>
<path fill-rule="evenodd" d="M257.1,251.7H497.7v-15H257.1v15Z" class="g0_151"/>
<path fill-rule="evenodd" d="M257.1,266.8H497.7V251.7H257.1v15.1Z" class="g0_151"/>
<path fill-rule="evenodd" d="M257.1,281.8H497.7v-15H257.1v15Z" class="g0_151"/>
<path fill-rule="evenodd" d="M257.1,296.8H496.9v-15H257.1v15Z" class="g0_151"/>
<path fill-rule="evenodd" d="M257.1,311.9H496.9V296.8H257.1v15.1Z" class="g0_151"/>
<path fill-rule="evenodd" d="M257.1,326.9H496.9v-15H257.1v15Z" class="g0_151"/>
<path fill-rule="evenodd" d="M257.1,341.9H496.2v-15H257.1v15Z" class="g0_151"/>
<path fill-rule="evenodd" d="M257.1,357.2H496.2V342H257.1v15.2Z" class="g0_151"/>
<path fill-rule="evenodd" d="M257.1,372.2H496.6v-15H257.1v15Z" class="g0_151"/>
<path fill-rule="evenodd" d="M257.1,387.3H496.6V372.2H257.1v15.1Z" class="g0_151"/>
<path fill-rule="evenodd" d="M256.3,402.3H496.9v-15H256.3v15Z" class="g0_151"/>
<path fill-rule="evenodd" d="M256.3,417.3H496.9v-15H256.3v15Z" class="g0_151"/>
<path fill-rule="evenodd" d="M256.3,432.4H496.9V417.3H256.3v15.1Z" class="g0_151"/>
<path fill-rule="evenodd" d="M256.3,447.4H496.9v-15H256.3v15Z" class="g0_151"/>
<path fill-rule="evenodd" d="M256.3,462.4H496.9v-15H256.3v15Z" class="g0_151"/>
<path fill-rule="evenodd" d="M256.3,477.5H496.9V462.4H256.3v15.1Z" class="g0_151"/>
<path fill-rule="evenodd" d="M256.3,492.5H496.9v-15H256.3v15Z" class="g0_151"/>
<path fill-rule="evenodd" d="M256.3,507.5H496.9v-15H256.3v15Z" class="g0_151"/>
<path fill-rule="evenodd" d="M256.3,522.6H496.9V507.5H256.3v15.1Z" class="g0_151"/>
<path fill-rule="evenodd" d="M274.3,537.8H497.7V522.6H274.3v15.2Z" class="g0_151"/>
<path fill-rule="evenodd" d="M256.3,552.8H496.2v-15H256.3v15Z" class="g0_151"/>
<path fill-rule="evenodd" d="M256.3,567.9H496.2V552.8H256.3v15.1Z" class="g0_151"/>
<path fill-rule="evenodd" d="M255.6,582.9H495.8v-15H255.6v15Z" class="g0_151"/>
<path fill-rule="evenodd" d="M255.6,598H495.8V582.9H255.6V598Z" class="g0_151"/>
<path fill-rule="evenodd" d="M255.6,613H496.2V598H255.6v15Z" class="g0_151"/>
<path fill-rule="evenodd" d="M255.6,628H496.2V613H255.6v15Z" class="g0_151"/>
<path fill-rule="evenodd" d="M255.6,643.1H496.2V628H255.6v15.1Z" class="g0_151"/>
<path fill-rule="evenodd" d="M255.2,658.1h241v-15h-241v15Z" class="g0_151"/>
<path fill-rule="evenodd" d="M255.2,673.1h241v-15h-241v15Z" class="g0_151"/>
<path fill-rule="evenodd" d="M255.2,688.2h241V673.1h-241v15.1Z" class="g0_151"/>
<path fill-rule="evenodd" d="M255.2,703.2h241v-15h-241v15Z" class="g0_151"/>
<path fill-rule="evenodd" d="M255.2,718.4h241V703.2h-241v15.2Z" class="g0_151"/>
<path fill-rule="evenodd" d="M255.2,733.4h241v-15h-241v15Z" class="g0_151"/>
<path fill-rule="evenodd" d="M255.2,748.5h241V733.4h-241v15.1Z" class="g0_151"/>
<path fill-rule="evenodd" d="M255.2,763.5h241v-15h-241v15Z" class="g0_151"/>
<path fill-rule="evenodd" d="M255.2,778.5h241v-15h-241v15Z" class="g0_151"/>
<path fill-rule="evenodd" d="M255.2,793.6h241V778.5h-241v15.1Z" class="g0_151"/>
<path fill-rule="evenodd" d="M255.2,808.6h241v-15h-241v15Z" class="g0_151"/>
<path fill-rule="evenodd" d="M255.2,823.6h241v-15h-241v15Z" class="g0_151"/>
<path fill-rule="evenodd" d="M255.2,838.7h241V823.6h-241v15.1Z" class="g0_151"/>
<path fill-rule="evenodd" d="M255.2,853.8h241V838.7h-241v15.1Z" class="g0_151"/>
<path fill-rule="evenodd" d="M255.2,868.8h241v-15h-241v15Z" class="g0_151"/>
<path fill-rule="evenodd" d="M255.2,883.8h241v-15h-241v15Z" class="g0_151"/>
<path fill-rule="evenodd" d="M255.2,899h241V883.8h-241V899Z" class="g0_151"/>
<path fill-rule="evenodd" d="M257.4,914.1H497.7V899H257.4v15.1Z" class="g0_151"/>
<path fill-rule="evenodd" d="M517.5,161.7H758v-15H517.5v15Z" class="g0_151"/>
<path fill-rule="evenodd" d="M517.5,176.9H758V161.7H517.5v15.2Z" class="g0_151"/>
<path fill-rule="evenodd" d="M517.5,192H758V176.9H517.5V192Z" class="g0_151"/>
<path fill-rule="evenodd" d="M517.5,207H758V192H517.5v15Z" class="g0_151"/>
<path fill-rule="evenodd" d="M517.5,222H758V207H517.5v15Z" class="g0_151"/>
<path fill-rule="evenodd" d="M517.5,237.1H758V222H517.5v15.1Z" class="g0_151"/>
<path fill-rule="evenodd" d="M517.5,252.1H758v-15H517.5v15Z" class="g0_151"/>
<path fill-rule="evenodd" d="M517.5,267.1H758v-15H517.5v15Z" class="g0_151"/>
<path fill-rule="evenodd" d="M517.5,282.2H758V267.1H517.5v15.1Z" class="g0_151"/>
<path fill-rule="evenodd" d="M517.5,297.2H758v-15H517.5v15Z" class="g0_151"/>
<path fill-rule="evenodd" d="M517.5,312.2H757.3v-15H517.5v15Z" class="g0_151"/>
<path fill-rule="evenodd" d="M517.5,327.3H757.3V312.2H517.5v15.1Z" class="g0_151"/>
<path fill-rule="evenodd" d="M517.5,342.5H757.3V327.3H517.5v15.2Z" class="g0_151"/>
<path fill-rule="evenodd" d="M516.7,357.6H757.3V342.5H516.7v15.1Z" class="g0_151"/>
<path fill-rule="evenodd" d="M516.7,372.6H757.3v-15H516.7v15Z" class="g0_151"/>
<path fill-rule="evenodd" d="M516.7,387.6H757.3v-15H516.7v15Z" class="g0_151"/>
<path fill-rule="evenodd" d="M516.7,402.7H757.3V387.6H516.7v15.1Z" class="g0_151"/>
<path fill-rule="evenodd" d="M516.7,417.7H757.3v-15H516.7v15Z" class="g0_151"/>
<path fill-rule="evenodd" d="M516.7,432.7H757.3v-15H516.7v15Z" class="g0_151"/>
<path fill-rule="evenodd" d="M516.7,447.8H757.3V432.7H516.7v15.1Z" class="g0_151"/>
<path fill-rule="evenodd" d="M516.7,462.8H757.3v-15H516.7v15Z" class="g0_151"/>
<path fill-rule="evenodd" d="M516.7,477.8H757.3v-15H516.7v15Z" class="g0_151"/>
<path fill-rule="evenodd" d="M516.7,492.9H757.3V477.8H516.7v15.1Z" class="g0_151"/>
<path fill-rule="evenodd" d="M516.7,507.9H756.2v-15H516.7v15Z" class="g0_151"/>
<path fill-rule="evenodd" d="M516.7,523.1H756.2V507.9H516.7v15.2Z" class="g0_151"/>
<path fill-rule="evenodd" d="M516.4,538.2H756.9V523.1H516.4v15.1Z" class="g0_151"/>
<path fill-rule="evenodd" d="M516.4,553.2H756.9v-15H516.4v15Z" class="g0_151"/>
<path fill-rule="evenodd" d="M515.6,568.2h241v-15h-241v15Z" class="g0_151"/>
<path fill-rule="evenodd" d="M515.6,583.3h241V568.2h-241v15.1Z" class="g0_151"/>
<path fill-rule="evenodd" d="M515.6,598.3H756.9v-15H515.6v15Z" class="g0_151"/>
<path fill-rule="evenodd" d="M515.6,613.4H756.9V598.3H515.6v15.1Z" class="g0_151"/>
<path fill-rule="evenodd" d="M515.6,628.4H756.9v-15H515.6v15Z" class="g0_151"/>
<path fill-rule="evenodd" d="M515.6,643.4H756.9v-15H515.6v15Z" class="g0_151"/>
<path fill-rule="evenodd" d="M515.6,658.5H756.9V643.4H515.6v15.1Z" class="g0_151"/>
<path fill-rule="evenodd" d="M515.6,673.5H756.9v-15H515.6v15Z" class="g0_151"/>
<path fill-rule="evenodd" d="M515.6,688.5H756.9v-15H515.6v15Z" class="g0_151"/>
<path fill-rule="evenodd" d="M515.6,703.7H756.9V688.5H515.6v15.2Z" class="g0_151"/>
<path fill-rule="evenodd" d="M516,718.8H756.2V703.7H516v15.1Z" class="g0_151"/>
<path fill-rule="evenodd" d="M516,733.8H756.2v-15H516v15Z" class="g0_151"/>
<path fill-rule="evenodd" d="M515.3,748.8H755.8v-15H515.3v15Z" class="g0_151"/>
<path fill-rule="evenodd" d="M515.3,763.9H755.8V748.8H515.3v15.1Z" class="g0_151"/>
<path fill-rule="evenodd" d="M534,778.9H758v-15H534v15Z" class="g0_151"/>
<path fill-rule="evenodd" d="M515.6,793.9h241v-15h-241v15Z" class="g0_151"/>
<path fill-rule="evenodd" d="M515.6,809h241V793.9h-241V809Z" class="g0_151"/>
<path fill-rule="evenodd" d="M515.6,824h241V809h-241v15Z" class="g0_151"/>
<path fill-rule="evenodd" d="M515.6,839.1h241V824h-241v15.1Z" class="g0_151"/>
<path fill-rule="evenodd" d="M516,854.1H756.6v-15H516v15Z" class="g0_151"/>
<path fill-rule="evenodd" d="M516,869.2H756.6V854.1H516v15.1Z" class="g0_151"/>
<path fill-rule="evenodd" d="M493.6,930.2H758V914.4H493.6v15.8Z" class="g0_151"/>
<path d="M192.2,103V221.8m2.1,90.6v65m1.9,-65V720.5M505.7,147.4v769" class="g1_151"/>
</svg>