<?xml version="1.0" encoding="UTF-8" standalone="no"?>
<!DOCTYPE svg PUBLIC "-//W3C//DTD SVG 1.1//EN"
"http://www.w3.org/Graphics/SVG/1.1/DTD/svg11.dtd">
<svg viewBox="0 0 909 1285" version="1.1" xmlns="http://www.w3.org/2000/svg" xmlns:xlink="http://www.w3.org/1999/xlink">
<defs>
<style type="text/css"><![CDATA[
.g0_157{
fill: #FFFFFF;
}
.g1_157{
fill: none;
stroke: #000000;
stroke-width: 0.381;
stroke-linecap: butt;
stroke-linejoin: round;
}
]]></style>
</defs>
<path fill-rule="evenodd" d="M271.2,125.8H769.6V110H271.2v15.8Z" class="g0_157"/>
<path fill-rule="evenodd" d="M271.6,161.7H510v-15H271.6v15Z" class="g0_157"/>
<path fill-rule="evenodd" d="M271.6,176.9H510V161.7H271.6v15.2Z" class="g0_157"/>
<path fill-rule="evenodd" d="M271.6,192H510V176.9H271.6V192Z" class="g0_157"/>
<path fill-rule="evenodd" d="M271.6,207H510V192H271.6v15Z" class="g0_157"/>
<path fill-rule="evenodd" d="M271.6,222H510V207H271.6v15Z" class="g0_157"/>
<path fill-rule="evenodd" d="M271.6,237.1H510V222H271.6v15.1Z" class="g0_157"/>
<path fill-rule="evenodd" d="M271.2,252.1H509.6v-15H271.2v15Z" class="g0_157"/>
<path fill-rule="evenodd" d="M271.2,267.1H509.6v-15H271.2v15Z" class="g0_157"/>
<path fill-rule="evenodd" d="M270.9,282.2H509.6V267.1H270.9v15.1Z" class="g0_157"/>
<path fill-rule="evenodd" d="M270.9,297.2H509.6v-15H270.9v15Z" class="g0_157"/>
<path fill-rule="evenodd" d="M270.9,312.2H509.6v-15H270.9v15Z" class="g0_157"/>
<path fill-rule="evenodd" d="M270.9,327.3H509.6V312.2H270.9v15.1Z" class="g0_157"/>
<path fill-rule="evenodd" d="M270.9,342.5H510V327.3H270.9v15.2Z" class="g0_157"/>
<path fill-rule="evenodd" d="M270.9,357.6H510V342.5H270.9v15.1Z" class="g0_157"/>
<path fill-rule="evenodd" d="M270.9,372.6H510v-15H270.9v15Z" class="g0_157"/>
<path fill-rule="evenodd" d="M270.9,387.6H510v-15H270.9v15Z" class="g0_157"/>
<path fill-rule="evenodd" d="M270.9,402.7H510V387.6H270.9v15.1Z" class="g0_157"/>
<path fill-rule="evenodd" d="M270.1,417.7H509.2v-15H270.1v15Z" class="g0_157"/>
<path fill-rule="evenodd" d="M270.1,432.7H509.2v-15H270.1v15Z" class="g0_157"/>
<path fill-rule="evenodd" d="M288.5,447.8H510V432.7H288.5v15.1Z" class="g0_157"/>
<path fill-rule="evenodd" d="M270.1,462.8H510v-15H270.1v15Z" class="g0_157"/>
<path fill-rule="evenodd" d="M270.1,477.8H510v-15H270.1v15Z" class="g0_157"/>
<path fill-rule="evenodd" d="M270.1,492.9H510V477.8H270.1v15.1Z" class="g0_157"/>
<path fill-rule="evenodd" d="M270.1,507.9H510v-15H270.1v15Z" class="g0_157"/>
<path fill-rule="evenodd" d="M270.1,523.1H510V507.9H270.1v15.2Z" class="g0_157"/>
<path fill-rule="evenodd" d="M270.1,538.2H509.2V523.1H270.1v15.1Z" class="g0_157"/>
<path fill-rule="evenodd" d="M270.1,553.2H509.2v-15H270.1v15Z" class="g0_157"/>
<path fill-rule="evenodd" d="M270.1,568.2H509.2v-15H270.1v15Z" class="g0_157"/>
<path fill-rule="evenodd" d="M270.1,583.3H509.2V568.2H270.1v15.1Z" class="g0_157"/>
<path fill-rule="evenodd" d="M269.8,598.3H508.9v-15H269.8v15Z" class="g0_157"/>
<path fill-rule="evenodd" d="M269.8,613.4H508.9V598.3H269.8v15.1Z" class="g0_157"/>
<path fill-rule="evenodd" d="M269.8,628.4H508.9v-15H269.8v15Z" class="g0_157"/>
<path fill-rule="evenodd" d="M269.8,643.4H508.9v-15H269.8v15Z" class="g0_157"/>
<path fill-rule="evenodd" d="M269.8,658.5H508.9V643.4H269.8v15.1Z" class="g0_157"/>
<path fill-rule="evenodd" d="M269.8,673.5H508.1v-15H269.8v15Z" class="g0_157"/>
<path fill-rule="evenodd" d="M269.8,688.5H508.1v-15H269.8v15Z" class="g0_157"/>
<path fill-rule="evenodd" d="M269.8,703.7H508.1V688.5H269.8v15.2Z" class="g0_157"/>
<path fill-rule="evenodd" d="M269.8,718.8H508.1V703.7H269.8v15.1Z" class="g0_157"/>
<path fill-rule="evenodd" d="M269.8,733.8H508.1v-15H269.8v15Z" class="g0_157"/>
<path fill-rule="evenodd" d="M269.8,748.8H508.1v-15H269.8v15Z" class="g0_157"/>
<path fill-rule="evenodd" d="M269.8,763.9H508.1V748.8H269.8v15.1Z" class="g0_157"/>
<path fill-rule="evenodd" d="M269.8,778.9H508.1v-15H269.8v15Z" class="g0_157"/>
<path fill-rule="evenodd" d="M269.8,793.9H508.1v-15H269.8v15Z" class="g0_157"/>
<path fill-rule="evenodd" d="M269,809H508.1V793.9H269V809Z" class="g0_157"/>
<path fill-rule="evenodd" d="M269,824H508.1V809H269v15Z" class="g0_157"/>
<path fill-rule="evenodd" d="M269,839.1H508.1V824H269v15.1Z" class="g0_157"/>
<path fill-rule="evenodd" d="M269,854.1H508.1v-15H269v15Z" class="g0_157"/>
<path fill-rule="evenodd" d="M269.4,869.2H508.1V854.1H269.4v15.1Z" class="g0_157"/>
<path fill-rule="evenodd" d="M269.4,884.4H508.1V869.2H269.4v15.2Z" class="g0_157"/>
<path fill-rule="evenodd" d="M269.4,899.4H508.1v-15H269.4v15Z" class="g0_157"/>
<path fill-rule="evenodd" d="M271.6,914.4h238v-15h-238v15Z" class="g0_157"/>
<path fill-rule="evenodd" d="M530.9,161.4H769.2V146.3H530.9v15.1Z" class="g0_157"/>
<path fill-rule="evenodd" d="M530.9,176.4H769.2v-15H530.9v15Z" class="g0_157"/>
<path fill-rule="evenodd" d="M530.9,191.6H769.2V176.4H530.9v15.2Z" class="g0_157"/>
<path fill-rule="evenodd" d="M530.9,206.6H769.2v-15H530.9v15Z" class="g0_157"/>
<path fill-rule="evenodd" d="M530.5,221.7H769.6V206.6H530.5v15.1Z" class="g0_157"/>
<path fill-rule="evenodd" d="M530.5,236.7H769.6v-15H530.5v15Z" class="g0_157"/>
<path fill-rule="evenodd" d="M530.1,251.7H769.2v-15H530.1v15Z" class="g0_157"/>
<path fill-rule="evenodd" d="M530.1,266.8H769.2V251.7H530.1v15.1Z" class="g0_157"/>
<path fill-rule="evenodd" d="M530.1,281.8H769.2v-15H530.1v15Z" class="g0_157"/>
<path fill-rule="evenodd" d="M530.1,296.8H769.2v-15H530.1v15Z" class="g0_157"/>
<path fill-rule="evenodd" d="M530.1,311.9H769.2V296.8H530.1v15.1Z" class="g0_157"/>
<path fill-rule="evenodd" d="M530.1,326.9H769.2v-15H530.1v15Z" class="g0_157"/>
<path fill-rule="evenodd" d="M530.1,341.9H769.2v-15H530.1v15Z" class="g0_157"/>
<path fill-rule="evenodd" d="M530.1,357.2H769.2V342H530.1v15.2Z" class="g0_157"/>
<path fill-rule="evenodd" d="M548.5,372.2H769.6v-15H548.5v15Z" class="g0_157"/>
<path fill-rule="evenodd" d="M530.1,387.3H769.2V372.2H530.1v15.1Z" class="g0_157"/>
<path fill-rule="evenodd" d="M530.1,402.3H769.2v-15H530.1v15Z" class="g0_157"/>
<path fill-rule="evenodd" d="M530.1,417.3H768.9v-15H530.1v15Z" class="g0_157"/>
<path fill-rule="evenodd" d="M530.1,432.4H768.9V417.3H530.1v15.1Z" class="g0_157"/>
<path fill-rule="evenodd" d="M529.4,447.4H768.5v-15H529.4v15Z" class="g0_157"/>
<path fill-rule="evenodd" d="M529.4,462.4H768.5v-15H529.4v15Z" class="g0_157"/>
<path fill-rule="evenodd" d="M529.4,477.5H768.5V462.4H529.4v15.1Z" class="g0_157"/>
<path fill-rule="evenodd" d="M529.4,492.5H768.1v-15H529.4v15Z" class="g0_157"/>
<path fill-rule="evenodd" d="M529.4,507.5H768.1v-15H529.4v15Z" class="g0_157"/>
<path fill-rule="evenodd" d="M529.8,522.6H768.1V507.5H529.8v15.1Z" class="g0_157"/>
<path fill-rule="evenodd" d="M529.8,537.8H768.1V522.6H529.8v15.2Z" class="g0_157"/>
<path fill-rule="evenodd" d="M529.4,552.8H768.5v-15H529.4v15Z" class="g0_157"/>
<path fill-rule="evenodd" d="M529.4,567.9H768.5V552.8H529.4v15.1Z" class="g0_157"/>
<path fill-rule="evenodd" d="M529.4,582.9H768.5v-15H529.4v15Z" class="g0_157"/>
<path fill-rule="evenodd" d="M529.4,598H768.5V582.9H529.4V598Z" class="g0_157"/>
<path fill-rule="evenodd" d="M529.4,613H768.5V598H529.4v15Z" class="g0_157"/>
<path fill-rule="evenodd" d="M529,628H768.1V613H529v15Z" class="g0_157"/>
<path fill-rule="evenodd" d="M529,643.1H768.1V628H529v15.1Z" class="g0_157"/>
<path fill-rule="evenodd" d="M529,658.1H768.1v-15H529v15Z" class="g0_157"/>
<path fill-rule="evenodd" d="M529,673.1H768.1v-15H529v15Z" class="g0_157"/>
<path fill-rule="evenodd" d="M529,688.2H768.1V673.1H529v15.1Z" class="g0_157"/>
<path fill-rule="evenodd" d="M529,703.2H768.1v-15H529v15Z" class="g0_157"/>
<path fill-rule="evenodd" d="M529,718.4H767.8V703.2H529v15.2Z" class="g0_157"/>
<path fill-rule="evenodd" d="M529,733.4H767.8v-15H529v15Z" class="g0_157"/>
<path fill-rule="evenodd" d="M529,748.5H767.8V733.4H529v15.1Z" class="g0_157"/>
<path fill-rule="evenodd" d="M528.3,763.9H767.8V748.8H528.3v15.1Z" class="g0_157"/>
<path fill-rule="evenodd" d="M528.3,778.9H767.8v-15H528.3v15Z" class="g0_157"/>
<path fill-rule="evenodd" d="M528.3,793.9H767.8v-15H528.3v15Z" class="g0_157"/>
<path fill-rule="evenodd" d="M528.3,809H767.8V793.9H528.3V809Z" class="g0_157"/>
<path fill-rule="evenodd" d="M528.7,824H768.1V809H528.7v15Z" class="g0_157"/>
<path fill-rule="evenodd" d="M528.7,839.1H768.1V824H528.7v15.1Z" class="g0_157"/>
<path fill-rule="evenodd" d="M528.7,854.1H768.1v-15H528.7v15Z" class="g0_157"/>
<path fill-rule="evenodd" d="M528.7,869.2H768.1V854.1H528.7v15.1Z" class="g0_157"/>
<path fill-rule="evenodd" d="M529,884.4H767.8V869.2H529v15.2Z" class="g0_157"/>
<path fill-rule="evenodd" d="M529,899.4H767.8v-15H529v15Z" class="g0_157"/>
<path fill-rule="evenodd" d="M506.3,931.5H769.6V914.1H506.3v17.4Z" class="g0_157"/>
<path d="M210.7,118.1v95.3M211.8,79.9V506.3m-8.1,6V966.5m2.9,-757V980.9m3,-760.1V988.9M518.3,147.8V916.4" class="g1_157"/>
</svg>