<?xml version="1.0" encoding="UTF-8" standalone="no"?>
<!DOCTYPE svg PUBLIC "-//W3C//DTD SVG 1.1//EN"
"http://www.w3.org/Graphics/SVG/1.1/DTD/svg11.dtd">
<svg viewBox="0 0 909 1285" version="1.1" xmlns="http://www.w3.org/2000/svg" xmlns:xlink="http://www.w3.org/1999/xlink">
<defs>
<style type="text/css"><![CDATA[
.g0_312{
fill: #FFFFFF;
}
.g1_312{
fill: none;
stroke: #000000;
stroke-width: 0.381;
stroke-linecap: butt;
stroke-linejoin: round;
}
]]></style>
</defs>
<path fill-rule="evenodd" d="M581.3,125.8H685.1V110H581.3v15.8Z" class="g0_312"/>
<path fill-rule="evenodd" d="M205.7,162.3H425.8V147.1H205.7v15.2Z" class="g0_312"/>
<path fill-rule="evenodd" d="M187.8,177.3h238v-15h-238v15Z" class="g0_312"/>
<path fill-rule="evenodd" d="M187.8,192.3h238v-15h-238v15Z" class="g0_312"/>
<path fill-rule="evenodd" d="M205.7,207.4H425.8V192.3H205.7v15.1Z" class="g0_312"/>
<path fill-rule="evenodd" d="M205.7,222.4H425.8v-15H205.7v15Z" class="g0_312"/>
<path fill-rule="evenodd" d="M186.7,237.4H425.4v-15H186.7v15Z" class="g0_312"/>
<path fill-rule="evenodd" d="M186.7,252.5H425.4V237.4H186.7v15.1Z" class="g0_312"/>
<path fill-rule="evenodd" d="M186.7,267.5H425.4v-15H186.7v15Z" class="g0_312"/>
<path fill-rule="evenodd" d="M187,282.9H425v-15H187v15Z" class="g0_312"/>
<path fill-rule="evenodd" d="M187,297.9H425v-15H187v15Z" class="g0_312"/>
<path fill-rule="evenodd" d="M187,313.2H425V297.9H187v15.3Z" class="g0_312"/>
<path fill-rule="evenodd" d="M186.7,328.6H425V313.5H186.7v15.1Z" class="g0_312"/>
<path fill-rule="evenodd" d="M186.7,343.6H425v-15H186.7v15Z" class="g0_312"/>
<path fill-rule="evenodd" d="M186.7,358.7H425V343.6H186.7v15.1Z" class="g0_312"/>
<path fill-rule="evenodd" d="M186.7,373.7H425v-15H186.7v15Z" class="g0_312"/>
<path fill-rule="evenodd" d="M185.9,388.7H424.7v-15H185.9v15Z" class="g0_312"/>
<path fill-rule="evenodd" d="M185.9,403.8H424.7V388.7H185.9v15.1Z" class="g0_312"/>
<path fill-rule="evenodd" d="M185.9,418.8H424.7v-15H185.9v15Z" class="g0_312"/>
<path fill-rule="evenodd" d="M185.9,433.8H424.7v-15H185.9v15Z" class="g0_312"/>
<path fill-rule="evenodd" d="M205,449.2H425.8v-15H205v15Z" class="g0_312"/>
<path fill-rule="evenodd" d="M186.3,464.5H423.6V449.2H186.3v15.3Z" class="g0_312"/>
<path fill-rule="evenodd" d="M186.3,479.5H423.6v-15H186.3v15Z" class="g0_312"/>
<path fill-rule="evenodd" d="M185.9,494.5h238v-15h-238v15Z" class="g0_312"/>
<path fill-rule="evenodd" d="M185.9,509.6h238V494.5h-238v15.1Z" class="g0_312"/>
<path fill-rule="evenodd" d="M185.9,524.6h238v-15h-238v15Z" class="g0_312"/>
<path fill-rule="evenodd" d="M185.9,539.6h238v-15h-238v15Z" class="g0_312"/>
<path fill-rule="evenodd" d="M185.6,554.7H424.7V539.6H185.6v15.1Z" class="g0_312"/>
<path fill-rule="evenodd" d="M185.6,569.7H424.7v-15H185.6v15Z" class="g0_312"/>
<path fill-rule="evenodd" d="M185.9,584.7H424.7v-15H185.9v15Z" class="g0_312"/>
<path fill-rule="evenodd" d="M185.9,599.8H424.7V584.7H185.9v15.1Z" class="g0_312"/>
<path fill-rule="evenodd" d="M185.9,614.8H424.7v-15H185.9v15Z" class="g0_312"/>
<path fill-rule="evenodd" d="M184.8,629.9H423.6V614.8H184.8v15.1Z" class="g0_312"/>
<path fill-rule="evenodd" d="M184.8,645.1H423.6V629.9H184.8v15.2Z" class="g0_312"/>
<path fill-rule="evenodd" d="M184.8,660.1H423.6v-15H184.8v15Z" class="g0_312"/>
<path fill-rule="evenodd" d="M184.8,675.1H423.6v-15H184.8v15Z" class="g0_312"/>
<path fill-rule="evenodd" d="M184.8,690.2H423.6V675.1H184.8v15.1Z" class="g0_312"/>
<path fill-rule="evenodd" d="M184.8,705.2H423.9v-15H184.8v15Z" class="g0_312"/>
<path fill-rule="evenodd" d="M184.8,720.2H423.9v-15H184.8v15Z" class="g0_312"/>
<path fill-rule="evenodd" d="M184.8,735.3H423.9V720.2H184.8v15.1Z" class="g0_312"/>
<path fill-rule="evenodd" d="M184.8,750.3H423.9v-15H184.8v15Z" class="g0_312"/>
<path fill-rule="evenodd" d="M184.8,765.3H423.2v-15H184.8v15Z" class="g0_312"/>
<path fill-rule="evenodd" d="M184.8,780.4H423.2V765.3H184.8v15.1Z" class="g0_312"/>
<path fill-rule="evenodd" d="M184.8,795.4H423.2v-15H184.8v15Z" class="g0_312"/>
<path fill-rule="evenodd" d="M185.2,810.4H425.8v-15H185.2v15Z" class="g0_312"/>
<path fill-rule="evenodd" d="M202.8,825.7h223V810.4h-223v15.3Z" class="g0_312"/>
<path fill-rule="evenodd" d="M184.5,840.7H423.6v-15H184.5v15Z" class="g0_312"/>
<path fill-rule="evenodd" d="M184.5,855.8H423.6V840.7H184.5v15.1Z" class="g0_312"/>
<path fill-rule="evenodd" d="M184.5,870.8H423.6v-15H184.5v15Z" class="g0_312"/>
<path fill-rule="evenodd" d="M202.4,885.8H425.8v-15H202.4v15Z" class="g0_312"/>
<path fill-rule="evenodd" d="M184.1,900.9H425.8V885.8H184.1v15.1Z" class="g0_312"/>
<path fill-rule="evenodd" d="M205.4,915.9H425.8v-15H205.4v15Z" class="g0_312"/>
<path fill-rule="evenodd" d="M464.7,161.7h220v-15h-220v15Z" class="g0_312"/>
<path fill-rule="evenodd" d="M446.3,176.9H684.7V161.7H446.3v15.2Z" class="g0_312"/>
<path fill-rule="evenodd" d="M465,192.3H684.7v-15H465v15Z" class="g0_312"/>
<path fill-rule="evenodd" d="M445.9,207.4H684.7V192.3H445.9v15.1Z" class="g0_312"/>
<path fill-rule="evenodd" d="M464.3,222.4H684.7v-15H464.3v15Z" class="g0_312"/>
<path fill-rule="evenodd" d="M464.3,237.4H684.7v-15H464.3v15Z" class="g0_312"/>
<path fill-rule="evenodd" d="M464.3,252.5H684.7V237.4H464.3v15.1Z" class="g0_312"/>
<path fill-rule="evenodd" d="M445.6,267.5H684.7v-15H445.6v15Z" class="g0_312"/>
<path fill-rule="evenodd" d="M445.6,282.9H684.7V267.5H445.6v15.4Z" class="g0_312"/>
<path fill-rule="evenodd" d="M463.9,297.9H684.7v-15H463.9v15Z" class="g0_312"/>
<path fill-rule="evenodd" d="M463.9,313.2H684.7V297.9H463.9v15.3Z" class="g0_312"/>
<path fill-rule="evenodd" d="M445.6,328.2H684.4v-15H445.6v15Z" class="g0_312"/>
<path fill-rule="evenodd" d="M445.6,343.2H684.4v-15H445.6v15Z" class="g0_312"/>
<path fill-rule="evenodd" d="M445.2,358.3H684V343.2H445.2v15.1Z" class="g0_312"/>
<path fill-rule="evenodd" d="M445.2,373.3H684v-15H445.2v15Z" class="g0_312"/>
<path fill-rule="evenodd" d="M445.2,388.4H684V373.3H445.2v15.1Z" class="g0_312"/>
<path fill-rule="evenodd" d="M445.2,403.4H683.6v-15H445.2v15Z" class="g0_312"/>
<path fill-rule="evenodd" d="M445.2,418.4H683.6v-15H445.2v15Z" class="g0_312"/>
<path fill-rule="evenodd" d="M463.6,433.5H684.7V418.4H463.6v15.1Z" class="g0_312"/>
<path fill-rule="evenodd" d="M444.8,448.5H683.6v-15H444.8v15Z" class="g0_312"/>
<path fill-rule="evenodd" d="M444.8,463.5H683.6v-15H444.8v15Z" class="g0_312"/>
<path fill-rule="evenodd" d="M444.8,478.6H683.6V463.5H444.8v15.1Z" class="g0_312"/>
<path fill-rule="evenodd" d="M445.2,493.8H683.6V478.6H445.2v15.2Z" class="g0_312"/>
<path fill-rule="evenodd" d="M445.2,508.8H683.6v-15H445.2v15Z" class="g0_312"/>
<path fill-rule="evenodd" d="M445.2,523.9H683.3V508.8H445.2v15.1Z" class="g0_312"/>
<path fill-rule="evenodd" d="M445.2,538.9H683.3v-15H445.2v15Z" class="g0_312"/>
<path fill-rule="evenodd" d="M444.8,553.9H683.3v-15H444.8v15Z" class="g0_312"/>
<path fill-rule="evenodd" d="M444.8,569H683.3V553.9H444.8V569Z" class="g0_312"/>
<path fill-rule="evenodd" d="M444.8,584H683.3V569H444.8v15Z" class="g0_312"/>
<path fill-rule="evenodd" d="M444.8,599.1H683.3V584H444.8v15.1Z" class="g0_312"/>
<path fill-rule="evenodd" d="M443.7,614.1H682.9v-15H443.7v15Z" class="g0_312"/>
<path fill-rule="evenodd" d="M443.7,629.1H682.9v-15H443.7v15Z" class="g0_312"/>
<path fill-rule="evenodd" d="M443.7,644.2H682.9V629.1H443.7v15.1Z" class="g0_312"/>
<path fill-rule="evenodd" d="M443.7,659.2H682.9v-15H443.7v15Z" class="g0_312"/>
<path fill-rule="evenodd" d="M443.7,674.4H682.9V659.2H443.7v15.2Z" class="g0_312"/>
<path fill-rule="evenodd" d="M443.7,689.4H682.9v-15H443.7v15Z" class="g0_312"/>
<path fill-rule="evenodd" d="M443.7,704.5H682.9V689.4H443.7v15.1Z" class="g0_312"/>
<path fill-rule="evenodd" d="M443.7,719.5H682.9v-15H443.7v15Z" class="g0_312"/>
<path fill-rule="evenodd" d="M443.7,734.5H682.5v-15H443.7v15Z" class="g0_312"/>
<path fill-rule="evenodd" d="M443.7,749.6H682.5V734.5H443.7v15.1Z" class="g0_312"/>
<path fill-rule="evenodd" d="M443.7,764.6H682.5v-15H443.7v15Z" class="g0_312"/>
<path fill-rule="evenodd" d="M443.7,779.6H682.5v-15H443.7v15Z" class="g0_312"/>
<path fill-rule="evenodd" d="M443.7,794.7H682.5V779.6H443.7v15.1Z" class="g0_312"/>
<path fill-rule="evenodd" d="M443.4,809.7H682.2v-15H443.4v15Z" class="g0_312"/>
<path fill-rule="evenodd" d="M443.4,824.7H682.2v-15H443.4v15Z" class="g0_312"/>
<path fill-rule="evenodd" d="M443.4,839.8H682.2V824.7H443.4v15.1Z" class="g0_312"/>
<path fill-rule="evenodd" d="M443.4,855H682.2V839.8H443.4V855Z" class="g0_312"/>
<path fill-rule="evenodd" d="M443.4,870.1H682.2V855H443.4v15.1Z" class="g0_312"/>
<path fill-rule="evenodd" d="M443.4,885.1H682.2v-15H443.4v15Z" class="g0_312"/>
<path fill-rule="evenodd" d="M419.9,933.1H685.1V915.5H419.9v17.6Z" class="g0_312"/>
<path d="M432.3,146.7V916" class="g1_312"/>
</svg>