<?xml version="1.0" encoding="UTF-8" standalone="no"?>
<!DOCTYPE svg PUBLIC "-//W3C//DTD SVG 1.1//EN"
"http://www.w3.org/Graphics/SVG/1.1/DTD/svg11.dtd">
<svg viewBox="0 0 909 1285" version="1.1" xmlns="http://www.w3.org/2000/svg" xmlns:xlink="http://www.w3.org/1999/xlink">
<defs>
<style type="text/css"><![CDATA[
.g0_254{
fill: #FFFFFF;
}
.g1_254{
fill: none;
stroke: #000000;
stroke-width: 2.215;
stroke-linecap: butt;
stroke-linejoin: round;
}
.g2_254{
fill: none;
stroke: #000000;
stroke-width: 0.763;
stroke-linecap: butt;
stroke-linejoin: round;
}
.g3_254{
fill: none;
stroke: #000000;
stroke-width: 3.284;
stroke-linecap: butt;
stroke-linejoin: round;
}
.g4_254{
fill: none;
stroke: #000000;
stroke-width: 0.381;
stroke-linecap: butt;
stroke-linejoin: round;
}
]]></style>
</defs>
<path fill-rule="evenodd" d="M256.3,125.8H755.8V110H256.3v15.8Z" class="g0_254"/>
<path fill-rule="evenodd" d="M255.6,161.4H495.5V146.7H255.6v14.7Z" class="g0_254"/>
<path fill-rule="evenodd" d="M255.6,176H495.5V161.4H255.6V176Z" class="g0_254"/>
<path fill-rule="evenodd" d="M274.3,190.7H495.5V176H274.3v14.7Z" class="g0_254"/>
<path fill-rule="evenodd" d="M255.6,205.4H495.5V190.7H255.6v14.7Z" class="g0_254"/>
<path fill-rule="evenodd" d="M255.6,220H495.5V205.4H255.6V220Z" class="g0_254"/>
<path fill-rule="evenodd" d="M255.6,234.7H495.5V220H255.6v14.7Z" class="g0_254"/>
<path fill-rule="evenodd" d="M255.6,249.4H495.5V234.7H255.6v14.7Z" class="g0_254"/>
<path fill-rule="evenodd" d="M255.6,264H495.5V249.4H255.6V264Z" class="g0_254"/>
<path fill-rule="evenodd" d="M274.3,278.7H495.5V264H274.3v14.7Z" class="g0_254"/>
<path fill-rule="evenodd" d="M256,293.4H495.5V278.7H256v14.7Z" class="g0_254"/>
<path fill-rule="evenodd" d="M256,308H495.5V293.4H256V308Z" class="g0_254"/>
<path fill-rule="evenodd" d="M255.6,322.7H495.5V308H255.6v14.7Z" class="g0_254"/>
<path fill-rule="evenodd" d="M255.6,337.4H495.5V322.7H255.6v14.7Z" class="g0_254"/>
<path fill-rule="evenodd" d="M255.6,352H495.5V337.4H255.6V352Z" class="g0_254"/>
<path fill-rule="evenodd" d="M255.6,366.7H495.5V352H255.6v14.7Z" class="g0_254"/>
<path fill-rule="evenodd" d="M255.6,381.4H495.5V366.7H255.6v14.7Z" class="g0_254"/>
<path fill-rule="evenodd" d="M255.2,396.1H495.1V381.4H255.2v14.7Z" class="g0_254"/>
<path fill-rule="evenodd" d="M255.2,410.7H495.1V396.1H255.2v14.6Z" class="g0_254"/>
<path fill-rule="evenodd" d="M255.2,425.4H495.1V410.7H255.2v14.7Z" class="g0_254"/>
<path fill-rule="evenodd" d="M255.2,440.1H495.1V425.4H255.2v14.7Z" class="g0_254"/>
<path fill-rule="evenodd" d="M255.2,454.7H495.1V440.1H255.2v14.6Z" class="g0_254"/>
<path fill-rule="evenodd" d="M255.2,469.4H494.7V454.7H255.2v14.7Z" class="g0_254"/>
<path fill-rule="evenodd" d="M255.2,484.1H494.7V469.4H255.2v14.7Z" class="g0_254"/>
<path fill-rule="evenodd" d="M255.2,499.3H495.5V484.4H255.2v14.9Z" class="g0_254"/>
<path fill-rule="evenodd" d="M255.2,514H495.5V499.3H255.2V514Z" class="g0_254"/>
<path fill-rule="evenodd" d="M254.9,528.6H495.1V514H254.9v14.6Z" class="g0_254"/>
<path fill-rule="evenodd" d="M254.9,543.3H495.1V528.6H254.9v14.7Z" class="g0_254"/>
<path fill-rule="evenodd" d="M254.9,558H495.1V543.3H254.9V558Z" class="g0_254"/>
<path fill-rule="evenodd" d="M254.9,572.6H495.1V558H254.9v14.6Z" class="g0_254"/>
<path fill-rule="evenodd" d="M254.9,587.3H495.1V572.6H254.9v14.7Z" class="g0_254"/>
<path fill-rule="evenodd" d="M255.2,602.4H494.4V587.7H255.2v14.7Z" class="g0_254"/>
<path fill-rule="evenodd" d="M255.2,617H494.4V602.4H255.2V617Z" class="g0_254"/>
<path fill-rule="evenodd" d="M254.9,631.7H495.1V617H254.9v14.7Z" class="g0_254"/>
<path fill-rule="evenodd" d="M254.9,646.4H495.1V631.7H254.9v14.7Z" class="g0_254"/>
<path fill-rule="evenodd" d="M255.2,661.4H495.1V646.7H255.2v14.7Z" class="g0_254"/>
<path fill-rule="evenodd" d="M255.2,676.1H495.1V661.4H255.2v14.7Z" class="g0_254"/>
<path fill-rule="evenodd" d="M273.2,690.7H495.5V676.1H273.2v14.6Z" class="g0_254"/>
<path fill-rule="evenodd" d="M273.6,705.8H495.5V691.1H273.6v14.7Z" class="g0_254"/>
<path fill-rule="evenodd" d="M254.9,720.8H494.4V706.1H254.9v14.7Z" class="g0_254"/>
<path fill-rule="evenodd" d="M254.9,735.5H494.4V720.8H254.9v14.7Z" class="g0_254"/>
<path fill-rule="evenodd" d="M255.2,750.9H494.4V736.2H255.2v14.7Z" class="g0_254"/>
<path fill-rule="evenodd" d="M255.2,765.5H494.4V750.9H255.2v14.6Z" class="g0_254"/>
<path fill-rule="evenodd" d="M254.9,780.9H494.4V766.3H254.9v14.6Z" class="g0_254"/>
<path fill-rule="evenodd" d="M254.9,795.6H494.4V780.9H254.9v14.7Z" class="g0_254"/>
<path fill-rule="evenodd" d="M254.9,810.3H494.4V795.6H254.9v14.7Z" class="g0_254"/>
<path fill-rule="evenodd" d="M254.9,824.9H494.4V810.3H254.9v14.6Z" class="g0_254"/>
<path fill-rule="evenodd" d="M254.5,839.6H494V824.9H254.5v14.7Z" class="g0_254"/>
<path fill-rule="evenodd" d="M254.5,854.3H494V839.6H254.5v14.7Z" class="g0_254"/>
<path fill-rule="evenodd" d="M254.5,869H494.4V854.3H254.5V869Z" class="g0_254"/>
<path fill-rule="evenodd" d="M254.5,883.6H494.4V869H254.5v14.6Z" class="g0_254"/>
<path fill-rule="evenodd" d="M255.6,898.3H494.7V883.6H255.6v14.7Z" class="g0_254"/>
<path fill-rule="evenodd" d="M516,161H755.1V146.3H516V161Z" class="g0_254"/>
<path fill-rule="evenodd" d="M516,175.7H755.1V161H516v14.7Z" class="g0_254"/>
<path fill-rule="evenodd" d="M516.4,190.3H755.5V175.7H516.4v14.6Z" class="g0_254"/>
<path fill-rule="evenodd" d="M516.4,205H755.5V190.3H516.4V205Z" class="g0_254"/>
<path fill-rule="evenodd" d="M516,219.7H755.8V205H516v14.7Z" class="g0_254"/>
<path fill-rule="evenodd" d="M516,234.3H755.8V219.7H516v14.6Z" class="g0_254"/>
<path fill-rule="evenodd" d="M516,249H755.8V234.3H516V249Z" class="g0_254"/>
<path fill-rule="evenodd" d="M534.3,264H755.8V249.4H534.3V264Z" class="g0_254"/>
<path fill-rule="evenodd" d="M516,279.1H755.5V264.4H516v14.7Z" class="g0_254"/>
<path fill-rule="evenodd" d="M516,293.9H755.5V279.1H516v14.8Z" class="g0_254"/>
<path fill-rule="evenodd" d="M516,308.6H755.8V293.9H516v14.7Z" class="g0_254"/>
<path fill-rule="evenodd" d="M516,323.2H755.8V308.6H516v14.6Z" class="g0_254"/>
<path fill-rule="evenodd" d="M516.4,337.9H755.5V323.2H516.4v14.7Z" class="g0_254"/>
<path fill-rule="evenodd" d="M516.4,352.6H755.5V337.9H516.4v14.7Z" class="g0_254"/>
<path fill-rule="evenodd" d="M516,367.7H755.8V353H516v14.7Z" class="g0_254"/>
<path fill-rule="evenodd" d="M516,382.3H755.8V367.7H516v14.6Z" class="g0_254"/>
<path fill-rule="evenodd" d="M515.3,397H755.8V382.3H515.3V397Z" class="g0_254"/>
<path fill-rule="evenodd" d="M515.3,411.7H755.8V397H515.3v14.7Z" class="g0_254"/>
<path fill-rule="evenodd" d="M515.3,426.3H755.8V411.7H515.3v14.6Z" class="g0_254"/>
<path fill-rule="evenodd" d="M515.3,441H755.8V426.3H515.3V441Z" class="g0_254"/>
<path fill-rule="evenodd" d="M515.3,455.7H755.8V441H515.3v14.7Z" class="g0_254"/>
<path fill-rule="evenodd" d="M515.3,470.3H755.8V455.7H515.3v14.6Z" class="g0_254"/>
<path fill-rule="evenodd" d="M515.3,485H754.7V470.3H515.3V485Z" class="g0_254"/>
<path fill-rule="evenodd" d="M515.3,499.7H754.7V485H515.3v14.7Z" class="g0_254"/>
<path fill-rule="evenodd" d="M515.3,514.3H754.7V499.7H515.3v14.6Z" class="g0_254"/>
<path fill-rule="evenodd" d="M515.3,529H754.7V514.3H515.3V529Z" class="g0_254"/>
<path fill-rule="evenodd" d="M515.3,543.7H755.1V529H515.3v14.7Z" class="g0_254"/>
<path fill-rule="evenodd" d="M515.3,558.3H755.1V543.7H515.3v14.6Z" class="g0_254"/>
<path fill-rule="evenodd" d="M514.9,573H755.1V558.3H514.9V573Z" class="g0_254"/>
<path fill-rule="evenodd" d="M514.9,587.7H755.1V573H514.9v14.7Z" class="g0_254"/>
<path fill-rule="evenodd" d="M514.9,602.4H755.1V587.7H514.9v14.7Z" class="g0_254"/>
<path fill-rule="evenodd" d="M514.9,617H755.1V602.4H514.9V617Z" class="g0_254"/>
<path fill-rule="evenodd" d="M514.9,631.7H755.1V617H514.9v14.7Z" class="g0_254"/>
<path fill-rule="evenodd" d="M514.9,646.4H755.1V631.7H514.9v14.7Z" class="g0_254"/>
<path fill-rule="evenodd" d="M514.9,661H755.1V646.4H514.9V661Z" class="g0_254"/>
<path fill-rule="evenodd" d="M514.9,675.7H755.1V661H514.9v14.7Z" class="g0_254"/>
<path fill-rule="evenodd" d="M514.9,690.4H755.1V675.7H514.9v14.7Z" class="g0_254"/>
<path fill-rule="evenodd" d="M514.9,705H755.1V690.4H514.9V705Z" class="g0_254"/>
<path fill-rule="evenodd" d="M515.3,719.7H754.7V705H515.3v14.7Z" class="g0_254"/>
<path fill-rule="evenodd" d="M515.3,734.4H754.7V719.7H515.3v14.7Z" class="g0_254"/>
<path fill-rule="evenodd" d="M515.3,749H755.1V734.4H515.3V749Z" class="g0_254"/>
<path fill-rule="evenodd" d="M515.3,763.7H755.1V749H515.3v14.7Z" class="g0_254"/>
<path fill-rule="evenodd" d="M514.9,778.4H755.1V763.7H514.9v14.7Z" class="g0_254"/>
<path fill-rule="evenodd" d="M514.9,793H755.1V778.4H514.9V793Z" class="g0_254"/>
<path fill-rule="evenodd" d="M514.9,807.7H754.7V793H514.9v14.7Z" class="g0_254"/>
<path fill-rule="evenodd" d="M514.9,822.4H754.7V807.7H514.9v14.7Z" class="g0_254"/>
<path fill-rule="evenodd" d="M514.9,837.1H755.1V822.4H514.9v14.7Z" class="g0_254"/>
<path fill-rule="evenodd" d="M514.9,851.7H755.1V837.1H514.9v14.6Z" class="g0_254"/>
<path fill-rule="evenodd" d="M533.6,866.4H755.8V851.7H533.6v14.7Z" class="g0_254"/>
<path fill-rule="evenodd" d="M514.9,881.4H754.7V866.8H514.9v14.6Z" class="g0_254"/>
<path fill-rule="evenodd" d="M514.9,896.1H754.7V881.4H514.9v14.7Z" class="g0_254"/>
<path fill-rule="evenodd" d="M491.4,927.8H755.8V910.4H491.4v17.4Z" class="g0_254"/>
<path d="M187.8,87.2v58.7" class="g1_254"/>
<path d="M200.2,86.9v64.2M188.8,661.5V928.4" class="g2_254"/>
<path d="M189.2,594.5v92" class="g3_254"/>
<path d="M204.3,191.8V935.1M504.5,147.4V916" class="g4_254"/>
</svg>