<?xml version="1.0" encoding="UTF-8" standalone="no"?>
<!DOCTYPE svg PUBLIC "-//W3C//DTD SVG 1.1//EN"
"http://www.w3.org/Graphics/SVG/1.1/DTD/svg11.dtd">
<svg viewBox="0 0 909 1285" version="1.1" xmlns="http://www.w3.org/2000/svg" xmlns:xlink="http://www.w3.org/1999/xlink">
<defs>
<style type="text/css"><![CDATA[
.g0_59{
fill: #FFFFFF;
}
.g1_59{
fill: none;
stroke: #000000;
stroke-width: 0.381;
stroke-linecap: butt;
stroke-linejoin: round;
}
]]></style>
</defs>
<path fill-rule="evenodd" d="M261.8,125.8H760.6V110H261.8v15.8Z" class="g0_59"/>
<path fill-rule="evenodd" d="M261.1,161.7H501v-15H261.1v15Z" class="g0_59"/>
<path fill-rule="evenodd" d="M261.1,176.9H501V161.7H261.1v15.2Z" class="g0_59"/>
<path fill-rule="evenodd" d="M261.1,192H501V176.9H261.1V192Z" class="g0_59"/>
<path fill-rule="evenodd" d="M261.1,207H501V192H261.1v15Z" class="g0_59"/>
<path fill-rule="evenodd" d="M261.1,222H500.2V207H261.1v15Z" class="g0_59"/>
<path fill-rule="evenodd" d="M261.1,237.1H500.2V222H261.1v15.1Z" class="g0_59"/>
<path fill-rule="evenodd" d="M261.1,252.1H500.2v-15H261.1v15Z" class="g0_59"/>
<path fill-rule="evenodd" d="M261.1,267.1H500.6v-15H261.1v15Z" class="g0_59"/>
<path fill-rule="evenodd" d="M261.1,282.2H500.6V267.1H261.1v15.1Z" class="g0_59"/>
<path fill-rule="evenodd" d="M261.1,297.2H500.6v-15H261.1v15Z" class="g0_59"/>
<path fill-rule="evenodd" d="M261.1,312.2H500.6v-15H261.1v15Z" class="g0_59"/>
<path fill-rule="evenodd" d="M261.1,327.3H500.2V312.2H261.1v15.1Z" class="g0_59"/>
<path fill-rule="evenodd" d="M261.1,342.5H500.2V327.3H261.1v15.2Z" class="g0_59"/>
<path fill-rule="evenodd" d="M261.1,357.6H500.2V342.5H261.1v15.1Z" class="g0_59"/>
<path fill-rule="evenodd" d="M261.1,372.6H500.2v-15H261.1v15Z" class="g0_59"/>
<path fill-rule="evenodd" d="M261.1,387.6H500.2v-15H261.1v15Z" class="g0_59"/>
<path fill-rule="evenodd" d="M261.1,402.7H500.2V387.6H261.1v15.1Z" class="g0_59"/>
<path fill-rule="evenodd" d="M261.1,417.7H500.2v-15H261.1v15Z" class="g0_59"/>
<path fill-rule="evenodd" d="M260.4,432.7H499.5v-15H260.4v15Z" class="g0_59"/>
<path fill-rule="evenodd" d="M260.4,447.8H499.5V432.7H260.4v15.1Z" class="g0_59"/>
<path fill-rule="evenodd" d="M279.1,462.8H501v-15H279.1v15Z" class="g0_59"/>
<path fill-rule="evenodd" d="M260.4,477.8H499.9v-15H260.4v15Z" class="g0_59"/>
<path fill-rule="evenodd" d="M260.4,492.9H499.9V477.8H260.4v15.1Z" class="g0_59"/>
<path fill-rule="evenodd" d="M260.4,507.9H499.9v-15H260.4v15Z" class="g0_59"/>
<path fill-rule="evenodd" d="M260.4,523.1H499.9V507.9H260.4v15.2Z" class="g0_59"/>
<path fill-rule="evenodd" d="M260.4,538.2H499.9V523.1H260.4v15.1Z" class="g0_59"/>
<path fill-rule="evenodd" d="M260.4,553.2H499.9v-15H260.4v15Z" class="g0_59"/>
<path fill-rule="evenodd" d="M260.7,568.2H499.5v-15H260.7v15Z" class="g0_59"/>
<path fill-rule="evenodd" d="M260.7,583.3H499.5V568.2H260.7v15.1Z" class="g0_59"/>
<path fill-rule="evenodd" d="M260.7,598.3H499.5v-15H260.7v15Z" class="g0_59"/>
<path fill-rule="evenodd" d="M260.4,613.4H499.1V598.3H260.4v15.1Z" class="g0_59"/>
<path fill-rule="evenodd" d="M260.4,628.4H499.1v-15H260.4v15Z" class="g0_59"/>
<path fill-rule="evenodd" d="M260.4,643.4H499.1v-15H260.4v15Z" class="g0_59"/>
<path fill-rule="evenodd" d="M259.6,658.5H498.8V643.4H259.6v15.1Z" class="g0_59"/>
<path fill-rule="evenodd" d="M259.6,673.5H498.8v-15H259.6v15Z" class="g0_59"/>
<path fill-rule="evenodd" d="M259.6,688.5H498.8v-15H259.6v15Z" class="g0_59"/>
<path fill-rule="evenodd" d="M259.6,703.7H498.8V688.5H259.6v15.2Z" class="g0_59"/>
<path fill-rule="evenodd" d="M259.6,718.8H498.8V703.7H259.6v15.1Z" class="g0_59"/>
<path fill-rule="evenodd" d="M259.6,733.8H498.8v-15H259.6v15Z" class="g0_59"/>
<path fill-rule="evenodd" d="M259.6,748.8H498.8v-15H259.6v15Z" class="g0_59"/>
<path fill-rule="evenodd" d="M259.6,763.9H498.8V748.8H259.6v15.1Z" class="g0_59"/>
<path fill-rule="evenodd" d="M259.6,778.9H498.8v-15H259.6v15Z" class="g0_59"/>
<path fill-rule="evenodd" d="M259.6,793.9H498.4v-15H259.6v15Z" class="g0_59"/>
<path fill-rule="evenodd" d="M259.6,809H498.4V793.9H259.6V809Z" class="g0_59"/>
<path fill-rule="evenodd" d="M259.6,824H498.4V809H259.6v15Z" class="g0_59"/>
<path fill-rule="evenodd" d="M258.9,839.1H498V824H258.9v15.1Z" class="g0_59"/>
<path fill-rule="evenodd" d="M258.9,854.1H498v-15H258.9v15Z" class="g0_59"/>
<path fill-rule="evenodd" d="M258.9,869.2H498V854.1H258.9v15.1Z" class="g0_59"/>
<path fill-rule="evenodd" d="M259.3,884.4H498.4V869.2H259.3v15.2Z" class="g0_59"/>
<path fill-rule="evenodd" d="M259.3,899.4H498.4v-15H259.3v15Z" class="g0_59"/>
<path fill-rule="evenodd" d="M261.1,914.4H501v-15H261.1v15Z" class="g0_59"/>
<path fill-rule="evenodd" d="M520.8,161.7H760.6v-15H520.8v15Z" class="g0_59"/>
<path fill-rule="evenodd" d="M520.8,176.9H760.6V161.7H520.8v15.2Z" class="g0_59"/>
<path fill-rule="evenodd" d="M520.8,192H760.6V176.9H520.8V192Z" class="g0_59"/>
<path fill-rule="evenodd" d="M520.8,207H760.6V192H520.8v15Z" class="g0_59"/>
<path fill-rule="evenodd" d="M520.8,222H760.6V207H520.8v15Z" class="g0_59"/>
<path fill-rule="evenodd" d="M520.8,237.1H760.6V222H520.8v15.1Z" class="g0_59"/>
<path fill-rule="evenodd" d="M520.8,252.1H760.2v-15H520.8v15Z" class="g0_59"/>
<path fill-rule="evenodd" d="M520.8,267.1H760.2v-15H520.8v15Z" class="g0_59"/>
<path fill-rule="evenodd" d="M539.1,282.2H760.6V267.1H539.1v15.1Z" class="g0_59"/>
<path fill-rule="evenodd" d="M520.4,297.2H759.9v-15H520.4v15Z" class="g0_59"/>
<path fill-rule="evenodd" d="M520.4,312.2H759.9v-15H520.4v15Z" class="g0_59"/>
<path fill-rule="evenodd" d="M520.4,327.3H759.9V312.2H520.4v15.1Z" class="g0_59"/>
<path fill-rule="evenodd" d="M520.4,342.5H759.9V327.3H520.4v15.2Z" class="g0_59"/>
<path fill-rule="evenodd" d="M538.7,357.6H760.6V342.5H538.7v15.1Z" class="g0_59"/>
<path fill-rule="evenodd" d="M520.8,372.6H759.1v-15H520.8v15Z" class="g0_59"/>
<path fill-rule="evenodd" d="M520.8,387.6H759.1v-15H520.8v15Z" class="g0_59"/>
<path fill-rule="evenodd" d="M520.8,402.7H759.1V387.6H520.8v15.1Z" class="g0_59"/>
<path fill-rule="evenodd" d="M520.4,417.7H758.8v-15H520.4v15Z" class="g0_59"/>
<path fill-rule="evenodd" d="M520.4,432.7H758.8v-15H520.4v15Z" class="g0_59"/>
<path fill-rule="evenodd" d="M520.8,447.8H758.4V432.7H520.8v15.1Z" class="g0_59"/>
<path fill-rule="evenodd" d="M520.8,462.8H758.4v-15H520.8v15Z" class="g0_59"/>
<path fill-rule="evenodd" d="M520,477.8H758.8v-15H520v15Z" class="g0_59"/>
<path fill-rule="evenodd" d="M520,492.9H758.8V477.8H520v15.1Z" class="g0_59"/>
<path fill-rule="evenodd" d="M520,507.9H758.8v-15H520v15Z" class="g0_59"/>
<path fill-rule="evenodd" d="M520,523.1H758.4V507.9H520v15.2Z" class="g0_59"/>
<path fill-rule="evenodd" d="M520,538.2H758.4V523.1H520v15.1Z" class="g0_59"/>
<path fill-rule="evenodd" d="M520,553.6H759.1V538.5H520v15.1Z" class="g0_59"/>
<path fill-rule="evenodd" d="M520,568.6H759.1v-15H520v15Z" class="g0_59"/>
<path fill-rule="evenodd" d="M520,583.6H759.1v-15H520v15Z" class="g0_59"/>
<path fill-rule="evenodd" d="M520,598.7H759.1V583.6H520v15.1Z" class="g0_59"/>
<path fill-rule="evenodd" d="M519.3,613.7H758.4v-15H519.3v15Z" class="g0_59"/>
<path fill-rule="evenodd" d="M519.3,628.8H758.4V613.7H519.3v15.1Z" class="g0_59"/>
<path fill-rule="evenodd" d="M519.3,643.8H758.4v-15H519.3v15Z" class="g0_59"/>
<path fill-rule="evenodd" d="M519.3,658.8H758.4v-15H519.3v15Z" class="g0_59"/>
<path fill-rule="evenodd" d="M518.6,673.9H758.4V658.8H518.6v15.1Z" class="g0_59"/>
<path fill-rule="evenodd" d="M518.6,689.1H758.4V673.9H518.6v15.2Z" class="g0_59"/>
<path fill-rule="evenodd" d="M518.6,704.1H758.4v-15H518.6v15Z" class="g0_59"/>
<path fill-rule="evenodd" d="M518.6,719.1H758.4v-15H518.6v15Z" class="g0_59"/>
<path fill-rule="evenodd" d="M518.6,734.2H758.4V719.1H518.6v15.1Z" class="g0_59"/>
<path fill-rule="evenodd" d="M518.6,749.2H758.4v-15H518.6v15Z" class="g0_59"/>
<path fill-rule="evenodd" d="M537.3,764.2H760.6v-15H537.3v15Z" class="g0_59"/>
<path fill-rule="evenodd" d="M519.3,779.3H758V764.2H519.3v15.1Z" class="g0_59"/>
<path fill-rule="evenodd" d="M519.3,794.3H758v-15H519.3v15Z" class="g0_59"/>
<path fill-rule="evenodd" d="M518.9,809.3H758v-15H518.9v15Z" class="g0_59"/>
<path fill-rule="evenodd" d="M518.9,824.4H758V809.3H518.9v15.1Z" class="g0_59"/>
<path fill-rule="evenodd" d="M518.9,839.5H758V824.4H518.9v15.1Z" class="g0_59"/>
<path fill-rule="evenodd" d="M518.9,854.5H758v-15H518.9v15Z" class="g0_59"/>
<path fill-rule="evenodd" d="M518.9,869.7H758V854.5H518.9v15.2Z" class="g0_59"/>
<path fill-rule="evenodd" d="M518.9,884.7H758v-15H518.9v15Z" class="g0_59"/>
<path d="M508.6,147.8V916" class="g1_59"/>
</svg>