<?xml version="1.0" encoding="UTF-8" standalone="no"?>
<!DOCTYPE svg PUBLIC "-//W3C//DTD SVG 1.1//EN"
"http://www.w3.org/Graphics/SVG/1.1/DTD/svg11.dtd">
<svg viewBox="0 0 909 1285" version="1.1" xmlns="http://www.w3.org/2000/svg" xmlns:xlink="http://www.w3.org/1999/xlink">
<defs>
<style type="text/css"><![CDATA[
.g0_197{
fill: #FFFFFF;
}
.g1_197{
fill: none;
stroke: #000000;
stroke-width: 0.381;
stroke-linecap: butt;
stroke-linejoin: round;
}
]]></style>
</defs>
<path fill-rule="evenodd" d="M590.4,134.6h95.4V110H590.4v24.6Z" class="g0_197"/>
<path fill-rule="evenodd" d="M195.1,168.7h231v-15h-231v15Z" class="g0_197"/>
<path fill-rule="evenodd" d="M195.1,183.7h231v-15h-231v15Z" class="g0_197"/>
<path fill-rule="evenodd" d="M206.1,198.9h220V183.7h-220v15.2Z" class="g0_197"/>
<path fill-rule="evenodd" d="M187.8,214.3H426.1v-15H187.8v15Z" class="g0_197"/>
<path fill-rule="evenodd" d="M187.8,229.4H426.1V214.3H187.8v15.1Z" class="g0_197"/>
<path fill-rule="evenodd" d="M187.8,244.4H426.1v-15H187.8v15Z" class="g0_197"/>
<path fill-rule="evenodd" d="M187.8,259.4H425.4v-15H187.8v15Z" class="g0_197"/>
<path fill-rule="evenodd" d="M187.8,274.5H425.4V259.4H187.8v15.1Z" class="g0_197"/>
<path fill-rule="evenodd" d="M187.8,289.5h238v-15h-238v15Z" class="g0_197"/>
<path fill-rule="evenodd" d="M187.8,304.5h238v-15h-238v15Z" class="g0_197"/>
<path fill-rule="evenodd" d="M205.7,319.6H426.1V304.5H205.7v15.1Z" class="g0_197"/>
<path fill-rule="evenodd" d="M187.8,334.6H425.4v-15H187.8v15Z" class="g0_197"/>
<path fill-rule="evenodd" d="M187.8,349.6H425.4v-15H187.8v15Z" class="g0_197"/>
<path fill-rule="evenodd" d="M187.8,364.9H425.4V349.7H187.8v15.2Z" class="g0_197"/>
<path fill-rule="evenodd" d="M187.8,379.9H425.4v-15H187.8v15Z" class="g0_197"/>
<path fill-rule="evenodd" d="M187.4,395h238V379.9h-238V395Z" class="g0_197"/>
<path fill-rule="evenodd" d="M187.4,410h238V395h-238v15Z" class="g0_197"/>
<path fill-rule="evenodd" d="M186.7,425H425.4V410H186.7v15Z" class="g0_197"/>
<path fill-rule="evenodd" d="M186.7,440.1H425.4V425H186.7v15.1Z" class="g0_197"/>
<path fill-rule="evenodd" d="M186.7,455.1H425v-15H186.7v15Z" class="g0_197"/>
<path fill-rule="evenodd" d="M186.7,470.1H425v-15H186.7v15Z" class="g0_197"/>
<path fill-rule="evenodd" d="M186.7,485.2H425V470.1H186.7v15.1Z" class="g0_197"/>
<path fill-rule="evenodd" d="M186.3,500.2H424.7v-15H186.3v15Z" class="g0_197"/>
<path fill-rule="evenodd" d="M186.3,515.2H424.7v-15H186.3v15Z" class="g0_197"/>
<path fill-rule="evenodd" d="M186.7,530.5h238V515.2h-238v15.3Z" class="g0_197"/>
<path fill-rule="evenodd" d="M186.7,545.5h238v-15h-238v15Z" class="g0_197"/>
<path fill-rule="evenodd" d="M204.6,560.5H426.1v-15H204.6v15Z" class="g0_197"/>
<path fill-rule="evenodd" d="M186.3,575.6H425V560.5H186.3v15.1Z" class="g0_197"/>
<path fill-rule="evenodd" d="M186.3,590.6H425v-15H186.3v15Z" class="g0_197"/>
<path fill-rule="evenodd" d="M186.3,605.7H425V590.6H186.3v15.1Z" class="g0_197"/>
<path fill-rule="evenodd" d="M186.3,620.7H425v-15H186.3v15Z" class="g0_197"/>
<path fill-rule="evenodd" d="M186.3,635.7H425v-15H186.3v15Z" class="g0_197"/>
<path fill-rule="evenodd" d="M186.3,650.8H425V635.7H186.3v15.1Z" class="g0_197"/>
<path fill-rule="evenodd" d="M204.6,665.8H426.1v-15H204.6v15Z" class="g0_197"/>
<path fill-rule="evenodd" d="M185.6,680.8H424.7v-15H185.6v15Z" class="g0_197"/>
<path fill-rule="evenodd" d="M185.6,695.9H424.7V680.8H185.6v15.1Z" class="g0_197"/>
<path fill-rule="evenodd" d="M185.6,711.1H424.7V695.9H185.6v15.2Z" class="g0_197"/>
<path fill-rule="evenodd" d="M185.9,726.1H424.7v-15H185.9v15Z" class="g0_197"/>
<path fill-rule="evenodd" d="M185.9,741.1H424.7v-15H185.9v15Z" class="g0_197"/>
<path fill-rule="evenodd" d="M185.9,756.2H424.7V741.1H185.9v15.1Z" class="g0_197"/>
<path fill-rule="evenodd" d="M185.9,771.2H424.7v-15H185.9v15Z" class="g0_197"/>
<path fill-rule="evenodd" d="M185.6,786.2h238v-15h-238v15Z" class="g0_197"/>
<path fill-rule="evenodd" d="M185.6,801.3h238V786.2h-238v15.1Z" class="g0_197"/>
<path fill-rule="evenodd" d="M185.6,816.3H424.3v-15H185.6v15Z" class="g0_197"/>
<path fill-rule="evenodd" d="M185.6,831.3H424.3v-15H185.6v15Z" class="g0_197"/>
<path fill-rule="evenodd" d="M203.9,846.4H426.1V831.3H203.9v15.1Z" class="g0_197"/>
<path fill-rule="evenodd" d="M185.6,861.5H423.9V846.4H185.6v15.1Z" class="g0_197"/>
<path fill-rule="evenodd" d="M185.6,876.5H423.9v-15H185.6v15Z" class="g0_197"/>
<path fill-rule="evenodd" d="M185.6,891.7H423.2V876.5H185.6v15.2Z" class="g0_197"/>
<path fill-rule="evenodd" d="M185.6,906.7H423.2v-15H185.6v15Z" class="g0_197"/>
<path fill-rule="evenodd" d="M187.8,921.8h238V906.7h-238v15.1Z" class="g0_197"/>
<path fill-rule="evenodd" d="M446.7,168.7H685.5v-15H446.7v15Z" class="g0_197"/>
<path fill-rule="evenodd" d="M446.7,183.7H685.5v-15H446.7v15Z" class="g0_197"/>
<path fill-rule="evenodd" d="M446.3,199.3H685.5V184.1H446.3v15.2Z" class="g0_197"/>
<path fill-rule="evenodd" d="M446.3,214.3H685.5v-15H446.3v15Z" class="g0_197"/>
<path fill-rule="evenodd" d="M465,229.4H685.8V214.3H465v15.1Z" class="g0_197"/>
<path fill-rule="evenodd" d="M446.3,244.4H685.1v-15H446.3v15Z" class="g0_197"/>
<path fill-rule="evenodd" d="M446.3,259.4H685.1v-15H446.3v15Z" class="g0_197"/>
<path fill-rule="evenodd" d="M446.7,274.5H685.8V259.4H446.7v15.1Z" class="g0_197"/>
<path fill-rule="evenodd" d="M446.7,289.5H685.8v-15H446.7v15Z" class="g0_197"/>
<path fill-rule="evenodd" d="M445.9,304.5H685.8v-15H445.9v15Z" class="g0_197"/>
<path fill-rule="evenodd" d="M445.9,319.6H685.8V304.5H445.9v15.1Z" class="g0_197"/>
<path fill-rule="evenodd" d="M445.9,334.6H685.8v-15H445.9v15Z" class="g0_197"/>
<path fill-rule="evenodd" d="M445.9,349.6H685.8v-15H445.9v15Z" class="g0_197"/>
<path fill-rule="evenodd" d="M445.9,365.3H685.1V350H445.9v15.3Z" class="g0_197"/>
<path fill-rule="evenodd" d="M445.9,380.3H685.1v-15H445.9v15Z" class="g0_197"/>
<path fill-rule="evenodd" d="M445.9,395.3H685.1v-15H445.9v15Z" class="g0_197"/>
<path fill-rule="evenodd" d="M445.9,410.4H685.1V395.3H445.9v15.1Z" class="g0_197"/>
<path fill-rule="evenodd" d="M445.9,425.4H685.1v-15H445.9v15Z" class="g0_197"/>
<path fill-rule="evenodd" d="M445.9,440.4H685.1v-15H445.9v15Z" class="g0_197"/>
<path fill-rule="evenodd" d="M445.9,455.5H685.1V440.4H445.9v15.1Z" class="g0_197"/>
<path fill-rule="evenodd" d="M445.6,470.9H684.7V455.8H445.6v15.1Z" class="g0_197"/>
<path fill-rule="evenodd" d="M445.6,485.9H684.7v-15H445.6v15Z" class="g0_197"/>
<path fill-rule="evenodd" d="M445.9,501.1H684.7V485.9H445.9v15.2Z" class="g0_197"/>
<path fill-rule="evenodd" d="M445.9,516.2H684.7V501.1H445.9v15.1Z" class="g0_197"/>
<path fill-rule="evenodd" d="M445.2,531.2H684.4v-15H445.2v15Z" class="g0_197"/>
<path fill-rule="evenodd" d="M445.2,546.2H684.4v-15H445.2v15Z" class="g0_197"/>
<path fill-rule="evenodd" d="M445.2,561.3H684.4V546.2H445.2v15.1Z" class="g0_197"/>
<path fill-rule="evenodd" d="M445.6,576.3H684v-15H445.6v15Z" class="g0_197"/>
<path fill-rule="evenodd" d="M445.6,591.3H684v-15H445.6v15Z" class="g0_197"/>
<path fill-rule="evenodd" d="M445.6,606.4H684V591.3H445.6v15.1Z" class="g0_197"/>
<path fill-rule="evenodd" d="M445.6,621.4H684v-15H445.6v15Z" class="g0_197"/>
<path fill-rule="evenodd" d="M444.8,636.5H684V621.4H444.8v15.1Z" class="g0_197"/>
<path fill-rule="evenodd" d="M444.8,651.5H684v-15H444.8v15Z" class="g0_197"/>
<path fill-rule="evenodd" d="M444.8,666.5H684v-15H444.8v15Z" class="g0_197"/>
<path fill-rule="evenodd" d="M444.8,682.1H684V666.5H444.8v15.6Z" class="g0_197"/>
<path fill-rule="evenodd" d="M444.8,697.1H684v-15H444.8v15Z" class="g0_197"/>
<path fill-rule="evenodd" d="M444.8,712.2H684V697.1H444.8v15.1Z" class="g0_197"/>
<path fill-rule="evenodd" d="M463.2,727.2H685.8v-15H463.2v15Z" class="g0_197"/>
<path fill-rule="evenodd" d="M444.8,742.2H683.6v-15H444.8v15Z" class="g0_197"/>
<path fill-rule="evenodd" d="M444.8,757.3H683.6V742.2H444.8v15.1Z" class="g0_197"/>
<path fill-rule="evenodd" d="M444.5,772.3H683.6v-15H444.5v15Z" class="g0_197"/>
<path fill-rule="evenodd" d="M444.5,787.3H683.6v-15H444.5v15Z" class="g0_197"/>
<path fill-rule="evenodd" d="M444.5,802.4H683.6V787.3H444.5v15.1Z" class="g0_197"/>
<path fill-rule="evenodd" d="M444.5,817.4H683.6v-15H444.5v15Z" class="g0_197"/>
<path fill-rule="evenodd" d="M444.5,832.5H683.6V817.4H444.5v15.1Z" class="g0_197"/>
<path fill-rule="evenodd" d="M444.5,847.7H683.6V832.5H444.5v15.2Z" class="g0_197"/>
<path fill-rule="evenodd" d="M444.5,862.7H683.6v-15H444.5v15Z" class="g0_197"/>
<path fill-rule="evenodd" d="M444.5,877.8H683.6V862.7H444.5v15.1Z" class="g0_197"/>
<path fill-rule="evenodd" d="M444.5,892.8H683.3v-15H444.5v15Z" class="g0_197"/>
<path fill-rule="evenodd" d="M444.5,907.8H683.3v-15H444.5v15Z" class="g0_197"/>
<path fill-rule="evenodd" d="M421,940.1H685.8V922.5H421v17.6Z" class="g0_197"/>
<path d="M433.7,152.9V922.2" class="g1_197"/>
</svg>