<?xml version="1.0" encoding="UTF-8" standalone="no"?>
<!DOCTYPE svg PUBLIC "-//W3C//DTD SVG 1.1//EN"
"http://www.w3.org/Graphics/SVG/1.1/DTD/svg11.dtd">
<svg viewBox="0 0 909 1285" version="1.1" xmlns="http://www.w3.org/2000/svg" xmlns:xlink="http://www.w3.org/1999/xlink">
<defs>
<style type="text/css"><![CDATA[
.g0_205{
fill: #FFFFFF;
}
.g1_205{
fill: none;
stroke: #000000;
stroke-width: 2.597;
stroke-linecap: butt;
stroke-linejoin: round;
}
.g2_205{
fill: none;
stroke: #000000;
stroke-width: 0.763;
stroke-linecap: butt;
stroke-linejoin: round;
}
.g3_205{
fill: none;
stroke: #000000;
stroke-width: 0.381;
stroke-linecap: butt;
stroke-linejoin: round;
}
]]></style>
</defs>
<path fill-rule="evenodd" d="M266.4,127.6H767V110H266.4v17.6Z" class="g0_205"/>
<path fill-rule="evenodd" d="M285.2,163.2H507.8v-15H285.2v15Z" class="g0_205"/>
<path fill-rule="evenodd" d="M266,178.2H507.8v-15H266v15Z" class="g0_205"/>
<path fill-rule="evenodd" d="M266,193.3H507.8V178.2H266v15.1Z" class="g0_205"/>
<path fill-rule="evenodd" d="M266,208.3H507.8v-15H266v15Z" class="g0_205"/>
<path fill-rule="evenodd" d="M266,223.3H507.8v-15H266v15Z" class="g0_205"/>
<path fill-rule="evenodd" d="M266,238.4H507.8V223.3H266v15.1Z" class="g0_205"/>
<path fill-rule="evenodd" d="M266,253.4H507.8v-15H266v15Z" class="g0_205"/>
<path fill-rule="evenodd" d="M284.8,268.6h223V253.4h-223v15.2Z" class="g0_205"/>
<path fill-rule="evenodd" d="M284.8,283.6h223v-15h-223v15Z" class="g0_205"/>
<path fill-rule="evenodd" d="M265.7,298.7H507.4V283.6H265.7v15.1Z" class="g0_205"/>
<path fill-rule="evenodd" d="M265.7,313.7H507.4v-15H265.7v15Z" class="g0_205"/>
<path fill-rule="evenodd" d="M265.7,328.7H507.4v-15H265.7v15Z" class="g0_205"/>
<path fill-rule="evenodd" d="M265.7,343.8H507.4V328.7H265.7v15.1Z" class="g0_205"/>
<path fill-rule="evenodd" d="M265.7,358.9H507.4V343.8H265.7v15.1Z" class="g0_205"/>
<path fill-rule="evenodd" d="M265.7,373.9H507.4v-15H265.7v15Z" class="g0_205"/>
<path fill-rule="evenodd" d="M265.7,388.9H507.4v-15H265.7v15Z" class="g0_205"/>
<path fill-rule="evenodd" d="M265.7,404H507.4V388.9H265.7V404Z" class="g0_205"/>
<path fill-rule="evenodd" d="M265.7,419H507.4V404H265.7v15Z" class="g0_205"/>
<path fill-rule="evenodd" d="M265.7,434.2H507.4V419H265.7v15.2Z" class="g0_205"/>
<path fill-rule="evenodd" d="M265.7,449.2H507.4v-15H265.7v15Z" class="g0_205"/>
<path fill-rule="evenodd" d="M265.7,464.3H507.4V449.2H265.7v15.1Z" class="g0_205"/>
<path fill-rule="evenodd" d="M265.7,479.3H507.4v-15H265.7v15Z" class="g0_205"/>
<path fill-rule="evenodd" d="M265.7,494.3H507.4v-15H265.7v15Z" class="g0_205"/>
<path fill-rule="evenodd" d="M265.7,509.4H507.4V494.3H265.7v15.1Z" class="g0_205"/>
<path fill-rule="evenodd" d="M265.7,524.4H507.4v-15H265.7v15Z" class="g0_205"/>
<path fill-rule="evenodd" d="M265.7,539.4H507.4v-15H265.7v15Z" class="g0_205"/>
<path fill-rule="evenodd" d="M265.7,554.5H507.4V539.4H265.7v15.1Z" class="g0_205"/>
<path fill-rule="evenodd" d="M265.7,569.5H507.4v-15H265.7v15Z" class="g0_205"/>
<path fill-rule="evenodd" d="M265.7,584.5H507.4v-15H265.7v15Z" class="g0_205"/>
<path fill-rule="evenodd" d="M265.7,599.6H506.3V584.5H265.7v15.1Z" class="g0_205"/>
<path fill-rule="evenodd" d="M265.7,614.8H506.3V599.6H265.7v15.2Z" class="g0_205"/>
<path fill-rule="evenodd" d="M265.7,629.9H506.3V614.8H265.7v15.1Z" class="g0_205"/>
<path fill-rule="evenodd" d="M265.7,645.3H505.9V630.2H265.7v15.1Z" class="g0_205"/>
<path fill-rule="evenodd" d="M265.7,660.3H505.9v-15H265.7v15Z" class="g0_205"/>
<path fill-rule="evenodd" d="M265.7,675.3H505.9v-15H265.7v15Z" class="g0_205"/>
<path fill-rule="evenodd" d="M265.7,690.4H505.9V675.3H265.7v15.1Z" class="g0_205"/>
<path fill-rule="evenodd" d="M265.3,705.4H505.9v-15H265.3v15Z" class="g0_205"/>
<path fill-rule="evenodd" d="M265.3,720.4H505.9v-15H265.3v15Z" class="g0_205"/>
<path fill-rule="evenodd" d="M283.7,735.5H507.8V720.4H283.7v15.1Z" class="g0_205"/>
<path fill-rule="evenodd" d="M264.9,750.5h241v-15h-241v15Z" class="g0_205"/>
<path fill-rule="evenodd" d="M264.9,765.5h241v-15h-241v15Z" class="g0_205"/>
<path fill-rule="evenodd" d="M264.9,780.7h241V765.5h-241v15.2Z" class="g0_205"/>
<path fill-rule="evenodd" d="M264.9,795.8h241V780.7h-241v15.1Z" class="g0_205"/>
<path fill-rule="evenodd" d="M264.9,810.8h241v-15h-241v15Z" class="g0_205"/>
<path fill-rule="evenodd" d="M284.1,825.8H507.8v-15H284.1v15Z" class="g0_205"/>
<path fill-rule="evenodd" d="M265.3,840.9H505.9V825.8H265.3v15.1Z" class="g0_205"/>
<path fill-rule="evenodd" d="M265.3,856H505.9V840.9H265.3V856Z" class="g0_205"/>
<path fill-rule="evenodd" d="M284.1,871H507.8V856H284.1v15Z" class="g0_205"/>
<path fill-rule="evenodd" d="M265.3,886H505.9V871H265.3v15Z" class="g0_205"/>
<path fill-rule="evenodd" d="M265.3,901.1H505.9V886H265.3v15.1Z" class="g0_205"/>
<path fill-rule="evenodd" d="M266,916.1H507.4v-15H266v15Z" class="g0_205"/>
<path fill-rule="evenodd" d="M527.2,163.2H766.7v-15H527.2v15Z" class="g0_205"/>
<path fill-rule="evenodd" d="M527.2,178.2H766.7v-15H527.2v15Z" class="g0_205"/>
<path fill-rule="evenodd" d="M527.2,193.3H766.7V178.2H527.2v15.1Z" class="g0_205"/>
<path fill-rule="evenodd" d="M527.6,208.3H767v-15H527.6v15Z" class="g0_205"/>
<path fill-rule="evenodd" d="M527.6,223.3H767v-15H527.6v15Z" class="g0_205"/>
<path fill-rule="evenodd" d="M527.6,238.4H766.7V223.3H527.6v15.1Z" class="g0_205"/>
<path fill-rule="evenodd" d="M527.6,253.4H766.7v-15H527.6v15Z" class="g0_205"/>
<path fill-rule="evenodd" d="M545.2,268.6H767V253.4H545.2v15.2Z" class="g0_205"/>
<path fill-rule="evenodd" d="M526.8,283.6H766.7v-15H526.8v15Z" class="g0_205"/>
<path fill-rule="evenodd" d="M526.8,298.7H766.7V283.6H526.8v15.1Z" class="g0_205"/>
<path fill-rule="evenodd" d="M526.8,313.7H766.7v-15H526.8v15Z" class="g0_205"/>
<path fill-rule="evenodd" d="M527.2,328.7H767v-15H527.2v15Z" class="g0_205"/>
<path fill-rule="evenodd" d="M527.2,343.8H767V328.7H527.2v15.1Z" class="g0_205"/>
<path fill-rule="evenodd" d="M527.6,358.9H766.7V343.8H527.6v15.1Z" class="g0_205"/>
<path fill-rule="evenodd" d="M527.6,373.9H766.7v-15H527.6v15Z" class="g0_205"/>
<path fill-rule="evenodd" d="M526.8,388.9H767v-15H526.8v15Z" class="g0_205"/>
<path fill-rule="evenodd" d="M526.8,404H767V388.9H526.8V404Z" class="g0_205"/>
<path fill-rule="evenodd" d="M526.8,419H767V404H526.8v15Z" class="g0_205"/>
<path fill-rule="evenodd" d="M526.8,434.2H766.7V419H526.8v15.2Z" class="g0_205"/>
<path fill-rule="evenodd" d="M526.8,449.2H766.7v-15H526.8v15Z" class="g0_205"/>
<path fill-rule="evenodd" d="M526.5,464.3H767V449.2H526.5v15.1Z" class="g0_205"/>
<path fill-rule="evenodd" d="M526.5,479.3H767v-15H526.5v15Z" class="g0_205"/>
<path fill-rule="evenodd" d="M526.5,494.3H766.7v-15H526.5v15Z" class="g0_205"/>
<path fill-rule="evenodd" d="M526.5,509.4H766.7V494.3H526.5v15.1Z" class="g0_205"/>
<path fill-rule="evenodd" d="M526.5,524.4H766.7v-15H526.5v15Z" class="g0_205"/>
<path fill-rule="evenodd" d="M526.1,539.8H767v-15H526.1v15Z" class="g0_205"/>
<path fill-rule="evenodd" d="M526.1,554.8H767v-15H526.1v15Z" class="g0_205"/>
<path fill-rule="evenodd" d="M526.1,569.9H767V554.8H526.1v15.1Z" class="g0_205"/>
<path fill-rule="evenodd" d="M526.5,584.9H767v-15H526.5v15Z" class="g0_205"/>
<path fill-rule="evenodd" d="M526.5,600.2H767V584.9H526.5v15.3Z" class="g0_205"/>
<path fill-rule="evenodd" d="M526.1,615.2H766.7v-15H526.1v15Z" class="g0_205"/>
<path fill-rule="evenodd" d="M526.1,630.2H766.7v-15H526.1v15Z" class="g0_205"/>
<path fill-rule="evenodd" d="M526.1,645.3H766.7V630.2H526.1v15.1Z" class="g0_205"/>
<path fill-rule="evenodd" d="M526.1,660.3H766.7v-15H526.1v15Z" class="g0_205"/>
<path fill-rule="evenodd" d="M526.1,675.3H766.7v-15H526.1v15Z" class="g0_205"/>
<path fill-rule="evenodd" d="M526.1,690.4H766.7V675.3H526.1v15.1Z" class="g0_205"/>
<path fill-rule="evenodd" d="M526.1,705.4H766.7v-15H526.1v15Z" class="g0_205"/>
<path fill-rule="evenodd" d="M526.1,720.4H766.7v-15H526.1v15Z" class="g0_205"/>
<path fill-rule="evenodd" d="M526.1,735.5H766.7V720.4H526.1v15.1Z" class="g0_205"/>
<path fill-rule="evenodd" d="M544.4,750.5H767v-15H544.4v15Z" class="g0_205"/>
<path fill-rule="evenodd" d="M526.1,765.5H766.3v-15H526.1v15Z" class="g0_205"/>
<path fill-rule="evenodd" d="M526.1,780.7H766.3V765.5H526.1v15.2Z" class="g0_205"/>
<path fill-rule="evenodd" d="M526.1,795.8H766.3V780.7H526.1v15.1Z" class="g0_205"/>
<path fill-rule="evenodd" d="M526.1,810.8H766.7v-15H526.1v15Z" class="g0_205"/>
<path fill-rule="evenodd" d="M526.1,825.8H766.7v-15H526.1v15Z" class="g0_205"/>
<path fill-rule="evenodd" d="M526.1,840.9H765.9V825.8H526.1v15.1Z" class="g0_205"/>
<path fill-rule="evenodd" d="M526.1,856.3H766.7v-15H526.1v15Z" class="g0_205"/>
<path fill-rule="evenodd" d="M526.1,871.4H766.7V856.3H526.1v15.1Z" class="g0_205"/>
<path fill-rule="evenodd" d="M544.4,886.4H767v-15H544.4v15Z" class="g0_205"/>
<path fill-rule="evenodd" d="M502.6,933H767V915.4H502.6V933Z" class="g0_205"/>
<path d="M199.3,427.9V626.2" class="g1_205"/>
<path d="M201.5,450.6V841.1" class="g2_205"/>
<path d="M516.1,148.9V916.3" class="g3_205"/>
</svg>