<?xml version="1.0" encoding="UTF-8" standalone="no"?>
<!DOCTYPE svg PUBLIC "-//W3C//DTD SVG 1.1//EN"
"http://www.w3.org/Graphics/SVG/1.1/DTD/svg11.dtd">
<svg viewBox="0 0 909 1285" version="1.1" xmlns="http://www.w3.org/2000/svg" xmlns:xlink="http://www.w3.org/1999/xlink">
<defs>
<style type="text/css"><![CDATA[
.g0_83{
fill: #FFFFFF;
}
.g1_83{
fill: none;
stroke: #000000;
stroke-width: 0.381;
stroke-linecap: butt;
stroke-linejoin: round;
}
]]></style>
</defs>
<path fill-rule="evenodd" d="M266,125.8H764.5V110H266v15.8Z" class="g0_83"/>
<path fill-rule="evenodd" d="M284.1,161.4H504.5V146.3H284.1v15.1Z" class="g0_83"/>
<path fill-rule="evenodd" d="M264.9,176.4H504.5v-15H264.9v15Z" class="g0_83"/>
<path fill-rule="evenodd" d="M264.9,191.6H504.5V176.4H264.9v15.2Z" class="g0_83"/>
<path fill-rule="evenodd" d="M264.9,206.6H504.5v-15H264.9v15Z" class="g0_83"/>
<path fill-rule="evenodd" d="M264.9,221.7H504.5V206.6H264.9v15.1Z" class="g0_83"/>
<path fill-rule="evenodd" d="M264.9,236.7H504.5v-15H264.9v15Z" class="g0_83"/>
<path fill-rule="evenodd" d="M283.7,251.7H504.5v-15H283.7v15Z" class="g0_83"/>
<path fill-rule="evenodd" d="M264.9,266.8H504.1V251.7H264.9v15.1Z" class="g0_83"/>
<path fill-rule="evenodd" d="M264.9,281.8H504.1v-15H264.9v15Z" class="g0_83"/>
<path fill-rule="evenodd" d="M264.9,296.8H504.1v-15H264.9v15Z" class="g0_83"/>
<path fill-rule="evenodd" d="M264.9,311.9H504.1V296.8H264.9v15.1Z" class="g0_83"/>
<path fill-rule="evenodd" d="M264.9,326.9H504.1v-15H264.9v15Z" class="g0_83"/>
<path fill-rule="evenodd" d="M264.9,341.9H503.7v-15H264.9v15Z" class="g0_83"/>
<path fill-rule="evenodd" d="M264.9,357.2H503.7V342H264.9v15.2Z" class="g0_83"/>
<path fill-rule="evenodd" d="M264.9,372.2H503.7v-15H264.9v15Z" class="g0_83"/>
<path fill-rule="evenodd" d="M264.9,387.3H503.7V372.2H264.9v15.1Z" class="g0_83"/>
<path fill-rule="evenodd" d="M264.6,402.3H503.4v-15H264.6v15Z" class="g0_83"/>
<path fill-rule="evenodd" d="M264.6,417.3H503.4v-15H264.6v15Z" class="g0_83"/>
<path fill-rule="evenodd" d="M264.6,432.4H503.4V417.3H264.6v15.1Z" class="g0_83"/>
<path fill-rule="evenodd" d="M264.6,447.4H503.4v-15H264.6v15Z" class="g0_83"/>
<path fill-rule="evenodd" d="M264.6,462.4H503.4v-15H264.6v15Z" class="g0_83"/>
<path fill-rule="evenodd" d="M264.2,477.5H503.7V462.4H264.2v15.1Z" class="g0_83"/>
<path fill-rule="evenodd" d="M264.2,492.5H503.7v-15H264.2v15Z" class="g0_83"/>
<path fill-rule="evenodd" d="M264.2,507.5H503.7v-15H264.2v15Z" class="g0_83"/>
<path fill-rule="evenodd" d="M264.2,522.6H503.7V507.5H264.2v15.1Z" class="g0_83"/>
<path fill-rule="evenodd" d="M264.2,537.8H503.7V522.6H264.2v15.2Z" class="g0_83"/>
<path fill-rule="evenodd" d="M264.6,552.8H503v-15H264.6v15Z" class="g0_83"/>
<path fill-rule="evenodd" d="M264.6,567.9H503V552.8H264.6v15.1Z" class="g0_83"/>
<path fill-rule="evenodd" d="M263.8,582.9H503.4v-15H263.8v15Z" class="g0_83"/>
<path fill-rule="evenodd" d="M263.8,598H503.4V582.9H263.8V598Z" class="g0_83"/>
<path fill-rule="evenodd" d="M263.8,613H503.4V598H263.8v15Z" class="g0_83"/>
<path fill-rule="evenodd" d="M264.2,628H503V613H264.2v15Z" class="g0_83"/>
<path fill-rule="evenodd" d="M264.2,643.1H503V628H264.2v15.1Z" class="g0_83"/>
<path fill-rule="evenodd" d="M264.2,658.1H503v-15H264.2v15Z" class="g0_83"/>
<path fill-rule="evenodd" d="M264.2,673.1H503v-15H264.2v15Z" class="g0_83"/>
<path fill-rule="evenodd" d="M264.2,688.2H503V673.1H264.2v15.1Z" class="g0_83"/>
<path fill-rule="evenodd" d="M264.2,703.2H503v-15H264.2v15Z" class="g0_83"/>
<path fill-rule="evenodd" d="M264.2,718.4H503V703.2H264.2v15.2Z" class="g0_83"/>
<path fill-rule="evenodd" d="M264.2,733.4H503v-15H264.2v15Z" class="g0_83"/>
<path fill-rule="evenodd" d="M264.2,748.5H503V733.4H264.2v15.1Z" class="g0_83"/>
<path fill-rule="evenodd" d="M264.2,763.5H503v-15H264.2v15Z" class="g0_83"/>
<path fill-rule="evenodd" d="M264.2,778.5H503v-15H264.2v15Z" class="g0_83"/>
<path fill-rule="evenodd" d="M263.8,793.6H503V778.5H263.8v15.1Z" class="g0_83"/>
<path fill-rule="evenodd" d="M263.8,808.6H503v-15H263.8v15Z" class="g0_83"/>
<path fill-rule="evenodd" d="M263.8,823.6H503v-15H263.8v15Z" class="g0_83"/>
<path fill-rule="evenodd" d="M263.8,838.7H503V823.6H263.8v15.1Z" class="g0_83"/>
<path fill-rule="evenodd" d="M263.8,853.8H503V838.7H263.8v15.1Z" class="g0_83"/>
<path fill-rule="evenodd" d="M263.8,868.8H503v-15H263.8v15Z" class="g0_83"/>
<path fill-rule="evenodd" d="M263.8,883.8H503v-15H263.8v15Z" class="g0_83"/>
<path fill-rule="evenodd" d="M265.3,899H504.5V883.8H265.3V899Z" class="g0_83"/>
<path fill-rule="evenodd" d="M525,161.7H764.5v-15H525v15Z" class="g0_83"/>
<path fill-rule="evenodd" d="M525,176.9H764.5V161.7H525v15.2Z" class="g0_83"/>
<path fill-rule="evenodd" d="M525,192H764.5V176.9H525V192Z" class="g0_83"/>
<path fill-rule="evenodd" d="M525,207H764.5V192H525v15Z" class="g0_83"/>
<path fill-rule="evenodd" d="M525,222H763.7V207H525v15Z" class="g0_83"/>
<path fill-rule="evenodd" d="M525,237.1H763.7V222H525v15.1Z" class="g0_83"/>
<path fill-rule="evenodd" d="M525,252.1H763.7v-15H525v15Z" class="g0_83"/>
<path fill-rule="evenodd" d="M525.4,267.1H763.7v-15H525.4v15Z" class="g0_83"/>
<path fill-rule="evenodd" d="M525.4,282.2H763.7V267.1H525.4v15.1Z" class="g0_83"/>
<path fill-rule="evenodd" d="M525.4,297.2H763.7v-15H525.4v15Z" class="g0_83"/>
<path fill-rule="evenodd" d="M525,312.2H763.7v-15H525v15Z" class="g0_83"/>
<path fill-rule="evenodd" d="M525,327.3H763.7V312.2H525v15.1Z" class="g0_83"/>
<path fill-rule="evenodd" d="M525,342.5H763.7V327.3H525v15.2Z" class="g0_83"/>
<path fill-rule="evenodd" d="M525,357.6H763.7V342.5H525v15.1Z" class="g0_83"/>
<path fill-rule="evenodd" d="M524.6,372.6H763.4v-15H524.6v15Z" class="g0_83"/>
<path fill-rule="evenodd" d="M524.6,387.6H763.4v-15H524.6v15Z" class="g0_83"/>
<path fill-rule="evenodd" d="M524.3,402.7H763.4V387.6H524.3v15.1Z" class="g0_83"/>
<path fill-rule="evenodd" d="M524.3,417.7H763.4v-15H524.3v15Z" class="g0_83"/>
<path fill-rule="evenodd" d="M524.3,432.7H763.4v-15H524.3v15Z" class="g0_83"/>
<path fill-rule="evenodd" d="M524.3,447.8H763.4V432.7H524.3v15.1Z" class="g0_83"/>
<path fill-rule="evenodd" d="M524.3,462.8H763v-15H524.3v15Z" class="g0_83"/>
<path fill-rule="evenodd" d="M524.3,477.8H763v-15H524.3v15Z" class="g0_83"/>
<path fill-rule="evenodd" d="M524.3,492.9H762.6V477.8H524.3v15.1Z" class="g0_83"/>
<path fill-rule="evenodd" d="M524.3,507.9H762.6v-15H524.3v15Z" class="g0_83"/>
<path fill-rule="evenodd" d="M542.2,523.1H764.5V507.9H542.2v15.2Z" class="g0_83"/>
<path fill-rule="evenodd" d="M523.9,538.2H763V523.1H523.9v15.1Z" class="g0_83"/>
<path fill-rule="evenodd" d="M523.9,553.2H763v-15H523.9v15Z" class="g0_83"/>
<path fill-rule="evenodd" d="M523.9,568.2H763v-15H523.9v15Z" class="g0_83"/>
<path fill-rule="evenodd" d="M523.9,583.3H763V568.2H523.9v15.1Z" class="g0_83"/>
<path fill-rule="evenodd" d="M523.9,598.3H763v-15H523.9v15Z" class="g0_83"/>
<path fill-rule="evenodd" d="M523.9,613.4H763V598.3H523.9v15.1Z" class="g0_83"/>
<path fill-rule="evenodd" d="M523.9,628.4H763v-15H523.9v15Z" class="g0_83"/>
<path fill-rule="evenodd" d="M523.9,643.4H763v-15H523.9v15Z" class="g0_83"/>
<path fill-rule="evenodd" d="M523.9,658.5H763V643.4H523.9v15.1Z" class="g0_83"/>
<path fill-rule="evenodd" d="M523.9,673.5H763v-15H523.9v15Z" class="g0_83"/>
<path fill-rule="evenodd" d="M523.9,688.5H762.6v-15H523.9v15Z" class="g0_83"/>
<path fill-rule="evenodd" d="M523.9,703.7H762.6V688.5H523.9v15.2Z" class="g0_83"/>
<path fill-rule="evenodd" d="M523.9,718.8H762.6V703.7H523.9v15.1Z" class="g0_83"/>
<path fill-rule="evenodd" d="M523.5,733.8H763v-15H523.5v15Z" class="g0_83"/>
<path fill-rule="evenodd" d="M523.5,748.8H763v-15H523.5v15Z" class="g0_83"/>
<path fill-rule="evenodd" d="M523.5,763.9H763V748.8H523.5v15.1Z" class="g0_83"/>
<path fill-rule="evenodd" d="M523.5,778.9H763v-15H523.5v15Z" class="g0_83"/>
<path fill-rule="evenodd" d="M542.2,793.9H764.5v-15H542.2v15Z" class="g0_83"/>
<path fill-rule="evenodd" d="M523.9,809H762.3V793.9H523.9V809Z" class="g0_83"/>
<path fill-rule="evenodd" d="M523.9,824H762.3V809H523.9v15Z" class="g0_83"/>
<path fill-rule="evenodd" d="M523.9,839.1H762.3V824H523.9v15.1Z" class="g0_83"/>
<path fill-rule="evenodd" d="M523.9,854.1H762.3v-15H523.9v15Z" class="g0_83"/>
<path fill-rule="evenodd" d="M541.9,869.2H764.5V854.1H541.9v15.1Z" class="g0_83"/>
<path fill-rule="evenodd" d="M541.9,884.4H764.5V869.2H541.9v15.2Z" class="g0_83"/>
<path fill-rule="evenodd" d="M541.9,899.4H764.5v-15H541.9v15Z" class="g0_83"/>
<path fill-rule="evenodd" d="M504.5,930.8h260V913.3h-260v17.5Z" class="g0_83"/>
<path d="M513.1,147.8V916" class="g1_83"/>
</svg>