<?xml version="1.0" encoding="UTF-8" standalone="no"?>
<!DOCTYPE svg PUBLIC "-//W3C//DTD SVG 1.1//EN"
"http://www.w3.org/Graphics/SVG/1.1/DTD/svg11.dtd">
<svg viewBox="0 0 909 1285" version="1.1" xmlns="http://www.w3.org/2000/svg" xmlns:xlink="http://www.w3.org/1999/xlink">
<defs>
<style type="text/css"><![CDATA[
.g0_337{
fill: #FFFFFF;
}
.g1_337{
fill: none;
stroke: #000000;
stroke-width: 1.451;
stroke-linecap: butt;
stroke-linejoin: round;
}
.g2_337{
fill: none;
stroke: #000000;
stroke-width: 1.069;
stroke-linecap: butt;
stroke-linejoin: round;
}
.g3_337{
fill: none;
stroke: #000000;
stroke-width: 0.381;
stroke-linecap: butt;
stroke-linejoin: round;
}
]]></style>
</defs>
<path fill-rule="evenodd" d="M263.7,127.6H764.6V110H263.7v17.6Z" class="g0_337"/>
<path fill-rule="evenodd" d="M264,163.2H503.9V147.8H264v15.4Z" class="g0_337"/>
<path fill-rule="evenodd" d="M264,178.6H503.9V163.2H264v15.4Z" class="g0_337"/>
<path fill-rule="evenodd" d="M264,194H503.9V178.6H264V194Z" class="g0_337"/>
<path fill-rule="evenodd" d="M264,209H503.9V194H264v15Z" class="g0_337"/>
<path fill-rule="evenodd" d="M524.3,163.2H764.5v-15H524.3v15Z" class="g0_337"/>
<path fill-rule="evenodd" d="M524.3,178.2H764.5v-15H524.3v15Z" class="g0_337"/>
<path fill-rule="evenodd" d="M524.3,193.3H764.5V178.2H524.3v15.1Z" class="g0_337"/>
<path fill-rule="evenodd" d="M499.1,260.7H764.6V235.8H499.1v24.9Z" class="g0_337"/>
<path fill-rule="evenodd" d="M262.6,300.3H504.3v-15H262.6v15Z" class="g0_337"/>
<path fill-rule="evenodd" d="M262.6,315.4H504.3V300.3H262.6v15.1Z" class="g0_337"/>
<path fill-rule="evenodd" d="M262.6,330.6H504.3V315.4H262.6v15.2Z" class="g0_337"/>
<path fill-rule="evenodd" d="M263.3,345.6H503.2v-15H263.3v15Z" class="g0_337"/>
<path fill-rule="evenodd" d="M263.3,360.7H503.2V345.6H263.3v15.1Z" class="g0_337"/>
<path fill-rule="evenodd" d="M262.9,375.7h241v-15h-241v15Z" class="g0_337"/>
<path fill-rule="evenodd" d="M262.9,390.8h241V375.7h-241v15.1Z" class="g0_337"/>
<path fill-rule="evenodd" d="M262.9,405.8h241v-15h-241v15Z" class="g0_337"/>
<path fill-rule="evenodd" d="M262.9,420.8h241v-15h-241v15Z" class="g0_337"/>
<path fill-rule="evenodd" d="M262.9,435.9h241V420.8h-241v15.1Z" class="g0_337"/>
<path fill-rule="evenodd" d="M262.9,450.9h241v-15h-241v15Z" class="g0_337"/>
<path fill-rule="evenodd" d="M262.9,465.9h241v-15h-241v15Z" class="g0_337"/>
<path fill-rule="evenodd" d="M262.9,481h241V465.9h-241V481Z" class="g0_337"/>
<path fill-rule="evenodd" d="M262.2,496.5H503.9V481.3H262.2v15.2Z" class="g0_337"/>
<path fill-rule="evenodd" d="M262.2,511.6H503.9V496.5H262.2v15.1Z" class="g0_337"/>
<path fill-rule="evenodd" d="M281.7,526.6H504.3v-15H281.7v15Z" class="g0_337"/>
<path fill-rule="evenodd" d="M262.6,541.6H502.4v-15H262.6v15Z" class="g0_337"/>
<path fill-rule="evenodd" d="M262.6,556.7H502.4V541.6H262.6v15.1Z" class="g0_337"/>
<path fill-rule="evenodd" d="M262.9,571.7H503.5v-15H262.9v15Z" class="g0_337"/>
<path fill-rule="evenodd" d="M262.9,586.7H503.5v-15H262.9v15Z" class="g0_337"/>
<path fill-rule="evenodd" d="M262.2,601.8H502.8V586.7H262.2v15.1Z" class="g0_337"/>
<path fill-rule="evenodd" d="M262.2,616.8H502.8v-15H262.2v15Z" class="g0_337"/>
<path fill-rule="evenodd" d="M261.5,631.9H502.4V616.8H261.5v15.1Z" class="g0_337"/>
<path fill-rule="evenodd" d="M261.5,646.9H502.4v-15H261.5v15Z" class="g0_337"/>
<path fill-rule="evenodd" d="M262.6,661.9H503.2v-15H262.6v15Z" class="g0_337"/>
<path fill-rule="evenodd" d="M262.6,677.2H503.2V661.9H262.6v15.3Z" class="g0_337"/>
<path fill-rule="evenodd" d="M263.3,692.2H503.2v-15H263.3v15Z" class="g0_337"/>
<path fill-rule="evenodd" d="M263.3,707.2H503.2v-15H263.3v15Z" class="g0_337"/>
<path fill-rule="evenodd" d="M280.2,722.3H504.3V707.2H280.2v15.1Z" class="g0_337"/>
<path fill-rule="evenodd" d="M262.6,737.3H504.3v-15H262.6v15Z" class="g0_337"/>
<path fill-rule="evenodd" d="M262.2,752.3H502.8v-15H262.2v15Z" class="g0_337"/>
<path fill-rule="evenodd" d="M262.2,767.4H502.8V752.3H262.2v15.1Z" class="g0_337"/>
<path fill-rule="evenodd" d="M262.2,782.4H502.8v-15H262.2v15Z" class="g0_337"/>
<path fill-rule="evenodd" d="M262.2,797.4H502.1v-15H262.2v15Z" class="g0_337"/>
<path fill-rule="evenodd" d="M262.2,812.5H502.1V797.4H262.2v15.1Z" class="g0_337"/>
<path fill-rule="evenodd" d="M280.2,827.5H504.3v-15H280.2v15Z" class="g0_337"/>
<path fill-rule="evenodd" d="M280.2,842.6H504.3V827.5H280.2v15.1Z" class="g0_337"/>
<path fill-rule="evenodd" d="M261.8,857.8H502.1V842.6H261.8v15.2Z" class="g0_337"/>
<path fill-rule="evenodd" d="M261.8,872.8H502.1v-15H261.8v15Z" class="g0_337"/>
<path fill-rule="evenodd" d="M261.8,887.9H502.1V872.8H261.8v15.1Z" class="g0_337"/>
<path fill-rule="evenodd" d="M263.3,902.9H503.5v-15H263.3v15Z" class="g0_337"/>
<path fill-rule="evenodd" d="M523.7,301.8H763.9v-15H523.7v15Z" class="g0_337"/>
<path fill-rule="evenodd" d="M523.7,316.8H763.9v-15H523.7v15Z" class="g0_337"/>
<path fill-rule="evenodd" d="M523.7,331.9H764.6V316.8H523.7v15.1Z" class="g0_337"/>
<path fill-rule="evenodd" d="M523.7,347.1H764.6V331.9H523.7v15.2Z" class="g0_337"/>
<path fill-rule="evenodd" d="M523.7,362.2H764.6V347.1H523.7v15.1Z" class="g0_337"/>
<path fill-rule="evenodd" d="M523.7,377.2H764.6v-15H523.7v15Z" class="g0_337"/>
<path fill-rule="evenodd" d="M523.7,392.2H764.6v-15H523.7v15Z" class="g0_337"/>
<path fill-rule="evenodd" d="M523.7,407.3H764.6V392.2H523.7v15.1Z" class="g0_337"/>
<path fill-rule="evenodd" d="M523.7,422.3H764.6v-15H523.7v15Z" class="g0_337"/>
<path fill-rule="evenodd" d="M523.7,437.3H763.5v-15H523.7v15Z" class="g0_337"/>
<path fill-rule="evenodd" d="M523.7,452.4H763.5V437.3H523.7v15.1Z" class="g0_337"/>
<path fill-rule="evenodd" d="M523.7,467.4H763.9v-15H523.7v15Z" class="g0_337"/>
<path fill-rule="evenodd" d="M523.7,482.4H763.9v-15H523.7v15Z" class="g0_337"/>
<path fill-rule="evenodd" d="M523.7,497.5H763.9V482.4H523.7v15.1Z" class="g0_337"/>
<path fill-rule="evenodd" d="M523,512.5H763.5v-15H523v15Z" class="g0_337"/>
<path fill-rule="evenodd" d="M523,527.7H763.5V512.5H523v15.2Z" class="g0_337"/>
<path fill-rule="evenodd" d="M523,542.7H763.5v-15H523v15Z" class="g0_337"/>
<path fill-rule="evenodd" d="M523,557.8H763.5V542.7H523v15.1Z" class="g0_337"/>
<path fill-rule="evenodd" d="M523,572.8H763.2v-15H523v15Z" class="g0_337"/>
<path fill-rule="evenodd" d="M523,587.8H763.2v-15H523v15Z" class="g0_337"/>
<path fill-rule="evenodd" d="M523,602.9H763.2V587.8H523v15.1Z" class="g0_337"/>
<path fill-rule="evenodd" d="M541.3,617.9H764.6v-15H541.3v15Z" class="g0_337"/>
<path fill-rule="evenodd" d="M540.9,633H764.6V617.9H540.9V633Z" class="g0_337"/>
<path fill-rule="evenodd" d="M522.2,648h241V633h-241v15Z" class="g0_337"/>
<path fill-rule="evenodd" d="M522.2,663h241V648h-241v15Z" class="g0_337"/>
<path fill-rule="evenodd" d="M522.6,678.1H763.2V663H522.6v15.1Z" class="g0_337"/>
<path fill-rule="evenodd" d="M522.6,693.1H763.2v-15H522.6v15Z" class="g0_337"/>
<path fill-rule="evenodd" d="M522.6,708.3H763.2V693.1H522.6v15.2Z" class="g0_337"/>
<path fill-rule="evenodd" d="M540.9,723.4H764.6V708.3H540.9v15.1Z" class="g0_337"/>
<path fill-rule="evenodd" d="M540.6,738.4h224v-15h-224v15Z" class="g0_337"/>
<path fill-rule="evenodd" d="M540.9,753.4H764.6v-15H540.9v15Z" class="g0_337"/>
<path fill-rule="evenodd" d="M522.6,768.5H762.8V753.4H522.6v15.1Z" class="g0_337"/>
<path fill-rule="evenodd" d="M522.6,783.5H762.8v-15H522.6v15Z" class="g0_337"/>
<path fill-rule="evenodd" d="M522.6,798.5H762.8v-15H522.6v15Z" class="g0_337"/>
<path fill-rule="evenodd" d="M522.6,813.6H762.8V798.5H522.6v15.1Z" class="g0_337"/>
<path fill-rule="evenodd" d="M540.6,828.6h224v-15h-224v15Z" class="g0_337"/>
<path fill-rule="evenodd" d="M521.9,843.7H762.4V828.6H521.9v15.1Z" class="g0_337"/>
<path fill-rule="evenodd" d="M521.9,858.7H762.4v-15H521.9v15Z" class="g0_337"/>
<path fill-rule="evenodd" d="M521.9,873.7H762.4v-15H521.9v15Z" class="g0_337"/>
<path fill-rule="evenodd" d="M521.9,889H762.4V873.7H521.9V889Z" class="g0_337"/>
<path fill-rule="evenodd" d="M521.9,904H762.4V889H521.9v15Z" class="g0_337"/>
<path fill-rule="evenodd" d="M498.8,934.2H764.6V915H498.8v19.2Z" class="g0_337"/>
<path d="M201.3,93.1V332.9" class="g1_337"/>
<path d="M514,148.5v45.1" class="g2_337"/>
<path d="M213,791.7v210.1" class="g3_337"/>
<path d="M511.9,282.7V915.6" class="g2_337"/>
</svg>