<?xml version="1.0" encoding="UTF-8" standalone="no"?>
<!DOCTYPE svg PUBLIC "-//W3C//DTD SVG 1.1//EN"
"http://www.w3.org/Graphics/SVG/1.1/DTD/svg11.dtd">
<svg viewBox="0 0 909 1285" version="1.1" xmlns="http://www.w3.org/2000/svg" xmlns:xlink="http://www.w3.org/1999/xlink">
<defs>
<style type="text/css"><![CDATA[
.g0_301{
fill: #FFFFFF;
}
.g1_301{
fill: none;
stroke: #000000;
stroke-width: 0.381;
stroke-linecap: butt;
stroke-linejoin: round;
}
]]></style>
</defs>
<path fill-rule="evenodd" d="M279.1,131.1H779.3V110H279.1v21.1Z" class="g0_301"/>
<path fill-rule="evenodd" d="M279.5,167H518.9V152.4H279.5V167Z" class="g0_301"/>
<path fill-rule="evenodd" d="M279.5,181.7H518.9V167H279.5v14.7Z" class="g0_301"/>
<path fill-rule="evenodd" d="M278.4,196.4H518.9V181.7H278.4v14.7Z" class="g0_301"/>
<path fill-rule="evenodd" d="M278.4,211H518.9V196.4H278.4V211Z" class="g0_301"/>
<path fill-rule="evenodd" d="M278.4,225.9H518.9V211H278.4v14.9Z" class="g0_301"/>
<path fill-rule="evenodd" d="M278.4,240.6H518.9V225.9H278.4v14.7Z" class="g0_301"/>
<path fill-rule="evenodd" d="M278.4,255.2H518.9V240.6H278.4v14.6Z" class="g0_301"/>
<path fill-rule="evenodd" d="M278.4,269.9H518.9V255.2H278.4v14.7Z" class="g0_301"/>
<path fill-rule="evenodd" d="M278.4,284.6H518.9V269.9H278.4v14.7Z" class="g0_301"/>
<path fill-rule="evenodd" d="M278.4,299.2H518.9V284.6H278.4v14.6Z" class="g0_301"/>
<path fill-rule="evenodd" d="M278.4,313.9H518.9V299.2H278.4v14.7Z" class="g0_301"/>
<path fill-rule="evenodd" d="M278.4,328.6H518.9V313.9H278.4v14.7Z" class="g0_301"/>
<path fill-rule="evenodd" d="M278.4,343.2H518.9V328.6H278.4v14.6Z" class="g0_301"/>
<path fill-rule="evenodd" d="M278.4,357.9H518.9V343.2H278.4v14.7Z" class="g0_301"/>
<path fill-rule="evenodd" d="M278.4,372.6H518.9V357.9H278.4v14.7Z" class="g0_301"/>
<path fill-rule="evenodd" d="M278.4,387.3H518.9V372.6H278.4v14.7Z" class="g0_301"/>
<path fill-rule="evenodd" d="M278.4,401.9H518.9V387.3H278.4v14.6Z" class="g0_301"/>
<path fill-rule="evenodd" d="M278.4,417H518.2V402.3H278.4V417Z" class="g0_301"/>
<path fill-rule="evenodd" d="M278.4,431.6H518.2V417H278.4v14.6Z" class="g0_301"/>
<path fill-rule="evenodd" d="M278.4,446.3H518.6V431.6H278.4v14.7Z" class="g0_301"/>
<path fill-rule="evenodd" d="M278.4,461H518.6V446.3H278.4V461Z" class="g0_301"/>
<path fill-rule="evenodd" d="M278.4,475.6H518.6V461H278.4v14.6Z" class="g0_301"/>
<path fill-rule="evenodd" d="M278.4,490.3H518.6V475.6H278.4v14.7Z" class="g0_301"/>
<path fill-rule="evenodd" d="M296.7,505H518.9V490.3H296.7V505Z" class="g0_301"/>
<path fill-rule="evenodd" d="M278.4,520H517.5V505.3H278.4V520Z" class="g0_301"/>
<path fill-rule="evenodd" d="M278.4,534.7H517.5V520H278.4v14.7Z" class="g0_301"/>
<path fill-rule="evenodd" d="M278.4,549.3H517.8V534.7H278.4v14.6Z" class="g0_301"/>
<path fill-rule="evenodd" d="M278.4,564H517.8V549.3H278.4V564Z" class="g0_301"/>
<path fill-rule="evenodd" d="M296.7,579H518.9V564.4H296.7V579Z" class="g0_301"/>
<path fill-rule="evenodd" d="M296.7,593.7H518.9V579H296.7v14.7Z" class="g0_301"/>
<path fill-rule="evenodd" d="M296.7,608.8H518.9V593.7H296.7v15.1Z" class="g0_301"/>
<path fill-rule="evenodd" d="M278.4,623.4H518.2V608.8H278.4v14.6Z" class="g0_301"/>
<path fill-rule="evenodd" d="M278.4,638.1H518.2V623.4H278.4v14.7Z" class="g0_301"/>
<path fill-rule="evenodd" d="M278.4,652.8H518.2V638.1H278.4v14.7Z" class="g0_301"/>
<path fill-rule="evenodd" d="M278.4,667.4H518.2V652.8H278.4v14.6Z" class="g0_301"/>
<path fill-rule="evenodd" d="M278,682.5H517.8V667.8H278v14.7Z" class="g0_301"/>
<path fill-rule="evenodd" d="M278,697.1H517.8V682.5H278v14.6Z" class="g0_301"/>
<path fill-rule="evenodd" d="M278,711.8H517.8V697.1H278v14.7Z" class="g0_301"/>
<path fill-rule="evenodd" d="M278,726.5H517.8V711.8H278v14.7Z" class="g0_301"/>
<path fill-rule="evenodd" d="M296.3,741.1H518.9V726.5H296.3v14.6Z" class="g0_301"/>
<path fill-rule="evenodd" d="M277.3,756.2H517.8V741.5H277.3v14.7Z" class="g0_301"/>
<path fill-rule="evenodd" d="M277.3,770.8H517.8V756.2H277.3v14.6Z" class="g0_301"/>
<path fill-rule="evenodd" d="M277.3,785.5H517.8V770.8H277.3v14.7Z" class="g0_301"/>
<path fill-rule="evenodd" d="M277.3,800.2H517.8V785.5H277.3v14.7Z" class="g0_301"/>
<path fill-rule="evenodd" d="M277.3,814.8H517.8V800.2H277.3v14.6Z" class="g0_301"/>
<path fill-rule="evenodd" d="M277.3,829.5H517.8V814.8H277.3v14.7Z" class="g0_301"/>
<path fill-rule="evenodd" d="M277.3,844.2H517.8V829.5H277.3v14.7Z" class="g0_301"/>
<path fill-rule="evenodd" d="M277.3,858.9H517.8V844.2H277.3v14.7Z" class="g0_301"/>
<path fill-rule="evenodd" d="M277.6,873.6H517.8V858.9H277.6v14.7Z" class="g0_301"/>
<path fill-rule="evenodd" d="M277.6,888.2H517.8V873.6H277.6v14.6Z" class="g0_301"/>
<path fill-rule="evenodd" d="M279.1,902.9H463.2V888.2H279.1v14.7Z" class="g0_301"/>
<path fill-rule="evenodd" d="M539.1,166.7H723.6V152H539.1v14.7Z" class="g0_301"/>
<path fill-rule="evenodd" d="M539.1,181.3H723.6V166.7H539.1v14.6Z" class="g0_301"/>
<path fill-rule="evenodd" d="M539.1,196H723.6V181.3H539.1V196Z" class="g0_301"/>
<path fill-rule="evenodd" d="M539.1,211H778.6V196.4H539.1V211Z" class="g0_301"/>
<path fill-rule="evenodd" d="M539.1,225.9H778.6V211H539.1v14.9Z" class="g0_301"/>
<path fill-rule="evenodd" d="M557.4,240.9H779.3V226.3H557.4v14.6Z" class="g0_301"/>
<path fill-rule="evenodd" d="M539.1,256H779.3V241.3H539.1V256Z" class="g0_301"/>
<path fill-rule="evenodd" d="M539.1,270.6H779.3V256H539.1v14.6Z" class="g0_301"/>
<path fill-rule="evenodd" d="M539.1,285.3H779.3V270.6H539.1v14.7Z" class="g0_301"/>
<path fill-rule="evenodd" d="M539.1,300H779.3V285.3H539.1V300Z" class="g0_301"/>
<path fill-rule="evenodd" d="M538.7,314.6H779.3V300H538.7v14.6Z" class="g0_301"/>
<path fill-rule="evenodd" d="M538.7,329.3H779.3V314.6H538.7v14.7Z" class="g0_301"/>
<path fill-rule="evenodd" d="M538.7,344H779.3V329.3H538.7V344Z" class="g0_301"/>
<path fill-rule="evenodd" d="M538.7,358.7H779.3V344H538.7v14.7Z" class="g0_301"/>
<path fill-rule="evenodd" d="M538.7,373.3H779.3V358.7H538.7v14.6Z" class="g0_301"/>
<path fill-rule="evenodd" d="M538.7,388H779.3V373.3H538.7V388Z" class="g0_301"/>
<path fill-rule="evenodd" d="M538.7,402.7H779.3V388H538.7v14.7Z" class="g0_301"/>
<path fill-rule="evenodd" d="M538.4,417.7H778.9V403H538.4v14.7Z" class="g0_301"/>
<path fill-rule="evenodd" d="M538.4,432.4H778.9V417.7H538.4v14.7Z" class="g0_301"/>
<path fill-rule="evenodd" d="M539.1,447.4H778.6V432.7H539.1v14.7Z" class="g0_301"/>
<path fill-rule="evenodd" d="M539.1,462.1H778.6V447.4H539.1v14.7Z" class="g0_301"/>
<path fill-rule="evenodd" d="M538,477.1H779.3V462.4H538v14.7Z" class="g0_301"/>
<path fill-rule="evenodd" d="M538,491.8H779.3V477.1H538v14.7Z" class="g0_301"/>
<path fill-rule="evenodd" d="M538,506.4H779.3V491.8H538v14.6Z" class="g0_301"/>
<path fill-rule="evenodd" d="M538,521.1H779.3V506.4H538v14.7Z" class="g0_301"/>
<path fill-rule="evenodd" d="M538,535.8H779.3V521.1H538v14.7Z" class="g0_301"/>
<path fill-rule="evenodd" d="M556.3,550.8h223V536.1h-223v14.7Z" class="g0_301"/>
<path fill-rule="evenodd" d="M538.4,565.5H779.3V550.8H538.4v14.7Z" class="g0_301"/>
<path fill-rule="evenodd" d="M538.4,580.1H779.3V565.5H538.4v14.6Z" class="g0_301"/>
<path fill-rule="evenodd" d="M538.4,594.8H779.3V580.1H538.4v14.7Z" class="g0_301"/>
<path fill-rule="evenodd" d="M538.4,609.5H779.3V594.8H538.4v14.7Z" class="g0_301"/>
<path fill-rule="evenodd" d="M538.4,624.2H779.3V609.5H538.4v14.7Z" class="g0_301"/>
<path fill-rule="evenodd" d="M538,638.8H779.3V624.2H538v14.6Z" class="g0_301"/>
<path fill-rule="evenodd" d="M538,653.5H779.3V638.8H538v14.7Z" class="g0_301"/>
<path fill-rule="evenodd" d="M538,668.2H779.3V653.5H538v14.7Z" class="g0_301"/>
<path fill-rule="evenodd" d="M538,682.8H779.3V668.2H538v14.6Z" class="g0_301"/>
<path fill-rule="evenodd" d="M538,697.5H779.3V682.8H538v14.7Z" class="g0_301"/>
<path fill-rule="evenodd" d="M538,712.2H779.3V697.5H538v14.7Z" class="g0_301"/>
<path fill-rule="evenodd" d="M538.4,726.8H778.2V712.2H538.4v14.6Z" class="g0_301"/>
<path fill-rule="evenodd" d="M538.4,741.5H778.2V726.8H538.4v14.7Z" class="g0_301"/>
<path fill-rule="evenodd" d="M537.3,756.2H778.9V741.5H537.3v14.7Z" class="g0_301"/>
<path fill-rule="evenodd" d="M537.3,770.8H778.9V756.2H537.3v14.6Z" class="g0_301"/>
<path fill-rule="evenodd" d="M537.3,785.5H778.9V770.8H537.3v14.7Z" class="g0_301"/>
<path fill-rule="evenodd" d="M537.3,800.2H778.9V785.5H537.3v14.7Z" class="g0_301"/>
<path fill-rule="evenodd" d="M537.3,814.8H778.9V800.2H537.3v14.6Z" class="g0_301"/>
<path fill-rule="evenodd" d="M538.4,829.9H723.6V815.2H538.4v14.7Z" class="g0_301"/>
<path fill-rule="evenodd" d="M538.4,844.6H723.6V829.9H538.4v14.7Z" class="g0_301"/>
<path fill-rule="evenodd" d="M538.4,859.3H778.6V844.6H538.4v14.7Z" class="g0_301"/>
<path fill-rule="evenodd" d="M538.4,873.9H778.6V859.3H538.4v14.6Z" class="g0_301"/>
<path fill-rule="evenodd" d="M538.4,888.6H778.6V873.9H538.4v14.7Z" class="g0_301"/>
<path fill-rule="evenodd" d="M538.4,903.3H778.6V888.6H538.4v14.7Z" class="g0_301"/>
<path fill-rule="evenodd" d="M514.9,934.6H779.3V918.7H514.9v15.9Z" class="g0_301"/>
<path d="M217.1,280.4V999.9m2.2,-772.3V999.9M528,153.2V922.4" class="g1_301"/>
</svg>