<?xml version="1.0" encoding="UTF-8" standalone="no"?>
<!DOCTYPE svg PUBLIC "-//W3C//DTD SVG 1.1//EN"
"http://www.w3.org/Graphics/SVG/1.1/DTD/svg11.dtd">
<svg viewBox="0 0 909 1285" version="1.1" xmlns="http://www.w3.org/2000/svg" xmlns:xlink="http://www.w3.org/1999/xlink">
<defs>
<style type="text/css"><![CDATA[
.g0_72{
fill: #FFFFFF;
}
.g1_72{
fill: none;
stroke: #000000;
stroke-width: 0.381;
stroke-linecap: butt;
stroke-linejoin: round;
}
]]></style>
</defs>
<path fill-rule="evenodd" d="M594.8,129.3h98V110h-98v19.3Z" class="g0_72"/>
<path fill-rule="evenodd" d="M594.8,148.7h98V129.3h-98v19.4Z" class="g0_72"/>
<path fill-rule="evenodd" d="M194.7,183.5H433.8V168.9H194.7v14.6Z" class="g0_72"/>
<path fill-rule="evenodd" d="M194.7,198.2H433.8V183.5H194.7v14.7Z" class="g0_72"/>
<path fill-rule="evenodd" d="M194.7,212.9H433.8V198.2H194.7v14.7Z" class="g0_72"/>
<path fill-rule="evenodd" d="M194.7,227.9H433.5V213.2H194.7v14.7Z" class="g0_72"/>
<path fill-rule="evenodd" d="M194.7,242.6H433.5V227.9H194.7v14.7Z" class="g0_72"/>
<path fill-rule="evenodd" d="M194.7,257.2H433.5V242.6H194.7v14.6Z" class="g0_72"/>
<path fill-rule="evenodd" d="M194.7,271.9H433.5V257.2H194.7v14.7Z" class="g0_72"/>
<path fill-rule="evenodd" d="M195.1,286.9H433.5V272.3H195.1v14.6Z" class="g0_72"/>
<path fill-rule="evenodd" d="M195.1,301.6H433.5V286.9H195.1v14.7Z" class="g0_72"/>
<path fill-rule="evenodd" d="M195.1,316.3H433.5V301.6H195.1v14.7Z" class="g0_72"/>
<path fill-rule="evenodd" d="M195.1,330.9H433.5V316.3H195.1v14.6Z" class="g0_72"/>
<path fill-rule="evenodd" d="M194.7,346H433.1V331.3H194.7V346Z" class="g0_72"/>
<path fill-rule="evenodd" d="M194.7,360.7H433.1V346H194.7v14.7Z" class="g0_72"/>
<path fill-rule="evenodd" d="M194.7,375.4H433.5V360.7H194.7v14.7Z" class="g0_72"/>
<path fill-rule="evenodd" d="M194.7,390H433.5V375.4H194.7V390Z" class="g0_72"/>
<path fill-rule="evenodd" d="M194.4,404.7H433.1V390H194.4v14.7Z" class="g0_72"/>
<path fill-rule="evenodd" d="M194.4,419.4H433.1V404.7H194.4v14.7Z" class="g0_72"/>
<path fill-rule="evenodd" d="M194.4,434.4H433.5V419.7H194.4v14.7Z" class="g0_72"/>
<path fill-rule="evenodd" d="M194.4,449.1H433.5V434.4H194.4v14.7Z" class="g0_72"/>
<path fill-rule="evenodd" d="M194.4,463.7H433.5V449.1H194.4v14.6Z" class="g0_72"/>
<path fill-rule="evenodd" d="M194.4,478.4H433.5V463.7H194.4v14.7Z" class="g0_72"/>
<path fill-rule="evenodd" d="M194.4,493.4H433.1V478.8H194.4v14.6Z" class="g0_72"/>
<path fill-rule="evenodd" d="M194.4,508.1H433.1V493.4H194.4v14.7Z" class="g0_72"/>
<path fill-rule="evenodd" d="M194.4,522.8H433.1V508.1H194.4v14.7Z" class="g0_72"/>
<path fill-rule="evenodd" d="M194.4,537.4h238V522.8h-238v14.6Z" class="g0_72"/>
<path fill-rule="evenodd" d="M194.4,552.1h238V537.4h-238v14.7Z" class="g0_72"/>
<path fill-rule="evenodd" d="M194,566.8H432.7V552.1H194v14.7Z" class="g0_72"/>
<path fill-rule="evenodd" d="M194,581.4H432.7V566.8H194v14.6Z" class="g0_72"/>
<path fill-rule="evenodd" d="M194,596.1H432.7V581.4H194v14.7Z" class="g0_72"/>
<path fill-rule="evenodd" d="M194,610.8H432.7V596.1H194v14.7Z" class="g0_72"/>
<path fill-rule="evenodd" d="M194,625.5H432.7V610.8H194v14.7Z" class="g0_72"/>
<path fill-rule="evenodd" d="M194,640.9H432.4V626.2H194v14.7Z" class="g0_72"/>
<path fill-rule="evenodd" d="M194,655.5H432.4V640.9H194v14.6Z" class="g0_72"/>
<path fill-rule="evenodd" d="M193.6,670.2H432.7V655.5H193.6v14.7Z" class="g0_72"/>
<path fill-rule="evenodd" d="M193.6,684.9H432.7V670.2H193.6v14.7Z" class="g0_72"/>
<path fill-rule="evenodd" d="M193.6,699.5H432.7V684.9H193.6v14.6Z" class="g0_72"/>
<path fill-rule="evenodd" d="M193.6,714.2h238V699.5h-238v14.7Z" class="g0_72"/>
<path fill-rule="evenodd" d="M193.6,728.9h238V714.2h-238v14.7Z" class="g0_72"/>
<path fill-rule="evenodd" d="M193.3,744.1H432.4V729.2H193.3v14.9Z" class="g0_72"/>
<path fill-rule="evenodd" d="M193.3,758.7H432.4V744.1H193.3v14.6Z" class="g0_72"/>
<path fill-rule="evenodd" d="M193.3,773.4H432.4V758.7H193.3v14.7Z" class="g0_72"/>
<path fill-rule="evenodd" d="M193.3,788.1H432.4V773.4H193.3v14.7Z" class="g0_72"/>
<path fill-rule="evenodd" d="M193.3,802.7H432.4V788.1H193.3v14.6Z" class="g0_72"/>
<path fill-rule="evenodd" d="M193.3,817.4H432.4V802.7H193.3v14.7Z" class="g0_72"/>
<path fill-rule="evenodd" d="M193.3,832.1H432.4V817.4H193.3v14.7Z" class="g0_72"/>
<path fill-rule="evenodd" d="M193.3,846.8H432.4V832.1H193.3v14.7Z" class="g0_72"/>
<path fill-rule="evenodd" d="M193.3,861.5H432.4V846.8H193.3v14.7Z" class="g0_72"/>
<path fill-rule="evenodd" d="M193.3,876.1H432.4V861.5H193.3v14.6Z" class="g0_72"/>
<path fill-rule="evenodd" d="M193.3,890.8H432.4V876.1H193.3v14.7Z" class="g0_72"/>
<path fill-rule="evenodd" d="M193.3,905.5H432.4V890.8H193.3v14.7Z" class="g0_72"/>
<path fill-rule="evenodd" d="M193.3,920.1H432.4V905.5H193.3v14.6Z" class="g0_72"/>
<path fill-rule="evenodd" d="M194.7,934.8H433.8V920.1H194.7v14.7Z" class="g0_72"/>
<path fill-rule="evenodd" d="M453.7,183.2H692.8V168.5H453.7v14.7Z" class="g0_72"/>
<path fill-rule="evenodd" d="M453.7,197.8H692.8V183.2H453.7v14.6Z" class="g0_72"/>
<path fill-rule="evenodd" d="M453.7,212.5H692.8V197.8H453.7v14.7Z" class="g0_72"/>
<path fill-rule="evenodd" d="M453.7,227.2H692.8V212.5H453.7v14.7Z" class="g0_72"/>
<path fill-rule="evenodd" d="M453.7,241.8H692.8V227.2H453.7v14.6Z" class="g0_72"/>
<path fill-rule="evenodd" d="M453.7,256.5H692.8V241.8H453.7v14.7Z" class="g0_72"/>
<path fill-rule="evenodd" d="M454,271.2H692.8V256.5H454v14.7Z" class="g0_72"/>
<path fill-rule="evenodd" d="M454,285.8H692.8V271.2H454v14.6Z" class="g0_72"/>
<path fill-rule="evenodd" d="M453.7,300.5H692.8V285.8H453.7v14.7Z" class="g0_72"/>
<path fill-rule="evenodd" d="M453.7,315.2H692.8V300.5H453.7v14.7Z" class="g0_72"/>
<path fill-rule="evenodd" d="M453.7,329.8H692.8V315.2H453.7v14.6Z" class="g0_72"/>
<path fill-rule="evenodd" d="M453.7,344.5H692.8V329.8H453.7v14.7Z" class="g0_72"/>
<path fill-rule="evenodd" d="M453.7,359.2H692.8V344.5H453.7v14.7Z" class="g0_72"/>
<path fill-rule="evenodd" d="M472,373.9H692.8V359.2H472v14.7Z" class="g0_72"/>
<path fill-rule="evenodd" d="M453.7,388.6H692.4V373.9H453.7v14.7Z" class="g0_72"/>
<path fill-rule="evenodd" d="M453.7,403.2H692.4V388.6H453.7v14.6Z" class="g0_72"/>
<path fill-rule="evenodd" d="M453.7,417.9H692.4V403.2H453.7v14.7Z" class="g0_72"/>
<path fill-rule="evenodd" d="M453.7,432.6H692.4V417.9H453.7v14.7Z" class="g0_72"/>
<path fill-rule="evenodd" d="M453.7,447.2H692V432.6H453.7v14.6Z" class="g0_72"/>
<path fill-rule="evenodd" d="M453.7,461.9H692V447.2H453.7v14.7Z" class="g0_72"/>
<path fill-rule="evenodd" d="M471.6,476.9H692.8V462.3H471.6v14.6Z" class="g0_72"/>
<path fill-rule="evenodd" d="M453.7,492.3h238V477.7h-238v14.6Z" class="g0_72"/>
<path fill-rule="evenodd" d="M453.7,507h238V492.3h-238V507Z" class="g0_72"/>
<path fill-rule="evenodd" d="M452.9,521.7H691.7V507H452.9v14.7Z" class="g0_72"/>
<path fill-rule="evenodd" d="M452.9,536.3H691.7V521.7H452.9v14.6Z" class="g0_72"/>
<path fill-rule="evenodd" d="M453.3,551H692V536.3H453.3V551Z" class="g0_72"/>
<path fill-rule="evenodd" d="M453.3,565.7H692V551H453.3v14.7Z" class="g0_72"/>
<path fill-rule="evenodd" d="M452.9,580.3H692V565.7H452.9v14.6Z" class="g0_72"/>
<path fill-rule="evenodd" d="M452.9,595H692V580.3H452.9V595Z" class="g0_72"/>
<path fill-rule="evenodd" d="M452.9,609.7H692V595H452.9v14.7Z" class="g0_72"/>
<path fill-rule="evenodd" d="M452.9,624.4H692V609.7H452.9v14.7Z" class="g0_72"/>
<path fill-rule="evenodd" d="M452.9,639H692V624.4H452.9V639Z" class="g0_72"/>
<path fill-rule="evenodd" d="M452.9,653.7H692V639H452.9v14.7Z" class="g0_72"/>
<path fill-rule="evenodd" d="M452.9,668.4H692V653.7H452.9v14.7Z" class="g0_72"/>
<path fill-rule="evenodd" d="M452.9,683.4H691.7V668.7H452.9v14.7Z" class="g0_72"/>
<path fill-rule="evenodd" d="M452.9,698.1H691.7V683.4H452.9v14.7Z" class="g0_72"/>
<path fill-rule="evenodd" d="M452.6,713.1H691.3V698.4H452.6v14.7Z" class="g0_72"/>
<path fill-rule="evenodd" d="M452.6,727.8H691.3V713.1H452.6v14.7Z" class="g0_72"/>
<path fill-rule="evenodd" d="M452.6,742.4H692V727.8H452.6v14.6Z" class="g0_72"/>
<path fill-rule="evenodd" d="M452.6,757.1H692V742.4H452.6v14.7Z" class="g0_72"/>
<path fill-rule="evenodd" d="M452.2,771.8H691.3V757.1H452.2v14.7Z" class="g0_72"/>
<path fill-rule="evenodd" d="M452.2,786.4H691.3V771.8H452.2v14.6Z" class="g0_72"/>
<path fill-rule="evenodd" d="M452.6,801.1H690.9V786.4H452.6v14.7Z" class="g0_72"/>
<path fill-rule="evenodd" d="M452.6,815.8H690.9V801.1H452.6v14.7Z" class="g0_72"/>
<path fill-rule="evenodd" d="M452.6,830.4H690.9V815.8H452.6v14.6Z" class="g0_72"/>
<path fill-rule="evenodd" d="M453.3,845.1H690.9V830.4H453.3v14.7Z" class="g0_72"/>
<path fill-rule="evenodd" d="M453.3,859.8H690.9V845.1H453.3v14.7Z" class="g0_72"/>
<path fill-rule="evenodd" d="M470.5,874.5H692.8V859.8H470.5v14.7Z" class="g0_72"/>
<path fill-rule="evenodd" d="M470.5,889.1H692.8V874.5H470.5v14.6Z" class="g0_72"/>
<path fill-rule="evenodd" d="M470.5,908.6H692.8V889.1H470.5v19.5Z" class="g0_72"/>
<path d="M441.5,167.7V936.9" class="g1_72"/>
</svg>