<?xml version="1.0" encoding="UTF-8" standalone="no"?>
<!DOCTYPE svg PUBLIC "-//W3C//DTD SVG 1.1//EN"
"http://www.w3.org/Graphics/SVG/1.1/DTD/svg11.dtd">
<svg viewBox="0 0 909 1285" version="1.1" xmlns="http://www.w3.org/2000/svg" xmlns:xlink="http://www.w3.org/1999/xlink">
<defs>
<style type="text/css"><![CDATA[
.g0_98{
fill: #FFFFFF;
}
.g1_98{
fill: none;
stroke: #000000;
stroke-width: 0.381;
stroke-linecap: butt;
stroke-linejoin: round;
}
]]></style>
</defs>
<path fill-rule="evenodd" d="M624,125.8h75.6V110H624v15.8Z" class="g0_98"/>
<path fill-rule="evenodd" d="M199.3,161.4H439.5V146.3H199.3v15.1Z" class="g0_98"/>
<path fill-rule="evenodd" d="M199.3,176.4H439.5v-15H199.3v15Z" class="g0_98"/>
<path fill-rule="evenodd" d="M199.3,191.6H439.5V176.4H199.3v15.2Z" class="g0_98"/>
<path fill-rule="evenodd" d="M217.6,206.6H439.5v-15H217.6v15Z" class="g0_98"/>
<path fill-rule="evenodd" d="M199.7,221.7H438.8V206.6H199.7v15.1Z" class="g0_98"/>
<path fill-rule="evenodd" d="M199.7,236.7H438.8v-15H199.7v15Z" class="g0_98"/>
<path fill-rule="evenodd" d="M199.7,251.7H439.1v-15H199.7v15Z" class="g0_98"/>
<path fill-rule="evenodd" d="M199.7,266.8H439.1V251.7H199.7v15.1Z" class="g0_98"/>
<path fill-rule="evenodd" d="M199.7,281.8H439.1v-15H199.7v15Z" class="g0_98"/>
<path fill-rule="evenodd" d="M199.3,296.8H439.1v-15H199.3v15Z" class="g0_98"/>
<path fill-rule="evenodd" d="M199.3,311.9H439.1V296.8H199.3v15.1Z" class="g0_98"/>
<path fill-rule="evenodd" d="M199.3,326.9H439.1v-15H199.3v15Z" class="g0_98"/>
<path fill-rule="evenodd" d="M199.3,341.9H439.1v-15H199.3v15Z" class="g0_98"/>
<path fill-rule="evenodd" d="M199.3,357.2H439.1V342H199.3v15.2Z" class="g0_98"/>
<path fill-rule="evenodd" d="M199.3,372.2H439.1v-15H199.3v15Z" class="g0_98"/>
<path fill-rule="evenodd" d="M199.3,387.3H439.1V372.2H199.3v15.1Z" class="g0_98"/>
<path fill-rule="evenodd" d="M198.6,402.3H438.8v-15H198.6v15Z" class="g0_98"/>
<path fill-rule="evenodd" d="M198.6,417.3H438.8v-15H198.6v15Z" class="g0_98"/>
<path fill-rule="evenodd" d="M198.6,432.4H438.8V417.3H198.6v15.1Z" class="g0_98"/>
<path fill-rule="evenodd" d="M198.6,447.4H438.8v-15H198.6v15Z" class="g0_98"/>
<path fill-rule="evenodd" d="M198.6,462.4H438.8v-15H198.6v15Z" class="g0_98"/>
<path fill-rule="evenodd" d="M198.9,477.5H438V462.4H198.9v15.1Z" class="g0_98"/>
<path fill-rule="evenodd" d="M198.9,492.5H438v-15H198.9v15Z" class="g0_98"/>
<path fill-rule="evenodd" d="M198.2,507.5H437.7v-15H198.2v15Z" class="g0_98"/>
<path fill-rule="evenodd" d="M198.2,522.6H437.7V507.5H198.2v15.1Z" class="g0_98"/>
<path fill-rule="evenodd" d="M198.2,537.8H437.7V522.6H198.2v15.2Z" class="g0_98"/>
<path fill-rule="evenodd" d="M198.2,552.8H437.7v-15H198.2v15Z" class="g0_98"/>
<path fill-rule="evenodd" d="M198.2,567.9H437.7V552.8H198.2v15.1Z" class="g0_98"/>
<path fill-rule="evenodd" d="M198.2,582.9H437.7v-15H198.2v15Z" class="g0_98"/>
<path fill-rule="evenodd" d="M198.9,598H437.7V582.9H198.9V598Z" class="g0_98"/>
<path fill-rule="evenodd" d="M198.9,613H437.7V598H198.9v15Z" class="g0_98"/>
<path fill-rule="evenodd" d="M198.6,628H437.7V613H198.6v15Z" class="g0_98"/>
<path fill-rule="evenodd" d="M198.6,643.1H437.7V628H198.6v15.1Z" class="g0_98"/>
<path fill-rule="evenodd" d="M198.2,658.5H438V643.4H198.2v15.1Z" class="g0_98"/>
<path fill-rule="evenodd" d="M198.2,673.5H438v-15H198.2v15Z" class="g0_98"/>
<path fill-rule="evenodd" d="M198.2,688.5H438v-15H198.2v15Z" class="g0_98"/>
<path fill-rule="evenodd" d="M198.2,703.7H438V688.5H198.2v15.2Z" class="g0_98"/>
<path fill-rule="evenodd" d="M198.2,718.8H438V703.7H198.2v15.1Z" class="g0_98"/>
<path fill-rule="evenodd" d="M198.2,733.8H438v-15H198.2v15Z" class="g0_98"/>
<path fill-rule="evenodd" d="M198.2,748.8H438v-15H198.2v15Z" class="g0_98"/>
<path fill-rule="evenodd" d="M198.2,763.9H438V748.8H198.2v15.1Z" class="g0_98"/>
<path fill-rule="evenodd" d="M197.1,778.9H437.7v-15H197.1v15Z" class="g0_98"/>
<path fill-rule="evenodd" d="M197.1,793.9H437.7v-15H197.1v15Z" class="g0_98"/>
<path fill-rule="evenodd" d="M197.1,809H437.7V793.9H197.1V809Z" class="g0_98"/>
<path fill-rule="evenodd" d="M198.2,824H437.7V809H198.2v15Z" class="g0_98"/>
<path fill-rule="evenodd" d="M198.2,839.1H437.7V824H198.2v15.1Z" class="g0_98"/>
<path fill-rule="evenodd" d="M198.2,854.1H437.3v-15H198.2v15Z" class="g0_98"/>
<path fill-rule="evenodd" d="M198.2,869.2H437.3V854.1H198.2v15.1Z" class="g0_98"/>
<path fill-rule="evenodd" d="M198.2,884.4H437.3V869.2H198.2v15.2Z" class="g0_98"/>
<path fill-rule="evenodd" d="M198.2,899.4H437.3v-15H198.2v15Z" class="g0_98"/>
<path fill-rule="evenodd" d="M198.9,914.4H439.5v-15H198.9v15Z" class="g0_98"/>
<path fill-rule="evenodd" d="M459.7,161.4H699.6V146.3H459.7v15.1Z" class="g0_98"/>
<path fill-rule="evenodd" d="M459.7,176.4H699.6v-15H459.7v15Z" class="g0_98"/>
<path fill-rule="evenodd" d="M459.7,192H699.6V176.4H459.7V192Z" class="g0_98"/>
<path fill-rule="evenodd" d="M459.7,207H699.6V192H459.7v15Z" class="g0_98"/>
<path fill-rule="evenodd" d="M460.1,222H699.2V207H460.1v15Z" class="g0_98"/>
<path fill-rule="evenodd" d="M460.1,237.1H699.2V222H460.1v15.1Z" class="g0_98"/>
<path fill-rule="evenodd" d="M459.4,252.1H699.2v-15H459.4v15Z" class="g0_98"/>
<path fill-rule="evenodd" d="M459.4,267.1H699.2v-15H459.4v15Z" class="g0_98"/>
<path fill-rule="evenodd" d="M459.4,282.2H699.2V267.1H459.4v15.1Z" class="g0_98"/>
<path fill-rule="evenodd" d="M459,297.2H699.2v-15H459v15Z" class="g0_98"/>
<path fill-rule="evenodd" d="M459,312.2H699.2v-15H459v15Z" class="g0_98"/>
<path fill-rule="evenodd" d="M459,327.3H699.2V312.2H459v15.1Z" class="g0_98"/>
<path fill-rule="evenodd" d="M459,342.5H699.2V327.3H459v15.2Z" class="g0_98"/>
<path fill-rule="evenodd" d="M459,357.6H699.2V342.5H459v15.1Z" class="g0_98"/>
<path fill-rule="evenodd" d="M459.4,373H699.2V357.9H459.4V373Z" class="g0_98"/>
<path fill-rule="evenodd" d="M459.4,388H699.2V373H459.4v15Z" class="g0_98"/>
<path fill-rule="evenodd" d="M459.4,403H699.2V388H459.4v15Z" class="g0_98"/>
<path fill-rule="evenodd" d="M459.4,418.1H699.2V403H459.4v15.1Z" class="g0_98"/>
<path fill-rule="evenodd" d="M459,433.1H698.8v-15H459v15Z" class="g0_98"/>
<path fill-rule="evenodd" d="M459,448.1H698.8v-15H459v15Z" class="g0_98"/>
<path fill-rule="evenodd" d="M459.4,463.5H699.2v-15H459.4v15Z" class="g0_98"/>
<path fill-rule="evenodd" d="M459.4,478.6H699.2V463.5H459.4v15.1Z" class="g0_98"/>
<path fill-rule="evenodd" d="M458.6,493.8H698.8V478.6H458.6v15.2Z" class="g0_98"/>
<path fill-rule="evenodd" d="M458.6,508.8H698.8v-15H458.6v15Z" class="g0_98"/>
<path fill-rule="evenodd" d="M458.6,523.9H698.5V508.8H458.6v15.1Z" class="g0_98"/>
<path fill-rule="evenodd" d="M458.6,538.9H698.5v-15H458.6v15Z" class="g0_98"/>
<path fill-rule="evenodd" d="M459,553.9H698.1v-15H459v15Z" class="g0_98"/>
<path fill-rule="evenodd" d="M459,569H698.1V553.9H459V569Z" class="g0_98"/>
<path fill-rule="evenodd" d="M459,584H698.1V569H459v15Z" class="g0_98"/>
<path fill-rule="evenodd" d="M458.6,599.1H698.5V584H458.6v15.1Z" class="g0_98"/>
<path fill-rule="evenodd" d="M458.6,614.1H698.5v-15H458.6v15Z" class="g0_98"/>
<path fill-rule="evenodd" d="M458.6,629.1H698.5v-15H458.6v15Z" class="g0_98"/>
<path fill-rule="evenodd" d="M458.3,644.2H698.5V629.1H458.3v15.1Z" class="g0_98"/>
<path fill-rule="evenodd" d="M458.3,659.2H698.5v-15H458.3v15Z" class="g0_98"/>
<path fill-rule="evenodd" d="M458.3,674.4H698.5V659.2H458.3v15.2Z" class="g0_98"/>
<path fill-rule="evenodd" d="M458.3,689.4H698.5v-15H458.3v15Z" class="g0_98"/>
<path fill-rule="evenodd" d="M458.3,704.5H697.7V689.4H458.3v15.1Z" class="g0_98"/>
<path fill-rule="evenodd" d="M458.3,719.5H697.7v-15H458.3v15Z" class="g0_98"/>
<path fill-rule="evenodd" d="M458.3,734.5H698.1v-15H458.3v15Z" class="g0_98"/>
<path fill-rule="evenodd" d="M458.3,749.6H698.1V734.5H458.3v15.1Z" class="g0_98"/>
<path fill-rule="evenodd" d="M458.3,764.6H698.1v-15H458.3v15Z" class="g0_98"/>
<path fill-rule="evenodd" d="M458.3,779.6H698.1v-15H458.3v15Z" class="g0_98"/>
<path fill-rule="evenodd" d="M458.3,794.7H698.1V779.6H458.3v15.1Z" class="g0_98"/>
<path fill-rule="evenodd" d="M457.9,809.7H698.1v-15H457.9v15Z" class="g0_98"/>
<path fill-rule="evenodd" d="M457.9,824.7H698.1v-15H457.9v15Z" class="g0_98"/>
<path fill-rule="evenodd" d="M476.2,839.8H699.6V824.7H476.2v15.1Z" class="g0_98"/>
<path fill-rule="evenodd" d="M476.6,855h223V839.8h-223V855Z" class="g0_98"/>
<path fill-rule="evenodd" d="M475.9,870.1H699.6V855H475.9v15.1Z" class="g0_98"/>
<path fill-rule="evenodd" d="M435.1,931.5H699.6V914.1H435.1v17.4Z" class="g0_98"/>
<path d="M447.2,146.4V915.3" class="g1_98"/>
</svg>