<?xml version="1.0" encoding="UTF-8" standalone="no"?>
<!DOCTYPE svg PUBLIC "-//W3C//DTD SVG 1.1//EN"
"http://www.w3.org/Graphics/SVG/1.1/DTD/svg11.dtd">
<svg viewBox="0 0 909 1285" version="1.1" xmlns="http://www.w3.org/2000/svg" xmlns:xlink="http://www.w3.org/1999/xlink">
<defs>
<style type="text/css"><![CDATA[
.g0_149{
fill: #FFFFFF;
}
.g1_149{
fill: none;
stroke: #000000;
stroke-width: 0.381;
stroke-linecap: butt;
stroke-linejoin: round;
}
]]></style>
</defs>
<path fill-rule="evenodd" d="M266.8,125.8H761.2V110H266.8v15.8Z" class="g0_149"/>
<path fill-rule="evenodd" d="M284.8,162.8H502.3V148.2H284.8v14.6Z" class="g0_149"/>
<path fill-rule="evenodd" d="M266.4,177.9H502.3V163.2H266.4v14.7Z" class="g0_149"/>
<path fill-rule="evenodd" d="M266.4,192.5H502.3V177.9H266.4v14.6Z" class="g0_149"/>
<path fill-rule="evenodd" d="M266,207.2H502.3V192.5H266v14.7Z" class="g0_149"/>
<path fill-rule="evenodd" d="M266,221.9H502.3V207.2H266v14.7Z" class="g0_149"/>
<path fill-rule="evenodd" d="M266,236.5H502.3V221.9H266v14.6Z" class="g0_149"/>
<path fill-rule="evenodd" d="M266,251.2H501.9V236.5H266v14.7Z" class="g0_149"/>
<path fill-rule="evenodd" d="M266,265.9H501.9V251.2H266v14.7Z" class="g0_149"/>
<path fill-rule="evenodd" d="M266,280.5H501.9V265.9H266v14.6Z" class="g0_149"/>
<path fill-rule="evenodd" d="M266,295.2H501.9V280.5H266v14.7Z" class="g0_149"/>
<path fill-rule="evenodd" d="M266,309.9H501.9V295.2H266v14.7Z" class="g0_149"/>
<path fill-rule="evenodd" d="M265.7,324.5H501.9V309.9H265.7v14.6Z" class="g0_149"/>
<path fill-rule="evenodd" d="M265.7,339.2H501.9V324.5H265.7v14.7Z" class="g0_149"/>
<path fill-rule="evenodd" d="M265.7,353.9H501.9V339.2H265.7v14.7Z" class="g0_149"/>
<path fill-rule="evenodd" d="M265.7,368.6H501.9V353.9H265.7v14.7Z" class="g0_149"/>
<path fill-rule="evenodd" d="M266,383.8H501.5V368.9H266v14.9Z" class="g0_149"/>
<path fill-rule="evenodd" d="M266,398.5H501.5V383.8H266v14.7Z" class="g0_149"/>
<path fill-rule="evenodd" d="M266,413.1H501.5V398.5H266v14.6Z" class="g0_149"/>
<path fill-rule="evenodd" d="M265.7,427.8H501.5V413.1H265.7v14.7Z" class="g0_149"/>
<path fill-rule="evenodd" d="M265.7,442.5H501.5V427.8H265.7v14.7Z" class="g0_149"/>
<path fill-rule="evenodd" d="M265.7,457.1H501.5V442.5H265.7v14.6Z" class="g0_149"/>
<path fill-rule="evenodd" d="M265.7,471.8H501.5V457.1H265.7v14.7Z" class="g0_149"/>
<path fill-rule="evenodd" d="M265.7,486.5H501.5V471.8H265.7v14.7Z" class="g0_149"/>
<path fill-rule="evenodd" d="M283.3,501.1h219V486.5h-219v14.6Z" class="g0_149"/>
<path fill-rule="evenodd" d="M265.3,515.8h237V501.1h-237v14.7Z" class="g0_149"/>
<path fill-rule="evenodd" d="M264.9,530.5H501.2V515.8H264.9v14.7Z" class="g0_149"/>
<path fill-rule="evenodd" d="M264.9,545.1H501.2V530.5H264.9v14.6Z" class="g0_149"/>
<path fill-rule="evenodd" d="M264.9,559.8H501.2V545.1H264.9v14.7Z" class="g0_149"/>
<path fill-rule="evenodd" d="M264.9,574.5H501.2V559.8H264.9v14.7Z" class="g0_149"/>
<path fill-rule="evenodd" d="M264.9,589.1H501.2V574.5H264.9v14.6Z" class="g0_149"/>
<path fill-rule="evenodd" d="M264.9,603.8H500.8V589.1H264.9v14.7Z" class="g0_149"/>
<path fill-rule="evenodd" d="M264.9,618.5H500.8V603.8H264.9v14.7Z" class="g0_149"/>
<path fill-rule="evenodd" d="M264.9,633.2H500.8V618.5H264.9v14.7Z" class="g0_149"/>
<path fill-rule="evenodd" d="M264.9,647.8H500.8V633.2H264.9v14.6Z" class="g0_149"/>
<path fill-rule="evenodd" d="M264.9,662.5H500.8V647.8H264.9v14.7Z" class="g0_149"/>
<path fill-rule="evenodd" d="M266.4,677.9H502.3V662.5H266.4v15.4Z" class="g0_149"/>
<path fill-rule="evenodd" d="M522.4,163.2H761.2V147.8H522.4v15.4Z" class="g0_149"/>
<path fill-rule="evenodd" d="M522.4,178.8H761.2V163.2H522.4v15.6Z" class="g0_149"/>
<path fill-rule="evenodd" d="M522.4,194.2H761.2V178.8H522.4v15.4Z" class="g0_149"/>
<path fill-rule="evenodd" d="M523.2,209.9H760.8V194.5H523.2v15.4Z" class="g0_149"/>
<path fill-rule="evenodd" d="M523.2,225.3H760.8V209.9H523.2v15.4Z" class="g0_149"/>
<path fill-rule="evenodd" d="M522.1,241.1H760.4V225.7H522.1v15.4Z" class="g0_149"/>
<path fill-rule="evenodd" d="M522.1,256.7H760.4V241.1H522.1v15.6Z" class="g0_149"/>
<path fill-rule="evenodd" d="M522.1,272.1H760.4V256.7H522.1v15.4Z" class="g0_149"/>
<path fill-rule="evenodd" d="M522.1,287.5H760.4V272.1H522.1v15.4Z" class="g0_149"/>
<path fill-rule="evenodd" d="M522.1,302.9H760.4V287.5H522.1v15.4Z" class="g0_149"/>
<path fill-rule="evenodd" d="M522.1,318.3H760.4V302.9H522.1v15.4Z" class="g0_149"/>
<path fill-rule="evenodd" d="M522.4,333.7H760.1V318.3H522.4v15.4Z" class="g0_149"/>
<path fill-rule="evenodd" d="M522.4,349.3H760.1V333.7H522.4v15.6Z" class="g0_149"/>
<path fill-rule="evenodd" d="M521.7,364.7H760.4V349.3H521.7v15.4Z" class="g0_149"/>
<path fill-rule="evenodd" d="M521.7,380.1H760.4V364.7H521.7v15.4Z" class="g0_149"/>
<path fill-rule="evenodd" d="M521.7,395.5H760.4V380.1H521.7v15.4Z" class="g0_149"/>
<path fill-rule="evenodd" d="M521.7,410.9H760.4V395.5H521.7v15.4Z" class="g0_149"/>
<path fill-rule="evenodd" d="M539.7,426.3H761.2V410.9H539.7v15.4Z" class="g0_149"/>
<path fill-rule="evenodd" d="M540,441.9H761.2V426.3H540v15.6Z" class="g0_149"/>
<path fill-rule="evenodd" d="M521.3,457.3h238V441.9h-238v15.4Z" class="g0_149"/>
<path fill-rule="evenodd" d="M521.3,472.7h238V457.3h-238v15.4Z" class="g0_149"/>
<path fill-rule="evenodd" d="M539.3,488.1H761.2V472.7H539.3v15.4Z" class="g0_149"/>
<path fill-rule="evenodd" d="M539.3,503.5H761.2V488.1H539.3v15.4Z" class="g0_149"/>
<path fill-rule="evenodd" d="M539.7,518.9H761.2V503.5H539.7v15.4Z" class="g0_149"/>
<path fill-rule="evenodd" d="M521,534.9H761.2V519.3H521v15.6Z" class="g0_149"/>
<path fill-rule="evenodd" d="M521,550.3H761.2V534.9H521v15.4Z" class="g0_149"/>
<path fill-rule="evenodd" d="M521,565.7H761.2V550.3H521v15.4Z" class="g0_149"/>
<path fill-rule="evenodd" d="M521,581.1H761.2V565.7H521v15.4Z" class="g0_149"/>
<path fill-rule="evenodd" d="M521,596.5H759V581.1H521v15.4Z" class="g0_149"/>
<path fill-rule="evenodd" d="M521,612.1H759V596.5H521v15.6Z" class="g0_149"/>
<path fill-rule="evenodd" d="M521,627.5H759V612.1H521v15.4Z" class="g0_149"/>
<path fill-rule="evenodd" d="M264.2,742.6H524.3V717.1H264.2v25.5Z" class="g0_149"/>
<path fill-rule="evenodd" d="M264.2,779.3H500.4V764.2H264.2v15.1Z" class="g0_149"/>
<path fill-rule="evenodd" d="M264.2,794.5H500.4V779.3H264.2v15.2Z" class="g0_149"/>
<path fill-rule="evenodd" d="M264.2,809.5H500.4v-15H264.2v15Z" class="g0_149"/>
<path fill-rule="evenodd" d="M264.2,924.7H522.8V908.9H264.2v15.8Z" class="g0_149"/>
<path d="M198.5,426.1V896.2m3,-636.9V618.2M510.6,147.8V682.1" class="g1_149"/>
</svg>