<?xml version="1.0" encoding="UTF-8" standalone="no"?>
<!DOCTYPE svg PUBLIC "-//W3C//DTD SVG 1.1//EN"
"http://www.w3.org/Graphics/SVG/1.1/DTD/svg11.dtd">
<svg viewBox="0 0 909 1285" version="1.1" xmlns="http://www.w3.org/2000/svg" xmlns:xlink="http://www.w3.org/1999/xlink">
<defs>
<style type="text/css"><![CDATA[
.g0_335{
fill: #FFFFFF;
}
.g1_335{
fill: none;
stroke: #000000;
stroke-width: 0.381;
stroke-linecap: butt;
stroke-linejoin: round;
}
]]></style>
</defs>
<path fill-rule="evenodd" d="M269.9,125.8H768.3V110H269.9v15.8Z" class="g0_335"/>
<path fill-rule="evenodd" d="M269.9,161.7H508.3v-15H269.9v15Z" class="g0_335"/>
<path fill-rule="evenodd" d="M269.9,176.9H508.3V161.7H269.9v15.2Z" class="g0_335"/>
<path fill-rule="evenodd" d="M269.2,192H508.3V176.9H269.2V192Z" class="g0_335"/>
<path fill-rule="evenodd" d="M269.2,207H508.3V192H269.2v15Z" class="g0_335"/>
<path fill-rule="evenodd" d="M269.2,222H508.3V207H269.2v15Z" class="g0_335"/>
<path fill-rule="evenodd" d="M269.6,237.1H508.3V222H269.6v15.1Z" class="g0_335"/>
<path fill-rule="evenodd" d="M269.6,252.1H508.3v-15H269.6v15Z" class="g0_335"/>
<path fill-rule="evenodd" d="M269.6,267.1H508.7v-15H269.6v15Z" class="g0_335"/>
<path fill-rule="evenodd" d="M269.6,282.2H508.7V267.1H269.6v15.1Z" class="g0_335"/>
<path fill-rule="evenodd" d="M288.3,297.2H508.7v-15H288.3v15Z" class="g0_335"/>
<path fill-rule="evenodd" d="M269.6,312.2H507.9v-15H269.6v15Z" class="g0_335"/>
<path fill-rule="evenodd" d="M269.6,327.3H507.9V312.2H269.6v15.1Z" class="g0_335"/>
<path fill-rule="evenodd" d="M269.6,342.5H508.3V327.3H269.6v15.2Z" class="g0_335"/>
<path fill-rule="evenodd" d="M269.6,357.6H508.3V342.5H269.6v15.1Z" class="g0_335"/>
<path fill-rule="evenodd" d="M269.6,372.6H508.3v-15H269.6v15Z" class="g0_335"/>
<path fill-rule="evenodd" d="M287.9,387.6H508.7v-15H287.9v15Z" class="g0_335"/>
<path fill-rule="evenodd" d="M268.8,402.7H507.9V387.6H268.8v15.1Z" class="g0_335"/>
<path fill-rule="evenodd" d="M268.8,417.7H507.9v-15H268.8v15Z" class="g0_335"/>
<path fill-rule="evenodd" d="M268.8,432.7H507.9v-15H268.8v15Z" class="g0_335"/>
<path fill-rule="evenodd" d="M268.8,448.1H508.7v-15H268.8v15Z" class="g0_335"/>
<path fill-rule="evenodd" d="M268.8,463.2H508.7V448.1H268.8v15.1Z" class="g0_335"/>
<path fill-rule="evenodd" d="M268.8,478.2H508.7v-15H268.8v15Z" class="g0_335"/>
<path fill-rule="evenodd" d="M268.8,493.2H508.7v-15H268.8v15Z" class="g0_335"/>
<path fill-rule="evenodd" d="M268.5,508.5H507.6V493.2H268.5v15.3Z" class="g0_335"/>
<path fill-rule="evenodd" d="M268.5,523.5H507.6v-15H268.5v15Z" class="g0_335"/>
<path fill-rule="evenodd" d="M269.2,538.5h238v-15h-238v15Z" class="g0_335"/>
<path fill-rule="evenodd" d="M269.2,553.6h238V538.5h-238v15.1Z" class="g0_335"/>
<path fill-rule="evenodd" d="M268.1,568.6H507.6v-15H268.1v15Z" class="g0_335"/>
<path fill-rule="evenodd" d="M268.1,583.6H507.6v-15H268.1v15Z" class="g0_335"/>
<path fill-rule="evenodd" d="M268.1,598.7H507.6V583.6H268.1v15.1Z" class="g0_335"/>
<path fill-rule="evenodd" d="M268.1,613.7H507.6v-15H268.1v15Z" class="g0_335"/>
<path fill-rule="evenodd" d="M268.1,628.8H507.6V613.7H268.1v15.1Z" class="g0_335"/>
<path fill-rule="evenodd" d="M268.1,643.8H507.6v-15H268.1v15Z" class="g0_335"/>
<path fill-rule="evenodd" d="M268.1,658.8H507.6v-15H268.1v15Z" class="g0_335"/>
<path fill-rule="evenodd" d="M268.1,673.9H507.6V658.8H268.1v15.1Z" class="g0_335"/>
<path fill-rule="evenodd" d="M268.1,689.1H507.6V673.9H268.1v15.2Z" class="g0_335"/>
<path fill-rule="evenodd" d="M268.1,704.1H507.2v-15H268.1v15Z" class="g0_335"/>
<path fill-rule="evenodd" d="M268.1,719.1H507.2v-15H268.1v15Z" class="g0_335"/>
<path fill-rule="evenodd" d="M268.1,734.2H507.2V719.1H268.1v15.1Z" class="g0_335"/>
<path fill-rule="evenodd" d="M267.7,749.2H506.8v-15H267.7v15Z" class="g0_335"/>
<path fill-rule="evenodd" d="M267.7,764.2H506.8v-15H267.7v15Z" class="g0_335"/>
<path fill-rule="evenodd" d="M267.7,779.3H506.8V764.2H267.7v15.1Z" class="g0_335"/>
<path fill-rule="evenodd" d="M267.7,794.3H506.8v-15H267.7v15Z" class="g0_335"/>
<path fill-rule="evenodd" d="M267.7,809.3H506.8v-15H267.7v15Z" class="g0_335"/>
<path fill-rule="evenodd" d="M267.7,824.4H506.8V809.3H267.7v15.1Z" class="g0_335"/>
<path fill-rule="evenodd" d="M267.4,839.8H506.5V824.7H267.4v15.1Z" class="g0_335"/>
<path fill-rule="evenodd" d="M267.4,855H506.5V839.8H267.4V855Z" class="g0_335"/>
<path fill-rule="evenodd" d="M267.4,870.1H506.5V855H267.4v15.1Z" class="g0_335"/>
<path fill-rule="evenodd" d="M267.4,885.1H506.5v-15H267.4v15Z" class="g0_335"/>
<path fill-rule="evenodd" d="M269.6,900.1H508.7v-15H269.6v15Z" class="g0_335"/>
<path fill-rule="evenodd" d="M529.2,161.7H768.3v-15H529.2v15Z" class="g0_335"/>
<path fill-rule="evenodd" d="M529.2,176.9H768.3V161.7H529.2v15.2Z" class="g0_335"/>
<path fill-rule="evenodd" d="M529.2,192H768.3V176.9H529.2V192Z" class="g0_335"/>
<path fill-rule="evenodd" d="M529.2,207H768.3V192H529.2v15Z" class="g0_335"/>
<path fill-rule="evenodd" d="M529.2,222H768.3V207H529.2v15Z" class="g0_335"/>
<path fill-rule="evenodd" d="M529.2,237.1H768.3V222H529.2v15.1Z" class="g0_335"/>
<path fill-rule="evenodd" d="M528.8,252.5H767.9V237.4H528.8v15.1Z" class="g0_335"/>
<path fill-rule="evenodd" d="M528.8,267.5H767.9v-15H528.8v15Z" class="g0_335"/>
<path fill-rule="evenodd" d="M528.8,282.5H767.9v-15H528.8v15Z" class="g0_335"/>
<path fill-rule="evenodd" d="M529.2,297.6H767.9V282.5H529.2v15.1Z" class="g0_335"/>
<path fill-rule="evenodd" d="M529.2,312.6H767.9v-15H529.2v15Z" class="g0_335"/>
<path fill-rule="evenodd" d="M529.2,327.8H767.9V312.6H529.2v15.2Z" class="g0_335"/>
<path fill-rule="evenodd" d="M529.2,342.9H767.9V327.8H529.2v15.1Z" class="g0_335"/>
<path fill-rule="evenodd" d="M529.2,357.9H767.9v-15H529.2v15Z" class="g0_335"/>
<path fill-rule="evenodd" d="M528.1,373H767.9V357.9H528.1V373Z" class="g0_335"/>
<path fill-rule="evenodd" d="M528.1,388H767.9V373H528.1v15Z" class="g0_335"/>
<path fill-rule="evenodd" d="M528.1,403H767.9V388H528.1v15Z" class="g0_335"/>
<path fill-rule="evenodd" d="M528.1,418.1H767.9V403H528.1v15.1Z" class="g0_335"/>
<path fill-rule="evenodd" d="M528.1,433.1H767.9v-15H528.1v15Z" class="g0_335"/>
<path fill-rule="evenodd" d="M528.1,448.1H767.9v-15H528.1v15Z" class="g0_335"/>
<path fill-rule="evenodd" d="M528.1,463.2H767.9V448.1H528.1v15.1Z" class="g0_335"/>
<path fill-rule="evenodd" d="M528.1,478.2H767.9v-15H528.1v15Z" class="g0_335"/>
<path fill-rule="evenodd" d="M528.1,493.2H767.9v-15H528.1v15Z" class="g0_335"/>
<path fill-rule="evenodd" d="M528.1,508.5H767.9V493.2H528.1v15.3Z" class="g0_335"/>
<path fill-rule="evenodd" d="M528.1,523.5H767.2v-15H528.1v15Z" class="g0_335"/>
<path fill-rule="evenodd" d="M528.1,538.5H767.2v-15H528.1v15Z" class="g0_335"/>
<path fill-rule="evenodd" d="M528.1,553.6H767.2V538.5H528.1v15.1Z" class="g0_335"/>
<path fill-rule="evenodd" d="M528.1,568.6H767.2v-15H528.1v15Z" class="g0_335"/>
<path fill-rule="evenodd" d="M527.7,583.6H766.8v-15H527.7v15Z" class="g0_335"/>
<path fill-rule="evenodd" d="M527.7,598.7H766.8V583.6H527.7v15.1Z" class="g0_335"/>
<path fill-rule="evenodd" d="M527.7,613.7H766.8v-15H527.7v15Z" class="g0_335"/>
<path fill-rule="evenodd" d="M527.7,628.8H766.8V613.7H527.7v15.1Z" class="g0_335"/>
<path fill-rule="evenodd" d="M527.7,643.8H766.8v-15H527.7v15Z" class="g0_335"/>
<path fill-rule="evenodd" d="M527.4,658.8H766.5v-15H527.4v15Z" class="g0_335"/>
<path fill-rule="evenodd" d="M527.4,673.9H766.5V658.8H527.4v15.1Z" class="g0_335"/>
<path fill-rule="evenodd" d="M527.4,689.1H766.5V673.9H527.4v15.2Z" class="g0_335"/>
<path fill-rule="evenodd" d="M527,704.1H766.8v-15H527v15Z" class="g0_335"/>
<path fill-rule="evenodd" d="M527,719.1H766.8v-15H527v15Z" class="g0_335"/>
<path fill-rule="evenodd" d="M527,734.2H766.8V719.1H527v15.1Z" class="g0_335"/>
<path fill-rule="evenodd" d="M527,749.2H766.8v-15H527v15Z" class="g0_335"/>
<path fill-rule="evenodd" d="M527,764.2H766.8v-15H527v15Z" class="g0_335"/>
<path fill-rule="evenodd" d="M527,779.3H766.8V764.2H527v15.1Z" class="g0_335"/>
<path fill-rule="evenodd" d="M527,794.3H765.7v-15H527v15Z" class="g0_335"/>
<path fill-rule="evenodd" d="M527,809.3H765.7v-15H527v15Z" class="g0_335"/>
<path fill-rule="evenodd" d="M527.4,824.4H766.1V809.3H527.4v15.1Z" class="g0_335"/>
<path fill-rule="evenodd" d="M527.4,839.5H766.1V824.4H527.4v15.1Z" class="g0_335"/>
<path fill-rule="evenodd" d="M503.9,917.4H768.3V899.8H503.9v17.6Z" class="g0_335"/>
<path d="M203.5,87.2v55m313.1,5.3V916.1" class="g1_335"/>
</svg>