<?xml version="1.0" encoding="UTF-8" standalone="no"?>
<!DOCTYPE svg PUBLIC "-//W3C//DTD SVG 1.1//EN"
"http://www.w3.org/Graphics/SVG/1.1/DTD/svg11.dtd">
<svg viewBox="0 0 909 1285" version="1.1" xmlns="http://www.w3.org/2000/svg" xmlns:xlink="http://www.w3.org/1999/xlink">
<defs>
<style type="text/css"><![CDATA[
.g0_202{
fill: #FFFFFF;
}
.g1_202{
fill: none;
stroke: #000000;
stroke-width: 0.381;
stroke-linecap: butt;
stroke-linejoin: round;
}
]]></style>
</defs>
<path fill-rule="evenodd" d="M647.3,134.6h59.4V110H647.3v24.6Z" class="g0_202"/>
<path fill-rule="evenodd" d="M203.2,168.3H424.3v-15H203.2v15Z" class="g0_202"/>
<path fill-rule="evenodd" d="M184.8,183.4H424.3V168.3H184.8v15.1Z" class="g0_202"/>
<path fill-rule="evenodd" d="M184.8,198.4H424.3v-15H184.8v15Z" class="g0_202"/>
<path fill-rule="evenodd" d="M203.2,213.6H424.3V198.4H203.2v15.2Z" class="g0_202"/>
<path fill-rule="evenodd" d="M203.2,228.6H424.3v-15H203.2v15Z" class="g0_202"/>
<path fill-rule="evenodd" d="M184.8,243.7H423.9V228.6H184.8v15.1Z" class="g0_202"/>
<path fill-rule="evenodd" d="M184.8,258.7H423.9v-15H184.8v15Z" class="g0_202"/>
<path fill-rule="evenodd" d="M185.2,273.7H423.6v-15H185.2v15Z" class="g0_202"/>
<path fill-rule="evenodd" d="M185.2,288.8H423.6V273.7H185.2v15.1Z" class="g0_202"/>
<path fill-rule="evenodd" d="M185.2,303.8H424.3v-15H185.2v15Z" class="g0_202"/>
<path fill-rule="evenodd" d="M185.2,318.8H424.3v-15H185.2v15Z" class="g0_202"/>
<path fill-rule="evenodd" d="M184.8,333.9H423.6V318.8H184.8v15.1Z" class="g0_202"/>
<path fill-rule="evenodd" d="M184.8,348.9H423.6v-15H184.8v15Z" class="g0_202"/>
<path fill-rule="evenodd" d="M184.8,364H423.6V348.9H184.8V364Z" class="g0_202"/>
<path fill-rule="evenodd" d="M184.5,379.2H423.6V364H184.5v15.2Z" class="g0_202"/>
<path fill-rule="evenodd" d="M184.5,394.2H423.6v-15H184.5v15Z" class="g0_202"/>
<path fill-rule="evenodd" d="M184.5,409.3H423.6V394.2H184.5v15.1Z" class="g0_202"/>
<path fill-rule="evenodd" d="M202.1,424.3H424.3v-15H202.1v15Z" class="g0_202"/>
<path fill-rule="evenodd" d="M202.1,439.3H424.3v-15H202.1v15Z" class="g0_202"/>
<path fill-rule="evenodd" d="M183.7,454.7H423.2v-15H183.7v15Z" class="g0_202"/>
<path fill-rule="evenodd" d="M183.7,469.8H423.2V454.7H183.7v15.1Z" class="g0_202"/>
<path fill-rule="evenodd" d="M183.7,484.8H423.2v-15H183.7v15Z" class="g0_202"/>
<path fill-rule="evenodd" d="M183.7,499.8H423.2v-15H183.7v15Z" class="g0_202"/>
<path fill-rule="evenodd" d="M183.7,514.9H423.2V499.8H183.7v15.1Z" class="g0_202"/>
<path fill-rule="evenodd" d="M201.7,529.9H424.3v-15H201.7v15Z" class="g0_202"/>
<path fill-rule="evenodd" d="M183.7,545.1H422.5V529.9H183.7v15.2Z" class="g0_202"/>
<path fill-rule="evenodd" d="M183.7,560.2H422.5V545.1H183.7v15.1Z" class="g0_202"/>
<path fill-rule="evenodd" d="M183.7,575.2H422.5v-15H183.7v15Z" class="g0_202"/>
<path fill-rule="evenodd" d="M183.4,590.2H422.8v-15H183.4v15Z" class="g0_202"/>
<path fill-rule="evenodd" d="M183.4,605.3H422.8V590.2H183.4v15.1Z" class="g0_202"/>
<path fill-rule="evenodd" d="M183.4,620.3H422.8v-15H183.4v15Z" class="g0_202"/>
<path fill-rule="evenodd" d="M183,635.7H422.5v-15H183v15Z" class="g0_202"/>
<path fill-rule="evenodd" d="M183,650.8H422.5V635.7H183v15.1Z" class="g0_202"/>
<path fill-rule="evenodd" d="M183,665.8H422.5v-15H183v15Z" class="g0_202"/>
<path fill-rule="evenodd" d="M183,680.8H421.7v-15H183v15Z" class="g0_202"/>
<path fill-rule="evenodd" d="M183,695.9H421.7V680.8H183v15.1Z" class="g0_202"/>
<path fill-rule="evenodd" d="M201,711.1H424.3V695.9H201v15.2Z" class="g0_202"/>
<path fill-rule="evenodd" d="M201.3,726.1h223v-15h-223v15Z" class="g0_202"/>
<path fill-rule="evenodd" d="M182.6,741.1H422.5v-15H182.6v15Z" class="g0_202"/>
<path fill-rule="evenodd" d="M182.6,756.2H422.5V741.1H182.6v15.1Z" class="g0_202"/>
<path fill-rule="evenodd" d="M182.6,771.2H422.5v-15H182.6v15Z" class="g0_202"/>
<path fill-rule="evenodd" d="M182.6,786.2H422.8v-15H182.6v15Z" class="g0_202"/>
<path fill-rule="evenodd" d="M182.6,801.3H422.8V786.2H182.6v15.1Z" class="g0_202"/>
<path fill-rule="evenodd" d="M182.6,816.3H422.8v-15H182.6v15Z" class="g0_202"/>
<path fill-rule="evenodd" d="M182.3,831.3H422.5v-15H182.3v15Z" class="g0_202"/>
<path fill-rule="evenodd" d="M182.3,846.4H422.5V831.3H182.3v15.1Z" class="g0_202"/>
<path fill-rule="evenodd" d="M182.6,861.5H421.7V846.4H182.6v15.1Z" class="g0_202"/>
<path fill-rule="evenodd" d="M182.6,876.5H421.7v-15H182.6v15Z" class="g0_202"/>
<path fill-rule="evenodd" d="M200.6,891.7H424.3V876.5H200.6v15.2Z" class="g0_202"/>
<path fill-rule="evenodd" d="M185.6,906.7H424.3v-15H185.6v15Z" class="g0_202"/>
<path fill-rule="evenodd" d="M444.8,168.3H685.5v-15H444.8v15Z" class="g0_202"/>
<path fill-rule="evenodd" d="M444.8,183.4H685.5V168.3H444.8v15.1Z" class="g0_202"/>
<path fill-rule="evenodd" d="M444.8,198.4H685.5v-15H444.8v15Z" class="g0_202"/>
<path fill-rule="evenodd" d="M444.8,213.6H685.5V198.4H444.8v15.2Z" class="g0_202"/>
<path fill-rule="evenodd" d="M444.8,228.6H685.5v-15H444.8v15Z" class="g0_202"/>
<path fill-rule="evenodd" d="M444.8,243.7H685.5V228.6H444.8v15.1Z" class="g0_202"/>
<path fill-rule="evenodd" d="M444.8,258.7H685.5v-15H444.8v15Z" class="g0_202"/>
<path fill-rule="evenodd" d="M444.8,273.7H685.5v-15H444.8v15Z" class="g0_202"/>
<path fill-rule="evenodd" d="M444.5,288.8H685.1V273.7H444.5v15.1Z" class="g0_202"/>
<path fill-rule="evenodd" d="M444.5,303.8H685.1v-15H444.5v15Z" class="g0_202"/>
<path fill-rule="evenodd" d="M444.5,318.8H685.1v-15H444.5v15Z" class="g0_202"/>
<path fill-rule="evenodd" d="M444.5,333.9H685.1V318.8H444.5v15.1Z" class="g0_202"/>
<path fill-rule="evenodd" d="M444.5,348.9H685.1v-15H444.5v15Z" class="g0_202"/>
<path fill-rule="evenodd" d="M444.5,364H685.1V348.9H444.5V364Z" class="g0_202"/>
<path fill-rule="evenodd" d="M444.5,379.2H685.1V364H444.5v15.2Z" class="g0_202"/>
<path fill-rule="evenodd" d="M444.5,394.2H685.1v-15H444.5v15Z" class="g0_202"/>
<path fill-rule="evenodd" d="M443.7,409.3h241V394.2h-241v15.1Z" class="g0_202"/>
<path fill-rule="evenodd" d="M443.7,424.3h241v-15h-241v15Z" class="g0_202"/>
<path fill-rule="evenodd" d="M443.7,439.3h241v-15h-241v15Z" class="g0_202"/>
<path fill-rule="evenodd" d="M443.7,454.4h241V439.3h-241v15.1Z" class="g0_202"/>
<path fill-rule="evenodd" d="M443.7,469.4h241v-15h-241v15Z" class="g0_202"/>
<path fill-rule="evenodd" d="M443.7,484.4h241v-15h-241v15Z" class="g0_202"/>
<path fill-rule="evenodd" d="M443.7,499.5h241V484.4h-241v15.1Z" class="g0_202"/>
<path fill-rule="evenodd" d="M462.1,514.5H685.4v-15H462.1v15Z" class="g0_202"/>
<path fill-rule="evenodd" d="M462.5,529.5H685.4v-15H462.5v15Z" class="g0_202"/>
<path fill-rule="evenodd" d="M443.4,544.6H683.3V529.5H443.4v15.1Z" class="g0_202"/>
<path fill-rule="evenodd" d="M443.4,559.8H683.3V544.6H443.4v15.2Z" class="g0_202"/>
<path fill-rule="evenodd" d="M442.6,574.8H684.4v-15H442.6v15Z" class="g0_202"/>
<path fill-rule="evenodd" d="M442.6,589.9H684.4V574.8H442.6v15.1Z" class="g0_202"/>
<path fill-rule="evenodd" d="M442.6,604.9H684.4v-15H442.6v15Z" class="g0_202"/>
<path fill-rule="evenodd" d="M442.6,620H684.4V604.9H442.6V620Z" class="g0_202"/>
<path fill-rule="evenodd" d="M442.6,635H684.4V620H442.6v15Z" class="g0_202"/>
<path fill-rule="evenodd" d="M442.6,650H684.4V635H442.6v15Z" class="g0_202"/>
<path fill-rule="evenodd" d="M442.6,665.1H684.4V650H442.6v15.1Z" class="g0_202"/>
<path fill-rule="evenodd" d="M443.7,680.1H682.9v-15H443.7v15Z" class="g0_202"/>
<path fill-rule="evenodd" d="M443.7,695.1H682.9v-15H443.7v15Z" class="g0_202"/>
<path fill-rule="evenodd" d="M443,710.2H683.6V695.1H443v15.1Z" class="g0_202"/>
<path fill-rule="evenodd" d="M443,725.2H683.6v-15H443v15Z" class="g0_202"/>
<path fill-rule="evenodd" d="M443,740.4H683.6V725.2H443v15.2Z" class="g0_202"/>
<path fill-rule="evenodd" d="M442.6,755.4H683.3v-15H442.6v15Z" class="g0_202"/>
<path fill-rule="evenodd" d="M442.6,770.5H683.3V755.4H442.6v15.1Z" class="g0_202"/>
<path fill-rule="evenodd" d="M442.6,785.5H683.3v-15H442.6v15Z" class="g0_202"/>
<path fill-rule="evenodd" d="M442.6,800.5H683.3v-15H442.6v15Z" class="g0_202"/>
<path fill-rule="evenodd" d="M442.6,815.6H683.3V800.5H442.6v15.1Z" class="g0_202"/>
<path fill-rule="evenodd" d="M442.6,830.6H683.3v-15H442.6v15Z" class="g0_202"/>
<path fill-rule="evenodd" d="M441.5,846.1H683.6V831H441.5v15.1Z" class="g0_202"/>
<path fill-rule="evenodd" d="M441.5,861.1H683.6v-15H441.5v15Z" class="g0_202"/>
<path fill-rule="evenodd" d="M441.5,876.1H683.6v-15H441.5v15Z" class="g0_202"/>
<path fill-rule="evenodd" d="M441.5,891.2H683.6V876.1H441.5v15.1Z" class="g0_202"/>
<path fill-rule="evenodd" d="M441.5,906.4H683.6V891.2H441.5v15.2Z" class="g0_202"/>
<path fill-rule="evenodd" d="M418.8,938.5H706.7V921H418.8v17.5Z" class="g0_202"/>
<path d="M431.9,153.3V911.9" class="g1_202"/>
</svg>