<?xml version="1.0" encoding="UTF-8" standalone="no"?>
<!DOCTYPE svg PUBLIC "-//W3C//DTD SVG 1.1//EN"
"http://www.w3.org/Graphics/SVG/1.1/DTD/svg11.dtd">
<svg viewBox="0 0 909 1285" version="1.1" xmlns="http://www.w3.org/2000/svg" xmlns:xlink="http://www.w3.org/1999/xlink">
<defs>
<style type="text/css"><![CDATA[
.g0_200{
fill: #FFFFFF;
}
.g1_200{
fill: none;
stroke: #000000;
stroke-width: 0.381;
stroke-linecap: butt;
stroke-linejoin: round;
}
]]></style>
</defs>
<path fill-rule="evenodd" d="M277.1,134.6H774.7V110H277.1v24.6Z" class="g0_200"/>
<path fill-rule="evenodd" d="M277.1,168.7H515.8v-15H277.1v15Z" class="g0_200"/>
<path fill-rule="evenodd" d="M277.1,183.7H515.8v-15H277.1v15Z" class="g0_200"/>
<path fill-rule="evenodd" d="M295.1,198.9H515.8V183.7H295.1v15.2Z" class="g0_200"/>
<path fill-rule="evenodd" d="M277.1,214H515.5V198.9H277.1V214Z" class="g0_200"/>
<path fill-rule="evenodd" d="M277.1,229H515.5V214H277.1v15Z" class="g0_200"/>
<path fill-rule="evenodd" d="M277.1,244h238V229h-238v15Z" class="g0_200"/>
<path fill-rule="evenodd" d="M277.1,259.1h238V244h-238v15.1Z" class="g0_200"/>
<path fill-rule="evenodd" d="M277.1,274.1h238v-15h-238v15Z" class="g0_200"/>
<path fill-rule="evenodd" d="M277.1,289.1h238v-15h-238v15Z" class="g0_200"/>
<path fill-rule="evenodd" d="M277.1,304.2h238V289.1h-238v15.1Z" class="g0_200"/>
<path fill-rule="evenodd" d="M277.1,319.2H514.7v-15H277.1v15Z" class="g0_200"/>
<path fill-rule="evenodd" d="M277.1,334.2H514.7v-15H277.1v15Z" class="g0_200"/>
<path fill-rule="evenodd" d="M295.1,349.3H515.8V334.2H295.1v15.1Z" class="g0_200"/>
<path fill-rule="evenodd" d="M295.1,364.5H515.8V349.3H295.1v15.2Z" class="g0_200"/>
<path fill-rule="evenodd" d="M277.1,379.6H514.7V364.5H277.1v15.1Z" class="g0_200"/>
<path fill-rule="evenodd" d="M277.1,394.6H514.7v-15H277.1v15Z" class="g0_200"/>
<path fill-rule="evenodd" d="M277.1,409.6H514.7v-15H277.1v15Z" class="g0_200"/>
<path fill-rule="evenodd" d="M276.7,424.7h238V409.6h-238v15.1Z" class="g0_200"/>
<path fill-rule="evenodd" d="M276.7,439.7h238v-15h-238v15Z" class="g0_200"/>
<path fill-rule="evenodd" d="M276.7,454.7H514.4v-15H276.7v15Z" class="g0_200"/>
<path fill-rule="evenodd" d="M276.7,469.8H514.4V454.7H276.7v15.1Z" class="g0_200"/>
<path fill-rule="evenodd" d="M276.4,484.8h238v-15h-238v15Z" class="g0_200"/>
<path fill-rule="evenodd" d="M276.4,499.8h238v-15h-238v15Z" class="g0_200"/>
<path fill-rule="evenodd" d="M276.7,514.9H514.4V499.8H276.7v15.1Z" class="g0_200"/>
<path fill-rule="evenodd" d="M276.7,529.9H514.4v-15H276.7v15Z" class="g0_200"/>
<path fill-rule="evenodd" d="M277.1,545.1h238V529.9h-238v15.2Z" class="g0_200"/>
<path fill-rule="evenodd" d="M535.8,168.7h238v-15h-238v15Z" class="g0_200"/>
<path fill-rule="evenodd" d="M535.8,183.7h238v-15h-238v15Z" class="g0_200"/>
<path fill-rule="evenodd" d="M535.8,198.9H773.4V183.7H535.8v15.2Z" class="g0_200"/>
<path fill-rule="evenodd" d="M535.8,214H773.4V198.9H535.8V214Z" class="g0_200"/>
<path fill-rule="evenodd" d="M535.8,229h238V214h-238v15Z" class="g0_200"/>
<path fill-rule="evenodd" d="M535.8,244h238V229h-238v15Z" class="g0_200"/>
<path fill-rule="evenodd" d="M535.1,259.1H774.5V244H535.1v15.1Z" class="g0_200"/>
<path fill-rule="evenodd" d="M535.1,274.1H774.5v-15H535.1v15Z" class="g0_200"/>
<path fill-rule="evenodd" d="M535.1,289.1H774.5v-15H535.1v15Z" class="g0_200"/>
<path fill-rule="evenodd" d="M535.4,304.2H774.2V289.1H535.4v15.1Z" class="g0_200"/>
<path fill-rule="evenodd" d="M535.4,319.2H774.2v-15H535.4v15Z" class="g0_200"/>
<path fill-rule="evenodd" d="M535.4,334.2H774.2v-15H535.4v15Z" class="g0_200"/>
<path fill-rule="evenodd" d="M535.4,349.3H773.8V334.2H535.4v15.1Z" class="g0_200"/>
<path fill-rule="evenodd" d="M535.4,364.5H773.8V349.3H535.4v15.2Z" class="g0_200"/>
<path fill-rule="evenodd" d="M535.4,379.6H773.8V364.5H535.4v15.1Z" class="g0_200"/>
<path fill-rule="evenodd" d="M535.4,394.6H773.8v-15H535.4v15Z" class="g0_200"/>
<path fill-rule="evenodd" d="M535.1,409.6H773.8v-15H535.1v15Z" class="g0_200"/>
<path fill-rule="evenodd" d="M535.1,424.7H773.8V409.6H535.1v15.1Z" class="g0_200"/>
<path fill-rule="evenodd" d="M535.1,439.7H773.8v-15H535.1v15Z" class="g0_200"/>
<path fill-rule="evenodd" d="M535.1,454.7H773.8v-15H535.1v15Z" class="g0_200"/>
<path fill-rule="evenodd" d="M535.1,469.8H773.8V454.7H535.1v15.1Z" class="g0_200"/>
<path fill-rule="evenodd" d="M535.1,484.8H773.8v-15H535.1v15Z" class="g0_200"/>
<path fill-rule="evenodd" d="M535.4,499.8H773.8v-15H535.4v15Z" class="g0_200"/>
<path fill-rule="evenodd" d="M535.4,514.9H773.8V499.8H535.4v15.1Z" class="g0_200"/>
<path fill-rule="evenodd" d="M553.4,529.9H774.5v-15H553.4v15Z" class="g0_200"/>
<path fill-rule="evenodd" d="M504.1,596.7H774.7V572.8H504.1v23.9Z" class="g0_200"/>
<path fill-rule="evenodd" d="M276.4,635.4H517.7V619.8H276.4v15.6Z" class="g0_200"/>
<path fill-rule="evenodd" d="M276.4,650.8H517.7V635.4H276.4v15.4Z" class="g0_200"/>
<path fill-rule="evenodd" d="M276.4,666.2H517.7V650.8H276.4v15.4Z" class="g0_200"/>
<path fill-rule="evenodd" d="M276.4,681.6H517.7V666.2H276.4v15.4Z" class="g0_200"/>
<path fill-rule="evenodd" d="M276.4,697H517.7V681.6H276.4V697Z" class="g0_200"/>
<path fill-rule="evenodd" d="M276.4,712.4H517.7V697H276.4v15.4Z" class="g0_200"/>
<path fill-rule="evenodd" d="M276.4,728.3H516.9V712.7H276.4v15.6Z" class="g0_200"/>
<path fill-rule="evenodd" d="M276.4,743.7H516.9V728.3H276.4v15.4Z" class="g0_200"/>
<path fill-rule="evenodd" d="M276.4,759.1H516.9V743.7H276.4v15.4Z" class="g0_200"/>
<path fill-rule="evenodd" d="M276.4,774.5H516.9V759.1H276.4v15.4Z" class="g0_200"/>
<path fill-rule="evenodd" d="M276.4,789.9H516.9V774.5H276.4v15.4Z" class="g0_200"/>
<path fill-rule="evenodd" d="M276.4,805.5H516.9V789.9H276.4v15.6Z" class="g0_200"/>
<path fill-rule="evenodd" d="M276.4,820.9H516.9V805.5H276.4v15.4Z" class="g0_200"/>
<path fill-rule="evenodd" d="M276,836.3H516.6V820.9H276v15.4Z" class="g0_200"/>
<path fill-rule="evenodd" d="M276,851.7H516.6V836.3H276v15.4Z" class="g0_200"/>
<path fill-rule="evenodd" d="M276,867.1H516.6V851.7H276v15.4Z" class="g0_200"/>
<path fill-rule="evenodd" d="M276,882.5H516.6V867.1H276v15.4Z" class="g0_200"/>
<path fill-rule="evenodd" d="M276,898.1H516.6V882.5H276v15.6Z" class="g0_200"/>
<path fill-rule="evenodd" d="M294.7,913.5h223V898.1h-223v15.4Z" class="g0_200"/>
<path fill-rule="evenodd" d="M549.7,635.4H773.8V619.8H549.7v15.6Z" class="g0_200"/>
<path fill-rule="evenodd" d="M549.7,650.8H773.8V635.4H549.7v15.4Z" class="g0_200"/>
<path fill-rule="evenodd" d="M531.4,666.2H773.8V650.8H531.4v15.4Z" class="g0_200"/>
<path fill-rule="evenodd" d="M531.4,681.6H773.8V666.2H531.4v15.4Z" class="g0_200"/>
<path fill-rule="evenodd" d="M531.4,697H773.8V681.6H531.4V697Z" class="g0_200"/>
<path fill-rule="evenodd" d="M531.8,712.4h242V697h-242v15.4Z" class="g0_200"/>
<path fill-rule="evenodd" d="M531.4,727.9H773.8V712.4H531.4v15.5Z" class="g0_200"/>
<path fill-rule="evenodd" d="M531.4,743.3H773.8V727.9H531.4v15.4Z" class="g0_200"/>
<path fill-rule="evenodd" d="M531.4,758.7H773.8V743.3H531.4v15.4Z" class="g0_200"/>
<path fill-rule="evenodd" d="M531.4,774.1H773.8V758.7H531.4v15.4Z" class="g0_200"/>
<path fill-rule="evenodd" d="M531.4,789.5H773.1V774.1H531.4v15.4Z" class="g0_200"/>
<path fill-rule="evenodd" d="M531.4,804.9H773.1V789.5H531.4v15.4Z" class="g0_200"/>
<path fill-rule="evenodd" d="M531.4,820.5h242V804.9h-242v15.6Z" class="g0_200"/>
<path fill-rule="evenodd" d="M531.4,836h242V820.5h-242V836Z" class="g0_200"/>
<path fill-rule="evenodd" d="M531,851.4H773.1V836H531v15.4Z" class="g0_200"/>
<path fill-rule="evenodd" d="M531,866.8H773.4V851.4H531v15.4Z" class="g0_200"/>
<path fill-rule="evenodd" d="M531,882.2H773.4V866.8H531v15.4Z" class="g0_200"/>
<path fill-rule="evenodd" d="M531,897.6H773.4V882.2H531v15.4Z" class="g0_200"/>
<path fill-rule="evenodd" d="M510.7,929.5h264V912.1h-264v17.4Z" class="g0_200"/>
<path d="M212.1,110V276.1M215.7,121V403m2.6,-294.5v348m1.5,-169.7V524.3m0,-30.7V655M524.9,154.8V528.4m-1.6,91v301" class="g1_200"/>
</svg>